<?xml version="1.0" encoding="utf-8"?>
<svg version="1.1" xmlns:xlink="http://www.w3.org/1999/xlink" width="39px" height="42px" xmlns="http://www.w3.org/2000/svg">
  <g transform="matrix(1 0 0 1 -357 -342 )">
    <path d="M 39 7.23916666666667  C 38.9773255813953 3.55833333333334  36.0693313953488 0.560000000000001  32.4981104651163 0.56  L 30.0946220930233 0.56  C 29.4994186046512 0.56  29.0119186046512 1.06166666666667  29.0119186046512 1.67416666666667  C 29.0119186046512 2.28666666666667  29.4994186046512 2.78833333333333  30.0946220930233 2.78833333333333  L 32.4981104651163 2.78833333333333  C 34.8789244186046 2.78833333333333  36.8175872093023 4.78333333333333  36.8175872093023 7.23916666666667  L 36.8175872093023 35.0875  C 36.8175872093023 37.5433333333333  34.8732558139535 39.5383333333333  32.486773255814 39  L 6.51322674418605 39  C 4.12674418604651 39.5383333333333  2.18808139534884 37.5433333333333  2.18808139534884 35.0875  L 2.18808139534884 7.23916666666667  C 2.18808139534884 4.78333333333334  4.12674418604651 2.78833333333333  6.51322674418605 2.78833333333333  L 9.05843023255814 2.78833333333333  C 9.65363372093023 2.78833333333333  10.1411337209302 2.28666666666667  10.1411337209302 1.67416666666667  C 10.1411337209302 1.06166666666667  9.65363372093023 0.560000000000001  9.05843023255814 0.560000000000001  L 6.51322674418605 0.560000000000001  C 2.93633720930232 0.560000000000001  0.0226744186046499 3.55833333333334  0 7.23916666666667  L 0 35.0875  C 0.0226744186046499 38.7683333333333  2.93633720930232 41.7666666666667  6.51322674418605 41  L 32.4924418604651 41  C 36.0693313953488 41.7666666666667  38.9829941860465 38.7683333333333  39 35.0875  L 39 7.23916666666667  Z M 30.3213662790698 21.7233333333333  C 30.3213662790698 21.105  29.7545058139535 20.6091666666667  29.0572674418605 21  L 9.94273255813953 21  C 9.24549418604651 20.6091666666667  8.67863372093023 21.1108333333333  8.67863372093023 21.7233333333333  C 8.67863372093023 22.3358333333333  9.24549418604651 22.8375  9.94273255813953 22  L 29.0572674418605 22  C 29.7545058139535 22.8375  30.3213662790698 22.3358333333333  30.3213662790698 21.7233333333333  Z M 13.4289244186047 1.9075  C 13.4232558139535 2.82333333333333  14.2962209302326 3.57583333333333  15.3789244186047 3.57583333333333  L 23.575726744186 3.57583333333333  C 24.652761627907 3.57583333333333  25.525726744186 2.82916666666667  25.525726744186 1.9075  C 25.525726744186 0.985833333333335  24.652761627907 0.239166666666668  23.575726744186 0.239166666666668  L 15.3789244186047 0.239166666666668  C 14.3018895348837 0.239166666666668  13.4289244186047 0.985833333333335  13.4289244186047 1.9075  Z M 30.3213662790698 30.6308333333333  C 30.3213662790698 30.0125  29.7545058139535 29.5166666666667  29.0572674418605 29  L 9.94273255813953 29  C 9.24549418604651 29.5166666666667  8.67863372093023 30.0125  8.67863372093023 30.6308333333333  C 8.67863372093023 31.2433333333333  9.24549418604651 31.745  9.94273255813953 31  L 29.0572674418605 31  C 29.7545058139535 31.745  30.3213662790698 31.2433333333333  30.3213662790698 30.6308333333333  Z M 30.3213662790698 12.81  C 30.3213662790698 12.1975  29.7545058139535 11.6958333333333  29.0572674418605 12  L 9.94273255813953 12  C 9.24549418604651 11.6958333333333  8.67863372093023 12.1975  8.67863372093023 12.81  C 8.67863372093023 13.4225  9.24549418604651 13.9241666666667  9.94273255813953 14  L 29.0572674418605 14  C 29.7545058139535 13.9241666666667  30.3213662790698 13.4225  30.3213662790698 12.81  Z " fill-rule="nonzero" fill="#ffffff" stroke="none" transform="matrix(1 0 0 1 357 342 )" />
  </g>
</svg>