<?xml version="1.0" encoding="utf-8"?>
<svg version="1.1" xmlns:xlink="http://www.w3.org/1999/xlink" width="39px" height="39px" xmlns="http://www.w3.org/2000/svg">
  <g transform="matrix(1 0 0 1 -657 -343 )">
    <path d="M 38.8747143071121 35.5475661012931  C 38.8746713146552 37.4082774924569  37.3659826648707 38.9169043221983  35.5051950387931 39  L 3.4948049612069 39  C 1.63401733512931 38.9169043221983  0.125285692887931 37.4082775344828  0.125285692887931 35.5475231088362  L 0.125285692887931 3.53848756681034  C 0.125285692887931 1.67777617564655  1.63401733512931 0.169106353448276  3.4948049612069 0.169106353448276  L 35.5051950387931 0.169106353448276  C 37.3660256993535 0.169106353448276  38.8747143071121 1.67777617564655  38.8747143071121 3.53848756681034  L 38.8747143071121 35.5475661012931  Z M 5.17956457435345 8.59255938685345  L 5.17956461637931 1.85379696012931  L 3.4948049612069 1.85379696012931  C 2.56443264439655 1.85379696012931  1.81004530603448 2.6081533674569  1.81004530603448 3.53848756681034  L 1.81004530603448 8.59255938685345  L 5.17956457435345 8.59255938685345  Z M 5.17956461637931 18.7006600344828  L 5.17956461637931 10.2772070010776  L 1.81004534806034 10.2772070010776  L 1.81004534806034 18.7006600344828  L 5.17956461637931 18.7006600344828  Z M 5.17956461637931 28.808803674569  L 5.17956461637931 20.3853506411638  L 1.81004534806034 20.3853506411638  L 1.81004534806034 28.808803674569  L 5.17956461637931 28.808803674569  Z M 5.17956465840517 37.2322137155172  L 5.17956461637931 30.49349428125  L 1.81004534806034 30.49349428125  L 1.81004534806034 35.5475231088362  C 1.81004534806034 36.4779003006466  2.56443264439655 37.2322137155172  3.49480500323276 37.2322137155172  L 5.17956465840517 37.2322137155172  Z M 32.1356757704741 28.808803674569  L 32.1356757704741 20.3853506411638  L 32.1356757704741 18.7006600344828  L 32.1356757704741 10.2772070010776  L 32.1356757704741 8.59251639439655  L 32.1356757704741 2  L 6.86432422952586 2  L 6.86432422952586 8.59255938685345  L 6.86432422952586 10.2772499935345  L 6.86432422952586 18.7007030269397  L 6.86432422952586 20.3853936336207  L 6.86432422952586 28.8088466670259  L 6.86432422952586 30.4935372737069  L 6.86432422952586 37  L 32.1356757704741 37  L 32.1356757704741 30.49349428125  L 32.1356757704741 28.808803674569  Z M 37.1899546099138 8.59255938685345  L 37.1899546519397 3.53848756681034  C 37.1899546519397 2.6081533674569  36.4356103480603 1.85379696012931  35.5051949967672 1.85379696012931  L 33.8204353415948 1.85379696012931  L 33.8204353415948 8.59255938685345  L 37.1899546099138 8.59255938685345  Z M 37.1899546519397 18.7006600344828  L 37.1899546519397 10.2772070010776  L 33.8204353836207 10.2772070010776  L 33.8204353836207 18.7006600344828  L 37.1899546519397 18.7006600344828  Z M 37.1899546519397 28.808803674569  L 37.1899546519397 20.3853506411638  L 33.8204353836207 20.3853506411638  L 33.8204353836207 28.808803674569  L 37.1899546519397 28.808803674569  Z M 37.1899546939655 35.5475231088362  L 37.1899546519397 30.49349428125  L 33.8204353836207 30.49349428125  L 33.8204353836207 37.2322137155172  L 35.5051950387931 37.2322137155172  C 36.4356103480603 37.2322137155172  37.1899546939655 36.4779003006466  37.1899546939655 35.5475231088362  Z M 26.0004997435345 20.0966558728448  L 14.2030536206897 26.8674142693966  C 13.8740063760776 27.1964480237069  13.3417506821121 27.1964480237069  13.0135205883621 26.8674142693966  C 12.8506097295259 26.7045530851293  12.7700144644397 26.4906445991379  12.7683802047414 26.2775962144397  L 13 26.2817247090517  L 13 12.830562174569  L 12.7824004946121 12.830562174569  C 12.7708746077586 12.6010857543103  12.8449327920259 12.3682549137931  13.0201436540948 12.1926641799569  C 13.3491908987069 11.863200375  13.8814465926724 11.863200375  14.2096766864224 12.1926641799569  L 26.0004997435345 18.9038602047414  C 26.1584647887931 19.062205794181  26.2472744288793 19.2765013383621  26.2472744288793 19.5002580387931  C 26.2472744288793 19.7240147392241  26.1584647887931 19.9386973415948  26.0004997435345 20.0966558728448  Z M 23.6542910948276 19.5512193556035  L 14.5296494127155 14.3577242586207  L 14.5378637456897 14.5629456627155  L 15 14.5629456627155  L 15 24.833950487069  L 23.6542910948276 19.5512193556035  Z " fill-rule="nonzero" fill="#ffffff" stroke="none" transform="matrix(1 0 0 1 657 343 )" />
  </g>
</svg>