<?xml version="1.0" encoding="utf-8"?>
<svg version="1.1" xmlns:xlink="http://www.w3.org/1999/xlink" width="21px" height="11px" xmlns="http://www.w3.org/2000/svg">
  <g transform="matrix(1 0 0 1 -966 -349 )">
    <path d="M 20.2039215514706 3.53571428571429  C 20.4235294117647 3.53571428571429  20.6431372205882 3.32619045982143  20.6431372720588 3.11666668303571  L 20.6431372720588 0.707142857142856  C 20.6431372720588 0.49761903125  20.4235294117647 0.288095254464285  20.2039215514706 0.288095254464285  L 0.439215669117651 0.288095254464285  C 0.219607808823535 0.288095254464285  0 0.497619080357142  0 0.707142857142856  L 0 3.11666668303571  C 0 3.32619050892857  0.21960786029412 3.53571428571429  0.439215669117651 3.53571428571429  L 20.2039215514706 3.53571428571429  Z M 9.88235294117647 7.51666668303571  L 0.439215669117648 7.51666668303571  C 0.219607808823532 7.51666668303571  0 7.72619050892857  0 7.93571428571429  L 0 10.3452381116071  C 0 10.5547619375  0.219607860294117 10.7642857142857  0.439215669117648 10.7642857142857  L 9.88235294117647 10.7642857142857  C 10.1019608014706 10.7642857142857  10.3215686102941 10.5547618883929  10.3215686102941 10.3452381116071  L 10.3215686102941 7.93571428571429  C 10.3215686102941 7.72619045982143  10.10196075 7.51666668303571  9.88235294117647 7.51666668303571  Z " fill-rule="nonzero" fill="#ffffff" stroke="none" transform="matrix(1 0 0 1 966 349 )" />
  </g>
</svg>