<?xml version="1.0" encoding="utf-8"?>
<svg version="1.1" xmlns:xlink="http://www.w3.org/1999/xlink" width="36px" height="44px" xmlns="http://www.w3.org/2000/svg">
  <g transform="matrix(1 0 0 1 -958 -340 )">
    <path d="M 15.8831460505618 40.6006230700935  C 15.7752808988764 40.2716511074766  15.5595505449438 40.0523364485981  15.343820241573 40  L 4 40  L 4 4  L 32 4  L 32 21.5202492383178  C 31.9550561797753 21.7395638971963  32.1707865337079 21.9588785046729  32.3865168370787 21.9588785046729  L 35.1910112359551 21.9588785046729  C 35.4067415898876 21.9588785046729  35.6224718932584 21.7395638457944  35 21.5202492383178  L 35 1.78193148130841  C 35.6224718932584 0.904672897196262  34.8674157303371 0.137071668224299  34.0044943651685 1  L 1.64494380337079 1  C 0.674157286516853 0.246728971962617  0.0269662752808974 0.904672897196262  0 1.89158878504673  L 0 42.2454828831776  C 0.0269662752808974 43.1227414672897  0.782022438202246 43.8903426962617  1.64494380337079 43.8903426962617  L 15.4516853932584 43.8903426962617  C 15.667415747191 43.8903426962617  15.8831460505618 43.6710280373832  15.8831460505618 43.4517133785047  L 15.8831460505618 40.6006230700935  Z " fill-rule="nonzero" fill="#ffffff" stroke="none" transform="matrix(1 0 0 1 958 340 )" />
  </g>
</svg>