<?xml version="1.0" encoding="utf-8"?>
<svg version="1.1" xmlns:xlink="http://www.w3.org/1999/xlink" width="22px" height="23px" xmlns="http://www.w3.org/2000/svg">
  <g transform="matrix(1 0 0 1 -975 -362 )">
    <path d="M 21.4465408632075 20.9271605115741  C 21.6679245283019 20.8135802824074  21.6679245283019 20.5864197708333  21.4465408632075 20.4728394884259  L 16.5761006462264 15.4753086597222  C 17.6830188679245 13.8851851851852  18.4578616698113 11.9543210231481  18.4578616179245 9.7962962962963  C 18.4578616179245 4.57160495601852  14.3622641509434 0.369135784722219  9.27044026886792 0.369135784722219  C 4.17861638679245 0.369135784722219  0.0830188679245265 4.57160490277777  0.0830188679245265 9.7962962962963  C 0.0830188679245265 15.0209876898148  4.17861633490566 19.2234568078704  9.27044026886792 19.2234568078704  C 11.1522012924528 19.2234568078704  12.8125786509434 18.6555555555556  14.2515723443396 17.6333333333333  L 19.1220125613208 22.6308642152778  C 19.2327043679245 22.7444444444444  19.3433962264151 22.7444444444444  19.4540880330189 22.7444444444444  C 19.5647798396226 22.7444444444444  19.6754716981132 22.7444444444444  19.786163504717 22.6308642152778  L 21.4465408632075 20.9271605115741  Z M 15.247798759434 9.7962962962963  C 15.247798759434 13.2037037037037  12.5911949858491 15.816049400463  9.3811320754717 15.816049400463  C 6.17106916509434 15.816049400463  3.51446539150944 13.2037037037037  3.51446539150944 9.7962962962963  C 3.51446539150944 6.3888888888889  6.06037735849058 3.77654319212963  9.38113207547171 3.77654319212963  C 12.7018867924528 3.77654319212963  15.247798759434 6.38888888888889  15.247798759434 9.7962962962963  Z " fill-rule="nonzero" fill="#ffffff" stroke="none" transform="matrix(1 0 0 1 975 362 )" />
  </g>
</svg>