<?xml version="1.0" encoding="utf-8"?>
<svg version="1.1" xmlns:xlink="http://www.w3.org/1999/xlink" width="41px" height="30px" xmlns="http://www.w3.org/2000/svg">
  <g transform="matrix(1 0 0 1 -1258 -342 )">
    <path d="M 41 28.7078217075419  C 40.8642595094474 29.1245397750323  40.5545858809269 29.5412578425226  40.0384632057041 29.5412578425226  C 39.5223405304813 29.5412578425226  39.1094423786096 29.1245397750323  39 28.6036422054214  L 39 2.14204506730592  L 2 2.14204506730592  L 2 28.7078217075419  C 2.05183340891266 29.2287192771529  1.638935257041 29.6454373446432  1.12281258181818 29.6454374036511  C 0.606689906595365 29.645437462659  0.193791754723708 29.2287193361608  1 28.7078217075419  L 1 1.20442943020469  C 0.193791696256683 0.683531860593769  0.606689848128342 0.266813793103449  1.12281258181818 0.26681373409552  L 40.0384632057041 0.26681373409552  C 40.5545858809269 0.26681373409552  40.9674840327986 0.68353180158584  41 1.20442943020469  L 41 28.7078217075419  Z " fill-rule="nonzero" fill="#ffffff" stroke="none" transform="matrix(1 0 0 1 1258 342 )" />
  </g>
</svg>