<?xml version="1.0" encoding="utf-8"?>
<svg version="1.1" xmlns:xlink="http://www.w3.org/1999/xlink" width="48px" height="38px" xmlns="http://www.w3.org/2000/svg">
  <g transform="matrix(1 0 0 1 -1255 -339 )">
    <path d="M 47.5723720883515 36.9602905915113  C 47.4672866775169 37.4774339444043  47.0469449746571 37.8911486384352  46.5215178609626 37.8911486384352  L 1.12461419018833 37.8911486384352  C 0.599187076493838 37.8911486384352  0.178845373634037 37.4774339444043  0.178845314112996 36.9602905915113  L 0.178845314112996 31.4785709102472  C 0.178845314112996 30.9614275573542  0.599187016972797 30.5477128633232  1.12461419018833 30  L 46.6266032717973 30  C 47.1520303854917 30.5477128633232  47.5723720883515 30.9614275573542  47.5723720883515 31.4785709102472  L 47.5723720883515 36.9602905915113  Z M 1.96529753638689 32  L 1.96529753638689 36  L 45.5757490444083 36  L 45.5757490444083 32  L 1.96529753638689 32  Z M 24.7688348421297 4.27682993881582  C 24.7688348421297 4.79397329170882  24.3484931392699 5.20768798573975  23.8230660255754 5.20768798573975  C 23.297638911881 5.20768798573975  22.8772972090212 4.79397329170882  22.8772972090212 4.27682993881582  L 22.8772972090212 1.38082708059932  C 22.8772972090212 0.863683727706317  23.297638911881 0.449969033675387  23.8230660255754 0.449969033675387  C 24.3484931392699 0.449969033675387  24.7688348421297 0.863683727706316  24.7688348421297 1.38082708059932  L 24.7688348421297 4.27682993881582  Z " fill-rule="nonzero" fill="#ffffff" stroke="none" transform="matrix(1 0 0 1 1255 339 )" />
  </g>
</svg>