<?xml version="1.0" encoding="utf-8"?>
<svg version="1.1" xmlns:xlink="http://www.w3.org/1999/xlink" width="29px" height="34px" xmlns="http://www.w3.org/2000/svg">
  <g transform="matrix(1 0 0 1 -1264 -352 )">
    <path d="M 1.67376549094662 33.4252037370629  C 1.46881821309066 33.6359134582751  1.161397238265 33.7412683785548  0.956449960409043 33.7412683785548  C 0.751502682553085 33.7412683785548  0.546555346655405 33.6359135179487  0.444081707727426 33.5305586573427  C 0.0341870939737915 33.2144940158508  0.0341870939737915 32.6877196531469  0.341608010757732 32.266300151049  L 7.00239546974388 23.5218455272727  C 7.30981644456953 23.1004260251748  7.82218469725115 23.1004260251748  8.23207931100478 23.416490606993  C 8.64197392475842 23.7325552484849  8.64197392475842 24.2593296111888  8.33455294993276 24.6807491132867  L 1.67376549094662 33.4252037370629  Z M 28.2144416299215 33.5305586573427  C 28.0094943520655 33.6359135179487  27.8045470161679 33.7412683785548  27.5995997383119 33.7412683785548  C 27.2921787634862 33.7412683785548  27.0872314856303 33.6359135179487  26.8822841497326 33.4252037370629  L 20.1190230518185 24.6807491132867  C 19.8116020769928 24.2593296111888  19.9140757739625 23.7325552484849  20.2214966907465 23.416490606993  C 20.6313913045001 23.1004259655012  21.1437595571817 23.2057808857809  21.4511805320074 23.5218455272727  L 28.3169152688495 32.266300151049  C 28.6243362436751 32.6877196531469  28.5218625467054 33.2144940158508  28.2144416299215 33.5305586573427  Z M 3.31334394596116 10.2471312410256  C 3.21087030703318 10.4578409622378  2.90344933220753 10.5631958825175  2.69850205435156 10.5631958825175  C 2.49355477649561 10.5631958825175  2.28860744059793 10.4578410219114  2.08366010470025 10.3524861613054  C 1.67376549094662 10.0364215198135  1.67376549094662 9.4042922965035  1.98118646577227 9.08822765501166  L 6.59250085599025 3.29370948624709  C 6.8999218308159 2.87228998414918  7.51476372242549 2.87228998414918  7.82218469725115 3.18835462564103  C 8.12960567207681 3.50441926713287  8.23207931100479 4.13654849044289  7.92465833617913 4.45261313193473  L 3.31334394596116 10.2471312410256  Z M 17.8646027051944 7.50790450722611  C 17.6596554273384 7.82396914871795  17.3522344525127 7.92932400932401  17.0448134776871 7.92932400932401  C 16.9423398387591 7.92932400932401  16.7373925028614 7.92932400932401  16.6349188639335 7.82396914871795  L 10.3840260187009 4.03119362983683  C 9.97413140494731 3.82048390862471  9.76918412709135 3.18835462564103  10.0766050438753 2.76693512354312  C 10.2815523217312 2.34551562144522  10.8963942713826 2.1348059002331  11.3062888851362 2.45087048205128  L 17.5571817303687 6.2436460009324  C 17.9670763441223 6.45435572214452  18.1720236219783 7.08648500512821  17.8646027051944 7.50790450722611  Z M 21.3487068930794 6.98113014452214  C 21.2462332541514 7.19183986573427  21.0412859182537 7.29719478601399  20.7338649434281 7.29719478601399  C 20.5289176655721 7.29719478601399  20.3239703296745 7.19183992540793  20.1190230518185 6.98113014452214  C 19.8116020769928 6.6650655030303  19.8116020769928 6.03293627972028  20.1190230518185 5.71687163822844  L 25.2427056947181 0.449127891841491  C 25.5501266695437 0.133063250349646  26.1649685611533 0.133063250349646  26.472389535979 0.449127891841491  C 26.7798105108046 0.765192533333332  26.7798105108046 1.39732175664335  26.472389535979 1.7133863981352  L 21.3487068930794 6.98113014452214  Z " fill-rule="nonzero" fill="#ffffff" stroke="none" transform="matrix(1 0 0 1 1264 352 )" />
  </g>
</svg>