<?xml version="1.0" encoding="utf-8"?>
<svg version="1.1" xmlns:xlink="http://www.w3.org/1999/xlink" width="33px" height="18px" xmlns="http://www.w3.org/2000/svg">
  <g transform="matrix(1 0 0 1 -1262 -349 )">
    <path d="M 13.3133747647059 7.46600425290972  C 13.0018128823529 7.99915823592324  12.2748352352941 8.63894306385656  10.8208798235294 8.63894306385656  C 9.26307047058823 8.63894306385656  7.91296905882353 7.25274268386285  7.91296905882353 5.65328067442592  C 7.91296905882353 4.05381866498899  9.26307047058823 2.66761828499528  10.8208798235294 2.66761828499528  C 12.3786891764706 2.66761828499528  13.7287905882353 3.94718788046556  13.7287905882353 5.65328067442592  L 13.7287905882353 5.86654230386914  C 13.7287905882353 6.1864347178358  13.6249366470588 6.93285026989619  13.3133747647059 7.46600425290972  Z M 11.8594193529412 5.54664988990249  C 11.9632732941176 5.01349590688896  11.4440035294118 4.58697270839887  10.8208798235294 4.58697270839887  C 10.1977561176471 4.58697270839887  9.78234029411764 5.12012669141239  9.78234023529411 5.65328067442592  C 9.78234017647059 6.18643465743945  10.30161 6.71958864045297  10.8208798235294 6.71958870084933  C 11.2362956470588 6.71958870084933  11.5478575294118 6.61295791632589  11.6517114705882 6.39969628688267  C 11.8594193529412 6.1864347178358  11.8594193529412 5.75991151934571  11.8594193529412 5.65328067442592  L 11.8594193529412 5.54664988990249  Z M 5.93974394117647 14.8235294117647  C 5.93974394117647 16.4229914212016  4.58964252941176 17.8091918011953  3.03183317647059 17.8091918011953  C 1.47402382352941 17.8091918011953  0.123922411764703 16.4229914212016  0.123922411764703 14.8235294117647  C 0.123922411764703 13.2240674023278  1.47402382352941 11.8378670223341  3.03183317647059 11.8378670223341  C 4.58964252941176 11.8378670223341  5.93974394117647 13.2240674023278  5.93974394117647 14.8235294117647  Z M 4.07037270588235 14.7168986272413  C 4.07037270588235 14.1837446442277  3.65495688235294 13.6505906612142  3.03183317647059 13.6505906008179  C 2.40870947058823 13.6505906008179  1.99329364705882 14.1837445838314  1.99329358823529 14.7168986272413  C 1.99329352941176 15.2500526706511  2.51256335294118 15.7832065932683  3.03183317647059 15.7832065932683  C 3.551103 15.7832065932683  4.07037270588235 15.2500526102548  4.07037270588235 14.7168986272413  Z M 24.0103321764706 11.7312362378106  C 24.0103321764706 13.437329031771  22.7640847058824 14.8235294117647  21.1024214117647 14.8235294117647  C 19.5446120588235 14.8235294117647  18.1945106470588 13.437329031771  18.1945106470588 11.8378670223341  C 18.1945106470588 10.2384050128971  19.5446120588235 8.85220463290343  21.1024214117647 8.85220463290343  C 22.4525228235294 8.85220463290343  23.1795005294118 9.49198940044039  23.5949163529412 10.0251434438503  C 24.0103321764706 10.6649282113872  24.0103321764706 11.3047130393205  24.0103321764706 11.6246054532872  L 24.0103321764706 11.7312362378106  Z M 21.9332530588235 10.9848206253539  C 21.8293991176471 10.771559056307  21.5178372352941 10.771559056307  21.1024214117647 10.771559056307  C 20.4792977058824 10.771559056307  20.0638818823529 11.3047130393205  20.0638818235294 11.8378670223341  C 20.0638817647059 12.3710210053476  20.5831515882353 12.9041749883611  21.1024214117647 12.9041750487575  C 21.6216912352941 12.9041751091538  22.1409609411765 12.3710210657439  22.1409609411765 11.8378670223341  L 22.1409609411765 11.7312362378106  C 22.1409609411765 11.7312362378106  22.1409609411765 11.1980822547971  21.9332530588235 10.9848206253539  Z M 32.6302104705882 3.30740311292859  C 32.6302104705882 4.90686512236553  31.280109 6.29306550235924  29.7222997058823 6.29306550235924  C 28.1644903529412 6.29306550235924  26.8143889411765 4.90686512236553  26.8143889411765 3.30740311292859  C 26.8143889411765 1.70794110349167  28.1644903529412 0.321740723497954  29.7222997058823 0.321740723497954  C 31.2801090588235 0.321740723497954  32.6302104705882 1.70794110349167  32.6302104705882 3.30740311292859  Z M 30.7608392352941 3.20077232840516  C 30.7608392352941 2.66761834539164  30.2415694705882 2.13446436237811  29.7222997058823 2.13446430198176  C 29.099176 2.13446430198176  28.6837601764706 2.66761828499528  28.6837601176471 3.20077232840516  C 28.6837600588235 3.73392637181504  29.2030298823529 4.26708029443221  29.7222997058823 4.26708029443221  C 30.2415695294118 4.26708029443221  30.7608392352941 3.73392631141868  30.7608392352941 3.20077232840516  Z " fill-rule="nonzero" fill="#ffffff" stroke="none" transform="matrix(1 0 0 1 1262 349 )" />
  </g>
</svg>