<?xml version="1.0" encoding="utf-8"?>
<svg version="1.1" xmlns:xlink="http://www.w3.org/1999/xlink" width="27px" height="27px" xmlns="http://www.w3.org/2000/svg">
  <g transform="matrix(1 0 0 1 -1440 -49 )">
    <path d="M 26.9727273802923 13.1133844279234  C 26.9749513079637 12.5123920879536  26.4883166922883 12.0235920287298  25.8884363331653 12  L 15 12  L 15 1.18454423135081  C 15.0917020199093 0.583551925403225  14.6039553893649 0.0958052948588711  14.0029630834173 0.0958052948588711  C 13.4019707774698 0.0958052948588711  12.9142826650706 0.583551925403226  13 1.18454423135081  L 13 12  L 1.9465970829133 12  C 1.94548510206653 12.0111847870464  1.9444316733871 12.0111847870464  1.94331969254032 12.0111847870464  C 1.34343933341734 12.0111847870464  0.856804683719757 12.4956539931956  0.854580756048386 13.0966463331653  C 0.851303365675402 13.6976386391129  1.33799653351814 14.1864387323589  1.93893032132056 14  L 13 14  L 13 25.0534029170867  C 12.9142241469254 25.6554486857359  13.4019707774698 26.1421418535786  14.0029045652722 26.1421418535786  C 14.6038383530746 26.1421418535786  15.0916435017641 25.655507203881  15 25.0534029170867  L 15 14  L 25.8796575907258 14  C 25.881823000252 14.1988459740423  25.8829349810988 14.1988459740423  25.8839884438004 14.1988459740423  C 26.4838688029234 14.1988459740423  26.970503452621 13.7143767678931  26.9727273802923 13.1133844279234  Z " fill-rule="nonzero" fill="#02a7f0" stroke="none" transform="matrix(1 0 0 1 1440 49 )" />
  </g>
</svg>