<?xml version="1.0" encoding="utf-8"?>
<svg version="1.1" xmlns:xlink="http://www.w3.org/1999/xlink" width="37px" height="10px" preserveAspectRatio="xMinYMid meet" viewBox="1967 2063  37 8" xmlns="http://www.w3.org/2000/svg">
  <defs>
    <mask fill="white" id="clip143">
      <path d="M 2299.5 2213  L 2332.5 2213  L 2332.5 2238  L 2299.5 2238  Z M 1969 2058  L 2793 2058  L 2793 2238  L 1969 2238  Z " fill-rule="evenodd" />
    </mask>
  </defs>
  <path d="M 2793 2168.5  L 2772 2168.5  A 5 5 0 0 0 2767.5 2173.5 L 2767.5 2220  A 5 5 0 0 1 2762.5 2225.5 L 1977 2225.5  A 5 5 0 0 1 1972.5 2220.5 L 1972.5 2072  A 5 5 0 0 1 1977.5 2067.5 L 1999 2067.5  " stroke-width="1" stroke-dasharray="9,4" stroke="#333333" fill="none" mask="url(#clip143)" />
  <path d="M 1998 2073.8  L 2004 2067.5  L 1998 2061.2  L 1998 2073.8  Z " fill-rule="nonzero" fill="#333333" stroke="none" mask="url(#clip143)" />
</svg>