<?xml version="1.0" encoding="utf-8"?>
<svg version="1.1" xmlns:xlink="http://www.w3.org/1999/xlink" width="10px" height="214px" preserveAspectRatio="xMidYMin meet" viewBox="1464 680  8 214" xmlns="http://www.w3.org/2000/svg">
  <path d="M 1386.5 477  L 1386.5 680  A 5 5 0 0 0 1391 685.5 L 1432 685.5  A 3 3 0 0 1 1435 682.5 A 3 3 0 0 1 1438 685.5 L 1463 685.5  A 5 5 0 0 1 1468.5 690 L 1468.5 852  A 3 3 0 0 1 1471.5 855 A 3 3 0 0 1 1468.5 858 L 1468.5 893  " stroke-width="1" stroke-dasharray="9,4" stroke="#f59a23" fill="none" />
  <path d="M 1462.5 887.3  L 1468.5 894  L 1474.5 887.3  L 1468.5 889.6  L 1462.5 887.3  Z " fill-rule="nonzero" fill="#f59a23" stroke="none" />
</svg>