<?xml version="1.0" encoding="utf-8"?>
<svg version="1.1" xmlns:xlink="http://www.w3.org/1999/xlink" width="37px" height="37px" xmlns="http://www.w3.org/2000/svg">
  <g transform="matrix(1 0 0 1 -1182 -75 )">
    <path d="M 18.5 19.6890454414063  L 25.6359545585937 26.825  L 26.825 25.6359545585937  L 19.6890454414063 18.5  L 26.825 11.3640454414062  L 25.6359545585937 10.175  L 18.5 17.3109545585938  L 11.3640454414062 10.175  L 10.175 11.3640454414062  L 17.3109545585938 18.5  L 10.175 25.6359545585937  L 11.3640454414062 26.825  L 18.5 19.6890454414063  Z M 18.5 37  C 28.7170454414062 37  37 28.7170454414062  37 18.5  C 37 8.28295455859375  28.7170454414062 0  18.5 0  C 8.28295455859375 0  0 8.28295455859375  0 18.5  C 0 28.7170454414062  8.28295455859375 37  18.5 37  Z M 18.5 35.3181818017578  C 9.21131819824219 35.3181818017578  1.68181819824219 27.7886818017578  1.68181819824219 18.5  C 1.68181819824219 9.21131819824219  9.21131819824219 1.68181819824219  18.5 1.68181819824219  C 27.7886818017578 1.68181819824219  35.3181818017578 9.21131819824219  35.3181818017578 18.5  C 35.3181818017578 27.7886818017578  27.7886818017578 35.3181818017578  18.5 35.3181818017578  Z " fill-rule="nonzero" fill="#333333" stroke="none" transform="matrix(1 0 0 1 1182 75 )" />
  </g>
</svg>