<?xml version="1.0" encoding="utf-8"?>
<svg version="1.1" xmlns:xlink="http://www.w3.org/1999/xlink" width="170px" height="170px" xmlns="http://www.w3.org/2000/svg">
  <g transform="matrix(1 0 0 1 -1153 -380 )">
    <path d="M 1238 380  C 1285.6 380  1323 417.4  1323 465  C 1323 512.6  1285.6 550  1238 550  C 1190.4 550  1153 512.6  1153 465  C 1153 417.4  1190.4 380  1238 380  Z " fill-rule="nonzero" fill="#d7d7d7" stroke="none" />
    <path d="M 1238 380.5  C 1285.32 380.5  1322.5 417.68  1322.5 465  C 1322.5 512.32  1285.32 549.5  1238 549.5  C 1190.68 549.5  1153.5 512.32  1153.5 465  C 1153.5 417.68  1190.68 380.5  1238 380.5  Z " stroke-width="1" stroke="#797979" fill="none" />
  </g>
</svg>