<?xml version="1.0" encoding="utf-8"?>
<svg version="1.1" xmlns:xlink="http://www.w3.org/1999/xlink" width="14px" height="14px" xmlns="http://www.w3.org/2000/svg">
  <g transform="matrix(1 0 0 1 -100 -105 )">
    <path d="M 107 105  C 110.92 105  114 108.08  114 112  C 114 115.92  110.92 119  107 119  C 103.08 119  100 115.92  100 112  C 100 108.08  103.08 105  107 105  Z " fill-rule="nonzero" fill="#ffffff" stroke="none" />
    <path d="M 107 105.5  C 110.64 105.5  113.5 108.36  113.5 112  C 113.5 115.64  110.64 118.5  107 118.5  C 103.36 118.5  100.5 115.64  100.5 112  C 100.5 108.36  103.36 105.5  107 105.5  Z " stroke-width="1" stroke="#d7d7d7" fill="none" />
  </g>
</svg>