<?xml version="1.0" encoding="utf-8"?>
<svg version="1.1" xmlns:xlink="http://www.w3.org/1999/xlink" width="16px" height="16px" xmlns="http://www.w3.org/2000/svg">
  <g transform="matrix(1 0 0 1 -197 -207 )">
    <path d="M 13.8505846153846 10.2596923076923  C 13.8505846153846 9.71590424632045  14.2914119386281 9.27507692307693  14.8352 9.27507692307693  C 15.3350851220667 9.27470163239277  15.7559211426818 9.64896626239658  15.8139076923077 10.1454769230769  L 15.8198153846154 10.2596923076923  L 15.8198153846154 13.3582769230769  C 15.8186320232827 14.6846962520312  14.7900443900178 15.7834344226275  13.4665846153846 15.872  L 13.3011692307692 15.8769230769231  L 2.64073846153846 15.8769230769231  C 1.31507806904693 15.8747050333902  0.217498278915122 14.8463962531413  0.128984615384616 13.5236923076923  L 0.123076923076923 13.3582769230769  L 0.123076923076925 10.2596923076923  C 0.123061602483065 10.2574499636595  0.123053942119089 10.2552075738313  0.123053942119089 10.2529651774609  C 0.123053942119089 9.70917711608902  0.563881265362616 9.26834979284549  1.10766932673447 9.26834979284549  C 1.60985762754028 9.26834979284549  2.03157722892706 9.64629003098328  2.0864 10.1454769230769  L 2.09230769230769 10.2596923076923  L 2.09230769230769 13.3582769230769  C 2.09230769230769 13.632  2.29218461538461 13.8584615384615  2.55212307692308 13.9008  L 2.64073846153846 14  L 13.3011692307692 14  C 13.5701973880215 13.9079190157608  13.7998186200563 13.7133035613865  13.8436923076923 13.4478769230769  L 13.8505846153846 13.3592615384615  L 13.8505846153846 10.2596923076923  Z M 7.05083076923077 1.10769230769231  C 7.05083076923077 0.56390424632045  7.4916580924743 0.123076923076925  8.03544615384615 0.123076923076925  C 8.53495556245418 0.123201409350659  8.95522615308335 0.497339578651957  9.01316923076923 0.993476923076923  L 9.02006153846154 1.10769230769231  L 9.02006153846154 6.59495384615385  L 10.6692923076923 4.94572307692308  C 10.8545963648976 4.75426495531441  11.1096442613212 4.64617216720619  11.3760908900232 4.64617216720619  C 11.9193351633337 4.64617216720619  12.359721659254 5.08655866312647  12.359721659254 5.62980293643696  C 12.359721659254 5.85365992482984  12.283364057595 6.07082089620067  12.1432615384615 6.24541538461539  L 12.0615384615385 6.33796923076923  L 8.03544615384615 10.3650461538462  L 4.00935384615385 6.33796923076923  C 3.81789572454519 6.15266517356396  3.70980293643699 5.89761727714033  3.70980293643699 5.63117064843835  C 3.70980293643699 5.08792637512786  4.15018943235727 4.64753987920758  4.69343370566776 4.64753987920758  C 4.91729069406063 4.64753987920758  5.13445166543145 4.72389748086658  5.30904615384615 4.864  L 5.4016 4.94572307692308  L 7.05083076923077 6.59495384615385  L 7.05083076923077 1.10769230769231  Z " fill-rule="nonzero" fill="#2962ff" stroke="none" transform="matrix(1 0 0 1 197 207 )" />
  </g>
</svg>