<?xml version="1.0" encoding="utf-8"?>
<svg version="1.1" xmlns:xlink="http://www.w3.org/1999/xlink" width="20px" height="20px" xmlns="http://www.w3.org/2000/svg">
  <g transform="matrix(1 0 0 1 -285 -210 )">
    <path d="M 20 10  C 20 15.5136  15.5144 20  10 20  C 4.486 20  0 15.5136  0 10  C 0 4.4864  4.486 0  10 0  C 15.514 0  20 4.4864  20 10  Z M 18 10  C 18 5.5888  14.4112 2  10 2  C 5.5888 2  2 5.5888  2 10  C 2 14.4112  5.5888 18  10 18  C 14.4112 18  18 14.4112  18 10  Z M 7.99980005274505 13.9999865064788  C 7.73463586149821 13.9999865064788  7.48032769404841 13.8946710971976  7.2928 13.7072  L 5.2928 11.7072  C 5.11273109345729 11.5207609014238  5.01208820572745 11.2716876435767  5.01208820572745 11.0124882057275  C 5.01208820572745 10.4602034558967  5.45980345589666 10.0124882057275  6.01208820572745 10.0124882057275  C 6.27128764357673 10.0124882057275  6.52036090142383 10.1131310934573  6.7068 10.2932  L 8 11.586  L 13.2932 6.2928  C 13.4796390985762 6.1127310934573  13.7287123564233 6.01208820572745  13.9879117942725 6.01208820572745  C 14.5401965441033 6.01208820572745  14.9879117942725 6.45980345589666  14.9879117942725 7.01208820572746  C 14.9879117942725 7.27128764357673  14.8872689065427 7.52036090142383  14.7072 7.7068  L 8.7072 13.7068  C 8.51963983675097 13.8945157847235  8.26516024318883 13.9999865064788  7.99980005274505 13.9999865064788  Z " fill-rule="nonzero" fill="#02a7f0" stroke="none" transform="matrix(1 0 0 1 285 210 )" />
  </g>
</svg>