<?xml version="1.0" encoding="utf-8"?>
<svg version="1.1" xmlns:xlink="http://www.w3.org/1999/xlink" width="20px" height="20px" xmlns="http://www.w3.org/2000/svg">
  <g transform="matrix(1 0 0 1 -285 -210 )">
    <path d="M 295 210  C 300.6 210  305 214.4  305 220  C 305 225.6  300.6 230  295 230  C 289.4 230  285 225.6  285 220  C 285 214.4  289.4 210  295 210  Z " fill-rule="nonzero" fill="#ffffff" stroke="none" fill-opacity="0" />
    <path d="M 295 210.5  C 300.32 210.5  304.5 214.68  304.5 220  C 304.5 225.32  300.32 229.5  295 229.5  C 289.68 229.5  285.5 225.32  285.5 220  C 285.5 214.68  289.68 210.5  295 210.5  Z " stroke-width="1" stroke="#d9d9d9" fill="none" />
  </g>
</svg>