<?xml version="1.0" encoding="utf-8"?>
<svg version="1.1" xmlns:xlink="http://www.w3.org/1999/xlink" width="20px" height="20px" xmlns="http://www.w3.org/2000/svg">
  <g transform="matrix(1 0 0 1 -285 -250 )">
    <path d="M 295 250  C 300.6 250  305 254.4  305 260  C 305 265.6  300.6 270  295 270  C 289.4 270  285 265.6  285 260  C 285 254.4  289.4 250  295 250  Z " fill-rule="nonzero" fill="#ffffff" stroke="none" fill-opacity="0" />
    <path d="M 295 250.5  C 300.32 250.5  304.5 254.68  304.5 260  C 304.5 265.32  300.32 269.5  295 269.5  C 289.68 269.5  285.5 265.32  285.5 260  C 285.5 254.68  289.68 250.5  295 250.5  Z " stroke-width="1" stroke="#81d3f8" fill="none" />
  </g>
</svg>