<?xml version="1.0" encoding="utf-8"?>
<svg version="1.1" xmlns:xlink="http://www.w3.org/1999/xlink" width="27px" height="27px" xmlns="http://www.w3.org/2000/svg">
  <defs>
    <linearGradient gradientUnits="userSpaceOnUse" x1="13.5" y1="0" x2="13.5" y2="26.73" id="LinearGradient192">
      <stop id="Stop193" stop-color="#d7d7d7" offset="0" />
      <stop id="Stop194" stop-color="#000000" offset="1" />
    </linearGradient>
    <mask fill="white" id="clip195">
      <path d="M 0 13.5  C 0 20.9558441227157  6.04415587728429 27  13.5 27  C 20.9558441227157 27  27 20.9558441227157  27 13.5  C 27 6.04415587728429  20.9558441227157 0  13.5 0  C 6.04415587728429 0  0 6.04415587728429  0 13.5  Z " fill-rule="evenodd" />
    </mask>
  </defs>
  <g transform="matrix(1 0 0 1 -985 -188 )">
    <path d="M 0 13.5  C 0 20.9558441227157  6.04415587728429 27  13.5 27  C 20.9558441227157 27  27 20.9558441227157  27 13.5  C 27 6.04415587728429  20.9558441227157 0  13.5 0  C 6.04415587728429 0  0 6.04415587728429  0 13.5  Z " fill-rule="nonzero" fill="#4ba8ee" stroke="none" transform="matrix(1 0 0 1 985 188 )" />
    <path d="M 0 13.5  C 0 20.9558441227157  6.04415587728429 27  13.5 27  C 20.9558441227157 27  27 20.9558441227157  27 13.5  C 27 6.04415587728429  20.9558441227157 0  13.5 0  C 6.04415587728429 0  0 6.04415587728429  0 13.5  Z " stroke-width="2" stroke="url(#LinearGradient192)" fill="none" transform="matrix(1 0 0 1 985 188 )" mask="url(#clip195)" />
  </g>
</svg>