<?xml version="1.0" encoding="utf-8"?>
<svg version="1.1" xmlns:xlink="http://www.w3.org/1999/xlink" width="3px" height="3px" xmlns="http://www.w3.org/2000/svg">
  <g transform="matrix(1 0 0 1 -995 -205 )">
    <path d="M 1.980796875 2.91288461538462  L 2.2509375 2.56303846153846  L 2.232 2.51740384615385  C 1.43840625 2.04250961538462  1.1370703125 1.00009615384615  1.0154765625 0.153692307692307  C 1.0143984375 0.149076923076923  1.0143984375 0.141865384615385  1.0128046875 0.13759615384615  C 0.929277153462895 0.173906268757005  0.845628001022025 0.20979119084643  0.761859375000001 0.245249999999999  C 0.551742187500001 0.33418269230769  0.349335937500001 0.416884615384615  0.150937500000001 0.497653846153845  L 0.0944062500000018 0.528519230769231  L 1.980796875 2.91291346153846  Z M 2.192015625 2.42027884615385  L 2.232 2.51740384615385  C 2.2442578125 2.52496153846154  2.2557421875 2.5335  2.2682578125 2.54039423076923  L 2.950921875 1.65620192307692  L 2.192015625 2.42027884615385  Z " fill-rule="nonzero" fill="#e6e7e8" stroke="none" transform="matrix(1 0 0 1 995 205 )" />
  </g>
</svg>