<?xml version="1.0" encoding="utf-8"?>
<svg version="1.1" xmlns:xlink="http://www.w3.org/1999/xlink" width="15px" height="9px" xmlns="http://www.w3.org/2000/svg">
  <g transform="matrix(1 0 0 1 -991 -205 )">
    <path d="M 14.8542934782609 1.78037790697674  C 14.8388315217391 1.76491569767442  14.8221467391304 1.75002906976744  14.8060597826087 1.73485465116279  L 14.8542934782609 1.78037790697674  Z M 13.7663043478261 6.10678779069768  C 13.7663043478261 6.10678779069768  13.7885597826087 6.08952034883721  13.827527173913 6.05736627906977  C 13.5276601667063 5.82299042363116  13.2373252119065 5.57753063101953  12.9571739130435 5.32153779069767  L 14.760625 1.69584593023256  C 13.9477989130435 0.970718023255813  12.5808967391304 0.598630813953488  10.7954076086957 0.0318401162790694  L 10.863097826087 0.060723837209303  L 8.67567934782609 2.22334011627907  L 8.36154891304348 1.90480813953488  L 8.08019021739131 2.42309302325581  L 7.01198369565218 2.42309302325581  L 6.73959239130435 1.90601162790698  L 6.42638586956522 2.22334011627907  L 4.23956521739131 0.060723837209303  L 4.30510869565218 0.0327296511627901  C 2.32048913043478 0.662337209302326  0.851576086956524 1.05020058139535  0.088532608695654 1.95334011627907  C 0.216847826086959 1.83011337209302  0.344836956521741 1.70536918604651  0.474701086956524 1.58750581395349  L 2.31122282608696 5.27954651162791  C 1.99687324809821 5.56708866744806  1.66966080056669 5.84130799356923  1.33051630434783 6.10142441860465  L 1.33763586956522 6.10678779069768  C 1.33763586956522 6.10678779069768  1.34627717391305 6.55657848837209  1.36298913043478 7.27040406976744  C 3.03331667792745 8.18360455780886  4.89839184833744 8.71703315810607  6.81565217391304 8.82991569767442  L 7.01228260869565 2.57844767441861  L 8.08048913043478 2.57844767441861  L 8.28239130434783 8.83854941860465  C 10.1966038285872 8.74317512142899  12.0629765880648 8.22852893463297  13.739402173913 7.33379651162791  C 13.7570108695652 6.58336918604651  13.7663043478261 6.10678779069768  13.7663043478261 6.10678779069768  Z " fill-rule="nonzero" fill="#ffffff" stroke="none" transform="matrix(1 0 0 1 991 205 )" />
  </g>
</svg>