<?xml version="1.0" encoding="utf-8"?>
<svg version="1.1" xmlns:xlink="http://www.w3.org/1999/xlink" width="3px" height="3px" xmlns="http://www.w3.org/2000/svg">
  <g transform="matrix(1 0 0 1 -998 -205 )">
    <path d="M 2.3283046875 0.245567307692305  C 2.245359375 0.21014423076923  2.161359375 0.17434615384615  2.0771015625 0.137596153846153  C 2.0760234375 0.141865384615385  2.0760234375 0.148759615384613  2.0744296875 0.153692307692307  C 1.9528359375 1.00110576923077  1.6509609375 2.04513461538461  0.855234375 2.51907692307692  L 0.83709375 2.56171153846154  L 1.10803125 2.91291346153846  L 2.994703125 0.528490384615379  C 2.97531268278472 0.517658769161325  2.9558431384869 0.507042951453073  2.936296875 0.496644230769227  C 2.73871875 0.416567307692305  2.5373671875 0.33418269230769  2.3283046875 0.245567307692305  Z M 0.855234375 2.51904807692308  L 0.897093749999999 2.42027884615385  L 0.138421874999999 1.65620192307692  L 0.820828124999998 2.54071153846154  C 0.832828124999997 2.53416346153846  0.843492187499998 2.52594230769231  0.855234374999998 2.51907692307692  Z " fill-rule="nonzero" fill="#e6e7e8" stroke="none" transform="matrix(1 0 0 1 998 205 )" />
  </g>
</svg>