<?xml version="1.0" encoding="utf-8"?>
<svg version="1.1" xmlns:xlink="http://www.w3.org/1999/xlink" width="20px" height="20px" xmlns="http://www.w3.org/2000/svg">
  <g transform="matrix(1 0 0 1 -686 -23 )">
    <path d="M 7.98971848054366 10  L 0.597977150570263 17.3916754939339  C 0.0472586805170233 17.9423939639872  0.0472586805170233 18.8457083160227  0.597911314530806 19.3964487314224  C 1.14860783923756 19.9471452561292  2.05207580869848 19.9473427642475  2.60288206013766 19.3965804035013  L 9.99453560872512 12.0048390735279  L 17.3861891573126 19.3965584581549  C 17.9369076273658 19.9472769282081  18.8402219794013 19.9472769282081  19.3909623948011 19.3966242941943  C 19.9416589195078 18.8459277694876  19.9418125369332 17.9424598000266  19.3910721215335 17.3916754939339  L 11.9993746822531 10  L 19.3910721215335 2.60832450606606  C 19.9418125369332 2.05754019997337  19.9416589195078 1.15407223051245  19.3909623948011 0.603353760459206  C 18.8402219794013 0.0527011264454235  17.9369076273658 0.0527011264454235  17.3861891573126 0.603419596498663  L 9.9945575540716 7.99518287181854  L 2.60290400548415 0.603441541845148  C 2.05209775404497 0.052635290405967  1.14860783923756 0.0528547438708219  0.597933259877292 0.603551268577576  C 0.0472806258635088 1.15426973863081  0.0472806258635088 2.05760603601282  0.597999095916748 2.60832450606606  L 7.98971848054366 10  Z " fill-rule="nonzero" fill="#555555" stroke="none" transform="matrix(1 0 0 1 686 23 )" />
  </g>
</svg>