<?xml version="1.0" encoding="utf-8"?>
<svg version="1.1" xmlns:xlink="http://www.w3.org/1999/xlink" width="9px" height="11px" xmlns="http://www.w3.org/2000/svg">
  <g transform="matrix(1 0 0 1 -349 -162 )">
    <path d="M 8.39106104651163 5.16425  L 8.51072965116279 3.684  C 8.51072965116279 1.7489  6.57436918604651 0.180500000000001  4.54986627906977 0.180500000000001  C 2.52421220930232 0.180500000000001  0.589918604651161 1.7489  0.589918604651161 3.684  L 0.708697674418604 5.162525  C 0.597779293450926 5.1878311506489  0.494732901795862 5.23793839014139  0.408034883720929 5.308725  C 0.243488287295793 5.44152959635882  0.14888817223738 5.63711227967287  0.149651162790697 5.842925  L 0.149651162790697 6.571375  C 0.149330023933258 6.95682400735426  0.475278253351954 7.26993998137609  0.878651162790696 7.271675  C 0.878651162790696 9.099525  3.17731395348837 10.831775  4.54986627906977 10.831775  C 5.92336046511628 10.831775  8.22139534883721 9.0998  8.22139534883721 7.271675  C 8.62407340419911 7.26947546121777  8.94933975216662 6.95701250678194  8.94950581395349 6.572225  L 8.94950581395349 5.842925  C 8.94911589780265 5.52080560834731  8.71855235565891 5.24059262189606  8.39106104651163 5.164225  Z " fill-rule="nonzero" fill="#f7cdb9" stroke="none" transform="matrix(1 0 0 1 349 162 )" />
  </g>
</svg>