<?xml version="1.0" encoding="utf-8"?>
<svg version="1.1" xmlns:xlink="http://www.w3.org/1999/xlink" width="13px" height="13px" xmlns="http://www.w3.org/2000/svg">
  <g transform="matrix(1 0 0 1 -191 -338 )">
    <path d="M 10.5032552083333 7.27018229166667  C 10.7233072916667 7.17426215277778  10.8333333333333 7.0078125  10.8333333333333 6.77083333333333  L 10.8333333333333 2.70833333333333  C 10.8333333333333 2.56163194444444  10.7797309027778 2.43467881944444  10.6725260416667 2.32747395833333  C 10.5653211805556 2.22026909722222  10.4383680555556 2.16666666666667  10.2916666666667 2.16666666666667  L 6.22916666666667 2.16666666666667  C 5.9921875 2.16666666666667  5.82573784722222 2.27669270833333  5.72981770833333 2.49674479166667  C 5.63389756944444 2.72808159722222  5.67339409722222 2.92556423611111  5.84830729166667 3.08919270833333  L 7.06705729166667 4.30794270833333  L 2.54752604166667 8.82747395833333  C 2.44032118055556 8.93467881944444  2.38671875 9.06163194444444  2.38671875 9.20833333333333  C 2.38671875 9.35503472222222  2.44032118055556 9.48198784722222  2.54752604166667 9.58919270833333  L 3.41080729166667 10.4524739583333  C 3.51801215277778 10.5596788194444  3.64496527777778 10.61328125  3.79166666666667 10.61328125  C 3.93836805555556 10.61328125  4.06532118055556 10.5596788194444  4.17252604166667 10.4524739583333  L 8.69205729166667 5.93294270833333  L 9.91080729166667 7.15169270833333  C 10.0123697916667 7.25889756944444  10.1393229166667 7.3125  10.2916666666667 7.3125  C 10.359375 7.3125  10.4299045138889 7.29839409722222  10.5032552083333 7.27018229166667  Z M 12.2848307291667 0.715169270833334  C 12.7616102430556 1.19194878472222  13 1.76605902777778  13 2.4375  L 13 10.5625  C 13 11.2339409722222  12.7616102430556 11.8080512152778  12.2848307291667 12.2848307291667  C 11.8080512152778 12.7616102430556  11.2339409722222 13  10.5625 13  L 2.4375 13  C 1.76605902777778 13  1.19194878472222 12.7616102430556  0.715169270833333 12.2848307291667  C 0.238389756944444 11.8080512152778  0 11.2339409722222  0 10.5625  L 0 2.4375  C 0 1.76605902777778  0.238389756944444 1.19194878472222  0.715169270833333 0.715169270833334  C 1.19194878472222 0.238389756944444  1.76605902777778 0  2.4375 0  L 10.5625 0  C 11.2339409722222 0  11.8080512152778 0.238389756944444  12.2848307291667 0.715169270833334  Z " fill-rule="nonzero" fill="#d7d7d7" stroke="none" transform="matrix(1 0 0 1 191 338 )" />
  </g>
</svg>