<?xml version="1.0" encoding="utf-8"?>
<svg version="1.1" xmlns:xlink="http://www.w3.org/1999/xlink" width="20px" height="20px" xmlns="http://www.w3.org/2000/svg">
  <g transform="matrix(1 0 0 1 -637 -335 )">
    <path d="M 647 335  C 652.6 335  657 339.4  657 345  C 657 350.6  652.6 355  647 355  C 641.4 355  637 350.6  637 345  C 637 339.4  641.4 335  647 335  Z " fill-rule="nonzero" fill="#ffffff" stroke="none" />
    <path d="M 647 335.5  C 652.32 335.5  656.5 339.68  656.5 345  C 656.5 350.32  652.32 354.5  647 354.5  C 641.68 354.5  637.5 350.32  637.5 345  C 637.5 339.68  641.68 335.5  647 335.5  Z " stroke-width="1" stroke="#797979" fill="none" />
  </g>
</svg>