<?xml version="1.0" encoding="utf-8"?>
<svg version="1.1" xmlns:xlink="http://www.w3.org/1999/xlink" width="37px" height="37px" xmlns="http://www.w3.org/2000/svg">
  <defs>
    <linearGradient gradientUnits="userSpaceOnUse" x1="18.5" y1="0" x2="18.5" y2="37" id="LinearGradient202">
      <stop id="Stop203" stop-color="#d7d7d7" offset="0" />
      <stop id="Stop204" stop-color="#555555" offset="1" />
    </linearGradient>
    <mask fill="white" id="clip205">
      <path d="M 0 18.5  C 0 28.7172678718697  8.28273212813032 37  18.5 37  C 28.7172678718697 37  37 28.7172678718697  37 18.5  C 37 8.28273212813032  28.7172678718697 0  18.5 0  C 8.28273212813032 0  0 8.28273212813032  0 18.5  Z " fill-rule="evenodd" />
    </mask>
  </defs>
  <g transform="matrix(1 0 0 1 -39 -647 )">
    <path d="M 0 18.5  C 0 28.7172678718697  8.28273212813032 37  18.5 37  C 28.7172678718697 37  37 28.7172678718697  37 18.5  C 37 8.28273212813032  28.7172678718697 0  18.5 0  C 8.28273212813032 0  0 8.28273212813032  0 18.5  Z " fill-rule="nonzero" fill="#4ba8ee" stroke="none" transform="matrix(1 0 0 1 39 647 )" />
    <path d="M 0 18.5  C 0 28.7172678718697  8.28273212813032 37  18.5 37  C 28.7172678718697 37  37 28.7172678718697  37 18.5  C 37 8.28273212813032  28.7172678718697 0  18.5 0  C 8.28273212813032 0  0 8.28273212813032  0 18.5  Z " stroke-width="2" stroke="url(#LinearGradient202)" fill="none" transform="matrix(1 0 0 1 39 647 )" mask="url(#clip205)" />
  </g>
</svg>