<?xml version="1.0" encoding="utf-8"?>
<svg version="1.1" xmlns:xlink="http://www.w3.org/1999/xlink" width="12px" height="15px" xmlns="http://www.w3.org/2000/svg">
  <g transform="matrix(1 0 0 1 -51 -652 )">
    <path d="M 11.1880813953488 7.04215909090909  L 11.3476395348837 5.02363636363636  C 11.3476395348837 2.38486363636364  8.76582558139535 0.246136363636365  6.06648837209302 0.246136363636365  C 3.36561627906977 0.246136363636365  0.786558139534882 2.38486363636364  0.786558139534882 5.02363636363636  L 0.944930232558138 7.03980681818182  C 0.797039057934568 7.07431520543032  0.659643869061149 7.14264325928372  0.544046511627905 7.23917045454546  C 0.324651049727724 7.42026763139839  0.198517562983173 7.68697129046301  0.199534883720929 7.967625  L 0.199534883720929 8.96096590909091  C 0.199106698577677 9.48657819184672  0.633704337802606 9.91355452005831  1.17153488372093 9.91592045454546  C 1.17153488372093 12.4084431818182  4.23641860465116 14.7706022727273  6.06648837209302 14.7706022727273  C 7.89781395348837 14.7706022727273  10.9618604651163 12.4088181818182  10.9618604651163 9.91592045454545  C 11.4987645389321 9.91292108347877  11.9324530028888 9.48683523652082  11.9326744186047 8.962125  L 11.9326744186047 7.967625  C 11.9321545304035 7.52837128410996  11.6247364742119 7.1462626662219  11.1880813953488 7.042125  Z " fill-rule="nonzero" fill="#f7cdb9" stroke="none" transform="matrix(1 0 0 1 51 652 )" />
  </g>
</svg>