<?xml version="1.0" encoding="utf-8"?>
<svg version="1.1" xmlns:xlink="http://www.w3.org/1999/xlink" width="12px" height="11px" xmlns="http://www.w3.org/2000/svg">
  <g transform="matrix(1 0 0 1 -51 -651 )">
    <path d="M 11.151976744186 10.7181973684211  C 11.151976744186 10.7181973684211  12.6975 6.677  11.2722209302326 3.76547368421053  C 11.326988372093 3.08738157894737  11.1174418604651 2.12361513157895  10.6030465116279 0.74651644736842  C 10.4816162790698 0.420858552631578  10.0728139534884 0.364881578947368  9.86281395348837 0.637421052631578  C 9.26710465116279 1.41223355263158  8.47967441860465 1.2574375  7.18374418604651 0.709427631578947  C 5.0175 -0.204947368421053  3.42791860465116 0.353736842105263  2.51225581395349 1.34800657894737  C -1.41624418604651 3.427875  0.983825581395348 10.7181973684211  0.983825581395348 10.7181973684211  C 0.983825581395348 10.7181973684211  1.06597674418605 6.92193092105263  2.41545348837209 5.17882894736842  C 3.15446511627907 5.35544407894737  5.23461627906977 5.65063486842105  6.06690697674419 5.65063486842105  C 6.89958139534884 5.65063486842105  9.07817441860465 5.36695065789474  9.83427906976744 5.1787927631579  C 10.8332790697674 6.28505263157895  11.151976744186 10.7181973684211  11.151976744186 10.7181973684211  Z " fill-rule="nonzero" fill="#4f3c30" stroke="none" transform="matrix(1 0 0 1 51 651 )" />
  </g>
</svg>