<?xml version="1.0" encoding="utf-8"?>
<svg version="1.1" xmlns:xlink="http://www.w3.org/1999/xlink" width="21px" height="12px" xmlns="http://www.w3.org/2000/svg">
  <g transform="matrix(1 0 0 1 -47 -670 )">
    <path d="M 20.7960108695652 2.37383720930232  C 20.7743641304348 2.35322093023256  20.7510054347826 2.33337209302326  20.7284836956522 2.31313953488372  L 20.7960108695652 2.37383720930232  Z M 19.2728260869565 8.14238372093024  C 19.2728260869565 8.14238372093024  19.3039836956522 8.11936046511628  19.3585380434783 8.07648837209302  C 18.9387242333888 7.76398723150822  18.5322552966691 7.43670750802605  18.1400434782609 7.09538372093023  L 20.664875 2.26112790697674  C 19.5269184782609 1.29429069767442  17.6132554347826 0.79817441860465  15.1135706521739 0.0424534883720925  L 15.2083369565217 0.0809651162790707  L 12.1459510869565 2.96445348837209  L 11.7061684782609 2.53974418604651  L 11.3122663043478 3.23079069767442  L 9.81677717391305 3.23079069767442  L 9.43542934782609 2.5413488372093  L 8.99694021739131 2.96445348837209  L 5.93539130434783 0.0809651162790707  L 6.02715217391305 0.0436395348837201  C 3.2486847826087 0.883116279069769  1.19220652173913 1.40026744186046  0.123945652173916 2.60445348837209  C 0.303586956521742 2.44015116279069  0.482771739130437 2.27382558139535  0.664581521739133 2.11667441860465  L 3.23571195652174 7.03939534883721  C 2.79562254733749 7.42278488993075  2.33752512079336 7.78841065809231  1.86272282608696 8.13523255813953  L 1.87269021739131 8.14238372093024  C 1.87269021739131 8.14238372093024  1.88478804347826 8.74210465116279  1.9081847826087 9.69387209302326  C 4.24664334909843 10.9114727437451  6.85774858767241 11.6227108774748  9.54191304347826 11.7732209302326  L 9.81719565217391 3.43793023255814  L 11.3126847826087 3.43793023255814  L 11.595347826087 11.7847325581395  C 14.2752453600221 11.657566828572  16.8881672232907 10.971371912844  19.2351630434783 9.77839534883721  C 19.2598152173913 8.77782558139535  19.2728260869565 8.14238372093024  19.2728260869565 8.14238372093024  Z " fill-rule="nonzero" fill="#ffffff" stroke="none" transform="matrix(1 0 0 1 47 670 )" />
  </g>
</svg>