<?xml version="1.0" encoding="utf-8"?>
<svg version="1.1" xmlns:xlink="http://www.w3.org/1999/xlink" width="4px" height="4px" xmlns="http://www.w3.org/2000/svg">
  <g transform="matrix(1 0 0 1 -57 -670 )">
    <path d="M 3.10440625 0.327423076923074  C 2.9938125 0.280192307692306  2.8818125 0.232461538461533  2.76946875 0.183461538461538  C 2.76803125 0.189153846153846  2.76803125 0.198346153846151  2.76590625 0.204923076923076  C 2.60378125 1.33480769230769  2.20128125 2.72684615384615  1.1403125 3.35876923076923  L 1.116125 3.41561538461538  L 1.477375 3.88388461538461  L 3.9929375 0.704653846153838  C 3.96708357704629 0.6902116922151  3.9411241846492 0.676057268604097  3.9150625 0.662192307692303  C 3.651625 0.555423076923074  3.38315625 0.44557692307692  3.10440625 0.327423076923074  Z M 1.1403125 3.35873076923077  L 1.196125 3.22703846153846  L 0.184562499999998 2.20826923076923  L 1.0944375 3.38761538461538  C 1.1104375 3.37888461538462  1.12465625 3.36792307692308  1.1403125 3.35876923076923  Z " fill-rule="nonzero" fill="#e6e7e8" stroke="none" transform="matrix(1 0 0 1 57 670 )" />
  </g>
</svg>