<?xml version="1.0" encoding="utf-8"?>
<svg version="1.1" xmlns:xlink="http://www.w3.org/1999/xlink" width="4px" height="4px" xmlns="http://www.w3.org/2000/svg">
  <g transform="matrix(1 0 0 1 -53 -670 )">
    <path d="M 2.6410625 3.88384615384615  L 3.00125 3.41738461538461  L 2.976 3.35653846153846  C 1.917875 2.72334615384615  1.51609375 1.33346153846154  1.35396875 0.204923076923076  C 1.35253125 0.198769230769231  1.35253125 0.189153846153846  1.35040625 0.183461538461533  C 1.23903620461719 0.23187502500934  1.1275040013627 0.27972158779524  1.0158125 0.326999999999998  C 0.735656250000002 0.44557692307692  0.465781250000001 0.555846153846154  0.201250000000002 0.66353846153846  L 0.125875000000002 0.704692307692308  L 2.6410625 3.88388461538462  Z M 2.9226875 3.22703846153846  L 2.976 3.35653846153846  C 2.99234375 3.36661538461538  3.00765625 3.378  3.02434375 3.38719230769231  L 3.9345625 2.20826923076923  L 2.9226875 3.22703846153846  Z " fill-rule="nonzero" fill="#e6e7e8" stroke="none" transform="matrix(1 0 0 1 53 670 )" />
  </g>
</svg>