<?xml version="1.0" encoding="utf-8"?>
<svg version="1.1" xmlns:xlink="http://www.w3.org/1999/xlink" width="23px" height="7px" xmlns="http://www.w3.org/2000/svg">
  <g transform="matrix(1 0 0 1 -47 -672 )">
    <path d="M 1.17384146341463 0.157432692307692  C 1.00632012195122 0.309043269230769  0.841147865853658 0.469504807692308  0.675624999999999 0.628014423076925  C 0.508681970130979 0.823978362394804  0.368332824248048 1.03949294579502  0.257943597560975 1.26938942307692  C -0.79080030487805 3.50212019230769  2.09534908536585 5.82023076923077  2.27766615853658 5.96379807692307  C 2.71534317525062 5.62931671540258  3.13753208269614 5.27657738654638  3.54301676829268 4.90659615384615  L 1.17387652439024 0.157432692307688  Z M 19.6644039634146 0.346971153846156  C 19.6452606707317 0.329740384615388  19.6265381097561 0.310961538461539  19.6073597560976 0.293360576923076  L 19.6057820121951 0.296389423076924  C 19.6249253048781 0.313653846153848  19.645681402439 0.329706730769232  19.6644039634146 0.346971153846156  Z M 22.9128033536585 3.88883653846154  C 21.9486265243902 2.60686057692308  20.8623673780488 1.44512980769231  19.726637195122 0.405528846153845  C 19.9862797874845 0.655986919797699  20.1978964416791 0.948414384369554  20.3517743902439 1.26938942307692  C 21.331868902439 3.35468269230769  18.8785472560976 5.51428365384615  18.4018582317073 5.907125  C 18.8486402439024 6.2540625  19.2052454268293 6.49758173076923  19.5802576219512 6.78629807692308  C 20.8241159245752 5.97154120549295  21.9454502662447 4.99660390880981  22.9128033536585 3.88883653846154  Z " fill-rule="nonzero" fill="#ffffff" stroke="none" transform="matrix(1 0 0 1 47 672 )" />
  </g>
</svg>