<?xml version="1.0" encoding="utf-8"?>
<svg version="1.1" xmlns:xlink="http://www.w3.org/1999/xlink" width="20px" height="19px" xmlns="http://www.w3.org/2000/svg">
  <g transform="matrix(1 0 0 1 -59 -142 )">
    <path d="M 19.6939577191448 18.7110639174256  C 19.9023822148547 18.504965420765  19.9023822148547 18.1708223339405  19.6939577191448 17.9647238372799  L 14.418238629645 12.7473442817243  C 16.8184512851683 9.64375262659381  16.5838568985894 5.18626294596236  13.7136798980829 2.3478264383728  C 10.5875510122638 -0.74374936247723  5.51902351153474 -0.743729700060715  2.39287474328867 2.3478264383728  C -0.733274024957408 5.43940223922283  -0.733274024957408 10.4517845877353  2.39287474328867 13.5433603885853  C 5.51900362910776 16.6348968646023  10.5875311298368 16.6349361894353  13.7136798980829 13.5433603885853  L 18.9392267636721 18.7110639174256  C 19.1476313769551 18.9171427516697  19.4855531058618 18.9171427516697  19.6939577191448 18.7110639174256  Z M 12.9590086095378 12.7969809836066  C 10.2496094205768 15.4763401287189  5.85694524044144 15.4763401287189  3.14764546361529 12.7970203084396  C 0.438286039508219 10.1176611633273  0.438286039508219 5.77356500789314  3.14764546361529 3.09420586278081  C 5.85694522079477 0.414886061930785  10.2496293030038 0.414866380085005  12.9590086095378 3.09420586278081  C 15.6682686018634 5.77352566363085  15.6682686018634 10.1176611633273  12.9590086095378 12.7969809836066  Z " fill-rule="nonzero" fill="#555555" stroke="none" transform="matrix(1 0 0 1 59 142 )" />
  </g>
</svg>