<?xml version="1.0" encoding="utf-8"?>
<svg version="1.1" xmlns:xlink="http://www.w3.org/1999/xlink" width="124px" height="34px" xmlns="http://www.w3.org/2000/svg">
  <g transform="matrix(1 0 0 1 -466 -112 )">
    <path d="M 467 117  A 4 4 0 0 1 471 113 L 585 113  A 4 4 0 0 1 589 117 L 589 141  A 4 4 0 0 1 585 145 L 471 145  A 4 4 0 0 1 467 141 L 467 117  Z " fill-rule="nonzero" fill="#f2f2f2" stroke="none" />
    <path d="M 466.5 117  A 4.5 4.5 0 0 1 471 112.5 L 585 112.5  A 4.5 4.5 0 0 1 589.5 117 L 589.5 141  A 4.5 4.5 0 0 1 585 145.5 L 471 145.5  A 4.5 4.5 0 0 1 466.5 141 L 466.5 117  Z " stroke-width="1" stroke-dasharray="9,4" stroke="#d9001b" fill="none" stroke-dashoffset="0.5" />
  </g>
</svg>