<?xml version="1.0" encoding="utf-8"?>
<svg version="1.1" xmlns:xlink="http://www.w3.org/1999/xlink" width="91px" height="26px" xmlns="http://www.w3.org/2000/svg">
  <g transform="matrix(1 0 0 1 -393 -45 )">
    <path d="M 394 50  A 4 4 0 0 1 398 46 L 479 46  A 4 4 0 0 1 483 50 L 483 66  A 4 4 0 0 1 479 70 L 398 70  A 4 4 0 0 1 394 66 L 394 50  Z " fill-rule="nonzero" fill="#ec808d" stroke="none" fill-opacity="0.247058823529412" />
    <path d="M 393.5 50  A 4.5 4.5 0 0 1 398 45.5 L 479 45.5  A 4.5 4.5 0 0 1 483.5 50 L 483.5 66  A 4.5 4.5 0 0 1 479 70.5 L 398 70.5  A 4.5 4.5 0 0 1 393.5 66 L 393.5 50  Z " stroke-width="1" stroke-dasharray="9,4" stroke="#d9001b" fill="none" stroke-dashoffset="0.5" />
  </g>
</svg>