<?xml version="1.0" encoding="utf-8"?>
<svg version="1.1" xmlns:xlink="http://www.w3.org/1999/xlink" width="14px" height="14px" xmlns="http://www.w3.org/2000/svg">
  <g transform="matrix(1 0 0 1 -97 -10 )">
    <path d="M 104 10  C 107.92 10  111 13.08  111 17  C 111 20.92  107.92 24  104 24  C 100.08 24  97 20.92  97 17  C 97 13.08  100.08 10  104 10  Z " fill-rule="nonzero" fill="#f2f2f2" stroke="none" />
    <path d="M 104 10.5  C 107.64 10.5  110.5 13.36  110.5 17  C 110.5 20.64  107.64 23.5  104 23.5  C 100.36 23.5  97.5 20.64  97.5 17  C 97.5 13.36  100.36 10.5  104 10.5  Z " stroke-width="1" stroke="#d7d7d7" fill="none" />
  </g>
</svg>