<?xml version="1.0" encoding="utf-8"?>
<svg version="1.1" xmlns:xlink="http://www.w3.org/1999/xlink" width="36px" height="36px" xmlns="http://www.w3.org/2000/svg">
  <g transform="matrix(1 0 0 1 -1535 -282 )">
    <path d="M 22.5257142857143 0.699428571428573  C 20.8182857142857 0.267428571428573  17.0331428571429 0.0205714285714303  15.6342857142857 0.226285714285714  C 10.8411428571429 1.008  6.85028571428572 3.29142857142857  3.94971428571429 6.912  C 2.32457142857143 8.928  1.23428571428572 11.1291428571429  0.576000000000001 13.68  C 0.123428571428573 15.4285714285714  0.0822857142857155 15.9428571428571  0.16457142857143 18.6171428571429  C 0.267428571428573 21.9085714285714  0.59657142857143 23.2868571428571  1.872 25.8582857142857  C 3.68228571428572 29.5405714285714  6.99428571428572 32.7291428571429  10.7177142857143 34.3748571428571  C 14.0708571428571 35.856  18.72 36.2262857142857  22.4228571428571 35.3211428571429  C 27.4834285714286 34.0662857142857  31.8445714285714 30.4868571428571  34.1485714285714 25.7348571428571  C 35.5474285714286 22.8548571428571  35.9588571428571 20.7771428571429  35.8354285714286 17.3828571428571  C 35.712 14.1531428571429  35.4034285714286 12.8777142857143  34.1485714285714 10.2651428571429  C 31.8857142857143 5.57485714285715  27.5245714285714 1.97485714285714  22.5257142857143 0.699428571428573  Z M 14.1942857142857 3.18857142857143  C 16.2102857142857 2.65371428571429  19.6868571428571 2.65371428571429  21.7645714285714 3.168  C 27.1337142857143 4.54628571428572  31.1245714285714 8.41371428571429  32.832 13.8857142857143  C 33.5314285714286 16.1074285714286  33.5314285714286 19.9131428571429  32.832 22.1142857142857  C 31.2685714285714 27.1337142857143  27.8125714285714 30.7748571428571  22.896 32.5645714285714  C 21.4971428571429 33.0788571428571  21.168 33.12  18 33.12  C 14.832 33.12  14.5028571428571 33.0788571428571  13.0834285714286 32.5645714285714  C 9.09257142857143 31.104  5.98628571428572 28.3474285714286  4.21714285714286 24.7062857142857  C 2.016 20.16  2.016 15.84  4.21714285714286 11.3142857142857  C 6.192 7.22057142857143  9.66857142857143 4.38171428571429  14.1942857142857 3.18857142857143  Z M 18 7.71428571428571  C 17.8148571428571 7.71428571428571  17.4651428571429 7.85828571428571  17.2182857142857 8.04342857142857  C 16.7657142857143 8.352  16.7657142857143 8.45485714285714  16.7657142857143 12.5691428571429  L 16.7657142857143 16.7657142857143  L 12.5897142857143 16.7657142857143  C 8.784 16.7657142857143  8.37257142857143 16.8068571428571  8.064 17.136  C 7.632 17.6091428571429  7.61142857142857 18.1851428571429  8.04342857142857 18.7817142857143  C 8.352 19.2342857142857  8.45485714285714 19.2342857142857  12.5485714285714 19.2342857142857  L 16.7657142857143 19.2342857142857  L 16.8068571428571 23.4925714285714  L 16.8685714285714 27.7508571428572  L 17.4445714285714 28.08  C 17.9382857142857 28.3474285714286  18.0617142857143 28.3474285714286  18.576 28.08  L 19.1314285714286 27.7508571428572  L 19.1931428571429 23.4925714285714  L 19.2342857142857 19.2342857142857  L 23.4925714285714 19.1931428571429  L 27.7508571428571 19.1314285714286  L 28.08 18.5554285714286  C 28.3474285714286 18.0617142857143  28.3474285714286 17.9382857142857  28.08 17.424  L 27.7508571428571 16.8685714285714  L 23.4925714285714 16.8068571428571  L 19.2342857142857 16.7657142857143  L 19.2342857142857 12.5485714285714  C 19.2342857142857 8.45485714285714  19.2342857142857 8.352  18.7817142857143 8.04342857142857  C 18.5348571428571 7.85828571428571  18.1851428571429 7.71428571428571  18 7.71428571428571  Z " fill-rule="nonzero" fill="#2962ff" stroke="none" transform="matrix(1 0 0 1 1535 282 )" />
  </g>
</svg>