<?xml version="1.0" encoding="utf-8"?>
<svg version="1.1" xmlns:xlink="http://www.w3.org/1999/xlink" width="10px" height="42.9880952380952px" preserveAspectRatio="xMidYMin meet" viewBox="1406.42857142857 516.011904761905  8 42.9880952380952" xmlns="http://www.w3.org/2000/svg">
  <path d="M 1409.47198023353 554.297010205361  A 2.42857142857156 2.42857142857156 0 0 0 1410.92857142857 552.071428571428 L 1410.92857142857 526.011904761905  A 5 5 0 0 1 1415.92857142857 521.511904761905 L 1549 521.511904761905  A 5 5 0 0 0 1554.5 516.511904761905 L 1554.5 473  " stroke-width="1" stroke-dasharray="9,4" stroke="#ff3399" fill="none" />
  <path d="M 1410.79316662203 549.87101973402  A 3 3 0 0 0 1407.79316662203 552.87101973402 A 3 3 0 0 0 1410.79316662203 555.87101973402 A 3 3 0 0 0 1413.79316662203 552.87101973402 A 3 3 0 0 0 1410.79316662203 549.87101973402 Z " fill-rule="nonzero" fill="#ff3399" stroke="none" />
</svg>