<?xml version="1.0" encoding="utf-8"?>
<svg version="1.1" xmlns:xlink="http://www.w3.org/1999/xlink" width="10px" height="5px" preserveAspectRatio="xMinYMid meet" viewBox="1022 550  10 3" xmlns="http://www.w3.org/2000/svg">
  <path d="M 1028.34147098481 554.040302305868  A 1 1 0 0 0 1028.5 553.5 L 1028.5 464.857142857143  A 5 5 0 0 1 1033.5 460.357142857143 L 1402.92857142857 460.357142857143  A 0.0714285714285836 0.0714285714285836 0 0 1 1403.5 460.428571428571 A 0.0714285714285552 0.0714285714285552 0 0 0 1403.57142857143 460.5 L 1518 460.5  " stroke-width="1" stroke-dasharray="9,4" stroke="#ff3399" fill="none" />
  <path d="M 1028.5 548.570796326795  A 3 3 0 0 0 1025.5 551.570796326795 A 3 3 0 0 0 1028.5 554.570796326795 A 3 3 0 0 0 1031.5 551.570796326795 A 3 3 0 0 0 1028.5 548.570796326795 Z " fill-rule="nonzero" fill="#ff3399" stroke="none" />
</svg>