<?xml version="1.0" encoding="utf-8"?>
<svg version="1.1" xmlns:xlink="http://www.w3.org/1999/xlink" width="61px" height="61px" xmlns="http://www.w3.org/2000/svg">
  <g transform="matrix(1 0 0 1 -212 -473 )">
    <path d="M 242.5 473  C 259.58 473  273 486.42  273 503.5  C 273 520.58  259.58 534  242.5 534  C 225.42 534  212 520.58  212 503.5  C 212 486.42  225.42 473  242.5 473  Z " fill-rule="nonzero" fill="#d7d7d7" stroke="none" />
    <path d="M 242.5 473.5  C 259.3 473.5  272.5 486.7  272.5 503.5  C 272.5 520.3  259.3 533.5  242.5 533.5  C 225.7 533.5  212.5 520.3  212.5 503.5  C 212.5 486.7  225.7 473.5  242.5 473.5  Z " stroke-width="1" stroke="#797979" fill="none" />
  </g>
</svg>