<?xml version="1.0" encoding="utf-8"?>
<svg version="1.1" xmlns:xlink="http://www.w3.org/1999/xlink" width="282px" height="25px" xmlns="http://www.w3.org/2000/svg">
  <g transform="matrix(1 0 0 1 -895 -99 )">
    <path d="M 896 104  A 4 4 0 0 1 900 100 L 1172 100  A 4 4 0 0 1 1176 104 L 1176 119  A 4 4 0 0 1 1172 123 L 900 123  A 4 4 0 0 1 896 119 L 896 104  Z " fill-rule="nonzero" fill="#169bd5" stroke="none" fill-opacity="0" />
    <path d="M 895.5 104  A 4.5 4.5 0 0 1 900 99.5 L 1172 99.5  A 4.5 4.5 0 0 1 1176.5 104 L 1176.5 119  A 4.5 4.5 0 0 1 1172 123.5 L 900 123.5  A 4.5 4.5 0 0 1 895.5 119 L 895.5 104  Z " stroke-width="1" stroke-dasharray="9,4" stroke="#d9001b" fill="none" stroke-dashoffset="0.5" />
  </g>
</svg>