<?xml version="1.0" encoding="utf-8"?>
<svg version="1.1" xmlns:xlink="http://www.w3.org/1999/xlink" width="16px" height="16px" xmlns="http://www.w3.org/2000/svg">
  <g transform="matrix(1 0 0 1 -717 -75 )">
    <path d="M 1.599671265625 13.59720578125  L 1.599671265625 1.599671265625  L 12.797370140625 1.599671265625  L 12.797370140625 4.799013796875  L 14.39704140625 4.799013796875  L 14.39704140625 1.599671265625  C 14.39704140625 0.716197220877792  13.6808441853722 0  12.797370140625 0  L 1.599671265625 0  C 0.716197220877788 0  0 0.716197220877788  0 1.599671265625  L 0 13.59720578125  C 0 14.4806798259972  0.716197220877788 15.196877046875  1.599671265625 15.196877046875  L 6.3986850625 15.196877046875  L 6.3986850625 13.59720578125  L 1.599671265625 13.59720578125  Z M 10.397863234375 3.999178171875  L 3.999178171875 3.999178171875  C 3.55748480632655 3.99923990674135  3.19945432316209 4.35732043482475  3.19945432316209 4.7990138046875  C 3.19945432316209 5.24070717455025  3.55748480632655 5.59878770263365  3.999178171875 5.5988494375  L 10.397863234375 5.5988494375  C 10.8395565999234 5.59878770263365  11.1975870830879 5.24070717455024  11.1975870830879 4.7990138046875  C 11.1975870830879 4.35732043482476  10.8395565999234 3.99923990674135  10.397863234375 3.999178171875  Z M 7.19840891121037 7.9983563359375  C 7.19840891121037 7.55666296607575  6.84037842804745 7.19858243799275  6.3986850625 7.198520703125  L 3.999178171875 7.198520703125  C 3.55748480632755 7.19858243799275  3.19945432316463 7.55666296607575  3.19945432316463 7.9983563359375  C 3.19945432316463 8.44004970579925  3.55748480632755 8.79813023388225  3.999178171875 8.79819196875  L 6.3986850625 8.79819196875  C 6.84037842804745 8.79813023388225  7.19840891121037 8.44004970579925  7.19840891121037 7.9983563359375  Z M 15.9999853103968 15.1968770390625  C 15.9999853103968 14.9838794823781  15.9153723604577 14.7796057510827  15.76476034375 14.628993734375  L 14.53301346875 13.397246859375  C 14.9642148069976 12.7436726388206  15.1940697943209 11.977894723257  15.1940697943209 11.1948916224459  C 15.1940697943209 8.98620650626317  13.4035767386287 7.19571345057092  11.1948916224459 7.19571345057092  C 8.98620650626317 7.19571345057092  7.19571345057092 8.98620650626317  7.19571345057092 11.1948916224459  C 7.19571345057092 13.4035767386287  8.98620650626317 15.1940697943209  11.1948916224459 15.1940697943209  C 11.977894723257 15.1940697943209  12.7436726388206 14.9642148069976  13.397246859375 14.53301346875  L 14.628993734375 15.76476034375  C 14.7796057510827 15.9153723604577  14.9838794823781 15.9999853103968  15.1968770390625 15.9999853103968  C 15.6404214897834 15.9999853103968  15.9999853103968 15.6404214897834  15.9999853103968 15.1968770390625  Z M 11.197698875 13.59720578125  C 9.87248780356446 13.59720578125  8.79819196875 12.5229099464355  8.79819196875 11.197698875  C 8.79819196875 9.87248780356446  9.87248780356446 8.79819196875  11.197698875 8.79819196875  C 12.5229099464355 8.79819196875  13.59720578125 9.87248780356446  13.59720578125 11.197698875  C 13.59720578125 12.5229099464355  12.5229099464355 13.59720578125  11.197698875 13.59720578125  Z " fill-rule="nonzero" fill="#2962ff" stroke="none" transform="matrix(1 0 0 1 717 75 )" />
  </g>
</svg>