<?xml version="1.0" encoding="utf-8"?>
<svg version="1.1" xmlns:xlink="http://www.w3.org/1999/xlink" width="20px" height="20px" xmlns="http://www.w3.org/2000/svg">
  <g transform="matrix(1 0 0 1 -1118 -141 )">
    <path d="M 0 9.23076923076923  C 0 4.13264957264957  4.13264957264957 0  9.23076923076923 0  C 14.3288888888889 0  18.4615384615385 4.13264957264957  18.4615384615385 9.23076923076923  C 18.4615384615385 11.4105982905983  17.7059829059829 13.4133333333333  16.4430769230769 14.9928205128205  L 19.5288888888889 18.0779487179487  C 19.7245028179564 18.2707088695043  19.8346406802665 18.533866416076  19.8346406802665 18.8084957758921  C 19.8346406802665 19.3749416731544  19.3754455518879 19.8341368015331  18.8089996546255 19.8341368015331  C 18.5706257396907 19.8341368015331  18.3396956315275 19.7511067087288  18.1558974358974 19.5993162393162  L 18.0779487179487 19.5288888888889  L 14.9928205128205 16.4430769230769  C 13.3582135028402 17.7527536175391  11.3253293199148 18.4648782298561  9.23076923076923 18.4615384615385  C 4.13264957264957 18.4615384615385  0 14.3288888888889  0 9.23076923076923  Z M 16.4102564102564 9.23076923076923  C 16.4102564102564 5.26564102564103  13.1958974358974 2.05128205128205  9.23076923076923 2.05128205128205  C 5.26564102564103 2.05128205128205  2.05128205128205 5.26564102564103  2.05128205128205 9.23076923076923  C 2.05128205128205 13.1958974358974  5.26564102564103 16.4102564102564  9.23076923076923 16.4102564102564  C 13.1958974358974 16.4102564102564  16.4102564102564 13.1958974358974  16.4102564102564 9.23076923076923  Z " fill-rule="nonzero" fill="#02a7f0" stroke="none" transform="matrix(1 0 0 1 1118 141 )" />
  </g>
</svg>