<?xml version="1.0" encoding="utf-8"?>
<svg version="1.1" xmlns:xlink="http://www.w3.org/1999/xlink" width="14px" height="18px" xmlns="http://www.w3.org/2000/svg">
  <g transform="matrix(1 0 0 1 -1115 -101 )">
    <path d="M 13.800248302806 11.1805509164748  C 13.800248302806 10.7936941089008  13.6453099632627 10.4224491050147  13.3690666666667 10.1474042553191  C 13.0884109531653 9.86760474209234  12.7056765027408 9.71012524261274  12.3063140978344 9.71012524261274  C 11.913048892033 9.71012524261274  11.5356469670761 9.8628459957966  11.256 10.1351489361702  L 8.5008 12.8166127659574  L 8.5008 1.76231489361702  C 8.5008 0.951012765957445  7.83128888888889 0.291676595744676  7.00746666666667 0.291676595744676  C 6.18364444444444 0.291676595744676  5.51413333333333 0.95101276595744  5.51413333333333 1.76231489361702  L 5.51413333333333 12.8288680851064  L 2.76142222222222 10.1376  C 2.17542394073357 9.5660227517316  1.23023750292798 9.5693118750612  0.648355555555556 10.1449531914894  C 0.0679576707397997 10.7220457240192  0.0712975521454737 11.6528676262959  0.655822222222219 12.2259063829787  L 5.94222222222222 17.3952  C 6.52459286704542 17.962333001705  7.4616012801016 17.9634250350347  8.04533333333333 17.3976510638298  L 13.3541333333333 12.2283574468085  C 13.6395083186199 11.9521403671956  13.800248302806 11.5746044927213  13.800248302806 11.1805509164748  Z " fill-rule="nonzero" fill="#4f4f4f" stroke="none" transform="matrix(1 0 0 1 1115 101 )" />
  </g>
</svg>