<?xml version="1.0" encoding="utf-8"?>
<svg version="1.1" xmlns:xlink="http://www.w3.org/1999/xlink" width="47px" height="33px" xmlns="http://www.w3.org/2000/svg">
  <g transform="matrix(1 0 0 1 -1098 -84 )">
    <path d="M 46.9895213114754 23.2170917647059  C 46.9919868852459 28.6064188235294  42.6377836065574 32.9919247058824  37.2899540983607 32.9919247058824  L 32.4993442622951 32.9919247058824  C 31.6832393442623 32.9919247058824  31.02 32.3235388235294  31.02 31.5011011764706  C 31.02 30.6786635294118  31.6832393442623 30.0102776470588  32.4993442622951 30.0102776470588  L 37.2874885245902 30.0102776470588  C 41.0055737704918 30.0102776470588  44.0308327868852 26.9615435294118  44.0308327868852 23.2146070588235  C 44.0308327868852 19.4676705882353  41.0055737704918 16.4189364705882  37.2874885245902 16.4189364705882  L 37.045862295082 16.4189364705882  C 36.2396196721311 16.4189364705882  35.5813114754098 15.7679435294118  35.5665180327869 14.9554447058824  C 35.4432393442623 8.37345882352941  30.0288393442623 3.01891764705883  23.4975344262295 3.01891764705883  C 16.9662295081967 3.01891764705883  11.5542950819672 8.37594352941176  11.4310163934426 14.9579294117647  C 11.415967947374 15.7704816288777  10.7581081438384 16.4212918759204  9.95167213114754 16.4214211764706  L 9.71004590163934 16.4214211764706  C 5.9919606557377 16.4214211764706  2.96670163934426 19.4701552941176  2.96670163934426 23.2170917647059  C 2.96670163934426 26.9640282352941  5.9919606557377 30.0127623529412  9.71004590163934 30.0127623529412  L 14.0839737704918 30.0127623529412  C 14.9000786885246 30.0127623529412  15.5633180327869 30.6811482352941  15.5633180327869 31.5035858823529  C 15.5633180327869 32.3260235294118  14.9000786885246 32.9944094117647  14.0839737704918 32.9944094117647  L 9.71004590163934 32.9944094117647  C 4.35975081967213 32.9944094117647  0.00801311475409748 28.6089035294118  0.00801311475409748 23.2170917647059  C 0.00801311475409748 18.2178635294118  3.75075409836065 14.0833129411765  8.56108852459016 13.5068611764706  C 8.93832131147541 10.0506352941176  10.4743737704918 6.85033411764706  12.9646032786885 4.38302117647059  C 15.7926163934426 1.58275764705882  19.5353573770492 0.0397552941176468  23.5 0.0397552941176468  C 27.4646426229508 0.0397552941176468  31.2049180327869 1.58275764705882  34.032931147541 4.38302117647059  C 36.5231606557377 6.85033411764706  38.0592131147541 10.0506352941176  38.4364459016394 13.5068611764706  C 43.2467803278689 14.0808282352941  46.9895213114754 18.2153788235294  46.9895213114754 23.2170917647059  Z " fill-rule="nonzero" fill="#4f4f4f" stroke="none" transform="matrix(1 0 0 1 1098 84 )" />
  </g>
</svg>