<?xml version="1.0" encoding="utf-8"?>
<svg version="1.1" xmlns:xlink="http://www.w3.org/1999/xlink" width="12px" height="12px" viewBox="804 290.5  12 12" xmlns="http://www.w3.org/2000/svg">
  <path d="M 810 290.5  C 813.36 290.5  816 293.14  816 296.5  C 816 299.86  813.36 302.5  810 302.5  C 806.64 302.5  804 299.86  804 296.5  C 804 293.14  806.64 290.5  810 290.5  Z " fill-rule="nonzero" fill="#f0f0f0" stroke="none" />
  <path d="M 810 291  C 813.08 291  815.5 293.42  815.5 296.5  C 815.5 299.58  813.08 302  810 302  C 806.92 302  804.5 299.58  804.5 296.5  C 804.5 293.42  806.92 291  810 291  Z " stroke-width="1" stroke="#02a7f0" fill="none" />
  <path d="M 810 299.5  C 808.32 299.5  807 298.18  807 296.5  C 807 294.82  808.32 293.5  810 293.5  C 811.68 293.5  813 294.82  813 296.5  C 813 298.18  811.68 299.5  810 299.5  " fill-rule="nonzero" fill="#02a7f0" stroke="none" />
</svg>