<?xml version="1.0" encoding="utf-8"?>
<svg version="1.1" xmlns:xlink="http://www.w3.org/1999/xlink" width="49px" height="49px" xmlns="http://www.w3.org/2000/svg">
  <g transform="matrix(1 0 0 1 -1573 -684 )">
    <path d="M 1597.5 684  C 1611.22 684  1622 694.78  1622 708.5  C 1622 722.22  1611.22 733  1597.5 733  C 1583.78 733  1573 722.22  1573 708.5  C 1573 694.78  1583.78 684  1597.5 684  Z " fill-rule="nonzero" fill="#ffffff" stroke="none" fill-opacity="0.87843137254902" />
    <path d="M 1597.5 684.5  C 1610.94 684.5  1621.5 695.06  1621.5 708.5  C 1621.5 721.94  1610.94 732.5  1597.5 732.5  C 1584.06 732.5  1573.5 721.94  1573.5 708.5  C 1573.5 695.06  1584.06 684.5  1597.5 684.5  Z " stroke-width="1" stroke="#81d3f8" fill="none" />
  </g>
</svg>