<?xml version="1.0" encoding="utf-8"?>
<svg version="1.1" xmlns:xlink="http://www.w3.org/1999/xlink" width="31px" height="24px" xmlns="http://www.w3.org/2000/svg">
  <g transform="matrix(1 0 0 1 -834 -67 )">
    <path d="M 6.00322265625005 7.53115234374999  C 6.80849609375002 3.71669921874999  10.3171875 0.84375  14.53125 0.84375  C 17.6373046875 0.84375  20.355859375 2.40283203125  21.8998046875 4.7490234375  C 22.2025390625 5.21220703125  22.68994140625 5.52099609375  23.237890625 5.602734375  C 27.63359375 6.26875  30.9939453125 9.90458984375  30.9939453125 14.30634765625  C 30.9939453125 19.17734375  27.088671875 23.125  22.27822265625 23  L 7.75302734374998 23  C 3.42998046875005 22.89794921875  0.00605468749995453 19.65263671875  0.00605468749995453 15.69892578125  C 0.00605468749995453 12.68974609375  1.99199218750005 10.09833984375  4.84677734374998 8.9328125  C 5.44316406250005 8.690625  5.87001953125002 8.16083984375  6.00322265625005 7.53115234374999  Z M 14.0583333333333 11.9  C 14.1166666666667 12.725  15.6333333333333 13.4  17.5 13.4  C 19.3666666666667 13.4  20.8833333333333 12.725  20.9416666666667 11.9  L 20.9416666666667 9.5  C 20.9416666666667 8.675  19.425 8  17.5 8  C 15.575 8  14.0583333333333 8.675  14.0583333333333 9.5  L 14.0583333333333 11.9  Z M 11 16.7  C 12.0666666666667 16.7  12.9333333333333 16.3625  12.9666666666667 15.95  L 12.9666666666667 14.75  C 12.9666666666667 14.3375  12.1 14  11 14  C 9.89999999999998 14  9.0333333333333 14.3375  9.0333333333333 14.75  L 9.0333333333333 15.95  C 9.06666666666672 16.3625  9.93333333333328 16.7  11 16.7  Z M 17.5 20  C 19.3666666666667 20  20.8833333333333 19.325  20.9416666666667 18.5  L 20.9416666666667 16.1  C 20.9416666666667 17  19.425 17.675  17.5 17.675  C 15.575 17.675  14.0583333333333 17  14.0583333333333 16.175  L 14.0583333333333 18.5  C 14.1166666666667 19.325  15.6333333333333 20  17.5 20  Z M 17.5 16.775  C 19.3666666666667 16.775  20.8833333333333 16.1  20.9416666666667 15.275  L 20.9416666666667 12.875  C 20.9416666666667 13.7  19.425 14.375  17.5 14.375  C 15.575 14.375  14.0583333333333 13.7  14.0583333333333 12.875  L 14.0583333333333 15.275  C 14.1166666666667 16.1  15.6333333333333 16.775  17.5 16.775  Z M 12.9666666666667 19.25  L 12.9666666666667 18.05  C 12.9666666666667 18.5  12.1 18.8375  11 18.8375  C 9.89999999999998 18.8375  9.0333333333333 18.5  9.0333333333333 18.0875  L 9.0333333333333 19.25  C 9.06666666666672 19.6625  9.93333333333328 20  11 20  C 12.0666666666667 20  12.9333333333333 19.6625  12.9666666666667 19.25  Z M 12.9666666666667 17.6375  L 12.9666666666667 16.4375  C 12.9666666666667 16.85  12.1 17.1875  11 17.1875  C 9.89999999999998 17.1875  9.0333333333333 16.85  9.0333333333333 16.4375  L 9.0333333333333 17.6375  C 9.06666666666672 18.05  9.93333333333328 18.3875  11 18.3875  C 12.0666666666667 18.3875  12.9333333333333 18.05  12.9666666666667 17.6375  Z M 14.9333333333333 9.425  C 14.9333333333333 8.825  16.1 8.3  17.5 8.3  C 18.9 8.3  20.0666666666667 8.825  20.0666666666667 9.425  C 20.0666666666667 10.1  18.9 10.55  17.5 10.55  C 16.1 10.55  14.9333333333333 10.025  14.9333333333333 9.425  Z M 11 14.15  C 11.8 14.15  12.4666666666667 14.4125  12.4666666666667 14.7125  C 12.4666666666667 15.05  11.8 15.275  11 15.275  C 10.2 15.275  9.5333333333333 15.0125  9.5333333333333 14.7125  C 9.5333333333333 14.4125  10.2 14.15  11 14.15  Z " fill-rule="nonzero" fill="#ffffff" stroke="none" transform="matrix(1 0 0 1 834 67 )" />
  </g>
</svg>