<?xml version="1.0" encoding="utf-8"?>
<svg version="1.1" xmlns:xlink="http://www.w3.org/1999/xlink" width="1504px" height="240px" xmlns="http://www.w3.org/2000/svg">
  <defs>
    <filter x="60px" y="8px" width="1504px" height="240px" filterUnits="userSpaceOnUse" id="filter713">
      <feOffset dx="0" dy="0" in="SourceAlpha" result="shadowOffsetInner" />
      <feGaussianBlur stdDeviation="2.5" in="shadowOffsetInner" result="shadowGaussian" />
      <feComposite in2="shadowGaussian" operator="atop" in="SourceAlpha" result="shadowComposite" />
      <feColorMatrix type="matrix" values="0 0 0 0 0.666666666666667  0 0 0 0 0.666666666666667  0 0 0 0 0.666666666666667  0 0 0 0.349019607843137 0  " in="shadowComposite" />
    </filter>
    <g id="widget714">
      <path d="M 66.5 24  A 9.5 9.5 0 0 1 76 14.5 L 1548 14.5  A 9.5 9.5 0 0 1 1557.5 24 L 1557.5 232  A 9.5 9.5 0 0 1 1548 241.5 L 76 241.5  A 9.5 9.5 0 0 1 66.5 232 L 66.5 24  Z " fill-rule="nonzero" fill="#81d3f8" stroke="none" fill-opacity="0.109803921568627" />
      <path d="M 66 24  A 10 10 0 0 1 76 14 L 1548 14  A 10 10 0 0 1 1558 24 L 1558 232  A 10 10 0 0 1 1548 242 L 76 242  A 10 10 0 0 1 66 232 L 66 24  Z " stroke-width="2" stroke="#ffffff" fill="none" />
    </g>
  </defs>
  <g transform="matrix(1 0 0 1 -60 -8 )">
    <use xlink:href="#widget714" filter="url(#filter713)" />
    <use xlink:href="#widget714" />
  </g>
</svg>