<?xml version="1.0" encoding="utf-8"?>
<svg version="1.1" xmlns:xlink="http://www.w3.org/1999/xlink" width="350px" height="175px" xmlns="http://www.w3.org/2000/svg">
  <g transform="matrix(1 0 0 1 -78 -53 )">
    <path d="M 80 64  A 9 9 0 0 1 89 55 L 417 55  A 9 9 0 0 1 426 64 L 426 217  A 9 9 0 0 1 417 226 L 89 226  A 9 9 0 0 1 80 217 L 80 64  Z " fill-rule="nonzero" fill="#ffffff" stroke="none" fill-opacity="0.768627450980392" />
    <path d="M 79 64  A 10 10 0 0 1 89 54 L 417 54  A 10 10 0 0 1 427 64 L 427 217  A 10 10 0 0 1 417 227 L 89 227  A 10 10 0 0 1 79 217 L 79 64  Z " stroke-width="2" stroke="#02a7f0" fill="none" stroke-opacity="0.219607843137255" />
  </g>
</svg>