<?xml version="1.0" encoding="utf-8"?>
<svg version="1.1" xmlns:xlink="http://www.w3.org/1999/xlink" width="44px" height="44px" xmlns="http://www.w3.org/2000/svg">
  <g transform="matrix(1 0 0 1 -323 -81 )">
    <path d="M 43.9027548173077 21.9996211346154  C 43.9027548701923 34.1048169423077  34.0949946826923 43.9204781971154  21.9976999951923 43.9204781971154  C 9.90181240865384 43.9204781971154  0.0971909759615372 34.1048168894231  0.0971909759615372 21.9996211346154  C 0.0971909759615372 9.8935595  9.90181235576923 0.0795217499999981  21.9976999951923 0.0795217499999981  C 34.0949946298077 0.0795217499999981  43.9027548173077 9.89361365384615  43.9027548173077 21.9996211346154  Z M 30.7535309230769 19.6440637884615  C 31.3352362548077 19.062142  31.3777182019231 18.1571408509615  30.842986625 17.6248445048077  L 23.2744860721154 10.0303677163462  C 23.1093746442308 9.78267352403846  22.8687697403846 9.57827300480769  22.5574337788462 9.46976810576923  C 22.3923223509615 9.40374515384616  22.2162250961538 9.37538778846154  22.0337961778846 9.37852659615385  C 22.021241 9.37852659615385  22.0117704759615 9.37224898076923  21.9977000480769 9.37224898076923  C 21.9819519615385 9.37224898076923  21.9677732788462 9.38015010096154  21.9505098894231 9.38171950480769  C 21.7758738365385 9.37852659615385  21.6029695432692 9.40607223557692  21.4425121730769 9.46819870192308  C 21.12798325 9.57827300480769  20.8811549375 9.78586637980769  20.7160435096154 10.0382687836538  L 13.1553898701923 17.6248445048077  C 12.6238512019231 18.1571408509615  12.6647637451923 19.062142  13.245007875 19.6440096875  C 13.8283908125 20.2265808461538  14.7074698798077 20.2430866105769  15.2405779519231 19.7084632355769  C 15.2814363942308 19.6659812884615  15.3239183942308 19.6376779711538  15.360068625 19.5889725625  L 21 14.4539039615385  L 21 34.1457836394231  C 20.5179205 34.2008749182692  20.5241981153846 34.2496344807692  20.5241981153846 34.3046175048077  C 20.5241981153846 35.0138228317308  21.1563406153846 35.5862740961539  21.9803284038462 35.5862740961539  C 22.8012856394231 35.5862740961539  23.4710936730769 35.0138769326923  23 34.3046175048077  L 23 14.4523887115385  L 28.6415548798077 19.5890266634615  C 28.6761357596154 19.637732125  28.7185636057692 19.6660894903846  28.7594761490385 19.7085173365385  C 29.292638375 20.2431407115385  30.1717174423077 20.226635  30.7535309230769 19.6440637884615  Z " fill-rule="nonzero" fill="#ec808d" stroke="none" transform="matrix(1 0 0 1 323 81 )" />
  </g>
</svg>