<?xml version="1.0" encoding="utf-8"?>
<svg version="1.1" xmlns:xlink="http://www.w3.org/1999/xlink" width="16px" height="4px" xmlns="http://www.w3.org/2000/svg">
  <g transform="matrix(1 0 0 1 -90 -70 )">
    <path d="M 0 2  C 0 3.10456949966159  0.778635217685578 4  1.73913043478261 4  C 2.69962565187964 4  3.47826086956522 3.10456949966159  3.47826086956522 2  C 3.47826086956522 0.895430500338413  2.69962565187964 0  1.73913043478261 0  C 0.778635217685576 0  0 0.895430500338413  0 2  Z M 6.26086956521739 2  C 6.26086956521739 3.10456949966159  7.03950478290297 4  8 4  C 8.96049521709703 4  9.73913043478261 3.10456949966159  9.73913043478261 2  C 9.73913043478261 0.895430500338413  8.96049521709703 0  8 0  C 7.03950478290297 0  6.26086956521739 0.895430500338413  6.26086956521739 2  Z M 12.5217391304348 2  C 12.5217391304348 3.10456949966159  13.3003743481204 4  14.2608695652174 4  C 15.2213647823144 4  16 3.10456949966159  16 2  C 16 0.895430500338413  15.2213647823144 0  14.2608695652174 0  C 13.3003743481204 0  12.5217391304348 0.895430500338413  12.5217391304348 2  Z " fill-rule="nonzero" fill="#02a7f0" stroke="none" transform="matrix(1 0 0 1 90 70 )" />
  </g>
</svg>