<?xml version="1.0" encoding="utf-8"?>
<svg version="1.1" xmlns:xlink="http://www.w3.org/1999/xlink" width="17px" height="4px" xmlns="http://www.w3.org/2000/svg">
  <g transform="matrix(1 0 0 1 -462 -71 )">
    <path d="M 0 2  C 0 3.10456949966159  0.827299918790926 4  1.84782608695652 4  C 2.86835225512212 4  3.69565217391304 3.10456949966159  3.69565217391304 2  C 3.69565217391304 0.895430500338413  2.86835225512212 0  1.84782608695652 0  C 0.827299918790925 0  0 0.895430500338413  0 2  Z M 6.65217391304348 2  C 6.65217391304348 3.10456949966159  7.4794738318344 4  8.5 4  C 9.52052616816559 4  10.3478260869565 3.10456949966159  10.3478260869565 2  C 10.3478260869565 0.895430500338413  9.52052616816559 0  8.5 0  C 7.4794738318344 0  6.65217391304348 0.895430500338413  6.65217391304348 2  Z M 13.304347826087 2  C 13.304347826087 3.10456949966159  14.1316477448779 4  15.1521739130435 4  C 16.1727000812091 4  17 3.10456949966159  17 2  C 17 0.895430500338413  16.1727000812091 0  15.1521739130435 0  C 14.1316477448779 0  13.304347826087 0.895430500338413  13.304347826087 2  Z " fill-rule="nonzero" fill="#02a7f0" stroke="none" transform="matrix(1 0 0 1 462 71 )" />
  </g>
</svg>