<?xml version="1.0" encoding="utf-8"?>
<svg version="1.1" xmlns:xlink="http://www.w3.org/1999/xlink" width="19px" height="5px" xmlns="http://www.w3.org/2000/svg">
  <g transform="matrix(1 0 0 1 -1131 -77 )">
    <path d="M 0 2.5  C 0 3.88071187457698  0.924629321001623 5  2.06521739130435 5  C 3.20580546160707 5  4.1304347826087 3.88071187457698  4.1304347826087 2.5  C 4.1304347826087 1.11928812542302  3.20580546160707 0  2.06521739130435 0  C 0.924629321001622 0  0 1.11928812542302  0 2.5  Z M 7.43478260869565 2.5  C 7.43478260869565 3.88071187457698  8.35941192969727 5  9.5 5  C 10.6405880703027 5  11.5652173913043 3.88071187457698  11.5652173913043 2.5  C 11.5652173913043 1.11928812542302  10.6405880703027 0  9.5 0  C 8.35941192969727 0  7.43478260869565 1.11928812542302  7.43478260869565 2.5  Z M 14.8695652173913 2.5  C 14.8695652173913 3.88071187457698  15.7941945383929 5  16.9347826086956 5  C 18.0753706789984 5  19 3.88071187457698  19 2.5  C 19 1.11928812542302  18.0753706789984 0  16.9347826086956 0  C 15.7941945383929 0  14.8695652173913 1.11928812542302  14.8695652173913 2.5  Z " fill-rule="nonzero" fill="#02a7f0" stroke="none" transform="matrix(1 0 0 1 1131 77 )" />
  </g>
</svg>