<?xml version="1.0" encoding="utf-8"?>
<svg version="1.1" xmlns:xlink="http://www.w3.org/1999/xlink" width="10px" height="98px" xmlns="http://www.w3.org/2000/svg">
  <defs>
    <linearGradient gradientUnits="userSpaceOnUse" x1="20" y1="472" x2="30" y2="570" id="LinearGradient133">
      <stop id="Stop134" stop-color="#81d3f8" offset="0" />
      <stop id="Stop135" stop-color="#81d3f8" stop-opacity="0.549019607843137" offset="1" />
    </linearGradient>
  </defs>
  <g transform="matrix(1 0 0 1 -20 -472 )">
    <path d="M 20.5 482  A 9.5 9.5 0 0 1 30 472.5 L 29.5 472.5  L 29.5 569.5  L 30 569.5  A 9.5 9.5 0 0 1 20.5 560 L 20.5 482  Z " fill-rule="nonzero" fill="url(#LinearGradient133)" stroke="none" />
    <path d="M 20.5 482  A 9.5 9.5 0 0 1 30 472.5 L 29.5 472.5  L 29.5 569.5  L 30 569.5  A 9.5 9.5 0 0 1 20.5 560 L 20.5 482  Z " stroke-width="1" stroke="#81d3f8" fill="none" />
  </g>
</svg>