<?xml version="1.0" encoding="utf-8"?>
<svg version="1.1" xmlns:xlink="http://www.w3.org/1999/xlink" width="22px" height="22px" xmlns="http://www.w3.org/2000/svg">
  <g transform="matrix(1 0 0 1 -875 -247 )">
    <path d="M 0.615384613131009 11  C 0.615384613131009 5.26480768780048  5.26480768780048 0.615384613131009  11 0.615384613131009  C 16.7351923121995 0.615384613131009  21.384615386869 5.26480768780048  21.384615386869 11  C 21.384615386869 16.7351923121995  16.7351923121995 21.384615386869  11 21.384615386869  C 5.26480768780048 21.384615386869  0.615384613131009 16.7351923121995  0.615384613131009 11  Z M 15.0384615407151 9.84615383488582  L 7.53846152944711 9.84615383488582  C 6.90120984017283 9.84615383488581  6.38461531570195 10.3627483593567  6.38461531570195 11  C 6.38461531570195 11.6372516406433  6.90120984017283 12.1538461651142  7.53846148081614 12.1538461651142  L 15.0384615407151 12.1538461651142  C 15.6757131813584 12.1538461651142  16.1923077058293 11.6372516406433  16.1923077058293 11  C 16.1923077058293 10.3627483593567  15.6757131813584 9.84615383488581  15.0384615407151 9.84615383488581  Z " fill-rule="nonzero" fill="#ec808d" stroke="none" transform="matrix(1 0 0 1 875 247 )" />
  </g>
</svg>