<?xml version="1.0" encoding="utf-8"?>
<svg version="1.1" xmlns:xlink="http://www.w3.org/1999/xlink" width="15px" height="15px" xmlns="http://www.w3.org/2000/svg">
  <g transform="matrix(1 0 0 1 -849 -203 )">
    <path d="M 0.163043472528872 7.5  C 0.163043472528872 3.44798234268852  3.44798234268852 0.163043472528872  7.5 0.163043472528872  C 11.5520176573115 0.163043472528872  14.8369565274711 3.44798232549253  14.8369565274711 7.5  C 14.8369565274711 11.5520176745075  11.5520176573115 14.8369565274711  7.5 14.8369565274711  C 3.44798234268852 14.8369565274711  0.163043472528872 11.5520176573115  0.163043472528872 7.5  Z M 8.05027173913044 4.74864130434783  C 8.05027173913044 4.44473461456322  7.80390668978461 4.19836956521739  7.5 4.19836956521739  C 7.19609331021539 4.19836956521739  6.94972826086956 4.44473461456322  6.94972826086956 4.74864130434783  L 6.94972826086956 6.94972826086956  L 4.74864130434783 6.94972826086956  C 4.44473461456322 6.94972826086956  4.19836956521739 7.19609331021539  4.19836956521739 7.5  C 4.19836956521739 7.80390668978461  4.44473461456322 8.05027173913044  4.74864130434783 8.05027173913044  L 6.94972826086956 8.05027173913044  L 6.94972826086956 10.2513586956522  C 6.94972826086956 10.5552653854368  7.19609331021539 10.8016304347826  7.5 10.8016304347826  C 7.80390668978461 10.8016304347826  8.05027173913044 10.5552653854368  8.05027173913044 10.2513586956522  L 8.05027173913044 8.05027173913044  L 10.2513586956522 8.05027173913044  C 10.5552653854368 8.05027173913044  10.8016304347826 7.80390668978461  10.8016304347826 7.5  C 10.8016304347826 7.19609331021539  10.5552653854368 6.94972826086956  10.2513586956522 6.94972826086956  L 8.05027173913044 6.94972826086956  L 8.05027173913044 4.74864130434783  Z " fill-rule="nonzero" fill="#ffffff" stroke="none" transform="matrix(1 0 0 1 849 203 )" />
  </g>
</svg>