<?xml version="1.0" encoding="utf-8"?>
<svg version="1.1" xmlns:xlink="http://www.w3.org/1999/xlink" width="21px" height="21px" xmlns="http://www.w3.org/2000/svg">
  <g transform="matrix(1 0 0 1 -850 -247 )">
    <path d="M 20.4286865234375 10.477783203125  C 20.4286865234375 15.94755859375  15.9942138671875 20.3842529296875  10.522216796875 20.3842529296875  C 5.05244140625 20.3842529296875  0.6157470703125 15.94755859375  0.6157470703125 10.477783203125  C 0.6157470703125 5.0057861328125  5.05244140625 0.5713134765625  10.522216796875 0.5713134765625  C 15.9919921875 0.5713134765625  20.4286865234375 5.0057861328125  20.4286865234375 10.477783203125  Z M 6.554296875 12.90830078125  L 5.4012451171875 15.9586669921875  L 8.4227294921875 14.7767333984375  L 6.554296875 12.90830078125  Z M 13.0927001953125 6.372119140625  L 7.020849609375 12.441748046875  L 8.8892822265625 14.3101806640625  L 14.9611328125 8.2405517578125  L 13.0927001953125 6.372119140625  Z M 16.5940673828125 6.6053955078125  L 14.725634765625 4.736962890625  L 13.55703125 5.90556640625  L 15.4254638671875 7.7739990234375  L 16.5940673828125 6.6053955078125  Z " fill-rule="nonzero" fill="#facd91" stroke="none" transform="matrix(1 0 0 1 850 247 )" />
  </g>
</svg>