<?xml version="1.0" encoding="utf-8"?>
<svg version="1.1" xmlns:xlink="http://www.w3.org/1999/xlink" width="23px" height="23px" xmlns="http://www.w3.org/2000/svg">
  <g transform="matrix(1 0 0 1 -875 -246 )">
    <path d="M 15.04638671875 7.0755859375  L 11.44990234375 10.54814453125  L 7.97734375 6.95166015625  C 7.703125 6.66953125  7.2548828125 6.6642578125  6.97275390625 6.9384765625  C 6.83564453125 7.06767578125  6.75654296875 7.24697265625  6.75390625 7.43681640625  C 6.7486328125 7.62666015625  6.8224609375 7.80859375  6.95166015625 7.94306640625  L 10.42421875 11.53955078125  L 6.827734375 15.012109375  C 6.54560546875 15.286328125  6.54033203125 15.7345703125  6.81455078125 16.01669921875  C 6.94375 16.15380859375  7.123046875 16.23291015625  7.312890625 16.235546875  C 7.502734375 16.2408203125  7.68466796875 16.1669921875  7.819140625 16.03779296875  L 11.415625 12.565234375  L 14.88818359375 16.16171875  C 15.16240234375 16.44384765625  15.61064453125 16.44912109375  15.8927734375 16.17490234375  C 16.0298828125 16.045703125  16.108984375 15.86640625  16.11162109375 15.6765625  C 16.11689453125 15.48671875  16.04306640625 15.30478515625  15.9138671875 15.1703125  L 12.44130859375 11.573828125  L 16.03779296875 8.10126953125  C 16.319921875 7.82705078125  16.3251953125 7.37880859375  16.0509765625 7.0966796875  C 15.92177734375 6.9595703125  15.74248046875 6.88046875  15.55263671875 6.87783203125  C 15.36279296875 6.87255859375  15.180859375 6.94638671875  15.04638671875 7.0755859375  Z M 18.94609375 19.178125  C 14.69306640625 23.28349609375  7.9193359375 23.16748046875  3.811328125 18.914453125  C -0.294042968749999 14.66142578125  -0.175390624999999 7.8876953125  4.075 3.7796875  C 8.32802734375 -0.325683593749998  15.1017578125 -0.207031249999998  19.209765625 4.043359375  C 23.31513671875 8.29638671875  23.19912109375 15.0701171875  18.94609375 19.178125  Z " fill-rule="nonzero" fill="#aaaaaa" stroke="none" transform="matrix(1 0 0 1 875 246 )" />
  </g>
</svg>