<?xml version="1.0" encoding="utf-8"?>
<svg version="1.1" xmlns:xlink="http://www.w3.org/1999/xlink" width="59px" height="59px" xmlns="http://www.w3.org/2000/svg">
  <g transform="matrix(1 0 0 1 -960 -69 )">
    <path d="M 29.5 31.3960454335938  L 40.8789545664063 42.775  L 42.775 40.8789545664063  L 31.3960454335938 29.5  L 42.775 18.1210454335938  L 40.8789545664063 16.225  L 29.5 27.6039545664062  L 18.1210454335938 16.225  L 16.225 18.1210454335938  L 27.6039545664062 29.5  L 16.225 40.8789545664063  L 18.1210454335938 42.775  L 29.5 31.3960454335938  Z M 29.5 59  C 45.7920454335937 59  59 45.7920454335937  59 29.5  C 59 13.2079545664062  45.7920454335937 0  29.5 0  C 13.2079545664063 0  0 13.2079545664063  0 29.5  C 0 45.7920454335937  13.2079545664063 59  29.5 59  Z M 29.5 56.3181817919922  C 14.6883182080078 56.3181817919922  2.68181820800781 44.3116817919922  2.68181820800781 29.5  C 2.68181820800781 14.6883182080078  14.6883182080078 2.68181820800781  29.5 2.68181820800781  C 44.3116817919922 2.68181820800781  56.3181817919922 14.6883182080078  56.3181817919922 29.5  C 56.3181817919922 44.3116817919922  44.3116817919922 56.3181817919922  29.5 56.3181817919922  Z " fill-rule="nonzero" fill="#333333" stroke="none" transform="matrix(1 0 0 1 960 69 )" />
  </g>
</svg>