<?xml version="1.0" encoding="utf-8"?>
<svg version="1.1" xmlns:xlink="http://www.w3.org/1999/xlink" width="52px" height="10px" preserveAspectRatio="xMinYMid meet" viewBox="5 3.55056179775281  52 8" xmlns="http://www.w3.org/2000/svg">
  <path d="M 52.2986910909926 9.52754836238235  A 2.44943820224719 2.44943820224719 0 0 0 50.0505617977528 8.05056179775281 L 15 8.05056179775281  A 5 5 0 0 0 10.5 13.0505617977528 L 10.5 395  A 5 5 0 0 0 15.5 400.5 L 95 400.5  " stroke-width="1" stroke="#ff3399" fill="none" />
  <path d="M 50.8813175345946 5.19574471632756  A 3 3 0 0 0 47.8813175345946 8.19574471632756 A 3 3 0 0 0 50.8813175345946 11.1957447163276 A 3 3 0 0 0 53.8813175345946 8.19574471632756 A 3 3 0 0 0 50.8813175345946 5.19574471632756 Z " fill-rule="nonzero" fill="#ff3399" stroke="none" />
</svg>