<?xml version="1.0" encoding="utf-8"?>
<svg version="1.1" xmlns:xlink="http://www.w3.org/1999/xlink" width="44px" height="48px" xmlns="http://www.w3.org/2000/svg">
  <g transform="matrix(1 0 0 1 -536 -426 )">
    <path d="M 43.8872163265306 22.009720754717  C 43.8929632653061 17.9291773584906  40.5999673469388 14.6079396226415  36.5541224489796 14.6079396226415  L 36.2150530612245 14.6079396226415  C 36.1949387755102 6.71347924528302  29.8215836734694 0.297056603773584  21.988506122449 0.297056603773584  C 14.1583020408163 0.297056603773584  7.78494693877551 6.71347924528302  7.76195918367347 14.6079396226415  L 7.42288979591837 14.6079396226415  C 3.37704489795918 14.6079396226415  0.0869224489795902 17.926279245283  0 22.0068226415094  L 0 40.3547773584906  C 0.0869224489795902 44.435320754717  3.37704489795918 47.7536603773585  7.42288979591837 47  L 36.5512489795918 47  C 40.597093877551 47.7536603773585  43.8872163265306 44.435320754717  43.8872163265306 40.3547773584906  L 43.8872163265306 22.009720754717  Z M 29.9997387755102 28.0783698113208  C 29.9968653061224 30.5388679245283  28.910693877551 32.8167849056604  27.045812244898 34.3411924528302  L 27.045812244898 36.1119396226415  C 27.045812244898 38.9231094339623  24.7786448979592 41.2126188679245  21.9913795918367 41.2126188679245  C 19.2041142857143 41.2126188679245  16.9340734693878 38.9260075471698  16.9340734693878 36.1119396226415  L 16.9340734693878 34.3411924528302  C 15.0720653061225 32.8138867924528  13.9830204081633 30.5388679245283  13.9830204081633 28.0783698113208  C 13.9830204081633 23.6268679245283  17.5748571428571 20.0042264150943  21.9913795918367 20.0042264150943  C 26.4079020408163 20.0042264150943  29.9997387755102 23.6268679245283  29.9997387755102 28.0783698113208  Z M 32.7697632653061 15  L 11.2129959183673 15  C 11.2331102040816 8.63203018867925  16.0605387755102 3.77479245283019  21.9913795918367 3.77479245283019  C 27.9222204081633 3.77479245283019  32.7467755102041 8.63203018867924  32.7697632653061 15  Z " fill-rule="nonzero" fill="#505587" stroke="none" transform="matrix(1 0 0 1 536 426 )" />
  </g>
</svg>