<?xml version="1.0" encoding="utf-8"?>
<svg version="1.1" xmlns:xlink="http://www.w3.org/1999/xlink" width="10px" height="14px" xmlns="http://www.w3.org/2000/svg">
  <g transform="matrix(1 0 0 1 -553 -449 )">
    <path d="M 9.60509090909091 4.66938181818182  C 9.60509090909091 2.29362424242424  7.53672727272728 0.363151515151516  4.99127272727273 0.363151515151516  C 2.44581818181818 0.363151515151516  0.374545454545454 2.2963393939394  0.374545454545454 4.66938181818182  C 0.374545454545454 6.16271515151515  1.18618181818182 7.52572121212121  2.54472727272727 8.32126060606061  L 3.36218181818182 8.79912727272728  L 3.36218181818182 12.1930666666667  C 3.36218181818182 13.0320484848485  4.09236363636364 13.7135515151515  4.99127272727273 13.7135515151515  C 5.88727272727273 13.7135515151515  6.61745454545455 13.0320484848485  6.61745454545455 12.1930666666667  L 6.61745454545455 8.79912727272728  L 7.43490909090909 8.32126060606061  C 8.79345454545455 7.52572121212121  9.60509090909091 6.16  9.60509090909091 4.66938181818182  Z " fill-rule="nonzero" fill="#505587" stroke="none" transform="matrix(1 0 0 1 553 449 )" />
  </g>
</svg>