<?xml version="1.0" encoding="utf-8"?>
<svg version="1.1" xmlns:xlink="http://www.w3.org/1999/xlink" width="61px" height="53px" xmlns="http://www.w3.org/2000/svg">
  <g transform="matrix(1 0 0 1 -530 -1118 )">
    <path d="M 59.3551486160714 21.7595698443182  C 60.6153172976191 20.9650195613636  60.9939138581349 19.3076384329545  60.1957036835317 18.0586188715909  L 51.0578207162698 3.71912244431818  C 50.2599056775794 2.46870789886364  48.5925170327381 2.09874495227273  47.3323482906746 2.88595322954545  L 1.72784460714286 31.5985724761364  C 0.471143182539682 32.3926822568182  0.0997025029761904 34.0521191227273  0.888986223214286 35.2990829465909  L 10.0268692509921 49.6404149204545  C 10.8248580585317 50.8876724125  12.4921729345238 51.2573416909091  13.7489481279762 50.4702067704546  L 59.3551486160714 21.7595698443182  Z M 58.6476776964286 19.0403899681818  C 58.8928949126984 19.4332599363636  58.7721305863095 19.9604149204545  58.3756075297619 20.2184858931818  L 12.7694071021825 48.9328672090909  C 12.3660233005952 49.1857988079545  11.8380390109127 49.0673724761364  11.5838954007937 48.6676010647727  L 2.44601237301587 34.3263425079546  C 2.19179499404762 33.9248090272727  2.31086257638889 33.4011047647727  2.71424643849206 33.1447224443182  L 48.3222173789682 4.43210319772727  C 48.7259700853175 4.18086025113636  49.2555772896825 4.29958025113636  49.5060323363095 4.6993516625  L 58.6476776964286 19.0403899681818  Z M 17.1349230565476 10.7192706579545  L 19.0616193730159 11.1190420693182  L 19.8189599107143 12.9267137920455  L 20.8001977410714 11.2303466465909  L 22.7606076924603 11.0728609409091  L 21.4399461944444 9.61877956136364  L 21.8897324176587 7.71705698977273  L 20.0978908829365 8.51865561022727  L 18.4147150386905 7.5048  L 18.6279153640873 9.45248344886364  L 17.1349230565476 10.7192706579545  Z M 32.6306751121032 5.9411761125  L 30.6737324176587 5.73758269545455  L 29.7316674196429 4.01654651931818  L 28.9337523809524 5.80843291477273  L 26.9963591577381 6.17641348068182  L 28.4591050873016 7.48189297840909  L 28.2066582212302 9.42238131590909  L 29.9129245625 8.44061021931818  L 31.6923725069444 9.28097454545455  L 31.2817590555556 7.36346664659091  L 32.6306751121032 5.9411761125  Z M 50.2526760277778 33.9724585568182  L 48.3775461944444 34.5669395613636  L 46.8185281646825 33.3744533534091  L 46.8115936507937 35.3292585568182  L 45.183451546627 36.4279875238636  L 47.0585813799603 37.0435400636364  L 47.611279202381 38.9202999363636  L 48.7737741755952 37.3405970534091  L 50.7414137767857 37.3954417545455  L 49.586148453373 35.8070752988636  L 50.2526760277778 33.9724585568182  Z M 43.9318403541667 42.7784429465909  L 42.0141442003968 42.3609038875  L 41.2712629017857 40.5477991227273  L 40.2738690882937 42.2373381818182  L 38.3151558809524 42.3788183693182  L 39.6234237281746 43.8399480261364  L 39.1577027678571 45.7396883375  L 40.9599461944444 44.9561509727273  L 42.6362612331349 45.9926199363636  L 42.438848046627 44.043247775  L 43.9318403541667 42.7784429465909  Z M 28.3969154662698 47.4416352988637  L 30.3573254781746 47.6609406261364  L 31.2907591577381 49.3891719738636  L 32.1048302400794 47.6024249522727  L 34.0422234027778 47.2577184329545  L 32.5881088521825 45.9378486522727  L 32.8549411884921 43.9991224443182  L 31.1414451974206 44.9633461443182  L 29.3709236468254 44.1107206897727  L 29.7654548839286 46.0244841386364  L 28.3969154662698 47.4416352988637  Z M 11.0167383392857 19.2775363  L 12.8956305654762 18.6956100318182  L 14.445722140873 19.9073322886364  L 14.4687389295635 17.9508384329545  L 16.1041106835317 16.8575425079545  L 14.2393826210317 16.2294351715909  L 13.7007751934524 14.3437915352273  L 12.5241898859127 15.9128484647727  L 10.5565502847222 15.8419982454545  L 11.695954639881 17.4377066465909  L 11.0167383392857 19.2775363  Z M 4.1683609890873 28.272944075  L 5.97237492857143 27.1423508454545  C 5.76633048412698 18.8599238238636  9.81366898611111 10.6713274602273  17.3536562271825 5.92517053409091  C 24.8953402728175 1.17894025113636  34.0635434474206 1.04443492386363  41.5110210416667 4.7630801875  L 43.3097971507936 3.63079824545454  C 41.1058666666667 2.40497937386364  38.7347694950397 1.50793486022727  36.2375226289683 0.950677743181817  C 32.9010485347222 0.204144074999999  29.502680015873 0.110607085227272  26.1431153640873 0.660742507954544  C 22.6646307281746 1.23371153522727  19.3763295684524 2.48273109659091  16.3724184573413 4.37733197386363  C 13.370277859127 6.27185943409091  10.8248580585317 8.69185316590909  8.81627511210318 11.5753468340909  C 6.87172606845238 14.3561260806818  5.50495722420635 17.4537856420455  4.75307576289683 20.7688415670455  C 4.19314835119048 23.2505080863636  3.99403842063492 25.7660211284091  4.1683609890873 28.272944075  Z M 56.7491622301587 24.745264075  L 54.9469925724206 25.8758573045455  C 55.1619634107143 34.1582843261364  51.1146249087302 42.3468806897727  43.5746376676587 47.0913489034091  C 36.0346503660714 51.8427186204545  26.8648242162698 51.9737731659091  19.4189695972222 48.2552013795455  L 17.6167262311508 49.3891719738636  C 19.8206567152778 50.6114667068182  22.1934506309524 51.5104201238636  24.6910663412698 52.0675304068182  C 28.027171530754 52.814064075  31.4256138789683 52.9113454545455  34.7851047619048 52.3574656420455  C 38.2635893978175 51.7844231977273  41.5519643263889 50.5371657056818  44.5541049246032 48.6425648284091  C 47.5562455228175 46.7479639511364  50.1016653234127 44.3279702193182  52.111944953373 41.4462386204545  C 54.0493381765873 38.6620086522727  55.4161070208333 35.5663314113636  56.166217969246 32.2529641386364  C 56.7278421855159 29.7693152988636  56.9235585674603 27.2521136045454  56.7491622301587 24.745264075  Z M 17.9152066746032 19.6242985568182  C 19.0457584652778 17.5791134772727  20.6829007321429 15.7961108454545  22.792550875 14.4659622568182  C 24.9042666666667 13.13926445  27.2272647331349 12.4314230102273  29.5594104394841 12.2900163  L 32.3428178670635 10.5385842625  C 28.665149531746 10.1069485886364  24.9823909642857 10.9314542306818  21.804378530754 12.9286961125  C 18.6350711845238 14.9239556738636  16.3118518720238 17.8871099681818  15.1334959910714 21.3754368659091  L 17.9152066746032 19.6242985568182  Z M 43.0128659136905 33.3976540431818  C 41.8824616607143 35.4336616909091  40.2436226498016 37.2238594340909  38.1338987380952 38.5505572409091  C 36.0221829464286 39.8809994977273  33.700955453373 40.5885472090909  31.3688096865079 40.7299539193182  L 28.587025234127 42.4813859568182  C 32.2629968253968 42.9130216306818  35.9440586488095 42.0867539193182  39.1237678263889 40.0895120375  C 42.293075172619 38.0960145454546  44.616294485119 35.1310981818182  45.7928797926587 31.6427712840909  L 43.0128659136905 33.3976540431818  Z M 20.0303897232143 41.0723109727273  L 19.3606161984127 42.1330084647727  C 18.4552157708333 40.6469894056818  17.2751631458333 38.7734600636364  15.8180976597222 36.5124938556818  C 15.6370618234127 39.4429763  14.6456435287698 42.1870455181818  12.8446542936508 44.7439674602273  L 12.6355114365079 44.6663625715909  C 14.1361760069444 41.9734669613636  14.8589176230159 39.1425419454545  14.8043265565476 36.1744685886364  L 11.476852625 38.2986534806818  C 10.9878198005952 38.6108349238636  10.5687226289683 38.9487134170455  10.2197085267857 39.3122154227273  L 9.42290008134921 39.1874749840909  L 15.1755458690476 35.5153045772727  L 13.6010358363095 33.0723304068182  L 11.1758639196429 34.6203892784091  C 10.6868310952381 34.9325707215909  10.2677339236111 35.2704492147727  9.91871988194445 35.6338043261364  L 9.12198520535715 35.5092107215909  L 13.4082702688492 32.7731442625  C 13.1511757837302 32.3741804386364  12.6176586488095 31.5888076477273  11.8094893164683 30.4158510965909  L 13.6614548839286 30.0781194977273  L 13.3224 30.7872090272727  L 14.2542845337302 32.2330673363636  L 16.735817969246 30.6491061443182  L 17.0754630644841 29.4470018818182  L 18.8460583234127 29.7243089034091  L 14.4470500406746 32.5323268977273  L 16.0536507936508 35.0251532295455  L 19.7759510376984 32.6492114113636  L 20.1400145297619 31.3613527272727  L 21.9991359176587 31.6523158613636  L 16.7541133700397 35.0004107215909  C 19.4673638382937 36.4122022568182  22.2281970902778 36.6202742943182  25.0366868948413 35.6246268340909  L 25.1651972529762 35.8241087159091  C 24.5254487996032 36.2325437  24.2332389503968 36.7248242022727  24.2857644890873 37.3002161125  C 21.2375903134921 37.5108578670454  18.651374765873 36.7922971772727  16.5285194543651 35.1443872090909  L 16.2464900694444 35.3244862079545  C 18.1534155476191 38.2833821329545  19.414100671627 40.1990545454545  20.0303897232143 41.0723109727273  Z M 13.1465281646825 44.9549028829545  L 12.9830500406746 45.1870566147727  L 12.1050188849206 44.8613658931818  L 12.3129076111111 44.4883193102273  C 13.6620450347222 42.0672976795455  14.3743111111111 39.5000969897727  14.4341400079365 36.84684815  L 11.6759624950397 38.6076045136364  C 11.2137088521825 38.9026791227273  10.813497171627 39.2249925397727  10.4863933253968 39.5657343579545  L 10.3530140416667 39.7046448284091  L 8.40676825396825 39.399952225  L 14.6658569801587 35.4045139193182  L 13.4896405168651 33.5795151715909  L 11.3749738501984 34.9294136681818  C 10.9128677450397 35.2244148602273  10.5126560644841 35.5467282772727  10.1853309117063 35.8874701556818  L 10.0520253968254 36.0263072090909  L 8.10563207142857 35.7219082136364  L 12.895925640873 32.6641156738636  C 12.6089536220238 32.2327736681818  12.1501672361111 31.5595131022727  11.505180952381 30.6235559886364  L 11.1836099513889 30.1568256420455  L 14.3043755188492 29.5877478988636  L 13.7434152827381 30.7609247011364  L 14.3654584861111 31.7261028829546  L 16.4185258035714 30.4156308454546  L 16.8089258035714 29.0338680261364  L 19.8620426130952 29.5121253909091  L 14.9565176230159 32.6433378068182  L 16.1648248065476 34.5181887159091  L 19.4585850426587 32.4157361125  L 19.8734035 30.9482922886364  L 23.0150464384921 31.4399120375  L 17.5045194543651 34.9574600636364  C 18.849156796627 35.5668453306818  20.2161469474206 35.8752823840909  21.5762763531746 35.8752824443182  C 22.6738521369048 35.8752824443182  23.7963628204365 35.6746992465909  24.9126028492064 35.2789658931818  L 25.1886567152778 35.1810971170455  L 25.6744435287698 35.935119625  L 25.3640121081349 36.13328  C 24.8459870367064 36.4639632613636  24.6133109484127 36.8348806897727  24.6527788561508 37.2671771170455  L 24.6868613958333 37.6405908454545  L 24.3109944037698 37.6665814431818  C 23.9586606428571 37.6908834488636  23.6072858769841 37.7032914113636  23.2667555555556 37.7032914113636  C 20.9568888888889 37.7032914113636  18.8981411884921 37.1369302193182  17.132119719246 36.0179373045455  C 18.7149659950397 38.4662711602273  19.7900414325397 40.0936969295455  20.3318948105159 40.8614490272727  L 20.4727988194444 41.0611511602273  L 19.3548619861111 42.8320394977273  L 19.0450207162698 42.3235331659091  C 18.2572862023809 41.0305350477273  17.2629170327381 39.4470143579545  16.0831594831349 37.6065240113636  C 15.7438095238095 40.1991280227273  14.7585142857143 42.6663307818182  13.1465281646825 44.9549028829545  Z M 13.9178116200397 32.8839349204546  L 15.5192483720238 35.3686850159091  L 16.1286766180556 36.3143334806818  C 17.4092063492064 38.3013700318182  18.4960114573413 40.0208643897727  19.3654851240079 41.4352990590909  L 19.5881281646825 41.0825897806818  C 18.9304531547619 40.1340779306818  17.7319576517857 38.3094462079545  15.9359111111111 35.5225731659091  L 15.7368011805556 35.2136956102273  L 13.9373611517857 32.4215363  L 12.9011634107143 30.8136401875  L 13.0183867113095 30.5685645136364  L 12.434778530754 30.6749499681818  C 13.088174765873 31.6259581181818  13.4998948105159 32.2353433852273  13.71870175 32.5749104704546  L 13.9178116200397 32.8839349204546  Z M 15.4959365079365 35.7469443897727  L 15.1692752748016 35.9554569897727  L 15.1731852053571 36.1677873363636  C 15.1972348184524 37.4753225715909  15.0712326617063 38.7636952352273  14.7968018313492 40.0268848284091  C 15.1570721237729 38.8784649479757  15.3764152762634 37.6908842499267  15.450050468254 36.4900273363636  L 15.4959365079365 35.7469443897727  Z M 21.5764976597222 36.6092613159091  C 20.9665529712302 36.6092613159091  20.3560919007936 36.5521406261364  19.7474751121032 36.4383397488636  C 20.8349442003968 36.7912692784091  22.0104967440476 36.9689454545455  23.2669768621032 36.9689454545455  C 23.4820952380952 36.9689454545455  23.7018612331349 36.9637326636364  23.923619047619 36.9534538556818  C 23.9537178878968 36.7123428829546  24.0360471914682 36.4853284647727  24.1701641636905 36.2731449522727  C 23.3017233214286 36.4964883375  22.4329136954365 36.6092613159091  21.5764976597222 36.6092613159091  Z M 20.9827827837302 31.8648665193182  L 20.4062567152778 31.7746334170455  L 20.2482376676587 32.3337260806818  L 20.9827827837302 31.8648665193182  Z M 17.8299265565476 29.9367861443182  L 17.3417789583333 29.8603559886364  L 17.2079570615079 30.3338410647727  L 17.8299265565476 29.9367861443182  Z M 36.9203537242064 22.1981070215909  L 32.9723857956349 24.7180986840909  L 35.4788541309524 28.6072249522727  C 35.886074094246 29.2390033215909  36.3006711845238 29.8418542306818  36.7241947291667 30.4160713477273  L 35.9581490436508 31.3272124761364  C 35.3524831299603 30.3063820056818  34.8256054335317 29.4464145454545  34.3757454414683 28.7483379943182  L 32.1264453601191 25.2581021931818  L 28.6298128611111 27.4901409409091  C 29.513303093254 28.9439286522727  29.9220722628968 30.3598316625  29.855825234127 31.7391715988636  C 29.7895782053571 33.1185115352273  29.1934288363095 34.7062171170455  28.0703280625 36.5030226954545  L 27.804749796627 36.4614670215909  C 28.5956565525794 34.9714099045455  29.020876780754 33.5740086522727  29.0822548839286 32.2681620693182  C 29.1426739315476 30.9629028227273  28.7098552093254 29.5502302829546  27.783798656746 28.0301443897727  L 25.5842207162698 29.4341534170455  C 25.0951878918651 29.7464083375  24.6761644890873 30.0842133534091  24.3271503869048 30.4477887159091  L 23.5303419414683 30.3231951715909  L 27.5910330892857 27.7311050795455  L 25.1810582212302 23.9915352352273  L 23.771132905754 24.8915165511364  C 23.2820263125 25.2036979943182  22.8630029097222 25.5415764875  22.5139888075397 25.9050784329545  L 21.7171803621032 25.7803379943182  L 31.3612849613095 19.6242985568182  L 31.7252746845238 18.3362929784091  L 33.5844698412698 18.6274763636364  L 30.3697928978175 20.6794895295455  L 32.7797678263889 24.4190593738636  L 34.5845194543651 23.2670275238636  L 34.9727800367063 21.8932675238636  L 36.9203537242064 22.1981070215909  Z M 29.523631155754 21.2194929784091  L 26.026998656746 23.4515317863636  L 28.4369735248016 27.1910282136364  L 31.9336060238095 24.9590628829545  L 29.523631155754 21.2194929784091  Z M 28.3833415138889 36.6970715352273  L 28.2543147132936 36.9034549204546  L 27.2373714285714 36.7442070852273  L 27.4785312371032 36.2899581181818  C 28.2395603988095 34.8560672090909  28.6551903740079 33.4971380545455  28.7137650793651 32.2509084011364  C 28.7662167886905 31.1181125397727  28.411743610119 29.8729842625  27.6595670734127 28.5454788079545  L 25.7833305863095 29.7431043897727  C 25.3212244811508 30.0381789988636  24.9210128005952 30.3604924159091  24.5937614771825 30.7013077113636  L 24.4604559623016 30.8402181818182  L 22.5139888075397 30.5358192465909  L 27.081417969246 27.6203144818182  L 25.0697366706349 24.49872  L 23.9702427757937 25.2005409409091  C 23.5079891329365 25.49561555  23.107777452381 25.8180023840909  22.7806736061508 26.1586708454545  L 22.6472943224206 26.2975813159091  L 20.700974765873 25.9929620693182  L 31.0441402728175 19.3906763636364  L 31.4588849613095 17.9230122886364  L 34.6005278998016 18.4150725397727  L 30.8794080178571 20.7904270215909  L 32.8911630853175 23.9119480261364  L 34.267374765873 23.0334788079545  L 34.7063903134921 21.4800602511364  L 37.9365593204365 21.9856297806818  L 33.4820746845238 24.8290361761364  L 35.7893593204365 28.4092114113636  C 36.1934808710317 29.0362174920454  36.6080041924603 29.6384075875  37.0214948105159 30.1989686522727  L 37.1926451974206 30.4309756102273  L 35.9059924702381 31.9614870852273  L 35.6404879732143 31.5139927272727  C 35.0216907202381 30.4709894659091  34.506395156746 29.6312124761364  34.0651664226191 28.9466452034091  L 32.0149762718254 25.7654337920454  L 29.1263703501984 27.6093014431818  C 29.9196377698413 29.0152193738636  30.2887914940476 30.4090230102273  30.2240937321429 31.7567923522727  C 30.1551909642857 33.1911237636363  29.5358772688492 34.8532771806818  28.3833415138889 36.6970715352273  Z M 28.100500671627 27.8419691545455  C 29.0155652420635 29.3447279625  29.4711056775794 30.77392  29.4561299960317 32.0936429465909  C 29.4708058158069 31.970030222609  29.4811892216625 31.8459500931919  29.4872616607143 31.7216242625  C 29.5495249900794 30.4242210011364  29.1552888888889 29.0652183693182  28.3155452787698 27.6825745454546  L 25.7228377698413 23.6595304068182  L 25.4978340049603 23.8031397488636  L 27.8951202073413 27.5230331022727  L 27.9030875456349 27.5178936681818  L 28.1006482093254 27.8419691545455  Z M 29.8404807083333 21.0311709090909  L 32.4432949126984 25.0698534806818  L 34.6861768621032 28.5501776795455  C 35.0672816240079 29.1415016909091  35.5023135327381 29.8459657056818  36.0095679285714 30.6938922886364  L 36.2564819494048 30.4002126636364  C 35.8794483615319 29.8784071272236  35.5165816056699 29.3466057970687  35.1682751121032 28.8053852670455  L 30.0654845337302 20.88748815  L 29.8404807083333 21.0311709090909  Z M 29.4123096051587 21.7267511602273  L 26.5366137767857 23.5623224443182  L 28.5482950753968 26.6838434488636  L 31.4239909037698 24.848272225  L 29.4123096051587 21.7267511602273  Z M 35.9039268214286 22.4105842625  L 35.238948453373 22.3065482136364  L 35.0566584861111 22.9514687159091  L 35.9039268214286 22.4105842625  Z M 32.5682642450397 18.8399536045455  L 31.9915168700397 18.7496470852273  L 31.8334240535714 19.3090334170455  L 32.5682642450397 18.8399536045455  Z M 38.1105868740079 17.0050431340909  C 37.7195967232143 16.6452855784091  37.0462821121032 16.3009461443182  36.0914545585317 15.9715109727273  L 36.1399963978175 15.7997818181818  C 36.8161880545635 15.6969205022727  37.3892468660714 15.6599168659091  37.8588039275794 15.6878898443182  C 38.3279183759921 15.7171843897727  38.6384235654762 15.8477984329545  38.7880326617064 16.079952225  C 38.938158139881 16.3129136045455  38.9854457876984 16.5521890909091  38.9319613144841 16.7973381818182  C 38.8777390922619 17.0431480261364  38.8131150386905 17.1898410647727  38.7381629831349 17.2377108454545  C 38.5875211230159 17.3338909090909  38.3783044970238 17.2564329147727  38.1105868740079 17.0050431340909  Z M 40.7080894791667 18.93584  L 43.246574765873 22.8747449522727  C 43.8790935694444 23.0339193102273  44.5977040089286 23.0567529147727  45.3998978224206 22.9428786204545  C 46.2025342490079 22.8296651397727  47.4277351646825 22.2818057056818  49.0769021775794 21.2994472727273  C 50.7251839642857 20.3176027590909  52.5011645912698 19.0784949204545  54.4029260684524 17.5830781181818  L 54.5314364265873 17.78256  C 53.8857862232143 18.4287286522727  53.7216441190476 18.9557368022727  54.038198656746 19.3640249522727  C 52.2704804434524 20.4924156102273  50.8106854494048 21.37683185  49.6594775337301 22.0183016306818  C 48.5069417787698 22.6594043261364  47.5136792023809 23.0944907215909  46.6793209603175 23.3225329784091  C 45.8435610496032 23.5502815670455  45.0914582212301 23.5971968659091  44.4211682539682 23.4621042625  C 43.7128858769841 23.3512401875  43.2700341676587 23.3644557977273  43.0928344930555 23.5006497170455  C 42.9153396825397 23.6381652034091  42.7531156894841 24.0232526636364  42.604244281746 24.6570133534091  C 42.4559630853175 25.2915816909091  42.3942161378968 25.8345953590909  42.4209953194444 26.2870088397727  L 41.1572117827381 26.1788613159091  C 41.399920797619 25.3203622568182  41.8734614980159 24.4087806261364  42.5777602361111 23.4425011284091  L 39.8786001626984 19.2541887159091  L 39.4837738501984 19.5062393102273  C 38.9946672569444 19.8184207534091  38.5755700853175 20.1562992465909  38.2266297519841 20.5198746090909  L 37.4298213065476 20.3951341704545  L 39.6293254781746 18.9910517863636  L 39.6463667480159 18.2764557375  L 40.9342736061508 18.2987020056818  L 40.7080894791667 18.93584  Z M 49.772495828373 18.9203484011364  L 49.6439117013889 18.7207931022727  C 50.2664713472222 18.3706535409091  50.7282086081349 18.0989998727273  51.0295661577381 17.906639625  C 51.3300384206349 17.7147934170455  51.3954001626984 17.4860903465909  51.2237333333333 17.2197963636364  L 50.2275936507936 15.6740868977273  L 47.5768278184524 17.3661222568182  L 49.0228274930556 19.6099082136364  L 48.4825233819444 20.3770729147727  L 46.8436843710317 17.8341741704545  L 44.362150875 19.4182088397727  L 45.9044964186508 21.8114777431818  L 45.3077568988095 22.6146915988636  C 44.7663461944444 21.6936388079545  44.0040628412698 20.4682604386364  43.0184725882936 18.9389236363636  C 42.0333248878968 17.4104678988636  41.2748777569444 16.2759833852273  40.7449015873016 15.5345890909091  L 42.0250624136905 15.4211552988636  L 44.4501605615079 13.8731698443182  C 44.0319486160714 13.3902870852273  43.2999117619048 13.1999826352273  42.2533121894841 13.3050465829545  L 42.2697632480159 13.0835386840909  C 42.9728816240079 12.7753952988636  43.7328779613095 12.5959570534091  44.5486457876984 12.5436820693182  L 45.4693170327381 10.2670040113636  L 41.6906551488095 12.6790684011364  C 41.1636299146825 13.0154784329545  40.7261635128968 13.365104075  40.3770757628968 13.7286794977273  L 39.5802672569444 13.6039390590909  L 45.3329131051587 9.93184206931818  L 45.5513512003968 9.15917090909091  L 47.1769850426587 9.45857730454546  C 46.5539827837302 9.81003843295455  45.7663957470238 10.8516467704545  44.8141502847222 12.5853111602273  C 44.8943401706349 12.6286289034091  44.9780710823413 12.7159986204545  45.063424969246 12.84844815  C 45.1708365892857 13.0151847647727  45.1729022380952 13.2249454545455  45.0706545585317 13.4772163  L 47.6085496339286 11.8572058931818  L 47.6819525436508 11.1065606897727  L 48.8814071021825 11.1150774284091  L 48.7115107857143 11.7160193738636  L 52.1176253968254 17.0012252670455  C 52.5190911478175 17.5432110965909  52.4192780218254 18.1698500318182  51.8172269027778 18.8818029465909  C 51.4796474563492 18.4409897806818  50.7977753561508 18.4539851397727  49.772495828373 18.9203484011364  Z M 44.5302028492063 14.2441606897727  L 42.0486694136905 15.8281952988636  L 43.0125708382936 17.3239792465909  L 45.4941043343254 15.7399445772727  L 44.5302028492063 14.2441606897727  Z M 45.686943610119 16.0391307215909  L 43.2054101140873 17.6231653909091  L 44.1693853075397 19.1190226954545  L 46.6509188035714 17.5349880261364  L 45.686943610119 16.0391307215909  Z M 47.9140384206349 12.0841468340909  L 45.2633463571428 13.7761821931818  L 46.227247781746 15.2719660806818  L 48.8780136140873 13.5799307215909  L 47.9140384206349 12.0841468340909  Z M 49.0707791210317 13.8791168659091  L 46.4200870575397 15.571152225  L 47.3840623115079 17.0670095295455  L 50.0348281438492 15.3749741704545  L 49.0707791210317 13.8791168659091  Z M 42.7890424503968 26.2655702193182  L 42.8142724255952 26.6890563  L 40.6813841269841 26.5065343579545  L 40.802148453373 26.0793773045455  C 41.0379228938492 25.2454739193182  41.4852009156746 24.3557714113636  42.1326954007937 23.4317818181818  L 39.7673523809524 19.7613000636364  L 39.6829575496032 19.8151168659091  C 39.2207776755952 20.1101180579545  38.8206397638889 20.4325048920454  38.4933883799603 20.7733936045454  L 38.3600090962302 20.912304075  L 36.4136894791667 20.6076114113636  L 39.2652619861111 18.7873849522727  L 39.2863607242064 17.9031154863636  L 41.4527413511905 17.940559625  L 41.1160471914683 18.8888512840909  L 43.4762261498016 22.5511833852273  C 43.7758868948413 22.6148384329545  44.099523484127 22.6469963636364  44.4406440168651 22.6469963636364  C 44.5856054940476 22.6469963636364  44.7352882986111 22.6411961761364  44.8887334960318 22.6296692784091  C 44.3510113551587 21.7230801875  43.6181629831349 20.5494628829545  42.7078935694444 19.1370840113636  C 41.7381641636905 17.6324897170455  40.9765447906746 16.4920581818182  40.4442080178572 15.74736  L 40.0712181319444 15.2257115352273  L 41.9019374236111 15.0635268977273  L 43.8149121894841 13.842480375  C 43.4553487787698 13.6629687125  42.9410860396825 13.605040375  42.2901242371032 13.6703106579545  L 41.852879202381 13.7142157375  L 41.9075440376984 12.9765658931818  L 41.8895437728175 12.9880193738636  C 41.389961639881 13.3069554863636  40.9707168700397 13.6414566147727  40.6435392549603 13.98227185  L 40.5101599107143 14.1211823204545  L 38.5638403541667 13.8164897170455  L 45.0154733412698 9.69821993636363  L 45.2871746031746 8.73730006363636  L 48.2395930605159 9.28097454545454  L 47.3586110297619 9.77795391931818  C 46.9894573055556 9.98617279090909  46.3325938134921 10.6327819454545  45.2755924702381 12.5129191227273  C 45.3087159543651 12.5544747965909  45.3413968253968 12.6002154227273  45.3735613144841 12.6502143579545  C 45.4010044156746 12.6927979306818  45.4275622301587 12.7422095295455  45.4501363452381 12.7985959886364  L 47.2585027678571 11.64428815  L 47.3471764345238 10.7370382454545  L 49.3671202073413 10.7513551715909  L 49.1112060238095 11.6566226954545  L 52.4217124543651 16.793520375  C 52.7101599107143 17.1885194977273  52.9122207162698 17.795408525  52.4696640823413 18.5908398125  C 53.0450948571521 18.1685169100496  53.6133165983943 17.7365504219273  54.1740861418651 17.2951252034091  L 54.4935177857143 17.0439556738636  L 55.0015836994048 17.8325589352273  L 54.7928834553571 18.0415120375  C 54.3017850426587 18.5329849522727  54.1460528898809 18.9025807534091  54.3301133700397 19.1398739193182  L 54.5759945664683 19.4569011284091  L 54.2372347579365 19.6731227590909  C 52.4771150386905 20.7966677113636  50.9974754375 21.6934919136364  49.839554375 22.3387061443182  C 48.6648871180556 22.9921433852273  47.6345173581349 23.4422074602273  46.7768471914683 23.6766372409091  C 45.8909224662699 23.9180419420455  45.0776629017857 23.9675269579545  44.3560278184524 23.8236238875  C 44.0630065119048 23.7780300954545  43.8186745218254 23.7549028227273  43.6294500406746 23.7549028829545  C 43.3852655882937 23.7549028829545  43.3140758650794 23.7942559852273  43.3133381765873 23.7946230102273  C 43.3126004880952 23.7955774920455  43.1547289781746 23.9255307215909  42.9632913105159 24.7406386204545  C 42.8233463571429 25.3395982454545  42.7646978224206 25.8528034488636  42.7890424503968 26.2655702193182  Z M 42.2284511190476 24.6454129784091  C 41.9876602152778 25.0603823204545  41.794747110119 25.4636779306818  41.6512610704365 25.8526566147727  L 42.0497021775794 25.8867234488636  C 42.0647516279762 25.5177149840909  42.1239165446429 25.1075179306818  42.2284511190476 24.6454129784091  Z M 40.0065203095238 18.6497225715909  L 40.0036432638889 18.7682223204545  L 42.8666503660714 23.2106410647727  C 42.90110175 23.1842099045455  42.9385777777778 23.1606421295455  42.9792997559524 23.1398642625  L 40.3002793650794 18.9827552988636  L 40.4159534593254 18.6568443261364  L 40.0065203095238 18.6497225715909  Z M 53.5583873015873 19.2337779943182  C 53.5118373422619 19.0842216306818  53.496050203373 18.9122721647727  53.5319770248016 18.7176359886364  C 52.0303534593254 19.8485228863636  50.59969825 20.8201620693182  49.2663480257936 21.6144186840909  C 48.2797248878968 22.2021450795455  47.4465469474206 22.6351023204546  46.7532401914682 22.9192374284091  C 47.5198760277778 22.6886988715909  48.4359733621032 22.2783549840909  49.4796220595238 21.6978237  C 50.5627386041667 21.0943120375  51.9338599920635 20.2659885284091  53.5583873015873 19.2337779943182  Z M 46.7325841269841 18.3412855181818  L 44.8717659950397 19.5289260806818  L 46.3522170535714 21.8261617545455  L 45.886201078373 22.4533880261364  C 46.6229593809524 22.2263002511364  47.6286893769841 21.73424  48.8875301587301 20.9844024443182  C 49.7534627390873 20.4685541068182  50.6621829464286 19.8758351715909  51.6060184573413 19.2115317863636  L 51.5238367519841 19.1041184329546  C 51.4657784285714 19.0282756738636  51.3567437728175 18.9274700954546  51.0815751934524 18.9274701556818  C 50.7910620882936 18.9274701556818  50.4021375257936 19.0373797488636  49.9258672569444 19.2540418818182  L 49.6348377698413 19.3864179943182  L 49.1229357549603 18.5921613795455  L 49.4625807896825 18.4011227590909  C 50.0713451160714 18.0587657056818  50.5315331706349 17.7884336045455  50.8306037648809 17.5975418181818  C 50.9282037648809 17.5352083375  50.9472368541667 17.4951944818182  50.9488598898809 17.4914500318182  C 50.9481222013889 17.4913766147727  50.9450975575397 17.4670011920455  50.9134494503968 17.4178832613636  L 50.1164196378968 16.1811982454545  L 48.0866642450397 17.4768394977273  L 49.4670808710317 19.6188654545455  L 48.469096906746 21.0357963636364  L 46.7325841269841 18.3412855181818  Z M 41.6092849613095 15.8265066465909  L 41.4117980059524 15.8439072090909  C 41.9135195565476 16.570544075  42.5561451160714 17.5414490272727  43.3289777777778 18.7406164272727  C 44.1453357549603 20.0073302193182  44.8204946478175 21.0843268977273  45.3418394384921 21.9513426954545  L 45.4567757837302 21.7966468977273  L 41.6092849613095 15.8265066465909  Z M 44.8470524623016 14.0557652034091  L 46.9550796904762 17.3269159886364  L 48.4961711031746 19.7181291545455  L 48.5787954821429 19.6007307215909  L 44.9592592390873 13.9841073363636  L 44.8470524623016 14.0557652034091  Z M 45.5755482906746 16.5463154863636  L 43.715025234127 17.7339559886364  L 44.2807806269841 18.6118379306818  L 46.1413036835317 17.4241974284091  L 45.5755482906746 16.5463154863636  Z M 51.6586177043651 17.6907850795455  C 51.6031413511905 17.8871099079545  51.4657045992064 18.0588391227273  51.2503649166667 18.2015674602273  C 51.4547863859127 18.2220515988636  51.6206990029762 18.2788786204545  51.7545209603175 18.3526656420455  C 52.1292075902778 17.7753648886364  51.9799673988095 17.4338888397727  51.820620390873 17.2189152988636  L 51.806972609127 17.1992388079546  L 48.3113729345238 11.7751958613636  L 48.3952513839286 11.4785059568182  L 48.0162860396825 11.4757894659091  L 48.0051464593254 11.5898105340909  L 48.0252123730159 11.5769620693182  L 51.5340909851191 17.0215625715909  C 51.7143890724206 17.3014393102273  51.7013315019841 17.5399805659091  51.6586177043651 17.6907850795455  Z M 44.4188075297619 14.7514188715909  L 42.5582845337302 15.9390593738636  L 43.1239661577381 16.8168678988636  L 44.9844892142857 15.6292273363636  L 44.4188075297619 14.7514188715909  Z M 48.9594575704365 14.3863016306818  L 46.9297021775794 15.6819428829545  L 47.4954575704365 16.5598247647727  L 49.5252130238095 15.2641835727273  L 48.9594575704365 14.3863016306818  Z M 47.8027168700397 12.5914050159091  L 45.7729614771825 13.8870462079545  L 46.3386431011905 14.7648547329545  L 48.3683984940476 13.4692134806818  L 47.8027168700397 12.5914050159091  Z M 44.5722527876984 12.9099006261364  C 44.2813976720274 12.9282271443728  43.992031146696 12.9651849494591  43.7059513025794 13.0205443897727  C 44.0880888888889 13.1235525397727  44.4024302400794 13.2981450795455  44.6459507123016 13.5432207534091  L 44.7285012619048 13.3396273363636  C 44.7831660972222 13.2049018181818  44.7913548025794 13.1062254545455  44.7528459503968 13.0463882136364  C 44.6804758650794 12.9341291545455  44.6377620674603 12.9076245772727  44.6373932232143 12.9073309090909  L 44.6347374236111 12.9058625079545  L 44.5722527876984 12.9099006261364  Z M 44.2916250714286 12.1956716625  L 44.6955253154762 11.1968672090909  L 42.5115869761905 12.5909645136364  C 43.0717357549603 12.3868571772727  43.6681064305556 12.2544076477273  44.2916250714286 12.1956716625  Z M 46.3356184573413 9.67670789886364  L 46.1214591369048 9.63728137954545  L 45.8999226289683 10.1849939193182  C 46.0500481071429 9.99226664659091  46.195230890873 9.82288689772727  46.3356184573413 9.67670789886364  Z M 45.8504955634921 9.58735586136364  L 45.8152326617064 9.58089492045455  L 45.8051996746032 9.61628326136364  L 45.8504955634921 9.58735586136364  Z M 38.937420390873 17.5465884011364  C 38.8365543184693 17.6107956986865  38.7192793240555 17.6448165537654  38.5995458690476 17.6446040113636  C 38.3673124543651 17.6446040113636  38.1245296706349 17.5226535409091  37.8574022589286 17.2718510965909  C 37.5090521369048 16.95152  36.8732873829365 16.6297939795455  35.9706164632937 16.3182732295455  L 35.6422584861111 16.2049863318182  L 35.8493357549603 15.4725492784091  L 36.0842987380952 15.4368672090909  C 36.782105514881 15.3307020056818  37.3856320714286 15.2917894659091  37.8809354295635 15.3213776795455  C 38.4736175416667 15.3584547329545  38.882903093254 15.5469236363636  39.0986116200397 15.8817184329545  C 39.3021478025794 16.1974974920455  39.3674358363095 16.5317049522727  39.2925575496032 16.8750898443182  C 39.2123676636905 17.2382981818182  39.1062839434524 17.4388079625  38.937420390873 17.5465884011364  Z M 37.8357871388889 16.0541084011364  C 37.668251546627 16.0441233215909  37.4813139603175 16.0431688397727  37.2805073462302 16.0514652670455  C 37.7440151200397 16.2700363636364  38.1012916359127 16.4964633852273  38.3609680912698 16.7352249522727  C 38.4351086894841 16.8048270215909  38.4913965 16.8471169261364  38.5313807896826 16.8726670215909  C 38.5432580585318 16.8352963  38.5570533779762 16.7850770534091  38.5717339236111 16.7184117863636  C 38.6043410257937 16.5686351715909  38.5745372609127 16.4284031340909  38.4776011805556 16.2779657056818  C 38.3980752748016 16.1544734170455  38.1701206349206 16.074959625  37.8357871388889 16.0541084011364  Z " fill-rule="nonzero" fill="#f59a23" stroke="none" transform="matrix(1 0 0 1 530 1118 )" />
  </g>
</svg>