<?xml version="1.0" encoding="utf-8"?>
<svg version="1.1" xmlns:xlink="http://www.w3.org/1999/xlink" width="18px" height="18px" xmlns="http://www.w3.org/2000/svg">
  <g transform="matrix(1 0 0 1 -896 -1011 )">
    <path d="M 905 1013  C 908.92 1013  912 1016.08  912 1020  C 912 1023.92  908.92 1027  905 1027  C 901.08 1027  898 1023.92  898 1020  C 898 1016.08  901.08 1013  905 1013  Z " fill-rule="nonzero" fill="#d9001b" stroke="none" fill-opacity="0" />
    <path d="M 905 1012.5  C 909.2 1012.5  912.5 1015.8  912.5 1020  C 912.5 1024.2  909.2 1027.5  905 1027.5  C 900.8 1027.5  897.5 1024.2  897.5 1020  C 897.5 1015.8  900.8 1012.5  905 1012.5  Z " stroke-width="3" stroke="#ec808d" fill="none" />
  </g>
</svg>