<?xml version="1.0" encoding="utf-8"?>
<svg version="1.1" xmlns:xlink="http://www.w3.org/1999/xlink" width="28px" height="24px" xmlns="http://www.w3.org/2000/svg">
  <defs>
    <filter x="473px" y="1320px" width="28px" height="24px" filterUnits="userSpaceOnUse" id="filter292">
      <feOffset dx="0" dy="0" in="SourceAlpha" result="shadowOffsetInner" />
      <feGaussianBlur stdDeviation="2.5" in="shadowOffsetInner" result="shadowGaussian" />
      <feComposite in2="shadowGaussian" operator="atop" in="SourceAlpha" result="shadowComposite" />
      <feColorMatrix type="matrix" values="0 0 0 0 1  0 0 0 0 1  0 0 0 0 1  0 0 0 0.549019607843137 0  " in="shadowComposite" />
    </filter>
    <g id="widget293">
      <path d="M 17.8773054257812 2.10591416477273  C 17.8773054257812 1.02126991193182  17.0973737753906 0.138516  16.1388595722656 0.138516  L 1.8611224453125 0.138516  C 0.902626224609375 0.138516  0.122676591796875 1.02126991193182  0.12267657421875 2.10593450852273  L 0.12267657421875 11.8945335369318  C 0.12267657421875 12.9786080056818  0.902608224609375 13.8615247073864  1.8611224453125 13.8615247073864  L 16.1388595722656 13.8615247073864  C 17.0973737753906 13.8615247073864  17.8773054257812 12.9786080056818  17.8773054257812 11.8945335369318  L 17.8773054257812 2.10591416477273  Z M 1.91785586132812 1.40500605397727  L 16.1388595722656 1.40500605397727  C 16.2205959902344 1.40500605397727  16.2986089394531 1.42407381534091  16.3701822832031 1.45712188920454  L 9.17744932617187 7.82911183806818  L 1.91785586132812 1.40500605397727  Z M 16.1388775546875 12.5950142897727  L 2.13455450390625 12.5950142897727  L 6.94390814648438 8.75909763352273  C 7.11257944921875 8.62460581818182  7.15269216796875 8.36121836931818  7.03381100976562 8.17068320170455  C 6.9149298515625 7.98043292613636  6.68261782617187 7.93448309659091  6.51369468164062 8.06897491193182  L 1.31425831054688 12.2161824431818  C 1.2696666328125 12.1192360028409  1.24192949414062 12.0110768153409  1.24192949414062 11.8945131931818  L 1.24192949414062 2.10591416477273  C 1.24192949414062 2.03572771022727  1.25407123242188 1.96889896875  1.27115961328125 1.90457324431818  L 8.71752009375 8.4940008125  C 8.84874187547476 8.6103688785538  9.01069943979916 8.6735243618558  9.17743134375 8.67334357670454  C 9.33968100585938 8.67334357670454  9.50214654492187 8.61363727556818  9.63737857617188 8.4940008125  L 16.7580345410156 2.18590921022727  L 16.7580345410156 11.8945131931818  C 16.7580345410156 11.9085138494318  16.7548147382813 11.9216801732955  16.7543110722656 11.9356808295455  L 11.9063376914062 8.06897491193182  C 11.7376843710937 7.93448309659091  11.5051025390625 7.98043294602273  11.3864911875 8.17068320170455  C 11.2678438710937 8.36121836931818  11.3079925722656 8.62460579829546  11.4763940507812 8.75909763352273  L 16.266177 12.5798943892045  C 16.2250569667969 12.5894180880682  16.1826957597656 12.5950142897727  16.1388775546875 12.5950142897727  Z " fill-rule="nonzero" fill="#02a7f0" stroke="none" transform="matrix(1 0 0 1 478 1325 )" />
    </g>
  </defs>
  <g transform="matrix(1 0 0 1 -473 -1320 )">
    <use xlink:href="#widget293" filter="url(#filter292)" />
    <use xlink:href="#widget293" />
  </g>
</svg>