<?xml version="1.0" encoding="utf-8"?>
<svg version="1.1" xmlns:xlink="http://www.w3.org/1999/xlink" width="10px" height="58px" preserveAspectRatio="xMidYMin meet" viewBox="349 535  8 58" xmlns="http://www.w3.org/2000/svg">
  <defs>
    <mask fill="white" id="clip92">
      <path d="M 326 556  L 380 556  L 380 581  L 326 581  Z M 290 537  L 441 537  L 441 604  L 290 604  Z " fill-rule="evenodd" />
    </mask>
  </defs>
  <path d="M 290 540.5  L 348 540.5  A 5 5 0 0 1 353.5 545.5 L 353.5 583  A 5 5 0 0 0 358 588.5 L 379 588.5  A 3 3 0 0 1 382 585.5 A 3 3 0 0 1 385 588.5 L 424 588.5  " stroke-width="1" stroke-dasharray="9,4" stroke="#02a7f0" fill="none" mask="url(#clip92)" />
  <path d="M 418.3 594.5  L 425 588.5  L 418.3 582.5  L 420.6 588.5  L 418.3 594.5  Z " fill-rule="nonzero" fill="#02a7f0" stroke="none" mask="url(#clip92)" />
</svg>