<?xml version="1.0" encoding="utf-8"?>
<svg version="1.1" xmlns:xlink="http://www.w3.org/1999/xlink" width="32px" height="32px" preserveAspectRatio="xMinYMid meet" viewBox="408 363  32 30" xmlns="http://www.w3.org/2000/svg">
  <defs>
    <mask fill="white" id="clip98">
      <path d="M 326 442  L 380 442  L 380 467  L 326 467  Z M 290 362  L 441 362  L 441 543  L 290 543  Z " fill-rule="evenodd" />
    </mask>
  </defs>
  <path d="M 290 540.5  L 348 540.5  A 5 5 0 0 0 353.5 535.5 L 353.5 383  A 5 5 0 0 1 358 378.5 L 379 378.5  A 3 3 0 0 1 382 375.5 A 3 3 0 0 1 385 378.5 L 424 378.5  " stroke-width="1" stroke-dasharray="9,4" stroke="#f59a23" fill="none" mask="url(#clip98)" />
  <path d="M 418.3 384.5  L 425 378.5  L 418.3 372.5  L 420.6 378.5  L 418.3 384.5  Z " fill-rule="nonzero" fill="#f59a23" stroke="none" mask="url(#clip98)" />
</svg>