<?xml version="1.0" encoding="utf-8"?>
<svg version="1.1" xmlns:xlink="http://www.w3.org/1999/xlink" width="11px" height="11px" xmlns="http://www.w3.org/2000/svg">
  <g transform="matrix(1 0 0 1 -288 -208 )">
    <path d="M 6.2051 7.33333333691406  C 6.2051 6.5813  6.5813 6.2051  7.33333333691406 6.2051  L 9.87176666308594 6.2051  C 10.6238 6.2051  11 6.5813  11 7.33333333691406  L 11 9.87176666308594  C 11 10.6238  10.6238 11  9.87176666308594 11  L 7.33333333691406 11  C 6.5813 11  6.2051 10.6238  6.2051 9.87176666308594  L 6.2051 7.33333333691406  Z M 0 1.12823333691406  C 0 0.3762  0.3762 0  1.12823333691406 0  L 3.66666666308594 0  C 4.4187 0  4.7949 0.3762  4.7949 1.12823333691406  L 4.7949 3.66666666308594  C 4.7949 4.4187  4.4187 4.7949  3.66666666308594 4.7949  L 1.12823333691406 4.7949  C 0.3762 4.7949  0 4.4187  0 3.66666666308594  L 0 1.12823333691406  Z M 0 7.33333333691406  C 0 6.5813  0.3762 6.2051  1.12823333691406 6.2051  L 3.66666666308594 6.2051  C 4.4187 6.2051  4.7949 6.5813  4.7949 7.33333333691406  L 4.7949 9.87176666308594  C 4.7949 10.6238  4.4187 11  3.66666666308594 11  L 1.12823333691406 11  C 0.3762 11  0 10.6238  0 9.87176666308594  L 0 7.33333333691406  Z M 6.33196666308594 3.04626666308594  L 7.79863333691406 4.52686666308594  C 8.1653 4.89353332617188  8.74353333691406 4.89353332617188  9.1102 4.52686666308594  L 10.5768666630859 3.04626666308594  C 10.9435333261719 2.6796  10.9435333261719 2.10136666308594  10.5768666630859 1.7347  L 9.1102 0.268033336914064  C 8.75783333691406 -0.084699999999999  8.1653 -0.084699999999999  7.8122 0.268033336914064  L 6.33196666308594 1.7347  C 5.9653 2.10136666308594  5.9653 2.6796  6.33196666308594 3.04626666308594  Z " fill-rule="nonzero" fill="#02a7f0" stroke="none" fill-opacity="0.768627450980392" transform="matrix(1 0 0 1 288 208 )" />
  </g>
</svg>