<?xml version="1.0" encoding="utf-8"?>
<svg version="1.1" xmlns:xlink="http://www.w3.org/1999/xlink" width="300px" height="90px" xmlns="http://www.w3.org/2000/svg">
  <g transform="matrix(1 0 0 1 -415 -380 )">
    <path d="M 416 391  A 10 10 0 0 1 426 381 L 704 381  A 10 10 0 0 1 714 391 L 714 459  A 10 10 0 0 1 704 469 L 426 469  A 10 10 0 0 1 416 459 L 416 391  Z " fill-rule="nonzero" fill="#81d3f8" stroke="none" fill-opacity="0.658823529411765" />
    <path d="M 415.5 391  A 10.5 10.5 0 0 1 426 380.5 L 704 380.5  A 10.5 10.5 0 0 1 714.5 391 L 714.5 459  A 10.5 10.5 0 0 1 704 469.5 L 426 469.5  A 10.5 10.5 0 0 1 415.5 459 L 415.5 391  Z " stroke-width="1" stroke="#aaaaaa" fill="none" stroke-opacity="0.549019607843137" />
  </g>
</svg>