<?xml version="1.0" encoding="utf-8"?>
<svg version="1.1" xmlns:xlink="http://www.w3.org/1999/xlink" width="13px" height="13px" xmlns="http://www.w3.org/2000/svg">
  <g transform="matrix(1 0 0 1 -1069 -516 )">
    <path d="M 1075.5 516  C 1079.14 516  1082 518.86  1082 522.5  C 1082 526.14  1079.14 529  1075.5 529  C 1071.86 529  1069 526.14  1069 522.5  C 1069 518.86  1071.86 516  1075.5 516  Z " fill-rule="nonzero" fill="#ffffff" stroke="none" fill-opacity="0" />
    <path d="M 1075.5 516.5  C 1078.86 516.5  1081.5 519.14  1081.5 522.5  C 1081.5 525.86  1078.86 528.5  1075.5 528.5  C 1072.14 528.5  1069.5 525.86  1069.5 522.5  C 1069.5 519.14  1072.14 516.5  1075.5 516.5  Z " stroke-width="1" stroke="#d9001b" fill="none" />
  </g>
</svg>