<?xml version="1.0" encoding="utf-8"?>
<svg version="1.1" xmlns:xlink="http://www.w3.org/1999/xlink" width="20px" height="20px" xmlns="http://www.w3.org/2000/svg">
  <g transform="matrix(1 0 0 1 -80 -112 )">
    <path d="M 7 11.0000000070313  L 7 14.9999999882813  C 7 15.4999999800781  7.4000000078125 15.8999999875781  7.9 15.9999999953125  L 13 15.9999999953125  L 13 14.9999999882813  C 13 14.4999999964844  13.4000000078125 14.0999999889844  13.9 14.0000000046875  L 17.9999999921875 14.0000000046875  C 18.5999999921875 14.0000000046875  19 14.4000000121875  19 14.9999999882813  L 19 18.9999999929688  C 19 19.5999999925  18.5999999921875 20  17.9999999921875 20  L 14.0000000078125 20  C 13.4000000078125 20  13 19.5999999925  13 18.9999999929688  L 13 17.9999999859375  L 8.0000000078125 17.9999999859375  C 6.4 17.9999999859375  5.100000015625 16.799999986875  5.0000000078125 15.20000000375  L 5.0000000078125 5.9999999953125  L 2.0000000078125 5.9999999953125  C 1.500000015625 5.9999999953125  1.1000000078125 5.5999999878125  1 5.09999999601563  L 1 1.00000000703125  C 1 0.4000000075  1.4000000078125 0  2.0000000078125 0  L 10 0  C 10.6 0  11.0000000078125 0.4000000075  11.0000000078125 1.00000000703125  L 11.0000000078125 5.00000001171875  C 11.0000000078125 5.60000001125  10.6 6.00000001875  10 5.9999999953125  L 7 5.9999999953125  L 7 8.99999999296875  L 13 8.99999999296875  L 13 8.000000009375  C 13 7.50000001757813  13.4000000078125 7.10000001007813  13.9 7.00000000234375  L 17.9999999921875 7.00000000234375  C 18.5999999921875 7.00000000234375  19 7.40000000984375  19 8.000000009375  L 19 11.999999990625  C 19 12.5999999901562  18.5999999921875 12.9999999976562  17.9999999921875 12.9999999976562  L 14.0000000078125 12.9999999976562  C 13.4000000078125 12.9999999976562  13 12.5999999901562  13 11.999999990625  L 13 11.0000000070313  L 7 11.0000000070313  Z M 17.0000000078125 17.9999999859375  L 17.0000000078125 15.9999999953125  L 14.9999999921875 15.9999999953125  L 14.9999999921875 17.9999999859375  L 17.0000000078125 17.9999999859375  Z M 17.0000000078125 11.0000000070313  L 17.0000000078125 8.99999999296875  L 14.9999999921875 8.99999999296875  L 14.9999999921875 11.0000000070313  L 17.0000000078125 11.0000000070313  Z M 8.9999999921875 4.0000000046875  L 8.9999999921875 2.0000000140625  L 2.9999999921875 2.0000000140625  L 2.9999999921875 4.0000000046875  L 8.9999999921875 4.0000000046875  Z " fill-rule="nonzero" fill="#81d3f8" stroke="none" transform="matrix(1 0 0 1 80 112 )" />
  </g>
</svg>