<?xml version="1.0" encoding="utf-8"?>
<svg version="1.1" xmlns:xlink="http://www.w3.org/1999/xlink" width="35px" height="35px" xmlns="http://www.w3.org/2000/svg">
  <g transform="matrix(1 0 0 1 -129 -757 )">
    <path d="M 146.5 757  C 156.3 757  164 764.7  164 774.5  C 164 784.3  156.3 792  146.5 792  C 136.7 792  129 784.3  129 774.5  C 129 764.7  136.7 757  146.5 757  Z " fill-rule="nonzero" fill="#ffffff" stroke="none" fill-opacity="0.109803921568627" />
    <path d="M 146.5 757.5  C 156.02 757.5  163.5 764.98  163.5 774.5  C 163.5 784.02  156.02 791.5  146.5 791.5  C 136.98 791.5  129.5 784.02  129.5 774.5  C 129.5 764.98  136.98 757.5  146.5 757.5  Z " stroke-width="1" stroke="#ffffff" fill="none" />
  </g>
</svg>