<?xml version="1.0" encoding="utf-8"?>
<svg version="1.1" xmlns:xlink="http://www.w3.org/1999/xlink" width="15px" height="15px" xmlns="http://www.w3.org/2000/svg">
  <g transform="matrix(1 0 0 1 -19 -1428 )">
    <path d="M 7.5 15  C 3.35793104003906 15  0 11.6420689599609  0 7.5  C 0 3.35793104003906  3.35793104003906 0  7.5 0  C 11.6420689599609 0  15 3.35793104003906  15 7.5  C 15 11.6420689599609  11.6420689599609 15  7.5 15  Z M 6.14224138183594 10.3510344873047  C 6.33820018713761 10.5531036905493  6.65976993066342 10.561378534792  6.86586206542969 10.3696551708984  L 11.7806896582031 5.80034482910156  C 11.8848861034283 5.7025703259131  11.9439943808298 5.56604840488361  11.9439943808298 5.42316120226802  C 11.9439943808298 5.13749667509862  11.7124175261632 4.90591982043208  11.4267529989938 4.90591982043208  C 11.2969804732875 4.90591982043208  11.1719493227306 4.95470134051413  11.0764655126953 5.0425862109375  L 6.54827586914062 9.28396551269531  L 4.4224137890625 7.09189655273438  C 4.32480465767753 6.98956319459943  4.18955171854026 6.93165862574627  4.04813156892606 6.93165862574627  C 3.76246704175667 6.93165862574627  3.53089018709012 7.16323548041281  3.53089018709012 7.44890000758221  C 3.53089018709012 7.58486537044307  3.58442622401876 7.71536310087251  3.6799137890625 7.81215517089844  L 6.1425 10.3510344873047  Z " fill-rule="nonzero" fill="#69e147" stroke="none" transform="matrix(1 0 0 1 19 1428 )" />
  </g>
</svg>