<?xml version="1.0" encoding="utf-8"?>
<svg version="1.1" xmlns:xlink="http://www.w3.org/1999/xlink" width="16px" height="16px" xmlns="http://www.w3.org/2000/svg">
  <g transform="matrix(1 0 0 1 -638 -554 )">
    <path d="M 2.04061527777778 7.30307777142857  C 2.30813405555556 7.30307777142857  2.52467701851852 7.07986057142857  2.52467701851852 6.8052052  C 2.52467701851852 6.53006253333333  2.30813405555556 6.30682584761905  2.04061527777778 6.30682584761905  C 2.0355935 6.30682584761905  2.03153816666667 6.30967161904762  2.0269712037037 6.30967161904762  L 0.869630851851852 6.31245891428572  C 0.843233333333334 6.30873603809524  0.815926222222223 6.30682586666667  0.788638055555556 6.30682586666667  C 0.424246296296297 6.30682586666667  0.128984555555556 6.61428552380953  0.128984555555556 6.99472152380953  L 0.122636259259259 15.2485728571429  C 0.122636259259259 15.628560552381  0.418333851851852 15.9266252952381  0.783199351851852 15.9266252952381  C 0.818692925925926 15.9266252952381  0.853731685185185 15.9321998857143  0.887822944444445 15.9266252952381  L 2.01787514814815 15.9270541142857  C 2.01971331481482 15.9270541142857  2.02062290740741 15.9279702095238  2.02246107407407 15.9279702095238  C 2.02426133333333 15.9279702095238  2.02517094444444 15.9270541142857  2.02699014814815 15.9270541142857  L 2.04063422222222 15.9270541142857  L 2.04063422222222 15.924227847619  C 2.28903233333333 15.9139363047619  2.48831174074074 15.7066632  2.48831174074074 15.4487900380952  C 2.48831174074074 15.1905075619048  2.28905127777778 14.9832344380952  2.04063422222222 14.9729429142857  L 2.04063422222222 14.9654386666667  L 1.09712696296296 14.9654386666667  L 1.12397927777778 7.3030388  L 2.04061527777778 7.30303878095238  Z M 15.9643257962963 7.81408763809524  C 15.9933952962963 7.39897617142857  15.9033632962963 6.97037655238095  15.6763409259259 6.58949224761905  C 15.319244962963 5.99053651428572  14.7996896666667 5.74812015238095  14.1709817037037 5.72194299047619  C 14.138198 5.71724552380952  14.1054901111111 5.71445822857143  14.071342 5.71445822857143  L 10.2667653518519 5.70134041904762  C 10.5160730555556 4.95734807619048  10.6871167962963 4.07106746666667  10.6871167962963 3.23815468571429  C 10.6871167962963 2.69816087619048  10.6279734814815 2.17220099047619  10.5196735740741 1.66590805714286  L 10.510596462963 1.66684365714286  C 10.3135910740741 0.779627428571429  9.55251655555556 0.117986895238095  8.64084548148148 0.117986895238095  C 7.58039705555556 0.117986895238095  6.87295137037037 1.03514213333333  6.87295137037037 2.13943571428571  C 6.87295137037037 2.20118493333333  6.86749374074074 2.26110194285714  6.87295137037037 2.32099946666667  C 6.81746542592593 4.3855051047619  5.18332124074074 6.04573657142857  3.23894470370371 6.27363173333333  L 3.23894470370371 7.31900236190476  L 3.22439101851852 11.5519035809524  L 3.22439101851852 15.9279896952381  L 3.42272292592593 15.9279896952381  L 12.6824501666667 15.932219352381  L 12.8444167962963 15.9275803619048  C 13.2028771666667 15.9285159619048  13.4044116296296 15.835814152381  13.7296714074074 15.620608  C 14.0386151296296 15.4156348952381  14.2710951296296 15.1348786666667  14.4239467592593 14.817634247619  C 14.4658075555556 14.7539943428571  14.4985533703704 14.6828696952381  14.5185078333333 14.6042797714286  L 15.9447692777778 8.04572518095238  C 15.9643257962963 7.96851916190476  15.969745537037 7.88989026666667  15.9643257962963 7.81408763809524  Z M 15.0652944444444 7.59550940952381  L 15.0708468518519 7.59691283809524  L 13.5341062407407 14.6023111428571  L 13.5322680740741 14.6013755428571  C 13.4849496296296 14.7183638095238  13.4048664444444 14.822253752381  13.2938945740741 14.8952300952381  C 13.2165402037037 14.9471750666667  13.1314162962963 14.978108152381  13.0454775185185 14.9897835809524  C 13.0177345555556 14.9860607047619  12.9890630185185 14.9897835809524  12.9599177592593 14.9897835809524  L 4.12605644444445 14.9794920380952  L 4.12287283333333 7.21932257142857  C 5.77700940740741 6.4523496952381  6.99030944444444 5.70178872380952  7.61539794444445 3.91149015238095  C 7.61674340740741 3.91195794285714  7.61770985185185 3.91242575238095  7.61901740740741 3.91287405714286  C 7.67456018518519 3.73883403809524  7.73593961111111 3.51793634285714  7.78007442592593 3.28117251428572  C 7.8828787962963 2.72525411428571  7.87745907407407 2.17405266666667  7.87745907407407 2.17405266666667  C 7.78602477777778 1.45062390476191  8.35784448148148 1.1651896952381  8.69902235185185 1.1651896952381  C 9.1676207962963 1.1815820952381  9.62983303703704 1.80626666666667  9.62983303703704 2.16188992380952  C 9.62983303703704 2.16188992380952  9.73354701851852 2.68691422857143  9.73445662962963 3.25123348571429  C 9.73534727777778 3.96296731428571  9.64802514814815 4.33404737142857  9.64802514814815 4.33404737142857  L 9.63938388888889 4.33404737142857  C 9.53062918518519 4.92222428571429  9.33911931481482 5.47954607619048  9.07522001851852 5.99051697142857  L 9.08204205555556 5.99704664761905  C 9.03836203703704 6.08877386666667  9.01334788888889 6.19172820952381  9.01334788888889 6.30072495238095  C 9.01334788888889 6.68020586666667  9.36684333333334 6.71486184761905  9.73123509259259 6.71486184761905  L 14.1527516666667 6.72000761904762  C 14.1527516666667 6.72000761904762  14.4243447037037 6.72887626666667  14.4247995185185 6.72887626666667  L 14.4247995185185 6.73078643809524  C 14.6494720740741 6.71862371428571  14.8733487407407 6.82997891428571  15.0007314074074 7.04335287619048  C 15.1026640740741 7.21509289523809  15.1199465740741 7.41677192380952  15.0652944444444 7.59550940952381  Z M 3.41770116666667 15.9294125904762  C 3.41544611111111 15.9303481714286  3.41726531481482 15.9303481714286  3.42272294444444 15.9298803809524  C 3.42863538888889 15.9303481714286  3.43089044444444 15.9303481714286  3.42819951851852 15.9294125904762  C 3.43270964814815 15.9284964952381  3.43500261111111 15.9279897142857  3.42272294444444 15.9279897142857  C 3.41044327777778 15.9279897142857  3.41273624074074 15.9284964952381  3.41770116666667 15.9294125904762  Z " fill-rule="nonzero" fill="#69e147" stroke="none" transform="matrix(1 0 0 1 638 554 )" />
  </g>
</svg>