<?xml version="1.0" encoding="utf-8"?>
<svg version="1.1" xmlns:xlink="http://www.w3.org/1999/xlink" width="16px" height="16px" xmlns="http://www.w3.org/2000/svg">
  <g transform="matrix(1 0 0 1 -767 -557 )">
    <path d="M 2.04061527777778 8.69692222857143  C 2.30813405555556 8.69692222857143  2.52467701851852 8.92013942857143  2.52467701851852 9.1947948  C 2.52467701851852 9.46993746666667  2.30813405555556 9.69317415238095  2.04061527777778 9.69317415238095  C 2.0355935 9.69317415238095  2.03153816666667 9.69032838095238  2.0269712037037 9.69032838095238  L 0.869630851851852 9.68754108571429  C 0.843233333333334 9.69126396190476  0.815926222222223 9.69317413333333  0.788638055555556 9.69317413333333  C 0.424246296296297 9.69317413333333  0.128984555555556 9.38571447619048  0.128984555555556 9.00527847619047  L 0.122636259259259 0.751427142857143  C 0.122636259259259 0.371439447619048  0.418333851851852 0.0733747047619051  0.783199351851852 0.0733747047619051  C 0.818692925925926 0.0733747047619051  0.853731685185185 0.0678001142857134  0.887822944444445 0.0733747047619051  L 2.01787514814815 0.0729458857142848  C 2.01971331481482 0.0729458857142848  2.02062290740741 0.07202979047619  2.02246107407407 0.07202979047619  C 2.02426133333333 0.07202979047619  2.02517094444444 0.0729458857142848  2.02699014814815 0.0729458857142848  L 2.04063422222222 0.0729458857142848  L 2.04063422222222 0.0757721523809511  C 2.28903233333333 0.086063695238094  2.48831174074074 0.293336799999999  2.48831174074074 0.55120996190476  C 2.48831174074074 0.809492438095237  2.28905127777778 1.01676556190476  2.04063422222222 1.02705708571428  L 2.04063422222222 1.03456133333333  L 1.09712696296296 1.03456133333333  L 1.12397927777778 8.6969612  L 2.04061527777778 8.69696121904762  Z M 15.9643257962963 8.18591236190476  C 15.9933952962963 8.60102382857143  15.9033632962963 9.02962344761905  15.6763409259259 9.41050775238095  C 15.319244962963 10.0094634857143  14.7996896666667 10.251879847619  14.1709817037037 10.2780570095238  C 14.138198 10.2827544761905  14.1054901111111 10.2855417714286  14.071342 10.2855417714286  L 10.2667653518519 10.2986595809524  C 10.5160730555556 11.0426519238095  10.6871167962963 11.9289325333333  10.6871167962963 12.7618453142857  C 10.6871167962963 13.3018391238095  10.6279734814815 13.8277990095238  10.5196735740741 14.3340919428571  L 10.510596462963 14.3331563428571  C 10.3135910740741 15.2203725714286  9.55251655555556 15.8820131047619  8.64084548148148 15.8820131047619  C 7.58039705555556 15.8820131047619  6.87295137037037 14.9648578666667  6.87295137037037 13.8605642857143  C 6.87295137037037 13.7988150666667  6.86749374074074 13.7388980571429  6.87295137037037 13.6790005333333  C 6.81746542592593 11.6144948952381  5.18332124074074 9.95426342857143  3.23894470370371 9.72636826666667  L 3.23894470370371 8.68099763809524  L 3.22439101851852 4.44809641904762  L 3.22439101851852 0.0720103047619034  L 3.42272292592593 0.0720103047619034  L 12.6824501666667 0.0677806476190472  L 12.8444167962963 0.0724196380952389  C 13.2028771666667 0.0714840380952388  13.4044116296296 0.164185847619049  13.7296714074074 0.379392000000001  C 14.0386151296296 0.584365104761904  14.2710951296296 0.865121333333335  14.4239467592593 1.18236575238095  C 14.4658075555556 1.24600565714286  14.4985533703704 1.31713030476191  14.5185078333333 1.39572022857143  L 15.9447692777778 7.95427481904762  C 15.9643257962963 8.03148083809524  15.969745537037 8.11010973333333  15.9643257962963 8.18591236190476  Z M 15.0652944444444 8.40449059047619  L 15.0708468518519 8.40308716190476  L 13.5341062407407 1.39768885714286  L 13.5322680740741 1.39862445714286  C 13.4849496296296 1.28163619047619  13.4048664444444 1.17774624761905  13.2938945740741 1.1047699047619  C 13.2165402037037 1.05282493333333  13.1314162962963 1.02189184761905  13.0454775185185 1.01021641904762  C 13.0177345555556 1.0139392952381  12.9890630185185 1.01021641904762  12.9599177592593 1.01021641904762  L 4.12605644444445 1.02050796190476  L 4.12287283333333 8.78067742857143  C 5.77700940740741 9.5476503047619  6.99030944444444 10.2982112761905  7.61539794444445 12.088509847619  C 7.61674340740741 12.0880420571429  7.61770985185185 12.087574247619  7.61901740740741 12.0871259428571  C 7.67456018518519 12.2611659619048  7.73593961111111 12.4820636571429  7.78007442592593 12.7188274857143  C 7.8828787962963 13.2747458857143  7.87745907407407 13.8259473333333  7.87745907407407 13.8259473333333  C 7.78602477777778 14.5493760952381  8.35784448148148 14.8348103047619  8.69902235185185 14.8348103047619  C 9.1676207962963 14.8184179047619  9.62983303703704 14.1937333333333  9.62983303703704 13.8381100761905  C 9.62983303703704 13.8381100761905  9.73354701851852 13.3130857714286  9.73445662962963 12.7487665142857  C 9.73534727777778 12.0370326857143  9.64802514814815 11.6659526285714  9.64802514814815 11.6659526285714  L 9.63938388888889 11.6659526285714  C 9.53062918518519 11.0777757142857  9.33911931481482 10.5204539238095  9.07522001851852 10.0094830285714  L 9.08204205555556 10.002953352381  C 9.03836203703704 9.91122613333333  9.01334788888889 9.80827179047619  9.01334788888889 9.69927504761905  C 9.01334788888889 9.31979413333333  9.36684333333334 9.28513815238095  9.73123509259259 9.28513815238095  L 14.1527516666667 9.27999238095238  C 14.1527516666667 9.27999238095238  14.4243447037037 9.27112373333333  14.4247995185185 9.27112373333333  L 14.4247995185185 9.26921356190476  C 14.6494720740741 9.28137628571429  14.8733487407407 9.17002108571429  15.0007314074074 8.95664712380952  C 15.1026640740741 8.78490710476191  15.1199465740741 8.58322807619048  15.0652944444444 8.40449059047619  Z M 3.41770116666667 0.0705874095238084  C 3.41544611111111 0.0696518285714269  3.41726531481482 0.0696518285714269  3.42272294444444 0.0701196190476185  C 3.42863538888889 0.0696518285714305  3.43089044444444 0.0696518285714305  3.42819951851852 0.0705874095238084  C 3.43270964814815 0.0715035047619033  3.43500261111111 0.0720102857142848  3.42272294444444 0.0720102857142848  C 3.41044327777778 0.0720102857142848  3.41273624074074 0.0715035047619033  3.41770116666667 0.0705874095238084  Z " fill-rule="nonzero" fill="#ffffff" stroke="none" transform="matrix(1 0 0 1 767 557 )" />
  </g>
</svg>