<?xml version="1.0" encoding="utf-8"?>
<svg version="1.1" xmlns:xlink="http://www.w3.org/1999/xlink" width="42px" height="42px" xmlns="http://www.w3.org/2000/svg">
  <defs>
    <mask fill="white" id="clip650">
      <path d="M 828 1845  C 825.225 1845  823 1842.775  823 1840  L 823 1808  C 823 1805.225  825.225 1803  828 1803  L 860 1803  C 862.775 1803  865 1805.225  865 1808  L 865 1840  C 865 1842.775  862.775 1845  860 1845  " fill-rule="evenodd" />
    </mask>
  </defs>
  <g transform="matrix(1 0 0 1 -823 -1803 )">
    <path d="M 823 1803  L 865 1803  L 865 1845  L 823 1845  L 823 1803  " fill-rule="nonzero" fill="#cccccc" stroke="none" mask="url(#clip650)" />
    <path d="M 826 1806  L 862 1806  L 862 1842  L 826 1842  L 826 1806  " fill-rule="nonzero" fill="#ffffff" stroke="none" mask="url(#clip650)" />
    <path d="M 847.99 1815.6  C 846.226 1815.6  844.84 1814.214  844.84 1812.45  C 844.84 1810.686  846.226 1809.3  847.99 1809.3  C 849.754 1809.3  851.14 1810.686  851.14 1812.45  C 851.14 1814.214  849.754 1815.6  847.99 1815.6  " fill-rule="nonzero" fill="#cccccc" stroke="none" mask="url(#clip650)" />
    <path d="M 827 1841  L 827 1822.3  L 835.5 1813.8  L 847.4 1820.6  L 854.2 1818.9  L 861 1820.6  L 861 1841  L 827 1841  " fill-rule="nonzero" fill="#169bd5" stroke="none" mask="url(#clip650)" />
  </g>
</svg>