<?xml version="1.0" encoding="utf-8"?>
<svg version="1.1" xmlns:xlink="http://www.w3.org/1999/xlink" width="320px" height="422px" xmlns="http://www.w3.org/2000/svg">
  <g transform="matrix(1 0 0 1 -805 -2054 )">
    <path d="M 805 2054  L 1125 2054  L 1125 2476  L 805 2476  L 805 2054  " fill-rule="nonzero" fill="#cccccc" stroke="none" />
    <path d="M 827 2076  L 1103 2076  L 1103 2454  L 827 2454  L 827 2076  " fill-rule="nonzero" fill="#ffffff" stroke="none" />
    <path d="M 995.4 2165.3  C 981.96 2165.3  971.4 2154.74  971.4 2141.3  C 971.4 2127.86  981.96 2117.3  995.4 2117.3  C 1008.84 2117.3  1019.4 2127.86  1019.4 2141.3  C 1019.4 2154.74  1008.84 2165.3  995.4 2165.3  " fill-rule="nonzero" fill="#cccccc" stroke="none" />
    <path d="M 835 2446  L 835 2246.9  L 900 2156.4  L 991 2228.8  L 1043 2210.7  L 1095 2228.8  L 1095 2446  L 835 2446  " fill-rule="nonzero" fill="#169bd5" stroke="none" />
  </g>
</svg>