<?xml version="1.0" encoding="utf-8"?>
<svg version="1.1" xmlns:xlink="http://www.w3.org/1999/xlink" width="47px" height="47px" xmlns="http://www.w3.org/2000/svg">
  <g transform="matrix(1 0 0 1 -1552 -109 )">
    <path d="M 1575.5 109  C 1588.66 109  1599 119.34  1599 132.5  C 1599 145.66  1588.66 156  1575.5 156  C 1562.34 156  1552 145.66  1552 132.5  C 1552 119.34  1562.34 109  1575.5 109  Z " fill-rule="nonzero" fill="#81d3f8" stroke="none" fill-opacity="0.549019607843137" />
    <path d="M 1575.5 109.5  C 1588.38 109.5  1598.5 119.62  1598.5 132.5  C 1598.5 145.38  1588.38 155.5  1575.5 155.5  C 1562.62 155.5  1552.5 145.38  1552.5 132.5  C 1552.5 119.62  1562.62 109.5  1575.5 109.5  Z " stroke-width="1" stroke="#81d3f8" fill="none" />
  </g>
</svg>