<?xml version="1.0" encoding="utf-8"?>
<svg version="1.1" xmlns:xlink="http://www.w3.org/1999/xlink" width="191px" height="191px" xmlns="http://www.w3.org/2000/svg">
  <g transform="matrix(1 0 0 1 -301 -223 )">
    <path d="M 396.5 226  C 448.3 226  489 266.7  489 318.5  C 489 370.3  448.3 411  396.5 411  C 344.7 411  304 370.3  304 318.5  C 304 266.7  344.7 226  396.5 226  Z " fill-rule="nonzero" fill="#9ac6fb" stroke="none" />
    <path d="M 396.5 225  C 448.86 225  490 266.14  490 318.5  C 490 370.86  448.86 412  396.5 412  C 344.14 412  303 370.86  303 318.5  C 303 266.14  344.14 225  396.5 225  Z " stroke-width="4" stroke="#ffffff" fill="none" />
  </g>
</svg>