<?xml version="1.0" encoding="utf-8"?>
<svg version="1.1" xmlns:xlink="http://www.w3.org/1999/xlink" width="191px" height="191px" xmlns="http://www.w3.org/2000/svg">
  <g transform="matrix(1 0 0 1 -64 -544 )">
    <path d="M 159.5 547  C 211.3 547  252 587.7  252 639.5  C 252 691.3  211.3 732  159.5 732  C 107.7 732  67 691.3  67 639.5  C 67 587.7  107.7 547  159.5 547  Z " fill-rule="nonzero" fill="#7c8ffd" stroke="none" />
    <path d="M 159.5 546  C 211.86 546  253 587.14  253 639.5  C 253 691.86  211.86 733  159.5 733  C 107.14 733  66 691.86  66 639.5  C 66 587.14  107.14 546  159.5 546  Z " stroke-width="4" stroke="#ffffff" fill="none" />
  </g>
</svg>