<?xml version="1.0" encoding="utf-8"?>
<svg version="1.1" xmlns:xlink="http://www.w3.org/1999/xlink" width="191px" height="191px" xmlns="http://www.w3.org/2000/svg">
  <g transform="matrix(1 0 0 1 -846 -544 )">
    <path d="M 941.5 547  C 993.3 547  1034 587.7  1034 639.5  C 1034 691.3  993.3 732  941.5 732  C 889.7 732  849 691.3  849 639.5  C 849 587.7  889.7 547  941.5 547  Z " fill-rule="nonzero" fill="#81d3f8" stroke="none" />
    <path d="M 941.5 546  C 993.86 546  1035 587.14  1035 639.5  C 1035 691.86  993.86 733  941.5 733  C 889.14 733  848 691.86  848 639.5  C 848 587.14  889.14 546  941.5 546  Z " stroke-width="4" stroke="#ffffff" fill="none" />
  </g>
</svg>