<?xml version="1.0" encoding="utf-8"?>
<svg version="1.1" xmlns:xlink="http://www.w3.org/1999/xlink" width="191px" height="191px" xmlns="http://www.w3.org/2000/svg">
  <g transform="matrix(1 0 0 1 -2205 -223 )">
    <path d="M 2300.5 226  C 2352.3 226  2393 266.7  2393 318.5  C 2393 370.3  2352.3 411  2300.5 411  C 2248.7 411  2208 370.3  2208 318.5  C 2208 266.7  2248.7 226  2300.5 226  Z " fill-rule="nonzero" fill="#ffffff" stroke="none" />
    <path d="M 2300.5 225  C 2352.86 225  2394 266.14  2394 318.5  C 2394 370.86  2352.86 412  2300.5 412  C 2248.14 412  2207 370.86  2207 318.5  C 2207 266.14  2248.14 225  2300.5 225  Z " stroke-width="4" stroke="#9ac6fb" fill="none" />
  </g>
</svg>