<?xml version="1.0" encoding="utf-8"?>
<svg version="1.1" xmlns:xlink="http://www.w3.org/1999/xlink" width="15px" height="15px" xmlns="http://www.w3.org/2000/svg">
  <defs>
    <mask fill="white" id="clip226">
      <path d="M 14.9580047070313 7.5  C 14.9579847070312 3.39052025390625  11.6147191601562 0.0472347070312495  7.5052394140625 0.0472347070312501  C 3.39575966796875 0.0472347070312501  0.0524741210937485 3.39050025390625  0.0524741210937485 7.5  C 0.0524741210937485 11.6094797460938  3.39575966796875 14.9527452929687  7.5052394140625 14.9527452929687  C 11.6147191601562 14.9527452929687  14.9580047070313 11.6094597460937  14.9580047070313 7.5  Z M 14.2593029492187 7.5  C 14.2593029492187 11.224182890625  11.2294223046875 14.2540635351563  7.5052394140625 14.2540635351563  C 3.7810565234375 14.2540635351563  0.751175878906249 11.2242028710937  0.751175859374998 7.5  C 0.751175839843747 3.77579712890625  3.7810365234375 0.745936464843751  7.5052394140625 0.745936464843751  C 11.2294423046875 0.745936464843751  14.2593029492187 3.77579712890625  14.2593029492187 7.5  Z M 7.90335482421875 7.4738029296875  L 10.2418329101562 9.812301015625  C 10.3782576367188 9.94876572265625  10.3782576367188 10.1699209570313  10.2418329101562 10.3063856835938  C 10.1763655734675 10.3719874240077  10.0874604022101 10.4088045552284  9.9947805859375 10.40869421875  C 9.90539060546875 10.40869421875  9.81596060546875 10.374578046875  9.74772826171875 10.3063856835938  L 7.40925015625 7.96788759765625  L 5.0024797265625 10.374658046875  C 4.93701238509567 10.4402597920891  4.84810720585176 10.4770769237066  4.7554273828125 10.4769665820313  C 4.66603740234375 10.4769665820313  4.57660740234375 10.4428504101563  4.50837505859375 10.374658046875  C 4.37195033203125 10.2381933398438  4.37195033203125 10.0170381054687  4.50837505859375 9.88057337890625  L 6.9151455078125 7.4738029296875  L 4.67547634765625 5.2340937890625  C 4.53905162109375 5.09762908203125  4.53905162109375 4.87647384765625  4.67547634765625 4.74000912109375  C 4.8119410546875 4.60364439453125  5.0330962890625 4.60364439453125  5.169561015625 4.74000912109375  L 7.40925015625 6.97969828125  L 9.681875625 4.7070728125  C 9.81834033203125 4.5707080859375  10.0394955664063 4.5707080859375  10.1759602929687 4.7070728125  C 10.3123850195313 4.84353751953125  10.3123850195313 5.06469275390625  10.1759602929687 5.2011574609375  L 7.90335482421875 7.4738029296875  Z " fill-rule="evenodd" />
    </mask>
  </defs>
  <g transform="matrix(1 0 0 1 -836 -245 )">
    <path d="M 14.9580047070313 7.5  C 14.9579847070312 3.39052025390625  11.6147191601562 0.0472347070312495  7.5052394140625 0.0472347070312501  C 3.39575966796875 0.0472347070312501  0.0524741210937485 3.39050025390625  0.0524741210937485 7.5  C 0.0524741210937485 11.6094797460938  3.39575966796875 14.9527452929687  7.5052394140625 14.9527452929687  C 11.6147191601562 14.9527452929687  14.9580047070313 11.6094597460937  14.9580047070313 7.5  Z M 14.2593029492187 7.5  C 14.2593029492187 11.224182890625  11.2294223046875 14.2540635351563  7.5052394140625 14.2540635351563  C 3.7810565234375 14.2540635351563  0.751175878906249 11.2242028710937  0.751175859374998 7.5  C 0.751175839843747 3.77579712890625  3.7810365234375 0.745936464843751  7.5052394140625 0.745936464843751  C 11.2294423046875 0.745936464843751  14.2593029492187 3.77579712890625  14.2593029492187 7.5  Z M 7.90335482421875 7.4738029296875  L 10.2418329101562 9.812301015625  C 10.3782576367188 9.94876572265625  10.3782576367188 10.1699209570313  10.2418329101562 10.3063856835938  C 10.1763655734675 10.3719874240077  10.0874604022101 10.4088045552284  9.9947805859375 10.40869421875  C 9.90539060546875 10.40869421875  9.81596060546875 10.374578046875  9.74772826171875 10.3063856835938  L 7.40925015625 7.96788759765625  L 5.0024797265625 10.374658046875  C 4.93701238509567 10.4402597920891  4.84810720585176 10.4770769237066  4.7554273828125 10.4769665820313  C 4.66603740234375 10.4769665820313  4.57660740234375 10.4428504101563  4.50837505859375 10.374658046875  C 4.37195033203125 10.2381933398438  4.37195033203125 10.0170381054687  4.50837505859375 9.88057337890625  L 6.9151455078125 7.4738029296875  L 4.67547634765625 5.2340937890625  C 4.53905162109375 5.09762908203125  4.53905162109375 4.87647384765625  4.67547634765625 4.74000912109375  C 4.8119410546875 4.60364439453125  5.0330962890625 4.60364439453125  5.169561015625 4.74000912109375  L 7.40925015625 6.97969828125  L 9.681875625 4.7070728125  C 9.81834033203125 4.5707080859375  10.0394955664063 4.5707080859375  10.1759602929687 4.7070728125  C 10.3123850195313 4.84353751953125  10.3123850195313 5.06469275390625  10.1759602929687 5.2011574609375  L 7.90335482421875 7.4738029296875  Z " fill-rule="nonzero" fill="#ffffff" stroke="none" fill-opacity="0.329411764705882" transform="matrix(1 0 0 1 836 245 )" />
    <path d="M 14.9580047070313 7.5  C 14.9579847070312 3.39052025390625  11.6147191601562 0.0472347070312495  7.5052394140625 0.0472347070312501  C 3.39575966796875 0.0472347070312501  0.0524741210937485 3.39050025390625  0.0524741210937485 7.5  C 0.0524741210937485 11.6094797460938  3.39575966796875 14.9527452929687  7.5052394140625 14.9527452929687  C 11.6147191601562 14.9527452929687  14.9580047070313 11.6094597460937  14.9580047070313 7.5  Z " stroke-width="2" stroke="#ec808d" fill="none" transform="matrix(1 0 0 1 836 245 )" mask="url(#clip226)" />
    <path d="M 14.2593029492187 7.5  C 14.2593029492187 11.224182890625  11.2294223046875 14.2540635351563  7.5052394140625 14.2540635351563  C 3.7810565234375 14.2540635351563  0.751175878906249 11.2242028710937  0.751175859374998 7.5  C 0.751175839843747 3.77579712890625  3.7810365234375 0.745936464843751  7.5052394140625 0.745936464843751  C 11.2294423046875 0.745936464843751  14.2593029492187 3.77579712890625  14.2593029492187 7.5  Z " stroke-width="2" stroke="#ec808d" fill="none" transform="matrix(1 0 0 1 836 245 )" mask="url(#clip226)" />
    <path d="M 7.90335482421875 7.4738029296875  L 10.2418329101562 9.812301015625  C 10.3782576367188 9.94876572265625  10.3782576367188 10.1699209570313  10.2418329101562 10.3063856835938  C 10.1763655734675 10.3719874240077  10.0874604022101 10.4088045552284  9.9947805859375 10.40869421875  C 9.90539060546875 10.40869421875  9.81596060546875 10.374578046875  9.74772826171875 10.3063856835938  L 7.40925015625 7.96788759765625  L 5.0024797265625 10.374658046875  C 4.93701238509567 10.4402597920891  4.84810720585176 10.4770769237066  4.7554273828125 10.4769665820313  C 4.66603740234375 10.4769665820313  4.57660740234375 10.4428504101563  4.50837505859375 10.374658046875  C 4.37195033203125 10.2381933398438  4.37195033203125 10.0170381054687  4.50837505859375 9.88057337890625  L 6.9151455078125 7.4738029296875  L 4.67547634765625 5.2340937890625  C 4.53905162109375 5.09762908203125  4.53905162109375 4.87647384765625  4.67547634765625 4.74000912109375  C 4.8119410546875 4.60364439453125  5.0330962890625 4.60364439453125  5.169561015625 4.74000912109375  L 7.40925015625 6.97969828125  L 9.681875625 4.7070728125  C 9.81834033203125 4.5707080859375  10.0394955664063 4.5707080859375  10.1759602929687 4.7070728125  C 10.3123850195313 4.84353751953125  10.3123850195313 5.06469275390625  10.1759602929687 5.2011574609375  L 7.90335482421875 7.4738029296875  Z " stroke-width="2" stroke="#ec808d" fill="none" transform="matrix(1 0 0 1 836 245 )" mask="url(#clip226)" />
  </g>
</svg>