<?xml version="1.0" encoding="utf-8"?>
<svg version="1.1" xmlns:xlink="http://www.w3.org/1999/xlink" width="20px" height="20px" xmlns="http://www.w3.org/2000/svg">
  <g transform="matrix(1 0 0 1 -818 -659 )">
    <path d="M 828 659  C 833.6 659  838 663.4  838 669  C 838 674.6  833.6 679  828 679  C 822.4 679  818 674.6  818 669  C 818 663.4  822.4 659  828 659  Z " fill-rule="nonzero" fill="#ffffff" stroke="none" fill-opacity="0" />
    <path d="M 828 659.5  C 833.32 659.5  837.5 663.68  837.5 669  C 837.5 674.32  833.32 678.5  828 678.5  C 822.68 678.5  818.5 674.32  818.5 669  C 818.5 663.68  822.68 659.5  828 659.5  Z " stroke-width="1" stroke="#d7d7d7" fill="none" />
  </g>
</svg>