<?xml version="1.0" encoding="utf-8"?>
<svg version="1.1" xmlns:xlink="http://www.w3.org/1999/xlink" width="44px" height="44px" xmlns="http://www.w3.org/2000/svg">
  <g transform="matrix(1 0 0 1 -1445 -647 )">
    <path d="M 1467 647  C 1479.32 647  1489 656.68  1489 669  C 1489 681.32  1479.32 691  1467 691  C 1454.68 691  1445 681.32  1445 669  C 1445 656.68  1454.68 647  1467 647  Z " fill-rule="nonzero" fill="#ffffff" stroke="none" />
    <path d="M 1467 647.5  C 1479.04 647.5  1488.5 656.96  1488.5 669  C 1488.5 681.04  1479.04 690.5  1467 690.5  C 1454.96 690.5  1445.5 681.04  1445.5 669  C 1445.5 656.96  1454.96 647.5  1467 647.5  Z " stroke-width="1" stroke="#d7d7d7" fill="none" />
  </g>
</svg>