<?xml version="1.0" encoding="utf-8"?>
<svg version="1.1" xmlns:xlink="http://www.w3.org/1999/xlink" width="20px" height="20px" xmlns="http://www.w3.org/2000/svg">
  <g transform="matrix(1 0 0 1 -191 -126 )">
    <path d="M 201 126  C 206.6 126  211 130.4  211 136  C 211 141.6  206.6 146  201 146  C 195.4 146  191 141.6  191 136  C 191 130.4  195.4 126  201 126  Z " fill-rule="nonzero" fill="#d9001b" stroke="none" />
    <path d="M 201 126.5  C 206.32 126.5  210.5 130.68  210.5 136  C 210.5 141.32  206.32 145.5  201 145.5  C 195.68 145.5  191.5 141.32  191.5 136  C 191.5 130.68  195.68 126.5  201 126.5  Z " stroke-width="1" stroke="#d7d7d7" fill="none" />
  </g>
</svg>