<?xml version="1.0" encoding="utf-8"?>
<svg version="1.1" xmlns:xlink="http://www.w3.org/1999/xlink" width="13px" height="10px" xmlns="http://www.w3.org/2000/svg">
  <g transform="matrix(1 0 0 1 -377 -95 )">
    <path d="M 2.37946428571429 7.67045454545455  C 2.65029761904762 7.93560606060606  2.78571428571429 8.25757575757576  2.78571428571429 8.63636363636364  C 2.78571428571429 9.01515151515152  2.65029761904762 9.33712121212121  2.37946428571429 9.60227272727273  C 2.10863095238095 9.86742424242424  1.7797619047619 10  1.39285714285714 10  C 1.00595238095238 10  0.677083333333333 9.86742424242424  0.40625 9.60227272727273  C 0.135416666666667 9.33712121212121  0 9.01515151515152  0 8.63636363636364  C 0 8.25757575757576  0.135416666666667 7.93560606060606  0.40625 7.67045454545455  C 0.677083333333333 7.40530303030303  1.00595238095238 7.27272727272727  1.39285714285714 7.27272727272727  C 1.7797619047619 7.27272727272727  2.10863095238095 7.40530303030303  2.37946428571429 7.67045454545455  Z M 2.37946428571429 4.03409090909091  C 2.65029761904762 4.29924242424242  2.78571428571429 4.62121212121212  2.78571428571429 5  C 2.78571428571429 5.37878787878788  2.65029761904762 5.70075757575758  2.37946428571429 5.96590909090909  C 2.10863095238095 6.23106060606061  1.7797619047619 6.36363636363636  1.39285714285714 6.36363636363636  C 1.00595238095238 6.36363636363636  0.677083333333333 6.23106060606061  0.40625 5.96590909090909  C 0.135416666666667 5.70075757575758  0 5.37878787878788  0 5  C 0 4.62121212121212  0.135416666666667 4.29924242424242  0.40625 4.03409090909091  C 0.677083333333333 3.76893939393939  1.00595238095238 3.63636363636364  1.39285714285714 3.63636363636364  C 1.7797619047619 3.63636363636364  2.10863095238095 3.76893939393939  2.37946428571429 4.03409090909091  Z M 12.9310825892857 7.79474431818182  C 12.9770275297619 7.83972537878788  13 7.89299242424242  13 7.95454545454545  L 13 9.31818181818182  C 13 9.37973484848485  12.9770275297619 9.43300189393939  12.9310825892857 9.47798295454545  C 12.8851376488095 9.52296401515152  12.8307291666667 9.54545454545455  12.7678571428571 9.54545454545455  L 3.94642857142857 9.54545454545455  C 3.88355654761905 9.54545454545455  3.82914806547619 9.52296401515152  3.783203125 9.47798295454545  C 3.73725818452381 9.43300189393939  3.71428571428571 9.37973484848485  3.71428571428571 9.31818181818182  L 3.71428571428571 7.95454545454545  C 3.71428571428571 7.89299242424242  3.73725818452381 7.83972537878788  3.783203125 7.79474431818182  C 3.82914806547619 7.74976325757576  3.88355654761905 7.72727272727273  3.94642857142857 7.72727272727273  L 12.7678571428571 7.72727272727273  C 12.8307291666667 7.72727272727273  12.8851376488095 7.74976325757576  12.9310825892857 7.79474431818182  Z M 2.37946428571429 0.397727272727273  C 2.65029761904762 0.662878787878788  2.78571428571429 0.984848484848484  2.78571428571429 1.36363636363636  C 2.78571428571429 1.74242424242424  2.65029761904762 2.06439393939394  2.37946428571429 2.32954545454545  C 2.10863095238095 2.59469696969697  1.7797619047619 2.72727272727273  1.39285714285714 2.72727272727273  C 1.00595238095238 2.72727272727273  0.677083333333333 2.59469696969697  0.40625 2.32954545454545  C 0.135416666666667 2.06439393939394  0 1.74242424242424  0 1.36363636363636  C 0 0.984848484848484  0.135416666666667 0.662878787878788  0.40625 0.397727272727273  C 0.677083333333333 0.132575757575757  1.00595238095238 0  1.39285714285714 0  C 1.7797619047619 0  2.10863095238095 0.132575757575757  2.37946428571429 0.397727272727273  Z M 12.9310825892857 4.15838068181818  C 12.9770275297619 4.20336174242424  13 4.25662878787879  13 4.31818181818182  L 13 5.68181818181818  C 13 5.74337121212121  12.9770275297619 5.79663825757576  12.9310825892857 5.84161931818182  C 12.8851376488095 5.88660037878788  12.8307291666667 5.90909090909091  12.7678571428571 5.90909090909091  L 3.94642857142857 5.90909090909091  C 3.88355654761905 5.90909090909091  3.82914806547619 5.88660037878788  3.783203125 5.84161931818182  C 3.73725818452381 5.79663825757576  3.71428571428571 5.74337121212121  3.71428571428571 5.68181818181818  L 3.71428571428571 4.31818181818182  C 3.71428571428571 4.25662878787879  3.73725818452381 4.20336174242424  3.783203125 4.15838068181818  C 3.82914806547619 4.11339962121212  3.88355654761905 4.09090909090909  3.94642857142857 4.09090909090909  L 12.7678571428571 4.09090909090909  C 12.8307291666667 4.09090909090909  12.8851376488095 4.11339962121212  12.9310825892857 4.15838068181818  Z M 12.9310825892857 0.522017045454546  C 12.9770275297619 0.566998106060606  13 0.620265151515151  13 0.681818181818182  L 13 2.04545454545455  C 13 2.10700757575757  12.9770275297619 2.16027462121212  12.9310825892857 2.20525568181818  C 12.8851376488095 2.25023674242424  12.8307291666667 2.27272727272727  12.7678571428571 2.27272727272727  L 3.94642857142857 2.27272727272727  C 3.88355654761905 2.27272727272727  3.82914806547619 2.25023674242424  3.783203125 2.20525568181818  C 3.73725818452381 2.16027462121212  3.71428571428571 2.10700757575757  3.71428571428571 2.04545454545455  L 3.71428571428571 0.681818181818182  C 3.71428571428571 0.620265151515151  3.73725818452381 0.566998106060606  3.783203125 0.522017045454546  C 3.82914806547619 0.477035984848484  3.88355654761905 0.454545454545454  3.94642857142857 0.454545454545454  L 12.7678571428571 0.454545454545454  C 12.8307291666667 0.454545454545454  12.8851376488095 0.477035984848484  12.9310825892857 0.522017045454546  Z " fill-rule="nonzero" fill="#00bfbf" stroke="none" transform="matrix(1 0 0 1 377 95 )" />
  </g>
</svg>