<?xml version="1.0" encoding="utf-8"?>
<svg version="1.1" xmlns:xlink="http://www.w3.org/1999/xlink" width="120px" height="120px" xmlns="http://www.w3.org/2000/svg">
  <defs>
    <linearGradient gradientUnits="userSpaceOnUse" x1="742" y1="478" x2="742" y2="598" id="LinearGradient55">
      <stop id="Stop56" stop-color="#00ffff" offset="0" />
      <stop id="Stop57" stop-color="#0000ff" offset="1" />
    </linearGradient>
  </defs>
  <g transform="matrix(1 0 0 1 -682 -478 )">
    <path d="M 684.5 488  A 7.5 7.5 0 0 1 692 480.5 L 792 480.5  A 7.5 7.5 0 0 1 799.5 488 L 799.5 588  A 7.5 7.5 0 0 1 792 595.5 L 692 595.5  A 7.5 7.5 0 0 1 684.5 588 L 684.5 488  Z " fill-rule="nonzero" fill="#ffffff" stroke="none" fill-opacity="0.996078431372549" />
    <path d="M 683.5 488  A 8.5 8.5 0 0 1 692 479.5 L 792 479.5  A 8.5 8.5 0 0 1 800.5 488 L 800.5 588  A 8.5 8.5 0 0 1 792 596.5 L 692 596.5  A 8.5 8.5 0 0 1 683.5 588 L 683.5 488  Z " stroke-width="3" stroke="url(#LinearGradient55)" fill="none" />
  </g>
</svg>