<?xml version="1.0" encoding="utf-8"?>
<svg version="1.1" xmlns:xlink="http://www.w3.org/1999/xlink" width="120px" height="120px" xmlns="http://www.w3.org/2000/svg">
  <defs>
    <linearGradient gradientUnits="userSpaceOnUse" x1="895" y1="478" x2="895" y2="598" id="LinearGradient169">
      <stop id="Stop170" stop-color="#f59a23" offset="0" />
      <stop id="Stop171" stop-color="#02a7f0" offset="1" />
    </linearGradient>
  </defs>
  <g transform="matrix(1 0 0 1 -835 -478 )">
    <path d="M 837.5 488  A 7.5 7.5 0 0 1 845 480.5 L 945 480.5  A 7.5 7.5 0 0 1 952.5 488 L 952.5 588  A 7.5 7.5 0 0 1 945 595.5 L 845 595.5  A 7.5 7.5 0 0 1 837.5 588 L 837.5 488  Z " fill-rule="nonzero" fill="#ffffff" stroke="none" fill-opacity="0.996078431372549" />
    <path d="M 836.5 488  A 8.5 8.5 0 0 1 845 479.5 L 945 479.5  A 8.5 8.5 0 0 1 953.5 488 L 953.5 588  A 8.5 8.5 0 0 1 945 596.5 L 845 596.5  A 8.5 8.5 0 0 1 836.5 588 L 836.5 488  Z " stroke-width="3" stroke="url(#LinearGradient169)" fill="none" />
  </g>
</svg>