<?xml version="1.0" encoding="utf-8"?>
<svg version="1.1" xmlns:xlink="http://www.w3.org/1999/xlink" width="23px" height="23px" xmlns="http://www.w3.org/2000/svg">
  <g transform="matrix(1 0 0 1 -35 -199 )">
    <path d="M 46.5 199  C 52.94 199  58 204.06  58 210.5  C 58 216.94  52.94 222  46.5 222  C 40.06 222  35 216.94  35 210.5  C 35 204.06  40.06 199  46.5 199  Z " fill-rule="nonzero" fill="#ffffff" stroke="none" />
    <path d="M 46.5 199.5  C 52.66 199.5  57.5 204.34  57.5 210.5  C 57.5 216.66  52.66 221.5  46.5 221.5  C 40.34 221.5  35.5 216.66  35.5 210.5  C 35.5 204.34  40.34 199.5  46.5 199.5  Z " stroke-width="1" stroke="#797979" fill="none" />
  </g>
</svg>