<?xml version="1.0" encoding="utf-8"?>
<svg version="1.1" xmlns:xlink="http://www.w3.org/1999/xlink" width="18px" height="18px" xmlns="http://www.w3.org/2000/svg">
  <g transform="matrix(1 0 0 1 -1486 -349 )">
    <path d="M 12.38681640625 17.07333984375  C 11.3081640625 17.5295703125  10.1626953125 17.7608984375  8.98224609375 17.7608984375  C 7.80181640625 17.7608984375  6.65634765625 17.5295703125  5.5776953125 17.07333984375  C 4.5361328125 16.63279296875  3.60087890625 16.002265625  2.79783203125 15.19923828125  C 1.9948046875 14.39623046875  1.36427734375 13.4609375  0.92373046875 12.41939453125  C 0.4675 11.34072265625  0.23615234375 10.1952734375  0.23615234375 9.01482421875  C 0.23615234375 7.83439453125  0.46748046875 6.68892578125  0.92373046875 5.6102734375  C 1.3642578125 4.5687109375  1.9948046875 3.63345703125  2.79783203125 2.83041015625  C 3.600859375 2.0273828125  4.5361328125 1.39685546875  5.5776953125 0.956308593750003  C 6.6563671875 0.500078125000003  7.80181640625 0.268730468750003  8.98224609375 0.268730468750003  C 10.1626953125 0.268730468750003  11.30814453125 0.500058593750003  12.38681640625 0.956308593750003  C 13.428359375 1.3968359375  14.36365234375 2.0273828125  15.16666015625 2.83041015625  C 15.9696875 3.6334375  16.60021484375 4.5687109375  17.04076171875 5.6102734375  C 17.4969921875 6.6889453125  17.7283203125 7.83439453125  17.7283203125 9.01482421875  C 17.7283203125 10.1952734375  17.4969921875 11.34072265625  17.04076171875 12.41939453125  C 16.60021484375 13.4609375  15.9696875 14.39623046875  15.16666015625 15.19923828125  C 14.36365234375 16.002265625  13.428359375 16.63279296875  12.38681640625 17.07333984375  Z M 16.4783203125 9.0148046875  C 16.4783203125 4.88146484375  13.11560546875 1.51873046875  8.98224609375 1.51873046875  C 4.84890625 1.51873046875  1.486171875 4.88146484375  1.486171875 9.0148046875  C 1.486171875 13.14814453125  4.84890625 16.51087890625  8.98224609375 16.51087890625  C 13.1155859375 16.51087890625  16.4783203125 13.14814453125  16.4783203125 9.0148046875  Z " fill-rule="nonzero" fill="#02a7f0" stroke="none" transform="matrix(1 0 0 1 1486 349 )" />
  </g>
</svg>