<?xml version="1.0" encoding="utf-8"?>
<svg version="1.1" xmlns:xlink="http://www.w3.org/1999/xlink" width="13px" height="15px" xmlns="http://www.w3.org/2000/svg">
  <g transform="matrix(1 0 0 1 -692 -1776 )">
    <path d="M 10.8936016842105 5.69449263157895  L 10.8936016842105 9.14137479699248  C 10.8936016842105 9.62855338345865  11.2862633383459 10.0357926015038  11.766210406015 10.0357926015038  C 12.2534053533835 10.0357926015038  12.6388191278196 9.62855338345865  12.6388191278196 9.14137479699248  L 12.6388191278195 5.69449263157895  C 12.6388191278195 5.20009888721805  12.2534053533835 4.80748631578947  11.766210406015 4.80748631578947  C 11.2862633383459 4.80748631578947  10.8936016842105 5.20009888721805  10.8936016842105 5.69449263157895  Z M 8.20308403007519 3.2005184962406  C 7.97039927819549 3.2005184962406  7.77405209022556 3.01138646616541  7.77405209022556 2.77142111278196  C 7.77405209022556 2.53873636090226  7.97039927819549 2.34958796992481  8.20308403007519 2.34958796992481  C 8.4430657443609 2.34958796992481  8.63946201503759 2.53873636090226  8.63946201503759 2.77142111278196  C 8.63946201503759 3.01138646616541  8.4430657443609 3.2005184962406  8.20308403007519 3.2005184962406  Z M 4.87998845112782 3.2005184962406  C 4.64730369924812 3.2005184962406  4.45831891729323 3.01138646616541  4.45831891729323 2.77142111278196  C 4.45831891729323 2.53873636090226  4.64730369924812 2.34958796992481  4.87998845112782 2.34958796992481  C 5.11995380451128 2.34958796992481  5.30902039097744 2.53873636090226  5.30902039097744 2.77142111278196  C 5.30902039097744 3.01138646616541  5.11993744360902 3.2005184962406  4.87998845112782 3.2005184962406  Z M 2.66220270676692 4.82924631578947  L 2.66220270676692 11.1483339548872  C 2.66220270676692 11.5264507669173  2.96034742857143 11.8317288421053  3.34572848120301 11.8317288421053  L 4.11653966917293 11.8317288421053  L 4.11653966917293 13.7514516691729  C 4.11653966917293 14.2315459849624  4.49465648120301 14.6387361203008  4.98906658646616 14.6387361203008  C 5.46171669172932 14.6387361203008  5.86165894736842 14.2315296240601  5.86165894736842 13.7514516691729  L 5.86165894736842 11.8317288421053  L 7.21418201503759 11.8317288421053  L 7.21418201503759 13.7514516691729  C 7.21418201503759 14.2315459849624  7.58505094736842 14.6387361203008  8.07946105263158 14.6387361203008  C 8.56673780451128 14.6387361203008  8.95213521804511 14.2315296240601  8.95213521804511 13.7514516691729  L 8.95213521804511 11.8317288421053  L 9.7228482406015 11.8317288421053  C 10.1082456541353 11.8317288421053  10.4063903759398 11.5264671278195  10.4063903759398 11.1483339548872  L 10.4063903759398 4.82924631578947  L 2.66220270676692 4.82924631578947  Z M 2.6476415037594 4.27667320300752  L 10.3918618947368 4.27667320300752  C 10.275519518797 3.08419248120301  9.49017984962406 2.08787897744361  8.35579669172932 1.5643137443609  L 9.06851031578947 0.524545684210526  C 9.11531885714286 0.456075308270677  9.10479879699248 0.371702135338346  9.04661942857143 0.342677894736842  C 8.98844006015038 0.306389413533835  8.9230782556391 0.328133052631579  8.87209768421053 0.386312421052631  L 8.12311193984963 1.46259801503759  C 7.62137215037594 1.28079566917293  7.09062448120301 1.16445329323308  6.51614412030075 1.16445329323308  C 5.9416637593985 1.16445329323308  5.39628944360902 1.28079566917293  4.9018302556391 1.46259801503759  L 4.16743843609023 0.386312421052632  C 4.11653966917293 0.328133052631579  4.05109606015038 0.291844571428572  3.99291669172932 0.342677894736842  C 3.93475368421053 0.379048180451128  3.91657672180451 0.456206195488722  3.9638270075188 0.524545684210527  L 4.68364126315789 1.5643137443609  C 3.54933990977444 2.10250562406015  2.74945539849624 3.07684643609023  2.6476415037594 4.27667320300752  Z M 0.393436390977444 5.69449263157895  L 0.393436390977444 9.14137479699248  C 0.393436390977444 9.62855338345865  0.771553203007519 10.0357926015038  1.26604511278195 10.0357926015038  C 1.73869521804511 10.0357926015038  2.13863747368421 9.62855338345865  2.13863747368421 9.14137479699248  L 2.13863747368421 5.69449263157895  C 2.13863747368421 5.20009888721805  1.73869521804511 4.80748631578947  1.26604511278195 4.80748631578947  C 0.771553203007519 4.80748631578947  0.393436390977444 5.20009888721805  0.393436390977444 5.69449263157895  Z " fill-rule="nonzero" fill="#69e147" stroke="none" transform="matrix(1 0 0 1 692 1776 )" />
  </g>
</svg>