<?xml version="1.0" encoding="utf-8"?>
<svg version="1.1" xmlns:xlink="http://www.w3.org/1999/xlink" width="13px" height="15px" xmlns="http://www.w3.org/2000/svg">
  <g transform="matrix(1 0 0 1 -919 -1775 )">
    <path d="M 10.9307586206897 7.92  C 10.9307586206897 8.65  11.1390574712644 9.31  11.5556551724138 9.9  C 11.9722528735632 10.48  12.449816091954 10.855  12.9883448275862 11.025  C 12.7546436781609 11.735  12.3837701149425 12.475  11.875724137931 13.245  C 11.0933333333333 14.405  10.3211034482759 14.985  9.55903448275862 14.985  C 9.27452873563218 14.985  8.85285057471264 14.89  8.294 14.7  C 7.77579310344827 14.51  7.32363218390805 14.415  6.93751724137931 14.415  C 6.55140229885057 14.415  6.12464367816092 14.515  5.65724137931034 14.715  C 5.16951724137931 14.905  4.76816091954023 15  4.4531724137931 15  C 3.53868965517241 15  2.63944827586207 14.235  1.75544827586207 12.705  C 0.871448275862069 11.195  0.429448275862069 9.71  0.429448275862069 8.25  C 0.429448275862069 6.9  0.764758620689655 5.795  1.43537931034483 4.935  C 2.12632183908046 4.075  2.97983908045977 3.645  3.99593103448276 3.645  C 4.21947126436782 3.645  4.46841379310345 3.6725  4.74275862068965 3.7275  C 5.01710344827586 3.7825  5.3016091954023 3.885  5.59627586206897 4.035  C 5.91126436781609 4.205  6.17036781609195 4.3225  6.37358620689655 4.3875  C 6.57680459770115 4.4525  6.73429885057471 4.485  6.84606896551724 4.485  C 6.97816091954023 4.485  7.18137931034483 4.455  7.45572413793103 4.395  C 7.73006896551724 4.335  8.00441379310345 4.225  8.27875862068966 4.065  C 8.57342528735633 3.905  8.82744827586207 3.785  9.0408275862069 3.705  C 9.25420689655173 3.625  9.47266666666667 3.585  9.69620689655173 3.585  C 10.4074712643678 3.585  11.0476091954023 3.775  11.6166206896552 4.155  C 11.9214482758621 4.355  12.2313563218391 4.65  12.5463448275862 5.04  C 12.0789425287356 5.44  11.7385517241379 5.79  11.5251724137931 6.09  C 11.1288965517241 6.65  10.9307586206897 7.26  10.9307586206897 7.92  Z M 9.33041379310345 1.68  C 9.14751724137931 2.12  8.86809195402299 2.525  8.49213793103448 2.895  C 8.13650574712644 3.225  7.81135632183908 3.44  7.51668965517241 3.54  C 7.41508045977012 3.57  7.28552873563218 3.5975  7.12803448275862 3.6225  C 6.97054022988506 3.6475  6.79018390804598 3.67  6.58696551724138 3.69  C 6.59712643678161 2.81  6.8308275862069 2.05  7.28806896551724 1.41  C 7.74531034482759 0.77  8.4972183908046 0.33  9.54379310344828 0.0900000000000001  C 9.56411494252874 0.19  9.57935632183908 0.26  9.58951724137931 0.3  L 9.58951724137931 0.465  C 9.58951724137931 0.825  9.50314942528736 1.23  9.33041379310345 1.68  Z " fill-rule="nonzero" fill="#02a7f0" stroke="none" transform="matrix(1 0 0 1 919 1775 )" />
  </g>
</svg>