<?xml version="1.0" encoding="utf-8"?>
<svg version="1.1" xmlns:xlink="http://www.w3.org/1999/xlink" width="15px" height="15px" xmlns="http://www.w3.org/2000/svg">
  <g transform="matrix(1 0 0 1 -467 -1649 )">
    <path d="M 0.0625 7.01921875  L 0.0625 13.4765625  C 0.0625 14.09440625  0.5629375 14.59484375  1.18078125 14.59484375  L 2.1875 14.59484375  L 2.1875 5.9115625  L 1.18078125 5.9009375  C 0.563171569603283 5.9009375  0.0625 6.40160906960328  0.0625 7.01921875  Z M 13.2321875 4.72740625  L 8.78615625 4.7555625  C 8.9949375 4.02084375  9.10065625 3.3679375  9.10065625 2.793125  C 9.10065625 1.48890625  7.9579375 0.211781250000001  6.8168125 0.377531250000001  C 5.810625 0.523625000000001  5.700125 1.39328125  5.700125 2.482875  L 5.700125 3.46675  C 5.700125 4.72953125  4.64028125 5.8053125  3.4115 5.92378125  L 3.25 5.9221875  L 3.25 14.59484375  L 12.0081875 14.59484375  C 12.8275380966793 14.5948931177943  13.5311108557852 14.0122260135507  13.68375 13.20721875  L 14.90775 6.749875  C 14.9275412908882 6.64531611721309  14.9375021054629 6.53913423366845  14.9375021054629 6.4327187499987  C 14.9375021054629 5.49090066255287  14.1740076929087 4.7274062499987  13.2321896054629 4.7274062499987  Z " fill-rule="nonzero" fill="#000000" stroke="none" transform="matrix(1 0 0 1 467 1649 )" />
  </g>
</svg>