<?xml version="1.0" encoding="utf-8"?>
<svg version="1.1" xmlns:xlink="http://www.w3.org/1999/xlink" width="10px" height="843px" preserveAspectRatio="xMidYMin meet" viewBox="1370 1199  8 843" xmlns="http://www.w3.org/2000/svg">
  <path d="M 1495.5 367  L 1495.5 715  A 3 3 0 0 1 1498.5 718 A 3 3 0 0 1 1495.5 721 L 1495.5 872  A 3 3 0 0 1 1498.5 875 A 3 3 0 0 1 1495.5 878 L 1495.5 1199  A 5 5 0 0 1 1490.5 1204.5 L 1379 1204.5  A 5 5 0 0 0 1374.5 1209.5 L 1374.5 2041  " stroke-width="1" stroke-dasharray="9,4" stroke="#f59a23" fill="none" />
  <path d="M 1368.5 2035.3  L 1374.5 2042  L 1380.5 2035.3  L 1374.5 2037.6  L 1368.5 2035.3  Z " fill-rule="nonzero" fill="#f59a23" stroke="none" />
</svg>