<?xml version="1.0" encoding="utf-8"?>
<svg version="1.1" xmlns:xlink="http://www.w3.org/1999/xlink" width="32px" height="32px" preserveAspectRatio="xMinYMid meet" viewBox="1709 2159  32 30" xmlns="http://www.w3.org/2000/svg">
  <path d="M 1504 303.5  L 1690 303.5  A 5 5 0 0 1 1695.5 308 L 1695.5 715  A 3 3 0 0 1 1698.5 718 A 3 3 0 0 1 1695.5 721 L 1695.5 872  A 3 3 0 0 1 1698.5 875 A 3 3 0 0 1 1695.5 878 L 1695.5 2169  A 5 5 0 0 0 1700.5 2174.5 L 1725 2174.5  " stroke-width="1" stroke-dasharray="9,4" stroke="#f59a23" fill="none" />
  <path d="M 1719.3 2180.5  L 1726 2174.5  L 1719.3 2168.5  L 1721.6 2174.5  L 1719.3 2180.5  Z " fill-rule="nonzero" fill="#f59a23" stroke="none" />
</svg>