<?xml version="1.0" encoding="utf-8"?>
<svg version="1.1" xmlns:xlink="http://www.w3.org/1999/xlink" width="14px" height="13px" xmlns="http://www.w3.org/2000/svg">
  <g transform="matrix(1 0 0 1 -3197 -328 )">
    <path d="M 1.93635395530181 6.01057906031683  C 1.93635395530181 4.40997114456295  2.69348485797693 2.90369430588862  3.97802818164062 1.94876281640625  C 4.11963357098905 1.84255877716135  4.20297195273437 1.67588201627568  4.20297195273437 1.49887528125  C 4.20297195273437 1.18829275315524  3.95119506715726 0.936515867578125  3.6406125390625 0.936515867578125  C 3.51893471503552 0.936515867578125  3.40053915661877 0.975981052894648  3.30319689648437 1.04898774609375  C 1.73614718787083 2.21639761488302  0.812836503920098 4.05559873552095  0.812836503920098 6.00969458552738  C 0.812836503920098 9.42610237321189  3.58238222795434 12.1956480972461  6.99879001563885 12.1956480972461  C 10.4151978033234 12.1956480972461  13.1847435273576 9.42610237321189  13.1847435273576 6.00969458552738  C 13.1847435273576 3.95260241544023  12.1621567293133 2.03008490297074  10.4564085859375 0.88027993359375  C 10.3633777905835 0.817512168095944  10.2537126331051 0.783976324098198  10.1414873183594 0.783976324098198  C 9.83051680832752 0.783976324098198  9.57842540124663 1.03606773117908  9.57842540124663 1.34703824121094  C 9.57842540124663 1.53419497674111  9.67141977205018 1.7091195415619  9.82656605078125 1.81379654882813  C 11.2221684795141 2.75454764211132  12.0588233381143 4.32751080305617  12.0588233381143 6.01057906031683  C 12.0588233381143 8.80582179569506  9.7928313820863 11.0718137517231  6.99758864670806 11.0718137517231  C 4.20234591132983 11.0718137517231  1.93635395530181 8.80582179569506  1.93635395530181 6.01057906031683  Z " fill-rule="nonzero" fill="#aaaaaa" stroke="none" transform="matrix(1 0 0 1 3197 328 )" />
  </g>
</svg>