<?xml version="1.0" encoding="utf-8"?>
<svg version="1.1" xmlns:xlink="http://www.w3.org/1999/xlink" width="22px" height="22px" xmlns="http://www.w3.org/2000/svg">
  <g transform="matrix(1 0 0 1 -88 -288 )">
    <path d="M 21.6710013003901 9.06892067620286  L 19.6970091027308 11  L 21.6710013003901 12.9310793237971  C 21.9570871261378 13.1980927611617  22.0524490680537 13.5318595578674  21.9570871261378 13.9323797139142  C 21.8426527958388 14.3233636757694  21.5947117468574 14.566536627655  21.2132639791938 14.6618985695709  L 18.5240572171651 15.3485045513654  L 19.2821846553966 18.0091027308192  C 19.3966189856957 18.4000866926745  19.3060251408756 18.7338534893801  19.0104031209363 19.0104031209363  C 18.7338534893801 19.3060251408756  18.4000866926745 19.3966189856957  18.0091027308192 19.2821846553966  L 15.3485045513654 18.5240572171651  L 14.6618985695709 21.2132639791938  C 14.566536627655 21.5947117468574  14.3233636757694 21.8426527958388  13.9323797139142 21.9570871261378  C 13.8179453836151 21.976159514521  13.727351538795 21.9856957087126  13.6605981794538 21.9856957087126  C 13.3649761595145 21.9856957087126  13.121803207629 21.8807975726051  12.9310793237971 21.6710013003901  L 11 19.6970091027308  L 9.06892067620286 21.6710013003901  C 8.80190723883832 21.9570871261378  8.46814044213264 22.0524490680537  8.06762028608583 21.9570871261378  C 7.6766363242306 21.8521889900303  7.43346337234504 21.604247941049  7.33810143042913 21.2132639791938  L 6.65149544863459 18.5240572171651  L 3.99089726918075 19.2821846553966  C 3.59991330732553 19.3966189856957  3.26614651061985 19.3060251408756  2.98959687906372 19.0104031209363  C 2.6939748591244 18.7338534893801  2.60338101430429 18.4000866926745  2.71781534460338 18.0091027308192  L 3.47594278283485 15.3485045513654  L 0.786736020806242 14.6618985695709  C 0.405288253142609 14.566536627655  0.157347204161248 14.3233636757694  0.0429128738621586 13.9323797139142  C -0.0524490680537495 13.5318595578674  0.0429128738621586 13.1980927611617  0.328998699609883 12.9310793237971  L 2.30299089726918 11  L 0.328998699609883 9.06892067620286  C 0.0429128738621586 8.80190723883832  -0.0524490680537495 8.46814044213264  0.0429128738621586 8.06762028608583  C 0.157347204161248 7.6766363242306  0.405288253142609 7.43346337234504  0.786736020806242 7.33810143042913  L 3.47594278283485 6.65149544863459  L 2.71781534460338 3.99089726918075  C 2.60338101430429 3.59991330732553  2.6939748591244 3.26614651061985  2.98959687906372 2.98959687906372  C 3.26614651061985 2.6939748591244  3.59991330732553 2.60338101430429  3.99089726918075 2.71781534460338  L 6.65149544863459 3.47594278283485  L 7.33810143042913 0.786736020806242  C 7.43346337234504 0.395752058951016  7.6766363242306 0.152579107065451  8.06762028608583 0.0572171651495439  C 8.45860424794105 -0.0572171651495439  8.79237104464673 0.0333766796705677  9.06892067620286 0.328998699609883  L 11 2.31729518855657  L 12.9310793237971 0.328998699609883  C 13.2076289553533 0.0429128738621591  13.541395752059 -0.0476809709579573  13.9323797139142 0.0572171651495439  C 14.3233636757694 0.152579107065451  14.566536627655 0.395752058951016  14.6618985695709 0.786736020806242  L 15.3485045513654 3.47594278283485  L 18.0091027308192 2.71781534460338  C 18.4000866926745 2.60338101430429  18.7338534893801 2.6939748591244  19.0104031209363 2.98959687906372  C 19.3060251408756 3.26614651061985  19.3966189856957 3.59991330732553  19.2821846553966 3.99089726918075  L 18.5240572171651 6.65149544863459  L 21.2132639791938 7.33810143042913  C 21.5947117468574 7.43346337234504  21.8426527958388 7.6766363242306  21.9570871261378 8.06762028608583  C 22.0524490680537 8.46814044213264  21.9570871261378 8.80190723883832  21.6710013003901 9.06892067620286  Z " fill-rule="nonzero" fill="#eb1c26" stroke="none" transform="matrix(1 0 0 1 88 288 )" />
  </g>
</svg>