<?xml version="1.0" encoding="utf-8"?>
<svg version="1.1" xmlns:xlink="http://www.w3.org/1999/xlink" width="25px" height="25px" xmlns="http://www.w3.org/2000/svg">
  <g transform="matrix(1 0 0 1 -132 -1003 )">
    <path d="M 144.5 1003  C 151.5 1003  157 1008.5  157 1015.5  C 157 1022.5  151.5 1028  144.5 1028  C 137.5 1028  132 1022.5  132 1015.5  C 132 1008.5  137.5 1003  144.5 1003  Z " fill-rule="nonzero" fill="#ffffff" stroke="none" />
    <path d="M 144.5 1003.5  C 151.22 1003.5  156.5 1008.78  156.5 1015.5  C 156.5 1022.22  151.22 1027.5  144.5 1027.5  C 137.78 1027.5  132.5 1022.22  132.5 1015.5  C 132.5 1008.78  137.78 1003.5  144.5 1003.5  Z " stroke-width="1" stroke="#aaaaaa" fill="none" />
  </g>
</svg>