<?xml version="1.0" encoding="utf-8"?>
<svg version="1.1" xmlns:xlink="http://www.w3.org/1999/xlink" width="26px" height="22px" xmlns="http://www.w3.org/2000/svg">
  <defs>
    <filter x="338px" y="297px" width="26px" height="22px" filterUnits="userSpaceOnUse" id="filter186">
      <feOffset dx="0" dy="0" in="SourceAlpha" result="shadowOffsetInner" />
      <feGaussianBlur stdDeviation="2.5" in="shadowOffsetInner" result="shadowGaussian" />
      <feComposite in2="shadowGaussian" operator="atop" in="SourceAlpha" result="shadowComposite" />
      <feColorMatrix type="matrix" values="0 0 0 0 1  0 0 0 0 1  0 0 0 0 1  0 0 0 0.549019607843137 0  " in="shadowComposite" />
    </filter>
    <g id="widget187">
      <path d="M 15.89093815625 1.80506928409091  C 15.89093815625 0.875374210227273  15.197665578125 0.118728  14.345652953125 0.118728  L 1.6543310625 0.118728  C 0.802334421875 0.118728  0.109045859375 0.875374210227272  0.10904584375 1.80508672159091  L 0.10904584375 10.1953144602273  C 0.10904584375 11.1245211477273  0.802318421875 11.8813068920455  1.6543310625 11.8813068920455  L 14.345652953125 11.8813068920455  C 15.197665578125 11.8813068920455  15.89093815625 11.1245211477273  15.89093815625 10.1953144602273  L 15.89093815625 1.80506928409091  Z M 1.704760765625 1.20429090340909  L 14.345652953125 1.20429090340909  C 14.418307546875 1.20429090340909  14.487652390625 1.22063469886364  14.551273140625 1.24896161931818  L 8.157732734375 6.71066728977273  L 1.704760765625 1.20429090340909  Z M 14.3456689375 10.7957265340909  L 1.89738178125 10.7957265340909  L 6.172362796875 7.50779797159091  C 6.32229284375 7.39251927272727  6.35794859375 7.16675860227273  6.252276453125 7.00344274431818  C 6.1466043125 6.84037107954545  5.940104734375 6.80098551136364  5.789950828125 6.91626421022727  L 1.168229609375 10.4710135227273  C 1.1285925625 10.3879165738636  1.103937328125 10.2952086988636  1.103937328125 10.1952970227273  L 1.103937328125 1.80506928409091  C 1.103937328125 1.74490946590909  1.114729984375 1.6876276875  1.12991965625 1.63249135227273  L 7.74890675 7.280572125  C 7.86554833375535 7.38031618161755  8.00951061315481 7.43444945301925  8.15771675 7.43429449431818  C 8.301938671875 7.43429449431818  8.446352484375 7.38311766477273  8.566558734375 7.280572125  L 14.896030703125 1.87363646590909  L 14.896030703125 10.1952970227273  C 14.896030703125 10.2072975852273  14.89316865625 10.2185830056818  14.892720953125 10.2305835681818  L 10.58341128125 6.91626421022727  C 10.43349721875 6.80098551136364  10.2267578125 6.84037109659091  10.1213255 7.00344274431818  C 10.01586121875 7.16675860227273  10.051548953125 7.39251925568182  10.20123915625 7.50779797159091  L 14.458824 10.7827666193182  C 14.422272859375 10.7909297897727  14.384618453125 10.7957265340909  14.3456689375 10.7957265340909  Z " fill-rule="nonzero" fill="#02a7f0" stroke="none" transform="matrix(1 0 0 1 343 302 )" />
    </g>
  </defs>
  <g transform="matrix(1 0 0 1 -338 -297 )">
    <use xlink:href="#widget187" filter="url(#filter186)" />
    <use xlink:href="#widget187" />
  </g>
</svg>