<?xml version="1.0" encoding="utf-8"?>
<svg version="1.1" xmlns:xlink="http://www.w3.org/1999/xlink" width="96px" height="27px" viewBox="718 26  96 27" xmlns="http://www.w3.org/2000/svg">
  <path d="M 719 31  A 4 4 0 0 1 723 27 L 809 27  A 4 4 0 0 1 813 31 L 813 48  A 4 4 0 0 1 809 52 L 723 52  A 4 4 0 0 1 719 48 L 719 31  Z " fill-rule="nonzero" fill="#f0f0f0" stroke="none" />
  <path d="M 718.5 31  A 4.5 4.5 0 0 1 723 26.5 L 809 26.5  A 4.5 4.5 0 0 1 813.5 31 L 813.5 48  A 4.5 4.5 0 0 1 809 52.5 L 723 52.5  A 4.5 4.5 0 0 1 718.5 48 L 718.5 31  Z " stroke-width="1" stroke="#d7d7d7" fill="none" stroke-opacity="0.329411764705882" />
</svg>