<?xml version="1.0" encoding="utf-8"?>
<svg version="1.1" xmlns:xlink="http://www.w3.org/1999/xlink" width="5px" height="5px" xmlns="http://www.w3.org/2000/svg">
  <g transform="matrix(1 0 0 1 -34 -364 )">
    <path d="M 36.5 364  C 37.9 364  39 365.1  39 366.5  C 39 367.9  37.9 369  36.5 369  C 35.1 369  34 367.9  34 366.5  C 34 365.1  35.1 364  36.5 364  Z " fill-rule="nonzero" fill="#02a7f0" stroke="none" />
    <path d="M 36.5 364.5  C 37.62 364.5  38.5 365.38  38.5 366.5  C 38.5 367.62  37.62 368.5  36.5 368.5  C 35.38 368.5  34.5 367.62  34.5 366.5  C 34.5 365.38  35.38 364.5  36.5 364.5  Z " stroke-width="1" stroke="#02a7f0" fill="none" />
  </g>
</svg>