<?xml version="1.0" encoding="utf-8"?>
<svg version="1.1" xmlns:xlink="http://www.w3.org/1999/xlink" width="29px" height="28px" xmlns="http://www.w3.org/2000/svg">
  <g transform="matrix(1 0 0 1 -145 -66 )">
    <path d="M 28.0183355957031 14.4506504521484  C 28.0183355957031 6.98979290136719  21.9482181181641 0.919737423828125  14.4873605673828 0.919737423828125  C 7.02653401660156 0.919737423828125  0.9564475390625 6.98982390136719  0.9564475390625 14.4506504521484  C 0.9564475390625 21.9114770029297  7.02653401660156 27.9815944804688  14.4873915673828 27.9815944804688  C 21.9482491181641 27.9815944804688  28.0183355957031 21.9115080029297  28.0183355957031 14.4506504521484  Z M 21.3458315371094 14.8248766396484  C 21.3458315371094 18.6496054472656  18.2339293837891 21.7613837822266  14.4092315458984 21.7613837822266  C 11.4267596601563 21.7613837822266  8.88530476367188 19.8655621621094  7.9073598125 17.2186547412109  L 7.91727309179687 17.2145964960938  C 7.85649229394531 17.0923843544922  7.8148565390625 16.9596083876953  7.8148565390625 16.8138522001953  C 7.8148565390625 16.3098858964844  8.22337656738281 15.9013348984375  8.72737384082031 15.9013348984375  C 9.13273401855469 15.9013348984375  9.464797875 16.1700776826172  9.58378819628906 16.5357227734375  L 9.5965825078125 16.5304873154297  C 10.3010448837891 18.5116560830078  12.1893695898438 19.9363491484375  14.4092315458984 19.9363491484375  C 17.2278865048828 19.9363491484375  19.5207659335937 17.6434697197266  19.5207659335937 14.8248147607422  C 19.5207659335937 12.0061598017578  17.2278865048828 9.71328037304687  14.4092315458984 9.71328037304687  C 13.7906739238281 9.71328037304687  13.2021039882812 9.83378866503906  12.6529702910156 10.036267375  L 13.2962491416016 11.2696961015625  C 13.3715281005859 11.350768125  13.4178726767578 11.4599071367187  13.4178726767578 11.5797958525391  C 13.4178726767578 11.8346290820312  13.1634421748047 12.0315315761719  12.9526920654297 12.0360235185547  C 12.9495941542969 12.0360235185547  12.9464343037109 12.0360235185547  12.9433364228516 12.0360235185547  C 12.9366759335937 12.0360235185547  12.9303872021484 12.0360235185547  12.9237267128906 12.0356207910156  L 8.36516741894531 11.8399574492187  C 8.20252767480469 11.8328632626953  8.05547039550781 11.7397403828125  7.98019143652344 11.5949445595703  C 7.90491247753906 11.4505514638672  7.91247136132813 11.2767902578125  7.99980114648437 11.1391505908203  L 10.4486288300781 7.28898800878906  C 10.5359586152344 7.15175106933593  10.6910085058594 7.0724758046875  10.8532454921875 7.07826886914062  C 11.0158852363281 7.08536305566406  11.1628805458984 7.178547875  11.2381595351563 7.32334369824218  L 11.8006451806641 8.40184647363281  C 12.60681159375 8.07322128613281  13.4863672675781 7.8883076484375  14.4092625458984 7.8883076484375  C 18.2339604140625 7.8883076484375  21.3458315371094 11.0001478320312  21.3458315371094 14.8248766396484  Z " fill-rule="nonzero" fill="#69e147" stroke="none" transform="matrix(1 0 0 1 145 66 )" />
  </g>
</svg>