<?xml version="1.0" encoding="utf-8"?>
<svg version="1.1" xmlns:xlink="http://www.w3.org/1999/xlink" width="18px" height="19px" xmlns="http://www.w3.org/2000/svg">
  <g transform="matrix(1 0 0 1 -492 -132 )">
    <path d="M 15.3623610625 2.70966651351351  C 17.0623239375 4.45557433108108  17.9998035 6.77275347972973  17.9998035 9.24398328040541  C 17.9998035 11.7152130810811  17.062324 14.0323922297297  15.3623610625 15.7783000472973  C 13.6623981875 17.5242078648649  11.4061974375 18.4870247128378  9 18.4870247128378  C 6.5938025625 18.4870247128378  4.3376018125 17.5242079290541  2.6376389375 15.7783000472973  C 0.9376760625 14.0323922297297  0.000196500000001265 11.7152130810811  0.000196500000001265 9.24398328040541  C 0.000196500000001265 6.77275347972973  0.937676 4.45557433108108  2.6376389375 2.70966651351351  C 4.3376018125 0.963758695945945  6.5938025625 0.000941847972974009  9 0.000941847972974009  C 11.4061974375 0.000941847972974009  13.6623981875 0.963758631756756  15.3623610625 2.70966651351351  Z " fill-rule="nonzero" fill="#f59a23" stroke="none" transform="matrix(1 0 0 1 492 132 )" />
  </g>
</svg>