<?xml version="1.0" encoding="utf-8"?>
<svg version="1.1" xmlns:xlink="http://www.w3.org/1999/xlink" width="214px" height="214px" xmlns="http://www.w3.org/2000/svg">
  <defs>
    <filter x="2149px" y="210px" width="214px" height="214px" filterUnits="userSpaceOnUse" id="filter2014">
      <feOffset dx="0" dy="0" in="SourceAlpha" result="shadowOffsetInner" />
      <feGaussianBlur stdDeviation="11" in="shadowOffsetInner" result="shadowGaussian" />
      <feComposite in2="shadowGaussian" operator="atop" in="SourceAlpha" result="shadowComposite" />
      <feColorMatrix type="matrix" values="0 0 0 0 0.666666666666667  0 0 0 0 0.666666666666667  0 0 0 0 0.666666666666667  0 0 0 0.349019607843137 0  " in="shadowComposite" />
    </filter>
    <g id="widget2015">
      <path d="M 2256 232  C 2303.6 232  2341 269.4  2341 317  C 2341 364.6  2303.6 402  2256 402  C 2208.4 402  2171 364.6  2171 317  C 2171 269.4  2208.4 232  2256 232  Z " fill-rule="nonzero" fill="#ffffff" stroke="none" />
      <path d="M 2256 232.5  C 2303.32 232.5  2340.5 269.68  2340.5 317  C 2340.5 364.32  2303.32 401.5  2256 401.5  C 2208.68 401.5  2171.5 364.32  2171.5 317  C 2171.5 269.68  2208.68 232.5  2256 232.5  Z " stroke-width="1" stroke="#f2f2f2" fill="none" />
    </g>
  </defs>
  <g transform="matrix(1 0 0 1 -2149 -210 )">
    <use xlink:href="#widget2015" filter="url(#filter2014)" />
    <use xlink:href="#widget2015" />
  </g>
</svg>