<?xml version="1.0" encoding="utf-8"?>
<svg version="1.1" xmlns:xlink="http://www.w3.org/1999/xlink" width="12px" height="12px" xmlns="http://www.w3.org/2000/svg">
  <g transform="matrix(1 0 0 1 -213 -27 )">
    <path d="M 219 27  C 222.36 27  225 29.64  225 33  C 225 36.36  222.36 39  219 39  C 215.64 39  213 36.36  213 33  C 213 29.64  215.64 27  219 27  Z " fill-rule="nonzero" fill="#d9001b" stroke="none" />
    <path d="M 219 27.5  C 222.08 27.5  224.5 29.92  224.5 33  C 224.5 36.08  222.08 38.5  219 38.5  C 215.92 38.5  213.5 36.08  213.5 33  C 213.5 29.92  215.92 27.5  219 27.5  Z " stroke-width="1" stroke="#d9001b" fill="none" />
  </g>
</svg>