<?xml version="1.0" encoding="utf-8"?>
<svg version="1.1" xmlns:xlink="http://www.w3.org/1999/xlink" width="41px" height="41px" xmlns="http://www.w3.org/2000/svg">
  <g transform="matrix(1 0 0 1 -29 -889 )">
    <path d="M 49.5 889.5  C 60.7 889.5  69.5 898.3  69.5 909.5  C 69.5 920.7  60.7 929.5  49.5 929.5  C 38.3 929.5  29.5 920.7  29.5 909.5  C 29.5 898.3  38.3 889.5  49.5 889.5  Z " fill-rule="nonzero" fill="#ffffff" stroke="none" />
    <path d="M 49.5 889.5  C 60.7 889.5  69.5 898.3  69.5 909.5  C 69.5 920.7  60.7 929.5  49.5 929.5  C 38.3 929.5  29.5 920.7  29.5 909.5  C 29.5 898.3  38.3 889.5  49.5 889.5  Z " stroke-width="1" stroke="#02a7f0" fill="none" stroke-opacity="0.498039215686275" />
  </g>
</svg>