<?xml version="1.0" encoding="utf-8"?>
<svg version="1.1" xmlns:xlink="http://www.w3.org/1999/xlink" width="33px" height="33px" xmlns="http://www.w3.org/2000/svg">
  <g transform="matrix(1 0 0 1 -33 -893 )">
    <path d="M 49.5 893.5  C 58.46 893.5  65.5 900.54  65.5 909.5  C 65.5 918.46  58.46 925.5  49.5 925.5  C 40.54 925.5  33.5 918.46  33.5 909.5  C 33.5 900.54  40.54 893.5  49.5 893.5  Z " fill-rule="nonzero" fill="#ffffff" stroke="none" />
    <path d="M 49.5 893.5  C 58.46 893.5  65.5 900.54  65.5 909.5  C 65.5 918.46  58.46 925.5  49.5 925.5  C 40.54 925.5  33.5 918.46  33.5 909.5  C 33.5 900.54  40.54 893.5  49.5 893.5  Z " stroke-width="1" stroke="#02a7f0" fill="none" stroke-opacity="0.749019607843137" />
  </g>
</svg>