<?xml version="1.0" encoding="utf-8"?>
<svg version="1.1" xmlns:xlink="http://www.w3.org/1999/xlink" width="22px" height="22px" xmlns="http://www.w3.org/2000/svg">
  <g transform="matrix(1 0 0 1 -38 -899 )">
    <path d="M 49 899.5  C 54.88 899.5  59.5 904.12  59.5 910  C 59.5 915.88  54.88 920.5  49 920.5  C 43.12 920.5  38.5 915.88  38.5 910  C 38.5 904.12  43.12 899.5  49 899.5  Z " fill-rule="nonzero" fill="#ffffff" stroke="none" />
    <path d="M 49 899.5  C 54.88 899.5  59.5 904.12  59.5 910  C 59.5 915.88  54.88 920.5  49 920.5  C 43.12 920.5  38.5 915.88  38.5 910  C 38.5 904.12  43.12 899.5  49 899.5  Z " stroke-width="1" stroke="#02a7f0" fill="none" stroke-opacity="0.949019607843137" />
  </g>
</svg>