<?xml version="1.0" encoding="utf-8"?>
<svg version="1.1" xmlns:xlink="http://www.w3.org/1999/xlink" width="10px" height="10px" xmlns="http://www.w3.org/2000/svg">
  <g transform="matrix(1 0 0 1 -44 -905 )">
    <path d="M 49 905  C 51.8 905  54 907.2  54 910  C 54 912.8  51.8 915  49 915  C 46.2 915  44 912.8  44 910  C 44 907.2  46.2 905  49 905  Z " fill-rule="nonzero" fill="#02a7f0" stroke="none" />
    <path d="M 49 905.5  C 51.52 905.5  53.5 907.48  53.5 910  C 53.5 912.52  51.52 914.5  49 914.5  C 46.48 914.5  44.5 912.52  44.5 910  C 44.5 907.48  46.48 905.5  49 905.5  Z " stroke-width="1" stroke="#02a7f0" fill="none" />
  </g>
</svg>