<?xml version="1.0" encoding="utf-8"?>
<svg version="1.1" xmlns:xlink="http://www.w3.org/1999/xlink" width="14px" height="15px" xmlns="http://www.w3.org/2000/svg">
  <g transform="matrix(1 0 0 1 -321 -198 )">
    <path d="M 14 1.66666666666666  C 14 0.74583333333333  13.3038888888889 0  12.4444444444445 0  L 1.55555555555555 0  C 0.696111111111108 0  0 0.74583333333333  0 1.66666666666666  L 0 13.3333333333333  C 0 14.2541666666667  0.696111111111108 15  1.55555555555555 15  L 12.4444444444445 15  C 13.3038888888889 15  14 14.2541666666667  14 13.3333333333333  L 14 1.66666666666666  Z M 4.66666666666666 5.83333333333334  L 4.66666666666666 11.6666666666667  L 3.11111111111111 11.6666666666667  L 3.11111111111111 5.83333333333334  L 4.66666666666666 5.83333333333334  Z M 7.77777777777778 3.33333333333333  L 7.77777777777778 11.6666666666667  L 6.22222222222223 11.6666666666667  L 6.22222222222223 3.33333333333333  L 7.77777777777778 3.33333333333333  Z M 10.8888888888889 8.33333333333333  L 10.8888888888889 11.6666666666667  L 9.33333333333334 11.6666666666667  L 9.33333333333334 8.33333333333333  L 10.8888888888889 8.33333333333333  Z " fill-rule="nonzero" fill="#000000" stroke="none" transform="matrix(1 0 0 1 321 198 )" />
  </g>
</svg>