<?xml version="1.0" encoding="utf-8"?>
<svg version="1.1" xmlns:xlink="http://www.w3.org/1999/xlink" width="14px" height="15px" xmlns="http://www.w3.org/2000/svg">
  <g transform="matrix(1 0 0 1 -85 -198 )">
    <path d="M 14 3  C 14 2.17125  13.3038888888889 1.49999999999999  12.4444444444445 1.49999999999999  L 9.18944444444444 1.49999999999999  C 8.87055555555556 0.629999999999997  8.015 0  7 0  C 5.985 0  5.12944444444445 0.629999999999997  4.81055555555556 1.49999999999999  L 1.55555555555555 1.49999999999999  C 0.696111111111112 1.49999999999999  0 2.17125  0 3  L 0 13.5  C 0 14.32875  0.696111111111112 15  1.55555555555555 15  L 12.4444444444445 15  C 13.3038888888889 15  14 14.32875  14 13.5  L 14 3  Z M 6.22222222222223 2.25000000000001  C 6.22222222222223 1.83375  6.57222222222222 1.49999999999999  7 1.49999999999999  C 7.42777777777777 1.49999999999999  7.77777777777778 1.83375  7.77777777777778 2.25000000000001  C 7.77777777777778 2.66624999999999  7.42777777777777 3  7 3  C 6.57222222222222 3  6.22222222222223 2.66624999999999  6.22222222222223 2.25000000000001  Z M 10.8888888888889 8.99999999999999  L 7 12.75  L 3.11111111111111 8.99999999999999  L 5.44444444444445 8.99999999999999  L 5.44444444444445 6.00000000000001  L 8.55555555555556 6.00000000000001  L 8.55555555555556 8.99999999999999  L 10.8888888888889 8.99999999999999  Z " fill-rule="nonzero" fill="#000000" stroke="none" transform="matrix(1 0 0 1 85 198 )" />
  </g>
</svg>