<?xml version="1.0" encoding="utf-8"?>
<svg version="1.1" xmlns:xlink="http://www.w3.org/1999/xlink" width="14px" height="15px" xmlns="http://www.w3.org/2000/svg">
  <g transform="matrix(1 0 0 1 -85 -78 )">
    <path d="M 14 3  C 14 2.17125  13.3038888888889 1.49999999999999  12.4444444444445 1.49999999999999  L 9.18944444444444 1.49999999999999  C 8.87055555555556 0.629999999999997  8.015 0  7 0  C 5.985 0  5.12944444444445 0.629999999999997  4.81055555555556 1.49999999999999  L 1.55555555555556 1.49999999999999  C 0.696111111111112 1.49999999999999  0 2.17125  0 3  L 0 13.5  C 0 14.32875  0.696111111111112 15  1.55555555555556 15  L 12.4444444444445 15  C 13.3038888888889 15  14 14.32875  14 13.5  L 14 3  Z M 6.22222222222223 2.25000000000001  C 6.22222222222223 1.83375  6.57222222222222 1.49999999999999  7 1.49999999999999  C 7.42777777777777 1.49999999999999  7.77777777777778 1.83375  7.77777777777778 2.25000000000001  C 7.77777777777778 2.66624999999999  7.42777777777777 3  7 3  C 6.57222222222222 3  6.22222222222223 2.66624999999999  6.22222222222223 2.25000000000001  Z M 4.66666666666667 6.75  C 4.66666666666667 5.50875  5.71277777777778 4.5  7 4.5  C 8.28722222222222 4.5  9.33333333333334 5.50875  9.33333333333334 6.75  C 9.33333333333334 7.99500000000001  8.28722222222222 8.99999999999999  7 8.99999999999999  C 5.71277777777778 8.99999999999999  4.66666666666667 7.99500000000001  4.66666666666667 6.75  Z M 11.6666666666667 12.45  L 11.6666666666667 13.5  L 2.33333333333333 13.5  L 2.33333333333333 12.45  C 2.33333333333333 10.95  5.44444444444444 10.125  7 10.125  C 8.55555555555556 10.125  11.6666666666667 10.95  11.6666666666667 12.45  Z " fill-rule="nonzero" fill="#000000" stroke="none" transform="matrix(1 0 0 1 85 78 )" />
  </g>
</svg>