<?xml version="1.0" encoding="utf-8"?>
<svg version="1.1" xmlns:xlink="http://www.w3.org/1999/xlink" width="20px" height="28px" xmlns="http://www.w3.org/2000/svg">
  <g transform="matrix(1 0 0 1 -584 -271 )">
    <path d="M 2.5 14  C 2.5 9.7809090909091  5.85625 6.36363636363637  10 6.36363636363637  L 10 10.1818181818182  L 15 5.09090909090909  L 10 0  L 10 3.81818181818183  C 4.475 3.81818181818183  0 8.37454545454545  0 14  C 0 15.9981818181818  0.575000000000002 17.85  1.55000000000001 19.4218181818182  L 3.37499999999999 17.5636363636364  C 2.81875 16.5009090909091  2.5 15.2918181818182  2.5 14  Z M 20 14  C 20 12.0018181818182  19.425 10.15  18.45 8.57818181818183  L 16.625 10.4363636363636  C 17.18125 11.4990909090909  17.5 12.7081818181818  17.5 14  C 17.5 18.2190909090909  14.14375 21.6363636363636  10 21.6363636363636  L 10 17.8181818181818  L 4.99999999999999 22.9090909090909  L 10 28  L 10 24.1818181818182  C 15.525 24.1818181818182  20 19.6254545454546  20 14  Z " fill-rule="nonzero" fill="#555555" stroke="none" transform="matrix(1 0 0 1 584 271 )" />
  </g>
</svg>