<?xml version="1.0" encoding="utf-8"?>
<svg version="1.1" xmlns:xlink="http://www.w3.org/1999/xlink" width="15px" height="21px" xmlns="http://www.w3.org/2000/svg">
  <g transform="matrix(1 0 0 1 -87 -78 )">
    <path d="M 4.28571428571429 18.9  L 4.28571428571429 19.95  C 4.28571428571429 20.5275  4.76785714285714 21  5.35714285714286 21  L 9.64285714285714 21  C 10.2321428571429 21  10.7142857142857 20.5275  10.7142857142857 19.95  L 10.7142857142857 18.9  L 4.28571428571429 18.9  Z M 15 7.35  C 15 3.29175  11.6410714285714 0  7.5 0  C 3.35892857142857 0  0 3.29175  0 7.35  C 0 9.849  1.275 12.04875  3.21428571428571 13.377  L 3.21428571428571 15.75  C 3.21428571428571 16.3275  3.69642857142857 16.8  4.28571428571429 16.8  L 10.7142857142857 16.8  C 11.3035714285714 16.8  11.7857142857143 16.3275  11.7857142857143 15.75  L 11.7857142857143 13.377  C 13.725 12.04875  15 9.849  15 7.35  Z M 12.8571428571429 7.35525  C 12.8571428571429 9.0615  12 10.668  10.5589285714286 11.655  L 9.64285714285714 12.27975  L 9.64285714285714 14.7  L 5.35714285714286 14.7  L 5.35714285714286 12.285  L 4.44107142857143 11.66025  C 3 10.67325  2.14285714285714 9.06675  2.14285714285714 7.35525  C 2.14285714285714 4.4625  4.54821428571429 2.10525  7.5 2.10525  C 10.4517857142857 2.10525  12.8571428571429 4.4625  12.8571428571429 7.35525  Z " fill-rule="nonzero" fill="#00bfbf" stroke="none" transform="matrix(1 0 0 1 87 78 )" />
  </g>
</svg>