<?xml version="1.0" encoding="utf-8"?>
<svg version="1.1" xmlns:xlink="http://www.w3.org/1999/xlink" width="20px" height="19px" xmlns="http://www.w3.org/2000/svg">
  <defs>
    <mask fill="white" id="clip293">
      <path d="M 20 0  L 20 19  L 0 19  L 0 9  L 10 9  L 10 0  L 20 0  Z M 4.62809917355375 2.90909090909093  L 6.77685950413227 2.90909090909093  C 6.9146005509642 2.90909090909093  7.03168044077136 2.96212121212119  7.12809917355375 3.06818181818181  C 7.22451790633613 3.17424242424244  7.27272727272727 3.30303030303031  7.27272727272727 3.45454545454544  L 7.27272727272727 4.54545454545456  C 7.27272727272727 4.69696969696969  7.22451790633613 4.82575757575756  7.12809917355375 4.93181818181819  C 7.03168044077136 5.03787878787881  6.9146005509642 5.09090909090907  6.77685950413227 5.09090909090907  L 4.62809917355375 5.09090909090907  L 4.62809917355375 7.45454545454544  C 4.62809917355375 7.60606060606062  4.5798898071625 7.7348484848485  4.48347107438012 7.84090909090907  C 4.38705234159784 7.94696969696969  4.26997245179068 8  4.13223140495864 8  L 3.14049586776863 8  C 3.0027548209366 8  2.88567493112944 7.94696969696969  2.78925619834715 7.84090909090907  C 2.69283746556477 7.7348484848485  2.64462809917353 7.60606060606062  2.64462809917353 7.45454545454544  L 2.64462809917353 5.09090909090907  L 0.495867768595004 5.09090909090907  C 0.35812672176307 5.09090909090907  0.24104683195591 5.03787878787881  0.144628099173526 4.93181818181819  C 0.0482093663911407 4.82575757575756  0 4.69696969696969  0 4.54545454545456  L 0 3.45454545454544  C 0 3.30303030303031  0.0482093663911407 3.17424242424244  0.144628099173526 3.06818181818181  C 0.24104683195591 2.96212121212119  0.35812672176307 2.90909090909093  0.495867768595004 2.90909090909093  L 2.64462809917353 2.90909090909093  L 2.64462809917353 0.545454545454561  C 2.64462809917353 0.393939393939377  2.69283746556477 0.265151515151501  2.78925619834715 0.159090909090935  C 2.88567493112944 0.0530303030303116  3.0027548209366 0  3.14049586776863 0  L 4.13223140495864 0  C 4.26997245179068 0  4.38705234159784 0.0530303030303116  4.48347107438012 0.159090909090935  C 4.5798898071625 0.265151515151501  4.62809917355375 0.393939393939377  4.62809917355375 0.545454545454561  L 4.62809917355375 2.90909090909093  Z " fill-rule="evenodd" />
    </mask>
  </defs>
  <g transform="matrix(1 0 0 1 -514 -276 )">
    <path d="M 20 0  L 20 19  L 0 19  L 0 9  L 10 9  L 10 0  L 20 0  Z M 4.62809917355375 2.90909090909093  L 6.77685950413227 2.90909090909093  C 6.9146005509642 2.90909090909093  7.03168044077136 2.96212121212119  7.12809917355375 3.06818181818181  C 7.22451790633613 3.17424242424244  7.27272727272727 3.30303030303031  7.27272727272727 3.45454545454544  L 7.27272727272727 4.54545454545456  C 7.27272727272727 4.69696969696969  7.22451790633613 4.82575757575756  7.12809917355375 4.93181818181819  C 7.03168044077136 5.03787878787881  6.9146005509642 5.09090909090907  6.77685950413227 5.09090909090907  L 4.62809917355375 5.09090909090907  L 4.62809917355375 7.45454545454544  C 4.62809917355375 7.60606060606062  4.5798898071625 7.7348484848485  4.48347107438012 7.84090909090907  C 4.38705234159784 7.94696969696969  4.26997245179068 8  4.13223140495864 8  L 3.14049586776863 8  C 3.0027548209366 8  2.88567493112944 7.94696969696969  2.78925619834715 7.84090909090907  C 2.69283746556477 7.7348484848485  2.64462809917353 7.60606060606062  2.64462809917353 7.45454545454544  L 2.64462809917353 5.09090909090907  L 0.495867768595004 5.09090909090907  C 0.35812672176307 5.09090909090907  0.24104683195591 5.03787878787881  0.144628099173526 4.93181818181819  C 0.0482093663911407 4.82575757575756  0 4.69696969696969  0 4.54545454545456  L 0 3.45454545454544  C 0 3.30303030303031  0.0482093663911407 3.17424242424244  0.144628099173526 3.06818181818181  C 0.24104683195591 2.96212121212119  0.35812672176307 2.90909090909093  0.495867768595004 2.90909090909093  L 2.64462809917353 2.90909090909093  L 2.64462809917353 0.545454545454561  C 2.64462809917353 0.393939393939377  2.69283746556477 0.265151515151501  2.78925619834715 0.159090909090935  C 2.88567493112944 0.0530303030303116  3.0027548209366 0  3.14049586776863 0  L 4.13223140495864 0  C 4.26997245179068 0  4.38705234159784 0.0530303030303116  4.48347107438012 0.159090909090935  C 4.5798898071625 0.265151515151501  4.62809917355375 0.393939393939377  4.62809917355375 0.545454545454561  L 4.62809917355375 2.90909090909093  Z " fill-rule="nonzero" fill="#ffffff" stroke="none" transform="matrix(1 0 0 1 514 276 )" />
    <path d="M 20 0  L 20 19  L 0 19  L 0 9  L 10 9  L 10 0  L 20 0  Z " stroke-width="4" stroke="#555555" fill="none" transform="matrix(1 0 0 1 514 276 )" mask="url(#clip293)" />
    <path d="M 4.62809917355375 2.90909090909093  L 6.77685950413227 2.90909090909093  C 6.9146005509642 2.90909090909093  7.03168044077136 2.96212121212119  7.12809917355375 3.06818181818181  C 7.22451790633613 3.17424242424244  7.27272727272727 3.30303030303031  7.27272727272727 3.45454545454544  L 7.27272727272727 4.54545454545456  C 7.27272727272727 4.69696969696969  7.22451790633613 4.82575757575756  7.12809917355375 4.93181818181819  C 7.03168044077136 5.03787878787881  6.9146005509642 5.09090909090907  6.77685950413227 5.09090909090907  L 4.62809917355375 5.09090909090907  L 4.62809917355375 7.45454545454544  C 4.62809917355375 7.60606060606062  4.5798898071625 7.7348484848485  4.48347107438012 7.84090909090907  C 4.38705234159784 7.94696969696969  4.26997245179068 8  4.13223140495864 8  L 3.14049586776863 8  C 3.0027548209366 8  2.88567493112944 7.94696969696969  2.78925619834715 7.84090909090907  C 2.69283746556477 7.7348484848485  2.64462809917353 7.60606060606062  2.64462809917353 7.45454545454544  L 2.64462809917353 5.09090909090907  L 0.495867768595004 5.09090909090907  C 0.35812672176307 5.09090909090907  0.24104683195591 5.03787878787881  0.144628099173526 4.93181818181819  C 0.0482093663911407 4.82575757575756  0 4.69696969696969  0 4.54545454545456  L 0 3.45454545454544  C 0 3.30303030303031  0.0482093663911407 3.17424242424244  0.144628099173526 3.06818181818181  C 0.24104683195591 2.96212121212119  0.35812672176307 2.90909090909093  0.495867768595004 2.90909090909093  L 2.64462809917353 2.90909090909093  L 2.64462809917353 0.545454545454561  C 2.64462809917353 0.393939393939377  2.69283746556477 0.265151515151501  2.78925619834715 0.159090909090935  C 2.88567493112944 0.0530303030303116  3.0027548209366 0  3.14049586776863 0  L 4.13223140495864 0  C 4.26997245179068 0  4.38705234159784 0.0530303030303116  4.48347107438012 0.159090909090935  C 4.5798898071625 0.265151515151501  4.62809917355375 0.393939393939377  4.62809917355375 0.545454545454561  L 4.62809917355375 2.90909090909093  Z " stroke-width="4" stroke="#555555" fill="none" transform="matrix(1 0 0 1 514 276 )" mask="url(#clip293)" />
  </g>
</svg>