<?xml version="1.0" encoding="utf-8"?>
<svg version="1.1" xmlns:xlink="http://www.w3.org/1999/xlink" width="36px" height="36px" xmlns="http://www.w3.org/2000/svg">
  <g transform="matrix(1 0 0 1 -1226 -86 )">
    <path d="M 1244 86  C 1254.08 86  1262 93.92  1262 104  C 1262 114.08  1254.08 122  1244 122  C 1233.92 122  1226 114.08  1226 104  C 1226 93.92  1233.92 86  1244 86  Z " fill-rule="nonzero" fill="#000000" stroke="none" />
    <path d="M 1244 86.5  C 1253.8 86.5  1261.5 94.2  1261.5 104  C 1261.5 113.8  1253.8 121.5  1244 121.5  C 1234.2 121.5  1226.5 113.8  1226.5 104  C 1226.5 94.2  1234.2 86.5  1244 86.5  Z " stroke-width="1" stroke="#ffffff" fill="none" />
  </g>
</svg>