<?xml version="1.0" encoding="utf-8"?>
<svg version="1.1" xmlns:xlink="http://www.w3.org/1999/xlink" width="18px" height="20px" xmlns="http://www.w3.org/2000/svg">
  <g transform="matrix(1 0 0 1 -28 -97 )">
    <path d="M 12.1153846153846 15.2120535714286  C 12.1153846153846 15.3087797619048  12.0829326923077 15.390625  12.0180288461538 15.4575892857143  L 11.5204326923077 15.9709821428571  C 11.4555288461538 16.0379464285714  11.3762019230769 16.0714285714286  11.2824519230769 16.0714285714286  C 11.1887019230769 16.0714285714286  11.1057692307692 16.0379464285714  11.0336538461538 15.9709821428571  L 9 13.8616071428571  L 6.96634615384615 15.9709821428571  C 6.89423076923077 16.0379464285714  6.81129807692308 16.0714285714286  6.71754807692308 16.0714285714286  C 6.62379807692308 16.0714285714286  6.54447115384615 16.0379464285714  6.47956730769231 15.9709821428571  L 5.98197115384615 15.4575892857143  C 5.91706730769231 15.390625  5.88461538461539 15.3087797619048  5.88461538461539 15.2120535714286  C 5.88461538461539 15.1153273809524  5.91706730769231 15.0297619047619  5.98197115384615 14.9553571428571  L 8.02644230769231 12.8571428571429  L 5.98197115384615 10.7589285714286  C 5.91706730769231 10.6845238095238  5.88461538461539 10.5989583333333  5.88461538461539 10.5022321428571  C 5.88461538461539 10.405505952381  5.91706730769231 10.3236607142857  5.98197115384615 10.2566964285714  L 6.47956730769231 9.74330357142857  C 6.54447115384615 9.67633928571429  6.62379807692308 9.64285714285714  6.71754807692308 9.64285714285714  C 6.81129807692308 9.64285714285714  6.89423076923077 9.67633928571429  6.96634615384615 9.74330357142857  L 9 11.8415178571429  L 11.0336538461538 9.74330357142857  C 11.1057692307692 9.67633928571429  11.1887019230769 9.64285714285714  11.2824519230769 9.64285714285714  C 11.3762019230769 9.64285714285714  11.4555288461538 9.67633928571429  11.5204326923077 9.74330357142857  L 12.0180288461538 10.2566964285714  C 12.0829326923077 10.3236607142857  12.1153846153846 10.405505952381  12.1153846153846 10.5022321428571  C 12.1153846153846 10.5989583333333  12.0829326923077 10.6845238095238  12.0180288461538 10.7589285714286  L 9.984375 12.8571428571429  L 12.0180288461538 14.9553571428571  C 12.0829326923077 15.0297619047619  12.1153846153846 15.1153273809524  12.1153846153846 15.2120535714286  Z M 1.38461538461538 7.14285714285714  L 1.38461538461538 18.5714285714286  L 16.6153846153846 18.5714285714286  L 16.6153846153846 7.14285714285714  L 1.38461538461538 7.14285714285714  Z M 5.44110576923077 5.25669642857143  C 5.50600961538462 5.18973214285714  5.53846153846154 5.10416666666667  5.53846153846154 5  L 5.53846153846154 1.78571428571429  C 5.53846153846154 1.68154761904762  5.50600961538462 1.59598214285714  5.44110576923077 1.52901785714286  C 5.37620192307692 1.46205357142857  5.29326923076923 1.42857142857143  5.19230769230769 1.42857142857143  L 4.5 1.42857142857143  C 4.39903846153846 1.42857142857143  4.31610576923077 1.46205357142857  4.25120192307692 1.52901785714286  C 4.18629807692308 1.59598214285714  4.15384615384615 1.68154761904762  4.15384615384615 1.78571428571429  L 4.15384615384615 5  C 4.15384615384615 5.10416666666667  4.18629807692308 5.18973214285714  4.25120192307692 5.25669642857143  C 4.31610576923077 5.32366071428571  4.39903846153846 5.35714285714286  4.5 5.35714285714286  L 5.19230769230769 5.35714285714286  C 5.29326923076923 5.35714285714286  5.37620192307692 5.32366071428571  5.44110576923077 5.25669642857143  Z M 13.7487980769231 5.25669642857143  C 13.8137019230769 5.18973214285714  13.8461538461538 5.10416666666667  13.8461538461538 5  L 13.8461538461538 1.78571428571429  C 13.8461538461538 1.68154761904762  13.8137019230769 1.59598214285714  13.7487980769231 1.52901785714286  C 13.6838942307692 1.46205357142857  13.6009615384615 1.42857142857143  13.5 1.42857142857143  L 12.8076923076923 1.42857142857143  C 12.7067307692308 1.42857142857143  12.6237980769231 1.46205357142857  12.5588942307692 1.52901785714286  C 12.4939903846154 1.59598214285714  12.4615384615385 1.68154761904762  12.4615384615385 1.78571428571429  L 12.4615384615385 5  C 12.4615384615385 5.10416666666667  12.4939903846154 5.18973214285714  12.5588942307692 5.25669642857143  C 12.6237980769231 5.32366071428571  12.7067307692308 5.35714285714286  12.8076923076923 5.35714285714286  L 13.5 5.35714285714286  C 13.6009615384615 5.35714285714286  13.6838942307692 5.32366071428571  13.7487980769231 5.25669642857143  Z M 17.5889423076923 3.28125  C 17.8629807692308 3.5639880952381  18 3.89880952380952  18 4.28571428571429  L 18 18.5714285714286  C 18 18.9583333333333  17.8629807692308 19.2931547619048  17.5889423076923 19.5758928571429  C 17.3149038461538 19.858630952381  16.9903846153846 20  16.6153846153846 20  L 1.38461538461538 20  C 1.00961538461538 20  0.685096153846154 19.858630952381  0.411057692307692 19.5758928571429  C 0.137019230769231 19.2931547619048  0 18.9583333333333  0 18.5714285714286  L 0 4.28571428571429  C 0 3.89880952380952  0.137019230769231 3.5639880952381  0.411057692307692 3.28125  C 0.685096153846154 2.9985119047619  1.00961538461538 2.85714285714286  1.38461538461538 2.85714285714286  L 2.76923076923077 2.85714285714286  L 2.76923076923077 1.78571428571429  C 2.76923076923077 1.29464285714286  2.93870192307692 0.874255952380951  3.27764423076923 0.524553571428572  C 3.61658653846154 0.174851190476191  4.02403846153846 0  4.5 0  L 5.19230769230769 0  C 5.66826923076923 0  6.07572115384616 0.174851190476191  6.41466346153846 0.524553571428572  C 6.75360576923077 0.874255952380951  6.92307692307692 1.29464285714286  6.92307692307692 1.78571428571429  L 6.92307692307692 2.85714285714286  L 11.0769230769231 2.85714285714286  L 11.0769230769231 1.78571428571429  C 11.0769230769231 1.29464285714286  11.2463942307692 0.874255952380951  11.5853365384615 0.524553571428572  C 11.9242788461538 0.174851190476191  12.3317307692308 0  12.8076923076923 0  L 13.5 0  C 13.9759615384615 0  14.3834134615385 0.174851190476191  14.7223557692308 0.524553571428572  C 15.0612980769231 0.874255952380951  15.2307692307692 1.29464285714286  15.2307692307692 1.78571428571429  L 15.2307692307692 2.85714285714286  L 16.6153846153846 2.85714285714286  C 16.9903846153846 2.85714285714286  17.3149038461538 2.9985119047619  17.5889423076923 3.28125  Z " fill-rule="nonzero" fill="#80ffff" stroke="none" transform="matrix(1 0 0 1 28 97 )" />
  </g>
</svg>