<?xml version="1.0" encoding="utf-8"?>
<svg version="1.1" xmlns:xlink="http://www.w3.org/1999/xlink" width="18px" height="20px" xmlns="http://www.w3.org/2000/svg">
  <g transform="matrix(1 0 0 1 -28 -147 )">
    <path d="M 3.80859375 8.09151785714286  C 5.41796875 8.41145833333334  7.1484375 8.57142857142857  9 8.57142857142857  C 10.8515625 8.57142857142857  12.58203125 8.41145833333334  14.19140625 8.09151785714286  C 15.80078125 7.77157738095238  17.0703125 7.29910714285714  18 6.67410714285714  L 18 8.57142857142857  C 18 9.08482142857143  17.59765625 9.56101190476191  16.79296875 10  C 15.98828125 10.4389880952381  14.89453125 10.7868303571429  13.51171875 11.0435267857143  C 12.12890625 11.3002232142857  10.625 11.4285714285714  9 11.4285714285714  C 7.375 11.4285714285714  5.87109375 11.3002232142857  4.48828125 11.0435267857143  C 3.10546875 10.7868303571429  2.01171875 10.4389880952381  1.20703125 10  C 0.40234375 9.56101190476191  0 9.08482142857143  0 8.57142857142857  L 0 6.67410714285714  C 0.9296875 7.29910714285714  2.19921875 7.77157738095238  3.80859375 8.09151785714286  Z M 3.80859375 16.6629464285714  C 5.41796875 16.9828869047619  7.1484375 17.1428571428571  9 17.1428571428571  C 10.8515625 17.1428571428571  12.58203125 16.9828869047619  14.19140625 16.6629464285714  C 15.80078125 16.343005952381  17.0703125 15.8705357142857  18 15.2455357142857  L 18 17.1428571428571  C 18 17.65625  17.59765625 18.1324404761905  16.79296875 18.5714285714286  C 15.98828125 19.0104166666667  14.89453125 19.3582589285714  13.51171875 19.6149553571429  C 12.12890625 19.8716517857143  10.625 20  9 20  C 7.375 20  5.87109375 19.8716517857143  4.48828125 19.6149553571429  C 3.10546875 19.3582589285714  2.01171875 19.0104166666667  1.20703125 18.5714285714286  C 0.40234375 18.1324404761905  0 17.65625  0 17.1428571428571  L 0 15.2455357142857  C 0.9296875 15.8705357142857  2.19921875 16.343005952381  3.80859375 16.6629464285714  Z M 3.80859375 12.3772321428571  C 5.41796875 12.6971726190476  7.1484375 12.8571428571429  9 12.8571428571429  C 10.8515625 12.8571428571429  12.58203125 12.6971726190476  14.19140625 12.3772321428571  C 15.80078125 12.0572916666667  17.0703125 11.5848214285714  18 10.9598214285714  L 18 12.8571428571429  C 18 13.3705357142857  17.59765625 13.8467261904762  16.79296875 14.2857142857143  C 15.98828125 14.7247023809524  14.89453125 15.0725446428571  13.51171875 15.3292410714286  C 12.12890625 15.5859375  10.625 15.7142857142857  9 15.7142857142857  C 7.375 15.7142857142857  5.87109375 15.5859375  4.48828125 15.3292410714286  C 3.10546875 15.0725446428571  2.01171875 14.7247023809524  1.20703125 14.2857142857143  C 0.40234375 13.8467261904762  0 13.3705357142857  0 12.8571428571429  L 0 10.9598214285714  C 0.9296875 11.5848214285714  2.19921875 12.0572916666667  3.80859375 12.3772321428571  Z M 4.48828125 0.385044642857142  C 5.87109375 0.128348214285714  7.375 0  9 0  C 10.625 0  12.12890625 0.128348214285714  13.51171875 0.385044642857142  C 14.89453125 0.641741071428572  15.98828125 0.989583333333333  16.79296875 1.42857142857143  C 17.59765625 1.86755952380952  18 2.34375  18 2.85714285714286  L 18 4.28571428571429  C 18 4.79910714285714  17.59765625 5.27529761904762  16.79296875 5.71428571428571  C 15.98828125 6.15327380952381  14.89453125 6.50111607142857  13.51171875 6.7578125  C 12.12890625 7.01450892857143  10.625 7.14285714285714  9 7.14285714285714  C 7.375 7.14285714285714  5.87109375 7.01450892857143  4.48828125 6.7578125  C 3.10546875 6.50111607142857  2.01171875 6.15327380952381  1.20703125 5.71428571428571  C 0.40234375 5.27529761904762  0 4.79910714285714  0 4.28571428571429  L 0 2.85714285714286  C 0 2.34375  0.40234375 1.86755952380952  1.20703125 1.42857142857143  C 2.01171875 0.989583333333333  3.10546875 0.641741071428572  4.48828125 0.385044642857142  Z " fill-rule="nonzero" fill="#ffffff" stroke="none" transform="matrix(1 0 0 1 28 147 )" />
  </g>
</svg>