<?xml version="1.0" encoding="utf-8"?>
<svg version="1.1" xmlns:xlink="http://www.w3.org/1999/xlink" width="18px" height="20px" xmlns="http://www.w3.org/2000/svg">
  <g transform="matrix(1 0 0 1 -28 -197 )">
    <path d="M 3.421875 18.2331730769231  C 3.540625 18.0809294871795  3.6 17.900641025641  3.6 17.6923076923077  L 3.6 16.1538461538462  C 3.6 15.9455128205128  3.540625 15.7652243589744  3.421875 15.6129807692308  C 3.303125 15.4607371794872  3.1625 15.3846153846154  3 15.3846153846154  L 1.8 15.3846153846154  C 1.6375 15.3846153846154  1.496875 15.4607371794872  1.378125 15.6129807692308  C 1.259375 15.7652243589744  1.2 15.9455128205128  1.2 16.1538461538462  L 1.2 17.6923076923077  C 1.2 17.900641025641  1.259375 18.0809294871795  1.378125 18.2331730769231  C 1.496875 18.3854166666667  1.6375 18.4615384615385  1.8 18.4615384615385  L 3 18.4615384615385  C 3.1625 18.4615384615385  3.303125 18.3854166666667  3.421875 18.2331730769231  Z M 3.421875 13.6177884615385  C 3.540625 13.4655448717949  3.6 13.2852564102564  3.6 13.0769230769231  L 3.6 11.5384615384615  C 3.6 11.3301282051282  3.540625 11.1498397435897  3.421875 10.9975961538462  C 3.303125 10.8453525641026  3.1625 10.7692307692308  3 10.7692307692308  L 1.8 10.7692307692308  C 1.6375 10.7692307692308  1.496875 10.8453525641026  1.378125 10.9975961538462  C 1.259375 11.1498397435897  1.2 11.3301282051282  1.2 11.5384615384615  L 1.2 13.0769230769231  C 1.2 13.2852564102564  1.259375 13.4655448717949  1.378125 13.6177884615385  C 1.496875 13.770032051282  1.6375 13.8461538461538  1.8 13.8461538461538  L 3 13.8461538461538  C 3.1625 13.8461538461538  3.303125 13.770032051282  3.421875 13.6177884615385  Z M 3.421875 9.00240384615385  C 3.540625 8.85016025641026  3.6 8.66987179487179  3.6 8.46153846153846  L 3.6 6.92307692307692  C 3.6 6.71474358974359  3.540625 6.53445512820513  3.421875 6.38221153846154  C 3.303125 6.22996794871795  3.1625 6.15384615384615  3 6.15384615384615  L 1.8 6.15384615384615  C 1.6375 6.15384615384615  1.496875 6.22996794871795  1.378125 6.38221153846154  C 1.259375 6.53445512820513  1.2 6.71474358974359  1.2 6.92307692307692  L 1.2 8.46153846153846  C 1.2 8.66987179487179  1.259375 8.85016025641026  1.378125 9.00240384615385  C 1.496875 9.15464743589744  1.6375 9.23076923076923  1.8 9.23076923076923  L 3 9.23076923076923  C 3.1625 9.23076923076923  3.303125 9.15464743589744  3.421875 9.00240384615385  Z M 13.021875 18.2331730769231  C 13.140625 18.0809294871795  13.2 17.900641025641  13.2 17.6923076923077  L 13.2 11.5384615384615  C 13.2 11.3301282051282  13.140625 11.1498397435897  13.021875 10.9975961538462  C 12.903125 10.8453525641026  12.7625 10.7692307692308  12.6 10.7692307692308  L 5.4 10.7692307692308  C 5.2375 10.7692307692308  5.096875 10.8453525641026  4.978125 10.9975961538462  C 4.859375 11.1498397435897  4.8 11.3301282051282  4.8 11.5384615384615  L 4.8 17.6923076923077  C 4.8 17.900641025641  4.859375 18.0809294871795  4.978125 18.2331730769231  C 5.096875 18.3854166666667  5.2375 18.4615384615385  5.4 18.4615384615385  L 12.6 18.4615384615385  C 12.7625 18.4615384615385  12.903125 18.3854166666667  13.021875 18.2331730769231  Z M 3.421875 4.38701923076923  C 3.540625 4.23477564102564  3.6 4.05448717948718  3.6 3.84615384615385  L 3.6 2.30769230769231  C 3.6 2.09935897435897  3.540625 1.91907051282051  3.421875 1.76682692307692  C 3.303125 1.61458333333333  3.1625 1.53846153846154  3 1.53846153846154  L 1.8 1.53846153846154  C 1.6375 1.53846153846154  1.496875 1.61458333333333  1.378125 1.76682692307692  C 1.259375 1.91907051282051  1.2 2.09935897435897  1.2 2.30769230769231  L 1.2 3.84615384615385  C 1.2 4.05448717948718  1.259375 4.23477564102564  1.378125 4.38701923076923  C 1.496875 4.53926282051282  1.6375 4.61538461538462  1.8 4.61538461538462  L 3 4.61538461538462  C 3.1625 4.61538461538462  3.303125 4.53926282051282  3.421875 4.38701923076923  Z M 16.621875 18.2331730769231  C 16.740625 18.0809294871795  16.8 17.900641025641  16.8 17.6923076923077  L 16.8 16.1538461538462  C 16.8 15.9455128205128  16.740625 15.7652243589744  16.621875 15.6129807692308  C 16.503125 15.4607371794872  16.3625 15.3846153846154  16.2 15.3846153846154  L 15 15.3846153846154  C 14.8375 15.3846153846154  14.696875 15.4607371794872  14.578125 15.6129807692308  C 14.459375 15.7652243589744  14.4 15.9455128205128  14.4 16.1538461538462  L 14.4 17.6923076923077  C 14.4 17.900641025641  14.459375 18.0809294871795  14.578125 18.2331730769231  C 14.696875 18.3854166666667  14.8375 18.4615384615385  15 18.4615384615385  L 16.2 18.4615384615385  C 16.3625 18.4615384615385  16.503125 18.3854166666667  16.621875 18.2331730769231  Z M 13.021875 9.00240384615385  C 13.140625 8.85016025641026  13.2 8.66987179487179  13.2 8.46153846153846  L 13.2 2.30769230769231  C 13.2 2.09935897435897  13.140625 1.91907051282051  13.021875 1.76682692307692  C 12.903125 1.61458333333333  12.7625 1.53846153846154  12.6 1.53846153846154  L 5.4 1.53846153846154  C 5.2375 1.53846153846154  5.096875 1.61458333333333  4.978125 1.76682692307692  C 4.859375 1.91907051282051  4.8 2.09935897435897  4.8 2.30769230769231  L 4.8 8.46153846153846  C 4.8 8.66987179487179  4.859375 8.85016025641026  4.978125 9.00240384615385  C 5.096875 9.15464743589744  5.2375 9.23076923076923  5.4 9.23076923076923  L 12.6 9.23076923076923  C 12.7625 9.23076923076923  12.903125 9.15464743589744  13.021875 9.00240384615385  Z M 16.621875 13.6177884615385  C 16.740625 13.4655448717949  16.8 13.2852564102564  16.8 13.0769230769231  L 16.8 11.5384615384615  C 16.8 11.3301282051282  16.740625 11.1498397435897  16.621875 10.9975961538462  C 16.503125 10.8453525641026  16.3625 10.7692307692308  16.2 10.7692307692308  L 15 10.7692307692308  C 14.8375 10.7692307692308  14.696875 10.8453525641026  14.578125 10.9975961538462  C 14.459375 11.1498397435897  14.4 11.3301282051282  14.4 11.5384615384615  L 14.4 13.0769230769231  C 14.4 13.2852564102564  14.459375 13.4655448717949  14.578125 13.6177884615385  C 14.696875 13.770032051282  14.8375 13.8461538461538  15 13.8461538461538  L 16.2 13.8461538461538  C 16.3625 13.8461538461538  16.503125 13.770032051282  16.621875 13.6177884615385  Z M 16.621875 9.00240384615385  C 16.740625 8.85016025641026  16.8 8.66987179487179  16.8 8.46153846153846  L 16.8 6.92307692307692  C 16.8 6.71474358974359  16.740625 6.53445512820513  16.621875 6.38221153846154  C 16.503125 6.22996794871795  16.3625 6.15384615384615  16.2 6.15384615384615  L 15 6.15384615384615  C 14.8375 6.15384615384615  14.696875 6.22996794871795  14.578125 6.38221153846154  C 14.459375 6.53445512820513  14.4 6.71474358974359  14.4 6.92307692307692  L 14.4 8.46153846153846  C 14.4 8.66987179487179  14.459375 8.85016025641026  14.578125 9.00240384615385  C 14.696875 9.15464743589744  14.8375 9.23076923076923  15 9.23076923076923  L 16.2 9.23076923076923  C 16.3625 9.23076923076923  16.503125 9.15464743589744  16.621875 9.00240384615385  Z M 16.621875 4.38701923076923  C 16.740625 4.23477564102564  16.8 4.05448717948718  16.8 3.84615384615385  L 16.8 2.30769230769231  C 16.8 2.09935897435897  16.740625 1.91907051282051  16.621875 1.76682692307692  C 16.503125 1.61458333333333  16.3625 1.53846153846154  16.2 1.53846153846154  L 15 1.53846153846154  C 14.8375 1.53846153846154  14.696875 1.61458333333333  14.578125 1.76682692307692  C 14.459375 1.91907051282051  14.4 2.09935897435897  14.4 2.30769230769231  L 14.4 3.84615384615385  C 14.4 4.05448717948718  14.459375 4.23477564102564  14.578125 4.38701923076923  C 14.696875 4.53926282051282  14.8375 4.61538461538462  15 4.61538461538462  L 16.2 4.61538461538462  C 16.3625 4.61538461538462  16.503125 4.53926282051282  16.621875 4.38701923076923  Z M 17.559375 0.564903846153846  C 17.853125 0.94150641025641  18 1.39423076923077  18 1.92307692307692  L 18 18.0769230769231  C 18 18.6057692307692  17.853125 19.0584935897436  17.559375 19.4350961538462  C 17.265625 19.8116987179487  16.9125 20  16.5 20  L 1.5 20  C 1.0875 20  0.734375 19.8116987179487  0.440625 19.4350961538462  C 0.146875 19.0584935897436  0 18.6057692307692  0 18.0769230769231  L 0 1.92307692307692  C 0 1.39423076923077  0.146875 0.94150641025641  0.440625 0.564903846153846  C 0.734375 0.18830128205128  1.0875 0  1.5 0  L 16.5 0  C 16.9125 0  17.265625 0.18830128205128  17.559375 0.564903846153846  Z " fill-rule="nonzero" fill="#ffffff" stroke="none" transform="matrix(1 0 0 1 28 197 )" />
  </g>
</svg>