<?xml version="1.0" encoding="utf-8"?>
<svg version="1.1" xmlns:xlink="http://www.w3.org/1999/xlink" width="18px" height="20px" xmlns="http://www.w3.org/2000/svg">
  <g transform="matrix(1 0 0 1 -28 -297 )">
    <path d="M 12.2845982142857 11.2109375  C 12.4051339285714 11.5147569444444  12.5959821428571 11.6666666666667  12.8571428571429 11.6666666666667  L 15.9207589285714 11.6666666666667  C 15.8872767857143 11.71875  15.8537946428571 11.7643229166667  15.8203125 11.8033854166667  C 15.7868303571429 11.8424479166667  15.7566964285714 11.875  15.7299107142857 11.9010416666667  L 15.6997767857143 11.953125  L 9.44196428571428 19.765625  C 9.32142857142857 19.921875  9.17410714285714 20  9 20  C 8.82589285714286 20  8.67857142857143 19.921875  8.55803571428571 19.765625  L 2.29017857142857 11.9270833333333  C 2.25669642857143 11.9097222222222  2.18638392857143 11.8229166666667  2.07924107142857 11.6666666666667  L 5.78571428571429 11.6666666666667  C 5.93303571428572 11.6666666666667  6.06529017857143 11.6080729166667  6.18247767857143 11.4908854166667  C 6.29966517857143 11.3736979166667  6.375 11.2239583333333  6.40848214285714 11.0416666666667  L 7.11160714285714 7.3828125  L 9.02008928571428 16.0677083333333  C 9.06026785714286 16.2413194444444  9.13727678571429 16.3845486111111  9.25111607142857 16.4973958333333  C 9.36495535714286 16.6102430555556  9.49553571428572 16.6666666666667  9.64285714285714 16.6666666666667  C 9.78348214285714 16.6666666666667  9.91071428571429 16.6102430555556  10.0245535714286 16.4973958333333  C 10.1383928571429 16.3845486111111  10.2154017857143 16.2413194444444  10.2555803571429 16.0677083333333  L 11.7220982142857 9.75260416666667  L 12.2845982142857 11.2109375  Z M 16.7243303571429 1.61458333333333  C 17.5747767857143 2.69097222222222  18 4.18402777777778  18 6.09375  C 18 7.35243055555555  17.6551339285714 8.65451388888889  16.9654017857143 10  L 13.2589285714286 10  L 12.1439732142857 7.12239583333333  C 12.0904017857143 6.97482638888889  12.0050223214286 6.85763888888889  11.8878348214286 6.77083333333333  C 11.7706473214286 6.68402777777778  11.6484375 6.64930555555555  11.5212053571429 6.66666666666667  C 11.2198660714286 6.71006944444444  11.0323660714286 6.90972222222222  10.9587053571429 7.265625  L 9.66294642857143 12.8645833333333  L 7.69419642857143 3.93229166666667  C 7.65401785714286 3.75868055555555  7.57533482142857 3.61545138888889  7.45814732142857 3.50260416666667  C 7.34095982142857 3.38975694444444  7.20870535714286 3.33333333333333  7.06138392857143 3.33333333333333  C 6.9140625 3.33333333333333  6.78348214285714 3.39192708333333  6.66964285714286 3.50911458333333  C 6.55580357142857 3.62630208333333  6.48214285714286 3.77604166666667  6.44866071428571 3.95833333333333  L 5.28348214285714 10  L 1.03459821428571 10  C 0.344866071428571 8.65451388888889  0 7.35243055555555  0 6.09375  C 0 4.18402777777778  0.425223214285714 2.69097222222222  1.27566964285714 1.61458333333333  C 2.12611607142857 0.538194444444444  3.30133928571429 0  4.80133928571429 0  C 5.21651785714286 0  5.64006696428571 0.093315972222221  6.07198660714286 0.279947916666667  C 6.50390625 0.466579861111109  6.90569196428571 0.718315972222221  7.27734375 1.03515625  C 7.64899553571429 1.35199652777778  7.96875 1.64930555555555  8.23660714285714 1.92708333333333  C 8.50446428571429 2.20486111111111  8.75892857142857 2.5  9 2.8125  C 9.24107142857143 2.5  9.49553571428572 2.20486111111111  9.76339285714286 1.92708333333333  C 10.03125 1.64930555555555  10.3510044642857 1.35199652777778  10.72265625 1.03515625  C 11.0943080357143 0.718315972222221  11.49609375 0.466579861111109  11.9280133928571 0.279947916666667  C 12.3599330357143 0.093315972222221  12.7834821428571 0  13.1986607142857 0  C 14.6986607142857 0  15.8738839285714 0.538194444444444  16.7243303571429 1.61458333333333  Z " fill-rule="nonzero" fill="#ffffff" stroke="none" transform="matrix(1 0 0 1 28 297 )" />
  </g>
</svg>