<?xml version="1.0" encoding="utf-8"?>
<svg version="1.1" xmlns:xlink="http://www.w3.org/1999/xlink" width="18px" height="20px" xmlns="http://www.w3.org/2000/svg">
  <g transform="matrix(1 0 0 1 -28 -247 )">
    <path d="M 7.34375 11.6666666666667  L 9.98958333333333 11.6666666666667  L 10.65625 8.33333333333333  L 8.01041666666667 8.33333333333333  L 7.34375 11.6666666666667  Z M 17.9270833333333 4.73958333333333  C 17.9895833333333 4.84375  18.0104166666667 4.96527777777778  17.9895833333333 5.10416666666667  L 17.40625 8.02083333333333  C 17.3576388888889 8.22916666666667  17.25 8.33333333333333  17.0833333333333 8.33333333333333  L 13.6770833333333 8.33333333333333  L 13.0104166666667 11.6666666666667  L 16.25 11.6666666666667  C 16.3541666666667 11.6666666666667  16.4409722222222 11.71875  16.5104166666667 11.8229166666667  C 16.5798611111111 11.9444444444444  16.6006944444444 12.0659722222222  16.5729166666667 12.1875  L 15.9895833333333 15.1041666666667  C 15.9548611111111 15.3125  15.8472222222222 15.4166666666667  15.6666666666667 15.4166666666667  L 12.2604166666667 15.4166666666667  L 11.4166666666667 19.6875  C 11.3680555555556 19.8958333333333  11.2604166666667 20  11.09375 20  L 8.76041666666667 20  C 8.64930555555556 20  8.55902777777778 19.9479166666667  8.48958333333333 19.84375  C 8.42708333333333 19.7395833333333  8.40625 19.6180555555556  8.42708333333333 19.4791666666667  L 9.23958333333333 15.4166666666667  L 6.59375 15.4166666666667  L 5.75 19.6875  C 5.70138888888889 19.8958333333333  5.59375 20  5.42708333333333 20  L 3.08333333333333 20  C 2.97916666666667 20  2.89236111111111 19.9479166666667  2.82291666666667 19.84375  C 2.76041666666667 19.7395833333333  2.73958333333333 19.6180555555556  2.76041666666667 19.4791666666667  L 3.57291666666667 15.4166666666667  L 0.333333333333333 15.4166666666667  C 0.229166666666667 15.4166666666667  0.142361111111111 15.3645833333333  0.0729166666666667 15.2604166666667  C 0.0104166666666667 15.15625  -0.0104166666666666 15.0347222222222  0.0104166666666667 14.8958333333333  L 0.59375 11.9791666666667  C 0.642361111111111 11.7708333333333  0.75 11.6666666666667  0.916666666666667 11.6666666666667  L 4.32291666666667 11.6666666666667  L 4.98958333333333 8.33333333333333  L 1.75 8.33333333333333  C 1.64583333333333 8.33333333333333  1.55902777777778 8.28125  1.48958333333333 8.17708333333333  C 1.42013888888889 8.05555555555556  1.39930555555556 7.93402777777778  1.42708333333333 7.8125  L 2.01041666666667 4.89583333333333  C 2.04513888888889 4.6875  2.15277777777778 4.58333333333333  2.33333333333333 4.58333333333333  L 5.73958333333333 4.58333333333333  L 6.58333333333333 0.3125  C 6.63194444444445 0.104166666666667  6.74305555555556 0  6.91666666666667 0  L 9.25 0  C 9.35416666666667 0  9.44097222222222 0.0520833333333326  9.51041666666667 0.15625  C 9.57291666666667 0.260416666666667  9.59375 0.381944444444444  9.57291666666667 0.520833333333333  L 8.76041666666667 4.58333333333333  L 11.40625 4.58333333333333  L 12.25 0.3125  C 12.2986111111111 0.104166666666667  12.4097222222222 0  12.5833333333333 0  L 14.9166666666667 0  C 15.0208333333333 0  15.1076388888889 0.0520833333333326  15.1770833333333 0.15625  C 15.2395833333333 0.260416666666667  15.2604166666667 0.381944444444444  15.2395833333333 0.520833333333333  L 14.4270833333333 4.58333333333333  L 17.6666666666667 4.58333333333333  C 17.7708333333333 4.58333333333333  17.8576388888889 4.63541666666667  17.9270833333333 4.73958333333333  Z " fill-rule="nonzero" fill="#ffffff" stroke="none" transform="matrix(1 0 0 1 28 247 )" />
  </g>
</svg>