<?xml version="1.0" encoding="utf-8"?>
<svg version="1.1" xmlns:xlink="http://www.w3.org/1999/xlink" width="18px" height="20px" xmlns="http://www.w3.org/2000/svg">
  <g transform="matrix(1 0 0 1 -28 -447 )">
    <path d="M 14.2734375 12.7232142857143  C 14.3578125 13.125  14.4 13.5639880952381  14.4 14.0401785714286  C 14.4 14.516369047619  14.2265625 14.9144345238095  13.8796875 15.234375  C 13.5328125 15.5543154761905  13.10625 15.7142857142857  12.6 15.7142857142857  L 5.4 15.7142857142857  C 4.89375 15.7142857142857  4.4671875 15.5543154761905  4.1203125 15.234375  C 3.7734375 14.9144345238095  3.6 14.516369047619  3.6 14.0401785714286  C 3.6 13.5639880952381  3.6421875 13.125  3.7265625 12.7232142857143  C 3.8109375 12.3214285714286  3.94921875 11.9345238095238  4.14140625 11.5625  C 4.33359375 11.1904761904762  4.61953125 10.8984375  4.99921875 10.6863839285714  C 5.37890625 10.4743303571429  5.83125 10.3683035714286  6.35625 10.3683035714286  C 7.10625 10.9263392857143  7.9875 11.2053571428571  9 11.2053571428571  C 10.0125 11.2053571428571  10.89375 10.9263392857143  11.64375 10.3683035714286  C 12.16875 10.3683035714286  12.62109375 10.4743303571429  13.00078125 10.6863839285714  C 13.38046875 10.8984375  13.66640625 11.1904761904762  13.85859375 11.5625  C 14.05078125 11.9345238095238  14.1890625 12.3214285714286  14.2734375 12.7232142857143  Z M 11.28515625 6.45647321428571  C 11.91796875 6.95126488095238  12.234375 7.54836309523809  12.234375 8.24776785714286  C 12.234375 8.94717261904762  11.91796875 9.54427083333333  11.28515625 10.0390625  C 10.65234375 10.5338541666667  9.890625 10.78125  9 10.78125  C 8.109375 10.78125  7.34765625 10.5338541666667  6.71484375 10.0390625  C 6.08203125 9.54427083333333  5.765625 8.94717261904762  5.765625 8.24776785714286  C 5.765625 7.54836309523809  6.08203125 6.95126488095238  6.71484375 6.45647321428571  C 7.34765625 5.96168154761905  8.109375 5.71428571428571  9 5.71428571428571  C 9.890625 5.71428571428571  10.65234375 5.96168154761905  11.28515625 6.45647321428571  Z M 16.06640625 18.4654017857143  C 16.15546875 18.3947172619048  16.2 18.3110119047619  16 18.2142857142857  L 16 3  L 2 3  L 2 18.2142857142857  C 1.8 18.3110119047619  1.84453125 18.3947172619048  1.93359375 18.4654017857143  C 2.02265625 18.5360863095238  2.128125 18.5714285714286  2.25 18.5714285714286  L 15.75 18.5714285714286  C 15.871875 18.5714285714286  15.97734375 18.5360863095238  16.06640625 18.4654017857143  Z M 17.3390625 0.524553571428572  C 17.7796875 0.874255952380951  18 1.29464285714286  18 1.78571428571429  L 18 18.2142857142857  C 18 18.7053571428571  17.7796875 19.125744047619  17.3390625 19.4754464285714  C 16.8984375 19.8251488095238  16.36875 20  15.75 20  L 2.25 20  C 1.63125 20  1.1015625 19.8251488095238  0.6609375 19.4754464285714  C 0.2203125 19.125744047619  0 18.7053571428571  0 18.2142857142857  L 0 1.78571428571429  C 0 1.29464285714286  0.2203125 0.874255952380951  0.6609375 0.524553571428572  C 1.1015625 0.174851190476191  1.63125 0  2.25 0  L 7.2 0  L 7.2 1.07142857142857  C 7.2 1.17559523809524  7.2421875 1.26116071428571  7.3265625 1.328125  C 7.4109375 1.39508928571429  7.51875 1.42857142857143  7.65 1.42857142857143  L 10.35 1.42857142857143  C 10.48125 1.42857142857143  10.5890625 1.39508928571429  10.6734375 1.328125  C 10.7578125 1.26116071428571  10.8 1.17559523809524  10.8 1.07142857142857  L 10.8 0  L 15.75 0  C 16.36875 0  16.8984375 0.174851190476191  17.3390625 0.524553571428572  Z " fill-rule="nonzero" fill="#ffffff" stroke="none" transform="matrix(1 0 0 1 28 447 )" />
  </g>
</svg>