<?xml version="1.0" encoding="utf-8"?>
<svg version="1.1" xmlns:xlink="http://www.w3.org/1999/xlink" width="18px" height="20px" xmlns="http://www.w3.org/2000/svg">
  <g transform="matrix(1 0 0 1 -28 -347 )">
    <path d="M 18 0  L 18 4.28571428571429  L 16.875 4.28571428571429  L 16.875 15.7142857142857  L 18 15.7142857142857  L 18 20  L 14.625 20  L 14.625 18.5714285714286  L 3.375 18.5714285714286  L 3.375 20  L 0 20  L 0 15.7142857142857  L 1.125 15.7142857142857  L 1.125 4.28571428571429  L 0 4.28571428571429  L 0 0  L 3.375 0  L 3.375 1.42857142857143  L 14.625 1.42857142857143  L 14.625 0  L 18 0  Z M 16.875 1.42857142857143  L 15.75 1.42857142857143  L 15.75 2.85714285714286  L 16.875 2.85714285714286  L 16.875 1.42857142857143  Z M 2.25 1.42857142857143  L 1.125 1.42857142857143  L 1.125 2.85714285714286  L 2.25 2.85714285714286  L 2.25 1.42857142857143  Z M 1.125 18.5714285714286  L 2.25 18.5714285714286  L 2.25 17.1428571428571  L 1.125 17.1428571428571  L 1.125 18.5714285714286  Z M 3.375 17  L 14.625 17  L 14.625 15.7142857142857  L 15.75 15.7142857142857  L 15.75 4.28571428571429  L 14.625 4.28571428571429  L 14.625 3  L 3.375 3  L 3.375 4.28571428571429  L 2.25 4.28571428571429  L 2.25 15.7142857142857  L 3.375 15.7142857142857  L 3.375 17  Z M 15.75 18.5714285714286  L 16.875 18.5714285714286  L 16.875 17.1428571428571  L 15.75 17.1428571428571  L 15.75 18.5714285714286  Z M 11.25 4.28571428571429  L 11.25 7.14285714285714  L 14.625 7.14285714285714  L 14.625 15.7142857142857  L 6.75 15.7142857142857  L 6.75 12.8571428571429  L 3.375 12.8571428571429  L 3.375 4.28571428571429  L 11.25 4.28571428571429  Z M 4.5 5.71428571428571  L 4.5 11.4285714285714  L 10.125 11.4285714285714  L 10.125 5.71428571428571  L 4.5 5.71428571428571  Z M 7.875 14.2857142857143  L 13.5 14.2857142857143  L 13.5 8.57142857142857  L 11.25 8.57142857142857  L 11.25 12.8571428571429  L 7.875 12.8571428571429  L 7.875 14.2857142857143  Z " fill-rule="nonzero" fill="#ffffff" stroke="none" transform="matrix(1 0 0 1 28 347 )" />
  </g>
</svg>