<?xml version="1.0" encoding="utf-8"?>
<svg version="1.1" xmlns:xlink="http://www.w3.org/1999/xlink" width="18px" height="20px" xmlns="http://www.w3.org/2000/svg">
  <g transform="matrix(1 0 0 1 -28 -397 )">
    <path d="M 17.4705882352941 12.8571428571429  L 14.2941176470588 5  L 11.1176470588235 12.8571428571429  L 17.4705882352941 12.8571428571429  Z M 6.88235294117647 12.8571428571429  L 3.70588235294118 5  L 0.529411764705882 12.8571428571429  L 6.88235294117647 12.8571428571429  Z M 14.5588235294118 2.85714285714286  L 10.4972426470588 2.85714285714286  C 10.4200367647059 3.1547619047619  10.2945772058824 3.42075892857143  10.1208639705882 3.65513392857143  C 9.94715073529412 3.88950892857143  9.75 4.05877976190476  9.52941176470588 4.16294642857143  L 9.52941176470588 18.5714285714286  L 14.5588235294118 18.5714285714286  C 14.6360294117647 18.5714285714286  14.6994485294118 18.6049107142857  14.7490808823529 18.671875  C 14.7987132352941 18.7388392857143  14.8235294117647 18.8244047619048  14.8235294117647 18.9285714285714  L 14.8235294117647 19.6428571428571  C 14.8235294117647 19.7470238095238  14.7987132352941 19.8325892857143  14.7490808823529 19.8995535714286  C 14.6994485294118 19.9665178571429  14.6360294117647 20  14.5588235294118 20  L 3.44117647058824 20  C 3.36397058823529 20  3.30055147058824 19.9665178571429  3.25091911764706 19.8995535714286  C 3.20128676470588 19.8325892857143  3.17647058823529 19.7470238095238  3.17647058823529 19.6428571428571  L 3.17647058823529 18.9285714285714  C 3.17647058823529 18.8244047619048  3.20128676470588 18.7388392857143  3.25091911764706 18.671875  C 3.30055147058824 18.6049107142857  3.36397058823529 18.5714285714286  3.44117647058824 18.5714285714286  L 8.47058823529412 18.5714285714286  L 8.47058823529412 4.16294642857143  C 8.25 4.05877976190476  8.05284926470588 3.88950892857143  7.87913602941176 3.65513392857143  C 7.70542279411765 3.42075892857143  7.57996323529412 3.1547619047619  7.50275735294118 2.85714285714286  L 3.44117647058824 2.85714285714286  C 3.36397058823529 2.85714285714286  3.30055147058824 2.82366071428571  3.25091911764706 2.75669642857143  C 3.20128676470588 2.68973214285714  3.17647058823529 2.60416666666667  3.17647058823529 2.5  L 3.17647058823529 1.78571428571429  C 3.17647058823529 1.68154761904762  3.20128676470588 1.59598214285714  3.25091911764706 1.52901785714286  C 3.30055147058824 1.46205357142857  3.36397058823529 1.42857142857143  3.44117647058824 1.42857142857143  L 7.50275735294118 1.42857142857143  C 7.61856617647059 1.00446428571429  7.81158088235294 0.660342261904761  8.08180147058824 0.396205357142858  C 8.35202205882353 0.132068452380953  8.65808823529412 0  9 0  C 9.34191176470588 0  9.64797794117647 0.132068452380953  9.91819852941176 0.396205357142858  C 10.1884191176471 0.660342261904761  10.3814338235294 1.00446428571429  10.4972426470588 1.42857142857143  L 14.5588235294118 1.42857142857143  C 14.6360294117647 1.42857142857143  14.6994485294118 1.46205357142857  14.7490808823529 1.52901785714286  C 14.7987132352941 1.59598214285714  14.8235294117647 1.68154761904762  14.8235294117647 1.78571428571429  L 14.8235294117647 2.5  C 14.8235294117647 2.60416666666667  14.7987132352941 2.68973214285714  14.7490808823529 2.75669642857143  C 14.6994485294118 2.82366071428571  14.6360294117647 2.85714285714286  14.5588235294118 2.85714285714286  Z M 8.53262867647059 2.7734375  C 8.66222426470588 2.94828869047619  8.81801470588235 3.03571428571429  9 3.03571428571429  C 9.18198529411765 3.03571428571429  9.33777573529412 2.94828869047619  9.46737132352941 2.7734375  C 9.59696691176471 2.59858630952381  9.66176470588235 2.38839285714286  9.66176470588235 2.14285714285714  C 9.66176470588235 1.89732142857143  9.59696691176471 1.68712797619047  9.46737132352941 1.51227678571429  C 9.33777573529412 1.3374255952381  9.18198529411765 1.25  9 1.25  C 8.81801470588235 1.25  8.66222426470588 1.3374255952381  8.53262867647059 1.51227678571429  C 8.4030330882353 1.68712797619047  8.33823529411765 1.89732142857143  8.33823529411765 2.14285714285714  C 8.33823529411765 2.38839285714286  8.4030330882353 2.59858630952381  8.53262867647059 2.7734375  Z M 17.7104779411765 11.953125  C 17.9034926470588 12.4739583333333  18 12.7752976190476  18 12.8571428571429  C 18 13.4002976190476  17.8717830882353 13.8876488095238  17.6153492647059 14.3191964285714  C 17.3589154411765 14.750744047619  17.0349264705882 15.0892857142857  16.6433823529412 15.3348214285714  C 16.2518382352941 15.5803571428571  15.8534007352941 15.7645089285714  15.4480698529412 15.8872767857143  C 15.0427389705882 16.0100446428571  14.6580882352941 16.0714285714286  14.2941176470588 16.0714285714286  C 13.9301470588235 16.0714285714286  13.5454963235294 16.0100446428571  13.1401654411765 15.8872767857143  C 12.7348345588235 15.7645089285714  12.3363970588235 15.5803571428571  11.9448529411765 15.3348214285714  C 11.5533088235294 15.0892857142857  11.2293198529412 14.750744047619  10.9728860294118 14.3191964285714  C 10.7164522058824 13.8876488095238  10.5882352941176 13.4002976190476  10.5882352941176 12.8571428571429  C 10.5882352941176 12.7752976190476  10.6847426470588 12.4739583333333  10.8777573529412 11.953125  C 11.0707720588235 11.4322916666667  11.3244485294118 10.7831101190476  11.6387867647059 10.0055803571429  C 11.953125 9.22805059523809  12.2481617647059 8.50074404761905  12.5238970588235 7.82366071428571  C 12.7996323529412 7.14657738095238  13.0808823529412 6.46205357142857  13.3676470588235 5.77008928571429  C 13.6544117647059 5.078125  13.8088235294118 4.70610119047619  13.8308823529412 4.65401785714286  C 13.9301470588235 4.40848214285714  14.0845588235294 4.28571428571429  14.2941176470588 4.28571428571429  C 14.5036764705882 4.28571428571429  14.6580882352941 4.40848214285714  14.7573529411765 4.65401785714286  C 14.7794117647059 4.70610119047619  14.9338235294118 5.078125  15.2205882352941 5.77008928571429  C 15.5073529411765 6.46205357142857  15.7886029411765 7.14657738095238  16.0643382352941 7.82366071428571  C 16.3400735294118 8.50074404761905  16.6351102941176 9.22805059523809  16.9494485294118 10.0055803571429  C 17.2637867647059 10.7831101190476  17.5174632352941 11.4322916666667  17.7104779411765 11.953125  Z M 7.12224264705882 11.953125  C 7.31525735294118 12.4739583333333  7.41176470588235 12.7752976190476  7.41176470588235 12.8571428571429  C 7.41176470588235 13.4002976190476  7.28354779411765 13.8876488095238  7.02711397058824 14.3191964285714  C 6.77068014705882 14.750744047619  6.44669117647059 15.0892857142857  6.05514705882353 15.3348214285714  C 5.66360294117647 15.5803571428571  5.26516544117647 15.7645089285714  4.85983455882353 15.8872767857143  C 4.45450367647059 16.0100446428571  4.06985294117647 16.0714285714286  3.70588235294118 16.0714285714286  C 3.34191176470588 16.0714285714286  2.95726102941176 16.0100446428571  2.55193014705882 15.8872767857143  C 2.14659926470588 15.7645089285714  1.74816176470588 15.5803571428571  1.35661764705882 15.3348214285714  C 0.965073529411765 15.0892857142857  0.641084558823529 14.750744047619  0.384650735294118 14.3191964285714  C 0.128216911764706 13.8876488095238  0 13.4002976190476  0 12.8571428571429  C 0 12.7752976190476  0.0965073529411765 12.4739583333333  0.289522058823529 11.953125  C 0.482536764705882 11.4322916666667  0.736213235294118 10.7831101190476  1.05055147058824 10.0055803571429  C 1.36488970588235 9.22805059523809  1.65992647058824 8.50074404761905  1.93566176470588 7.82366071428571  C 2.21139705882353 7.14657738095238  2.49264705882353 6.46205357142857  2.77941176470588 5.77008928571429  C 3.06617647058824 5.078125  3.22058823529412 4.70610119047619  3.24264705882353 4.65401785714286  C 3.34191176470588 4.40848214285714  3.49632352941176 4.28571428571429  3.70588235294118 4.28571428571429  C 3.91544117647059 4.28571428571429  4.06985294117647 4.40848214285714  4.16911764705882 4.65401785714286  C 4.19117647058824 4.70610119047619  4.34558823529412 5.078125  4.63235294117647 5.77008928571429  C 4.91911764705882 6.46205357142857  5.20036764705882 7.14657738095238  5.47610294117647 7.82366071428571  C 5.75183823529412 8.50074404761905  6.046875 9.22805059523809  6.36121323529412 10.0055803571429  C 6.67555147058824 10.7831101190476  6.92922794117647 11.4322916666667  7.12224264705882 11.953125  Z " fill-rule="nonzero" fill="#ffffff" stroke="none" transform="matrix(1 0 0 1 28 397 )" />
  </g>
</svg>