<?xml version="1.0" encoding="utf-8"?>
<svg version="1.1" xmlns:xlink="http://www.w3.org/1999/xlink" width="50px" height="50px" xmlns="http://www.w3.org/2000/svg">
  <defs>
    <linearGradient gradientUnits="userSpaceOnUse" x1="0" y1="25.9285714285714" x2="46.7499999999999" y2="25.9285714285714" id="LinearGradient683">
      <stop id="Stop684" stop-color="#d7d7d7" offset="0" />
      <stop id="Stop685" stop-color="#555555" offset="1" />
    </linearGradient>
  </defs>
  <g transform="matrix(1 0 0 1 -1 -2 )">
    <path d="M 49.2522756827048 20.6111833550065  L 44.7659297789337 25  L 49.2522756827048 29.3888166449935  C 49.9024707412224 29.9956653662765  50.1192024273949 30.7542262678804  49.9024707412224 31.6644993498049  C 49.6423927178153 32.5530992631123  49.0788903337668 33.1057650628522  48.2119635890767 33.3224967490247  L 42.1001300390117 34.8829648894668  L 43.8231469440832 40.9297789336801  C 44.0832249674902 41.8183788469874  43.8773298656264 42.5769397485912  43.2054616384915 43.2054616384915  C 42.5769397485912 43.8773298656264  41.8183788469874 44.0832249674902  40.9297789336801 43.8231469440832  L 34.8829648894668 42.1001300390117  L 33.3224967490247 48.2119635890767  C 33.1057650628522 49.0788903337668  32.5530992631123 49.6423927178153  31.6644993498049 49.9024707412224  C 31.4044213263979 49.9458170784569  31.198526224534 49.9674902470741  31.0468140442133 49.9674902470741  C 30.3749458170785 49.9674902470741  29.8222800173385 49.7290853922844  29.3888166449935 49.2522756827048  L 25 44.7659297789337  L 20.6111833550065 49.2522756827048  C 20.0043346337235 49.9024707412224  19.2457737321196 50.1192024273949  18.3355006501951 49.9024707412224  C 17.4469007368877 49.6640658864326  16.8942349371478 49.100563502384  16.6775032509753 48.2119635890767  L 15.1170351105332 42.1001300390117  L 9.0702210663199 43.8231469440832  C 8.18162115301257 44.0832249674902  7.42306025140876 43.8773298656264  6.79453836150845 43.2054616384915  C 6.12267013437365 42.5769397485912  5.91677503250975 41.8183788469874  6.17685305591677 40.9297789336801  L 7.8998699609883 34.8829648894668  L 1.78803641092328 33.3224967490247  C 0.921109666233203 33.1057650628522  0.357607282184655 32.5530992631123  0.0975292587776333 31.6644993498049  C -0.119202427394885 30.7542262678804  0.0975292587776333 29.9956653662765  0.747724317295189 29.3888166449935  L 5.23407022106632 25  L 0.747724317295189 20.6111833550065  C 0.0975292587776333 20.0043346337234  -0.119202427394885 19.2457737321196  0.0975292587776333 18.3355006501951  C 0.357607282184655 17.4469007368877  0.921109666233203 16.8942349371478  1.78803641092328 16.6775032509753  L 7.8998699609883 15.1170351105332  L 6.17685305591677 9.0702210663199  C 5.91677503250975 8.18162115301256  6.12267013437365 7.42306025140875  6.79453836150845 6.79453836150845  C 7.42306025140876 6.12267013437364  8.18162115301257 5.91677503250975  9.0702210663199 6.17685305591678  L 15.1170351105332 7.8998699609883  L 16.6775032509753 1.78803641092328  C 16.8942349371478 0.899436497615946  17.4469007368877 0.346770697876025  18.3355006501951 0.130039011703509  C 19.2241005635024 -0.130039011703509  19.9826614651062 0.0758560901603811  20.6111833550065 0.74772431729519  L 25 5.2665799739922  L 29.3888166449935 0.74772431729519  C 30.0173385348938 0.0975292587776344  30.7758994364976 -0.108365843086267  31.6644993498049 0.130039011703509  C 32.5530992631123 0.346770697876025  33.1057650628522 0.899436497615946  33.3224967490247 1.78803641092328  L 34.8829648894668 7.8998699609883  L 40.9297789336801 6.17685305591678  C 41.8183788469874 5.91677503250975  42.5769397485912 6.12267013437364  43.2054616384915 6.79453836150845  C 43.8773298656264 7.42306025140875  44.0832249674902 8.18162115301256  43.8231469440832 9.0702210663199  L 42.1001300390117 15.1170351105332  L 48.2119635890767 16.6775032509753  C 49.0788903337668 16.8942349371478  49.6423927178153 17.4469007368877  49.9024707412224 18.3355006501951  C 50.1192024273949 19.2457737321196  49.9024707412224 20.0043346337234  49.2522756827048 20.6111833550065  Z " fill-rule="nonzero" fill="url(#LinearGradient683)" stroke="none" transform="matrix(1 0 0 1 1 2 )" />
  </g>
</svg>