<?xml version="1.0" encoding="utf-8"?>
<svg version="1.1" xmlns:xlink="http://www.w3.org/1999/xlink" width="38px" height="38px" xmlns="http://www.w3.org/2000/svg">
  <g transform="matrix(1 0 0 1 -48 -52 )">
    <path d="M 9 23  C 9 21.9  8.1 21  7 21  C 5.9 21  5 21.9  5 23  C 5 24.1  5.9 25  7 25  C 8.1 25  9 24.1  9 23  Z M 9 31  C 9 29.9  8.1 29  7 29  C 5.9 29  5 29.9  5 31  C 5 32.1  5.9 33  7 33  C 8.1 33  9 32.1  9 31  Z M 9 15  C 9 13.9  8.1 13  7 13  C 5.9 13  5 13.9  5 15  C 5 16.1  5.9 17  7 17  C 8.1 17  9 16.1  9 15  Z M 2 15  C 2 14.45  1.55 14  1 14  C 0.45 14  0 14.45  0 15  C 0 15.55  0.45 16  1 16  C 1.55 16  2 15.55  2 15  Z M 9 7  C 9 5.9  8.1 5  7 5  C 5.9 5  5 5.9  5 7  C 5 8.1  5.9 9  7 9  C 8.1 9  9 8.1  9 7  Z M 36 15  C 36 15.55  36.45 16  37 16  C 37.55 16  38 15.55  38 15  C 38 14.45  37.55 14  37 14  C 36.45 14  36 14.45  36 15  Z M 21 7  C 21 8.1  21.9 9  23 9  C 24.1 9  25 8.1  25 7  C 25 5.9  24.1 5  23 5  C 21.9 5  21 5.9  21 7  Z M 22 1  C 22 1.55  22.45 2  23 2  C 23.55 2  24 1.55  24 1  C 24 0.45  23.55 0  23 0  C 22.45 0  22 0.45  22 1  Z M 2 23  C 2 22.45  1.55 22  1 22  C 0.45 22  0 22.45  0 23  C 0 23.55  0.45 24  1 24  C 1.55 24  2 23.55  2 23  Z M 16 37  C 16 36.45  15.55 36  15 36  C 14.45 36  14 36.45  14 37  C 14 37.55  14.45 38  15 38  C 15.55 38  16 37.55  16 37  Z M 14 1  C 14 1.55  14.45 2  15 2  C 15.55 2  16 1.55  16 1  C 16 0.45  15.55 0  15 0  C 14.45 0  14 0.45  14 1  Z M 13 7  C 13 8.1  13.9 9  15 9  C 16.1 9  17 8.1  17 7  C 17 5.9  16.1 5  15 5  C 13.9 5  13 5.9  13 7  Z M 18 23  C 18 21.34  16.66 20  15 20  C 13.34 20  12 21.34  12 23  C 12 24.66  13.34 26  15 26  C 16.66 26  18 24.66  18 23  Z M 33 23  C 33 21.9  32.1 21  31 21  C 29.9 21  29 21.9  29 23  C 29 24.1  29.9 25  31 25  C 32.1 25  33 24.1  33 23  Z M 33 31  C 33 29.9  32.1 29  31 29  C 29.9 29  29 29.9  29 31  C 29 32.1  29.9 33  31 33  C 32.1 33  33 32.1  33 31  Z M 33 15  C 33 13.9  32.1 13  31 13  C 29.9 13  29 13.9  29 15  C 29 16.1  29.9 17  31 17  C 32.1 17  33 16.1  33 15  Z M 33 7  C 33 5.9  32.1 5  31 5  C 29.9 5  29 5.9  29 7  C 29 8.1  29.9 9  31 9  C 32.1 9  33 8.1  33 7  Z M 38 23  C 38 22.45  37.55 22  37 22  C 36.45 22  36 22.45  36 23  C 36 23.55  36.45 24  37 24  C 37.55 24  38 23.55  38 23  Z M 25 31  C 25 29.9  24.1 29  23 29  C 21.9 29  21 29.9  21 31  C 21 32.1  21.9 33  23 33  C 24.1 33  25 32.1  25 31  Z M 24 37  C 24 36.45  23.55 36  23 36  C 22.45 36  22 36.45  22 37  C 22 37.55  22.45 38  23 38  C 23.55 38  24 37.55  24 37  Z M 18 15  C 18 13.34  16.66 12  15 12  C 13.34 12  12 13.34  12 15  C 12 16.66  13.34 18  15 18  C 16.66 18  18 16.66  18 15  Z M 17 31  C 17 29.9  16.1 29  15 29  C 13.9 29  13 29.9  13 31  C 13 32.1  13.9 33  15 33  C 16.1 33  17 32.1  17 31  Z M 26 23  C 26 21.34  24.66 20  23 20  C 21.34 20  20 21.34  20 23  C 20 24.66  21.34 26  23 26  C 24.66 26  26 24.66  26 23  Z M 26 15  C 26 13.34  24.66 12  23 12  C 21.34 12  20 13.34  20 15  C 20 16.66  21.34 18  23 18  C 24.66 18  26 16.66  26 15  Z " fill-rule="nonzero" fill="#d7d7d7" stroke="none" transform="matrix(1 0 0 1 48 52 )" />
  </g>
</svg>