<?xml version="1.0" encoding="utf-8"?>
<svg version="1.1" xmlns:xlink="http://www.w3.org/1999/xlink" width="25px" height="25px" xmlns="http://www.w3.org/2000/svg">
  <g transform="matrix(1 0 0 1 -23 -27 )">
    <path d="M 5.92105263157895 15.1315789473684  C 5.92105263157895 14.4078947368421  5.32894736842105 13.8157894736842  4.60526315789474 13.8157894736842  C 3.88157894736842 13.8157894736842  3.28947368421053 14.4078947368421  3.28947368421053 15.1315789473684  C 3.28947368421053 15.8552631578947  3.88157894736842 16.4473684210526  4.60526315789474 16.4473684210526  C 5.32894736842105 16.4473684210526  5.92105263157895 15.8552631578947  5.92105263157895 15.1315789473684  Z M 5.92105263157895 20.3947368421053  C 5.92105263157895 19.6710526315789  5.32894736842105 19.0789473684211  4.60526315789474 19.0789473684211  C 3.88157894736842 19.0789473684211  3.28947368421053 19.6710526315789  3.28947368421053 20.3947368421053  C 3.28947368421053 21.1184210526316  3.88157894736842 21.7105263157895  4.60526315789474 21.7105263157895  C 5.32894736842105 21.7105263157895  5.92105263157895 21.1184210526316  5.92105263157895 20.3947368421053  Z M 5.92105263157895 9.86842105263158  C 5.92105263157895 9.14473684210526  5.32894736842105 8.55263157894737  4.60526315789474 8.55263157894737  C 3.88157894736842 8.55263157894737  3.28947368421053 9.14473684210526  3.28947368421053 9.86842105263158  C 3.28947368421053 10.5921052631579  3.88157894736842 11.1842105263158  4.60526315789474 11.1842105263158  C 5.32894736842105 11.1842105263158  5.92105263157895 10.5921052631579  5.92105263157895 9.86842105263158  Z M 1.31578947368421 9.86842105263158  C 1.31578947368421 9.50657894736842  1.01973684210526 9.21052631578947  0.657894736842105 9.21052631578947  C 0.296052631578947 9.21052631578947  0 9.50657894736842  0 9.86842105263158  C 0 10.2302631578947  0.296052631578947 10.5263157894737  0.657894736842105 10.5263157894737  C 1.01973684210526 10.5263157894737  1.31578947368421 10.2302631578947  1.31578947368421 9.86842105263158  Z M 5.92105263157895 4.60526315789474  C 5.92105263157895 3.88157894736842  5.32894736842105 3.28947368421053  4.60526315789474 3.28947368421053  C 3.88157894736842 3.28947368421053  3.28947368421053 3.88157894736842  3.28947368421053 4.60526315789474  C 3.28947368421053 5.32894736842105  3.88157894736842 5.92105263157895  4.60526315789474 5.92105263157895  C 5.32894736842105 5.92105263157895  5.92105263157895 5.32894736842105  5.92105263157895 4.60526315789474  Z M 23.6842105263158 9.86842105263158  C 23.6842105263158 10.2302631578947  23.9802631578947 10.5263157894737  24.3421052631579 10.5263157894737  C 24.7039473684211 10.5263157894737  25 10.2302631578947  25 9.86842105263158  C 25 9.50657894736842  24.7039473684211 9.21052631578947  24.3421052631579 9.21052631578947  C 23.9802631578947 9.21052631578947  23.6842105263158 9.50657894736842  23.6842105263158 9.86842105263158  Z M 13.8157894736842 4.60526315789474  C 13.8157894736842 5.32894736842105  14.4078947368421 5.92105263157895  15.1315789473684 5.92105263157895  C 15.8552631578947 5.92105263157895  16.4473684210526 5.32894736842105  16.4473684210526 4.60526315789474  C 16.4473684210526 3.88157894736842  15.8552631578947 3.28947368421053  15.1315789473684 3.28947368421053  C 14.4078947368421 3.28947368421053  13.8157894736842 3.88157894736842  13.8157894736842 4.60526315789474  Z M 14.4736842105263 0.657894736842105  C 14.4736842105263 1.01973684210526  14.7697368421053 1.31578947368421  15.1315789473684 1.31578947368421  C 15.4934210526316 1.31578947368421  15.7894736842105 1.01973684210526  15.7894736842105 0.657894736842105  C 15.7894736842105 0.296052631578947  15.4934210526316 0  15.1315789473684 0  C 14.7697368421053 0  14.4736842105263 0.296052631578947  14.4736842105263 0.657894736842105  Z M 1.31578947368421 15.1315789473684  C 1.31578947368421 14.7697368421053  1.01973684210526 14.4736842105263  0.657894736842105 14.4736842105263  C 0.296052631578947 14.4736842105263  0 14.7697368421053  0 15.1315789473684  C 0 15.4934210526316  0.296052631578947 15.7894736842105  0.657894736842105 15.7894736842105  C 1.01973684210526 15.7894736842105  1.31578947368421 15.4934210526316  1.31578947368421 15.1315789473684  Z M 10.5263157894737 24.3421052631579  C 10.5263157894737 23.9802631578947  10.2302631578947 23.6842105263158  9.86842105263158 23.6842105263158  C 9.50657894736842 23.6842105263158  9.21052631578947 23.9802631578947  9.21052631578947 24.3421052631579  C 9.21052631578947 24.7039473684211  9.50657894736842 25  9.86842105263158 25  C 10.2302631578947 25  10.5263157894737 24.7039473684211  10.5263157894737 24.3421052631579  Z M 9.21052631578947 0.657894736842105  C 9.21052631578947 1.01973684210526  9.50657894736842 1.31578947368421  9.86842105263158 1.31578947368421  C 10.2302631578947 1.31578947368421  10.5263157894737 1.01973684210526  10.5263157894737 0.657894736842105  C 10.5263157894737 0.296052631578947  10.2302631578947 0  9.86842105263158 0  C 9.50657894736842 0  9.21052631578947 0.296052631578947  9.21052631578947 0.657894736842105  Z M 8.55263157894737 4.60526315789474  C 8.55263157894737 5.32894736842105  9.14473684210526 5.92105263157895  9.86842105263158 5.92105263157895  C 10.5921052631579 5.92105263157895  11.1842105263158 5.32894736842105  11.1842105263158 4.60526315789474  C 11.1842105263158 3.88157894736842  10.5921052631579 3.28947368421053  9.86842105263158 3.28947368421053  C 9.14473684210526 3.28947368421053  8.55263157894737 3.88157894736842  8.55263157894737 4.60526315789474  Z M 11.8421052631579 15.1315789473684  C 11.8421052631579 14.0394736842105  10.9605263157895 13.1578947368421  9.86842105263158 13.1578947368421  C 8.77631578947368 13.1578947368421  7.89473684210526 14.0394736842105  7.89473684210526 15.1315789473684  C 7.89473684210526 16.2236842105263  8.77631578947368 17.1052631578947  9.86842105263158 17.1052631578947  C 10.9605263157895 17.1052631578947  11.8421052631579 16.2236842105263  11.8421052631579 15.1315789473684  Z M 21.7105263157895 15.1315789473684  C 21.7105263157895 14.4078947368421  21.1184210526316 13.8157894736842  20.3947368421053 13.8157894736842  C 19.6710526315789 13.8157894736842  19.0789473684211 14.4078947368421  19.0789473684211 15.1315789473684  C 19.0789473684211 15.8552631578947  19.6710526315789 16.4473684210526  20.3947368421053 16.4473684210526  C 21.1184210526316 16.4473684210526  21.7105263157895 15.8552631578947  21.7105263157895 15.1315789473684  Z M 21.7105263157895 20.3947368421053  C 21.7105263157895 19.6710526315789  21.1184210526316 19.0789473684211  20.3947368421053 19.0789473684211  C 19.6710526315789 19.0789473684211  19.0789473684211 19.6710526315789  19.0789473684211 20.3947368421053  C 19.0789473684211 21.1184210526316  19.6710526315789 21.7105263157895  20.3947368421053 21.7105263157895  C 21.1184210526316 21.7105263157895  21.7105263157895 21.1184210526316  21.7105263157895 20.3947368421053  Z M 21.7105263157895 9.86842105263158  C 21.7105263157895 9.14473684210526  21.1184210526316 8.55263157894737  20.3947368421053 8.55263157894737  C 19.6710526315789 8.55263157894737  19.0789473684211 9.14473684210526  19.0789473684211 9.86842105263158  C 19.0789473684211 10.5921052631579  19.6710526315789 11.1842105263158  20.3947368421053 11.1842105263158  C 21.1184210526316 11.1842105263158  21.7105263157895 10.5921052631579  21.7105263157895 9.86842105263158  Z M 21.7105263157895 4.60526315789474  C 21.7105263157895 3.88157894736842  21.1184210526316 3.28947368421053  20.3947368421053 3.28947368421053  C 19.6710526315789 3.28947368421053  19.0789473684211 3.88157894736842  19.0789473684211 4.60526315789474  C 19.0789473684211 5.32894736842105  19.6710526315789 5.92105263157895  20.3947368421053 5.92105263157895  C 21.1184210526316 5.92105263157895  21.7105263157895 5.32894736842105  21.7105263157895 4.60526315789474  Z M 25 15.1315789473684  C 25 14.7697368421053  24.7039473684211 14.4736842105263  24.3421052631579 14.4736842105263  C 23.9802631578947 14.4736842105263  23.6842105263158 14.7697368421053  23.6842105263158 15.1315789473684  C 23.6842105263158 15.4934210526316  23.9802631578947 15.7894736842105  24.3421052631579 15.7894736842105  C 24.7039473684211 15.7894736842105  25 15.4934210526316  25 15.1315789473684  Z M 16.4473684210526 20.3947368421053  C 16.4473684210526 19.6710526315789  15.8552631578947 19.0789473684211  15.1315789473684 19.0789473684211  C 14.4078947368421 19.0789473684211  13.8157894736842 19.6710526315789  13.8157894736842 20.3947368421053  C 13.8157894736842 21.1184210526316  14.4078947368421 21.7105263157895  15.1315789473684 21.7105263157895  C 15.8552631578947 21.7105263157895  16.4473684210526 21.1184210526316  16.4473684210526 20.3947368421053  Z M 15.7894736842105 24.3421052631579  C 15.7894736842105 23.9802631578947  15.4934210526316 23.6842105263158  15.1315789473684 23.6842105263158  C 14.7697368421053 23.6842105263158  14.4736842105263 23.9802631578947  14.4736842105263 24.3421052631579  C 14.4736842105263 24.7039473684211  14.7697368421053 25  15.1315789473684 25  C 15.4934210526316 25  15.7894736842105 24.7039473684211  15.7894736842105 24.3421052631579  Z M 11.8421052631579 9.86842105263158  C 11.8421052631579 8.77631578947368  10.9605263157895 7.89473684210526  9.86842105263158 7.89473684210526  C 8.77631578947368 7.89473684210526  7.89473684210526 8.77631578947368  7.89473684210526 9.86842105263158  C 7.89473684210526 10.9605263157895  8.77631578947368 11.8421052631579  9.86842105263158 11.8421052631579  C 10.9605263157895 11.8421052631579  11.8421052631579 10.9605263157895  11.8421052631579 9.86842105263158  Z M 11.1842105263158 20.3947368421053  C 11.1842105263158 19.6710526315789  10.5921052631579 19.0789473684211  9.86842105263158 19.0789473684211  C 9.14473684210526 19.0789473684211  8.55263157894737 19.6710526315789  8.55263157894737 20.3947368421053  C 8.55263157894737 21.1184210526316  9.14473684210526 21.7105263157895  9.86842105263158 21.7105263157895  C 10.5921052631579 21.7105263157895  11.1842105263158 21.1184210526316  11.1842105263158 20.3947368421053  Z M 17.1052631578947 15.1315789473684  C 17.1052631578947 14.0394736842105  16.2236842105263 13.1578947368421  15.1315789473684 13.1578947368421  C 14.0394736842105 13.1578947368421  13.1578947368421 14.0394736842105  13.1578947368421 15.1315789473684  C 13.1578947368421 16.2236842105263  14.0394736842105 17.1052631578947  15.1315789473684 17.1052631578947  C 16.2236842105263 17.1052631578947  17.1052631578947 16.2236842105263  17.1052631578947 15.1315789473684  Z M 17.1052631578947 9.86842105263158  C 17.1052631578947 8.77631578947368  16.2236842105263 7.89473684210526  15.1315789473684 7.89473684210526  C 14.0394736842105 7.89473684210526  13.1578947368421 8.77631578947368  13.1578947368421 9.86842105263158  C 13.1578947368421 10.9605263157895  14.0394736842105 11.8421052631579  15.1315789473684 11.8421052631579  C 16.2236842105263 11.8421052631579  17.1052631578947 10.9605263157895  17.1052631578947 9.86842105263158  Z " fill-rule="nonzero" fill="#d7d7d7" stroke="none" transform="matrix(1 0 0 1 23 27 )" />
  </g>
</svg>