<?xml version="1.0" encoding="utf-8"?>
<svg version="1.1" xmlns:xlink="http://www.w3.org/1999/xlink" width="15px" height="15px" xmlns="http://www.w3.org/2000/svg">
  <g transform="matrix(1 0 0 1 -9 -12 )">
    <path d="M 3.55263157894737 9.07894736842105  C 3.55263157894737 8.64473684210526  3.19736842105263 8.28947368421053  2.76315789473684 8.28947368421053  C 2.32894736842105 8.28947368421053  1.97368421052632 8.64473684210526  1.97368421052632 9.07894736842105  C 1.97368421052632 9.51315789473684  2.32894736842105 9.86842105263158  2.76315789473684 9.86842105263158  C 3.19736842105263 9.86842105263158  3.55263157894737 9.51315789473684  3.55263157894737 9.07894736842105  Z M 3.55263157894737 12.2368421052632  C 3.55263157894737 11.8026315789474  3.19736842105263 11.4473684210526  2.76315789473684 11.4473684210526  C 2.32894736842105 11.4473684210526  1.97368421052632 11.8026315789474  1.97368421052632 12.2368421052632  C 1.97368421052632 12.6710526315789  2.32894736842105 13.0263157894737  2.76315789473684 13.0263157894737  C 3.19736842105263 13.0263157894737  3.55263157894737 12.6710526315789  3.55263157894737 12.2368421052632  Z M 3.55263157894737 5.92105263157895  C 3.55263157894737 5.48684210526316  3.19736842105263 5.13157894736842  2.76315789473684 5.13157894736842  C 2.32894736842105 5.13157894736842  1.97368421052632 5.48684210526316  1.97368421052632 5.92105263157895  C 1.97368421052632 6.35526315789474  2.32894736842105 6.71052631578947  2.76315789473684 6.71052631578947  C 3.19736842105263 6.71052631578947  3.55263157894737 6.35526315789474  3.55263157894737 5.92105263157895  Z M 0.789473684210526 5.92105263157895  C 0.789473684210526 5.70394736842105  0.611842105263158 5.52631578947368  0.394736842105263 5.52631578947368  C 0.177631578947368 5.52631578947368  0 5.70394736842105  0 5.92105263157895  C 0 6.13815789473684  0.177631578947368 6.31578947368421  0.394736842105263 6.31578947368421  C 0.611842105263158 6.31578947368421  0.789473684210526 6.13815789473684  0.789473684210526 5.92105263157895  Z M 3.55263157894737 2.76315789473684  C 3.55263157894737 2.32894736842105  3.19736842105263 1.97368421052632  2.76315789473684 1.97368421052632  C 2.32894736842105 1.97368421052632  1.97368421052632 2.32894736842105  1.97368421052632 2.76315789473684  C 1.97368421052632 3.19736842105263  2.32894736842105 3.55263157894737  2.76315789473684 3.55263157894737  C 3.19736842105263 3.55263157894737  3.55263157894737 3.19736842105263  3.55263157894737 2.76315789473684  Z M 14.2105263157895 5.92105263157895  C 14.2105263157895 6.13815789473684  14.3881578947368 6.31578947368421  14.6052631578947 6.31578947368421  C 14.8223684210526 6.31578947368421  15 6.13815789473684  15 5.92105263157895  C 15 5.70394736842105  14.8223684210526 5.52631578947368  14.6052631578947 5.52631578947368  C 14.3881578947368 5.52631578947368  14.2105263157895 5.70394736842105  14.2105263157895 5.92105263157895  Z M 8.28947368421053 2.76315789473684  C 8.28947368421053 3.19736842105263  8.64473684210526 3.55263157894737  9.07894736842105 3.55263157894737  C 9.51315789473684 3.55263157894737  9.86842105263158 3.19736842105263  9.86842105263158 2.76315789473684  C 9.86842105263158 2.32894736842105  9.51315789473684 1.97368421052632  9.07894736842105 1.97368421052632  C 8.64473684210526 1.97368421052632  8.28947368421053 2.32894736842105  8.28947368421053 2.76315789473684  Z M 8.68421052631579 0.394736842105263  C 8.68421052631579 0.611842105263158  8.86184210526316 0.789473684210526  9.07894736842105 0.789473684210526  C 9.29605263157895 0.789473684210526  9.47368421052632 0.611842105263158  9.47368421052632 0.394736842105263  C 9.47368421052632 0.177631578947368  9.29605263157895 0  9.07894736842105 0  C 8.86184210526316 0  8.68421052631579 0.177631578947368  8.68421052631579 0.394736842105263  Z M 0.789473684210526 9.07894736842105  C 0.789473684210526 8.86184210526316  0.611842105263158 8.68421052631579  0.394736842105263 8.68421052631579  C 0.177631578947368 8.68421052631579  0 8.86184210526316  0 9.07894736842105  C 0 9.29605263157895  0.177631578947368 9.47368421052632  0.394736842105263 9.47368421052632  C 0.611842105263158 9.47368421052632  0.789473684210526 9.29605263157895  0.789473684210526 9.07894736842105  Z M 6.31578947368421 14.6052631578947  C 6.31578947368421 14.3881578947368  6.13815789473684 14.2105263157895  5.92105263157895 14.2105263157895  C 5.70394736842105 14.2105263157895  5.52631578947368 14.3881578947368  5.52631578947368 14.6052631578947  C 5.52631578947368 14.8223684210526  5.70394736842105 15  5.92105263157895 15  C 6.13815789473684 15  6.31578947368421 14.8223684210526  6.31578947368421 14.6052631578947  Z M 5.52631578947368 0.394736842105263  C 5.52631578947368 0.611842105263158  5.70394736842105 0.789473684210526  5.92105263157895 0.789473684210526  C 6.13815789473684 0.789473684210526  6.31578947368421 0.611842105263158  6.31578947368421 0.394736842105263  C 6.31578947368421 0.177631578947368  6.13815789473684 0  5.92105263157895 0  C 5.70394736842105 0  5.52631578947368 0.177631578947368  5.52631578947368 0.394736842105263  Z M 5.13157894736842 2.76315789473684  C 5.13157894736842 3.19736842105263  5.48684210526316 3.55263157894737  5.92105263157895 3.55263157894737  C 6.35526315789474 3.55263157894737  6.71052631578947 3.19736842105263  6.71052631578947 2.76315789473684  C 6.71052631578947 2.32894736842105  6.35526315789474 1.97368421052632  5.92105263157895 1.97368421052632  C 5.48684210526316 1.97368421052632  5.13157894736842 2.32894736842105  5.13157894736842 2.76315789473684  Z M 7.10526315789474 9.07894736842105  C 7.10526315789474 8.42368421052632  6.57631578947368 7.89473684210526  5.92105263157895 7.89473684210526  C 5.26578947368421 7.89473684210526  4.73684210526316 8.42368421052632  4.73684210526316 9.07894736842105  C 4.73684210526316 9.73421052631579  5.26578947368421 10.2631578947368  5.92105263157895 10.2631578947368  C 6.57631578947368 10.2631578947368  7.10526315789474 9.73421052631579  7.10526315789474 9.07894736842105  Z M 13.0263157894737 9.07894736842105  C 13.0263157894737 8.64473684210526  12.6710526315789 8.28947368421053  12.2368421052632 8.28947368421053  C 11.8026315789474 8.28947368421053  11.4473684210526 8.64473684210526  11.4473684210526 9.07894736842105  C 11.4473684210526 9.51315789473684  11.8026315789474 9.86842105263158  12.2368421052632 9.86842105263158  C 12.6710526315789 9.86842105263158  13.0263157894737 9.51315789473684  13.0263157894737 9.07894736842105  Z M 13.0263157894737 12.2368421052632  C 13.0263157894737 11.8026315789474  12.6710526315789 11.4473684210526  12.2368421052632 11.4473684210526  C 11.8026315789474 11.4473684210526  11.4473684210526 11.8026315789474  11.4473684210526 12.2368421052632  C 11.4473684210526 12.6710526315789  11.8026315789474 13.0263157894737  12.2368421052632 13.0263157894737  C 12.6710526315789 13.0263157894737  13.0263157894737 12.6710526315789  13.0263157894737 12.2368421052632  Z M 13.0263157894737 5.92105263157895  C 13.0263157894737 5.48684210526316  12.6710526315789 5.13157894736842  12.2368421052632 5.13157894736842  C 11.8026315789474 5.13157894736842  11.4473684210526 5.48684210526316  11.4473684210526 5.92105263157895  C 11.4473684210526 6.35526315789474  11.8026315789474 6.71052631578947  12.2368421052632 6.71052631578947  C 12.6710526315789 6.71052631578947  13.0263157894737 6.35526315789474  13.0263157894737 5.92105263157895  Z M 13.0263157894737 2.76315789473684  C 13.0263157894737 2.32894736842105  12.6710526315789 1.97368421052632  12.2368421052632 1.97368421052632  C 11.8026315789474 1.97368421052632  11.4473684210526 2.32894736842105  11.4473684210526 2.76315789473684  C 11.4473684210526 3.19736842105263  11.8026315789474 3.55263157894737  12.2368421052632 3.55263157894737  C 12.6710526315789 3.55263157894737  13.0263157894737 3.19736842105263  13.0263157894737 2.76315789473684  Z M 15 9.07894736842105  C 15 8.86184210526316  14.8223684210526 8.68421052631579  14.6052631578947 8.68421052631579  C 14.3881578947368 8.68421052631579  14.2105263157895 8.86184210526316  14.2105263157895 9.07894736842105  C 14.2105263157895 9.29605263157895  14.3881578947368 9.47368421052632  14.6052631578947 9.47368421052632  C 14.8223684210526 9.47368421052632  15 9.29605263157895  15 9.07894736842105  Z M 9.86842105263158 12.2368421052632  C 9.86842105263158 11.8026315789474  9.51315789473684 11.4473684210526  9.07894736842105 11.4473684210526  C 8.64473684210526 11.4473684210526  8.28947368421053 11.8026315789474  8.28947368421053 12.2368421052632  C 8.28947368421053 12.6710526315789  8.64473684210526 13.0263157894737  9.07894736842105 13.0263157894737  C 9.51315789473684 13.0263157894737  9.86842105263158 12.6710526315789  9.86842105263158 12.2368421052632  Z M 9.47368421052632 14.6052631578947  C 9.47368421052632 14.3881578947368  9.29605263157895 14.2105263157895  9.07894736842105 14.2105263157895  C 8.86184210526316 14.2105263157895  8.68421052631579 14.3881578947368  8.68421052631579 14.6052631578947  C 8.68421052631579 14.8223684210526  8.86184210526316 15  9.07894736842105 15  C 9.29605263157895 15  9.47368421052632 14.8223684210526  9.47368421052632 14.6052631578947  Z M 7.10526315789474 5.92105263157895  C 7.10526315789474 5.26578947368421  6.57631578947368 4.73684210526316  5.92105263157895 4.73684210526316  C 5.26578947368421 4.73684210526316  4.73684210526316 5.26578947368421  4.73684210526316 5.92105263157895  C 4.73684210526316 6.57631578947368  5.26578947368421 7.10526315789474  5.92105263157895 7.10526315789474  C 6.57631578947368 7.10526315789474  7.10526315789474 6.57631578947368  7.10526315789474 5.92105263157895  Z M 6.71052631578947 12.2368421052632  C 6.71052631578947 11.8026315789474  6.35526315789474 11.4473684210526  5.92105263157895 11.4473684210526  C 5.48684210526316 11.4473684210526  5.13157894736842 11.8026315789474  5.13157894736842 12.2368421052632  C 5.13157894736842 12.6710526315789  5.48684210526316 13.0263157894737  5.92105263157895 13.0263157894737  C 6.35526315789474 13.0263157894737  6.71052631578947 12.6710526315789  6.71052631578947 12.2368421052632  Z M 10.2631578947368 9.07894736842105  C 10.2631578947368 8.42368421052632  9.73421052631579 7.89473684210526  9.07894736842105 7.89473684210526  C 8.42368421052632 7.89473684210526  7.89473684210526 8.42368421052632  7.89473684210526 9.07894736842105  C 7.89473684210526 9.73421052631579  8.42368421052632 10.2631578947368  9.07894736842105 10.2631578947368  C 9.73421052631579 10.2631578947368  10.2631578947368 9.73421052631579  10.2631578947368 9.07894736842105  Z M 10.2631578947368 5.92105263157895  C 10.2631578947368 5.26578947368421  9.73421052631579 4.73684210526316  9.07894736842105 4.73684210526316  C 8.42368421052632 4.73684210526316  7.89473684210526 5.26578947368421  7.89473684210526 5.92105263157895  C 7.89473684210526 6.57631578947368  8.42368421052632 7.10526315789474  9.07894736842105 7.10526315789474  C 9.73421052631579 7.10526315789474  10.2631578947368 6.57631578947368  10.2631578947368 5.92105263157895  Z " fill-rule="nonzero" fill="#d7d7d7" stroke="none" transform="matrix(1 0 0 1 9 12 )" />
  </g>
</svg>