<?xml version="1.0" encoding="utf-8"?>
<svg version="1.1" xmlns:xlink="http://www.w3.org/1999/xlink" width="7px" height="7px" xmlns="http://www.w3.org/2000/svg">
  <g transform="matrix(1 0 0 1 -1054 -425 )">
    <path d="M 1057.5 425  C 1059.46 425  1061 426.54  1061 428.5  C 1061 430.46  1059.46 432  1057.5 432  C 1055.54 432  1054 430.46  1054 428.5  C 1054 426.54  1055.54 425  1057.5 425  Z " fill-rule="nonzero" fill="#ffffff" stroke="none" />
    <path d="M 1057.5 425.5  C 1059.18 425.5  1060.5 426.82  1060.5 428.5  C 1060.5 430.18  1059.18 431.5  1057.5 431.5  C 1055.82 431.5  1054.5 430.18  1054.5 428.5  C 1054.5 426.82  1055.82 425.5  1057.5 425.5  Z " stroke-width="1" stroke="#797979" fill="none" />
  </g>
</svg>