<?xml version="1.0" encoding="utf-8"?>
<svg version="1.1" xmlns:xlink="http://www.w3.org/1999/xlink" width="250px" height="49px" xmlns="http://www.w3.org/2000/svg">
  <g transform="matrix(1 0 0 1 -722 -8 )">
    <path d="M 723 32.5  A 23.5 23.5 0 0 1 746.5 9 L 947.5 9  A 23.5 23.5 0 0 1 971 32.5 A 23.5 23.5 0 0 1 947.5 56 L 746.5 56  A 23.5 23.5 0 0 1 723 32.5 Z " fill-rule="nonzero" fill="#ffffff" stroke="none" fill-opacity="0.0980392156862745" />
    <path d="M 722.5 32.5  A 24 24 0 0 1 746.5 8.5 L 947.5 8.5  A 24 24 0 0 1 971.5 32.5 A 24 24 0 0 1 947.5 56.5 L 746.5 56.5  A 24 24 0 0 1 722.5 32.5 Z " stroke-width="1" stroke="#ffffff" fill="none" stroke-opacity="0.149019607843137" />
  </g>
</svg>