<?xml version="1.0" encoding="utf-8"?>
<svg version="1.1" xmlns:xlink="http://www.w3.org/1999/xlink" width="20px" height="23px" xmlns="http://www.w3.org/2000/svg">
  <g transform="matrix(1 0 0 1 -93 -352 )">
    <path d="M 10.0260416666667 13.1428571428571  C 11.9704861111111 13.1428571428571  12.9427083333333 13.8616071428571  12.9427083333333 15.2991071428571  C 12.9427083333333 16.0349702380952  12.8689236111111 16.8777901785714  12.7213541666667 17.8275669642857  C 12.4522569444444 19.667224702381  12.2135416666667 21.0063244047619  12.0052083333333 21.8448660714286  C 11.8142361111111 22.6149553571429  11.1545138888889 23  10.0260416666667 23  C 8.89756944444444 23  8.23784722222222 22.6149553571429  8.046875 21.8448660714286  C 7.83854166666667 21.0063244047619  7.59982638888889 19.667224702381  7.33072916666667 17.8275669642857  C 7.18315972222222 16.8863467261905  7.109375 16.0435267857143  7.109375 15.2991071428571  C 7.109375 13.8616071428571  8.08159722222222 13.1428571428571  10.0260416666667 13.1428571428571  Z M 19.1471354166667 5.89760044642857  C 19.7157118055556 7.15113467261905  20 8.47098214285714  20 9.85714285714286  C 20 11.9107142857143  19.4184027777778 13.7674851190476  18.2552083333333 15.4274553571429  C 17.0920138888889 17.0874255952381  15.5729166666667 18.2853422619048  13.6979166666667 19.0212053571429  C 13.6284722222222 19.046875  13.5633680555556 19.0340401785714  13.5026041666667 18.9827008928571  C 13.4418402777778 18.9313616071429  13.4157986111111 18.8671875  13.4244791666667 18.7901785714286  C 13.4852430555556 18.3794642857143  13.5286458333333 18.0970982142857  13.5546875 17.9430803571429  C 13.5894097222222 17.6692708333333  13.6154513888889 17.4681919642857  13.6328125 17.33984375  C 13.6414930555556 17.2628348214286  13.6805555555556 17.2114955357143  13.75 17.1858258928571  C 15.1302083333333 16.4927455357143  16.2391493055556 15.4916294642857  17.0768229166667 14.1824776785714  C 17.9144965277778 12.8733258928571  18.3333333333333 11.4315476190476  18.3333333333333 9.85714285714286  C 18.3333333333333 8.31696428571429  17.9383680555556 6.90299479166667  17.1484375 5.615234375  C 16.3585069444444 4.32747395833333  15.2864583333333 3.32421875  13.9322916666667 2.60546875  C 12.578125 1.88671875  11.1154513888889 1.57012648809524  9.54427083333333 1.65569196428571  C 8.46788194444444 1.71558779761905  7.43923611111111 1.9765625  6.45833333333333 2.43861607142857  C 5.47743055555556 2.90066964285714  4.63758680555556 3.50176711309524  3.93880208333333 4.24190848214286  C 3.24001736111111 4.98204985119047  2.68446180555556 5.84626116071429  2.27213541666667 6.83454241071429  C 1.85980902777778 7.82282366071429  1.65798611111111 8.85174851190476  1.66666666666667 9.92131696428571  C 1.67534722222222 11.4957217261905  2.10503472222222 12.9353608630952  2.95572916666667 14.240234375  C 3.80642361111111 15.5451078869048  4.921875 16.5355282738095  6.30208333333333 17.2114955357143  C 6.36284722222222 17.2371651785714  6.40190972222222 17.2885044642857  6.41927083333333 17.3655133928571  C 6.4453125 17.5452008928571  6.47135416666667 17.7377232142857  6.49739583333333 17.9430803571429  C 6.50607638888889 18.0200892857143  6.52777777777778 18.1591331845238  6.5625 18.3602120535714  C 6.59722222222222 18.561290922619  6.62326388888889 18.7131696428571  6.640625 18.8158482142857  C 6.64930555555556 18.8928571428571  6.62109375 18.95703125  6.55598958333333 19.0083705357143  C 6.49088541666667 19.0597098214286  6.42361111111111 19.0682663690476  6.35416666666667 19.0340401785714  C 5.06944444444445 18.5377604166667  3.93663194444444 17.8125930059524  2.95572916666667 16.8585379464286  C 1.97482638888889 15.9044828869048  1.22178819444444 14.7750186011905  0.696614583333333 13.4701450892857  C 0.171440972222222 12.165271577381  -0.0564236111111111 10.7983630952381  0.0130208333333333 9.36941964285714  C 0.0737847222222222 8.14583333333333  0.360243055555556 6.97572544642857  0.872395833333333 5.85909598214286  C 1.38454861111111 4.74246651785714  2.05512152777778 3.77129836309524  2.88411458333333 2.94559151785714  C 3.71310763888889 2.11988467261905  4.68967013888889 1.44605654761905  5.81380208333333 0.924107142857142  C 6.93793402777778 0.402157738095236  8.12065972222222 0.102678571428571  9.36197916666667 0.0256696428571421  C 10.7855902777778 -0.059895833333335  12.1549479166667 0.139043898809523  13.4700520833333 0.622488839285713  C 14.78515625 1.1059337797619  15.91796875 1.79259672619047  16.8684895833333 2.68247767857143  C 17.8190104166667 3.57235863095238  18.5785590277778 4.64406622023809  19.1471354166667 5.89760044642857  Z M 12.08984375 7.412109375  C 12.6584201388889 7.97256324404762  12.9427083333333 8.65066964285714  12.9427083333333 9.44642857142857  C 12.9427083333333 10.2421875  12.6584201388889 10.9202938988095  12.08984375 11.4807477678571  C 11.5212673611111 12.0412016369048  10.8333333333333 12.3214285714286  10.0260416666667 12.3214285714286  C 9.21875 12.3214285714286  8.53081597222222 12.0412016369048  7.96223958333333 11.4807477678571  C 7.39366319444445 10.9202938988095  7.109375 10.2421875  7.109375 9.44642857142857  C 7.109375 8.65066964285714  7.39366319444445 7.97256324404762  7.96223958333333 7.412109375  C 8.53081597222222 6.85165550595238  9.21875 6.57142857142857  10.0260416666667 6.57142857142857  C 10.8333333333333 6.57142857142857  11.5212673611111 6.85165550595238  12.08984375 7.412109375  Z M 15.7486979166667 6.47516741071429  C 16.3780381944444 7.50623139880952  16.6927083333333 8.63355654761905  16.6927083333333 9.85714285714286  C 16.6927083333333 10.9010416666667  16.4605034722222 11.8786272321429  15.99609375 12.7898995535714  C 15.5316840277778 13.701171875  14.8958333333333 14.4605654761905  14.0885416666667 15.0680803571429  C 14.0190972222222 15.1194196428571  13.9496527777778 15.1279761904762  13.8802083333333 15.09375  C 13.8107638888889 15.0595238095238  13.7673611111111 14.9996279761905  13.75 14.9140625  C 13.6979166666667 14.4691220238095  13.5720486111111 14.0755208333333  13.3723958333333 13.7332589285714  C 13.3116319444444 13.647693452381  13.3246527777778 13.5621279761905  13.4114583333333 13.4765625  C 13.9149305555556 13.0145089285714  14.3098958333333 12.4711681547619  14.5963541666667 11.8465401785714  C 14.8828125 11.221912202381  15.0260416666667 10.5587797619048  15.0260416666667 9.85714285714286  C 15.0260416666667 8.90736607142857  14.7721354166667 8.03459821428571  14.2643229166667 7.23883928571429  C 13.7565104166667 6.44308035714286  13.0729166666667 5.83770461309524  12.2135416666667 5.42271205357143  C 11.3541666666667 5.00771949404762  10.4340277777778 4.8515625  9.453125 4.95424107142857  C 8.29861111111111 5.08258928571429  7.3046875 5.56603422619047  6.47135416666667 6.40457589285714  C 5.63802083333333 7.24311755952381  5.16493055555556 8.23139880952381  5.05208333333333 9.36941964285714  C 4.96527777777778 10.1566220238095  5.06727430555556 10.9095982142857  5.35807291666667 11.6283482142857  C 5.64887152777778 12.3470982142857  6.07638888888889 12.9631696428571  6.640625 13.4765625  C 6.72743055555556 13.5621279761905  6.74045138888889 13.647693452381  6.6796875 13.7332589285714  C 6.47135416666667 14.0840773809524  6.34548611111111 14.4819568452381  6.30208333333333 14.9268973214286  C 6.28472222222222 15.00390625  6.24131944444445 15.0595238095238  6.171875 15.09375  C 6.10243055555556 15.1279761904762  6.03298611111111 15.1194196428571  5.96354166666667 15.0680803571429  C 5.13888888888889 14.4348958333333  4.49435763888889 13.6519717261905  4.02994791666667 12.7193080357143  C 3.56553819444444 11.7866443452381  3.34201388888889 10.7855282738095  3.359375 9.71595982142857  C 3.38541666666667 8.59505208333333  3.68489583333333 7.55115327380952  4.2578125 6.58426339285714  C 4.83072916666667 5.61737351190476  5.59895833333333 4.84086681547619  6.5625 4.25474330357143  C 7.52604166666667 3.66861979166667  8.57204861111111 3.34988839285714  9.70052083333333 3.29854910714286  C 10.9505208333333 3.23865327380952  12.1137152777778 3.49534970238095  13.1901041666667 4.06863839285714  C 14.2664930555556 4.64192708333333  15.1193576388889 5.44410342261905  15.7486979166667 6.47516741071429  Z " fill-rule="nonzero" fill="#555555" stroke="none" transform="matrix(1 0 0 1 93 352 )" />
  </g>
</svg>