<?xml version="1.0" encoding="utf-8"?>
<svg version="1.1" xmlns:xlink="http://www.w3.org/1999/xlink" width="13px" height="13px" xmlns="http://www.w3.org/2000/svg">
  <g transform="matrix(1 0 0 1 -1178 -356 )">
    <path d="M 1184.5 356  C 1188.14 356  1191 358.86  1191 362.5  C 1191 366.14  1188.14 369  1184.5 369  C 1180.86 369  1178 366.14  1178 362.5  C 1178 358.86  1180.86 356  1184.5 356  Z " fill-rule="nonzero" fill="#ffffff" stroke="none" fill-opacity="0" />
    <path d="M 1184.5 356.5  C 1187.86 356.5  1190.5 359.14  1190.5 362.5  C 1190.5 365.86  1187.86 368.5  1184.5 368.5  C 1181.14 368.5  1178.5 365.86  1178.5 362.5  C 1178.5 359.14  1181.14 356.5  1184.5 356.5  Z " stroke-width="1" stroke="#80ffff" fill="none" />
  </g>
</svg>