<?xml version="1.0" encoding="utf-8"?>
<svg version="1.1" xmlns:xlink="http://www.w3.org/1999/xlink" width="15px" height="20px" xmlns="http://www.w3.org/2000/svg">
  <g transform="matrix(1 0 0 1 -40 -28 )">
    <path d="M 10.3515625 0.758928571428572  L 14.3359375 5.3125  C 14.4270833333333 5.41666666666667  14.5182291666667 5.55059523809524  14.609375 5.71428571428571  L 10 5.71428571428571  L 10 0.446428571428572  C 10.1432291666667 0.550595238095237  10.2604166666667 0.654761904761902  10.3515625 0.758928571428572  Z M 9.0234375 6.83035714285714  C 9.20572916666667 7.03869047619047  9.42708333333333 7.14285714285714  9.6875 7.14285714285714  L 15 7.14285714285714  L 15 18.9285714285714  C 15 19.2261904761905  14.9088541666667 19.4791666666667  14.7265625 19.6875  C 14.5442708333333 19.8958333333333  14.3229166666667 20  14.0625 20  L 0.9375 20  C 0.677083333333333 20  0.455729166666667 19.8958333333333  0.2734375 19.6875  C 0.0911458333333333 19.4791666666667  0 19.2261904761905  0 18.9285714285714  L 0 1.07142857142857  C 0 0.773809523809523  0.0911458333333333 0.520833333333333  0.2734375 0.3125  C 0.455729166666667 0.104166666666667  0.677083333333333 0  0.9375 0  L 8.75 0  L 8.75 6.07142857142857  C 8.75 6.36904761904762  8.84114583333333 6.62202380952381  9.0234375 6.83035714285714  Z M 11.162109375 15.6138392857143  C 11.220703125 15.546875  11.25 15.4613095238095  11.25 15.3571428571429  L 11.25 14.6428571428571  C 11.25 14.5386904761905  11.220703125 14.453125  11.162109375 14.3861607142857  C 11.103515625 14.3191964285714  11.0286458333333 14.2857142857143  10.9375 14.2857142857143  L 4.0625 14.2857142857143  C 3.97135416666667 14.2857142857143  3.896484375 14.3191964285714  3.837890625 14.3861607142857  C 3.779296875 14.453125  3.75 14.5386904761905  3.75 14.6428571428571  L 3.75 15.3571428571429  C 3.75 15.4613095238095  3.779296875 15.546875  3.837890625 15.6138392857143  C 3.896484375 15.6808035714286  3.97135416666667 15.7142857142857  4.0625 15.7142857142857  L 10.9375 15.7142857142857  C 11.0286458333333 15.7142857142857  11.103515625 15.6808035714286  11.162109375 15.6138392857143  Z M 11.162109375 12.7566964285714  C 11.220703125 12.6897321428571  11.25 12.6041666666667  11.25 12.5  L 11.25 11.7857142857143  C 11.25 11.6815476190476  11.220703125 11.5959821428571  11.162109375 11.5290178571429  C 11.103515625 11.4620535714286  11.0286458333333 11.4285714285714  10.9375 11.4285714285714  L 4.0625 11.4285714285714  C 3.97135416666667 11.4285714285714  3.896484375 11.4620535714286  3.837890625 11.5290178571429  C 3.779296875 11.5959821428571  3.75 11.6815476190476  3.75 11.7857142857143  L 3.75 12.5  C 3.75 12.6041666666667  3.779296875 12.6897321428571  3.837890625 12.7566964285714  C 3.896484375 12.8236607142857  3.97135416666667 12.8571428571429  4.0625 12.8571428571429  L 10.9375 12.8571428571429  C 11.0286458333333 12.8571428571429  11.103515625 12.8236607142857  11.162109375 12.7566964285714  Z M 11.162109375 9.89955357142857  C 11.220703125 9.83258928571429  11.25 9.74702380952381  11.25 9.64285714285714  L 11.25 8.92857142857143  C 11.25 8.82440476190476  11.220703125 8.73883928571429  11.162109375 8.671875  C 11.103515625 8.60491071428571  11.0286458333333 8.57142857142857  10.9375 8.57142857142857  L 4.0625 8.57142857142857  C 3.97135416666667 8.57142857142857  3.896484375 8.60491071428571  3.837890625 8.671875  C 3.779296875 8.73883928571429  3.75 8.82440476190476  3.75 8.92857142857143  L 3.75 9.64285714285714  C 3.75 9.74702380952381  3.779296875 9.83258928571429  3.837890625 9.89955357142857  C 3.896484375 9.96651785714286  3.97135416666667 10  4.0625 10  L 10.9375 10  C 11.0286458333333 10  11.103515625 9.96651785714286  11.162109375 9.89955357142857  Z " fill-rule="nonzero" fill="#000000" stroke="none" transform="matrix(1 0 0 1 40 28 )" />
  </g>
</svg>