<?xml version="1.0" encoding="utf-8"?>
<svg version="1.1" xmlns:xlink="http://www.w3.org/1999/xlink" width="24px" height="18px" xmlns="http://www.w3.org/2000/svg">
  <g transform="matrix(1 0 0 1 -83 -28 )">
    <path d="M 11.0769230769231 3.33333333333333  L 20.7692307692308 3.33333333333333  C 21.6538461538462 3.27272727272727  22.4134615384615 3.55397727272727  23.0480769230769 4.11647727272727  C 23.6826923076923 4.67897727272727  24 5.35227272727272  24 6.13636363636364  L 24 15.1363636363636  C 24 15.9204545454545  23.6826923076923 16.59375  23.0480769230769 17.15625  C 22.4134615384615 17.71875  21.6538461538462 18  20.7692307692308 18  L 3.23076923076923 18  C 2.34615384615384 18  1.58653846153846 17.71875  0.95192307692308 17.15625  C 0.31730769230769 16.59375  0 15.9204545454545  0 15.1363636363636  L 0 2.86363636363636  C 0 2.07954545454545  0.31730769230769 1.40625  0.95192307692308 0.84375  C 1.58653846153846 0.28125  2.34615384615384 0  3.23076923076923 0  L 7.84615384615385 0  C 8.73076923076923 0  9.49038461538462 0.28125  10.125 0.84375  C 10.7596153846154 1.40625  11.0769230769231 2.07954545454545  11.0769230769231 2.86363636363636  L 11.0769230769231 3.33333333333333  Z M 21.2098721590909 7.1467803030303  C 20.8497869318182 6.82670454545455  20.4161931818182 6.66666666666667  19.9090909090909 6.66666666666667  L 14.5909090909091 6.66666666666667  C 14.0838068181818 6.66666666666667  13.6502130681818 6.82670454545455  13.2901278409091 7.1467803030303  C 12.9300426136364 7.46685606060606  12.75 7.85227272727273  12.75 8.3030303030303  L 12.75 13.030303030303  C 12.75 13.4810606060606  12.9300426136364 13.8664772727273  13.2901278409091 14.186553030303  C 13.6502130681818 14.5066287878788  14.0838068181818 14.6666666666667  14.5909090909091 14.6666666666667  L 19.9090909090909 14.6666666666667  C 20.4161931818182 14.6666666666667  20.8497869318182 14.5066287878788  21.2098721590909 14.186553030303  C 21.5699573863636 13.8664772727273  21.75 13.4810606060606  21.75 13.030303030303  L 21.75 8.3030303030303  C 21.75 7.85227272727273  21.5699573863636 7.46685606060606  21.2098721590909 7.1467803030303  Z M 20.6313920454545 13.6723484848485  C 20.4311079545455 13.8503787878788  20.1903409090909 13.9393939393939  19.9090909090909 13.9393939393939  L 14.5909090909091 13.9393939393939  C 14.3096590909091 13.9393939393939  14.0688920454546 13.8503787878788  13.8686079545454 13.6723484848485  C 13.6683238636364 13.4943181818182  13.5681818181818 13.280303030303  13.5681818181818 13.030303030303  L 13.5681818181818 8.3030303030303  C 13.5681818181818 8.0530303030303  13.6683238636364 7.83901515151515  13.8686079545454 7.66098484848485  C 14.0688920454546 7.48295454545454  14.3096590909091 7.39393939393939  14.5909090909091 7.39393939393939  L 19.9090909090909 7.39393939393939  C 20.1903409090909 7.39393939393939  20.4311079545455 7.48295454545454  20.6313920454545 7.66098484848485  C 20.8316761363636 7.83901515151515  20.9318181818182 8.0530303030303  20.9318181818182 8.3030303030303  L 20.9318181818182 13.030303030303  C 20.9318181818182 13.280303030303  20.8316761363636 13.4943181818182  20.6313920454545 13.6723484848485  Z M 20.0561079545455 10.3541666666667  C 20.0177556818182 10.3200757575758  19.96875 10.3030303030303  19.9090909090909 10.3030303030303  L 17.6590909090909 10.3030303030303  L 17.6590909090909 8.3030303030303  C 17.6590909090909 8.25  17.6399147727273 8.20643939393939  17.6015625 8.17234848484848  C 17.5632102272727 8.13825757575757  17.5142045454546 8.12121212121212  17.4545454545455 8.12121212121212  L 17.0454545454546 8.12121212121212  C 16.9857954545455 8.12121212121212  16.9367897727273 8.13825757575757  16.8984375 8.17234848484848  C 16.8600852272727 8.20643939393939  16.8409090909091 8.25  16.8409090909091 8.3030303030303  L 16.8409090909091 10.3030303030303  L 14.5909090909091 10.3030303030303  C 14.53125 10.3030303030303  14.4822443181818 10.3200757575758  14.4438920454546 10.3541666666667  C 14.4055397727273 10.3882575757576  14.3863636363636 10.4318181818182  14.3863636363636 10.4848484848485  L 14.3863636363636 10.8484848484848  C 14.3863636363636 10.9015151515152  14.4055397727273 10.9450757575758  14.4438920454546 10.9791666666667  C 14.4822443181818 11.0132575757576  14.53125 11.030303030303  14.5909090909091 11.030303030303  L 16.8409090909091 11.030303030303  L 16.8409090909091 13.030303030303  C 16.8409090909091 13.0833333333333  16.8600852272727 13.1268939393939  16.8984375 13.1609848484848  C 16.9367897727273 13.1950757575758  16.9857954545455 13.2121212121212  17.0454545454546 13.2121212121212  L 17.4545454545455 13.2121212121212  C 17.5142045454546 13.2121212121212  17.5632102272727 13.1950757575758  17.6015625 13.1609848484848  C 17.6399147727273 13.1268939393939  17.6590909090909 13.0833333333333  17.6590909090909 13.030303030303  L 17.6590909090909 11.030303030303  L 19.9090909090909 11.030303030303  C 19.96875 11.030303030303  20.0177556818182 11.0132575757576  20.0561079545455 10.9791666666667  C 20.0944602272727 10.9450757575758  20.1136363636364 10.9015151515152  20.1136363636364 10.8484848484848  L 20.1136363636364 10.4848484848485  C 20.1136363636364 10.4318181818182  20.0944602272727 10.3882575757576  20.0561079545455 10.3541666666667  Z " fill-rule="nonzero" fill="#000000" stroke="none" transform="matrix(1 0 0 1 83 28 )" />
  </g>
</svg>