<?xml version="1.0" encoding="utf-8"?>
<svg version="1.1" xmlns:xlink="http://www.w3.org/1999/xlink" width="20px" height="20px" xmlns="http://www.w3.org/2000/svg">
  <g transform="matrix(1 0 0 1 -150 -195 )">
    <path d="M 160 195  C 165.6 195  170 199.4  170 205  C 170 210.6  165.6 215  160 215  C 154.4 215  150 210.6  150 205  C 150 199.4  154.4 195  160 195  Z " fill-rule="nonzero" fill="#ffffff" stroke="none" />
    <path d="M 160 195.5  C 165.32 195.5  169.5 199.68  169.5 205  C 169.5 210.32  165.32 214.5  160 214.5  C 154.68 214.5  150.5 210.32  150.5 205  C 150.5 199.68  154.68 195.5  160 195.5  Z " stroke-width="1" stroke="#d7d7d7" fill="none" />
  </g>
</svg>