<?xml version="1.0" encoding="utf-8"?>
<svg version="1.1" xmlns:xlink="http://www.w3.org/1999/xlink" width="12px" height="12px" xmlns="http://www.w3.org/2000/svg">
  <g transform="matrix(1 0 0 1 -353 -279 )">
    <path d="M 359 279  C 362.36 279  365 281.64  365 285  C 365 288.36  362.36 291  359 291  C 355.64 291  353 288.36  353 285  C 353 281.64  355.64 279  359 279  Z " fill-rule="nonzero" fill="#ffffff" stroke="none" />
    <path d="M 359 279.5  C 362.08 279.5  364.5 281.92  364.5 285  C 364.5 288.08  362.08 290.5  359 290.5  C 355.92 290.5  353.5 288.08  353.5 285  C 353.5 281.92  355.92 279.5  359 279.5  Z " stroke-width="1" stroke="#555555" fill="none" />
  </g>
</svg>