<?xml version="1.0" encoding="utf-8"?>
<svg version="1.1" xmlns:xlink="http://www.w3.org/1999/xlink" width="12px" height="12px" xmlns="http://www.w3.org/2000/svg">
  <g transform="matrix(1 0 0 1 -229 -279 )">
    <path d="M 235 279  C 238.36 279  241 281.64  241 285  C 241 288.36  238.36 291  235 291  C 231.64 291  229 288.36  229 285  C 229 281.64  231.64 279  235 279  Z " fill-rule="nonzero" fill="#ffffff" stroke="none" />
    <path d="M 235 279.5  C 238.08 279.5  240.5 281.92  240.5 285  C 240.5 288.08  238.08 290.5  235 290.5  C 231.92 290.5  229.5 288.08  229.5 285  C 229.5 281.92  231.92 279.5  235 279.5  Z " stroke-width="1" stroke="#d9001b" fill="none" />
  </g>
</svg>