<?xml version="1.0" encoding="utf-8"?>
<svg version="1.1" xmlns:xlink="http://www.w3.org/1999/xlink" width="20px" height="19px" xmlns="http://www.w3.org/2000/svg">
  <defs>
    <mask fill="white" id="clip689">
      <path d="M 20 0  L 20 19  L 0 19  L 0 9  L 10 9  L 10 0  L 20 0  Z " fill-rule="evenodd" />
    </mask>
  </defs>
  <g transform="matrix(1 0 0 1 -549 -276 )">
    <path d="M 20 0  L 20 19  L 0 19  L 0 9  L 10 9  L 10 0  L 20 0  Z " fill-rule="nonzero" fill="#ffffff" stroke="none" transform="matrix(1 0 0 1 549 276 )" />
    <path d="M 20 0  L 20 19  L 0 19  L 0 9  L 10 9  L 10 0  L 20 0  Z " stroke-width="4" stroke="#555555" fill="none" transform="matrix(1 0 0 1 549 276 )" mask="url(#clip689)" />
  </g>
</svg>