<?xml version="1.0" encoding="utf-8"?>
<svg version="1.1" xmlns:xlink="http://www.w3.org/1999/xlink" width="170px" height="170px" xmlns="http://www.w3.org/2000/svg">
  <g transform="matrix(1 0 0 1 -84 -1283 )">
    <path d="M 169 1283  C 216.6 1283  254 1320.4  254 1368  C 254 1415.6  216.6 1453  169 1453  C 121.4 1453  84 1415.6  84 1368  C 84 1320.4  121.4 1283  169 1283  Z " fill-rule="nonzero" fill="#ffffff" stroke="none" />
    <path d="M 169 1283.5  C 216.32 1283.5  253.5 1320.68  253.5 1368  C 253.5 1415.32  216.32 1452.5  169 1452.5  C 121.68 1452.5  84.5 1415.32  84.5 1368  C 84.5 1320.68  121.68 1283.5  169 1283.5  Z " stroke-width="1" stroke="#797979" fill="none" />
  </g>
</svg>