<?xml version="1.0" encoding="utf-8"?>
<svg version="1.1" xmlns:xlink="http://www.w3.org/1999/xlink" width="362px" height="483px" xmlns="http://www.w3.org/2000/svg">
  <g transform="matrix(1 0 0 1 -2676 -1128 )">
    <path d="M 3037.5 1200.4  C 3037.5 1200.4  3037.5 1538.6  3037.5 1538.6  C 3037.5 1579.032  2957.66 1610.5  2857 1610.5  C 2756.34 1610.5  2676.5 1579.032  2676.5 1538.6  C 2676.5 1538.6  2676.5 1200.4  2676.5 1200.4  C 2676.5 1159.968  2756.34 1128.5  2857 1128.5  C 2957.66 1128.5  3037.5 1159.968  3037.5 1200.4  Z " fill-rule="nonzero" fill="#ffffff" stroke="none" />
    <path d="M 2676.5 1200.75010351967  C 2676.5 1160.29004554865  2755.92 1128.5  2857 1128.5  C 2958.08 1128.5  3037.5 1160.29004554865  3037.5 1200.75010351967  C 3037.5 1200.75010351967  3037.5 1538.24989648033  3037.5 1538.24989648033  C 3037.5 1578.70995445135  2958.08 1610.5  2857 1610.5  C 2755.92 1610.5  2676.5 1578.70995445135  2676.5 1538.24989648033  C 2676.5 1538.24989648033  2676.5 1200.75010351967  2676.5 1200.75010351967  Z " stroke-width="1" stroke="#797979" fill="none" />
    <path d="M 3037.5 1200.4  C 3037.5 1240.664  2958.08 1272.3  2857 1272.3  C 2755.92 1272.3  2676.5 1240.664  2676.5 1200.4  " stroke-width="1" stroke="#797979" fill="none" />
  </g>
</svg>