<?xml version="1.0" encoding="utf-8"?>
<svg version="1.1" xmlns:xlink="http://www.w3.org/1999/xlink" width="16px" height="16px" xmlns="http://www.w3.org/2000/svg">
  <g transform="matrix(1 0 0 1 -237 -767 )">
    <path d="M 15.9968264748123 8.00199823002059  C 15.9968264748123 4.76428830064821  14.0448210782977 1.84596697657595  11.0523681875 0.60984753125  C 11.0051589575166 0.595469456262282  10.9560807964099 0.588161525650555  10.906730614688 0.588161525650555  C 10.6306572581075 0.588161525650555  10.406855583438 0.811963200319989  10.406855583438 1.08803655690056  C 10.406855583438 1.27303990117152  10.5090343877257 1.44291540287273  10.672463171875 1.52961759375  C 13.2889543806457 2.6121335536178  14.9952788650822 5.16468343510059  14.9952788650822 7.99626727615897  C 14.9952788650822 11.8612942682869  11.8620554197102 14.994517713659  7.99702842758223 14.994517713659  C 4.1320014354543 14.994517713659  0.998777990082232 11.8612942682869  0.998777990082232 7.99626727615897  C 0.998777990082232 5.21119141514286  2.65020766027057 2.69120701073047  5.203830328125 1.57960509375  C 5.41204519908272 1.51409223680001  5.55367551962137 1.32105407226494  5.55367551962137 1.10277588527941  C 5.55367551962137 0.826702528698845  5.32987384495194 0.602900854029411  5.05380048837137 0.602900854029411  C 4.96608045413 0.602900854029411  4.87990489471486 0.625984344056892  4.803930296875 0.669832546875  C 1.88693596097539 1.94087482811476  0.000825474812295965 4.82011129985328  0.000825474812295965 8.00199823002059  C 0.000825474812295965 12.4191719353097  3.58165226952323 15.9999987300206  7.9988259748123 15.9999987300206  C 12.4159996801014 15.9999987300206  15.9968264748123 12.4191719353097  15.9968264748123 8.00199823002059  Z " fill-rule="nonzero" fill="#ffffff" stroke="none" transform="matrix(1 0 0 1 237 767 )" />
  </g>
</svg>