<?xml version="1.0" encoding="utf-8"?>
<svg version="1.1" xmlns:xlink="http://www.w3.org/1999/xlink" width="12px" height="12px" xmlns="http://www.w3.org/2000/svg">
  <g transform="matrix(1 0 0 1 -239 -770 )">
    <path d="M 1.65973196168727 5.54822682490784  C 1.65973196168727 4.07074259498118  2.30870130683737 2.68033320543565  3.40973844140625 1.798857984375  C 3.53111448941919 1.70082348661048  3.60254738805803 1.5469680150237  3.60254738805803 1.38357718269231  C 3.60254738805803 1.09688561829714  3.38673862899194 0.864476185456731  3.12052503348214 0.864476185456731  C 3.01622975574474 0.864476185456731  2.91474784853037 0.900905587287368  2.83131162555804 0.968296381009616  C 1.48812616103214 2.04590549066125  0.696717003360084 3.74362960201933  0.696717003360084 5.54741038664066  C 0.696717003360084 8.70101757527251  3.07061333824658 11.2575213205349  5.99896287054758 11.2575213205349  C 8.92731240284859 11.2575213205349  11.3012087377351 8.70101757527251  11.3012087377351 5.54741038664066  C 11.3012087377351 3.64855607579098  10.4247057679828 1.87392452581915  8.96263593080357 0.812566092548077  C 8.88289524907161 0.754626616703948  8.78889654266151 0.723670453013721  8.6927034157366 0.723670453013721  C 8.42615726428073 0.723670453013721  8.21007891535426 0.956370213396075  8.21007891535426 1.24341991496394  C 8.21007891535426 1.41617997853026  8.28978837604301 1.5776488075956  8.42277090066964 1.67427373737981  C 9.61900155386919 2.54265936194891  10.3361342898123 3.99462535666723  10.3361342898123 5.54822682490784  C 10.3361342898123 8.12845088833391  8.39385547035968 10.2201357708213  5.99793312574977 10.2201357708213  C 3.60201078113985 10.2201357708213  1.65973196168727 8.12845088833391  1.65973196168727 5.54822682490784  Z " fill-rule="nonzero" fill="#ffffff" stroke="none" transform="matrix(1 0 0 1 239 770 )" />
  </g>
</svg>