<?xml version="1.0" encoding="utf-8"?>
<svg version="1.1" xmlns:xlink="http://www.w3.org/1999/xlink" width="180px" height="27px" viewBox="988 81  180 27" xmlns="http://www.w3.org/2000/svg">
  <path d="M 988.5 86  A 4.5 4.5 0 0 1 993 81.5 L 1163 81.5  A 4.5 4.5 0 0 1 1167.5 86 L 1167.5 103  A 4.5 4.5 0 0 1 1163 107.5 L 993 107.5  A 4.5 4.5 0 0 1 988.5 103 L 988.5 86  Z " fill-rule="nonzero" fill="#81d3f8" stroke="none" fill-opacity="0.109803921568627" />
  <path d="M 988.5 86  A 4.5 4.5 0 0 1 993 81.5 L 1163 81.5  A 4.5 4.5 0 0 1 1167.5 86 L 1167.5 103  A 4.5 4.5 0 0 1 1163 107.5 L 993 107.5  A 4.5 4.5 0 0 1 988.5 103 L 988.5 86  Z " stroke-width="1" stroke="#81d3f8" fill="none" />
</svg>