<?xml version="1.0" encoding="utf-8"?>
<svg version="1.1" xmlns:xlink="http://www.w3.org/1999/xlink" width="250px" height="35px" viewBox="0 0  250 35" xmlns="http://www.w3.org/2000/svg">
  <path d="M 0.5 5  A 4.5 4.5 0 0 1 5 0.5 L 245 0.5  A 4.5 4.5 0 0 1 249.5 5 L 249.5 30  A 4.5 4.5 0 0 1 245 34.5 L 5 34.5  A 4.5 4.5 0 0 1 0.5 30 L 0.5 5  Z " fill-rule="nonzero" fill="#ffffff" stroke="none" />
  <path d="M 0.5 5  A 4.5 4.5 0 0 1 5 0.5 L 245 0.5  A 4.5 4.5 0 0 1 249.5 5 L 249.5 30  A 4.5 4.5 0 0 1 245 34.5 L 5 34.5  A 4.5 4.5 0 0 1 0.5 30 L 0.5 5  Z " stroke-width="1" stroke="#81d3f8" fill="none" />
</svg>