<?xml version="1.0" encoding="utf-8"?>
<svg version="1.1" xmlns:xlink="http://www.w3.org/1999/xlink" width="38px" height="33px" xmlns="http://www.w3.org/2000/svg">
  <g transform="matrix(1 0 0 1 -2790 -929 )">
    <path d="M 37.9881683013393 16.74389734875  C 37.9881683013393 16.06015739625  37.4182940915179 15.4986616125  36.7152713169643 16  L 4.40829547544643 16  L 19.6249911316964 2.34327377625  C 20.1504679821429 1.88899491  20.1977730625 1.10648030625  19.73075484375 0.595427126249999  C 19.2637800111607 0.0844161449999989  18.4592900267857 0.0382790924999987  17.9338131763393 0.492600198749999  L 0.459710895089286 15.5994624225  C 0.187945455357143 15.834410955  0.0324897031250002 16.17117335625  0.0324897031250002 16.52482029  C 0.0324897031250002 16.87846722375  0.187945455357143 17.215229625  0.459710895089286 17.4501781575  L 17.9337697477679 32.55708253875  C 18.1762407924107 32.76674647125  18.4781252611607 32.86982667375  18.7788813504464 32.86982667375  C 19.1298502410714 32.869742235  19.4793001919643 32.72943163875  19.7307114575893 32.45425561125  C 20.1977730625 31.94320243125  20.1504680245536 31.16068786875  19.6249477455357 30.70640896125  L 4.91511067857143 18  L 36.7152713169643 18  C 37.4182507053571 17.989133085  37.9881683013393 17.42763730125  37.9881683013393 16.74389734875  Z " fill-rule="nonzero" fill="#02a7f0" stroke="none" transform="matrix(1 0 0 1 2790 929 )" />
  </g>
</svg>