<?xml version="1.0" encoding="utf-8"?>
<svg version="1.1" xmlns:xlink="http://www.w3.org/1999/xlink" width="96px" height="27px" viewBox="690 4  96 27" xmlns="http://www.w3.org/2000/svg">
  <path d="M 691 9  A 4 4 0 0 1 695 5 L 781 5  A 4 4 0 0 1 785 9 L 785 26  A 4 4 0 0 1 781 30 L 695 30  A 4 4 0 0 1 691 26 L 691 9  Z " fill-rule="nonzero" fill="#f0f0f0" stroke="none" />
  <path d="M 690.5 9  A 4.5 4.5 0 0 1 695 4.5 L 781 4.5  A 4.5 4.5 0 0 1 785.5 9 L 785.5 26  A 4.5 4.5 0 0 1 781 30.5 L 695 30.5  A 4.5 4.5 0 0 1 690.5 26 L 690.5 9  Z " stroke-width="1" stroke="#d7d7d7" fill="none" stroke-opacity="0.549019607843137" />
</svg>