<?xml version="1.0" encoding="utf-8"?>
<svg version="1.1" xmlns:xlink="http://www.w3.org/1999/xlink" width="67px" height="22px" xmlns="http://www.w3.org/2000/svg">
  <g transform="matrix(1 0 0 1 -1530 -30 )">
    <path d="M 0 20.5  L 0 0.5  L 26.6708860759493 0.5  L 55.5 0.5  C 61.0999999999999 0.5  65.5 4.9  65.5 10.5  C 65.5 16.1  61.0999999999999 20.5  55.5 20.5  L 0 20.5  Z " fill-rule="nonzero" fill="#ffffff" stroke="none" transform="matrix(1 0 0 1 1530 30 )" />
    <path d="M 0 0.5  L 26.6708860759493 0.5  L 55.5 0.5  C 61.0999999999999 0.5  65.5 4.9  65.5 10.5  C 65.5 16.1  61.0999999999999 20.5  55.5 20.5  L 0 20.5  " stroke-width="1" stroke="#81d3f8" fill="none" transform="matrix(1 0 0 1 1530 30 )" />
  </g>
</svg>