<?xml version="1.0" encoding="utf-8"?>
<svg version="1.1" xmlns:xlink="http://www.w3.org/1999/xlink" width="89px" height="89px" xmlns="http://www.w3.org/2000/svg">
  <defs>
    <filter x="66px" y="65px" width="89px" height="89px" filterUnits="userSpaceOnUse" id="filter320">
      <feOffset dx="5" dy="5" in="SourceAlpha" result="shadowOffsetInner" />
      <feGaussianBlur stdDeviation="2.5" in="shadowOffsetInner" result="shadowGaussian" />
      <feComposite in2="shadowGaussian" operator="atop" in="SourceAlpha" result="shadowComposite" />
      <feColorMatrix type="matrix" values="0 0 0 0 0  0 0 0 0 0  0 0 0 0 0  0 0 0 0.349019607843137 0  " in="shadowComposite" />
    </filter>
    <g id="widget321">
      <path d="M 105.5 65  C 127.62 65  145 82.38  145 104.5  C 145 126.62  127.62 144  105.5 144  C 83.38 144  66 126.62  66 104.5  C 66 82.38  83.38 65  105.5 65  Z " fill-rule="nonzero" fill="#ffffff" stroke="none" />
      <path d="M 105.5 65.5  C 127.34 65.5  144.5 82.66  144.5 104.5  C 144.5 126.34  127.34 143.5  105.5 143.5  C 83.66 143.5  66.5 126.34  66.5 104.5  C 66.5 82.66  83.66 65.5  105.5 65.5  Z " stroke-width="1" stroke="#797979" fill="none" />
    </g>
  </defs>
  <g transform="matrix(1 0 0 1 -66 -65 )">
    <use xlink:href="#widget321" filter="url(#filter320)" />
    <use xlink:href="#widget321" />
  </g>
</svg>