<?xml version="1.0" encoding="utf-8"?>
<svg version="1.1" xmlns:xlink="http://www.w3.org/1999/xlink" width="11px" height="14px" xmlns="http://www.w3.org/2000/svg">
  <g transform="matrix(1 0 0 1 -160 -35 )">
    <path d="M 9.911196625 11.4997968600052  C 9.91038170155145 12.2498684906231  9.36457793656045 12.8576953877819  8.69104420200893 12.8586029161335  L 2.34181470089286 12.8586029161335  C 1.65557140178571 12.8586029161335  1.12462022209821 11.9757907443807  1.12462022209821 11.2115652810419  C 1.12511312397049 11.2013512085195  1.12535970814732 11.1911242404413  1.12535970814732 11.1808954290027  C 1.12535970814732 10.8652525108205  0.895590673757743 10.6093733685459  0.612156205915178 10.6093733685459  C 0.328721738072612 10.6093733685459  0.098952703683035 10.8652525108205  0.098952703683035 11.1808954290027  C 0.098952703683035 11.1911242404413  0.0991992878598615 11.2013512085195  0.0996921897321422 11.2115652810419  C 0.105217554201205 11.8977354194684  0.32185666140583 12.5610473222275  0.713465831473214 13.0908352218201  C 1.10454897271998 13.6529484475884  1.70338434566084 13.9872994206696  2.34181470089286 14  L 8.69104420200893 14  C 9.93029230316139 13.9981853083647  10.9344951382851 12.8798685569196  10.9361246573661 11.4997968600052  L 10.9361246573661 2.47073651334343  C 10.9312609801259 1.10853569798197  9.94086649038952 0.00559642150128748  8.71766571205357 0.00018005387014258  L 2.34181470089286 0.00018005387014258  C 2.3328873772017 6.0019050259875E-05  2.32395948417676 0  2.31503150981586 0  C 1.08981046619406 0  0.0965725645033609 1.10610580331023  0.0965725645033609 2.47055645947328  C 0.0965725645033609 2.48049897599987  0.0966264591627714 2.49044140194779  0.0967342455357144 2.50038319386492  L 0.0967342455357144 2.82979072635198  L 1.10983050111607 2.85120220796559  L 1.12314125 2.45591317991862  C 1.12462940463089 2.44334026802647  1.12462940463089 2.43060422605327  1.12314125 2.41803131416112  C 1.14325367742821 1.69082953780934  1.68881092509691 1.11940589125731  2.34181470089286 1.14157713773664  L 8.71174982366071 1.14157713773664  C 9.37154872901955 1.14246810779737  9.90713430738795 1.73597387406667  9.911196625 2.47073651334343  L 9.911196625 11.4997968600052  Z " fill-rule="nonzero" fill="#ffffff" stroke="none" transform="matrix(1 0 0 1 160 35 )" />
  </g>
</svg>