<?xml version="1.0" encoding="utf-8"?>
<svg version="1.1" xmlns:xlink="http://www.w3.org/1999/xlink" width="8px" height="8px" xmlns="http://www.w3.org/2000/svg">
  <g transform="matrix(1 0 0 1 -159 -38 )">
    <path d="M 0.060350342847521 3.99357687712062  C 0.060350342847521 3.9957475490547  0.0603611395981066 3.9979182028558  0.0603827325581396 4.00008872972973  C 0.060361139687729 4.00225925209971  0.0603503429819569 4.00442990139608  0.0603503429819569 4.00660056882532  C 0.0603503429819569 4.3176883060245  0.277347976089633 4.56987474450099  0.545028122051724 4.56987474450099  L 6.48166290697674 4.56987474324324  L 4.44069318604651 6.93692864864865  C 4.34967176410674 7.04271030117325  4.29853646171633 7.18618101045757  4.29853646171633 7.33577885810811  C 4.29853646171633 7.64730024923611  4.5158365878666 7.89983823368102  4.78388987790698 7.89983823368102  C 4.91261360728069 7.89983823368102  5.03606514782767 7.84041072009217  5.12708656976744 7.73462906756757  L 7.70596458139535 4.73267074324324  C 8.05363705230233 4.32785247596628  8.05363705230233 3.67232496997967  7.70596458139535 3.2675067027027  L 5.12708656976744 0.265548378378378  C 5.03594179335313 0.160272232098842  4.9123904584451 0.101665423659301  4.78388987209302 0.102752378378378  C 4.78309904110947 0.102747879433375  4.78230820183554 0.102745629950768  4.78151736137715 0.102745629950768  C 4.51383721541506 0.102745629950768  4.29683958230738 0.354932068427257  4.29683958230738 0.666019805626443  C 4.29683958230738 0.816485857708186  4.34864015113739 0.960697373006791  4.44069318604651 1.06650471621622  L 6.48306370930233 3.4303027027027  L 0.545060511627907 3.4303027027027  C 0.277347975955197 3.43030270144494  0.060350342847521 3.68248913992143  0.060350342847521 3.99357687712062  Z " fill-rule="nonzero" fill="#ffffff" stroke="none" transform="matrix(1 0 0 1 159 38 )" />
  </g>
</svg>