<?xml version="1.0" encoding="utf-8"?>
<svg version="1.1" xmlns:xlink="http://www.w3.org/1999/xlink" width="17px" height="17px" xmlns="http://www.w3.org/2000/svg">
  <g transform="matrix(1 0 0 1 -38 -33 )">
    <path d="M 16.9767578125 8.49833984375  C 16.9767578125 3.82001953125  13.1716796875 0.01494140625  8.493359375 0.01494140625  C 3.8150390625 0.01494140625  0.0099609375 3.82001953125  0.0099609375 8.49833984375  C 0.0099609375 13.17666015625  3.8150390625 16.98173828125  8.493359375 16.98173828125  C 13.1716796875 16.98173828125  16.9767578125 13.17666015625  16.9767578125 8.49833984375  Z M 15.6453125 8.49833984375  C 15.6453125 12.44287109375  12.43623046875 15.651953125  8.493359375 15.651953125  C 4.548828125 15.651953125  1.33974609375 12.44287109375  1.33974609375 8.49833984375  C 1.33974609375 4.55546875  4.548828125 1.3447265625  8.493359375 1.3447265625  C 12.437890625 1.3447265625  15.6453125 4.55380859375  15.6453125 8.49833984375  Z " fill-rule="nonzero" fill="#ffffff" stroke="none" transform="matrix(1 0 0 1 38 33 )" />
  </g>
</svg>