<?xml version="1.0" encoding="utf-8"?>
<svg version="1.1" xmlns:xlink="http://www.w3.org/1999/xlink" width="9px" height="9px" xmlns="http://www.w3.org/2000/svg">
  <g transform="matrix(1 0 0 1 -42 -37 )">
    <path d="M 8.9580223880597 4.26306818181818  C 8.95970149253731 3.88636363636364  8.65914179104478 3.57954545454545  8.28805970149254 3.57954545454545  L 5.11287313432836 3.57954545454545  L 5.11287313432836 0.753409090909091  C 5.11287313432836 0.375  4.81063432835821 0.0698863636363631  4.43955223880597 0.0698863636363631  C 4.06847014925373 0.0698863636363631  3.76791044776119 0.376704545454545  3.76791044776119 0.753409090909091  L 3.76791044776119 3.57954545454545  L 0.7875 3.57954545454545  C 0.414738805970149 3.57954545454545  0.114179104477612 3.88636363636364  0.114179104477612 4.26136363636364  C 0.114179104477612 4.63977272727273  0.41641791044776 4.94488636363636  0.7875 4.94488636363636  L 3.76623134328358 4.94488636363636  L 3.76623134328358 8.26704545454546  C 3.76623134328358 8.64545454545455  4.06847014925373 8.94886363636364  4.43787313432836 8.94886363636364  C 4.81063432835821 8.94886363636364  5.11119402985075 8.64375  5.11119402985075 8.26704545454546  L 5.11119402985075 4.94659090909091  L 8.28638059701493 4.94659090909091  C 8.65914179104478 4.94659090909091  8.9580223880597 4.64147727272727  8.9580223880597 4.26306818181818  Z " fill-rule="nonzero" fill="#ffffff" stroke="none" transform="matrix(1 0 0 1 42 37 )" />
  </g>
</svg>