<?xml version="1.0" encoding="utf-8"?>
<svg version="1.1" xmlns:xlink="http://www.w3.org/1999/xlink" width="10px" height="10px" xmlns="http://www.w3.org/2000/svg">
  <g transform="matrix(1 0 0 1 -1378 -367 )">
    <path d="M 10 5  C 10 2.2375  7.76 0  5 0  C 2.24 0  0 2.2375  0 5  C 0 7.7625  2.24 10  5 10  C 7.76 10  10 7.7625  10 5  Z M 5.5 6.5  L 5.5 7.5  L 4.5 7.5  L 4.5 6.5  L 5.5 6.5  Z M 5.5 2.5  L 5.5 5.5  L 4.5 5.5  L 4.5 2.5  L 5.5 2.5  Z " fill-rule="nonzero" fill="#000000" stroke="none" transform="matrix(1 0 0 1 1378 367 )" />
  </g>
</svg>