<?xml version="1.0" encoding="utf-8"?>
<svg version="1.1" xmlns:xlink="http://www.w3.org/1999/xlink" width="50px" height="69px" xmlns="http://www.w3.org/2000/svg">
  <g transform="matrix(1 0 0 1 -294 -415 )">
    <path d="M 50 13.6847153465347  C 50 14.8090965346535  49.5949074074074 15.769801980198  48.7847222222222 16.5668316831683  L 36 29.0346534653465  L 36 64.2178217821782  C 36.1111111111111 65.5272277227723  35.6336805555556 66.6516089108911  34.6788194444444 67.5909653465347  C 33.7239583333333 68.5303217821782  32.5810185185185 69  31.25 69  C 29.9189814814815 69  28.7760416666667 68.5303217821782  27.8211805555556 67.5909653465347  C 26.8663194444444 66.6516089108911  26.3888888888889 65.5272277227723  26 64.2178217821782  L 26 47.8217821782178  L 24 47.8217821782178  L 24 64.2178217821782  C 23.6111111111111 65.5272277227723  23.1336805555556 66.6516089108911  22.1788194444444 67.5909653465347  C 21.2239583333333 68.5303217821782  20.0810185185185 69  18.75 69  C 17.4189814814815 69  16.2760416666667 68.5303217821782  15.3211805555556 67.5909653465347  C 14.3663194444444 66.6516089108911  13.8888888888889 65.5272277227723  14 64.2178217821782  L 14 29.0346534653465  L 1.21527777777778 16.5668316831683  C 0.405092592592593 15.769801980198  0 14.8019801980198  0 13.6633663366337  C 0 12.5247524752475  0.405092592592593 11.5569306930693  1.21527777777778 10.759900990099  C 2.05439814814815 9.96287128712871  3.04542824074074 9.56435643564357  4.18836805555556 9.56435643564357  C 5.33130787037037 9.56435643564357  6.30787037037037 9.96287128712871  7.11805555555556 10.759900990099  L 17.0138888888889 21  L 32.9861111111111 21  L 42.8819444444444 10.759900990099  C 43.6921296296296 9.96287128712871  44.6759259259259 9.56435643564357  45.8333333333333 9.56435643564357  C 46.9907407407407 9.56435643564357  47.974537037037 9.96287128712871  48.7847222222222 10.759900990099  C 49.5949074074074 11.585396039604  50 12.5603341584158  50 13.6847153465347  Z M 31.8793402777778 2.7967202970297  C 33.7745949074074 4.6612004950495  34.7222222222222 6.91707920792079  34.7222222222222 9.56435643564357  C 34.7222222222222 12.2116336633663  33.7745949074074 14.4675123762376  31.8793402777778 16.3319925742574  C 29.9840856481482 18.1964727722772  27.6909722222222 19.1287128712871  25 19.1287128712871  C 22.3090277777778 19.1287128712871  20.0159143518519 18.1964727722772  18.1206597222222 16.3319925742574  C 16.2254050925926 14.4675123762376  15.2777777777778 12.2116336633663  15.2777777777778 9.56435643564357  C 15.2777777777778 6.91707920792079  16.2254050925926 4.6612004950495  18.1206597222222 2.7967202970297  C 20.0159143518519 0.932240099009895  22.3090277777778 0  25 0  C 27.6909722222222 0  29.9840856481482 0.932240099009895  31.8793402777778 2.7967202970297  Z " fill-rule="nonzero" fill="#ffffff" stroke="none" transform="matrix(1 0 0 1 294 415 )" />
  </g>
</svg>