<?xml version="1.0" encoding="utf-8"?>
<svg version="1.1" xmlns:xlink="http://www.w3.org/1999/xlink" width="74px" height="104px" xmlns="http://www.w3.org/2000/svg">
  <g transform="matrix(1 0 0 1 -379 -380 )">
    <path d="M 74 20.6262376237624  C 74 22.3209570957096  73.400462962963 23.7689768976898  72.2013888888889 24.970297029703  L 53 43.7623762376238  L 53 96.7920792079208  C 53.4444444444444 98.7656765676568  52.7378472222222 100.460396039604  51.3246527777778 101.876237623762  C 49.9114583333333 103.292079207921  48.2199074074074 104  46.25 104  C 44.2800925925926 104  42.5885416666667 103.292079207921  41.1753472222222 101.876237623762  C 39.7621527777778 100.460396039604  39.0555555555556 98.7656765676568  39 96.7920792079208  L 39 72.0792079207921  L 35 72.0792079207921  L 35 96.7920792079208  C 34.9444444444444 98.7656765676568  34.2378472222222 100.460396039604  32.8246527777778 101.876237623762  C 31.4114583333333 103.292079207921  29.7199074074074 104  27.75 104  C 25.7800925925926 104  24.0885416666667 103.292079207921  22.6753472222222 101.876237623762  C 21.2621527777778 100.460396039604  20.5555555555556 98.7656765676568  21 96.7920792079208  L 21 43.7623762376238  L 1.79861111111111 24.970297029703  C 0.599537037037038 23.7689768976898  0 22.3102310231023  0 20.5940594059406  C 0 18.8778877887789  0.599537037037038 17.4191419141914  1.79861111111111 16.2178217821782  C 3.04050925925926 15.016501650165  4.5072337962963 14.4158415841584  6.19878472222222 14.4158415841584  C 7.89033564814815 14.4158415841584  9.33564814814815 15.016501650165  10.5347222222222 16.2178217821782  L 25.1805555555556 31  L 48.8194444444444 31  L 63.4652777777778 16.2178217821782  C 64.6643518518519 15.016501650165  66.1203703703704 14.4158415841584  67.8333333333333 14.4158415841584  C 69.5462962962963 14.4158415841584  71.0023148148148 15.016501650165  72.2013888888889 16.2178217821782  C 73.400462962963 17.4620462046205  74 18.9315181518152  74 20.6262376237624  Z M 47.1814236111111 4.21534653465346  C 49.986400462963 7.02557755775576  51.3888888888889 10.4257425742574  51.3888888888889 14.4158415841584  C 51.3888888888889 18.4059405940594  49.986400462963 21.806105610561  47.1814236111111 24.6163366336634  C 44.3764467592593 27.4265676567657  40.9826388888889 28.8316831683168  37 28.8316831683168  C 33.0173611111111 28.8316831683168  29.6235532407407 27.4265676567657  26.8185763888889 24.6163366336634  C 24.013599537037 21.806105610561  22.6111111111111 18.4059405940594  22.6111111111111 14.4158415841584  C 22.6111111111111 10.4257425742574  24.013599537037 7.02557755775576  26.8185763888889 4.21534653465346  C 29.6235532407407 1.40511551155115  33.0173611111111 0  37 0  C 40.9826388888889 0  44.3764467592593 1.40511551155115  47.1814236111111 4.21534653465346  Z " fill-rule="nonzero" fill="#000000" stroke="none" transform="matrix(1 0 0 1 379 380 )" />
  </g>
</svg>