<?xml version="1.0" encoding="utf-8"?>
<svg version="1.1" xmlns:xlink="http://www.w3.org/1999/xlink" width="106px" height="148px" xmlns="http://www.w3.org/2000/svg">
  <g transform="matrix(1 0 0 1 -485 -336 )">
    <path d="M 106 29.3527227722772  C 106 31.7644389438944  105.141203703704 33.8250825082508  103.423611111111 35.5346534653465  L 76 62.2772277227723  L 76 137.742574257426  C 76.5555555555556 140.551155115512  75.5434027777778 142.962871287129  73.5190972222222 144.977722772277  C 71.4947916666667 146.992574257426  69.0717592592593 148  66.25 148  C 63.4282407407407 148  61.0052083333333 146.992574257426  58.9809027777778 144.977722772277  C 56.9565972222222 142.962871287129  55.9444444444444 140.551155115512  56 137.742574257426  L 56 102.574257425743  L 50 102.574257425743  L 50 137.742574257426  C 50.0555555555556 140.551155115512  49.0434027777778 142.962871287129  47.0190972222222 144.977722772277  C 44.9947916666667 146.992574257426  42.5717592592593 148  39.75 148  C 36.9282407407407 148  34.5052083333333 146.992574257426  32.4809027777778 144.977722772277  C 30.4565972222222 142.962871287129  29.4444444444444 140.551155115512  30 137.742574257426  L 30 62.2772277227723  L 2.57638888888889 35.5346534653465  C 0.858796296296297 33.8250825082508  0 31.7491749174917  0 29.3069306930693  C 0 26.8646864686469  0.858796296296297 24.7887788778878  2.57638888888889 23.0792079207921  C 4.35532407407408 21.3696369636964  6.45630787037037 20.5148514851485  8.87934027777778 20.5148514851485  C 11.3023726851852 20.5148514851485  13.3726851851852 21.3696369636964  15.0902777777778 23.0792079207921  L 36.0694444444444 44  L 69.9305555555556 44  L 90.9097222222222 23.0792079207921  C 92.6273148148148 21.3696369636964  94.712962962963 20.5148514851485  97.1666666666667 20.5148514851485  C 99.6203703703704 20.5148514851485  101.706018518519 21.3696369636964  103.423611111111 23.0792079207921  C 105.141203703704 24.8498349834983  106 26.9410066006601  106 29.3527227722772  Z M 67.5842013888889 5.99876237623762  C 71.6021412037037 9.99793729372936  73.6111111111111 14.8366336633663  73.6111111111111 20.5148514851485  C 73.6111111111111 26.1930693069307  71.6021412037037 31.0317656765676  67.5842013888889 35.0309405940594  C 63.5662615740741 39.0301155115511  58.7048611111111 41.029702970297  53 41.029702970297  C 47.2951388888889 41.029702970297  42.4337384259259 39.0301155115511  38.4157986111111 35.0309405940594  C 34.3978587962963 31.0317656765676  32.3888888888889 26.1930693069307  32.3888888888889 20.5148514851485  C 32.3888888888889 14.8366336633663  34.3978587962963 9.99793729372936  38.4157986111111 5.99876237623762  C 42.4337384259259 1.99958745874586  47.2951388888889 0  53 0  C 58.7048611111111 0  63.5662615740741 1.99958745874586  67.5842013888889 5.99876237623762  Z " fill-rule="nonzero" fill="#ffffff" stroke="none" transform="matrix(1 0 0 1 485 336 )" />
  </g>
</svg>