<?xml version="1.0" encoding="utf-8"?>
<svg version="1.1" xmlns:xlink="http://www.w3.org/1999/xlink" width="156px" height="217px" xmlns="http://www.w3.org/2000/svg">
  <g transform="matrix(1 0 0 1 -624 -267 )">
    <path d="M 156 43.0374381188119  C 156 46.5735354785478  154.736111111111 49.5948844884488  152.208333333333 52.1014851485148  L 112 91.3118811881188  L 112 201.960396039604  C 112.666666666667 206.078382838284  111.177083333333 209.61448019802  108.197916666667 212.568688118812  C 105.21875 215.522896039604  101.652777777778 217  97.5 217  C 93.3472222222222 217  89.78125 215.522896039604  86.8020833333333 212.568688118812  C 83.8229166666667 209.61448019802  82.3333333333333 206.078382838284  82 201.960396039604  L 82 150.39603960396  L 74 150.39603960396  L 74 201.960396039604  C 73.6666666666667 206.078382838284  72.1770833333333 209.61448019802  69.1979166666667 212.568688118812  C 66.21875 215.522896039604  62.6527777777778 217  58.5 217  C 54.3472222222222 217  50.78125 215.522896039604  47.8020833333333 212.568688118812  C 44.8229166666667 209.61448019802  43.3333333333333 206.078382838284  44 201.960396039604  L 44 91.3118811881188  L 3.79166666666667 52.1014851485148  C 1.26388888888889 49.5948844884488  0 46.5511551155115  0 42.970297029703  C 0 39.3894389438944  1.26388888888889 36.3457095709571  3.79166666666667 33.8391089108911  C 6.40972222222222 31.3325082508251  9.50173611111111 30.0792079207921  13.0677083333333 30.0792079207921  C 16.6336805555556 30.0792079207921  19.6805555555556 31.3325082508251  22.2083333333333 33.8391089108911  L 53.0833333333333 65  L 102.916666666667 65  L 133.791666666667 33.8391089108911  C 136.319444444444 31.3325082508251  139.388888888889 30.0792079207921  143 30.0792079207921  C 146.611111111111 30.0792079207921  149.680555555556 31.3325082508251  152.208333333333 33.8391089108911  C 154.736111111111 36.4352310231023  156 39.5013407590759  156 43.0374381188119  Z M 99.4635416666667 8.79548267326732  C 105.376736111111 14.6591377887789  108.333333333333 21.7537128712871  108.333333333333 30.0792079207921  C 108.333333333333 38.404702970297  105.376736111111 45.4992780528053  99.4635416666667 51.3629331683168  C 93.5503472222222 57.2265882838284  86.3958333333333 60.1584158415842  78 60.1584158415842  C 69.6041666666667 60.1584158415842  62.4496527777778 57.2265882838284  56.5364583333333 51.3629331683168  C 50.6232638888889 45.4992780528053  47.6666666666667 38.404702970297  47.6666666666667 30.0792079207921  C 47.6666666666667 21.7537128712871  50.6232638888889 14.6591377887789  56.5364583333333 8.79548267326732  C 62.4496527777778 2.93182755775576  69.6041666666667 0  78 0  C 86.3958333333333 0  93.5503472222222 2.93182755775576  99.4635416666667 8.79548267326732  Z " fill-rule="nonzero" fill="#ffffff" stroke="none" transform="matrix(1 0 0 1 624 267 )" />
  </g>
</svg>