<?xml version="1.0" encoding="utf-8"?>
<svg version="1.1" xmlns:xlink="http://www.w3.org/1999/xlink" width="27px" height="27px" xmlns="http://www.w3.org/2000/svg">
  <g transform="matrix(1 0 0 1 -1690 -15 )">
    <path d="M 21.09375 23.625  C 20.94345703125 23.73837890625  20.76416015625 23.79375  20.59013671875 23.79375  C 20.334375 23.79375  20.08125 23.677734375  19.91513671875 23.45625  C 19.63564453125 23.08447265625  19.70947265625 22.5544921875  20.08388671875 22.275  C 22.8708984375 20.1814453125  24.46875 16.98310546875  24.46875 13.5  C 24.46875 7.4513671875  19.5486328125 2.53125  13.5 2.53125  C 13.03330078125 2.53125  12.65625 2.15419921875  12.65625 1.6875  C 12.65625 1.22080078125  13.03330078125 0.84375  13.5 0.84375  C 20.47939453125 0.84375  26.15625 6.52060546875  26.15625 13.5  C 26.15625 17.518359375  24.310546875 21.209765625  21.09375 23.625  Z M 14.34375 25.3125  C 14.34375 25.77919921875  13.96669921875 26.15625  13.5 26.15625  C 6.52060546875 26.15625  0.84375 20.47939453125  0.84375 13.5  C 0.84375 10.072265625  2.19111328125 6.86337890625  4.640625 4.461328125  C 4.9728515625 4.134375  5.50810546875 4.1396484375  5.83505859375 4.471875  C 6.16201171875 4.8041015625  6.15673828125 5.33935546875  5.82451171875 5.66630859375  C 3.69931640625 7.7466796875  2.53125 10.52841796875  2.53125 13.5  C 2.53125 19.5486328125  7.4513671875 24.46875  13.5 24.46875  C 13.96669921875 24.46875  14.34375 24.84580078125  14.34375 25.3125  Z " fill-rule="nonzero" fill="#555555" stroke="none" transform="matrix(1 0 0 1 1690 15 )" />
  </g>
</svg>