<?xml version="1.0" encoding="utf-8"?>
<svg version="1.1" xmlns:xlink="http://www.w3.org/1999/xlink" width="17px" height="16px" xmlns="http://www.w3.org/2000/svg">
  <g transform="matrix(1 0 0 1 -418 -23 )">
    <path d="M 5.436294 11.926809  C 5.375298 11.988094  5.295194 12.018745  5.215107 12.018745  C 5.135462 12.018745  5.055817 11.988451  4.994906 11.927812  C 4.872744 11.806211  4.872302 11.608603  4.993903 11.486441  L 12.031563 4.416906  C 12.153215 4.294727  12.350823 4.294319  12.472951 4.415903  C 12.59513 4.537504  12.595572 4.735129  12.473954 4.857291  L 5.436294 11.926809  Z M 12.480482 11.934119  C 12.419571 11.994758  12.339909 12.025069  12.260247 12.025069  C 12.180143 12.025069  12.100073 11.994418  12.039094 11.933201  L 4.986525 4.851018  C 4.864907 4.728873  4.865315 4.531265  4.98746 4.40963  C 5.109588 4.287995  5.307213 4.28842  5.428848 4.410565  L 12.4814 11.492731  C 12.603035 11.614893  12.602627 11.812501  12.480482 11.934119  Z M 11.683029 15.297348  C 10.73125 15.699942  9.720379 15.904061  8.678517 15.904061  C 7.636655 15.904061  6.625801 15.699942  5.674022 15.297365  C 4.754883 14.908592  3.929448 14.352097  3.220718 13.643333  C 2.511971 12.934569  1.955476 12.109151  1.56672 11.189995  C 1.16416 10.238216  0.960024 9.227345  0.960024 8.185483  C 0.960024 7.143638  1.164143 6.132784  1.56672 5.181022  C 1.955493 4.261866  2.511971 3.436448  3.220718 2.727701  C 3.929465 2.018954  4.754883 1.462459  5.674022 1.073686  C 6.625801 0.671108999999998  7.636655 0.466989999999998  8.678517 0.466989999999998  C 9.720379 0.466989999999998  10.73125 0.671109  11.683029 1.073669  C 12.602185 1.462442  13.427603 2.018937  14.136367 2.727684  C 14.845114 3.436431  15.401626 4.261866  15.790399 5.181005  C 16.192976 6.132767  16.397095 7.143621  16.397095 8.185466  C 16.397095 9.227328  16.192976 10.238199  15.790399 11.189978  C 15.401626 12.109134  14.845131 12.934552  14.136367 13.643316  C 13.427603 14.352063  12.602185 14.908575  11.683029 15.297348  Z M 11.439878 1.648592  C 10.565432 1.278723  9.636382 1.091196  8.678517 1.091196  C 7.720652 1.091196  6.791602 1.278723  5.917173 1.648575  C 5.072443 2.005881  4.313716 2.517445  3.662089 3.169072  C 3.010462 3.820699  2.498898 4.579426  2.141609 5.424173  C 1.771757 6.298602  1.58423 7.227635  1.58423 8.1855  C 1.58423 9.143365  1.771757 10.072432  2.141609 10.946844  C 2.498898 11.791591  3.010462 12.550318  3.662089 13.201962  C 4.313716 13.853589  5.072426 14.36517  5.91719 14.722459  C 6.791602 15.092311  7.720652 15.279838  8.678517 15.279838  C 9.636382 15.279838  10.565432 15.092311  11.439878 14.722459  C 12.284625 14.365153  13.043352 13.853589  13.694996 13.201962  C 14.346623 12.550318  14.858204 11.791591  15.215493 10.946844  C 15.585345 10.072415  15.772872 9.143365  15.772872 8.1855  C 15.772872 7.227652  15.585345 6.298602  15.215493 5.42419  C 14.858187 4.579443  14.346623 3.820716  13.694996 3.169089  C 13.043352 2.517462  12.284625 2.005881  11.439878 1.648592  Z " fill-rule="nonzero" fill="#aaaaaa" stroke="none" transform="matrix(1 0 0 1 418 23 )" />
  </g>
</svg>