<?xml version="1.0" encoding="utf-8"?>
<svg version="1.1" xmlns:xlink="http://www.w3.org/1999/xlink" width="108px" height="34px" xmlns="http://www.w3.org/2000/svg">
  <g transform="matrix(1 0 0 1 -562 -14 )">
    <path d="M 563 19  A 4 4 0 0 1 567 15 L 665 15  A 4 4 0 0 1 669 19 L 669 43  A 4 4 0 0 1 665 47 L 567 47  A 4 4 0 0 1 563 43 L 563 19  Z " fill-rule="nonzero" fill="#d7d7d7" stroke="none" />
    <path d="M 562.5 19  A 4.5 4.5 0 0 1 567 14.5 L 665 14.5  A 4.5 4.5 0 0 1 669.5 19 L 669.5 43  A 4.5 4.5 0 0 1 665 47.5 L 567 47.5  A 4.5 4.5 0 0 1 562.5 43 L 562.5 19  Z " stroke-width="1" stroke="#aaaaaa" fill="none" stroke-opacity="0.768627450980392" />
  </g>
</svg>