<?xml version="1.0" encoding="utf-8"?>
<svg version="1.1" xmlns:xlink="http://www.w3.org/1999/xlink" width="15px" height="8px" xmlns="http://www.w3.org/2000/svg">
  <g transform="matrix(1 0 0 1 -202 -94 )">
    <path d="M 14.8496993987976 6.54295532646048  C 14.9498997995992 6.63459335624284  15 6.73997709049255  15 6.85910652920962  C 15 6.97823596792669  14.9498997995992 7.0836197021764  14.8496993987976 7.17525773195876  L 14.0981963927856 7.86254295532646  C 13.997995991984 7.95418098510882  13.8827655310621 8  13.75250501002 8  C 13.622244488978 8  13.5070140280561 7.95418098510882  13.4068136272545 7.86254295532646  L 7.5 2.46048109965636  L 1.59318637274549 7.86254295532646  C 1.49298597194389 7.95418098510882  1.37775551102204 8  1.24749498997996 8  C 1.11723446893788 8  1.00200400801603 7.95418098510882  0.901803607214429 7.86254295532646  L 0.150300601202405 7.17525773195876  C 0.0501002004008018 7.0836197021764  0 6.97823596792669  0 6.85910652920962  C 0 6.73997709049255  0.0501002004008018 6.63459335624284  0.150300601202405 6.54295532646048  L 7.15430861723447 0.13745704467354  C 7.25450901803607 0.0458190148911788  7.36973947895792 0  7.5 0  C 7.63026052104208 0  7.74549098196393 0.0458190148911788  7.84569138276553 0.13745704467354  L 14.8496993987976 6.54295532646048  Z " fill-rule="nonzero" fill="#81d3f8" stroke="none" transform="matrix(1 0 0 1 202 94 )" />
  </g>
</svg>