<?xml version="1.0" encoding="utf-8"?>
<svg version="1.1" xmlns:xlink="http://www.w3.org/1999/xlink" width="17px" height="17px" xmlns="http://www.w3.org/2000/svg">
  <g transform="matrix(1 0 0 1 -21 -89 )">
    <path d="M 16.895700271334 8.03181242981607  C 16.9780934981142 8.11227456534366  16.9780934981142 8.23296775217812  16.895700271334 8.31342987124879  L 16.607323994455 8.59504732913843  C 16.5249307676747 8.67550946466602  16.4013409443562 8.67550946466602  16.3187364623117 8.59504732913843  L 15.7007872951636 8.03181242981607  L 15.7007872951636 13.6253746805421  C 15.7007872951636 15.4361852391094  14.1760901734598 16.9251472720232  12.3218201614869 16.9251472720232  L 4.69854579138044 16.9251472720232  C 2.80307916601742 16.965378339787  1.27838204431365 15.4764162904163  1.27838202746176 13.6656057483059  L 1.27838202746176 8.03181242981607  L 0.701418218439497 8.59504732913843  C 0.619024991659245 8.67550946466602  0.495435168340755 8.67550946466602  0.413041941560503 8.59504732913843  L 0.12466566468151 8.31342987124879  C 0.0422724379012584 8.2329677357212  0.0422724379012584 8.11227454888674  0.12466566468151 8.03181242981607  L 8.24229936176573 0.104229452081316  C 8.28349597515586 0.0639983843175215  8.40708579847435 0.0639983843175215  8.48947904210649 0.104229452081316  C 8.57187226888674 0.0639983843175215  8.69546209220523 0.0639983843175215  8.77806657424976 0.104229452081316  L 16.895700271334 8.03181242981607  Z M 6.79999546684221 11.1706607666989  L 6.79999546684221 15.717802696999  C 6.79999546684221 15.8787269515973  6.84119208023233 15.9996264588577  6.84119208023233 16.1203196621491  L 10.5499433594424 16.1203196621491  C 10.5911399728325 15.9996264588577  10.5911399728325 15.8384959002904  10.5911399728325 15.717802696999  L 10.5911399728325 11.1706607666989  C 10.5911399728325 10.2451399535334  9.84938971024976 9.52077446272991  8.90165641442014 9.52077446272991  L 8.48947904210649 9.52077446272991  C 7.54174572942498 9.52077446272991  6.79999546684221 10.2451399535334  6.79999546684221 11.1706607666989  Z M 14.9176291639264 7.226984803485  L 14.8354472092623 7.226984803485  L 8.48947904210649 1.02995656921588  L 2.14372213021491 7.226984803485  L 2.14372213021491 13.6656057483059  C 2.14372213021491 15.0338745943853  3.29743849299516 16.1605507299129  4.69854579138044 16.1605507299129  L 6.01704859086931 16.1605507299129  C 5.97585197747919 16.0398575266215  5.97585197747919 15.8789332720232  5.97585197747919 15.7582400687319  L 5.97585197747919 11.170454446273  C 5.97585197747919 9.80218560019361  7.12956834025944 8.67550946466602  8.53067563864472 8.67550946466602  L 8.94264175569409 8.67550946466602  C 10.3437490540794 8.67550946466602  11.4974654168596 9.80218560019361  11.4974654168596 11.170454446273  L 11.4974654168596 15.7175963765731  C 11.4974654168596 15.8785206311713  11.4974654168596 15.9994201384318  11.4562688034695 16.1201133417231  L 12.3628055027609 16.1201133417231  C 13.7639128011462 16.1201133417231  14.9176291639264 14.9934372061955  14.9176291639264 13.6251683601162  L 14.9176291639264 7.226984803485  Z " fill-rule="nonzero" fill="#02a7f0" stroke="none" transform="matrix(1 0 0 1 21 89 )" />
  </g>
</svg>