<?xml version="1.0" encoding="utf-8"?>
<svg version="1.1" xmlns:xlink="http://www.w3.org/1999/xlink" width="14px" height="14px" xmlns="http://www.w3.org/2000/svg">
  <g transform="matrix(1 0 0 1 -1624 -416 )">
    <path d="M 13.8989298245614 7  C 13.8989298245614 3.18991228070175  10.8100877192982 0.101070175438597  7 0.101070175438597  C 3.18991228070175 0.101070175438597  0.101070175438597 3.18991228070175  0.101070175438597 7  C 0.101070175438597 10.8100877192982  3.18991228070175 13.8989298245614  7 13.8989298245614  C 10.8100877192982 13.8989298245614  13.8989298245614 10.8100877192982  13.8989298245614 7  Z M 10.5617412280702 5.65466447368421  L 10.5617412280702 9.07775657894737  C 10.5617412280702 9.45861184210527  10.2412763157895 9.77026535087719  9.84946052631579 9.77026535087719  L 4.15052412280702 9.77026535087719  C 3.75872368421053 9.77026535087719  3.43824342105263 9.45862719298246  3.43824342105263 9.07775657894737  L 3.44151315789474 5.65639912280702  L 6.91464912280702 7.49824342105263  C 6.96805533225572 7.52644498134399  7.03194466774428 7.52644498134399  7.08535087719298 7.49824342105263  L 10.5617412280702 5.65466447368421  Z M 7.00171929824561 6.84790350877193  L 3.44191228070175 4.91591885964912  C 3.44536622807018 4.53791885964912  3.76102631578947 4.22973464912281  4.15053947368421 4.22973464912281  L 9.84949122807018 4.22973464912281  C 10.2384210526316 4.22973464912281  10.5571666666667 4.53676754385965  10.5617719298246 4.914  L 7.00175 6.84790350877193  Z " fill-rule="nonzero" fill="#aaaaaa" stroke="none" transform="matrix(1 0 0 1 1624 416 )" />
  </g>
</svg>