<?xml version="1.0" encoding="utf-8"?>
<svg version="1.1" xmlns:xlink="http://www.w3.org/1999/xlink" width="14px" height="14px" xmlns="http://www.w3.org/2000/svg">
  <g transform="matrix(1 0 0 1 -1632 -674 )">
    <path d="M 14 7  C 14 3.13359375  10.86640625 0  7 0  C 3.13359375 0  0 3.13359375  0 7  C 0 10.86640625  3.13359375 14  7 14  C 10.86640625 14  14 10.86640625  14 7  Z M 9.75625 10.5724609375  C 9.75625 10.7748046875  9.5921875 10.9388671875  9.38984375 10.9388671875  L 4.662109375 10.9388671875  C 4.459765625 10.9388671875  4.295703125 10.7748046875  4.295703125 10.5724609375  C 4.295703125 10.3701171875  4.459765625 10.2060546875  4.662109375 10.2060546875  L 9.38984375 10.2060546875  C 9.5908203125 10.2060546875  9.75625 10.3701171875  9.75625 10.5724609375  Z M 11.667578125 5.2896484375  C 11.667578125 5.558984375  11.448828125 5.777734375  11.1794921875 5.777734375  C 11.120703125 5.777734375  11.0646484375 5.7654296875  11.011328125 5.7462890625  L 9.77265625 9.32421875  C 9.7384765625 9.42265625  9.6455078125 9.48828125  9.5416015625 9.48828125  L 4.459765625 9.48828125  C 4.355859375 9.48828125  4.262890625 9.42265625  4.2287109375 9.32421875  L 2.9900390625 5.7462890625  C 2.9380859375 5.7654296875  2.88203125 5.777734375  2.821875 5.777734375  C 2.5525390625 5.777734375  2.3337890625 5.558984375  2.3337890625 5.2896484375  C 2.3337890625 5.0203125  2.5525390625 4.8015625  2.821875 4.8015625  C 3.0912109375 4.8015625  3.3099609375 5.0203125  3.3099609375 5.2896484375  C 3.3099609375 5.359375  3.294921875 5.4263671875  3.267578125 5.4865234375  L 5.48515625 6.6212890625  L 6.7853515625 3.98671875  C 6.6240234375 3.907421875  6.5119140625 3.7419921875  6.5119140625 3.5505859375  C 6.5119140625 3.28125  6.7306640625 3.0625  7 3.0625  C 7.2693359375 3.0625  7.4880859375 3.28125  7.4880859375 3.5505859375  C 7.4880859375 3.743359375  7.374609375 3.9087890625  7.2119140625 3.9880859375  L 8.4943359375 6.6404296875  L 10.7337890625 5.4865234375  C 10.7064453125 5.4263671875  10.6900390625 5.359375  10.6900390625 5.28828125  C 10.6900390625 5.0189453125  10.9087890625 4.8001953125  11.178125 4.8001953125  C 11.448828125 4.8001953125  11.6662109375 5.0189453125  11.667578125 5.2896484375  Z " fill-rule="nonzero" fill="#aaaaaa" stroke="none" transform="matrix(1 0 0 1 1632 674 )" />
  </g>
</svg>