<?xml version="1.0" encoding="utf-8"?>
<svg version="1.1" xmlns:xlink="http://www.w3.org/1999/xlink" width="14px" height="14px" xmlns="http://www.w3.org/2000/svg">
  <g transform="matrix(1 0 0 1 -1765 -556 )">
    <path d="M 14 7  C 14 10.92  10.9200000000001 14  7 14  C 3.07999999999993 14  0 10.92  0 7  C 0 3.08000000000004  3.07999999999993 0  7 0  C 10.9200000000001 0  14 3.08000000000004  14 7  Z M 6.38456949152533 7.64385084745766  L 7.61548474576261 7.64385084745766  L 7.61548474576261 2.07688135593219  L 6.38456949152533 2.07688135593219  L 6.38456949152533 7.64385084745766  Z M 2.08192542372876 7.03167457627114  C 2.08192542372876 9.7227661016949  4.29670508474578 11.9231186440678  6.99891525423732 11.9231186440678  C 9.70334915254239 11.9231186440678  11.9180745762712 9.72282033898307  11.9180745762712 7.03167457627114  C 11.9181288135594 5.38123389830514  11.0567322033899 3.91433220338979  9.8280406779661 2.99728813559318  L 8.96664406779655 3.85315254237287  C 9.95045423728811 4.52536949152545  10.6872677966101 5.68729491525426  10.6872677966101 7.03167457627114  C 10.6872677966101 9.04946440677963  9.02896271186432 10.6999593220339  6.99896949152549 10.6999593220339  C 4.97114576271179 10.6999593220339  3.31067118644069 9.04946440677963  3.31067118644069 7.03167457627114  C 3.31067118644069 5.68729491525426  4.04965423728822 4.52536949152545  5.09361355932197 3.91433220338979  L 4.17206779661024 2.99728813559318  C 2.94337627118648 3.91433220338979  2.08192542372876 5.38123389830514  2.08192542372876 7.03167457627114  Z " fill-rule="nonzero" fill="#aaaaaa" stroke="none" transform="matrix(1 0 0 1 1765 556 )" />
  </g>
</svg>