<?xml version="1.0" encoding="utf-8"?>
<svg version="1.1" xmlns:xlink="http://www.w3.org/1999/xlink" width="320px" height="480px" xmlns="http://www.w3.org/2000/svg">
  <g transform="matrix(1 0 0 1 -1280 -1556 )">
    <path d="M 1280 1556  L 1600 1556  L 1600 2036  L 1280 2036  L 1280 1556  " fill-rule="nonzero" fill="#cccccc" stroke="none" />
    <path d="M 1302 1578  L 1578 1578  L 1578 2014  L 1302 2014  L 1302 1578  " fill-rule="nonzero" fill="#ffffff" stroke="none" />
    <path d="M 1470.4 1676  C 1456.96 1676  1446.4 1665.44  1446.4 1652  C 1446.4 1638.56  1456.96 1628  1470.4 1628  C 1483.84 1628  1494.4 1638.56  1494.4 1652  C 1494.4 1665.44  1483.84 1676  1470.4 1676  " fill-rule="nonzero" fill="#cccccc" stroke="none" />
    <path d="M 1310 2006  L 1310 1775  L 1375 1670  L 1466 1754  L 1518 1733  L 1570 1754  L 1570 2006  L 1310 2006  " fill-rule="nonzero" fill="#169bd5" stroke="none" />
  </g>
</svg>