<?xml version="1.0" encoding="utf-8"?>
<svg version="1.1" xmlns:xlink="http://www.w3.org/1999/xlink" width="543px" height="10px" preserveAspectRatio="xMinYMid meet" viewBox="687 1953  543 8" xmlns="http://www.w3.org/2000/svg">
  <defs>
    <mask fill="white" id="clip302">
      <path d="M 1015 1944  L 1113 1944  L 1113 1969  L 1015 1969  Z M 687 1787  L 1289 1787  L 1289 1969  L 687 1969  Z " fill-rule="evenodd" />
    </mask>
  </defs>
  <path d="M 687 1957.5  L 778 1957.5  A 3 3 0 0 1 781 1954.5 A 3 3 0 0 1 784 1957.5 L 1220 1957.5  A 5 5 0 0 0 1225.5 1952.5 L 1225.5 1801  A 5 5 0 0 1 1230.5 1796.5 L 1275 1796.5  " stroke-width="1" stroke-dasharray="9,4" stroke="#02a7f0" fill="none" mask="url(#clip302)" />
  <path d="M 1274 1802.8  L 1280 1796.5  L 1274 1790.2  L 1274 1802.8  Z " fill-rule="nonzero" fill="#02a7f0" stroke="none" mask="url(#clip302)" />
</svg>