<?xml version="1.0" encoding="utf-8"?>
<svg version="1.1" xmlns:xlink="http://www.w3.org/1999/xlink" width="29px" height="28px" xmlns="http://www.w3.org/2000/svg">
  <g transform="matrix(1 0 0 1 -840 -107 )">
    <path d="M 28.8895238095238 11.5824390243902  L 27.7387301443452 13.0029268292683  L 14.5 2.53138212804878  L 1.27047619047619 13.0029268292683  L 0.119682525297619 11.5824390243902  L 14.5 0.20032518902439  L 28.8895238095238 11.5824390243902  Z M 25.28063490625 27.5082926829268  L 24.626984141369 27.7723577378049  L 4.37301585863095 27.7723577378049  L 3.71936509375 27.5082926829268  L 2.79873014434524 26.5977235914634  L 3 25.9512195121951  L 3 12.2926829268293  L 4.37301585863095 12.2926829268293  L 4.37301585863095 25.5778861646341  L 4.75047619047619 26  L 24.2495238095238 26  L 24.626984141369 25.5778861646341  L 24.626984141369 24.1300812865854  L 26.468253953869 24.1300812865854  L 26.468253953869 25.9512195121951  L 26.2012698556548 26.5977235914634  L 25.28063490625 27.5082926829268  Z M 21.5566666666667 16.7197404194787  C 19.7085537141459 16.7197404194787  17.9458156069042 17.4892256827969  16.7003174747024 18.8396748109756  L 15.3653968110119 17.5830894451219  C 16.9624871889865 15.8735452891507  19.2079318059052 14.9000479489504  21.5612698556548 14.896910554878  C 23.9114032493052 14.902580204103  26.1530225413195 15.8758652938937  27.7479365223214 17.5830894451219  L 26.413015858631 18.8396748109756  C 25.1675177264291 17.4892256827969  23.4047796191874 16.7197404194787  21.5566666666667 16.7197404194787  Z M 25.2990476190476 20.1508943231707  L 23.9549206205357 21.3983739695122  C 23.3281545042394 20.7522213551429  22.4620012566631 20.3869273616951  21.5566666666667 20.3869273616951  C 20.6513320766702 20.3869273616951  19.785178829094 20.7522213551429  19.1584127127976 21.3983739695122  L 17.8234920491071 20.1508943231707  C 18.7856916946242 19.1177582810685  20.1410842862235 18.5299839188553  21.5612698340774 18.5299839188553  C 22.9814553819312 18.5299839188553  24.3368479735305 19.1177582810684  25.2990476190476 20.1508943231707  Z M 20.9444444300595 23.219512195122  C 20.9444444300595 23.722405629791  21.3566267270863 24.1300813079268  21.8650793578869 24.1300813079268  C 22.3735319886875 24.1300813079268  22.7857142857143 23.722405629791  22.7857142857143 23.219512195122  C 22.7857142857143 22.7166187604529  22.3735319886875 22.3089430823171  21.8650793578869 22.3089430823171  C 21.3566267270863 22.3089430823171  20.9444444300595 22.7166187604529  20.9444444300595 23.219512195122  Z " fill-rule="nonzero" fill="#f59a23" stroke="none" transform="matrix(1 0 0 1 840 107 )" />
  </g>
</svg>