<?xml version="1.0" encoding="utf-8"?>
<svg version="1.1" xmlns:xlink="http://www.w3.org/1999/xlink" width="20px" height="20px" viewBox="1275 626  20 20" xmlns="http://www.w3.org/2000/svg">
  <path d="M 1285 626  C 1290.6 626  1295 630.4  1295 636  C 1295 641.6  1290.6 646  1285 646  C 1279.4 646  1275 641.6  1275 636  C 1275 630.4  1279.4 626  1285 626  Z " fill-rule="nonzero" fill="#ffffff" stroke="none" />
  <path d="M 1285 626.5  C 1290.32 626.5  1294.5 630.68  1294.5 636  C 1294.5 641.32  1290.32 645.5  1285 645.5  C 1279.68 645.5  1275.5 641.32  1275.5 636  C 1275.5 630.68  1279.68 626.5  1285 626.5  Z " stroke-width="1" stroke="#ec808d" fill="none" />
  <path d="M 1285 641  C 1282.2 641  1280 638.8  1280 636  C 1280 633.2  1282.2 631  1285 631  C 1287.8 631  1290 633.2  1290 636  C 1290 638.8  1287.8 641  1285 641  " fill-rule="nonzero" fill="#ec808d" stroke="none" />
</svg>