<?xml version="1.0" encoding="utf-8"?>
<svg version="1.1" xmlns:xlink="http://www.w3.org/1999/xlink" width="20px" height="20px" viewBox="1449 626  20 20" xmlns="http://www.w3.org/2000/svg">
  <path d="M 1459 626  C 1464.6 626  1469 630.4  1469 636  C 1469 641.6  1464.6 646  1459 646  C 1453.4 646  1449 641.6  1449 636  C 1449 630.4  1453.4 626  1459 626  Z " fill-rule="nonzero" fill="#f0f0f0" stroke="none" />
  <path d="M 1459 626.5  C 1464.32 626.5  1468.5 630.68  1468.5 636  C 1468.5 641.32  1464.32 645.5  1459 645.5  C 1453.68 645.5  1449.5 641.32  1449.5 636  C 1449.5 630.68  1453.68 626.5  1459 626.5  Z " stroke-width="1" stroke="#8080ff" fill="none" />
  <path d="M 1459 641  C 1456.2 641  1454 638.8  1454 636  C 1454 633.2  1456.2 631  1459 631  C 1461.8 631  1464 633.2  1464 636  C 1464 638.8  1461.8 641  1459 641  " fill-rule="nonzero" fill="#8080ff" stroke="none" />
</svg>