<?xml version="1.0" encoding="utf-8"?>
<svg version="1.1" xmlns:xlink="http://www.w3.org/1999/xlink" width="20px" height="20px" viewBox="1484 626  20 20" xmlns="http://www.w3.org/2000/svg">
  <path d="M 1494 626  C 1499.6 626  1504 630.4  1504 636  C 1504 641.6  1499.6 646  1494 646  C 1488.4 646  1484 641.6  1484 636  C 1484 630.4  1488.4 626  1494 626  Z " fill-rule="nonzero" fill="#f0f0f0" stroke="none" />
  <path d="M 1494 626.5  C 1499.32 626.5  1503.5 630.68  1503.5 636  C 1503.5 641.32  1499.32 645.5  1494 645.5  C 1488.68 645.5  1484.5 641.32  1484.5 636  C 1484.5 630.68  1488.68 626.5  1494 626.5  Z " stroke-width="1" stroke="#c280ff" fill="none" />
  <path d="M 1494 641  C 1491.2 641  1489 638.8  1489 636  C 1489 633.2  1491.2 631  1494 631  C 1496.8 631  1499 633.2  1499 636  C 1499 638.8  1496.8 641  1494 641  " fill-rule="nonzero" fill="#c280ff" stroke="none" />
</svg>