<?xml version="1.0" encoding="utf-8"?>
<svg version="1.1" xmlns:xlink="http://www.w3.org/1999/xlink" width="20px" height="20px" viewBox="1345 626  20 20" xmlns="http://www.w3.org/2000/svg">
  <path d="M 1355 626  C 1360.6 626  1365 630.4  1365 636  C 1365 641.6  1360.6 646  1355 646  C 1349.4 646  1345 641.6  1345 636  C 1345 630.4  1349.4 626  1355 626  Z " fill-rule="nonzero" fill="#f0f0f0" stroke="none" />
  <path d="M 1355 626.5  C 1360.32 626.5  1364.5 630.68  1364.5 636  C 1364.5 641.32  1360.32 645.5  1355 645.5  C 1349.68 645.5  1345.5 641.32  1345.5 636  C 1345.5 630.68  1349.68 626.5  1355 626.5  Z " stroke-width="1" stroke="#95f204" fill="none" />
  <path d="M 1355 641  C 1352.2 641  1350 638.8  1350 636  C 1350 633.2  1352.2 631  1355 631  C 1357.8 631  1360 633.2  1360 636  C 1360 638.8  1357.8 641  1355 641  " fill-rule="nonzero" fill="#95f204" stroke="none" />
</svg>