<?xml version="1.0" encoding="utf-8"?>
<svg version="1.1" xmlns:xlink="http://www.w3.org/1999/xlink" width="20px" height="20px" viewBox="1379 626  20 20" xmlns="http://www.w3.org/2000/svg">
  <path d="M 1389 626  C 1394.6 626  1399 630.4  1399 636  C 1399 641.6  1394.6 646  1389 646  C 1383.4 646  1379 641.6  1379 636  C 1379 630.4  1383.4 626  1389 626  Z " fill-rule="nonzero" fill="#f0f0f0" stroke="none" />
  <path d="M 1389 626.5  C 1394.32 626.5  1398.5 630.68  1398.5 636  C 1398.5 641.32  1394.32 645.5  1389 645.5  C 1383.68 645.5  1379.5 641.32  1379.5 636  C 1379.5 630.68  1383.68 626.5  1389 626.5  Z " stroke-width="1" stroke="#00bfbf" fill="none" />
  <path d="M 1389 641  C 1386.2 641  1384 638.8  1384 636  C 1384 633.2  1386.2 631  1389 631  C 1391.8 631  1394 633.2  1394 636  C 1394 638.8  1391.8 641  1389 641  " fill-rule="nonzero" fill="#00bfbf" stroke="none" />
</svg>