<?xml version="1.0" encoding="utf-8"?>
<svg version="1.1" xmlns:xlink="http://www.w3.org/1999/xlink" width="20px" height="20px" viewBox="1310 626  20 20" xmlns="http://www.w3.org/2000/svg">
  <path d="M 1320 626  C 1325.6 626  1330 630.4  1330 636  C 1330 641.6  1325.6 646  1320 646  C 1314.4 646  1310 641.6  1310 636  C 1310 630.4  1314.4 626  1320 626  Z " fill-rule="nonzero" fill="#ffffff" stroke="none" />
  <path d="M 1320 626.5  C 1325.32 626.5  1329.5 630.68  1329.5 636  C 1329.5 641.32  1325.32 645.5  1320 645.5  C 1314.68 645.5  1310.5 641.32  1310.5 636  C 1310.5 630.68  1314.68 626.5  1320 626.5  Z " stroke-width="1" stroke="#facd91" fill="none" />
  <path d="M 1320 641  C 1317.2 641  1315 638.8  1315 636  C 1315 633.2  1317.2 631  1320 631  C 1322.8 631  1325 633.2  1325 636  C 1325 638.8  1322.8 641  1320 641  " fill-rule="nonzero" fill="#facd91" stroke="none" />
</svg>