<?xml version="1.0" encoding="utf-8"?>
<svg version="1.1" xmlns:xlink="http://www.w3.org/1999/xlink" width="45px" height="45px" xmlns="http://www.w3.org/2000/svg">
  <g transform="matrix(1 0 0 1 -405 -117 )">
    <path d="M 427.5 117  C 440.1 117  450 126.9  450 139.5  C 450 152.1  440.1 162  427.5 162  C 414.9 162  405 152.1  405 139.5  C 405 126.9  414.9 117  427.5 117  Z " fill-rule="nonzero" fill="#ffffff" stroke="none" />
    <path d="M 427.5 117.5  C 439.82 117.5  449.5 127.18  449.5 139.5  C 449.5 151.82  439.82 161.5  427.5 161.5  C 415.18 161.5  405.5 151.82  405.5 139.5  C 405.5 127.18  415.18 117.5  427.5 117.5  Z " stroke-width="1" stroke="#797979" fill="none" />
  </g>
</svg>