<?xml version="1.0" encoding="utf-8"?>
<svg version="1.1" xmlns:xlink="http://www.w3.org/1999/xlink" width="19px" height="18px" xmlns="http://www.w3.org/2000/svg">
  <g transform="matrix(1 0 0 1 -469 -295 )">
    <path d="M 16.3344117647059 7.9729453125  C 16.3344117647059 7.6234526192477  16.052943721401 7.3401328125  15.7057352941176 7.3401328125  C 13.8429669117647 7.3401328125  12.8584595588235 9.132890625  12.0675845588235 10.5738046875  C 11.5602426470588 11.497078125  11.0359264705882 12.451359375  10.5210404411765 12.50325  C 9.96026102941177 12.3912421875  9.57613970588235 12.0444609375  9.13292279411765 11.6457890625  C 8.50927573529412 11.08321875  7.80704411764706 10.4535703125  6.56980882352941 10.499765625  C 5.06098529411765 10.565578125  3.69675735294118 11.6407265625  2.51484558823529 13.6973671875  C 2.459436790568 13.7937181185366  2.43025992023152 13.903077160517  2.43025992023152 14.01440625  C 2.43025992023152 14.3639148884927  2.71174080522295 14.6472476214117  3.05896507352941 14.6472476214117  C 3.28332629291012 14.6472476214117  3.49068471603964 14.5268985610188  3.60308455882353 14.3314453125  C 4.5555294117647 12.6734765625  5.57209926470588 11.8103203125  6.62324632352941 11.764125  C 7.34873897058823 11.7356484375  7.74229044117647 12.091921875  8.29301102941177 12.588046875  C 8.82109926470588 13.0645546875  9.41959926470588 13.6037109375  10.3733014705882 13.762546875  C 10.4071571344811 13.7683493819988  10.4414329377366 13.7713126840077  10.4757757352941 13.77140625  C 11.7469595588235 13.77140625  12.4686801470588 12.4570546875  13.1665110294118 11.1863671875  C 13.7235183823529 10.1713359375  14.2962426470588 9.1297265625  15.0758014705882 8.7525703125  L 15.0758014705882 16  L 1.39705882352941 16  L 1.39705882352941 3.4565625  L 10.9875183823529 3.4565625  C 11.3347268096363 3.4565625  11.6161948529412 3.1732426932523  11.6161948529412 2.82375  C 11.6161948529412 2.4742573067477  11.3347268096363 2.1909375  10.9875183823529 2.1909375  L 0.768382352941177 2.1909375  C 0.421173925657847 2.1909375  0.139705882352941 2.4742573067477  0.139705882352941 2.82375  L 0.139705882352941 16.70259375  C 0.139705882352941 17.0520864432523  0.421173925657847 17.33540625  0.768382352941177 17  L 15.7057352941176 17  C 16.052943721401 17.33540625  16.3344117647059 17.0520864432523  16.3344117647059 16.70259375  L 16.3344117647059 7.9729453125  Z M 4.5027205882353 5.1879375  C 3.3641875 5.1879375  2.43751838235294 6.1200703125  2.43751838235294 7.26609375  C 2.43751838235294 8.4121171875  3.3641875 9.3448828125  4.5027205882353 9.3448828125  C 5.64125367647059 9.3448828125  6.56792279411765 8.4121171875  6.56792279411765 7.26609375  C 6.56792279411765 6.1200703125  5.64125367647059 5.1879375  4.5027205882353 5.1879375  Z M 4.5027205882353 6.48438365137691  C 4.936828879138 6.48438365137691  5.29345362150621 6.82946926908751  5.31056985294118 7.26609375  C 5.29345362150621 7.70271823091249  4.936828879138 8.04780384862309  4.5027205882353 8.04780384862309  C 4.06861229733259 8.04780384862309  3.71198755496438 7.70271823091249  3.69487132352941 7.26609375  C 3.71198755496438 6.82946926908751  4.06861229733259 6.48438365137691  4.5027205882353 6.48438365137691  Z M 17.7426470588235 2.328890625  L 16.5368455882353 2.328890625  L 16.5368455882353 1.11515625  C 16.5368455882353 0.765663556747701  16.2553775449304 0.48234375  15.9081691176471 0.48234375  C 15.5609606903637 0.48234375  15.2794926470588 0.765663556747701  15.2794926470588 1.11515625  L 15.2794926470588 2.3282578125  L 13.6688235294118 2.3282578125  C 13.3216151021284 2.3282578125  13.0401470588235 2.6115776192477  13.0401470588235 2.9610703125  C 13.0401470588235 3.3105630057523  13.3216151021284 3.5938828125  13.6688235294118 3.5938828125  L 15.2794926470588 3.5938828125  L 15.2794926470588 5.2151484375  C 15.2794926470588 5.5646411307523  15.5609606903637 5.8479609375  15.9081691176471 5.8479609375  C 16.2553775449304 5.8479609375  16.5368455882353 5.5646411307523  16.5368455882353 5.2151484375  L 16.5368455882353 3.594515625  L 17.7426470588235 3.594515625  C 18.0898554861069 3.594515625  18.3713235294118 3.3111958182523  18.3713235294118 2.961703125  C 18.3713235294118 2.6122104317477  18.0898554861069 2.328890625  17.7426470588235 2.328890625  Z " fill-rule="nonzero" fill="#02a7f0" stroke="none" transform="matrix(1 0 0 1 469 295 )" />
  </g>
</svg>