<?xml version="1.0" encoding="utf-8"?>
<svg version="1.1" xmlns:xlink="http://www.w3.org/1999/xlink" width="21px" height="21px" xmlns="http://www.w3.org/2000/svg">
  <g transform="matrix(1 0 0 1 -259 -342 )">
    <path d="M 269.5 342  C 275.38 342  280 346.62  280 352.5  C 280 358.38  275.38 363  269.5 363  C 263.62 363  259 358.38  259 352.5  C 259 346.62  263.62 342  269.5 342  Z " fill-rule="nonzero" fill="#ffffff" stroke="none" />
    <path d="M 269.5 342.5  C 275.1 342.5  279.5 346.9  279.5 352.5  C 279.5 358.1  275.1 362.5  269.5 362.5  C 263.9 362.5  259.5 358.1  259.5 352.5  C 259.5 346.9  263.9 342.5  269.5 342.5  Z " stroke-width="1" stroke="#797979" fill="none" />
  </g>
</svg>