<?xml version="1.0" encoding="utf-8"?>
<svg version="1.1" xmlns:xlink="http://www.w3.org/1999/xlink" width="110px" height="110px" xmlns="http://www.w3.org/2000/svg">
  <defs>
    <filter x="848px" y="695px" width="110px" height="110px" filterUnits="userSpaceOnUse" id="filter2548">
      <feOffset dx="0" dy="-1" in="SourceAlpha" result="shadowOffsetInner" />
      <feGaussianBlur stdDeviation="5.5" in="shadowOffsetInner" result="shadowGaussian" />
      <feComposite in2="shadowGaussian" operator="atop" in="SourceAlpha" result="shadowComposite" />
      <feColorMatrix type="matrix" values="0 0 0 0 0.333333333333333  0 0 0 0 0.333333333333333  0 0 0 0 0.333333333333333  0 0 0 0.349019607843137 0  " in="shadowComposite" />
    </filter>
    <g id="widget2549">
      <path d="M 903 707  C 927.64 707  947 726.36  947 751  C 947 775.64  927.64 795  903 795  C 878.36 795  859 775.64  859 751  C 859 726.36  878.36 707  903 707  Z " fill-rule="nonzero" fill="#ffffff" stroke="none" />
      <path d="M 903 707.5  C 927.36 707.5  946.5 726.64  946.5 751  C 946.5 775.36  927.36 794.5  903 794.5  C 878.64 794.5  859.5 775.36  859.5 751  C 859.5 726.64  878.64 707.5  903 707.5  Z " stroke-width="1" stroke="#aaaaaa" fill="none" />
    </g>
  </defs>
  <g transform="matrix(1 0 0 1 -848 -695 )">
    <use xlink:href="#widget2549" filter="url(#filter2548)" />
    <use xlink:href="#widget2549" />
  </g>
</svg>