<?xml version="1.0" encoding="utf-8"?>
<svg version="1.1" xmlns:xlink="http://www.w3.org/1999/xlink" width="20px" height="20px" viewBox="1396 1242  20 20" xmlns="http://www.w3.org/2000/svg">
  <path d="M 1406 1242  C 1411.6 1242  1416 1246.4  1416 1252  C 1416 1257.6  1411.6 1262  1406 1262  C 1400.4 1262  1396 1257.6  1396 1252  C 1396 1246.4  1400.4 1242  1406 1242  Z " fill-rule="nonzero" fill="#ffffff" stroke="none" />
  <path d="M 1406 1242.5  C 1411.32 1242.5  1415.5 1246.68  1415.5 1252  C 1415.5 1257.32  1411.32 1261.5  1406 1261.5  C 1400.68 1261.5  1396.5 1257.32  1396.5 1252  C 1396.5 1246.68  1400.68 1242.5  1406 1242.5  Z " stroke-width="1" stroke="#04f21c" fill="none" />
  <path d="M 1406 1257  C 1403.2 1257  1401 1254.8  1401 1252  C 1401 1249.2  1403.2 1247  1406 1247  C 1408.8 1247  1411 1249.2  1411 1252  C 1411 1254.8  1408.8 1257  1406 1257  " fill-rule="nonzero" fill="#04f21c" stroke="none" />
</svg>