<?xml version="1.0" encoding="utf-8"?>
<svg version="1.1" xmlns:xlink="http://www.w3.org/1999/xlink" width="20px" height="20px" viewBox="1396 1199  20 20" xmlns="http://www.w3.org/2000/svg">
  <path d="M 1406 1199  C 1411.6 1199  1416 1203.4  1416 1209  C 1416 1214.6  1411.6 1219  1406 1219  C 1400.4 1219  1396 1214.6  1396 1209  C 1396 1203.4  1400.4 1199  1406 1199  Z " fill-rule="nonzero" fill="#ffffff" stroke="none" />
  <path d="M 1406 1199.5  C 1411.32 1199.5  1415.5 1203.68  1415.5 1209  C 1415.5 1214.32  1411.32 1218.5  1406 1218.5  C 1400.68 1218.5  1396.5 1214.32  1396.5 1209  C 1396.5 1203.68  1400.68 1199.5  1406 1199.5  Z " stroke-width="1" stroke="#797979" fill="none" />
  <path d="M 1406 1214  C 1403.2 1214  1401 1211.8  1401 1209  C 1401 1206.2  1403.2 1204  1406 1204  C 1408.8 1204  1411 1206.2  1411 1209  C 1411 1211.8  1408.8 1214  1406 1214  " fill-rule="nonzero" fill="#797979" stroke="none" />
</svg>