<?xml version="1.0" encoding="utf-8"?>
<svg version="1.1" xmlns:xlink="http://www.w3.org/1999/xlink" width="20px" height="20px" viewBox="1396 1148  20 20" xmlns="http://www.w3.org/2000/svg">
  <path d="M 1406 1148  C 1411.6 1148  1416 1152.4  1416 1158  C 1416 1163.6  1411.6 1168  1406 1168  C 1400.4 1168  1396 1163.6  1396 1158  C 1396 1152.4  1400.4 1148  1406 1148  Z " fill-rule="nonzero" fill="#f0f0f0" stroke="none" />
  <path d="M 1406 1148.5  C 1411.32 1148.5  1415.5 1152.68  1415.5 1158  C 1415.5 1163.32  1411.32 1167.5  1406 1167.5  C 1400.68 1167.5  1396.5 1163.32  1396.5 1158  C 1396.5 1152.68  1400.68 1148.5  1406 1148.5  Z " stroke-width="1" stroke="#797979" fill="none" />
  <path d="M 1406 1163  C 1403.2 1163  1401 1160.8  1401 1158  C 1401 1155.2  1403.2 1153  1406 1153  C 1408.8 1153  1411 1155.2  1411 1158  C 1411 1160.8  1408.8 1163  1406 1163  " fill-rule="nonzero" fill="#797979" stroke="none" />
</svg>