<?xml version="1.0" encoding="utf-8"?>
<svg version="1.1" xmlns:xlink="http://www.w3.org/1999/xlink" width="20px" height="20px" xmlns="http://www.w3.org/2000/svg">
  <g transform="matrix(1 0 0 1 -1140 -455 )">
    <path d="M 1150 456  C 1155.04 456  1159 459.96  1159 465  C 1159 470.04  1155.04 474  1150 474  C 1144.96 474  1141 470.04  1141 465  C 1141 459.96  1144.96 456  1150 456  Z " fill-rule="nonzero" fill="#ffffff" stroke="none" />
    <path d="M 1150 456  C 1155.04 456  1159 459.96  1159 465  C 1159 470.04  1155.04 474  1150 474  C 1144.96 474  1141 470.04  1141 465  C 1141 459.96  1144.96 456  1150 456  Z " stroke-width="2" stroke="#d9001b" fill="none" />
  </g>
</svg>