<?xml version="1.0" encoding="utf-8"?>
<svg version="1.1" xmlns:xlink="http://www.w3.org/1999/xlink" width="44px" height="10px" preserveAspectRatio="xMinYMid meet" viewBox="1251 339  44 8" xmlns="http://www.w3.org/2000/svg">
  <defs>
    <mask fill="white" id="clip846">
      <path d="M 1233 658  L 1279 658  L 1279 683  L 1233 683  Z M 1233 340  L 1302 340  L 1302 1022  L 1233 1022  Z " fill-rule="evenodd" />
    </mask>
  </defs>
  <path d="M 1295 343.5  L 1261 343.5  A 5 5 0 0 0 1256.5 348 L 1256.5 610  A 3 3 0 0 1 1259.5 613 A 3 3 0 0 1 1256.5 616 L 1256.5 1001  A 5 5 0 0 0 1261.5 1006.5 L 1285 1006.5  " stroke-width="1" stroke-dasharray="9,4" stroke="#02a7f0" fill="none" mask="url(#clip846)" />
  <path d="M 1279.3 1012.5  L 1286 1006.5  L 1279.3 1000.5  L 1281.6 1006.5  L 1279.3 1012.5  Z " fill-rule="nonzero" fill="#02a7f0" stroke="none" mask="url(#clip846)" />
</svg>