<?xml version="1.0" encoding="utf-8"?>
<svg version="1.1" xmlns:xlink="http://www.w3.org/1999/xlink" width="113px" height="21px" xmlns="http://www.w3.org/2000/svg">
  <g transform="matrix(1 0 0 1 -573 -218 )">
    <path d="M 574 221  A 2 2 0 0 1 576 219 L 683 219  A 2 2 0 0 1 685 221 L 685 236  A 2 2 0 0 1 683 238 L 576 238  A 2 2 0 0 1 574 236 L 574 221  Z " fill-rule="nonzero" fill="#2962ff" stroke="none" fill-opacity="0.0980392156862745" />
    <path d="M 573.5 221  A 2.5 2.5 0 0 1 576 218.5 L 683 218.5  A 2.5 2.5 0 0 1 685.5 221 L 685.5 236  A 2.5 2.5 0 0 1 683 238.5 L 576 238.5  A 2.5 2.5 0 0 1 573.5 236 L 573.5 221  Z " stroke-width="1" stroke="#02a7f0" fill="none" stroke-opacity="0.498039215686275" />
  </g>
</svg>