<?xml version="1.0" encoding="utf-8"?>
<svg version="1.1" xmlns:xlink="http://www.w3.org/1999/xlink" width="74px" height="21px" xmlns="http://www.w3.org/2000/svg">
  <g transform="matrix(1 0 0 1 -573 -272 )">
    <path d="M 574 275  A 2 2 0 0 1 576 273 L 644 273  A 2 2 0 0 1 646 275 L 646 290  A 2 2 0 0 1 644 292 L 576 292  A 2 2 0 0 1 574 290 L 574 275  Z " fill-rule="nonzero" fill="#2962ff" stroke="none" fill-opacity="0.0980392156862745" />
    <path d="M 573.5 275  A 2.5 2.5 0 0 1 576 272.5 L 644 272.5  A 2.5 2.5 0 0 1 646.5 275 L 646.5 290  A 2.5 2.5 0 0 1 644 292.5 L 576 292.5  A 2.5 2.5 0 0 1 573.5 290 L 573.5 275  Z " stroke-width="1" stroke="#02a7f0" fill="none" stroke-opacity="0.498039215686275" />
  </g>
</svg>