<?xml version="1.0" encoding="utf-8"?>
<svg version="1.1" xmlns:xlink="http://www.w3.org/1999/xlink" width="83px" height="46px" xmlns="http://www.w3.org/2000/svg">
  <defs>
    <mask fill="white" id="clip170">
      <path d="M 953 290  C 950.225 290  948 287.775  948 285  L 948 249  C 948 246.225  950.225 244  953 244  L 1026 244  C 1028.775 244  1031 246.225  1031 249  L 1031 285  C 1031 287.775  1028.775 290  1026 290  " fill-rule="evenodd" />
    </mask>
  </defs>
  <g transform="matrix(1 0 0 1 -948 -244 )">
    <path d="M 948 244  L 1031 244  L 1031 290  L 948 290  L 948 244  " fill-rule="nonzero" fill="#cccccc" stroke="none" mask="url(#clip170)" />
    <path d="M 951 247  L 1028 247  L 1028 287  L 951 287  L 951 247  " fill-rule="nonzero" fill="#ffffff" stroke="none" mask="url(#clip170)" />
    <path d="M 994.61 257.8  C 992.678 257.8  991.16 256.282  991.16 254.35  C 991.16 252.418  992.678 250.9  994.61 250.9  C 996.542 250.9  998.06 252.418  998.06 254.35  C 998.06 256.282  996.542 257.8  994.61 257.8  " fill-rule="nonzero" fill="#cccccc" stroke="none" mask="url(#clip170)" />
    <path d="M 952 286  L 952 265.1  L 970.75 255.6  L 997 273.363855421687  L 1012 261.3  L 1027 273.363855421687  L 1027 286  L 952 286  " fill-rule="nonzero" fill="#169bd5" stroke="none" mask="url(#clip170)" />
  </g>
</svg>