<?xml version="1.0" encoding="utf-8"?>
<svg version="1.1" xmlns:xlink="http://www.w3.org/1999/xlink" width="28px" height="28px" xmlns="http://www.w3.org/2000/svg">
  <g transform="matrix(1 0 0 1 -28 -596 )">
    <path d="M 42 596  C 49.84 596  56 602.16  56 610  C 56 617.84  49.84 624  42 624  C 34.16 624  28 617.84  28 610  C 28 602.16  34.16 596  42 596  Z " fill-rule="nonzero" fill="#000000" stroke="none" />
    <path d="M 42 596.5  C 49.56 596.5  55.5 602.44  55.5 610  C 55.5 617.56  49.56 623.5  42 623.5  C 34.44 623.5  28.5 617.56  28.5 610  C 28.5 602.44  34.44 596.5  42 596.5  Z " stroke-width="1" stroke="#797979" fill="none" />
  </g>
</svg>