<?xml version="1.0" encoding="utf-8"?>
<svg version="1.1" xmlns:xlink="http://www.w3.org/1999/xlink" width="28px" height="28px" xmlns="http://www.w3.org/2000/svg">
  <g transform="matrix(1 0 0 1 -705 -79 )">
    <path d="M 719 79  C 726.84 79  733 85.16  733 93  C 733 100.84  726.84 107  719 107  C 711.16 107  705 100.84  705 93  C 705 85.16  711.16 79  719 79  Z " fill-rule="nonzero" fill="#ffffff" stroke="none" />
    <path d="M 719 79.5  C 726.56 79.5  732.5 85.44  732.5 93  C 732.5 100.56  726.56 106.5  719 106.5  C 711.44 106.5  705.5 100.56  705.5 93  C 705.5 85.44  711.44 79.5  719 79.5  Z " stroke-width="1" stroke="#797979" fill="none" />
  </g>
</svg>