<?xml version="1.0" encoding="utf-8"?>
<svg version="1.1" xmlns:xlink="http://www.w3.org/1999/xlink" width="55px" height="55px" xmlns="http://www.w3.org/2000/svg">
  <defs>
    <linearGradient gradientUnits="userSpaceOnUse" x1="688.911792905082" y1="441" x2="634.837008628955" y2="441" id="LinearGradient369">
      <stop id="Stop370" stop-color="#02a7f0" stop-opacity="0.43921568627451" offset="0" />
      <stop id="Stop371" stop-color="#02a7f0" stop-opacity="0.266666666666667" offset="0.78" />
      <stop id="Stop372" stop-color="#02a7f0" stop-opacity="0.219607843137255" offset="1" />
    </linearGradient>
  </defs>
  <g transform="matrix(1 0 0 1 -635 -386 )">
    <path d="M 662.5 390  C 675.66 390  686 400.34  686 413.5  C 686 426.66  675.66 437  662.5 437  C 649.34 437  639 426.66  639 413.5  C 639 400.34  649.34 390  662.5 390  Z " fill-rule="nonzero" fill="#ffffff" stroke="none" fill-opacity="0.549019607843137" />
    <path d="M 662.5 388.5  C 676.5 388.5  687.5 399.5  687.5 413.5  C 687.5 427.5  676.5 438.5  662.5 438.5  C 648.5 438.5  637.5 427.5  637.5 413.5  C 637.5 399.5  648.5 388.5  662.5 388.5  Z " stroke-width="5" stroke="url(#LinearGradient369)" fill="none" />
  </g>
</svg>