<?xml version="1.0" encoding="utf-8"?>
<svg version="1.1" xmlns:xlink="http://www.w3.org/1999/xlink" width="23px" height="23px" xmlns="http://www.w3.org/2000/svg">
  <g transform="matrix(1 0 0 1 -355 -55 )">
    <path d="M 22.8849737142857 11.4830842666667  C 22.8849984537815 5.21992053333333  17.7649371428571 0.142649066666667  11.4491417815126 0.142649066666667  C 5.13339589915966 0.142649066666667  0.0133593277310921 5.219896  0.0133593277310921 11.4830842666667  C 0.0133593277310921 17.7463216  5.13339589915966 22.8236176  11.4491417815126 22.8236176  C 17.7649371428571 22.8236176  22.8849737142857 17.7462970666667  22.8849737142857 11.4830842666667  Z M 16.8223128739496 16.2054074666667  C 16.9960088739496 16.3786373333333  16.9950192941176 16.6596421333333  16.8203584537815 16.832872  C 16.7330280336134 16.9185178666667  16.6194737478992 16.9618192  16.5049793613445 16.9618192  C 16.3904849747899 16.9618192  16.2759658487395 16.9185178666667  16.1876458487395 16.8309338666667  L 11.449092302521 12.1120208  L 6.7211025210084 16.8213168  C 6.63377210084034 16.9089008  6.51828813445378 16.9522021333333  6.40376900840336 16.9522021333333  C 6.28924988235294 16.9522021333333  6.17572033613445 16.9089008  6.08838991596639 16.8232549333333  C 5.91370433613446 16.6500250666667  5.91273949579832 16.3690202666667  6.08646023529412 16.1958149333333  L 10.8176414117647 11.483256  L 6.07574803361345 6.76098186666667  C 5.90205203361345 6.587752  5.90301687394958 6.3067472  6.07767771428571 6.13354186666667  C 6.25236329411765 5.96225013333333  6.53377505882353 5.960312  6.71039031932773 6.13545546666667  L 11.4489438655462 10.8543685333333  L 16.1769336470588 6.14509706666667  C 16.3516192268908 5.9699536  16.6349854117647 5.9718672  16.8096462521008 6.14318346666667  C 16.9843318319328 6.31641333333333  16.9852966722689 6.59741813333333  16.8115759327731 6.77062346666667  L 12.0804194957983 11.4831333333333  L 16.8223128739496 16.2054074666667  Z " fill-rule="nonzero" fill="#ec808d" stroke="none" fill-opacity="0.549019607843137" transform="matrix(1 0 0 1 355 55 )" />
  </g>
</svg>