<?xml version="1.0" encoding="utf-8"?>
<svg version="1.1" xmlns:xlink="http://www.w3.org/1999/xlink" width="30px" height="30px" xmlns="http://www.w3.org/2000/svg">
  <g transform="matrix(1 0 0 1 -615 -85 )">
    <path d="M 630 85  C 638.4 85  645 91.6  645 100  C 645 108.4  638.4 115  630 115  C 621.6 115  615 108.4  615 100  C 615 91.6  621.6 85  630 85  Z " fill-rule="nonzero" fill="#ffffff" stroke="none" fill-opacity="0.109803921568627" />
    <path d="M 630 85.5  C 638.12 85.5  644.5 91.88  644.5 100  C 644.5 108.12  638.12 114.5  630 114.5  C 621.88 114.5  615.5 108.12  615.5 100  C 615.5 91.88  621.88 85.5  630 85.5  Z " stroke-width="1" stroke="#81d3f8" fill="none" />
  </g>
</svg>