<?xml version="1.0" encoding="utf-8"?>
<svg version="1.1" xmlns:xlink="http://www.w3.org/1999/xlink" width="30px" height="30px" xmlns="http://www.w3.org/2000/svg">
  <g transform="matrix(1 0 0 1 -615 -239 )">
    <path d="M 630 241  C 637.28 241  643 246.72  643 254  C 643 261.28  637.28 267  630 267  C 622.72 267  617 261.28  617 254  C 617 246.72  622.72 241  630 241  Z " fill-rule="nonzero" fill="#02a7f0" stroke="none" />
    <path d="M 630 240.5  C 637.56 240.5  643.5 246.44  643.5 254  C 643.5 261.56  637.56 267.5  630 267.5  C 622.44 267.5  616.5 261.56  616.5 254  C 616.5 246.44  622.44 240.5  630 240.5  Z " stroke-width="3" stroke="#81d3f8" fill="none" />
  </g>
</svg>