<?xml version="1.0" encoding="utf-8"?>
<svg version="1.1" xmlns:xlink="http://www.w3.org/1999/xlink" width="30px" height="30px" xmlns="http://www.w3.org/2000/svg">
  <g transform="matrix(1 0 0 1 -615 -239 )">
    <path d="M 630 239  C 638.4 239  645 245.6  645 254  C 645 262.4  638.4 269  630 269  C 621.6 269  615 262.4  615 254  C 615 245.6  621.6 239  630 239  Z " fill-rule="nonzero" fill="#ffffff" stroke="none" fill-opacity="0.109803921568627" />
    <path d="M 630 239.5  C 638.12 239.5  644.5 245.88  644.5 254  C 644.5 262.12  638.12 268.5  630 268.5  C 621.88 268.5  615.5 262.12  615.5 254  C 615.5 245.88  621.88 239.5  630 239.5  Z " stroke-width="1" stroke="#81d3f8" fill="none" />
  </g>
</svg>