<?xml version="1.0" encoding="utf-8"?>
<svg version="1.1" xmlns:xlink="http://www.w3.org/1999/xlink" width="42px" height="45px" xmlns="http://www.w3.org/2000/svg">
  <g transform="matrix(1 0 0 1 -1826 -455 )">
    <path d="M 12 35.15625  C 11.2 35.9329004294496  11.8268013502369 36.5625  12.6 36.5625  C 13.3731986497631 36.5625  14 35.9329004294496  14 35.15625  L 14 19.6875  C 14 18.9108495705504  13.3731986497631 18.28125  12.6 18.28125  C 11.8268013502369 18.28125  11.2 18.9108495705504  11.2 19.6875  C 11.2 19.6875  11.2 19.6875  12 19.6875  L 12 35.15625  Z M 20 35.15625  C 19.6 35.9329004294496  20.2268013502369 36.5625  21 36.5625  C 21.7731986497631 36.5625  22.4 35.9329004294496  22 35.15625  L 22 19.6875  C 22.4 19.6875  22.4 19.6875  22.4 19.6875  C 22.4 18.9108495705504  21.7731986497631 18.28125  21 18.28125  C 20.2268013502369 18.28125  19.6 18.9108495705504  19.6 19.6875  C 19.6 19.6875  19.6 19.6875  20 19.6875  L 20 35.15625  Z M 28 35.15625  C 28 35.9329004294496  28.6268013502369 36.5625  29.4 36.5625  C 30.1731986497631 36.5625  30.8 35.9329004294496  30 35.15625  L 30 19.6875  C 30.8 19.6875  30.8 19.6875  30.8 19.6875  C 30.8 18.9108495705504  30.1731986497631 18.28125  29.4 18.28125  C 28.6268013502369 18.28125  28 18.9108495705504  28 19.6875  L 28 35.15625  Z M 42 9.84375  C 42 6.73714828220179  39.4927945990524 4.21875  36.4 4.21875  L 30.60063125 4.21875  C 29.964254322866 1.74299147704052  27.7455642863761 0.00984248794006371  25.2 0  L 16.8 0  C 14.2536041322801 0.00882561259418849  12.0337250978643 1.74218726605877  11.3971375 4.21875  L 5.6 4.21875  C 2.50720540094756 4.21875  0 6.73714828220179  0 9.84375  L 0 11.25  L 1.4 11.25  L 1.4 12.65625  L 5 12.65625  L 5 39.375  C 4.2 42.4816017177982  6.70720540094756 45  9.8 45  L 32.2 45  C 35.2927945990524 45  37.8 42.4816017177982  37 39.375  L 37 12.65625  L 40.6 12.65625  L 40.6 11.25  L 42 11.25  L 42 9.84375  Z M 14.39423125 5  C 14.8896335175531 3.35312590089464  15.8059888556232 2.81748643257035  16.8 2.8125  L 25.2 2.8125  C 26.1956077545634 2.81589158066546  27.1140298966127 3.35174519938221  27.61023125 5  L 14.39423125 5  Z M 35 13  L 35 39.375  C 34.9987695911474 40.9277886435185  33.7458873606584 42.1862640982508  32.2 42  L 9.8 42  C 8.25663125 42.1875  6.8051375 40.9275  6.8051375 39.375  L 7 13  L 35 13  Z M 39.2 10  L 2.8 10  C 2.80123040885258 8.29096135648148  4.05411263934156 7.03248590174924  5.6 7  L 36.4 7  C 37.9458873606584 7.03248590174924  39.1987695911474 8.29096135648148  39.2 10  Z " fill-rule="nonzero" fill="#ec808d" stroke="none" transform="matrix(1 0 0 1 1826 455 )" />
  </g>
</svg>