<?xml version="1.0" encoding="utf-8"?>
<svg version="1.1" xmlns:xlink="http://www.w3.org/1999/xlink" width="27px" height="27px" xmlns="http://www.w3.org/2000/svg">
  <g transform="matrix(1 0 0 1 -100 -132 )">
    <path d="M 113.5 134  C 119.94 134  125 139.06  125 145.5  C 125 151.94  119.94 157  113.5 157  C 107.06 157  102 151.94  102 145.5  C 102 139.06  107.06 134  113.5 134  Z " fill-rule="nonzero" fill="#02a7f0" stroke="none" />
    <path d="M 113.5 133.5  C 120.22 133.5  125.5 138.78  125.5 145.5  C 125.5 152.22  120.22 157.5  113.5 157.5  C 106.78 157.5  101.5 152.22  101.5 145.5  C 101.5 138.78  106.78 133.5  113.5 133.5  Z " stroke-width="3" stroke="#ffffff" fill="none" />
  </g>
</svg>