<?xml version="1.0" encoding="utf-8"?>
<svg version="1.1" xmlns:xlink="http://www.w3.org/1999/xlink" width="27px" height="27px" xmlns="http://www.w3.org/2000/svg">
  <g transform="matrix(1 0 0 1 -100 -132 )">
    <path d="M 113.5 132  C 121.06 132  127 137.94  127 145.5  C 127 153.06  121.06 159  113.5 159  C 105.94 159  100 153.06  100 145.5  C 100 137.94  105.94 132  113.5 132  Z " fill-rule="nonzero" fill="#ffffff" stroke="none" fill-opacity="0.109803921568627" />
    <path d="M 113.5 132.5  C 120.78 132.5  126.5 138.22  126.5 145.5  C 126.5 152.78  120.78 158.5  113.5 158.5  C 106.22 158.5  100.5 152.78  100.5 145.5  C 100.5 138.22  106.22 132.5  113.5 132.5  Z " stroke-width="1" stroke="#ffffff" fill="none" />
  </g>
</svg>