<?xml version="1.0" encoding="utf-8"?>
<svg version="1.1" xmlns:xlink="http://www.w3.org/1999/xlink" width="14px" height="14px" xmlns="http://www.w3.org/2000/svg">
  <g transform="matrix(1 0 0 1 -1881 -551 )">
    <path d="M 14 7  C 14 10.8661  10.8661 14  7 14  C 3.1339 14  0 10.8661  0 7  C 0 3.1339  3.1339 0  7 0  C 10.8661 0  14 3.1339  14 7  Z M 5.6 2.8  L 3.5 2.8  C 3.11340067511844 2.8  2.8 3.11340067511844  2.8 3.5  L 2.8 5.6  C 2.8 5.98659932488156  3.11340067511844 6.3  3.5 6.3  L 6.3 6.3  L 6.3 3.5  C 6.3 3.11340067511844  5.98659932488156 2.8  5.6 2.8  Z M 11.2 3.5  C 11.2 3.11340067511844  10.8865993248816 2.8  10.5 2.8  L 8.4 2.8  C 8.01340067511845 2.8  7.7 3.11340067511844  7.7 3.5  L 7.7 6.3  L 10.5 6.3  C 10.8865993248816 6.3  11.2 5.98659932488156  11.2 5.6  L 11.2 3.5  Z M 3.5 11.2  L 5.6 11.2  C 5.98659932488156 11.2  6.3 10.8865993248816  6.3 10.5  L 6.3 7.7  L 3.5 7.7  C 3.11340067511844 7.7  2.8 8.01340067511845  2.8 8.4  L 2.8 10.5  C 2.8 10.8865993248816  3.11340067511844 11.2  3.5 11.2  Z M 8.4 11.2  L 10.5 11.2  C 10.8865993248816 11.2  11.2 10.8865993248816  11.2 10.5  L 11.2 8.4  C 11.2 8.01340067511845  10.8865993248816 7.7  10.5 7.7  L 7.7 7.7  L 7.7 10.5  C 7.7 10.8865993248816  8.01340067511845 11.2  8.4 11.2  Z " fill-rule="nonzero" fill="#f2f2f2" stroke="none" transform="matrix(1 0 0 1 1881 551 )" />
  </g>
</svg>