<?xml version="1.0" encoding="utf-8"?>
<svg version="1.1" xmlns:xlink="http://www.w3.org/1999/xlink" width="8px" height="8px" xmlns="http://www.w3.org/2000/svg">
  <g transform="matrix(1 0 0 1 -1627 -417 )">
    <path d="M 6.35559984999304 4.46466818132641  C 6.35559984999304 4.65274816574705  6.51206974210599 4.80487167196798  6.70552344036723 4.80487167196798  L 7.57179769892892 4.80487167196798  C 7.76525139719015 4.80487167196798  7.9217212893031 4.65274816574705  7.9217212893031 4.46466818132641  L 7.9217212893031 3.62245709661365  C 7.9217212893031 3.43437711219301  7.76525139719015 3.28225360597209  7.57179769892892 3.28225360597209  L 6.70552344036723 3.28225360597209  C 6.512069742106 3.28225360597209  6.35559984999304 3.43437711219301  6.35559984999304 3.62245709661365  L 6.35559984999304 4.46466818132641  Z M 2.31156419641118 3.47863123920805  C 2.31014174945055 3.17991597879476  2.06121236333287 2.93790129784702  1.75538482815412 2.93790129784702  L 0.593240220114063 2.93790129784702  C 0.285990237974683 2.93790129784702  0.0370608518570033 3.17991597879476  0.0370608518570033 3.47863123920805  L 0.0370608518570033 4.60849405258033  C 0.0370608518570033 4.90720931299362  0.285990237974683 5.14922399394136  0.593240220114063 5.14922399394136  L 1.75538482815412 5.14922399394136  C 2.0626348102935 5.14922399394136  2.31156419641118 4.90720931299362  2.31156419641118 4.60849405258033  L 2.31156419641118 3.47863123920805  Z M 6.35559984999304 7.56798784117711  C 6.35559984999304 7.75468487720437  6.51206974210599 7.90819133181867  6.70552344036723 7.90819133181867  L 7.57179769892892 7.90819133181867  C 7.76525139719015 7.90819133181867  7.9217212893031 7.75606782559775  7.9217212893031 7.56798784117711  L 7.9217212893031 6.72577675646435  C 7.9217212893031 6.53769677204371  7.76525139719015 6.38557326582278  7.57179769892892 6.38557326582278  L 6.70552344036723 6.38557326582278  C 6.512069742106 6.38557326582278  6.35559984999304 6.53769677204371  6.35559984999304 6.72577675646435  L 6.35559984999304 7.56798784117711  Z M 7.9217212893031 0.433395093367955  C 7.9217212893031 0.246698057340691  7.76525139719015 0.093191602726388  7.57179769892892 0.0931916027263876  L 6.70552344036723 0.0931916027263876  C 6.512069742106 0.0931916027263876  6.35559984999304 0.245315108947312  6.35559984999304 0.433395093367954  L 6.35559984999304 1.27560617808071  C 6.35559984999304 1.46368616250135  6.51206974210599 1.61580966872228  6.70552344036723 1.61580966872228  L 7.57179769892892 1.61580966872228  C 7.76525139719015 1.61580966872228  7.9217212893031 1.46368616250135  7.9217212893031 1.27560617808071  L 7.9217212893031 0.433395093367955  Z " fill-rule="nonzero" fill="#f2f2f2" stroke="none" transform="matrix(1 0 0 1 1627 417 )" />
  </g>
</svg>