<?xml version="1.0" encoding="utf-8"?>
<svg version="1.1" xmlns:xlink="http://www.w3.org/1999/xlink" width="32px" height="27px" xmlns="http://www.w3.org/2000/svg">
  <g transform="matrix(1 0 0 1 -1743 -15 )">
    <path d="M 6.93522478571428 26.7079204657895  C 6.88923699144447 26.7203253903874  6.8418033227796 26.7266328911104  6.79415471428571 26.7266792842105  C 6.63839289285714 26.7266792842105  6.48789378571429 26.6593874684211  6.38406475 26.537855068421  L 2.66087478571429 22.1623970328947  C 1.20412532142857 22.0319941736842  0.0588263928571427 20.8103079434211  0 19.3278523381579  L 0 2.86506243947368  C 0.0588263928571427 1.29597452763158  1.34252746428571 0.0190297776315778  2.91991742857143 0  L 29.1050073928571 0  C 30.682909 0.0190297776315778  31.9666100714286 1.29597452763158  32 2.86506243947368  L 32 19.3278523381579  C 31.9666100714286 20.89694025  30.682909 22.173885  29.1050073928571 22  L 8.03381707142857 22  L 7.32327710714286 26.2833022657895  C 7.28815578571429 26.4877951855263  7.13659682142857 26.6531345526316  6.93522478571428 26.7079204657895  Z M 2.919954 1  L 2.919954 1.08730083552632  C 1.93461978571429 1.08730083552632  1.13282282142857 1.88487781578947  1.13282278571429 2.86502609605263  L 1.13282278571429 19.3278159592105  C 1.13282278571429 20.3079642039474  1.93461975 21.1055411842105  2.919954 21.1055411842105  C 3.07779896428571 21.1055411842105  3.22778642857143 21.1749051789474  3.33004392857143 21.2943654355263  L 6.46015485714286 24.9729478934211  L 7.05221060714286 21.5489545815789  C 7.09624932142857 21.29283855  7.319659 21.1055775631579  7.581333 21  L 29.1050804642857 21  C 30.0909263571429 21.1055775631579  30.8927232857143 20.3080005828947  30.8927233214286 19.3278523381579  L 30.8927233214286 2.86506243947368  C 30.8927233214286 1.88491419473684  30.0909263571429 1.08733721447368  29.1050804642857 1  L 2.919954 1  Z " fill-rule="nonzero" fill="#ffffff" stroke="none" transform="matrix(1 0 0 1 1743 15 )" />
  </g>
</svg>