<?xml version="1.0" encoding="utf-8"?>
<svg version="1.1" xmlns:xlink="http://www.w3.org/1999/xlink" width="17px" height="17px" xmlns="http://www.w3.org/2000/svg">
  <g transform="matrix(1 0 0 1 -21 -135 )">
    <path d="M 7.85960790794574 10.4861386542969  C 7.86517496866925 10.5534653945312  7.8790926369509 10.6432343704427  7.9013609622093 10.7554455488281  C 7.87909268636951 10.8788778893229  7.85125734431525 10.9742574296875  7.81785493604651 11.0415841699219  C 7.78445252777778 11.1089109101563  7.70651357332042 11.181848203776  7.58403807267442 11.2603960507813  C 7.29455051970284 11.4399340026042  6.98279469089147 11.5858085898438  6.64877058624031 11.6980198125  C 6.31474648158915 11.8102310351563  5.9946400507106 11.933663375651  5.68845129360465 12.0683168339844  C 5.38226253649871 12.2029702923177  5.11504325387597 12.3797029674479  4.88679344573643 12.598514859375  C 4.6585436375969 12.8173267513021  4.51658339696383 13.1287128902995  4.46091272383721 13.5326732763672  C 4.43864444799742 13.656105616862  4.42472677971576 13.7767326806641  4.41915971899225 13.8945544677734  C 4.41359265826873 14.0123762548828  4.40524205620155 14.1217821953125  4.3941079127907 14.2227722890625  C 4.38297378036176 14.2452145358073  4.37183964244186 14.2648515003255  4.36070549903101 14.2816831826172  C 4.34957135562016 14.2985148649089  4.33843721770026 14.3181518294271  4.32730308527132 14.3405940761719  C 3.89307175581395 14.3069307115885  3.45327335465116 14.2676567825521  3.00790788178295 14.2227722890625  C 2.56254240891473 14.1778877955729  2.15336288565892 14.1273927486979  1.7803693120155 14.0712871484375  C 1.40737573837209 14.0151815481771  1.09283637919897 13.959075936849  0.836751234496125 13.9029703144531  C 0.580666089793282 13.8468646920573  0.419221109173127 13.7907590807292  0.352416292635659 13.7346534804687  C 0.252209067829458 13.6561056223958  0.177053643733851 13.4204620592448  0.126950020348838 13.0277227910156  C 0.0768463969638247 12.6349835227865  0.0963311369509048 12.1244224674479  0.185404240310078 11.496039625  C 0.241074924418605 11.1481848391927  0.38303516505168 10.881683188151  0.611284962209303 10.696534671875  C 0.839534759366926 10.511386155599  1.10953757235142 10.3655115683594  1.42129340116279 10.2589109101562  C 1.73304922997416 10.1523102519531  2.05315566085271 10.0541254348958  2.38161269379845 9.96435645898437  C 2.71006972674419 9.87458748307292  3.00234081556848 9.75115514257812  3.25842596027132 9.5940594375  C 3.45884042086563 9.45940596809896  3.61193479941861 9.33597362760417  3.71770909593023 9.22376241601562  C 3.82348339244186 9.11155120442708  3.89863881653747 8.99653470507813  3.94317536821705 8.87871291796875  C 3.98771191989664 8.76089113085937  4.00998019573643 8.64026406705729  4.00998019573643 8.5168317265625  C 4.00998019573643 8.39339938606771  4.00441312952196 8.25874592220052  3.99327899709302 8.11287133496094  C 3.97101072125323 7.88844888964844  3.89585529715762 7.71171621451823  3.7678127248062 7.58267330957031  C 3.63977015245478 7.4536304046224  3.49780991182171 7.32178221744792  3.34193200290698 7.18712874804687  C 3.25285891052972 7.13102313671875  3.17770348643411 7.04125416080729  3.11646573062016 6.9178218203125  C 3.0552279748062 6.79438947981771  3.00234082655039 6.67095713932292  2.95780428585271 6.54752479882812  C 2.91326773417313 6.41287132942708  2.8687311879845 6.26138618326823  2.82419464728682 6.09306936035156  C 2.75738983074935 6.07062711360677  2.69058500872093 6.03696374902344  2.62378018120155 5.99207926660156  C 2.56810949709302 5.94719477311198  2.50965527713178 5.87986803841146  2.44841752131783 5.7900990625  C 2.38717976550388 5.70033008658854  2.32872554554264 5.57689774609375  2.27305486143411 5.41980204101562  C 2.21738417732558 5.2627063359375  2.19511590148579 5.11402646647135  2.20625003391473 4.97376243261719  C 2.21738416634367 4.83349839876302  2.24521950839793 4.71287133496094  2.28975606007752 4.61188124121094  C 2.33429261175711 4.48844890071615  2.3955303620801 4.38745880143229  2.47346931104651 4.30891094335937  C 2.46233517861757 3.94983503971354  2.47903638275194 3.58514857161458  2.52357292344961 3.2148515390625  C 2.5681094751292 2.91188124674479  2.64048136337209 2.58646870768229  2.7406885881783 2.238613921875  C 2.8408958129845 1.89075913606771  2.99120665568475 1.57656771484375  3.19162111627907 1.29603965820312  C 3.36976730103359 1.02673273046875  3.57018176162791 0.807920849609375  3.79286449806202 0.639604015625  C 4.01554723449612 0.471287181640625  4.24101350129199 0.339438994466145  4.46926329844961 0.244059454101562  C 4.69751309560724 0.148679913736979  4.92854643410853 0.0841584612630204  5.16236331395349 0.050495096679687  C 5.39618019379845 0.016831698893229  5.62442999644703 0  5.84711272189922 0  C 6.40381955200258 0  6.90485570348837 0.117821798177083  7.35022117635659 0.35346539453125  C 7.79558664922481 0.589108990885416  8.12961074838501 0.841584236328124  8.35229347383721 1.11089113085937  C 8.497037250323 1.30165021158854  8.58889387855297 1.47838288671875  8.62786335852713 1.64108915625  C 8.66683283850129 1.80379542578125  8.71971998675711 1.99174921875  8.78652480329457 2.20495053515625  C 8.57497621027132 2.32838287565104  8.34950994347545 2.51072610970052  8.11012600290698 2.75198023730469  C 7.8707420623385 2.99323436490885  7.661976999677 3.23729376920573  7.48383081492248 3.48415845019531  C 7.26114807848837 3.79834987141927  7.09413602616279 4.14620465722656  6.98279465794574 4.52772280761719  C 6.87145328972868 4.90924095800781  6.78794726356589 5.26270630273438  6.73227657945736 5.58811884179687  C 6.67660589534884 5.98085812109375  6.64877055329457 6.37359739485677  6.64877055329457 6.76633666308594  C 6.55969746091731 6.86732675683594  6.49289263888889 6.97953797949219  6.4483560872093 7.10297033105469  C 6.40381953552972 7.21518155371094  6.37598419347545 7.34702974088542  6.36485006104651 7.49851489257812  C 6.35371592861757 7.65000004427083  6.37598420445737 7.81551159602865  6.43165488856589 7.99504954785156  C 6.48732557267442 8.18580862858073  6.54856332299742 8.33168321582031  6.61536813953488 8.43267330957031  C 6.68217295607235 8.53366340332031  6.74341070639535 8.61221125585937  6.79908139050388 8.6683168671875  C 6.86588620704134 8.73564359635417  6.93269102906977 8.7805280843099  6.99949585658915 8.80297033105469  C 7.04403240826873 8.98250828287761  7.08856895445737 9.15082511686198  7.13310549515504 9.30792083300781  C 7.17764204683463 9.44257430240885  7.23052919509044 9.58003304850261  7.29176693992248 9.72029707128906  C 7.35300468475452 9.86056109407552  7.42816010885013 9.96435647558594  7.5172332122093 10.0316832158203  C 7.59517217215762 10.099009944987  7.65640992248062 10.1551155563151  7.70094646317829 10.2000000498047  C 7.74548300387597 10.2448845432943  7.78166894799742 10.2869637490234  7.80950429554264 10.3262376669922  C 7.83733964308786 10.3655115849609  7.85404084722222 10.4188119140625  7.85960790794574 10.4861386542969  Z M 16.3605212131783 13.2465346386719  C 16.5665027344961 13.4036303548177  16.7140300468346 13.6056105533854  16.8031032325581 13.8524752509766  C 16.8476397842377 14.0095709560547  16.8838257283592 14.20033003125  16.9116610649225 14.4247524765625  C 16.9394964014858 14.649174921875  16.9534140697674 14.8764026438802  16.9534140697674 15.1064356425781  C 16.9534140697674 15.336468641276  16.9367128656331 15.5524752399089  16.9033104573643 15.7544554384766  C 16.8699080490956 15.9564356370443  16.8198044366925 16.1079207832031  16.752999620155 16.2089108769531  C 16.7084630684755 16.2762376061198  16.5776369602713 16.3435643408203  16.3605212955426 16.4108910810547  C 16.143405630814 16.4782178212891  15.8734028178295 16.5399339915365  15.5505128565891 16.5960395917969  C 15.2276228953488 16.6521451920573  14.8713305203488 16.7054455211589  14.4816357315892 16.7559405791016  C 14.0919409428295 16.8064356370443  13.699462623708 16.8485148427734  13.3042007742248 16.8821781962891  C 12.9089389247416 16.9158415498047  12.5275947435401 16.9438943554688  12.1601682306202 16.9663366132813  C 11.7927417177003 16.9887788710938  11.46985175646 16.9999999944661  11.1914983468992 16.9999999833984  C 10.9131449373385 16.9999999723307  10.59303850646 16.9887788489583  10.2311790542636 16.9663366132813  C 9.86931960206719 16.9438943776042  9.49354248708011 16.9158415719401  9.10384770930233 16.8821781962891  C 8.71415293152455 16.848514820638  8.33002521447029 16.8120461738281  7.95146455813954 16.7727722558594  C 7.57290390180879 16.7334983378906  7.22496212887597 16.6886138499349  6.90763923934109 16.6381187919922  C 6.59031634980621 16.5876237340495  6.32309706718347 16.5371286871745  6.10598139147287 16.4866336513672  C 5.88886571576228 16.4361386155599  5.75247254134367 16.3884488453776  5.69680186821706 16.3435643408203  C 5.6077287758398 16.2650164827474  5.5353568875969 16.0293729195964  5.47968620348838 15.6366336513672  C 5.42401551937985 15.243894383138  5.44071672351422 14.7389438867188  5.52978981589148 14.1217821621094  C 5.5854605 13.7627062584635  5.72742074063308 13.4933993251953  5.9556705377907 13.3138613623047  C 6.18392033494832 13.1343233994141  6.45392314793282 12.9884488121745  6.76567897674419 12.8762376005859  C 7.07743480555556 12.7640263889974  7.39754123643411 12.6658415719401  7.72599826937985 12.5816831494141  C 8.05445530232558 12.497524726888  8.34672639114988 12.3712871041667  8.60281153585272 12.20297028125  C 8.80322599644703 12.068316811849  8.956320375 11.9448844713542  9.06209467151163 11.8326732597656  C 9.16786896802326 11.7204620481771  9.24580792248062 11.6082508255208  9.29591153488372 11.4960395917969  C 9.34601514728683 11.3838283580729  9.37106695348838 11.2660065764974  9.37106695348837 11.1425742470703  C 9.37106695348837 11.0191419176432  9.3654998872739 10.8788778893229  9.35436575484496 10.7217821621094  C 9.33209747900517 10.4973597167969  9.25415852454781 10.3206270416667  9.12054889147287 10.1915841367187  C 8.98693925839794 10.0625412317708  8.84219548191215 9.93630360904948  8.68631756201551 9.81287126855469  C 8.60837860206718 9.74554453938802  8.53879024967701 9.65016499902343  8.47755250484497 9.52673264746094  C 8.41631476001292 9.40330029589844  8.36342761175711 9.27986795540365  8.31889106007752 9.15643562597656  C 8.27435450839794 9.02178215657552  8.2298179622093 8.87029701041667  8.18528142151163 8.7019801875  C 8.11847660497416 8.67953794075521  8.05167178294574 8.64587457617188  7.98486695542636 8.60099009375  C 7.92919627131783 8.55610560026042  7.87074205135659 8.4887788655599  7.80950429554264 8.39900988964844  C 7.74826653972868 8.30924091373698  7.68981231976744 8.18580857324219  7.63414163565892 8.02871286816406  C 7.57847095155039 7.87161716308594  7.5562026757106 7.72293729361979  7.56733680813954 7.58267325976562  C 7.57847094056848 7.44240922591146  7.60630628262274 7.3273927265625  7.65084283430233 7.23762376171875  C 7.69537938598191 7.1254125390625  7.75661713630491 7.02442243977865  7.83455608527132 6.93465346386719  C 7.82342195284238 6.57557756022135  7.84012315697675 6.2108910921224  7.88465969767442 5.84059405957031  C 7.92919624935401 5.52640263834635  7.99878460174419 5.19818481705729  8.09342475484496 4.85594059570312  C 8.18806490794574 4.51369637434896  8.33559222028424 4.19669967643229  8.53600669186046 3.90495050195313  C 8.71415287661499 3.63564357421875  8.9145673372093 3.41683169335938  9.13725007364341 3.248514859375  C 9.35993281007752 3.08019802539063  9.5881826127261 2.94834983821615  9.82199948158915 2.85297029785156  C 10.0558163504522 2.75759075748698  10.2896332193152 2.69306930501302  10.5234500881783 2.65940594042969  C 10.7572669570413 2.62574257584635  10.9799496879845 2.60891089355469  11.1914982810078 2.60891089355469  C 11.759339254522 2.60891089355469  12.2659424722222 2.72673267513021  12.7113079341085 2.96237623828125  C 13.1566733959948 3.19801980143229  13.4851304289406 3.450495046875  13.6966790329457 3.71980197460938  C 13.9416300342377 4.02277226692708  14.122559754845 4.36221121158854  14.2394681947674 4.73811880859375  C 14.3563766346899 5.11402640559896  14.4426661912145 5.46468647363281  14.4983368643411 5.79009901269531  C 14.5540075484496 6.17161716308594  14.5762758242894 6.55313531347656  14.5651416918605 6.93465346386719  C 14.620812375969 6.97953795735677  14.6709159883721 7.04125412760417  14.7154525290698 7.11980197460937  C 14.7488549373385 7.18712870377604  14.7794738152455 7.27409239746094  14.8073091627907 7.38069305566406  C 14.8351445103359 7.48729371386719  14.8379280461886 7.61914190104167  14.8156597703488 7.7762376171875  C 14.793391494509 7.97821781575521  14.7488549483204 8.14092408528646  14.6820501317829 8.26435642578125  C 14.6152453152455 8.38778876627604  14.5484404932171 8.48316830664062  14.4816356656977 8.550495046875  C 14.4036967057494 8.62904290494792  14.3146236133721 8.67953795182292  14.2144163885659 8.7019801875  C 14.1698798368863 8.87029702148438  14.1253432906977 9.02178216764323  14.08080675 9.15643562597656  C 14.0362701983204 9.27986796647135  13.9805995142119 9.40330030696614  13.9137946976744 9.52673264746094  C 13.846989881137 9.65016498795573  13.7746179928941 9.73993396386719  13.6966790329457 9.79603957519531  C 13.6076059405685 9.87458743326823  13.5268834502584 9.94191416796875  13.4545115620155 9.99801977929687  C 13.3821396737726 10.054125390625  13.3181183875969 10.1130362841797  13.2624477034884 10.1747524599609  C 13.2067770193798 10.2364686357422  13.1594569373385 10.3066006471354  13.1204874573643 10.3851484941406  C 13.0815179773902 10.4636963411458  13.0508990994832 10.5590758815104  13.0286308236434 10.6712871152344  C 13.0063625478036 10.817161702474  12.9980119457364 10.9658415719401  13.0035790174419 11.1173267236328  C 13.0091460891473 11.2688118753255  13.0453320332687 11.4174917447917  13.1121368498062 11.5633663320312  C 13.1789416663437 11.7092409192708  13.287499498708 11.8495049475911  13.4378103468992 11.9841584169922  C 13.5881211950904 12.1188118863932  13.7968862577519 12.2366336679688  14.0641055348837 12.3376237617187  C 14.2979224037468 12.4386138554688  14.5567910788114 12.5255775491536  14.8407115600775 12.5985148427734  C 15.1246320413437 12.6714521363932  15.3974183901809 12.7584158300781  15.6590706065891 12.8594059238281  C 15.9207228229974 12.9603960175781  16.1545396918605 13.089438922526  16.3605212131783 13.2465346386719  Z " fill-rule="nonzero" fill="#02a7f0" stroke="none" transform="matrix(1 0 0 1 21 135 )" />
  </g>
</svg>