<?xml version="1.0" encoding="utf-8"?>
<svg version="1.1" xmlns:xlink="http://www.w3.org/1999/xlink" width="17px" height="17px" xmlns="http://www.w3.org/2000/svg">
  <g transform="matrix(1 0 0 1 -21 -319 )">
    <path d="M 17 0.74239455357143  C 16.9721828699495 0.337456930696085  16.6704426836531 0.00919012416049604  16.2982272929293 0  L 0.797248656565656 0  C 0.425033257459389 0.00919011126373686  0.123293058080808 0.337456921576699  0.123293058080808 0.742394553571429  L 0.123293058080808 16.1396877019231  C 0.123293058080808 16.5446253339178  0.425033257459389 16.8728921442308  0.797248656565656 16.8728921442308  L 16.2982272929293 16.8728921442308  C 16.6704426836531 16.872892131334  16.9721828699495 16.5446253247984  17 16.1396877019231  L 17 0.74239455357143  Z M 15.7927605833333 6.24142782417583  L 15.7927605833333 15.5897843818681  L 1.30271534469697 15.5897843818681  L 1.30271534469697 6.24142782417583  L 15.7927605833333 6.24142782417583  Z M 15.7927605833333 1.29229787362638  L 15.7927605833333 5  L 1.30271534469697 5  L 1.30271534469697 1.29229787362638  L 15.7927605833333 1.29229787362638  Z M 2.65062654166667 2.57540563598901  C 2.65062654166667 2.45320490338828  2.70678950462963 2.39210453708791  2.81911543055556 2.39210453708791  L 3.83004882828283 2.39210453708791  C 3.94237475420875 2.39210453708791  3.99853771717172 2.45320490338828  3.99853771717172 2.57540563598901  L 3.99853771717172 3.67521229945055  C 3.99853771717172 3.79741303205128  3.94237475420875 3.85851339835165  3.83004882828283 3.85851339835165  L 2.81911543055556 3.85851339835165  C 2.70678950462963 3.85851339835165  2.65062654166667 3.79741303205128  2.65062654166667 3.67521229945055  L 2.65062654166667 2.57540563598901  Z M 5.34644891414141 2.57540563598901  C 5.34644891414142 2.45320490338828  5.40261187710438 2.39210453708791  5.5149378030303 2.39210453708791  L 6.52587120075758 2.39210453708791  C 6.6381971266835 2.39210453708791  6.69436008964646 2.45320490338828  6.69436008964646 2.57540563598901  L 6.69436008964646 3.67521229945055  C 6.69436008964646 3.79741303205128  6.6381971266835 3.85851339835165  6.52587120075758 3.85851339835165  L 5.5149378030303 3.85851339835165  C 5.40261187710438 3.85851339835165  5.34644891414142 3.79741303205128  5.34644891414141 3.67521229945055  L 5.34644891414141 2.57540563598901  Z M 2.65062654166667 12.656966635989  C 2.65062654166667 12.4125651552198  2.76295247474748 12.2903644148352  2.98760434090909 12.2903644148352  L 7.03133788888889 12.2903644148352  C 7.25598975505051 12.2903644148352  7.36831568813131 12.4125651552198  7.36831568813131 12.656966635989  L 7.36831568813131 13.206869956044  C 7.36831568813131 13.4512714368132  7.25598975505051 13.5734721771978  7.03133788888889 13.5734721771978  L 2.98760434090909 13.5734721771978  C 2.76295247474748 13.5734721771978  2.65062654166667 13.4512714368132  2.65062654166667 13.206869956044  L 2.65062654166667 12.656966635989  Z M 2.65062654166667 10.2740522101648  C 2.65062654166667 10.0296507293956  2.76295247474748 9.90744998901099  2.98760434090909 9.90744998901099  L 7.03133788888889 9.90744998901099  C 7.25598975505051 9.90744998901099  7.36831568813131 10.0296507293956  7.36831568813131 10.2740522101648  L 7.36831568813131 10.8239555535714  C 7.36831568813131 11.0683570343407  7.25598975505051 11.1905577669414  7.03133788888889 11.1905577513736  L 2.98760434090909 11.1905577513736  C 2.76295247474748 11.1905577513736  2.65062654166667 11.0683570187729  2.65062654166667 10.8239555535714  L 2.65062654166667 10.2740522101648  Z M 2.65062654166667 8.07443890659341  C 2.65062654166667 7.83003742582418  2.76295247474748 7.70783668543956  2.98760434090909 7.70783668543956  L 7.03133788888889 7.70783668543956  C 7.25598975505051 7.70783668543956  7.36831568813131 7.83003742582418  7.36831568813131 8.07443890659341  L 7.36831568813131 8.62434222664835  C 7.36831568813131 8.86874370741758  7.25598975505051 8.9909444478022  7.03133788888889 8.9909444478022  L 2.98760434090909 8.9909444478022  C 2.76295247474748 8.9909444478022  2.65062654166667 8.86874370741758  2.65062654166667 8.62434222664835  L 2.65062654166667 8.07443890659341  Z " fill-rule="nonzero" fill="#02a7f0" stroke="none" transform="matrix(1 0 0 1 21 319 )" />
  </g>
</svg>