<?xml version="1.0" encoding="utf-8"?>
<svg version="1.1" xmlns:xlink="http://www.w3.org/1999/xlink" width="194px" height="279px" xmlns="http://www.w3.org/2000/svg">
  <g transform="matrix(1 0 0 1 -13 -10 )">
    <path d="M 13 10  L 207 10  L 207 289  L 13 289  L 13 10  " fill-rule="nonzero" fill="#cccccc" stroke="none" />
    <path d="M 27 24  L 193 24  L 193 275  L 27 275  L 27 24  " fill-rule="nonzero" fill="#ffffff" stroke="none" />
    <path d="M 128.43 80.95  C 120.282 80.95  113.88 74.548  113.88 66.4  C 113.88 58.252  120.282 51.85  128.43 51.85  C 136.578 51.85  142.98 58.252  142.98 66.4  C 142.98 74.548  136.578 80.95  128.43 80.95  " fill-rule="nonzero" fill="#cccccc" stroke="none" />
    <path d="M 32 270  L 32 137.45  L 71 77.2  L 125.6 125.4  L 156.8 113.35  L 188 125.4  L 188 270  L 32 270  " fill-rule="nonzero" fill="#169bd5" stroke="none" />
  </g>
</svg>