<?xml version="1.0" encoding="utf-8"?>
<svg version="1.1" xmlns:xlink="http://www.w3.org/1999/xlink" width="9px" height="9px" xmlns="http://www.w3.org/2000/svg">
  <defs>
    <linearGradient gradientUnits="userSpaceOnUse" x1="4.5" y1="0" x2="4.5" y2="9" id="LinearGradient78">
      <stop id="Stop79" stop-color="#caf982" offset="0" />
      <stop id="Stop80" stop-color="#95f204" offset="1" />
    </linearGradient>
    <linearGradient gradientUnits="userSpaceOnUse" x1="4.5" y1="0" x2="4.5" y2="9" id="LinearGradient81">
      <stop id="Stop82" stop-color="#ec808d" offset="0" />
      <stop id="Stop83" stop-color="#a30014" offset="1" />
    </linearGradient>
    <mask fill="white" id="clip84">
      <path d="M 0.0562499999999968 0  L 0.0562499999999968 8.81999999999999  L 1.01250000000001 8.81999999999999  L 1.01250000000001 1.5  L 8.15625 8.81999999999999  L 8.94375 8.81999999999999  L 9 0.360000000000014  L 7.65 0.360000000000014  L 5.17499999999999 2.7  L 5.9625 3.60000000000003  L 8.15625 1.5  L 8.15625 7.43999999999999  L 0.787500000000003 0  L 0.0562499999999968 0  Z " fill-rule="evenodd" />
    </mask>
  </defs>
  <g transform="matrix(1 0 0 1 -115 -324 )">
    <path d="M 0.0562499999999968 0  L 0.0562499999999968 8.81999999999999  L 1.01250000000001 8.81999999999999  L 1.01250000000001 1.5  L 8.15625 8.81999999999999  L 8.94375 8.81999999999999  L 9 0.360000000000014  L 7.65 0.360000000000014  L 5.17499999999999 2.7  L 5.9625 3.60000000000003  L 8.15625 1.5  L 8.15625 7.43999999999999  L 0.787500000000003 0  L 0.0562499999999968 0  Z " fill-rule="nonzero" fill="url(#LinearGradient78)" stroke="none" transform="matrix(1 0 0 1 115 324 )" />
    <path d="M 0.0562499999999968 0  L 0.0562499999999968 8.81999999999999  L 1.01250000000001 8.81999999999999  L 1.01250000000001 1.5  L 8.15625 8.81999999999999  L 8.94375 8.81999999999999  L 9 0.360000000000014  L 7.65 0.360000000000014  L 5.17499999999999 2.7  L 5.9625 3.60000000000003  L 8.15625 1.5  L 8.15625 7.43999999999999  L 0.787500000000003 0  L 0.0562499999999968 0  Z " stroke-width="2" stroke="url(#LinearGradient81)" fill="none" transform="matrix(1 0 0 1 115 324 )" mask="url(#clip84)" />
  </g>
</svg>