<?xml version="1.0" encoding="utf-8"?>
<svg version="1.1" xmlns:xlink="http://www.w3.org/1999/xlink" width="131px" height="52px" xmlns="http://www.w3.org/2000/svg">
  <g transform="matrix(1 0 0 1 -53 -25 )">
    <path d="M 125.025319587629 49.7813333333333  C 123.063290721649 51.0613333333333  120.82467628866 51.6074666666667  118.646564948454 51.4794666666667  C 115.517690721649 51.2917333333333  112.509822680412 49.7045333333333  110.634226804124 46.9312  C 100.573426804124 32.0064  84.4277443298969 22.8245333333333  66.3373195876289 21.7408  C 48.2468948453608 20.6570666666667  31.0899463917526 27.8336  19.2745567010309 41.4442666666667  C 15.5492948453608 45.7365333333333  8.99767422680413 46.2314666666667  4.65009484536083 42.5536  C 0.302515463917531 38.8757333333333  -0.198795876288652 32.4074666666667  3.52646597938145 28.1152  C 19.6116453608247 9.59786666666666  42.9658391752577 -0.172800000000005  67.5992412371134 1.30346666666667  C 92.2326432989691 2.77973333333333  114.221195876289 15.2810666666667  127.912181443299 35.5818666666667  C 131.084272164948 40.2922666666667  129.796420618557 46.6496  125.025319587629 49.7813333333333  Z " fill-rule="nonzero" fill="#fc483a" stroke="none" transform="matrix(1 0 0 1 53 25 )" />
  </g>
</svg>