<?xml version="1.0" encoding="utf-8"?>
<svg version="1.1" xmlns:xlink="http://www.w3.org/1999/xlink" width="41px" height="43px" xmlns="http://www.w3.org/2000/svg">
  <g transform="matrix(1 0 0 1 -139 -29 )">
    <path d="M 40.1493866666667 27.642064516129  C 37.9277333333333 24.1354838709677  19.7609066666667 3.49548387096774  4.23557333333333 0.326245161290321  C 4.23557333333333 0.326245161290321  28.8312 13.1097290322581  35.3037333333333 29.4264258064516  C 36.8693866666667 33.4478967741935  31.2540266666667 38.6944516129032  27.1605866666667 37.7800774193548  C 23.6969066666667 37.0077419354839  21.2390933333333 34.0515612903226  19.4810133333333 32.2316903225806  C 17.7229333333333 30.4118193548387  7.25317333333333 21.9782709677419  0.666933333333313 19.5991225806452  C 11.5215466666667 28.2901161290323  22.0787733333333 39.8307612903226  23.3645333333333 40.6652387096774  C 24.6502933333333 41.4997161290323  34.94512 44.7399741935484  37.0618133333333 40.6652387096774  C 39.1785066666667 36.5905032258065  42.3797866666667 31.1486451612903  40.1493866666667 27.642064516129  Z " fill-rule="nonzero" fill="#e82121" stroke="none" transform="matrix(1 0 0 1 139 29 )" />
  </g>
</svg>