<?xml version="1.0" encoding="utf-8"?>
<svg version="1.1" xmlns:xlink="http://www.w3.org/1999/xlink" width="14px" height="61px" xmlns="http://www.w3.org/2000/svg">
  <g transform="matrix(1 0 0 1 -46 -70 )">
    <path d="M 12.80608 1.89343999999998  C 13.92608 -0.362204444444467  9.45503999999999 1.04323555555553  9.45504 1.04323555555555  C 9.45504 1.04323555555555  -1.68224 13.4319288888889  1.91968 50.3117155555555  C 2.26016 51.9687466666666  3.5952 52.4285511111111  5.69183999999999 52.5153066666667  C 7.79744 52.6020622222222  7.4928 55.3435377777778  7.4928 55.3435377777778  L 7.4928 60.6616533333333  L 11 60.6616533333333  L 11 49.5742933333333  L 5.52159999999999 48.74144  C 5.52159999999999 48.74144  4.92128 27.4776533333333  5.43199999999999 24.9877688888889  C 5.94271999999999 22.4978844444444  11.69504 4.14040888888887  12.80608 1.89343999999998  Z " fill-rule="nonzero" fill="#ef624b" stroke="none" transform="matrix(1 0 0 1 46 70 )" />
  </g>
</svg>