<?xml version="1.0" encoding="utf-8"?>
<svg version="1.1" xmlns:xlink="http://www.w3.org/1999/xlink" width="133px" height="52px" xmlns="http://www.w3.org/2000/svg">
  <g transform="matrix(1 0 0 1 -46 -22 )">
    <path d="M 127.768129292929 48.4202666666667  C 125.687854016375 49.9999668358474  123.139360530016 50.8520786439855  120.520032323232 50.8437333333333  C 116.711127272727 50.8437333333333  113.21174949495 49.12  110.916088888889 46.1077333333333  C 100.340573737374 32.2496  84.2451555555556 24.2965333333333  66.7568646464647 24.2965333333333  C 49.2685737373738 24.2965333333333  33.1731555555556 32.2496  22.5976404040404 46.1077333333333  C 18.5909818181818 51.3642666666667  11.0247595959596 52.3968  5.73700202020204 48.4202666666667  C 0.449244444444462 44.4437333333333  -0.599709090909073 36.9344  3.40694949494951 31.6864  C 8.14443636363638 25.4741333333333  13.7159272727273 20.0213333333333  19.9580606060606 15.4816  C 20.2444343170628 15.2859786027233  20.5838938047669 15.1812417127378  20.9315425409912 15.1812417127378  C 21.8798246054102 15.1812417127378  22.6485591066478 15.9441962553195  22.6485591066478 16.8853483794045  C 22.6485591066478 17.4105589753955  22.4045419131435 17.9064278902258  21.9871838383839 18.2293333333333  C 16.0115878787879 22.5728  10.6894383838384 27.7866666666667  6.14970505050507 33.7344  C 3.28657777777779 37.4890666666667  4.03460202020203 42.848  7.81771313131314 45.6896  C 11.6008242424243 48.5312  17.0003555555556 47.7888  19.8634828282828 44.0341333333334  C 31.0924444444445 29.3141333333333  48.1852282828283 20.8746666666667  66.7654626262626 20.8746666666667  C 85.345696969697 20.8746666666667  102.438480808081 29.3141333333333  113.667442424242 44.0341333333334  C 115.288709605126 46.1724347895296  117.832292367835 47.4251733857604  120.52863030303 47.4133333333333  C 122.411587878788 47.4133333333333  124.208565656566 46.816  125.713212121212 45.6810666666667  C 129.496323232323 42.8394666666667  130.244347474747 37.4805333333333  127.38122020202 33.7258666666667  C 112.859232323232 14.7306666666667  90.7624242424242 3.81653333333333  66.7568646464646 3.81653333333333  C 56.2931232323232 3.81653333333333  46.190496969697 5.856  36.7327191919192 9.88373333333333  C 35.8643232323232 10.2592  34.8497616161616 9.8496  34.4714505050505 8.98773333333333  C 34.0931393939394 8.11733333333333  34.5058424242424 7.11893333333333  35.3742383838384 6.74346666666666  C 45.2619151515151 2.53653333333333  55.8202343434343 0.403199999999996  66.7482666666667 0.403199999999996  C 91.8457696969697 0.403199999999996  114.931345454545 11.8037333333333  130.098181818182 31.6864  C 134.10484040404 36.9344  133.055886868687 44.4437333333333  127.768129292929 48.4202666666667  Z " fill-rule="nonzero" fill="#010101" stroke="none" transform="matrix(1 0 0 1 46 22 )" />
  </g>
</svg>