<?xml version="1.0" encoding="utf-8"?>
<svg version="1.1" xmlns:xlink="http://www.w3.org/1999/xlink" width="25px" height="72px" xmlns="http://www.w3.org/2000/svg">
  <g transform="matrix(1 0 0 1 -37 -63 )">
    <path d="M 21.7094736842105 69.587320754717  C 21.7094736842105 70.5476709914039  20.9554269470834 71.3261886792453  20.0252631578947 71  L 8.5978947368421 71  C 4.18526315789474 71.3261886792453  0.597894736842105 67.6224  1 63.0665660377359  L 1 39.9657056603774  C 0.597894736842105 37.8703698113208  0.682105263157894 35.7489509433962  0.850526315789473 33.6623094339623  C 0.926315789473685 32.7059320754717  1.73473684210526 31.9756075471698  2.66947368421053 32.0712452830189  C 3.59578947368421 32.1494943396226  4.28631578947368 32.9928452830189  4.21052631578948 33.9492226415094  C 4.05052631578947 35.9402264150943  3.97473684210527 37.9660075471698  4 39.9744  L 4 63.0752603773585  C 3.97473684210527 65.7096452830189  6.05473684210526 67.8571471698113  8.60631578947369 67.8571471698113  L 18.3494736842105 67.8571471698113  L 18.3494736842105 58.2933735849057  L 14.9221052631579 58.2933735849057  C 13.9957894736842 58.2933735849057  13.2378947368421 57.5108830188679  13 56.5545056603773  L 13 39.9744  C 13.2378947368421 29.8541886792453  15.6042105263158 19.8643924528302  20.1094736842105 10.9005283018868  C 18.2063157894737 10.5962264150943  16.3957894736842 9.80504150943395  14.8378947368421 8.58783396226414  C 13.8273684210526 7.79664905660376  12.9515789473684 6.84896603773583  12.2442105263158 5.78825660377357  C 10.2669970657214 9.62484123591278  8.62132487530601 13.6339692132205  7.32631578947368 17.7690566037736  C 7.10225132493466 18.4878613938365  6.45446722594661 18.9752064151552  5.72308884627771 18.9752064151552  C 5.54690924128861 18.9752064151552  5.37182060696638 18.9466660114961  5.20421052631579 18.8906264150943  C 4.5079997464668 18.6592904245363  4.03597331865456 17.9904838981849  4.03597331865456 17.2353702201569  C 4.03597331865456 17.0534730883644  4.06361661898219 16.8727023323245  4.11789473684211 16.6996528301887  C 5.80425224704799 11.2823251057621  8.07239664185873 6.07681140966921  10.88 1.18025660377359  C 11.1834325472088 0.650758525032011  11.7350625724029 0.325974762046121  12.3309577373654 0.325974762046121  C 13.0643404448206 0.325974762046121  13.7135935334884 0.815476398066381  13.9368421052631 1.53672452830189  C 14.458921082356 3.24023657896155  15.4835029756963 4.73275308898969  16.8673684210526 5.80564528301887  C 18.5454347765292 7.11871741686016  20.6413088459971 7.73031935316436  22.7368421052632 7.51843018867925  C 22.7902801913638 7.51313393126757  22.8439331699499 7.51048125065451  22.8976169077499 7.51048125065451  C 23.8268505331494 7.51048125065451  24.5801432235393 8.28822042080806  24.5801432235393 9.24761030725828  C 24.5801432235393 9.5532698952465  24.5020276305853 9.85351828811554  24.3536842105263 10.1180377358491  C 19.2778974559991 19.1928705144254  16.6031634457483 29.4864161032129  16.5978947368421 39.9657056603774  L 16.5978947368421 54.8069433962264  L 20.0252631578947 54.8069433962264  C 20.9515789473684 54.8069433962264  21.7094736842105 55.5894339622642  21.7094736842105 56.5458113207547  L 21.7094736842105 69.587320754717  Z " fill-rule="nonzero" fill="#010101" stroke="none" transform="matrix(1 0 0 1 37 63 )" />
  </g>
</svg>