<?xml version="1.0" encoding="utf-8"?>
<svg version="1.1" xmlns:xlink="http://www.w3.org/1999/xlink" width="5px" height="7px" xmlns="http://www.w3.org/2000/svg">
  <g transform="matrix(1 0 0 1 -39 -88 )">
    <path d="M 4.34933333333333 4.86752  C 4.17866666666667 5.75456  3.272 6.39072  2.22666666666667 6.39072  C 2.12 6.39072  2.01333333333333 6.38176  1.90666666666667 6.3728  C 0.863639749315315 6.24459469548576  0.0904230836533001 5.49313472519255  0.0904230836533001 4.60766170235616  C 0.0904230836533001 4.51768243177627  0.0985274068640329 4.42783210776168  0.114666666666666 4.33888  C 0.264000000000001 3.47871999999999  0.434666666666666 2.62751999999999  0.626666666666666 1.77632  C 0.839999999999999 0.808639999999995  1.94933333333333 0.163519999999997  3.112 0.333760000000008  C 4.12678928121104 0.488376838603918  4.86459106317487 1.23065700480613  4.86459106317487 2.09698911852459  C 4.86459106317487 2.2058143391223  4.85278972599761 2.31441334044657  4.82933333333333 2.42144  C 4.648 3.22784  4.488 4.0432  4.34933333333333 4.86752  Z " fill-rule="nonzero" fill="#010101" stroke="none" transform="matrix(1 0 0 1 39 88 )" />
  </g>
</svg>