<?xml version="1.0" encoding="utf-8"?>
<svg version="1.1" xmlns:xlink="http://www.w3.org/1999/xlink" width="63px" height="79px" xmlns="http://www.w3.org/2000/svg">
  <g transform="matrix(1 0 0 1 -89 -86 )">
    <path d="M 14.6861217391304 10.5347862068966  C 14.6861217391304 10.5347862068966  12.1792695652174 0.745324137931049  2.24827826086956 1.12888275862069  C 2.24827826086956 1.12888275862069  9.43575652173912 4.18863448275862  10 16.5409655172414  L 10 67.1184  C 9.43575652173912 67.1184  10.4437565217391 76.8032551724138  0.205982608695639 77.9713655172414  C 4.72006956521738 78.5815724137931  13.0645565217391 77.3350068965517  14.6861217391304 67.6414344827586  C 16.3076869565217 57.9478620689655  14.6861217391304 10.5347862068966  14.6861217391304 10.5347862068966  Z M 61.3083130434783 10.5347862068966  C 61.3083130434783 10.5347862068966  58.8014608695652 0.745324137931049  48.8704695652174 1.12888275862069  C 48.8704695652174 1.12888275862069  56.057947826087 4.18863448275862  56 16.5409655172414  L 56 67.1184  C 56.057947826087 67.1184  57.065947826087 76.8032551724138  46.8281739130435 77.9713655172414  C 51.3422608695652 78.5815724137931  59.686747826087 77.3350068965517  61.3083130434783 67.6414344827586  C 62.9298782608696 57.9478620689655  61.3083130434783 10.5347862068966  61.3083130434783 10.5347862068966  Z " fill-rule="nonzero" fill="#51b8f2" stroke="none" transform="matrix(1 0 0 1 89 86 )" />
  </g>
</svg>