<?xml version="1.0" encoding="utf-8"?>
<svg version="1.1" xmlns:xlink="http://www.w3.org/1999/xlink" width="14px" height="38px" xmlns="http://www.w3.org/2000/svg">
  <g transform="matrix(1 0 0 1 -159 -106 )">
    <path d="M 13.4624 30.4933714285714  C 13.45344 34.5496  10.04864 37.8501714285714  5.86432 37.8501714285714  L 2.54912000000001 37.8501714285714  C 1.56352000000002 37.8501714285714  0.757120000000006 37.0684571428572  1 36.1130285714286  L 1 2.82937142857143  C 0.757120000000006 1.87394285714287  1.56352 1.09222857142857  2.54912000000001 1.09222857142857  L 5.86432 1.09222857142857  C 10.04864 1.09222857142857  13.4624 4.3928  13.4624 8.45771428571429  L 13.4624 30.4933714285714  Z M 4.34112000000001 4.56651428571429  L 4.34112000000001 34.3758857142857  L 5.86432 34.3758857142857  C 8.07744 34.3758857142857  9.8784 32.6300571428571  9.8784 30.4846857142857  L 9.8784 8.45771428571429  C 9.8784 6.31234285714286  8.07744 4.56651428571429  5.86432 4.56651428571429  L 4.34112000000001 4.56651428571429  Z " fill-rule="nonzero" fill="#010101" stroke="none" transform="matrix(1 0 0 1 159 106 )" />
  </g>
</svg>