<?xml version="1.0" encoding="utf-8"?>
<svg version="1.1" xmlns:xlink="http://www.w3.org/1999/xlink" width="23px" height="70px" xmlns="http://www.w3.org/2000/svg">
  <g transform="matrix(1 0 0 1 -170 -63 )">
    <path d="M 22 39.0067450980392  C 21.9284705882353 25.0396862745098  18.1445647058823 11.9510588235294  11.5898352941177 0.71592156862746  C 10.9401543456134 2.77903963481952  9.67932134062861 4.58880584292677  7.97910588235294 5.89866666666668  C 6.17825861469897 7.28497276831039  3.97939049434835 8.03472213642562  1.71877647058823 8.03325490196079  C 1.38974117647058 8.03325490196079  1.06070588235293 8.00690196078432  0.740329411764692 7.98054901960784  C 6.11839068499526 17.4099086906397  8.94702227569941 28.1126752377173  9 39.0067450980392  L 9 55.758431372549  L 4 55.758431372549  L 4 69  L 15.4343529411765 69  C 19.0191058823529 68.9349019607843  21.9284705882353 65.9833725490196  22 62.3466666666667  L 22 39.0067450980392  Z " fill-rule="nonzero" fill="#ff7d5f" stroke="none" transform="matrix(1 0 0 1 170 63 )" />
  </g>
</svg>