<?xml version="1.0" encoding="utf-8"?>
<svg version="1.1" xmlns:xlink="http://www.w3.org/1999/xlink" width="68px" height="72px" xmlns="http://www.w3.org/2000/svg">
  <g transform="matrix(1 0 0 1 -123 -63 )">
    <path d="M 68 63.0752603773585  C 67.90208 67.6224  64.185472 71.3261886792453  59.63328 71  L 48.05696 71  C 47.09952 71.3261886792453  46.31616 70.5436981132076  46 69.587320754717  L 46 56.5458113207547  C 46.31616 55.5894339622642  47.09952 54.8069433962264  48.05696 54.8069433962264  L 51 54.8069433962264  L 51 39.9657056603774  C 51.36448 29.5064150943396  48.596608 19.1862339622642  43.3568 10.1267320754717  C 43.026048 9.56160000000001  43.043456 8.86605283018869  43.40032 8.31830943396227  C 43.74848 7.77056603773586  44.375168 7.45756981132076  45.027968 7.52712452830189  C 47.195264 7.72709433962264  49.353856 7.12718490566038  51.094656 5.81433962264151  C 52.5224208574276 4.73892480869641  53.5807835668152 3.24731752279961  54.123648 1.54541886792453  C 54.332544 0.893343396226418  54.907008 0.42384905660377  55.58592 0.345599999999996  C 56.264832 0.267350943396221  56.926336 0.597735849056601  57.274496 1.18895094339623  C 64.2306843697774 12.9333145071999  67.9010863517795 26.3284746009895  68 39.9744  L 68 63.0752603773585  Z M 49.780352 67.8484528301887  L 49.789056 67.8484528301887  L 59.624576 67.8484528301887  C 62.261888 67.8484528301887  64.411776 65.7009509433962  64 63.0665660377359  L 64 39.9657056603774  C 64.411776 28.0370716981132  61.46112 16.2823245283019  55.864448 5.77956226415094  C 55.1281998791682 6.85136162059151  54.222841036636 7.79682262555647  53.183616 8.57913962264151  C 51.5897782023388 9.79500719548536  49.7166255565059 10.5930529961996  47.734912 10.9005283018868  C 52.3912631353399 19.8832792512756  54.8238304147583 29.850207849474  54 39.9657056603774  L 54 56.5458113207547  C 54.828672 57.5021886792453  54.045312 58.284679245283  53.087872 58.284679245283  L 49.780352 58.284679245283  L 49.780352 67.8484528301887  Z M 5 59.0671698113208  C 4.162688 60.0235471698113  3.37932800000001 60.8060377358491  2.421888 60.8060377358491  C 1.46444800000001 60.8060377358491  0.681087999999997 60.0235471698113  1 59.0671698113208  L 1 46.7472905660377  C 0.681087999999997 45.7909132075472  1.46444799999999 45.0084226415094  2.421888 45.0084226415094  C 3.37932800000001 45.0084226415094  4.162688 45.7909132075472  5 46.7472905660377  L 5 59.0671698113208  Z " fill-rule="nonzero" fill="#010101" stroke="none" transform="matrix(1 0 0 1 123 63 )" />
  </g>
</svg>