<?xml version="1.0" encoding="utf-8"?>
<svg version="1.1" xmlns:xlink="http://www.w3.org/1999/xlink" width="29px" height="84px" xmlns="http://www.w3.org/2000/svg">
  <g transform="matrix(1 0 0 1 -123 -83 )">
    <path d="M 28 68.4933245901639  C 28.1036363636364 76.3986885245902  21.9450909090909 82.8322622950819  14.3776727272727 82.832262295082  C 6.81025454545456 82.832262295082  0.651709090909089 76.3986885245902  1 68.4933245901639  L 1 46.275462295082  C 0.651709090909089 45.3060196721312  1.41098181818181 44.5128393442623  2.33898181818182 44.5128393442623  C 3.26698181818183 44.5128393442623  4.02625454545455 45.3060196721311  4 46.275462295082  L 4 68.4933245901639  C 4.02625454545455 74.4509901639344  8.66625454545454 79.3070163934426  14.3776727272727 79.3070163934426  C 20.0806545454545 79.3070163934426  24.7290909090909 74.4598032786885  24.7290909090909 68.4933245901639  L 24.7290909090909 15.0858491803279  C 24.7290909090909 9.12818360655736  20.0890909090909 4.27215737704917  14.3776727272727 4.27215737704917  C 8.67469090909092 4.27215737704917  4.02625454545455 9.11937049180327  4.02625454545455 15.0858491803279  L 4.02625454545455 19.2720786885246  C 4.02625454545455 20.2415213114754  3.26698181818183 21.0347016393443  2.33898181818182 21.0347016393443  C 1.41098181818181 21.0347016393443  0.651709090909089 20.2415213114754  0.651709090909089 19.2720786885246  L 0.651709090909089 15.0858491803279  C 0.651709090909089 7.18048524590163  6.81025454545454 0.746911475409817  14.3776727272727 0.746911475409817  C 21.9450909090909 0.746911475409817  28.1036363636364 7.18048524590162  28 15.0858491803279  L 28 68.4933245901639  Z " fill-rule="nonzero" fill="#010101" stroke="none" transform="matrix(1 0 0 1 123 83 )" />
  </g>
</svg>