<?xml version="1.0" encoding="utf-8"?>
<svg version="1.1" xmlns:xlink="http://www.w3.org/1999/xlink" width="84px" height="79px" xmlns="http://www.w3.org/2000/svg">
  <g transform="matrix(1 0 0 1 -57 -29 )">
    <path d="M 29.1106064516129 10.3473655172414  C 28.8678193548387 10.4694068965517  28.6163612903226 10.5217103448276  28.3649032258065 10.5217103448276  C 27.4057303806234 10.5203051651846  26.6289076005099 9.73819791149131  26.6289076005099 8.77390530398414  C 26.6289076005099 8.10356881371118  27.0102617101247 7.49228740257044  27.6105290322581 7.20044137931034  C 43.7558709677419 -0.557903448275866  60.6989419354839 -1.83933793103449  77.9801806451613 3.38228965517241  C 78.8993032258064 3.66124137931034  79.4195612903226 4.62885517241379  79.1420903225806 5.55288275862068  C 78.9232915535903 6.29011132026369  78.2488745396569 6.79536479563703  77.483613803144 6.79536479563703  C 77.3140258120003 6.79536479563703  77.1453585955066 6.77030645479871  76.9830193548387 6.72099310344827  C 60.551535483871 1.75216551724138  44.4408774193548 2.97257931034482  29.1106064516129 10.3473655172414  Z M 15.0549677419355 19.1081931034483  C 14.7428129032258 19.352275862069  14.3699612903226 19.4743172413793  13.9971096774194 19.4743172413793  C 13.4768516129032 19.4743172413793  12.965264516129 19.2389517241379  12.6270967741935 18.8030896551724  C 12.0374709677419 18.0446896551724  12.1762064516129 16.9463172413793  12.9305806451613 16.3535448275862  C 15.7746580645161 14.1393655172414  18.7488 12.1082482758621  21.7836387096774 10.3212137931034  C 22.6073806451613 9.83304827586207  23.6739096774194 10.112  24.1594838709677 10.9401379310345  C 24.6450580645161 11.768275862069  24.3675870967742 12.8404965517241  23.5438451612903 13.3286620689655  C 20.6390709677419 15.0459586206897  17.7863225806452 16.9899034482759  15.0549677419355 19.1081931034483  Z M 4.05150967741936 29.5950344827586  C 3.71334193548388 30.0221793103448  3.20175483870969 30.2488275862069  2.69016774193549 30.2488275862069  C 1.73256854341092 30.2472284329179  0.957123539235237 29.4663491370142  0.957123539235237 28.5036382697663  C 0.957123539235237 28.1121765605677  1.08803753599065 27.7320820852941  1.32882580645162 27.4244413793103  C 1.41553548387097 27.3198344827586  3.44454193548387 24.7482482758621  7.25109677419355 21.2003310344828  C 7.95344516129033 20.5465379310345  9.0459870967742 20.5814068965517  9.70498064516129 21.2962206896552  C 10.3553032258065 22.0023172413793  10.3119483870968 23.1094068965517  9.60960000000001 23.7632  C 6.01981935483871 27.1106206896552  4.06885161290323 29.5776  4.05150967741936 29.5950344827586  Z M 28.4082580645161 78.1413517241379  C 28.3909161290323 78.1587862068965  28.3735741935484 78.1587862068965  28.3562322580645 78.1587862068966  C 27.4197677419355 78.1587862068966  26.6480516129032 77.4091034482759  26.6220387096774 76.458924137931  C 26.4746322580645 71.1152551724138  27.6538838709677 67.1663448275862  30.1251096774194 64.7168  C 32.6223483870968 62.2498206896552  35.4317419354839 62.3108413793103  35.7438967741935 62.3195586206897  C 36.6977032258065 62.3631448275862  37.4434064516129 63.1738482758621  37.4000516129032 64.1327448275862  C 37.3578196970331 65.0854746215818  36.5619895603883 65.8272937522728  35.6138322580645 65.7977379310345  C 35.4924387096774 65.8064551724138  33.9229935483871 65.8064551724138  32.5009548387097 67.2535172413793  C 30.8101161290323 68.9795310344827  29.9690322580645 72.1264551724138  30.0904258064516 76.3543172413793  C 30.1164387096774 77.3132137931034  29.362064516129 78.1152  28.4082580645161 78.1413517241379  Z M 74.4597677419355 78.1413517241379  C 74.4424258064516 78.1587862068965  74.4250838709677 78.1587862068965  74.4077419354839 78.1587862068966  C 73.4712774193548 78.1587862068966  72.6995612903226 77.4091034482759  72.6735483870968 76.458924137931  C 72.5261419354839 71.1152551724138  73.7053935483871 67.1663448275862  76.1766193548387 64.7168  C 78.6738580645161 62.2498206896552  81.4832516129032 62.3108413793103  81.7954064516129 62.3195586206897  C 82.7492129032258 62.3631448275862  83.4949161290323 63.1738482758621  83.4515612903226 64.1327448275862  C 83.4093293744525 65.0854746215818  82.6134992378077 65.8272937522728  81.6653419354839 65.7977379310345  C 81.5266064516129 65.8064551724138  79.9745032258064 65.8064551724138  78.552464516129 67.2535172413793  C 76.8616258064516 68.9795310344827  76.0205419354839 72.1264551724138  76.141935483871 76.3543172413793  C 76.1679483870968 77.3132137931034  75.4135741935484 78.1152  74.4597677419355 78.1413517241379  Z " fill-rule="nonzero" fill="#ffffff" stroke="none" transform="matrix(1 0 0 1 57 29 )" />
  </g>
</svg>