<?xml version="1.0" encoding="utf-8"?>
<svg version="1.1" xmlns:xlink="http://www.w3.org/1999/xlink" width="26px" height="21px" xmlns="http://www.w3.org/2000/svg">
  <g transform="matrix(1 0 0 1 -189 -163 )">
    <path d="M 14 19.9915254311441  C 14.1751412521186 20.5610169565678  13.7050847457627 20.9406779809322  13 20.9406779586864  C 12.2949152542373 20.9406779586864  11.8248587478814 20.561016934322  12 19.9915254311441  L 12 1.00847456885593  C 11.8248587478814 0.438983043432203  12.2949152542373 0.0593220190677966  13 0.0593220413135592  C 13.7050847457627 0.0593220635593219  14.1751412521186 0.438983065677966  14 1.00847456885593  L 14 19.9915254311441  Z M 20 16.1949152542373  C 20.0508474576271 16.764406779661  19.5807909512712 17.1440678040254  18.8757062055085 17.1440678040254  C 18.1706214597458 17.1440678040254  17.7005649533898 16.764406779661  17.7005649809322 16.1949152542373  L 17.7005649809322 4.80508474576271  C 17.7005649809322 4.23559322033898  18.1706214872881 3.85593219597458  18.8757062055085 3.85593219597458  C 19.5807909237288 3.85593219597458  20.0508474576271 4.23559322033898  20 4.80508474576271  L 20 16.1949152542373  Z M 2.42372881355932 13.3474576271186  C 2.42372881355932 13.9169491525424  1.95367230720339 14.2966101769068  1.24858756144068 14.2966101769068  C 0.543502815677966 14.2966101769068  0.0734463093220339 13.9169491525424  0.0734463368644067 13.3474576271186  L 0.0734463368644067 7.65254237288136  C 0.0734463368644067 7.08305084745763  0.543502843220339 6.70338982309322  1.24858756144068 6.70338982309322  C 1.95367227966102 6.70338982309322  2.42372881355932 7.08305084745763  2.42372881355932 7.65254237288136  L 2.42372881355932 13.3474576271186  Z M 25.9265536631356 13.3474576271186  C 25.9265536631356 13.9169491525424  25.4564971567797 14.2966101769068  24.7514124385593 14.2966101769068  C 24.0463276927966 14.2966101769068  23.5762711864407 13.9169491525424  23.5762711864407 13.3474576271186  L 23.5762711864407 7.65254237288136  C 23.5762711864407 7.08305084745763  24.0463276927966 6.70338982309322  24.7514124385593 6.70338982309322  C 25.456497184322 6.70338982309322  25.926553690678 7.08305084745763  25.9265536631356 7.65254237288136  L 25.9265536631356 13.3474576271186  Z M 8.2994350190678 16.1949152542373  C 8.2994350190678 16.764406779661  7.82937851271187 17.1440678040254  7.12429379449153 17.1440678040254  C 6.41920904872881 17.1440678040254  5.94915254237288 16.764406779661  6 16.1949152542373  L 6 4.80508474576271  C 5.94915254237288 4.23559322033898  6.41920904872881 3.85593219597458  7.12429379449153 3.85593219597458  C 7.82937854025424 3.85593219597458  8.29943504661017 4.23559322033898  8.2994350190678 4.80508474576271  L 8.2994350190678 16.1949152542373  Z " fill-rule="nonzero" fill="#000000" stroke="none" transform="matrix(1 0 0 1 189 163 )" />
  </g>
</svg>