<?xml version="1.0" encoding="utf-8"?>
<svg version="1.1" xmlns:xlink="http://www.w3.org/1999/xlink" width="172px" height="352px" xmlns="http://www.w3.org/2000/svg">
  <g transform="matrix(1 0 0 1 -67 -197 )">
    <path d="M 68 202  A 4 4 0 0 1 72 198 L 234 198  A 4 4 0 0 1 238 202 L 238 544  A 4 4 0 0 1 234 548 L 72 548  A 4 4 0 0 1 68 544 L 68 202  Z " fill-rule="nonzero" fill="#ffffff" stroke="none" />
    <path d="M 67.5 202  A 4.5 4.5 0 0 1 72 197.5 L 234 197.5  A 4.5 4.5 0 0 1 238.5 202 L 238.5 544  A 4.5 4.5 0 0 1 234 548.5 L 72 548.5  A 4.5 4.5 0 0 1 67.5 544 L 67.5 202  Z " stroke-width="1" stroke-dasharray="3,1" stroke="#d7d7d7" fill="none" stroke-dashoffset="0.5" />
  </g>
</svg>