<?xml version="1.0" encoding="utf-8"?>
<svg version="1.1" xmlns:xlink="http://www.w3.org/1999/xlink" width="172px" height="352px" xmlns="http://www.w3.org/2000/svg">
  <g transform="matrix(1 0 0 1 -67 -197 )">
    <path d="M 69 202  A 3 3 0 0 1 72 199 L 234 199  A 3 3 0 0 1 237 202 L 237 544  A 3 3 0 0 1 234 547 L 72 547  A 3 3 0 0 1 69 544 L 69 202  Z " fill-rule="nonzero" fill="#ffffff" stroke="none" />
    <path d="M 68 202  A 4 4 0 0 1 72 198 L 234 198  A 4 4 0 0 1 238 202 L 238 544  A 4 4 0 0 1 234 548 L 72 548  A 4 4 0 0 1 68 544 L 68 202  Z " stroke-width="2" stroke-dasharray="6,2" stroke="#000000" fill="none" />
  </g>
</svg>