<?xml version="1.0" encoding="utf-8"?>
<svg version="1.1" xmlns:xlink="http://www.w3.org/1999/xlink" width="34px" height="34px" xmlns="http://www.w3.org/2000/svg">
  <g transform="matrix(1 0 0 1 -136 -321 )">
    <path d="M 33.9875833333333 17  C 33.987625 16.1907916666667  33.3255 15.5286666666667  32.5163333333333 16  L 18 16  L 18 1.50366666666667  C 18.4913333333333 0.694416666666665  17.8292083333333 0.032333333333332  17.0199583333333 0.032333333333332  C 16.21075 0.032333333333332  15.5486666666667 0.694416666666665  16 1.50366666666667  L 16 16  L 1.523625 16  C 0.714416666666667 15.5286666666667  0.0522916666666671 16.19075  0.0522916666666671 16.9999583333333  C 0.0522916666666671 17.8092083333333  0.714375 18.4712916666667  1.523625 18  L 16 18  L 16 32.4962916666667  C 15.548625 33.3055  16.2107083333333 33.9675833333333  17.0199166666667 33.9675833333333  C 17.8291666666667 33.9675833333333  18.49125 33.3055  18 32.49625  L 18 18  L 32.51625 18  C 33.3254583333333 18.4713333333333  33.9875833333333 17.80925  33.9875833333333 17  Z " fill-rule="nonzero" fill="#000000" stroke="none" transform="matrix(1 0 0 1 136 321 )" />
  </g>
</svg>