<?xml version="1.0" encoding="utf-8"?>
<svg version="1.1" xmlns:xlink="http://www.w3.org/1999/xlink" width="14px" height="14px" xmlns="http://www.w3.org/2000/svg">
  <g transform="matrix(1 0 0 1 -118 -118 )">
    <path d="M 13.9602272727273 7  C 13.9602272727273 3.15596590909091  10.8440340909091 0.0397727272727273  7 0.0397727272727273  C 3.15596590909091 0.0397727272727273  0.0397727272727273 3.15596590909091  0.0397727272727273 7  C 0.0397727272727273 10.8440340909091  3.15596590909091 13.9602272727273  7 13.9602272727273  C 10.8440340909091 13.9602272727273  13.9602272727273 10.8440340909091  13.9602272727273 7  Z M 12.8326704545455 7  C 12.8326704545455 10.2215909090909  10.2215909090909 12.8326704545455  7 12.8326704545455  C 3.77840909090909 12.8326704545455  1.16732954545455 10.2215909090909  1.16732954545455 7  C 1.16732954545455 3.77840909090909  3.77840909090909 1.16732954545455  7 1.16732954545455  C 10.2215909090909 1.16732954545455  12.8326704545455 3.77840909090909  12.8326704545455 7  Z " fill-rule="nonzero" fill="#000000" stroke="none" transform="matrix(1 0 0 1 118 118 )" />
  </g>
</svg>