<?xml version="1.0" encoding="utf-8"?>
<svg version="1.1" xmlns:xlink="http://www.w3.org/1999/xlink" width="19px" height="18px" xmlns="http://www.w3.org/2000/svg">
  <g transform="matrix(1 0 0 1 -81 -188 )">
    <path d="M 15.4161327723235 17.6231053112995  C 15.097778401122 17.8478995060674  14.7248489948574 17.9737842551375  14.3428237494156 17.9737842551375  C 14.0790444132772 17.9737842551375  13.7788817204301 17.9018501128118  13.5060065451145 17.7579818281603  L 9.55841234221599 15.8067682175742  L 5.58353062178588 17.7579818281603  C 5.32884712482468 17.892858345021  5.04687611033193 17.9647924873468  4.74671341748481 17.9647924873468  C 4.36468817204301 17.9647924873468  3.9917587657784 17.8478995060674  3.69159607293128 17.6231053112995  C 3.13674988312296 17.2094839929264  2.8547788686302 16.4991343374596  2.9821206171108 15.8427352887371  L 3.79165030388032 11.6795468016342  L 0.671777466105656 8.8111728763949  C 0.18969798971482 8.32561741569608  0.00778120617110756 7.63325129581072  0.18969798971482 6.97685224708824  L 0.198793828892005 6.9588687115068  C 0.426189808321645 6.28448612720288  0.990131837307153 5.81691420208549  1.67231977559607 5.7269965241783  L 6.00193922393642 4.94471272638576  L 7.93935296867695 1.04228550521373  C 8.24861150070126 0.421853527654126  8.88532024310425 0.026215744862492  9.55841234221599 0.026215744862492  C 10.2587919588593 0.026215744862492  10.9136923796166 0.439837063235563  11.1865675549322 1.05127727300445  L 13.1239812996727 4.94471272638576  L 17.4536007480131 5.69102945301543  C 18.135788686302 5.78993889871334  18.7088265544647 6.27549435941216  18.8998391771856 6.94088517592536  C 19.1181393174381 7.58829245685712  18.9362225338943 8.29864211232392  18.4450472183263 8.78419757302274  L 18.4359513791491 8.79318934081346  L 15.3342702197288 11.688538569425  L 16.1165123889668 15.8607188243186  C 16.2438541374474 16.5261096408318  15.9709789621318 17.2004922251357  15.4161327723235 17.6231053112995  Z " fill-rule="nonzero" fill="#ffffff" stroke="none" transform="matrix(1 0 0 1 81 188 )" />
  </g>
</svg>