<?xml version="1.0" encoding="utf-8"?>
<svg version="1.1" xmlns:xlink="http://www.w3.org/1999/xlink" width="5px" height="5px" xmlns="http://www.w3.org/2000/svg">
  <g transform="matrix(1 0 0 1 -126 -196 )">
    <path d="M 4.94239864864865 2.47820945945946  C 4.94239864864865 2.18834459459459  4.70743243243243 1.95337837837838  4.41756756756757 1.95337837837838  L 3.01655405405405 1.95337837837838  L 3.01655405405405 0.552364864864865  C 3.01655405405405 0.262499999999999  2.78158783783784 0.0275337837837837  2.49172297297297 0.0275337837837837  C 2.20185810810811 0.0275337837837837  1.96689189189189 0.2625  1.96689189189189 0.552364864864865  L 1.96689189189189 1.95337837837838  L 0.565878378378378 1.95337837837838  C 0.276013513513513 1.95337837837838  0.0410472972972974 2.18834459459459  0.0410472972972974 2.47820945945946  C 0.0410472972972974 2.76807432432433  0.276013513513514 3.00304054054054  0.565878378378378 3.00304054054054  L 1.96689189189189 3.00304054054054  L 1.96689189189189 4.40405405405405  C 1.96689189189189 4.69391891891892  2.20185810810811 4.92888513513514  2.49172297297297 4.92888513513514  C 2.78158783783784 4.92888513513514  3.01655405405405 4.69391891891892  3.01655405405405 4.40405405405405  L 3.01655405405405 3.00304054054054  L 4.41756756756757 3.00304054054054  C 4.70743243243243 3.00304054054054  4.94239864864865 2.76807432432432  4.94239864864865 2.47820945945946  Z " fill-rule="nonzero" fill="#ffffff" stroke="none" transform="matrix(1 0 0 1 126 196 )" />
  </g>
</svg>