<?xml version="1.0" encoding="utf-8"?>
<svg version="1.1" xmlns:xlink="http://www.w3.org/1999/xlink" width="18px" height="18px" xmlns="http://www.w3.org/2000/svg">
  <g transform="matrix(1 0 0 1 -85 -358 )">
    <path d="M 17.30628 5.56326  C 16.8536362988193 4.47234678456802  16.191184272403 3.48093155190231  15.35652 2.64528  C 14.5208344757062 1.81061503228781  13.5293897565976 1.14816373553032  12.43845 0.69552  C 11.3469783702443 0.244181484701064  10.1775080495339 0.011541134329389  8.9964 0.0108  C 7.81526211930557 0.0115340253799912  6.6457609856164 0.244174422417778  5.55426 0.69552  C 4.46334789186536 1.14816577126433  3.47193304069002 1.81061754277327  2.63628 2.64528  C 1.80162298808606 3.48093750685802  1.1391719812523 4.47235121363259  0.68652 5.56326  C 0.235162867082834 6.65478898000494  0.00252224438149946 7.82432182654252  0.0018 9.00549  C 0.00254580605892125 10.1865975878886  0.235185977439499 11.3560670088206  0.68652 12.44754  C 1.13916991130012 13.5384498936024  1.80162117301778 14.5298639818321  2.63628 15.36552  C 3.47195601804366 16.2002190860119  4.46340166345724 16.8627015801638  5.55435 17.31537  C 6.64583398738923 17.7666574619656  7.81530003392525 17.9992663838116  8.9964 18  C 10.17369 18  11.35071 17.76591  12.43845 17.31537  C 13.5293640444463 16.8626871245304  14.5207775331381 16.2002056849983  15.35643 15.36552  C 16.1910888269822 14.5298639818321  16.8535400886999 13.5384498936024  17.30619 12.44754  C 17.7575240225605 11.3560670088206  17.9901641939411 10.1865975878886  17.99091 9.00549  C 17.99091 7.82802  17.75682 6.65109  17.30619 5.56326  Z M 6.37353 10.62963  L 5.52366 9.81333  L 5.51502 9.82179  L 5.05539 10.2555  C 4.73454 10.55313  4.30092 10.74024  3.82383 10.74024  C 2.84391 10.74024  2.04597 9.95787  2.04597 8.98839  C 2.04597 8.02746  2.84391 7.24509  3.82383 7.24509  C 4.29219 7.24509  4.6998 7.42365  5.02065 7.71282  L 5.10741 7.78932  L 5.50638 8.18046  L 5.51502 8.172  L 6.37362 7.3557  L 7.21485 8.21457  L 6.37353 9.0054  L 7.19748 9.79623  L 6.37353 10.62963  Z M 12.74796 12.492  C 12.74796 13.45302  11.95002 14.23539  10.96146 14.23539  C 10.559042603921 14.2352241124778  10.1682383974791 14.1004891667906  9.85122 13.85262  L 9.83385 13.8357  L 9.17478 13.2318  L 9.16614 13.2318  L 8.54172 13.8186  L 8.52435 13.8357  C 8.20518099795773 14.0937172148009  7.80733605320959 14.2347589166949  7.39692 14.23539  C 6.417 14.23539  5.61906 13.45302  5.61906 12.49209  C 5.61906 12.04137  5.79249 11.63313  6.07878 11.31849  L 6.09606 11.29302  L 8.35956 8.99685  L 6.09606 6.68385  C 5.80986 6.36921  5.63643 5.96097  5.63643 5.51025  C 5.63643 4.54932  6.43428 3.76695  7.41438 3.76695  C 7.84791 3.76695  8.24688 3.91995  8.55036 4.16655  L 8.56773 4.18365  L 9.19224 4.77045  L 9.85122 4.16655  L 9.86868 4.15809  C 10.1849614108447 3.90901591074558  10.5761606822955 3.77418632562013  10.97874 3.7755  C 11.95866 3.7755  12.7566 4.55778  12.7566 5.5188  C 12.7566 5.96097  12.59181 6.36921  12.31425 6.6753  L 12.29688 6.70077  L 10.01601 8.99685  L 10.94391 9.94086  L 10.97874 9.97479  L 12.27087 11.32695  L 12.30552 11.3355  C 12.57444 11.65014  12.74796 12.04983  12.74796 12.492  Z M 14.52582 10.74879  C 14.04882 10.74879  13.61511 10.56159  13.29426 10.26396  L 12.82599 9.82179  L 12.80853 9.8388  L 11.97603 10.64664  L 11.15217 9.81324  L 11.97603 9.02241  L 11.9673 9.01395  L 11.14353 8.22303  L 11.98476 7.37262  L 12.01941 7.41519  L 12.82599 8.18046000000001  L 12.83463 8.18901000000001  L 13.23351 7.79787  L 13.32027 7.72983  C 13.64112 7.44066  14.04873 7.2621  14.517 7.2621  C 15.4971 7.2621  16.29486 8.04447  16.30359 9.00540000000001  C 16.30359 9.96633000000001  15.50574 10.7487  14.52582 10.7487  Z M 9.16614 8.16354  L 11.37762 5.9355  C 11.49039 5.82489  11.55105 5.68035  11.55105 5.5188  C 11.55105 5.20407  11.29095 4.94046  10.96137 4.94046  C 10.80531 4.94046  10.66644 4.9914  10.5624 5.09346  L 10.10277 5.54427  L 10.09404 5.55282  L 10.7532 6.1821  L 9.86868 7.08345  L 9.16614 6.40314  L 8.46369 7.06644  L 7.57908 6.1821  L 8.28153 5.5782  L 7.76133 5.06808  L 7.7526 5.05962  C 7.64739688627068 4.98125716891301  7.5194562251097 4.93944257041598  7.38828 4.94055  C 7.06743 4.94055  6.7986 5.19561  6.7986 5.5188  C 6.7986 5.66334  6.85062 5.79087  6.93738 5.89293  L 9.16614 8.16354  Z M 11.36025 12.08385  L 9.14877 9.85572  L 6.92001 12.12642  C 6.83325 12.22839  6.78123 12.35592  6.78123 12.50055  C 6.78123 12.8151  7.04133 13.0788  7.37091 13.0788  C 7.50969 13.0788  7.63974 13.03632  7.73514 12.95973  L 8.26425 12.44952  L 7.56171 11.8287  L 8.42904 10.93581  L 9.12285 11.59911  L 9.13149 11.60766  L 9.83394 10.91034  L 10.72719 11.82024  L 10.07676 12.45807  L 10.06812 12.46653  L 10.53639 12.92571  C 10.645769788776 13.0244894285959  10.7879786995002 13.0790568450502  10.93536 13.0788  C 11.26485 13.0788  11.53368 12.82374  11.53368 12.50055  C 11.53368 12.339  11.46438 12.19437  11.36025 12.08385  Z M 14.52582 8.42715  C 14.39568 8.42715  14.26563 8.46963  14.17014 8.54613  C 14.13549 8.57169  14.12685 8.58024  14.12685 8.58024  L 13.6845 9.0054  L 14.12685 9.44757  C 14.22225 9.53262  14.36103 9.59211  14.517 9.59211  C 14.83794 9.59211  15.10677 9.32859  15.1155 9.01386  C 15.1155001160603 8.68960918032345  14.8529419847511 8.42705104901422  14.5290601160603 8.42705104901422  C 14.5279800711916 8.42705104901422  14.5269000283837 8.42705403268753  14.52582 8.42706  Z M 4.18815 8.52921  C 4.08402 8.45271  3.96261 8.41014  3.83256 8.41014  C 3.50298 8.41014  3.23406 8.6652  3.23406 8.98839  C 3.23406 9.31149  3.50298 9.57519  3.83256 9.57519  C 3.97998 9.57519  4.11876 9.52416  4.2228 9.43065  L 4.66506 8.98839  L 4.28346 8.62272  C 4.25607104945519 8.58735159737988  4.22400841217643 8.55586421043946  4.18815 8.52912  Z " fill-rule="nonzero" fill="#ffffff" stroke="none" transform="matrix(1 0 0 1 85 358 )" />
  </g>
</svg>