<?xml version="1.0" encoding="utf-8"?>
<svg version="1.1" xmlns:xlink="http://www.w3.org/1999/xlink" width="16px" height="4px" xmlns="http://www.w3.org/2000/svg">
  <g transform="matrix(1 0 0 1 -348 -92 )">
    <path d="M 2.192 0.735999999999997  L 2.352 0.736  C 2.74666666666667 0.736  3.05066666666667 0.861333333333334  3.264 1.112  C 3.47733333333333 1.36266666666667  3.584 1.632  3.584 1.92  L 3.584 2.096  C 3.584 2.45866666666667  3.49066666666667 2.76533333333333  3.304 3.016  C 3.11733333333333 3.26666666666667  2.80533333333333 3.392  2.368 3.392  L 2.256 3.392  C 1.85066666666667 3.392  1.528 3.28  1.288 3.056  C 1.048 2.832  0.927999999999999 2.52266666666667  0.927999999999999 2.128  L 0.927999999999999 1.904  C 0.927999999999999 1.76533333333333  0.957333333333333 1.62666666666667  1.016 1.488  C 1.07466666666667 1.34933333333333  1.15733333333333 1.224  1.264 1.112  C 1.37066666666667 0.999999999999998  1.504 0.909333333333331  1.664 0.839999999999997  C 1.824 0.770666666666664  2 0.735999999999997  2.192 0.735999999999997  Z M 7.952 0.735999999999997  L 8.112 0.736  C 8.50666666666667 0.736  8.81066666666667 0.861333333333334  9.024 1.112  C 9.23733333333334 1.36266666666667  9.344 1.632  9.344 1.92  L 9.344 2.096  C 9.344 2.45866666666667  9.25066666666667 2.76533333333333  9.064 3.016  C 8.87733333333334 3.26666666666667  8.56533333333334 3.392  8.128 3.392  L 8.016 3.392  C 7.61066666666667 3.392  7.288 3.28  7.048 3.056  C 6.808 2.832  6.688 2.52266666666667  6.688 2.128  L 6.688 1.904  C 6.688 1.76533333333333  6.71733333333334 1.62666666666667  6.776 1.488  C 6.83466666666667 1.34933333333333  6.91733333333334 1.224  7.024 1.112  C 7.13066666666667 0.999999999999998  7.264 0.909333333333331  7.424 0.839999999999997  C 7.584 0.770666666666664  7.76 0.735999999999997  7.952 0.735999999999997  Z M 13.712 0.735999999999997  L 13.872 0.736  C 14.2666666666667 0.736  14.5706666666667 0.861333333333334  14.784 1.112  C 14.9973333333333 1.36266666666667  15.104 1.632  15.104 1.92  L 15.104 2.096  C 15.104 2.45866666666667  15.0106666666667 2.76533333333333  14.824 3.016  C 14.6373333333333 3.26666666666667  14.3253333333333 3.392  13.888 3.392  L 13.776 3.392  C 13.3706666666667 3.392  13.048 3.28  12.808 3.056  C 12.568 2.832  12.448 2.52266666666667  12.448 2.128  L 12.448 1.904  C 12.448 1.76533333333333  12.4773333333333 1.62666666666667  12.536 1.488  C 12.5946666666667 1.34933333333333  12.6773333333333 1.224  12.784 1.112  C 12.8906666666667 0.999999999999998  13.024 0.909333333333331  13.184 0.839999999999997  C 13.344 0.770666666666664  13.52 0.735999999999997  13.712 0.735999999999997  Z " fill-rule="nonzero" fill="#ffffff" stroke="none" transform="matrix(1 0 0 1 348 92 )" />
  </g>
</svg>