<?xml version="1.0" encoding="utf-8"?>
<svg version="1.1" xmlns:xlink="http://www.w3.org/1999/xlink" width="47px" height="47px" xmlns="http://www.w3.org/2000/svg">
  <g transform="matrix(1 0 0 1 -102 -142 )">
    <path d="M 46.375 23.5  C 46.375 22.447392578125  45.521357421875 21.59375  44.46875 22  L 25 22  L 25 2.53125  C 25.40625 1.478642578125  24.552607421875 0.625  23.5 0.625  C 22.447392578125 0.625  21.59375 1.478642578125  22 2.53125  L 22 22  L 2.53125 22  C 1.478642578125 21.59375  0.625 22.447392578125  0.625 23.5  C 0.625 24.552607421875  1.478642578125 25.40625  2.53125 25  L 22 25  L 22 44.46875  C 21.59375 45.521357421875  22.447392578125 46.375  23.5 46.375  C 24.552607421875 46.375  25.40625 45.521357421875  25 44.46875  L 25 25  L 44.46875 25  C 45.521357421875 25.40625  46.375 24.552607421875  46.375 23.5  Z " fill-rule="nonzero" fill="#02a7f0" stroke="none" transform="matrix(1 0 0 1 102 142 )" />
  </g>
</svg>