<?xml version="1.0" encoding="utf-8"?>
<svg version="1.1" xmlns:xlink="http://www.w3.org/1999/xlink" width="11px" height="12px" xmlns="http://www.w3.org/2000/svg">
  <g transform="matrix(1 0 0 1 -138 -44 )">
    <path d="M 10.2394722222222 9.36221052631579  C 10.3485555555556 9.36884210526316  10.4640555555556 9.24947368421052  10.4640555555556 9.07705263157895  C 10.4640555555556 8.90463157894737  10.3485555555556 8.78526315789474  10.1817222222222 8.78526315789474  L 9.34113888888889 8.78526315789474  L 9.34113888888889 7.50536842105263  C 9.34113888888889 7.33294736842105  9.22563888888889 7.21357894736842  9.05880555555555 7.21357894736842  C 8.89197222222222 7.21357894736842  8.77647222222222 7.33294736842105  8.77647222222222 7.50536842105263  L 8.77647222222222 9.36221052631579  L 10.2394722222222 9.36221052631579  Z M 0.466888888888889 10.1778947368421  C 0.466888888888889 10.9338947368421  1.02513888888889 11.5108421052632  1.75663888888889 11.5108421052632  L 6.13922222222222 11.5108421052632  C 6.30605555555556 11.5108421052632  6.43438888888889 11.3052631578947  6.43438888888889 11.1328421052632  C 6.43438888888889 10.9604210526316  6.31247222222222 10.7482105263158  6.13922222222222 10.7482105263158  L 1.94272222222222 10.7482105263158  C 1.55130555555556 10.7482105263158  1.21122222222222 10.5824210526316  1.21122222222222 10.1778947368421  L 1.21122222222222 1.82210526315789  C 1.21122222222222 1.41757894736842  1.53847222222222 1.25178947368421  1.92988888888889 1.25178947368421  L 8.03213888888889 1.25178947368421  C 8.42355555555555 1.25178947368421  8.59038888888889 1.42421052631579  8.59038888888889 1.82873684210526  L 8.59038888888889 4.96547368421053  C 8.59038888888889 5.1378947368421  8.79572222222222 5.244  8.96255555555556 5.244  C 9.12938888888889 5.244  9.33472222222222 5.1378947368421  9.33472222222222 4.96547368421053  L 9.33472222222222 1.82210526315789  C 9.33472222222222 1.06610526315789  8.77005555555555 0.489157894736842  8.04497222222222 0.489157894736842  L 1.75663888888889 0.489157894736842  C 1.02513888888889 0.489157894736842  0.466888888888889 1.07273684210526  0.466888888888889 1.82210526315789  L 0.466888888888889 10.1778947368421  Z " fill-rule="nonzero" fill="#ffffff" stroke="none" transform="matrix(1 0 0 1 138 44 )" />
  </g>
</svg>