<?xml version="1.0" encoding="utf-8"?>
<svg version="1.1" xmlns:xlink="http://www.w3.org/1999/xlink" width="11px" height="10px" xmlns="http://www.w3.org/2000/svg">
  <g transform="matrix(1 0 0 1 -140 -46 )">
    <path d="M 4.85811764705882 6.60666666666667  C 4.85811764705882 8.19566666666667  6.10144117647059 9.48366666666667  7.6505 9.48366666666667  C 9.19955882352941 9.48366666666667  10.4428823529412 8.19566666666667  10.4428823529412 6.60666666666667  C 10.4428823529412 5.01766666666667  9.19276470588235 3.72966666666667  7.6505 3.72966666666667  C 6.10823529411765 3.72966666666667  4.85811764705882 5.01766666666667  4.85811764705882 6.60666666666667  Z M 5.44920588235294 6.60666666666667  C 5.44920588235294 5.38166666666667  6.46152941176471 4.33866666666667  7.6505 4.33866666666667  C 8.83947058823529 4.33866666666667  9.85179411764706 5.31866666666667  9.85179411764706 6.60666666666667  C 9.85179411764706 7.83166666666667  8.90061764705882 8.87466666666667  7.6505 8.87466666666667  C 6.46152941176471 8.87466666666667  5.44920588235294 7.89466666666667  5.44920588235294 6.60666666666667  Z M 0.156588235294118 0.481666666666666  C 0.156588235294118 0.663666666666667  0.272088235294118 0.789666666666667  0.455529411764706 0.789666666666667  L 6.04029411764706 0.789666666666667  C 6.21694117647059 0.789666666666667  6.33923529411765 0.663666666666667  6.33923529411765 0.481666666666666  C 6.33923529411765 0.299666666666666  6.21694117647059 0.173666666666666  6.04029411764706 0.173666666666666  L 0.455529411764706 0.173666666666666  C 0.278882352941177 0.173666666666666  0.156588235294118 0.299666666666666  0.156588235294118 0.481666666666666  Z M 2.95576470588235 6.85166666666667  C 2.95576470588235 6.66966666666667  2.83347058823529 6.54366666666667  2.65682352941176 6.54366666666667  L 0.455529411764706 6.54366666666667  C 0.278882352941177 6.54366666666667  0.156588235294118 6.66966666666667  0.156588235294118 6.85166666666667  C 0.156588235294118 7.03366666666667  0.278882352941177 7.15966666666667  0.455529411764706 7.15966666666667  L 2.65682352941176 7.15966666666667  C 2.83347058823529 7.15966666666667  2.95576470588235 7.03366666666667  2.95576470588235 6.85166666666667  Z M 3.96129411764706 4.70966666666667  C 3.96129411764706 4.52766666666667  3.84579411764706 4.40166666666667  3.66235294117647 4.40166666666667  L 0.455529411764706 4.40166666666667  C 0.278882352941177 4.40166666666667  0.156588235294118 4.52766666666667  0.156588235294118 4.70966666666667  C 0.156588235294118 4.89166666666667  0.278882352941177 5.01766666666667  0.455529411764706 5.01766666666667  L 3.66235294117647 5.01766666666667  C 3.839 5.01766666666667  3.96129411764706 4.89166666666667  3.96129411764706 4.70966666666667  Z M 6.33923529411765 2.62366666666667  C 6.33923529411765 2.44166666666667  6.22373529411765 2.31566666666667  6.04029411764706 2.31566666666667  L 0.455529411764706 2.31566666666667  C 0.278882352941177 2.31566666666667  0.156588235294118 2.44166666666667  0.156588235294118 2.62366666666667  C 0.156588235294118 2.80566666666667  0.278882352941177 2.93166666666667  0.455529411764706 2.93166666666667  L 6.04029411764706 2.93166666666667  C 6.21694117647059 2.93166666666667  6.33923529411765 2.80566666666667  6.33923529411765 2.62366666666667  Z " fill-rule="nonzero" fill="#ffffff" stroke="none" transform="matrix(1 0 0 1 140 46 )" />
  </g>
</svg>