<?xml version="1.0" encoding="utf-8"?>
<svg version="1.1" xmlns:xlink="http://www.w3.org/1999/xlink" width="76px" height="22px" xmlns="http://www.w3.org/2000/svg">
  <g transform="matrix(1 0 0 1 -450 -353 )">
    <path d="M 0 20.5  L 0 0.5  L 30.307825086306 0.5  L 63.0681818181818 0.5  C 69.4318181818181 0.5  74.4318181818182 4.9  74.4318181818182 10.5  C 74.4318181818182 16.1  69.4318181818181 20.5  63.0681818181818 20.5  L 0 20.5  Z " fill-rule="nonzero" fill="#81d3f8" stroke="none" transform="matrix(1 0 0 1 450 353 )" />
    <path d="M 0 0.5  L 30.307825086306 0.5  L 63.0681818181818 0.5  C 69.4318181818181 0.5  74.4318181818182 4.9  74.4318181818182 10.5  C 74.4318181818182 16.1  69.4318181818181 20.5  63.0681818181818 20.5  L 0 20.5  " stroke-width="1" stroke="#81d3f8" fill="none" transform="matrix(1 0 0 1 450 353 )" />
  </g>
</svg>