<?xml version="1.0" encoding="utf-8"?>
<svg version="1.1" xmlns:xlink="http://www.w3.org/1999/xlink" width="50px" height="24px" xmlns="http://www.w3.org/2000/svg">
  <g transform="matrix(1 0 0 1 -1253 -414 )">
    <path d="M 2 0  L 2 24  L 0 24  L 0 0  L 2 0  Z M 4 0  L 4 23.9829545454545  L 3 23.9829545454545  L 3 0  L 4 0  Z M 7 0  L 7 23.9829545454545  L 6 23.9829545454545  L 6 0  L 7 0  Z M 11 0  L 11 23.9829545454545  L 10 23.9829545454545  L 10 0  L 11 0  Z M 15 0  L 15 23.9829545454545  L 14 23.9829545454545  L 14 0  L 15 0  Z M 19 0  L 19 23.9829545454545  L 18 23.9829545454545  L 18 0  L 19 0  Z M 21 0  L 21 23.9829545454545  L 20 23.9829545454545  L 20 0  L 21 0  Z M 22 0  L 22 23.9829545454545  L 21 23.9829545454545  L 21 0  L 22 0  Z M 26 0  L 26 23.9829545454545  L 25 23.9829545454545  L 25 0  L 26 0  Z M 30 0  L 30 23.9829545454545  L 29 23.9829545454545  L 29 0  L 30 0  Z M 34 0  L 34 23.9829545454545  L 32 23.9829545454545  L 32 0  L 34 0  Z M 37 0  L 37 23.9829545454545  L 36 23.9829545454545  L 36 0  L 37 0  Z M 40 0  L 40 23.9829545454545  L 38 23.9829545454545  L 38 0  L 40 0  Z M 45 0  L 45 23.9829545454545  L 43 23.9829545454545  L 43 0  L 45 0  Z M 47 0  L 47 23.9829545454545  L 46 23.9829545454545  L 46 0  L 47 0  Z M 50 0  L 50 24  L 48 24  L 48 0  L 50 0  Z " fill-rule="nonzero" fill="#000000" stroke="none" transform="matrix(1 0 0 1 1253 414 )" />
  </g>
</svg>