<?xml version="1.0" encoding="utf-8"?>
<svg version="1.1" xmlns:xlink="http://www.w3.org/1999/xlink" width="17px" height="8px" xmlns="http://www.w3.org/2000/svg">
  <g transform="matrix(1 0 0 1 -132 -63 )">
    <path d="M 16.8296593186373 6.54295532646048  C 16.9432197728791 6.63459335624284  17 6.73997709049255  17 6.85910652920962  C 17 6.97823596792669  16.9432197728791 7.0836197021764  16.8296593186373 7.17525773195876  L 15.9779559118236 7.86254295532646  C 15.8643954575818 7.95418098510882  15.7338009352037 8  15.5861723446894 8  C 15.438543754175 8  15.3079492317969 7.95418098510882  15.1943887775551 7.86254295532646  L 8.5 2.46048109965636  L 1.80561122244489 7.86254295532646  C 1.69205076820307 7.95418098510882  1.56145624582498 8  1.41382765531062 8  C 1.26619906479626 8  1.13560454241817 7.95418098510882  1.02204408817635 7.86254295532646  L 0.170340681362725 7.17525773195876  C 0.0567802271209086 7.0836197021764  0 6.97823596792669  0 6.85910652920962  C 0 6.73997709049255  0.0567802271209086 6.63459335624284  0.170340681362725 6.54295532646048  L 8.10821643286573 0.13745704467354  C 8.22177688710755 0.0458190148911788  8.35237140948564 0  8.5 0  C 8.64762859051436 0  8.77822311289245 0.0458190148911788  8.89178356713427 0.13745704467354  L 16.8296593186373 6.54295532646048  Z " fill-rule="nonzero" fill="#aaaaaa" stroke="none" transform="matrix(1 0 0 1 132 63 )" />
  </g>
</svg>