<?xml version="1.0" encoding="utf-8"?>
<svg version="1.1" xmlns:xlink="http://www.w3.org/1999/xlink" width="5px" height="3px" xmlns="http://www.w3.org/2000/svg">
  <g transform="matrix(1 0 0 1 -1841 -34 )">
    <path d="M 2.9542105263158 2.93075  C 2.94611497899029 2.93195381249912  2.93793085954706 2.93253902103995  2.92973684210526 2.9325  C 2.81522792130228 2.9325011594385  2.72297501580689 2.84486089921788  2.72297501580689 2.7367511594385  C 2.72297501580689 2.63718342086037  2.80164997998997 2.55347903593333  2.90578947368421 2.54225  C 3.49184210526316 2.476  4.00815789473684 2.2735  4.34736842105263 1.9805  C 4.06394736842105 1.4285  3.91157894736842 0.859750000000002  3.89421052631579 0.287000000000003  C 3.89096497569565 0.178925400636182  3.98045343328392 0.0887657796159935  4.09421052631579 0.0855000000000032  C 4.20605263157895 0.0870000000000033  4.30289473684211 0.167750000000002  4.30605263157895 0.275750000000002  C 4.32289473684211 0.833000000000002  4.48289473684211 1.38875  4.78131578947369 1.92775  L 4.75026315789474 2.15125  C 4.3521052631579 2.56275  3.69763157894737 2.84675  2.9542105263158 2.93075  Z M 2.26819047692644 2.78831256261754  C 2.26819047692644 2.89632665428181  2.17606742852749 2.98391359042681  2.06236842105263 2.984  C 2.05409741430226 2.98400641254979  2.0458346047977 2.98350536984579  2.03763157894737 2.9825  C 1.25815789473684 2.894  0.619473684210526 2.612  0.190263157894737 2.16675  L 0.161052631578948 1.94125  C 0.459210526315791 1.4185  0.625263157894738 0.880749999999999  0.654210526315791 0.342749999999999  C 0.659736842105265 0.234749999999998  0.757894736842106 0.146749999999997  0.870526315789474 0.157249999999998  C 0.980055205755488 0.162402455953252  1.0660754668313 0.248268394727244  1.0660754668313 0.352448331424107  C 1.0660754668313 0.355884012134858  1.0659801026389 0.359319095507125  1.06578947368421 0.362749999999998  C 1.03631578947368 0.914999999999999  0.877894736842107 1.465  0.594473684210528 1.999  C 0.95605263157895 2.32275  1.45736842105263 2.5225  2.08657894736843 2.594  C 2.19018079639745 2.60572908222415  2.26819047692644 2.68919438296499  2.26819047692644 2.78831256261754  Z " fill-rule="nonzero" fill="#474341" stroke="none" transform="matrix(1 0 0 1 1841 34 )" />
  </g>
</svg>