<?xml version="1.0" encoding="utf-8"?>
<svg version="1.1" xmlns:xlink="http://www.w3.org/1999/xlink" width="26px" height="26px" xmlns="http://www.w3.org/2000/svg">
  <g transform="matrix(1 0 0 1 -28 -383 )">
    <path d="M 25.97232079489 0.987926136363636  C 26.0153773361722 1.24029356060606  25.9753962621244 1.48342803030303  25.8523775727466 1.71732954545455  L 14.0425833924769 25.3536931818182  C 13.8334516205347 25.7845643939394  13.4828483558079 26  12.9907735982967 26  C 12.9292642536078 26  12.8370002365744 25.9876893939394  12.7139815471966 25.9630681818182  C 12.4433404305654 25.9015151515152  12.2249822569198 25.7630208333333  12.0589070262598 25.5475852272727  C 11.8928317955997 25.3321496212121  11.8097941802697 25.0890151515152  12 24.8181818181818  L 12 14  L 1.18097941802697 14  C 0.910338301395789 14.1818181818182  0.667376389874616 14.0987215909091  0.452093683463449 13.9325284090909  C 0.236810977052283 13.7663352272727  0.0984149515022475 13.547821969697  0.0369056068133428 13.2769886363636  C -0.0246037378755619 13.0061553030303  0 12.7476325757576  0.110716820440028 12.5014204545455  C 0.221433640880057 12.2552083333333  0.39981074047788 12.0705492424242  0.645848119233499 11.9474431818182  L 24.2654364797729 0.129261363636364  C 24.425360775964 0.0430871212121196  24.6037378755619 0  24.8005677785664 0  C 25.1327182398864 0  25.4095102909865 0.116950757575755  25.6309439318666 0.350852272727274  C 25.8154719659333 0.523200757575755  25.9292642536078 0.73555871212121  25.97232079489 0.987926136363636  Z " fill-rule="nonzero" fill="#aaaaaa" stroke="none" transform="matrix(1 0 0 1 28 383 )" />
  </g>
</svg>