<?xml version="1.0" encoding="utf-8"?>
<svg version="1.1" xmlns:xlink="http://www.w3.org/1999/xlink" width="10px" height="15px" xmlns="http://www.w3.org/2000/svg">
  <g transform="matrix(1 0 0 1 -1838 -22 )">
    <path d="M 6.59 13.4506451612903  C 6.37023255813954 13.5302419354839  6.46488372093024 13.8965322580645  6.68720930232558 13.8164516129032  C 6.89 13.7433870967742  7.06720930232558 13.8200806451613  7.12744186046512 14.034435483871  C 7.15232558139535 14.1232258064516  7.22093023255814 14.1626612903226  7.30302325581395 14.1735483870968  C 7.45581395348837 14.1938709677419  7.67232558139535 14.2187903225806  7.75418604651163 14.3777419354839  C 7.80697674418604 14.480564516129  7.80860465116279 14.6622580645161  7.82 14.7740322580645  C 7.84465116279069 15.0140322580645  8.20930232558139 15.0166935483871  8.18418604651163 14.7740322580645  C 8.16023255813953 14.5395967741936  8.15209302325581 14.2337903225806  7.98860465116279 14.0513709677419  C 7.82255813953488 13.8658064516129  7.53 13.8246774193548  7.30279069767442 13.794435483871  C 7.36139534883721 13.8408870967742  7.42 13.8870967741935  7.47837209302325 13.9335483870968  C 7.36302325581395 13.5232258064516  6.98162790697674 13.3100806451613  6.59 13.4506451612903  Z M 0.470465116279075 7.30959677419355  C 0.46665074782321 7.31048973637015  0.462746016252046 7.31089595441264  0.458837209302325 7.3108064516129  C 0.362904654930953 7.31076345698174  0.283457774556164 7.23329856478367  0.277209302325581 7.13370967741936  C 0.22046511627907 6.22814516129032  0.174651162790697 4.40225806451613  0.363953488372092 3.30314516129032  C 0.443255813953488 2.84274193548387  0.555581395348836 2.36806451612903  0.838837209302325 2.0158064516129  C 1.0193023255814 1.79104838709678  1.28046511627907 1.6441935483871  1.53790697674419 1.62314516129032  C 1.68790697674419 1.61080645161291  1.82906976744186 1.64032258064516  1.95372093023256 1.7083064516129  C 2.77697674418605 0.878467741935486  3.81255813953488 0.352983870967744  4.88558139534884 0.223790322580647  C 5.57209302325581 0.141048387096776  6.84953488372093 -0.0128225806451598  7.35209302325581 1.08290322580645  C 7.36375501430343 1.10835967039056  7.36980681002883 1.1362036183498  7.36980681002883 1.1644032928029  C 7.36980681002883 1.25440010683408  7.30894157678082 1.33197411895138  7.22418604651163 1.35  C 7.19325581395349 1.35846774193549  7.14372093023256 1.40346774193549  7.06581395348837 1.54040322580645  C 7.43116279069767 1.40540322580645  7.84883720930233 1.3425  8.12162790697674 1.5883064516129  C 8.18325581395349 1.64395161290323  8.20186046511628 1.73564516129032  8.16697674418604 1.81258064516129  C 8.12837209302326 1.8975  8.03767441860465 2.06927419354839  7.94697674418605 2.24080645161291  C 8.31813953488372 2.14403225806452  8.77930232558139 2.115  9.13046511627907 2.45467741935484  C 9.50418604651163 2.8158870967742  10.2074418604651 4.97661290322581  9.48906976744186 7.10782258064516  C 9.46210279783456 7.18130292475655  9.39434160343065 7.22984552232208  9.31873647900289 7.22984552232208  C 9.2180408408942 7.22984552232208  9.13641089760754 7.14492404906418  9.13641089760754 7.04016810296724  C 9.13641089760754 7.02051210993679  9.13934774867366 7.00097555557643  9.14511627906977 6.98225806451613  C 9.82255813953488 4.97298387096774  9.12651162790698 2.9683064516129  8.88232558139535 2.73217741935484  C 8.57604651162791 2.43604838709678  8.10255813953489 2.5633064516129  7.63604651162791 2.74475806451613  C 7.56661024525067 2.77169252865373  7.48841206057421 2.75228674549424  7.43813953488372 2.69564516129032  C 7.38790210560686 2.63888247993606  7.37584569548344 2.55606331448288  7.40767441860465 2.48637096774194  C 7.44627906976744 2.40145161290323  7.53674418604652 2.22967741935484  7.62767441860465 2.05790322580645  C 7.67302325581395 1.9725  7.71837209302326 1.88685483870968  7.75651162790698 1.81306451612903  C 7.54255813953488 1.76395161290323  7.17813953488372 1.86483870967742  6.76651162790698 2.0941935483871  C 6.69795053495791 2.13234217503942  6.61369323035315 2.12117905288557  6.55651162790698 2.06637096774194  C 6.49957250421997 2.01123993029766  6.48232098499679 1.92470558792745  6.51348837209302 1.85056451612903  L 6.5306976744186 1.81016129032258  C 6.64906976744186 1.52951612903226  6.77720930232558 1.25129032258065  6.94209302325581 1.09620967741935  C 6.54325581395349 0.465483870967742  5.73093023255814 0.502741935483871  4.92697674418605 0.599999999999999  C 3.88906976744186 0.725080645161289  2.88720930232558 1.2525  2.10558139534884 2.085  C 2.03814393624076 2.15694889913333  1.92844529452028 2.16161993807111  1.85558139534884 2.09564516129032  C 1.77627906976744 2.0233064516129  1.67906976744186 1.99137096774193  1.56604651162791 2.0008064516129  C 1.40441860465116 2.01387096774193  1.23697674418605 2.11040322580645  1.11790697674419 2.25846774193548  C 0.889302325581398 2.54298387096774  0.792558139534886 2.9608064516129  0.722093023255816 3.36967741935484  C 0.562790697674421 4.29483870967742  0.567906976744189 5.95620967741935  0.640232558139537 7.1083064516129  C 0.640496907651098 7.11246359754542  0.640629190596378 7.11662869317761  0.640629190596378 7.12079492554339  C 0.640629190596378 7.22055952470063  0.566164327135488 7.30318039480675  0.470465116279075 7.30959677419355  Z " fill-rule="nonzero" fill="#474341" stroke="none" transform="matrix(1 0 0 1 1838 22 )" />
  </g>
</svg>