<?xml version="1.0" encoding="utf-8"?>
<svg version="1.1" xmlns:xlink="http://www.w3.org/1999/xlink" width="26px" height="26px" xmlns="http://www.w3.org/2000/svg">
  <g transform="matrix(1 0 0 1 -28 -257 )">
    <path d="M 16.0638020833333 9.93619791666667  C 16.91015625 10.7825520833333  17.3333333333333 11.8038194444444  17.3333333333333 13  C 17.3333333333333 14.1961805555556  16.91015625 15.2174479166667  16.0638020833333 16.0638020833333  C 15.2174479166667 16.91015625  14.1961805555556 17.3333333333333  13 17.3333333333333  C 11.8038194444444 17.3333333333333  10.7825520833333 16.91015625  9.93619791666667 16.0638020833333  C 9.08984375 15.2174479166667  8.66666666666667 14.1961805555556  8.66666666666667 13  C 8.66666666666667 11.8038194444444  9.08984375 10.7825520833333  9.93619791666667 9.93619791666667  C 10.7825520833333 9.08984375  11.8038194444444 8.66666666666667  13 8.66666666666667  C 14.1961805555556 8.66666666666667  15.2174479166667 9.08984375  16.0638020833333 9.93619791666667  Z M 17.595703125 17.595703125  C 18.865234375 16.326171875  19.5 14.7942708333333  19.5 13  C 19.5 11.2057291666667  18.865234375 9.673828125  17.595703125 8.404296875  C 16.326171875 7.134765625  14.7942708333333 6.5  13 6.5  C 11.2057291666667 6.5  9.673828125 7.134765625  8.404296875 8.404296875  C 7.134765625 9.673828125  6.5 11.2057291666667  6.5 13  C 6.5 14.7942708333333  7.134765625 16.326171875  8.404296875 17.595703125  C 9.673828125 18.865234375  11.2057291666667 19.5  13 19.5  C 14.7942708333333 19.5  16.326171875 18.865234375  17.595703125 17.595703125  Z M 19.1276041666667 6.87239583333333  C 20.8203125 8.56510416666667  21.6666666666667 10.6076388888889  21.6666666666667 13  C 21.6666666666667 15.3923611111111  20.8203125 17.4348958333333  19.1276041666667 19.1276041666667  C 17.4348958333333 20.8203125  15.3923611111111 21.6666666666667  13 21.6666666666667  C 10.6076388888889 21.6666666666667  8.56510416666667 20.8203125  6.87239583333333 19.1276041666667  C 5.1796875 17.4348958333333  4.33333333333333 15.3923611111111  4.33333333333333 13  C 4.33333333333333 10.6076388888889  5.1796875 8.56510416666667  6.87239583333333 6.87239583333333  C 8.56510416666667 5.1796875  10.6076388888889 4.33333333333333  13 4.33333333333333  C 15.3923611111111 4.33333333333333  17.4348958333333 5.1796875  19.1276041666667 6.87239583333333  Z M 22.9700520833333 17.2063802083333  C 23.5455729166667 15.869140625  23.8333333333333 14.4670138888889  23.8333333333333 13  C 23.8333333333333 11.5329861111111  23.5455729166667 10.130859375  22.9700520833333 8.79361979166667  C 22.39453125 7.45638020833333  21.6243489583333 6.30533854166667  20.6595052083333 5.34049479166667  C 19.6946614583333 4.37565104166667  18.5436197916667 3.60546875  17.2063802083333 3.02994791666667  C 15.869140625 2.45442708333333  14.4670138888889 2.16666666666667  13 2.16666666666667  C 11.5329861111111 2.16666666666667  10.130859375 2.45442708333333  8.79361979166667 3.02994791666667  C 7.45638020833333 3.60546875  6.30533854166667 4.37565104166667  5.34049479166667 5.34049479166667  C 4.37565104166667 6.30533854166667  3.60546875 7.45638020833333  3.02994791666667 8.79361979166667  C 2.45442708333333 10.130859375  2.16666666666667 11.5329861111111  2.16666666666667 13  C 2.16666666666667 14.4670138888889  2.45442708333333 15.869140625  3.02994791666667 17.2063802083333  C 3.60546875 18.5436197916667  4.37565104166667 19.6946614583333  5.34049479166667 20.6595052083333  C 6.30533854166667 21.6243489583333  7.45638020833333 22.39453125  8.79361979166667 22.9700520833333  C 10.130859375 23.5455729166667  11.5329861111111 23.8333333333333  13 23.8333333333333  C 14.4670138888889 23.8333333333333  15.869140625 23.5455729166667  17.2063802083333 22.9700520833333  C 18.5436197916667 22.39453125  19.6946614583333 21.6243489583333  20.6595052083333 20.6595052083333  C 21.6243489583333 19.6946614583333  22.39453125 18.5436197916667  22.9700520833333 17.2063802083333  Z M 24.2565104166667 6.474609375  C 25.4188368055556 8.46636284722222  26 10.6414930555556  26 13  C 26 15.3585069444444  25.4188368055556 17.5336371527778  24.2565104166667 19.525390625  C 23.0941840277778 21.5171440972222  21.5171440972222 23.0941840277778  19.525390625 24.2565104166667  C 17.5336371527778 25.4188368055556  15.3585069444444 26  13 26  C 10.6414930555556 26  8.46636284722222 25.4188368055556  6.474609375 24.2565104166667  C 4.48285590277778 23.0941840277778  2.90581597222222 21.5171440972222  1.74348958333333 19.525390625  C 0.581163194444444 17.5336371527778  0 15.3585069444444  0 13  C 0 10.6414930555556  0.581163194444444 8.46636284722222  1.74348958333333 6.474609375  C 2.90581597222222 4.48285590277778  4.48285590277778 2.90581597222222  6.474609375 1.74348958333333  C 8.46636284722222 0.581163194444442  10.6414930555556 0  13 0  C 15.3585069444444 0  17.5336371527778 0.581163194444442  19.525390625 1.74348958333333  C 21.5171440972222 2.90581597222222  23.0941840277778 4.48285590277778  24.2565104166667 6.474609375  Z " fill-rule="nonzero" fill="#ffffff" stroke="none" transform="matrix(1 0 0 1 28 257 )" />
  </g>
</svg>