<?xml version="1.0" encoding="utf-8"?>
<svg version="1.1" xmlns:xlink="http://www.w3.org/1999/xlink" width="8px" height="5px" xmlns="http://www.w3.org/2000/svg">
  <g transform="matrix(1 0 0 1 -1839 -25 )">
    <path d="M 7.81531428571428 4.88666666666667  C 7.81531428571428 4.88666666666667  8.21851428571428 2.38291666666667  5.97531428571429 1.12625  C 5.95108571428572 1.18791666666667  5.92091428571428 1.24708333333333  5.87794285714286 1.30291666666667  C 5.86057142857143 1.325625  5.83131428571429 1.34041666666667  5.80045714285714 1.349375  L 5.80045714285714 1.8925  C 5.80045714285714 1.8925  3.23062857142857 1.27479166666667  2.54285714285714 0.164583333333332  C 2.4224 0.197708333333331  2.30308571428571 0.236041666666666  2.17942857142857 0.248958333333332  C 1.78537142857143 0.468749999999999  0.324799999999998 1.33291666666667  0.147428571428569 2.16625  C -0.0578285714285747 3.13041666666667  7.81531428571428 4.88666666666667  7.81531428571428 4.88666666666667  Z " fill-rule="nonzero" fill="#f3d8c2" stroke="none" transform="matrix(1 0 0 1 1839 25 )" />
  </g>
</svg>