<?xml version="1.0" encoding="utf-8"?>
<svg version="1.1" xmlns:xlink="http://www.w3.org/1999/xlink" width="49px" height="34px" xmlns="http://www.w3.org/2000/svg">
  <defs>
    <filter x="20px" y="15px" width="49px" height="34px" filterUnits="userSpaceOnUse" id="filter327">
      <feOffset dx="0" dy="0" in="SourceAlpha" result="shadowOffsetInner" />
      <feGaussianBlur stdDeviation="2.5" in="shadowOffsetInner" result="shadowGaussian" />
      <feComposite in2="shadowGaussian" operator="atop" in="SourceAlpha" result="shadowComposite" />
      <feColorMatrix type="matrix" values="0 0 0 0 0.505882352941176  0 0 0 0 0.827450980392157  0 0 0 0 0.972549019607843  0 0 0 0.996078431372549 0  " in="shadowComposite" />
    </filter>
    <g id="widget328">
      <path d="M 29.7751880724099 10.1784599717949  C 30.48507969304 9.98482084714577  31.2157371720695 9.88665541339242  31.9494353068742 9.88634509035733  C 33.81490423758 9.88634509035733  35.4090322504108 10.5260565752879  36.7321392957261 11.8051453459879  C 38.0555663132765 13.0845683386986  38.7172798329893 14.6721490978549  38.7172798329893 16.5678876463063  C 38.7172798329893 18.6070098136919  38.0302880910776 20.3052198863467  36.6566246013646 21.6621836651096  C 35.2829611116516 23.0194816658832  33.600199345945 23.6979635666895  31.6089792268395 23.6979635666895  C 30.5376944868077 23.6979635666895  29.516966213049 23.5194860653953  28.5464743895776 23.1621968179465  C 27.5759825661062 22.8052418153581  26.7066036533056 22.3279649010146  25.9376976848305 21.730366074916  C 25.1687917163553 21.133101470828  24.4251639482036 20.4445927726042  23.7068144241261 19.6655084014162  C 22.9839949419753 18.8810110600072  22.2963721583997 18.0619433409606  21.6461591925013 17.2109414198923  C 20.9904916482197 16.3533850936539  20.338265086805 15.4929644814245  19.6894966654134 14.6297022170123  C 19.0459933418118 13.7727139039623  18.3614348437585 12.9502449281896  17.6384407758424 12.1654426372319  C 16.9197712576544 11.3863582660439  16.1825430654555 10.6981837898307  15.4264361832595 10.1005849408825  C 14.6703293010635 9.5033203367945  13.8131095300722 9.02604342245098  12.8554168147554 8.6687541978519  C 11.8974041272037 8.31179919526346  10.8955544996911 8.13298747195859  9.84954800373355 8.13298747195859  C 7.90856437866618 8.13298747195859  6.32339574154364 8.72724400940168  5.0946820587114 9.91575712998721  C 3.86596837587916 11.1039360057124  3.25161155633849 12.6915167648686  3.25161155633849 14.6784994303056  C 3.25161155633849 16.7172873756806  3.90692552197405 18.3409647060784  5.21787340360472 19.5485287783166  C 6.52850131300038 20.7564270725655  8.18598487838353 21.3600419862545  10.1896840896578 21.3600419862545  C 11.4500755268908 21.3600419862545  12.7607034581619 21.1167243409598  14.1222078060657 20.6297548283598  C 15.4830721876241 20.1427853157597  16.6993067564121 19.5034080528398  17.7705914745685 18.7112887947398  C 17.8336270548858 18.659149292791  17.9657777536119 18.538827381036  18.1673636086082 18.3503230823242  C 18.369269413964 18.1621529827735  18.5583761330406 18.0064029437982  18.7346837439626 17.8830729882479  C 18.9113113271195 17.759408810687  19.0498616017984 17.6979109324923  19.1506545183588 17.6979109324923  C 19.3272821015158 17.6979109324923  19.4815112782153 17.7660933422987  19.6139819710518 17.9024581847609  C 19.7461326916534 18.0388230272232  19.8123680380717 18.1979153320044  19.8123680380717 18.3797350991045  C 19.8123680380717 18.6915693762161  19.4341545999185 19.1915737757282  18.6780477177225 19.8797482519413  C 17.4051771445699 21.0228064021898  15.9275209721956 21.9446059254411  14.244759206489 22.6461495105769  C 12.5623174130175 23.3470246516914  10.9208327218899 23.6979635666895  9.32030517685724 23.6979635666895  C 7.64362297111757 23.6979635666895  6.09685165845899 23.3212891455773  4.67903125655015 22.5682745025141  C 3.26121087651675 21.8149256602898  2.12689055616759 20.7433921856535  1.27607033925355 19.3536741243045  C 0.425250122339517 17.9642902849662  0 16.3991027432686  0 14.6591142337925  C 0 11.9966577341942  0.891777341133475 9.78273457618042  2.67501205116542 8.01634207086965  C 4.45856673343237 6.24994956555889  6.64817289768231 5.36692043533367  9.24447051026069 5.36692043533367  C 10.7570042468876 5.36692043533367  12.1841039748643 5.64934269566511  13.5264096605361 6.21418721632799  C 14.8687153462079 6.77903173699086  16.0375932366992 7.51299540555175  17.0333632823695 8.41574397715034  C 18.0508045475089 9.34104449140511  19.0075600313989 10.3367237129832  19.8971620803765 11.3960508643004  C 20.7967170611674 12.462793586176  21.6729352826126 13.5507625291141  22.5251374473556 14.6591142337925  C 23.3634785502255 15.7500328820922  24.2046994469612 16.7466993924608  25.0491201097979 17.6494479412097  C 25.8935407726346 18.551862267948  26.8355546078063 19.2858259365089  27.8751615715619 19.8506704571718  C 28.9150885075526 20.4155149778346  30.0020521496049 20.6979372381661  31.1363724480787 20.6979372381661  C 32.4220421293859 20.6979372381661  33.483727527364 20.2985353318854  34.3217486361234 19.500065787034  C 35.1600897389933 18.7012619973223  35.5792602794904 17.6461056754039  35.5792603013659 16.3342626221178  C 35.5792603013659 15.1006287989051  35.1728888471479 14.0681999621552  34.3598259664769 13.2369760890185  C 33.5470830580409 12.4057522158817  32.5417136921924 11.9903074017435  31.3443578352768 11.9903074017435  C 30.9661443971236 11.9903074017435  30.4525804941433 12.1106293134986  29.8036660607096 12.3506046701377  C 29.1544316769164 12.5909142716373  28.7227820004996 12.710901938532  28.5087170533346 12.7109019613817  C 28.2565747758161 12.7109019613817  28.0329104865973 12.6136417568058  27.8374042134434 12.4187871027937  C 27.6422179343999 12.2239324487816  27.5446247839405 11.9966577341942  27.5446247839405 11.7369629361816  C 27.5446247839405 11.5030036671328  27.5980610222041 11.133013800482  27.7052534928418 10.6266590685192  C 27.8124459634796 10.1203043594061  27.8658822017432 9.73694538383267  27.8658822236186 9.47725060866978  C 27.8658822236186 7.41239293517003  27.1884898237606 5.70449024140906  25.8337049802937 4.35387679509684  C 24.4786001864672 3.00359757079527  22.7993581590966 2.32812373663384  20.7953389755873 2.32812373663384  C 20.0645103155902 2.32812373663384  19.3618396935333 2.44811142637826  18.6876470597762 2.68842100502811  C 18.0131344537842 2.92873060652762  17.4838916269079 3.19176767034601  17.0995986287878 3.47719797447264  C 16.7482428230284 3.73791912606179  16.3983943852984 4.00084955667807  16.0500723726189 4.26597494391717  C 15.735214487018 4.50661876742733  15.5272290998199 4.62694067918241  15.4261162110245 4.62694067918241  C 15.2373294641829 4.62694067918241  15.0767007552815 4.55842402451578  14.9442300624449 4.42205920490315  C 14.8147338144845 4.29261311564632  14.7428270367335 4.11259355802723  14.7458439954251 3.92539709404659  C 14.7458439954251 3.67873718294605  14.9032729382255 3.37993776989676  15.2184507960614 3.029333099759  C 15.9620785423377 2.15900461158549  16.8884134754887 1.48720726524054  17.9974555517636 1.01293839469221  C 19.0887539002991 0.542613624857247  20.2579531227688 0.301062684134251  21.4384937775382 0.302036433310524  C 23.8456846491646 0.302036433310524  25.8497038545493 1.11688315372943  27.4502314214574 2.74691081657791  C 29.0507589664901 4.37660425741573  29.8513427331169 6.42541902305793  29.8513427112414 8.89302086864419  C 29.8513427112414 9.3733058267829  29.8257445168076 9.8021197498438  29.7755080446448 10.1784599717949  Z " fill-rule="nonzero" fill="#00bfbf" stroke="none" transform="matrix(1 0 0 1 25 20 )" />
    </g>
  </defs>
  <g transform="matrix(1 0 0 1 -20 -15 )">
    <use xlink:href="#widget328" filter="url(#filter327)" />
    <use xlink:href="#widget328" />
  </g>
</svg>