<?xml version="1.0" encoding="utf-8"?>
<svg version="1.1" xmlns:xlink="http://www.w3.org/1999/xlink" width="10px" height="4px" xmlns="http://www.w3.org/2000/svg">
  <g transform="matrix(1 0 0 1 -1851 -81 )">
    <path d="M 7.18119202389832 3.87777777777778  C 7.1403848543446 3.87777777777778  7.09958357752258 3.87703682313558  7.05882352941177 3.87555555555556  L 2.9 3.87555555555556  C 2.85923995188918 3.87703682313558  2.81843867506717 3.87777777777778  2.77763150551345 3.87777777777778  C 1.37092976035619 3.87777777777778  0.230572681984035 3.01617465189659  0.230572681984035 1.95333333333333  C 0.230572681984035 0.890492014770073  1.37092976035619 0.0288888888888887  2.77763150551345 0.0288888888888887  C 2.81843867506717 0.0288888888888887  2.85923995188918 0.0296298435310886  2.9 0.0311111111111104  L 7.05882352941177 0.0311111111111104  C 7.09958357752258 0.0296298435310886  7.1403848543446 0.0288888888888887  7.18119202389832 0.0288888888888887  C 8.58789376905558 0.0288888888888887  9.72825084742773 0.890492014770073  9.72825084742773 1.95333333333333  C 9.72825084742773 3.01617465189659  8.58789376905558 3.87777777777778  7.18119202389832 3.87777777777778  Z M 7.05882352941177 1.03555555555555  L 2.9 1.03555555555555  C 2.87184886599242 1.0340745216516  2.84363809747409 1.03333333333333  2.81541880091443 1.03333333333333  C 2.14293089964987 1.03333333333333  1.5977717420909 1.445231363489  1.5977717420909 1.95333333333333  C 1.5977717420909 2.46143530317766  2.14293089964987 2.87333333333333  2.81541880091443 2.87333333333333  C 2.84363809747409 2.87333333333333  2.87184886599242 2.87259214501506  2.9 2.87111111111111  L 7.05882352941177 2.87111111111111  C 7.08697466341937 2.87259214501506  7.11518543193766 2.87333333333333  7.14340472849734 2.87333333333333  C 7.81589262976189 2.87333333333333  8.36105178732087 2.46143530317766  8.36105178732087 1.95333333333333  C 8.36105178732087 1.445231363489  7.81589262976189 1.03333333333333  7.14340472849734 1.03333333333333  C 7.11518543193766 1.03333333333333  7.08697466341937 1.0340745216516  7.05882352941177 1.03555555555555  Z " fill-rule="nonzero" fill="#ffffff" stroke="none" transform="matrix(1 0 0 1 1851 81 )" />
  </g>
</svg>