<?xml version="1.0" encoding="utf-8"?>
<svg version="1.1" xmlns:xlink="http://www.w3.org/1999/xlink" width="4px" height="3px" xmlns="http://www.w3.org/2000/svg">
  <g transform="matrix(1 0 0 1 -1840 -36 )">
    <path d="M 3.13973333333334 2.6202  C 3.10446329893784 2.69984142996315  3.03215860093906 2.75015775283837  2.95306666666667 2.7501  C 2.9216 2.7501  2.8896 2.742  2.85946666666667 2.72520000000001  C 2.75645109821399 2.66681456755513  2.7148318504812 2.52567880912601  2.7664 2.4096  L 3.46666666666667 0.840300000000005  C 3.50200709729982 0.760751667806875  3.57426965556463 0.710499218403527  3.65331899216125 0.710499218403527  C 3.68592609776984 0.710499218403527  3.71807942830568 0.71909599155242  3.74720000000001 0.735599999999999  C 3.81773359790537 0.775429343828427  3.86225829321883 0.85661805714195  3.86225829321883 0.945403452145413  C 3.86225829321883 0.98204120556951  3.85463554706384 1.01817036410909  3.84 1.0509  L 3.13973333333334 2.6202  Z M 0.560266666666666 0.146100000000003  C 0.378666666666667 -0.0779999999999973  0.0837333333333334 0.255300000000004  0.264533333333333 0.4785  C 0.943466666666666 1.3164  1.812 1.6332  2.7768 1.8393  C 3.03946666666667 1.8954  3.152 1.4427  2.888 1.386  C 1.99066666666667 1.1946  1.1952 0.929700000000001  0.560266666666666 0.146100000000003  Z " fill-rule="nonzero" fill="#474341" stroke="none" transform="matrix(1 0 0 1 1840 36 )" />
  </g>
</svg>