<?xml version="1.0" encoding="utf-8"?>
<svg version="1.1" xmlns:xlink="http://www.w3.org/1999/xlink" width="15px" height="15px" xmlns="http://www.w3.org/2000/svg">
  <g transform="matrix(1 0 0 1 -1710 -24 )">
    <path d="M 14.6095182151442 9.41666529375  C 14.9684809795673 8.29810209375  14.9669128125 6.750997425  14.6211042007212 5.68642640625  C 14.5992052103365 5.6720745375  14.5790035096154 5.65219681875  14.55513046875 5.64417665625  C 12.7157252704327 5.02693115625  12.3015998978365 4.3215214125  12.5632440504808 2.30264701875  C 12.5841652463942 2.14124604375  12.5176749519231 1.9031163  12.4066117788462 1.79795240625  C 11.5676052403846 1.003668525  10.6035880709135 0.442295550000001  9.49552088942308 0.14098303125  C 8.95575762620192 0.866385600000001  8.29694275240385 1.2619638  7.46645967548077 1.256994375  C 6.63376271033654 1.25202495  6.00965046274038 0.781962843750001  5.47948069110577 0.146873437500001  C 4.27313551081731 0.508663350000001  3.25076406850962 1.1185410375  2.34785008413462 2.04220280625  C 2.68517215745192 2.85231594375  2.68888040264423 3.63290030625  2.27682131610577 4.3901149125  C 1.84858243990385 5.17708854375  1.12624756009615 5.5075844625  0.368306051682693 5.65889308125  C 0.0074614723557696 7.0820497875  0.0450052463942313 8.50296159375  0.451898599759616 9.439958325  C 1.24068688701923 9.5770685625  1.88924408653846 9.95806464375  2.30525125600962 10.72072835625  C 2.72223623798077 11.48517646875  2.61591447115385 12.2688691125  2.38544918870192 13.04655624375  C 3.16584315504808 13.86894905625  4.06466145432692 14.39793440625  5.05133403245192 14.7840726  C 5.32373396033654 14.89067551875  5.55384870793269 14.90147780625  5.76438905048077 14.63044235625  C 6.59985337139423 13.55501150625  8.36485362980769 13.5287061375  9.24199431490385 14.62226870625  C 9.42065471754808 14.84499129375  9.61567941706731 14.9140069125  9.87597677884616 14.81463748125  C 10.9140114483173 14.41833016875  11.8613322475962 13.87673896875  12.6094957572115 13.05689803125  C 12.1809616947115 10.93663955625  12.7493947536058 9.9090034875  14.6095182151442 9.41666529375  Z M 13.5024841586538 6.8578881375  C 13.5024657151442 7.2999564375  13.5024657151442 7.73724714375  13.5024657151442 8.206292325  C 13.3129757271635 8.31538955625  13.1264006790865 8.4161980125  12.9459322716346 8.527751175  C 11.776595859375 9.250525125  11.0620649098558 10.3228285125  11.0938895012019 11.73015594375  C 11.1121909435096 12.54021151875  10.8002362860577 12.8949406125  10.1844630108173 13.15262191875  C 10.1101687680288 13.18370484375  10.0330518209135 13.2075734625  9.90472036658654 13.25366060625  C 8.33426513221154 12.09624373125  6.71248469350962 12.07346878125  5.07029963942308 13.28683490625  C 4.69550760216346 13.06605020625  4.32687751802885 12.8489302125  3.92644132211539 12.61304533125  C 4.11460298076923 10.5643927125  3.33125716947115 9.08689845  1.51720094350962 8.226189225  C 1.51720094350962 7.765567125  1.51720094350962 7.32534080625  1.51720094350962 6.85957659375  C 1.75037823317308 6.7199528625  1.98718997596154 6.5938367625  2.20841230168269 6.443007825  C 3.23299763221154 5.74442866875  3.93463269230769 4.77011325  3.89830655048077 3.4903984875  C 3.87041161658654 2.50808210625  4.25182685697115 2.059586175  5.13131057091346 1.8125152875  C 6.74215072716346 2.98025476875  8.33751214543269 2.955599475  9.91553149038462 1.789682775  C 10.1065896454327 1.88346879375  10.2740330408654 1.9667211375  10.4423250901442 2.04807399375  C 10.8866330769231 2.2628723625  11.0950333233173 2.5441728375  11.0808460276442 3.13281054375  C 11.0443907451923 4.64532106875  11.7208428786058 5.79769175625  12.99155671875 6.5566715625  C 13.1523584675481 6.65272164375  13.3142118028846 6.7469489625  13.5024841586538 6.8578881375  Z M 10.1730245913462 7.594841325  C 10.2187044050481 6.0434195625  9.02038456730769 4.76882773125  7.52033082331731 4.76395423125  C 5.99974332331731 4.75902316875  4.83024086538462 5.98403581875  4.84575649038462 7.56544681875  C 4.86007294471154 9.02569198125  5.94725583533654 10.22484054375  7.34464070913462 10.3081312875  C 7.55495965745192 10.320679575  7.77719666466346 10.3120070625  7.97827263822115 10.25419665  C 8.32266068509615 10.15517259375  8.52650401442308 9.90102170625  8.48807468149039 9.51419278125  C 8.45401777644231 9.17120611875  8.24432610576923 8.96348775  7.91676356971154 8.91254630625  C 7.76053718149038 8.88825556875  7.59702342548077 8.91897395625  7.43887835336538 8.90276094375  C 6.67455349759615 8.82461233125  6.13698564302885 8.207002275  6.17539653245192 7.4603596875  C 6.21063418269231 6.7752881625  6.75294342548077 6.202786725  7.41137084134615 6.15558673125  C 8.13841022235577 6.10347485625  8.73981169471154 6.63877273125  8.83229668269231 7.43242344375  C 8.85458311298077 7.62390961875  8.82392082331731 7.8224374125  8.84973100961538 8.0130409875  C 8.89738485576923 8.364757725  9.13762811899039 8.59718893125  9.44637263221154 8.5643791875  C 9.67043610576923 8.54054895  9.91237667668269 8.340639675  10.0724220252404 8.15159025  C 10.1760317848558 8.0291772375  10.1673976262019 7.78540651875  10.1730245913462 7.594841325  Z " fill-rule="nonzero" fill="#555555" stroke="none" transform="matrix(1 0 0 1 1710 24 )" />
  </g>
</svg>