<?xml version="1.0" encoding="utf-8"?>
<svg version="1.1" xmlns:xlink="http://www.w3.org/1999/xlink" width="25px" height="28px" xmlns="http://www.w3.org/2000/svg">
  <g transform="matrix(1 0 0 1 -29 -444 )">
    <path d="M 24.7807017680921 4.59015639444445  C 18.0828460115132 4.59015639444445  12.4727095394737 0.062222222222222  12.4727095394737 0.062222222222222  C 12.4727095394737 0.062222222222222  7.0341130756579 4.59384360555556  0.219298231907895 4.59384360555556  L 0.219298231907895 14  C 0.219298231907895 25.5779424055556  12.5 27.9377777777778  12.5 27.9377777777778  C 12.5 27.9377777777778  24.6169590460526 25.4968230611111  24.7807017680921 13.9889382888889  L 24.7807017680921 4.59015639444445  Z M 20.4805068256579 7.98610699444445  C 20.9132553453947 8.33270783333334  20.9678362664474 8.94110287777778  20.6052631578947 9.35038685  L 12.0360623766447 19.0035884888889  C 11.7397660773026 19.3354403277778  11.3070175575658 19.5271769777778  10.8469785773026 19.5271769388889  C 10.3869395970395 19.5271769  9.95419103618421 19.3354403277778  9.65789473684211 19.0035884888889  L 5.06920078125 13.8340740611111  C 4.70662767269737 13.4247901277778  4.76120859375 12.8127077944444  5.19395711348684 12.4697942444444  C 5.62670563322368 12.1268806555556  6.27387915296053 12.1785020777778  6.63645226151316 12.5877860111111  L 10.8469785773026 17.3295802555556  L 19.0380116776316 8.10409876111111  C 19.4005847861842 7.69481482777778  20.0477582648026 7.64319340555556  20.4805068256579 7.98610699444445  Z " fill-rule="nonzero" fill="#aaaaaa" stroke="none" transform="matrix(1 0 0 1 29 444 )" />
  </g>
</svg>