<?xml version="1.0" encoding="utf-8"?>
<svg version="1.1" xmlns:xlink="http://www.w3.org/1999/xlink" width="26px" height="23px" xmlns="http://www.w3.org/2000/svg">
  <g transform="matrix(1 0 0 1 -28 -132 )">
    <path d="M 24.5491071428571 8.83735795454546  C 25.1004464285714 8.41264204545455  25.5840773809524 7.93892045454546  26 7.41619318181818  L 26 20.3863636363636  C 26 21.1051136363636  25.772693452381 21.7204071969697  25.3180803571429 22.2322443181818  C 24.8634672619048 22.7440814393939  24.3169642857143 23  23.6785714285714 23  L 2.32142857142857 23  C 1.68303571428571 23  1.13653273809524 22.7440814393939  0.681919642857143 22.2322443181818  C 0.227306547619048 21.7204071969697  0 21.1051136363636  0 20.3863636363636  L 0 7.41619318181818  C 0.425595238095238 7.9498106060606  0.9140625 8.42353219696969  1.46540178571429 8.83735795454546  C 4.96688988095238 11.5163352272727  7.37053571428571 13.3948863636364  8.67633928571429 14.4730113636364  C 9.22767857142857 14.9303977272727  9.67503720238095 15.2870501893939  10.0184151785714 15.54296875  C 10.3617931547619 15.7988873106061  10.8188244047619 16.0602509469697  11.3895089285714 16.3270596590909  C 11.960193452381 16.5938683712121  12.4921875 16.7272727272727  12.9854910714286 16.7272727272727  L 13 16.7272727272727  L 13.0145089285714 16.7272727272727  C 13.5078125 16.7272727272727  14.039806547619 16.5938683712121  14.6104910714286 16.3270596590909  C 15.1811755952381 16.0602509469697  15.6382068452381 15.7988873106061  15.9815848214286 15.54296875  C 16.324962797619 15.2870501893939  16.7723214285714 14.9303977272727  17.3236607142857 14.4730113636364  C 18.968005952381 13.1335227272727  21.3764880952381 11.2549715909091  24.5491071428571 8.83735795454546  Z M 25.3108258928571 0.767755681818181  C 25.770275297619 1.2795928030303  26 1.89488636363636  26 2.61363636363636  C 26 3.47395833333333  25.7630208333333 4.29616477272727  25.2890625 5.08025568181818  C 24.8151041666667 5.86434659090909  24.2250744047619 6.53409090909091  23.5189732142857 7.08948863636364  C 19.882068452381 9.93181818181818  17.6186755952381 11.7014678030303  16.7287946428571 12.3984375  C 16.632068452381 12.4746685606061  16.426525297619 12.6407433712121  16.1121651785714 12.8966619318182  C 15.7978050595238 13.1525804924242  15.5366443452381 13.3594933712121  15.3286830357143 13.5174005681818  C 15.1207217261905 13.6753077651515  14.8692336309524 13.8522727272727  14.57421875 14.0482954545455  C 14.2792038690476 14.2443181818182  14.0011160714286 14.3913352272727  13.7399553571429 14.4893465909091  C 13.4787946428571 14.5873579545455  13.2369791666667 14.6363636363636  13.0145089285714 14.6363636363636  L 13 14.6363636363636  L 12.9854910714286 14.6363636363636  C 12.7630208333333 14.6363636363636  12.5212053571429 14.5873579545455  12.2600446428571 14.4893465909091  C 11.9988839285714 14.3913352272727  11.7207961309524 14.2443181818182  11.42578125 14.0482954545455  C 11.1307663690476 13.8522727272727  10.8792782738095 13.6753077651515  10.6713169642857 13.5174005681818  C 10.4633556547619 13.3594933712121  10.2021949404762 13.1525804924242  9.88783482142857 12.8966619318182  C 9.57347470238095 12.6407433712121  9.36793154761905 12.4746685606061  9.27120535714286 12.3984375  C 8.39099702380952 11.7014678030303  7.12388392857143 10.7077414772727  5.46986607142857 9.41725852272727  C 3.81584821428571 8.12677556818182  2.82440476190476 7.35085227272727  2.49553571428571 7.08948863636364  C 1.89583333333333 6.63210227272727  1.32998511904762 6.00319602272727  0.797991071428572 5.20276988636364  C 0.265997023809524 4.40234375  0 3.65909090909091  0 2.97301136363636  C 0 2.12357954545454  0.200706845238095 1.41571969696969  0.602120535714286 0.849431818181819  C 1.00353422619048 0.283143939393937  1.57663690476191 0  2.32142857142857 0  L 23.6785714285714 0  C 24.3072916666667 0  24.8513764880952 0.255918560606058  25.3108258928571 0.767755681818181  Z " fill-rule="nonzero" fill="#ffffff" stroke="none" transform="matrix(1 0 0 1 28 132 )" />
  </g>
</svg>