<?xml version="1.0" encoding="utf-8"?>
<svg version="1.1" xmlns:xlink="http://www.w3.org/1999/xlink" width="9px" height="4px" xmlns="http://www.w3.org/2000/svg">
  <g transform="matrix(1 0 0 1 -1839 -24 )">
    <path d="M 1.06054054054054 0.480235294117646  C 1.22983783783784 0.446588235294117  1.15832432432432 0.195764705882351  0.989027027027028 0.229647058823529  C 0.241783783783784 0.379058823529411  0.186810810810811 1.70917647058823  0.192891891891892 2.26564705882353  C 0.194594594594594 2.43294117647059  0.463378378378379 2.43341176470588  0.461675675675675 2.26564705882353  C 0.457783783783783 1.88023529411765  0.481621621621621 0.596235294117647  1.06054054054054 0.480235294117646  Z M 8.8542972972973 2.98988235294118  C 8.85648648648649 2.82235294117647  8.58745945945946 2.82235294117647  8.58527027027027 2.98988235294118  C 8.58235135135135 3.212  8.56362162162162 3.43505882352941  8.54805405405405 3.65670588235294  C 8.53662162162162 3.82376470588235  8.80540540540541 3.82305882352941  8.81708108108108 3.65670588235294  C 8.8324054054054 3.43505882352941  8.85137837837838 3.21223529411765  8.8542972972973 2.98988235294118  Z M 5.44694594594595 1.87223529411765  C 5.28640540540541 1.80988235294117  5.21659459459459 2.06141176470588  5.37543243243243 2.12282352941176  C 5.49210661907278 2.16801224369797  5.61122731826785 2.20704990514742  5.73227027027027 2.23976470588235  C 5.89913513513514 2.28470588235294  5.97040540540541 2.03388235294118  5.80378378378378 1.98894117647059  C 5.6827448347778 1.95630598036894  5.56362406722665 1.91734684316574  5.44694594594595 1.87223529411765  Z M 3.1787027027027 0.245176470588236  C 3.04735135135135 0.136941176470588  2.85616216216216 0.32  2.98824324324324 0.428941176470588  C 3.5854054054054 0.921411764705882  4.17064864864865 1.46823529411765  4.84224324324324 1.86658823529412  C 4.99013513513514 1.95435294117647  5.12537837837838 1.72941176470588  4.97797297297297 1.64211764705882  C 4.32632432432433 1.25529411764706  3.7585945945946 0.723529411764707  3.1787027027027 0.245176470588236  Z " fill-rule="nonzero" fill="#925618" stroke="none" transform="matrix(1 0 0 1 1839 24 )" />
  </g>
</svg>