<?xml version="1.0" encoding="utf-8"?>
<svg version="1.1" xmlns:xlink="http://www.w3.org/1999/xlink" width="2px" height="3px" xmlns="http://www.w3.org/2000/svg">
  <g transform="matrix(1 0 0 1 -1837 -29 )">
    <path d="M 1.19057142857143 0.672545454545453  C 1.35771428571429 0.893181818181816  1.746 0.680181818181816  1.57685714285714 0.456818181818181  C 1.34685714285714 0.153545454545453  0.963142857142856 0.140727272727272  0.658571428571428 0.369272727272727  C 0.280857142857142 0.652636363636364  0.136571428571429 1.12227272727273  0.116 1.56272727272727  C 0.0954285714285703 1.99881818181818  0.184857142857142 2.50254545454545  0.627142857142857 2.727  C 1.06714285714286 2.95036363636364  1.47228571428571 2.69945454545454  1.79085714285714 2.41363636363636  C 2.00114285714286 2.22490909090909  1.684 1.92327272727273  1.47428571428572 2.11172727272727  C 1.24228571428572 2.32009090909091  0.933714285714286 2.56418181818182  0.664285714285715 2.19054545454545  C 0.554857142857143 2.03890909090909  0.556000000000001 1.79809090909091  0.560857142857143 1.62463636363636  C 0.564857142857144 1.47927272727273  0.580857142857143 1.332  0.622285714285716 1.19181818181818  C 0.647428571428573 1.10563636363636  0.988857142857144 0.406636363636362  1.19057142857143 0.672545454545453  Z " fill-rule="nonzero" fill="#474341" stroke="none" transform="matrix(1 0 0 1 1837 29 )" />
  </g>
</svg>