<?xml version="1.0" encoding="utf-8"?>
<svg version="1.1" xmlns:xlink="http://www.w3.org/1999/xlink" width="141px" height="34px" xmlns="http://www.w3.org/2000/svg">
  <g transform="matrix(1 0 0 1 -1133 -16 )">
    <path d="M 1134 21  A 4 4 0 0 1 1138 17 L 1269 17  A 4 4 0 0 1 1273 21 L 1273 45  A 4 4 0 0 1 1269 49 L 1138 49  A 4 4 0 0 1 1134 45 L 1134 21  Z " fill-rule="nonzero" fill="#02a7f0" stroke="none" fill-opacity="0.0980392156862745" />
    <path d="M 1133.5 21  A 4.5 4.5 0 0 1 1138 16.5 L 1269 16.5  A 4.5 4.5 0 0 1 1273.5 21 L 1273.5 45  A 4.5 4.5 0 0 1 1269 49.5 L 1138 49.5  A 4.5 4.5 0 0 1 1133.5 45 L 1133.5 21  Z " stroke-width="1" stroke-dasharray="9,4" stroke="#81d3f8" fill="none" stroke-dashoffset="0.5" />
  </g>
</svg>