<?xml version="1.0" encoding="utf-8"?>
<svg version="1.1" xmlns:xlink="http://www.w3.org/1999/xlink" width="9px" height="7px" xmlns="http://www.w3.org/2000/svg">
  <g transform="matrix(1 0 0 1 -1839 -22 )">
    <path d="M 8.6094 6.74462068965517  C 9.287325 4.64968965517241  8.5851 2.57986206896551  8.3106 2.30348275862069  C 7.9362 1.92668965517241  7.3908 2.09275862068966  6.93585 2.2771724137931  C 7.00785 2.1118275862069  7.2756 1.60855172413793  7.347825 1.44344827586207  C 7.045425 1.15958620689655  6.422175 1.44079310344828  6.081075 1.63872413793103  C 6.176025 1.40555172413793  6.36075 0.92303448275862  6.56685000000001 0.877413793103448  C 6.165675 -0.0330689655172415  5.20335 0.0231724137931026  4.3803 0.126241379310344  C 3.345525 0.255862068965516  2.348325 0.801620689655172  1.5714 1.66310344827586  C 1.289025 1.39613793103448  0.860175000000003 1.52986206896552  0.615600000000004 1.84655172413793  C 0.371025000000003 2.16348275862069  0.270225000000005 2.61075862068965  0.198675000000004 3.04306896551724  C 0.0315000000000033 4.05468965517241  0.0562500000000032 5.78731034482759  0.118575000000003 6.81920689655172  L 0.471600000000004 6.81606896551724  C 0.466650000000004 5.16237931034483  1.329975 3.3901724137931  2.89395 2.90934482758621  C 3.012525 2.87289655172414  3.077325 3.01579310344828  3.0321 3.10558620689655  C 3.16035 3.72544827586207  4.040775 4.11696551724138  4.515975 4.36703448275862  C 4.996575 4.62  6.016275 5.20003448275862  6.211125 4.35327586206896  C 6.23565 4.2468275862069  6.349725 4.23548275862069  6.41902500000001 4.29437931034483  C 6.662475 4.50148275862069  6.76755000000001 4.78124137931034  6.96915 5.02962068965517  C 7.14735 5.24927586206896  7.361325 5.42813793103448  7.534125 5.65527586206896  C 7.7895 5.99151724137931  7.965 6.33765517241379  8.04015 6.74968965517241  L 8.6094 6.74462068965517  Z " fill-rule="nonzero" fill="#b77917" stroke="none" transform="matrix(1 0 0 1 1839 22 )" />
  </g>
</svg>