<?xml version="1.0" encoding="utf-8"?>
<svg version="1.1" xmlns:xlink="http://www.w3.org/1999/xlink" width="8px" height="7px" xmlns="http://www.w3.org/2000/svg">
  <g transform="matrix(1 0 0 1 -1839 -28 )">
    <path d="M 7.94 2.97040625  C 7.38244444444445 5.34275  5.44377777777778 6.99584375  4.05244444444445 6.99584375  C 3.66822222222222 6.99584375  3.17066666666667 6.79984375  2.65111111111111 6.444375  C 1.34022222222222 5.54640625  0.017333333333334 3.7345  0.017333333333334 1.70996875  C 0.017333333333334 1.0976875  0.017333333333334 0.760593749999998  0.168666666666667 0.199718749999999  L 0.406 0.261843749999999  C 0.262888888888889 0.792312499999998  0.262888888888889 1.11825  0.262888888888889 1.70996875  C 0.262888888888889 3.64721875  1.53288888888889 5.383875  2.79133333333333 6.24575  C 3.26311111111111 6.56884375  3.72266666666667 6.754125  4.05222222222222 6.754125  C 5.34866666666667 6.754125  7.18422222222222 5.112625  7.70044444444444 2.9159375  L 7.94 2.97040625  Z " fill-rule="nonzero" fill="#474341" stroke="none" transform="matrix(1 0 0 1 1839 28 )" />
  </g>
</svg>