<?xml version="1.0" encoding="utf-8"?>
<svg version="1.1" xmlns:xlink="http://www.w3.org/1999/xlink" width="22px" height="25px" xmlns="http://www.w3.org/2000/svg">
  <g transform="matrix(1 0 0 1 -1836 -22 )">
    <path d="M 6.52747252747253 25  C 15.0373626373626 25  22 18.0097087378641  22 9.46601941747573  C 22 8.54490291262136  21.9144175824176 7.64368932038835  21.7594505494505 6.76553398058253  L 8.59643956043956 0.0757281553398061  C 8.59643956043956 0.0757281553398061  7.50538461538462 0.0502427184466021  7.14081318681319 0.0757281553398061  C 6.77672527472528 0.10121359223301  5.88246153846154 0.121844660194175  5.29112087912088 0.444174757281554  C 4.70002197802198 0.766747572815535  3.79028571428572 1.59587378640777  3.79028571428572 1.59587378640777  C 3.79028571428572 1.59587378640777  3.48712087912088 1.38082524271845  3.03213186813187 1.48834951456311  C 2.57738461538462 1.59587378640777  2.4478021978022 2.16456310679612  2.4478021978022 2.16456310679612  C 2.4478021978022 2.16456310679612  2.12239560439561 4.77402912621359  2.16784615384616 6.93883495145631  C 2.16784615384616 6.93883495145631  1.0369010989011 5.94708737864078  1.38575824175824 7.92766990291262  C 1.51123076923077 8.64004854368932  2.19226373626374 8.20776699029126  2.41951648351649 8.13106796116505  C 2.87426373626374 10.3575242718447  5.64457142857143 12.0667475728155  5.38202197802198 12.7733009708738  C 5.21593406593407 13.2199029126214  5.18498901098901 13.2645631067961  4.71501098901099 13.4332524271845  C 4.39637362637363 13.5480582524272  3.86595604395605 13.6021844660194  3.6387032967033 13.9706310679612  C 3.21683516483517 14.6541262135922  3.41628571428572 14.6922330097087  3.41628571428572 14.6922330097087  C 3.41628571428572 14.6922330097087  0.616483516483519 15.8589805825243  0.378835164835167 16.1968446601942  C 0.141428571428573 16.5347087378641  0.141428571428573 19.1359223300971  0.141428571428573 19.1359223300971  L 5.68518681318682 24.9759708737864  C 5.96417582417582 24.9910194174757  6.24485714285714 25  6.52747252747253 25  Z " fill-rule="nonzero" fill="#02a7f0" stroke="none" transform="matrix(1 0 0 1 1836 22 )" />
  </g>
</svg>