<?xml version="1.0" encoding="utf-8"?>
<svg version="1.1" xmlns:xlink="http://www.w3.org/1999/xlink" width="26px" height="26px" xmlns="http://www.w3.org/2000/svg">
  <g transform="matrix(1 0 0 1 -31 -68 )">
    <path d="M 12.2160087719298 6.2129451754386  C 12.2160087719298 2.88431798245614  9.52326973684211 0.185905701754386  6.19464254385965 0.185905701754386  C 2.86601535087719 0.185905701754386  0.170453947368421 2.87231578947368  0.170453947368421 6.20094298245614  C 0.170453947368421 9.5295701754386  2.8716600877193 12.2160087719298  6.20028728070175 12.2160087719298  L 12.2160087719298 12.2160087719298  L 12.2160087719298 6.2129451754386  Z M 19.7997127192982 12.2017543859649  C 23.1283399122807 12.2017543859649  25.8267236842105 9.52247149122807  25.8267236842105 6.19384429824561  C 25.8267236842105 2.86521710526316  23.1268574561404 0.176383771929825  19.7982302631579 0.176383771929825  C 16.4696030701754 0.176383771929825  13.7697368421053 2.88431798245614  13.7697368421053 6.2129451754386  L 13.7697368421053 12.2017543859649  L 19.7997127192982 12.2017543859649  Z M 6.20028728070176 13.7839912280702  C 2.8716600877193 13.7839912280702  0.173276315789475 16.4830592105263  0.173276315789474 19.8116864035088  C 0.173276315789474 23.1403135964912  2.86601535087719 25.8389824561404  6.19464254385965 25.8389824561404  C 9.5232697368421 25.8389824561404  12.2160087719298 23.1409692982456  12.2160087719298 19.8123421052632  L 12.2160087719298 13.7839912280702  L 6.20028728070176 13.7839912280702  Z M 25.8224473684211 19.8116578947368  C 25.8224473684211 16.4830307017544  23.1283399122807 13.7839912280702  19.7997127192982 13.7839912280702  L 13.7554824561404 13.7839912280702  L 13.7554824561404 19.8123421052632  C 13.7554824561404 23.1409692982456  16.462475877193 25.8393530701754  19.7911030701754 25.8393530701754  C 23.1197302631579 25.8393530701754  25.8224473684211 23.1402850877193  25.8224473684211 19.8116578947368  Z " fill-rule="nonzero" fill="#81d3f8" stroke="none" transform="matrix(1 0 0 1 31 68 )" />
  </g>
</svg>