<?xml version="1.0" encoding="utf-8"?>
<svg version="1.1" xmlns:xlink="http://www.w3.org/1999/xlink" width="14px" height="15px" xmlns="http://www.w3.org/2000/svg">
  <g transform="matrix(1 0 0 1 -1836 -28 )">
    <path d="M 11.4647719298246 3.40725  C 10.8426315789474 6.14525  8.67189473684211 8.053  7.11273684210526 8.053  C 6.67677192982456 8.053  6.11529824561404 7.8255  5.53171929824561 7.41225  C 4.07056140350877 6.37775  2.59638596491228 4.2885  2.59638596491228 1.95425  C 2.59638596491228 1.273  2.59638596491228 0.861750000000001  2.76536842105263 0.2135  C 2.78761538948298 0.127673297222902  2.8638771464364 0.0678734384222786  2.95108353255533 0.0678734384222786  C 2.96782433595843 0.0678734384222786  2.9844933004227 0.0701011701185301  3.00066666666667 0.0745000000000005  C 3.10335113466841 0.102254625806978  3.164490657133 0.209480498228029  3.13722807017544 0.314  C 2.98077192982456 0.913  2.98077192982456 1.28275  2.98077192982456 1.954  C 2.98077192982456 4.147  4.37217543859649 6.114  5.75129824561404 7.0905  C 6.26340350877193 7.453  6.75954385964912 7.661  7.11249122807018 7.661  C 8.52428070175439 7.661  10.5248070175439 5.804  11.0897192982456 3.319  C 11.1138238401665 3.21370081864121  11.2170615592511 3.14808093180893  11.3205964912281 3.17225  C 11.4240907902234 3.19672450156424  11.4885890087941 3.30185392937562  11.4647719298246 3.40725  Z M 13.8570526315789 14.61125  L 13.6649824561404 14.8175  L 0.421719298245614 14.8175  L 0.229649122807018 14.611  C 0.229649122807018 14.611  0.325438596491229 12.8205  0.389298245614035 11.58375  C 0.45880701754386 10.24225  3.9919649122807 9.2775  4.39477192982456 9.17225  C 4.49670175438597 9.1445  4.60256140350877 9.208  4.62908771929825 9.31300000000001  C 4.63313203778944 9.32896799178859  4.63517849442663 9.34539202741874  4.63517849442663 9.361882104759  C 4.63517849442663 9.45120693894684  4.57578849932578 9.52920992203289  4.49080701754386 9.5515  C 3.07557894736842 9.92275  0.814701754385965 10.8085  0.773684210526316 11.6045  C 0.722842105263157 12.5875  0.651859649122806 13.91975  0.624842105263157 14.426  L 13.4618596491228 14.426  C 13.4348421052632 13.91975  13.3638596491228 12.5875  13.3130175438596 11.6045  C 13.2717543859649 10.8055  11.2093333333333 9.9155  9.91912280701754 9.54225  C 9.83642419110094 9.51830931631461  9.77937326782742 9.44142076974887  9.77937326782742 9.35390705417168  C 9.77937326782742 9.33576047800232  9.78185150788039 9.31770198415749  9.78673684210527 9.30025  C 9.81014659492842 9.2160622594739  9.88564659862137 9.1579457663212  9.97160639608959 9.1579457663212  C 9.98949421002914 9.1579457663212  10.0072943887628 9.16048839914507  10.0244912280702 9.1655  C 10.3931578947368 9.27225  13.6281403508772 10.246  13.6971578947368 11.584  C 13.7610175438597 12.821  13.8570526315789 14.61125  13.8570526315789 14.61125  Z " fill-rule="nonzero" fill="#474341" stroke="none" transform="matrix(1 0 0 1 1836 28 )" />
  </g>
</svg>