<?xml version="1.0" encoding="utf-8"?>
<svg version="1.1" xmlns:xlink="http://www.w3.org/1999/xlink" width="6px" height="3px" xmlns="http://www.w3.org/2000/svg">
  <g transform="matrix(1 0 0 1 -1840 -35 )">
    <path d="M 3.41314285714286 2.382  C 3.19992857142857 2.405  3.198 2.797  3.41335714285714 2.77375  C 4.28721428571429 2.6795  5.316 2.456  5.79814285714286 1.48475  C 5.90657142857143 1.26625  5.61664285714286 1.06875  5.50821428571429 1.287  C 5.08971428571429 2.13  4.16271428571429 2.30125  3.41314285714286 2.382  Z M 0.0570000000000011 1.42975  C 0.0460714285714293 1.6815  0.381857142857144 1.681  0.392571428571429 1.42975  C 0.402857142857143 1.186  0.489214285714286 0.968  0.678857142857143 0.845749999999999  C 0.800357142857143 0.767250000000001  0.942 0.813499999999998  1.05342857142857 0.736749999999997  C 1.15585714285714 0.665999999999997  1.22292857142857 0.544249999999998  1.33607142857143 0.480749999999997  C 1.47857142857143 0.400499999999997  1.6215 0.386499999999998  1.77578571428571 0.399749999999997  C 1.99135714285714 0.418499999999998  1.99028571428571 0.0267499999999963  1.77578571428571 0.00799999999999912  C 1.56471428571429 -0.0102499999999992  1.35621428571429 0.0279999999999987  1.16657142857143 0.142499999999998  C 1.00328571428571 0.241  0.910285714285715 0.349749999999997  0.730500000000001 0.403749999999999  C 0.31757142857143 0.527999999999999  0.0773571428571438 0.948499999999999  0.0570000000000011 1.42975  Z " fill-rule="nonzero" fill="#474341" stroke="none" transform="matrix(1 0 0 1 1840 35 )" />
  </g>
</svg>