<?xml version="1.0" encoding="utf-8"?>
<svg version="1.1" xmlns:xlink="http://www.w3.org/1999/xlink" width="7px" height="11px" xmlns="http://www.w3.org/2000/svg">
  <g transform="matrix(1 0 0 1 -1842 -29 )">
    <path d="M 5.36851724137931 0.696437499999999  C 5.33689655172414 0.924458333333331  5.71537931034483 0.922166666666665  5.74675862068966 0.696208333333333  C 5.77234482758621 0.511729166666666  6.0108275862069 0.516541666666666  6.13779310344828 0.561458333333332  C 6.37362068965518 0.644416666666666  6.50806896551725 0.879770833333333  6.56406896551725 1.10252083333333  C 6.60534482758621 1.26683333333333  6.62079310344828 1.49554166666667  6.57179310344828 1.65939583333333  C 6.42962068965518 2.13697916666667  5.96110344827586 2.00566666666667  5.66493103448276 1.7744375  C 5.47810344827586 1.62891666666667  5.20920689655172 1.88145833333333  5.39748275862069 2.02835416666667  C 5.75593103448276 2.3079375  6.21286206896552 2.51166666666666  6.63093103448276 2.20847916666667  C 7.02872413793103 1.9201875  7.04006896551724 1.32435416666667  6.89958620689655 0.906124999999999  C 6.77406896551724 0.532583333333331  6.44193103448276 0.166833333333332  5.99948275862069 0.171187499999998  C 5.64803448275862 0.174624999999998  5.41389655172414 0.370333333333332  5.36851724137931 0.696437499999999  Z M 0.565955317263081 10.7648177775185  C 0.565955317263081 10.8347882848938  0.506251027113059 10.8915310696078  0.432551724137931 10.8916041666667  C 0.375521351820527 10.8915294206115  0.324822650200166 10.8571088428122  0.306310344827586 10.8058958333333  C 0.239931034482759 10.6223333333333  0.33503448275862 10.4522916666667  0.411551724137931 10.3157083333333  C 0.429413793103447 10.283625  0.447275862068966 10.2517708333333  0.462724137931035 10.2201458333333  C 0.431344827586207 10.2047916666667  0.404310344827587 10.1940208333333  0.37751724137931 10.1827916666667  C 0.260448275862069 10.1346666666667  0.127689655172415 10.0798958333333  0.0526206896551733 9.95064583333333  C -0.000965517241378775 9.85829166666667  -0.012310344827585 9.74233333333333  0.0195517241379318 9.61560416666667  C 0.0654137931034485 9.43410416666667  0.185379310344828 9.26108333333333  0.376068965517241 9.10158333333333  C 0.471172413793103 9.0220625  0.57351724137931 8.9533125  0.67248275862069 8.88685416666667  C 0.728724137931034 8.84904166666667  0.784724137931036 8.81145833333334  0.839517241379311 8.77158333333334  C 0.836148446971225 8.76032656521731  0.834439651637679 8.74868074300222  0.834439651637679 8.73697842410207  C 0.834439651637679 8.66705112062089  0.89414788370766 8.61036384076874  0.967801720603196 8.61036384076874  C 0.994235947921793 8.61036384076874  1.02007389509367 8.61782215186323  1.04203448275862 8.63179166666667  C 1.09013728976863 8.66187683985546  1.11977364639203 8.71233510697163  1.12144827586207 8.767  C 1.12410344827586 8.85225  1.06158620689655 8.92902083333334  1.00727586206897 8.96866666666667  C 0.947964203853454 9.0113491195188  0.887768506535567 9.05291281528591  0.826724137931036 9.09333333333333  C 0.72896551724138 9.15910416666667  0.637000000000001 9.22097916666667  0.552517241379311 9.2915625  C 0.403827586206897 9.416  0.311862068965518 9.54502083333333  0.27903448275862 9.67472916666667  C 0.262862068965517 9.73820833333333  0.265517241379311 9.79275  0.286275862068965 9.8285  C 0.317172413793103 9.88189583333334  0.394413793103448 9.91375  0.483724137931034 9.95041666666667  C 0.525724137931034 9.96783333333333  0.567965517241378 9.98525  0.607068965517242 10.0054166666667  C 0.632896551724138 10.0187083333333  0.711827586206896 10.0588125  0.736689655172414 10.1442916666667  C 0.754793103448276 10.2063958333333  0.735724137931035 10.2607083333333  0.717137931034482 10.3010416666667  C 0.697103448275862 10.3452708333333  0.672241379310344 10.3897291666667  0.647137931034482 10.4346458333333  C 0.584379310344827 10.5471666666667  0.530068965517241 10.6443333333333  0.558793103448275 10.7238541666667  C 0.563535465673538 10.7370422204742  0.565955317263081 10.7508823349131  0.565955317263081 10.7648177775185  Z M 0.896241379310343 8.84239583333333  L 0.89358620689655 8.84239583333333  L 0.896241379310343 8.84239583333333  Z M 2.73386206896552 10.830875  C 2.70899736394928 10.8528069864053  2.67631894916114 10.8650041667459  2.64237931034483 10.8650208333333  C 2.60553633159721 10.8650946676068  2.57031177623637 10.850655534248  2.54510344827586 10.8251458333333  C 2.45313793103448 10.7323333333333  2.42344827586207 10.6147708333333  2.39737931034483 10.5107291666667  C 2.3751724137931 10.4227291666667  2.35610344827586 10.346875  2.30758620689655 10.307  C 2.27162068965517 10.2778958333333  2.21031034482759 10.2600208333333  2.14513793103448 10.241  C 2.02637931034483 10.2063958333333  1.87865517241379 10.1633125  1.81444827586207 10.0173333333333  C 1.78427586206896 9.9488125  1.78113793103448 9.86860416666667  1.80479310344827 9.779  C 1.82603448275862 9.69879166666667  1.86248275862069 9.62752083333333  1.89772413793103 9.55854166666666  C 1.94406896551724 9.46825  1.98389655172414 9.39033333333333  1.97882758620689 9.3149375  C 1.9713448275862 9.20035416666666  1.85741379310345 9.11258333333333  1.80865517241379 9.08004166666666  C 1.715 9.01770833333333  1.61844827586207 8.99364583333333  1.55086206896552 9.0165625  C 1.4818275862069 9.0399375  1.40555172413793 9.00487499999999  1.38093103448276 8.93864583333333  C 1.37597577504417 8.92520329457916  1.37344486624571 8.91106335949635  1.37344486624571 8.89682135788977  C 1.37344486624571 8.84301435801606  1.40926478518762 8.79508447723673  1.46275862068966 8.7773125  C 1.61386206896552 8.727125  1.79537931034483 8.76241666666666  1.96168965517242 8.872875  C 2.13137931034483 8.98608333333333  2.23444827586207 9.14145833333333  2.2448275862069 9.29935416666667  C 2.25424137931035 9.44097916666666  2.19196551724138 9.56220833333333  2.13741379310345 9.669  C 2.107 9.72904166666667  2.07779310344828 9.78564583333333  2.06331034482759 9.840875  C 2.051 9.88716666666667  2.05631034482759 9.91008333333333  2.06041379310345 9.91947916666667  C 2.07562068965518 9.953625  2.13186206896552 9.9721875  2.22334482758621 9.999  C 2.30758620689656 10.0235208333333  2.40317241379311 10.05125  2.48137931034483 10.1149583333333  C 2.59531034482759 10.208  2.62789655172414 10.3374791666667  2.65686206896552 10.4518333333333  C 2.67689655172414 10.5322708333333  2.69620689655173 10.608125  2.7396551724138 10.6518958333333  C 2.7900808338613 10.7028499265659  2.78748798268467 10.7829566167069  2.73386206896552 10.830875  Z " fill-rule="nonzero" fill="#474341" stroke="none" transform="matrix(1 0 0 1 1842 29 )" />
  </g>
</svg>