<?xml version="1.0" encoding="utf-8"?>
<svg version="1.1" xmlns:xlink="http://www.w3.org/1999/xlink" width="9px" height="5px" xmlns="http://www.w3.org/2000/svg">
  <g transform="matrix(1 0 0 1 -1839 -25 )">
    <path d="M 8.79908108108108 4.94526315789474  C 8.78691891891892 4.94815789473684  8.77475675675676 4.94947368421053  8.7625945945946 4.94947368421052  C 8.6714121408337 4.94923246894865  8.59313642404719 4.87921358623137  8.57578378378378 4.78236842105263  C 8.37048648648649 3.63684210526316  7.59672972972973 2.73131578947369  6.85897297297298 1.98394736842105  C 6.86310810810811 2.08447368421053  6.86578378378379 2.19131578947368  6.86797297297298 2.3021052631579  C 6.86943243243244 2.385  6.8708918918919 2.45763157894737  6.87356756756757 2.51078947368421  C 6.8767877580252 2.57223890390904  6.85438316386768 2.63201528609838  6.81251351351352 2.67368421052632  C 6.77091891891892 2.71552631578947  6.714 2.73552631578947  6.65756756756757 2.72631578947369  C 5.91494594594595 2.61657894736842  4.11786486486487 2.1871052631579  3.12348648648649 0.558947368421055  C 2.35678378378379 0.918947368421056  0.874459459459461 1.83631578947369  0.604945945945948 3.62684210526316  C 0.589922316994902 3.72655685779933  0.510304098808556 3.79978993736844  0.416918918918922 3.79978993736844  C 0.31170395938543 3.79978993736844  0.226410382216204 3.70751326031401  0.226410382216204 3.59368421052632  C 0.226410382216204 3.58257729609755  0.227240254535119 3.57148855472969  0.228891891891894 3.56052631578948  C 0.548270270270273 1.44052631578948  2.36286486486487 0.441315789473686  3.12810810810811 0.110000000000002  C 3.21495387745586 0.0725486336231154  3.31409288774542 0.108634648189901  3.36235135135136 0.195263157894738  C 4.16748648648649 1.64736842105263  5.68167567567568 2.12526315789474  6.48632432432433 2.27973684210526  C 6.48145945945946 2.04526315789474  6.47172972972973 1.64973684210526  6.41991891891892 1.52473684210527  C 6.38048914833973 1.48572649006575  6.35803098764252 1.43058257093356  6.35803098764252 1.3727767985569  C 6.35803098764252 1.25904974151938  6.44324814032675 1.16685574592532  6.54836882548036 1.16685574592532  C 6.6231293969242 1.16685574592532  6.6909669665714 1.21420455053062  6.72178378378379 1.28789473684211  C 7.59575675675676 2.14684210526316  8.6832972972973 3.21605263157895  8.94989189189189 4.70368421052632  C 8.96983783783784 4.81552631578948  8.90245945945946 4.92342105263158  8.79908108108108 4.94526315789474  Z " fill-rule="nonzero" fill="#474341" stroke="none" transform="matrix(1 0 0 1 1839 25 )" />
  </g>
</svg>