<?xml version="1.0" encoding="utf-8"?>
<svg version="1.1" xmlns:xlink="http://www.w3.org/1999/xlink" width="27px" height="26px" xmlns="http://www.w3.org/2000/svg">
  <g transform="matrix(1 0 0 1 -28 -194 )">
    <path d="M 12 2  L 12 13.90625  L 20.53125 22.4375  C 19.4270833333333 23.5625  18.1380208333333 24.4375  16.6640625 25.0625  C 15.1901041666667 25.6875  13.6354166666667 26  12 26  C 9.82291666666667 26  7.81510416666667 25.4635416666667  5.9765625 24.390625  C 4.13802083333333 23.3177083333333  2.68229166666667 21.8619791666667  1.609375 20.0234375  C 0.536458333333333 18.1848958333333  0 16.1770833333333  0 14  C 0 11.8229166666667  0.536458333333333 9.81510416666666  1.609375 7.9765625  C 2.68229166666667 6.13802083333333  4.13802083333333 4.68229166666667  5.9765625 3.609375  C 7.81510416666667 2.53645833333333  9.82291666666667 2  12 2  Z M 23.4375 22.53125  L 14.921875 14  L 27 14  C 27 15.6354166666667  26.6875 17.1901041666667  26.0625 18.6640625  C 25.4375 20.1380208333333  24.5625 21.4270833333333  23.4375 22.53125  Z M 24.390625 5.9765625  C 25.4635416666667 7.81510416666666  26 9.82291666666666  26 12  L 14 12  L 14 0  C 16.1770833333333 0  18.1848958333333 0.536458333333335  20.0234375 1.609375  C 21.8619791666667 2.68229166666666  23.3177083333333 4.13802083333333  24.390625 5.9765625  Z " fill-rule="nonzero" fill="#ffffff" stroke="none" transform="matrix(1 0 0 1 28 194 )" />
  </g>
</svg>