<?xml version="1.0" encoding="utf-8"?>
<svg version="1.1" xmlns:xlink="http://www.w3.org/1999/xlink" width="37px" height="23px" xmlns="http://www.w3.org/2000/svg">
  <g transform="matrix(1 0 0 1 -26 -20 )">
    <path d="M 28.2482553507478 9.75435747297016  C 28.9217422728841 9.56878664518136  29.6149301376044 9.4747114378344  30.3110027270345 9.47441404492577  C 32.0808065843708 9.47441404492577  33.5931844426974 10.0874708846509  34.8484398446633 11.3132642899051  C 36.1039988100315 12.5393779912529  36.7317783030925 14.0608095521109  36.7317783030925 15.8775589943768  C 36.7317783030925 17.8317177381214  36.0800169069198 19.459169057749  34.7767976987305 20.7595926790634  C 33.4735784905412 22.0603365964714  31.8771121999991 22.7105484180774  29.9880059331554 22.7105484180774  C 28.9716588720996 22.7105484180774  28.0032756380209 22.5395074793371  27.0825526260095 22.1971052838654  C 26.1618296139982 21.8550234063848  25.3370342351874 21.3976330301389  24.6075593420187 20.8249341551278  C 23.8780844488499 20.2525555762102  23.1725914380393 19.5927347404124  22.491080351094 18.8461122180239  C 21.8053285346945 18.0943022658402  21.1529684579689 17.3093623684206  20.536099746732 16.4938188607301  C 19.9140561790803 15.671994048085  19.2952771336355 14.8474242946985  18.6797788876999 14.0201312913034  C 18.0692757345394 13.1988508246305  17.4198228004888 12.410651389515  16.7339053514402 11.6585491940139  C 16.0520906803388 10.9119266716254  15.3526690620988 10.2524261319211  14.6353368918103 9.67972723501235  C 13.9180047215218 9.10734865609473  13.1047449387864 8.64995827984886  12.196164670409 8.30755610627473  C 11.2872808386291 7.96547422879415  10.3368081150915 7.79411299396031  9.34444297790106 7.79411299396031  C 7.50299697463202 7.79411299396031  5.9991190368491 8.36360884234328  4.83341631211082 9.50260058290441  C 3.66771358737254 10.6412720054744  3.08486224575703 12.1627035663325  3.08486224575703 14.0668952873762  C 3.08486224575703 16.0207337350272  3.70657036700102 17.5767578433251  4.95029015213781 18.7340067458868  C 6.19370637387216 19.891575944542  7.76619078205617 20.4700402368272  9.66713618762407 20.4700402368272  C 10.8628921665374 20.4700402368272  12.1063084090254 20.2368608267531  13.3979920211393 19.7701817105114  C 14.6890684856946 19.3035025942697  15.8429320509551 18.6907660506382  16.8592790912573 17.9316517616257  C 16.9190820777122 17.8816847389248  17.0444558175293 17.7663762401595  17.2357039363719 17.5857262872274  C 17.4272555978633 17.4053966084913  17.6066645364744 17.2561361544732  17.7739307314517 17.1379449470709  C 17.9415004898313 17.019433443575  18.072945622219 16.9604979769718  18.1685696712635 16.9604979769718  C 18.3361394296432 16.9604979769718  18.482459417794 17.0258394530362  18.6081367417671 17.1565224270626  C 18.7335105023379 17.2872054010889  18.7963491643244 17.4396688598376  18.7963491643244 17.6139128033084  C 18.7963491643244 17.9127539855405  18.4375312871022 18.3919248684062  17.7201991168137 19.0514254081104  C 16.5126039576689 20.1468561354318  15.1107250249035 21.0302473452144  13.5142587343614 21.7025599476362  C 11.9180960072217 22.3742319578709  10.3607900182033 22.7105484180774  8.84234080881328 22.7105484180774  C 7.25164230593205 22.7105484180774  5.78419259905084 22.3495687645116  4.43908093570142 21.627929731576  C 3.09396929310564 20.9059704244444  2.01781924559489 19.8790841779179  1.21063083467645 18.5472710357919  C 0.403442423758003 17.2157781897593  0 15.7158067956324  0 14.0483178073845  C 0 11.4967969952694  0.846045169793296 9.37512063550624  2.53783194597745 7.68232781791675  C 4.22992228556404 5.98953500032727  6.30724095421142 5.1432987505281  8.77039509947809 5.1432987505281  C 10.2053630034575 5.1432987505281  11.5592781299994 5.41395341667906  12.8327476266625 5.95526274898099  C 14.1062171233255 6.49657208128291  15.2151525578941 7.19995393032043  16.1598574730172 8.06508797810241  C 17.1251222630213 8.95183430426323  18.032813363122 9.90602689160888  18.8767947942034 10.9212154116212  C 19.7302187503383 11.9435105200854  20.5615027040171 12.9861474237343  21.3700021936451 14.0483178073845  C 22.1653514450857 15.093781512005  22.9634328086555 16.0489202511083  23.764549847757 16.9140542769926  C 24.5656668868585 17.7788680067835  25.4593723202265 18.482249855821  26.4456661063536 19.0235591881229  C 27.4322634558832 19.5648685204249  28.4634853727021 19.8355231865758  29.5396353994592 19.8355231865758  C 30.7593733022379 19.8355231865758  31.7666132951915 19.4527630263902  32.5616589624761 18.6875630459076  C 33.3570082139167 17.9220427474339  33.7546828292602 16.9108512722621  33.7546828500138 15.6536683461962  C 33.7546828500138 14.4714359322841  33.3691509575506 13.4820249637321  32.5977836092217 12.6854354186427  C 31.8267198242953 11.8888458735533  30.8729078618236 11.4907112600042  29.7369548693652 11.4907112600042  C 29.3781369921429 11.4907112600042  28.8909096995719 11.6060197587694  28.2752729293912 11.8359961422153  C 27.6593326165617 12.0662928436524  27.2498188209868 12.1812810244265  27.04673156342 12.1812810463241  C 26.8075196591075 12.1812810463241  26.5953253334385 12.0880733502722  26.4098450230104 11.9013376401773  C 26.2246682967384 11.7146019300824  26.1320799232256 11.4967969952694  26.1320799232256 11.2479228138407  C 26.1320799232256 11.0237118476689  26.1827758415783 10.6691382254619  26.2844712624397 10.1838816073309  C 26.3861666833011 9.69862501109755  26.4368626016538 9.33123932617297  26.4368626224074 9.08236516664187  C 26.4368626224074 7.10354322953794  25.794208294337 5.46680314801701  24.5088995966889 4.1724652619678  C 23.223287356392 2.87844767201214  21.6301603047839 2.23111858094076  19.7289113358136 2.23111858094076  C 19.0355610686369 2.23111858094076  18.3689248374547 2.3461067836125  17.7293061849159 2.57640346315194  C 17.0893839689747 2.80670016458897  16.5872817998869 3.05877735074826  16.2226961350038 3.33231472553628  C 15.8893585756936 3.58217249580922  15.5574510834882 3.83414749181649  15.2269917381256 4.08822598792062  C 14.9282804107607 4.31884298545119  14.7309609408548 4.43415148421647  14.6350333284079 4.43415148421647  C 14.4559279531992 4.43415148421647  14.303536613985 4.36848969016096  14.1778592900119 4.23780673803219  C 14.0550038752802 4.11375423582772  13.9867846245933 3.94123549310942  13.9896468674546 3.76183888179465  C 13.9896468674546 3.52545646698997  14.139002531137 3.23910702948439  14.4380174219044 2.90311088726904  C 15.1435104119614 2.06904608610276  16.0223409895662 1.42524029585552  17.0745091132116 0.970732628246701  C 18.1098434438735 0.520004723821528  19.2190837318575 0.288518405628658  20.3390838402286 0.289451581922585  C 22.6228290261305 0.289451581922585  24.5240780158544 1.07034635565737  26.042527245998 2.63245619922049  C 27.560976455388 4.19424574669007  28.3205046442391 6.15769323043051  28.3205046234854 8.52247833245069  C 28.3205046234854 8.98275141733361  28.2962191569713 9.39369809360031  28.2485589141502 9.75435747297016  Z " fill-rule="nonzero" fill="#02a7f0" stroke="none" transform="matrix(1 0 0 1 26 20 )" />
  </g>
</svg>