<?xml version="1.0" encoding="utf-8"?>
<svg version="1.1" xmlns:xlink="http://www.w3.org/1999/xlink" width="6px" height="3px" xmlns="http://www.w3.org/2000/svg">
  <g transform="matrix(1 0 0 1 -1840 -35 )">
    <path d="M 4.61742857142857 1.74354545454546  L 3.41828571428571 2.15781818181818  L 3.25542857142857 2.79845454545455  L 3.66985714285714 2.72318181818182  L 4.51371428571428 2.47827272727273  L 5.03185714285714 2.10136363636364  L 5.47607142857143 1.49836363636364  L 5.77221428571429 1.53600000000001  L 5.86092857142857 1.21581818181819  L 5.49085714285714 0.914454545454548  L 5.17992857142857 0.726000000000002  L 5.01707142857143 0.367909090909092  L 4.63221428571428 0.292636363636366  L 4.49892857142857 0.42436363636364  L 4.70614285714285 0.895363636363641  L 4.82464285714285 1.38545454545455  L 4.61742857142857 1.74354545454546  Z M 1.37528571428571 0.914454545454548  L 1.56792857142857 0.236181818181818  L 1.16807142857143 0.254727272727272  L 0.768428571428571 0.537545454545456  L 0.250285714285714 0.782454545454545  L 0.0726428571428568 1.34754545454546  L 0.0726428571428568 1.78090909090909  L 0.724071428571428 1.536  L 1.257 2.19545454545455  L 2.32285714285714 2.742  L 2.70771428571429 2.81727272727273  L 2.67814285714286 2.17663636363637  L 2.14521428571429 2.04490909090909  L 1.70121428571429 1.81881818181818  L 1.30135714285714 1.536  L 1.37528571428571 0.914454545454548  Z " fill-rule="nonzero" fill="#3ab394" stroke="none" transform="matrix(1 0 0 1 1840 35 )" />
  </g>
</svg>