<?xml version="1.0" encoding="utf-8"?>
<svg version="1.1" xmlns:xlink="http://www.w3.org/1999/xlink" width="15px" height="15px" xmlns="http://www.w3.org/2000/svg">
  <g transform="matrix(1 0 0 1 -1603 -24 )">
    <path d="M 13.6029424778761 3.28592920353982  C 13.4822455752212 3.40662610619469  13.1484457964602 3.66668694690265  13.0380696902655 3.77706305309735  C 13.7700995575221 4.85029314159292  14.199142699115 6.14663163716814  14.199142699115 7.54380530973451  C 14.199142699115 11.2417699115044  11.2014657079646 14.2392809734513  7.50340154867257 14.2392809734513  C 3.80530420353982 14.2392809734513  0.807627212389382 11.2417699115044  0.807627212389382 7.54380530973451  C 0.807627212389382 3.84589048672566  3.80530420353982 0.848346238938053  7.50340154867257 0.848346238938053  C 9.35701327433628 0.848346238938053  11.0341095132743 1.60194690265487  12.246421460177 2.81898783185841  C 12.3867809734513 2.67864491150443  12.6448506637168 2.39910398230089  12.7618971238938 2.28204092920354  C 11.4157134955752 0.936703539823009  9.55684181415929 0.104402654867257  7.50340154867257 0.104402654867257  C 3.39484513274336 0.104402654867257  0.0636670353982327 3.43471792035398  0.0636670353982327 7.54380530973451  C 0.0636670353982327 11.6522123893805  3.39486172566372 14.9832411504425  7.50340154867257 14.9832411504425  C 11.6119247787611 14.9832411504425  14.9430862831858 11.6522123893805  14.9430862831858 7.54380530973451  C 14.9431028761062 5.95971238938053  14.4468584070796 4.49226769911504  13.6029590707965 3.28592920353982  Z M 9.68052544247788 3.20185287610619  L 8.28484513274336 5.77337389380531  C 7.91296460176991 6.46969579646018  7.6850110619469 6.93293694690265  7.60184734513274 7.16304756637168  L 7.57810287610619 7.16304756637168  C 7.33310840707964 6.60481194690265  6.63970685840708 5.2841482300885  5.49940818584071 3.20183628318584  L 4.18685840707964 3.20183628318584  L 6.62784292035398 7.39466814159292  L 4.62633849557522 7.39468473451327  L 4.62633849557522 8.32115044247787  L 6.97227876106194 8.32115044247787  L 6.97227876106194 9.59795907079646  L 4.62633849557522 9.59795907079646  L 4.62633849557522 10.5363384955752  L 6.97227876106194 10.5363384955752  L 6.97227876106194 12.3951935840708  L 8.13635508849557 12.3951935840708  L 8.13635508849557 10.5363384955752  L 10.3991814159292 10.5363384955752  L 10.3991814159292 9.59799225663717  L 8.13633849557522 9.59799225663717  L 8.13633849557522 8.32115044247787  L 10.3991648230088 8.32115044247787  L 10.3991648230088 7.39470132743363  L 8.45704646017699 7.39470132743363  L 10.9217754424779 3.20185287610619  L 9.68050884955752 3.20185287610619  Z " fill-rule="nonzero" fill="#02a7f0" stroke="none" transform="matrix(1 0 0 1 1603 24 )" />
  </g>
</svg>