<?xml version="1.0" encoding="utf-8"?>
<svg version="1.1" xmlns:xlink="http://www.w3.org/1999/xlink" width="10px" height="4px" xmlns="http://www.w3.org/2000/svg">
  <g transform="matrix(1 0 0 1 -1851 -90 )">
    <path d="M 7.18119202389834 3.9  C 7.14038485434459 3.9  7.09958357752261 3.8992590453578  7.05882352941177 3.89777777777778  L 2.9 3.89777777777778  C 2.85923995188919 3.8992590453578  2.81843867506714 3.9  2.77763150551342 3.9  C 1.37092976035617 3.9  0.230572681984011 3.03839687411882  0.230572681984011 1.97555555555556  C 0.230572681984011 0.912714236992298  1.37092976035617 0.051111111111112  2.77763150551342 0.051111111111112  C 2.81843867506714 0.051111111111112  2.85923995188919 0.0518520657533135  2.9 0.0533333333333354  L 7.05882352941177 0.0533333333333338  C 7.09958357752261 0.051852065753312  7.14038485434459 0.051111111111112  7.18119202389834 0.051111111111112  C 8.5878937690556 0.051111111111112  9.72825084742775 0.912714236992298  9.72825084742775 1.97555555555556  C 9.72825084742775 3.03839687411882  8.5878937690556 3.9  7.18119202389834 3.9  Z M 7.05882352941177 1.05777777777778  L 2.9 1.05777777777778  C 2.87184886599242 1.05629674387383  2.84363809747409 1.05555555555556  2.81541880091443 1.05555555555556  C 2.14293089964987 1.05555555555556  1.5977717420909 1.46745358571123  1.5977717420909 1.97555555555556  C 1.5977717420909 2.48365752539989  2.14293089964987 2.89555555555556  2.81541880091443 2.89555555555556  C 2.84363809747409 2.89555555555556  2.87184886599242 2.89481436723729  2.9 2.89333333333334  L 7.05882352941177 2.89333333333334  C 7.08697466341938 2.89481436723729  7.11518543193766 2.89555555555556  7.14340472849735 2.89555555555556  C 7.8158926297619 2.89555555555556  8.36105178732088 2.48365752539989  8.36105178732088 1.97555555555556  C 8.36105178732088 1.46745358571123  7.81589262976191 1.05555555555556  7.14340472849735 1.05555555555556  C 7.11518543193768 1.05555555555556  7.08697466341936 1.05629674387383  7.05882352941177 1.05777777777778  Z " fill-rule="nonzero" fill="#ffffff" stroke="none" transform="matrix(1 0 0 1 1851 90 )" />
  </g>
</svg>