<?xml version="1.0" encoding="utf-8"?>
<svg version="1.1" xmlns:xlink="http://www.w3.org/1999/xlink" width="25px" height="22px" xmlns="http://www.w3.org/2000/svg">
  <g transform="matrix(1 0 0 1 -1851 -80 )">
    <path d="M 6.70770683550942 21.9025316455696  C 6.6695902485636 21.9025316455696  6.63147916581783 21.9016031074737  6.59340659340659 21.899746835443  L 2.70879120879121 21.899746835443  C 2.67071863638003 21.9016031074737  2.63260755363414 21.9025316455696  2.59449096668838 21.9025316455696  C 1.28053878714589 21.9025316455696  0.215370087567505 20.8228011460476  0.215370087567505 19.4908860759494  C 0.215370087567505 18.1589710058511  1.28053878714589 17.0792405063291  2.59449096668838 17.0792405063291  C 2.63260755363414 17.0792405063291  2.67071863638003 17.080169044425  2.70879120879121 17.0820253164557  L 6.59340659340659 17.0820253164557  C 6.63147916581783 17.080169044425  6.6695902485636 17.0792405063291  6.70770683550942 17.0792405063291  C 8.02165901505191 17.0792405063291  9.0868277146303 18.1589710058511  9.0868277146303 19.4908860759494  C 9.0868277146303 20.8228011460476  8.02165901505191 21.9025316455696  6.70770683550942 21.9025316455696  Z M 6.59340659340659 18.3351898734177  L 2.70879120879121 18.3351898734177  C 2.6824961935094 18.3333338942216  2.65614547566263 18.3324050632911  2.62978679206294 18.3324050632911  C 2.00163875242023 18.3324050632911  1.4924241547003 18.8485810757647  1.4924241547003 19.4853164556962  C 1.4924241547003 20.1220518356277  2.00163875242023 20.6382278481013  2.62978679206294 20.6382278481013  C 2.65614547566263 20.6382278481013  2.6824961935094 20.6372990171708  2.70879120879121 20.6354430379747  L 6.59340659340659 20.6354430379747  C 6.61970160868841 20.6372990171708  6.64605232653518 20.6382278481013  6.67241101013486 20.6382278481013  C 7.30055904977758 20.6382278481013  7.8097736474975 20.1220518356277  7.8097736474975 19.4853164556962  C 7.8097736474975 18.8485810757647  7.30055904977758 18.3324050632911  6.67241101013486 18.3324050632911  C 6.64605232653518 18.3324050632911  6.61970160868841 18.3333338942216  6.59340659340659 18.3351898734177  Z M 24.3021978021978 1.31443037974684  L 13.478021978022 1.31443037974684  C 13.1351199080721 1.31443037974684  12.8571428571429 1.03265313622262  12.8571428571429 0.685063291139241  C 12.8571428571429 0.33747344605586  13.1351199080721 0.0556962025316454  13.478021978022 0.0556962025316454  C 13.478021978022 0.0556962025316454  13.478021978022 0.0556962025316454  13.478021978022 0  L 24.3021978021978 0  C 24.3021978021978 0.0556962025316454  24.3021978021978 0.0556962025316454  24.3021978021978 0.0556962025316454  C 24.6450998721477 0.0556962025316454  24.9230769230769 0.33747344605586  24.9230769230769 0.685063291139241  C 24.9230769230769 1.03265313622262  24.6450998721477 1.31443037974684  24.3021978021978 1.31443037974684  Z M 24.3021978021978 7.16253164556962  L 13.478021978022 7.16253164556962  C 13.1351199080721 7.16253164556962  12.8571428571429 6.8807544020454  12.8571428571429 6.53316455696203  C 12.8571428571429 6.18557471187864  13.1351199080721 5.90379746835443  13.478021978022 5.90379746835443  C 13.478021978022 5.90379746835443  13.478021978022 5.90379746835443  13.478021978022 6  L 24.3021978021978 6  C 24.3021978021978 5.90379746835443  24.3021978021978 5.90379746835443  24.3021978021978 5.90379746835443  C 24.6450998721477 5.90379746835443  24.9230769230769 6.18557471187864  24.9230769230769 6.53316455696203  C 24.9230769230769 6.8807544020454  24.6450998721477 7.16253164556962  24.3021978021978 7.16253164556962  Z " fill-rule="nonzero" fill="#ffffff" stroke="none" transform="matrix(1 0 0 1 1851 80 )" />
  </g>
</svg>