<?xml version="1.0" encoding="utf-8"?>
<svg version="1.1" xmlns:xlink="http://www.w3.org/1999/xlink" width="75px" height="27px" viewBox="2135 2459  75 27" xmlns="http://www.w3.org/2000/svg">
  <path d="M 2136 2464  A 4 4 0 0 1 2140 2460 L 2205 2460  A 4 4 0 0 1 2209 2464 L 2209 2481  A 4 4 0 0 1 2205 2485 L 2140 2485  A 4 4 0 0 1 2136 2481 L 2136 2464  Z " fill-rule="nonzero" fill="#81d3f8" stroke="none" fill-opacity="0.109803921568627" />
  <path d="M 2135.5 2464  A 4.5 4.5 0 0 1 2140 2459.5 L 2205 2459.5  A 4.5 4.5 0 0 1 2209.5 2464 L 2209.5 2481  A 4.5 4.5 0 0 1 2205 2485.5 L 2140 2485.5  A 4.5 4.5 0 0 1 2135.5 2481 L 2135.5 2464  Z " stroke-width="1" stroke="#81d3f8" fill="none" stroke-opacity="0.329411764705882" />
</svg>