<?xml version="1.0" encoding="utf-8"?>
<svg version="1.1" xmlns:xlink="http://www.w3.org/1999/xlink" width="30px" height="30px" xmlns="http://www.w3.org/2000/svg">
  <g transform="matrix(1 0 0 1 -2119 -2923 )">
    <path d="M 2134 2923  C 2142.4 2923  2149 2929.6  2149 2938  C 2149 2946.4  2142.4 2953  2134 2953  C 2125.6 2953  2119 2946.4  2119 2938  C 2119 2929.6  2125.6 2923  2134 2923  Z " fill-rule="nonzero" fill="#ffffff" stroke="none" fill-opacity="0.109803921568627" />
    <path d="M 2134 2923.5  C 2142.12 2923.5  2148.5 2929.88  2148.5 2938  C 2148.5 2946.12  2142.12 2952.5  2134 2952.5  C 2125.88 2952.5  2119.5 2946.12  2119.5 2938  C 2119.5 2929.88  2125.88 2923.5  2134 2923.5  Z " stroke-width="1" stroke="#81d3f8" fill="none" />
  </g>
</svg>