<?xml version="1.0" encoding="utf-8"?>
<svg version="1.1" xmlns:xlink="http://www.w3.org/1999/xlink" width="30px" height="30px" xmlns="http://www.w3.org/2000/svg">
  <g transform="matrix(1 0 0 1 -2119 -2923 )">
    <path d="M 2134 2925  C 2141.28 2925  2147 2930.72  2147 2938  C 2147 2945.28  2141.28 2951  2134 2951  C 2126.72 2951  2121 2945.28  2121 2938  C 2121 2930.72  2126.72 2925  2134 2925  Z " fill-rule="nonzero" fill="#02a7f0" stroke="none" />
    <path d="M 2134 2924.5  C 2141.56 2924.5  2147.5 2930.44  2147.5 2938  C 2147.5 2945.56  2141.56 2951.5  2134 2951.5  C 2126.44 2951.5  2120.5 2945.56  2120.5 2938  C 2120.5 2930.44  2126.44 2924.5  2134 2924.5  Z " stroke-width="3" stroke="#81d3f8" fill="none" />
  </g>
</svg>