<?xml version="1.0" encoding="utf-8"?>
<svg version="1.1" xmlns:xlink="http://www.w3.org/1999/xlink" width="30px" height="30px" xmlns="http://www.w3.org/2000/svg">
  <g transform="matrix(1 0 0 1 -2119 -3077 )">
    <path d="M 2134 3079  C 2141.28 3079  2147 3084.72  2147 3092  C 2147 3099.28  2141.28 3105  2134 3105  C 2126.72 3105  2121 3099.28  2121 3092  C 2121 3084.72  2126.72 3079  2134 3079  Z " fill-rule="nonzero" fill="#02a7f0" stroke="none" />
    <path d="M 2134 3078.5  C 2141.56 3078.5  2147.5 3084.44  2147.5 3092  C 2147.5 3099.56  2141.56 3105.5  2134 3105.5  C 2126.44 3105.5  2120.5 3099.56  2120.5 3092  C 2120.5 3084.44  2126.44 3078.5  2134 3078.5  Z " stroke-width="3" stroke="#81d3f8" fill="none" />
  </g>
</svg>