<?xml version="1.0" encoding="utf-8"?>
<svg version="1.1" xmlns:xlink="http://www.w3.org/1999/xlink" width="30px" height="30px" xmlns="http://www.w3.org/2000/svg">
  <g transform="matrix(1 0 0 1 -2119 -3077 )">
    <path d="M 2134 3077  C 2142.4 3077  2149 3083.6  2149 3092  C 2149 3100.4  2142.4 3107  2134 3107  C 2125.6 3107  2119 3100.4  2119 3092  C 2119 3083.6  2125.6 3077  2134 3077  Z " fill-rule="nonzero" fill="#ffffff" stroke="none" fill-opacity="0.109803921568627" />
    <path d="M 2134 3077.5  C 2142.12 3077.5  2148.5 3083.88  2148.5 3092  C 2148.5 3100.12  2142.12 3106.5  2134 3106.5  C 2125.88 3106.5  2119.5 3100.12  2119.5 3092  C 2119.5 3083.88  2125.88 3077.5  2134 3077.5  Z " stroke-width="1" stroke="#81d3f8" fill="none" />
  </g>
</svg>