<?xml version="1.0" encoding="utf-8"?>
<svg version="1.1" xmlns:xlink="http://www.w3.org/1999/xlink" width="35px" height="38px" xmlns="http://www.w3.org/2000/svg">
  <g transform="matrix(1 0 0 1 -3439 -1629 )">
    <path d="M 10 29.6875  C 9.33333333333333 30.3433381404241  9.85566779186407 30.875  10.5 30.875  C 11.1443322081359 30.875  11.6666666666667 30.3433381404241  12 29.6875  L 12 16.625  C 11.6666666666667 16.625  11.6666666666667 16.625  11.6666666666667 16.625  C 11.6666666666667 15.9691618595759  11.1443322081359 15.4375  10.5 15.4375  C 9.85566779186407 15.4375  9.33333333333333 15.9691618595759  9.33333333333333 16.625  C 9.33333333333333 16.625  9.33333333333333 16.625  10 16.625  L 10 29.6875  Z M 17 29.6875  C 16.3333333333333 30.3433381404241  16.8556677918641 30.875  17.5 30.875  C 18.1443322081359 30.875  18.6666666666667 30.3433381404241  18 29.6875  L 18 16.625  C 18.6666666666667 16.625  18.6666666666667 16.625  18.6666666666667 16.625  C 18.6666666666667 15.9691618595759  18.1443322081359 15.4375  17.5 15.4375  C 16.8556677918641 15.4375  16.3333333333333 15.9691618595759  16.3333333333333 16.625  C 16.3333333333333 16.625  16.3333333333333 16.625  17 16.625  L 17 29.6875  Z M 23 29.6875  C 23.3333333333333 30.3433381404241  23.8556677918641 30.875  24.5 30.875  C 25.1443322081359 30.875  25.6666666666667 30.3433381404241  25 29.6875  L 25 16.625  C 25.6666666666667 16.625  25.6666666666667 16.625  25.6666666666667 16.625  C 25.6666666666667 15.9691618595759  25.1443322081359 15.4375  24.5 15.4375  C 23.8556677918641 15.4375  23.3333333333333 15.9691618595759  23.3333333333333 16.625  C 23.3333333333333 16.625  23.3333333333333 16.625  23 16.625  L 23 29.6875  Z M 35 8.3125  C 35 5.68914743830373  32.910662165877 3.5625  30.3333333333333 3.5625  L 25.5005260416667 3.5625  C 24.9702119357217 1.47185946950088  23.1213035719801 0.00831143426049824  21 0  L 14 0  C 11.8780034435668 0.00745273952398139  10.0281042482203 1.47118035800518  9.49761458333333 3.5625  L 4.66666666666667 3.5625  C 2.08933783412296 3.5625  0 5.68914743830373  0 8.3125  L 0 9.5  L 1.16666666666667 9.5  L 1.16666666666667 10.6875  L 4 10.6875  L 4 33.25  C 3.5 35.8733525616963  5.58933783412296 38  8.16666666666667 38  L 26.8333333333333 38  C 29.410662165877 38  31.5 35.8733525616963  31 33.25  L 31 10.6875  L 33.8333333333333 10.6875  L 33.8333333333333 9.5  L 35 9.5  L 35 8.3125  Z M 11.9951927083333 4  C 12.4080279312942 2.83152853853325  13.171657379686 2.37921076528163  14 2.375  L 21 2.375  C 21.8296731288029 2.37786400145083  22.5950249138439 2.83036261281164  23.0085260416667 4  L 11.9951927083333 4  Z M 29 11  L 29 33.25  C 29.1656413259562 34.5612437434156  28.1215728005487 35.623956349634  26.8333333333333 35  L 8.16666666666667 35  C 6.88052604166667 35.625  5.67094791666667 34.561  5.67094791666667 33.25  L 5.83333333333333 11  L 29 11  Z M 32.6666666666667 9  L 2.33333333333333 9  C 2.33435867404382 7.00125625658436  3.3784271994513 5.93854365036603  4.66666666666667 6  L 30.3333333333333 6  C 31.6215728005487 5.93854365036603  32.6656413259562 7.00125625658436  32.6666666666667 9  Z " fill-rule="nonzero" fill="#ec808d" stroke="none" transform="matrix(1 0 0 1 3439 1629 )" />
  </g>
</svg>