<?xml version="1.0" encoding="utf-8"?>
<svg version="1.1" xmlns:xlink="http://www.w3.org/1999/xlink" width="27px" height="27px" xmlns="http://www.w3.org/2000/svg">
  <g transform="matrix(1 0 0 1 -3056 -2970 )">
    <path d="M 3069.5 2972  C 3075.94 2972  3081 2977.06  3081 2983.5  C 3081 2989.94  3075.94 2995  3069.5 2995  C 3063.06 2995  3058 2989.94  3058 2983.5  C 3058 2977.06  3063.06 2972  3069.5 2972  Z " fill-rule="nonzero" fill="#02a7f0" stroke="none" />
    <path d="M 3069.5 2971.5  C 3076.22 2971.5  3081.5 2976.78  3081.5 2983.5  C 3081.5 2990.22  3076.22 2995.5  3069.5 2995.5  C 3062.78 2995.5  3057.5 2990.22  3057.5 2983.5  C 3057.5 2976.78  3062.78 2971.5  3069.5 2971.5  Z " stroke-width="3" stroke="#ffffff" fill="none" />
  </g>
</svg>