<?xml version="1.0" encoding="utf-8"?>
<svg version="1.1" xmlns:xlink="http://www.w3.org/1999/xlink" width="27px" height="27px" xmlns="http://www.w3.org/2000/svg">
  <g transform="matrix(1 0 0 1 -3056 -2970 )">
    <path d="M 3069.5 2970  C 3077.06 2970  3083 2975.94  3083 2983.5  C 3083 2991.06  3077.06 2997  3069.5 2997  C 3061.94 2997  3056 2991.06  3056 2983.5  C 3056 2975.94  3061.94 2970  3069.5 2970  Z " fill-rule="nonzero" fill="#ffffff" stroke="none" fill-opacity="0.109803921568627" />
    <path d="M 3069.5 2970.5  C 3076.78 2970.5  3082.5 2976.22  3082.5 2983.5  C 3082.5 2990.78  3076.78 2996.5  3069.5 2996.5  C 3062.22 2996.5  3056.5 2990.78  3056.5 2983.5  C 3056.5 2976.22  3062.22 2970.5  3069.5 2970.5  Z " stroke-width="1" stroke="#ffffff" fill="none" />
  </g>
</svg>