<?xml version="1.0" encoding="utf-8"?>
<svg version="1.1" xmlns:xlink="http://www.w3.org/1999/xlink" width="88px" height="88px" xmlns="http://www.w3.org/2000/svg">
  <g transform="matrix(1 0 0 1 -4485 -1784 )">
    <path d="M 87 76.8270094339623  L 87 11.1258773584906  C 87.7716981132075 5.07629245283019  82.8674622641509 0.17216037735849  76.8179811320755 1  L 11.1168490566038 1  C 5.06726415094339 0.17216037735849  0.163132075471695 5.07629245283019  1 11.1258773584906  L 1 76.8270094339623  C 0.163132075471695 82.8764905660377  5.06726415094339 87.7807264150943  11.1168490566038 87  L 76.8179811320755 87  C 82.8674622641509 87.7807264150943  87.7716981132075 82.8764905660377  87 76.8270094339623  Z M 71 12  L 71 22  L 60 22  L 60 33  L 71 33  L 71 44  L 60 44  L 60 76  L 49 76  L 49 44  L 39 44  L 39 33  L 49 33  L 49 18.6688679245283  C 49.436179245283 14.991858490566  53.486358490566 11.11  57.6119811320755 12  L 71 12  Z " fill-rule="nonzero" fill="#425f9b" stroke="none" transform="matrix(1 0 0 1 4485 1784 )" />
  </g>
</svg>