<?xml version="1.0" encoding="utf-8"?>
<svg version="1.1" xmlns:xlink="http://www.w3.org/1999/xlink" width="89px" height="89px" xmlns="http://www.w3.org/2000/svg">
  <defs>
    <filter x="1852px" y="313px" width="89px" height="89px" filterUnits="userSpaceOnUse" id="filter170">
      <feOffset dx="5" dy="5" in="SourceAlpha" result="shadowOffsetInner" />
      <feGaussianBlur stdDeviation="2.5" in="shadowOffsetInner" result="shadowGaussian" />
      <feComposite in2="shadowGaussian" operator="atop" in="SourceAlpha" result="shadowComposite" />
      <feColorMatrix type="matrix" values="0 0 0 0 0  0 0 0 0 0  0 0 0 0 0  0 0 0 0.349019607843137 0  " in="shadowComposite" />
    </filter>
    <g id="widget171">
      <path d="M 1891.5 313  C 1913.62 313  1931 330.38  1931 352.5  C 1931 374.62  1913.62 392  1891.5 392  C 1869.38 392  1852 374.62  1852 352.5  C 1852 330.38  1869.38 313  1891.5 313  Z " fill-rule="nonzero" fill="#ffffff" stroke="none" />
      <path d="M 1891.5 313.5  C 1913.34 313.5  1930.5 330.66  1930.5 352.5  C 1930.5 374.34  1913.34 391.5  1891.5 391.5  C 1869.66 391.5  1852.5 374.34  1852.5 352.5  C 1852.5 330.66  1869.66 313.5  1891.5 313.5  Z " stroke-width="1" stroke="#797979" fill="none" />
    </g>
  </defs>
  <g transform="matrix(1 0 0 1 -1852 -313 )">
    <use xlink:href="#widget171" filter="url(#filter170)" />
    <use xlink:href="#widget171" />
  </g>
</svg>