<?xml version="1.0" encoding="utf-8"?>
<svg version="1.1" xmlns:xlink="http://www.w3.org/1999/xlink" width="39px" height="39px" xmlns="http://www.w3.org/2000/svg">
  <g transform="matrix(1 0 0 1 -900 -313 )">
    <path d="M 19.8499038681402 0.0720623094512195  C 9.35283798589939 0.0720623094512195  0.81291368140244 8.61206464367378  0.81291368140244 19.109052496189  C 0.81291368140244 29.6060403487043  9.352916015625 38.1460426829268  19.8499038681402 38.1460426829268  C 30.3468917206555 38.1460426829268  38.886894054878 29.6065865567835  38.886894054878 19.1095206745427  C 38.886894054878 8.61245479230183  30.3468917206555 0.0719842797256097  19.8499038681402 0.0719842797256097  Z M 26.8126133288872 29.0734484565549  C 20.0720544969512 29.0734484565549  10.0544032488567 18.3814253048781  10.0544032488567 12.7653528487043  C 10.0544032488567 10.5200865091463  11.9901646817835 9.00084775152439  13.6058091653963 9.00084775152439  C 15.3141529630335 9.00084775152439  18.225754144436 13.9276056116616  18.225754144436 14.9695755525915  C 18.225754144436 15.7036011814024  17.9087973990091 16.222967035061  17.654693597561 16.6406211413872  C 17.4570443025915 16.9644835175305  17.3404288776677 17.1668926257622  17.3276320026677 17.4002405201982  C 17.5897338509909 18.2200208174543  20.6568872903963 21.2781618235518  21.5230562595274 21.5860281059451  C 21.7532049352134 21.5658184070122  22.0445289157774 21.4139725609756  22.3524732278963 21.2536604897104  C 22.8350870807927 21.0022096989329  23.4359549828506 20.6889983803354  24.1700196265244 20.6889983803354  C 25.3435086699695 20.6889983803354  30.3635510670732 23.9633987709604  30.3635510670732 25.3094895674543  C 30.3640972751524 27.8690206269055  28.9055656440549 29.0734484565549  26.8126913586128 29.0734484565549  Z " fill-rule="nonzero" fill="#d7d7d7" stroke="none" transform="matrix(1 0 0 1 900 313 )" />
  </g>
</svg>