<?xml version="1.0" encoding="utf-8"?>
<svg version="1.1" xmlns:xlink="http://www.w3.org/1999/xlink" width="31px" height="24px" xmlns="http://www.w3.org/2000/svg">
  <g transform="matrix(1 0 0 1 -93 -434 )">
    <path d="M 27.3826641269841 23.91712  C 23.3894704761905 23.848  19.3937574603175 23.89792  15.3980444444444 23.89792  C 11.4955479365079 23.89792  7.59179174603175 23.84032  3.69055492063492 23.91968  C 1.30975492063492 23.96832  0.366252698412699 22.95328  0.406562539682539 20.52512  C 0.501038730158729 14.76768  0.488441904761906 9.0064  0.412860952380951 3.24768  C 0.382628571428571 0.905280000000001  1.41556825396825 0.0592000000000041  3.61497396825397 0.0720000000000027  C 11.5119238095238 0.118080000000003  19.4101333333333 0.128320000000002  27.3083428571429 0.0668800000000012  C 29.6891428571429 0.048960000000001  30.6313853968254 1.032  30.5910755555556 3.46016  C 30.4965993650794 9.2176  30.5142349206349 14.97888  30.5822577777778 20.7376  C 30.6099707936508 23.0608  29.6022247619048 23.9568  27.3826641269841 23.91712  Z " fill-rule="nonzero" fill="#5cdcc8" stroke="none" transform="matrix(1 0 0 1 93 434 )" />
  </g>
</svg>