<?xml version="1.0" encoding="utf-8"?>
<svg version="1.1" xmlns:xlink="http://www.w3.org/1999/xlink" width="15px" height="13px" xmlns="http://www.w3.org/2000/svg">
  <g transform="matrix(1 0 0 1 -212 -430 )">
    <path d="M 5.44480263157894 7.9914053030303  L 8.65347039473684 4.0339393939394  C 8.82409539473684 3.82352651515151  9.133125 3.79097727272727  9.34376644736842 3.96110984848485  C 9.45899563490255 4.05403707975452  9.52596104348577 4.19396473672759  9.52596104348577 4.34181480477843  C 9.52596104348577 4.45407214138172  9.48729636716309 4.56291816512944  9.41644736842105 4.65010984848485  L 6.20787828947368 8.60757575757576  C 6.11474353769799 8.72257408624487  5.97451787129638 8.78940319284964  5.82635481000885 8.78940319284964  C 5.71393979478005 8.78940319284964  5.60493515313712 8.75087198926508  5.5175822368421 8.68025757575758  C 5.30694078947368 8.510125  5.274375 8.20167045454546  5.44480263157894 7.9914053030303  Z M 2.9808552631579 6.02796212121212  L 4.27963815789474 1.78287121212121  C 4.35907894736842 1.52493939393939  4.63302631578948 1.38036363636364  4.89157894736843 1.45993939393939  C 5.15003289473685 1.53956439393939  5.29480263157895 1.81310606060606  5.21501644736842 2.07079166666667  L 3.9163322368421 6.31563636363636  C 3.83694078947368 6.57361742424242  3.56299342105263 6.71819318181818  3.30429276315789 6.6384696969697  C 3.04598684210526 6.55899242424242  2.90106907894737 6.28559848484848  2.9808552631579 6.02796212121212  Z M 8.16922697368421 9.74980303030303  L 12.0583717105263 7.59677651515152  C 12.2942269736842 7.46515151515152  12.5926480263158 7.54950378787879  12.7242434210526 7.78483333333334  C 12.8558881578947 8.02026136363637  12.7718585526316 8.31822727272727  12.5356578947368 8.44960606060606  L 8.64671052631579 10.6030757575758  C 8.41050986842105 10.7344053030303  8.11223684210526 10.6499053030303  7.98059210526316 10.4145265151515  C 7.84899671052631 10.1790984848485  7.93332236842106 9.88142803030303  8.16922697368421 9.74980303030303  Z M 0.229736842105261 3.79555681818182  L 0.558207236842105 0.663738636363637  C 0.586430921052631 0.395712121212121  0.827023026315788 0.200958333333334  1.09583881578947 0.228977272727273  C 1.36460526315789 0.257291666666666  1.55990131578947 0.497250000000001  1.5313322368421 0.765375  L 1.20300986842105 3.89729166666667  C 1.17503289473684 4.16546590909091  0.934144736842106 4.36012121212121  0.665526315789471 4.33225  C 0.396611842105258 4.30373863636364  0.201661184210526 4.06373106060606  0.229736842105261 3.79555681818182  Z M 11.1054276315789 11.893571969697  L 14.1059210526316 10.9194583333333  C 14.3630427631579 10.8358939393939  14.6392105263158 10.9765795454545  14.7226480263158 11.2327386363636  C 14.8063322368421 11.4892916666667  14.6656085526316 11.7647045454545  14.4085855263158 11.848071969697  L 11.4081414473684 12.8221856060606  C 11.1514638157895 12.9057992424242  10.8752467105263 12.7653106060606  10.7917105263158 12.5092007575758  C 10.7080756578947 12.2526477272727  10.8488486842105 11.9772348484848  11.1054276315789 11.893571969697  Z " fill-rule="nonzero" fill="#ffffff" stroke="none" transform="matrix(1 0 0 1 212 430 )" />
  </g>
</svg>