<?xml version="1.0" encoding="utf-8"?>
<svg version="1.1" xmlns:xlink="http://www.w3.org/1999/xlink" width="102px" height="127px" xmlns="http://www.w3.org/2000/svg">
  <defs>
    <filter x="625px" y="1548px" width="102px" height="127px" filterUnits="userSpaceOnUse" id="filter107">
      <feOffset dx="5" dy="5" in="SourceAlpha" result="shadowOffsetInner" />
      <feGaussianBlur stdDeviation="2.5" in="shadowOffsetInner" result="shadowGaussian" />
      <feComposite in2="shadowGaussian" operator="atop" in="SourceAlpha" result="shadowComposite" />
      <feColorMatrix type="matrix" values="0 0 0 0 0  0 0 0 0 0  0 0 0 0 0  0 0 0 0.349019607843137 0  " in="shadowComposite" />
    </filter>
    <g id="widget108">
      <path d="M 625.5 1553  A 4.5 4.5 0 0 1 630 1548.5 L 712 1548.5  A 4.5 4.5 0 0 1 716.5 1553 L 716.5 1660  A 4.5 4.5 0 0 1 712 1664.5 L 630 1664.5  A 4.5 4.5 0 0 1 625.5 1660 L 625.5 1553  Z " fill-rule="nonzero" fill="#f0f0f0" stroke="none" />
      <path d="M 625.5 1553  A 4.5 4.5 0 0 1 630 1548.5 L 712 1548.5  A 4.5 4.5 0 0 1 716.5 1553 L 716.5 1660  A 4.5 4.5 0 0 1 712 1664.5 L 630 1664.5  A 4.5 4.5 0 0 1 625.5 1660 L 625.5 1553  Z " stroke-width="1" stroke="#02a7f0" fill="none" />
    </g>
  </defs>
  <g transform="matrix(1 0 0 1 -625 -1548 )">
    <use xlink:href="#widget108" filter="url(#filter107)" />
    <use xlink:href="#widget108" />
  </g>
</svg>