<?xml version="1.0" encoding="utf-8"?>
<svg version="1.1" xmlns:xlink="http://www.w3.org/1999/xlink" width="26px" height="24px" xmlns="http://www.w3.org/2000/svg">
  <g transform="matrix(1 0 0 1 -268 -670 )">
    <path d="M 13.1441824776786 13  L 9.84974888392857 17.23828125  C 9.51513671875 17.6412259615385  9.572265625 18.2388822115385  9.97760881696429 18.5715144230769  C 10.1544363839286 18.7175480769231  10.3693498883929 18.7878605769231  10.5842633928571 18.7878605769231  C 10.8590262276786 18.7878605769231  11.1310686383929 18.6715745192308  11.3187779017857 18.4444110576923  L 15.8999720982143 12.9275841346154  C 15.9054129464286 12.9221754807692  15.9081333705357 12.9167668269231  15.91357421875 12.9113581730769  C 15.9162946428571 12.9059495192308  15.9217354910714 12.9005408653846  15.9244559151786 12.8978365384615  C 15.9380580357143 12.8816105769231  15.9489397321429 12.8653846153846  15.9598214285714 12.8491586538462  C 15.970703125 12.8329326923077  15.9815848214286 12.8140024038462  15.9924665178571 12.7950721153846  C 15.9951869419643 12.7923677884615  15.9951869419643 12.7896634615385  15.9951869419643 12.7869591346154  C 16.0169503348214 12.7490985576923  16.0359933035714 12.7085336538462  16.0523158482143 12.66796875  L 16.0523158482143 12.6652644230769  C 16.0686383928571 12.6246995192308  16.0822405133929 12.5814302884615  16.0904017857143 12.5381610576923  L 16.0904017857143 12.5354567307692  C 16.0958426339286 12.5165264423077  16.0985630580357 12.4948918269231  16.1012834821429 12.4759615384615  L 16.1012834821429 12.4705528846154  C 16.10400390625 12.4489182692308  16.1067243303571 12.4299879807692  16.1094447544643 12.4083533653846  L 16.1094447544643 12.4002403846154  C 16.1121651785714 12.3840144230769  16.1121651785714 12.3650841346154  16.1121651785714 12.3488581730769  L 16.1121651785714 12.3353365384615  L 16.1121651785714 12.2758413461538  L 16.1121651785714 12.2650240384615  C 16.1121651785714 12.2487980769231  16.1094447544643 12.2325721153846  16.1067243303571 12.2163461538462  C 16.1067243303571 12.2109375  16.1067243303571 12.2055288461538  16.10400390625 12.2001201923077  C 16.1012834821429 12.1811899038462  16.0985630580357 12.1622596153846  16.0958426339286 12.140625  L 16.0958426339286 12.1379206730769  C 16.0931222098214 12.1189903846154  16.0876813616071 12.1000600961538  16.0822405133929 12.0811298076923  C 16.0822405133929 12.0784254807692  16.0795200892857 12.0730168269231  16.0795200892857 12.0703125  C 16.0686383928571 12.0297475961538  16.0550362723214 11.9918870192308  16.0387137276786 11.9540264423077  C 16.0387137276786 11.9513221153846  16.0359933035714 11.9513221153846  16.0359933035714 11.9486177884615  C 16.0196707589286 11.9080528846154  15.9979073660714 11.8701923076923  15.9761439732143 11.8323317307692  C 15.95166015625 11.7944711538462  15.9271763392857 11.7566105769231  15.8972516741071 11.7214543269231  L 11.3187779017857 6.18840144230769  C 10.9841657366071 5.78545673076923  10.3856724330357 5.72596153846154  9.97760881696429 6.05859375  C 9.572265625 6.39122596153846  9.51241629464285 6.98617788461539  9.84702845982143 7.39182692307692  L 13.1496233258929 11.3780048076923  L 1.71023995535714 11.3780048076923  C 1.18519810267857 11.3780048076923  0.758091517857143 11.8025841346154  0.758091517857143 12.3245192307692  C 0.758091517857143 12.8464543269231  1.18519810267857 13.2710336538462  1.71023995535714 13  L 13.1441824776786 13  Z M 25.2419084821429 12  C 25.2419084821429 10.4720552884615  24.93994140625 8.9873798076923  24.3468889508929 7.58924278846154  C 23.7728794642857 6.23978365384615  22.9513113839286 5.02824519230769  21.9039481026786 3.98978365384615  C 20.8565848214286 2.95132211538461  19.6378348214286 2.13191105769231  18.2830636160714 1.56129807692308  C 16.8766043526786 0.969050480769231  15.3858119419643 0.671574519230769  13.8460518973214 0.671574519230769  C 11.80029296875 0.671574519230769  9.79534040178572 1.21514423076923  8.04610770089286 2.24819711538461  C 6.34856305803572 3.24879807692308  4.93122209821429 4.67668269230769  3.95186941964286 6.38040865384615  C 3.69070870535714 6.83473557692308  3.84849330357143 7.41346153846154  4.30552455357143 7.67307692307692  C 4.76255580357143 7.93269230769231  5.3447265625 7.77584134615385  5.60588727678572 7.32151442307692  C 7.29527064732143 4.38731971153846  10.4536830357143 2.56730769230769  13.8487723214286 2.56730769230769  C 19.0801478794643 2.56460336538462  23.3376116071429 6.796875  23.3376116071429 12  C 23.3376116071429 17.203125  19.0801478794643 21.4353966346154  13.8460518973214 21.4353966346154  C 10.6631556919643 21.4353966346154  7.7060546875 19.8614783653846  5.94049944196429 17.2220552884615  C 5.6494140625 16.7866586538462  5.05908203125 16.6703725961538  4.62109375 16.9597355769231  C 4.18310546875 17.2490985576923  4.06612723214286 17.8359375  4.35721261160714 18.2713341346154  C 6.47914341517857 21.4381009615385  10.0265764508929 23.3257211538462  13.8487723214286 23.3257211538462  C 15.3858119419643 23.3257211538462  16.8793247767857 23.0255408653846  18.2857840401786 22.4359975961538  C 19.6432756696429 21.8653846153846  20.8620256696429 21.0486778846154  21.9066685267857 20.0075120192308  C 22.9540318080357 18.9663461538462  23.7755998883929 17.7548076923077  24.349609375 16.4080528846154  C 24.93994140625 15.0126201923077  25.2419084821429 13.5279447115385  25.2419084821429 12  Z " fill-rule="nonzero" fill="#169bd5" stroke="none" transform="matrix(1 0 0 1 268 670 )" />
  </g>
</svg>