<?xml version="1.0" encoding="utf-8"?>
<svg version="1.1" xmlns:xlink="http://www.w3.org/1999/xlink" width="96px" height="27px" viewBox="1258 26  96 27" xmlns="http://www.w3.org/2000/svg">
  <path d="M 1259 31  A 4 4 0 0 1 1263 27 L 1349 27  A 4 4 0 0 1 1353 31 L 1353 48  A 4 4 0 0 1 1349 52 L 1263 52  A 4 4 0 0 1 1259 48 L 1259 31  Z " fill-rule="nonzero" fill="#81d3f8" stroke="none" fill-opacity="0.109803921568627" />
  <path d="M 1258.5 31  A 4.5 4.5 0 0 1 1263 26.5 L 1349 26.5  A 4.5 4.5 0 0 1 1353.5 31 L 1353.5 48  A 4.5 4.5 0 0 1 1349 52.5 L 1263 52.5  A 4.5 4.5 0 0 1 1258.5 48 L 1258.5 31  Z " stroke-width="1" stroke="#d7d7d7" fill="none" stroke-opacity="0.329411764705882" />
</svg>