<?xml version="1.0" encoding="utf-8"?>
<svg version="1.1" xmlns:xlink="http://www.w3.org/1999/xlink" width="44px" height="44px" xmlns="http://www.w3.org/2000/svg">
  <g transform="matrix(1 0 0 1 -367 -14 )">
    <path d="M 22 23.413999984375  L 30.486000015625 31.9  L 31.9 30.486000015625  L 23.413999984375 22  L 31.9 13.513999984375  L 30.486000015625 12.1  L 22 20.586000015625  L 13.513999984375 12.1  L 12.1 13.513999984375  L 20.586000015625 22  L 12.1 30.486000015625  L 13.513999984375 31.9  L 22 23.413999984375  Z M 22 44  C 34.149999984375 44  44 34.149999984375  44 22  C 44 9.850000015625  34.149999984375 0  22 0  C 9.850000015625 0  0 9.850000015625  0 22  C 0 34.149999984375  9.850000015625 44  22 44  Z M 22 41.9999999804688  C 10.9540000195312 41.9999999804688  2.00000001953125 33.0459999804688  2.00000001953125 22  C 2.00000001953125 10.9540000195313  10.9540000195313 2.00000001953125  22 2.00000001953125  C 33.0459999804688 2.00000001953125  41.9999999804688 10.9540000195313  41.9999999804688 22  C 41.9999999804688 33.0459999804688  33.0459999804688 41.9999999804688  22 41.9999999804688  Z " fill-rule="nonzero" fill="#7f7f7f" stroke="none" transform="matrix(1 0 0 1 367 14 )" />
  </g>
</svg>