<?xml version="1.0" encoding="utf-8"?>
<svg version="1.1" xmlns:xlink="http://www.w3.org/1999/xlink" width="32px" height="32px" xmlns="http://www.w3.org/2000/svg">
  <g transform="matrix(1 0 0 1 -69 -135 )">
    <path d="M 15.5509577214286 7.65439998928571  C 12.6899333576026 7.65439998928571  10.3706148553571 9.97371849153115  10.3706148553571 12.8347428553571  C 10.3706148553571 15.6957672191831  12.6899333576026 18.0150857214286  15.5509577214286 18.0150857214286  C 18.4119820852546 18.0150857214286  20.7313005875 15.6957672191831  20.7313005875 12.8347428553571  C 20.7313005875 9.97371849153115  18.4119820852546 7.65439998928571  15.5509577214286 7.65439998928571  Z M 24.810843425 25.7206857285714  C 24.3281005571429 22.0379428785714  21.1335862678571 20.0886857214286  15.5509577214286 20.0886857214286  C 9.96832914285714 20.0886857214286  6.77381485357143 22.0379428785714  6.28741486785714 25.7206857285714  C 11.4827323300643 30.6383242758132  19.6155259627929 30.6383242758132  24.810843425 25.7206857285714  Z M 15.8764434285714 31.4861714214286  L 15.5509577214286 31.4861714214286  C 15.5498928616613 31.486171640293  15.548828001886 31.4861717497253  15.5477631420962 31.4861717497253  C 6.96368016540781 31.4861717497253  0.00490598495335429 24.5273975692708  0.00490598495335429 15.9433145925824  C 0.00490598495335429 11.8731556771546  1.60146013272509 7.96539289736695  4.45152913571429 5.05965714285714  C 7.29046575005277 2.14920452221741  11.1622398578279 0.475136909674994  15.2273005571429 0.400457139285714  L 15.5509577214286 0.400457139285714  C 24.1348599266739 0.400712778733633  31.0933519926571 7.35941208048393  31.0933519926571 15.9433142895359  C 31.0933519926571 20.0134730491081  29.4967979668314 23.9212356920619  26.6467291571429 26.8269714178571  C 23.8090218604985 29.7359355389634  19.9395495721878 31.4098600525619  15.8764434285714 31.4861714214286  Z " fill-rule="nonzero" fill="#aaaaaa" stroke="none" transform="matrix(1 0 0 1 69 135 )" />
  </g>
</svg>