<?xml version="1.0" encoding="utf-8"?>
<svg version="1.1" xmlns:xlink="http://www.w3.org/1999/xlink" width="20px" height="15px" xmlns="http://www.w3.org/2000/svg">
  <g transform="matrix(1 0 0 1 -301 -34 )">
    <path d="M 19.99994140625 7.4960390625  C 19.99994140625 9.8348671875  15.876328125 14.8242421875  9.9999609375 14.8242421875  C 4.27318359375 14.8242421875  0 9.9169921875  0 7.4960390625  C 0 5.0754375  4.2916015625 0.1757109375  9.99998046875 0.1757109375  C 15.92251953125 0.175734375  20.0013671875 5.075484375  19.9999609375 7.4960625  Z M 10.0087890625 1.5123984375  C 7.34734375 1.5123984375  5.18984375 4.1932734375  5.18984375 7.5  C 5.18984375 10.8067734375  7.34732421875 13.4876015625  10.00876953125 13.4876015625  C 12.671015625 13.4876015625  14.82857421875 10.80675  14.82857421875 7.5  C 14.82857421875 4.1932734375  12.671015625 1.5123984375  10.0087890625 1.5123984375  Z M 9.99998046875 3.6773671875  C 8.30509765625 3.6773671875  6.93111328125 5.38425  6.93111328125 7.490015625  C 6.93111328125 9.595546875  8.30509765625 11.3027578125  9.99998046875 11.3027578125  C 11.69486328125 11.3027578125  13.06828125 9.595546875  13.06828125 7.490015625  C 13.06828125 5.3842265625  11.69484375 3.6773671875  9.99998046875 3.6773671875  Z " fill-rule="nonzero" fill="#00bfbf" stroke="none" transform="matrix(1 0 0 1 301 34 )" />
  </g>
</svg>