<?xml version="1.0" encoding="utf-8"?>
<svg version="1.1" xmlns:xlink="http://www.w3.org/1999/xlink" width="15px" height="15px" xmlns="http://www.w3.org/2000/svg">
  <g transform="matrix(1 0 0 1 -304 -33 )">
    <path d="M 0.269230763221154 13.7027450919118  L 14.7307692367788 13.7027450919118  C 14.8153846153846 13.7027450919118  14.8846153846154 13.7733333272059  14.8846153846154 13.8596078492647  L 14.8846153846154 14.8007843198529  C 14.8846153846154 14.8874172184031  14.8157361180492 14.9576470588235  14.7307692367788 15  L 0.269230763221154 15  C 0.18426388195082 14.9576470588235  0.115384615384615 14.8874172184031  0.115384615384615 14.8007843198529  L 0.115384615384615 13.8596078492647  C 0.115384615384615 13.7733333455882  0.184615384615385 13.7027451102941  0.269230763221154 13.7027450919118  Z M 2.72653846153846 9.67921568014706  L 12.2119230829327 0.305882352941176  C 12.4577635810852 0.0628613229420628  12.8483598423872 0.0625142570397622  13.094615390625 0.305098033088235  L 14.6342307692308 1.82196079044118  C 14.8865384675481 2.07058823529412  14.8930769170673 2.48  14.6430769290865 2.7439215625  L 5.15500000600961 12.1203921507353  L 2.715384609375 12.9172549080882  C 2.65272316108631 12.9377534699855  2.587315952113 12.9481898635834  2.52150833595995 12.9481898635834  C 2.17101993702887 12.9481898635834  1.88689295134456 12.6584917605328  1.88689295134456 12.301131040054  C 1.88689295134456 12.2301802204127  1.8983377870419 12.1597124329119  1.92076923677885 12.0925490257353  L 2.72653846153846 9.67921568014706  Z " fill-rule="nonzero" fill="#555555" stroke="none" transform="matrix(1 0 0 1 304 33 )" />
  </g>
</svg>