<?xml version="1.0" encoding="utf-8"?>
<svg version="1.1" xmlns:xlink="http://www.w3.org/1999/xlink" width="14px" height="15px" xmlns="http://www.w3.org/2000/svg">
  <g transform="matrix(1 0 0 1 -336 -34 )">
    <path d="M 10.9115234375 3.04761904761905  L 10.9115234375 12.8660714285714  C 10.9115234375 13.3764880952381  10.530078125 13.7916666666667  10.0625 13.7916666666667  L 3.9388671875 13.7916666666667  C 3.469921875 13.7901785714286  3.08984375 13.3764880952381  3.0884765625 12.8660714285714  L 3.0884765625 3.04761904761905  L 10.9115234375 3.04761904761905  Z M 4.787890625 1.94494047619048  L 4.787890625 1.38690476190476  C 4.787890625 1.2797619047619  4.864453125 1.19642857142857  4.962890625 1.19642857142857  L 9.048046875 1.19642857142857  C 9.146484375 1.19642857142857  9.2216796875 1.2797619047619  9.2216796875 1.38690476190476  L 9.2216796875 1.94494047619048  L 4.787890625 1.94494047619048  Z M 13.9740234375 2.48958333333333  C 13.9740234375 2.18005952380952  13.7443359375 1.94494047619048  13.4599609375 1.94494047619048  L 10.2361328125 1.94494047619048  L 10.2361328125 1.38690476190476  C 10.2361328125 0.675595238095238  9.7029296875 0.0937499999999998  9.048046875 0.0937499999999998  L 4.962890625 0.0937499999999998  C 4.3080078125 0.095238095238095  3.776171875 0.672619047619047  3.7748046875 1.38690476190476  L 3.7748046875 1.94494047619048  L 0.5400390625 1.94494047619048  C 0.2556640625 1.94494047619048  0.02734375 2.19345238095238  0.02734375 2.50148809523809  C 0.02734375 2.80952380952381  0.2556640625 3.05952380952381  0.5400390625 3.05952380952381  L 2.064453125 3.05952380952381  L 2.064453125 12.8660714285714  C 2.064453125 13.9925595238095  2.90390625 14.90625  3.9388671875 14.90625  L 10.0611328125 14.90625  C 11.09609375 14.90625  11.935546875 13.9925595238095  11.935546875 12.8660714285714  L 11.935546875 3.04761904761905  L 13.461328125 3.04761904761905  C 13.7443359375 3.04761904761905  13.9740234375 2.79910714285714  13.9740234375 2.48958333333333  Z M 6.4873046875 11.5610119047619  C 6.4873046875 11.8690476190476  6.7169921875 12.1190476190476  7 12.1190476190476  C 7.2830078125 12.1190476190476  7.5126953125 11.8705357142857  7.5126953125 11.5610119047619  L 7.5126953125 5.63244047619048  C 7.5126953125 5.32440476190476  7.284375 5.07440476190476  7 5.07440476190476  C 6.7169921875 5.07440476190476  6.4873046875 5.32291666666667  6.4873046875 5.63244047619048  L 6.4873046875 11.5610119047619  Z M 4.1015625 11.5610119047619  C 4.1125 11.8690476190476  4.3421875 12.1190476190476  4.6142578125 12.1190476190476  C 4.897265625 12.1190476190476  5.126953125 11.8705357142857  5.126953125 11.5610119047619  L 5.126953125 5.63244047619048  C 5.126953125 5.32440476190476  4.8986328125 5.07440476190476  4.6142578125 5.07440476190476  C 4.33125 5.07440476190476  4.1015625 5.32291666666667  4.1015625 5.63244047619048  L 4.1015625 11.5610119047619  Z M 8.873046875 11.5610119047619  C 8.8744140625 11.8690476190476  9.102734375 12.1190476190476  9.3857421875 12.1190476190476  C 9.66875 12.1190476190476  9.8984375 11.8705357142857  9.8984375 11.5610119047619  L 9.8984375 5.63244047619048  C 9.8984375 5.32440476190476  9.6701171875 5.07440476190476  9.3857421875 5.07440476190476  C 9.102734375 5.07440476190476  8.873046875 5.32291666666667  8.873046875 5.63244047619048  L 8.873046875 11.5610119047619  Z " fill-rule="nonzero" fill="#555555" stroke="none" transform="matrix(1 0 0 1 336 34 )" />
  </g>
</svg>