<?xml version="1.0" encoding="utf-8"?>
<svg version="1.1" xmlns:xlink="http://www.w3.org/1999/xlink" width="15px" height="15px" xmlns="http://www.w3.org/2000/svg">
  <g transform="matrix(1 0 0 1 -271 -34 )">
    <path d="M 15 7.5  C 14.9952425499557 3.35983657777972  11.6401634222203 0.00475745004425851  7.5 0  C 3.35786437626905 0  0 3.35786437626905  0 7.5  C 0 11.642135623731  3.35786437626905 15  7.5 15  C 11.642135623731 15  15 11.642135623731  15 7.5  Z M 10.9532374169922 7.5  C 10.9532374169922 7.63586646405308  10.8892687141568 7.76380386791486  10.7805755419922 7.84532374511719  L 6.46402877929687 11.0827338134766  C 6.3893110054829 11.1387721425164  6.29843318327197 11.1690647482067  6.20503596679687 11.1690647460938  C 5.96663967109105 11.1690647460938  5.7733812890625 10.9758063640652  5.7733812890625 10.7374100683594  L 5.7733812890625 4.26258993164063  C 5.7733812890625 4.02419362861059  5.96663967109105 3.83093524658203  6.20503596679687 3.83093524658203  C 6.2984331841072 3.83093524658203  6.38931100639946 3.86122785486945  6.46402877929687 3.91726618652344  L 10.7805755419922 7.15467625488281  C 10.8892687141568 7.23619613208514  10.9532374169922 7.36413353594692  10.9532374169922 7.5  Z " fill-rule="nonzero" fill="#00bfbf" stroke="none" transform="matrix(1 0 0 1 271 34 )" />
  </g>
</svg>