<?xml version="1.0" encoding="utf-8"?>
<svg version="1.1" xmlns:xlink="http://www.w3.org/1999/xlink" width="26px" height="26px" xmlns="http://www.w3.org/2000/svg">
  <g transform="matrix(1 0 0 1 -252 -251 )">
    <path d="M 26 13  C 26 20.17925  20.17925 26  13 26  C 5.82075 26  0 20.17925  0 13  C 0 5.82075  5.82075 0  13 0  C 20.17925 0  26 5.82075  26 13  Z M 23.8333333417969 13  C 23.8333333417969 7.01675  18.98325 2.16666665820313  13 2.16666665820313  C 7.01675 2.16666665820313  2.16666665820313 7.01675  2.16666665820313 13  C 2.16666665820313 18.98325  7.01675 23.8333333417969  13 23.8333333417969  C 18.98325 23.8333333417969  23.8333333417969 18.98325  23.8333333417969 13  Z M 19.7589166582031 18.4166666582031  C 18.1176084761774 20.4717244377136  15.6300482134132 21.6678585613932  13 21.6666666582031  C 10.3697164024459 21.6675536944513  7.88195052720628 20.4715124082784  6.24 18.4166666582031  C 7.88195052720628 16.3618209081279  10.3697164024459 15.165779621955  13 15.1666666582031  C 15.6300482134132 15.165474755013  18.1176084761774 16.3616088786927  19.7589166582031 18.4166666582031  Z M 12.9999999354283 14.0833333417969  C 10.6067660148206 14.0833333417969  8.66666659363143 12.1432339206077  8.66666659363143 9.75  C 8.66666659363143 7.35676607939227  10.6067660148206 5.41666665820312  12.9999999354283 5.41666665820312  C 15.393233856036 5.41666665820312  17.3333332772252 7.35676607939227  17.3333332772252 9.75  C 17.3333332772252 12.1432339206077  15.393233856036 14.0833333417969  12.9999999354283 14.0833333417969  Z " fill-rule="nonzero" fill="#000000" stroke="none" transform="matrix(1 0 0 1 252 251 )" />
  </g>
</svg>