<?xml version="1.0" encoding="utf-8"?>
<svg version="1.1" xmlns:xlink="http://www.w3.org/1999/xlink" width="50px" height="50px" xmlns="http://www.w3.org/2000/svg">
  <defs>
    <linearGradient gradientUnits="userSpaceOnUse" x1="1810" y1="15" x2="1810" y2="65" id="LinearGradient209">
      <stop id="Stop210" stop-color="#02a7f0" offset="0" />
      <stop id="Stop211" stop-color="#044f9f" offset="1" />
    </linearGradient>
  </defs>
  <g transform="matrix(1 0 0 1 -1785 -15 )">
    <path d="M 1810 16  C 1823.44 16  1834 26.56  1834 40  C 1834 53.44  1823.44 64  1810 64  C 1796.56 64  1786 53.44  1786 40  C 1786 26.56  1796.56 16  1810 16  Z " fill-rule="nonzero" fill="url(#LinearGradient209)" stroke="none" />
    <path d="M 1810 16  C 1823.44 16  1834 26.56  1834 40  C 1834 53.44  1823.44 64  1810 64  C 1796.56 64  1786 53.44  1786 40  C 1786 26.56  1796.56 16  1810 16  Z " stroke-width="2" stroke="#ffffff" fill="none" />
  </g>
</svg>