<?xml version="1.0" encoding="utf-8"?>
<svg version="1.1" xmlns:xlink="http://www.w3.org/1999/xlink" width="26px" height="28px" xmlns="http://www.w3.org/2000/svg">
  <defs>
    <filter x="956px" y="514px" width="26px" height="28px" filterUnits="userSpaceOnUse" id="filter217">
      <feOffset dx="0" dy="0" in="SourceAlpha" result="shadowOffsetInner" />
      <feGaussianBlur stdDeviation="2.5" in="shadowOffsetInner" result="shadowGaussian" />
      <feComposite in2="shadowGaussian" operator="atop" in="SourceAlpha" result="shadowComposite" />
      <feColorMatrix type="matrix" values="0 0 0 0 1  0 0 0 0 1  0 0 0 0 1  0 0 0 0.549019607843137 0  " in="shadowComposite" />
    </filter>
    <g id="widget218">
      <path d="M 7.99801089285714 18  L 7.99867392857143 17.9995648886719  C 5.24927480357143 17.9995648886719  0.13393375 13.9657948242188  0.13393375 10.1504544609375  L 0.13393375 2.86808644335937  C 0.13393375 2.69142815039063  0.284222446428572 2.54870913867188  0.470315214285714 2.54501063085938  L 0.915877 2.53761361523437  C 0.932894982142857 2.53761361523437  2.67955907142857 2.50302165820313  4.48015028571429 1.80117481640625  C 6.32803823214286 1.08322857421875  7.51907616071429 0.255414814453125  7.53167389285714 0.246929994140625  L 7.79401607142857 0.06374492578125  C 7.8536537674079 0.0225683925852715  7.92472372268802 0.000463926334972258  7.99756885714286 0.000435111328124985  C 8.06991043379912 -2.750810557211E-05  8.14059893047896 0.0217222411610672  8.19979557142857 0.06265712109375  L 8.46722103571429 0.24736510546875  C 8.47937673214286 0.25584992578125  9.67151973214286 1.08279346289063  11.5171975535714 1.8016099453125  C 13.3195568571429 2.50345678710938  15.0662209464286 2.53804874414063  15.084123 2.5380487265625  L 15.5261485714286 2.54544575976563  C 15.7124623571429 2.54914426757813  15.8623090178571 2.69186327929688  15.8623090357143 2.8685215546875  L 15.86606625 10.1508895722656  C 15.86606625 13.9657948066406  10.7498411428571 18  7.99801089285714 18  Z M 14.6569052678571 10.1508895722656  L 14.6527060178571 3.71613324023438  C 13.9766278928571 3.66609455859375  12.5541895714286 3.494222578125  11.0764980535714 2.918342671875  C 9.56653866071429 2.33093211328125  8.45639141071429 1.67020402148438  7.99867392857143 1.37845676953125  C 7.54228251785714 1.66911621679688  6.43147223214286 2.33006187304688  4.92195485714286 2.918342671875  C 3.44691548214286 3.4929172265625  2.02845539285714 3.66478920703125  1.34309473214286 3.71613324023438  L 1.34309473214286 10.1504544609375  C 1.34309473214286 13.1425497949219  5.79981766071429 16.7999419863281  7.99867392857143 16.7999419863281  C 8.85089925 16.7999419863281  10.5115893571429 16.119198421875  12.1439898392857 14.6243473242188  C 13.7176009107143 13.1845387851562  14.6569052678571 11.5117240429688  14.6569052678571 10.1508895722656  Z M 11.3014890714286 7.47490814648438  L 7.36790341071429 11.3742264550781  C 7.25572309113785 11.4874373952881  7.10178627580349 11.551157553792  6.94112771428571 11.5508847480469  C 6.78006363810321 11.5508228118163  6.6257305344451 11.4872805437528  6.51258391071429 11.3744440195313  L 4.69696383928571 9.57566234179688  C 4.46103033284911 9.34051315356459  4.46103033284911 8.96232962182604  4.69696383928571 8.72718043359375  C 4.80993041140537 8.61444025253692  4.96408714771172 8.55097251432333  5.12495510714286 8.55097251432333  C 5.285823066574 8.55097251432333  5.43997980288034 8.61444025253692  5.552946375 8.72718043359375  L 6.94112771428571 10.1015035839844  L 10.4459485535714 6.62642622070313  C 10.5587199644216 6.51349335849308  10.7128483075311 6.4498841161628  10.8737188125 6.4498841161628  C 11.0345893174689 6.4498841161628  11.1887176605784 6.51349335849308  11.3014890714286 6.62642622070313  C 11.5389884920872 6.86094042671674  11.5389884920872 7.24039394047076  11.3014890714286 7.47490814648438  Z " fill-rule="nonzero" fill="#d9001b" stroke="none" transform="matrix(1 0 0 1 961 519 )" />
    </g>
  </defs>
  <g transform="matrix(1 0 0 1 -956 -514 )">
    <use xlink:href="#widget218" filter="url(#filter217)" />
    <use xlink:href="#widget218" />
  </g>
</svg>