<?xml version="1.0" encoding="utf-8"?>
<svg version="1.1" xmlns:xlink="http://www.w3.org/1999/xlink" width="50px" height="50px" xmlns="http://www.w3.org/2000/svg">
  <defs>
    <radialGradient cx="24.9248120300752" cy="24.9473684210518" r="35.4457247176239" gradientTransform="matrix(0.707424891709358 0.706788527488954 -0.70678852748895 0.707424891709354 24.9248933698627 -10.31759217532 )" gradientUnits="userSpaceOnUse" id="RadialGradient194">
      <stop id="Stop195" stop-color="#aaaaaa" offset="0" />
      <stop id="Stop196" stop-color="#555555" offset="1" />
    </radialGradient>
  </defs>
  <g transform="matrix(1 0 0 1 -1808 -50 )">
    <path d="M 42.6547231270331 37.548828125  C 43.067049515922 37.1365017361111  37.40234375 32.9427083333333  37.40234375 32.3567708333333  C 37.40234375 31.7925347222222  37.1961805555557 31.3042534722222  36.7838541666667 30.8919270833333  L 30.8919270833333 25  L 36.7838541666667 19.1080729166667  C 37.1961805555557 18.6957465277778  36.7838541666667 17.4442361111128  36.7838541666667 16.8800000000017  C 36.7838541666667 16.2940625000017  42.1549973986619 13.6284722222222  41.7426710097729 13.2161458333333  L 33.8541666666667 13.2161458333333  C 33.4418402777778 12.8038194444444  32.9427083333333 12.59765625  32.3567708333333 12.59765625  C 31.7925347222222 12.59765625  31.3042534722222 12.8038194444444  30.8919270833333 13.2161458333333  L 25 19.1080729166667  L 19.1080729166667 13.2161458333333  C 18.6957465277778 12.8038194444444  18.2074652777778 12.59765625  17.6432291666667 12.59765625  C 17.0572916666667 12.59765625  16.5581597222222 12.8038194444444  16.1458333333333 13.2161458333333  L 8.42000000000098 13.2161458333333  C 8.00767361111207 13.6284722222222  12.59765625 17.0572916666667  12.59765625 17.6432291666667  C 12.59765625 18.2074652777778  12.8038194444443 18.6957465277778  13.2161458333333 19.1080729166667  L 19.1080729166667 25  L 13.2161458333333 30.8919270833333  C 12.8038194444443 31.3042534722222  12.59765625 31.7925347222222  12.59765625 32.3567708333333  C 12.59765625 32.9427083333333  8.00767361111207 36.9900173611111  8.42000000000098 37.40234375  L 16.1458333333333 36.7838541666667  C 16.5581597222222 37.1961805555555  17.0572916666667 37.40234375  17.6432291666667 37.40234375  C 18.2074652777778 37.40234375  18.6957465277778 37.1961805555555  19.1080729166667 36.7838541666667  L 25 30.8919270833333  L 30.8919270833333 36.7838541666667  C 31.3042534722222 37.1961805555555  31.7925347222222 37.40234375  32.3567708333333 37.40234375  C 32.9427083333333 37.40234375  42.6547231270331 37.548828125  42.6547231270331 37.548828125  Z M 46.6471354166667 12.451171875  C 48.8823784722222 16.2814670138889  50 20.4644097222222  50 25  C 50 29.5355902777778  48.8823784722222 33.7185329861111  46.6471354166667 37.548828125  C 44.4118923611111 41.3791232638889  41.3791232638889 44.4118923611111  37.548828125 46.6471354166667  C 33.7185329861111 48.8823784722222  29.5355902777778 50  25 50  C 20.4644097222222 50  16.2814670138889 48.8823784722222  12.451171875 46.6471354166667  C 8.62087673611109 44.4118923611111  5.58810763888891 41.3791232638889  3.35286458333326 37.548828125  C 1.11762152777783 33.7185329861111  0 29.5355902777778  0 25  C 0 20.4644097222222  1.11762152777783 16.2814670138889  3.35286458333326 12.451171875  C 5.58810763888891 8.62087673611111  8.62087673611109 5.58810763888889  12.451171875 3.35286458333333  C 16.2814670138889 1.11762152777777  20.4644097222222 0  25 0  C 29.5355902777778 0  33.7185329861111 1.11762152777777  37.548828125 3.35286458333333  C 41.3791232638889 5.58810763888889  44.4118923611111 8.62087673611111  46.6471354166667 12.451171875  Z " fill-rule="nonzero" fill="url(#RadialGradient194)" stroke="none" transform="matrix(1 0 0 1 1808 50 )" />
  </g>
</svg>