<?xml version="1.0" encoding="utf-8"?>
<svg version="1.1" xmlns:xlink="http://www.w3.org/1999/xlink" width="50px" height="50px" xmlns="http://www.w3.org/2000/svg">
  <g transform="matrix(1 0 0 1 -682 -193 )">
    <path d="M 50 8.34615384615385  L 50 45.5  C 49.9999999969981 47.9852813742386  47.9852813713576 50  45.4999999972683 50  L 8.34615384565276 50  C 5.8608724715634 50  3.84615384592293 47.9852813742386  4 45.5  L 4 8.34615384615385  C 3.82759462152942 8.1286002266638  3.82759462152942 7.90986131179773  3.84615384592293 7.69230769230769  C 4.17107627024171 5.47977512240866  6.07143346011724 3.84153616552106  8.30769230719353 4  L 45.461538458809 4  C 45.4743586799465 3.84604426760315  45.4871793108397 3.84598947757732  45.5000000002702 3.84598947757732  C 47.9852813743595 3.84598947757732  50 5.86070810333875  50 8.34598947757732  Z " fill-rule="nonzero" fill="#2b7cd3" stroke="none" transform="matrix(1 0 0 1 682 193 )" />
  </g>
</svg>