<?xml version="1.0" encoding="utf-8"?>
<svg version="1.1" xmlns:xlink="http://www.w3.org/1999/xlink" width="27px" height="34px" xmlns="http://www.w3.org/2000/svg">
  <g transform="matrix(1 0 0 1 -506 -472 )">
    <path d="M 1 4  L 13.1142857142857 4  C 16.1461715202863 3.5719379543956  19.153976585359 4.4289317207852  21.6 6.19555555555556  C 23.6157436754056 7.98036336533351  24.6942533132905 10.5655628807054  24.5314285714286 13.2222222222222  C 24.5822552442994 15.3302327913416  24.1055285581699 17.4183915886793  23.1428571428571 19.3044444444444  C 22.1756890312145 20.9332692305292  20.7402964941884 22.247154941895  19.0157142857143 23.0822222222222  C 17.070393862614 23.9614845182965  14.9479107706866 24.4004879991103  12.8057142857143 24.3666666666667  L 6.86571428571429 24.3666666666667  L 6.86571428571429 34  L 1 34  L 1 4  Z M 7 8.42444444444445  L 7 18.8888888888889  L 12.0342857142857 18.8888888888889  C 13.6766609471942 19.0014182864769  15.3056386659029 18.5321654456967  16.6242857142857 17.5666666666667  C 17.7077850153669 16.4528435098821  18.2670831487867 14.9464211711033  18.1671428571429 13.4111111111111  C 18.1671428571429 10.0866666666667  16.2 8.42444444444445  12.2271428571429 8.42444444444445  L 7 8.42444444444445  Z " fill-rule="nonzero" fill="#ffffff" stroke="none" transform="matrix(1 0 0 1 506 472 )" />
  </g>
</svg>