<?xml version="1.0" encoding="utf-8"?>
<svg version="1.1" xmlns:xlink="http://www.w3.org/1999/xlink" width="79px" height="41px" xmlns="http://www.w3.org/2000/svg">
  <g transform="matrix(1 0 0 1 -164 -470 )">
    <path d="M 1 40  L 1 1  L 16.77275 1  C 28.98275 0.686500000000002  34.25525 9.5665  34.25525 20.5  C 34.25525 31.4335  28.98275 40.3135  16.77275 40  L 1 40  Z M 8 6.3475  L 8 34.6525  L 14.10875 34.6525  C 24.98675 34.6525  27.31775 28.4365  27.31775 20.5  C 27.31775 12.5635  24.98675 6.3475  14.10875 6.3475  L 8 6.3475  Z M 45.79925 40.3135  L 36.91925 11.62  L 43.63475 11.62  L 49.24025 33.043  L 49.35125 33.043  L 54.73475 11.62  L 61.11725 11.62  L 66.27875 33.043  L 66.38975 33.043  L 72.21725 11.62  L 78.65525 11.62  L 69.66425 40.3135  L 63.17075 40.3135  L 57.84275 19.0015  L 57.73175 19.0015  L 52.45925 40.3135  L 45.79925 40.3135  Z " fill-rule="nonzero" fill="#35fa00" stroke="none" transform="matrix(1 0 0 1 164 470 )" />
  </g>
</svg>