<?xml version="1.0" encoding="utf-8"?>
<svg version="1.1" xmlns:xlink="http://www.w3.org/1999/xlink" width="31px" height="31px" xmlns="http://www.w3.org/2000/svg">
  <g transform="matrix(1 0 0 1 -502 -338 )">
    <path d="M 8.9125 31  L 1.66625 31  L 11.625 15.5  L 2.48 0  L 9.88125 0  L 14.91875 9.88125  C 15.2729904596263 10.5582354375933  15.5836229728762 11.2571585924056  15.84875 11.97375  C 16.1582503380037 11.2321404923242  16.5075071571444 10.5077559785508  16.895 9.80375  L 22.32 0  L 29.10125 0  L 19.685 15.5  L 29.33375 31  L 22.12625 31  L 16.31375 20.15  C 15.9955495229674 19.700299500349  15.7229527810891 19.220010002754  15.5 18.71625  C 15.3417006679534 19.2077941675241  15.1202674344975 19.6767116030777  14.84125 20.11125  L 8.9125 31  Z " fill-rule="nonzero" fill="#ffffff" stroke="none" transform="matrix(1 0 0 1 502 338 )" />
  </g>
</svg>