<?xml version="1.0" encoding="utf-8"?>
<svg version="1.1" xmlns:xlink="http://www.w3.org/1999/xlink" width="61px" height="41px" xmlns="http://www.w3.org/2000/svg">
  <g transform="matrix(1 0 0 1 -173 -199 )">
    <path d="M 1 39.925  L 1 1  L 17.92925 1  C 29.25125 0.298000000000002  31.41575 7.624  31.41575 12.5635  C 31.41575 17.4475  29.25125 24.7735  17.92925 24  L 8 24  L 8 39.925  L 1 39.925  Z M 8 5.959  L 8 19.057  L 17.54075 19.057  C 20.64875 19.057  24.47825 17.503  24.47825 12.508  C 24.47825 7.291  21.31475 5.959  17.65175 5.959  L 8 5.959  Z M 35.02325 30.712  L 41.35025 30.712  C 41.68325 34.375  44.45825 35.707  47.84375 35.707  C 50.23025 35.707  54.39275 35.2075  54.22625 31.933  C 54.05975 28.603  49.45325 28.2145  44.84675 27.16  C 40.18475 26.161  35.63375 24.496  35.63375 18.6685  C 35.63375 12.397  42.40475 10.4545  47.62175 10.4545  C 53.50475 10.4545  58.83275 12.8965  59.60975 19.279  L 53.00525 19.279  C 52.45025 16.282  49.95275 15.4495  47.17775 15.4495  C 45.34625 15.4495  41.96075 15.8935  41.96075 18.391  C 41.96075 21.499  46.62275 21.943  51.28475 22.9975  C 55.89125 24.052  60.55325 25.717  60.55325 31.378  C 60.55325 38.2045  53.67125 40.702  47.73275 40.702  C 40.51775 40.702  35.13425 37.483  35.02325 30.712  Z " fill-rule="nonzero" fill="#00c8ff" stroke="none" transform="matrix(1 0 0 1 173 199 )" />
  </g>
</svg>