<?xml version="1.0" encoding="utf-8"?>
<svg version="1.1" xmlns:xlink="http://www.w3.org/1999/xlink" width="49px" height="41px" xmlns="http://www.w3.org/2000/svg">
  <g transform="matrix(1 0 0 1 -338 -199 )">
    <path d="M 0.884750000000015 40.3135  L 16.09175 0.686500000000002  L 23.47325 0.686500000000002  L 38.73575 40.3135  L 31.29875 40.3135  L 27.58025 29.824  L 11.76275 29.824  L 8.04425000000001 40.3135  L 0.884750000000015 40.3135  Z M 19.64375 7.513  L 13.64975 24  L 25.74875 24  L 19.81025 7.513  L 19.64375 7.513  Z M 41.78825 6.6805  L 41.78825 0.686500000000002  L 48.11525 0.686500000000002  L 48.11525 6.6805  L 41.78825 6.6805  Z M 41 40.3135  L 41 11.62  L 48 11.62  L 48 40.3135  L 41 40.3135  Z " fill-rule="nonzero" fill="#ff7c00" stroke="none" transform="matrix(1 0 0 1 338 199 )" />
  </g>
</svg>