<?xml version="1.0" encoding="utf-8"?>
<svg version="1.1" xmlns:xlink="http://www.w3.org/1999/xlink" width="63px" height="63px" xmlns="http://www.w3.org/2000/svg">
  <g transform="matrix(1 0 0 1 -992 -213 )">
    <path d="M 62.860546875 21  C 62.860546875 18.44185546875  62.53496484375 15.976734375  61.97682421875 13.69766015625  C 59.9768203134375 5.74415625  54.81401953125 0.0697265615625025  48.720984375 0.0697265615625025  L 45.41865234375 0.0697265615625025  L 45.41865234375 8.95346484375001  C 45.41865234375 16.348828125  40.58143359375 21.6976757821875  34.62793359375 22.62791015625  C 34.02328125 22.7209335928125  33.4186289053125 22.7674453125  32.8139765634375 23  L 10.16276953125 23  C 9.1860234375 22.7674453134375  8.2557890625 22.9069804696875  7.3255546884375 23.1395390634375  C 3.139500001875 24.2558203134375  0.0697265634374986 27.697687501875  0 32.20932421875  L 0 51.2326171884375  C 0.0697265634374986 56.6279765634375  5.5115976571875 59.8372851571875  10.8604453115625 61.372171875  C 17.2325507803125 63.232640625  24.2093085928125 63.55822265625  31.8837421884375 61.372171875  C 36.9535195321875 59.93030859375  41.9302734384375 57.0000703134375  41.9302734365625 51.2326171865625  L 41.9302734365625 45  L 21 45  L 21 42  L 48.720984375 42  C 54.2093671884375 41.9302734384375  59.00007421875 37.2791015634375  61.32566015625 30.488390625  C 62.30240625 27.65117578125  62.860546875 24.4418671865625  62.860546875 21  Z M 28.48838671875 52.441921875  C 28.5348984375 50.34889453125  30.2093203125 48.6279609365625  32.30234765625 48.6279609384375  C 34.395375 48.6279609384375  36.069796875 50.3488945321875  36.069796875 52.441921875  C 36.069796875 54.53494921875  34.34886328125 56.2558828134375  32.30234765625 56.2558828134375  C 30.2093203125 56.2558828134375  28.4883867178125 54.5349492196875  28.48838671875 52.441921875  Z " fill-rule="nonzero" fill="#ffd400" stroke="none" transform="matrix(1 0 0 1 992 213 )" />
  </g>
</svg>