<?xml version="1.0" encoding="utf-8"?>
<svg version="1.1" xmlns:xlink="http://www.w3.org/1999/xlink" width="97px" height="97px" xmlns="http://www.w3.org/2000/svg">
  <g transform="matrix(1 0 0 1 -1117 -192 )">
    <path d="M 95.1484280039062 44.18450334375  L 95.1484280039063 44.1784422646484  L 52.8056477460938 1.83566191210937  C 51.6347838817118 0.664219030545374  50.0464041294973 0.00606057605641731  48.3901430952148 0.00606057605641731  C 46.7338820609324 0.00606057605641731  45.1455023087178 0.664219030545374  43.9746384443359 1.83566191210937  L 34.1374880224609 11.6728123339844  L 41.5380799091797 19.0734042207031  C 42.764699405254 18.4854441452227  44.1076185711742 18.1802175124791  45.4678731203334 18.1802175124791  C 50.4890451317667 18.1802175124791  54.5595092970912 22.2506816778036  54.5595092970912 27.2718536892369  C 54.5595092970912 28.6321082383962  54.2542826643476 29.9750274043163  53.6663225888672 31.2016469003906  L 65.7885041894531 43.3238285009766  C 67.0121484320762 42.7393452575101  68.3510437780017 42.4359930970334  69.7071137962521 42.4359930970334  C 74.7282858076854 42.4359930970334  78.7987499730099 46.5064572623579  78.7987499730099 51.5276292737912  C 78.7987499730099 56.5488012852245  74.7282858076854 60.619265450549  69.7071137962521 60.619265450549  C 64.6859417848189 60.619265450549  60.6154776194943 56.5488012852245  60.6154776194943 51.5276292737912  C 60.6154776194943 50.1715592555408  60.9188297799711 48.8326639096153  61.5033130234375 47.6090196669922  L 49.3811314228516 35.4868380664063  C 49.0905838741511 35.6250735719334  48.7932079528679 35.7484744495985  48 35.8565645546875  L 48 61.1373742714844  C 52.122681923808 62.4216678793209  54.5512418427734 65.8561702671766  54.5512418427734 69.7090510505426  C 54.5512418427734 74.7302230619759  50.4807776774489 78.8006872273004  45.4596056660156 78.8006872273004  C 40.4384336545824 78.8006872273004  36.3679694892578 74.7302230619759  36.3679694892578 69.7090510505426  C 36.3679694892578 65.8561702671766  38.7965294082232 62.4216678793209  43 61.1373742714844  L 43 35.8565645546875  C 38.7948975005069 34.5731998701484  36.3648116727104 31.1378819542811  36.3648116727104 27.2837719731646  C 36.3648116727104 25.9275127296594  36.6682484727154 24.5884354040943  37.2528887431641 23.3646564658203  L 29.8522968564453 15.9640645791016  L 1.83187408105469 43.9844873544922  C -0.604945807249065 46.4262131375977  -0.604945807249065 50.379831952246  1.83187408105469 52.8215577353516  L 44.1746544335938 95.1643380878906  C 45.3455182979757 96.3357809694546  46.9338980501902 96.9939394239436  48.5901590844726 96.9939394239436  C 50.2464201187551 96.9939394239436  51.8347998709696 96.3357809694546  53.0056637353516 95.1643380878906  L 95.1484280039062 53.0215737246094  C 97.58524789221 50.5798479415038  97.58524789221 46.6262291268556  95.1484280039062 44.18450334375  Z " fill-rule="nonzero" fill="#f64d27" stroke="none" transform="matrix(1 0 0 1 1117 192 )" />
  </g>
</svg>