<?xml version="1.0" encoding="utf-8"?>
<svg version="1.1" xmlns:xlink="http://www.w3.org/1999/xlink" width="31px" height="31px" xmlns="http://www.w3.org/2000/svg">
  <g transform="matrix(1 0 0 1 -652 -475 )">
    <path d="M 3 31  L 3 0  L 9.6875 0  L 21.08 19.995  C 21.5837274220759 20.9545622752904  22.0112927813938 21.9522147803655  22.35875 22.97875  C 22.1835183476818 21.6170473412349  22.1187237158469 20.2434011463345  22 18.87125  L 22 0  L 27.9 0  L 27.9 31  L 21.73875 31  L 9.88125 10.385  C 9.43728764040156 9.7000220785533  9.03610546962419 8.98824725943217  8.68 8.25375  C 8.76510119301968 9.75087495518208  8.76510119301968 11.2516250448179  9 12.74875  L 9 31  L 3 31  Z " fill-rule="nonzero" fill="#ffffff" stroke="none" transform="matrix(1 0 0 1 652 475 )" />
  </g>
</svg>