<?xml version="1.0" encoding="utf-8"?>
<svg version="1.1" xmlns:xlink="http://www.w3.org/1999/xlink" width="33px" height="20px" xmlns="http://www.w3.org/2000/svg">
  <g transform="matrix(1 0 0 1 -1289 -233 )">
    <path d="M 10.2053441911317 0.00486730983173947  C 10.1915603584348 0.00486730983173947  10.1777773377498 0.0050839792046006  10.164 0.00551724137931219  C 9.81529396060869 0.0157133449621889  9.48405159088234 0.164052964185818  9.24 0.419310344827589  L 1.07755102040816 8.67586206896552  C 1.06566390533389 8.68759529105581  1.05398846279633 8.69955133461568  1.0425306122449 8.71172413793104  C 0.797709346825196 8.96925003246174  0.66071658155084 9.31446189349961  0.66071658155084 9.67386788210831  C 0.66071658155084 10.1003737619423  0.853394699122155 10.5028894282428  1.18261224489796 10.7641379310345  L 9.23730612244898 18.9158620689655  C 9.49081240649279 19.1820919496198  9.83854995655497 19.3322285571451  10.2016696105684 19.3322285571451  C 10.9455633552385 19.3322285571451  11.5486083860786 18.7146902810496  11.5486083860786 17.9529182123175  C 11.5486083860786 17.5770084379267  11.3987837243132 17.2173834113308  11.1337959183673 16.9572413793103  L 3.93036734693878 9.66620689655172  L 11.1337959183673 2.38344827586206  C 11.401018747809 2.12308600952555  11.5522829666419 1.76189468821206  11.5522829666419 1.38417765465933  C 11.5522829666419 0.622405585927197  10.9492379358017 0.00486730983173947  10.2053441911317 0.00486730983173947  Z M 24.417306122449 0.419310344827594  C 24.1627157548001 0.153328392448565  23.8139057620015 0.00408336623387864  23.4502040816326 0.00551724137931219  C 22.7083587721023 0.00846873505726511  22.1084984050163 0.62513703986828  22.1084984050163 1.38481717608513  C 22.1084984050163 1.76082513654698  22.2584011018936 2.12053531996168  22.5235102040816 2.38068965517242  L 29.7215510204082 9.66344827586207  L 22.5235102040816 16.9544827586207  C 22.2579342328922 17.2146840724487  22.1077310820831 17.5747218599727  22.1077310820831 17.95110762552  C 22.1077310820831 18.7128796942521  22.7107761129232 19.3304179703476  23.4546698575933 19.3304179703476  C 23.8169319979511 19.3304179703476  24.1639229654873 19.1809875379298  24.417306122449 18.9158620689655  L 32.469306122449 10.7641379310345  C 32.9160659038774 10.4094048603723  33.0989713099633 9.80673553843235  32.9272653061224 9.2551724137931  C 32.8995789350218 9.1680366994159  32.8634822308141 9.0839430713792  32.8195102040816 9.00413793103448  C 32.8037078771756 8.9712707315534  32.7866331123952 8.93906128140944  32.7683265306122 8.90758620689655  C 32.7630107487415 8.90017489518154  32.7576227242383 8.89281820550798  32.7521632653061 8.88551724137931  C 32.7468474834354 8.8781059296643  32.7414594589321 8.87074923999074  32.736 8.86344827586207  C 32.7146689556539 8.83403796854656  32.6922021598902 8.80550959841906  32.6686530612245 8.77793103448276  C 32.6633372793538 8.77051972276775  32.6579492548505 8.76316303309419  32.6524897959184 8.75586206896552  C 32.629342495371 8.72728463425618  32.6050778338417 8.69967594007447  32.5797551020408 8.67310344827587  C 32.5779591854694 8.67309977011127  32.5761632635102 8.67309977011127  32.5743673469388 8.67310344827587  L 32.5204897959184 8.62620689655173  C 32.5073371666649 8.61119347973429  32.4938645387427 8.59647729681407  32.4800816326531 8.58206896551725  L 24.417306122449 0.419310344827594  Z " fill-rule="nonzero" fill="#f05542" stroke="none" transform="matrix(1 0 0 1 1289 233 )" />
  </g>
</svg>