<?xml version="1.0" encoding="utf-8"?>
<svg version="1.1" xmlns:xlink="http://www.w3.org/1999/xlink" width="50px" height="50px" xmlns="http://www.w3.org/2000/svg">
  <g transform="matrix(1 0 0 1 -659 -178 )">
    <path d="M 48.6923076923077 19.9230769230769  C 50.4170892893953 21.6868858089208  50.4170892893953 24.5054218833869  48.6923076923077 26.2692307692308  L 38.4615384615385 36.4615384615385  L 30.0769230769231 44.8461538461538  C 29.2480374141539 45.6940172061658  28.1087268552756 46.1664142671641  26.9230769230769 46.1538461538462  C 25.7266787483262 46.1636174210194  24.5764872797338 45.6924546507526  23.7307692307692 44.8461538461538  L 5.15384615384615 26.2692307692308  C 4.30754534924735 25.4235127202662  3.83638257898055 24.2733212516738  3.84615384615385 23.0769230769231  C 3.8335857328359 21.8912731447244  4.30598279383422 20.7519625858461  5.15384615384615 19.9230769230769  L 23.7307692307692 1.30769230769231  C 25.4945781166131 -0.417089289395306  28.3131141910792 -0.41708928939531  30.0769230769231 1.30769230769231  L 48 19.2307692307692  L 48.6923076923077 19.9230769230769  Z " fill-rule="nonzero" fill="#41a5ee" stroke="none" transform="matrix(1 0 0 1 659 178 )" />
  </g>
</svg>