<?xml version="1.0" encoding="utf-8"?>
<svg version="1.1" xmlns:xlink="http://www.w3.org/1999/xlink" width="50px" height="50px" xmlns="http://www.w3.org/2000/svg">
  <g transform="matrix(1 0 0 1 -663 -220 )">
    <path d="M 46.1538461538462 23.0769230769231  C 46.1932584043355 23.7173429210081  46.1932584043355 24.3595801559149  46.1538461538462 25  C 46.1539829350454 25.0310276329904  46.1540513258942 25.0620555297827  46.1540513258942 25.0930834642625  C 46.1540513258942 36.7547883741512  36.7003716203983 46.2084680796472  25.0386667105096 46.2084680796472  C 17.0726768660592 46.2084680796472  9.78469095443258 41.725361879757  6.19230769230769 34.6153846153846  C 4.64683038469672 31.6461514406325  3.84192559780174 28.3473613304071  3.84615384615385 25  C 3.78235705778478 14.0215808066964  12.1421178503052 4.82584393492389  23.0769230769231 3.84615384615384  C 23.7173429210081 3.80674159566452  24.3595801559149 3.80674159566452  25 3.84615384615385  C 35.957348917657 3.83712761344144  45.1216354928775 12.1682972272782  46.1538461538462 23.0769230769231  Z " fill-rule="nonzero" fill="#103f91" stroke="none" transform="matrix(1 0 0 1 663 220 )" />
  </g>
</svg>