<?xml version="1.0" encoding="utf-8"?>
<svg version="1.1" xmlns:xlink="http://www.w3.org/1999/xlink" width="32px" height="25px" xmlns="http://www.w3.org/2000/svg">
  <g transform="matrix(1 0 0 1 -1385 -227 )">
    <path d="M 9.35466666666666 0.0108108108108096  C 6.42133333333333 0.0108108108108096  4.02133333333333 2.44324324324324  4.02133333333333 5.41621621621622  L 4.02133333333333 8.11891891891892  C 4.02133333333333 9.64054054054054  2.85333333333333 10.8216216216216  1.35466666666666 10.8216216216216  C 0.708013527759287 10.8125680187203  0.148187359088723 11.2751401134782  0.0266666666666661 11.9189189189189  C 0.0266631111075573 11.9207207189189  0.0266631111075573 11.9225225243243  0.0266666666666661 11.9243243243243  C -0.0563880783067674 12.3755659561983  0.0922440052653523 12.8386840946113  0.421333333333332 13.1540540540541  C 0.485236834473885 13.2149085375169  0.554907515230345 13.2692255963187  0.62933333333333 13.3162162162162  C 0.744051347996172 13.3890255288876  0.869039376434908 13.44370627242  0.999999999999995 13.4783783783784  C 1.08557085041982 13.500633153166  1.17311218603539 13.5142134072432  1.26133333333333 13.5189189189189  C 1.29237253678963 13.5218259105578  1.32350277743542 13.5236288202478  1.35466666666666 13.5243243243243  C 2.85333333333333 13.5243243243243  4.02133333333333 14.7054054054054  4.02133333333333 16.227027027027  L 4.02133333333333 18.9297297297297  C 4.02133333333333 21.9027027027027  6.42133333333333 24.3351351351352  9.35466666666666 24.3351351351352  C 10.0910463331077 24.3351351351352  10.688 23.7301145267984  10.688 22.9837837837838  C 10.688 22.2374530407692  10.0910463331077 21.6324324324324  9.35466666666666 21.6324324324324  C 7.85333333333333 21.6324324324324  6.688 20.4513513513514  6.688 18.9297297297297  L 6.688 16.227027027027  C 6.688 14.6108108108108  5.96 13.1648648648649  4.83733333333334 12.172972972973  C 6.00492437151827 11.1574337018019  6.68015289527537 9.67828406159097  6.688 8.11891891891893  L 6.688 5.41621621621623  C 6.688 3.89459459459461  7.85333333333333 2.71351351351353  9.35466666666666 2.71351351351353  C 10.0910463331077 2.71351351351353  10.688 2.10849290517676  10.688 1.36216216216218  C 10.688 0.61583141914759  10.0910463331077 0.010810810810824  9.35466666666666 0.010810810810824  Z M 22.512 0.0108108108108048  L 22.5093333333333 0.0108108108108096  C 21.7993484824189 0.0475093520911781  21.2422671260695 0.64164771629009  21.2422671260695 1.36216216216216  C 21.2422671260695 2.10946287799281  21.8399966270471 2.71526980465927  22.5773333333333 2.71526980465927  C 22.6000110387027 2.71526980465927  22.622685062912 2.71468418424813  22.6453333333333 2.71351351351351  C 24.1466666666667 2.71351351351351  25.312 3.89459459459459  25.312 5.41621621621622  L 25.312 8.11891891891892  C 25.312 9.73783783783784  26.04 11.1783783783784  27.1626666666667 12.172972972973  C 26.0426666666667 13.1648648648649  25.312 14.6108108108108  25.312 16.227027027027  L 25.312 18.9297297297297  C 25.312 20.4513513513513  24.1466666666667 21.6324324324324  22.6453333333333 21.6324324324324  C 21.9089536668923 21.6324324324324  21.312 22.2374530407692  21.312 22.9837837837838  C 21.312 23.7301145267984  21.9089536668923 24.3351351351351  22.6453333333333 24.3351351351351  C 25.5786666666667 24.3351351351351  27.9786666666667 21.9027027027027  27.9786666666667 18.9297297297297  L 27.9786666666667 16.227027027027  C 27.9786666666667 14.7054054054054  29.1466666666667 13.5243243243243  30.6453333333333 13.5243243243243  C 30.9598621279058 13.5290053544147  31.2658957096796 13.420829069566  31.5093333333333 13.2189189189189  C 31.5447641308555 13.1883019536996  31.5785882476951 13.1558250278578  31.6106666666667 13.1216216216216  C 31.8566330332132 12.8687676378915  31.9945236980619 12.5279559285023  31.9945236980619 12.172877403335  C 31.9945236980619 11.4265466603204  31.3975700311696 10.8215260519837  30.6611903647286 10.8215260519837  C 30.6559045474133 10.8215260519837  30.6506187768275 10.8215579090929  30.6453333333333 10.8216216216216  C 29.1466666666667 10.8216216216216  27.9786666666667 9.64054054054054  27.9786666666667 8.11891891891891  L 27.9786666666667 5.41621621621621  C 27.9786666666667 2.44324324324324  25.5786666666667 0.0108108108108048  22.6453333333333 0.0108108108108048  C 22.6009167014432 0.00855714913856729  22.5564166318901 0.00855714913856729  22.512 0.0108108108108048  Z " fill-rule="nonzero" fill="#4bbfeb" stroke="none" transform="matrix(1 0 0 1 1385 227 )" />
  </g>
</svg>