<?xml version="1.0" encoding="utf-8"?>
<svg version="1.1" xmlns:xlink="http://www.w3.org/1999/xlink" width="37px" height="14px" xmlns="http://www.w3.org/2000/svg">
  <g transform="matrix(1 0 0 1 -1379 -266 )">
    <path d="M 6.48557142857142 0.0106666666666702  L 6.48292857142857 0.0106666666666702  C 6.38870857345376 0.0192566246582733  6.29567520876613 0.0380309252799217  6.20542857142857 0.0666666666666724  C 2.76442857142857 0.376000000000005  0.0105714285714274 3.18666666666667  0.0105714285714274 6.67733333333334  C 0.0105714285714274 10.184  2.7935 13.0026666666667  6.25564285714286 13.2853333333333  C 6.37982873372626 13.3237881165367  6.50895556405387 13.3435562749665  6.63885714285714 13.344  L 9.28171428571428 13.344  C 10.011519133705 13.344  10.6031428571429 12.7470463331077  10.6031428571429 12.0106666666667  C 10.6031428571429 11.2742870002256  10.011519133705 10.6773333333333  9.28171428571428 10.6773333333333  L 6.81857142857142 10.6773333333333  C 4.46114285714285 10.6773333333333  2.65342857142857 8.89066666666667  2.65342857142857 6.67733333333334  C 2.65342857142857 4.46400000000001  4.46114285714285 2.67733333333334  6.81857142857142 2.67733333333334  L 9.26057142857142 2.67733333333334  C 9.99037627656211 2.67733333333334  10.582 2.08037966644107  10.582 1.344  C 10.582 0.607620333558941  9.99037627656211 0.0106666666666702  9.26057142857142 0.0106666666666702  L 6.61771428571428 0.0106666666666702  C 6.57369423089463 0.00844305381673394  6.52959148339107 0.00844305381673394  6.48557142857142 0.0106666666666702  Z M 17.057 0.0106666666666702  L 17.0543571428571 0.0106666666666702  C 16.9991244001626 0.0178389001286708  16.9443962244525 0.0285268786457304  16.8905 0.0426666666666714  C 14.8555 0.202666666666668  13.2248571428571 1.92000000000001  13.2248571428571 4.01066666666667  C 13.2248571428571 6.11733333333333  14.8819285714286 7.85066666666667  16.9407142857143 7.984  C 17.0225033451038 8.00078520813742  17.1056845242851 8.00971399102826  17.1891428571429 8.01066666666667  L 19.832 8.01066666666667  C 20.5878571428571 8.01066666666667  21.1534285714286 8.58133333333333  21.1534285714286 9.344  C 21.1534285714286 10.1066666666667  20.5878571428571 10.6773333333333  19.832 10.6773333333333  L 14.5462857142857 10.6773333333333  C 13.816480866295 10.6773333333333  13.2248571428571 11.2742870002256  13.2248571428571 12.0106666666667  C 13.2248571428571 12.7470463331077  13.816480866295 13.344  14.5462857142857 13.344  L 19.832 13.344  C 19.9235920330432 13.3428818301356  20.0148206223556 13.332157503709  20.1042142857143 13.312  C 22.1727319308405 13.1644938288139  23.7807497414733 11.4363001044959  23.7962857142857 9.344  C 23.7962857142857 7.248  22.1577142857143 5.52  20.1147857142857 5.37066666666667  C 20.0217470262525 5.35155267187532  19.9269376400998 5.34261215554198  19.832 5.344  L 17.1891428571429 5.344  C 17.1784402075562 5.344268982643  17.167734653475 5.34440348960388  17.1570286844104 5.34440348960388  C 16.4447391527715 5.34440348960388  15.8673143986962 4.76177671071703  15.8673143986962 4.04307015627055  C 15.8673143986962 4.03226773703439  15.867447704702 4.02146573651973  15.8677142857143 4.01066666666667  C 15.8677142857143 3.248  16.4332857142857 2.67733333333334  17.1891428571429 2.67733333333334  L 22.4748571428571 2.67733333333334  C 23.2046619908478 2.67733333333334  23.7962857142857 2.08037966644107  23.7962857142857 1.344  C 23.7962857142857 0.607620333558941  23.2046619908478 0.0106666666666702  22.4748571428571 0.0106666666666702  L 17.2816428571429 0.0106666666666702  C 17.2508189723059 0.00957744410115424  17.2199667419798 0.00957744410115424  17.1891428571429 0.0106666666666702  C 17.1451228023232 0.00844305381673394  17.1010200548196 0.00844305381673394  17.057 0.0106666666666702  Z M 30.2501428571429 0.0106666666666702  L 30.2475 0.0106666666666702  C 30.1922672573055 0.0178389001286708  30.1375390815954 0.0285268786457304  30.0836428571429 0.0426666666666714  C 28.0486428571429 0.202666666666668  26.418 1.92000000000001  26.418 4.01066666666667  C 26.418 6.11733333333333  28.0777142857143 7.85066666666667  30.1338571428571 7.984  C 30.2156462022467 8.00078520813742  30.2988273814279 8.00971399102826  30.3822857142857 8.01066666666667  L 33.0251428571429 8.01066666666667  C 33.781 8.01066666666667  34.3465714285714 8.58133333333333  34.3465714285714 9.344  C 34.3465714285714 10.1066666666667  33.781 10.6773333333333  33.0251428571429 10.6773333333333  L 27.7394285714286 10.6773333333333  C 27.0096237234379 10.6773333333333  26.418 11.2742870002256  26.418 12.0106666666667  C 26.418 12.7470463331077  27.0096237234379 13.344  27.7394285714286 13.344  L 33.0251428571429 13.344  C 33.1176192556044 13.343067395948  33.2097431459536 13.3323419534125  33.3 13.312  C 35.3674751660231 13.1631689569789  36.9739976698898 11.4353454818995  36.9894285714286 9.344  C 36.9894285714286 7.248  35.3508571428571 5.52  33.3105714285714 5.37066666666667  C 33.2166683697686 5.35136092113944  33.120962566191 5.34241943798906  33.0251428571429 5.344  L 30.3822857142857 5.344  C 30.371583064699 5.344268982643  30.3608775106179 5.34440348960388  30.3501715415533 5.34440348960388  C 29.6378820099144 5.34440348960388  29.060457255839 4.76177671071703  29.060457255839 4.04307015627055  C 29.060457255839 4.03226773703428  29.0605905618449 4.02146573651986  29.0608571428571 4.01066666666667  C 29.0608571428571 3.248  29.6264285714286 2.67733333333334  30.3822857142857 2.67733333333334  L 35.668 2.67733333333334  C 36.3978048479907 2.67733333333334  36.9894285714286 2.08037966644107  36.9894285714286 1.344  C 36.9894285714286 0.607620333558941  36.3978048479907 0.0106666666666702  35.668 0.0106666666666702  L 30.4747857142857 0.0106666666666702  C 30.4439618294488 0.00957744410115424  30.4131095991226 0.00957744410115424  30.3822857142857 0.0106666666666702  C 30.3382656594661 0.00844305381673394  30.2941629119625 0.00844305381673394  30.2501428571429 0.0106666666666702  Z " fill-rule="nonzero" fill="#e9eded" stroke="none" transform="matrix(1 0 0 1 1379 266 )" />
  </g>
</svg>