<?xml version="1.0" encoding="utf-8"?>
<svg version="1.1" xmlns:xlink="http://www.w3.org/1999/xlink" width="21px" height="14px" xmlns="http://www.w3.org/2000/svg">
  <g transform="matrix(1 0 0 1 -1471 -263 )">
    <path d="M 6.57317075428341 0.636198056452446  C 6.56611349188466 0.636198056452446  6.5590563442595 0.636253251551377  6.552 0.636363636363636  C 5.83533792845795 0.647393781432576  5.26032933384247 1.2138980584481  5.26032933384247 1.90893062705892  C 5.26032933384247 1.91577226680308  5.26038622441104 1.92261379533809  5.2605 1.92945454545454  L 5.2605 9.54545454545455  C 5.2605 10.2734545454545  4.69875 10.8181818181818  3.948 10.8181818181818  C 3.93736966561321 10.818438574341  3.92673644635695 10.8185669673492  3.91610281492118 10.8185669673492  C 3.20862605038794 10.8185669673492  2.63510281492119 10.2624232238662  2.63510281492119 9.57638514916734  C 2.63510281492119 9.56607374898738  2.63523522021081 9.5557627484961  2.6355 9.54545454545455  C 2.63556436555157 9.54030906590452  2.63559654921515 9.53516325513712  2.63559654921515 9.53001739705105  C 2.63559654921515 8.82710953363004  2.04797028336807 8.25729012432378  1.32309654921515 8.25729012432378  C 1.31606402544734 8.25729012432378  1.30903161524991 8.25734493313753  1.30200000000001 8.25745454545454  C 0.579164936734974 8.26861931566933  0.00173318708540626 8.84448620962879  0.0105000000000035 9.54545454545455  C 0.0105000000000035 11.6378181818182  1.79025000000001 13.3636363636364  3.948 13.3636363636364  C 5.97975000000001 13.3636363636364  7.64925 11.8287272727273  7.8435 9.90181818181818  C 7.87286364580138 9.79213081323822  7.88698851208053 9.67913188300501  7.8855 9.56581818181818  L 7.8855 1.92945454545454  C 7.88561383433765 1.92261202980916  7.88567075428341 1.91576873514197  7.88567075428341 1.90892532917972  C 7.88567075428341 1.2060174657587  7.29804448843633 0.636198056452446  6.57317075428341 0.636198056452446  Z M 14.427 0.646545454545458  C 14.3832773779832 0.644422915006882  14.3394726220168 0.644422915006882  14.29575 0.646545454545458  C 14.2400077122175 0.653285066399922  14.1847691139198 0.663487866662711  14.130375 0.677090909090914  C 12.109125 0.829818181818183  10.4895 2.46909090909092  10.4895 4.46472727272728  C 10.4895 6.47563636363637  12.138 8.13018181818182  14.18025 8.25745454545454  C 14.2614864306099 8.27347678958572  14.3441055747967 8.2819997187088  14.427 8.28290909090909  L 17.052 8.28290909090909  C 17.80275 8.28290909090909  18.3645 8.82763636363636  18.3645 9.55563636363637  C 18.3645 10.2836363636364  17.80275 10.8283636363636  17.052 10.8283636363636  L 11.802 10.8283636363636  C 11.0771262658471 10.8283636363636  10.4895 11.3981830456699  10.4895 12.1010909090909  C 10.4895 12.8039987725119  11.0771262658471 13.3738181818182  11.802 13.3738181818182  L 17.052 13.3738181818182  C 17.1438515579314 13.3729279688595  17.2353529895621 13.3626900464392  17.325 13.3432727272727  C 19.3785057392257 13.2012067316617  20.9741733613095 11.5519206872677  20.9895 9.55563636363637  C 20.9895 7.55490909090909  19.362 5.90545454545455  17.3355 5.7629090909091  C 17.2422314213242 5.74448087926946  17.1471722785816 5.73594582717137  17.052 5.73745454545455  L 14.518875 5.73745454545455  C 14.4882593846552 5.73641483300565  14.4576156153448 5.73641483300565  14.427 5.73745454545455  C 14.4163696656132 5.73771130161377  14.4057364463569 5.73783969462188  14.3951028149212 5.73783969462188  C 13.6876260503879 5.73783969462188  13.1141028149212 5.18169595113898  13.1141028149212 4.49565787644007  C 13.1141028149212 4.4853464762601  13.1142352202108 4.47503547576883  13.1145 4.46472727272728  C 13.1145 3.73672727272727  13.67625 3.192  14.427 3.192  L 19.677 3.192  C 20.4018737341529 3.192  20.9895 2.62218059069374  20.9895 1.91927272727273  C 20.9895 1.21636486385172  20.4018737341529 0.646545454545458  19.677 0.646545454545458  L 14.518875 0.646545454545458  C 14.4882593846552 0.645505742096556  14.4576156153448 0.645505742096556  14.427 0.646545454545458  Z " fill-rule="nonzero" fill="#e9eded" stroke="none" transform="matrix(1 0 0 1 1471 263 )" />
  </g>
</svg>