<?xml version="1.0" encoding="utf-8"?>
<svg version="1.1" xmlns:xlink="http://www.w3.org/1999/xlink" width="64px" height="76px" xmlns="http://www.w3.org/2000/svg">
  <g transform="matrix(1 0 0 1 -1564 -204 )">
    <path d="M 63 73.9885204081633  C 63.2921686746988 74.7299505739796  62.6957831325301 75.3214285714286  61.9668674698795 75  L 3.57078313253012 75  C 1.88102409638554 75.3214285714286  0.506024096385545 73.9385363520408  1 72.2390784438776  L 1 3.75259088010204  C 0.506024096385545 2.05313297193878  1.88102409638554 0.670240752551021  3.57078313253012 1  L 42.3855421686747 1  C 42.7334337349398 0.670240752551021  43.0730421686747 0.81186224489796  43.3215361445783 1.0617825255102  L 62.9028614457831 20.7555006377551  C 63.1513554216867 21.0054209183673  63.2921686746988 21.3469786352041  63 21.6968670280612  L 63 73.9885204081633  Z M 3.57078313253012 4  L 3.57078313253012 3.33605707908163  C 3.34713855421687 3.33605707908163  3.1566265060241 3.51933195153061  4 3.75259088010204  L 4 72.2390784438776  C 3.1566265060241 72.4640066964286  3.33885542168675 72.655612244898  3.57078313253012 72  L 60 72  L 60 22.2550223214286  L 41.8388554216867 4  L 3.57078313253012 4  Z " fill-rule="nonzero" fill="#00365b" stroke="none" transform="matrix(1 0 0 1 1564 204 )" />
  </g>
</svg>