<?xml version="1.0" encoding="utf-8"?>
<svg version="1.1" xmlns:xlink="http://www.w3.org/1999/xlink" width="63px" height="63px" xmlns="http://www.w3.org/2000/svg">
  <g transform="matrix(1 0 0 1 -971 -192 )">
    <path d="M 18 52.93025390625  C 17.58134765625 47.0697773446875  21.9534492178125 41.62790625  28.37206640625 40.46511328125  C 29.2092773428125 40.325578125  30.04648828125 40.2325546875  30.88369921875 40.2325546884375  L 30.1860234384375 40  L 52.83723046875 40  C 53.8139765625 40.2325546884375  54.7442109375 40.0930195321875  55.6744453134375 39.8604609384375  C 59.8605 38.6976679696875  62.9302734384375 34.9767304696875  63 30.3720703115625  L 63 11.34877734375  C 62.9302734384375 5.95341796875  58.3256132821875 1.86038671875  52.83723046875 0.9766640615625  C 49.3488515625 0.4185234365625  44.27907421875 0.139453125000001  40.83720703125 0.139453125000001  C 37.3953398428125 0.139453125000001  34.0930078125 0.465035156250001  31.16276953125 0.9766640615625  C 22.60461328125 2.4650390615625  21.0697265615625 5.58132421875  21.0697265615625 11.34877734375  L 21.0697265615625 18  L 42 18  L 42 21  L 14.279015625 21  C 6.51155859375 21.0697265615625  0.18596484375 30.3720703115625  0.139453125 41.813953125  L 0.139453125 42  C 0.139453125 44.09302734375  0.325499999999999 46.09303125  0.74410546875 47.9535  C 2.4650390615625 56.6046796884375  7.8603984365625 62.9302734384375  14.279015625 62.9302734384375  L 18 62.9302734384375  L 18 52.93025390625  Z M 34.41858984375 10.04644921875  C 34.372078125 12.1859882821875  32.69765625 13.8604101571875  30.60462890625 13.86041015625  C 28.5116015625 13.86041015625  26.7906679678125 12.1394765625  26.8371796884375 10.04644921875  C 26.8371796884375 7.953421875  28.5116015634375 6.2324882803125  30.60462890625 6.23248828125  C 32.6976562490625 6.2324882821875  34.4185898446875 7.953421875  34.41858984375 10.04644921875  Z " fill-rule="nonzero" fill="#0075aa" stroke="none" transform="matrix(1 0 0 1 971 192 )" />
  </g>
</svg>