<?xml version="1.0" encoding="utf-8"?>
<svg version="1.1" xmlns:xlink="http://www.w3.org/1999/xlink" width="38px" height="37px" xmlns="http://www.w3.org/2000/svg">
  <g transform="matrix(1 0 0 1 -794 -674 )">
    <path d="M 2.6904296875 17.7295107886905  L 2.6904296875 17.7353608630952  C 2.69616477272727 17.6534598214286  2.70189985795454 17.5774088541667  2.70763494318182 17.4955078125  C 3.39584517045455 8.86664806547619  10.5876420454545 2.10396205357142  19.0870383522727 2.10396205357142  C 27.7756924715909 2.10396205357142  34.9044034090909 9.01875  35.4836470170454 17.7353608630952  L 36.6306640625 17.7353608630952  C 36.0571555397727 8.37524181547619  28.4122869318182 0.933947172619043  19.0870383522727 0.933947172619043  C 9.99692826704545 0.933947172619043  2.30044389204545 8.16463913690476  1.56635298295454 17.396056547619  C 1.5548828125 17.5072079613095  1.54914772727272 17.618359375  1.54341264204545 17.7295107886905  L 2.6904296875 17.7295107886905  Z M 36.567578125 20.7481491815476  L 35.4148259943182 20.7481491815476  C 34.4972123579545 29.1079055059524  27.5233487215909 35.6307384672619  19.0870383522727 35.6307384672619  C 10.6507279829545 35.6307384672619  3.68259943181818 29.2541573660714  2.75925071022727 20.7481491815476  L 1.60649857954546 20.7481491815476  C 2.54131747159091 29.9093656994048  10.0198686079545 36.8007533482143  19.0870383522727 36.8007533482143  C 28.1599431818182 36.8007533482143  35.6442294034091 29.757263764881  36.567578125 20.7481491815476  Z " fill-rule="nonzero" fill="#108ee9" stroke="none" transform="matrix(1 0 0 1 794 674 )" />
  </g>
</svg>