<?xml version="1.0" encoding="utf-8"?>
<svg version="1.1" xmlns:xlink="http://www.w3.org/1999/xlink" width="10px" height="9px" xmlns="http://www.w3.org/2000/svg">
  <g transform="matrix(1 0 0 1 -807 -682 )">
    <path d="M 9.2970703125 4.71015625  C 9.2970703125 7.0509765625  7.3912109375 8.9568359375  5.050390625 8.9568359375  C 2.7095703125 8.9568359375  0.8037109375 7.0509765625  0.8037109375 4.71015625  C 0.8037109375 2.3693359375  2.7095703125 0.463476562499999  5.050390625 0.463476562499999  C 7.3912109375 0.463476562499999  9.2970703125 2.3693359375  9.2970703125 4.71015625  Z M 7.753125 4.71015625  C 7.753125 3.2193359375  6.537890625 2.007421875  5.050390625 2.007421875  C 3.5595703125 2.007421875  2.34765625 3.2193359375  2.34765625 4.71015625  C 2.34765625 6.2009765625  3.5595703125 7.412890625  5.050390625 7.412890625  C 6.5412109375 7.412890625  7.753125 6.2009765625  7.753125 4.71015625  Z " fill-rule="nonzero" fill="#108ee9" stroke="none" transform="matrix(1 0 0 1 807 682 )" />
  </g>
</svg>