<?xml version="1.0" encoding="utf-8"?>
<svg version="1.1" xmlns:xlink="http://www.w3.org/1999/xlink" width="20px" height="21px" xmlns="http://www.w3.org/2000/svg">
  <g transform="matrix(1 0 0 1 -804 -685 )">
    <path d="M 6.3935546875 13.0689453125  C 6.376953125 11.2859375  6.3802734375 9.5029296875  6.38359375 7.719921875  C 6.38359375 6.0099609375  6.376953125 4.2966796875  6.3869140625 2.58671875  C 6.3935546875 1.3880859375  6.9845703125 0.694140624999998  7.9873046875 0.687499999999998  C 9.053125 0.680859374999999  9.7802734375 1.437890625  9.7869140625 2.606640625  C 9.8001953125 4.5125  9.7869140625 6.418359375  9.7935546875 8.32421875  C 9.796875 9.3369140625  10.0259765625 9.5859375  11.105078125 9.6822265625  C 13.2732421875 9.871484375  15.44140625 10.05078125  17.6095703125 10.2134765625  C 18.980859375 10.31640625  19.525390625 10.894140625  19.2564453125 12.1458984375  C 18.7119140625 14.6826171875  18.1142578125 17.2126953125  17.559765625 19.74609375  C 17.4103515625 20.43671875  16.95546875 20.7587890625  16.2416015625 20.788671875  C 15.262109375 20.8318359375  14.279296875 20.855078125  13.296484375 20.8583984375  C 10.533984375 20.868359375  7.771484375 20.8650390625  5.008984375 20.8583984375  C 3.9365234375 20.8583984375  3.5912109375 20.6359375  3.255859375 19.70625  C 2.3294921875 17.1396484375  1.4130859375 14.5697265625  0.493359374999999 12.003125  C 0.224414062499999 11.2560546875  0.626171874999999 10.4326171875  1.403125 10.14375  C 2.140234375 9.871484375  3.1529296875 10.23671875  3.475 10.947265625  C 3.840234375 11.757421875  4.172265625 12.5841796875  4.4744140625 13.4142578125  C 4.6537109375 13.9056640625  4.9259765625 14.30078125  5.5236328125 14.2111328125  C 6.1611328125 14.1115234375  6.396875 13.6533203125  6.3935546875 13.0689453125  Z " fill-rule="nonzero" fill="#1195fe" stroke="none" transform="matrix(1 0 0 1 804 685 )" />
  </g>
</svg>