<?xml version="1.0" encoding="utf-8"?>
<svg version="1.1" xmlns:xlink="http://www.w3.org/1999/xlink" width="23px" height="23px" xmlns="http://www.w3.org/2000/svg">
  <g transform="matrix(1 0 0 1 -1605 -204 )">
    <path d="M 22.1973958333333 21.9518229166667  C 21.99150390625 22.4459635416667  21.5138346354167 22.7671549479167  20.978515625 22.7671549479167  L 1.509375 22.7671549479167  C 0.784635416666678 22.7671549479167  0.191666666666667 22.1741861979167  0.191666666666667 21.4494466145833  L 0.191666666666667 1.98030598958333  C 0.191666666666667 1.44498697916667  0.512858072916667 0.967317708333334  1.00699869791667 0.761425781250001  C 1.50113932291667 0.555533854166667  2.06940104166667 0.670833333333335  2.44000651041667 1.04967447916667  L 21.9091471354167 20.5188151041667  C 22.28798828125 20.89765625  22.3950520833333 21.46591796875  22.1973958333333 21.9518229166667  Z M 3 5.16751302083333  L 3 20  L 17.7995442708333 20  L 3 5.16751302083333  Z " fill-rule="nonzero" fill="#00365b" stroke="none" transform="matrix(1 0 0 1 1605 204 )" />
  </g>
</svg>