<?xml version="1.0" encoding="utf-8"?>
<svg version="1.1" xmlns:xlink="http://www.w3.org/1999/xlink" width="41px" height="41px" xmlns="http://www.w3.org/2000/svg">
  <defs>
    <filter x="1756px" y="41px" width="41px" height="41px" filterUnits="userSpaceOnUse" id="filter33">
      <feOffset dx="0" dy="0" in="SourceAlpha" result="shadowOffsetInner" />
      <feGaussianBlur stdDeviation="2.5" in="shadowOffsetInner" result="shadowGaussian" />
      <feComposite in2="shadowGaussian" operator="atop" in="SourceAlpha" result="shadowComposite" />
      <feColorMatrix type="matrix" values="0 0 0 0 0  0 0 0 0 0  0 0 0 0 0  0 0 0 0.349019607843137 0  " in="shadowComposite" />
    </filter>
    <g id="widget34">
      <path d="M 1776.5 46  C 1785.18 46  1792 52.82  1792 61.5  C 1792 70.18  1785.18 77  1776.5 77  C 1767.82 77  1761 70.18  1761 61.5  C 1761 52.82  1767.82 46  1776.5 46  Z " fill-rule="nonzero" fill="#ffffff" stroke="none" />
      <path d="M 1776.5 46.5  C 1784.9 46.5  1791.5 53.1  1791.5 61.5  C 1791.5 69.9  1784.9 76.5  1776.5 76.5  C 1768.1 76.5  1761.5 69.9  1761.5 61.5  C 1761.5 53.1  1768.1 46.5  1776.5 46.5  Z " stroke-width="1" stroke="#000000" fill="none" />
    </g>
  </defs>
  <g transform="matrix(1 0 0 1 -1756 -41 )">
    <use xlink:href="#widget34" filter="url(#filter33)" />
    <use xlink:href="#widget34" />
  </g>
</svg>