<?xml version="1.0" encoding="utf-8"?>
<svg version="1.1" xmlns:xlink="http://www.w3.org/1999/xlink" width="187px" height="78px" xmlns="http://www.w3.org/2000/svg">
  <defs>
    <mask fill="white" id="clip22">
      <path d="M 0 46.5230769230769  L 0 22.4  C 0 17.0929230769231  4.84000000000003 12.9230769230769  11 13  L 25.1296296296275 13  L 33.277777777775 0  L 41.7962962962943 13  L 154 13  C 160.16 12.9230769230769  165 17.0929230769231  165 22.4  L 165 46.5230769230769  C 165 51.8301538461538  160.16 56  154 56  L 11 56  C 4.84000000000003 56  0 51.8301538461538  0 46.5230769230769  Z " fill-rule="evenodd" />
    </mask>
    <filter x="720px" y="576px" width="187px" height="78px" filterUnits="userSpaceOnUse" id="filter23">
      <feOffset dx="0" dy="0" in="SourceAlpha" result="shadowOffsetInner" />
      <feGaussianBlur stdDeviation="5.5" in="shadowOffsetInner" result="shadowGaussian" />
      <feComposite in2="shadowGaussian" operator="atop" in="SourceAlpha" result="shadowComposite" />
      <feColorMatrix type="matrix" values="0 0 0 0 0.333333333333333  0 0 0 0 0.333333333333333  0 0 0 0 0.333333333333333  0 0 0 0.349019607843137 0  " in="shadowComposite" />
    </filter>
    <g id="widget24">
      <path d="M 0 46.5230769230769  L 0 22.4  C 0 17.0929230769231  4.84000000000003 12.9230769230769  11 13  L 25.1296296296275 13  L 33.277777777775 0  L 41.7962962962943 13  L 154 13  C 160.16 12.9230769230769  165 17.0929230769231  165 22.4  L 165 46.5230769230769  C 165 51.8301538461538  160.16 56  154 56  L 11 56  C 4.84000000000003 56  0 51.8301538461538  0 46.5230769230769  Z " fill-rule="nonzero" fill="#ffffff" stroke="none" transform="matrix(1 0 0 1 731 587 )" />
      <path d="M 0 46.5230769230769  L 0 22.4  C 0 17.0929230769231  4.84000000000003 12.9230769230769  11 13  L 25.1296296296275 13  L 33.277777777775 0  L 41.7962962962943 13  L 154 13  C 160.16 12.9230769230769  165 17.0929230769231  165 22.4  L 165 46.5230769230769  C 165 51.8301538461538  160.16 56  154 56  L 11 56  C 4.84000000000003 56  0 51.8301538461538  0 46.5230769230769  Z " stroke-width="2" stroke="#02a7f0" fill="none" transform="matrix(1 0 0 1 731 587 )" mask="url(#clip22)" />
    </g>
  </defs>
  <g transform="matrix(1 0 0 1 -720 -576 )">
    <use xlink:href="#widget24" filter="url(#filter23)" />
    <use xlink:href="#widget24" />
  </g>
</svg>