<?xml version="1.0" encoding="utf-8"?>
<svg version="1.1" xmlns:xlink="http://www.w3.org/1999/xlink" width="67px" height="41px" xmlns="http://www.w3.org/2000/svg">
  <g transform="matrix(1 0 0 1 -170 -332 )">
    <path d="M 0.533000000000001 39.925  L 15.74 0.298000000000002  L 23.1215 0.298000000000002  L 38.384 39.925  L 30.947 39.925  L 27.2285 29  L 11.411 29  L 7.6925 39.925  L 0.533000000000001 39.925  Z M 19.292 7.12450000000001  L 13.298 24  L 25.397 24  L 19.4585 7.12450000000001  L 19.292 7.12450000000001  Z M 66 11.2315  L 66 39.925  L 60.251 39.925  L 60.251 35.929  L 60.14 35.929  C 58.586 38.815  55.145 40.702  51.9815 40.702  C 44.489 40.702  41.27 36.928  41 29.4355  L 41 11.2315  L 47 11.2315  L 47 28.825  C 47.597 33.8755  49.6505 35.707  53.0915 35.707  C 58.364 35.707  60.14 32.3215  60 27.8815  L 60 11.2315  L 66 11.2315  Z " fill-rule="nonzero" fill="#00e4bb" stroke="none" transform="matrix(1 0 0 1 170 332 )" />
  </g>
</svg>