<?xml version="1.0" encoding="utf-8"?>
<svg version="1.1" xmlns:xlink="http://www.w3.org/1999/xlink" width="53px" height="41px" xmlns="http://www.w3.org/2000/svg">
  <g transform="matrix(1 0 0 1 -336 -332 )">
    <path d="M 0 40.3135  L 0 1  L 17.509 1  C 28.831 0.686500000000002  30.9955 8.0125  30.9955 12.952  C 30.9955 17.836  28.831 25.162  17.509 25  L 7 25  L 7 40.3135  L 0 40.3135  Z M 7 7  L 7 20  L 17.1205 20  C 20.2285 19.4455  24.058 17.8915  24.058 12.8965  C 24.058 7.6795  20.8945 6.3475  17.2315 7  L 7 7  Z M 36 40.3135  L 36 11.62  L 42.0955 11.62  L 42.0955 17.17  L 42.2065 17.17  C 42.928 14.1175  46.702 10.843  50.587 10.843  C 51.3856560186565 10.8351463864359  52.1836717750116 10.8908219043211  52.9735 11.0095  L 52.9735 17.1145  C 52.0855 17.0035  51.142 16.837  50.254 16.837  C 45.925 16.837  42.484 20.3335  42 26.6605  L 42 40.3135  L 36 40.3135  Z " fill-rule="nonzero" fill="#ea77ff" stroke="none" transform="matrix(1 0 0 1 336 332 )" />
  </g>
</svg>