<?xml version="1.0" encoding="utf-8"?>
<svg version="1.1" xmlns:xlink="http://www.w3.org/1999/xlink" width="67px" height="41px" xmlns="http://www.w3.org/2000/svg">
  <g transform="matrix(1 0 0 1 -329 -470 )">
    <path d="M 0.0529250000000054 39.925  L 15.259925 0.298000000000002  L 22.641425 0.298000000000002  L 37.903925 39.925  L 30.466925 39.925  L 26.748425 29  L 10.930925 29  L 7.21242500000001 39.925  L 0.0529250000000054 39.925  Z M 18.811925 7.12450000000001  L 12.817925 24  L 24.916925 24  L 18.978425 7.12450000000001  L 18.811925 7.12450000000001  Z M 66.819425 27  L 45.729425 27  C 45.729425 31.711  48.171425 35.707  53.443925 35.707  C 57.106925 35.707  59.326925 34.0975  60.436925 30.934  L 66.430925 30.934  C 65.043425 37.2055  59.715425 40.702  53.443925 40.702  C 44.452925 40.702  39.402425 34.4305  39.402425 25.606  C 39.402425 17.4475  44.730425 10.4545  53.277425 10.4545  C 62.323925 10.4545  67.873925 18.613  66.819425 27  Z M 45.729425 23  L 60.492425 23  C 60.270425 19.057  57.550925 15.4495  53.277425 15.4495  C 48.892925 15.4495  45.895925 18.7795  45.729425 23  Z " fill-rule="nonzero" fill="#d291ff" stroke="none" transform="matrix(1 0 0 1 329 470 )" />
  </g>
</svg>