<?xml version="1.0" encoding="utf-8"?>
<svg version="1.1" xmlns:xlink="http://www.w3.org/1999/xlink" width="116px" height="103px" xmlns="http://www.w3.org/2000/svg">
  <defs>
    <linearGradient gradientUnits="userSpaceOnUse" x1="0" y1="-4.57411886145564E-14" x2="116" y2="103" id="LinearGradient208">
      <stop id="Stop209" stop-color="#8080ff" offset="0" />
      <stop id="Stop210" stop-color="#008080" offset="1" />
    </linearGradient>
  </defs>
  <g transform="matrix(1 0 0 1 -917 -239 )">
    <path d="M 116 99.64  L 116 48.44  C 115.92 47.48  115.6 46.84  115.28 45.88  L 93.84 3.95999999999999  C 92.88 1.71999999999999  90.64 0.119999999999994  88.08 1  L 28.24 1  C 25.68 0.119999999999994  23.44 1.71999999999999  22.48 3.95999999999999  L 0.719999999999995 46.52  C 0.399999999999995 47.16  0.0799999999999956 48.12  0 49.08  L 0 99.64  C 0.0799999999999956 101.56  1.36 102.84  3.28 102  L 112.72 102  C 114.64 102.84  115.92 101.56  116 99.64  Z M 6.47999999999998 49.72  C 6.47999999999998 49.08  6.47999999999998 48.44  6.8 47.8  L 27.28 7.8  C 27.92 6.84  28.88 6.2  30.16 6.2  L 86.16 6.52  C 87.44 6.52  88.4 7.16  89.04 8.12  L 109.2 47.8  C 109.52 48.12  109.52 48.76  109.52 49.4  L 109.52 51  L 86.8 51  C 84.88 51.32  83.6 52.6  83.6 54.52  L 83.6 64  L 32.4 64  L 32.4 54.52  C 32.4 52.6  31.12 51.32  29.2 51  L 6.47999999999998 51  L 6.47999999999998 49.72  Z M 109 57  L 109 95  L 7 95  L 7 57  L 26 57  L 26 67  C 26 68.92  27.28 70.2  29.2 70  L 86.8 70  C 88.72 70.2  90 68.92  90 67  L 90 57  L 109 57  Z M 54.8 22.2  C 54.8 24.12  56.4 25.4  58 25.4  C 59.6 25.4  61.2 24.12  61.2 22.2  L 61.2 15.8  C 61.2 13.88  59.6 12.6  58 12.6  C 56.4 12.6  54.8 13.88  54.8 15.8  L 54.8 22.2  Z M 54.8 54.2  C 54.8 56.12  56.4 57.4  58 57.4  C 59.6 57.4  61.2 56.12  61.2 54.2  L 61.2 47.8  C 61.2 45.88  59.6 44.6  58 44.6  C 56.4 44.6  54.8 45.88  54.8 47.8  L 54.8 54.2  Z M 70.8 31.8  C 69.2 31.8  67.6 33.08  67.6 35  C 67.6 36.92  69.2 38.2  70.8 38.2  L 77.2 38.2  C 78.8 38.2  80.4 36.92  80.4 35  C 80.4 33.08  78.8 31.8  77.2 31.8  L 70.8 31.8  Z M 35.6 35  C 35.6 36.92  37.2 38.2  38.8 38.2  L 45.2 38.2  C 46.8 38.2  48.4 36.92  48.4 35  C 48.4 33.08  46.8 31.8  45.2 31.8  L 38.8 31.8  C 37.2 31.8  35.6 33.08  35.6 35  Z M 45.2 25.4  C 45.2 27.1673111994585  46.6326888005415 28.6  48.4 28.6  C 50.1673111994585 28.6  51.6 27.1673111994585  51.6 25.4  C 51.6 23.6326888005415  50.1673111994585 22.2  48.4 22.2  C 46.6326888005415 22.2  45.2 23.6326888005415  45.2 25.4  Z M 64.4 25.4  C 64.4 27.1673111994586  65.8326888005414 28.6  67.6 28.6  C 69.3673111994586 28.6  70.8 27.1673111994585  70.8 25.4  C 70.8 23.6326888005415  69.3673111994585 22.2  67.6 22.2  C 65.8326888005414 22.2  64.4 23.6326888005415  64.4 25.4  Z M 65.36 46.84  C 66.64 48.12  68.56 48.12  69.84 46.84  C 71.12 45.56  71.12 43.64  69.84 42.36  C 68.56 41.08  66.64 41.08  65.36 42.36  C 64.08 43.64  64.08 45.56  65.36 46.84  Z M 54.8 35  C 54.8 36.7673111994585  56.2326888005415 38.2  58 38.2  C 59.7673111994585 38.2  61.2 36.7673111994585  61.2 35  C 61.2 33.2326888005415  59.7673111994585 31.8  58 31.8  C 56.2326888005415 31.8  54.8 33.2326888005415  54.8 35  Z M 50.64 46.84  C 51.92 45.56  51.92 43.64  50.64 42.36  C 49.36 41.08  47.44 41.08  46.16 42.36  C 44.88 43.64  44.88 45.56  46.16 46.84  C 47.44 48.12  49.36 48.12  50.64 46.84  Z " fill-rule="nonzero" fill="url(#LinearGradient208)" stroke="none" transform="matrix(1 0 0 1 917 239 )" />
  </g>
</svg>