<?xml version="1.0" encoding="utf-8"?>
<svg version="1.1" xmlns:xlink="http://www.w3.org/1999/xlink" width="14px" height="14px" xmlns="http://www.w3.org/2000/svg">
  <g transform="matrix(1 0 0 1 -1543 -133 )">
    <path d="M 13.2222222045454 0.137254893382352  C 12.909818714573 0.137254893382352  12.6565656477273 0.383059340614948  12.6565656477273 0.686274492647058  L 12.6565656477273 3.43137254044117  C 12.6565656477273 6.46352410340191  10.1240349436565 8.92156861029412  7 8.92156861029412  C 3.87596505634348 8.92156861029412  1.34343435227272 6.46352410340191  1.34343435227272 3.43137254044117  L 1.34343435227272 0.686274518382351  C 1.34343435227273 0.383059359243635  1.0901812794914 0.137254906249997  0.777777782196968 0.137254906249997  C 0.465374284902534 0.137254906249997  0.21212121212121 0.383059359243635  0.21212121212121 0.686274518382351  L 0.21212121212121 3.43137254044117  C 0.199814685718974 6.86590461237301  2.90801976852791 9.73341587245048  6.43434344318182 10.0196078345588  L 6.43434344318182 12.7647058823529  L 3.04040404924242 12.7647058823529  C 2.72800055194799 12.7647058823529  2.47474747916666 13.0105103353466  2.47474747916666 13.3137254944853  C 2.47474747916666 13.616940653624  2.72800055194799 13.8627451066176  3.04040404924242 13.8627451066176  L 10.9595959507576 13.8627451066176  C 11.271999448052 13.8627451066176  11.5252525208333 13.616940653624  11.5252525208333 13.3137254944853  C 11.5252525208333 13.0105103353466  11.271999448052 12.7647058823529  10.9595959507576 12.7647058823529  L 7.56565655681818 12.7647058823529  L 7.56565655681818 10.0196078345588  C 11.0919802314721 9.73341587245048  13.800185314281 6.86590461237301  13.7878787878788 3.43137254044117  L 13.7878787878788 0.686274518382351  C 13.7878787878788 0.383059340614948  13.5346257210331 0.137254893382352  13.2222222310606 0.137254893382352  Z " fill-rule="nonzero" fill="#555555" stroke="none" fill-opacity="0.8" transform="matrix(1 0 0 1 1543 133 )" />
  </g>
</svg>