<?xml version="1.0" encoding="utf-8"?>
<svg version="1.1" xmlns:xlink="http://www.w3.org/1999/xlink" width="8px" height="13px" xmlns="http://www.w3.org/2000/svg">
  <g transform="matrix(1 0 0 1 -1546 -127 )">
    <path d="M 0.121212113636362 9.4444444375  C 0.121212113636363 11.4081235518448  1.85780460253295 13  4 13  C 6.14219539746705 13  7.87878788636363 11.4081235518448  7.87878788636364 9.4444444375  L 7.87878788636363 3.66666666666667  C 7.87878788636363 1.70298755232187  6.14219539746705 0.111111104166667  4 0.111111104166667  C 1.85780460253294 0.111111104166667  0.121212113636363 1.70298755232187  0.121212113636363 3.66666666666667  L 0.121212113636362 9.4444444375  Z M 1.09090909090909 9.4444444375  L 1.09090909090909 3.66666666666667  C 1.09090909090909 2.19390733378455  2.39335345503769 1  4 1  C 5.60664654496231 1  6.90909090909091 2.19390733378455  6.90909090909091 3.66666666666667  L 6.90909090909091 9.4444444375  C 6.90909090909091 10.9172037703821  5.60664654496231 12.1111111041667  4 12.1111111041667  C 2.39335345503769 12.1111111041667  1.09090909090909 10.9172037703821  1.09090909090909 9.4444444375  Z " fill-rule="nonzero" fill="#555555" stroke="none" fill-opacity="0.8" transform="matrix(1 0 0 1 1546 127 )" />
  </g>
</svg>