<?xml version="1.0" encoding="utf-8"?>
<svg version="1.1" xmlns:xlink="http://www.w3.org/1999/xlink" width="141px" height="34px" xmlns="http://www.w3.org/2000/svg">
  <g transform="matrix(1 0 0 1 -390 -506 )">
    <path d="M 391 511  A 4 4 0 0 1 395 507 L 526 507  A 4 4 0 0 1 530 511 L 530 535  A 4 4 0 0 1 526 539 L 395 539  A 4 4 0 0 1 391 535 L 391 511  Z " fill-rule="nonzero" fill="#ffffff" stroke="none" />
    <path d="M 390.5 511  A 4.5 4.5 0 0 1 395 506.5 L 526 506.5  A 4.5 4.5 0 0 1 530.5 511 L 530.5 535  A 4.5 4.5 0 0 1 526 539.5 L 395 539.5  A 4.5 4.5 0 0 1 390.5 535 L 390.5 511  Z " stroke-width="1" stroke-dasharray="9,4" stroke="#d9001b" fill="none" stroke-dashoffset="0.5" />
  </g>
</svg>