<?xml version="1.0" encoding="utf-8"?>
<svg version="1.1" xmlns:xlink="http://www.w3.org/1999/xlink" width="4px" height="8px" xmlns="http://www.w3.org/2000/svg">
  <g transform="matrix(1 0 0 1 -161 -131 )">
    <path d="M 1.65217391304348 8  L 1.65217391304348 7.11111111111111  L 2.34782608695652 7.11111111111111  L 2.34782608695652 8  L 1.65217391304348 8  Z M 1.61847826086957 6.42361111111111  L 1.61847826086956 6.42083333333333  C 1.61521739130435 6.29166666666667  1.61413043478261 5.83472222222222  1.61413043478261 5.77083333333333  C 1.61413043478261 5.39166666666667  1.65652173913043 5.06527777777778  1.74021739130435 4.79027777777778  C 1.80217391304348 4.58333333333333  1.90108695652174 4.37361111111111  2.03804347826087 4.16388888888889  C 2.13913043478261 4.00972222222222  2.3195652173913 3.78611111111111  2.58152173913043 3.49166666666667  C 2.84239130434783 3.19722222222222  3.01304347826087 2.9625  3.09130434782609 2.7875  C 3.1695652173913 2.6125  3.20869565217391 2.42083333333333  3.20869565217391 2.21388888888889  C 3.20869565217391 1.83888888888889  3.0945652173913 1.50972222222222  2.86521739130435 1.225  C 2.63586956521739 0.941666666666667  2.3554347826087 0.798611111111111  2.02282608695652 0.798611111111111  C 1.70108695652174 0.798611111111111  1.43260869565217 0.927777777777778  1.21739130434782 1.18472222222222  C 1.00217391304348 1.44166666666667  0.86086956521739 1.84305555555556  0.793478260869564 2.39027777777778  L 0.0173913043478251 2.27222222222222  C 0.0869565217391292 1.54027777777778  0.294565217391303 0.979166666666667  0.640217391304347 0.590277777777778  C 0.985869565217391 0.201388888888889  1.44130434782609 0.00694444444444444  2.00869565217391 0.00694444444444444  C 2.60978260869565 0.00694444444444444  3.08913043478261 0.215277777777778  3.44673913043478 0.633333333333334  C 3.80434782608696 1.05138888888889  3.98369565217391 1.55694444444444  3.98369565217391 2.15  C 3.98369565217391 2.49305555555556  3.92065217391304 2.80833333333333  3.7945652173913 3.09861111111111  C 3.66847826086956 3.38888888888889  3.42282608695652 3.74027777777778  3.05652173913043 4.15416666666667  C 2.81086956521739 4.43333333333333  2.65 4.6375  2.57391304347826 4.77083333333333  C 2.49891304347826 4.90277777777778  2.44239130434783 5.05416666666667  2.40652173913043 5.22638888888889  C 2.37065217391304 5.39722222222222  2.34891304347826 6.0375  2.34347826086957 6.42361111111111  L 1.61847826086957 6.42361111111111  Z " fill-rule="nonzero" fill="#7f7f7f" stroke="none" transform="matrix(1 0 0 1 161 131 )" />
  </g>
</svg>