<?xml version="1.0" encoding="utf-8"?>
<svg version="1.1" xmlns:xlink="http://www.w3.org/1999/xlink" width="12px" height="12px" xmlns="http://www.w3.org/2000/svg">
  <g transform="matrix(1 0 0 1 -157 -129 )">
    <path d="M 4.03289473684211 1.34342105263158  C 4.65526315789474 1.08026315789474  5.3171052631579 0.946052631578948  6 0.946052631578947  C 6.6828947368421 0.946052631578947  7.34473684210526 1.07894736842105  7.96710526315789 1.34342105263158  C 8.56842105263158 1.59736842105263  9.10921052631579 1.96184210526316  9.57368421052632 2.42631578947368  C 10.0381578947368 2.89078947368421  10.4026315789474 3.43157894736842  10.6565789473684 4.03289473684211  C 10.9197368421053 4.65526315789474  11.0539473684211 5.3171052631579  11.0539473684211 6  C 11.0539473684211 6.6828947368421  10.9210526315789 7.34473684210526  10.6565789473684 7.96710526315789  C 10.4026315789474 8.56842105263158  10.0381578947368 9.10921052631579  9.57368421052632 9.57368421052632  C 9.10921052631579 10.0381578947368  8.56842105263158 10.4026315789474  7.96710526315789 10.6565789473684  C 7.34473684210526 10.9197368421053  6.6828947368421 11.0539473684211  6 11.0539473684211  C 5.3171052631579 11.0539473684211  4.65526315789474 10.9210526315789  4.03289473684211 10.6565789473684  C 3.43157894736842 10.4026315789474  2.89078947368421 10.0381578947368  2.42631578947368 9.57368421052632  C 1.96184210526316 9.10921052631579  1.59736842105263 8.56842105263158  1.34342105263158 7.96710526315789  C 1.08026315789474 7.34473684210526  0.946052631578948 6.6828947368421  0.946052631578948 6  C 0.946052631578948 5.3171052631579  1.07894736842105 4.65526315789474  1.34342105263158 4.03289473684211  C 1.59736842105263 3.43157894736842  1.96184210526316 2.89078947368421  2.42631578947368 2.42631578947368  C 2.89078947368421 1.96184210526316  3.43157894736842 1.59736842105263  4.03289473684211 1.34342105263158  Z M 11.8960526315789 6  C 11.8960526315789 2.74342105263158  9.25657894736842 0.103947368421053  6 0.103947368421053  C 2.74342105263158 0.103947368421053  0.103947368421053 2.74342105263158  0.103947368421053 6  C 0.103947368421053 9.25657894736842  2.74342105263158 11.8960526315789  6 11.8960526315789  C 9.25657894736842 11.8960526315789  11.8960526315789 9.25657894736842  11.8960526315789 6  Z " fill-rule="nonzero" fill="#7f7f7f" stroke="none" transform="matrix(1 0 0 1 157 129 )" />
  </g>
</svg>