<?xml version="1.0" encoding="utf-8"?>
<svg version="1.1" xmlns:xlink="http://www.w3.org/1999/xlink" width="22px" height="22px" xmlns="http://www.w3.org/2000/svg">
  <g transform="matrix(1 0 0 1 -1138 -28 )">
    <path d="M 15.1371511627907 20.9741860465116  C 13.8010511366172 21.5397989061469  12.3645501716018 21.8299703609213  10.9136627906977 21.8273255813954  C 4.94296300301041 21.8205071935761  0.10636738723447 16.9783851544834  0.10636738723447 11.0076814735843  C 0.10636738723447 5.03215313788602  4.95049021432685 0.188030310793638  10.9260185500252 0.188030310793638  C 16.9015468857235 0.188030310793638  21.7456697128159 5.03215313788602  21.7456697128159 11.0076814735843  C 21.7456697128159 15.355967116643  19.1425676123503 19.2817832873471  15.1371511627907 20.9741860465116  Z M 19.8447674418605 10.9776162790698  C 19.8447674418605 6.0531976744186  15.8380813953488 2.04651162790698  10.9136627906977 2.04651162790698  C 5.98892441860465 2.04651162790698  1.98255813953488 6.05287790697675  1.98255813953488 10.9776162790698  C 1.98255813953488 15.9023546511628  5.98892441860465 19.9087209302326  10.9136627906977 19.9087209302326  C 15.8384011627907 19.9087209302326  19.8447674418605 15.9020348837209  19.8447674418605 10.9776162790698  Z " fill-rule="nonzero" fill="#ec808d" stroke="none" fill-opacity="0.988235294117647" transform="matrix(1 0 0 1 1138 28 )" />
  </g>
</svg>