<?xml version="1.0" encoding="utf-8"?>
<svg version="1.1" xmlns:xlink="http://www.w3.org/1999/xlink" width="18px" height="18px" xmlns="http://www.w3.org/2000/svg">
  <g transform="matrix(1 0 0 1 -1135 -36 )">
    <path d="M 1.78833333333333 12.325119897727  C 1.78833333333333 12.774267112746  1.41523729152566 13.1383728712277  0.955 13.1383728712277  C 0.494762708474339 13.1383728712277  0.121666666666667 12.774267112746  0.121666666666667 12.325119897727  L 0.121666666666667 4.80524073609091  C 0.121666666666667 4.35609352107194  0.494762708474339 3.99198776259024  0.955 3.99198776259024  C 1.41523729152566 3.99198776259024  1.78833333333333 4.35609352107194  1.78833333333333 4.80524073609091  L 1.78833333333333 12.325119897727  Z M 5.20277777777778 12.3129211031245  C 5.20277777777778 12.7620683181435  4.8296817359701 13.1261740766252  4.36944444444445 13.1261740766252  C 3.90920715291878 13.1261740766252  3.53611111111111 12.7620683181435  3.53611111111111 12.3129211031245  L 3.53611111111111 2.85207817806682  C 3.53611111111111 2.40293096304786  3.90920715291878 2.03882520456616  4.36944444444445 2.03882520456616  C 4.8296817359701 2.03882520456616  5.20277777777778 2.40293096304786  5.20277777777778 2.85207817806682  L 5.20277777777778 12.3129211031245  Z M 8.61722222222222 12.337589776654  C 8.61722222222222 12.786736991673  8.24412618041455 13.1508427501547  7.78388888888889 13.1508427501547  C 7.32365159736323 13.1508427501547  6.95055555555556 12.786736991673  7 12.337589776654  L 7 0.959367424406279  C 6.95055555555556 0.959367424406279  6.95055555555556 0.959367424406279  6.95055555555556 0.959367424406279  C 6.95055555555556 0.510220209387318  7.32365159736323 0.146114450905618  7.78388888888889 0.146114450905618  C 8.24412618041455 0.146114450905618  8.61722222222222 0.510220209387318  8.61722222222222 0.959367424406279  L 8.61722222222222 12.337589776654  Z M 17.9720442860046 17.186746191853  C 17.9720442860046 17.6358255943783  17.599056683045 17.9999032578263  17.1388888888889 17.9999991468146  C 16.9178201286941 18.0003120516459  16.7057576341597 17.9145452967469  16.5497222222222 17.7617160255789  L 12.1080555555556 13.4273487611449  C 11.9517620046682 13.2748213271471  11.8639572020626 13.0679497325113  11.8639572020626 12.8522433667177  C 11.8639572020626 12.4030581130357  12.2370848416943 12.0389215181248  12.6973611111111 12.0389215181248  C 12.9183935704875 12.0389215181248  13.1303731157793 12.1246105382927  13.2866666666667 12.2771379722905  L 17.7280555555556 16.611776321049  C 17.8842814546235 16.7642837738642  17.9720442860046 16.9711006367895  17.9720442860046 17.186746191853  Z " fill-rule="nonzero" fill="#ec808d" stroke="none" fill-opacity="0.988235294117647" transform="matrix(1 0 0 1 1135 36 )" />
  </g>
</svg>