<?xml version="1.0" encoding="utf-8"?>
<svg version="1.1" xmlns:xlink="http://www.w3.org/1999/xlink" width="34px" height="25px" xmlns="http://www.w3.org/2000/svg">
  <g transform="matrix(1 0 0 1 -1250 -924 )">
    <path d="M 20.0660714285714 3.125  C 20.0660714285714 1.45331325301205  18.6848214285714 0.0828313253012044  17 0.0828313253012044  C 15.3151785714286 0.0828313253012044  13.9339285714286 1.45331325301205  13.9339285714286 3.125  L 13.9339285714286 8.37725903614458  L 20.0660714285714 8.37725903614458  L 20.0660714285714 3.125  Z M 28.4256696428571 8.6558734939759  C 28.4256696428571 8.20030120481928  28.05 7.82756024096385  27.5908482142857 7.82756024096385  C 27.1316964285714 7.82756024096385  26.7560267857143 8.20030120481928  26.7560267857143 8.6558734939759  L 26.7560267857143 14.1867469879518  C 26.7560267857143 14.6423192771084  27.1316964285714 15.0150602409639  27.5908482142857 15.0150602409639  C 28.05 15.0150602409639  28.4256696428571 14.6423192771084  28.4256696428571 14.1867469879518  L 28.4256696428571 8.6558734939759  Z M 34 9.20933734939759  C 34 8.75376506024096  33.6243303571429 8.38102409638554  33.1651785714286 8.38102409638554  C 32.7060267857143 8.38102409638554  32.3303571428571 8.75376506024096  32.3303571428571 9.20933734939759  L 32.3303571428571 13.6332831325301  C 32.3303571428571 14.0888554216868  32.7060267857143 14.4615963855422  33.1651785714286 14.4615963855422  C 33.6243303571429 14.4615963855422  34 14.0888554216868  34 13.6332831325301  L 34 9.20933734939759  Z M 31.2109375 6.44201807228916  C 31.2147321428571 5.98644578313253  30.8352678571429 5.61370481927711  30.3761160714286 5.61370481927711  C 29.9169642857143 5.61370481927711  29.5412946428571 5.98644578313253  29.5412946428571 6.44201807228916  L 29.5412946428571 16.3968373493976  C 29.5412946428571 16.8524096385542  29.9169642857143 17.2251506024096  30.3761160714286 17.2251506024096  C 30.8352678571429 17.2251506024096  31.2109375 16.8524096385542  31.2109375 16.3968373493976  L 31.2109375 6.44201807228916  Z M 1.66964285714286 9.20933734939759  C 1.6734375 8.75376506024096  1.29776785714286 8.38102409638554  0.834821428571429 8.38102409638554  C 0.375669642857143 8.38102409638554  0 8.75376506024096  0 9.20933734939759  L 0 13.6332831325301  C 0 14.0888554216868  0.375669642857143 14.4615963855422  0.834821428571429 14.4615963855422  C 1.29397321428571 14.4615963855422  1.66964285714286 14.0888554216868  1.66964285714286 13.6332831325301  L 1.66964285714286 9.20933734939759  Z M 4.45870535714286 6.44201807228916  C 4.45870535714286 5.98644578313253  4.08303571428571 5.61370481927711  3.62388392857143 5.61370481927711  C 3.16473214285714 5.61370481927711  2.7890625 5.98644578313253  2.7890625 6.44201807228916  L 2.7890625 16.3968373493976  C 2.7890625 16.8524096385542  3.16473214285714 17.2251506024096  3.62388392857143 17.2251506024096  C 4.08303571428571 17.2251506024096  4.45870535714286 16.8524096385542  4.45870535714286 16.3968373493976  L 4.45870535714286 6.44201807228916  Z M 7.24397321428571 8.6558734939759  C 7.24776785714286 8.20030120481928  6.86830357142857 7.82756024096385  6.40915178571429 7.82756024096385  C 5.95 7.82756024096385  5.57433035714286 8.20030120481928  5.57433035714286 8.6558734939759  L 5.57433035714286 14.1867469879518  C 5.57433035714286 14.6423192771084  5.95 15.0150602409639  6.40915178571429 15.0150602409639  C 6.86830357142857 15.0150602409639  7.24397321428571 14.6423192771084  7.24397321428571 14.1867469879518  L 7.24397321428571 8.6558734939759  Z M 17.8348214285714 19.9510542168675  C 22.2138392857143 19.5331325301205  25.6404017857143 15.8734939759036  25.6404017857143 11.4194277108434  C 25.6404017857143 11.1935240963855  25.6290178571429 10.9713855421687  25.6100446428571 10.7530120481928  C 25.5720982142857 10.3463855421687  25.2267857142857 10.0376506024096  24.8131696428571 10.0376506024096  L 24.7372767857143 10.0376506024096  C 24.2667410714286 10.0376506024096  23.9100446428571 10.4442771084337  23.9479910714286 10.9111445783133  C 23.9821428571429 11.3591867469879  23.9707589285714 11.8185240963855  23.9138392857143 12.289156626506  C 23.5191964285714 15.4518072289157  20.9046875 17.9856927710843  17.7095982142857 18.3019578313253  C 13.5430803571429 18.7123493975904  10.0330357142857 15.4743975903614  10.0330357142857 11.4231927710843  C 10.0330357142857 11.2650602409639  10.0368303571429 11.1069277108434  10.0482142857143 10.9487951807229  C 10.0823660714286 10.4593373493976  9.71428571428571 10.0376506024096  9.22098214285714 10.0376506024096  C 8.7921875 10.0376506024096  8.42410714285714 10.3614457831325  8.38995535714286 10.7868975903614  C 8.37098214285714 10.9939759036145  8.36339285714286 11.2048192771084  8.36339285714286 11.4194277108434  C 8.36339285714286 15.8734939759036  11.7861607142857 19.5331325301205  16.1651785714286 19.9510542168675  L 16.1651785714286 23.3094879518072  L 11.7064732142857 23.3094879518072  C 11.2435267857143 23.3094879518072  10.8716517857143 23.6822289156627  10.8716517857143 24.1378012048193  C 10.8716517857143 24.5971385542169  11.2473214285714 24.9661144578313  11.7064732142857 25  L 22.2935267857143 25  C 22.7564732142857 24.9661144578313  23.1283482142857 24.5933734939759  23.1283482142857 24.1378012048193  C 23.1283482142857 23.6784638554217  22.7526785714286 23.3094879518072  22.2935267857143 23.3094879518072  L 17.8348214285714 23.3094879518072  L 17.8348214285714 19.9510542168675  Z " fill-rule="nonzero" fill="#7f7f7f" stroke="none" transform="matrix(1 0 0 1 1250 924 )" />
  </g>
</svg>