<?xml version="1.0" encoding="utf-8"?>
<svg version="1.1" xmlns:xlink="http://www.w3.org/1999/xlink" width="12px" height="21px" xmlns="http://www.w3.org/2000/svg">
  <g transform="matrix(1 0 0 1 -1261 -921 )">
    <path d="M 0.2175 14.7039179104478  C 0.2175 18.030223880597  2.82 20.7492537313433  6 20.7492537313433  C 9.18 20.7492537313433  11.7825 18.030223880597  11.7825 14.7078358208955  L 11.7825 6.07276119402985  C 11.7825 2.75037313432836  9.18 0.03134328358209  6 0.03134328358209  C 2.82 0.03134328358209  0.2175 2.75037313432836  0.2175 6.07276119402985  L 0.2175 14.7039179104478  Z M 1.8675 12.6901119402985  L 1.8675 6.07276119402985  C 1.8675 3.69850746268657  3.7275 1.75522388059702  6 1.75522388059702  C 8.2725 1.75522388059702  10.1325 3.69850746268657  10.1325 6.07276119402985  L 10.1325 12.6901119402985  L 1.8675 12.6901119402985  Z M 1.86375 14.4179104477612  L 1.8675 14.4179104477612  L 10.12875 14.4179104477612  L 10.12875 14.7039179104478  C 10.12875 17.078171641791  8.26875 19.0214552238806  5.99625 19.0214552238806  C 3.72375 19.0214552238806  1.86375 17.078171641791  1.86375 14.7039179104478  L 1.86375 14.4179104477612  Z " fill-rule="nonzero" fill="#7f7f7f" stroke="none" transform="matrix(1 0 0 1 1261 921 )" />
  </g>
</svg>