<?xml version="1.0" encoding="utf-8"?>
<svg version="1.1" xmlns:xlink="http://www.w3.org/1999/xlink" width="14px" height="14px" xmlns="http://www.w3.org/2000/svg">
  <g transform="matrix(1 0 0 1 -1087 -592 )">
    <path d="M 12.5735488505747 3.72748055555556  C 12.1956896551724 3.36221666666667  11.5831091954023 3.36221666666667  11.2052701149425 3.72748055555556  C 10.8274310344828 4.09274444444445  10.8274109195402 4.68490555555556  11.2052701149425 5.05015  C 12.3388477011494 6.14594166666667  12.3388477011494 7.922425  11.2052701149425 9.01815833333333  C 10.8274109195402 9.38342222222222  10.8274109195402 9.97558333333333  11.2052701149425 10.3408277777778  C 11.5831293103448 10.7060916666667  12.1957097701149 10.7060916666667  12.5735488505747 10.3408277777778  C 14.4627442528736 8.51460555555555  14.4627442528736 5.553625  12.5735488505747 3.72728611111111  Z M 8.04265804597701 0.300125  L 3.91430747126437 3.29322777777778  L 1.33283620689655 3.29322777777778  C 0.615255747126436 3.29322777777778  0.044132183908046 3.84644166666667  0.044132183908046 4.52878611111111  L 0.044132183908046 9.54002777777778  C 0.044132183908046 10.213175  0.621109195402299 10.7755861111111  1.33283620689655 10.7755861111111  L 3.91430747126437 10.7755861111111  L 8.04265804597701 13.7686888888889  C 8.61667816091954 14.1847611111111  9.07453448275862 13.9571055555556  9 13.2666333333333  L 9 0.802219444444444  C 9.07453448275862 0.120458333333333  8.61247413793103 -0.112933333333333  8.04265804597701 0.300163888888889  Z " fill-rule="nonzero" fill="#8a8a8a" stroke="none" transform="matrix(1 0 0 1 1087 592 )" />
  </g>
</svg>