<?xml version="1.0" encoding="utf-8"?>
<svg version="1.1" xmlns:xlink="http://www.w3.org/1999/xlink" width="136px" height="136px" xmlns="http://www.w3.org/2000/svg">
  <g transform="matrix(1 0 0 1 -604 -309 )">
    <path d="M 672 311  C 708.96 311  738 340.04  738 377  C 738 413.96  708.96 443  672 443  C 635.04 443  606 413.96  606 377  C 606 340.04  635.04 311  672 311  Z " fill-rule="nonzero" fill="#81d3f8" stroke="none" />
    <path d="M 672 310.5  C 709.24 310.5  738.5 339.76  738.5 377  C 738.5 414.24  709.24 443.5  672 443.5  C 634.76 443.5  605.5 414.24  605.5 377  C 605.5 339.76  634.76 310.5  672 310.5  Z " stroke-width="3" stroke="#ffffff" fill="none" />
  </g>
</svg>