<?xml version="1.0" encoding="utf-8"?>
<svg version="1.1" xmlns:xlink="http://www.w3.org/1999/xlink" width="136px" height="136px" xmlns="http://www.w3.org/2000/svg">
  <g transform="matrix(1 0 0 1 -1357 -309 )">
    <path d="M 1425 311  C 1461.96 311  1491 340.04  1491 377  C 1491 413.96  1461.96 443  1425 443  C 1388.04 443  1359 413.96  1359 377  C 1359 340.04  1388.04 311  1425 311  Z " fill-rule="nonzero" fill="#69e147" stroke="none" />
    <path d="M 1425 310.5  C 1462.24 310.5  1491.5 339.76  1491.5 377  C 1491.5 414.24  1462.24 443.5  1425 443.5  C 1387.76 443.5  1358.5 414.24  1358.5 377  C 1358.5 339.76  1387.76 310.5  1425 310.5  Z " stroke-width="3" stroke="#ffffff" fill="none" />
  </g>
</svg>