<?xml version="1.0" encoding="utf-8"?>
<svg version="1.1" xmlns:xlink="http://www.w3.org/1999/xlink" width="612px" height="376px" xmlns="http://www.w3.org/2000/svg">
  <defs>
    <radialGradient cx="305" cy="-62.7063686004767" r="383" gradientTransform="matrix(0 0.981723237597911 -1 0 242.293631399523 -362.13195606784 )" gradientUnits="userSpaceOnUse" id="RadialGradient228">
      <stop id="Stop229" stop-color="#ffffff" offset="0" />
      <stop id="Stop230" stop-color="#6d000e" offset="1" />
    </radialGradient>
  </defs>
  <g>
    <path d="M 0.5 20  A 19.5 19.5 0 0 1 20 0.5 L 592 0.5  A 19.5 19.5 0 0 1 611.5 20 L 611.5 356  A 19.5 19.5 0 0 1 592 375.5 L 20 375.5  A 19.5 19.5 0 0 1 0.5 356 L 0.5 20  Z " fill-rule="nonzero" fill="#ffffff" stroke="none" />
    <path d="M 0.5 20  A 19.5 19.5 0 0 1 20 0.5 L 592 0.5  A 19.5 19.5 0 0 1 611.5 20 L 611.5 356  A 19.5 19.5 0 0 1 592 375.5 L 20 375.5  A 19.5 19.5 0 0 1 0.5 356 L 0.5 20  Z " stroke-width="1" stroke="url(#RadialGradient228)" fill="none" />
  </g>
</svg>