<?xml version="1.0" encoding="utf-8"?>
<svg version="1.1" xmlns:xlink="http://www.w3.org/1999/xlink" width="27px" height="9px" xmlns="http://www.w3.org/2000/svg">
  <g transform="matrix(1 0 0 1 -264 -16 )">
    <path d="M 26.2918526785714 0.826171875  C 26.7639508928571 1.376953125  27 2.0390625  27 2.8125  L 27 6.1875  C 27 6.9609375  26.7639508928571 7.623046875  26.2918526785714 8.173828125  C 25.8197544642857 8.724609375  25.2522321428571 9  24.5892857142857 9  L 2.41071428571429 9  C 1.74776785714286 9  1.18024553571429 8.724609375  0.708147321428571 8.173828125  C 0.236049107142857 7.623046875  0 6.9609375  0 6.1875  L 0 2.8125  C 0 2.0390625  0.236049107142857 1.376953125  0.708147321428571 0.826171875  C 1.18024553571429 0.275390625000001  1.74776785714286 0  2.41071428571429 0  L 24.5892857142857 0  C 25.2522321428571 0  25.8197544642857 0.275390625000001  26.2918526785714 0.826171875  Z " fill-rule="nonzero" fill="#f59a23" stroke="none" transform="matrix(1 0 0 1 264 16 )" />
  </g>
</svg>