<?xml version="1.0" encoding="utf-8"?>
<svg version="1.1" xmlns:xlink="http://www.w3.org/1999/xlink" width="71px" height="58px" xmlns="http://www.w3.org/2000/svg">
  <g transform="matrix(1 0 0 1 -1 -1 )">
    <path d="M 50.615234375 7.45768229166666  C 45.9268043154762 5.70811631944444  40.8883928571429 4.83333333333334  35.5 4.83333333333334  C 30.1116071428571 4.83333333333334  25.0731956845238 5.70811631944444  20.384765625 7.45768229166666  C 15.6963355654762 9.20724826388889  11.9720052083333 11.5672743055556  9.21177455357143 14.5377604166667  C 6.45154389880952 17.5082465277778  5.07142857142857 20.7178819444444  5.07142857142857 24.1666666666667  C 5.07142857142857 26.9861111111111  6.01571800595238 29.6733940972222  7.904296875 32.228515625  C 9.79287574404762 34.7836371527778  12.4540550595238 36.9926215277778  15.8878348214286 38.85546875  L 19.3348214285714 40.7434895833333  L 18.2650669642857 44.3684895833333  C 17.6311383928571 46.6592881944445  16.7066592261905 48.82421875  15.4916294642857 50.86328125  C 19.5065104166667 49.27734375  23.1383928571429 47.125  26.3872767857143 44.40625  L 28.0909598214286 42.9713541666667  L 30.3493303571429 43.1979166666667  C 32.171875 43.3993055555556  33.8887648809524 43.5  35.5 43.5  C 40.8883928571429 43.5  45.9268043154762 42.6252170138889  50.615234375 40.8756510416667  C 55.3036644345238 39.1260850694444  59.0279947916667 36.7660590277778  61.7882254464286 33.7955729166667  C 64.5484561011905 30.8250868055556  65.9285714285714 27.6154513888889  65.9285714285714 24.1666666666667  C 65.9285714285714 20.7178819444444  64.5484561011905 17.5082465277778  61.7882254464286 14.5377604166667  C 59.0279947916667 11.5672743055556  55.3036644345238 9.20724826388889  50.615234375 7.45768229166666  Z M 66.2455357142857 12.0266927083333  C 69.4151785714286 15.7398003472222  71 19.7864583333333  71 24.1666666666667  C 71 28.546875  69.4151785714286 32.5935329861111  66.2455357142857 36.306640625  C 63.0758928571429 40.0197482638889  58.7704613095238 42.9524739583333  53.3292410714286 45.1048177083333  C 47.8880208333333 47.2571614583333  41.9449404761905 48.3333333333333  35.5 48.3333333333333  C 33.6510416666667 48.3333333333333  31.7360491071429 48.2326388888889  29.7550223214286 48.03125  C 24.5251116071429 52.4366319444445  18.4499627976191 55.4826388888889  11.5295758928571 57.1692708333333  C 10.2353050595238 57.5217013888889  8.72972470238095 57.7986111111111  7.01283482142857 58  L 6.81473214285714 58  C 6.41852678571429 58  6.06194196428571 57.8678385416667  5.74497767857143 57.603515625  C 5.42801339285714 57.3391927083333  5.21670386904762 56.9930555555556  5.11104910714286 56.5651041666667  L 5.11104910714286 56.52734375  C 5.03180803571429 56.4266493055556  5.02520461309524 56.2756076388889  5.09123883928571 56.07421875  C 5.15727306547619 55.8728298611111  5.18368675595238 55.7469618055556  5.17047991071429 55.6966145833333  C 5.15727306547619 55.6462673611111  5.21670386904762 55.5266927083333  5.34877232142857 55.337890625  L 5.58649553571429 54.998046875  C 5.58649553571429 54.998046875  5.67894345238095 54.8910590277778  5.86383928571429 54.6770833333333  C 6.04873511904762 54.4631076388889  6.15438988095238 54.3498263888889  6.18080357142857 54.3372395833333  C 6.36569940476191 54.1358506944445  6.77511160714286 53.7016059027778  7.40904017857143 53.0345052083333  C 8.04296875 52.3674045138889  8.49860491071428 51.8891059027778  8.77594866071428 51.599609375  C 9.05329241071429 51.3101128472222  9.46270461309524 50.8129340277778  10.0041852678571 50.1080729166667  C 10.545665922619 49.4032118055556  10.9748883928571 48.7612847222222  11.2918526785714 48.1822916666667  C 11.6088169642857 47.6032986111111  11.9654017857143 46.8606770833333  12.3616071428571 45.9544270833333  C 12.7578125 45.0481770833333  13.1011904761905 44.0915798611111  13.3917410714286 43.0846354166667  C 9.24479166666667 40.8441840277778  5.97609747023809 38.0750868055556  3.58565848214286 34.77734375  C 1.19521949404762 31.4796006944444  0 27.9427083333333  0 24.1666666666667  C 0 19.7864583333333  1.58482142857143 15.7398003472222  4.75446428571429 12.0266927083333  C 7.92410714285714 8.31358506944444  12.2295386904762 5.380859375  17.6707589285714 3.228515625  C 23.1119791666667 1.076171875  29.0550595238095 0  35.5 0  C 41.9449404761905 0  47.8880208333333 1.076171875  53.3292410714286 3.228515625  C 58.7704613095238 5.380859375  63.0758928571429 8.31358506944444  66.2455357142857 12.0266927083333  Z " fill-rule="nonzero" fill="#ffffff" stroke="none" transform="matrix(1 0 0 1 1 1 )" />
  </g>
</svg>