<?xml version="1.0" encoding="utf-8"?>
<svg version="1.1" xmlns:xlink="http://www.w3.org/1999/xlink" width="51px" height="38px" xmlns="http://www.w3.org/2000/svg">
  <g transform="matrix(1 0 0 1 -242 -140 )">
    <path d="M 48.76875 21.1725852272727  C 50.25625 23.0527935606061  51 25.2073863636364  51 27.6363636363636  C 51 30.4971590909091  50.00390625 32.9396306818182  48.01171875 34.9637784090909  C 46.01953125 36.9879261363636  43.615625 38  40.8 38  L 11.9 38  C 8.62395833333333 38  5.82161458333333 36.8169981060606  3.49296875 34.4509943181818  C 1.16432291666667 32.084990530303  0 29.2376893939394  0 25.9090909090909  C 0 23.5340909090909  0.628645833333333 21.3615056818182  1.8859375 19.3913352272727  C 3.14322916666667 17.4211647727273  4.79895833333333 15.9502840909091  6.853125 14.9786931818182  C 6.81770833333333 14.4749053030303  6.8 14.0880681818182  6.8 13.8181818181818  C 6.8 10.0037878787879  8.128125 6.74715909090909  10.784375 4.04829545454546  C 13.440625 1.34943181818182  16.6458333333333 0  20.4 0  C 23.1979166666667 0  25.7346354166667 0.791666666666664  28.01015625 2.375  C 30.2856770833333 3.95833333333333  31.9458333333333 6.02746212121212  32.990625 8.58238636363636  C 34.2302083333333 7.46685606060606  35.7 6.90909090909091  37.4 6.90909090909091  C 39.2770833333333 6.90909090909091  40.8796875 7.58380681818182  42.2078125 8.93323863636364  C 43.5359375 10.2826704545455  44.2 11.9109848484848  44.2 13.8181818181818  C 44.2 15.1676136363636  43.8369791666667 16.4090909090909  43.1109375 17.5426136363636  C 45.3953125 18.0823863636364  47.28125 19.2923768939394  48.76875 21.1725852272727  Z " fill-rule="nonzero" fill="#81d3f8" stroke="none" fill-opacity="0.109803921568627" transform="matrix(1 0 0 1 242 140 )" />
  </g>
</svg>