<?xml version="1.0" encoding="utf-8"?>
<svg version="1.1" xmlns:xlink="http://www.w3.org/1999/xlink" width="33px" height="33px" xmlns="http://www.w3.org/2000/svg">
  <g transform="matrix(1 0 0 1 -174 -99 )">
    <path d="M 0.13299 16.5  C 0.13299 7.46064  7.46064 0.13299  16.5 0.13299  C 25.53936 0.13299  32.86701 7.46064  32.86701 16.5  C 32.86701 25.53936  25.53936 32.86701  16.5 32.86701  C 7.46064 32.86701  0.13299 25.53936  0.13299 16.5  Z M 18.97863 24.585  C 18.97863 23.21583  17.86884 22.10637  16.5 22.10637  C 15.13116 22.10637  14.02137 23.21583  14.02137 24.585  C 14.02137 25.95384  15.13116 27.06363  16.5 27.06363  C 17.86884 27.06363  18.97863 25.95384  18.97863 24.585  Z M 14.29395 18.03384  C 14.29395 19.21293  15.24963 20.16861  16.42872 20.16861  C 17.60781 20.16861  18.56349 19.2126  18.56349 18.03384  L 18.56349 8.07114  C 18.56349 6.89205  17.60781 5.93637  16.42872 5.93637  C 15.24963 5.93637  14.29395 6.89238  14.29395 8.07114  L 14.29395 18.03384  Z " fill-rule="nonzero" fill="#f59a23" stroke="none" transform="matrix(1 0 0 1 174 99 )" />
  </g>
</svg>