<?xml version="1.0" encoding="utf-8"?>
<svg version="1.1" xmlns:xlink="http://www.w3.org/1999/xlink" width="86px" height="29px" xmlns="http://www.w3.org/2000/svg">
  <g transform="matrix(1 0 0 1 -573 -210 )">
    <path d="M 574 215  A 4 4 0 0 1 578 211 L 654 211  A 4 4 0 0 1 658 215 L 658 234  A 4 4 0 0 1 654 238 L 578 238  A 4 4 0 0 1 574 234 L 574 215  Z " fill-rule="nonzero" fill="#81d3f8" stroke="none" fill-opacity="0.298039215686275" />
    <path d="M 573.5 215  A 4.5 4.5 0 0 1 578 210.5 L 654 210.5  A 4.5 4.5 0 0 1 658.5 215 L 658.5 234  A 4.5 4.5 0 0 1 654 238.5 L 578 238.5  A 4.5 4.5 0 0 1 573.5 234 L 573.5 215  Z " stroke-width="1" stroke="#02a7f0" fill="none" stroke-opacity="0.298039215686275" />
  </g>
</svg>