<?xml version="1.0" encoding="utf-8"?>
<svg version="1.1" xmlns:xlink="http://www.w3.org/1999/xlink" width="170px" height="170px" xmlns="http://www.w3.org/2000/svg">
  <g transform="matrix(1 0 0 1 -893 -401 )">
    <path d="M 978 405  C 1023.36 405  1059 440.64  1059 486  C 1059 531.36  1023.36 567  978 567  C 932.64 567  897 531.36  897 486  C 897 440.64  932.64 405  978 405  Z " fill-rule="nonzero" fill="#d9001b" stroke="none" />
    <path d="M 978 403.5  C 1024.2 403.5  1060.5 439.8  1060.5 486  C 1060.5 532.2  1024.2 568.5  978 568.5  C 931.8 568.5  895.5 532.2  895.5 486  C 895.5 439.8  931.8 403.5  978 403.5  Z " stroke-width="5" stroke="#000000" fill="none" />
  </g>
</svg>