<?xml version="1.0" encoding="utf-8"?>
<svg version="1.1" xmlns:xlink="http://www.w3.org/1999/xlink" width="170px" height="170px" xmlns="http://www.w3.org/2000/svg">
  <g transform="matrix(1 0 0 1 -629 -401 )">
    <path d="M 714 405  C 759.36 405  795 440.64  795 486  C 795 531.36  759.36 567  714 567  C 668.64 567  633 531.36  633 486  C 633 440.64  668.64 405  714 405  Z " fill-rule="nonzero" fill="#d9001b" stroke="none" fill-opacity="0" />
    <path d="M 714 403.5  C 760.2 403.5  796.5 439.8  796.5 486  C 796.5 532.2  760.2 568.5  714 568.5  C 667.8 568.5  631.5 532.2  631.5 486  C 631.5 439.8  667.8 403.5  714 403.5  Z " stroke-width="5" stroke="#000000" fill="none" />
  </g>
</svg>