<?xml version="1.0" encoding="utf-8"?>
<svg version="1.1" xmlns:xlink="http://www.w3.org/1999/xlink" width="170px" height="170px" xmlns="http://www.w3.org/2000/svg">
  <g transform="matrix(1 0 0 1 -364 -133 )">
    <path d="M 449 137  C 494.36 137  530 172.64  530 218  C 530 263.36  494.36 299  449 299  C 403.64 299  368 263.36  368 218  C 368 172.64  403.64 137  449 137  Z " fill-rule="nonzero" fill="#f59a23" stroke="none" />
    <path d="M 449 135.5  C 495.2 135.5  531.5 171.8  531.5 218  C 531.5 264.2  495.2 300.5  449 300.5  C 402.8 300.5  366.5 264.2  366.5 218  C 366.5 171.8  402.8 135.5  449 135.5  Z " stroke-width="5" stroke="#000000" fill="none" />
  </g>
</svg>