<?xml version="1.0" encoding="utf-8"?>
<svg version="1.1" xmlns:xlink="http://www.w3.org/1999/xlink" width="20px" height="20px" viewBox="991 481  20 20" xmlns="http://www.w3.org/2000/svg">
  <path d="M 1001 481  C 1006.6 481  1011 485.4  1011 491  C 1011 496.6  1006.6 501  1001 501  C 995.4 501  991 496.6  991 491  C 991 485.4  995.4 481  1001 481  Z " fill-rule="nonzero" fill="#f0f0f0" stroke="none" />
  <path d="M 1001 481.5  C 1006.32 481.5  1010.5 485.68  1010.5 491  C 1010.5 496.32  1006.32 500.5  1001 500.5  C 995.68 500.5  991.5 496.32  991.5 491  C 991.5 485.68  995.68 481.5  1001 481.5  Z " stroke-width="1" stroke="#04f21c" fill="none" />
  <path d="M 1001 496  C 998.2 496  996 493.8  996 491  C 996 488.2  998.2 486  1001 486  C 1003.8 486  1006 488.2  1006 491  C 1006 493.8  1003.8 496  1001 496  " fill-rule="nonzero" fill="#04f21c" stroke="none" />
</svg>