<?xml version="1.0" encoding="utf-8"?>
<svg version="1.1" xmlns:xlink="http://www.w3.org/1999/xlink" width="20px" height="20px" viewBox="991 438  20 20" xmlns="http://www.w3.org/2000/svg">
  <path d="M 1001 438  C 1006.6 438  1011 442.4  1011 448  C 1011 453.6  1006.6 458  1001 458  C 995.4 458  991 453.6  991 448  C 991 442.4  995.4 438  1001 438  Z " fill-rule="nonzero" fill="#f0f0f0" stroke="none" />
  <path d="M 1001 438.5  C 1006.32 438.5  1010.5 442.68  1010.5 448  C 1010.5 453.32  1006.32 457.5  1001 457.5  C 995.68 457.5  991.5 453.32  991.5 448  C 991.5 442.68  995.68 438.5  1001 438.5  Z " stroke-width="1" stroke="#797979" fill="none" />
  <path d="M 1001 453  C 998.2 453  996 450.8  996 448  C 996 445.2  998.2 443  1001 443  C 1003.8 443  1006 445.2  1006 448  C 1006 450.8  1003.8 453  1001 453  " fill-rule="nonzero" fill="#797979" stroke="none" />
</svg>