<?xml version="1.0" encoding="utf-8"?>
<svg version="1.1" xmlns:xlink="http://www.w3.org/1999/xlink" width="20px" height="20px" viewBox="991 387  20 20" xmlns="http://www.w3.org/2000/svg">
  <path d="M 1001 387  C 1006.6 387  1011 391.4  1011 397  C 1011 402.6  1006.6 407  1001 407  C 995.4 407  991 402.6  991 397  C 991 391.4  995.4 387  1001 387  Z " fill-rule="nonzero" fill="#ffffff" stroke="none" />
  <path d="M 1001 387.5  C 1006.32 387.5  1010.5 391.68  1010.5 397  C 1010.5 402.32  1006.32 406.5  1001 406.5  C 995.68 406.5  991.5 402.32  991.5 397  C 991.5 391.68  995.68 387.5  1001 387.5  Z " stroke-width="1" stroke="#797979" fill="none" />
  <path d="M 1001 402  C 998.2 402  996 399.8  996 397  C 996 394.2  998.2 392  1001 392  C 1003.8 392  1006 394.2  1006 397  C 1006 399.8  1003.8 402  1001 402  " fill-rule="nonzero" fill="#797979" stroke="none" />
</svg>