<?xml version="1.0" encoding="utf-8"?>
<svg version="1.1" xmlns:xlink="http://www.w3.org/1999/xlink" width="20px" height="20px" viewBox="282 396  20 20" xmlns="http://www.w3.org/2000/svg">
  <path d="M 292 396  C 297.6 396  302 400.4  302 406  C 302 411.6  297.6 416  292 416  C 286.4 416  282 411.6  282 406  C 282 400.4  286.4 396  292 396  Z " fill-rule="nonzero" fill="#ffffff" stroke="none" />
  <path d="M 292 396.5  C 297.32 396.5  301.5 400.68  301.5 406  C 301.5 411.32  297.32 415.5  292 415.5  C 286.68 415.5  282.5 411.32  282.5 406  C 282.5 400.68  286.68 396.5  292 396.5  Z " stroke-width="1" stroke="#04f21c" fill="none" />
  <path d="M 292 411  C 289.2 411  287 408.8  287 406  C 287 403.2  289.2 401  292 401  C 294.8 401  297 403.2  297 406  C 297 408.8  294.8 411  292 411  " fill-rule="nonzero" fill="#04f21c" stroke="none" />
</svg>