<?xml version="1.0" encoding="utf-8"?>
<svg version="1.1" xmlns:xlink="http://www.w3.org/1999/xlink" width="20px" height="20px" viewBox="282 484  20 20" xmlns="http://www.w3.org/2000/svg">
  <path d="M 292 484  C 297.6 484  302 488.4  302 494  C 302 499.6  297.6 504  292 504  C 286.4 504  282 499.6  282 494  C 282 488.4  286.4 484  292 484  Z " fill-rule="nonzero" fill="#f0f0f0" stroke="none" />
  <path d="M 292 484.5  C 297.32 484.5  301.5 488.68  301.5 494  C 301.5 499.32  297.32 503.5  292 503.5  C 286.68 503.5  282.5 499.32  282.5 494  C 282.5 488.68  286.68 484.5  292 484.5  Z " stroke-width="1" stroke="#797979" fill="none" />
  <path d="M 292 499  C 289.2 499  287 496.8  287 494  C 287 491.2  289.2 489  292 489  C 294.8 489  297 491.2  297 494  C 297 496.8  294.8 499  292 499  " fill-rule="nonzero" fill="#797979" stroke="none" />
</svg>