<?xml version="1.0" encoding="utf-8"?>
<svg version="1.1" xmlns:xlink="http://www.w3.org/1999/xlink" width="20px" height="20px" viewBox="282 438  20 20" xmlns="http://www.w3.org/2000/svg">
  <path d="M 292 438  C 297.6 438  302 442.4  302 448  C 302 453.6  297.6 458  292 458  C 286.4 458  282 453.6  282 448  C 282 442.4  286.4 438  292 438  Z " fill-rule="nonzero" fill="#ffffff" stroke="none" />
  <path d="M 292 438.5  C 297.32 438.5  301.5 442.68  301.5 448  C 301.5 453.32  297.32 457.5  292 457.5  C 286.68 457.5  282.5 453.32  282.5 448  C 282.5 442.68  286.68 438.5  292 438.5  Z " stroke-width="1" stroke="#797979" fill="none" />
  <path d="M 292 453  C 289.2 453  287 450.8  287 448  C 287 445.2  289.2 443  292 443  C 294.8 443  297 445.2  297 448  C 297 450.8  294.8 453  292 453  " fill-rule="nonzero" fill="#797979" stroke="none" />
</svg>