<?xml version="1.0" encoding="utf-8"?>
<svg version="1.1" xmlns:xlink="http://www.w3.org/1999/xlink" width="12px" height="12px" viewBox="545 361  12 12" xmlns="http://www.w3.org/2000/svg">
  <path d="M 551 361  C 554.36 361  557 363.64  557 367  C 557 370.36  554.36 373  551 373  C 547.64 373  545 370.36  545 367  C 545 363.64  547.64 361  551 361  Z " fill-rule="nonzero" fill="#f0f0f0" stroke="none" />
  <path d="M 551 361.5  C 554.08 361.5  556.5 363.92  556.5 367  C 556.5 370.08  554.08 372.5  551 372.5  C 547.92 372.5  545.5 370.08  545.5 367  C 545.5 363.92  547.92 361.5  551 361.5  Z " stroke-width="1" stroke="#797979" fill="none" />
  <path d="M 551 370  C 549.32 370  548 368.68  548 367  C 548 365.32  549.32 364  551 364  C 552.68 364  554 365.32  554 367  C 554 368.68  552.68 370  551 370  " fill-rule="nonzero" fill="#797979" stroke="none" />
</svg>