<?xml version="1.0" encoding="utf-8"?>
<svg version="1.1" xmlns:xlink="http://www.w3.org/1999/xlink" width="12px" height="12px" viewBox="632 361  12 12" xmlns="http://www.w3.org/2000/svg">
  <path d="M 638 361  C 641.36 361  644 363.64  644 367  C 644 370.36  641.36 373  638 373  C 634.64 373  632 370.36  632 367  C 632 363.64  634.64 361  638 361  Z " fill-rule="nonzero" fill="#ffffff" stroke="none" />
  <path d="M 638 361.5  C 641.08 361.5  643.5 363.92  643.5 367  C 643.5 370.08  641.08 372.5  638 372.5  C 634.92 372.5  632.5 370.08  632.5 367  C 632.5 363.92  634.92 361.5  638 361.5  Z " stroke-width="1" stroke="#797979" fill="none" />
  <path d="M 638 370  C 636.32 370  635 368.68  635 367  C 635 365.32  636.32 364  638 364  C 639.68 364  641 365.32  641 367  C 641 368.68  639.68 370  638 370  " fill-rule="nonzero" fill="#797979" stroke="none" />
</svg>