<?xml version="1.0" encoding="utf-8"?>
<svg version="1.1" xmlns:xlink="http://www.w3.org/1999/xlink" width="347px" height="189px" xmlns="http://www.w3.org/2000/svg">
  <defs>
    <mask fill="white" id="clip271">
      <path d="M 0 189  L 0 0  L 331 0  L 331 38.4156626506024  L 347 55.2831325301205  L 331 92.1807228915663  L 331 189  L 0 189  Z " fill-rule="evenodd" />
    </mask>
  </defs>
  <g transform="matrix(1 0 0 1 -64 -116 )">
    <path d="M 0 189  L 0 0  L 331 0  L 331 38.4156626506024  L 347 55.2831325301205  L 331 92.1807228915663  L 331 189  L 0 189  Z " fill-rule="nonzero" fill="#ffffff" stroke="none" transform="matrix(1 0 0 1 64 116 )" />
    <path d="M 0 189  L 0 0  L 331 0  L 331 38.4156626506024  L 347 55.2831325301205  L 331 92.1807228915663  L 331 189  L 0 189  Z " stroke-width="2" stroke="#797979" fill="none" transform="matrix(1 0 0 1 64 116 )" mask="url(#clip271)" />
  </g>
</svg>