<?xml version="1.0" encoding="utf-8"?>
<svg version="1.1" xmlns:xlink="http://www.w3.org/1999/xlink" width="241px" height="19px" xmlns="http://www.w3.org/2000/svg">
  <defs>
    <mask fill="white" id="clip274">
      <path d="M 0 19  L 0 0  L 135.139240506329 0  L 164.081081081081 0  L 241 0  L 241 19  L 0 19  Z " fill-rule="evenodd" />
    </mask>
  </defs>
  <g transform="matrix(1 0 0 1 -226 -234 )">
    <path d="M 0 19  L 0 0  L 135.139240506329 0  L 164.081081081081 0  L 241 0  L 241 19  L 0 19  Z " fill-rule="nonzero" fill="#ffffff" stroke="none" transform="matrix(1 0 0 1 226 234 )" />
    <path d="M 0 19  L 0 0  L 135.139240506329 0  L 164.081081081081 0  L 241 0  L 241 19  L 0 19  Z " stroke-width="4" stroke="#70b603" fill="none" transform="matrix(1 0 0 1 226 234 )" mask="url(#clip274)" />
  </g>
</svg>