<?xml version="1.0" encoding="utf-8"?>
<svg version="1.1" xmlns:xlink="http://www.w3.org/1999/xlink" width="241px" height="19px" xmlns="http://www.w3.org/2000/svg">
  <defs>
    <mask fill="white" id="clip670">
      <path d="M 0 19  L 0 0  L 161.481481481479 0  L 191 0  L 241 0  L 241 19  L 0 19  Z " fill-rule="evenodd" />
    </mask>
  </defs>
  <g transform="matrix(1 0 0 1 -590 -288 )">
    <path d="M 0 19  L 0 0  L 161.481481481479 0  L 191 0  L 241 0  L 241 19  L 0 19  Z " fill-rule="nonzero" fill="#ffffff" stroke="none" transform="matrix(1 0 0 1 590 288 )" />
    <path d="M 0 19  L 0 0  L 161.481481481479 0  L 191 0  L 241 0  L 241 19  L 0 19  Z " stroke-width="2" stroke="#797979" fill="none" transform="matrix(1 0 0 1 590 288 )" mask="url(#clip670)" />
  </g>
</svg>