<?xml version="1.0" encoding="utf-8"?>
<svg version="1.1" xmlns:xlink="http://www.w3.org/1999/xlink" width="30px" height="30px" xmlns="http://www.w3.org/2000/svg">
  <g transform="matrix(1 0 0 1 -1534 -381 )">
    <path d="M 1549 381  C 1557.4 381  1564 387.6  1564 396  C 1564 404.4  1557.4 411  1549 411  C 1540.6 411  1534 404.4  1534 396  C 1534 387.6  1540.6 381  1549 381  Z " fill-rule="nonzero" fill="#ffffff" stroke="none" />
    <path d="M 1549 381.5  C 1557.12 381.5  1563.5 387.88  1563.5 396  C 1563.5 404.12  1557.12 410.5  1549 410.5  C 1540.88 410.5  1534.5 404.12  1534.5 396  C 1534.5 387.88  1540.88 381.5  1549 381.5  Z " stroke-width="1" stroke="#797979" fill="none" />
  </g>
</svg>