<?xml version="1.0" encoding="utf-8"?>
<svg version="1.1" xmlns:xlink="http://www.w3.org/1999/xlink" width="90px" height="30px" xmlns="http://www.w3.org/2000/svg">
  <defs>
    <mask fill="white" id="clip256">
      <path d="M 0 25  L 0 5  C 0 2.19999999999999  2.20000000000005 0  5 0  L 79 0  C 81.8 0  84 2.19999999999999  84 5  L 90 7.29545454545456  L 84 10.1363636363636  L 84 25  C 84 27.8  81.8 30  79 30  L 5 30  C 2.20000000000005 30  0 27.8  0 25  Z " fill-rule="evenodd" />
    </mask>
  </defs>
  <g transform="matrix(1 0 0 1 -1441 -381 )">
    <path d="M 0 25  L 0 5  C 0 2.19999999999999  2.20000000000005 0  5 0  L 79 0  C 81.8 0  84 2.19999999999999  84 5  L 90 7.29545454545456  L 84 10.1363636363636  L 84 25  C 84 27.8  81.8 30  79 30  L 5 30  C 2.20000000000005 30  0 27.8  0 25  Z " fill-rule="nonzero" fill="#ffffff" stroke="none" transform="matrix(1 0 0 1 1441 381 )" />
    <path d="M 0 25  L 0 5  C 0 2.19999999999999  2.20000000000005 0  5 0  L 79 0  C 81.8 0  84 2.19999999999999  84 5  L 90 7.29545454545456  L 84 10.1363636363636  L 84 25  C 84 27.8  81.8 30  79 30  L 5 30  C 2.20000000000005 30  0 27.8  0 25  Z " stroke-width="2" stroke="#d7d7d7" fill="none" transform="matrix(1 0 0 1 1441 381 )" mask="url(#clip256)" />
  </g>
</svg>