<?xml version="1.0" encoding="utf-8"?>
<svg version="1.1" xmlns:xlink="http://www.w3.org/1999/xlink" width="28px" height="28px" xmlns="http://www.w3.org/2000/svg">
  <defs>
    <linearGradient gradientUnits="userSpaceOnUse" x1="14" y1="0.28" x2="14" y2="28" id="LinearGradient259">
      <stop id="Stop260" stop-color="#aaaaaa" offset="0" />
      <stop id="Stop261" stop-color="#000000" offset="1" />
    </linearGradient>
  </defs>
  <g transform="matrix(1 0 0 1 -1308 -180 )">
    <path d="M 28 14  C 28 21.7315  21.7315 28  14 28  C 6.2685 28  0 21.7315  0 14  C 0 6.2685  6.2685 0  14 0  C 21.7315 0  28 6.2685  28 14  Z M 25.6666666757813 14  C 25.6666666757813 7.5565  20.4435 2.33333332421875  14 2.33333332421875  C 7.5565 2.33333332421875  2.33333332421875 7.5565  2.33333332421875 14  C 2.33333332421875 20.4435  7.5565 25.6666666757813  14 25.6666666757813  C 20.4435 25.6666666757813  25.6666666757813 20.4435  25.6666666757813 14  Z M 21.2788333242188 19.8333333242187  C 19.5112706666526 22.0464724713839  16.832359614445 23.3346169122696  14 23.3333333242188  C 11.1673868949418 23.3342885940244  8.48825441391445 22.0462441319921  6.72 19.8333333242187  C 8.48825441391445 17.6204225164454  11.1673868949418 16.3323780544131  14 16.3333333242187  C 16.832359614445 16.3320497361679  19.5112706666526 17.6201941770536  21.2788333242188 19.8333333242187  Z M 13.9999999304612 15.1666666757812  C 11.4226710928837 15.1666666757812  9.33333325468 13.0773288375775  9.33333325468 10.5  C 9.33333325468 7.92267116242245  11.4226710928837 5.83333332421875  13.9999999304612 5.83333332421875  C 16.5773287680388 5.83333332421875  18.6666666062425 7.92267116242245  18.6666666062425 10.5  C 18.6666666062425 13.0773288375775  16.5773287680388 15.1666666757812  13.9999999304612 15.1666666757812  Z " fill-rule="nonzero" fill="url(#LinearGradient259)" stroke="none" transform="matrix(1 0 0 1 1308 180 )" />
  </g>
</svg>