<?xml version="1.0" encoding="utf-8"?>
<svg version="1.1" xmlns:xlink="http://www.w3.org/1999/xlink" width="152px" height="27px" viewBox="1632 21  152 27" xmlns="http://www.w3.org/2000/svg">
  <path d="M 1633 24  A 2 2 0 0 1 1635 22 L 1781 22  A 2 2 0 0 1 1783 24 L 1783 45  A 2 2 0 0 1 1781 47 L 1635 47  A 2 2 0 0 1 1633 45 L 1633 24  Z " fill-rule="nonzero" fill="#f0f0f0" stroke="none" />
  <path d="M 1632.5 24  A 2.5 2.5 0 0 1 1635 21.5 L 1781 21.5  A 2.5 2.5 0 0 1 1783.5 24 L 1783.5 45  A 2.5 2.5 0 0 1 1781 47.5 L 1635 47.5  A 2.5 2.5 0 0 1 1632.5 45 L 1632.5 24  Z " stroke-width="1" stroke="#2962ff" fill="none" stroke-opacity="0.749019607843137" />
</svg>