<?xml version="1.0" encoding="utf-8"?>
<svg version="1.1" xmlns:xlink="http://www.w3.org/1999/xlink" width="194px" height="279px" xmlns="http://www.w3.org/2000/svg">
  <g transform="matrix(1 0 0 1 -13 -12 )">
    <path d="M 13 12  L 207 12  L 207 291  L 13 291  L 13 12  " fill-rule="nonzero" fill="#cccccc" stroke="none" />
    <path d="M 27 26  L 193 26  L 193 277  L 27 277  L 27 26  " fill-rule="nonzero" fill="#ffffff" stroke="none" />
    <path d="M 128.43 82.95  C 120.282 82.95  113.88 76.548  113.88 68.4  C 113.88 60.252  120.282 53.85  128.43 53.85  C 136.578 53.85  142.98 60.252  142.98 68.4  C 142.98 76.548  136.578 82.95  128.43 82.95  " fill-rule="nonzero" fill="#cccccc" stroke="none" />
    <path d="M 32 272  L 32 139.45  L 71 79.2  L 125.6 127.4  L 156.8 115.35  L 188 127.4  L 188 272  L 32 272  " fill-rule="nonzero" fill="#169bd5" stroke="none" />
  </g>
</svg>