<?xml version="1.0" encoding="utf-8"?>
<svg version="1.1" xmlns:xlink="http://www.w3.org/1999/xlink" width="16px" height="58px" xmlns="http://www.w3.org/2000/svg">
  <defs>
    <mask fill="white" id="clip291">
      <path d="M 0 46.1877394636015  L 0 11.4061302681993  C 0 10.8461302681993  0.39111111111116 10.4061302681993  0.888888888888889 10.4061302681993  L 15.1111111111111 0  C 15.6088888888888 0  16 0.439999999999998  16 1  L 16 57  C 16 57.56  15.6088888888888 58  15.1111111111111 58  L 0.888888888888889 47.1877394636015  C 0.36241790644696 47.0574620208996  0 46.7477394636015  0 46.1877394636015  Z " fill-rule="evenodd" />
    </mask>
  </defs>
  <g transform="matrix(1 0 0 1 -1603 -340 )">
    <path d="M 0 46.1877394636015  L 0 11.4061302681993  C 0 10.8461302681993  0.39111111111116 10.4061302681993  0.888888888888889 10.4061302681993  L 15.1111111111111 0  C 15.6088888888888 0  16 0.439999999999998  16 1  L 16 57  C 16 57.56  15.6088888888888 58  15.1111111111111 58  L 0.888888888888889 47.1877394636015  C 0.36241790644696 47.0574620208996  0 46.7477394636015  0 46.1877394636015  Z " fill-rule="nonzero" fill="#ffffff" stroke="none" transform="matrix(1 0 0 1 1603 340 )" />
    <path d="M 0 46.1877394636015  L 0 11.4061302681993  C 0 10.8461302681993  0.39111111111116 10.4061302681993  0.888888888888889 10.4061302681993  L 15.1111111111111 0  C 15.6088888888888 0  16 0.439999999999998  16 1  L 16 57  C 16 57.56  15.6088888888888 58  15.1111111111111 58  L 0.888888888888889 47.1877394636015  C 0.36241790644696 47.0574620208996  0 46.7477394636015  0 46.1877394636015  Z " stroke-width="2" stroke="#d7d7d7" fill="none" transform="matrix(1 0 0 1 1603 340 )" mask="url(#clip291)" />
  </g>
</svg>