<?xml version="1.0" encoding="utf-8"?>
<svg version="1.1" xmlns:xlink="http://www.w3.org/1999/xlink" width="266px" height="38px" xmlns="http://www.w3.org/2000/svg">
  <g transform="matrix(1 0 0 1 -672 -512 )">
    <path d="M 673 514  A 1 1 0 0 1 674 513 L 936 513  A 1 1 0 0 1 937 514 L 937 548  A 1 1 0 0 1 936 549 L 674 549  A 1 1 0 0 1 673 548 L 673 514  Z " fill-rule="nonzero" fill="#ffffff" stroke="none" />
    <path d="M 672.5 514  A 1.5 1.5 0 0 1 674 512.5 L 936 512.5  A 1.5 1.5 0 0 1 937.5 514 L 937.5 548  A 1.5 1.5 0 0 1 936 549.5 L 674 549.5  A 1.5 1.5 0 0 1 672.5 548 L 672.5 514  Z " stroke-width="1" stroke-dasharray="3,1" stroke="#2962ff" fill="none" stroke-opacity="0.749019607843137" stroke-dashoffset="0.5" />
  </g>
</svg>