<?xml version="1.0" encoding="utf-8"?>
<svg version="1.1" xmlns:xlink="http://www.w3.org/1999/xlink" width="4px" height="3px" xmlns="http://www.w3.org/2000/svg">
  <g transform="matrix(1 0 0 1 -642 -259 )">
    <path d="M 0.537276162109375 1.32266737109375  C 0.537773244184779 1.0674164670452  0.744571228763947 0.860618482466028  0.9998221328125 0.860121400390625  C 1.25527921852752 0.860121400390625  1.46236810351563 1.06721028537873  1.46236810351563 1.32266737109375  C 1.46236810351563 1.57812445680877  1.25527921852752 1.78521334179687  0.9998221328125 1.78521334179687  C 0.744365047097483 1.78521334179687  0.537276162109375 1.57812445680877  0.537276162109375 1.32266737109375  Z M 1.91407315234375 1.32266737109375  C 1.91407314910771 0.8177404768298  1.50474902707645 0.408416354798544  0.999822132812501 0.4084163515625  C 0.494895228112717 0.408416351562501  0.0855711015624996 0.817740478112718  0.0855711015624996 1.32266737695313  C 0.0855711015624996 1.82759427579353  0.494895228112717 2.23691840234375  0.999822126953125 2.23691840234375  C 1.50474902579353 2.23691840234375  1.91407315234375 1.82759427579353  1.91407315234375 1.32266737695313  Z M 2.99455163476562 2.34984466015625  C 2.95545480118833 2.42329327617528  2.87900752439841 2.46916164269998  2.79580141210938 2.46909479492188  C 2.75829874971011 2.46891086321112  2.72140338130436 2.45960950881762  2.68829561523437 2.44199249023438  C 2.57881154339911 2.38234240650212  2.53837372891967 2.24525821439396  2.59795460546875 2.13573646484375  C 2.88778758659045 1.60108047498455  2.89117782695859 0.956934424636897  2.60698870117187 0.419257267578125  C 2.58974855130597 0.386692539257218  2.58073561128468 0.350405055895521  2.58073561128468 0.313558288085938  C 2.58073561128468 0.18879345025464  2.68187749615308 0.0876515653862391  2.80664233398437 0.0876515653862391  C 2.89032038896333 0.0876515653862391  2.96714403315157 0.133905654343982  3.00629596679688 0.20785930859375  C 3.36095150405257 0.878862210246622  3.35654373689606 1.6827710794113  2.99455163476562 2.34984466015625  Z " fill-rule="nonzero" fill="#555555" stroke="none" transform="matrix(1 0 0 1 642 259 )" />
  </g>
</svg>