<?xml version="1.0" encoding="utf-8"?>
<svg version="1.1" xmlns:xlink="http://www.w3.org/1999/xlink" width="123px" height="36px" xmlns="http://www.w3.org/2000/svg">
  <g transform="matrix(1 0 0 1 -1389 -113 )">
    <path d="M 1390 116  A 2 2 0 0 1 1392 114 L 1509 114  A 2 2 0 0 1 1511 116 L 1511 146  A 2 2 0 0 1 1509 148 L 1392 148  A 2 2 0 0 1 1390 146 L 1390 116  Z " fill-rule="nonzero" fill="#f2f2f2" stroke="none" />
    <path d="M 1389.5 116  A 2.5 2.5 0 0 1 1392 113.5 L 1509 113.5  A 2.5 2.5 0 0 1 1511.5 116 L 1511.5 146  A 2.5 2.5 0 0 1 1509 148.5 L 1392 148.5  A 2.5 2.5 0 0 1 1389.5 146 L 1389.5 116  Z " stroke-width="1" stroke-dasharray="9,4" stroke="#d9001b" fill="none" stroke-dashoffset="0.5" />
  </g>
</svg>