<?xml version="1.0" encoding="utf-8"?>
<svg version="1.1" xmlns:xlink="http://www.w3.org/1999/xlink" width="5px" height="4px" xmlns="http://www.w3.org/2000/svg">
  <g transform="matrix(1 0 0 1 -640 -258 )">
    <path d="M 1.30773500976563 3.43566861914062  C 1.27435719501611 3.45342828062416  1.2371342976453 3.46273400546982  1.199325796875 3.46277092382813  C 1.11624919767878 3.46232678325609  1.04018070152554 3.4161299335106  1.001478984375 3.34261737890625  C 0.82537544878441 3.01327511776037  0.73324051660792 2.64557421407393  0.73324051660792 2.27210563410476  C 0.73324051660792 1.01827036270813  1.74967483310191 0.00183604621413439  3.00351010449854 0.00183604621413439  C 3.41963825990391 0.00183604621413439  3.82776186590358 0.116207752190398  4.1832893671875 0.332454919921875  C 4.25162092105739 0.373738567479057  4.29338013948792 0.447757043165585  4.29338013948792 0.527591501953125  C 4.29338013948792 0.653504577959853  4.19130742366298 0.755577293784793  4.06539434765625 0.755577293784793  C 4.02383658315633 0.755577293784793  3.98306926455052 0.744218254130641  3.947499328125 0.722728083984375  C 3.66279834611646 0.549502717859519  3.33595326068196 0.457882151227468  3.00269408732626 0.457882151227468  C 1.99882756870716 0.457882151227468  1.18503296427939 1.27167675565524  1.18503296427939 2.27554327427434  C 1.18503296427939 2.57332035464416  1.258191466934 2.86653714503285  1.39807601953125 3.12941259375  C 1.45765689608033 3.23893434330021  1.41721908160089 3.37601853540837  1.30773500976563 3.43566861914062  Z " fill-rule="nonzero" fill="#555555" stroke="none" transform="matrix(1 0 0 1 640 258 )" />
  </g>
</svg>