<?xml version="1.0" encoding="utf-8"?>
<svg version="1.1" xmlns:xlink="http://www.w3.org/1999/xlink" width="4px" height="3px" xmlns="http://www.w3.org/2000/svg">
  <g transform="matrix(1 0 0 1 -641 -261 )">
    <path d="M 2.46869197460938 1.9118407265625  C 2.34143419195391 2.03891837693139  2.16882307328392 2.11010827346303  1.9889812109375 2.1096875390625  C 1.80528417892145 2.10942843126456  1.62943604039357 2.035181439207  1.50113975585937 1.90371003515625  L 0.708849095703125 1.15568646679688  L 0.697104763671875 1.14303873046875  L 0.0728483867187497 0.449219771484374  C 0.0375172830155699 0.408222211597956  0.0180827929653307 0.355900566937144  0.0180827929653307 0.301779528462949  C 0.0180827929653307 0.177044621900253  0.119200413746385 0.075927001119199  0.243935320309081 0.075927001119199  C 0.306013346663483 0.075927001119199  0.365354532660216 0.101478703862432  0.40801353125 0.14657738671875  L 1.026849453125 0.830458833984375  L 1.81552647265625 1.58209603710938  C 1.86049088658313 1.62957695227713  1.92269328907823 1.65693298243947  1.98807780078125 1.657982484375  C 2.05051135357051 1.65771685812896  2.11029096520762 1.63270039055917  2.1543052578125 1.58841990820312  L 2.95743683984375 0.830458833984374  L 3.58350004296875 0.145673976562498  C 3.62600551333552 0.102098890476281  3.68430098766785 0.0775267127652235  3.74517383168324 0.0775267127652235  C 3.86990873824593 0.0775267127652235  3.97102635902699 0.178644333546278  3.97102635902699 0.303379240108973  C 3.97102635902699 0.357184594535361  3.95181750568772 0.409222389468939  3.9168583671875 0.450123181640624  L 3.28447129882812 1.14123191015625  L 3.27272696679688 1.15387965234375  L 2.46869197460938 1.9118407265625  Z " fill-rule="nonzero" fill="#555555" stroke="none" transform="matrix(1 0 0 1 641 261 )" />
  </g>
</svg>