<?xml version="1.0" encoding="utf-8"?>
<svg version="1.1" xmlns:xlink="http://www.w3.org/1999/xlink" width="5px" height="8px" xmlns="http://www.w3.org/2000/svg">
  <g transform="matrix(1 0 0 1 -614 -268 )">
    <path d="M 0.4452265625 5.39287890625  L 0.557300781249999 3.67180078125  C 0.6373828125 3.67180078125  0.645355468750001 3.63980859375  0.765453125000001 3.67180078125  C 0.78144921875 3.67982421875  0.797445312499999 3.67982421875  0.81344140625 3.67982421875  C 0.81344140625 3.67982421875  0.821464843749999 3.67982421875  0.821464843749999 3.68784765625  L 0.829488281249999 3.69587109375  C 0.845484374999998 3.7118671875  0.853507812499998 3.72786328125  0.869503906249999 3.743859375  C 0.949585937499998 3.79987109375  1.02956640625 3.86395703125  1.10167578125 3.91996875  C 1.253765625 3.96795703124999  1.253765625 3.87995312499999  1.42190234375 4.0080234375  C 1.4939609375 4.06403515624999  1.46191796875 4.06403515624999  1.501984375 4.12812109375  C 1.5100078125 4.13614453125  1.51798046875 4.152140625  1.52600390625 4.16011328124999  L 1.5739921875 4.25619140624999  C 1.65407421875 4.3362734375  1.75807421875 4.28818359375  1.8701484375 4.36826562499999  C 1.934234375 4.41625390625  1.88614453125 4.40025781249999  2.02223828125 4.42427734375  C 2.23836328125 4.448296875  2.15030859375 4.43230078125  2.31839453125 4.53635156249999  C 2.38248046875 4.56834375  2.3984765625 4.55234765624999  2.45448828125 4.58433984374999  C 2.5345703125 4.67239453124999  2.51857421875 4.76842187499999  2.44646484375 4.84850390625  C 2.2383125 5.08864843749999  2.31037109375 5.04863281249999  2.294375 5.24073828124999  C 2.2863515625 5.35281249999999  2.24638671875 5.57696093749999  2.118265625 5.60098046874999  C 1.6379765625 5.70503124999999  1.91813671875 5.77708984374999  1.79006640625 5.96122265624999  C 1.75005078125 6.01723437499999  1.72598046875 6.02530859374999  1.70201171875 6.06527343749999  C 1.60593359375 6.24138281249999  1.67001953125 6.29744531249999  1.38980859375 6.25742968749999  C 1.413828125 6.29744531249999  1.39783203125 6.26545312499999  1.42982421875 6.30541796874999  C 1.50990625 6.40946874999999  1.52590234375 6.48152734374999  1.357765625 6.50554687499999  C 1.21369921875 6.52956640624999  1.27768359375 6.50554687499999  1.2616875 6.62564453124999  C 1.20567578125 6.64164062499999  1.18160546875 6.62564453124999  1.14158984375 6.65763671874999  C 1.189578125 6.72969531249999  1.14158984375 6.66566015624999  1.22964453125 6.71364843749999  C 1.2136484375 6.75366406249999  1.205625 6.79373046874999  1.18962890625 6.82572265624999  C 1.15763671875 6.92180078124999  1.14961328125 6.83374609374999  1.1336171875 6.93779687499999  C 1.18160546875 6.95379296874999  1.21369921875 6.95379296874999  1.2616875 7.00188281249999  C 1.2536640625 7.03387499999999  1.21369921875 7.13797656249999  1.1976015625 7.19403906249999  C 1.26966015625 7.27412109374999  1.325671875 7.36212499999999  1.47776171875 7.37014843749999  C 1.47776171875 7.44220703124999  1.4937578125 7.43423437499999  1.42175 7.44220703124999  C 1.3576640625 7.45023046874999  1.22162109375 7.41021484374999  1.165609375 7.38619531249999  C 1.06953125 7.34617968749999  0.973453124999999 7.29011718749999  0.909468749999997 7.21008593749999  L 0.845382812499997 7.14599999999999  C 0.773324218749996 7.07394140624999  0.805367187499996 7.04194921874999  0.781296874999997 6.99391015624999  C 0.773273437499999 6.96191796874999  0.709238281249997 6.93789843749999  0.733308593749998 6.84182031249999  C 0.741332031249996 6.81780078124999  0.789320312499997 6.68973046874999  0.725285156249999 6.71374999999999  C 0.661199218749999 6.73776953124999  0.773273437499999 6.72177343749999  0.685269531249999 6.76173828124999  C 0.661249999999997 6.71374999999999  0.645253906249998 6.64966406249999  0.637281249999997 6.59365234374999  C 0.613261718749998 6.49757421874999  0.589292968749998 6.49757421874999  0.573195312499998 6.44156249999999  C 0.541203124999999 6.31349218749999  0.613210937499998 6.29749609374999  0.533179687499997 6.07334765624999  C 0.477167968749997 5.92928124999999  0.501187499999999 5.58503515624999  0.445124999999997 5.40897656249999  L 0.445124999999997 5.39287890624999  Z M 4.9761328125 0.373812499999996  L 4.99994921875 0.373761718749998  L 4.99994921875 1.790609375  C 4.983953125 1.7825859375  4.9759296875 1.77461328125  4.95993359375 1.76658984375  C 4.8798515625 1.710578125  4.8558828125 1.654515625  4.76777734375 1.67051171875  C 4.76777734375 1.7265234375  4.77580078125 1.7265234375  4.80779296875 1.76658984375  C 4.93586328125 1.89466015625  4.89584765625 1.846671875  4.99994921875 1.89466015625  L 4.99994921875 2.07076953125  C 4.99192578125 2.07076953125  4.983953125 2.07879296875  4.9759296875 2.07879296875  C 4.95191015625 2.02278125  5.007921875 2.0547734375  4.9359140625 1.9747421875  C 4.8958984375 1.9347265625  4.86385546875 1.92675390625  4.7998203125 1.90268359375  C 4.64773046875 1.846671875  4.67175 1.80660546875  4.575671875 1.73459765625  C 4.47162109375 1.73459765625  4.49558984375 1.7586171875  4.42358203125 1.790609375  C 4.33552734375 1.8226015625  4.3515234375 1.7825859375  4.24747265625 1.790609375  C 4.167390625 1.90268359375  4.28748828125 1.80660546875  4.127375 1.90268359375  C 3.94329296875 2.0147578125  4.0953828125 2.12683203124999  3.79917578125 2.15882421875  C 3.77515625 2.15882421875  3.76718359375 2.15882421875  3.7511875 2.16684765625  C 3.69517578125 2.18284375  3.72716796875 2.16684765625  3.69517578125 2.1908671875  C 3.7191953125 2.23885546875  3.68715234375 2.2308828125  3.78323046875 2.23885546875  C 3.9673125 2.2548515625  3.9913828125 2.17476953125  4.119453125 2.15080078125  C 4.1835390625 2.14277734375  4.59176953125 2.12678125  4.62376171875 2.1348046875  C 4.71181640625 2.21488671875  4.6397578125 2.262875  4.6397578125 2.3269609375  C 4.7358359375 2.3669765625  4.8719296875 2.37494921875  4.92794140625 2.415015625  C 4.99202734375 2.46300390625  4.95993359375 2.45503125  4.99202734375 2.46300390625  L 4.99202734375 5.9131328125  L 4.98400390625 5.905109375  C 4.9680078125 5.88108984374999  4.94398828125 5.85712109375  4.936015625 5.83305078125  C 4.86395703125 5.66496484375  4.896 5.53689453125  4.7679296875 5.3687578125  C 4.61583984375 5.144609375  4.84801171875 5.03253515625  4.83998828125 4.90446484375  C 4.83998828125 4.87247265625  4.8239921875 4.848453125  4.81596875 4.8243828125  C 4.7839765625 4.6882890625  4.76798046875 4.56021875  4.6478828125 4.45616796875  C 4.5198125 4.3360703125  4.53580859375 4.384109375  4.57582421875 4.18403125  C 4.6318359375 3.9598828125  4.503765625 4.0159453125  4.3356796875 4.0159453125  C 4.247625 3.81581640625  4.08751171875 3.91189453125  3.91942578125 3.9759296875  C 3.815375 4.0159453125  3.775359375 3.96790625  3.66328515625 3.9759296875  C 3.40714453125 3.99994921875  3.6072734375 4.08800390625  3.26302734375 3.8798515625  C 3.1189609375 3.791796875  3.2150390625 3.8398359375  3.12693359375 3.72776171875  C 3.09494140625 3.68774609375  3.0068359375 3.63168359375  2.96687109375 3.59166796875  C 2.83880078125 3.46359765625  2.990890625 3.33552734375  2.96687109375 3.1834375  C 2.92685546875 2.91130078125  2.87079296875 3.1514453125  3.06294921875 2.81522265625  C 3.167 2.63911328125  3.31908984375 2.63911328125  3.35910546875 2.55908203125  C 3.39109765625 2.4870234375  3.36712890625 2.438984375  3.4391875 2.375  C 3.49519921875 2.31898828125  3.57528125 2.334984375  3.6072734375 2.25490234375  C 3.65526171875 2.1508515625  3.5672578125 2.142828125  3.4711796875 2.1348046875  C 3.4311640625 2.03075390625  3.4311640625 2.05472265625  3.46315625 1.9586953125  C 3.47915234375 1.90268359375  3.46315625 1.87861328125  3.47915234375 1.8226015625  C 3.51916796875 1.6865078125  3.815375 1.8226015625  3.90337890625 1.76658984375  C 3.94339453125 1.710578125  3.9513671875 1.654515625  3.90337890625 1.59850390625  C 3.855390625 1.5424921875  3.7913046875 1.550515625  3.7593125 1.494453125  C 3.83137109375 1.4544375  3.77530859375 1.4864296875  3.83939453125 1.47845703125  C 3.911453125 1.4624609375  3.90348046875 1.44646484375  3.991484375 1.43844140624999  C 4.07156640625 1.43041796875  4.1195546875 1.37435546874999  4.19963671875 1.33439062499999  C 4.3117109375 1.27837890624999  4.2556484375 1.23033984375  4.39179296875 1.21429296874999  C 4.5999453125 1.18230078124999  4.4638515625 1.19027343749999  4.48787109375 1.03818359375  C 4.51986328125 1.03016015624999  4.55195703125 1.01416406249999  4.58394921875 1.00619140624999  C 4.64803515625 1.07027734374999  4.567953125 1.04620703125  4.64803515625 1.09424609375  C 4.6720546875 1.08622265625  4.6960234375 1.07825  4.72009375 1.06225390625  C 4.7120703125 0.990195312499996  4.66408203125 1.00624218749999  4.64001171875 0.910164062499996  C 4.5359609375 0.926160156249995  4.4959453125 0.990246093749995  4.41586328125 0.966175781249996  C 4.33578125 0.942156249999995  4.32780859375 0.854101562499997  4.33578125 0.774019531249996  C 4.3677734375 0.718007812499996  4.51986328125 0.685964843749996  4.57592578125 0.669968749999995  C 4.67200390625 0.645949218749996  4.6560078125 0.597910156249995  4.74401171875 0.525902343749996  C 4.8560859375 0.437847656249996  4.77600390625 0.525902343749996  4.83206640625 0.413828124999997  C 4.96013671875 0.413828124999997  4.89615234375 0.405804687499998  4.9761328125 0.373812499999996  Z M 0.677347656250001 1.71052734375  L 0.677296875000001 1.74262109375  L 0.733308593750003 0.80601171875  C 0.749304687500002 0.781992187499998  0.773324218750002 0.749999999999998  0.805367187500003 0.717957031249998  C 0.837359375000002 0.717957031249998  0.973453125000002 0.725980468749999  0.997523437500002 0.733953124999999  C 1.0936015625 0.749949218749999  1.0375390625 0.765945312499998  1.14158984375 0.798039062499999  C 1.14158984375 0.862124999999999  1.10157421875 0.942105468749999  1.221671875 0.926109374999998  C 1.31775 0.910113281249998  1.29373046875 0.854050781249997  1.40575390625 0.838054687499998  C 1.4537421875 0.934132812499998  1.44576953125 0.974148437499998  1.46983984375 1.08622265625  C 1.7419765625 1.1663046875  1.6219296875 1.2383125  1.56591796875 1.39040234375  C 1.59791015625 1.4063984375  1.6379765625 1.414421875  1.66996875 1.43041796875  C 1.66996875 1.47840625  1.66996875 1.51847265625  1.6619453125 1.56651171875  C 1.653921875 1.56651171875  1.3657890625 1.5185234375  1.3497421875 1.5105  C 1.3897578125 1.414421875  1.4778125 1.414421875  1.5258515625 1.31037109375  C 1.42180078125 1.3263671875  1.4297734375 1.35038671875  1.357765625 1.3663828125  C 1.2936796875 1.38237890625  1.23766796875 1.37440625  1.165609375 1.37440625  C 1.14158984375 1.4384921875  1.165609375 1.31839453125  1.1736328125 1.39842578125  C 1.1736328125 1.43041796875  1.19765234375 1.39842578125  1.1736328125 1.43041796875  C 1.0775546875 1.39842578125  1.109546875 1.31834375  0.933488281250002 1.39040234375  C 0.973503906250002 1.4063984375  1.0135703125 1.414421875  1.0535859375 1.43041796875  C 1.0455625 1.51847265625  1.03758984375 1.4544375  1.0135703125 1.5105  C 0.949484375000001 1.66258984375  1.18165625 1.56651171875  1.23771875 1.55848828125  C 1.22172265625 1.6385703125  1.15763671875 1.6385703125  1.0696328125 1.6625390625  C 0.965582031249999 1.68655859375  0.9415625 1.71855078125  0.861480468750001 1.73459765625  C 0.861480468750001 1.63851953125  0.845484375000002 1.7186015625  0.901496093750001 1.654515625  C 0.821414062500001 1.6625390625  0.765402343750001 1.6865078125  0.685371093750001 1.71052734375  L 0.677347656250001 1.71052734375  Z M 0.749406250000003 0.517929687500001  L 0.757378906250002 0.533824218749999  L 0.781398437500002 0.205624999999998  C 0.821414062500002 0.189628906249999  0.869453125000003 0.181605468749998  0.917492187500002 0.181605468749998  C 1.5258515625 0.181605468749998  1.23771875 0.205624999999998  1.42180078125 0.269660156249998  C 1.46181640625 0.285656249999999  1.5418984375 0.293679687499999  1.5658671875 0.317648437499997  C 1.6058828125 0.365636718749998  1.5658671875 0.405703124999999  1.629953125 0.437746093749999  C 1.68596484375 0.469738281249999  1.6940390625 0.437746093749999  1.7580234375 0.501832031249998  C 1.74202734375 0.541847656249999  1.71003515625 0.581914062499999  1.629953125 0.581914062499999  C 1.52590234375 0.581914062499999  1.5899375 0.525902343749998  1.47786328125 0.533925781249998  C 1.47786328125 0.614007812499999  1.5819140625 0.645999999999999  1.48588671875 0.686015625  C 1.4058046875 0.72603125  1.45389453125 0.670019531249999  1.38980859375 0.702011718749999  C 1.38980859375 0.702011718749999  1.38178515625 0.702011718749999  1.38178515625 0.710035156249997  L 1.37376171875 0.718058593749998  C 1.36573828125 0.726082031249996  1.3497421875 0.734054687499997  1.34176953125 0.742078124999999  C 1.1896796875 0.710085937499999  1.21369921875 0.726082031249998  1.12564453125 0.645999999999999  C 1.09365234375 0.614007812499999  1.08562890625 0.605984374999998  1.02159375 0.614007812499999  C 0.981578125000002 0.614007812499999  0.933539062500003 0.630003906249998  0.893523437500004 0.605984374999998  C 0.965582031250005 0.533925781249998  1.00559765625 0.605984374999998  1.1096484375 0.557996093749999  C 1.12564453125 0.54997265625  1.2457421875 0.4779140625  1.2697109375 0.461917968750001  C 1.23771875 0.405906249999999  1.2697109375 0.45389453125  1.22172265625 0.4139296875  C 1.117671875 0.325875  1.08562890625 0.34984375  0.941562500000003 0.34984375  C 0.877476562500004 0.4139296875  0.821464843750004 0.4859375  0.749406250000003 0.517929687500001  Z M 3.7512890625 0.990246093749999  L 3.7592109375 0.990144531249998  C 3.7592109375 1.15823046875  3.83126953125 1.10221875  3.90327734375 1.18230078125  C 3.87128515625 1.254359375  3.86326171875 1.198296875  3.83121875 1.27035546875  C 3.7992265625 1.33444140625  3.8392421875 1.27837890625  3.81522265625 1.3824296875  C 3.871234375 1.3824296875  3.95131640625 1.36643359375  4.023375 1.36643359375  C 4.12742578125 1.35841015625  4.12742578125 1.3504375  4.15946875 1.27035546875  C 4.10345703125 1.21434375  4.04739453125 1.15828125  3.983359375 1.11029296875  C 3.91130078125 1.02223828125  3.983359375 1.0862734375  3.95933984375 1.0062421875  C 3.94334375 0.982222656249997  3.92734765625 0.950230468749998  3.9113515625 0.926160156249999  C 3.8152734375 0.950179687499999  3.823296875 0.942156249999998  3.7512890625 0.990246093749999  Z " fill-rule="nonzero" fill="#c94545" stroke="none" transform="matrix(1 0 0 1 614 268 )" />
  </g>
</svg>