<?xml version="1.0" encoding="utf-8"?>
<svg version="1.1" xmlns:xlink="http://www.w3.org/1999/xlink" width="5px" height="7px" xmlns="http://www.w3.org/2000/svg">
  <g transform="matrix(1 0 0 1 -623 -268 )">
    <path d="M 0.867128906250006 0.149460937499999  L 0.850980468749999 0.1896796875  C 1.131140625 0.1896796875  1.0350625 0.269761718750001  1.1791796875 0.301753906249999  C 1.29125390625 0.333746093749999  1.2191953125 0.2857578125  1.347265625 0.277734375  C 1.38728125 0.277734375  1.42734765625 0.285757812499998  1.46736328125 0.277734375  C 1.5794375 0.269710937499999  1.523375 0.26173828125  1.56344140625 0.245742187499999  C 1.6435234375 0.213749999999999  1.94765234375 0.221722656249998  2.01976171875 0.237718750000001  C 2.0918203125 0.26173828125  2.08384765625 0.269710937499999  2.19587109375 0.293730468750001  C 2.3399375 0.317750000000002  2.50807421875 0.269710937499999  2.63614453125 0.325722656250001  C 2.7162265625 0.357714843750001  2.6841328125 0.3737109375  2.81225390625 0.3737109375  C 2.9163046875 0.3737109375  3.02040625 0.349691406249999  3.11643359375 0.3737109375  C 3.2285078125 0.397730468750002  3.15644921875001 0.3737109375  3.29254296875001 0.349691406249999  C 3.33255859375 0.34166796875  3.3646015625 0.349691406249999  3.4046171875 0.357714843749999  C 3.5006953125 0.381734374999999  3.47667578125 0.39773046875  3.60474609375 0.39773046875  C 3.82889453125 0.38970703125  3.96498828125 0.4697890625  4.173140625 0.49380859375  C 4.309234375 0.509804687499999  4.45330078125 0.48578515625  4.44527734375 0.621878906249998  C 4.3012109375 0.637874999999999  4.18111328125 0.533824218749999  4.04501953125 0.597859374999999  C 4.05304296875 0.701910156249998  4.1251015625 0.637874999999999  4.197109375 0.717957031249998  L 4.18111328125 0.717957031249998  C 4.0770625 0.7419765625  4.0290234375 0.765945312499998  3.94894140625 0.846027343749999  C 3.844890625 0.846027343749999  3.764859375 0.830031249999998  3.65278515625 0.870046874999998  C 3.6367890625 1.006140625  3.8609375 0.974097656249999  3.82889453125 1.1742265625  C 3.82889453125 1.2142421875  3.82889453125 1.27827734375  3.82087109375 1.32631640625  C 3.72479296875 1.31829296875  3.50064453125 1.1261875  3.45265625 1.07017578125  C 3.37257421875 0.966124999999998  3.60474609375 0.733953124999999  3.46865234375 0.7419765625  C 3.4206640625 0.7419765625  3.45265625 0.765996093749999  3.39659375 0.806062499999999  C 3.2605 0.798039062499999  3.32453515625 0.718007812499998  3.15644921875001 0.766046874999999  C 3.11643359375 0.886144531249998  3.2124609375 0.87009765625  3.140453125 0.902140624999999  C 3.06839453125 0.9341328125  3.0123828125 0.886144531249998  2.95637109375 0.878121093749998  C 2.94834765625 0.878121093749998  2.5801328125 0.894117187499997  2.56413671875 0.894117187499997  C 2.52412109375 0.9341328125  2.4520625 1.07819921875  2.43606640625001 1.118265625  C 2.55616406250001 1.17427734375  2.6361953125 1.15828125  2.67621093750001 1.15828125  C 2.73222265625001 1.15828125  2.75629296875 1.1902734375  2.79630859375001 1.198296875  C 2.93240234375001 1.22231640625  2.79630859375001 1.1663046875  2.9083828125 1.198296875  C 2.98846484375001 1.27035546875  3.07646875 1.34236328125  3.15655078125001 1.40644921875  C 3.14005743243131 1.43144676845382  3.12662288140996 1.45833291941914  3.11653515625 1.48653125  C 3.02848046875 1.43051953125  3.01248437500001 1.32646875  2.9083828125 1.294375  C 2.89238671875 1.40644921875  3.036453125 1.3584609375  2.95637109375 1.62257421875  C 2.8843125 1.85474609375  2.8362734375 1.766640625  2.708203125 1.79066015625  C 2.67621093750001 1.80665625  2.60415234375001 1.95874609375  2.59612890625001 1.9907890625  C 2.68418359375 2.054875  2.80428125 2.09483984375  2.7962578125 2.23093359375  C 2.74024609375 2.254953125  2.708203125 2.27094921875  2.6361953125 2.254953125  C 2.55611328125 2.01480859375  2.58820703125 2.13485546875  2.49212890625001 2.062796875  C 2.39605078125 1.99073828125  2.5161484375 1.91873046875  2.25198437500001 1.9987109375  C 2.21196875 1.95072265625  2.23598828125001 1.9586953125  2.21196875 1.9026328125  C 2.1478828125 1.91065625  2.05190625000001 1.97469140625  2.035859375 2.030703125  C 2.09187109375 2.05472265625  2.13991015625 2.08671484375  2.1639296875 2.08671484375  C 2.21994140625 2.09473828125  2.24401171875 2.0626953125  2.3239921875 2.09473828125  C 2.2839765625 2.15882421875  2.25193359375 2.15075  2.21994140625 2.2148359375  C 2.28402734375 2.29491796875  2.38802734375 2.3509296875  2.4200703125 2.45498046875  C 2.4200703125 2.45498046875  2.4200703125 2.46300390625  2.42809375 2.4709765625  C 2.45211328125 2.52698828125  2.468109375 2.48697265625  2.468109375 2.55903125  C 2.468109375 2.61504296875  2.4361171875 2.6470859375  2.41209765625 2.70309765625  C 2.28402734375 2.95923828125  2.10791796875 2.92724609375  1.85980078125001 3.02332421875  C 1.85980078125001 3.0953828125  1.93988281250001 3.20740625  1.76372265625 3.18338671875  C 1.74772656250001 3.0713125  1.82780859375 3.127375  1.8117109375 3.01530078125  C 1.69161328125 2.98330859375  1.62762890625 3.02332421875  1.5795390625 3.127375  C 1.62752734375 3.2954609375  1.88371875 3.31145703125  1.81968359375 3.575671875  C 1.7396015625 3.63168359375  1.65962109375 3.67972265625  1.5795390625 3.735734375  C 1.50748046875 3.69571875  1.5875625 3.7277109375  1.515453125 3.65565234375  C 1.44339453125 3.58359375  1.35539062500001 3.5355546875  1.27530859375 3.47954296875  C 1.26728515625 3.48756640625  1.26728515625 3.4955390625  1.2593125 3.51153515625  C 1.23529296875001 3.567546875  1.1952265625 3.6316328125  1.219296875 3.68764453125  C 1.22732031250001 3.71963671875  1.29135546875001 3.82373828125  1.32334765625 3.839734375  C 1.379359375 3.87975  1.4434453125 3.89574609375  1.45944140625 3.95983203125  C 1.46746484375 3.9838515625  1.49945703125 4.1599609375  1.49945703125 4.167984375  C 1.2593125 4.09592578125  1.33137109375 3.975828125  1.24331640625001 3.85578125  C 1.20330078125 3.79976953125  1.19532812500001 3.815765625  1.14723828125 3.759703125  C 1.14723828125 3.663625  1.17923046875001 3.58359375  1.14723828125 3.47954296875  C 1.13124218750001 3.42353125  1.0912265625 3.3354765625  1.07517968750001 3.271390625  C 0.987125000000006 3.28738671875  0.915117187500005 3.38346484375  0.891097656250007 3.28738671875  C 0.891097656250007 3.271390625  0.883074218750004 3.25539453125  0.883074218750004 3.2393984375  C 0.835085937500004 3.0713125  0.762976562500004 3.111328125  0.690917968750007 2.95121484375  C 0.570820312500004 2.98320703125  0.570820312500004 2.98320703125  0.434777343750007 2.999203125  L 0.426753906250006 3.0072265625  L 0.394761718750004 2.47092578125  L 0.250695312500007 0.13346484375  L 0.258718750000007 0.13346484375  C 0.258718750000007 0.13346484375  0.634957031250007 0.17348046875  0.658976562500008 0.17348046875  C 0.739058593750009 0.17348046875  0.739058593750009 0.149460937499999  0.851132812500008 0.149460937499999  L 0.867128906250006 0.149460937499999  Z M 2.8761875 2.34295703125  L 2.86821484375 2.35098046875  C 2.87623828125 2.4069921875  2.916203125 2.44705859375  2.9802890625 2.471078125  C 3.044375 2.39099609375  2.96429296875 2.3830234375  3.2044375 2.32701171875  C 3.22043359375 2.32701171875  3.2364296875 2.31898828125  3.25242578125 2.311015625  C 3.4525546875 2.2229609375  3.31651171875 2.28699609375  3.46855078125 2.23895703125  C 3.46855078125 2.1668984375  3.44453125 2.118859375  3.43655859375 2.038828125  C 3.43655859375 1.9507734375  3.39654296875 1.91873046875  3.2924921875 1.902734375  C 3.28446875 2.0708203125  3.4285859375 2.01480859375  3.1964140625 2.18289453125  C 3.07631640625 2.27094921875  2.99628515625 2.1668984375  2.8761875 2.34295703125  Z M 1.2110703125 4.3041796875  C 1.27520703124999 4.38426171875  1.33929296874999 4.608359375  1.53937109375 4.6003359375  C 1.5553671875 4.55234765625  1.563390625 4.48826171875  1.587359375 4.44824609375  C 1.6754140625 4.44824609375  1.5953828125 4.5042578125  1.73142578125 4.496234375  C 1.7554453125 4.45621875  1.7554453125 4.4321484375  1.747421875 4.39218359375  C 1.6833359375 4.38416015625  1.66733984375 4.39218359375  1.62732421875 4.42417578125  C 1.611328125 4.41615234375  1.6033046875 4.40015625  1.58730859375 4.39218359375  C 1.52322265625 4.36019140625  1.531296875 4.440171875  1.475234375 4.3441953125  C 1.4111484375 4.2481171875  1.4832578125 4.2481171875  1.3471640625 4.1841328125  C 1.26708203125 4.1441171875  1.23508984375 4.120046875  1.16308203125 4.06403515625  C 1.042984375 3.96795703125  1.1470859375 4.0080234375  0.954929687499998 3.959984375  C 0.954929687499998 4.06403515625  0.97894921875 4  1.083 4.1280703125  C 1.123015625 4.18408203125  1.1710546875 4.24816796875  1.2110703125 4.3041796875  Z M 1.8436015625 4.4402734375  L 1.8436015625 4.44824609375  C 2.0116875 4.472265625  2.13178515625 4.5203046875  2.17982421875 4.48826171875  C 2.2278125 4.4402734375  2.21181640625 4.4081796875  2.26787890625 4.3441953125  C 2.33993749999999 4.256140625  2.2918984375 4.280109375  2.379953125 4.2081015625  C 2.33196484375 4.06403515625  2.30789453125 4.12801953125  2.40397265625 3.983953125  C 2.3879765625 3.93596484375  2.34796093749999 3.887875  2.299921875 3.8558828125  C 2.24391015625 3.87990234375  2.2918984375 3.8558828125  2.25193359375 3.887875  C 2.18784765625 3.94388671875  2.11583984375 4.00797265625  2.0518046875 4.063984375  C 1.99579296875 4.11197265625  2.0198125 4.0720078125  1.93170703125 4.1280703125  C 1.9076875 4.13609375  1.88371875 4.15208984375  1.851625 4.1600625  C 1.811609375 4.1680859375  1.77956640625 4.13604296875  1.77154296875 4.23212109375  C 1.76351953125 4.280109375  1.8275546875 4.3761875  1.8436015625 4.4402734375  Z M 3.4686015625 4.7524765625  L 3.47657421875 4.7524765625  C 3.56462890625 4.77649609375  3.5325859375 4.744453125  3.596671875 4.7524765625  C 3.74073828125 4.77649609375  3.69275 4.89654296875  3.87683203125 4.720484375  C 4.125 4.720484375  3.87683203125 4.856578125  4.22905078125 4.8885703125  C 4.22905078125 4.824484375  4.1169765625 4.73648046875  4.06898828125 4.70448828125  C 4.0930078125 4.6565  4.0930078125 4.68046875  4.10900390625 4.62440625  C 4.08081456358192 4.61429748179379  4.05393085633782 4.60086415185826  4.028921875 4.584390625  C 3.88485546875 4.4563203125  4.07691015625 4.5523984375  3.77278125 4.44032421875  C 3.732765625 4.424328125  3.596671875 4.37623828125  3.57265234375 4.37623828125  C 3.4525546875 4.3602421875  3.460578125 4.44032421875  3.3645 4.4563203125  C 3.3004140625 4.392234375  3.34048046875 4.288234375  3.22840625 4.2962578125  C 3.08433984375 4.30428125  3.22840625 4.48033984375  3.22840625 4.48033984375  C 3.28441796875 4.528328125  3.30046484375 4.47231640625  3.460578125 4.56839453125  C 3.620640625 4.66447265625  3.4925703125 4.68046875  3.4686015625 4.7524765625  Z M 3.27629296875 5.12069140625  L 3.268421875 5.12871484375  C 3.28441796875 5.1046953125  3.28441796875 5.1046953125  3.29244140625 5.09672265625  C 3.32443359375 5.06473046875  3.30046484375 5.09672265625  3.33245703125 5.05670703125  C 3.36444921875 5.01669140625  3.36444921875 5.00871875  3.36444921875 4.96062890625  C 3.26837109375 4.96062890625  3.22835546875 4.9846484375  3.156296875 4.92061328125  C 3.10028515625 4.936609375  3.14030078125 4.936609375  3.07621484375 4.96062890625  C 3.020203125 4.9846484375  3.03619921875 4.96062890625  2.98013671875 4.99262109375  C 2.91605078125 5.03263671875  2.9321484375 5.072703125  2.85206640625 5.11271875  C 2.7800078125 5.08869921875  2.75598828125 5.0246640625  2.6439140625 5.09672265625  C 2.57185546875 5.1447109375  2.61989453125 5.1207421875  2.57185546875 5.16878125  C 2.50776953125 5.22479296875  2.51584375 5.19280078125  2.45978125 5.22479296875  C 2.31571484375 5.2968515625  2.53986328125 5.3368671875  2.04352734375 5.44894140625  C 2.00351171875 5.45696484375  1.8594453125 5.5290234375  1.835375 5.5529921875  C 1.77936328125 5.60900390625  1.77936328125 5.69705859375  1.75529296875 5.75312109375  C 1.71527734375 5.857171875  1.75529296875 5.84919921874999  1.739296875 6.00926171875  C 1.72330078125 6.20939062499999  1.68328515625 6.12935937499999  1.64321875 6.23341015624999  C 1.7312734375 6.33746093749999  1.8113046875 6.24143359375  1.92337890625 6.21741406249999  C 1.98746484375 6.20141796874999  2.05144921875 6.21741406249999  2.11553515625 6.20939062499999  C 2.1635234375 6.20136718749999  2.1956171875 6.16937499999999  2.25162890625 6.14530468749999  C 2.267625 6.13728124999999  2.579828125 6.08121874999999  2.595875 6.08121874999999  C 2.7559375 6.08121874999999  2.771984375 6.14530468749999  2.79600390625 6.25732812499999  C 2.8760859375 6.24930468749999  2.83601953125 6.24930468749999  2.908078125 6.20933984374999  C 2.95606640625 6.27342578124999  2.94809375 6.34543359374999  2.94809375 6.44151171874999  C 3.02015234375 6.48152734375  3.15624609375 6.48949999999999  3.23627734375 6.49752343749999  C 3.316359375 6.49752343749999  3.284265625 6.47350390625  3.37237109375 6.45750781249999  C 3.59651953125 6.40149609374999  3.40436328125 6.48949999999999  3.73261328125 6.21736328124999  C 3.82066796875 6.1453046875  3.86870703125 6.12930859375  3.940765625 6.03328124999999  C 4.01282421875 5.9452265625  4.14089453125 5.78511328124999  4.0688359375 5.66506640625  C 4.0288203125 5.5930078125  3.98875390625 5.5129765625  3.95676171875 5.43289453125  C 3.884703125 5.3208203125  3.86870703125 5.4808828125  3.8527109375 5.16873046875  C 3.8446875 5.05665625  3.87673046875 5.1207421875  3.788625 5.0646796875  C 3.788625 4.976625  3.788625 4.95260546875  3.76460546875 4.89659375  C 3.692546875 4.92061328125  3.7405859375 4.88059765625  3.692546875 4.95260546875  C 3.6044921875 5.08067578125  3.61246484375 5.37683203125  3.41238671875 5.232765625  C 3.3643984375 5.19275  3.3003125 5.16070703125  3.27629296875 5.12069140625  Z " fill-rule="nonzero" fill="#c94545" stroke="none" transform="matrix(1 0 0 1 623 268 )" />
  </g>
</svg>