<?xml version="1.0" encoding="utf-8"?>
<svg version="1.1" xmlns:xlink="http://www.w3.org/1999/xlink" width="9px" height="9px" xmlns="http://www.w3.org/2000/svg">
  <g transform="matrix(1 0 0 1 -848 -332 )">
    <path d="M 4.5 0.0348837252906979  C 6.96601562474323 0.0348837252906979  8.9651162747093 2.03398437525677  8.9651162747093 4.5  C 8.9651162747093 6.96601562474323  6.96601562474323 8.9651162747093  4.5 8.9651162747093  C 2.03398437525677 8.9651162747093  0.0348837252906979 6.96601562474323  0.0348837252906979 4.5  C 0.0348837252906979 2.03398437525677  2.03398437525677 0.0348837252906979  4.5 0.0348837252906979  Z M 4.5 0.593023251453488  C 2.34223632383426 0.593023251453488  0.593023251453488 2.34223632383426  0.593023251453488 4.5  C 0.593023251453488 6.65776367616574  2.34223632383426 8.40697674854651  4.5 8.40697674854651  C 6.65776367616574 8.40697674854651  8.40697674854651 6.65776367616574  8.40697674854651 4.5  C 8.40697674854651 2.34223632383426  6.65776367616574 0.593023251453488  4.5 0.593023251453488  Z " fill-rule="nonzero" fill="#aaaaaa" stroke="none" transform="matrix(1 0 0 1 848 332 )" />
  </g>
</svg>