<?xml version="1.0" encoding="utf-8"?>
<svg version="1.1" xmlns:xlink="http://www.w3.org/1999/xlink" width="3px" height="5px" xmlns="http://www.w3.org/2000/svg">
  <g transform="matrix(1 0 0 1 -851 -334 )">
    <path d="M 1.4970666625 4.20653594362745  C 1.71135314543435 4.20653594362745  1.8850666625 4.37684331329966  1.8850666625 4.5869281004902  C 1.8850666625 4.79701288768073  1.71135314543435 4.96732025735294  1.4970666625 4.96732025735294  C 1.28278017956565 4.96732025735294  1.1090666625 4.79701288768073  1.1090666625 4.5869281004902  C 1.1090666625 4.37684331329966  1.28278017956565 4.20653594362745  1.4970666625 4.20653594362745  Z M 0.0666666625000012 1.40235294117647  C 0.0666666624999998 0.627450980392157  0.7066666625 0  1.4970666625 0  C 2.2864 0  2.9274666625 0.627450980392157  2.9274666625 1.40235294117647  C 2.9274666625 1.82483660539216  2.6512 2.19189542892157  2.1386666625 2.50718954656863  C 1.92997598592458 2.63553612355443  1.7932392909946 2.85098948484258  1.768 3.09124182598039  L 1.7637333375 3.17176470588235  L 1.7637333375 3.30457515931373  C 1.7637337895268 3.44944469924936  1.64434305801383 3.56649443602679  1.4970671270268 3.56649443602679  C 1.3681165449938 3.56649443602679  1.25764033748792 3.47603359003122  1.2346666625 3.35163398284314  L 1.2304 3.30457515931373  L 1.2304 3.17176470588235  C 1.23037367509267 2.75570289942612  1.43237359432056 2.36447852835146  1.7744 2.11816993872549  L 1.8554666625 2.0643137254902  C 2.227733325 1.83529411764706  2.394133325 1.61411764705882  2.3941333375 1.40235294117647  C 2.3941333375 0.91663113653712  1.99250290948214 0.52287581495098  1.49706666875 0.52287581495098  C 1.00163042801786 0.52287581495098  0.600000000000001 0.91663113653712  0.600000000000001 1.40235294117647  C 0.600000000000001 1.54674111219491  0.480609265688806 1.66379085171569  0.333333331250002 1.66379085171569  C 0.186057396811197 1.66379085171569  0.0666666625000012 1.54674111219491  0.0666666625000012 1.40235294117647  Z " fill-rule="nonzero" fill="#aaaaaa" stroke="none" transform="matrix(1 0 0 1 851 334 )" />
  </g>
</svg>