<?xml version="1.0" encoding="utf-8"?>
<svg version="1.1" xmlns:xlink="http://www.w3.org/1999/xlink" width="14px" height="7px" xmlns="http://www.w3.org/2000/svg">
  <g transform="matrix(1 0 0 1 -610 -268 )">
    <path d="M 0.498609375000004 0.734359375000004  L 0.4747421875 0.701960937500001  L 0.458746093749999 0.8620234375  C 0.6028125 0.894015625  0.76292578125 0.878019531249999  0.8269609375 0.886042968750001  C 0.93903515625 0.9020390625  0.874949218749999 0.9020390625  0.995046875 0.878019531250001  C 1.0591328125 0.862023437500001  1.14713671875 0.830031250000001  1.1631328125 0.830031250000001  C 1.195125 0.830031250000001  1.2511875 0.862023437500001  1.34721484375 0.870046875000002  C 1.5553671875 0.886042968750001  1.531296875 0.974097656250002  1.52332421875 1.11821484375  C 1.54734375 1.12623828125  1.56333984375 1.12623828125  1.58741015625 1.1342109375  C 1.58741015625 1.1342109375  1.59543359375 1.142234375  1.60340625 1.142234375  C 1.60340625 1.142234375  1.6114296875 1.1502578125  1.61940234375 1.1502578125  C 1.61940234375 1.1502578125  1.62742578125 1.1502578125  1.6353984375 1.15828125  C 1.61137890625 1.23033984375  1.61940234375 1.1902734375  1.61940234375 1.27837890625  C 1.62742578125 1.3584609375  1.60340625 1.3584609375  1.57938671875 1.41447265625  C 1.65946875 1.526546875  1.67546484375 1.51055078125  1.57938671875 1.64664453125  C 1.45131640625 1.83880078125  1.33121875 1.86276953125  1.371234375 2.13495703125  C 1.38723046875 2.2150390625  1.4032265625 2.27105078125  1.47528515625 2.31106640625  C 1.50727734375 2.3270625  1.47528515625 2.30304296875  1.50727734375 2.3350859375  C 1.53926953125 2.35910546875  1.51530078125 2.3270625  1.531296875 2.367078125  C 1.5713125 2.3990703125  1.531296875 2.35108203125  1.55531640625 2.3990703125  C 1.58730859375 2.46315625  1.56333984375 2.487125  1.59533203125 2.54313671875  C 1.6754140625 2.70319921875  1.63534765625 2.5591328125  1.63534765625 2.71924609375  C 1.7554453125 2.75926171875  1.7154296875 2.7352421875  1.7554453125 2.8313203125  C 1.77946484375 2.88733203125  1.82750390625 2.9273984375  1.8915390625 2.93537109375  C 1.81948046875 2.67923046875  1.5793359375 2.5191171875  1.7314765625 2.4630546875  C 1.84355078125 2.53511328125  1.7314765625 2.54313671875  1.8275546875 2.64713671875  C 1.97964453125 2.7992265625  1.891640625 2.72721875  1.955625 2.80719921875  C 1.9876171875 2.84721484375  2.0436796875 2.88728125  2.09171875 2.94329296875  C 2.1797734375 3.03937109375  2.131734375 3.04734375  2.131734375 3.1514453125  C 2.2278125 3.22350390625  2.37187890625 3.279515625  2.5159453125 3.3275546875  C 2.68403125 3.38356640625  2.59602734375 3.3675703125  2.7481171875 3.35157421875  C 2.85216796875 3.34355078125  2.86821484375 3.4075859375  2.9242265625 3.44765234375  C 3.06829296875 3.54373046875  3.1803671875 3.43165625  3.30046484375 3.63980859375  C 3.3564765625 3.73588671875  3.2524765625 3.63178515625  3.44453125 3.77590234375  C 3.5086171875 3.80789453125  3.5726015625 3.8319140625  3.6366875 3.86395703125  C 3.676703125 3.8079453125  3.6366875 3.79987109375  3.7247421875 3.76787890625  C 3.7647578125 3.7918984375  3.812796875 3.86395703125  3.83681640625 3.91996875  C 3.9168984375 4.20815234375  3.52461328125 4.20815234375  3.70072265625 4.448296875  C 3.66873046875 4.5123828125  3.6286640625 4.49628515625  3.652734375 4.5763671875  C 3.67675390625 4.664421875  3.70874609375 4.640453125  3.75678515625 4.68844140625  C 3.868859375 4.800515625  3.9969296875 5.096671875  4.14099609375 5.17675390625  C 4.14099609375 5.17675390625  4.14901953125 5.17675390625  4.14901953125 5.18477734375  C 4.2530703125 5.2407890625  4.37316796875 5.27283203125  4.4291796875 5.3368671875  C 4.44517578125 5.35286328125  4.45319921875 5.3768828125  4.461171875 5.40892578125  L 4.57324609375 3.68784765625  C 4.5492265625 3.68784765625  4.50916015625 3.67982421875  4.461171875 3.6718515625  C 4.34909765625 3.64783203125  4.3331015625 3.55977734375  4.2370234375 3.64783203125  L 4.18903515625 3.5757734375  C 4.1730390625 3.583796875  4.165015625 3.59176953125  4.14901953125 3.59176953125  C 4.01292578125 3.65585546875  3.9969296875 3.607765625  3.9408671875 3.70384375  C 3.908875 3.75985546875  3.93284375 3.7358359375  3.87678125 3.78392578125  C 3.7887265625 3.77590234375  3.80472265625 3.7279140625  3.7086953125 3.74391015625  C 3.620640625 3.75193359375  3.620640625 3.80799609375  3.5165390625 3.75193359375  C 3.38846875 3.679875  3.4765234375 3.53580859375  3.46855078125 3.4076875  C 3.30046484375 3.33562890625  3.30046484375 3.4076875  3.17239453125 3.367671875  C 3.148375 3.31968359375  3.1964140625 3.26362109375  3.21241015625 3.231578125  C 3.2364296875 3.17556640625  3.2603984375 3.12752734375  3.24440234375 3.05546875  C 3.06829296875 3.03144921875  3.08433984375 3.07948828125  3.02827734375 3.15951953125  C 2.9481953125 3.28758984375  2.63604296875 3.27159375  2.620046875 2.99945703125  C 2.6120234375 2.90337890625  2.6600625 2.83939453125  2.6841328125 2.74331640625  C 2.70012890625 2.6712578125  2.7802109375 2.639265625  2.85221875 2.59925  C 2.99628515625 2.52719140625  3.044375 2.61524609375  3.14040234375 2.59925  C 3.22845703125 2.58325390625  3.1964140625 2.503171875  3.4125390625 2.55126171875  C 3.61266796875 2.59127734375  3.55660546875 2.535265625  3.59662109375 2.71934765625  C 3.644609375 2.73534375  3.69269921875 2.7433671875  3.7406875 2.75936328125  C 3.72469140625 2.4711796875  3.6126171875 2.5512109375  3.85276171875 2.383125  C 3.9248203125 2.33513671875  3.9568125 2.33513671875  4.03684375 2.2950703125  C 4.132921875 2.24708203125  4.15694140625 2.24708203125  4.132921875 2.1189609375  C 4.132921875 2.1189609375  4.1409453125 2.1109375  4.14891796875 2.1109375  C 4.2049296875 2.070921875  4.269015625 2.0228828125  4.32502734375 1.9828671875  C 4.3810390625 1.93487890625  4.48508984375 1.91080859375  4.565171875 1.8948125  C 4.5731953125 1.798734375  4.58919140625 1.79076171875  4.6932421875 1.75871875  L 4.74925390625 0.822109375  C 4.6371796875 0.998218749999999  4.84533203125 1.09424609375  4.4210546875 1.16635546875  C 4.3890625 1.25441015625  4.3890625 1.38248046875  4.2609921875 1.3184453125  C 4.20498046875 1.24638671875  4.28501171875 1.19834765625  4.28501171875 1.13436328125  C 4.24193463588344 1.12857895061338  4.19918697593488 1.12056164563493  4.15694140625 1.11034375  C 3.98083203125 1.070328125  4.03684375 1.03026171875  3.86078515625 1.0222890625  C 3.85276171875 0.91823828125  3.82879296875 0.974300781249999  3.82879296875 0.8861953125  C 3.9008515625 0.830183593749998  4.028921875 0.774121093749999  4.1569921875 0.7261328125  C 4.27708984375 0.686117187499999  4.39713671875 0.64605078125  4.49321484375 0.622082031249999  L 4.4452265625 0.694140625000001  C 4.56532421875 0.750152343750001  4.51728515625 0.77422265625  4.573296875 0.758226562500001  C 4.62930859375 0.74223046875  4.573296875 0.73420703125  4.573296875 0.73420703125  C 4.5652734375 0.7182109375  4.45319921875 0.7182109375  4.573296875 0.68621875  C 4.62930859375 0.670222656250001  4.6613515625 0.694242187499999  4.71736328125 0.702214843749999  C 4.70933984375 0.5821171875  4.62930859375 0.6542265625  4.58929296875 0.5581484375  C 4.6613515625 0.582167968750001  4.709390625 0.574144531250001  4.75737890625 0.5581484375  L 4.7813984375 0.229949218750001  C 4.72538671875 0.253968750000002  4.6853203125 0.285960937500001  4.66130078125 0.334000000000001  C 4.6853203125 0.374015625000002  4.733359375 0.374015625000002  4.75737890625 0.398085937500001  C 4.72538671875 0.446074218750001  4.6453046875 0.494164062500001  4.56522265625 0.494164062500001  C 4.6132109375 0.318054687500002  4.47716796875 0.534179687500002  4.5092109375 0.278039062500001  C 4.58126953125 0.25401953125  4.6692734375 0.25401953125  4.7253359375 0.213953125000002  C 4.70131640625 0.205929687500001  4.67734765625 0.18993359375  4.65327734375 0.181960937500001  C 4.541203125 0.16596484375  4.49321484375 0.254019531250002  4.42912890625 0.286011718750002  C 4.405109375 0.245996093750001  4.43715234375 0.245996093750001  4.43715234375 0.197957031250001  C 4.34909765625 0.189933593750002  4.229 0.213953125000002  4.17298828125 0.26204296875  C 4.23707421875 0.310031250000002  4.2209765625 0.302058593750001  4.325078125 0.318054687500002  C 4.2609921875 0.414132812500002  4.36509375 0.414132812500002  4.24499609375 0.470144531250002  C 4.24499609375 0.470144531250002  4.24499609375 0.454148437500002  4.23697265625 0.462121093750003  L 4.23697265625 0.454097656250003  C 4.22894921875 0.438101562500004  4.22894921875 0.422105468750003  4.2209765625 0.398085937500003  C 4.188984375 0.398085937500003  4.17298828125 0.398085937500003  4.156890625 0.406109375000002  C 4.116875 0.422105468750003  4.10087890625 0.446125000000002  4.07680859375 0.486191406250002  C 4.00475 0.486191406250002  3.90069921875 0.502187500000002  3.828640625 0.478167968750002  C 3.74855859375 0.446175781250002  3.7966484375 0.462171875000003  3.7645546875 0.438152343750001  C 3.9806796875 0.454148437500002  3.88465234375 0.438152343750001  4.04471484375 0.406160156250003  C 4.03669140625 0.382140625000002  4.02871875 0.382140625000002  4.0206953125 0.374167968750003  C 3.97270703125 0.294085937500002  4.02871875 0.414183593750003  3.988703125 0.326179687500003  C 4.03669140625 0.262093750000002  4.0527890625 0.270167968750002  4.08478125 0.222128906250003  C 3.988703125 0.222128906250003  3.92471875 0.270117187500002  3.84463671875 0.262144531250003  C 3.62048828125 0.246148437500002  3.476421875 0.110054687500003  3.26826953125 0.198058593750003  C 3.20418359375 0.222078125000003  3.09216015625 0.254070312500003  3.09216015625 0.318156250000003  C 3.18823828125 0.334152343750004  3.24425 0.310132812500004  3.340328125 0.294136718750003  C 3.32433203125 0.342125000000003  3.3003125 0.390214843750002  3.28431640625 0.438203125000003  C 3.1722421875 0.438203125000003  3.22023046875 0.430179687500003  3.12425390625 0.414183593750002  C 3.02817578125 0.3901640625  3.020203125 0.414183593750002  2.93209765625 0.406160156250003  C 2.80402734375 0.398136718750003  2.90010546875 0.382140625000002  2.79600390625 0.374167968750003  C 2.65991015625 0.366144531250002  2.44378515625 0.438253906250003  2.30769140625 0.430179687500003  C 2.08354296875 0.398187500000002  1.86741796875 0.366093750000003  1.6433203125 0.334101562500003  C 1.49925390625 0.310082031250003  0.906890625000004 0.430179687500003  0.874847656250004 0.454199218750004  C 0.818835937500004 0.486191406250004  0.882871093750004 0.486191406250004  0.866824218750003 0.574296875000003  C 0.770746093750004 0.574296875000003  0.538625000000004 0.534281250000003  0.522578125000003 0.646355468750004  C 0.602660156250003 0.670375000000005  0.658671875000004 0.646355468750004  0.714734375000004 0.678347656250004  C 0.658722656250005 0.718363281250005  0.578640625000004 0.726335937500004  0.498609375000004 0.734359375000004  Z M 13.4345234375 3.03139843750001  L 13.41070703125 3.039421875  L 13.37871484375 2.50312109375  L 13.2346484375 0.16566015625  C 13.0985546875 0.101574218749999  13.21062890625 0.0616093749999997  12.90644921875 0.0535859374999994  C 12.7623828125 0.0535859374999994  12.71429296875 -0.00242578125000037  12.52223828125 0.0455625000000008  C 12.38614453125 0.0855781250000014  12.44215625 0.0535859374999994  12.322109375 0.0615585937500001  L 11.98588671875 0.15763671875  C 11.9378984375 0.18962890625  11.9378984375 0.173632812500001  11.8818359375 0.181656250000001  C 11.73776953125 0.213648437500002  11.86583984375 0.1896796875  11.79378125 0.221671875000002  C 11.6657109375 0.277683593750002  11.64971484375 0.237667968750001  11.59365234375 0.253664062500002  C 11.5696328125 0.261687500000001  11.56166015625 0.277683593750002  11.52159375 0.293679687500003  C 11.46558203125 0.221621093750002  11.4575078125 0.205625000000001  11.3294375 0.221621093750002  C 11.22538671875 0.349691406250001  11.30541796875 0.333695312500002  11.38544921875 0.413777343750001  C 11.273375 0.405753906250002  11.177296875 0.349691406250001  11.05725 0.365789062500001  C 10.98519140625 0.373812500000001  11.017234375 0.373812500000001  10.98519140625 0.421800781250003  C 10.89713671875 0.397781250000001  10.905109375 0.421800781250003  10.81710546875 0.421800781250003  C 10.7130546875 0.429824218750001  10.72102734375 0.405804687500002  10.64901953125 0.413777343750002  C 10.528921875 0.421800781250003  10.448890625 0.493859375000003  10.368859375 0.501832031250004  C 10.31284765625 0.429773437500002  10.408875 0.437746093750002  10.28877734375 0.421750000000003  C 10.24876171875 0.469738281250002  10.2647578125 0.453742187500003  10.28877734375 0.517828125000003  C 10.1686796875 0.525851562500002  10.12871484375 0.517828125000003  10.09662109375 0.605882812500003  C 10.06462890625 0.597859375000004  10.0245625 0.597859375000004  9.99257031250001 0.589886718750003  C 9.96057812500001 0.613906250000005  9.99257031250001 0.597910156250002  9.96855078125001 0.645898437500003  C 9.86450000000001 0.621878906250004  9.85647656250001 0.621878906250004  9.83245703125001 0.533824218750004  C 9.96052734375001 0.525800781250005  10.040609375 0.581812500000003  10.12861328125 0.509804687500003  C 10.10459375 0.389707031250003  9.74440234375001 0.389707031250003  9.62430468750001 0.357714843750003  C 9.47221484375001 0.309726562500003  9.38416015625001 0.285656250000002  9.17600781250001 0.333695312500003  C 9.11999609375001 0.349691406250003  9.06393359375001 0.349691406250003  9.01594531250001 0.365687500000002  L 9.00792187500001 0.365687500000002  L 9.00792187500001 1.7825859375  C 9.06393359375001 1.80660546875  9.12801953125001 1.83057421875  9.16798437500001 1.85464453125  C 9.21597265625001 1.9586953125  9.15198828125001 1.91065625  9.24806640625001 2.02273046875  C 9.30407812500001 2.0787421875  9.28808203125001 2.12678125  9.35211718750001 2.15882421875  C 9.45616796875001 2.15080078125001  9.36811328125001 2.1748203125  9.43219921875001 2.11880859375  C 9.44022265625001 2.11078515625  9.47221484375001 2.07879296875  9.48821093750001 2.0708203125  C 9.45621875000001 2.0308046875  9.43219921875001 2.0308046875  9.40015625000001 1.982765625  C 9.52025390625001 1.86266796875  9.56824218750001 1.92675390625  9.60028515625001 2.0147578125  C 9.67234375000001 2.23890625  9.79244140625001 2.1748203125  9.88846875000001 2.16684765625  C 9.98454687500001 2.15882421875  9.90446484375001 2.16684765625  9.99251953125001 2.1908671875  C 10.0726015625 2.20686328125  10.03253515625 2.1908671875  10.0965703125 2.18284375000001  C 10.29669921875 2.142828125  10.14455859375 2.4470078125  10.12058984375 2.479  C 10.008515625 2.4870234375  10.03253515625 2.47097656250001  9.95250390625001 2.46300390625001  C 9.79244140625001 2.4470078125  9.96052734375001 2.53506250000001  9.58428906250001 2.438984375  C 9.22404687500001 2.3509296875  9.30412890625001 2.32691015625  9.22404687500001 2.5270390625  C 9.14396484375001 2.51901562500001  9.14396484375001 2.51104296875  9.07195703125001 2.4870234375  C 9.03996484375001 2.479  9.02396875000001 2.47102734375  9.01594531250001 2.47102734375  L 9.01594531250001 5.92115625000001  C 9.05596093750001 5.97716796875001  9.10400000000001 6.03323046875001  9.11999609375001 6.09726562500001  C 9.14401562500001 6.17734765625001  9.07998046875001 6.19334375000001  9.16798437500001 6.24935546875001  C 9.19997656250001 6.26535156250001  9.55219531250001 6.26535156250001  9.72028125000001 6.14530468750001  C 9.75227343750001 6.12128515625001  9.77629296875001 6.11331250000001  9.80833593750001 6.07324609375001  C 9.84835156250001 6.03323046875001  9.84835156250001 6.01723437500001  9.88039453125 5.96919531250001  C 9.9283828125 5.91318359375001  9.93640625000001 5.95319921875001  9.96844921875 5.88114062500001  C 10.00044140625 5.82512890625001  9.9844453125 5.78506250000001  10.00846484375 5.74504687500001  C 10.056453125 5.71305468750001  10.112515625 5.71305468750001  10.15253125 5.66496484375001  C 10.20854296875 5.47280859375001  10.0644765625 5.48885546875001  10.20051953125 5.36880859375001  C 10.32858984375 5.25673437500001  10.4406640625 5.24073828125001  10.47265625 5.20072265625001  C 10.62474609375 5.04863281250001  10.376578125 4.67239453125001  10.45666015625 4.53635156250001  C 10.52871875 4.41625390625001  10.568734375 4.40828125000001  10.6407421875 4.30417968750001  C 10.78480859375 4.12009765625001  10.96894140625 4.12807031250001  11.081015625 3.88792578125001  C 11.1130078125 3.81586718750001  11.241078125 3.68779687500001  11.18506640625 3.60776562500001  C 11.137078125 3.57577343750001  10.84884375 3.67982421875001  10.74479296875 3.65575390625001  C 10.68070703125 3.53565625000001  10.7207734375 3.51168750000001  10.56868359375 3.42358203125001  C 10.3685546875 3.30348437500001  10.50459765625 3.32750390625001  10.37652734375 3.20745703125001  C 10.31244140625 3.15144531250001  10.33651171875 3.15946875000001  10.320515625 3.07136328125001  C 10.30451953125 3.00727734375001  10.26450390625 2.99128125000001  10.2324609375 2.94329296875001  C 10.20046875 2.90327734375001  10.08839453125 2.71914453125001  10.11236328125 2.66313281250001  C 10.2164140625 2.65510937500001  10.264453125 2.75921093750001  10.3124921875 2.82319531250001  C 10.344484375 2.86321093750001  10.376578125 2.87920703125001  10.39257421875 2.91927343750001  C 10.42456640625 2.96726171875001  10.40059765625 2.99935546875001  10.4485859375 3.05536718750001  C 10.5446640625 3.17546484375001  10.5446640625 3.08735937500001  10.6407421875 3.32750390625001  C 10.672734375 3.39956250000001  10.704828125 3.46359765625001  10.7368203125 3.53565625000001  C 10.88891015625 3.52763281250001  11.0329765625 3.43957812500001  11.16912109375 3.39956250000001  C 11.305265625 3.35954687500001  11.217109375 3.36757031250001  11.29719140625 3.31948046875001  C 11.3451796875 3.28748828125001  11.3772734375 3.30348437500001  11.43328515625 3.27149218750001  C 11.50534375 3.23147656250001  11.72944140625 3.03134765625001  11.705421875 2.95928906250001  C 11.64941015625 2.90327734375001  11.66540625 2.92729687500001  11.5773515625 2.88723046875001  C 11.46527734375 2.84721484375001  11.5373359375 2.83121875000001  11.46527734375 2.77515625000001  C 11.3851953125 2.82314453125001  11.353203125 2.87123437500001  11.20913671875 2.86321093750001  C 11.20913671875 2.85518750000001  11.20111328125 2.81522265625001  11.193140625 2.81522265625001  C 11.16912109375 2.76723437500001  11.12108203125 2.74316406250001  11.08106640625 2.71117187500001  C 11.0250546875 2.66318359375001  10.96096875 2.64708593750001  10.9689921875 2.55110937500001  C 11.11305859375 2.48702343750001  11.0970625 2.59909765625001  11.2011640625 2.66318359375001  C 11.35325390625 2.76723437500001  11.34523046875 2.71919531250001  11.4973203125 2.71117187500001  C 11.585375 2.80725000000001  11.60137109375 2.79922656250001  11.7534609375 2.80725000000001  C 11.83354296875 2.81527343750001  12.03362109375 2.79125390625001  12.08968359375 2.80725000000001  C 12.15376953125 2.85523828125001  12.22577734375 2.90332812500001  12.2898125 2.95131640625001  C 12.3218046875 2.99930468750001  12.2978359375 3.01540234375001  12.3538984375 3.04739453125001  C 12.43398046875 3.08741015625001  12.42595703125 3.04739453125001  12.5139609375 3.03937109375001  C 12.52995703125 3.07938671875001  12.545953125 3.19146093750001  12.56194921875 3.24752343750001  C 12.59394140625 3.35959765625001  12.64203125 3.42363281250001  12.682046875 3.51966015625001  C 12.70606640625 3.57567187500001  12.8101171875 3.77580078125001  12.83413671875 3.78382421875001  C 12.91421875 3.79184765625001  12.978203125 3.67175000000001  12.99419921875 3.62376171875001  C 13.02619140625 3.49569140625001  13.00222265625 3.47167187500001  13.01821875 3.36762109375001  C 13.1462890625 3.30353515625001  13.21834765625 3.20755859375001  13.3384453125 3.12747656250001  C 13.4345234375 3.06339062500001  13.3784609375 3.08746093750001  13.4345234375 3.03139843750001  Z M 9.08800390625 1.9347265625  C 9.0480390625 1.91070703125  9.02401953125 1.89466015625  8.99994921875 1.8866875  L 8.99994921875 2.062796875  C 9.08003125 2.0308046875  8.95993359375 2.02278125  9.08800390625 1.9347265625  Z M 11.04125390625 4.98459765625  C 10.961171875 5.01658984375  10.94517578125 5.096671875  10.88119140625 5.1366875  C 10.8091328125 5.18467578125  10.72112890625 5.16070703125  10.697109375 5.25678515625  C 10.6651171875 5.368859375  10.75312109375 5.3368671875  10.65709375 5.48093359375  C 10.617078125 5.5369453125  10.617078125 5.67308984375  10.67308984375 5.71310546875  C 10.84117578125 5.84117578125  10.92923046875 5.52094921875  10.96924609375 5.424921875  C 11.00123828125 5.35286328125  11.0252578125 5.27283203125  11.05730078125 5.208796875  C 11.08929296875 5.13673828125  11.129359375 5.0807265625  11.04927734375 4.9846484375  L 11.0413046875 4.9846484375  Z M 10.7530703125 1.66258984375  L 10.76906640625 1.6705625  C 10.7850625 1.81462890625  10.89713671875 1.87069140625  10.9691953125 1.9347265625  C 10.961171875 2.00678515625  10.937203125 1.98271484375  10.937203125 2.07879296875  C 11.03328125 2.1348046875  11.097265625 2.16684765625  11.22538671875 2.1348046875  C 11.2413828125 2.01470703125  11.19339453125 2.02273046875  11.1453046875 1.9426484375  C 11.153328125 1.934625  11.177296875 1.91862890625  11.177296875 1.91862890625  C 11.2092890625 1.88663671875  11.19329296875 1.934625  11.2092890625 1.870640625  C 11.121234375 1.84662109375  10.9771171875 1.7745625  10.96112109375 1.68655859375  C 11.00113671875 1.6625390625  10.99311328125 1.67853515625  11.02520703125 1.6625390625  C 11.097265625 1.630546875  11.041203125 1.67853515625  11.08121875 1.6225234375  C 11.041203125 1.56651171875  11.00113671875 1.5584375  10.9131328125 1.5825078125  C 10.8731171875 1.59053125  10.7770390625 1.64659375  10.7530703125 1.66258984375  Z M 10.080625 1.6946328125  C 10.05665625 1.710578125  10.016640625 1.710578125  9.98459765625 1.710578125  C 9.9285859375 1.6464921875  9.9285859375 1.6145  9.81651171875 1.6145  C 9.7685234375 1.654515625  9.72043359375 1.710578125  9.68844140625 1.76658984375  C 9.64842578125 1.85464453125  9.68041796875 1.790609375  9.68041796875 1.8866875  L 9.68041796875 1.8947109375  C 9.68041796875 1.95072265625  9.664421875 1.8866875  9.67239453125 1.9347265625  C 9.76044921875 1.91873046875  9.6964140625 1.91873046875  9.76044921875 1.902734375  C 9.82453515625 1.88673828125  10.01658984375 1.8386484375  10.07265234375 1.85474609375  C 10.20072265625 1.878765625  10.312796875 1.958796875  10.46488671875 1.878765625  C 10.45686328125 1.77471484375  10.29680078125 1.73469921875  10.1847265625 1.69468359375  C 10.19275 1.59860546875  10.2247421875 1.6706640625  10.21671875 1.582609375  C 10.176703125 1.582609375  10.1526328125 1.5745859375  10.120640625 1.5906328125  C 10.0325859375 1.622625  10.080625 1.6306484375  10.080625 1.63862109375  C 10.080625 1.686609375  10.1686796875 1.63059765625  10.080625 1.6946328125  Z " fill-rule="nonzero" fill="#e84f4f" stroke="none" transform="matrix(1 0 0 1 610 268 )" />
  </g>
</svg>