<?xml version="1.0" encoding="utf-8"?>
<svg version="1.1" xmlns:xlink="http://www.w3.org/1999/xlink" width="26px" height="23px" xmlns="http://www.w3.org/2000/svg">
  <g transform="matrix(1 0 0 1 -16 -18 )">
    <path d="M 25.6783854166667 18.74140625  C 25.8927951388889 18.9690104166667  26 19.2385416666667  26 19.55  L 26 21.85  C 26 22.1614583333333  25.8927951388889 22.4309895833333  25.6783854166667 22.65859375  C 25.4639756944444 22.8861979166667  25.2100694444444 23  24.9166666666667 23  L 1.08333333333333 23  C 0.789930555555556 23  0.536024305555556 22.8861979166667  0.321614583333333 22.65859375  C 0.107204861111111 22.4309895833333  0 22.1614583333333  0 21.85  L 0 19.55  C 0 19.2385416666667  0.107204861111111 18.9690104166667  0.321614583333333 18.74140625  C 0.536024305555556 18.5138020833333  0.789930555555556 18.4  1.08333333333333 18  L 24.9166666666667 18  C 25.2100694444444 18.4  25.4639756944444 18.5138020833333  25.6783854166667 18.74140625  Z M 25.6783854166667 9.54140625  C 25.8927951388889 9.76901041666667  26 10.0385416666667  26 10.35  L 26 12.65  C 26 12.9614583333333  25.8927951388889 13.2309895833333  25.6783854166667 13.45859375  C 25.4639756944444 13.6861979166667  25.2100694444444 13.8  24.9166666666667 13.8  L 1.08333333333333 13.8  C 0.789930555555556 13.8  0.536024305555556 13.6861979166667  0.321614583333333 13.45859375  C 0.107204861111111 13.2309895833333  0 12.9614583333333  0 12.65  L 0 10.35  C 0 10.0385416666667  0.107204861111111 9.76901041666667  0.321614583333333 9.54140625  C 0.536024305555556 9.31380208333334  0.789930555555556 9.2  1.08333333333333 9.2  L 24.9166666666667 9.2  C 25.2100694444444 9.2  25.4639756944444 9.31380208333334  25.6783854166667 9.54140625  Z M 25.6783854166667 0.341406250000001  C 25.8927951388889 0.569010416666665  26 0.838541666666665  26 1.15  L 26 3.45  C 26 3.76145833333333  25.8927951388889 4.03098958333333  25.6783854166667 4.25859375  C 25.4639756944444 4.48619791666666  25.2100694444444 4.6  24.9166666666667 5  L 1.08333333333333 5  C 0.789930555555556 4.6  0.536024305555556 4.48619791666666  0.321614583333333 4.25859375  C 0.107204861111111 4.03098958333333  0 3.76145833333333  0 3.45  L 0 1.15  C 0 0.838541666666665  0.107204861111111 0.569010416666665  0.321614583333333 0.341406250000001  C 0.536024305555556 0.113802083333332  0.789930555555556 0  1.08333333333333 0  L 24.9166666666667 0  C 25.2100694444444 0  25.4639756944444 0.113802083333332  25.6783854166667 0.341406250000001  Z " fill-rule="nonzero" fill="#2962ff" stroke="none" transform="matrix(1 0 0 1 16 18 )" />
  </g>
</svg>