<?xml version="1.0" encoding="utf-8"?>
<svg version="1.1" xmlns:xlink="http://www.w3.org/1999/xlink" width="19px" height="14px" xmlns="http://www.w3.org/2000/svg">
  <g transform="matrix(1 0 0 1 -107 -9 )">
    <path d="M 0.876953125 3.394140625  L 2.0576171875 4.7927734375  C 2.1423828125 4.895703125  2.2998046875 4.9078125  2.402734375 4.823046875  C 2.5056640625 4.73828125  2.5177734375 4.580859375  2.4330078125 4.4779296875  L 1.25234375 3.079296875  C 1.16757812500001 2.9763671875  1.01015625 2.9642578125  0.9072265625 3.0490234375  C 0.804296874999999 3.1337890625  0.792187500000004 3.2912109375  0.876953125 3.394140625  Z M 5.1818359375 0.899609375000001  L 5.5087890625 2.6978515625  C 5.5330078125 2.8310546875  5.66015625 2.921875  5.793359375 2.89765625  C 5.9265625 2.8734375  6.0173828125 2.7462890625  5.9931640625 2.6130859375  L 5.6662109375 0.814843750000003  C 5.6419921875 0.681640625000004  5.51484375 0.590820312500004  5.381640625 0.615039062500003  C 5.24843749999999 0.6392578125  5.1576171875 0.766406250000003  5.1818359375 0.899609375000001  Z M 9.547265625 2.6130859375  C 9.498828125 2.740234375  9.5654296875 2.8794921875  9.69257812500001 2.9279296875  C 9.8197265625 2.9763671875  9.958984375 2.909765625  10.007421875 2.7826171875  L 10.625 1.06308593750001  C 10.6734375 0.935937500000003  10.6068359375 0.796679687500006  10.4796875 0.748242187500004  C 10.3525390625 0.699804687500004  10.21328125 0.766406250000006  10.16484375 0.893554687500004  L 9.547265625 2.6130859375  Z M 13.083203125 4.556640625  C 12.9802734375 4.64140625  12.9681640625 4.798828125  13.0529296875 4.9017578125  C 13.1376953125 5.0046875  13.2951171875 5.016796875  13.398046875 4.93203125  L 14.7966796875 3.7513671875  C 14.899609375 3.6666015625  14.91171875 3.5091796875  14.826953125 3.40625  C 14.7421875 3.3033203125  14.584765625 3.2912109375  14.4818359375 3.3759765625  L 13.083203125 4.556640625  Z M 15.4505859375 8.286328125  C 15.4748046875 8.4255859375  15.601953125 8.5103515625  15.73515625 8.4861328125  L 17.5333984375 8.1591796875  C 17.6666015625 8.1349609375  17.757421875 8.0078125  17.733203125 7.874609375  C 17.708984375 7.74140625  17.5818359375 7.6505859375  17.4486328125 7.6748046875  L 15.650390625 8.0017578125  C 15.5171875 8.0259765625  15.4263671875 8.153125  15.4505859375 8.286328125  Z M 16.3224609375 12.040234375  C 16.1953125 11.991796875  16.0560546875 12.0583984375  16.0076171875 12.185546875  C 15.9591796875 12.3126953125  16.02578125 12.451953125  16.1529296875 12.500390625  L 17.8724609375 13.11796875  C 17.999609375 13.16640625  18.1388671875 13.0998046875  18.1873046875 12.97265625  C 18.2357421875 12.8455078125  18.169140625 12.70625  18.0419921875 12.6578125  L 16.3224609375 12.040234375  Z " fill-rule="nonzero" fill="#f9d43a" stroke="none" transform="matrix(1 0 0 1 107 9 )" />
  </g>
</svg>