<?xml version="1.0" encoding="utf-8"?>
<svg version="1.1" xmlns:xlink="http://www.w3.org/1999/xlink" width="123px" height="36px" xmlns="http://www.w3.org/2000/svg">
  <g transform="matrix(1 0 0 1 -189 -9 )">
    <path d="M 190 12  A 2 2 0 0 1 192 10 L 309 10  A 2 2 0 0 1 311 12 L 311 42  A 2 2 0 0 1 309 44 L 192 44  A 2 2 0 0 1 190 42 L 190 12  Z " fill-rule="nonzero" fill="#ffffff" stroke="none" />
    <path d="M 189.5 12  A 2.5 2.5 0 0 1 192 9.5 L 309 9.5  A 2.5 2.5 0 0 1 311.5 12 L 311.5 42  A 2.5 2.5 0 0 1 309 44.5 L 192 44.5  A 2.5 2.5 0 0 1 189.5 42 L 189.5 12  Z " stroke-width="1" stroke-dasharray="9,4" stroke="#d9001b" fill="none" stroke-dashoffset="0.5" />
  </g>
</svg>