<?xml version="1.0" encoding="utf-8"?>
<svg version="1.1" xmlns:xlink="http://www.w3.org/1999/xlink" width="18px" height="18px" xmlns="http://www.w3.org/2000/svg">
  <g transform="matrix(1 0 0 1 -23 -357 )">
    <path d="M 8.97222857142857 0.129085714285714  C 4.06604571428571 0.129085714285714  0.0884571428571423 4.10832  0.0884571428571423 9.01470857142857  C 0.0884571428571423 13.9202742857143  4.06594285714286 17.89848  8.97222857142857 17.89848  C 13.8812914285714 17.89848  17.8579542857143 13.9202742857143  17.8579542857143 9.01470857142857  C 17.8577485714286 4.10832  13.8809828571429 0.129085714285715  8.97212571428572 0.129085714285715  Z M 15.7648114285714 11.0837828571429  L 10.3228457142857 15.6233828571429  C 9.77533714285714 16.0190742857143  9.09092571428572 16.3407085714286  8.37740571428571 16.1112342857143  C 7.95003428571429 15.9713485714286  7.56884571428571 15.7081371428571  7.19352 15.4320685714286  L 2.26645714285714 11.4072685714286  L 2.26645714285714 10.2098057142857  L 7.14476571428571 14.1333942857143  C 7.60803428571428 14.4235542857143  8.23268571428571 14.6067428571429  8.79418285714286 14.3900228571429  C 9.31464 14.1846171428571  9.77019428571428 13.8246171428571  10.2165942857143 13.44168  L 13.8991885714286 10.2645257142857  L 13.0531885714286 9.57795428571429  L 9.20273142857143 12.7430742857143  C 8.81331428571429 13.0390971428571  8.36568 13.2761828571429  7.85715428571429 13.1707542857143  C 7.38894857142857 13.0731428571429  7.02648 12.7106742857143  6.62410285714286 12.4468457142857  L 3.04704 9.53434285714286  C 2.77549714285714 9.32945142857143  2.49942857142857 9.11304  2.25524571428572 8.86803428571429  L 2.24928 8.07171428571429  L 6.59149714285714 11.5240114285714  C 6.98029714285715 11.7681942857143  7.50836571428571 12.0061028571429  7.96885714285714 11.74752  L 8.45732571428572 11.4310285714286  L 11.8444114285714 8.63197714285714  C 11.6746971428571 8.43963428571429  11.3740457142857 8.24472  11.1511542857143 8.27331428571429  C 10.9816457142857 8.29244571428572  10.8245828571429 8.35179428571429  10.6665942857143 8.46493714285714  L 8.25346285714286 10.4621142857143  C 8.04332571428572 10.6033371428571  7.68435428571429 10.7750057142857  7.42001142857143 10.7134971428571  C 6.75905142857143 10.5592114285714  6.28446857142857 9.99123428571429  5.79774857142857 9.60984  L 2.15598857142857 6.63942857142857  L 7.25729142857143 2.41662857142857  C 8.52192 1.49646857142857  9.82224 1.60611428571429  10.9816457142857 2.47299428571429  L 15.7198628571429 6.36932571428571  C 15.7228457142857 6.37395428571428  15.7179085714286 7.52821714285714  15.7129714285714 7.52605714285714  L 11.9695885714286 4.47377142857143  C 11.5780114285714 4.15388571428571  10.3771542857143 2.85809142857143  9.27956571428571 3.27898285714286  C 8.69060571428572 3.50465142857143  8.20676571428572 3.93253714285714  7.69793142857143 4.32802285714286  L 4.04506285714286 7.38761142857143  C 4.04938285714286 7.39028571428571  4.94424 8.13744  4.94424 8.13744  L 8.53529142857143 5.13822857142857  C 9.14873142857143 4.68421714285714  10.0046057142857 4.52314285714286  10.7219314285714 4.85886857142857  C 10.7219314285714 4.85886857142857  11.0767885714286 5.04781714285714  11.2195542857143 5.17361142857143  C 11.39544 5.32954285714286  15.7198628571429 8.85630857142857  15.7198628571429 8.85630857142857  C 15.7129714285714 9.11797714285714  15.7310742857143 9.45020571428571  15.6990857142857 9.7056  L 11.4588 6.26225142857143  C 10.92024 5.91829714285714  10.0897714285714 5.9112  9.55563428571429 6.28786285714286  C 8.38676571428572 7.21861714285714  7.29349714285715 8.13733714285714  6.15867428571429 9.12476571428572  C 6.37014857142857 9.40762285714286  6.69661714285714 9.53434285714286  7.05342857142857 9.42325714285714  L 7.30357714285715 9.28398857142857  L 9.64481142857143 7.29133714285714  C 9.97395428571429 7.08747428571429  10.6453028571429 6.98173714285714  10.9889485714286 7.19516571428571  L 11.3710628571429 7.44644571428571  L 15.7648114285714 11.02248  L 15.7648114285714 11.0837828571429  Z " fill-rule="nonzero" fill="#ffffff" stroke="none" transform="matrix(1 0 0 1 23 357 )" />
  </g>
</svg>