<?xml version="1.0" encoding="utf-8"?>
<svg version="1.1" xmlns:xlink="http://www.w3.org/1999/xlink" width="15px" height="12px" xmlns="http://www.w3.org/2000/svg">
  <g transform="matrix(1 0 0 1 -162 -193 )">
    <path d="M 0.406768867924528 4.8675  L 14.242570754717 0.133086206896552  C 14.6005896226415 0.0105689655172414  14.9706367924528 0.284275862068965  14.9457488207547 0.653155172413793  L 14.2686969339623 10.683224137931  C 14.2448172169811 11.0368620689655  13.870170990566 11.2620517241379  13.5350235849057 11.1241896551724  L 7.92613797169811 8.8168275862069  L 6.07383254716981 11.6405344827586  C 5.79196344339623 12.070224137931  5.11282429245283 11.8819655172414  5.09927476415094 11.3783620689655  L 5.0990625 11.3630172413793  L 5.0990625 7.69712068965517  L 0.383030660377358 5.83125862068965  C -0.0638915094339622 5.65443103448276  -0.0532075471698115 5.03731034482759  0.39311320754717 4.87236206896552  L 0.406768867924528 4.8675  Z M 10.1913856132075 4.64775862068965  L 6.15707547169811 7.7473275862069  L 6.15705778301887 9.5995  L 7.18760023584906 8.02856896551724  C 7.22384189709602 7.97317460799645  7.27064152128755 7.92506515917131  7.32546580188679 7.88684482758621  C 7.33473003998411 7.8743081749516  7.34455679698022 7.86217570685035  7.35491745283019 7.85048275862069  L 10.1914033018868 4.64777586206896  Z " fill-rule="nonzero" fill="#7f7f7f" stroke="none" transform="matrix(1 0 0 1 162 193 )" />
  </g>
</svg>