<?xml version="1.0" encoding="utf-8"?>
<svg version="1.1" xmlns:xlink="http://www.w3.org/1999/xlink" width="21px" height="14px" xmlns="http://www.w3.org/2000/svg">
  <g transform="matrix(1 0 0 1 -331 -848 )">
    <path d="M 21 7  C 19.3486363636364 2.90266666666667  15.2775 0  10.5 0  C 5.72727272727273 0  1.65136363636364 2.90266666666667  0 7  C 1.65136363636364 11.0973333333333  5.72727272727273 14  10.5 14  C 15.2727272727273 14  19.3486363636364 11.0973333333333  21 7  Z M 15.2727272727273 7  C 15.2727272727273 9.576  13.1345454545455 11.6666666666667  10.5 11.6666666666667  C 7.86545454545455 11.6666666666667  5.72727272727273 9.576  5.72727272727273 7  C 5.72727272727273 4.424  7.86545454545455 2.33333333333333  10.5 2.33333333333333  C 13.1345454545455 2.33333333333333  15.2727272727273 4.424  15.2727272727273 7  Z M 13.3636363636364 7  C 13.3636363636364 5.45533333333333  12.0797727272727 4.2  10.5 4.2  C 8.92022727272727 4.2  7.63636363636364 5.45533333333333  7.63636363636364 7  C 7.63636363636364 8.54466666666667  8.92022727272727 9.8  10.5 9.8  C 12.0797727272727 9.8  13.3636363636364 8.54466666666667  13.3636363636364 7  Z " fill-rule="nonzero" fill="#70b603" stroke="none" transform="matrix(1 0 0 1 331 848 )" />
  </g>
</svg>