<?xml version="1.0" encoding="utf-8"?>
<svg version="1.1" xmlns:xlink="http://www.w3.org/1999/xlink" width="14px" height="15px" xmlns="http://www.w3.org/2000/svg">
  <g transform="matrix(1 0 0 1 -41 -85 )">
    <path d="M 13.974735125 7.47745275995575  C 13.974703140625 7.06807368915929  13.66217903125 6.73620665376106  13.27668040625 6.73620665376106  L 7.692546453125 6.73620665376106  L 7.692546453125 0.806152898230089  C 7.692546453125 0.396773827433628  7.380038328125 0.0648898174778763  6.99452371875 0.0648898174778763  C 6.60902509375 0.0648898174778763  6.296500984375 0.396756852876106  6.29650096875 0.806152898230089  L 6.29650096875 6.73620665376106  L 0.712399 6.73620665376106  C 0.326900375 6.73620665376106  0.0143762656250002 7.06807368915929  0.01437625 7.47746975110619  C 0.01437625 7.88684882190265  0.326884375 8.21873283185841  0.712399 8.21873283185841  L 6.296532953125 8.21873283185841  L 6.296532953125 14.1487865873894  C 6.296532953125 14.5581656581858  6.609041078125 14.8900496681416  6.9945556875 14.8900496847345  C 7.3800543125 14.8900496847345  7.692578421875 14.5581826493363  7.6925784375 14.1487865873894  L 7.6925784375 8.21871585730088  L 13.276712390625 8.21871585730088  C 13.662211015625 8.21871585730088  13.974735125 7.88684882190265  13.974735125 7.47745275995575  Z " fill-rule="nonzero" fill="#ffffff" stroke="none" transform="matrix(1 0 0 1 41 85 )" />
  </g>
</svg>