<?xml version="1.0" encoding="utf-8"?>
<svg version="1.1" xmlns:xlink="http://www.w3.org/1999/xlink" width="21px" height="21px" xmlns="http://www.w3.org/2000/svg">
  <g transform="matrix(1 0 0 1 -600 -123 )">
    <path d="M 610.5 124  C 615.82 124  620 128.18  620 133.5  C 620 138.82  615.82 143  610.5 143  C 605.18 143  601 138.82  601 133.5  C 601 128.18  605.18 124  610.5 124  Z " fill-rule="nonzero" fill="#d7d7d7" stroke="none" />
    <path d="M 610.5 124  C 615.82 124  620 128.18  620 133.5  C 620 138.82  615.82 143  610.5 143  C 605.18 143  601 138.82  601 133.5  C 601 128.18  605.18 124  610.5 124  Z " stroke-width="2" stroke="#797979" fill="none" />
  </g>
</svg>