<?xml version="1.0" encoding="utf-8"?>
<svg version="1.1" xmlns:xlink="http://www.w3.org/1999/xlink" width="213px" height="144px" xmlns="http://www.w3.org/2000/svg">
  <g transform="matrix(1 0 0 1 -8 -10 )">
    <path d="M 8 10  L 221 10  L 221 154  L 8 154  L 8 10  " fill-rule="nonzero" fill="#cccccc" stroke="none" />
    <path d="M 18 20  L 211 20  L 211 144  L 18 144  L 18 20  " fill-rule="nonzero" fill="#ffffff" stroke="none" />
    <path d="M 129.56 53.2  C 123.512 53.2  118.76 48.448  118.76 42.4  C 118.76 36.352  123.512 31.6  129.56 31.6  C 135.608 31.6  140.36 36.352  140.36 42.4  C 140.36 48.448  135.608 53.2  129.56 53.2  " fill-rule="nonzero" fill="#cccccc" stroke="none" />
    <path d="M 22 141  L 22 76.65  L 68.5 47.4  L 133.6 93.5408450704225  L 170.8 64.95  L 208 93.5408450704225  L 208 141  L 22 141  " fill-rule="nonzero" fill="#169bd5" stroke="none" />
  </g>
</svg>