<?xml version="1.0" encoding="utf-8"?>
<svg version="1.1" xmlns:xlink="http://www.w3.org/1999/xlink" width="43px" height="43px" xmlns="http://www.w3.org/2000/svg">
  <g transform="matrix(1 0 0 1 -809 -58 )">
    <path d="M 42.717896484375 21.5  C 42.717896484375 33.2182978515625  33.2182978515625 42.7177705078125  21.5 42.7177705078125  C 9.7816181640625 42.7177705078125  0.282103515625001 33.218171875  0.282103515625001 21.4998740234375  C 0.282103515625001 9.781576171875  9.7816181640625 0.282103515625001  21.5 0.282103515625001  C 33.2182978515625 0.282103515625001  42.717896484375 9.7817021484375  42.717896484375 21.5  Z M 40.0655439453125 21.5  C 40.0655439453125 11.246767578125  31.753232421875 2.934330078125  21.5 2.934330078125  C 11.2468095703125 2.934330078125  2.934330078125 11.2466416015625  2.934330078125 21.5  C 2.934330078125 31.7533583984375  11.246767578125 40.0655439453125  21.5 40.0655439453125  C 31.7531904296875 40.0655439453125  40.0655439453125 31.753232421875  40.0655439453125 21.5  Z M 23.3829716796875 21.50688671875  L 29.00165234375 27.1265751953125  C 29.5197099609375 27.6437509765625  29.5197099609375 28.4837626953125  29.00165234375 29.00165234375  C 28.4837626953125 29.5197099609375  27.6437509765625 29.5197099609375  27.1265751953125 29.00165234375  L 21.50688671875 23.3829716796875  L 15.850203125 29.0396552734375  C 15.3278623046875 29.561912109375  14.4818037109375 29.561912109375  13.9603447265625 29.0396552734375  C 13.43800390625 28.5173984375  13.43800390625 27.671255859375  13.9603447265625 27.149712890625  L 19.6170283203125 21.4922314453125  L 13.9982216796875 15.8734248046875  C 13.480248046875 15.355451171875  13.480248046875 14.5162373046875  13.9982216796875 13.9981796875  C 14.516279296875 13.4802900390625  15.3554091796875 13.4802900390625  15.873466796875 13.9981796875  L 21.4922734375 19.616986328125  L 27.19128515625 13.917974609375  C 27.7135419921875 13.3964736328125  28.5596845703125 13.3964736328125  29.0812275390625 13.917974609375  C 29.603484375 14.4402314453125  29.603484375 15.2863740234375  29.0812275390625 15.80871484375  L 23.3828876953125 21.506970703125  Z " fill-rule="nonzero" fill="#000000" stroke="none" transform="matrix(1 0 0 1 809 58 )" />
  </g>
</svg>