<?xml version="1.0" encoding="utf-8"?>
<svg version="1.1" xmlns:xlink="http://www.w3.org/1999/xlink" width="48px" height="48px" xmlns="http://www.w3.org/2000/svg">
  <g transform="matrix(1 0 0 1 -579 -699 )">
    <path d="M 603 700  C 615.88 700  626 710.12  626 723  C 626 735.88  615.88 746  603 746  C 590.12 746  580 735.88  580 723  C 580 710.12  590.12 700  603 700  Z " fill-rule="nonzero" fill="#f2f2f2" stroke="none" />
    <path d="M 603 700  C 615.88 700  626 710.12  626 723  C 626 735.88  615.88 746  603 746  C 590.12 746  580 735.88  580 723  C 580 710.12  590.12 700  603 700  Z " stroke-width="2" stroke="#aaaaaa" fill="none" />
  </g>
</svg>