<?xml version="1.0" encoding="utf-8"?>
<svg version="1.1" xmlns:xlink="http://www.w3.org/1999/xlink" width="48px" height="48px" xmlns="http://www.w3.org/2000/svg">
  <g transform="matrix(1 0 0 1 -664 -699 )">
    <path d="M 688 700  C 700.88 700  711 710.12  711 723  C 711 735.88  700.88 746  688 746  C 675.12 746  665 735.88  665 723  C 665 710.12  675.12 700  688 700  Z " fill-rule="nonzero" fill="#81d3f8" stroke="none" fill-opacity="0.498039215686275" />
    <path d="M 688 700  C 700.88 700  711 710.12  711 723  C 711 735.88  700.88 746  688 746  C 675.12 746  665 735.88  665 723  C 665 710.12  675.12 700  688 700  Z " stroke-width="2" stroke="#1890ff" fill="none" />
  </g>
</svg>