<?xml version="1.0" encoding="utf-8"?>
<svg version="1.1" xmlns:xlink="http://www.w3.org/1999/xlink" width="24px" height="24px" xmlns="http://www.w3.org/2000/svg">
  <g transform="matrix(1 0 0 1 -591 -711 )">
    <path d="M 21.4982 6.3756  L 17.6288 2.5034  L 19.6302 0.5006  C 20.2972 -0.166799999999999  21.3648 -0.166799999999999  21.8984 0.5006  L 23.4996 2.103  C 24.1668 2.7706  24.1668 3.8388  23.4996 4.373  L 21.4982 6.3756  Z M 10.2906 17.5912  L 6.4212 13.719  L 16.9616 3.3048  L 20.831 7.1766  L 10.2906 17.5912  Z M 3.3526 20.7956  L 5.7542 14.5202  L 9.6236 18.3922  L 3.3526 20.7956  Z M 23.0654 22  L 23.0654 22.1308  C 23.5994 22.1308  23.9998 22.5312  23.9998 23.0652  C 23.9998 23.5994  23.5994 24  23.0654 24  L 0.9346 24  C 0.3496 24  0 23.5994  0 23.0652  C 0 22.5312  0.4004 22.1308  0.9346 22  L 23.0654 22  Z " fill-rule="nonzero" fill="#7f7f7f" stroke="none" transform="matrix(1 0 0 1 591 711 )" />
  </g>
</svg>