<?xml version="1.0" encoding="utf-8"?>
<svg version="1.1" xmlns:xlink="http://www.w3.org/1999/xlink" width="20px" height="18px" xmlns="http://www.w3.org/2000/svg">
  <g transform="matrix(1 0 0 1 -976 -713 )">
    <path d="M 19.8189056575188 10.4999962124081  C 19.8189056575188 14.0668257800143  17.291063927091 17.1402187488433  13.7735849056604 17.85  L 13.7735849056604 18  L 1.69811320754717 18  L 1.69811320754717 16.5  L 12.2641509433962 16.5  C 15.5987003763369 16.5  18.3018867924528 13.8137084989848  18.3018867924528 10.5  C 18.3018867924528 7.18629150101524  15.5987003763369 4.5  12.2641509433962 4.5  L 6.22641509433962 4.5  L 6.22641509433962 6.9  C 6.20930921204378 7.24071975512186  5.91883082300116 7.50393209700275  5.57584905660377 7.4895  C 5.44066590937914 7.49010453855515  5.30832260150171 7.45096282361372  5.19547169811321 7.377  L 0.455849056603774 4.2405  C 0.287206291151239 4.13916117673439  0.184159863234969 3.95757137997988  0.184159863234969 3.76172566107459  C 0.184159863234969 3.63612007014355  0.226690490714842 3.51416804395607  0.304905660377358 3.4155  C 0.347933820644319 3.36431684057896  0.398885677500147 3.32026577583605  0.455849056603774 3.285  L 5.19547169811321 0.149999999999999  C 5.48680116686017 -0.0418165848393149  5.8766247393 0.0143545555519378  6.1011320754717 0.2805  C 6.18167591023296 0.378868876023695  6.22588994203688 0.501682671594703  6.22641509433962 0.6285  L 6.22641509433962 3  L 12.2641509433962 3  C 12.266679243533 2.99999747493892  12.2692075447845 2.99999621240815  12.2717358461981 2.99999621240815  C 16.4399226373739 2.99999621240815  19.8189056575188 6.3578605886772  19.8189056575188 10.4999962124081  Z " fill-rule="nonzero" fill="#157edf" stroke="none" transform="matrix(1 0 0 1 976 713 )" />
  </g>
</svg>