<?xml version="1.0" encoding="utf-8"?>
<svg version="1.1" xmlns:xlink="http://www.w3.org/1999/xlink" width="16px" height="22px" xmlns="http://www.w3.org/2000/svg">
  <g transform="matrix(1 0 0 1 -891 -712 )">
    <path d="M 11.4845 4.615380859375  C 12.0706041666667 4.60440234375  12.4755416666667 4.714294921875  12.4009375 4.120875  L 11.9853541666667 1.0988828125  C 11.9107708333333 0.505484375  11.3672916666667 0.0219785156249999  10.791875 0.0219785156249999  L 5.17616666666667 0.0219785156249999  C 4.59008333333333 0.0219785156249999  4.05727083333333 0.505484375  3.97202083333333 1.098904296875  L 3.5564375 4.131853515625  C 3.48185416666667 4.7252734375  3.88677083333333 4.615380859375  4.46220833333333 4.615380859375  L 11.4845 4.615380859375  Z M 11.0582708333333 3.505498046875  L 4.8884375 3.505498046875  L 5.208125 1.1098828125  L 10.7386041666667 1.1098828125  L 11.0582708333333 3.505498046875  Z M 14.6493541666667 6.06594140625  L 14.649375 6  L 1.30802083333333 6  C 0.540791666666667 6.06594140625  -0.0452916666666668 6.714275390625  0.0293124999999996 7.505501953125  L 1.18014583333333 20.560439453125  C 1.25472916666667 21.35164453125  1.93672916666667 22  2.714625 22  L 13.24275 22  C 14.01 22  14.702625 21.35164453125  14.7772291666667 20.560439453125  L 15.9280625 7.51648046875  C 16.0026458333333 6.725275390625  15.4272291666667 6.06594140625  14.6493541666667 6.06594140625  Z M 5.17616666666667 7.747244140625  L 5.17616666666667 20.483525390625  L 2.44820833333333 20.483525390625  L 1.54245833333333 7.747244140625  L 5.17616666666667 7.747244140625  Z M 9.79020833333333 7.747244140625  L 9.79020833333333 20.483525390625  L 6.1565 20.483525390625  L 6.1565 7.747244140625  L 9.79020833333333 7.747244140625  Z M 14.3936041666667 7.747244140625  L 13.4878541666667 20.483525390625  L 10.791875 20.483525390625  L 10.791875 7.747244140625  L 14.3936041666667 7.747244140625  Z " fill-rule="nonzero" fill="#157edf" stroke="none" transform="matrix(1 0 0 1 891 712 )" />
  </g>
</svg>