<?xml version="1.0" encoding="utf-8"?>
<svg version="1.1" xmlns:xlink="http://www.w3.org/1999/xlink" width="6px" height="6px" xmlns="http://www.w3.org/2000/svg">
  <g transform="matrix(1 0 0 1 -108 -159 )">
    <path d="M 5.5 0  L 0.5 0  C 0.223857625084603 0  0 0.223857625084603  0 0.5  C 0 0.776142374915397  0.223857625084603 1  0.5 1  L 5.5 1  C 5.7761423749154 1  6 0.776142374915397  6 0.5  C 6 0.223857625084603  5.7761423749154 0  5.5 0  Z M 5.5 2.5  L 0.5 2.5  C 0.223857625084603 2.5  0 2.7238576250846  0 3  C 0 3.2761423749154  0.223857625084603 3.5  0.5 3.5  L 5.5 3.5  C 5.7761423749154 3.5  6 3.2761423749154  6 3  C 6 2.7238576250846  5.7761423749154 2.5  5.5 2.5  Z M 3.5 4.979  L 0.5 4.979  C 0.223857625084603 4.979  0 5.2028576250846  0 5.479  C 0 5.7551423749154  0.223857625084603 5.979  0.5 5.979  L 3.5 5.979  C 3.7761423749154 5.979  4 5.7551423749154  4 5.479  C 4 5.2028576250846  3.7761423749154 4.979  3.5 4.979  Z " fill-rule="nonzero" fill="#000000" stroke="none" transform="matrix(1 0 0 1 108 159 )" />
  </g>
</svg>