<?xml version="1.0" encoding="utf-8"?>
<svg version="1.1" xmlns:xlink="http://www.w3.org/1999/xlink" width="10px" height="11px" xmlns="http://www.w3.org/2000/svg">
  <g transform="matrix(1 0 0 1 -109 -154 )">
    <path d="M 10 1.22222222222222  C 10 0.548533333333333  9.45317073170732 0  8.78048780487805 0  L 0.48780487804878 0  C 0.218397683009369 0  0 0.218883011193834  0 0.488888888888889  C 0 0.758894766583943  0.218397683009369 0.977777777777778  0.48780487804878 0.977777777777778  L 8.78048780487805 0.977777777777778  C 8.91519140239776 0.977777777777778  9.02439024390244 1.08721928337469  9.02439024390244 1.22222222222222  L 9.02439024390244 10.5111111111111  C 9.02439024390244 10.7811169888062  9.24278792691181 11  9.51219512195122 11  C 9.78160231699063 11  10 10.7811169888062  10 10.5111111111111  L 10 1.22222222222222  Z " fill-rule="nonzero" fill="#000000" stroke="none" transform="matrix(1 0 0 1 109 154 )" />
  </g>
</svg>