<?xml version="1.0" encoding="utf-8"?>
<svg version="1.1" xmlns:xlink="http://www.w3.org/1999/xlink" width="46px" height="46px" xmlns="http://www.w3.org/2000/svg">
  <g transform="matrix(1 0 0 1 -1561 -75 )">
    <path d="M 45.69821484375 23  C 45.69821484375 35.535853515625  35.535853515625 45.698080078125  23 45.698080078125  C 10.464056640625 45.698080078125  0.301785156250001 35.53571875  0.301785156250001 22.999865234375  C 0.301785156250001 10.46401171875  10.464056640625 0.301785156250001  23 0.301785156250001  C 35.535853515625 0.301785156250001  45.69821484375 10.464146484375  45.69821484375 23  Z M 42.860814453125 23  C 42.860814453125 12.03142578125  33.96857421875 3.13905078125  23 3.13905078125  C 12.031470703125 3.13905078125  3.13905078125 12.031291015625  3.13905078125 23  C 3.13905078125 33.968708984375  12.03142578125 42.860814453125  23 42.860814453125  C 33.968529296875 42.860814453125  42.860814453125 33.96857421875  42.860814453125 23  Z M 25.014341796875 23.0073671875  L 31.0250234375 29.019126953125  C 31.579224609375 29.572384765625  31.579224609375 30.471001953125  31.0250234375 31.0250234375  C 30.471001953125 31.579224609375  29.572384765625 31.579224609375  29.019126953125 31.0250234375  L 23.0073671875 25.014341796875  L 16.95603125 31.065677734375  C 16.397248046875 31.62437109375  15.492162109375 31.62437109375  14.934322265625 31.065677734375  C 14.3755390625 30.506984375  14.3755390625 29.60180859375  14.934322265625 29.04387890625  L 20.985658203125 22.991689453125  L 14.974841796875 16.980873046875  C 14.42073046875 16.42676171875  14.42073046875 15.528998046875  14.974841796875 14.974796875  C 15.52904296875 14.420775390625  16.426716796875 14.420775390625  16.98091796875 14.974796875  L 22.991734375 20.98561328125  L 29.0883515625 14.88899609375  C 29.647044921875 14.331111328125  30.552220703125 14.331111328125  31.110150390625 14.88899609375  C 31.66884375 15.447689453125  31.66884375 16.352865234375  31.110150390625 16.9116484375  L 25.014251953125 23.00745703125  Z " fill-rule="nonzero" fill="#000000" stroke="none" transform="matrix(1 0 0 1 1561 75 )" />
  </g>
</svg>