<?xml version="1.0" encoding="utf-8"?>
<svg version="1.1" xmlns:xlink="http://www.w3.org/1999/xlink" width="118px" height="26px" xmlns="http://www.w3.org/2000/svg">
  <g transform="matrix(1 0 0 1 -273 -723 )">
    <path d="M 274 726  A 2 2 0 0 1 276 724 L 388 724  A 2 2 0 0 1 390 726 L 390 746  A 2 2 0 0 1 388 748 L 276 748  A 2 2 0 0 1 274 746 L 274 726  Z " fill-rule="nonzero" fill="#d9001b" stroke="none" fill-opacity="0" />
    <path d="M 273.5 726  A 2.5 2.5 0 0 1 276 723.5 L 388 723.5  A 2.5 2.5 0 0 1 390.5 726 L 390.5 746  A 2.5 2.5 0 0 1 388 748.5 L 276 748.5  A 2.5 2.5 0 0 1 273.5 746 L 273.5 726  Z " stroke-width="1" stroke-dasharray="9,4" stroke="#d9001b" fill="none" stroke-dashoffset="0.5" />
  </g>
</svg>