<?xml version="1.0" encoding="utf-8"?>
<svg version="1.1" xmlns:xlink="http://www.w3.org/1999/xlink" width="13px" height="15px" xmlns="http://www.w3.org/2000/svg">
  <g transform="matrix(1 0 0 1 -33 -154 )">
    <path d="M 12.9398086734694 14.6681415929204  C 12.9398086734694 14.8506637168142  12.7905739795918 15  12.6081760204082 15  L 0.391823979591837 15  C 0.209426020408163 15  0.0601913265306122 14.8506637168142  0.0601913265306122 14.6681415929204  C 0.0601913265306122 14.4856194690265  0.209426020408163 14.3362831858407  0.391823979591837 14.3362831858407  L 12.6081760204082 14.3362831858407  C 12.7905739795918 14.3362831858407  12.9398086734694 14.4856194690265  12.9398086734694 14.6681415929204  Z M 12.6144770408163 4.21659292035398  C 12.9988392857143 3.83180309734513  12.9988392857143 3.20210176991151  12.6143112244898 2.81714601769912  L 10.2263903061224 0.427599557522124  C 9.8334056122449 0.0343473451327432  9.19036989795918 0.0343473451327432  8.79755102040816 0.427433628318584  L 0.815484693877551 8.41493362831858  C 0.738048469387755 8.49242256637168  0.738048469387755 8.61902654867257  0.815484693877551 8.69651548672566  L 1.20266581632653 9.08396017699115  C 1.19288265306122 9.02273230088496  1.21128826530612 8.95752212389381  1.25804846938776 8.91073008849557  L 9.19020408163265 0.973174778761062  C 9.39929846938776 0.763938053097345  9.74170918367347 0.763938053097345  9.95080357142857 0.973340707964601  L 12.0515306122449 3.07533185840708  C 12.2619515306122 3.28589601769912  12.2619515306122 3.63069690265487  12.0515306122449 3.8412610619469  L 4.12186224489796 11.7763274336283  C 4.0749362244898 11.8232853982301  4.0099362244898 11.841703539823  3.94875 11.8317477876106  L 4.33593112244898 12.2191924778761  C 4.41336734693878 12.2966814159292  4.53988520408163 12.2966814159292  4.61732142857143 12.2191924778761  L 12.6144770408163 4.21659292035398  Z " fill-rule="nonzero" fill="#7f7f7f" stroke="none" transform="matrix(1 0 0 1 33 154 )" />
  </g>
</svg>