<?xml version="1.0" encoding="utf-8"?>
<svg version="1.1" xmlns:xlink="http://www.w3.org/1999/xlink" width="11px" height="11px" xmlns="http://www.w3.org/2000/svg">
  <g transform="matrix(1 0 0 1 -33 -156 )">
    <path d="M 4.24147988505747 10.3231764705882  C 4.33915229885057 10.3231764705882  4.41896551724138 10.2414852941176  4.41880747126437 10.1416764705882  L 4.0026724137931 9.71575  L 3.96616379310345 9.75311764705882  C 3.93360632183908 9.78644117647059  3.89204022988506 9.80488235294118  3.84936781609195 9.80876470588236  C 3.82299139608517 9.82436223177665  3.79306270040574 9.83256448376517  3.76260057471264 9.83254411764706  C 3.76228448275862 9.83238235294118  3.7619683908046 9.83254411764706  3.76149425287356 9.83254411764706  L 0.9625 10.2497352941176  C 0.904813218390805 10.2623529411765  0.843175287356322 10.2469852941176  0.801293103448276 10.2042794117647  C 0.798132183908046 10.2010441176471  0.794971264367816 10.1976470588235  0.791968390804598 10.1940882352941  C 0.756724137931035 10.1520294117647  0.745344827586207 10.0942794117647  0.756724137931035 10.0400882352941  L 1.16448275862069 7.17426470588235  C 1.1646408045977 7.17394117647059  1.1646408045977 7.17345588235294  1.1646408045977 7.17329411764706  C 1.1646408045977 7.14304411764706  1.17206896551724 7.11457352941177  1.1851867816092 7.0895  C 1.18755747126437 7.04339705882353  1.2058908045977 6.99794117647059  1.2401867816092 6.96283823529412  L 1.27669540229885 6.9254705882353  L 0.862614942528736 6.50164705882353  C 0.765100574712644 6.50164705882353  0.685445402298851 6.58333823529412  0.685445402298851 6.68298529411765  L 0.0949856321839081 10.7233823529412  C 0.0902442528735633 10.7560588235294  0.0926149425287356 10.7898676470588  0.105258620689655 10.8201176470588  C 0.123433908045977 10.8637941176471  0.157729885057472 10.8987352941176  0.200402298850575 10.9171764705882  C 0.229640804597701 10.9296323529412  0.262040229885058 10.9322205882353  0.293175287356322 10.9275294117647  L 4.24147988505747 10.3231764705882  Z M 10.6788505747126 3.56885294117647  C 10.6050431034483 3.64439705882353  10.4842959770115 3.64439705882353  10.4106465517241 3.56885294117647  L 7.51619252873563 0.606294117647059  C 7.44238505747127 0.53075  7.44238505747127 0.407323529411764  7.51619252873563 0.331779411764706  L 7.69494252873563 0.148823529411765  C 7.76875 0.0732794117647059  7.88933908045977 0.0732794117647059  7.96314655172414 0.148823529411765  L 10.8576005747126 3.11138235294118  C 10.931408045977 3.18692647058824  10.931408045977 3.31035294117647  10.8576005747126 3.38589705882353  L 10.6788505747126 3.56885294117647  Z " fill-rule="nonzero" fill="#7f7f7f" stroke="none" transform="matrix(1 0 0 1 33 156 )" />
  </g>
</svg>