<?xml version="1.0" encoding="utf-8"?>
<svg version="1.1" xmlns:xlink="http://www.w3.org/1999/xlink" width="16px" height="14px" xmlns="http://www.w3.org/2000/svg">
  <g transform="matrix(1 0 0 1 -66 -154 )">
    <path d="M 11.533883628866 13.9256725959302  C 11.5282079587629 13.9259641540698  11.5225111958763 13.9261099127907  11.5168988453608 13.9261099127907  C 11.3833204536082 13.9261099127907  11.2620217525773 13.8468155813953  11.2104555670103 13.7240634593023  L 8.81009571134021 8.01503817441861  L 0.447384268041237 8.13279276453488  C 0.292854474226803 8.13585375872093  0.156512123711339 8.03098867151163  0.120052886597938 7.88229096802326  C 0.0835725567010304 7.73359326453488  0.156258927835051 7.57983555813954  0.295133195876288 7.51182734302326  L 15.3750797113402 0.128250703488371  C 15.4935511340206 0.0702375726744179  15.6355902680412 0.0871667470930228  15.736612742268 0.171333688953488  C 15.8376774226804 0.25547979360465  15.878525257732 0.390809063953488  15.8405047010309 0.515810078488371  L 11.8349044536082 13.6926622122093  C 11.7945840824742 13.8253469476744  11.6740871340206 13.9186552180233  11.533883628866 13.9256725959302  Z " fill-rule="nonzero" fill="#7f7f7f" stroke="none" transform="matrix(1 0 0 1 66 154 )" />
  </g>
</svg>