<?xml version="1.0" encoding="utf-8"?>
<svg version="1.1" xmlns:xlink="http://www.w3.org/1999/xlink" width="11px" height="12px" xmlns="http://www.w3.org/2000/svg">
  <g transform="matrix(1 0 0 1 -106 -156 )">
    <path d="M 11 1.25  C 11 0.561  10.4395 0  9.75 0  L 1.25 0  C 0.55998671224761 0.000826529083644889  0.000826529083645111 0.559986712247611  0 1.25  L 0 10.75  C 0 11.4395  0.561 12  1.25 12  L 9.75 12  C 10.4395 12  11 11.4395  11 10.75  L 11 1.25  Z M 10 1.25  L 10 10.75  C 10 10.8875  9.8875 11  9.75 11  L 1.25 11  C 1.1119288125423 11  1 10.8880711874577  1 10.75  L 1 1.25  C 1 1.1119288125423  1.1119288125423 1  1.25 1  L 9.75 1  C 9.8880711874577 1  10 1.1119288125423  10 1.25  Z " fill-rule="nonzero" fill="#7f7f7f" stroke="none" transform="matrix(1 0 0 1 106 156 )" />
  </g>
</svg>