<?xml version="1.0" encoding="utf-8"?>
<svg version="1.1" xmlns:xlink="http://www.w3.org/1999/xlink" width="14px" height="14px" xmlns="http://www.w3.org/2000/svg">
  <g transform="matrix(1 0 0 1 -143 -154 )">
    <path d="M 5.69547324609375 13.9753086484375  C 5.62139917773438 13.9753086484375  5.54732509570313 13.9588477382812  5.47325102734375 13.9259259316406  C 5.26748970507813 13.835390953125  5.13580246484375 13.6378600859375  5.13580246484375 13.4156378671875  L 5.13580246484375 9.31687244140625  C 5.13580246484375 9.14403293945312  5.20987653320312 8.98765433398437  5.34979422851563 8.8806584453125  C 5.48148146875 8.77366255664063  5.65432097070313 8.74074075  5.82716048632813 8.77366255664063  L 11.5390946425781 10.139917703125  L 12.6913580117188 1.94238683789063  C 12.707818921875 1.81069959765625  12.5761316679688 1.72016461914063  12.4609053378906 1.78600823242188  L 2.01646090625 7.83539095117188  L 3.91769546875 8.3209876640625  C 4.18930040429687 8.38683129101562  4.38683127148437 8.63374486132813  4.36213991992187 8.91358025195312  C 4.32921811328125 9.2674897109375  4.00000000585937 9.48971194335937  3.6707818984375 9.40740740625  L 0.4197530859375 8.57613168945313  C 0.1975308671875 8.51851851757813  0.04115226171875 8.33744856054687  0.00823045507812499 8.11522634179688  C -0.0246913515625 7.89300412304688  0.0823045234375 7.670781890625  0.279835390625 7.55555556054687  L 13.160493828125 0.090534978515625  C 13.3415637851563 -0.01646091015625  13.5720164589844 -0.008230455078125  13.7530864160156 0.106995888671875  C 13.9259259179688 0.222222232421875  14.0246913515625 0.43621399609375  13.9917695449219 0.641975318359375  L 12.5514403300781 10.8971193515625  C 12.5267489785156 11.0534979570313  12.4444444414063 11.1934156523438  12.3127572011719 11.2839506308594  C 12.1810699609375 11.374485609375  12.0246913554688 11.3991769746094  11.86831275 11.3662551542969  L 6.24691357226563 10.0246913730469  L 6.24691357226563 12.1316872578125  L 7.36625513476563 11.0864197636719  C 7.57201645703125 10.8971193515625  7.88477365429688 10.8559670898438  8.10699587304688 11.0288065917969  C 8.38683126367188 11.2427983554688  8.39506171875 11.6460905449219  8.14814813476563 11.87654321875  L 6.0740740703125 13.8271604980469  C 5.9670781953125 13.9259259316406  5.83539094140625 13.9753086484375  5.69547324609375 13.9753086484375  Z M 5.69547324609375 9.87654320898437  C 5.56378600585938 9.87654320898437  5.432098765625 9.8271604921875  5.32510287695313 9.73662551367187  C 5.094650203125 9.53086419140625  5.07818929296875 9.17695473242188  5.28395061523438 8.94650205859375  L 8.23868312695313 5.63786008789063  C 8.44444444921875 5.4074074140625  8.79835390820313 5.39094650390625  9.02880658203125 5.59670782617188  C 9.25925925585937 5.8024691484375  9.27572016601562 6.15637860742188  9.06995884375 6.38683128125  L 6.11522633203125 9.69547325195312  C 6.00000000195312 9.81893003710938  5.84362139648437 9.87654320898437  5.69547324609375 9.87654320898437  Z " fill-rule="nonzero" fill="#7f7f7f" stroke="none" transform="matrix(1 0 0 1 143 154 )" />
  </g>
</svg>