<?xml version="1.0" encoding="utf-8"?>
<svg version="1.1" xmlns:xlink="http://www.w3.org/1999/xlink" width="59px" height="19px" xmlns="http://www.w3.org/2000/svg">
  <g transform="matrix(1 0 0 1 -1190 -274 )">
    <path d="M 1191 279  A 4 4 0 0 1 1195 275 L 1244 275  A 4 4 0 0 1 1248 279 L 1248 288  A 4 4 0 0 1 1244 292 L 1195 292  A 4 4 0 0 1 1191 288 L 1191 279  Z " fill-rule="nonzero" fill="#ffffff" stroke="none" />
    <path d="M 1190.5 279  A 4.5 4.5 0 0 1 1195 274.5 L 1244 274.5  A 4.5 4.5 0 0 1 1248.5 279 L 1248.5 288  A 4.5 4.5 0 0 1 1244 292.5 L 1195 292.5  A 4.5 4.5 0 0 1 1190.5 288 L 1190.5 279  Z " stroke-width="1" stroke-dasharray="3,1" stroke="#d9001b" fill="none" stroke-dashoffset="0.5" />
  </g>
</svg>