<?xml version="1.0" encoding="utf-8"?>
<svg version="1.1" xmlns:xlink="http://www.w3.org/1999/xlink" width="11px" height="11px" xmlns="http://www.w3.org/2000/svg">
  <g transform="matrix(1 0 0 1 -249 -10 )">
    <path d="M 5.5 5.85349999609375  L 7.62150000390625 7.975  L 7.975 7.62150000390625  L 5.85349999609375 5.5  L 7.975 3.37849999609375  L 7.62150000390625 3.025  L 5.5 5.14650000390625  L 3.37849999609375 3.025  L 3.025 3.37849999609375  L 5.14650000390625 5.5  L 3.025 7.62150000390625  L 3.37849999609375 7.975  L 5.5 5.85349999609375  Z M 5.5 11  C 8.53749999609375 11  11 8.53749999609375  11 5.5  C 11 2.46250000390625  8.53749999609375 0  5.5 0  C 2.46250000390625 0  0 2.46250000390625  0 5.5  C 0 8.53749999609375  2.46250000390625 11  5.5 11  Z M 5.5 10.4999999951172  C 2.73850000488281 10.4999999951172  0.500000004882812 8.26149999511719  0.500000004882812 5.5  C 0.500000004882812 2.73850000488281  2.73850000488281 0.500000004882812  5.5 0.500000004882812  C 8.26149999511719 0.500000004882812  10.4999999951172 2.73850000488281  10.4999999951172 5.5  C 10.4999999951172 8.26149999511719  8.26149999511719 10.4999999951172  5.5 10.4999999951172  Z " fill-rule="nonzero" fill="#7f7f7f" stroke="none" transform="matrix(1 0 0 1 249 10 )" />
  </g>
</svg>