<?xml version="1.0" encoding="utf-8"?>
<svg version="1.1" xmlns:xlink="http://www.w3.org/1999/xlink" width="10px" height="12px" xmlns="http://www.w3.org/2000/svg">
  <g transform="matrix(1 0 0 1 -1074 -1094 )">
    <path d="M 0.229697741125127 11.1239659003916  C 0.229697741125127 11.1173464491876  0.229798506794305 11.1107274155614  0.23 11.1041113043478  L 0.23 0.72141913043478  C 0.229583204717919 0.711879798851132  0.229374725950288 0.702331797192444  0.229374725950288 0.692782556400648  C 0.229374725950288 0.345528957592254  0.499150027092247 0.064024295531082  0.831934725950289 0.064024295531082  C 0.946405281265056 0.064024295531082  1.05850761566392 0.0980486569938837  1.15512 0.162114782608696  C 1.52376 0.388173913043478  8.88824 4.95243130434783  9.51672 5.34277565217391  C 9.7071245730043 5.46050051977537  9.8238847714821 5.67431042382287  9.8238847714821 5.90525217391304  C 9.8238847714821 6.13619392400321  9.70712457300431 6.35000382805071  9.51672 6.46772869565217  C 9.06424 6.75389217391304  1.6716 11.3428591304348  1.13624 11.6604104347826  C 1.04330197934014 11.7184178769706  0.937032595716277 11.7490511177829  0.828737741125128 11.7490511177829  C 0.497897084586489 11.7490511177829  0.229697741125127 11.4691909333015  0.229697741125127 11.1239659003916  Z " fill-rule="nonzero" fill="#ffffff" stroke="none" transform="matrix(1 0 0 1 1074 1094 )" />
  </g>
</svg>