<?xml version="1.0" encoding="utf-8"?>
<svg version="1.1" xmlns:xlink="http://www.w3.org/1999/xlink" width="60px" height="30px" xmlns="http://www.w3.org/2000/svg">
  <g transform="matrix(1 0 0 1 -947 -150 )">
    <path d="M 32.7272727272727 16.7647058823529  L 32.7272727272727 14.1176470588235  L 51.8181818181818 14.1176470588235  L 51.8181818181818 16.7647058823529  L 32.7272727272727 16.7647058823529  Z M 32.7272727272727 12.3529411764706  L 32.7272727272727 10  L 51.8181818181818 10  L 51.8181818181818 12.3529411764706  L 32.7272727272727 12.3529411764706  Z M 32.7272727272727 21  L 32.7272727272727 18  L 51.8181818181818 18  L 51.8181818181818 21  L 32.7272727272727 21  Z M 60 3.52941176470588  C 60 1.58823529411765  57.5454545454545 0  54.5454545454545 0  L 5.45454545454545 0  C 2.45454545454546 0  0 1.58823529411765  0 3.52941176470588  L 0 26.4705882352941  C 0 28.4117647058823  2.45454545454546 30  5.45454545454545 30  L 54.5454545454545 30  C 57.5454545454545 30  60 28.4117647058823  60 26.4705882352941  L 60 3.52941176470588  Z M 54 4  L 54 26  L 30 26  L 30 4  L 54 4  Z " fill-rule="nonzero" fill="#03b615" stroke="none" transform="matrix(1 0 0 1 947 150 )" />
  </g>
</svg>