<?xml version="1.0" encoding="utf-8"?>
<svg version="1.1" xmlns:xlink="http://www.w3.org/1999/xlink" width="120px" height="120px" xmlns="http://www.w3.org/2000/svg">
  <g transform="matrix(1 0 0 1 -493 -672 )">
    <path d="M 84 44.49  L 75.51 36  L 60 51.51  L 44.49 36  L 36 44.49  L 51.51 60  L 36 75.51  L 44.49 84  L 60 68.49  L 75.51 84  L 84 75.51  L 68.49 60  L 84 44.49  Z M 120 60  C 120 26.85  93.15 0  60 0  C 26.85 0  0 26.85  0 60  C 0 93.15  26.85 120  60 120  C 93.15 120  120 93.15  120 60  Z M 108 60  C 108 86.46  86.46 108  60 108  C 33.54 108  12 86.46  12 60  C 12 33.54  33.54 12  60 12  C 86.46 12  108 33.54  108 60  Z " fill-rule="nonzero" fill="#ffffff" stroke="none" transform="matrix(1 0 0 1 493 672 )" />
  </g>
</svg>