<?xml version="1.0" encoding="utf-8"?>
<svg version="1.1" xmlns:xlink="http://www.w3.org/1999/xlink" width="18px" height="34px" xmlns="http://www.w3.org/2000/svg">
  <g transform="matrix(1 0 0 1 -28 -23 )">
    <path d="M 17.0779510022272 8.64302884615384  C 17.3318485523385 8.64302884615384  17.5590200445434 8.74519230769231  17.7594654788419 8.94951923076923  C 18 9.22195512820513  18.0467706013363 9.52163461538461  17.8997772828508 9.84855769230769  L 7.07572383073497 33.4891826923077  C 6.90200445434299 33.8297275641026  6.62138084632517 34  6.23385300668151 34  C 6.1804008908686 34  6.08685968819599 33.9863782051282  5.9532293986637 33.9591346153846  C 5.7260579064588 33.8910256410256  5.55567928730512 33.7616185897436  5.44209354120267 33.5709134615385  C 5.32850779510022 33.3802083333333  5.29844097995546 33.1758814102564  5.35189309576837 32.9579326923077  L 9.30066815144766 16.4483173076923  L 1.16258351893096 18.5120192307692  C 1.10913140311804 18.525641025641  1.02895322939866 18.5324519230769  0.922048997772828 18.5324519230769  C 0.681514476614699 18.5324519230769  0.474387527839644 18.457532051282  0.300668151447662 18.3076923076923  C 0.0601336302895323 18.1033653846154  -0.0267260579064588 17.8377403846154  0.0400890868596882 17.5108173076923  L 4.06904231625835 0.653846153846155  C 4.12249443207127 0.463141025641024  4.2293986636971 0.306490384615386  4.38975501113586 0.183894230769231  C 4.55011135857461 0.0612980769230758  4.73719376391982 0  4.95100222717149 0  L 11.5256124721604 0  C 11.7795100222717 0  11.9933184855234 0.0851362179487134  12.1670378619154 0.255408653846155  C 12.3407572383074 0.42568108974359  12.4276169265033 0.626602564102562  12.4276169265033 0.858173076923076  C 12.4276169265033 0.967147435897434  12.3942093541203 1.08974358974359  12.3273942093541 1.22596153846154  L 8.89977728285078 10.6862980769231  L 16.837416481069 8.68389423076923  C 16.9443207126949 8.65665064102564  17.0244988864143 8.64302884615384  17.0779510022272 8.64302884615384  Z " fill-rule="nonzero" fill="#000000" stroke="none" transform="matrix(1 0 0 1 28 23 )" />
  </g>
</svg>