<?xml version="1.0" encoding="utf-8"?>
<svg version="1.1" xmlns:xlink="http://www.w3.org/1999/xlink" width="60px" height="60px" xmlns="http://www.w3.org/2000/svg">
  <defs>
    <filter x="7px" y="9px" width="60px" height="60px" filterUnits="userSpaceOnUse" id="filter662">
      <feOffset dx="0" dy="0" in="SourceAlpha" result="shadowOffsetInner" />
      <feGaussianBlur stdDeviation="2.5" in="shadowOffsetInner" result="shadowGaussian" />
      <feComposite in2="shadowGaussian" operator="atop" in="SourceAlpha" result="shadowComposite" />
      <feColorMatrix type="matrix" values="0 0 0 0 0  0 0 0 0 0  0 0 0 0 0  0 0 0 0.349019607843137 0  " in="shadowComposite" />
    </filter>
    <g id="widget663">
      <path d="M 50 25  C 50 39  39 50  25 50  C 11 50  0 39  0 25  C 0 11  11 0  25 0  C 39 0  50 11  50 25  Z M 34.0779510022272 17.6430288461538  C 34.0244988864143 17.6430288461538  33.9443207126949 17.6566506410256  33.8374164810691 17.6838942307692  L 25.8997772828508 19.6862980769231  L 29.3273942093541 10.2259615384615  C 29.3942093541203 10.0897435897436  29.4276169265033 9.96714743589743  29.4276169265033 9.85817307692307  C 29.4276169265033 9.62660256410257  29.3407572383073 9.42568108974359  29.1670378619154 9.25540865384616  C 28.9933184855234 9.0851362179487  28.7795100222717 9  28.5256124721603 9  L 21.9510022271715 9  C 21.7371937639198 9  21.5501113585746 9.06129807692307  21.3897550111358 9.18389423076923  C 21.2293986636971 9.30649038461539  21.1224944320713 9.46314102564102  21.0690423162583 9.65384615384616  L 17.0400890868597 26.5108173076923  C 16.9732739420936 26.8377403846154  17.0601336302896 27.1033653846154  17.3006681514477 27.3076923076923  C 17.4743875278397 27.457532051282  17.6815144766147 27.5324519230769  17.9220489977728 27.5324519230769  C 18.0289532293987 27.5324519230769  18.1091314031181 27.525641025641  18.1625835189309 27.5120192307692  L 26.3006681514477 25.4483173076923  L 22.3518930957684 41.9579326923077  C 22.2984409799554 42.1758814102564  22.3285077951002 42.3802083333333  22.4420935412027 42.5709134615385  C 22.5556792873051 42.7616185897436  22.7260579064588 42.8910256410256  22.9532293986637 42.9591346153846  C 23.086859688196 42.9863782051282  23.1804008908686 43  23.2338530066815 43  C 23.6213808463252 43  23.902004454343 42.8297275641026  24.0757238307349 42.4891826923077  L 34.8997772828508 18.8485576923077  C 35.0467706013363 18.5216346153846  35 18.2219551282051  34.7594654788419 17.9495192307692  C 34.5590200445434 17.7451923076923  34.3318485523386 17.6430288461538  34.0779510022272 17.6430288461538  Z " fill-rule="nonzero" fill="#ffffff" stroke="none" transform="matrix(1 0 0 1 12 14 )" />
    </g>
  </defs>
  <g transform="matrix(1 0 0 1 -7 -9 )">
    <use xlink:href="#widget663" filter="url(#filter662)" />
    <use xlink:href="#widget663" />
  </g>
</svg>