<?xml version="1.0" encoding="utf-8"?>
<svg version="1.1" xmlns:xlink="http://www.w3.org/1999/xlink" width="257px" height="48px" xmlns="http://www.w3.org/2000/svg">
  <g transform="matrix(1 0 0 1 -645 -8 )">
    <path d="M 646 32  A 23 23 0 0 1 669 9 L 878 9  A 23 23 0 0 1 901 32 A 23 23 0 0 1 878 55 L 669 55  A 23 23 0 0 1 646 32 Z " fill-rule="nonzero" fill="#ffffff" stroke="none" fill-opacity="0.0980392156862745" />
    <path d="M 645.5 32  A 23.5 23.5 0 0 1 669 8.5 L 878 8.5  A 23.5 23.5 0 0 1 901.5 32 A 23.5 23.5 0 0 1 878 55.5 L 669 55.5  A 23.5 23.5 0 0 1 645.5 32 Z " stroke-width="1" stroke="#ffffff" fill="none" stroke-opacity="0.149019607843137" />
  </g>
</svg>