<?xml version="1.0" encoding="utf-8"?>
<svg version="1.1" xmlns:xlink="http://www.w3.org/1999/xlink" width="21px" height="21px" xmlns="http://www.w3.org/2000/svg">
  <g transform="matrix(1 0 0 1 -688 -117 )">
    <path d="M 698.5 118  C 703.82 118  708 122.18  708 127.5  C 708 132.82  703.82 137  698.5 137  C 693.18 137  689 132.82  689 127.5  C 689 122.18  693.18 118  698.5 118  Z " fill-rule="nonzero" fill="#ffffff" stroke="none" />
    <path d="M 698.5 118  C 703.82 118  708 122.18  708 127.5  C 708 132.82  703.82 137  698.5 137  C 693.18 137  689 132.82  689 127.5  C 689 122.18  693.18 118  698.5 118  Z " stroke-width="2" stroke="#797979" fill="none" />
  </g>
</svg>