<?xml version="1.0" encoding="utf-8"?>
<svg version="1.1" xmlns:xlink="http://www.w3.org/1999/xlink" width="43px" height="21px" xmlns="http://www.w3.org/2000/svg">
  <g transform="matrix(1 0 0 1 -688 -117 )">
    <path d="M 43 10.5  C 43 16.38  38.38 21  32.5 21  L 10.5 21  C 4.62 21  0 16.38  0 10.5  C 0 4.62  4.62 0  10.5 0  L 32.5 0  C 38.38 0  43 4.62  43 10.5  Z M 23 10.5  C 23 15.26  26.74 19  31.5 19  C 36.26 19  40 15.26  40 10.5  C 40 5.74000000000001  36.26 2  31.5 2  C 26.74 2  23 5.74000000000001  23 10.5  Z " fill-rule="nonzero" fill="#00bfbf" stroke="none" transform="matrix(1 0 0 1 688 117 )" />
  </g>
</svg>