<?xml version="1.0" encoding="utf-8"?>
<svg version="1.1" xmlns:xlink="http://www.w3.org/1999/xlink" width="134px" height="21px" xmlns="http://www.w3.org/2000/svg">
  <g transform="matrix(1 0 0 1 -787 -218 )">
    <path d="M 788 221  A 2 2 0 0 1 790 219 L 918 219  A 2 2 0 0 1 920 221 L 920 236  A 2 2 0 0 1 918 238 L 790 238  A 2 2 0 0 1 788 236 L 788 221  Z " fill-rule="nonzero" fill="#2962ff" stroke="none" fill-opacity="0.0980392156862745" />
    <path d="M 787.5 221  A 2.5 2.5 0 0 1 790 218.5 L 918 218.5  A 2.5 2.5 0 0 1 920.5 221 L 920.5 236  A 2.5 2.5 0 0 1 918 238.5 L 790 238.5  A 2.5 2.5 0 0 1 787.5 236 L 787.5 221  Z " stroke-width="1" stroke="#02a7f0" fill="none" stroke-opacity="0.498039215686275" />
  </g>
</svg>