<?xml version="1.0" encoding="utf-8"?>
<svg version="1.1" xmlns:xlink="http://www.w3.org/1999/xlink" width="16px" height="16px" xmlns="http://www.w3.org/2000/svg">
  <g transform="matrix(1 0 0 1 -18 -384 )">
    <path d="M 15.9238095238095 8  C 15.9238095238095 3.63093333333333  12.3690666666667 0.0761904761904764  8 0.0761904761904762  C 3.63093333333333 0.0761904761904762  0.0761904761904762 3.63093333333333  0.0761904761904762 8  C 0.0761904761904762 12.3690666666667  3.63093333333333 15.9238095238095  8 15.9238095238095  C 11.026486881626 15.9350559038464  13.7920475917532 14.2121077912671  15.1159873015873 11.4905396825397  C 15.1564200804095 11.4074476131681  15.1774308523103 11.3162499148243  15.1774308523103 11.2238426553922  C 15.1774308523103 10.8872119507335  14.9045377474453 10.6143188458684  14.5679070427865 10.6143188458684  C 14.3365219460672 10.6143188458684  14.1250886449886 10.7453343441458  14.0220952380952 10.9525333333333  C 12.9020094932942 13.2560943621989  10.5614237152469 14.7144593469823  8 14.7047619047619  C 4.30303492063492 14.7047619047619  1.2952380952381 11.6969650793651  1.2952380952381 8  C 1.2952380952381 4.30303492063492  4.30303492063492 1.2952380952381  8 1.2952380952381  C 11.6969650793651 1.2952380952381  14.7047619047619 4.30303492063492  14.7047619047619 8  C 14.7047619047619 8.33663070465877  14.9776550096269 8.60952380952381  15.3142857142857 8.60952380952381  C 15.6509164189445 8.60952380952381  15.9238095238095 8.33663070465877  15.9238095238095 8  Z " fill-rule="nonzero" fill="#438cff" stroke="none" transform="matrix(1 0 0 1 18 384 )" />
  </g>
</svg>