<?xml version="1.0" encoding="utf-8"?>
<svg version="1.1" xmlns:xlink="http://www.w3.org/1999/xlink" width="11px" height="7px" xmlns="http://www.w3.org/2000/svg">
  <g transform="matrix(1 0 0 1 -20 -389 )">
    <path d="M 10.3631525090221 0.0879619824172419  C 10.2041148837965 0.0879619824172419  10.05128246951 0.156888823664865  9.93683720930233 0.280228571428571  L 5.5 5.23565714285714  L 1.06398139534884 0.280228571428572  C 0.948805891984471 0.151590996242397  0.792594386818011 0.0793231590044111  0.629711627906976 0.0793231590044111  C 0.290525841188533 0.0793231590044111  0.0155614330620874 0.386426264184598  0.0155614330620874 0.765257142857144  C 0.0155614330620874 0.947178146316221  0.0802663571007506 1.12164813909954  0.195441860465116 1.25028571428571  L 5.06613953488372 6.69028571428571  C 5.30584134061496 6.9576716599383  5.69415865938504 6.9576716599383  5.93386046511628 6.69028571428571  L 10.8045581395349 1.25028571428571  C 10.9152373045499 1.12241928153311  10.9771059973942 0.951526383779051  10.9771059973942 0.773676268131527  C 10.9771059973942 0.394966725390412  10.7022296577555 0.0879619824172419  10.3631525090221 0.0879619824172419  Z " fill-rule="nonzero" fill="#438cff" stroke="none" transform="matrix(1 0 0 1 20 389 )" />
  </g>
</svg>