<?xml version="1.0" encoding="utf-8"?>
<svg version="1.1" xmlns:xlink="http://www.w3.org/1999/xlink" width="31px" height="31px" xmlns="http://www.w3.org/2000/svg">
  <defs>
    <radialGradient cx="15.3940774487473" cy="15.2118451025059" r="15.2928277946902" gradientTransform="matrix(0 1 -0.999999999999993 0 30.6059225512531 -0.182232346241349 )" gradientUnits="userSpaceOnUse" id="RadialGradient315">
      <stop id="Stop316" stop-color="#555555" offset="0" />
      <stop id="Stop317" stop-color="#aaaaaa" offset="1" />
    </radialGradient>
  </defs>
  <g transform="matrix(1 0 0 1 -370 -306 )">
    <path d="M 30.6416015625 15.541015625  C 30.6416015625 23.94921875  23.826171875 30.76806640625  15.41796875 30.76806640625  C 7.009765625 30.76806640625  0.194335937500002 23.95263671875  0.194335937500002 15.541015625  C 0.194335937500002 7.12939453125  7.009765625 0.3173828125  15.41796875 0.3173828125  C 23.826171875 0.3173828125  30.6416015625 7.1328125  30.6416015625 15.541015625  Z M 28.73779296875 15.541015625  C 28.73779296875 8.18212890625  22.7734375 2.22119140625  15.41796875 2.22119140625  C 8.0625 2.22119140625  2.09814453125 8.185546875  2.09814453125 15.54443359375  C 2.09814453125 22.9033203125  8.0625 28.8642578125  15.41796875 28.8642578125  C 22.7734375 28.8642578125  28.73779296875 22.89990234375  28.73779296875 15.541015625  Z M 22.076171875 15.541015625  C 22.07958984375 16.0673828125  21.65234375 16.49462890625  21.1259765625 16.49462890625  L 16.3681640625 16.49462890625  L 16.3681640625 21.25244140625  C 16.3681640625 21.77880859375  15.94091796875 22.20263671875  15.41796875 22.20263671875  C 14.8916015625 22.20263671875  14.4677734375 21.775390625  14.4677734375 21.25244140625  L 14.4677734375 16.49462890625  L 9.7099609375 16.49462890625  C 9.18359375 16.49462890625  8.759765625 16.0673828125  8.759765625 15.54443359375  C 8.759765625 15.01806640625  9.18701171875 14.59423828125  9.7099609375 14.59423828125  L 14.4677734375 14.59423828125  L 14.4677734375 9.8330078125  C 14.4677734375 9.306640625  14.89501953125 8.8828125  15.41796875 8.8828125  C 15.9443359375 8.8828125  16.3681640625 9.31005859375  16.3681640625 9.8330078125  L 16.3681640625 14.5908203125  L 21.1259765625 14.5908203125  C 21.65234375 14.5908203125  22.076171875 15.01806640625  22.076171875 15.541015625  Z " fill-rule="nonzero" fill="url(#RadialGradient315)" stroke="none" transform="matrix(1 0 0 1 370 306 )" />
  </g>
</svg>