<?xml version="1.0" encoding="utf-8"?>
<svg version="1.1" xmlns:xlink="http://www.w3.org/1999/xlink" width="146px" height="146px" xmlns="http://www.w3.org/2000/svg">
  <g transform="matrix(1 0 0 1 -1734 -400 )">
    <path d="M 1807 400  C 1847.88 400  1880 432.12  1880 473  C 1880 513.88  1847.88 546  1807 546  C 1766.12 546  1734 513.88  1734 473  C 1734 432.12  1766.12 400  1807 400  Z " fill-rule="nonzero" fill="#d7d7d7" stroke="none" />
    <path d="M 1807 400.5  C 1847.6 400.5  1879.5 432.4  1879.5 473  C 1879.5 513.6  1847.6 545.5  1807 545.5  C 1766.4 545.5  1734.5 513.6  1734.5 473  C 1734.5 432.4  1766.4 400.5  1807 400.5  Z " stroke-width="1" stroke="#797979" fill="none" />
  </g>
</svg>