<?xml version="1.0" encoding="utf-8"?>
<svg version="1.1" xmlns:xlink="http://www.w3.org/1999/xlink" width="20px" height="15px" xmlns="http://www.w3.org/2000/svg">
  <g transform="matrix(1 0 0 1 -251 -398 )">
    <path d="M 19.6676042794917 7.50000000000001  C 19.6676042794917 7.28961496938348  19.5823890039376 7.08784705925107  19.4307054227941 6.93908428485577  L 12.9405284926471 0.573743239182692  C 12.6246829044118 0.263946814903846  12.1125459558824 0.263946814903846  11.7967003676471 0.573743239182692  C 11.4808295036765 0.883539663461539  11.4808295036765 1.38580303485577  11.7967003676471 1.69559945913461  L 16.9352573529412 7  L 1.05302159926471 7  C 0.622424172794118 6.73533804086538  0.273366268382353 7.07770808293269  0.273366268382353 7.5  C 0.273366268382353 7.92231670673077  0.622449448529412 8.26466195913462  1.05302159926471 8  L 16.9352826286765 8  L 11.7967003676471 13.3044253305288  C 11.4808295036765 13.6141969651442  11.4808295036765 14.1164851262019  11.7967003676471 14.4262815504808  C 11.9546231617647 14.5811673677885  12.1616314338235 14.6586102764423  12.3686144301471 14.6586102764423  C 12.5755974264706 14.6586102764423  12.7826056985294 14.5811673677885  12.9405284926471 14.4262815504808  L 19.4307054227941 8.06091571514424  C 19.5823890039376 7.91215294074893  19.6676042794917 7.71038503061653  19.6676042794917 7.50000000000001  Z " fill-rule="nonzero" fill="#000000" stroke="none" transform="matrix(1 0 0 1 251 398 )" />
  </g>
</svg>