<?xml version="1.0" encoding="utf-8"?>
<svg version="1.1" xmlns:xlink="http://www.w3.org/1999/xlink" width="27px" height="27px" xmlns="http://www.w3.org/2000/svg">
  <g transform="matrix(1 0 0 1 -2126 -1740 )">
    <path d="M 18.53701171875 25.423828125  C 16.93857421875 26.1005859375  15.24345703125 26.4421875  13.4935546875 26.4421875  C 11.746875 26.4421875  10.04853515625 26.1005859375  8.4533203125 25.423828125  C 6.90966796875 24.7728515625  5.5271484375 23.83828125  4.33798828125 22.64912109375  C 3.148828125 21.4599609375  2.2142578125 20.07421875  1.56328125 18.5337890625  C 0.8865234375 16.9353515625  0.544921875 15.240234375  0.544921875 13.4935546875  C 0.544921875 11.746875  0.8865234375 10.04853515625  1.56328125 8.4533203125  C 2.2142578125 6.90966796875  3.148828125 5.5271484375  4.33798828125 4.33798828125  C 5.5271484375 3.148828125  6.912890625 2.2142578125  8.4533203125 1.56328125  C 10.0517578125 0.8865234375  11.746875 0.544921875  13.4935546875 0.544921875  C 15.240234375 0.544921875  16.93857421875 0.8865234375  18.5337890625 1.56328125  C 20.07744140625 2.2142578125  21.4599609375 3.148828125  22.64912109375 4.33798828125  C 23.83828125 5.5271484375  24.7728515625 6.912890625  25.423828125 8.4533203125  C 26.1005859375 10.0517578125  26.4421875 11.746875  26.4421875 13.4935546875  C 26.4421875 15.240234375  26.1005859375 16.93857421875  25.42705078125 18.5337890625  C 24.77607421875 20.07744140625  23.84150390625 21.4599609375  22.65234375 22.64912109375  C 21.46318359375 23.83828125  20.07744140625 24.7728515625  18.53701171875 25.423828125  Z M 25.28203125 13.4935546875  C 25.28203125 6.99345703125  19.99365234375 1.705078125  13.4935546875 1.705078125  C 6.99345703125 1.705078125  1.705078125 6.99345703125  1.705078125 13.4935546875  C 1.705078125 19.99365234375  6.99345703125 25.28203125  13.4935546875 25.28203125  C 19.99365234375 25.28203125  25.28203125 19.99365234375  25.28203125 13.4935546875  Z M 21.2537109375 13.5  C 21.2537109375 13.81904296875  20.99267578125 14.080078125  20.6736328125 14  L 6.3263671875 14  C 6.00732421875 14.080078125  5.7462890625 13.81904296875  5.7462890625 13.5  C 5.7462890625 13.18095703125  6.00732421875 12.919921875  6.3263671875 13  L 20.6736328125 13  C 20.99267578125 12.919921875  21.2537109375 13.18095703125  21.2537109375 13.5  Z " fill-rule="nonzero" fill="#aaaaaa" stroke="none" transform="matrix(1 0 0 1 2126 1740 )" />
  </g>
</svg>