<?xml version="1.0" encoding="utf-8"?>
<svg version="1.1" xmlns:xlink="http://www.w3.org/1999/xlink" width="27px" height="10px" preserveAspectRatio="xMinYMid meet" viewBox="583 349  27 8" xmlns="http://www.w3.org/2000/svg">
  <path d="M 583 353.5  L 600 353.5  A 5 5 0 0 1 605.5 358 L 605.5 847  A 3 3 0 0 1 608.5 850 A 3 3 0 0 1 605.5 853 L 605.5 1287.14084507042  A 3 3 0 0 1 608.5 1290.14084507042 A 3 3 0 0 1 605.5 1293.14084507042 L 605.5 1579  A 5 5 0 0 1 600.5 1584.5 L 537 1584.5  " stroke-width="1" stroke-dasharray="9,4" stroke="#0099cc" fill="none" />
  <path d="M 537 1577  L 526 1584.5  L 537 1592  L 537 1577  Z " fill-rule="nonzero" fill="#0099cc" stroke="none" />
</svg>