<?xml version="1.0" encoding="utf-8"?>
<svg version="1.1" xmlns:xlink="http://www.w3.org/1999/xlink" width="22px" height="20px" xmlns="http://www.w3.org/2000/svg">
  <g transform="matrix(1 0 0 1 -149 -217 )">
    <path d="M 21.9053272058824 11.4609523809524  C 21.9052867647059 11.4609523809524  18.9041470588235 18.4177777777778  9.09133823529412 15.0509920634921  L 9.85005514705882 13.3386904761905  C 9.85005514705882 13.3386904761905  10.5160404411765 11.6511904761905  8.20616176470588 12.0565079365079  L 1.72331985294118 13.6612698412698  C 1.72331985294118 13.6612698412698  1.13639705882353 13.8259523809524  0.876481617647059 14.2507142857143  C 1.08945088848491 14.2345062001106  1.30297572495365 14.2263255746497  1.51658455882353 14.2261904761905  C 5.17820955882353 14.2261904761905  8.20430147058824 16.5660317460317  8.68769485294117 19.6030952380952  C 11.9967941176471 20.3055555555556  19.9067647058824 20.9221031746032  21.9053272058824 11.4609523809524  Z M 0.0962904411764718 9.57488095238095  C 0.0962904411764718 9.57488095238095  3.27448161764706 2.86623015873016  12.9692022058824 6.36531746031746  L 12.1768382352941 8.01976190476191  C 12.1768382352941 8.01976190476191  11.4602610294118 9.64107142857143  13.7785514705882 9.30194444444444  L 20.2782573529412 7.88742063492063  C 20.2782573529412 7.88742063492063  21.7620036764706 7.51515873015873  21.1044301470588 6.32396825396825  L 17.5637242647059 0.516984126984126  C 17.5637242647059 0.516984126984126  16.4593161764706 -0.442579365079367  15.7259558823529 0.698968253968253  L 14.9419632352941 2.35337301587301  C 14.9334705882353 2.35337301587301  2.94573529411765 -2.11357142857143  0.0962904411764718 9.57488095238095  Z " fill-rule="nonzero" fill="#ffffff" stroke="none" transform="matrix(1 0 0 1 149 217 )" />
  </g>
</svg>