<?xml version="1.0" encoding="utf-8"?>
<svg version="1.1" xmlns:xlink="http://www.w3.org/1999/xlink" width="12px" height="12px" viewBox="633 362  12 12" xmlns="http://www.w3.org/2000/svg">
  <path d="M 639 362  C 642.36 362  645 364.64  645 368  C 645 371.36  642.36 374  639 374  C 635.64 374  633 371.36  633 368  C 633 364.64  635.64 362  639 362  Z " fill-rule="nonzero" fill="#ffffff" stroke="none" />
  <path d="M 639 362.5  C 642.08 362.5  644.5 364.92  644.5 368  C 644.5 371.08  642.08 373.5  639 373.5  C 635.92 373.5  633.5 371.08  633.5 368  C 633.5 364.92  635.92 362.5  639 362.5  Z " stroke-width="1" stroke="#797979" fill="none" />
  <path d="M 639 371  C 637.32 371  636 369.68  636 368  C 636 366.32  637.32 365  639 365  C 640.68 365  642 366.32  642 368  C 642 369.68  640.68 371  639 371  " fill-rule="nonzero" fill="#797979" stroke="none" />
</svg>