<?xml version="1.0" encoding="utf-8"?>
<svg version="1.1" xmlns:xlink="http://www.w3.org/1999/xlink" width="48px" height="51px" xmlns="http://www.w3.org/2000/svg">
  <g transform="matrix(1 0 0 1 -908 -288 )">
    <path d="M 31.8483391967213 6.63175860351562  C 31.8483391967213 10.2879310224609  28.911792 13.2626379052734  25.3014539508197 13.2626379550781  C 21.6911159016393 13.2626379550781  18.752832147541 10.2879310722656  18.7528320983607 6.63175860351562  C 18.7528320983607 2.97646553613281  21.6911159016393 0  25.3014539508197 0  C 28.911792 0  31.8483391967213 2.9747068828125  31.8483391967213 6.63175860351562  Z M 17.3418654590164 12.4703793017578  C 17.3418654590164 15.81  14.6588580983607 18.5288275810547  11.3611034262295 18.5288275810547  C 8.06334875409836 18.5288275810547  5.3794731147541 15.8117586035156  5.37947316393442 12.4703793017578  C 5.37947321311475 9.129  8.06334880327869 6.41193102246094  11.3611034262295 6.41193102246094  C 14.6630792516515 6.41629279158061  17.3385169832201 9.12648273599392  17.3418654590164 12.4703793017578  Z M 5.43678009836066 32.2328793017578  C 2.52421766856856 32.2299689310143  0.164239540886795 29.8388497217554  0.162803852459017 26.8893103242188  C 0.165675673066118 23.9408010595238  2.52523382348344 21.551287581025  5.43678009836066 21.5483793017578  C 8.34798728363475 21.5517721346273  10.7070170905809 23.9411439353128  10.7098880655738 26.8893103242188  C 10.7079742986598 29.838163463147  8.34866463633279 32.2286055806346  5.43678009836066 32.232  Z M 15.8327823442623 41.2792241396484  C 15.8327823442623 43.7764655361328  13.827039 45.8094310224609  11.3611034262295 45.8094310224609  C 8.89183537330287 45.8065228104015  6.89094865846628 43.7798408395716  6.8885562295082 41.2792241396484  C 6.89190315523128 38.7794940529709  8.89184277854384 36.7537713071395  11.360235147541 36.7498965585937  C 13.8289666070985 36.7532871435691  15.8294342642095 38.7791513627332  15.8327823442623 41.2792241396484  Z M 25.3014539508197 51  C 23.1443097040628 50.9980607716456  21.3960766063982 49.2276333084833  21.3941616885246 47.0431034414063  C 21.3941616885246 44.8606551621094  23.1472334754098 43.0862068828125  25.3014539508197 43.0862068828125  C 27.4582590867388 43.0886307739066  29.2059637462579 44.858916505505  29.2078778852459 47.0431034414063  C 29.2078778852459 49.2255517207031  27.4556743770492 51  25.3005856229508 51  Z M 42.6064171967213 41.1183103242187  C 42.6045030826287 42.8813138327776  41.1937004240437 44.3100270942698  39.4527982131148 44.3119655361328  C 37.7118959829797 44.3100271217121  36.3010932944714 42.8813138521973  36.2991791803279 41.1183103242187  C 36.3010933215696 39.3553068156901  37.711896002156 37.9265935764785  39.4527982131148 37.9246551621094  C 41.1937004048674 37.9265936039208  42.6045030555305 39.3553068351098  42.6064171967213 41.1183103242187  Z M 47.8369790655738 26.9139310224609  C 47.8345890236542 28.3605893986215  46.6771378487835 29.5327347778608  45.2486150163935 29.5351551621094  C 43.8203738194542 29.5332176115352  42.6630325290618 28.3611834895153  42.661119295082 26.9148103242187  C 42.6625542394608 25.468093782218  43.8200353092214 24.295524762585  45.2486150163935 24.2935861845703  C 46.6769973844045 24.2955225477528  47.8345877392237 25.4674156250048  47.8369790655738 26.9139310224609  Z M 37.4453182153616 12.6669051870117  C 37.4453182153616 13.7899238745217  38.3442919845611 14.7003103966505  39.4532323278689 14.7003103966505  C 40.5620031330111 14.7003103966505  41.46090666156 13.7901918086493  41.4611463934426 12.6673448378906  C 41.4611463934426 11.5443261766304  40.562172645256 10.6339396757812  39.4532323278689 10.6339396757812  C 38.3442920104817 10.6339396757812  37.4453182622951 11.5443261766304  37.4453182622951 12.6673448378906  Z " fill-rule="nonzero" fill="#000000" stroke="none" transform="matrix(1 0 0 1 908 288 )" />
  </g>
</svg>