<?xml version="1.0" encoding="utf-8"?>
<svg version="1.1" xmlns:xlink="http://www.w3.org/1999/xlink" width="32px" height="32px" preserveAspectRatio="xMinYMid meet" viewBox="305 305  32 30" xmlns="http://www.w3.org/2000/svg">
  <defs>
    <mask fill="white" id="clip800">
      <path d="M 417 454  L 515 454  L 515 494  L 417 494  Z M 304 304  L 760 304  L 760 494  L 304 494  Z " fill-rule="evenodd" />
    </mask>
  </defs>
  <path d="M 760 481.5  L 636 481.5  A 3 3 0 0 0 633 478.5 A 3 3 0 0 0 630 481.5 L 471 481.5  A 5 5 0 0 1 466.5 476.5 L 466.5 325  A 5 5 0 0 0 461.5 320.5 L 321 320.5  " stroke-width="1" stroke-dasharray="9,4" stroke="#02a7f0" fill="none" mask="url(#clip800)" />
  <path d="M 326.7 314.5  L 320 320.5  L 326.7 326.5  L 324.4 320.5  L 326.7 314.5  Z " fill-rule="nonzero" fill="#02a7f0" stroke="none" mask="url(#clip800)" />
</svg>