<?xml version="1.0" encoding="utf-8"?>
<svg version="1.1" xmlns:xlink="http://www.w3.org/1999/xlink" width="16px" height="16px" xmlns="http://www.w3.org/2000/svg">
  <g transform="matrix(1 0 0 1 -889 -696 )">
    <path d="M 897 697  C 900.92 697  904 700.08  904 704  C 904 707.92  900.92 711  897 711  C 893.08 711  890 707.92  890 704  C 890 700.08  893.08 697  897 697  Z " fill-rule="nonzero" fill="#02a7f0" stroke="none" />
    <path d="M 897 697  C 900.92 697  904 700.08  904 704  C 904 707.92  900.92 711  897 711  C 893.08 711  890 707.92  890 704  C 890 700.08  893.08 697  897 697  Z " stroke-width="2" stroke="#797979" fill="none" />
  </g>
</svg>