<?xml version="1.0" encoding="utf-8"?>
<svg version="1.1" xmlns:xlink="http://www.w3.org/1999/xlink" width="17px" height="11px" xmlns="http://www.w3.org/2000/svg">
  <g transform="matrix(1 0 0 1 -2852 -1742 )">
    <path d="M 17 5.52820512820513  C 17 5.52820512820513  13.8193548387097 0  8.55483870967742 0  C 3.29032258064516 0  0.109677419354839 5.52820512820513  0.109677419354839 5.52820512820513  C 0.109677419354839 5.52820512820513  3.78387096774194 10.8871794871795  8.55483870967742 10.8871794871795  C 13.3258064516129 10.8871794871795  17 5.52820512820513  17 5.52820512820513  Z M 15.6838709677419 5.81025641025641  C 15.1903225806452 6.37435897435897  14.641935483871 6.99487179487179  13.9838709677419 7.55897435897436  C 12.2290322580645 9.08205128205128  10.3645161290323 10.0410256410256  8.5 10.0410256410256  C 6.63548387096774 10.0410256410256  4.77096774193548 9.13846153846154  3.01612903225806 7.55897435897436  C 2.41290322580645 6.99487179487179  1.80967741935484 6.43076923076923  1.31612903225806 5.81025641025641  C 1.20645161290323 5.6974358974359  1.15161290322581 5.58461538461538  1.04193548387097 5.47179487179487  C 1.09677419354839 5.35897435897436  1.20645161290323 5.24615384615384  1.26129032258065 5.13333333333333  C 1.7 4.51282051282051  2.24838709677419 3.89230769230769  2.85161290322581 3.32820512820513  C 4.55161290322581 1.74871794871795  6.41612903225806 0.789743589743587  8.5 0.789743589743587  C 10.5838709677419 0.789743589743587  12.4483870967742 1.74871794871795  14.1483870967742 3.32820512820513  C 14.7516129032258 3.89230769230769  15.2451612903226 4.51282051282051  15.7387096774194 5.13333333333333  C 15.7935483870968 5.24615384615384  15.9032258064516 5.35897435897436  15.958064516129 5.47179487179487  C 15.9032258064516 5.58461538461538  15.7935483870968 5.69743589743589  15.6838709677419 5.81025641025641  Z " fill-rule="nonzero" fill="#000000" stroke="none" transform="matrix(1 0 0 1 2852 1742 )" />
  </g>
</svg>