<?xml version="1.0" encoding="utf-8"?>
<svg version="1.1" xmlns:xlink="http://www.w3.org/1999/xlink" width="48px" height="48px" xmlns="http://www.w3.org/2000/svg">
  <g transform="matrix(1 0 0 1 -132 -272 )">
    <path d="M 11.8388888888889 26.0777777777778  C 12.95 26.0777777777778  13.85 25.1777777777778  13.85 24.0666666666667  C 13.85 22.9555555555556  12.95 22.0555555555556  11.8388888888889 22.0555555555556  L 2.31111111111111 22.0555555555556  C 1.2 22.0555555555556  0.299999999999999 22.9555555555556  0.299999999999999 24.0666666666667  C 0.299999999999999 25.1777777777778  1.2 26.0777777777778  2.31111111111111 26.0777777777778  L 11.8388888888889 26.0777777777778  Z M 47.7 24.0666666666667  C 47.7055555555556 22.9555555555556  46.8 22.0555555555556  45.6888888888889 22.0555555555556  L 36.1611111111111 22.0555555555556  C 35.05 22.0555555555556  34.15 22.9555555555556  34.15 24.0666666666667  C 34.15 25.1777777777778  35.05 26.0777777777778  36.1611111111111 26.0777777777778  L 45.6888888888889 26.0777777777778  C 46.8 26.0777777777778  47.7 25.1777777777778  47.7 24.0666666666667  Z M 26.0333333333333 36.8166666666667  C 26.0333333333333 35.7055555555556  25.1333333333333 34.8  24.0222222222222 34.8  C 22.9111111111111 34.8  22.0111111111111 35.7  22.0111111111111 36.8111111111111  L 22.0111111111111 45.6666666666667  C 22.0111111111111 46.7777777777778  22.9111111111111 47.6777777777778  24.0222222222222 47.6777777777778  C 25.1333333333333 47.6777777777778  26.0333333333333 46.7777777777778  26.0333333333333 45.6666666666667  L 26.0333333333333 36.8166666666667  Z M 26.0333333333333 2.32777777777778  C 26.0333333333333 1.21666666666667  25.1333333333333 0.316666666666667  24.0222222222222 0.316666666666667  C 22.9111111111111 0.316666666666667  22.0111111111111 1.21666666666667  22.0111111111111 2.32777777777778  L 22.0111111111111 11.8555555555556  C 22.0111111111111 12.9666666666667  22.9111111111111 13.8666666666667  24.0222222222222 13.8666666666667  C 25.1333333333333 13.8666666666667  26.0333333333333 12.9666666666667  26.0333333333333 11.8555555555556  L 26.0333333333333 2.32777777777778  Z M 16.7833333333333 31.1388888888889  C 15.9944444444444 30.3555555555556  14.7222222222222 30.3555555555556  13.9333333333333 31.1444444444444  L 7.2 37.8777777777778  C 6.41666666666667 38.6611111111111  6.41666666666667 39.9388888888889  7.2 40.7222222222222  C 7.59444444444444 41.1166666666667  8.10555555555556 41.3111111111111  8.62222222222222 41.3111111111111  C 9.13888888888889 41.3111111111111  9.65 41.1166666666667  10.0444444444444 40.7222222222222  L 16.7833333333333 33.9833333333333  C 17.5666666666667 33.2  17.5666666666667 31.9222222222222  16.7833333333333 31.1388888888889  Z M 31.1 16.8166666666667  C 31.4944444444444 17.2111111111111  32.0055555555556 17.4111111111111  32.5222222222222 17.4111111111111  C 33.0388888888889 17.4111111111111  33.55 17.2166666666667  33.9444444444444 16.8222222222222  L 40.6833333333333 10.0833333333333  C 41.4666666666667 9.3  41.4666666666667 8.02222222222222  40.6833333333333 7.23888888888889  C 39.9 6.45555555555555  38.6222222222222 6.45555555555555  37.8388888888889 7.23888888888889  L 31.1 13.9722222222222  C 30.3166666666667 14.7555555555556  30.3166666666667 16.0333333333333  31.1 16.8166666666667  Z M 40.7333333333333 37.8777777777778  L 34.4722222222222 31.6111111111111  C 33.6888888888889 30.8277777777778  32.4111111111111 30.8277777777778  31.6277777777778 31.6111111111111  C 30.8444444444444 32.3944444444444  30.8444444444444 33.6722222222222  31.6277777777778 34.4555555555556  L 37.8888888888889 40.7222222222222  C 38.2833333333333 41.1166666666667  38.7944444444444 41.3111111111111  39.3111111111111 41.3111111111111  C 39.8277777777778 41.3111111111111  40.3388888888889 41.1166666666667  40.7333333333333 40.7222222222222  C 41.5166666666667 39.9388888888889  41.5166666666667 38.6611111111111  40.7333333333333 37.8777777777778  Z M 16.7833333333333 14.0333333333333  L 10.0444444444444 7.29444444444444  C 9.26111111111111 6.51111111111111  7.98333333333333 6.51111111111111  7.2 7.29444444444444  C 6.41666666666667 8.07777777777778  6.41666666666667 9.35555555555556  7.2 10.1388888888889  L 13.9388888888889 16.8777777777778  C 14.3333333333333 17.2722222222222  14.8444444444444 17.4666666666667  15.3611111111111 17.4666666666667  C 15.8777777777778 17.4666666666667  16.3888888888889 17.2722222222222  16.7833333333333 16.8777777777778  C 17.5666666666667 16.0944444444444  17.5666666666667 14.8166666666667  16.7833333333333 14.0333333333333  Z " fill-rule="nonzero" fill="#69e147" stroke="none" transform="matrix(1 0 0 1 132 272 )" />
  </g>
</svg>