<?xml version="1.0" encoding="utf-8"?>
<svg version="1.1" xmlns:xlink="http://www.w3.org/1999/xlink" width="48px" height="50px" xmlns="http://www.w3.org/2000/svg">
  <g transform="matrix(1 0 0 1 -548 -270 )">
    <path d="M 36.8961818181818 0.782894736842104  C 36.9703636363636 0.654057017543859  37.0838181818182 0.552631578947367  37.2201818181818 0.493969298245614  C 37.5676363636364 0.34484649122807  37.9696363636364 0.507127192982456  38.1185454545455 0.856359649122807  L 41.7027272727273 9.2905701754386  C 41.7283636363636 9.35032894736842  41.7452727272727 9.41392543859649  41.7529090909091 9.47861842105263  C 41.7981818181818 9.85581140350877  41.5303636363636 10.1984649122807  41.1550909090909 10.2439692982456  L 32.0956363636364 11.3410087719298  C 31.9483636363636 11.3585526315789  31.8 11.328399122807  31.6718181818182 11.2538377192982  C 31.3445454545455 11.0641447368421  31.2321818181818 10.6430921052632  31.4214545454545 10.3141447368421  L 33.2852727272727 7.06359649122807  C 23.6296363636364 2.14857456140351  11.7229090909091 5.62828947368421  6.24545454545455 15.1639254385965  C 0.576 25.0339912280702  3.94036363636364 37.6551535087719  13.7601818181818 43.3536184210526  C 23.58 49.0520833333333  36.1363636363636 45.6705043859649  41.8058181818182 35.8004385964912  C 43.3914545454546 33.0400219298246  44.3018181818182 30.0104166666667  44.5129090909091 26.9024122807018  C 44.5772727272727 25.9550438596491  45.3932727272727 25.2390350877193  46.3363636363636 25.3037280701754  C 47.2789090909091 25.3684210526316  47.9912727272727 26.1885964912281  47.9269090909091 27.1365131578947  C 47.6809090909091 30.764802631579  46.6172727272727 34.3026315789474  44.7692727272727 37.5202850877193  C 38.1550909090909 49.0350877192982  23.5058181818182 52.9808114035088  12.0490909090909 46.3322368421053  C 0.592363636363634 39.6836622807018  -3.33272727272727 24.9599780701754  3.282 13.4446271929825  C 9.70527272727273 2.26260964912281  23.7043636363636 -1.78125  34.9996363636364 4.08168859649123  L 36.8961818181818 0.782894736842104  Z " fill-rule="nonzero" fill="#d9001b" stroke="none" transform="matrix(1 0 0 1 548 270 )" />
  </g>
</svg>