<?xml version="1.0" encoding="utf-8"?>
<svg version="1.1" xmlns:xlink="http://www.w3.org/1999/xlink" width="304px" height="213px" xmlns="http://www.w3.org/2000/svg">
  <defs>
    <filter x="1272px" y="117px" width="304px" height="213px" filterUnits="userSpaceOnUse" id="filter385">
      <feOffset dx="5" dy="5" in="SourceAlpha" result="shadowOffsetInner" />
      <feGaussianBlur stdDeviation="2.5" in="shadowOffsetInner" result="shadowGaussian" />
      <feComposite in2="shadowGaussian" operator="atop" in="SourceAlpha" result="shadowComposite" />
      <feColorMatrix type="matrix" values="0 0 0 0 0.666666666666667  0 0 0 0 0.666666666666667  0 0 0 0 0.666666666666667  0 0 0 0.349019607843137 0  " in="shadowComposite" />
    </filter>
    <g id="widget386">
      <path d="M 1273 128  A 10 10 0 0 1 1283 118 L 1555 118  A 10 10 0 0 1 1565 128 L 1565 309  A 10 10 0 0 1 1555 319 L 1283 319  A 10 10 0 0 1 1273 309 L 1273 128  Z " fill-rule="nonzero" fill="#ffffff" stroke="none" />
      <path d="M 1272.5 128  A 10.5 10.5 0 0 1 1283 117.5 L 1555 117.5  A 10.5 10.5 0 0 1 1565.5 128 L 1565.5 309  A 10.5 10.5 0 0 1 1555 319.5 L 1283 319.5  A 10.5 10.5 0 0 1 1272.5 309 L 1272.5 128  Z " stroke-width="1" stroke="#d7d7d7" fill="none" stroke-opacity="0.658823529411765" />
    </g>
  </defs>
  <g transform="matrix(1 0 0 1 -1272 -117 )">
    <use xlink:href="#widget386" filter="url(#filter385)" />
    <use xlink:href="#widget386" />
  </g>
</svg>