<?xml version="1.0" encoding="utf-8"?>
<svg version="1.1" xmlns:xlink="http://www.w3.org/1999/xlink" width="269px" height="294px" xmlns="http://www.w3.org/2000/svg">
  <defs>
    <filter x="1609px" y="356px" width="269px" height="294px" filterUnits="userSpaceOnUse" id="filter388">
      <feOffset dx="0" dy="0" in="SourceAlpha" result="shadowOffsetInner" />
      <feGaussianBlur stdDeviation="5" in="shadowOffsetInner" result="shadowGaussian" />
      <feComposite in2="shadowGaussian" operator="atop" in="SourceAlpha" result="shadowComposite" />
      <feColorMatrix type="matrix" values="0 0 0 0 0.666666666666667  0 0 0 0 0.666666666666667  0 0 0 0 0.666666666666667  0 0 0 0.349019607843137 0  " in="shadowComposite" />
    </filter>
    <g id="widget389">
      <path d="M 1620 377  A 10 10 0 0 1 1630 367 L 1857 367  A 10 10 0 0 1 1867 377 L 1867 629  A 10 10 0 0 1 1857 639 L 1630 639  A 10 10 0 0 1 1620 629 L 1620 377  Z " fill-rule="nonzero" fill="#ffffff" stroke="none" />
      <path d="M 1619.5 377  A 10.5 10.5 0 0 1 1630 366.5 L 1857 366.5  A 10.5 10.5 0 0 1 1867.5 377 L 1867.5 629  A 10.5 10.5 0 0 1 1857 639.5 L 1630 639.5  A 10.5 10.5 0 0 1 1619.5 629 L 1619.5 377  Z " stroke-width="1" stroke="#f2f2f2" fill="none" stroke-opacity="0.658823529411765" />
    </g>
  </defs>
  <g transform="matrix(1 0 0 1 -1609 -356 )">
    <use xlink:href="#widget389" filter="url(#filter388)" />
    <use xlink:href="#widget389" />
  </g>
</svg>