<?xml version="1.0" encoding="utf-8"?>
<svg version="1.1" xmlns:xlink="http://www.w3.org/1999/xlink" width="20px" height="20px" viewBox="1542 396  20 20" xmlns="http://www.w3.org/2000/svg">
  <path d="M 1552 396  C 1557.6 396  1562 400.4  1562 406  C 1562 411.6  1557.6 416  1552 416  C 1546.4 416  1542 411.6  1542 406  C 1542 400.4  1546.4 396  1552 396  Z " fill-rule="nonzero" fill="#f0f0f0" stroke="none" />
  <path d="M 1552 396.5  C 1557.32 396.5  1561.5 400.68  1561.5 406  C 1561.5 411.32  1557.32 415.5  1552 415.5  C 1546.68 415.5  1542.5 411.32  1542.5 406  C 1542.5 400.68  1546.68 396.5  1552 396.5  Z " stroke-width="1" stroke="#04f21c" fill="none" />
  <path d="M 1552 411  C 1549.2 411  1547 408.8  1547 406  C 1547 403.2  1549.2 401  1552 401  C 1554.8 401  1557 403.2  1557 406  C 1557 408.8  1554.8 411  1552 411  " fill-rule="nonzero" fill="#04f21c" stroke="none" />
</svg>