<?xml version="1.0" encoding="utf-8"?>
<svg version="1.1" xmlns:xlink="http://www.w3.org/1999/xlink" width="20px" height="20px" viewBox="1542 438  20 20" xmlns="http://www.w3.org/2000/svg">
  <path d="M 1552 438  C 1557.6 438  1562 442.4  1562 448  C 1562 453.6  1557.6 458  1552 458  C 1546.4 458  1542 453.6  1542 448  C 1542 442.4  1546.4 438  1552 438  Z " fill-rule="nonzero" fill="#ffffff" stroke="none" />
  <path d="M 1552 438.5  C 1557.32 438.5  1561.5 442.68  1561.5 448  C 1561.5 453.32  1557.32 457.5  1552 457.5  C 1546.68 457.5  1542.5 453.32  1542.5 448  C 1542.5 442.68  1546.68 438.5  1552 438.5  Z " stroke-width="1" stroke="#797979" fill="none" />
  <path d="M 1552 453  C 1549.2 453  1547 450.8  1547 448  C 1547 445.2  1549.2 443  1552 443  C 1554.8 443  1557 445.2  1557 448  C 1557 450.8  1554.8 453  1552 453  " fill-rule="nonzero" fill="#797979" stroke="none" />
</svg>