<?xml version="1.0" encoding="utf-8"?>
<svg version="1.1" xmlns:xlink="http://www.w3.org/1999/xlink" width="35px" height="35px" xmlns="http://www.w3.org/2000/svg">
  <defs>
    <filter x="1523px" y="148px" width="35px" height="35px" filterUnits="userSpaceOnUse" id="filter396">
      <feOffset dx="0" dy="5" in="SourceAlpha" result="shadowOffsetInner" />
      <feGaussianBlur stdDeviation="2.5" in="shadowOffsetInner" result="shadowGaussian" />
      <feComposite in2="shadowGaussian" operator="atop" in="SourceAlpha" result="shadowComposite" />
      <feColorMatrix type="matrix" values="0 0 0 0 0  0 0 0 0 0  0 0 0 0 0  0 0 0 0.349019607843137 0  " in="shadowComposite" />
    </filter>
    <g id="widget397">
      <path d="M 1540.5 148  C 1547.5 148  1553 153.5  1553 160.5  C 1553 167.5  1547.5 173  1540.5 173  C 1533.5 173  1528 167.5  1528 160.5  C 1528 153.5  1533.5 148  1540.5 148  Z " fill-rule="nonzero" fill="#ffffff" stroke="none" />
      <path d="M 1540.5 148.5  C 1547.22 148.5  1552.5 153.78  1552.5 160.5  C 1552.5 167.22  1547.22 172.5  1540.5 172.5  C 1533.78 172.5  1528.5 167.22  1528.5 160.5  C 1528.5 153.78  1533.78 148.5  1540.5 148.5  Z " stroke-width="1" stroke="#797979" fill="none" />
    </g>
  </defs>
  <g transform="matrix(1 0 0 1 -1523 -148 )">
    <use xlink:href="#widget397" filter="url(#filter396)" />
    <use xlink:href="#widget397" />
  </g>
</svg>