<?xml version="1.0" encoding="utf-8"?>
<svg version="1.1" xmlns:xlink="http://www.w3.org/1999/xlink" width="54px" height="54px" xmlns="http://www.w3.org/2000/svg">
  <defs>
    <filter x="1490px" y="129px" width="54px" height="54px" filterUnits="userSpaceOnUse" id="filter394">
      <feOffset dx="0" dy="5" in="SourceAlpha" result="shadowOffsetInner" />
      <feGaussianBlur stdDeviation="2.5" in="shadowOffsetInner" result="shadowGaussian" />
      <feComposite in2="shadowGaussian" operator="atop" in="SourceAlpha" result="shadowComposite" />
      <feColorMatrix type="matrix" values="0 0 0 0 0  0 0 0 0 0  0 0 0 0 0  0 0 0 0.349019607843137 0  " in="shadowComposite" />
    </filter>
    <g id="widget395">
      <path d="M 1517 129  C 1529.32 129  1539 138.68  1539 151  C 1539 163.32  1529.32 173  1517 173  C 1504.68 173  1495 163.32  1495 151  C 1495 138.68  1504.68 129  1517 129  Z " fill-rule="nonzero" fill="#ffffff" stroke="none" />
      <path d="M 1517 129.5  C 1529.04 129.5  1538.5 138.96  1538.5 151  C 1538.5 163.04  1529.04 172.5  1517 172.5  C 1504.96 172.5  1495.5 163.04  1495.5 151  C 1495.5 138.96  1504.96 129.5  1517 129.5  Z " stroke-width="1" stroke="#797979" fill="none" />
    </g>
  </defs>
  <g transform="matrix(1 0 0 1 -1490 -129 )">
    <use xlink:href="#widget395" filter="url(#filter394)" />
    <use xlink:href="#widget395" />
  </g>
</svg>