<?xml version="1.0" encoding="utf-8"?>
<svg version="1.1" xmlns:xlink="http://www.w3.org/1999/xlink" width="62px" height="26px" xmlns="http://www.w3.org/2000/svg">
  <g transform="matrix(1 0 0 1 -516 -219 )">
    <path d="M 61 5.418359375  C 61.4513274336283 2.635546875  58.3787610619469 0.360546875000001  54.6203539823009 0.360546875000001  L 6.83097345132743 0.360546875000001  C 3.07256637168142 0.360546875000001  0 2.635546875  0 5.418359375  L 0 20.58671875  C 0 23.36953125  3.07256637168142 25.64453125  6.83097345132743 25.64453125  L 54.6272123893805 25.64453125  C 58.3856194690265 25.64453125  61.458185840708 23.36953125  61 20.58671875  L 61 5.418359375  Z M 21 18.8703125  L 20.246017699115 18.8703125  L 17.3723451327434 18.8703125  L 9.79380530973451 10.242578125  C 9.60176991150442 10.02421875  9.44402654867257 9.795703125  9.32057522123894 9.562109375  L 9.25199115044248 9.562109375  C 9.31371681415929 9.8109375  9.34115044247788 10.34921875  9.34115044247788 11.176953125  L 9.34115044247788 18.8703125  L 7 18.8703125  L 7 7.1296875  L 9.86238938053097 7.1296875  L 17.1803097345133 15.554296875  C 17.4889380530973 15.9046875  17.6878318584071 16.143359375  17.7769911504425 16.275390625  L 17.8181415929204 16.275390625  C 17.7426991150443 15.965625  17.708407079646 15.4375  17.708407079646 14.69609375  L 17.708407079646 7.1296875  L 21 7.1296875  L 21 18.8703125  Z M 31.7818584070796 18.8703125  L 31.7887168141593 18.8703125  L 23 18.8703125  L 23 7.1296875  L 31.4320796460177 7.1296875  L 31.4320796460177 8.78515625  L 25.5132743362832 8.78515625  L 25.5132743362832 12.10625  L 30.9657079646018 12.10625  L 30.9657079646018 13.7515625  L 25.5132743362832 13.7515625  L 25.5132743362832 17.225  L 31.7818584070796 17.225  L 31.7818584070796 18.8703125  Z M 54.6546460176991 7.1296875  L 50.3064159292035 18.8703125  L 47.3298672566372 18.8703125  L 44.3121681415929 10.658984375  C 44.1887168141593 10.30859375  44.1064159292035 9.927734375  44.078982300885 9.511328125  L 44.0378318584071 9.511328125  C 44.0035398230089 9.897265625  43.9143805309735 10.273046875  43.7703539823009 10.638671875  L 40.7389380530973 18.865234375  L 37.7006637168142 18.865234375  L 33.2632743362832 7.124609375  L 36.1506637168142 7.124609375  L 39.0243362831858 15.721875  C 39.1409292035398 16.082421875  39.2163716814159 16.458203125  39.2438053097345 16.84921875  L 39.2986725663717 16.84921875  C 39.3261061946903 16.569921875  39.428982300885 16.194140625  39.6073008849558 15.721875  L 42.8650442477876 7.1296875  L 45.5741150442478 7.1296875  L 48.5849557522124 15.79296875  C 48.6878318584071 16.0875  48.7632743362832 16.437890625  48.8181415929203 16.8390625  L 48.8592920353982 16.8390625  C 48.8798672566372 16.56484375  48.9690265486726 16.204296875  49.1130530973451 15.757421875  L 51.9318584070797 7.1296875  L 54.6546460176991 7.1296875  Z " fill-rule="nonzero" fill="#69e147" stroke="none" transform="matrix(1 0 0 1 516 219 )" />
  </g>
</svg>