<?xml version="1.0" encoding="utf-8"?>
<svg version="1.1" xmlns:xlink="http://www.w3.org/1999/xlink" width="18px" height="20px" xmlns="http://www.w3.org/2000/svg">
  <g transform="matrix(1 0 0 1 -18 -132 )">
    <path d="M 18 7.77777777777778  L 18 5.55555555555556  L 14.83875 5.55555555555556  C 14.3325 4.68888888888889  13.635 3.93888888888889  12.796875 3.37777777777778  L 14.625 1.57222222222222  L 13.033125 0  L 10.58625 2.41666666666667  C 10.08 2.29444444444444  9.545625 2.22222222222222  9 2.22222222222222  C 8.454375 2.22222222222222  7.92 2.29444444444444  7.41375 2.41666666666667  L 4.966875 0  L 3.375 1.57222222222222  L 5.203125 3.37777777777778  C 4.365 3.93888888888889  3.6675 4.68888888888889  3.16125 5.55555555555556  L 0 5.55555555555556  L 0 7.77777777777778  L 2.35125 7.77777777777778  C 2.289375 8.13888888888889  2.25 8.51111111111111  2.25 8.88888888888889  L 2.25 10  L 0 10  L 0 12.2222222222222  L 2.25 12.2222222222222  L 2.25 13.3333333333333  C 2.25 13.7111111111111  2.289375 14.0833333333333  2.35125 14.4444444444444  L 0 14.4444444444444  L 0 16.6666666666667  L 3.16125 16.6666666666667  C 4.325625 18.6555555555556  6.5025 20  9 20  C 11.4975 20  13.674375 18.6555555555556  14.83875 16.6666666666667  L 18 16.6666666666667  L 18 14.4444444444444  L 15.64875 14.4444444444444  C 15.710625 14.0833333333333  15.75 13.7111111111111  15.75 13.3333333333333  L 15.75 12.2222222222222  L 18 12.2222222222222  L 18 10  L 15.75 10  L 15.75 8.88888888888889  C 15.75 8.51111111111111  15.710625 8.13888888888889  15.64875 7.77777777777778  L 18 7.77777777777778  Z M 11.25 12.2222222222222  L 11.25 14.4444444444444  L 6.75 14.4444444444444  L 6.75 12.2222222222222  L 11.25 12.2222222222222  Z M 11.25 7.77777777777778  L 11.25 10  L 6.75 10  L 6.75 7.77777777777778  L 11.25 7.77777777777778  Z " fill-rule="nonzero" fill="#ffffff" stroke="none" transform="matrix(1 0 0 1 18 132 )" />
  </g>
</svg>