<?xml version="1.0" encoding="utf-8"?>
<svg version="1.1" xmlns:xlink="http://www.w3.org/1999/xlink" width="141px" height="34px" xmlns="http://www.w3.org/2000/svg">
  <g transform="matrix(1 0 0 1 -508 -8 )">
    <path d="M 509 13  A 4 4 0 0 1 513 9 L 644 9  A 4 4 0 0 1 648 13 L 648 37  A 4 4 0 0 1 644 41 L 513 41  A 4 4 0 0 1 509 37 L 509 13  Z " fill-rule="nonzero" fill="#ffffff" stroke="none" />
    <path d="M 508.5 13  A 4.5 4.5 0 0 1 513 8.5 L 644 8.5  A 4.5 4.5 0 0 1 648.5 13 L 648.5 37  A 4.5 4.5 0 0 1 644 41.5 L 513 41.5  A 4.5 4.5 0 0 1 508.5 37 L 508.5 13  Z " stroke-width="1" stroke-dasharray="9,4" stroke="#d9001b" fill="none" stroke-dashoffset="0.5" />
  </g>
</svg>