<?xml version="1.0" encoding="utf-8"?>
<svg version="1.1" xmlns:xlink="http://www.w3.org/1999/xlink" width="18px" height="21px" xmlns="http://www.w3.org/2000/svg">
  <g transform="matrix(1 0 0 1 -18 -402 )">
    <path d="M 0.375 18.75  L 17.625 18.75  C 17.734375 18.75  17.82421875 18.78515625  17.89453125 18.85546875  C 17.96484375 18.92578125  18 19.015625  18 19.125  L 18 20.625  C 18 20.734375  17.96484375 20.82421875  17.89453125 20.89453125  C 17.82421875 20.96484375  17.734375 21  17.625 21  L 0.375 21  C 0.265625 21  0.17578125 20.96484375  0.10546875 20.89453125  C 0.03515625 20.82421875  0 20.734375  0 20.625  L 0 19.125  C 0 19.015625  0.03515625 18.92578125  0.10546875 18.85546875  C 0.17578125 18.78515625  0.265625 18.75  0.375 18.75  Z M 16.4765625 18  L 1.5234375 18  C 1.546875 17.5703125  1.609375 17.15234375  1.7109375 16.74609375  C 1.8125 16.33984375  1.9296875 15.96875  2.0625 15.6328125  C 2.1953125 15.296875  2.375 14.95703125  2.6015625 14.61328125  C 2.828125 14.26953125  3.037109375 13.97265625  3.228515625 13.72265625  C 3.419921875 13.47265625  3.671875 13.201171875  3.984375 12.908203125  C 4.296875 12.615234375  4.5546875 12.380859375  4.7578125 12.205078125  C 4.9609375 12.029296875  5.236328125 11.814453125  5.583984375 11.560546875  C 5.931640625 11.306640625  6.19140625 11.12109375  6.36328125 11.00390625  C 6.53515625 10.88671875  6.7890625 10.71875  7.125 10.5  C 6.7890625 10.28125  6.53515625 10.11328125  6.36328125 9.99609375  C 6.19140625 9.87890625  5.931640625 9.693359375  5.583984375 9.439453125  C 5.236328125 9.185546875  4.9609375 8.970703125  4.7578125 8.794921875  C 4.5546875 8.619140625  4.296875 8.384765625  3.984375 8.091796875  C 3.671875 7.798828125  3.419921875 7.52734375  3.228515625 7.27734375  C 3.037109375 7.02734375  2.828125 6.73046875  2.6015625 6.38671875  C 2.375 6.04296875  2.1953125 5.703125  2.0625 5.3671875  C 1.9296875 5.03125  1.8125 4.66015625  1.7109375 4.25390625  C 1.609375 3.84765625  1.546875 3.4296875  1.5234375 3  L 16.4765625 3  C 16.453125 3.4296875  16.390625 3.84765625  16.2890625 4.25390625  C 16.1875 4.66015625  16.0703125 5.03125  15.9375 5.3671875  C 15.8046875 5.703125  15.625 6.04296875  15.3984375 6.38671875  C 15.171875 6.73046875  14.962890625 7.02734375  14.771484375 7.27734375  C 14.580078125 7.52734375  14.328125 7.798828125  14.015625 8.091796875  C 13.703125 8.384765625  13.4453125 8.619140625  13.2421875 8.794921875  C 13.0390625 8.970703125  12.763671875 9.185546875  12.416015625 9.439453125  C 12.068359375 9.693359375  11.80859375 9.87890625  11.63671875 9.99609375  C 11.46484375 10.11328125  11.2109375 10.28125  10.875 10.5  C 11.2109375 10.71875  11.46484375 10.88671875  11.63671875 11.00390625  C 11.80859375 11.12109375  12.068359375 11.306640625  12.416015625 11.560546875  C 12.763671875 11.814453125  13.0390625 12.029296875  13.2421875 12.205078125  C 13.4453125 12.380859375  13.703125 12.615234375  14.015625 12.908203125  C 14.328125 13.201171875  14.580078125 13.47265625  14.771484375 13.72265625  C 14.962890625 13.97265625  15.171875 14.26953125  15.3984375 14.61328125  C 15.625 14.95703125  15.8046875 15.296875  15.9375 15.6328125  C 16.0703125 15.96875  16.1875 16.33984375  16.2890625 16.74609375  C 16.390625 17.15234375  16.453125 17.5703125  16.4765625 18  Z M 0.375 0  L 17.625 0  C 17.734375 0  17.82421875 0.035156249999999  17.89453125 0.105468749999999  C 17.96484375 0.17578125  18 0.265624999999998  18 0.375000000000001  L 18 1.875  C 18 1.984375  17.96484375 2.07421875  17.89453125 2.14453125  C 17.82421875 2.21484375  17.734375 2.25  17.625 2.25  L 0.375 2.25  C 0.265625 2.25  0.17578125 2.21484375  0.10546875 2.14453125  C 0.03515625 2.07421875  0 1.984375  0 1.875  L 0 0.375000000000001  C 0 0.265624999999998  0.03515625 0.17578125  0.10546875 0.105468749999999  C 0.17578125 0.035156249999999  0.265625 0  0.375 0  Z " fill-rule="nonzero" fill="#ffffff" stroke="none" transform="matrix(1 0 0 1 18 402 )" />
  </g>
</svg>