<?xml version="1.0" encoding="utf-8"?>
<svg version="1.1" xmlns:xlink="http://www.w3.org/1999/xlink" width="42px" height="27px" xmlns="http://www.w3.org/2000/svg">
  <g transform="matrix(1 0 0 1 -85 -14 )">
    <path d="M 41.1923828125 17.17578125  C 41.17421875 14.0697265625  39.5576171875 11.3390625  37.117578125 9.776953125  C 36.86328125 9.6134765625  36.596875 9.462109375  36.3244140625 9.3228515625  C 36.2396484375 9.28046875  36.148828125 9.2380859375  36.0640625 9.195703125  C 36.051953125 9.1896484375  36.0337890625 9.18359375  36.0216796875 9.1775390625  C 35.7734375 9.0625  35.519140625 8.965625  35.2587890625 8.8748046875  C 35.21640625 8.8626953125  35.1740234375 8.84453125  35.131640625 8.832421875  C 35.0650390625 8.808203125  34.9923828125 8.7900390625  34.92578125 8.7658203125  C 34.865234375 8.74765625  34.7986328125 8.7294921875  34.73203125 8.711328125  C 34.6412109375 8.687109375  34.550390625 8.662890625  34.465625 8.638671875  C 34.39296875 8.6205078125  34.3142578125 8.60234375  34.235546875 8.5841796875  C 34.1810546875 8.5720703125  34.1265625 8.5599609375  34.078125 8.55390625  C 33.993359375 8.5357421875  33.90859375 8.5236328125  33.823828125 8.5115234375  L 33.6966796875 8.493359375  C 33.5755859375 8.4751953125  33.4484375 8.45703125  33.3212890625 8.444921875  C 33.2849609375 8.4388671875  33.2486328125 8.4388671875  33.2123046875 8.4328125  C 33.109375 8.420703125  33.0125 8.4146484375  32.9095703125 8.40859375  C 32.8732421875 8.40859375  32.830859375 8.4025390625  32.79453125 8.4025390625  C 32.661328125 8.396484375  32.528125 8.3904296875  32.3888671875 8.3904296875  C 30.85703125 8.3904296875  29.4220703125 8.783984375  28.16875 9.4681640625  L 27.526953125 9.4681640625  C 27.526953125 9.4015625  27.5330078125 9.3349609375  27.5330078125 9.268359375  C 27.5330078125 9.13515625  27.526953125 9.001953125  27.5208984375 8.86875  C 27.5208984375 8.832421875  27.51484375 8.8021484375  27.51484375 8.7658203125  C 27.5087890625 8.638671875  27.4966796875 8.50546875  27.4845703125 8.3783203125  L 27.4845703125 8.3662109375  C 27.4724609375 8.2390625  27.454296875 8.105859375  27.4361328125 7.9787109375  C 27.430078125 7.9423828125  27.4240234375 7.912109375  27.41796875 7.87578125000001  C 27.3998046875 7.76074218750001  27.3755859375 7.63964843750001  27.357421875 7.52460937500001  C 27.357421875 7.51250000000001  27.3513671875 7.50039062500001  27.3513671875 7.48828125  C 27.3271484375 7.3671875  27.296875 7.24609375  27.2666015625 7.125  C 27.2544921875 7.088671875  27.2484375 7.0462890625  27.236328125 7.0099609375  C 27.2060546875 6.90703125000001  27.1818359375 6.80410156250001  27.1515625 6.701171875  C 27.1455078125 6.6708984375  27.1333984375 6.6466796875  27.12734375 6.61640625  C 27.091015625 6.50742187500001  27.0546875 6.4044921875  27.018359375 6.30156250000001  C 27.0001953125 6.25917968750001  26.9880859375 6.21679687500001  26.969921875 6.17441406250001  C 26.9396484375 6.08964843750001  26.9033203125 6.0048828125  26.8669921875 5.9201171875  C 26.848828125 5.87167968750001  26.824609375 5.8232421875  26.8064453125 5.77480468750001  C 26.7701171875 5.69003906250001  26.727734375 5.60527343750001  26.69140625 5.52050781250001  L 26.61875 5.37519531250001  C 26.5884765625 5.30859375000001  26.5521484375 5.24199218750001  26.5158203125 5.18144531250001  C 26.4794921875 5.10878906250001  26.437109375 5.03613281250001  26.40078125 4.96953125000001  C 26.364453125 4.90898437500001  26.328125 4.84843750000001  26.291796875 4.78183593750001  C 26.2615234375 4.72734375000001  26.2251953125 4.67285156250001  26.194921875 4.61835937500001  C 26.1646484375 4.56992187500001  26.134375 4.52753906250001  26.1041015625 4.47910156250001  C 26.0435546875 4.38222656250001  25.976953125 4.28535156250001  25.9103515625 4.19453125000001  C 25.8861328125 4.15820312500001  25.8619140625 4.12187500000001  25.831640625 4.08554687500001  C 25.7892578125 4.02500000000001  25.7408203125 3.96445312500001  25.6984375 3.90996093750001  C 25.67421875 3.87968750000001  25.6560546875 3.84941406250001  25.6318359375 3.82519531250001  C 25.541015625 3.71015625000001  25.444140625 3.59511718750001  25.347265625 3.48007812500001  C 25.33515625 3.46796875000001  25.323046875 3.45585937500001  25.3169921875 3.44375000000001  C 25.2625 3.38320312500001  25.201953125 3.31660156250001  25.1474609375 3.25605468750001  L 25.105078125 3.21367187500001  C 24.9234375 3.01992187500001  24.7296875 2.83828125000001  24.5298828125 2.66269531250001  L 24.51171875 2.64453125000001  C 24.305859375 2.46289062500001  24.087890625 2.29335937500001  23.8638671875 2.12988281250001  C 23.6337890625 1.96640625000001  23.39765625 1.808984375  23.15546875 1.66972656250001  C 21.859765625 0.918945312500007  20.3521484375 0.483007812500006  18.74765625 0.483007812500006  C 14.182421875 0.483007812500006  10.428515625 3.97050781250001  10.0046875 8.4267578125  C 9.73828124999999 8.4025390625  9.47187499999998 8.3904296875  9.19941406249998 8.3904296875  C 4.34960937499998 8.3904296875  0.414062499999984 12.3259765625  0.414062499999984 17.17578125  C 0.414062499999984 21.329296875  3.29609374999998 24.8107421875  7.17714843749999 25.725  C 8.33964843749999 26.3123046875  9.64746093749999 26.6453125  11.0279296875 26.6453125  L 31.58359375 26.6453125  C 33.7330078125 26.6453125  35.70078125 25.84609375  37.214453125 24.526171875  C 39.6060546875 22.9580078125  41.1923828125 20.2515625  41.1923828125 17.17578125  Z " fill-rule="nonzero" fill="#9cd0f7" stroke="none" transform="matrix(1 0 0 1 85 14 )" />
  </g>
</svg>