<?xml version="1.0" encoding="utf-8"?>
<svg version="1.1" xmlns:xlink="http://www.w3.org/1999/xlink" width="20px" height="20px" xmlns="http://www.w3.org/2000/svg">
  <g transform="matrix(1 0 0 1 -18 -492 )">
    <path d="M 15.8528645833333 15.8528645833333  C 16.3953993055556 15.3103298611111  16.6666666666667 14.6571180555556  16.6666666666667 13.8932291666667  C 16.6666666666667 13.1293402777778  16.3953993055556 12.4739583333333  15.8528645833333 11.9270833333333  C 15.3103298611111 11.3802083333333  14.6571180555556 11.1067708333333  13.8932291666667 11.1067708333333  C 13.1640625 11.1067708333333  12.5347222222222 11.3585069444444  12.0052083333333 11.8619791666667  L 8.8671875 10.2994791666667  C 8.88454861111111 10.1605902777778  8.89322916666667 10.0607638888889  8.89322916666667 10  C 8.89322916666667 9.93923611111111  8.88454861111111 9.83940972222222  8.8671875 9.70052083333333  L 12.0052083333333 8.13802083333333  C 12.5347222222222 8.64149305555556  13.1640625 8.89322916666667  13.8932291666667 8.89322916666667  C 14.6571180555556 8.89322916666667  15.3103298611111 8.61979166666667  15.8528645833333 8.07291666666667  C 16.3953993055556 7.52604166666667  16.6666666666667 6.87065972222222  16.6666666666667 6.10677083333333  C 16.6666666666667 5.34288194444444  16.3953993055556 4.68967013888889  15.8528645833333 4.14713541666667  C 15.3103298611111 3.60460069444444  14.6571180555556 3.33333333333333  13.8932291666667 3.33333333333333  C 13.1293402777778 3.33333333333333  12.4739583333333 3.60460069444444  11.9270833333333 4.14713541666667  C 11.3802083333333 4.68967013888889  11.1067708333333 5.34288194444444  11.1067708333333 6.10677083333333  C 11.1067708333333 6.16753472222222  11.1154513888889 6.26736111111111  11.1328125 6.40625  L 7.99479166666667 7.96875  C 7.45659722222222 7.47395833333333  6.82725694444445 7.2265625  6.10677083333333 7.2265625  C 5.34288194444445 7.2265625  4.68967013888889 7.49782986111111  4.14713541666667 8.04036458333333  C 3.60460069444444 8.58289930555556  3.33333333333333 9.23611111111111  3.33333333333333 10  C 3.33333333333333 10.7638888888889  3.60460069444444 11.4171006944444  4.14713541666667 11.9596354166667  C 4.68967013888889 12.5021701388889  5.34288194444445 12.7734375  6.10677083333333 12.7734375  C 6.82725694444445 12.7734375  7.45659722222222 12.5260416666667  7.99479166666667 12.03125  L 11.1328125 13.59375  C 11.1154513888889 13.7326388888889  11.1067708333333 13.8324652777778  11.1067708333333 13.8932291666667  C 11.1067708333333 14.6571180555556  11.3802083333333 15.3103298611111  11.9270833333333 15.8528645833333  C 12.4739583333333 16.3953993055556  13.1293402777778 16.6666666666667  13.8932291666667 16.6666666666667  C 14.6571180555556 16.6666666666667  15.3103298611111 16.3953993055556  15.8528645833333 15.8528645833333  Z M 18.8997395833333 1.10026041666667  C 19.6332465277778 1.83376736111111  20 2.71701388888889  20 3.75  L 20 16.25  C 20 17.2829861111111  19.6332465277778 18.1662326388889  18.8997395833333 18.8997395833333  C 18.1662326388889 19.6332465277778  17.2829861111111 20  16.25 20  L 3.75 20  C 2.71701388888889 20  1.83376736111111 19.6332465277778  1.10026041666667 18.8997395833333  C 0.366753472222222 18.1662326388889  0 17.2829861111111  0 16.25  L 0 3.75  C 0 2.71701388888889  0.366753472222222 1.83376736111111  1.10026041666667 1.10026041666667  C 1.83376736111111 0.366753472222221  2.71701388888889 0  3.75 0  L 16.25 0  C 17.2829861111111 0  18.1662326388889 0.366753472222221  18.8997395833333 1.10026041666667  Z " fill-rule="nonzero" fill="#ffffff" stroke="none" transform="matrix(1 0 0 1 18 492 )" />
  </g>
</svg>