<?xml version="1.0" encoding="utf-8"?>
<svg version="1.1" xmlns:xlink="http://www.w3.org/1999/xlink" width="24px" height="20px" xmlns="http://www.w3.org/2000/svg">
  <g transform="matrix(1 0 0 1 -16 -312 )">
    <path d="M 6.27512195121951 7.69230769230769  L 2.49365853658537 7.69230769230769  L 9.78731707317073 15.6850961538462  L 6.27512195121951 7.69230769230769  Z M 7.91414634146341 7.69230769230769  L 12 16.9711538461538  L 16.0858536585366 7.69230769230769  L 7.91414634146341 7.69230769230769  Z M 2.25951219512195 6.15384615384615  L 6.31024390243902 6.15384615384615  L 8.69853658536585 1.53846153846154  L 5.63121951219512 1.53846153846154  L 2.25951219512195 6.15384615384615  Z M 17.7248780487805 7.69230769230769  L 14.2126829268293 15.6850961538462  L 21.5063414634146 7.69230769230769  L 17.7248780487805 7.69230769230769  Z M 10.3960975609756 1.53846153846154  L 8.00780487804878 6.15384615384615  L 15.9921951219512 6.15384615384615  L 13.6039024390244 1.53846153846154  L 10.3960975609756 1.53846153846154  Z M 15.3014634146341 1.53846153846154  L 17.689756097561 6.15384615384615  L 21.7404878048781 6.15384615384615  L 18.3687804878049 1.53846153846154  L 15.3014634146341 1.53846153846154  Z M 18.7434146341463 0  C 19.0009756097561 0  19.2 0.104166666666665  19.3404878048781 0.3125  L 23.8360975609756 6.46634615384615  C 23.9453658536585 6.61057692307692  23.9960975609756 6.77684294871795  23.9882926829268 6.96514423076923  C 23.9804878048781 7.15344551282051  23.9141463414634 7.31570512820513  23.7892682926829 7.45192307692308  L 12.550243902439 19.7596153846154  C 12.409756097561 19.9198717948718  12.2263414634146 20  12 20  C 11.7736585365854 20  11.590243902439 19.9198717948718  11.449756097561 19.7596153846154  L 0.210731707317073 7.45192307692308  C 0.0858536585365854 7.31570512820513  0.0195121951219512 7.15344551282051  0.0117073170731707 6.96514423076923  C 0.00390243902439024 6.77684294871795  0.0546341463414634 6.61057692307692  0.16390243902439 6.46634615384615  L 4.65951219512195 0.3125  C 4.8 0.104166666666665  4.9990243902439 0  5.25658536585366 0  L 18.7434146341463 0  Z " fill-rule="nonzero" fill="#ffffff" stroke="none" transform="matrix(1 0 0 1 16 312 )" />
  </g>
</svg>