<?xml version="1.0" encoding="utf-8"?>
<svg version="1.1" xmlns:xlink="http://www.w3.org/1999/xlink" width="27px" height="27px" xmlns="http://www.w3.org/2000/svg">
  <g transform="matrix(1 0 0 1 -338 0 )">
    <path d="M 26.7092005664062 13.5  C 26.7092005664062 6.22144518554688  20.7876537890625 0.299968408203126  13.5091689746094 0.299968408203125  C 6.23064916015625 0.299968408203125  0.309137382812499 6.22144521972656  0.309137382812499 13.5  C 0.309137382812499 20.7785548144531  6.23064916015625 26.7000315917969  13.5091689746094 26.7000315917969  C 20.7876887890625 26.7000315917969  26.7092005664062 20.7785547802734  26.7092005664062 13.5  Z M 25.4717041650391 13.5  C 25.4717041650391 20.0961312402344  20.1053002148438 25.4625351904297  13.5091689746094 25.4625351904297  C 6.913037734375 25.4625351904297  1.54663378417969 20.0961662402344  1.54663378417969 13.5  C 1.54663378417969 6.90383375976563  6.913002734375 1.53746480957031  13.5091689746094 1.53746480957031  C 20.1053352148437 1.53746480957031  25.4717041650391 6.90383375976563  25.4717041650391 13.5  Z M 19.8616574902344 12.889703359375  C 20.2033942089844 12.889703359375  20.4804231738281 13.1603980419922  20.4804232080078 13.5021347607422  C 20.4804232080078 13.8439064794922  20.2033942431641 14.1145661621094  19.8616574902344 14.1145661621094  L 13.9358761914062 14.1145661621094  L 13.9358761914062 19.8523485498047  C 13.9358761914062 20.1941202685547  13.6651815087891 20.4711142333984  13.3234447900391 20.4711142333984  C 12.9817080712891 20.4711142333984  12.7110133886719 20.1941202685547  12.7110133544922 19.8523485498047  L 12.7110133544922 14.1145661621094  L 7.15664545898438 14.1145661621094  C 6.81490874023437 14.1145661621094  6.53787977539062 13.8439064794922  6.53787974121094 13.5021347607422  C 6.53787970703125 13.1603630419922  6.81490870605469 12.889703359375  7.15664545898438 12.889703359375  L 12.7110133544922 12.889703359375  L 12.7110133544922 7.22982225585938  C 12.7110133544922 6.88805053710938  12.9817080371094 6.61105657226562  13.3234447900391 6.61105657226562  C 13.6651815429688 6.61105657226562  13.9358761914062 6.88805053710938  13.9358761914062 7.22982225585938  L 13.9358761914062 12.889703359375  L 19.8616574902344 12.889703359375  Z " fill-rule="nonzero" fill="#02a7f0" stroke="none" transform="matrix(1 0 0 1 338 0 )" />
  </g>
</svg>