<?xml version="1.0" encoding="utf-8"?>
<svg version="1.1" xmlns:xlink="http://www.w3.org/1999/xlink" width="96px" height="27px" viewBox="920 257  96 27" xmlns="http://www.w3.org/2000/svg">
  <path d="M 920.5 262  A 4.5 4.5 0 0 1 925 257.5 L 1011 257.5  A 4.5 4.5 0 0 1 1015.5 262 L 1015.5 279  A 4.5 4.5 0 0 1 1011 283.5 L 925 283.5  A 4.5 4.5 0 0 1 920.5 279 L 920.5 262  Z " fill-rule="nonzero" fill="#d7d7d7" stroke="none" fill-opacity="0.109803921568627" />
  <path d="M 920.5 262  A 4.5 4.5 0 0 1 925 257.5 L 1011 257.5  A 4.5 4.5 0 0 1 1015.5 262 L 1015.5 279  A 4.5 4.5 0 0 1 1011 283.5 L 925 283.5  A 4.5 4.5 0 0 1 920.5 279 L 920.5 262  Z " stroke-width="1" stroke="#81d3f8" fill="none" />
</svg>