<?xml version="1.0" encoding="utf-8"?>
<svg version="1.1" xmlns:xlink="http://www.w3.org/1999/xlink" width="21px" height="21px" xmlns="http://www.w3.org/2000/svg">
  <defs>
    <linearGradient gradientUnits="userSpaceOnUse" x1="10.5" y1="0" x2="10.5" y2="20.79" id="LinearGradient2049">
      <stop id="Stop2050" stop-color="#ec808d" offset="0" />
      <stop id="Stop2051" stop-color="#ffffff" offset="1" />
    </linearGradient>
  </defs>
  <g transform="matrix(1 0 0 1 -147 -571 )">
    <path d="M 20.7103448275862 19.9137931034483  L 11.2965517241379 10.5  L 20.7103448275862 1.08620689655172  C 20.9275862068966 0.868965517241379  20.9275862068966 0.506896551724138  20.7103448275862 0.289655172413793  C 20.4931034482759 0.072413793103448  20.1310344827586 0.0724137931034482  19.9137931034483 0.289655172413793  L 10.5 9.70344827586207  L 1.08620689655172 0.289655172413793  C 0.868965517241379 0.0724137931034485  0.506896551724138 0.0724137931034485  0.289655172413793 0.289655172413793  C 0.072413793103448 0.506896551724138  0.0724137931034482 0.868965517241379  0.289655172413793 1.08620689655172  L 9.70344827586207 10.5  L 0.289655172413793 19.9137931034483  C 0.0724137931034485 20.1310344827586  0.0724137931034485 20.4931034482759  0.289655172413793 20.7103448275862  C 0.506896551724138 20.9275862068966  0.868965517241379 20.9275862068966  1.08620689655172 20.7103448275862  L 10.5 11.2965517241379  L 19.9137931034483 20.7103448275862  C 20.1310344827586 20.9275862068966  20.4931034482759 20.9275862068966  20.7103448275862 20.7103448275862  C 20.9275862068966 20.4931034482759  20.9275862068966 20.1310344827586  20.7103448275862 19.9137931034483  Z " fill-rule="nonzero" fill="url(#LinearGradient2049)" stroke="none" transform="matrix(1 0 0 1 147 571 )" />
  </g>
</svg>