<?xml version="1.0" encoding="utf-8"?>
<svg version="1.1" xmlns:xlink="http://www.w3.org/1999/xlink" width="4px" height="8px" xmlns="http://www.w3.org/2000/svg">
  <g transform="matrix(1 0 0 1 -852 -420 )">
    <path d="M 3.81166666666667 1.39438596491228  C 3.89833333333333 1.66017543859649  3.94166666666667 1.94087719298245  3.94166666666667 2.23684210526316  C 3.94166666666667 2.57070175438596  3.8965 2.86666666666667  3.8065 3.12456140350877  C 3.71633333333333 3.38263157894737  3.59033333333333 3.60263157894737  3.428 3.78473684210526  C 3.26583333333333 3.96684210526316  3.07116666666667 4.10912280701754  2.84416666666667 4.21157894736842  C 2.61716666666667 4.3140350877193  2.36483333333333 4.37473684210526  2.08733333333333 4.39368421052632  L 2.0495 5.76508771929825  C 2.0495 5.8219298245614  2.01783333333333 5.86473684210526  1.95483333333333 5.89315789473684  C 1.89166666666667 5.92157894736842  1.79 5.93578947368421  1.64933333333333 5.93578947368421  C 1.57366666666667 5.93578947368421  1.50883333333333 5.93298245614035  1.45466666666667 5.92719298245614  C 1.40066666666667 5.92157894736842  1.35733333333334 5.91210526315789  1.325 5.89877192982456  C 1.2925 5.88543859649123  1.26916666666667 5.86754385964912  1.25466666666667 5.84473684210526  C 1.24016666666667 5.8219298245614  1.233 5.79543859649123  1.233 5.76508771929824  L 1.2005 4.18877192982456  C 1.19683333333333 4.10157894736842  1.20316666666667 4.03035087719298  1.2195 3.97543859649123  C 1.23566666666667 3.92052631578947  1.26 3.87491228070175  1.2925 3.83894736842105  C 1.325 3.80298245614035  1.36633333333333 3.77824561403509  1.41683333333333 3.76491228070175  C 1.46733333333333 3.75157894736842  1.525 3.74491228070175  1.58983333333333 3.74491228070175  L 1.70883333333333 3.74491228070175  C 1.943 3.74491228070175  2.143 3.70614035087719  2.30883333333333 3.62824561403509  C 2.4745 3.55052631578947  2.60883333333333 3.44719298245614  2.7115 3.3180701754386  C 2.81416666666667 3.18912280701754  2.889 3.03736842105263  2.93583333333333 2.86280701754386  C 2.98266666666667 2.68842105263158  3.00616666666667 2.50631578947368  3.00616666666667 2.31649122807017  C 3.00616666666667 2.10017543859649  2.97733333333333 1.90210526315789  2.91966666666667 1.72175438596491  C 2.862 1.54157894736842  2.7755 1.3859649122807  2.66016666666666 1.25508771929825  C 2.54483333333333 1.12421052631579  2.39983333333333 1.02280701754386  2.225 0.950701754385964  C 2.05016666666666 0.878596491228069  1.84383333333333 0.842631578947367  1.606 0.842631578947367  C 1.397 0.842631578947367  1.214 0.866315789473683  1.05733333333333 0.913684210526315  C 0.900499999999998 0.961228070175437  0.764499999999998 1.01333333333333  0.649166666666665 1.07017543859649  C 0.533833333333331 1.12701754385965  0.439166666666664 1.17824561403509  0.365333333333331 1.22385964912281  C 0.291499999999997 1.26929824561403  0.236499999999997 1.29210526315789  0.200499999999998 1.29210526315789  C 0.175166666666665 1.29210526315789  0.152666666666664 1.28649122807017  0.132999999999997 1.27508771929824  C 0.113166666666664 1.26368421052631  0.095999999999997 1.2419298245614  0.0816666666666644 1.20964912280702  C 0.0671666666666643 1.17754385964912  0.0563333333333314 1.13385964912281  0.0491666666666646 1.07877192982456  C 0.0418333333333313 1.02385964912281  0.0383333333333316 0.95456140350877  0.0383333333333316 0.871052631578946  C 0.0383333333333316 0.779999999999999  0.0436666666666648 0.710877192982455  0.0544999999999988 0.663333333333332  C 0.0653333333333317 0.615964912280701  0.0886666666666656 0.574210526315789  0.124833333333333 0.538070175438596  C 0.160833333333333 0.502105263157894  0.230166666666666 0.454736842105262  0.332999999999999 0.39578947368421  C 0.435666666666666 0.337017543859648  0.559999999999999 0.28298245614035  0.705999999999999 0.233684210526315  C 0.851999999999999 0.18438596491228  1.01233333333333 0.142631578947367  1.18716666666667 0.108421052631578  C 1.362 0.0742105263157888  1.543 0.0571929824561392  1.7305 0.0571929824561392  C 2.11616666666667 0.0571929824561392  2.44766666666667 0.115087719298245  2.72516666666667 0.230701754385964  C 3.00266666666667 0.346491228070174  3.2315 0.502982456140349  3.41166666666667 0.70017543859649  C 3.59183333333333 0.897543859649121  3.72516666666667 1.12894736842105  3.81166666666667 1.39438596491228  Z M 2.209 6.96842105263158  C 2.22533333333333 7.05368421052632  2.23333333333333 7.15912280701754  2.23333333333333 7.28421052631579  C 2.23333333333333 7.40947368421053  2.22516666666667 7.51280701754386  2.209 7.59438596491228  C 2.19283333333333 7.6759649122807  2.163 7.74228070175439  2.11983333333333 7.79350877192983  C 2.0765 7.84473684210526  2.018 7.88070175438597  1.94416666666667 7.90157894736842  C 1.87033333333333 7.92245614035088  1.77933333333333 7.93280701754386  1.67116666666667 7.93280701754386  C 1.55583333333333 7.93280701754386  1.46216666666667 7.92228070175439  1.39 7.90157894736842  C 1.31783333333333 7.88070175438596  1.25933333333333 7.84473684210526  1.21433333333333 7.79350877192983  C 1.16916666666667 7.74228070175439  1.13866666666667 7.6759649122807  1.1225 7.59438596491228  C 1.10633333333333 7.51280701754386  1.09816666666667 7.40947368421053  1.09816666666667 7.28421052631579  C 1.09816666666667 7.15894736842105  1.10633333333333 7.05368421052632  1.1225 6.96842105263158  C 1.13866666666667 6.88298245614035  1.16933333333333 6.81666666666667  1.21433333333333 6.76929824561404  C 1.25933333333333 6.7219298245614  1.31783333333333 6.68771929824561  1.39 6.66684210526316  C 1.462 6.6459649122807  1.55566666666667 6.63561403508772  1.67116666666667 6.63561403508772  C 1.77933333333333 6.63561403508772  1.87033333333333 6.64614035087719  1.94416666666667 6.66684210526316  C 2.018 6.68771929824561  2.07666666666667 6.7219298245614  2.11983333333333 6.76929824561404  C 2.163 6.81684210526316  2.19283333333333 6.88315789473684  2.209 6.96842105263158  Z " fill-rule="nonzero" fill="#ff0000" stroke="none" transform="matrix(1 0 0 1 852 420 )" />
  </g>
</svg>