<?xml version="1.0" encoding="utf-8"?>
<svg version="1.1" xmlns:xlink="http://www.w3.org/1999/xlink" width="14px" height="14px" xmlns="http://www.w3.org/2000/svg">
  <g transform="matrix(1 0 0 1 -847 -417 )">
    <path d="M 13.9030208333333 6.95911764705882  C 13.9030208333333 6.02014705882353  13.7205833333333 5.10897058823529  13.3608125 4.25102941176471  C 13.0132916666667 3.4225  12.516 2.67852941176471  11.8825 2.03985294117647  C 11.249 1.40102941176471  10.5112291666667 0.899558823529411  9.68975 0.549117647058823  C 8.83895833333333 0.186176470588235  7.93552083333333 0.00220588235294084  7.00422916666667 0.00220588235294084  C 6.0729375 0.00220588235294084  5.16935416666667 0.186176470588235  4.3185625 0.549117647058824  C 3.4969375 0.899558823529412  2.75916666666667 1.40117647058824  2.1258125 2.03985294117647  C 1.4923125 2.67867647058824  0.995020833333333 3.42264705882353  0.6475 4.25102941176471  C 0.287583333333333 5.1089705882353  0.105145833333333 6.02  0.105145833333333 6.95911764705882  C 0.105145833333333 7.89823529411765  0.287583333333333 8.80926470588235  0.6475 9.66720588235294  C 0.995020833333333 10.4957352941176  1.4923125 11.2397058823529  2.1258125 11.8783823529412  C 2.7593125 12.5172058823529  3.49708333333333 13.0186764705882  4.3185625 13.3691176470588  C 5.16935416666667 13.7320588235294  6.07279166666667 13.9160294117647  7.00408333333333 13.9160294117647  C 7.46375 13.9160294117647  7.92327083333333 13.8701470588235  8.37025 13.7795588235294  C 8.56770833333333 13.7395588235294  8.69560416666667 13.5457352941176  8.6559375 13.3466176470588  C 8.61627083333333 13.1475  8.4240625 13.0185294117647  8.22660416666667 13.0585294117647  C 7.826875 13.1395588235294  7.415625 13.1805882352941  7.00408333333333 13.1805882352941  C 3.60208333333333 13.1807352941176  0.8343125 10.3898529411765  0.8343125 6.95911764705882  C 0.8343125 3.52838235294118  3.60208333333333 0.7375  7.00408333333333 0.7375  C 10.4060833333333 0.7375  13.1738541666667 3.52852941176471  13.1738541666667 6.95911764705882  C 13.1738541666667 8.63897058823529  12.5200833333333 10.2133823529412  11.333 11.3923529411765  C 11.1895 11.5348529411765  11.18775 11.7676470588235  11.3290625 11.9122058823529  C 11.470375 12.0569117647059  11.7012291666667 12.0586764705882  11.8445833333333 11.9161764705882  C 12.4893125 11.2758823529412  12.9959375 10.5276470588235  13.3501666666667 9.69220588235294  C 13.7170833333333 8.82705882352941  13.9030208333333 7.9075  13.9030208333333 6.95911764705882  Z " fill-rule="nonzero" fill="#0000ff" stroke="none" transform="matrix(1 0 0 1 847 417 )" />
  </g>
</svg>