<?xml version="1.0" encoding="utf-8"?>
<svg version="1.1" xmlns:xlink="http://www.w3.org/1999/xlink" width="8px" height="8px" xmlns="http://www.w3.org/2000/svg">
  <g transform="matrix(1 0 0 1 -17 -121 )">
    <path d="M 7.71444506413832 0  C 7.77393567577617 0  7.82747722625023 0.0163690476190483  7.87506971556051 0.0491071428571432  C 7.97322922476297 0.120535714285714  8.01338538761852 0.215773809523809  7.99553820412716 0.334821428571429  L 6.85331846068042 7.19196428571429  C 6.83844580777096 7.27827380952381  6.79085331846068 7.34523809523809  6.71054099274958 7.39285714285714  C 6.66889756460309 7.41666666666667  6.62279234058375 7.42857142857143  6.57222532069158 7.42857142857143  C 6.53950548429076 7.42857142857143  6.50381111730805 7.42113095238095  6.46514221974345 7.40625  L 4.44394868934746 6.58035714285714  L 3.36419408812047 7.89732142857143  C 3.3106525376464 7.96577380952381  3.23777653839004 8  3.14556609035137 8  C 3.10689719278676 8  3.07417735638595 7.99404761904762  3.04740658114891 7.98214285714286  C 2.99089050009295 7.96130952380952  2.94552890871909 7.92633928571429  2.91132180702733 7.87723214285714  C 2.87711470533556 7.828125  2.86001115448968 7.77380952380952  2.86001115448968 7.71428571428571  L 2.86001115448968 6.15625  L 6.71500278862242 1.42857142857143  L 1.94534300055772 5.55803571428571  L 0.182933630786392 4.83482142857143  C 0.0728759992563674 4.79315476190476  0.0133853876185165 4.71130952380952  0.00446179587283882 4.58928571428571  C -0.00148726529094627 4.47023809523809  0.0461052240193344 4.38244047619048  0.147239263803681 4.32589285714286  L 7.57166759620747 0.0401785714285712  C 7.61628555493586 0.0133928571428568  7.66387804424614 0  7.71444506413832 0  Z " fill-rule="nonzero" fill="#000000" stroke="none" transform="matrix(1 0 0 1 17 121 )" />
  </g>
</svg>