<?xml version="1.0" encoding="utf-8"?>
<svg version="1.1" xmlns:xlink="http://www.w3.org/1999/xlink" width="16px" height="30px" xmlns="http://www.w3.org/2000/svg">
  <g transform="matrix(1 0 0 1 -69 -16 )">
    <path d="M 15.7250859106529 14.3086172344689  C 15.9083619702176 14.5090180360721  16 14.7394789579158  16 15  C 16 15.2605210420842  15.9083619702176 15.4909819639279  15.7250859106529 15.6913827655311  L 2.91408934707904 29.6993987975952  C 2.73081328751432 29.8997995991984  2.52004581901489 30  2.28178694158076 30  C 2.04352806414662 30  1.83276059564719 29.8997995991984  1.64948453608247 29.6993987975952  L 0.274914089347079 28.1963927855711  C 0.0916380297823597 27.9959919839679  0 27.7655310621243  0 27.5050100200401  C 0 27.2444889779559  0.0916380297823597 27.0140280561122  0.274914089347079 26.813627254509  L 11.0790378006873 15  L 0.274914089347079 3.18637274549098  C 0.0916380297823597 2.98597194388777  0 2.75551102204409  0 2.49498997995992  C 0 2.23446893787575  0.0916380297823597 2.00400801603206  0.274914089347079 1.80360721442886  L 1.64948453608247 0.30060120240481  C 1.83276059564719 0.100200400801602  2.04352806414662 0  2.28178694158076 0  C 2.52004581901489 0  2.73081328751432 0.100200400801602  2.91408934707904 0.30060120240481  L 15.7250859106529 14.3086172344689  Z " fill-rule="nonzero" fill="#555555" stroke="none" transform="matrix(1 0 0 1 69 16 )" />
  </g>
</svg>