<?xml version="1.0" encoding="utf-8"?>
<svg version="1.1" xmlns:xlink="http://www.w3.org/1999/xlink" width="38px" height="38px" xmlns="http://www.w3.org/2000/svg">
  <defs>
    <mask fill="white" id="clip479">
      <path d="M 265 114.5  C 254.7325 114.5  246.5 106.2675  246.5 96  L 246.5 96  C 246.5 85.7325  254.7325 77.5  265 77.5  L 265 77.5  C 275.2675 77.5  283.5 85.7325  283.5 96  L 283.5 96  C 283.5 106.2675  275.2675 114.5  265 114.5  L 265 114.5  " fill-rule="evenodd" />
    </mask>
  </defs>
  <g transform="matrix(1 0 0 1 -246 -77 )">
    <path d="M 246 77  L 284 77  L 284 115  L 246 115  L 246 77  " fill-rule="nonzero" fill="#cccccc" stroke="none" mask="url(#clip479)" />
    <path d="M 249 80  L 281 80  L 281 112  L 249 112  L 249 80  " fill-rule="nonzero" fill="#ffffff" stroke="none" mask="url(#clip479)" />
    <path d="M 268.61 88.4  C 267.014 88.4  265.76 87.146  265.76 85.55  C 265.76 83.954  267.014 82.7  268.61 82.7  C 270.206 82.7  271.46 83.954  271.46 85.55  C 271.46 87.146  270.206 88.4  268.61 88.4  " fill-rule="nonzero" fill="#cccccc" stroke="none" mask="url(#clip479)" />
    <path d="M 250 111  L 250 94.5  L 257.5 87  L 268 93  L 274 91.5  L 280 93  L 280 111  L 250 111  " fill-rule="nonzero" fill="#169bd5" stroke="none" mask="url(#clip479)" />
    <path d="M 265 114.5  C 254.7325 114.5  246.5 106.2675  246.5 96  L 246.5 96  C 246.5 85.7325  254.7325 77.5  265 77.5  L 265 77.5  C 275.2675 77.5  283.5 85.7325  283.5 96  L 283.5 96  C 283.5 106.2675  275.2675 114.5  265 114.5  L 265 114.5  Z " stroke-width="1" stroke="#aaaaaa" fill="none" mask="url(#clip479)" />
  </g>
</svg>