<?xml version="1.0" encoding="utf-8"?>
<svg version="1.1" xmlns:xlink="http://www.w3.org/1999/xlink" width="19px" height="18px" preserveAspectRatio="xMinYMid meet" viewBox="834 385  19 16" xmlns="http://www.w3.org/2000/svg">
  <defs>
    <mask fill="white" id="clip483">
      <path d="M 751 430  L 797 430  L 797 455  L 751 455  Z M 701 384  L 856 384  L 856 495  L 701 495  Z " fill-rule="evenodd" />
    </mask>
  </defs>
  <path d="M 701 492.5  L 724 492.5  A 3 3 0 0 1 727 489.5 A 3 3 0 0 1 730 492.5 L 769 492.5  A 5 5 0 0 0 774.5 487.5 L 774.5 398  A 5 5 0 0 1 779.5 393.5 L 842 393.5  " stroke-width="1" stroke-dasharray="9,4" stroke="#02a7f0" fill="none" mask="url(#clip483)" />
  <path d="M 841 399.8  L 847 393.5  L 841 387.2  L 841 399.8  Z " fill-rule="nonzero" fill="#02a7f0" stroke="none" mask="url(#clip483)" />
</svg>