<?xml version="1.0" encoding="utf-8"?>
<svg version="1.1" xmlns:xlink="http://www.w3.org/1999/xlink" width="138px" height="10px" preserveAspectRatio="xMinYMid meet" viewBox="643 1426  138 8" xmlns="http://www.w3.org/2000/svg">
  <defs>
    <mask fill="white" id="clip508">
      <path d="M 753 1312  L 799 1312  L 799 1337  L 753 1337  Z M 645 1135  L 848 1135  L 848 1440  L 645 1440  Z " fill-rule="evenodd" />
    </mask>
  </defs>
  <path d="M 648.5 1440  L 648.5 1435  A 5 5 0 0 1 653.5 1430.5 L 771 1430.5  A 5 5 0 0 0 776.5 1425 L 776.5 1308  A 3 3 0 0 0 779.5 1305 A 3 3 0 0 0 776.5 1302 L 776.5 1149  A 5 5 0 0 1 781.5 1144.5 L 834 1144.5  " stroke-width="1" stroke-dasharray="9,4" stroke="#02a7f0" fill="none" mask="url(#clip508)" />
  <path d="M 833 1150.8  L 839 1144.5  L 833 1138.2  L 833 1150.8  Z " fill-rule="nonzero" fill="#02a7f0" stroke="none" mask="url(#clip508)" />
</svg>