<?xml version="1.0" encoding="utf-8"?>
<svg version="1.1" xmlns:xlink="http://www.w3.org/1999/xlink" width="20px" height="20px" xmlns="http://www.w3.org/2000/svg">
  <g transform="matrix(1 0 0 1 -462 -155 )">
    <path d="M 472 156  C 477.04 156  481 159.96  481 165  C 481 170.04  477.04 174  472 174  C 466.96 174  463 170.04  463 165  C 463 159.96  466.96 156  472 156  Z " fill-rule="nonzero" fill="#69e147" stroke="none" />
    <path d="M 472 156  C 477.04 156  481 159.96  481 165  C 481 170.04  477.04 174  472 174  C 466.96 174  463 170.04  463 165  C 463 159.96  466.96 156  472 156  Z " stroke-width="2" stroke="#69e147" fill="none" />
  </g>
</svg>