<?xml version="1.0" encoding="utf-8"?>
<svg version="1.1" xmlns:xlink="http://www.w3.org/1999/xlink" width="700px" height="48px" xmlns="http://www.w3.org/2000/svg">
  <g transform="matrix(1 0 0 1 -538 -1669 )">
    <path d="M 539 1693  A 23 23 0 0 1 562 1670 L 1214 1670  A 23 23 0 0 1 1237 1693 A 23 23 0 0 1 1214 1716 L 562 1716  A 23 23 0 0 1 539 1693 Z " fill-rule="nonzero" fill="#ffffff" stroke="none" fill-opacity="0.219607843137255" />
    <path d="M 538.5 1693  A 23.5 23.5 0 0 1 562 1669.5 L 1214 1669.5  A 23.5 23.5 0 0 1 1237.5 1693 A 23.5 23.5 0 0 1 1214 1716.5 L 562 1716.5  A 23.5 23.5 0 0 1 538.5 1693 Z " stroke-width="1" stroke="#81d3f8" fill="none" stroke-opacity="0.549019607843137" />
  </g>
</svg>