<?xml version="1.0" encoding="utf-8"?>
<svg version="1.1" xmlns:xlink="http://www.w3.org/1999/xlink" width="75px" height="27px" viewBox="631 211  75 27" xmlns="http://www.w3.org/2000/svg">
  <path d="M 632 216  A 4 4 0 0 1 636 212 L 701 212  A 4 4 0 0 1 705 216 L 705 233  A 4 4 0 0 1 701 237 L 636 237  A 4 4 0 0 1 632 233 L 632 216  Z " fill-rule="nonzero" fill="#f0f0f0" stroke="none" />
  <path d="M 631.5 216  A 4.5 4.5 0 0 1 636 211.5 L 701 211.5  A 4.5 4.5 0 0 1 705.5 216 L 705.5 233  A 4.5 4.5 0 0 1 701 237.5 L 636 237.5  A 4.5 4.5 0 0 1 631.5 233 L 631.5 216  Z " stroke-width="1" stroke="#81d3f8" fill="none" stroke-opacity="0.329411764705882" />
</svg>