<?xml version="1.0" encoding="utf-8"?>
<svg version="1.1" xmlns:xlink="http://www.w3.org/1999/xlink" width="15px" height="13px" xmlns="http://www.w3.org/2000/svg">
  <g transform="matrix(1 0 0 1 -187 -31 )">
    <path d="M 14.9666666666667 3.35955404255319  C 14.9668654848794 2.44263717843108  14.2216325734936 1.69859568940843  13.3008 1.69635063829787  L 7.55706666666667 1.69635063829787  L 6.03333333333333 0.127234042553192  L 1.69911111111111 0.127234042553192  C 0.778313270079559 0.129527813342448  0.0331344012824229 0.873555046684412  0.0333333333333334 1.79043744680851  L 0.0333333333333334 11.2096510638298  C 0.0331834195629339 12.1264989176517  0.77834797321502 12.8704722638609  1.69911111111111 12.8727659574468  L 13.3008 12.8727659574468  C 14.2215978699773 12.8705209817072  14.9668164647606 12.1265333812684  14.9666666666667 11.2096510638298  L 14.9666666666667 3.35955404255319  Z M 13.8625777777778 11.2096510638298  C 13.8626276635869 11.5188421533814  13.6113115525708 11.7697223700385  13.3008 11.7704544680851  L 1.69911111111111 11.7704544680851  C 1.38861394433142 11.7697223000757  1.1373233098933 11.5188278173147  1.13742222222222 11.2096510638298  L 1.13742222222222 1.79043744680851  C 1.13737222206032 1.48128082204084  1.38863429040723 1.23041486033752  1.69911111111111 1.22963404255319  L 5.56577777777778 1.22963404255319  L 7.08933333333333 2.79875063829787  L 13.3005333333333 2.79875063829787  C 13.6110448859041 2.79948273634449  13.8623609969202 3.0503629530016  13.8623111111111 3.35955404255319  L 13.8623111111111 11.2096510638298  Z M 8.11146666666667 4.74235574468085  L 7.00773333333333 4.74235574468085  L 7.00773333333333 6.84890893617021  L 4.89822222222222 6.84890893617021  L 4.89822222222222 7.95122042553192  L 7.00773333333333 7.95122042553192  L 7.00773333333333 10.0577736170213  L 8.11182222222222 10.0577736170213  L 8.11182222222222 7.95077787234043  L 10.2213333333333 7.95077787234043  L 10.2213333333333 6.84846638297872  L 8.11182222222222 6.84846638297872  L 8.11182222222222 4.74191319148936  Z " fill-rule="nonzero" fill="#242f44" stroke="none" transform="matrix(1 0 0 1 187 31 )" />
  </g>
</svg>