<?xml version="1.0" encoding="utf-8"?>
<svg version="1.1" xmlns:xlink="http://www.w3.org/1999/xlink" width="28px" height="28px" xmlns="http://www.w3.org/2000/svg">
  <g transform="matrix(1 0 0 1 -180 -23 )">
    <path d="M 194 23  C 201.84 23  208 29.16  208 37  C 208 44.84  201.84 51  194 51  C 186.16 51  180 44.84  180 37  C 180 29.16  186.16 23  194 23  Z " fill-rule="nonzero" fill="#ffffff" stroke="none" />
    <path d="M 194 23.5  C 201.56 23.5  207.5 29.44  207.5 37  C 207.5 44.56  201.56 50.5  194 50.5  C 186.44 50.5  180.5 44.56  180.5 37  C 180.5 29.44  186.44 23.5  194 23.5  Z " stroke-width="1" stroke="#64f4af" fill="none" />
  </g>
</svg>