<?xml version="1.0" encoding="utf-8"?>
<svg version="1.1" xmlns:xlink="http://www.w3.org/1999/xlink" width="10px" height="12px" xmlns="http://www.w3.org/2000/svg">
  <g transform="matrix(1 0 0 1 -158 -31 )">
    <path d="M 9.949175 1.57476351666667  C 9.94920865131579 1.09403131666667  9.67527226973684 1.02233166666667  9.20100014802632 1.02233166666667  L 7.0554569243421 1.02233166666667  C 7.0554569243421 0.613009183333333  6.74117736842105 0.118411183333333  6.35312889802631 0.118411183333333  L 3.89588123355263 0.118411183333333  C 3.50788324013158 0.118411183333333  3.19360370065789 0.613009183333333  3.19360370065789 1.02233166666667  L 1.04811097039474 1.02233166666667  C 0.574596217105263 1.02233166666667  0.0527268914473683 1.09401426666667  0.0527268914473683 1.57476351666667  L 0.0527268914473683 2.31851951666667  L 9.949175 2.31851951666667  L 9.949175 1.57476351666667  Z M 9.09084324013158 3.18832978333333  L 0.927956628289474 3.18832978333333  L 0.927956628289474 10.2710754166667  C 0.927956628289474 10.9912783166667  1.62476419407895 11.8693773666667  2.33544024671053 11.8693773666667  L 7.91368766447368 11.8693773666667  C 8.62517159539474 11.8693773666667  9.09084324013158 10.9912783166667  9.09084324013158 10.2710754166667  L 9.09084324013158 3.18832978333333  Z M 3.27186641447368 4.15177256666667  L 3.27186641447368 10.4191989833333  L 2.41311391447368 10.4191989833333  L 2.41311391447368 4.15177256666667  L 3.27186641447368 4.15177256666667  Z M 5.42293009868421 4.15177256666667  L 5.42293009868421 10.4191989833333  L 4.56417759868421 10.4191989833333  L 4.56417759868421 4.15177256666667  L 5.42293009868421 4.15177256666667  Z M 7.57399378289474 4.15177256666667  L 7.57399378289474 10.4191989833333  L 6.71524128289474 10.4191989833333  L 6.71524128289474 4.15177256666667  L 7.57399378289474 4.15177256666667  Z " fill-rule="nonzero" fill="#d9001b" stroke="none" transform="matrix(1 0 0 1 158 31 )" />
  </g>
</svg>