<?xml version="1.0" encoding="utf-8"?>
<svg version="1.1" xmlns:xlink="http://www.w3.org/1999/xlink" width="14px" height="12px" xmlns="http://www.w3.org/2000/svg">
  <g transform="matrix(1 0 0 1 -124 -31 )">
    <path d="M 13.1793103448276 10.3034482758621  L 13.1793103448276 6  C 13.1793103448276 5.80137931034483  13.3337931034483 5.66896551724138  13.5655172413793 5.66896551724138  C 13.7972413793103 5.66896551724138  13.951724137931 5.80137931034483  13.951724137931 6  L 13.951724137931 6.92909280500521  L 13.951724137931 10.3034482758621  C 13.951724137931 11.2303448275862  13.1020689655172 11.9586206896552  12.0206896551724 12  L 1.97931034482758 12  C 0.897931034482752 11.9586206896552  0.0482758620689623 11.2303448275862  0.0482758620689623 10.3034482758621  L 0.0482758620689623 1.69655172413793  C 0.0482758620689623 0.769655172413792  0.897931034482752 0.0413793103448263  1.97931034482758 0.0413793103448263  L 7 0.0413793103448263  C 7.23172413793104 0.0413793103448263  7.38620689655173 0.173793103448276  7.38620689655173 0.372413793103448  C 7.38620689655173 0.57103448275862  7.23172413793104 0.703448275862069  7 0.703448275862069  L 1.97931034482758 0.703448275862069  C 1.36137931034483 0.703448275862069  0.820689655172416 1.16689655172414  0.820689655172416 1.69655172413793  L 0.820689655172416 10.3034482758621  C 0.820689655172416 10.8331034482759  1.36137931034483 11.2965517241379  1.97931034482758 11.2965517241379  L 5.94577685088635 11.2965517241379  L 12.0206896551724 11.2965517241379  C 12.6386206896552 11.2965517241379  13.1793103448276 10.8331034482759  13.1793103448276 10.3034482758621  Z M 12.7931034482759 2.4248275862069  C 13.2565517241379 2.02758620689655  13.2565517241379 1.43172413793103  12.7931034482759 1.03448275862069  C 12.3296551724138 0.637241379310346  11.6344827586207 0.637241379310346  11.1710344827586 1.03448275862069  L 5.91862068965517 5.47034482758621  L 5.68689655172413 5.86758620689655  L 5.22344827586207 7.12551724137931  L 5.22344827586207 7.32413793103449  C 5.30068965517242 7.52275862068966  5.53241379310344 7.58896551724138  5.68689655172413 7.52275862068966  L 7.15448275862069 7.12551724137931  C 7.30896551724138 7.05931034482759  7.46344827586206 6.99310344827586  7.61793103448277 6.86068965517241  L 12.7931034482759 2.4248275862069  Z M 10.5531034482759 0.57103448275862  C 11.4027586206897 -0.0910344827586229  12.5613793103448 -0.0910344827586229  13.3337931034483 0.57103448275862  C 14.1062068965517 1.23310344827586  14.1062068965517 2.29241379310345  13.3337931034483 2.88827586206897  L 8.15862068965517 7.32413793103449  C 7.92689655172414 7.52275862068966  7.6951724137931 7.6551724137931  7.38620689655173 7.72137931034483  L 5.91862068965517 8.11862068965517  C 5.30068965517242 8.31724137931035  4.68275862068965 7.98620689655172  4.45103448275862 7.52275862068966  C 4.37379310344828 7.32413793103449  4.37379310344828 7.12551724137931  4.45103448275862 6.92689655172414  L 4.91448275862069 5.66896551724138  C 4.99172413793103 5.40413793103448  5.14620689655172 5.20551724137931  5.37793103448276 5.00689655172414  L 10.5531034482759 0.57103448275862  Z " fill-rule="nonzero" fill="#000000" stroke="none" transform="matrix(1 0 0 1 124 31 )" />
  </g>
</svg>