<?xml version="1.0" encoding="utf-8"?>
<svg version="1.1" xmlns:xlink="http://www.w3.org/1999/xlink" width="28px" height="28px" xmlns="http://www.w3.org/2000/svg">
  <g transform="matrix(1 0 0 1 -149 -23 )">
    <path d="M 163 23  C 170.84 23  177 29.16  177 37  C 177 44.84  170.84 51  163 51  C 155.16 51  149 44.84  149 37  C 149 29.16  155.16 23  163 23  Z " fill-rule="nonzero" fill="#ffffff" stroke="none" />
    <path d="M 163 23.5  C 170.56 23.5  176.5 29.44  176.5 37  C 176.5 44.56  170.56 50.5  163 50.5  C 155.44 50.5  149.5 44.56  149.5 37  C 149.5 29.44  155.44 23.5  163 23.5  Z " stroke-width="1" stroke="#d9001b" fill="none" />
  </g>
</svg>