<?xml version="1.0" encoding="utf-8"?>
<svg version="1.1" xmlns:xlink="http://www.w3.org/1999/xlink" width="28px" height="28px" xmlns="http://www.w3.org/2000/svg">
  <g transform="matrix(1 0 0 1 -117 -23 )">
    <path d="M 131 23  C 138.84 23  145 29.16  145 37  C 145 44.84  138.84 51  131 51  C 123.16 51  117 44.84  117 37  C 117 29.16  123.16 23  131 23  Z " fill-rule="nonzero" fill="#ffffff" stroke="none" />
    <path d="M 131 23.5  C 138.56 23.5  144.5 29.44  144.5 37  C 144.5 44.56  138.56 50.5  131 50.5  C 123.44 50.5  117.5 44.56  117.5 37  C 117.5 29.44  123.44 23.5  131 23.5  Z " stroke-width="1" stroke="#5ac8fa" fill="none" />
  </g>
</svg>