<?xml version="1.0" encoding="utf-8"?>
<svg version="1.1" xmlns:xlink="http://www.w3.org/1999/xlink" width="16px" height="57px" xmlns="http://www.w3.org/2000/svg">
  <g transform="matrix(1 0 0 1 -64 -97 )">
    <path d="M 15.7184 55.0717714285714  C 15.7184 56.0272  14.9504 56.8089142857143  14.0117333333333 56.8089142857143  L 7.8336 56.8089142857143  C 3.84853333333333 56.8089142857143  0.597333333333334 53.5083428571429  0.597333333333334 49.4434285714286  L 0.597333333333334 8.50765714285714  C 0.597333333333334 4.45142857142857  3.84 1.14217142857143  7.8336 1.14217142857143  L 14.0117333333333 1.14217142857143  C 14.9504 1.14217142857143  15.7184 1.92388571428571  15.7184 2.87931428571429  L 15.7184 55.0717714285714  Z M 12 4.61645714285715  L 7.8336 4.61645714285715  C 5.72586666666666 4.61645714285715  4.01066666666667 6.36228571428572  4 8.50765714285714  L 4 49.4434285714286  C 4.01066666666667 51.5888  5.72586666666666 53.3346285714286  7.8336 53.3346285714286  L 12 53.3346285714286  L 12 4.61645714285715  Z " fill-rule="nonzero" fill="#010101" stroke="none" transform="matrix(1 0 0 1 64 97 )" />
  </g>
</svg>