<?xml version="1.0" encoding="utf-8"?>
<svg version="1.1" xmlns:xlink="http://www.w3.org/1999/xlink" width="29px" height="84px" xmlns="http://www.w3.org/2000/svg">
  <g transform="matrix(1 0 0 1 -75 -83 )">
    <path d="M 27.7535272727273 68.4933245901639  C 27.7450909090909 76.3986885245902  21.5949818181818 82.8322622950819  14.0275636363636 82.832262295082  C 6.46014545454545 82.832262295082  0.30159999999999 76.3986885245902  0.30159999999999 68.4933245901639  L 0.30159999999999 15.0858491803279  C 0.30159999999999 7.18048524590163  6.46014545454544 0.746911475409817  14.0275636363636 0.746911475409817  C 21.5949818181818 0.746911475409817  27.7535272727273 7.18048524590162  27.7535272727273 15.0858491803279  L 27.7535272727273 68.4933245901639  Z M 24 15.094662295082  C 24.3705454545455 9.12818360655739  19.7305454545455 4.28097049180328  14.0275636363636 4.28097049180328  C 8.32458181818181 4.28097049180328  3.67614545454545 9.12818360655739  4 15.094662295082  L 4 68.502137704918  C 3.67614545454545 74.4598032786885  8.31614545454545 79.3158295081967  14.0275636363636 79.3158295081967  C 19.7305454545455 79.3158295081967  24.3789818181818 74.4686163934426  24 68.502137704918  L 24 15.094662295082  Z " fill-rule="nonzero" fill="#010101" stroke="none" transform="matrix(1 0 0 1 75 83 )" />
  </g>
</svg>