<?xml version="1.0" encoding="utf-8"?>
<svg version="1.1" xmlns:xlink="http://www.w3.org/1999/xlink" width="18px" height="57px" xmlns="http://www.w3.org/2000/svg">
  <g transform="matrix(1 0 0 1 -148 -97 )">
    <path d="M 16.7549538461538 49.4434285714286  C 16.7549538461538 53.4996571428571  13.3787076923077 56.8089142857143  9.24036923076922 56.8089142857143  L 2.82461538461537 56.8089142857143  C 1.84984615384615 56.8089142857143  1.05230769230768 56.0272  1 55.0717714285714  L 1 2.87931428571429  C 1.05230769230768 1.92388571428572  1.84984615384613 1.14217142857143  2.82461538461537 1.14217142857143  L 9.24036923076922 1.14217142857143  C 13.3787076923077 1.14217142857143  16.7549538461538 4.44274285714286  16.7549538461538 8.50765714285714  L 16.7549538461538 49.4434285714286  Z M 4.59692307692307 4.61645714285715  L 4.59692307692307 53.3346285714286  L 9.24036923076922 53.3346285714286  C 11.4291692307692 53.3346285714286  13.2103384615384 51.5888  13 49.4434285714286  L 13 8.50765714285714  C 13.2103384615384 6.36228571428572  11.4291692307692 4.61645714285715  9.24036923076922 4.61645714285715  L 4.59692307692307 4.61645714285715  Z " fill-rule="nonzero" fill="#010101" stroke="none" transform="matrix(1 0 0 1 148 97 )" />
  </g>
</svg>