<?xml version="1.0" encoding="utf-8"?>
<svg version="1.1" xmlns:xlink="http://www.w3.org/1999/xlink" width="72px" height="79px" xmlns="http://www.w3.org/2000/svg">
  <g transform="matrix(1 0 0 1 -82 -86 )">
    <path d="M 25 66.3861517241379  C 24.9744905660377 73.2553379310345  19.4188075471698 78.8256551724138  12.5763622641509 78.8256551724138  C 5.72522264150943 78.8256551724138  0.1695396226415 73.2553379310345  1 66.3861517241379  L 1 13.5596689655172  C 0.1695396226415 6.69048275862068  5.72522264150942 1.12016551724136  12.5763622641509 1.12016551724136  C 19.4275018867925 1.12016551724136  24.9831849056604 6.69048275862067  25 13.5596689655172  L 25 66.3861517241379  Z M 71 66.3861517241379  C 71.2631547169811 73.2553379310345  65.7074716981132 78.8256551724138  58.8563320754717 78.8256551724138  C 52.0051924528302 78.8256551724138  46.4495094339622 73.2553379310345  46 66.3861517241379  L 46 13.5596689655172  C 46.4495094339622 6.69048275862068  52.0051924528302 1.12016551724136  58.8563320754717 1.12016551724136  C 65.7074716981132 1.12016551724136  71.2631547169811 6.69048275862067  71 13.5596689655172  L 71 66.3861517241379  Z " fill-rule="nonzero" fill="#66d0ff" stroke="none" transform="matrix(1 0 0 1 82 86 )" />
  </g>
</svg>