<?xml version="1.0" encoding="utf-8"?>
<svg version="1.1" xmlns:xlink="http://www.w3.org/1999/xlink" width="16px" height="38px" xmlns="http://www.w3.org/2000/svg">
  <g transform="matrix(1 0 0 1 -55 -106 )">
    <path d="M 14.5570909090909 36.1130285714286  C 14.5570909090909 37.0771428571429  13.7285818181818 37.8501714285714  12.6952727272727 37.8501714285714  L 9.2509090909091 37.8501714285714  C 4.90356363636364 37.8501714285714  1.35680000000001 34.5496  1.35680000000001 30.4846857142857  L 1.35680000000001 8.45771428571429  C 1.35680000000001 4.40148571428572  4.89425454545455 1.09222857142857  9.2509090909091 1.09222857142857  L 12.6952727272727 1.09222857142857  C 13.7192727272727 1.09222857142857  14.5570909090909 1.87394285714285  14.5570909090909 2.82937142857143  L 14.5570909090909 36.1130285714286  Z M 9.2509090909091 4.5752  L 9.2509090909091 4.56651428571429  C 6.95156363636364 4.56651428571429  5.08043636363637 6.31234285714286  5 8.45771428571429  L 5 30.4933714285714  C 5.08043636363637 32.6387428571429  6.95156363636364 34.3845714285714  9.2509090909091 34.3845714285714  L 10.8334545454546 34.3845714285714  L 10.8334545454546 4.5752  L 9.2509090909091 4.5752  Z " fill-rule="nonzero" fill="#010101" stroke="none" transform="matrix(1 0 0 1 55 106 )" />
  </g>
</svg>