<?xml version="1.0" encoding="utf-8"?>
<svg version="1.1" xmlns:xlink="http://www.w3.org/1999/xlink" width="13px" height="13px" xmlns="http://www.w3.org/2000/svg">
  <g transform="matrix(1 0 0 1 -1469 -25 )">
    <path d="M 0.0936568318584076 6.45017419247788  C 0.0889331006637168 2.899882375  2.98745243141593 0.000200507743362797  6.54065794579646 0.00059782743362835  C 10.0940253274336 0.000995147123893902  12.9941633882743 2.90282550884956  12.9871587179204 6.45086582411504  C 12.9801098993363 10.0120766637168  10.0846072876106 12.9054749435841  6.53647869026549 12.896807409292  C 2.97784308738938 12.8881251493363  0.0983658517699117 10.0069556128319  0.0936568318584076 6.45017419247788  Z M 6.53686129867257 12.2835900320796  C 9.74854516482301 12.2927431825221  12.37891525 9.66493362278761  12.3784002112832 6.44773137168142  C 12.3778851581858 3.23236859181416  9.77384142477876 0.619039263274336  6.54385125774336 0.612417201327434  C 3.32417677765487 0.605824576327434  0.706432741150443 3.21893316371681  0.703062850663717 6.44790796460177  C 0.699707671460177 9.66357976769912  3.31238951659292 12.2744074446903  6.53686129867257 12.2835900320796  Z M 6.92835742035398 8.08596987278761  C 6.91711463495575 8.23174347455752  6.90947719247788 8.37781138827434  6.89970598119469 8.53197290929204  C 6.62441963495575 8.53197290929204  6.35647641924779 8.53197290929204  6.08089576106195 8.53197290929204  C 6.08089576106195 8.3684227710177  6.07215464159292 8.20787462610619  6.08273521792035 8.0486067511062  C 6.10408767477876 7.72699542256637  6.17847547234513 7.41852521017699  6.34652861504425 7.13830910287611  C 6.47730691814159 6.92023733849558  6.64384433849557 6.73205314933628  6.8288646670354 6.55911439380531  C 7.05865010730088 6.34433894911504  7.29117268030973 6.13233005973451  7.51639625663717 5.91286030641593  C 7.64901401659292 5.78364185951327  7.76688667035398 5.63950171349557  7.82816278871681 5.46011750331858  C 7.97495175663717 5.03037530973451  7.8811098329646 4.64661963827434  7.59521347345133 4.30483310066372  C 7.12042656747788 3.73723436283186  6.32633869469027 3.71779493362832  5.84005882522124 4.00188125884956  C 5.5335605 4.18092702323009  5.34979101880531 4.45490366261062  5.2425136670354 4.78438788606195  C 5.19442279867257 4.93210395243363  5.16120949557522 5.08466146902655  5.11810724778761 5.24679890707965  C 4.8355072079646 5.21324714380531  4.5462409579646 5.17890072676991  4.24612924225664 5.14327405420354  C 4.25732787942478 5.06841535176991  4.26534793030973 4.99803023119469  4.278665625 4.92866047676991  C 4.35339188274336 4.53951886504425  4.48846716039823 4.17660059734513  4.74248934623894 3.86531968141593  C 5.05194551659292 3.48611116261062  5.45511118030973 3.26531699115044  5.93003053097345 3.17416803761062  C 6.42574315154867 3.07903111836283  6.92113200884956 3.08930267146018  7.40320318584071 3.24587757632743  C 8.02042322566372 3.44633465707965  8.47713926880531 3.8380220829646  8.68468931637168 4.46195248119469  C 8.88395442367257 5.06096921349558  8.78605096349558 5.62683150221239  8.3938190619469 6.13233005973451  C 8.14500623783186 6.45299957853982  7.83556477876106 6.71352609292035  7.54476809513274 6.99274153097345  C 7.41684462942478 7.11557336836283  7.2874201670354 7.23917042256637  7.1763020199115 7.37664435840708  C 7.01125088495575 7.58082451548673  6.94825302876106 7.82776844579646  6.92835742035398 8.08596987278761  Z M 6.99780074557522 10.2639650663717  C 6.67557135619469 10.2639650663717  6.35343026327434 10.2639650663717  6.02771326438053 10.2639650663717  C 6.02771326438053 9.94048484402655  6.02771326438053 9.62012434845133  6.02771326438053 9.29455450553097  C 6.35182625884956 9.29455450553097  6.67211316924779 9.29455450553097  6.99780074557522 9.29455450553097  C 6.99780074557522 9.6170487699115  6.99780074557522 9.9374975619469  6.99780074557522 10.2639650663717  Z " fill-rule="nonzero" fill="#000000" stroke="none" transform="matrix(1 0 0 1 1469 25 )" />
  </g>
</svg>