<?xml version="1.0" encoding="utf-8"?>
<svg version="1.1" xmlns:xlink="http://www.w3.org/1999/xlink" width="28px" height="28px" xmlns="http://www.w3.org/2000/svg">
  <g transform="matrix(1 0 0 1 -400 -74 )">
    <path d="M 414 74.5  C 421.56 74.5  427.5 80.44  427.5 88  C 427.5 95.56  421.56 101.5  414 101.5  C 406.44 101.5  400.5 95.56  400.5 88  C 400.5 80.44  406.44 74.5  414 74.5  Z " fill-rule="nonzero" fill="#ffffff" stroke="none" />
    <path d="M 414 74.5  C 421.56 74.5  427.5 80.44  427.5 88  C 427.5 95.56  421.56 101.5  414 101.5  C 406.44 101.5  400.5 95.56  400.5 88  C 400.5 80.44  406.44 74.5  414 74.5  Z " stroke-width="1" stroke-dasharray="3,1" stroke="#027db4" fill="none" stroke-dashoffset="0.5" />
  </g>
</svg>