<?xml version="1.0" encoding="utf-8"?>
<svg version="1.1" xmlns:xlink="http://www.w3.org/1999/xlink" width="129px" height="105px" xmlns="http://www.w3.org/2000/svg">
  <defs>
    <mask fill="white" id="clip170">
      <path d="M 128.000034625 98.979891875  C 128.000034625 102.128  125.44868325 104.61881075  122.387061625 104.61881075  L 5.613007625 104.61881075  C 2.47873725 104.61881075  3.4625E-05 102.055351375  3.4625E-05 98.979891875  L 3.4625E-05 6.47394600000001  C 3.4625E-05 3.32583787500001  2.551386 0.83502712500001  5.613007625 0.835027000000011  L 122.387061625 0.835027000000011  C 125.521331875 0.835027000000011  128.000034625 3.39848650000001  128.000034625 6.47394600000001  L 128.000034625 98.979891875  Z " fill-rule="evenodd" />
    </mask>
  </defs>
  <g transform="matrix(1 0 0 1 -67 -157 )">
    <path d="M 128.000034625 98.979891875  C 128.000034625 102.128  125.44868325 104.61881075  122.387061625 104.61881075  L 5.613007625 104.61881075  C 2.47873725 104.61881075  3.4625E-05 102.055351375  3.4625E-05 98.979891875  L 3.4625E-05 6.47394600000001  C 3.4625E-05 3.32583787500001  2.551386 0.83502712500001  5.613007625 0.835027000000011  L 122.387061625 0.835027000000011  C 125.521331875 0.835027000000011  128.000034625 3.39848650000001  128.000034625 6.47394600000001  L 128.000034625 98.979891875  Z " fill-rule="nonzero" fill="#ffa000" stroke="none" transform="matrix(1 0 0 1 67 157 )" />
    <path d="M 128.000034625 98.979891875  C 128.000034625 102.128  125.44868325 104.61881075  122.387061625 104.61881075  L 5.613007625 104.61881075  C 2.47873725 104.61881075  3.4625E-05 102.055351375  3.4625E-05 98.979891875  L 3.4625E-05 6.47394600000001  C 3.4625E-05 3.32583787500001  2.551386 0.83502712500001  5.613007625 0.835027000000011  L 122.387061625 0.835027000000011  C 125.521331875 0.835027000000011  128.000034625 3.39848650000001  128.000034625 6.47394600000001  L 128.000034625 98.979891875  Z " stroke-width="2" stroke="#555555" fill="none" transform="matrix(1 0 0 1 67 157 )" mask="url(#clip170)" />
  </g>
</svg>