<?xml version="1.0" encoding="utf-8"?>
<svg version="1.1" xmlns:xlink="http://www.w3.org/1999/xlink" width="112px" height="87px" xmlns="http://www.w3.org/2000/svg">
  <defs>
    <mask fill="white" id="clip172">
      <path d="M 111.351386 81.16475675  C 111.422304875 84.183135125  108.86057525 86.699891875  105.712467 86.699891875  L 6.287602125 86.699891875  C 3.139494 86.699891875  0.648683249999999 84.183135125  0.648683249999999 81.16475675  L 0.648683249999999 5.74854050000001  C 0.648683249999999 2.6575135  3.210413 0.213405375000004  6.287602125 0.213405375000004  L 105.712467 0.213405375000004  C 108.860575125 0.213405375000004  111.351385875 2.730162125  111.351386 5.74854050000001  L 111.351386 81.16475675  Z " fill-rule="evenodd" />
    </mask>
  </defs>
  <g transform="matrix(1 0 0 1 -75 -168 )">
    <path d="M 111.351386 81.16475675  C 111.422304875 84.183135125  108.86057525 86.699891875  105.712467 86.699891875  L 6.287602125 86.699891875  C 3.139494 86.699891875  0.648683249999999 84.183135125  0.648683249999999 81.16475675  L 0.648683249999999 5.74854050000001  C 0.648683249999999 2.6575135  3.210413 0.213405375000004  6.287602125 0.213405375000004  L 105.712467 0.213405375000004  C 108.860575125 0.213405375000004  111.351385875 2.730162125  111.351386 5.74854050000001  L 111.351386 81.16475675  Z " fill-rule="nonzero" fill="#ffffff" stroke="none" transform="matrix(1 0 0 1 75 168 )" />
    <path d="M 111.351386 81.16475675  C 111.422304875 84.183135125  108.86057525 86.699891875  105.712467 86.699891875  L 6.287602125 86.699891875  C 3.139494 86.699891875  0.648683249999999 84.183135125  0.648683249999999 81.16475675  L 0.648683249999999 5.74854050000001  C 0.648683249999999 2.6575135  3.210413 0.213405375000004  6.287602125 0.213405375000004  L 105.712467 0.213405375000004  C 108.860575125 0.213405375000004  111.351385875 2.730162125  111.351386 5.74854050000001  L 111.351386 81.16475675  Z " stroke-width="2" stroke="#555555" fill="none" transform="matrix(1 0 0 1 75 168 )" mask="url(#clip172)" />
  </g>
</svg>