<?xml version="1.0" encoding="utf-8"?>
<svg version="1.1" xmlns:xlink="http://www.w3.org/1999/xlink" width="65px" height="36px" xmlns="http://www.w3.org/2000/svg">
  <defs>
    <mask fill="white" id="clip171">
      <path d="M 64.000034625 35.052973  L 64.000034625 35.05124325  L 3.4625E-05 35.05124325  L 3.4625E-05 6.112864875  C -0.010495600223726 3.00154252876857  2.50169609096157 0.469996507293457  5.613007625 0.456648625  L 49.421872375 0.456648625  C 51.900575125 0.456648625  54.0869535 2.07221625  54.81516975 4.495567625  L 64.000034625 35.052973  Z " fill-rule="evenodd" />
    </mask>
  </defs>
  <g transform="matrix(1 0 0 1 -67 -147 )">
    <path d="M 64.000034625 35.052973  L 64.000034625 35.05124325  L 3.4625E-05 35.05124325  L 3.4625E-05 6.112864875  C -0.010495600223726 3.00154252876857  2.50169609096157 0.469996507293457  5.613007625 0.456648625  L 49.421872375 0.456648625  C 51.900575125 0.456648625  54.0869535 2.07221625  54.81516975 4.495567625  L 64.000034625 35.052973  Z " fill-rule="nonzero" fill="#ffa000" stroke="none" transform="matrix(1 0 0 1 67 147 )" />
    <path d="M 64.000034625 35.052973  L 64.000034625 35.05124325  L 3.4625E-05 35.05124325  L 3.4625E-05 6.112864875  C -0.010495600223726 3.00154252876857  2.50169609096157 0.469996507293457  5.613007625 0.456648625  L 49.421872375 0.456648625  C 51.900575125 0.456648625  54.0869535 2.07221625  54.81516975 4.495567625  L 64.000034625 35.052973  Z " stroke-width="2" stroke="#555555" fill="none" transform="matrix(1 0 0 1 67 147 )" mask="url(#clip171)" />
  </g>
</svg>