<?xml version="1.0" encoding="utf-8"?>
<svg version="1.1" xmlns:xlink="http://www.w3.org/1999/xlink" width="39px" height="25px" xmlns="http://www.w3.org/2000/svg">
  <g transform="matrix(1 0 0 1 -77 -194 )">
    <path d="M 35.55765625 5.716973  L 35.55765625 6  L 3.329331875 6  C 1.73971025 5.7135135  0.378413 4.50270275  0.378413 2.939027  C 0.378413 1.44281075  1.665331875 0.161081000000003  3.329331875 0.161081125000003  L 35.481548125 0.161081125000003  C 37.07116975 0.161081125000003  38.432467 1.371891875  38.432467 2.939027  C 38.432467 4.4335135  37.145548125 5.716973  35.55765625 5.716973  Z M 38.432467 21.597621625  C 38.432467 23.16475675  37.145548125 24.375567625  35.55765625 24  L 3.329331875 24  C 1.73971025 24.375567625  0.378412999999998 23.164756875  0.378412999999998 21.597621625  C 0.378412999999998 20.0304865  1.665331875 18.819675625  3.329331875 18.819675625  L 35.481548125 18.819675625  C 37.07116975 18.819675625  38.432467 20.030486375  38.432467 21.597621625  Z " fill-rule="nonzero" fill="#fff8e1" stroke="none" transform="matrix(1 0 0 1 77 194 )" />
  </g>
</svg>