<?xml version="1.0" encoding="utf-8"?>
<svg version="1.1" xmlns:xlink="http://www.w3.org/1999/xlink" width="129px" height="84px" xmlns="http://www.w3.org/2000/svg">
  <defs>
    <mask fill="white" id="clip173">
      <path d="M 128.000034625 78.0784865  C 128.000034625 81.172973  125.44868325 83.618810875  122.387061625 83.61881075  L 5.613007625 83.61881075  C 2.47873725 83.61881075  3.4625E-05 81.100324375  3.4625E-05 78.0784865  L 3.4625E-05 6.132108125  C 3.4625E-05 3.037621625  2.551386 0.591783750000005  5.613007625 0.591783750000005  L 122.387061625 0.591783750000005  C 125.521331875 0.591783750000005  128.000034625 3.11027025000001  128.000034625 6.132108125  L 128.000034625 78.0784865  Z " fill-rule="evenodd" />
    </mask>
  </defs>
  <g transform="matrix(1 0 0 1 -67 -178 )">
    <path d="M 128.000034625 78.0784865  C 128.000034625 81.172973  125.44868325 83.618810875  122.387061625 83.61881075  L 5.613007625 83.61881075  C 2.47873725 83.61881075  3.4625E-05 81.100324375  3.4625E-05 78.0784865  L 3.4625E-05 6.132108125  C 3.4625E-05 3.037621625  2.551386 0.591783750000005  5.613007625 0.591783750000005  L 122.387061625 0.591783750000005  C 125.521331875 0.591783750000005  128.000034625 3.11027025000001  128.000034625 6.132108125  L 128.000034625 78.0784865  Z " fill-rule="nonzero" fill="#ffca28" stroke="none" transform="matrix(1 0 0 1 67 178 )" />
    <path d="M 128.000034625 78.0784865  C 128.000034625 81.172973  125.44868325 83.618810875  122.387061625 83.61881075  L 5.613007625 83.61881075  C 2.47873725 83.61881075  3.4625E-05 81.100324375  3.4625E-05 78.0784865  L 3.4625E-05 6.132108125  C 3.4625E-05 3.037621625  2.551386 0.591783750000005  5.613007625 0.591783750000005  L 122.387061625 0.591783750000005  C 125.521331875 0.591783750000005  128.000034625 3.11027025000001  128.000034625 6.132108125  L 128.000034625 78.0784865  Z " stroke-width="2" stroke="#555555" fill="none" transform="matrix(1 0 0 1 67 178 )" mask="url(#clip173)" />
  </g>
</svg>