<?xml version="1.0" encoding="utf-8"?>
<svg version="1.1" xmlns:xlink="http://www.w3.org/1999/xlink" width="32px" height="32px" xmlns="http://www.w3.org/2000/svg">
  <g transform="matrix(1 0 0 1 -147 -315 )">
    <path d="M 163 315  C 171.96 315  179 322.04  179 331  C 179 339.96  171.96 347  163 347  C 154.04 347  147 339.96  147 331  C 147 322.04  154.04 315  163 315  Z " fill-rule="nonzero" fill="#ffffff" stroke="none" />
    <path d="M 163 315.5  C 171.68 315.5  178.5 322.32  178.5 331  C 178.5 339.68  171.68 346.5  163 346.5  C 154.32 346.5  147.5 339.68  147.5 331  C 147.5 322.32  154.32 315.5  163 315.5  Z " stroke-width="1" stroke="#81d3f8" fill="none" />
  </g>
</svg>