<?xml version="1.0" encoding="utf-8"?>
<svg version="1.1" xmlns:xlink="http://www.w3.org/1999/xlink" width="32px" height="32px" xmlns="http://www.w3.org/2000/svg">
  <g transform="matrix(1 0 0 1 -76 -315 )">
    <path d="M 92 315  C 100.96 315  108 322.04  108 331  C 108 339.96  100.96 347  92 347  C 83.04 347  76 339.96  76 331  C 76 322.04  83.04 315  92 315  Z " fill-rule="nonzero" fill="#ffffff" stroke="none" />
    <path d="M 92 315.5  C 100.68 315.5  107.5 322.32  107.5 331  C 107.5 339.68  100.68 346.5  92 346.5  C 83.32 346.5  76.5 339.68  76.5 331  C 76.5 322.32  83.32 315.5  92 315.5  Z " stroke-width="1" stroke="#ec808d" fill="none" />
  </g>
</svg>