<?xml version="1.0" encoding="utf-8"?>
<svg version="1.1" xmlns:xlink="http://www.w3.org/1999/xlink" width="32px" height="32px" xmlns="http://www.w3.org/2000/svg">
  <g transform="matrix(1 0 0 1 -112 -315 )">
    <path d="M 128 315  C 136.96 315  144 322.04  144 331  C 144 339.96  136.96 347  128 347  C 119.04 347  112 339.96  112 331  C 112 322.04  119.04 315  128 315  Z " fill-rule="nonzero" fill="#ffffff" stroke="none" />
    <path d="M 128 315.5  C 136.68 315.5  143.5 322.32  143.5 331  C 143.5 339.68  136.68 346.5  128 346.5  C 119.32 346.5  112.5 339.68  112.5 331  C 112.5 322.32  119.32 315.5  128 315.5  Z " stroke-width="1" stroke="#facd91" fill="none" />
  </g>
</svg>