<?xml version="1.0" encoding="utf-8"?>
<svg version="1.1" xmlns:xlink="http://www.w3.org/1999/xlink" width="21px" height="21px" xmlns="http://www.w3.org/2000/svg">
  <g transform="matrix(1 0 0 1 -118 -320 )">
    <path d="M 17.7880396039604 17.8855128712871  C 15.8252673267327 19.8469544554455  13.2144475247525 20.9288079207921  10.4372910891089 20.9288079207921  C 7.66013465346535 20.9288079207921  5.04931485148515 19.8469544554455  3.08654257425743 17.8841821782178  C 1.1224396039604 15.9200792079208  0.0419168316831696 13.3092594059406  0.0419168316831696 10.5334336633663  C 0.0419168316831696 7.75627722772277  1.1237702970297 5.14545742574257  3.08654257425743 3.18268514851485  C 5.05064554455446 1.21858217821782  7.66013465346535 0.138059405940593  10.4372910891089 0.138059405940593  C 13.2144475247525 0.138059405940593  15.8252673267327 1.21991287128713  17.7880396039604 3.18268514851485  C 21.8413306930693 7.23597623762376  21.8413306930693 13.8322217821782  17.7880396039604 17.8855128712871  Z M 16.8459089108911 4.12082376237624  C 15.1359683168317 2.40955247524752  12.8591524752475 1.46609108910891  10.4372910891089 1.46609108910891  C 8.0154297029703 1.46609108910891  5.73861386138614 2.40955247524753  4.02734257425743 4.12082376237624  C 2.31474059405941 5.83475643564357  1.37127920792079 8.11024158415842  1.37127920792079 10.532102970297  C 1.37127920792079 12.9539643564356  2.31474059405941 15.2307801980198  4.02601188118812 16.9420514851485  C 5.73861386138614 18.6546534653465  8.0154297029703 19.5967841584158  10.4359603960396 19.5967841584158  C 12.8578217821782 19.5967841584158  15.1346376237624 18.6533227722772  16.8459089108911 16.9420514851485  C 20.3802297029703 13.4077306930693  20.3802297029703 7.65514455445545  16.8459089108911 4.12082376237624  Z " fill-rule="nonzero" fill="#555555" stroke="none" transform="matrix(1 0 0 1 118 320 )" />
  </g>
</svg>