<?xml version="1.0" encoding="utf-8"?>
<svg version="1.1" xmlns:xlink="http://www.w3.org/1999/xlink" width="21px" height="21px" xmlns="http://www.w3.org/2000/svg">
  <g transform="matrix(1 0 0 1 -82 -320 )">
    <path d="M 20.8629166666667 3.45766129032258  C 20.8629166666667 3.07943548387097  20.545 2.77459677419355  20.15125 2.77459677419355  L 14.1779166666667 2.77459677419355  L 14.1779166666667 1.58346774193548  C 14.1779166666667 0.753629032258065  13.5391666666667 0.0790322580645165  12.7545833333333 0.0790322580645165  L 8.155 0.0790322580645165  C 7.37041666666667 0.0790322580645165  6.73166666666667 0.753629032258065  6.73166666666667 1.58346774193548  L 6.73166666666667 2.77459677419355  L 0.84875 2.77459677419355  C 0.457916666666666 2.77459677419355  0.139999999999999 3.08225806451613  0.139999999999999 3.46048387096774  C 0.139999999999999 3.83870967741936  0.457916666666666 4.14637096774194  0.84875 4.14637096774194  L 2.205 4.14637096774194  L 3.29291666666667 18.9338709677419  C 3.29583333333333 19.5350806451613  3.50583333333333 20.0375  3.89666666666667 20.3903225806452  C 4.25833333333333 20.7120967741935  4.76291666666667 20.8899193548387  5.32583333333333 20.8899193548387  L 15.6770833333333 20.8899193548387  C 16.2458333333333 20.8899193548387  16.73 20.7233870967742  17.0829166666667 20.4072580645161  C 17.465 20.0657258064516  17.675 19.5717741935484  17.71 18.9395161290323  L 18.7979166666667 4.14354838709677  L 20.1541666666667 4.14354838709677  C 20.545 4.14354838709677  20.8629166666667 3.83588709677419  20.8629166666667 3.45766129032258  Z M 8.08791666666667 1.58346774193548  C 8.08791666666667 1.51854838709677  8.12583333333333 1.47620967741936  8.155 1.47620967741936  L 12.7575 1.47620967741936  C 12.78375 1.47620967741936  12.8245833333333 1.51854838709677  12.8245833333333 1.58346774193548  L 12.8245833333333 2.77459677419355  L 8.08791666666667 2.77459677419355  L 8.08791666666667 1.58346774193548  Z M 16.2925 18.8915322580645  C 16.23125 19.2782258064516  15.9979166666667 19.5181451612903  15.6770833333333 19.5181451612903  L 5.32291666666667 19.5181451612903  C 4.99333333333333 19.5181451612903  4.75708333333333 19.2782258064516  4.7075 18.8943548387097  L 3.56708333333333 4.14637096774193  L 17.4329166666667 4.14637096774193  L 16.2925 18.8915322580645  Z " fill-rule="nonzero" fill="#555555" stroke="none" transform="matrix(1 0 0 1 82 320 )" />
  </g>
</svg>