<?xml version="1.0" encoding="utf-8"?>
<svg version="1.1" xmlns:xlink="http://www.w3.org/1999/xlink" width="18px" height="20px" xmlns="http://www.w3.org/2000/svg">
  <g transform="matrix(1 0 0 1 -154 -321 )">
    <path d="M 17.8908415841584 7.25884955752212  C 17.8908415841584 6.86725663716814  17.5700495049505 6.54867256637168  17.1735148514851 6.54867256637168  C 16.7769801980198 6.54867256637168  16.4561881188119 6.86725663716814  16.4561881188119 7.25884955752212  L 16.4561881188119 7.26106194690266  L 16.449504950495 7.26106194690266  L 16.449504950495 17.1371681415929  C 16.449504950495 17.9159292035398  15.8079207920792 18.5530973451327  15.0237623762376 18.5530973451327  L 2.83366336633663 18.5530973451327  C 2.04950495049505 18.5530973451327  1.40792079207921 17.9159292035398  1.40792079207921 17.1371681415929  L 1.40792079207921 3.00884955752212  C 1.40792079207921 2.23008849557522  2.04950495049505 1.5929203539823  2.83366336633663 1.5929203539823  L 13.580198019802 1.5929203539823  C 13.9722772277228 1.58628318584071  14.2863861386139 1.27212389380531  14.2863861386139 0.882743362831859  C 14.2863861386139 0.491150442477876  13.9655940594059 0.172566371681416  13.5690594059406 0.172566371681416  C 13.5512376237624 0.172566371681416  13.5334158415842 0.172566371681416  13.5155940594059 0.174778761061947  L 2.91831683168317 0.174778761061947  C 1.35 0.174778761061947  0.0668316831683168 1.44911504424779  0 3.00663716814159  L 0 17.1592920353982  C 0.0668316831683168 18.716814159292  1.35 19.9911504424779  2.91831683168317 20  L 15.7054455445545 20  C 17.2737623762376 19.9911504424779  17.8886138613861 18.716814159292  17.8886138613861 17.1592920353982  L 17.8886138613861 7.31194690265487  C 17.8908415841584 7.29424778761062  17.8908415841584 7.27654867256637  17.8908415841584 7.25884955752212  Z " fill-rule="nonzero" fill="#515151" stroke="none" transform="matrix(1 0 0 1 154 321 )" />
  </g>
</svg>