<?xml version="1.0" encoding="utf-8"?>
<svg version="1.1" xmlns:xlink="http://www.w3.org/1999/xlink" width="9px" height="9px" xmlns="http://www.w3.org/2000/svg">
  <g transform="matrix(1 0 0 1 -88 -328 )">
    <path d="M 8.63881578947368 0.620270270270271  C 8.51447368421052 0.465202702702703  8.33684210526316 0.373986486486487  8.14736842105263 0.361824324324324  C 7.95493421052632 0.346621621621621  7.76842105263158 0.410472972972973  7.62335526315789 0.541216216216215  C 7.47828947368421 0.668918918918917  7.38947368421053 0.84831081081081  7.37467105263158 1.04594594594595  L 6.82401315789474 8.19121621621622  C 6.80921052631579 8.38885135135135  6.87138157894737 8.57736486486487  6.99868421052632 8.72939189189189  C 7.12598684210526 8.87837837837838  7.30065789473684 8.96959459459459  7.49013157894737 8.9847972972973  C 7.50789473684211 8.9847972972973  7.52565789473684 8.98783783783784  7.54342105263158 8.98783783783784  C 7.71513157894737 8.98783783783784  7.88092105263158 8.92398648648649  8.0141447368421 8.80844594594595  C 8.15921052631579 8.6777027027027  8.24802631578947 8.49831081081081  8.26282894736842 8.30371621621622  L 8.81348684210526 1.15844594594595  C 8.82828947368421 0.960810810810812  8.76611842105263 0.772297297297298  8.63881578947368 0.620270270270271  Z M 5.3703947368421 0.936486486486487  C 5.3703947368421 0.529054054054055  5.04769736842105 0.197635135135135  4.65098684210526 0.197635135135135  C 4.25427631578947 0.197635135135135  3.93157894736842 0.529054054054053  3.93157894736842 0.936486486486487  L 3.93157894736842 8.1  C 3.93157894736842 8.50743243243243  4.25427631578947 8.83885135135135  4.65098684210526 8.83885135135135  C 5.04769736842105 8.83885135135135  5.3703947368421 8.50743243243243  5.3703947368421 8.1  L 5.3703947368421 0.936486486486487  Z M 2.11085526315789 8.02398648648649  L 1.52171052631579 0.890878378378379  C 1.49210526315789 0.483445945945947  1.14276315789474 0.179391891891893  0.749013157894736 0.209797297297298  C 0.352302631578947 0.240202702702704  0.0562499999999993 0.598986486486488  0.0858552631578941 1.00337837837838  L 0.674999999999999 8.14256756756757  C 0.704605263157893 8.52871621621622  1.02138157894737 8.82364864864865  1.39144736842105 8.82364864864865  C 1.40921052631579 8.82364864864865  1.42993421052631 8.82364864864865  1.44769736842105 8.82060810810811  C 1.84440789473684 8.7902027027027  2.14046052631579 8.43141891891892  2.11085526315789 8.02398648648649  Z " fill-rule="nonzero" fill="#ff4e7d" stroke="none" transform="matrix(1 0 0 1 88 328 )" />
  </g>
</svg>