<?xml version="1.0" encoding="utf-8"?>
<svg version="1.1" xmlns:xlink="http://www.w3.org/1999/xlink" width="24px" height="22px" xmlns="http://www.w3.org/2000/svg">
  <g transform="matrix(1 0 0 1 -12 -15 )">
    <path d="M 0.0133928571428571 11.8461538461538  L 0.0133928571428571 10.1564903846154  L 1.725 10.1564903846154  L 1.725 11.8461538461538  L 0.0133928571428571 11.8461538461538  Z M 8.57410714285714 6.77716346153846  L 3.43928571428571 11.0026442307692  L 8.57410714285714 15.228125  L 8.57410714285714 11.8487980769231  L 15.4258928571429 11.8487980769231  L 15.4258928571429 10.1564903846154  L 8.57410714285714 10.1564903846154  L 8.57410714285714 6.77716346153846  Z M 24 6.77716346153846  C 23.9866071428571 4.91826923076923  22.4464285714286 3.39519230769231  20.5607142857143 3.39519230769231  L 17.1375 3.39519230769231  C 17.1375 1.53629807692308  15.5973214285714 0.0132211538461538  13.7116071428571 0  L 3.43928571428571 0  C 1.55625 0.0132211538461538  0.0133928571428571 1.53365384615385  0.0133928571428571 3.39519230769231  L 0.0133928571428571 6.77716346153846  L 1.725 6.77716346153846  L 1.725 3.39519230769231  C 1.725 2.46442307692308  2.49375 1.70552884615385  3.43660714285714 2  L 13.7116071428571 2  C 14.6544642857143 1.70552884615385  15.4232142857143 2.46442307692308  15.4232142857143 3.39519230769231  L 15.4232142857143 5.08485576923077  L 20.5607142857143 5.08485576923077  C 21.5035714285714 5.08485576923077  22.2723214285714 5.84375  22 6.77451923076923  L 22 18.6074519230769  C 22.2723214285714 19.5382211538462  21.5035714285714 20.2971153846154  20.5607142857143 20  L 3.43928571428571 20  C 2.49642857142857 20.2971153846154  1.72767857142857 19.5382211538462  1.72767857142857 18.6074519230769  L 1.72767857142857 15.228125  L 0.0133928571428571 15.228125  L 0.0133928571428571 18.6100961538462  C 0.0133928571428571 20.4689903846154  1.55357142857143 21.9920673076923  3.43928571428571 22  L 20.5633928571429 22  C 22.4464285714286 21.9920673076923  23.9892857142857 20.4716346153846  24 18.6100961538462  L 24 6.77716346153846  Z " fill-rule="nonzero" fill="#ec808d" stroke="none" transform="matrix(1 0 0 1 12 15 )" />
  </g>
</svg>