<?xml version="1.0" encoding="utf-8"?>
<svg version="1.1" xmlns:xlink="http://www.w3.org/1999/xlink" width="14px" height="9px" xmlns="http://www.w3.org/2000/svg">
  <g transform="matrix(1 0 0 1 -21 -26 )">
    <path d="M 12.7642868589744 2.05811028  L 12.7642868589744 2  L 1.19514477564103 2  C 0.624511371794872 2.05686486  0.135840564102564 1.62097299  0.135840564102564 1.05804972  C 0.135840564102564 0.51941187  0.597811442307692 0.057989160000001  1.19514477564103 0  L 12.7369659935897 0  C 13.3075993974359 0.0579892050000009  13.7962702051282 0.493881075000001  13.7962702051282 1.05804972  C 13.7962702051282 1.59606486  13.3342993269231 2.05811028  12.7642868589744 2.05811028  Z M 13.7962702051282 7.775143785  C 13.7962702051282 8.33931243  13.3342993269231 8.775204345  12.7642868589744 8.775204345  L 1.19514477564103 8.775204345  C 0.624511371794872 8.775204345  0.135840564102564 8.339312475  0.135840564102564 7.775143785  C 0.135840564102564 7.21097514  0.597811442307692 6.775083225  1.19514477564102 6.775083225  L 12.7369659935897 6.775083225  C 13.3075993974359 6.775083225  13.7962702051282 7.210975095  13.7962702051282 7.775143785  Z " fill-rule="nonzero" fill="#fff8e1" stroke="none" transform="matrix(1 0 0 1 21 26 )" />
  </g>
</svg>