<?xml version="1.0" encoding="utf-8"?>
<svg version="1.1" xmlns:xlink="http://www.w3.org/1999/xlink" width="70px" height="32px" xmlns="http://www.w3.org/2000/svg">
  <defs>
    <mask fill="white" id="clip176">
      <path d="M 0 30  L 0 2  C 0 0.879999999999995  0.648421052631576 0  1.47368421052632 0  L 68.5263157894737 0  C 69.3515789473684 0  70 0.879999999999995  70 2  L 70 30  C 70 31.12  69.3515789473684 32  68.5263157894737 32  L 37.4773139745916 32  L 1.47368421052632 32  C 0.648421052631576 32  0 31.12  0 30  Z " fill-rule="evenodd" />
    </mask>
  </defs>
  <g transform="matrix(1 0 0 1 -1467 -17 )">
    <path d="M 0 30  L 0 2  C 0 0.879999999999995  0.648421052631576 0  1.47368421052632 0  L 68.5263157894737 0  C 69.3515789473684 0  70 0.879999999999995  70 2  L 70 30  C 70 31.12  69.3515789473684 32  68.5263157894737 32  L 37.4773139745916 32  L 1.47368421052632 32  C 0.648421052631576 32  0 31.12  0 30  Z " fill-rule="nonzero" fill="#f2f2f2" stroke="none" transform="matrix(1 0 0 1 1467 17 )" />
    <path d="M 0 30  L 0 2  C 0 0.879999999999995  0.648421052631576 0  1.47368421052632 0  L 68.5263157894737 0  C 69.3515789473684 0  70 0.879999999999995  70 2  L 70 30  C 70 31.12  69.3515789473684 32  68.5263157894737 32  L 37.4773139745916 32  L 1.47368421052632 32  C 0.648421052631576 32  0 31.12  0 30  Z " stroke-width="2" stroke="#d7d7d7" fill="none" transform="matrix(1 0 0 1 1467 17 )" mask="url(#clip176)" />
  </g>
</svg>