<?xml version="1.0" encoding="utf-8"?>
<svg version="1.1" xmlns:xlink="http://www.w3.org/1999/xlink" width="10px" height="37px" preserveAspectRatio="xMidYMin meet" viewBox="236 75  8 37" xmlns="http://www.w3.org/2000/svg">
  <path d="M 253 107.5  L 245 107.5  A 5 5 0 0 1 240.5 102.5 L 240.5 85  A 5 5 0 0 1 245.5 80.5 L 1875 80.5  A 5 5 0 0 1 1880.5 85.5 L 1880.5 945  A 5 5 0 0 1 1875.5 950.5 L 234 950.5  A 5 5 0 0 0 229.5 955.5 L 229.5 964  " stroke-width="1" stroke="#ff3399" fill="none" />
  <path d="M 251 104.5  A 3 3 0 0 0 248 107.5 A 3 3 0 0 0 251 110.5 A 3 3 0 0 0 254 107.5 A 3 3 0 0 0 251 104.5 Z " fill-rule="nonzero" fill="#ff3399" stroke="none" />
</svg>