<?xml version="1.0" encoding="utf-8"?>
<svg version="1.1" xmlns:xlink="http://www.w3.org/1999/xlink" width="12px" height="12px" viewBox="819 52.5  12 12" xmlns="http://www.w3.org/2000/svg">
  <path d="M 825 52.5  C 828.36 52.5  831 55.14  831 58.5  C 831 61.86  828.36 64.5  825 64.5  C 821.64 64.5  819 61.86  819 58.5  C 819 55.14  821.64 52.5  825 52.5  Z " fill-rule="nonzero" fill="#f0f0f0" stroke="none" />
  <path d="M 825 53  C 828.08 53  830.5 55.42  830.5 58.5  C 830.5 61.58  828.08 64  825 64  C 821.92 64  819.5 61.58  819.5 58.5  C 819.5 55.42  821.92 53  825 53  Z " stroke-width="1" stroke="#02a7f0" fill="none" />
  <path d="M 825 61.5  C 823.32 61.5  822 60.18  822 58.5  C 822 56.82  823.32 55.5  825 55.5  C 826.68 55.5  828 56.82  828 58.5  C 828 60.18  826.68 61.5  825 61.5  " fill-rule="nonzero" fill="#02a7f0" stroke="none" />
</svg>