<?xml version="1.0" encoding="utf-8"?>
<svg version="1.1" xmlns:xlink="http://www.w3.org/1999/xlink" width="12px" height="12px" viewBox="719 52.5  12 12" xmlns="http://www.w3.org/2000/svg">
  <path d="M 725 52.5  C 728.36 52.5  731 55.14  731 58.5  C 731 61.86  728.36 64.5  725 64.5  C 721.64 64.5  719 61.86  719 58.5  C 719 55.14  721.64 52.5  725 52.5  Z " fill-rule="nonzero" fill="#ffffff" stroke="none" />
  <path d="M 725 53  C 728.08 53  730.5 55.42  730.5 58.5  C 730.5 61.58  728.08 64  725 64  C 721.92 64  719.5 61.58  719.5 58.5  C 719.5 55.42  721.92 53  725 53  Z " stroke-width="1" stroke="#02a7f0" fill="none" />
  <path d="M 725 61.5  C 723.32 61.5  722 60.18  722 58.5  C 722 56.82  723.32 55.5  725 55.5  C 726.68 55.5  728 56.82  728 58.5  C 728 60.18  726.68 61.5  725 61.5  " fill-rule="nonzero" fill="#02a7f0" stroke="none" />
</svg>