<?xml version="1.0" encoding="utf-8"?>
<svg version="1.1" xmlns:xlink="http://www.w3.org/1999/xlink" width="15px" height="15px" xmlns="http://www.w3.org/2000/svg">
  <g transform="matrix(1 0 0 1 -1036 -127 )">
    <path d="M 14.9209703429204 14.6010527820796  C 14.9209703429204 14.7864534623894  14.7697604701327 14.9376571294248  14.5843522068584 14.9376571294248  L 12.5646603318584 14.9376571294248  C 12.3786237942478 14.9376571294248  12.228059170354 14.7864534457965  12.228059170354 14.6010527820796  C 12.228059170354 14.4150068860619  12.3786237942478 14.2644484347345  12.5646603318584 14.2644484347345  L 14.2477340542035 14.2644484347345  L 14.2477340542035 12.5814436725664  C 14.2477340542035 12.3954147511062  14.3982986780973 12.2448562997788  14.5843521902655 12.2448562997788  C 14.7697604535398 12.2448562997788  14.9209703263274 12.3954147511062  14.9209703263274 12.5814436725664  L 14.9209703429204 14.6010527820796  Z M 14.9209703263274 10.5618345630531  C 14.9209703429204 10.7472182522124  14.7697604701327 10.8984389103982  14.5843522068584 10.8984389103982  C 14.3982986946903 10.8984389103982  14.2477340707965 10.7472182522124  14.2477340707965 10.5618345630531  L 14.2477340542035 8.5422084789823  C 14.2477340542035 8.35617955752212  14.3982986780973 8.20562110619469  14.5843521902655 8.20562110619469  C 14.7697604535398 8.20562110619469  14.9209703263274 8.35617955752213  14.9209703263274 8.5422084789823  L 14.9209703263274 10.5618345630531  Z M 14.9209703263274 6.5225993528761  C 14.9209703429204 6.70800003318584  14.7697604701327 6.85922069137168  14.5843522068584 6.85922069137168  C 14.3982986946903 6.85922069137168  14.2477340707965 6.70800003318584  14.2477340707965 6.52261634402655  L 14.2477340542035 4.50299024336283  C 14.2477340542035 4.31694434734513  14.3982986780973 4.16640287057522  14.5843521902655 4.16640287057522  C 14.7697604535398 4.16640287057522  14.9209703263274 4.31694434734513  14.9209703263274 4.50299024336283  L 14.9209703263274 6.5225993528761  Z M 14.9209703429204 2.48338113384956  C 14.9209703429204 2.66878179756637  14.7697604701327 2.82000245575221  14.5843522068584 2.82000245575221  C 14.3982986946903 2.82000245575221  14.2477340707965 2.66879877212389  14.2477340707965 2.48339810840708  L 14.2477340707965 0.800393346238938  L 12.5646603484513 0.800393346238938  C 12.3786238108407 0.800393346238938  12.2280591869469 0.649189662610619  12.2280591869469 0.463788998893805  C 12.2280591869469 0.277743102876106  12.3786238108407 0.127184651548672  12.5646603484513 0.127184651548672  L 14.5843522068584 0.127184651548672  C 14.7697604701327 0.127184651548672  14.9209703429204 0.277743102876106  14.9209703429204 0.463788998893805  L 14.9209703429204 2.48338113384956  Z M 10.8815866095133 14.6010527820796  C 10.8816036006637 14.7864534623894  10.7303597621681 14.9376571294248  10.5449684734513 14.9376571294248  L 8.52525962389381 14.9376571294248  C 8.33922308628319 14.9376571294248  8.1886754369469 14.7864534457965  8.1886754369469 14.6010527820796  C 8.1886754369469 14.4150068860619  8.33922306969026 14.2644484347345  8.52525962389381 14.2644484347345  L 10.5449684734513 14.2644484347345  C 10.7303597621681 14.2644484347345  10.8815866095133 14.4150068860619  10.8815866095133 14.6010527820796  Z M 10.8815866095133 0.463788998893805  C 10.8816036006637 0.64918967920354  10.7303597621681 0.800393346238938  10.5449684734513 0.800393346238938  L 8.52525962389381 0.800393346238938  C 8.33922308628319 0.800393346238938  8.1886754369469 0.649189662610619  8.1886754369469 0.463788998893805  C 8.1886754369469 0.277743102876106  8.33922306969026 0.127184651548672  8.52525962389381 0.127184651548672  L 10.5449684734513 0.127184651548672  C 10.7303597621681 0.127184651548672  10.8815866095133 0.277743102876106  10.8815866095133 0.463788998893805  Z M 8.14658120575221 6.85922069137168  L 10.1662730641593 6.85922069137168  C 10.5377348561947 6.85922069137168  10.8395093528761 7.16032061946903  10.8395093528761 7.53241241150443  C 10.8395093528761 7.90385897123894  10.5377348561947 8.20560413163717  10.1662730641593 8.20560413163717  L 8.14658120575221 8.20560411504425  L 8.14658120575221 10.225230199115  C 8.14658120575221 10.5966767588496  7.8448067090708 10.8984219192478  7.4733449170354 10.8984219192478  C 7.10123787610619 10.8984219192478  6.80012561946903 10.5966767754425  6.80012561946903 10.225230199115  L 6.80012561946903 8.20560411504425  L 4.78043376106195 8.20560411504425  C 4.40830974557522 8.20560411504425  4.10721446349558 7.90385897123894  4.10721446349558 7.5324123949115  C 4.10721446349558 7.16032060287611  4.40832672013274 6.85922067477876  4.78043376106195 6.85922067477876  L 6.80012561946903 6.85922067477876  L 6.80012561946903 4.83961158185841  C 6.80012561946903 4.46751978982301  7.10123787610619 4.16641986172566  7.4733449170354 4.16641986172566  C 7.8448067090708 4.16641986172566  8.14658120575221 4.46751978982301  8.14658120575221 4.83961158185841  L 8.14658120575221 6.85922069137168  Z M 6.84220287610619 0.463788998893805  C 6.84220289269912 0.64918967920354  6.6909930199115 0.800393346238938  6.50558474004425 0.800393346238938  L 4.48589288163717 0.800393346238938  C 4.29983936946903 0.800393346238938  4.14929172013274 0.649189662610619  4.14929172013274 0.463788998893805  C 4.14929172013274 0.277743102876106  4.29983935287611 0.127184651548672  4.48589288163717 0.127184651548672  L 6.50558474004425 0.127184651548672  C 6.69097602876106 0.127184651548672  6.84220287610619 0.277743102876106  6.84220287610619 0.463788998893805  Z M 2.80281915929204 14.6010358075221  C 2.80281915929204 14.7864534623894  2.65194889380531 14.9376571294248  2.46621799778761 14.9376571294248  L 0.446526139380531 14.9376571294248  C 0.260455636061947 14.9376571294248  0.109908003318584 14.7864534457965  0.109908003318584 14.6010527820796  L 0.109908003318584 12.5814266980088  C 0.109908003318584 12.3953977765487  0.260455636061947 12.2448393252212  0.446526139380531 12.2448393252212  C 0.632240044247787 12.2448393252212  0.783127300884956 12.3953977765487  0.783127300884956 12.5814266980088  L 0.783127300884956 14.264431460177  L 2.46621799778761 14.264431460177  C 2.65194889380531 14.264431460177  2.80281915929204 14.4149899115044  2.80281915929204 14.6010358075221  Z M 2.80281915929204 0.463788998893805  C 2.80281915929204 0.64918967920354  2.65194889380531 0.800393346238938  2.46621799778761 0.800393346238938  L 0.783127300884956 0.800393346238938  L 0.783127300884956 2.48339810840708  C 0.783127300884956 2.66879877212389  0.632240060840708 2.82000245575221  0.446526139380531 2.82000245575221  C 0.260455636061947 2.82000245575221  0.109908003318584 2.66879877212389  0.109908003318584 2.48339810840708  L 0.109908003318584 0.463788998893805  C 0.109908003318584 0.277743102876106  0.260455636061947 0.127184651548672  0.446526139380531 0.127184651548672  L 2.46621799778761 0.127184651548672  C 2.65194889380531 0.127184651548672  2.80281915929204 0.277743102876106  2.80281915929204 0.463788998893805  Z M 0.109908003318584 4.50299024336283  C 0.109908003318584 4.31694434734513  0.260455636061947 4.16640287057522  0.446526139380531 4.16640287057522  C 0.632240044247787 4.16640287057522  0.783127300884956 4.31694434734513  0.783127300884956 4.50299024336283  L 0.783127300884956 6.52259935287611  C 0.783127300884956 6.7079830420354  0.632240060840708 6.85920370022124  0.446526139380531 6.85920370022124  C 0.260455636061947 6.85920370022124  0.109908003318584 6.7079830420354  0.109908003318584 6.52259935287611  L 0.109908003318584 4.50299024336283  Z M 0.109908003318584 8.5422084789823  C 0.109908003318584 8.35617955752213  0.260455636061947 8.20560411504425  0.446526139380531 8.20560411504425  C 0.632240044247787 8.20560411504425  0.783127300884956 8.35616256637168  0.783127300884956 8.54219148783186  L 0.783127300884956 10.5618175719027  C 0.783127300884956 10.7472012610619  0.632240060840708 10.8984219192478  0.446526139380531 10.8984219192478  C 0.260455636061947 10.8984219192478  0.109908003318584 10.7472012610619  0.109908003318584 10.5618175719027  L 0.109908003318584 8.5422084789823  Z M 4.14929172013274 14.6010358075221  C 4.14929172013274 14.4150068860619  4.29983936946903 14.264431460177  4.48589288163717 14.264431460177  L 6.50558474004425 14.264431460177  C 6.69097602876106 14.264431460177  6.84220287610619 14.4149899115044  6.84220287610619 14.6010358075221  C 6.84220287610619 14.7864364712389  6.69099300331858 14.9376401548673  6.50558474004425 14.9376401548673  L 4.48589288163717 14.9376401548673  C 4.29983936946903 14.9376401548673  4.14929172013274 14.7864364712389  4.14929172013274 14.6010358075221  Z " fill-rule="nonzero" fill="#ffffff" stroke="none" transform="matrix(1 0 0 1 1036 127 )" />
  </g>
</svg>