<?xml version="1.0" encoding="utf-8"?>
<svg version="1.1" xmlns:xlink="http://www.w3.org/1999/xlink" width="25px" height="25px" xmlns="http://www.w3.org/2000/svg">
  <g transform="matrix(1 0 0 1 -418 -10 )">
    <path d="M 24.8682839048673 24.3350879701327  C 24.8682839048673 24.6440891039823  24.6162674502212 24.896095215708  24.3072536780973 24.896095215708  L 20.9411005530973 24.896095215708  C 20.6310396570796 24.896095215708  20.3800986172566 24.6440890763274  20.3800986172566 24.3350879701327  C 20.3800986172566 24.0250114767699  20.6310396570796 23.7740807245575  20.9411005530973 23.7740807245575  L 23.7462234236726 23.7740807245575  L 23.7462234236726 20.9690727876106  C 23.7462234236726 20.659024585177  23.9971644634956 20.4080938329646  24.3072536504425 20.4080938329646  C 24.6162674225664 20.4080938329646  24.8682838772124 20.659024585177  24.8682838772124 20.9690727876106  L 24.8682839048673 24.3350879701327  Z M 24.8682838772124 17.6030576050885  C 24.8682839048673 17.912030420354  24.6162674502212 18.1640648506637  24.3072536780973 18.1640648506637  C 23.9971644911504 18.1640648506637  23.7462234513274 17.912030420354  23.7462234513274 17.6030576050885  L 23.7462234236726 14.2370141316372  C 23.7462234236726 13.9269659292035  23.9971644634956 13.6760351769911  24.3072536504425 13.6760351769911  C 24.6162674225664 13.6760351769911  24.8682838772124 13.9269659292035  24.8682838772124 14.2370141316372  L 24.8682838772124 17.6030576050885  Z M 24.8682838772124 10.8709989214602  C 24.8682839048673 11.1800000553097  24.6162674502212 11.4320344856195  24.3072536780973 11.4320344856195  C 23.9971644911504 11.4320344856195  23.7462234513274 11.1800000553097  23.7462234513274 10.8710272400442  L 23.7462234236726 7.50498373893805  C 23.7462234236726 7.19490724557522  23.9971644634956 6.94400478429203  24.3072536504425 6.94400478429203  C 24.6162674225664 6.94400478429203  24.8682838772124 7.19490724557522  24.8682838772124 7.50498373893805  L 24.8682838772124 10.8709989214602  Z M 24.8682839048673 4.13896855641593  C 24.8682839048673 4.44796966261062  24.6162674502212 4.70000409292035  24.3072536780973 4.70000409292035  C 23.9971644911504 4.70000409292035  23.7462234513274 4.44799795353982  23.7462234513274 4.13899684734513  L 23.7462234513274 1.33398891039823  L 20.9411005807522 1.33398891039823  C 20.6310396847345 1.33398891039823  20.3800986449115 1.0819827710177  20.3800986449115 0.772981664823009  C 20.3800986449115 0.462905171460177  20.6310396847345 0.211974419247787  20.9411005807522 0.211974419247787  L 24.3072536780974 0.211974419247787  C 24.6162674502212 0.211974419247787  24.8682839048673 0.462905171460177  24.8682839048673 0.772981664823009  L 24.8682839048673 4.13896855641593  Z M 18.1359776825221 24.3350879701327  C 18.1360060011062 24.6440891039823  17.8839329369469 24.896095215708  17.5749474557522 24.896095215708  L 14.208766039823 24.896095215708  C 13.8987051438053 24.896095215708  13.6477923949115 24.6440890763274  13.6477923949115 24.3350879701327  C 13.6477923949115 24.0250114767699  13.8987051161504 23.7740807245575  14.208766039823 23.7740807245575  L 17.5749474557522 23.7740807245575  C 17.8839329369469 23.7740807245575  18.1359776825221 24.0250114767699  18.1359776825221 24.3350879701327  Z M 18.1359776825221 0.772981664823009  C 18.1360060011062 1.08198279867257  17.8839329369469 1.33398891039823  17.5749474557522 1.33398891039823  L 14.208766039823 1.33398891039823  C 13.8987051438053 1.33398891039823  13.6477923949115 1.0819827710177  13.6477923949115 0.772981664823009  C 13.6477923949115 0.462905171460177  13.8987051161504 0.211974419247787  14.208766039823 0.211974419247787  L 17.5749474557522 0.211974419247787  C 17.8839329369469 0.211974419247787  18.1359776825221 0.462905171460177  18.1359776825221 0.772981664823009  Z M 13.5776353429204 11.4320344856195  L 16.9437884402655 11.4320344856195  C 17.5628914269912 11.4320344856195  18.0658489214602 11.933867699115  18.0658489214602 12.5540206858407  C 18.0658489214602 13.1730982853982  17.5628914269912 13.6760068860619  16.9437884402655 13.6760068860619  L 13.5776353429204 13.6760068584071  L 13.5776353429204 17.0420503318584  C 13.5776353429204 17.6611279314159  13.0746778484513 18.1640365320796  12.4555748617257 18.1640365320796  C 11.835396460177 18.1640365320796  11.333542699115 17.6611279590708  11.333542699115 17.0420503318584  L 11.333542699115 13.6760068584071  L 7.96738960176991 13.6760068584071  C 7.34718290929204 13.6760068584071  6.84535743915929 13.1730982853982  6.84535743915929 12.5540206581858  C 6.84535743915929 11.9338676714602  7.34721120022124 11.4320344579646  7.96738960176991 11.4320344579646  L 11.333542699115 11.4320344579646  L 11.333542699115 8.06601930309735  C 11.333542699115 7.44586631637168  11.835396460177 6.94403310287611  12.4555748617257 6.94403310287611  C 13.0746778484513 6.94403310287611  13.5776353429204 7.44586631637168  13.5776353429204 8.06601930309734  L 13.5776353429204 11.4320344856195  Z M 11.403671460177 0.772981664823009  C 11.4036714878319 1.08198279867257  11.1516550331858 1.33398891039823  10.8426412334071 1.33398891039823  L 7.47648813606195 1.33398891039823  C 7.16639894911504 1.33398891039823  6.91548620022124 1.0819827710177  6.91548620022124 0.772981664823009  C 6.91548620022124 0.462905171460177  7.16639892146018 0.211974419247787  7.47648813606195 0.211974419247787  L 10.8426412334071 0.211974419247787  C 11.1516267146018 0.211974419247787  11.403671460177 0.462905171460177  11.403671460177 0.772981664823009  Z M 4.67136526548673 24.3350596792035  C 4.67136526548673 24.6440891039823  4.41991482300885 24.896095215708  4.11036332964602 24.896095215708  L 0.744210232300885 24.896095215708  C 0.434092726769912 24.896095215708  0.183180005530973 24.6440890763274  0.183180005530973 24.3350879701327  L 0.183180005530973 20.9690444966814  C 0.183180005530973 20.6589962942478  0.434092726769912 20.4080655420354  0.744210232300885 20.4080655420354  C 1.05373340707965 20.4080655420354  1.30521216814159 20.6589962942478  1.30521216814159 20.9690444966814  L 1.30521216814159 23.7740524336283  L 4.11036332964602 23.7740524336283  C 4.41991482300885 23.7740524336283  4.67136526548673 24.0249831858407  4.67136526548673 24.3350596792035  Z M 4.67136526548673 0.772981664823009  C 4.67136526548673 1.08198279867257  4.41991482300885 1.33398891039823  4.11036332964602 1.33398891039823  L 1.30521216814159 1.33398891039823  L 1.30521216814159 4.13899684734513  C 1.30521216814159 4.44799795353982  1.05373343473451 4.70000409292035  0.744210232300885 4.70000409292035  C 0.434092726769912 4.70000409292035  0.183180005530974 4.44799795353982  0.183180005530974 4.13899684734513  L 0.183180005530973 0.772981664823009  C 0.183180005530973 0.462905171460177  0.434092726769912 0.211974419247787  0.744210232300885 0.211974419247787  L 4.11036332964602 0.211974419247787  C 4.41991482300885 0.211974419247787  4.67136526548673 0.462905171460177  4.67136526548673 0.772981664823009  Z M 0.183180005530973 7.50498373893805  C 0.183180005530973 7.19490724557522  0.434092726769912 6.94400478429204  0.744210232300885 6.94400478429204  C 1.05373340707965 6.94400478429204  1.30521216814159 7.19490724557522  1.30521216814159 7.50498373893805  L 1.30521216814159 10.8709989214602  C 1.30521216814159 11.1799717367257  1.05373343473451 11.4320061670354  0.744210232300885 11.4320061670354  C 0.434092726769912 11.4320061670354  0.183180005530973 11.1799717367257  0.183180005530973 10.8709989214602  L 0.183180005530973 7.50498373893805  Z M 0.183180005530973 14.2370141316372  C 0.183180005530973 13.9269659292035  0.434092726769912 13.6760068584071  0.744210232300885 13.6760068584071  C 1.05373340707965 13.6760068584071  1.30521216814159 13.9269376106195  1.30521216814159 14.2369858130531  L 1.30521216814159 17.6030292865044  C 1.30521216814159 17.9120021017699  1.05373343473451 18.1640365320796  0.744210232300885 18.1640365320796  C 0.434092726769912 18.1640365320796  0.183180005530973 17.9120021017699  0.183180005530973 17.6030292865044  L 0.183180005530973 14.2370141316372  Z M 6.91548620022124 24.3350596792035  C 6.91548620022124 24.0250114767699  7.16639894911504 23.7740524336283  7.47648813606195 23.7740524336283  L 10.8426412334071 23.7740524336283  C 11.1516267146018 23.7740524336283  11.403671460177 24.0249831858407  11.403671460177 24.3350596792035  C 11.403671460177 24.6440607853982  11.151655005531 24.8960669247788  10.8426412334071 24.8960669247788  L 7.47648813606195 24.8960669247788  C 7.16639894911504 24.8960669247788  6.91548620022124 24.6440607853982  6.91548620022124 24.3350596792035  Z " fill-rule="nonzero" fill="#02a7f0" stroke="none" fill-opacity="0.749019607843137" transform="matrix(1 0 0 1 418 10 )" />
  </g>
</svg>