<?xml version="1.0" encoding="utf-8"?>
<svg version="1.1" xmlns:xlink="http://www.w3.org/1999/xlink" width="12px" height="12px" viewBox="704 288.5  12 12" xmlns="http://www.w3.org/2000/svg">
  <path d="M 710 288.5  C 713.36 288.5  716 291.14  716 294.5  C 716 297.86  713.36 300.5  710 300.5  C 706.64 300.5  704 297.86  704 294.5  C 704 291.14  706.64 288.5  710 288.5  Z " fill-rule="nonzero" fill="#f0f0f0" stroke="none" />
  <path d="M 710 289  C 713.08 289  715.5 291.42  715.5 294.5  C 715.5 297.58  713.08 300  710 300  C 706.92 300  704.5 297.58  704.5 294.5  C 704.5 291.42  706.92 289  710 289  Z " stroke-width="1" stroke="#04f21c" fill="none" />
  <path d="M 710 297.5  C 708.32 297.5  707 296.18  707 294.5  C 707 292.82  708.32 291.5  710 291.5  C 711.68 291.5  713 292.82  713 294.5  C 713 296.18  711.68 297.5  710 297.5  " fill-rule="nonzero" fill="#04f21c" stroke="none" />
</svg>