<?xml version="1.0" encoding="utf-8"?>
<svg version="1.1" xmlns:xlink="http://www.w3.org/1999/xlink" width="12px" height="12px" viewBox="804 288.5  12 12" xmlns="http://www.w3.org/2000/svg">
  <path d="M 810 288.5  C 813.36 288.5  816 291.14  816 294.5  C 816 297.86  813.36 300.5  810 300.5  C 806.64 300.5  804 297.86  804 294.5  C 804 291.14  806.64 288.5  810 288.5  Z " fill-rule="nonzero" fill="#ffffff" stroke="none" />
  <path d="M 810 289  C 813.08 289  815.5 291.42  815.5 294.5  C 815.5 297.58  813.08 300  810 300  C 806.92 300  804.5 297.58  804.5 294.5  C 804.5 291.42  806.92 289  810 289  Z " stroke-width="1" stroke="#02a7f0" fill="none" />
  <path d="M 810 297.5  C 808.32 297.5  807 296.18  807 294.5  C 807 292.82  808.32 291.5  810 291.5  C 811.68 291.5  813 292.82  813 294.5  C 813 296.18  811.68 297.5  810 297.5  " fill-rule="nonzero" fill="#02a7f0" stroke="none" />
</svg>