<?xml version="1.0" encoding="utf-8"?>
<svg version="1.1" xmlns:xlink="http://www.w3.org/1999/xlink" width="20px" height="20px" viewBox="1414 626  20 20" xmlns="http://www.w3.org/2000/svg">
  <path d="M 1424 626  C 1429.6 626  1434 630.4  1434 636  C 1434 641.6  1429.6 646  1424 646  C 1418.4 646  1414 641.6  1414 636  C 1414 630.4  1418.4 626  1424 626  Z " fill-rule="nonzero" fill="#ffffff" stroke="none" />
  <path d="M 1424 626.5  C 1429.32 626.5  1433.5 630.68  1433.5 636  C 1433.5 641.32  1429.32 645.5  1424 645.5  C 1418.68 645.5  1414.5 641.32  1414.5 636  C 1414.5 630.68  1418.68 626.5  1424 626.5  Z " stroke-width="1" stroke="#015478" fill="none" />
  <path d="M 1424 641  C 1421.2 641  1419 638.8  1419 636  C 1419 633.2  1421.2 631  1424 631  C 1426.8 631  1429 633.2  1429 636  C 1429 638.8  1426.8 641  1424 641  " fill-rule="nonzero" fill="#015478" stroke="none" />
</svg>