<?xml version="1.0" encoding="utf-8"?>
<svg version="1.1" xmlns:xlink="http://www.w3.org/1999/xlink" width="555px" height="345px" xmlns="http://www.w3.org/2000/svg">
  <defs>
    <radialGradient cx="277.500000000001" cy="345" r="341.533022533022" gradientTransform="matrix(-1.49792475688879E-15 -1 0.921648550724638 -1.38056018128111E-15 -40.4687499999987 622.500000000001 )" gradientUnits="userSpaceOnUse" id="RadialGradient209">
      <stop id="Stop210" stop-color="#ec808d" offset="0" />
      <stop id="Stop211" stop-color="#81d3f8" offset="1" />
    </radialGradient>
  </defs>
  <g>
    <path d="M 0.5 10  A 9.5 9.5 0 0 1 10 0.5 L 545 0.5  A 9.5 9.5 0 0 1 554.5 10 L 554.5 335  A 9.5 9.5 0 0 1 545 344.5 L 10 344.5  A 9.5 9.5 0 0 1 0.5 335 L 0.5 10  Z " fill-rule="nonzero" fill="url(#RadialGradient209)" stroke="none" />
    <path d="M 0.5 10  A 9.5 9.5 0 0 1 10 0.5 L 545 0.5  A 9.5 9.5 0 0 1 554.5 10 L 554.5 335  A 9.5 9.5 0 0 1 545 344.5 L 10 344.5  A 9.5 9.5 0 0 1 0.5 335 L 0.5 10  Z " stroke-width="1" stroke="#797979" fill="none" />
  </g>
</svg>