<?xml version="1.0" encoding="utf-8"?>
<svg version="1.1" xmlns:xlink="http://www.w3.org/1999/xlink" width="46px" height="46px" xmlns="http://www.w3.org/2000/svg">
  <g transform="matrix(1 0 0 1 -475 -570 )">
    <path d="M 498 570  C 510.88 570  521 580.12  521 593  C 521 605.88  510.88 616  498 616  C 485.12 616  475 605.88  475 593  C 475 580.12  485.12 570  498 570  Z " fill-rule="nonzero" fill="#ffffff" stroke="none" />
    <path d="M 498 570.5  C 510.6 570.5  520.5 580.4  520.5 593  C 520.5 605.6  510.6 615.5  498 615.5  C 485.4 615.5  475.5 605.6  475.5 593  C 475.5 580.4  485.4 570.5  498 570.5  Z " stroke-width="1" stroke="#797979" fill="none" />
  </g>
</svg>