<?xml version="1.0" encoding="utf-8"?>
<svg version="1.1" xmlns:xlink="http://www.w3.org/1999/xlink" width="17px" height="19px" xmlns="http://www.w3.org/2000/svg">
  <g transform="matrix(1 0 0 1 -1486 -18 )">
    <path d="M 17 2.18997836538462  C 16.9461820652174 1.06751682692308  16.0261263586957 0.157846153846154  14.8931779891304 0.157846153846154  L 2.10917798913043 0.157846153846154  C 0.976229619565217 0.157846153846154  0.0514388586956523 1.06751682692308  0 2.18997836538462  L 0 16.8357355769231  C 0.0514388586956523 17.9558677884615  0.973873641304348 18.8678677884615  2.10917798913043 18.8678677884615  L 14.8908220108696 18.8678677884615  C 16.0237703804348 18.8678677884615  16.9461820652174 17.9582199519231  17 16.8357584134615  L 17 2.18997836538462  Z M 15.7872486413043 16.83340625  L 15.7896046195652 16.83340625  C 15.7896046195652 17.3244831730769  15.3851616847826 17.7220216346154  14.8931779891304 17.7220216346154  L 2.10917798913043 17.7220216346154  C 1.61486141304348 17.7220216346154  1.21275135869565 17.3221538461538  1.21275135869565 16.83340625  L 1.21275135869565 2.18997836538462  C 1.21275135869565 1.70123076923077  1.61486141304348 1.30369230769231  2.10917798913043 1.30369230769231  L 14.8908220108696 1.30369230769231  C 15.3851385869565 1.30369230769231  15.7872486413043 1.70356009615385  15.7872486413043 2.18997836538462  L 15.7872486413043 16.83340625  Z M 3.80975543478261 5.81224158653846  C 3.49992119565217 5.81224158653846  3.24921739130435 5.56437379807692  3.24921739130435 5.25802163461538  L 3.24921739130435 5.22061538461538  C 3.24921739130435 4.91428605769231  3.49992119565217 4.66639543269231  3.8097785326087 4.66639543269231  C 4.11963586956522 4.66639543269231  4.37033967391304 4.91428605769231  4.37033967391304 5.22061538461538  L 4.37033967391304 5.25802163461538  C 4.37033967391304 5.56437379807692  4.11725679347826 5.81226442307692  3.80975543478261 5.81226442307692  Z M 4.37033967391304 9.49298918269231  C 4.37033967391304 9.18663701923077  4.11725679347826 8.93876923076923  3.80975543478261 8.93876923076923  C 3.49992119565217 8.93876923076923  3.24921739130435 9.18663701923077  3.24921739130435 9.49298918269231  L 3.24921739130435 9.52806610576923  C 3.24921739130435 9.83439543269231  3.49992119565217 10.0822860576923  3.8097785326087 10.0822860576923  C 4.11963586956522 10.0822860576923  4.37033967391304 9.83439543269231  4.37033967391304 9.52804326923077  L 4.37033967391304 9.49298918269231  Z M 4.37033967391304 13.7676923076923  C 4.37033967391304 13.4613629807692  4.11725679347826 13.2134723557692  3.80975543478261 13.2134723557692  C 3.49992119565217 13.2134723557692  3.24921739130435 13.4613629807692  3.24921739130435 13.7676923076923  L 3.24921739130435 13.8027692307692  C 3.24921739130435 14.1090985576923  3.49992119565217 14.3569891826923  3.8097785326087 14.3569891826923  C 4.11963586956522 14.3569891826923  4.37033967391304 14.1090985576923  4.37033967391304 13.8027692307692  L 4.37033967391304 13.7676923076923  Z M 13.1902445652174 5.81224158653846  L 5.8343722826087 5.81224158653846  C 5.52453804347826 5.81224158653846  5.27381114130435 5.56437379807692  5.27381114130435 5.25802163461538  L 5.27381114130435 5.22061538461538  C 5.27381114130435 4.91428605769231  5.52453804347826 4.66639543269231  5.83439538043478 4.66639543269231  L 13.1901983695652 4.66639543269231  C 13.5000557065217 4.66639543269231  13.7507595108696 4.91428605769231  13.7507595108696 5.22061538461538  L 13.7507595108696 5.25802163461538  C 13.7531154891304 5.56437379807692  13.5000557065217 5.81226442307692  13.1901983695652 5.81226442307692  Z M 13.1902445652174 8.93876923076923  L 5.8343722826087 8.93876923076923  C 5.52453804347826 8.93876923076923  5.27381114130435 9.18663701923077  5.27381114130435 9.49298918269231  L 5.27381114130435 9.52806610576923  C 5.27381114130435 9.83439543269231  5.52453804347826 10.0822860576923  5.83439538043478 10.0822860576923  L 13.1901983695652 10.0822860576923  C 13.5000557065217 10.0822860576923  13.7507595108696 9.83439543269231  13.7507595108696 9.52804326923077  L 13.7507595108696 9.49298918269231  C 13.7531154891304 9.18663701923077  13.5000557065217 8.93876923076923  13.1901983695652 8.93876923076923  Z M 13.1902445652174 13.2134723557692  L 5.8343722826087 13.2134723557692  C 5.52453804347826 13.2134723557692  5.27381114130435 13.4613629807692  5.27381114130435 13.7676923076923  L 5.27381114130435 13.8027692307692  C 5.27381114130435 14.1090985576923  5.52453804347826 14.3569891826923  5.83439538043478 14.3569891826923  L 13.1901983695652 14.3569891826923  C 13.5000557065217 14.3569891826923  13.7507595108696 14.1090985576923  13.7507595108696 13.8027692307692  L 13.7507595108696 13.7676923076923  C 13.7531154891304 13.4613629807692  13.5000557065217 13.2134723557692  13.1901983695652 13.2134723557692  Z " fill-rule="nonzero" fill="#02a7f0" stroke="none" transform="matrix(1 0 0 1 1486 18 )" />
  </g>
</svg>