<?xml version="1.0" encoding="utf-8"?>
<svg version="1.1" xmlns:xlink="http://www.w3.org/1999/xlink" width="22px" height="22px" xmlns="http://www.w3.org/2000/svg">
  <g transform="matrix(1 0 0 1 -920 -862 )">
    <path d="M 13.5924479166667 8.40755208333333  C 14.30859375 9.12369791666667  14.6666666666667 9.98784722222222  14.6666666666667 11  C 14.6666666666667 12.0121527777778  14.30859375 12.8763020833333  13.5924479166667 13.5924479166667  C 12.8763020833333 14.30859375  12.0121527777778 14.6666666666667  11 14.6666666666667  C 9.98784722222222 14.6666666666667  9.12369791666667 14.30859375  8.40755208333333 13.5924479166667  C 7.69140625 12.8763020833333  7.33333333333333 12.0121527777778  7.33333333333333 11  C 7.33333333333333 9.98784722222222  7.69140625 9.12369791666667  8.40755208333333 8.40755208333333  C 9.12369791666667 7.69140625  9.98784722222222 7.33333333333333  11 7.33333333333333  C 12.0121527777778 7.33333333333333  12.8763020833333 7.69140625  13.5924479166667 8.40755208333333  Z M 14.888671875 14.888671875  C 15.962890625 13.814453125  16.5 12.5182291666667  16.5 11  C 16.5 9.48177083333333  15.962890625 8.185546875  14.888671875 7.111328125  C 13.814453125 6.037109375  12.5182291666667 5.5  11 5.5  C 9.48177083333333 5.5  8.185546875 6.037109375  7.111328125 7.111328125  C 6.037109375 8.185546875  5.5 9.48177083333333  5.5 11  C 5.5 12.5182291666667  6.037109375 13.814453125  7.111328125 14.888671875  C 8.185546875 15.962890625  9.48177083333333 16.5  11 16.5  C 12.5182291666667 16.5  13.814453125 15.962890625  14.888671875 14.888671875  Z M 16.1848958333333 5.81510416666667  C 17.6171875 7.24739583333333  18.3333333333333 8.97569444444444  18.3333333333333 11  C 18.3333333333333 13.0243055555556  17.6171875 14.7526041666667  16.1848958333333 16.1848958333333  C 14.7526041666667 17.6171875  13.0243055555556 18.3333333333333  11 18.3333333333333  C 8.97569444444445 18.3333333333333  7.24739583333333 17.6171875  5.81510416666667 16.1848958333333  C 4.3828125 14.7526041666667  3.66666666666667 13.0243055555556  3.66666666666667 11  C 3.66666666666667 8.97569444444444  4.3828125 7.24739583333333  5.81510416666667 5.81510416666667  C 7.24739583333333 4.3828125  8.97569444444445 3.66666666666667  11 3.66666666666667  C 13.0243055555556 3.66666666666667  14.7526041666667 4.3828125  16.1848958333333 5.81510416666667  Z M 19.4361979166667 14.5592447916667  C 19.9231770833333 13.427734375  20.1666666666667 12.2413194444444  20.1666666666667 11  C 20.1666666666667 9.75868055555555  19.9231770833333 8.572265625  19.4361979166667 7.44075520833333  C 18.94921875 6.30924479166667  18.2975260416667 5.33528645833333  17.4811197916667 4.51888020833333  C 16.6647135416667 3.70247395833333  15.6907552083333 3.05078125  14.5592447916667 2.56380208333333  C 13.427734375 2.07682291666667  12.2413194444444 1.83333333333333  11 1.83333333333333  C 9.75868055555556 1.83333333333333  8.572265625 2.07682291666667  7.44075520833333 2.56380208333333  C 6.30924479166667 3.05078125  5.33528645833333 3.70247395833333  4.51888020833333 4.51888020833333  C 3.70247395833333 5.33528645833333  3.05078125 6.30924479166667  2.56380208333333 7.44075520833333  C 2.07682291666667 8.572265625  1.83333333333333 9.75868055555555  1.83333333333333 11  C 1.83333333333333 12.2413194444444  2.07682291666667 13.427734375  2.56380208333333 14.5592447916667  C 3.05078125 15.6907552083333  3.70247395833333 16.6647135416667  4.51888020833333 17.4811197916667  C 5.33528645833333 18.2975260416667  6.30924479166667 18.94921875  7.44075520833333 19.4361979166667  C 8.572265625 19.9231770833333  9.75868055555556 20.1666666666667  11 20.1666666666667  C 12.2413194444444 20.1666666666667  13.427734375 19.9231770833333  14.5592447916667 19.4361979166667  C 15.6907552083333 18.94921875  16.6647135416667 18.2975260416667  17.4811197916667 17.4811197916667  C 18.2975260416667 16.6647135416667  18.94921875 15.6907552083333  19.4361979166667 14.5592447916667  Z M 20.5247395833333 5.478515625  C 21.5082465277778 7.16384548611111  22 9.00434027777778  22 11  C 22 12.9956597222222  21.5082465277778 14.8361545138889  20.5247395833333 16.521484375  C 19.5412326388889 18.2068142361111  18.2068142361111 19.5412326388889  16.521484375 20.5247395833333  C 14.8361545138889 21.5082465277778  12.9956597222222 22  11 22  C 9.00434027777778 22  7.16384548611111 21.5082465277778  5.478515625 20.5247395833333  C 3.79318576388889 19.5412326388889  2.45876736111111 18.2068142361111  1.47526041666667 16.521484375  C 0.491753472222222 14.8361545138889  0 12.9956597222222  0 11  C 0 9.00434027777778  0.491753472222222 7.16384548611111  1.47526041666667 5.478515625  C 2.45876736111111 3.79318576388889  3.79318576388889 2.45876736111111  5.478515625 1.47526041666667  C 7.16384548611111 0.49175347222222  9.00434027777778 0  11 0  C 12.9956597222222 0  14.8361545138889 0.49175347222222  16.521484375 1.47526041666667  C 18.2068142361111 2.45876736111111  19.5412326388889 3.79318576388889  20.5247395833333 5.478515625  Z " fill-rule="nonzero" fill="#ffffff" stroke="none" transform="matrix(1 0 0 1 920 862 )" />
  </g>
</svg>