<?xml version="1.0" encoding="utf-8"?>
<svg version="1.1" xmlns:xlink="http://www.w3.org/1999/xlink" width="18px" height="19px" xmlns="http://www.w3.org/2000/svg">
  <g transform="matrix(1 0 0 1 -1389 -18 )">
    <path d="M 5.82585776923077 10.5229829866071  C 5.81690382692308 10.5320534084821  5.81942273076923 10.5454854542411  5.81302707692308 10.5560314296875  C 5.80155423076923 10.5721325089286  5.79008140384615 10.5891015870536  5.78492551923077 10.6095208828125  L 4.89933271153846 14.1897551986607  C 4.84769511538462 14.3982012935268  4.90059217307692 14.6228135892857  5.04052928846154 14.7811553694196  C 5.14520171153846 14.8939063526786  5.28311190384615 14.9558803448661  5.42999569230769 14.9558803448661  C 5.47850434615385 14.9558803448661  5.52711138461539 14.9494789776786  5.57495094230769 14.9354610491071  L 8.79875903846154 13.9659024151786  C 8.80393461538462 13.9659024151786  8.80643382692308 13.9708933080357  8.81033026923077 13.9708933080357  C 8.84736607692308 13.9708933080357  8.88375248076923 13.9560290948661  8.91122432692308 13.9250638024554  L 17.5318115769231 4.42071575  C 17.7878742692308 4.13799201785714  17.9282836923077 3.7528679765625  17.9282836923077 3.33384920758929  C 17.9282836923077 2.85906253348214  17.7456628846154 2.38447118191964  17.4258600192308 2.03276449330357  L 16.6117215576923 1.13359926897321  C 16.2924106730769 0.780959502232143  15.8614019615385 0.5792185625  15.431023 0.5792185625  C 15.0511205769231 0.5792185625  14.7018779807692 0.734088410714286  14.4451658653846 1.01609608035714  L 5.82585776923077 10.5229829866071  Z M 16.781492 3.23147063392857  C 16.7809803461538 3.33246044754464  16.7483526153846 3.42409774441964  16.6882924230769 3.48989086383929  L 15.8320212884615 4.43336661160714  L 14.4439261153846 2.87844028571429  L 15.2880553269231 1.94761537834821  C 15.4214393461538 1.79973278013393  15.6800603076923 1.82130216964286  15.8333200961538 1.99090603013393  L 16.6480095769231 2.89007125446429  C 16.7330227115385 2.98366152232143  16.781492 3.10826046875  16.781492 3.23147063392857  Z M 7.34613655769231 10.7053679095982  L 13.5666181538462 3.84578556808036  L 14.9554020961538 5.40175347991072  L 8.74649173076923 12.2478603895089  L 7.34613655769231 10.7053679095982  Z M 6.21280525 13.486406921875  L 6.66233184615385 11.6670061941964  L 7.86141055769231 12.9893347957589  L 6.21280525 13.486406921875  Z M 17.3760525576923 7.90942127678572  C 17.3747931153846 7.54886116071429  17.0882280192308 7.256307515625  16.7619901346154 7.256307515625  C 16.4356735384615 7.256307515625  16.1484393461538 7.54886116071429  16.1471799038462 7.91356588504464  L 16.1471799038462 16.8073313370536  C 16.1471799038462 17.2720060033482  15.8049430192308 17.6323708180804  15.3828685769231 17.6323708180804  L 2.12343753846154 17.6323708180804  C 1.7020125 17.6323708180804  1.38791653846154 17.2720494107143  1.38791653846154 16.8073313370536  L 1.38791653846154 2.17060018415179  C 1.38791653846154 1.70555662946429  1.70199282692308 1.35543400223214  2.12343753846154 1.35543400223214  L 11.2231485576923 1.35543400223214  C 11.5512953076923 1.35543400223214  11.8175517115385 1.03388972879464  11.8175517115385 0.671940831473214  C 11.8175517115385 0.3107080390625  11.5512756346154 0.000122036830357307  11.2231485576923 0.000122036830357307  L 2.03275686538462 0.000122058035714396  C 1.00535744230769 0.000122058035714396  0.151467461538462 0.937738935267857  0.151467461538462 2.07130293973214  L 0.151467461538462 16.9073663794643  C 0.151467461538462 18.0409737912946  1.00537713461538 18.9944530390625  2.03275686538462 19  L 15.4728407884615 19  C 16.5009880192308 18.9944530390625  17.3760525576923 18.0409737912946  17.3760525576923 16.9073663794643  L 17.3760525576923 7.90942127678572  Z " fill-rule="nonzero" fill="#02a7f0" stroke="none" fill-opacity="0.996078431372549" transform="matrix(1 0 0 1 1389 18 )" />
  </g>
</svg>