<?xml version="1.0" encoding="utf-8"?>
<svg version="1.1" xmlns:xlink="http://www.w3.org/1999/xlink" width="18px" height="18px" xmlns="http://www.w3.org/2000/svg">
  <g transform="matrix(1 0 0 1 -956 -864 )">
    <path d="M 17.5745178947368 0.425482105263157  C 17.9295599944417 0.780631443877624  17.9295599944417 1.35632855612237  17.5745178947368 1.71147789473684  L 10.2859957894737 9  L 17.5745178947368 16.2891284210526  C 17.7519585523128 16.4605063424754  17.8521694839458 16.6966128800234  17.8521694839458 16.9433021155247  C 17.8521694839458 17.4455905616866  17.4449842458971 17.8527757997352  16.9426957997352 17.8527757997352  C 16.696006564234 17.8527757997352  16.459900026686 17.7525648681023  16.2885221052632 17.5751242105263  L 9 10.2859957894737  L 1.71208421052632 17.5745178947368  C 1.5414980522282 17.7451844802666  1.31008529385564 17.8410707335783  1.06878315789474 17.8410707335783  C 0.566452158542006 17.8410707335783  0.159232424316389 17.4338509993527  0.159232424316389 16.93152  C 0.159232424316389 16.6903664284385  0.255000973097721 16.459083615143  0.425482105263158 16.2885221052632  L 7.71339789473684 9  L 0.425482105263158 1.71208421052632  C 0.254815519733406 1.5414980522282  0.158929266421653 1.31008529385564  0.158929266421653 1.06878315789474  C 0.158929266421653 0.566452158542005  0.566149000647269 0.159232424316389  1.06848 0.159232424316389  C 1.30963357156154 0.159232424316389  1.54091638485704 0.255000973097721  1.71147789473684 0.425482105263158  L 9 7.71339789473684  L 16.2891284210526 0.425482105263158  C 16.6442777596671 0.0704400055583222  17.2199748719118 0.0704400055583222  17.5751242105263 0.425482105263158  Z " fill-rule="nonzero" fill="#eb1c26" stroke="none" transform="matrix(1 0 0 1 956 864 )" />
  </g>
</svg>