<?xml version="1.0" encoding="utf-8"?>
<svg version="1.1" xmlns:xlink="http://www.w3.org/1999/xlink" width="75px" height="27px" viewBox="2162 2620  75 27" xmlns="http://www.w3.org/2000/svg">
  <path d="M 2162.5 2625  A 4.5 4.5 0 0 1 2167 2620.5 L 2232 2620.5  A 4.5 4.5 0 0 1 2236.5 2625 L 2236.5 2642  A 4.5 4.5 0 0 1 2232 2646.5 L 2167 2646.5  A 4.5 4.5 0 0 1 2162.5 2642 L 2162.5 2625  Z " fill-rule="nonzero" fill="#81d3f8" stroke="none" fill-opacity="0.109803921568627" />
  <path d="M 2162.5 2625  A 4.5 4.5 0 0 1 2167 2620.5 L 2232 2620.5  A 4.5 4.5 0 0 1 2236.5 2625 L 2236.5 2642  A 4.5 4.5 0 0 1 2232 2646.5 L 2167 2646.5  A 4.5 4.5 0 0 1 2162.5 2642 L 2162.5 2625  Z " stroke-width="1" stroke="#81d3f8" fill="none" />
</svg>