<?xml version="1.0" encoding="utf-8"?>
<svg version="1.1" xmlns:xlink="http://www.w3.org/1999/xlink" width="17px" height="21px" xmlns="http://www.w3.org/2000/svg">
  <g transform="matrix(1 0 0 1 -1222 -278 )">
    <path d="M 16.0835 9.8695  C 15.055 9.51675  13.89475 9.844  13.23175 10.70675  L 12.08425 12.207  C 11.893 12.4535  11.50625 12.445  11.332 12.18575  L 11.22575 12.0285  C 11.0005 11.697  10.87725 11.306  10.87725 10.9065  L 10.87725 2.64875  C 10.87725 2.18125  10.48625 1.79875  10.00175 1.79875  C 9.51725 1.79875  9.12625 2.177  9.12625 2.64875  L 9.12625 9.759  C 9.12625 10.08625  8.85 10.354  8.51425 10.354  L 8.391 10.354  C 8.051 10.354  7.779 10.08625  7.779 9.759  L 7.779 1.531  C 7.779 1.0635  7.388 0.681  6.9035 0.681  C 6.419 0.681  6.028 1.05925  6.028 1.531  L 6.028 9.75475  C 6.028 10.082  5.75175 10.34975  5.416 10.34975  C 5.076 10.34975  4.804 10.082  4.804 9.75475  L 4.804 2.18975  C 4.804 1.72225  4.413 1.33975  3.9285 1.33975  C 3.444 1.33975  3.053 1.718  3.053 2.18975  L 3.053 10.6685  C 3.053 10.99575  2.77675 11.2635  2.441 11.2635  L 2.39 11.2635  C 2.05 11.2635  1.778 10.99575  1.778 10.6685  L 1.778 5.3645  C 1.778 4.97775  1.455 4.659  1.05125 4.659  C 0.651750000000002 4.659  0.324500000000002 4.9735  0.324500000000002 5.3645  L 0.324500000000002 14.74  C 0.324500000000002 17.88075  2.968 20.656  6.2065 20.74525  C 9.26225 20.826  11.62525 19.03675  12.69625 16.644  L 14.7745 12.38125  C 15.004 11.90525  15.2845 11.459  15.61175 11.03825  L 16.194 10.29025  C 16.3045 10.15  16.2535 9.929  16.0835 9.8695  Z " fill-rule="nonzero" fill="#ffffff" stroke="none" transform="matrix(1 0 0 1 1222 278 )" />
  </g>
</svg>