<?xml version="1.0" encoding="utf-8"?>
<svg version="1.1" xmlns:xlink="http://www.w3.org/1999/xlink" width="556px" height="10px" preserveAspectRatio="xMinYMid meet" viewBox="975 1220  556 8" xmlns="http://www.w3.org/2000/svg">
  <path d="M 470 717.5  L 704 717.5  A 3 3 0 0 1 707 714.5 A 3 3 0 0 1 710 717.5 L 975 717.5  A 5 5 0 0 1 980.5 722.5 L 980.5 1219  A 5 5 0 0 0 985 1224.5 L 1209 1224.5  A 3 3 0 0 1 1212 1221.5 A 3 3 0 0 1 1215 1224.5 L 1530 1224.5  " stroke-width="1" stroke-dasharray="9,4" stroke="#02a7f0" fill="none" />
  <path d="M 1524.3 1230.5  L 1531 1224.5  L 1524.3 1218.5  L 1526.6 1224.5  L 1524.3 1230.5  Z " fill-rule="nonzero" fill="#02a7f0" stroke="none" />
</svg>