<?xml version="1.0" encoding="utf-8"?>
<svg version="1.1" xmlns:xlink="http://www.w3.org/1999/xlink" width="10px" height="2518px" preserveAspectRatio="xMidYMin meet" viewBox="1446 106  8 2518" xmlns="http://www.w3.org/2000/svg">
  <path d="M 1497 111.5  L 1455 111.5  A 5 5 0 0 0 1450.5 116 L 1450.5 175  A 3 3 0 0 1 1453.5 178 A 3 3 0 0 1 1450.5 181 L 1450.5 1221  A 3 3 0 0 1 1453.5 1224 A 3 3 0 0 1 1450.5 1227 L 1450.5 2272  A 3 3 0 0 1 1453.5 2275 A 3 3 0 0 1 1450.5 2278 L 1450.5 2614  A 5 5 0 0 1 1445.5 2619.5 L 1395 2619.5  " stroke-width="1" stroke-dasharray="9,4" stroke="#0099cc" fill="none" />
  <path d="M 1395 2612  L 1384 2619.5  L 1395 2627  L 1395 2612  Z " fill-rule="nonzero" fill="#0099cc" stroke="none" />
</svg>