<?xml version="1.0" encoding="utf-8"?>
<svg version="1.1" xmlns:xlink="http://www.w3.org/1999/xlink" width="34px" height="31px" xmlns="http://www.w3.org/2000/svg">
  <g transform="matrix(1 0 0 1 -713 -907 )">
    <path d="M 32.265306122449 6.19596354166667  C 32.7823129251701 6.39778645833333  33.1836734693878 6.68706597222222  33.469387755102 7.06380208333333  C 34.0136054421769 7.83072916666667  34.1360544217687 8.69856770833333  33.8367346938776 9.66731770833333  L 28.2244897959184 27.9524739583333  C 27.9659863945578 28.8135850694444  27.4455782312925 29.5367838541667  26.6632653061224 30.1220703125  C 25.8809523809524 30.7073567708333  25.0476190476191 31  24.1632653061225 31  L 5.3265306122449 31  C 4.27891156462585 31  3.2687074829932 30.6400824652778  2.29591836734694 29.9202473958333  C 1.32312925170068 29.2004123263889  0.646258503401361 28.3157552083333  0.26530612244898 27.2662760416667  C -0.0612244897959184 26.3648003472222  -0.0748299319727891 25.5104166666667  0.224489795918367 24.703125  C 0.224489795918367 24.6493055555556  0.244897959183673 24.4676649305556  0.285714285714286 24.158203125  C 0.326530612244898 23.8487413194444  0.35374149659864 23.5998263888889  0.36734693877551 23.4114583333333  C 0.380952380952381 23.3038194444444  0.360544217687075 23.1591796875  0.306122448979592 22.9775390625  C 0.251700680272109 22.7958984375  0.231292517006803 22.6647135416667  0.244897959183673 22.583984375  C 0.272108843537415 22.4359809027778  0.326530612244898 22.2947048611111  0.408163265306122 22.16015625  C 0.489795918367347 22.0256076388889  0.602040816326531 21.8675130208333  0.744897959183674 21.6858723958333  C 0.887755102040816 21.5042317708333  1 21.3461371527778  1.08163265306122 21.2115885416667  C 1.39455782312925 20.7003038194444  1.70068027210884 20.0847439236111  2 19.3649088541667  C 2.29931972789116 18.6450737847222  2.50340136054422 18.0295138888889  2.61224489795918 17.5182291666667  C 2.6530612244898 17.3836805555556  2.65646258503401 17.1818576388889  2.62244897959184 16.9127604166667  C 2.58843537414966 16.6436631944444  2.58503401360544 16.4552951388889  2.61224489795918 16.34765625  C 2.6530612244898 16.1996527777778  2.7687074829932 16.0112847222222  2.95918367346939 15.7825520833333  C 3.14965986394558 15.5538194444444  3.26530612244898 15.3990885416667  3.30612244897959 15.318359375  C 3.59183673469388 14.833984375  3.87755102040816 14.2150607638889  4.16326530612245 13.4615885416667  C 4.44897959183673 12.7081163194444  4.61904761904762 12.1026475694444  4.6734693877551 11.6451822916667  C 4.68707482993197 11.5240885416667  4.67006802721088 11.3088107638889  4.62244897959184 10.9993489583333  C 4.57482993197279 10.6898871527778  4.57823129251701 10.5015190972222  4.63265306122449 10.4342447916667  C 4.68707482993197 10.2593315972222  4.83673469387755 10.0541449652778  5.08163265306122 9.81868489583333  C 5.3265306122449 9.58322482638889  5.47619047619048 9.43185763888889  5.53061224489796 9.36458333333333  C 5.7891156462585 9.01475694444444  6.07823129251701 8.4462890625  6.39795918367347 7.6591796875  C 6.71768707482993 6.8720703125  6.90476190476191 6.22287326388889  6.95918367346939 5.71158854166667  C 6.97278911564626 5.60394965277777  6.95238095238095 5.43240017361111  6.89795918367347 5.19694010416667  C 6.84353741496599 4.96148003472222  6.82993197278912 4.783203125  6.85714285714286 4.662109375  C 6.8843537414966 4.55447048611111  6.94557823129252 4.43337673611111  7.04081632653061 4.298828125  C 7.13605442176871 4.16427951388889  7.25850340136054 4.00954861111111  7.40816326530612 3.83463541666667  C 7.5578231292517 3.65972222222222  7.6734693877551 3.51844618055555  7.75510204081633 3.41080729166667  C 7.86394557823129 3.24934895833333  7.97619047619048 3.04416232638889  8.09183673469388 2.79524739583333  C 8.20748299319728 2.54633246527777  8.30952380952381 2.31087239583333  8.39795918367347 2.0888671875  C 8.48639455782313 1.86686197916667  8.5952380952381 1.62467447916667  8.72448979591837 1.3623046875  C 8.85374149659864 1.09993489583333  8.98639455782313 0.884657118055554  9.12244897959184 0.716471354166666  C 9.25850340136055 0.548285590277774  9.43877551020408 0.39019097222222  9.66326530612245 0.2421875  C 9.88775510204082 0.0941840277777736  10.1326530612245 0.0168185763888885  10.3979591836735 0.0100911458333345  C 10.6632653061224 0.00336371527777357  10.9863945578231 0.0403645833333345  11.3673469387755 0.12109375  L 11.3469387755102 0.181640625  C 11.8639455782313 0.060546875  12.2108843537415 0  12.3877551020408 0  L 27.9183673469388 0  C 28.9251700680272 0  29.7006802721088 0.376736111111108  30.2448979591837 1.13020833333333  C 30.7891156462585 1.88368055555555  30.9115646258503 2.75824652777777  30.6122448979592 3.75390625  L 25.0204081632653 22.0390625  C 24.530612244898 23.6401909722222  24.0442176870748 24.6728515625  23.5612244897959 25.1370442708333  C 23.078231292517 25.6012369791667  22.2040816326531 25.8333333333333  20.9387755102041 25.8333333333333  L 3.20408163265306 25.8333333333333  C 2.83673469387755 25.8333333333333  2.57823129251701 25.9342447916667  2.42857142857143 26.1360677083333  C 2.27891156462585 26.3513454861111  2.27210884353742 26.640625  2.40816326530612 27.00390625  C 2.73469387755102 27.9457465277778  3.71428571428571 28.4166666666667  5.3469387755102 28  L 24.1836734693878 28  C 24.578231292517 28.4166666666667  24.9591836734694 28.3123914930556  25.3265306122449 28.1038411458333  C 25.6938775510204 27.8952907986111  25.9319727891156 27.6161024305556  26.0408163265306 27.2662760416667  L 32.1632653061224 7.34635416666667  C 32.2585034013605 7.05034722222222  32.2925170068027 6.66688368055555  32.265306122449 6.19596354166667  Z M 12.1836734693878 5.8125  L 11.7551020408163 7.10416666666667  C 11.7006802721088 7.27907986111111  11.7142857142857 7.43044704861111  11.7959183673469 7.55826822916667  C 11.8775510204082 7.68608940972222  12.0136054421769 7.75  12.2040816326531 8  L 24.6122448979592 8  C 24.7891156462585 7.75  24.9625850340136 7.68608940972222  25.1326530612245 7.55826822916667  C 25.3027210884354 7.43044704861111  25.4149659863946 7.27907986111111  25.469387755102 7.10416666666667  L 25.8979591836735 5.8125  C 25.952380952381 5.63758680555555  25.9387755102041 5.48621961805555  25.8571428571429 5.3583984375  C 25.7755102040816 5.23057725694444  25.6394557823129 5.16666666666667  25.4489795918367 5.16666666666667  L 13.0408163265306 5.16666666666667  C 12.8639455782313 5.16666666666667  12.6904761904762 5.23057725694444  12.5204081632653 5.3583984375  C 12.3503401360544 5.48621961805555  12.2380952380952 5.63758680555555  12.1836734693878 5.8125  Z M 10.4897959183673 10.9791666666667  L 10.0612244897959 12.2708333333333  C 10.0068027210884 12.4457465277778  10.0204081632653 12.5971137152778  10.1020408163265 12.7249348958333  C 10.1836734693878 12.8527560763889  10.3197278911565 12.9166666666667  10.5102040816327 13  L 22.9183673469388 13  C 23.0952380952381 12.9166666666667  23.2687074829932 12.8527560763889  23.4387755102041 12.7249348958333  C 23.608843537415 12.5971137152778  23.7210884353742 12.4457465277778  23.7755102040816 12.2708333333333  L 24.2040816326531 10.9791666666667  C 24.2585034013605 10.8042534722222  24.2448979591837 10.6528862847222  24.1632653061225 10.5250651041667  C 24.0816326530612 10.3972439236111  23.9455782312925 10.3333333333333  23.7551020408163 10.3333333333333  L 11.3469387755102 10.3333333333333  C 11.1700680272109 10.3333333333333  10.9965986394558 10.3972439236111  10.8265306122449 10.5250651041667  C 10.656462585034 10.6528862847222  10.5442176870748 10.8042534722222  10.4897959183673 10.9791666666667  Z " fill-rule="nonzero" fill="#70b603" stroke="none" transform="matrix(1 0 0 1 713 907 )" />
  </g>
</svg>