<?xml version="1.0" encoding="utf-8"?>
<svg version="1.1" xmlns:xlink="http://www.w3.org/1999/xlink" width="20px" height="20px" xmlns="http://www.w3.org/2000/svg">
  <g transform="matrix(1 0 0 1 -73 -157 )">
    <path d="M 83 158  C 88.04 158  92 161.96  92 167  C 92 172.04  88.04 176  83 176  C 77.96 176  74 172.04  74 167  C 74 161.96  77.96 158  83 158  Z " fill-rule="nonzero" fill="#ffffff" stroke="none" />
    <path d="M 83 158  C 88.04 158  92 161.96  92 167  C 92 172.04  88.04 176  83 176  C 77.96 176  74 172.04  74 167  C 74 161.96  77.96 158  83 158  Z " stroke-width="2" stroke="#69e147" fill="none" />
  </g>
</svg>