<?xml version="1.0" encoding="utf-8"?>
<svg version="1.1" xmlns:xlink="http://www.w3.org/1999/xlink" width="6px" height="6px" xmlns="http://www.w3.org/2000/svg">
  <g transform="matrix(1 0 0 1 -901 -392 )">
    <path d="M 904 392  C 905.68 392  907 393.32  907 395  C 907 396.68  905.68 398  904 398  C 902.32 398  901 396.68  901 395  C 901 393.32  902.32 392  904 392  Z " fill-rule="nonzero" fill="#ff0000" stroke="none" />
    <path d="M 904 392.5  C 905.4 392.5  906.5 393.6  906.5 395  C 906.5 396.4  905.4 397.5  904 397.5  C 902.6 397.5  901.5 396.4  901.5 395  C 901.5 393.6  902.6 392.5  904 392.5  Z " stroke-width="1" stroke="#ff0000" fill="none" />
  </g>
</svg>