<?xml version="1.0" encoding="utf-8"?>
<svg version="1.1" xmlns:xlink="http://www.w3.org/1999/xlink" width="18px" height="18px" xmlns="http://www.w3.org/2000/svg">
  <g transform="matrix(1 0 0 1 -3225 -325 )">
    <path d="M 17.9964297841638 9.00224800877317  C 17.9964297841638 5.35982433822924  15.8004237130849 2.07671284864795  12.4339142109375 0.68607847265625  C 12.3808038272062 0.669903138295068  12.3255908959611 0.661681716356875  12.270071941524 0.661681716356875  C 11.9594894153709 0.661681716356875  11.7077125313678 0.913458600359987  11.7077125313678 1.22404112651312  C 11.7077125313678 1.43216988881796  11.8226636861914 1.62327982823182  12.0065210683594 1.72081979296875  C 14.9500736782264 2.93865024782002  16.8696887232175 5.81026886448817  16.8696887232175 8.99580068567884  C 16.8696887232175 13.3439560518228  13.3448123471739 16.8688324278663  8.99665698103001 16.8688324278663  C 4.64850161488609 16.8688324278663  1.12362523884251 13.3439560518228  1.12362523884251 8.99580068567884  C 1.12362523884251 5.86259034203571  2.98148361780439 3.02760788707178  5.85430911914062 1.77705573046875  C 6.08855084896806 1.70335376640001  6.24788495957404 1.48618583129806  6.24788495957404 1.24062287093934  C 6.24788495957404 0.9300403447862  5.99610807557093 0.678263460783087  5.68552554941779 0.678263460783087  C 5.58684051089625 0.678263460783087  5.48989300655422 0.704232387064004  5.40442158398437 0.753561615234375  C 2.12280295609731 2.1834841816291  0.00092865916383296 5.42262521233493  0.00092865916383296 9.00224800877317  C 0.00092865916383296 13.9715684272234  4.02935880321364 17.9999985712732  8.99867922166383 17.9999985712732  C 13.967999640114 17.9999985712732  17.9964297841638 13.9715684272234  17.9964297841638 9.00224800877317  Z " fill-rule="nonzero" fill="#02a7f0" stroke="none" transform="matrix(1 0 0 1 3225 325 )" />
  </g>
</svg>