<?xml version="1.0" encoding="utf-8"?>
<svg version="1.1" xmlns:xlink="http://www.w3.org/1999/xlink" width="14px" height="14px" xmlns="http://www.w3.org/2000/svg">
  <g transform="matrix(1 0 0 1 -3323 -328 )">
    <path d="M 0.247474997499498 2.1875  C 0.247474997499498 2.39065747566335  0.38215627340062 2.56919867030103  0.5775 2.625  L 9.17 2.625  C 9.21064323805799 2.63661003102782  9.25270602991919 2.6425  9.2949749974995 2.6425  C 9.54626455867251 2.6425  9.7499749974995 2.43878956117301  9.7499749974995 2.1875  C 9.7499749974995 1.93621043882699  9.54626455867251 1.7325  9.2949749974995 1.7325  C 9.25270602991919 1.7325  9.21064323805799 1.73838996897218  9.17 1.75  L 0.577499999999999 1.75  C 0.382156273400621 1.80580132969897  0.247474997499498 1.98434252433665  0.247474997499498 2.1875  Z M 0.568749992219811 7.51633414254519  C 0.571666863761341 7.51633414254519  0.574583667871645 7.51630609373337  0.5775 7.51625  L 9.17 7.51625  C 9.42128956117301 7.51625  9.625 7.31253956117301  9.625 7.06125  C 9.625 6.80512794726597  9.41737205273403 6.5975  9.16125 6.5975  L 0.568749999999996 6.5975  C 0.317376296281797 6.59749999221982  0.113665857454807 6.80121043104681  0.113665857454807 7.05249999221982  C 0.113665857454807 7.0554168637614  0.113693906266628 7.05833366787159  0.113749999999996 7.06125  C 0.113749992219812 7.3126237037182  0.3174604310468 7.51633414254519  0.568749992219811 7.51633414254519  Z M 0.568664199189285 12.4163358008107  C 0.571609674416991 12.4163358008107  0.574555080210011 12.4163071991921  0.5775 12.41625  L 9.17 12.41625  C 9.42269852728925 12.4114812583559  9.62504499209557 12.2052435153802  9.625 11.9525  C 9.62500000778018 11.7011262962818  9.42128956895319 11.4974158574548  9.17000000778018 11.4974158574548  C 9.1670831362386 11.4974158574548  9.16416633212841 11.4974439062666  9.16125 11.4975  L 0.568749999999996 11.4975  C 0.317460438826985 11.4975  0.113749999999996 11.701210438827  0.113749999999996 11.9525  C 0.1136928008079 11.95544491979  0.113664199189284 11.958390325583  0.113664199189284 11.9613358008107  C 0.113664199189284 12.2126253619837  0.317374638016276 12.4163358008107  0.568664199189285 12.4163358008107  Z M 11.9175 3.22875  C 11.9935505356971 3.33629159113194  12.1183364056762 3.3986845261215  12.25 3.395  C 12.3785894696476 3.39577351778422  12.4994548442774 3.33370751459594  12.57375 3.22875  L 13.79875 1.575  C 13.8950641095807 1.45258745581026  13.9121043601446 1.28559300028415  13.8425 1.14625  C 13.7690764325293 1.01175343405557  13.6282324118177 0.927917707441473  13.475 0.9275  L 10.99875 0.9275  C 10.8481295803521 0.929213756290894  10.7104979893948 1.01313545809411  10.64 1.14625  C 10.5615592440765 1.27840348499347  10.5615592440765 1.44284651500653  10.64 1.575  L 11.9175 3.22875  Z M 11.8125 1.75  L 12.67 1.75  L 12.25 2.31875  L 11.8125 1.75  Z M 11.9175 8.12875  C 11.9935505356971 8.23629159113194  12.1183364056762 8.2986845261215  12.25 8.295  C 12.3785894696476 8.29577351778422  12.4994548442774 8.23370751459594  12.57375 8.12875  L 13.79875 6.46625  C 13.8956577269101 6.34744877217793  13.9128426879663 6.18247314603836  13.8425 6.04625  C 13.7690764325293 5.91175343405557  13.6282324118177 5.82791770744147  13.475 5.8275  L 10.99875 5.8275  C 10.8481295803521 5.82921375629089  10.7104979893948 5.91313545809411  10.64 6.04625  C 10.5611663936415 6.17515225447948  10.5611663936415 6.33734774552052  10.64 6.46625  L 11.9175 8.12875  Z M 11.82125 6.6325  L 12.67875 6.6325  L 12.25 7.21  L 11.82125 6.6325  Z M 11.9175 13.0375  C 11.9991341022121 13.1361403306133  12.1220538400419 13.1911307396424  12.25 13.18625  C 12.3763849332003 13.186286340937  12.4957678091753 13.1282081850573  12.57375 13.02875  L 13.79875 11.375  C 13.8956577269101 11.2561987721779  13.9128426879663 11.0912231460384  13.8425 10.955  C 13.7729377431636 10.8157176383228  13.630687054648 10.7276576882893  13.475 10.7275  L 10.99875 10.7275  C 10.7766860652434 10.7343775888926  10.6002308060318 10.91638249016  10.6002308060318 11.1385529030159  C 10.6002308060318 11.2231844821442  10.6263412979986 11.3057552535906  10.675 11.375  L 11.9175 13.0375  Z M 11.82125 11.5325  L 12.67875 11.5325  L 12.25 12.11  L 11.82125 11.5325  Z " fill-rule="nonzero" fill="#02a7f0" stroke="none" transform="matrix(1 0 0 1 3323 328 )" />
  </g>
</svg>