<?xml version="1.0" encoding="utf-8"?>
<svg version="1.1" xmlns:xlink="http://www.w3.org/1999/xlink" width="11px" height="11px" xmlns="http://www.w3.org/2000/svg">
  <g transform="matrix(1 0 0 1 -118 -10 )">
    <path d="M 9.50016571428571 1.49983428571429  C 9.66579919383551 1.66551779413041  9.66579919383551 1.93409077729816  9.50016571428571 2.09977428571429  L 6.09994 5.5  L 9.50016571428571 8.90050857142857  C 9.58294494962807 8.98045943209234  9.62969513871577 9.09060734804665  9.62969513871577 9.20569228157291  C 9.62969513871577 9.44001881114398  9.43973595400112 9.62997799585862  9.20540942443006 9.62997799585862  C 9.09032449090379 9.62997799585862  8.98017657494948 9.58322780677093  8.90022571428571 9.50044857142857  L 5.5 6.09994  L 2.10005714285714 9.50016571428571  C 2.02047565382967 9.57978472405294  1.91251746967819 9.6245173734774  1.79994571428571 9.6245173734774  C 1.56559933289125 9.6245173734774  1.37562405509403 9.43454209568018  1.37562405509403 9.20019571428571  C 1.37562405509403 9.08769326683848  1.42030179325318 8.97979570438589  1.49983428571429 8.90022571428571  L 4.89977714285714 5.5  L 1.49983428571429 2.10005714285714  C 1.42021527594706 2.02047565382967  1.3754826265226 1.91251746967819  1.3754826265226 1.79994571428571  C 1.3754826265226 1.56559933289125  1.56545790431982 1.37562405509403  1.79980428571429 1.37562405509403  C 1.91230673316152 1.37562405509403  2.02020429561411 1.42030179325318  2.09977428571429 1.49983428571429  L 5.5 4.89977714285714  L 8.90050857142857 1.49983428571429  C 9.06619207984469 1.33420080616449  9.33476506301245 1.33420080616449  9.50044857142857 1.49983428571429  Z " fill-rule="nonzero" fill="#d9001b" stroke="none" transform="matrix(1 0 0 1 118 10 )" />
  </g>
</svg>