<?xml version="1.0" encoding="utf-8"?>
<svg version="1.1" xmlns:xlink="http://www.w3.org/1999/xlink" width="19px" height="18px" xmlns="http://www.w3.org/2000/svg">
  <g transform="matrix(1 0 0 1 -1512 -961 )">
    <path d="M 0.14563679245283 9.01071428571429  C 0.144187096476599 10.2068394954173  0.39426250521951 11.3910291053462  0.880990566037735 12.4928571428571  C 2.34606734902717 15.8206231315163  5.75376030579838 17.9845628856665  9.52912734735981 17.9845628856665  C 14.7114860871636 17.9845628856665  18.9126179133975 13.9666383120052  18.9126179133975 9.0102771713808  C 18.9126179133975 4.05391603075646  14.7114860871636 0.0359914570950902  9.52912734735981 0.0359914570950902  C 4.34676860755605 0.0359914570950902  0.145636781322072 4.05391603075646  0.145636781322072 9.0102771713808  Z M 1.04186320754717 9.01071428571429  C 1.04186320754717 4.55035714285714  4.83626179245283 0.921428571428571  9.5 0.921428571428571  C 14.1637382075472 0.921428571428571  17.9581367924528 4.55035714285714  17.9581367924528 9.01071428571429  C 17.9581367924528 13.4710714285714  14.1637382075472 17.1  9.5 17.1  C 4.83626179245283 17.1  1.04186320754717 13.4710714285714  1.04186320754717 9.01071428571429  Z M 12.684516509434 11.4501428571429  L 10.1336320754717 9.01071428571429  L 12.684516509434 6.57128571428571  C 12.7685710586401 6.49089670181185  12.8157924126835 6.38186580313489  12.8157924126835 6.26817857142857  C 12.8157924126835 6.0314371668505  12.6151246604472 5.83952033914784  12.3675884433962 5.83952033914784  C 12.2487173599297 5.83952033914784  12.1347149265647 5.88468241609756  12.0506603773585 5.96507142857143  L 9.5 8.40471428571429  L 6.94933962264151 5.96507142857143  C 6.86528507343534 5.88468241609756  6.75128264007029 5.83952033914784  6.63241155660377 5.83952033914784  C 6.3848753395528 5.83952033914784  6.18420758731653 6.03143716685049  6.18420758731653 6.26817857142857  C 6.18420758731653 6.38186580313489  6.23142894135987 6.49089670181185  6.31548349056604 6.57128571428571  L 8.8663679245283 9.01071428571429  L 6.31548349056604 11.4501428571429  C 6.23142894135987 11.5305318696167  6.18420758731653 11.6395627682937  6.18420758731653 11.75325  C 6.18420758731653 11.9899914045781  6.3848753395528 12.1819082322807  6.63241155660377 12.1819082322807  C 6.75128264007029 12.1819082322807  6.86528507343534 12.136746155331  6.94933962264151 12.0563571428571  L 9.5 9.61671428571428  L 12.0506603773585 12.0563571428571  C 12.1347149265646 12.136746155331  12.2487173599297 12.1819082322807  12.3675884433962 12.1819082322807  C 12.6151246604472 12.1819082322807  12.8157924126835 11.9899914045781  12.8157924126835 11.75325  C 12.8157924126835 11.6395627682937  12.7685710586401 11.5305318696167  12.684516509434 11.4501428571429  Z " fill-rule="nonzero" fill="#ec808d" stroke="none" transform="matrix(1 0 0 1 1512 961 )" />
  </g>
</svg>