<?xml version="1.0" encoding="utf-8"?>
<svg version="1.1" xmlns:xlink="http://www.w3.org/1999/xlink" width="70px" height="22px" xmlns="http://www.w3.org/2000/svg">
  <g transform="matrix(1 0 0 1 -1206 -1011 )">
    <path d="M 1207 1014  A 2 2 0 0 1 1209 1012 L 1273 1012  A 2 2 0 0 1 1275 1014 L 1275 1030  A 2 2 0 0 1 1273 1032 L 1209 1032  A 2 2 0 0 1 1207 1030 L 1207 1014  Z " fill-rule="nonzero" fill="#81d3f8" stroke="none" fill-opacity="0.219607843137255" />
    <path d="M 1206.5 1014  A 2.5 2.5 0 0 1 1209 1011.5 L 1273 1011.5  A 2.5 2.5 0 0 1 1275.5 1014 L 1275.5 1030  A 2.5 2.5 0 0 1 1273 1032.5 L 1209 1032.5  A 2.5 2.5 0 0 1 1206.5 1030 L 1206.5 1014  Z " stroke-width="1" stroke-dasharray="3,1" stroke="#81d3f8" fill="none" stroke-dashoffset="0.5" />
  </g>
</svg>