<?xml version="1.0" encoding="utf-8"?>
<svg version="1.1" xmlns:xlink="http://www.w3.org/1999/xlink" width="18px" height="19px" xmlns="http://www.w3.org/2000/svg">
  <g transform="matrix(1 0 0 1 -1253 -1769 )">
    <path d="M 6.46164633333333 10.7102271946903  C 6.1022953125 10.7102271946903  5.8109515 11.0041707721239  5.8109515 11.3666803893805  L 5.8109515 12.0066802986726  C 5.8109515 12.3692114170354  6.102316625 12.6631334933628  6.46164633333333 12.6631334933628  C 6.82099735416667 12.6631334933628  7.11234116666667 12.3691899159292  7.11234116666667 12.0066802986726  L 7.11234116666667 11.3666803893805  C 7.11234116666667 11.0041492710177  6.82097604166667 10.7102271946903  6.46164633333333 10.7102271946903  Z M 11.5362431041667 10.7102271946903  C 11.1768921041667 10.7102271946903  10.8855482708333 11.0041707721239  10.8855482708333 11.3666803893805  L 10.8855482708333 12.0066802986726  C 10.8855482708333 12.3692114170354  11.1769133958333 12.6631334933628  11.5362431041667 12.6631334933628  C 11.8955728125 12.6631334933628  12.1869379375 12.3691899159292  12.1869379166667 12.0066802986726  L 12.1869379166667 11.3666803893805  C 12.1869379166667 11.0041492710177  11.8955941041667 10.7102271946903  11.5362431041667 10.7102271946903  Z M 8.3307790625 13.7338649579646  C 8.13961266666667 13.43095275  7.74203689583333 13.3389649856195  7.4384986875 13.528812039823  C 7.13327629166667 13.7201646338496  7.03943058333333 14.1248935542035  7.22912597916667 14.4328385553097  C 7.45862370833333 14.8055212433628  8.08825547916667 15.4362299004425  8.9927089375 15.4362299004425  C 9.89262145833333 15.4362299004425  10.5300772708333 14.8103174192478  10.7647768125 14.440430715708  C 10.9567959583333 14.1379486559735  10.8696230625 13.7397365044248  10.5723312916667 13.5420821946903  C 10.2750395208333 13.3446429590708  9.87281622916667 13.4283933196903  9.6731649375 13.7257566028761  C 9.67052139583333 13.7297139834071  9.40130658333333 14.1233235110619  8.9927089375 14.1233235110619  C 8.596284375 14.1233235110619  8.3481539375 13.7602546969027  8.3307790625 13.7338649579646  Z M 17.8918699791667 2.84403736283186  C 17.8918699791667 2.48150626548673  17.6005048541667 2.18758416814159  17.2411751458333 2.18758416814159  L 12.9031669791667 2.18758416814159  L 12.9031669791667 1.6225810420354  C 12.9031669791667 0.778818680309735  12.2220714375 0.0923409457964604  11.3848577291667 0.0923409457964604  L 6.61305302083334 0.0923409457964604  C 5.7758393125 0.0923409457964604  5.09474377083334 0.778818659292036  5.09474377083334 1.6225810420354  L 5.09474377083334 2.18758416814159  L 0.756735604166667 2.18758416814159  C 0.397384583333333 2.18758416814159  0.106040770833333 2.48150624446903  0.106040770833333 2.84403736283186  C 0.106040770833333 3.20656848119469  0.397384583333333 3.50049055752212  0.756735604166667 3.50049053650443  L 17.2411751458333 3.50049053650443  C 17.6005261666667 3.50049053650443  17.8918699791667 3.20656846017699  17.8918699791667 2.84403736283186  Z M 11.601756 2.18758416814159  L 6.39613341666667 2.18758416814159  L 6.39613341666667 1.6225810420354  C 6.39613341666667 1.50471971238938  6.49547939583333 1.40524733517699  6.6130316875 1.40524733517699  L 11.3848364166667 1.40524733517699  C 11.5023887083333 1.40524733517699  11.6017346875 1.50471971238938  11.6017346875 1.6225810420354  L 11.6017346875 2.18758416814159  Z M 16 4.92891394137168  C 16.1566624583333 4.56638282300885  15.8653186458333 4.27246074668141  15.505967625 4.27246074668142  C 15.1466166041667 4.27246074668142  14.8552727916667 4.56638282300885  14.8552727916667 4.92891394137168  L 14.8552727916667 16.0698205674779  C 14.8552727916667 16.9124000320796  14.17417725 17.5979314026549  13.3369635416667 17.5979314236726  L 4.66094720833333 17.5979314236726  C 3.8237335 17.5979314236726  3.14263795833333 16.9124000320796  3.14263795833333 16.0698205674779  L 3.14263795833333 4.92891394137168  C 3.14263795833333 4.56638282300885  2.85129414583333 4.27246074668141  2.491943125 4.27246074668141  C 2.13259210416667 4.27246074668141  1.84124829166667 4.56638282300885  2 4.92891394137168  L 2 16.0698205674779  C 1.84124829166667 17.6363868982301  3.10611870833333 18.9108377920354  4.66094720833333 18.9108377920354  L 13.3369635416667 18.9108377920354  C 14.8918133541667 18.9108377920354  16.1566624583333 17.6363868982301  16 16.0698205674779  L 16 4.92891394137168  Z M 6.39613341666667 4.92891394137168  C 6.39613341666667 4.56638282300885  6.10478960416667 4.27246074668142  5.74543858333333 4.27246074668142  C 5.3860875625 4.27246074668142  5.09474375 4.56638282300885  5.09474377083333 4.92891394137168  L 5.09474377083333 8.44926836836283  C 5.09474377083333 8.81179948672566  5.38610889583333 9.1057215630531  5.74543858333333 9.1057215630531  C 6.10478960416667 9.1057215630531  6.39613341666667 8.81177798561947  6.39613341666667 8.44926836836283  L 6.39613341666667 4.92891394137168  Z M 12.2524721666667 9.1057215630531  C 12.611801875 9.1057215630531  12.903167 8.81179948672566  12.9031669791667 8.44926836836283  L 12.9031669791667 4.92891394137168  C 12.9031669791667 4.56638282300885  12.6118231666667 4.27246074668142  12.2524721666667 4.27246074668142  C 11.8931211666667 4.27246074668142  11.6017773333333 4.56638282300885  11.6017773333333 4.92891394137168  L 11.6017773333333 8.44926836836283  C 11.6017773333333 8.81179948672566  11.8931424583333 9.1057215630531  12.2524721666667 9.1057215630531  Z M 8.34826054166667 8.44926836836283  C 8.34823922916667 8.81179948672566  8.63960435416667 9.1057215630531  8.998955375 9.1057215630531  C 9.35830639583333 9.1057215630531  9.64965020833333 8.81177798561947  9.64965020833333 8.44926836836283  L 9.64965020833333 4.92891394137168  C 9.64965020833333 4.56638282300885  9.35828508333333 4.27246074668142  8.998955375 4.27246074668142  C 8.63962566666667 4.27246074668142  8.34826054166667 4.56638282300885  8.34826054166667 4.92891394137168  L 8.34826054166667 8.44926836836283  Z " fill-rule="nonzero" fill="#02a7f0" stroke="none" transform="matrix(1 0 0 1 1253 1769 )" />
  </g>
</svg>