<?xml version="1.0" encoding="utf-8"?>
<svg version="1.1" xmlns:xlink="http://www.w3.org/1999/xlink" width="53px" height="53px" xmlns="http://www.w3.org/2000/svg">
  <g transform="matrix(1 0 0 1 -480 -17 )">
    <path d="M 26.5 28.2032272539063  L 36.7217727460937 38.425  L 38.425 36.7217727460937  L 28.2032272539063 26.5  L 38.425 16.2782272539062  L 36.7217727460937 14.575  L 26.5 24.7967727460937  L 16.2782272539062 14.575  L 14.575 16.2782272539062  L 24.7967727460937 26.5  L 14.575 36.7217727460937  L 16.2782272539062 38.425  L 26.5 28.2032272539063  Z M 26.5 53  C 41.1352272539063 53  53 41.1352272539063  53 26.5  C 53 11.8647727460937  41.1352272539063 0  26.5 0  C 11.8647727460938 0  0 11.8647727460938  0 26.5  C 0 41.1352272539063  11.8647727460938 53  26.5 53  Z M 26.5 50.5909090673828  C 13.1945909326172 50.5909090673828  2.40909093261719 39.8054090673828  2.40909093261719 26.5  C 2.40909093261719 13.1945909326172  13.1945909326172 2.40909093261719  26.5 2.40909093261719  C 39.8054090673828 2.40909093261719  50.5909090673828 13.1945909326172  50.5909090673828 26.5  C 50.5909090673828 39.8054090673828  39.8054090673828 50.5909090673828  26.5 50.5909090673828  Z " fill-rule="nonzero" fill="#333333" stroke="none" transform="matrix(1 0 0 1 480 17 )" />
  </g>
</svg>