<?xml version="1.0" encoding="utf-8"?>
<svg version="1.1" xmlns:xlink="http://www.w3.org/1999/xlink" width="32px" height="32px" xmlns="http://www.w3.org/2000/svg">
  <g transform="matrix(1 0 0 1 -1227 -233 )">
    <path d="M 32 16  C 32 7.16  24.84 0  16 0  C 7.16 0  0 7.16  0 16  C 0 24.84  7.16 32  16 32  C 24.84 32  32 24.84  32 16  Z M 18.264 16  L 24 21.736  L 21.736 24  L 16 18.264  L 10.264 24  L 8 21.736  L 13.736 16  L 8 10.264  L 10.264 8  L 16 13.736  L 21.736 8  L 24 10.264  L 18.264 16  Z " fill-rule="nonzero" fill="#000000" stroke="none" transform="matrix(1 0 0 1 1227 233 )" />
  </g>
</svg>