<?xml version="1.0" encoding="utf-8"?>
<svg version="1.1" xmlns:xlink="http://www.w3.org/1999/xlink" width="57px" height="21px" xmlns="http://www.w3.org/2000/svg">
  <g transform="matrix(1 0 0 1 -825 -169 )">
    <path d="M 826 172  A 2 2 0 0 1 828 170 L 879 170  A 2 2 0 0 1 881 172 L 881 187  A 2 2 0 0 1 879 189 L 828 189  A 2 2 0 0 1 826 187 L 826 172  Z " fill-rule="nonzero" fill="#2962ff" stroke="none" fill-opacity="0.0980392156862745" />
    <path d="M 825.5 172  A 2.5 2.5 0 0 1 828 169.5 L 879 169.5  A 2.5 2.5 0 0 1 881.5 172 L 881.5 187  A 2.5 2.5 0 0 1 879 189.5 L 828 189.5  A 2.5 2.5 0 0 1 825.5 187 L 825.5 172  Z " stroke-width="1" stroke="#02a7f0" fill="none" stroke-opacity="0.498039215686275" />
  </g>
</svg>