<?xml version="1.0" encoding="utf-8"?>
<svg version="1.1" xmlns:xlink="http://www.w3.org/1999/xlink" width="80px" height="21px" xmlns="http://www.w3.org/2000/svg">
  <g transform="matrix(1 0 0 1 -825 -223 )">
    <path d="M 826 226  A 2 2 0 0 1 828 224 L 902 224  A 2 2 0 0 1 904 226 L 904 241  A 2 2 0 0 1 902 243 L 828 243  A 2 2 0 0 1 826 241 L 826 226  Z " fill-rule="nonzero" fill="#2962ff" stroke="none" fill-opacity="0.0980392156862745" />
    <path d="M 825.5 226  A 2.5 2.5 0 0 1 828 223.5 L 902 223.5  A 2.5 2.5 0 0 1 904.5 226 L 904.5 241  A 2.5 2.5 0 0 1 902 243.5 L 828 243.5  A 2.5 2.5 0 0 1 825.5 241 L 825.5 226  Z " stroke-width="1" stroke="#02a7f0" fill="none" stroke-opacity="0.498039215686275" />
  </g>
</svg>