<?xml version="1.0" encoding="utf-8"?>
<svg version="1.1" xmlns:xlink="http://www.w3.org/1999/xlink" width="46px" height="46px" xmlns="http://www.w3.org/2000/svg">
  <g transform="matrix(1 0 0 1 -461 -390 )">
    <path d="M 46 23.027716796875  C 46 21.706609375  44.92897265625 20.635626953125  43.607685546875 21  L 25 21  L 25 2.481978515625  C 25.45336328125 1.16087109375  24.382291015625 0.08984375  23.061138671875 0.08984375  C 21.73994140625 0.08984375  20.6689140625 1.160826171875  21 2.481978515625  L 21 21  L 2.514501953125 21  C 1.1933046875 20.635626953125  0.12227734375 21.706609375  0.12227734375 23.027716796875  C 0.12227734375 24.348869140625  1.1933046875 25.41994140625  2.514501953125 25  L 21 25  L 21 43.573544921875  C 20.6689140625 44.8945625  21.73994140625 45.96558984375  23.061138671875 45.96558984375  C 24.382291015625 45.96558984375  25.45336328125 44.8945625  25 43.573544921875  L 25 25  L 43.607685546875 25  C 44.92897265625 25.41994140625  46 24.348869140625  46 23.027716796875  Z " fill-rule="nonzero" fill="#000000" stroke="none" transform="matrix(1 0 0 1 461 390 )" />
  </g>
</svg>