<?xml version="1.0" encoding="utf-8"?>
<svg version="1.1" xmlns:xlink="http://www.w3.org/1999/xlink" width="226px" height="188px" xmlns="http://www.w3.org/2000/svg">
  <g transform="matrix(1 0 0 1 -32 -29 )">
    <path d="M 32 29  L 258 29  L 258 217  L 32 217  L 32 29  " fill-rule="nonzero" fill="#cccccc" stroke="none" />
    <path d="M 45 42  L 245 42  L 245 204  L 45 204  L 45 42  " fill-rule="nonzero" fill="#ffffff" stroke="none" />
    <path d="M 163.62 85.4  C 155.724 85.4  149.52 79.196  149.52 71.3  C 149.52 63.404  155.724 57.2  163.62 57.2  C 171.516 57.2  177.72 63.404  177.72 71.3  C 177.72 79.196  171.516 85.4  163.62 85.4  " fill-rule="nonzero" fill="#cccccc" stroke="none" />
    <path d="M 50 200  L 50 115.85  L 97.75 77.6  L 164.6 123.635398230088  L 202.8 100.55  L 241 123.635398230088  L 241 200  L 50 200  " fill-rule="nonzero" fill="#169bd5" stroke="none" />
  </g>
</svg>