<?xml version="1.0" encoding="utf-8"?>
<svg version="1.1" xmlns:xlink="http://www.w3.org/1999/xlink" width="17px" height="12px" xmlns="http://www.w3.org/2000/svg">
  <g transform="matrix(1 0 0 1 -38 -363 )">
    <path d="M 16.9379575892857 6.23881578947368  C 16.9948772321429 6.05960526315789  16.9948772321429 5.9403947368421  16.9379575892857 5.76118421052631  C 15.4455245535714 2.29796052631579  12.17359375 0.0288157894736844  8.5 0.0288157894736844  C 4.82640625 0.0288157894736844  1.55447544642857 2.29796052631579  0.0620424107142856 5.76118421052631  C 0.00512276785714278 5.9403947368421  0.00512276785714278 6.05960526315789  0.0620424107142856 6.23881578947369  C 1.55447544642857 9.70203947368421  4.82621651785714 11.9711842105263  8.5 11.9711842105263  C 12.1737834821429 11.9711842105263  15.4455245535714 9.70144736842105  16.9379575892857 6.23881578947368  Z M 11.7165290178571 6  C 11.7165290178571 7.84026315789474  10.2690625 9.34598684210526  8.5 9.34598684210526  C 6.7309375 9.34598684210526  5.28347098214286 7.84026315789474  5.28347098214286 6  C 5.28347098214286 4.15973684210526  6.7309375 2.65401315789474  8.5 2.65401315789474  C 10.2690625 2.65401315789474  11.7165290178571 4.15973684210526  11.7165290178571 6  Z " fill-rule="nonzero" fill="#ffffff" stroke="none" transform="matrix(1 0 0 1 38 363 )" />
  </g>
</svg>