<?xml version="1.0" encoding="utf-8"?>
<svg version="1.1" xmlns:xlink="http://www.w3.org/1999/xlink" width="14px" height="14px" xmlns="http://www.w3.org/2000/svg">
  <g transform="matrix(1 0 0 1 -81 -362 )">
    <path d="M 6.2754591866248 11.4251760119407  L 6.2754591866248 8.63037872905053  L 9.18889154308218 8.63037872905053  C 9.19228559595578 8.63045903138901  9.19568041675223 8.630499186451  9.19907534726417 8.630499186451  C 9.44644351560784 8.630499186451  9.64697503745017 8.42188171614728  9.64697503745017 8.16453902488653  C 9.64697503745017 7.90719633362578  9.44644351560784 7.69857886332206  9.19907534726417 7.69857886332206  C 9.19568041675223 7.69857886332206  9.19228559595578 7.69861901838405  9.18889154308218 7.69869932072253  L 6.2754591866248 7.69869932072253  L 6.2754591866248 4.9039020378324  C 6.27533146189803 4.64665336694805  6.07483738134206 4.4381825554889  5.82755955618776 4.4381825554889  C 5.57958688495367 4.43818274238909  5.37909283348676 4.64665343998262  5.37896500961123 4.9039020378324  L 5.37896500961123 7.69869932072253  L 2.46553266627138 7.69869932072253  C 2.46213861339778 7.69861901838405  2.45874379260134 7.69857886332206  2.45534886208939 7.69857886332206  C 2.20798069374573 7.69857886332206  2.00744917190339 7.90719633362578  2.00744917190339 8.16453902488653  C 2.00744917190339 8.42188171614728  2.20798069374573 8.630499186451  2.45534886208939 8.630499186451  C 2.45874379260134 8.630499186451  2.46213861339778 8.63045903138901  2.46553266627138 8.63037872905053  L 5.37896500961123 8.63037872905053  L 5.37896500961123 11.4251760119407  C 5.37896500961123 11.6827183023991  5.57965206697966 11.8914975798227  5.82721209811801 11.8914975798227  C 6.07477212925636 11.8914975798227  6.2754591866248 11.6827183023991  6.2754591866248 11.4251760119407  Z M 11.4302427544488 9.59458379164763  L 11.4302427544488 13.2882938865028  C 11.4302427544488 13.6742650256785  11.1291726399777 13.9869932072253  10.75793003234 14  L 0.672312735226299 14  C 0.301222952770489 13.9871263351409  0.000255723065175182 13.6743468979284  0 13.2882938865028  L 0 3.27352330878187  C 0 2.88779309805355  0.301070114471016 2.57482398805934  0.672312735226299 2.57482398805934  L 10.75793003234 2.57482398805934  C 11.1290198096742 2.57469086768054  11.4299870313846 2.88747030268699  11.4302427544488 3.27352330878187  L 11.4302427544488 9.59482472009504  Z M 4.48247084571521 0.0130067927746806  L 13.2232310953584 0.0130067927746806  C 13.5944737161136 0.0130067927746806  13.8955438305847 0.318747981114258  13.8955438305847 0.695804685857016  L 13.8955438305847 9.34497947741326  C 13.8955438305847 9.72203618215602  13.5944737161136 10.0277773704956  13.2232310953584 10.0277773704956  L 12.8869589392362 10.0277773704956  C 12.5157163315985 10.0277773704956  12.2146462040099 9.72179525370861  12.2146462040099 9.34497947741326  L 12.2146462040099 2.40279939809315  C 12.2146462040099 2.02574269335039  11.9135760895389 1.72000150501081  11.5423334819012 1.72000151865728  L 4.48247084571521 1.72000151865728  C 4.11099663482443 1.72000151865728  3.81015811048891 1.41426033031771  3.81015812360644 1.03720362557495  L 3.81015812360644 0.695804685857016  C 3.81015812360644 0.318747981114258  4.11122823807746 0.0130067927746806  4.48247084571521 0.0130067927746806  Z " fill-rule="nonzero" fill="#ffffff" stroke="none" transform="matrix(1 0 0 1 81 362 )" />
  </g>
</svg>