<?xml version="1.0" encoding="utf-8"?>
<svg version="1.1" xmlns:xlink="http://www.w3.org/1999/xlink" width="14px" height="14px" xmlns="http://www.w3.org/2000/svg">
  <g transform="matrix(1 0 0 1 -203 -362 )">
    <path d="M 11.3111979166667 7.82942708333333  C 11.5481770833333 7.72612847222222  11.6666666666667 7.546875  11.6666666666667 7.29166666666667  L 11.6666666666667 2.91666666666667  C 11.6666666666667 2.75868055555555  11.6089409722222 2.62196180555555  11.4934895833333 2.50651041666667  C 11.3780381944444 2.39105902777778  11.2413194444444 2.33333333333333  11.0833333333333 2.33333333333333  L 6.70833333333333 2.33333333333333  C 6.453125 2.33333333333333  6.27387152777778 2.45182291666667  6.17057291666667 2.68880208333333  C 6.06727430555556 2.93793402777778  6.10980902777778 3.15060763888889  6.29817708333333 3.32682291666667  L 7.61067708333333 4.63932291666667  L 2.74348958333333 9.50651041666667  C 2.62803819444445 9.62196180555555  2.5703125 9.75868055555555  2.5703125 9.91666666666667  C 2.5703125 10.0746527777778  2.62803819444445 10.2113715277778  2.74348958333333 10.3268229166667  L 3.67317708333333 11.2565104166667  C 3.78862847222222 11.3719618055556  3.92534722222222 11.4296875  4.08333333333333 11.4296875  C 4.24131944444444 11.4296875  4.37803819444444 11.3719618055556  4.49348958333333 11.2565104166667  L 9.36067708333333 6.38932291666667  L 10.6731770833333 7.70182291666667  C 10.7825520833333 7.81727430555556  10.9192708333333 7.875  11.0833333333333 7.875  C 11.15625 7.875  11.2322048611111 7.85980902777778  11.3111979166667 7.82942708333333  Z M 13.2298177083333 0.770182291666667  C 13.7432725694444 1.28363715277778  14 1.90190972222222  14 2.625  L 14 11.375  C 14 12.0980902777778  13.7432725694444 12.7163628472222  13.2298177083333 13.2298177083333  C 12.7163628472222 13.7432725694444  12.0980902777778 14  11.375 14  L 2.625 14  C 1.90190972222222 14  1.28363715277778 13.7432725694444  0.770182291666667 13.2298177083333  C 0.256727430555556 12.7163628472222  0 12.0980902777778  0 11.375  L 0 2.625  C 0 1.90190972222222  0.256727430555556 1.28363715277778  0.770182291666667 0.770182291666667  C 1.28363715277778 0.256727430555555  1.90190972222222 0  2.625 0  L 11.375 0  C 12.0980902777778 0  12.7163628472222 0.256727430555555  13.2298177083333 0.770182291666667  Z " fill-rule="nonzero" fill="#ffffff" stroke="none" transform="matrix(1 0 0 1 203 362 )" />
  </g>
</svg>