<?xml version="1.0" encoding="utf-8"?>
<svg version="1.1" xmlns:xlink="http://www.w3.org/1999/xlink" width="14px" height="14px" xmlns="http://www.w3.org/2000/svg">
  <g transform="matrix(1 0 0 1 -163 -362 )">
    <path d="M 13.3456090651558 0  C 13.6232294617564 0  13.8182247403211 0.129261363636364  13.9305949008499 0.387784090909091  C 14.0429650613787 0.659564393939392  13.9966949952786 0.891571969696969  13.7917847025496 1.08380681818182  L 8.90368271954674 5.98579545454546  L 8.90368271954674 13.3636363636364  C 8.90368271954674 13.6420454545455  8.77478753541076 13.8375946969697  8.51699716713881 13.9502840909091  C 8.43106704438149 13.983428030303  8.34844192634561 14  8.26912181303116 14  C 8.09065155807365 14  7.94192634560907 13.9370265151515  7.82294617563739 13.8110795454545  L 5.28470254957507 11.265625  C 5.15911237016053 11.139678030303  5.09631728045326 10.9905303030303  5.09631728045326 10.8181818181818  L 5.09631728045326 5.98579545454546  L 0.208215297450425 1.08380681818182  C 0.00330500472143531 0.891571969696969  -0.0429650613786591 0.659564393939392  0.0694050991501416 0.387784090909091  C 0.181775259678942 0.129261363636364  0.376770538243626 0  0.654390934844193 0  L 13.3456090651558 0  Z " fill-rule="nonzero" fill="#ffffff" stroke="none" transform="matrix(1 0 0 1 163 362 )" />
  </g>
</svg>