<?xml version="1.0" encoding="utf-8"?>
<svg version="1.1" xmlns:xlink="http://www.w3.org/1999/xlink" width="19px" height="19px" xmlns="http://www.w3.org/2000/svg">
  <g transform="matrix(1 0 0 1 -165 -360 )">
    <path d="M 18.26774 5.87233  C 17.7899494265315 4.7208104948218  17.0906945097587 3.67431663811911  16.20966 2.79224  C 15.3275475021343 1.9112047563038  14.2810225208531 1.21195060972644  13.129475 0.73416  C 11.9773660574801 0.257747122740012  10.7429251633969 0.0121823084587995  9.4962 0.0114  C 8.24944334815588 0.0121748045677685  7.01496992926175 0.257739668107655  5.86283 0.73416  C 4.71131166363566 1.21195275855679  3.66481820961724 1.91120740626067  2.78274 2.79224  C 1.90171315409084 3.67432292390568  1.2024593135441 4.72081516994551  0.72466 5.87233  C 0.248227470809659 7.0244994788941  0.00266236906936054 8.25900637246155  0.0019 9.505795  C 0.00268723972886132 10.7525196761047  0.248251865075027 11.9869596204217  0.72466 13.13907  C 1.20245712859457 14.2905859988025  1.90171123818543 15.3370786474895  2.78274 16.21916  C 3.66484246349054 17.100231257457  4.7113684225382 17.7995183346173  5.862925 18.277335  C 7.01504698668864 18.7536939876304  8.24948336914331 18.9992256273567  9.4962 19  C 10.738895 19  11.981305 18.752905  13.129475 18.277335  C 14.2809953802488 17.7995030758932  15.3274873960902 17.1002171119427  16.209565 16.21916  C 17.0905937618146 15.3370786474895  17.7898478714054 14.2905859988025  18.267645 13.13907  C 18.744053134925 11.9869596204217  18.9896177602711 10.7525196761047  18.990405 9.505795  C 18.990405 8.26291  18.74331 7.020595  18.267645 5.87233  Z M 8.99289 10.5203  C 9.393125 15.137015  10.697 14.998885  11.25731 11.660015  L 12.160855 11.44123  C 11.16592 17.85411  7.162905 17.35897  6.69389 10.65843  C 2.08468 10.5317  1.409895 6.98573  7.014135 4.752185  L 7.208505 5.235735  C 4.280605 6.490685  4.05194 8.252175  6.72828 8.563015  C 7.43736 3.785085  9.81635 2.679855  11.41748 5.78835  L 10.948655 5.92648  C 9.965025 5.155175  9.335935 6.4676  9.08428 8.470865  C 12.835735 7.52685  14.8029 5.15527  12.00078 4.591065  L 11.840705 3.900225  C 17.93676 4.42985  16.14107 8.91993  8.992795 10.5203  Z " fill-rule="nonzero" fill="#70b603" stroke="none" transform="matrix(1 0 0 1 165 360 )" />
  </g>
</svg>