<?xml version="1.0" encoding="utf-8"?>
<svg version="1.1" xmlns:xlink="http://www.w3.org/1999/xlink" width="19px" height="19px" xmlns="http://www.w3.org/2000/svg">
  <g transform="matrix(1 0 0 1 -104 -360 )">
    <path d="M 9.47068571428571 0.136257142857143  C 4.29193714285714 0.136257142857143  0.0933714285714279 4.33656  0.0933714285714279 9.51552571428571  C 0.0933714285714279 14.6936228571429  4.29182857142857 18.89284  9.47068571428571 18.89284  C 14.6524742857143 18.89284  18.8500628571429 14.6936228571429  18.8500628571429 9.51552571428571  C 18.8498457142857 4.33656  14.6521485714286 0.136257142857144  9.47057714285715 0.136257142857144  Z M 16.6406342857143 11.6995485714286  L 10.8963371428571 16.4913485714286  C 10.3184114285714 16.9090228571429  9.59597714285714 17.2485257142857  8.84281714285714 17.0063028571429  C 8.39170285714286 16.8586457142857  7.98933714285714 16.5808114285714  7.59316 16.2894057142857  L 2.39237142857143 12.0410057142857  L 2.39237142857143 10.7770171428571  L 7.54169714285714 14.9185828571429  C 8.03070285714286 15.2248628571429  8.69005714285714 15.4182285714286  9.28274857142857 15.1894685714286  C 9.83212 14.9726514285714  10.3129828571429 14.5926514285714  10.7841828571429 14.18844  L 14.6713657142857 10.8347771428571  L 13.7783657142857 10.1100628571429  L 9.71399428571429 13.4510228571429  C 9.30294285714286 13.7634914285714  8.83044 14.0137485714286  8.29366285714286 13.9024628571429  C 7.79944571428572 13.7994285714286  7.41684 13.4168228571429  6.99210857142857 13.1383371428571  L 3.21632 10.0640285714286  C 2.92969142857143 9.84775428571429  2.63828571428572 9.61932  2.38053714285714 9.36070285714286  L 2.37424 8.52014285714286  L 6.95769142857143 12.1642342857143  C 7.36809142857143 12.4219828571429  7.92549714285714 12.6731085714286  8.41157142857143 12.40016  L 8.92717714285714 12.0660857142857  L 12.5024342857143 9.11153142857143  C 12.3232914285714 8.90850285714286  12.0059371428571 8.70276  11.7706628571429 8.73294285714286  C 11.5917371428571 8.75313714285714  11.4259485714286 8.81578285714286  11.2591828571429 8.93521142857143  L 8.71198857142857 11.0433428571429  C 8.49017714285715 11.1924114285714  8.11126285714286 11.3736171428571  7.83223428571429 11.3086914285714  C 7.13455428571429 11.1458342857143  6.63360571428572 10.5463028571429  6.11984571428572 10.14372  L 2.27576571428571 7.00828571428571  L 7.66047428571429 2.55088571428571  C 8.99536 1.57960571428571  10.36792 1.69534285714286  11.5917371428571 2.61038285714286  L 16.5931885714286 6.72317714285714  C 16.5963371428571 6.72806285714285  16.5911257142857 7.94645142857143  16.5859142857143 7.94417142857143  L 12.6345657142857 4.72231428571429  C 12.2212342857143 4.38465714285714  10.9536628571429 3.01687428571429  9.79509714285714 3.46114857142857  C 9.17341714285715 3.69935428571429  8.66269714285714 4.15101142857143  8.12559428571429 4.56846857142857  L 4.26978857142857 7.79803428571429  C 4.27434857142857 7.80085714285714  5.21892 8.58952  5.21892 8.58952  L 9.00947428571429 5.42368571428571  C 9.65699428571429 4.94445142857143  10.5604171428571 4.77442857142857  11.3175942857143 5.12880571428571  C 11.3175942857143 5.12880571428571  11.6921657142857 5.32825142857143  11.8428628571429 5.46103428571428  C 12.02852 5.62562857142857  16.5931885714286 9.34832571428571  16.5931885714286 9.34832571428571  C 16.5859142857143 9.62453142857143  16.6050228571429 9.97521714285714  16.5712571428571 10.2448  L 12.0954 6.61015428571429  C 11.52692 6.24709142857143  10.6503142857143 6.2396  10.0865028571429 6.63718857142857  C 8.85269714285715 7.61965142857143  7.69869142857143 8.58941142857143  6.50082285714286 9.63169714285714  C 6.72404571428572 9.93026857142857  7.06865142857143 10.0640285714286  7.44528571428572 9.94677142857143  L 7.70933142857143 9.79976571428571  L 10.1806342857143 7.69641142857143  C 10.5280628571429 7.48122285714286  11.2367085714286 7.36961142857143  11.5994457142857 7.59489714285714  L 12.0027885714286 7.86013714285714  L 16.6406342857143 11.63484  L 16.6406342857143 11.6995485714286  Z " fill-rule="nonzero" fill="#00bfbf" stroke="none" transform="matrix(1 0 0 1 104 360 )" />
  </g>
</svg>