<?xml version="1.0" encoding="utf-8"?>
<svg version="1.1" xmlns:xlink="http://www.w3.org/1999/xlink" width="19px" height="19px" xmlns="http://www.w3.org/2000/svg">
  <g transform="matrix(1 0 0 1 -135 -360 )">
    <path d="M 18.26774 5.87233  C 17.7899494265315 4.7208104948218  17.0906945097587 3.67431663811911  16.20966 2.79224  C 15.3275475021343 1.9112047563038  14.2810225208531 1.21195060972644  13.129475 0.73416  C 11.9773660574801 0.257747122740012  10.7429251633969 0.0121823084587995  9.4962 0.0114  C 8.24944334815588 0.0121748045677685  7.01496992926175 0.257739668107655  5.86283 0.73416  C 4.71131166363566 1.21195275855679  3.66481820961724 1.91120740626067  2.78274 2.79224  C 1.90171315409084 3.67432292390568  1.2024593135441 4.72081516994551  0.72466 5.87233  C 0.248227470809659 7.0244994788941  0.00266236906936054 8.25900637246155  0.0019 9.505795  C 0.00268723972886132 10.7525196761047  0.248251865075027 11.9869596204217  0.72466 13.13907  C 1.20245712859457 14.2905859988025  1.90171123818543 15.3370786474895  2.78274 16.21916  C 3.66484246349054 17.100231257457  4.7113684225382 17.7995183346173  5.862925 18.277335  C 7.01504698668864 18.7536939876304  8.24948336914331 18.9992256273567  9.4962 19  C 10.738895 19  11.981305 18.752905  13.129475 18.277335  C 14.2809953802488 17.7995030758932  15.3274873960902 17.1002171119427  16.209565 16.21916  C 17.0905937618146 15.3370786474895  17.7898478714054 14.2905859988025  18.267645 13.13907  C 18.744053134925 11.9869596204217  18.9896177602711 10.7525196761047  18.990405 9.505795  C 18.990405 8.26291  18.74331 7.020595  18.267645 5.87233  Z M 6.727615 11.220165  L 5.83053 10.358515  L 5.82141 10.367445  L 5.336245 10.82525  C 4.99757 11.139415  4.53986 11.33692  4.036265 11.33692  C 3.001905 11.33692  2.159635 10.511085  2.159635 9.487745  C 2.159635 8.47343  3.001905 7.647595  4.036265 7.647595  C 4.530645 7.647595  4.9609 7.836075  5.299575 8.14131  L 5.391155 8.22206  L 5.81229 8.63493  L 5.82141 8.626  L 6.72771 7.76435  L 7.615675 8.670935  L 6.727615 9.5057  L 7.59734 10.340465  L 6.727615 11.220165  Z M 13.45618 13.186  C 13.45618 14.20041  12.61391 15.026245  11.57043 15.026245  C 11.1456560819166 15.0260698965044  10.7331405306723 14.8838496760568  10.39851 14.62221  L 10.380175 14.60435  L 9.68449 13.9669  L 9.67537 13.9669  L 9.01626 14.5863  L 8.997925 14.60435  C 8.66102438673316 14.8767015045121  8.24107694505457 15.0255788565113  7.80786 15.026245  C 6.7735 15.026245  5.93123 14.20041  5.93123 13.186095  C 5.93123 12.710335  6.114295 12.279415  6.41649 11.947295  L 6.43473 11.92041  L 8.82398 9.496675  L 6.43473 7.055175  C 6.13263 6.723055  5.949565 6.292135  5.949565 5.816375  C 5.949565 4.80206  6.79174 3.976225  7.82629 3.976225  C 8.283905 3.976225  8.70504 4.137725  9.02538 4.398025  L 9.043715 4.416075  L 9.70292 5.035475  L 10.39851 4.398025  L 10.41694 4.389095  C 10.7507926003361 4.12618346134256  11.1637251646452 3.98386334371014  11.58867 3.98525  C 12.62303 3.98525  13.4653 4.81099  13.4653 5.8254  C 13.4653 6.292135  13.291355 6.723055  12.998375 7.04615  L 12.98004 7.073035  L 10.572455 9.496675  L 11.551905 10.49313  L 11.58867 10.528945  L 12.952585 11.956225  L 12.98916 11.96525  C 13.27302 12.29737  13.45618 12.719265  13.45618 13.186  Z M 15.33281 11.345945  C 14.82931 11.345945  14.371505 11.148345  14.03283 10.83418  L 13.538545 10.367445  L 13.520115 10.3854  L 12.641365 11.23812  L 11.771735 10.35842  L 12.641365 9.523655  L 12.63215 9.514725  L 11.762615 8.679865  L 12.65058 7.78221  L 12.687155 7.827145  L 13.538545 8.63493  L 13.547665 8.64395500000001  L 13.968705 8.231085  L 14.060285 8.159265  C 14.39896 7.85403  14.829215 7.66555000000001  15.3235 7.66555000000001  C 16.35805 7.66555000000001  17.20013 8.491385  17.209345 9.50570000000001  C 17.209345 10.520015  16.36717 11.34585  15.33281 11.34585  Z M 9.67537 8.61707  L 12.00971 6.26525  C 12.128745 6.148495  12.192775 5.995925  12.192775 5.8254  C 12.192775 5.493185  11.918225 5.21493  11.570335 5.21493  C 11.405605 5.21493  11.25902 5.2687  11.1492 5.37643  L 10.664035 5.852285  L 10.65482 5.86131  L 11.3506 6.52555  L 10.41694 7.476975  L 9.67537 6.75887  L 8.933895 7.45902  L 8.00014 6.52555  L 8.741615 5.8881  L 8.192515 5.34964  L 8.1833 5.34071  C 8.07225226884127 5.25799367829707  7.93720379317135 5.2138560465502  7.79874 5.215025  C 7.460065 5.215025  7.1763 5.484255  7.1763 5.8254  C 7.1763 5.97797  7.23121 6.112585  7.32279 6.220315  L 9.67537 8.61707  Z M 11.991375 12.755175  L 9.657035 10.40326  L 7.304455 12.80011  C 7.212875 12.907745  7.157965 13.04236  7.157965 13.195025  C 7.157965 13.52705  7.432515 13.8054  7.780405 13.8054  C 7.926895 13.8054  8.06417 13.76056  8.16487 13.679715  L 8.723375 13.14116  L 7.981805 12.48585  L 8.89732 11.543355  L 9.629675 12.243505  L 9.638795 12.25253  L 10.38027 11.51647  L 11.323145 12.47692  L 10.63658 13.150185  L 10.62746 13.159115  L 11.121745 13.643805  C 11.237201443708 13.748072174629  11.3873108494724 13.8056711142196  11.54288 13.8054  C 11.890675 13.8054  12.17444 13.53617  12.17444 13.195025  C 12.17444 13.0245  12.10129 12.871835  11.991375 12.755175  Z M 15.33281 8.895325  C 15.19544 8.895325  15.058165 8.940165  14.95737 9.020915  C 14.920795 9.047895  14.911675 9.05692  14.911675 9.05692  L 14.44475 9.5057  L 14.911675 9.972435  C 15.012375 10.06221  15.158865 10.125005  15.3235 10.125005  C 15.66227 10.125005  15.946035 9.846845  15.95525 9.51463  C 15.9552501225081 9.17236524589697  15.6781054283484 8.89522055173723  15.3362301225081 8.89522055173723  C 15.3350900751467 8.89522055173723  15.3339500299606 8.89522370117017  15.33281 8.89523  Z M 4.420825 9.003055  C 4.31091 8.922305  4.182755 8.87737  4.04548 8.87737  C 3.69759 8.87737  3.41373 9.1466  3.41373 9.487745  C 3.41373 9.828795  3.69759 10.107145  4.04548 10.107145  C 4.20109 10.107145  4.34758 10.05328  4.4574 9.954575  L 4.92423 9.487745  L 4.52143 9.10176  C 4.49251944109159 9.06442668612321  4.45867554618623 9.03118999990832  4.420825 9.00296  Z " fill-rule="nonzero" fill="#f59a23" stroke="none" transform="matrix(1 0 0 1 135 360 )" />
  </g>
</svg>