<?xml version="1.0" encoding="utf-8"?>
<svg version="1.1" xmlns:xlink="http://www.w3.org/1999/xlink" width="21px" height="21px" xmlns="http://www.w3.org/2000/svg">
  <g transform="matrix(1 0 0 1 -719 -358 )">
    <path d="M 729.5 358  C 735.38 358  740 362.62  740 368.5  C 740 374.38  735.38 379  729.5 379  C 723.62 379  719 374.38  719 368.5  C 719 362.62  723.62 358  729.5 358  Z " fill-rule="nonzero" fill="#ffffff" stroke="none" />
    <path d="M 729.5 358.5  C 735.1 358.5  739.5 362.9  739.5 368.5  C 739.5 374.1  735.1 378.5  729.5 378.5  C 723.9 378.5  719.5 374.1  719.5 368.5  C 719.5 362.9  723.9 358.5  729.5 358.5  Z " stroke-width="1" stroke="#797979" fill="none" />
  </g>
</svg>