<?xml version="1.0" encoding="utf-8"?>
<svg version="1.1" xmlns:xlink="http://www.w3.org/1999/xlink" width="226px" height="187px" xmlns="http://www.w3.org/2000/svg">
  <g transform="matrix(1 0 0 1 -332 -441 )">
    <path d="M 332 441  L 558 441  L 558 628  L 332 628  L 332 441  " fill-rule="nonzero" fill="#cccccc" stroke="none" />
    <path d="M 345 454  L 545 454  L 545 615  L 345 615  L 345 454  " fill-rule="nonzero" fill="#ffffff" stroke="none" />
    <path d="M 463.545 497.1  C 455.691 497.1  449.52 490.929  449.52 483.075  C 449.52 475.221  455.691 469.05  463.545 469.05  C 471.399 469.05  477.57 475.221  477.57 483.075  C 477.57 490.929  471.399 497.1  463.545 497.1  " fill-rule="nonzero" fill="#cccccc" stroke="none" />
    <path d="M 350 611  L 350 527.4  L 397.75 489.4  L 464.6 535.538053097345  L 502.8 512.2  L 541 535.538053097345  L 541 611  L 350 611  " fill-rule="nonzero" fill="#169bd5" stroke="none" />
  </g>
</svg>