<?xml version="1.0" encoding="utf-8"?>
<svg version="1.1" xmlns:xlink="http://www.w3.org/1999/xlink" width="16px" height="19px" xmlns="http://www.w3.org/2000/svg">
  <g transform="matrix(1 0 0 1 -139 -106 )">
    <path d="M 0.367516385800204 17.6129460089534  C 0.367516385800204 17.6024652112137  0.367677610870888 17.5919850746389  0.368000000000001 17.5815095652174  L 0.368000000000001 1.14224695652174  C 0.36733312754867 1.12714301484763  0.366999561520461 1.1120253455547  0.366999561520461 1.09690571430103  C 0.366999561520461 0.547087516187736  0.798640043347595 0.101371801257547  1.33109556152046 0.101371801257547  C 1.51424845002409 0.101371801257547  1.69361218506227 0.155243706906983  1.848192 0.256681739130435  C 2.438016 0.614608695652174  14.221184 7.84134956521739  15.226752 8.4593947826087  C 15.5313993168069 8.64579248964434  15.7182156343714 8.98432483771955  15.7182156343714 9.34998260869565  C 15.7182156343714 9.71564037967175  15.5313993168069 10.054172727747  15.226752 10.2405704347826  C 14.502784 10.6936626086956  2.67456 17.9595269565217  1.817984 18.4623165217391  C 1.66928316694422 18.5541616385368  1.49925215314604 18.602664269823  1.3259803858002 18.602664269823  C 0.796635335338382 18.602664269823  0.367516385800204 18.1595523110608  0.367516385800204 17.6129460089534  Z " fill-rule="nonzero" fill="#ffffff" stroke="none" fill-opacity="0.647058823529412" transform="matrix(1 0 0 1 139 106 )" />
  </g>
</svg>