<?xml version="1.0" encoding="utf-8"?>
<svg version="1.1" xmlns:xlink="http://www.w3.org/1999/xlink" width="24px" height="34px" xmlns="http://www.w3.org/2000/svg">
  <defs>
    <linearGradient gradientUnits="userSpaceOnUse" x1="0" y1="0" x2="24" y2="34" id="LinearGradient144">
      <stop id="Stop145" stop-color="#80ffff" offset="0" />
      <stop id="Stop146" stop-color="#00bfbf" offset="1" />
    </linearGradient>
  </defs>
  <g transform="matrix(1 0 0 1 0 -116 )">
    <path d="M 19.7627605434783 12.2296618085938  C 19.7822860290842 7.84368257139652  16.3073278506299 4.27144253618878  11.9998798369565 4.24945835742187  C 11.9750623222024 4.24921828250777  11.9502438274814 4.24909824301939  11.9254251927624 4.24909824301939  C 7.59698439484514 4.24909824301939  4.08808983406674 7.82195702756197  4.08808983406674 12.2293016941913  C 4.08808983406674 16.6366463608206  7.59698439484514 20.2095051453631  11.9254251927624 20.2095051453631  C 16.2537278756369 20.2095051453631  19.7625652246316 16.6368658379709  19.7627605434783 12.2296618085938  Z M 14.0571803804348 7.64503490429688  L 14.0689363695652 17.3290118242188  C 14.0689363695652 17.879645875  13.7397682826087 18.0631905585937  13.2068295 18.0631905253906  L 11.7530037717391 18.0631905253906  C 11.2161463043478 18.0631905253906  10.9692702391304 17.8796458417969  10.9692702391304 17.3290118242188  L 10.9692702391304 11.2121858769531  C 10.9692702391304 10.9368688515625  10.5774034565217 10.6256409199219  10.299178076087 10.6256409199219  L 8.92764436956521 10.6256409199219  C 8.91328956490387 10.6264931538536  8.89891342983069 10.6269195419215  8.88453424534042 10.6269195419215  C 8.47653613843451 10.6269195419215  8.14537778997852 10.2909346624969  8.14391083695652 9.87550177539063  C 8.16075919973165 9.41779586641154  8.44932919952308 9.01654361990481  8.87278304347826 8.8620159296875  C 9.50253091198749 8.65101007031899  10.0509823770296 8.24334210536026  10.4402501086957 7.69690625390625  C 10.6915308900684 7.21004985981374  11.1854429658173 6.90339394538115  11.7255731086957 6.89888587890625  L 13.1950734782609 6.89888587890625  C 13.7280122934783 6.89888587890625  14.0571803804348 7.09440085351563  14.0571803804348 7.64503490429688  Z M 23.0936280652174 30.7716645390625  L 19.006457673913 22.9390948652344  C 18.8539302168719 22.6574957831975  18.9235174630154 22.3049040002476  19.1710417173913 22.1051635839844  C 22.1639979685618 19.7641372295192  23.9142544416552 16.1363749499194  23.9047922608696 12.2935034492187  C 23.9504019732055 5.55174872980608  18.6209252731799 0.0483113367941079  11.9998798369565 0  C 5.3788344007331 0.0483113367941079  0.0493577007074865 5.55174872980608  0.0949674130434778 12.2935034492188  C 0.085505240033668 16.1363749556803  1.8357617256987 19.7641372363475  4.82871798913044 22.1051635839844  C 5.07624224350631 22.3049040002476  5.14582948964982 22.6574957831975  4.9933020326087 22.9390948652344  L 0.906131641304348 30.7716645390625  C 0.871233553288833 30.8360281810385  0.85292933070047 30.9083494543591  0.85292933070047 30.9818706173539  C 0.85292933070047 31.2220709048118  1.04416408675209 31.4167917111039  1.28006411330917 31.4167917111039  C 1.33030550562675 31.4167917111039  1.38015292433323 31.4077662523375  1.42731443478261 31.3901303164063  L 4.44076989130435 30.2369909316406  C 4.73617786400701 30.1237587353437  5.06583796073231 30.2755242087746  5.17747940217391 30.5761495644531  L 6.3530797173913 33.6604982128906  C 6.42940597069488 33.8648855932384  6.62182019578666 33.9999946835731  6.83657013366098 33.9999946835731  C 7.03109962810589 33.9999946835731  7.20918091675592 33.8888649099363  7.29747864130435 33.7123695292969  L 11.7373290978261 25.097739890625  C 11.7884864515974 24.9970647841862  11.8905158065838 24.933846109626  12.0018391793478 24.933846109626  C 12.1131625521119 24.933846109626  12.2151919070982 24.9970647841862  12.2663492608696 25.097739890625  L 16.7022810652174 33.7123695292969  C 16.7905787897658 33.8888649099363  16.9686600784158 33.9999946835731  17.1631895728608 33.9999946835731  C 17.3779395107351 33.9999946835731  17.5703537358269 33.8648855932384  17.6466799891304 33.6604982128906  L 18.8222802717391 30.5761495644531  C 18.9339217130502 30.2755241908792  19.2635818331015 30.1237587134272  19.5589898152174 30.2369909316406  L 22.5724452717391 31.3901303164063  C 22.6196067821885 31.4077662523376  22.669454200895 31.4167917111039  22.7196955932126 31.4167917111039  C 22.9555956197697 31.4167917111039  23.1468303758213 31.2220709048118  23.1468303758213 30.9818706173539  C 23.1468303758213 30.9083494543591  23.1285261532329 30.8360281810385  23.0936280652174 30.7716645390625  Z M 11.9998798369565 22.2807280625  L 11.9998798369565 22.2607775664062  C 6.76489813728613 22.0222154533526  2.64122131491935 17.6312452891984  2.64122131491935 12.2954984921875  C 2.64122131491935 6.95975169517655  6.76489813728613 2.56878153102237  11.9998798369565 2.33021941796875  C 17.4104308388554 2.33021941796875  21.7965490434783 6.79629290236336  21.7965490434783 12.3054737402344  C 21.7965490434783 17.8146545781054  17.4104308388554 22.2807280625  11.9998798369565 22.2807280625  Z " fill-rule="nonzero" fill="url(#LinearGradient144)" stroke="none" transform="matrix(1 0 0 1 0 116 )" />
  </g>
</svg>