<?xml version="1.0" encoding="utf-8"?>
<svg version="1.1" xmlns:xlink="http://www.w3.org/1999/xlink" width="350px" height="175px" xmlns="http://www.w3.org/2000/svg">
  <g transform="matrix(1 0 0 1 -83 -53 )">
    <path d="M 85 64  A 9 9 0 0 1 94 55 L 422 55  A 9 9 0 0 1 431 64 L 431 217  A 9 9 0 0 1 422 226 L 94 226  A 9 9 0 0 1 85 217 L 85 64  Z " fill-rule="nonzero" fill="#ffffff" stroke="none" fill-opacity="0.768627450980392" />
    <path d="M 84 64  A 10 10 0 0 1 94 54 L 422 54  A 10 10 0 0 1 432 64 L 432 217  A 10 10 0 0 1 422 227 L 94 227  A 10 10 0 0 1 84 217 L 84 64  Z " stroke-width="2" stroke="#02a7f0" fill="none" stroke-opacity="0.219607843137255" />
  </g>
</svg>