<?xml version="1.0" encoding="utf-8"?>
<svg version="1.1" xmlns:xlink="http://www.w3.org/1999/xlink" width="44px" height="44px" xmlns="http://www.w3.org/2000/svg">
  <g transform="matrix(1 0 0 1 -133 -81 )">
    <path d="M 40.425 35.968253968254  C 41.25 35.4095238095238  44 34.8507936507936  44 34.8507936507936  L 44 30.3809523809524  C 44 30.3809523809524  40.975 29.8222222222222  40.975 29.5428571428571  C 40.975 29.2634920634921  40.975 28.984126984127  40.7 28.984126984127  C 40.975 28.4253968253968  42.625 27.0285714285714  42.625 27.0285714285714  L 39.325 22.5587301587302  C 39.325 22.5587301587302  37.125 24.2349206349206  36.575 24.5142857142857  C 36.3 24.5142857142857  36.025 24.2349206349206  35.75 24.2349206349206  C 35.475 24.2349206349206  34.65 21.4412698412698  34.65 21.4412698412698  L 30.25 21.4412698412698  C 30.25 21.4412698412698  29.7 24.2349206349206  29.15 24.2349206349206  C 28.875 24.2349206349206  28.6 24.5142857142857  28.325 24.5142857142857  C 27.775 24.2349206349206  25.575 22.5587301587302  25.575 22.5587301587302  L 22.55 27.0285714285714  C 22.55 27.0285714285714  24.2 28.7047619047619  24.2 29.2634920634921  C 24.2 29.5428571428571  23.925 29.5428571428571  23.925 29.8222222222222  C 23.1 30.1015873015873  21.175 30.3809523809524  21.175 30.3809523809524  L 21.175 34.8507936507936  C 21.175 34.8507936507936  23.65 35.4095238095238  23.925 35.6888888888889  C 23.925 35.968253968254  24.2 36.247619047619  24.2 36.5269841269841  C 23.65 37.0857142857143  22.275 38.2031746031746  22.275 38.2031746031746  L 25.575 42.6730158730159  C 25.575 42.6730158730159  28.325 40.9968253968254  28.6 40.7174603174603  C 28.875 40.7174603174603  29.15 40.9968253968254  29.15 40.9968253968254  C 29.425 40.9968253968254  29.975 43.7904761904762  29.975 43.7904761904762  L 34.375 43.7904761904762  C 34.375 43.7904761904762  34.65 41.2761904761905  34.925 41.2761904761905  C 35.2 41.2761904761905  35.475 40.9968253968254  35.75 40.9968253968254  C 36.025 41.2761904761905  37.95 42.9523809523809  37.95 42.9523809523809  L 42.35 38.4825396825397  C 42.35 38.4825396825397  40.7 37.3650793650794  40.15 36.8063492063492  C 40.15 36.5269841269841  40.425 36.2476190476191  40.425 35.968253968254  Z M 38.225 32.615873015873  C 38.225 35.6888888888889  35.75 38.2031746031746  32.725 38.2031746031746  C 29.7 38.2031746031746  27.225 35.6888888888889  27.225 32.615873015873  C 27.225 29.5428571428571  29.7 27.0285714285714  32.725 27.0285714285714  C 35.75 27.0285714285714  38.225 29.5428571428571  38.225 32.615873015873  Z M 8.25 11.1047619047619  C 8.25 16.4126984126984  13.2 21.1619047619048  18.425 21.1619047619048  C 23.65 21.1619047619048  28.875 16.1333333333333  28.875 10.8253968253968  C 28.875 5.51746031746032  23.925 0.20952380952381  18.7 0.20952380952381  C 13.475 0.20952380952381  8.25 5.7968253968254  8.25 11.1047619047619  Z M 19.525 34.0126984126984  C 19.25 26.4698412698413  25.3 23.3968253968254  20.625 23  L 10.45 23  C 7.7 23.3968253968254  3.85 24.7936507936508  2.75 28.7047619047619  C 1.375 32.615873015873  1.375 32.615873015873  0.275 36.5269841269841  C -0.275 38.4825396825397  9.075 39.6  18.425 39.6  C 21.45 39.6  19.525 37.0857142857143  19.525 34.0126984126984  Z " fill-rule="nonzero" fill="#02a7f0" stroke="none" transform="matrix(1 0 0 1 133 81 )" />
  </g>
</svg>