<?xml version="1.0" encoding="utf-8"?>
<svg version="1.1" xmlns:xlink="http://www.w3.org/1999/xlink" width="104px" height="54px" xmlns="http://www.w3.org/2000/svg">
  <defs>
    <mask fill="white" id="clip155">
      <path d="M 0 45  L 0 3  C 0 1.31999999999999  1.31999999999994 0  3 0  L 101 0  C 102.68 0  104 1.31999999999999  104 3  L 104 45  C 104 46.68  102.68 48  101 48  L 57.501113585746 48  L 51.2650334075722 53.5634743875278  L 45.2516703786191 48  L 3 48  C 1.31999999999994 48  0 46.68  0 45  Z " fill-rule="evenodd" />
    </mask>
  </defs>
  <g transform="matrix(1 0 0 1 -1314 -355 )">
    <path d="M 0 45  L 0 3  C 0 1.31999999999999  1.31999999999994 0  3 0  L 101 0  C 102.68 0  104 1.31999999999999  104 3  L 104 45  C 104 46.68  102.68 48  101 48  L 57.501113585746 48  L 51.2650334075722 53.5634743875278  L 45.2516703786191 48  L 3 48  C 1.31999999999994 48  0 46.68  0 45  Z " fill-rule="nonzero" fill="#000000" stroke="none" fill-opacity="0.549019607843137" transform="matrix(1 0 0 1 1314 355 )" />
    <path d="M 0 45  L 0 3  C 0 1.31999999999999  1.31999999999994 0  3 0  L 101 0  C 102.68 0  104 1.31999999999999  104 3  L 104 45  C 104 46.68  102.68 48  101 48  L 57.501113585746 48  L 51.2650334075722 53.5634743875278  L 45.2516703786191 48  L 3 48  C 1.31999999999994 48  0 46.68  0 45  Z " stroke-width="2" stroke="#ffffff" fill="none" transform="matrix(1 0 0 1 1314 355 )" mask="url(#clip155)" />
  </g>
</svg>