<?xml version="1.0" encoding="utf-8"?>
<svg version="1.1" xmlns:xlink="http://www.w3.org/1999/xlink" width="133px" height="133px" xmlns="http://www.w3.org/2000/svg">
  <defs>
    <filter x="651px" y="842px" width="133px" height="133px" filterUnits="userSpaceOnUse" id="filter281">
      <feOffset dx="0" dy="0" in="SourceAlpha" result="shadowOffsetInner" />
      <feGaussianBlur stdDeviation="5.5" in="shadowOffsetInner" result="shadowGaussian" />
      <feComposite in2="shadowGaussian" operator="atop" in="SourceAlpha" result="shadowComposite" />
      <feColorMatrix type="matrix" values="0 0 0 0 0.333333333333333  0 0 0 0 0.333333333333333  0 0 0 0 0.333333333333333  0 0 0 0.349019607843137 0  " in="shadowComposite" />
    </filter>
    <g id="widget282">
      <path d="M 717.5 853  C 748.58 853  773 877.42  773 908.5  C 773 939.58  748.58 964  717.5 964  C 686.42 964  662 939.58  662 908.5  C 662 877.42  686.42 853  717.5 853  Z " fill-rule="nonzero" fill="#eb1c26" stroke="none" />
      <path d="M 717.5 853.5  C 748.3 853.5  772.5 877.7  772.5 908.5  C 772.5 939.3  748.3 963.5  717.5 963.5  C 686.7 963.5  662.5 939.3  662.5 908.5  C 662.5 877.7  686.7 853.5  717.5 853.5  Z " stroke-width="1" stroke="#ffffff" fill="none" />
    </g>
  </defs>
  <g transform="matrix(1 0 0 1 -651 -842 )">
    <use xlink:href="#widget282" filter="url(#filter281)" />
    <use xlink:href="#widget282" />
  </g>
</svg>