<?xml version="1.0" encoding="utf-8"?>
<svg version="1.1" xmlns:xlink="http://www.w3.org/1999/xlink" width="23px" height="29px" xmlns="http://www.w3.org/2000/svg">
  <g transform="matrix(1 0 0 1 -1205 -64 )">
    <path d="M 6.69385415722656 24.7708333427734  L 8.71479165722656 24.7708333427734  C 9.32755957945826 25.7134241558435  10.3757395294453 26.2818514551294  11.5 26.28125  C 12.6660416572266 26.28125  13.6925208427734 25.6801041572266  14.2852083427734 24.7708333427734  L 16.3061458427734 24.7708333427734  C 15.5512833334357 26.7703694245427  13.637279099767 28.0936519753804  11.5 28.0936519753804  C 9.36272090023297 28.0936519753804  7.44871666656425 26.7703694245427  6.69385415722656 24.7708333427734  Z M 8.78249306570963 3.624999715823  C 8.78249306570963 2.1239609766122  9.99896141768508 0.906936304288936  11.5 0.90625  C 13.0021256950807 0.90624993345469  14.2193515314782 2.12347576985222  14.2193515314782 3.62499993345469  C 14.2193515314782 4.06671229138725  14.1117277836027 4.5017730313064  13.9057916572266 4.89254165722656  C 17.2353541572266 5.9178125  19.65625 9.02020834277344  19.65625 12.6875  L 19.65625 19.5127708427734  L 22.3145833427734 21.72825  C 22.5898828417982 21.9578275042738  22.7490397803235 22.2977871099505  22.7490397803235 22.6562500015193  C 22.7490397803235 23.3235940794452  22.2080505154759 23.8645833442928  21.54070643755 23.8645833442928  L 1.45935415722656 23.8645833427734  C 0.792222365779228 23.8642833012546  0.251564260499884 23.323381981126  0.251564260499884 22.656250122207  C 0.251564260499884 22.2977871647146  0.410721257316269 21.957827503561  0.686020842773437 21.72825  L 3.34375 19.5127708427734  L 3.34375 12.6875  C 3.34375 9.02020834277344  5.76464584277344 5.9178125  9.09541665722656 4.89133334277344  C 8.88989194649477 4.50087006662627  8.78249306570963 4.06625018521761  8.78249306570963 3.624999715823  Z M 17.84375 12.6875  C 17.84375 9.1839375  15.0035625 6.34375  11.5 6.34375  C 7.9964375 6.34375  5.15625 9.1839375  5.15625 12.6875  L 5.15625 20.3622291572266  L 3.1280625 22  L 19.8719375 22  L 17.84375 20.3622291572266  L 17.84375 12.6875  Z M 11.5 2.71875  C 10.9994919454658 2.71875  10.59375 3.12449194546584  10.59375 3.625  C 10.59375 4.12550805453416  10.9994919454658 4.53125  11.5 4.53125  C 12.0005080545342 4.53125  12.40625 4.12550805453416  12.40625 3.625  C 12.40625 3.12449194546584  12.0005080545342 2.71875  11.5 2.71875  Z " fill-rule="nonzero" fill="#ffffff" stroke="none" transform="matrix(1 0 0 1 1205 64 )" />
  </g>
</svg>