<?xml version="1.0" encoding="utf-8"?>
<svg version="1.1" xmlns:xlink="http://www.w3.org/1999/xlink" width="32px" height="32px" preserveAspectRatio="xMinYMid meet" viewBox="1166 530  32 30" xmlns="http://www.w3.org/2000/svg">
  <defs>
    <mask fill="white" id="clip2089">
      <path d="M 960 375  L 1058 375  L 1058 400  L 960 400  Z M 676 375  L 1199 375  L 1199 561  L 676 561  Z " fill-rule="evenodd" />
    </mask>
  </defs>
  <path d="M 679 388.5  A 1 1 0 0 1 680 387.5 L 737 387.5  A 3 3 0 0 1 740 384.5 A 3 3 0 0 1 743 387.5 L 1089 387.5  A 5 5 0 0 1 1094.5 392.5 L 1094.5 540  A 5 5 0 0 0 1099.5 545.5 L 1182 545.5  " stroke-width="1" stroke-dasharray="9,4" stroke="#02a7f0" fill="none" mask="url(#clip2089)" />
  <path d="M 1176.3 551.5  L 1183 545.5  L 1176.3 539.5  L 1178.6 545.5  L 1176.3 551.5  Z " fill-rule="nonzero" fill="#02a7f0" stroke="none" mask="url(#clip2089)" />
</svg>