<?xml version="1.0" encoding="utf-8"?>
<svg version="1.1" xmlns:xlink="http://www.w3.org/1999/xlink" width="18px" height="16px" xmlns="http://www.w3.org/2000/svg">
  <g transform="matrix(1 0 0 1 -621 -250 )">
    <path d="M 13.0909090909091 14.3157894736842  C 13.0909090909091 12.0757894736842  8.73 10.9473684210526  6.54545454545455 10.9473684210526  C 4.36090909090909 10.9473684210526  0 12.0757894736842  0 14.3157894736842  L 0 16  L 13.0909090909091 16  L 13.0909090909091 14.3157894736842  Z M 12.8945454545455 8.95578947368421  C 14.5472727272727 7.24631578947368  14.5472727272727 4.68210526315789  12.8945454545455 2.83368421052632  L 11.5159090909091 4.25684210526316  C 12.2031818181818 5.25473684210526  12.2031818181818 6.53473684210526  11.5159090909091 7.53263157894737  L 12.8945454545455 8.95578947368421  Z M 15.6068181818182 11.7894736842105  C 18.7977272727273 8.51789473684211  18.7977272727273 3.40631578947368  15.6068181818182 0  L 14.2731818181818 1.37263157894737  C 16.5395454545455 3.92  16.5395454545455 7.73473684210526  14.2690909090909 10.4126315789474  L 15.6068181818182 11.7894736842105  Z " fill-rule="nonzero" fill="#000000" stroke="none" transform="matrix(1 0 0 1 621 250 )" />
  </g>
</svg>