<?xml version="1.0" encoding="utf-8"?>
<svg version="1.1" xmlns:xlink="http://www.w3.org/1999/xlink" width="33px" height="33px" xmlns="http://www.w3.org/2000/svg">
  <g transform="matrix(1 0 0 1 -615 -530 )">
    <path d="M 631.5 530  C 640.74 530  648 537.26  648 546.5  C 648 555.74  640.74 563  631.5 563  C 622.26 563  615 555.74  615 546.5  C 615 537.26  622.26 530  631.5 530  Z " fill-rule="nonzero" fill="#ffffff" stroke="none" fill-opacity="0" />
    <path d="M 631.5 530.5  C 640.46 530.5  647.5 537.54  647.5 546.5  C 647.5 555.46  640.46 562.5  631.5 562.5  C 622.54 562.5  615.5 555.46  615.5 546.5  C 615.5 537.54  622.54 530.5  631.5 530.5  Z " stroke-width="1" stroke="#797979" fill="none" />
  </g>
</svg>