<?xml version="1.0" encoding="utf-8"?>
<svg version="1.1" xmlns:xlink="http://www.w3.org/1999/xlink" width="36px" height="36px" xmlns="http://www.w3.org/2000/svg">
  <g transform="matrix(1 0 0 1 -840 -451 )">
    <path d="M 858 451  C 868.08 451  876 458.92  876 469  C 876 479.08  868.08 487  858 487  C 847.92 487  840 479.08  840 469  C 840 458.92  847.92 451  858 451  Z " fill-rule="nonzero" fill="#ffffff" stroke="none" />
    <path d="M 858 451.5  C 867.8 451.5  875.5 459.2  875.5 469  C 875.5 478.8  867.8 486.5  858 486.5  C 848.2 486.5  840.5 478.8  840.5 469  C 840.5 459.2  848.2 451.5  858 451.5  Z " stroke-width="1" stroke="#797979" fill="none" />
  </g>
</svg>