<?xml version="1.0" encoding="utf-8"?>
<svg version="1.1" xmlns:xlink="http://www.w3.org/1999/xlink" width="378px" height="260px" xmlns="http://www.w3.org/2000/svg">
  <g transform="matrix(1 0 0 1 -556 -434 )">
    <path d="M 558 439  A 3 3 0 0 1 561 436 L 929 436  A 3 3 0 0 1 932 439 L 932 689  A 3 3 0 0 1 929 692 L 561 692  A 3 3 0 0 1 558 689 L 558 439  Z " fill-rule="nonzero" fill="#d9001b" stroke="none" fill-opacity="0" />
    <path d="M 557 439  A 4 4 0 0 1 561 435 L 929 435  A 4 4 0 0 1 933 439 L 933 689  A 4 4 0 0 1 929 693 L 561 693  A 4 4 0 0 1 557 689 L 557 439  Z " stroke-width="2" stroke-dasharray="6,2" stroke="#d9001b" fill="none" />
  </g>
</svg>