<?xml version="1.0" encoding="utf-8"?>
<svg version="1.1" xmlns:xlink="http://www.w3.org/1999/xlink" width="18px" height="24px" xmlns="http://www.w3.org/2000/svg">
  <g transform="matrix(1 0 0 1 -622 -533 )">
    <path d="M 18 15.0697674418605  C 18 9.04744186046512  15.080625 3.67813953488372  10.6875 0.189767441860465  C 10.6875 0.189767441860465  11.52 3.14790697674419  11.52 5.54790697674419  C 11.52 7.84744186046512  10.00125 9.71720930232558  7.678125 9.71720930232558  C 5.355 9.71720930232558  3.6 7.85302325581395  3.6 5.54790697674419  L 3.628125 5.14604651162791  C 1.366875 7.83069767441861  0 11.2911627906977  0 15.0697674418605  C 0 20.0037209302326  4.0275 24  9 24  C 13.9725 24  18 20.0037209302326  18 15.0697674418605  Z M 14.07375 15.293023255814  C 14.07375 18.2455813953488  11.655 20.6511627906977  8.67375 20.6511627906977  C 6.67125 20.6511627906977  5.045625 19.0827906976744  5.045625 17.1460465116279  C 5.045625 15.3320930232558  6.22125 14.0595348837209  8.2125 13.6632558139535  C 10.20375 13.266976744186  12.2625 12.3181395348837  13.404375 10.7888372093023  C 13.843125 12.2288372093023  14.07375 13.746976744186  14.07375 15.293023255814  Z " fill-rule="nonzero" fill="#000000" stroke="none" transform="matrix(1 0 0 1 622 533 )" />
  </g>
</svg>