<?xml version="1.0" encoding="utf-8"?>
<svg version="1.1" xmlns:xlink="http://www.w3.org/1999/xlink" width="70px" height="22px" xmlns="http://www.w3.org/2000/svg">
  <g transform="matrix(1 0 0 1 -322 -182 )">
    <path d="M 323 185  A 2 2 0 0 1 325 183 L 389 183  A 2 2 0 0 1 391 185 L 391 201  A 2 2 0 0 1 389 203 L 325 203  A 2 2 0 0 1 323 201 L 323 185  Z " fill-rule="nonzero" fill="#81d3f8" stroke="none" fill-opacity="0.219607843137255" />
    <path d="M 322.5 185  A 2.5 2.5 0 0 1 325 182.5 L 389 182.5  A 2.5 2.5 0 0 1 391.5 185 L 391.5 201  A 2.5 2.5 0 0 1 389 203.5 L 325 203.5  A 2.5 2.5 0 0 1 322.5 201 L 322.5 185  Z " stroke-width="1" stroke-dasharray="3,1" stroke="#81d3f8" fill="none" stroke-dashoffset="0.5" />
  </g>
</svg>