<?xml version="1.0" encoding="utf-8"?>
<svg version="1.1" xmlns:xlink="http://www.w3.org/1999/xlink" width="15px" height="14px" xmlns="http://www.w3.org/2000/svg">
  <g transform="matrix(1 0 0 1 -145 -767 )">
    <path d="M 3.59430803571429 6.20576923076923  L 7.08147321428571 9.7125  L 7.08147321428571 0.0521634615384614  L 7.91852678571429 0.0521634615384614  L 7.91852678571429 9.7125  L 11.4056919642857 6.20745192307692  L 11.9983258928571 6.803125  L 7.5 11.3228365384615  L 3.00167410714286 6.80144230769231  L 3.59430803571429 6.20576923076923  Z M 15 2.50552884615385  L 12.8588169642857 2.50552884615385  L 12.8588169642857 3.346875  L 14.1127232142857 3.346875  L 14.1127232142857 13  L 0.887276785714286 13  L 0.887276785714286 3.346875  L 2.14118303571429 3.346875  L 2.14118303571429 2.50552884615385  L 0 2.50552884615385  L 0 14  L 15 14  L 15 2.50552884615385  Z " fill-rule="nonzero" fill="#ffffff" stroke="none" transform="matrix(1 0 0 1 145 767 )" />
  </g>
</svg>