<?xml version="1.0" encoding="utf-8"?>
<svg version="1.1" xmlns:xlink="http://www.w3.org/1999/xlink" width="18px" height="18px" xmlns="http://www.w3.org/2000/svg">
  <g transform="matrix(1 0 0 1 -1398 -183 )">
    <path d="M 17.9828763925781 9.01712360742188  C 17.9828763925781 10.411153734375  17.6561242558594 11.7248994140625  17.0896416152344 12.9022176445312  L 16.1711425019531 12.2240104804687  C 16.6101805898438 11.244315515625  16.8600168457031 10.1607560507812  16.8600168457031 9.01712360742188  C 16.8600168457031 4.67614859765625  13.3409750273437 1.15710676171875  9 1.15710676171875  C 7.7193786796875 1.15710676171875  6.51398895703125 1.46926172460937  5.44727239453125 2.0144100234375  L 6.05866941210937 3.0738280078125  L 2.66482641796875 3.22092261914062  L 3.01852717382813 2.51745111914062  L 4.28511274804687 0  L 4.88471974804687 1.039206515625  C 6.11705810742188 0.399176578125001  7.51445681835938 0.0342472148437523  9 0.0342472148437523  C 13.9613549238281 0.0342472148437523  17.9828763925781 4.05576868359375  17.9828763925781 9.01712360742188  Z M 9.5614297734375 7.9498456171875  C 10.8386825097656 8.2109104453125  11.7992888613281 9.34275287109375  11.7992888613281 10.6991672167969  C 11.7992888613281 12.2492748164063  10.5444933222656 13.50575465625  8.99663143359375 13.50575465625  C 7.44876954492187 13.50575465625  6.19397400585937 12.2492748164063  6.19397400585937 10.6991672167969  L 6.1928511328125 10.7014129277344  C 6.1928511328125 9.428090203125  7.15794892382813 8.22999905859375  8.4385702265625 7.95265275585938  L 8.4385702265625 5.22915691992188  L 8.4385702265625 4.94507344921875  L 8.4385702265625 3.80144100585937  C 8.4385702265625 3.58136052539062  8.61710489648438 3.40282585546875  8.837185359375 3.40282585546875  L 9.16281462304688 3.40282585546875  C 9.38289510351562 3.40282585546875  9.5614297734375 3.58136052539062  9.5614297734375 3.80144100585937  L 9.5614297734375 4.52568541992187  L 10.2649012734375 4.52568541992187  C 10.4967717714844 4.52568541992187  10.6842893203125 4.71320295117187  10.6842893203125 4.94507344921875  L 10.6842893203125 5.22971834765625  C 10.6842893203125 5.46102741796875  10.4967717714844 5.64854496679688  10.2649012734375 5.64854496679688  L 9.5614297734375 5.64854496679688  L 9.5614297734375 7.9498456171875  Z M 9.0050528671875 9.58023768164063  C 8.38635725390625 9.58023766406251  7.88443903125 10.0827173144531  7.88443903125 10.7030972285156  C 7.88443903125 11.3229156972656  8.38635725390625 11.8259567753906  9.0050528671875 11.8259567753906  C 9.62374848046875 11.8259567753906  10.125666703125 11.323477125  10.125666703125 10.7030972285156  C 10.125666703125 10.0827173320313  9.62374848046875 9.58023768164063  9.0050528671875 9.58023768164063  Z M 1.13998315429687 9.01712360742188  C 1.13998315429687 13.3580986171875  4.65902499023438 16.877140453125  9 16.877140453125  C 10.4490502558594 16.877140453125  11.8015345722656 16.477963875  12.9670627851562 15.7935809882812  L 12.4022644277344 14.8812575976562  L 16.0038364394531 14.7184429570312  L 14.190418265625 17.7692523574219  L 13.5565640507812 16.7452044433594  C 12.2203611914062 17.5379432871094  10.6663235625 18  9 18  C 4.03864507617187 18  0.017123607421875 13.97847853125  0.017123607421875 9.01712360742188  C 0.017123607421875 7.42490876953125  0.43538878125 5.93262841992188  1.16187892382812 4.63572564257812  L 2.07139515820313 5.30663422851563  C 1.47796388085938 6.41208946289063  1.13998315429687 7.67474502539062  1.13998315429687 9.01712360742188  Z " fill-rule="nonzero" fill="#00bfbf" stroke="none" transform="matrix(1 0 0 1 1398 183 )" />
  </g>
</svg>