<?xml version="1.0" encoding="utf-8"?>
<svg version="1.1" xmlns:xlink="http://www.w3.org/1999/xlink" width="24px" height="24px" xmlns="http://www.w3.org/2000/svg">
  <defs>
    <linearGradient gradientUnits="userSpaceOnUse" x1="1576.52514599494" y1="315" x2="1552.92887649263" y2="315" id="LinearGradient681">
      <stop id="Stop682" stop-color="#69e147" stop-opacity="0.43921568627451" offset="0" />
      <stop id="Stop683" stop-color="#69e147" stop-opacity="0.266666666666667" offset="0.78" />
      <stop id="Stop684" stop-color="#69e147" stop-opacity="0.219607843137255" offset="1" />
    </linearGradient>
  </defs>
  <g transform="matrix(1 0 0 1 -1553 -291 )">
    <path d="M 1565 291  C 1571.72 291  1577 296.28  1577 303  C 1577 309.72  1571.72 315  1565 315  C 1558.28 315  1553 309.72  1553 303  C 1553 296.28  1558.28 291  1565 291  Z " fill-rule="nonzero" fill="#69e147" stroke="none" fill-opacity="0.109803921568627" />
    <path d="M 1565 291.5  C 1571.44 291.5  1576.5 296.56  1576.5 303  C 1576.5 309.44  1571.44 314.5  1565 314.5  C 1558.56 314.5  1553.5 309.44  1553.5 303  C 1553.5 296.56  1558.56 291.5  1565 291.5  Z " stroke-width="1" stroke="url(#LinearGradient681)" fill="none" />
  </g>
</svg>