<?xml version="1.0" encoding="utf-8"?>
<svg version="1.1" xmlns:xlink="http://www.w3.org/1999/xlink" width="10px" height="18px" preserveAspectRatio="xMidYMin meet" viewBox="113 624  8 18" xmlns="http://www.w3.org/2000/svg">
  <path d="M 117.5 579  L 117.5 613.916075650118  A 0.0839243498817908 0.0839243498817908 0 0 0 117.583924349882 614.5 A 0.0839243498817979 0.0839243498817979 0 0 1 117.667848699764 614.583924349882 L 117.667848699764 628.916075650118  A 0.0839243498817908 0.0839243498817908 0 0 1 117.583924349882 629.5 A 0.0839243498817837 0.0839243498817837 0 0 0 117.5 629.583924349882 L 117.5 641  " stroke-width="1" stroke-dasharray="9,4" stroke="#d9001b" fill="none" />
  <path d="M 117.5 636  A 3 3 0 0 0 114.5 639 A 3 3 0 0 0 117.5 642 A 3 3 0 0 0 120.5 639 A 3 3 0 0 0 117.5 636 Z " fill-rule="nonzero" fill="#d9001b" stroke="none" />
</svg>