<?xml version="1.0" encoding="utf-8"?>
<svg version="1.1" xmlns:xlink="http://www.w3.org/1999/xlink" width="12px" height="12px" viewBox="462 204  12 12" xmlns="http://www.w3.org/2000/svg">
  <path d="M 468 204  C 471.36 204  474 206.64  474 210  C 474 213.36  471.36 216  468 216  C 464.64 216  462 213.36  462 210  C 462 206.64  464.64 204  468 204  Z " fill-rule="nonzero" fill="#f0f0f0" stroke="none" />
  <path d="M 468 204.5  C 471.08 204.5  473.5 206.92  473.5 210  C 473.5 213.08  471.08 215.5  468 215.5  C 464.92 215.5  462.5 213.08  462.5 210  C 462.5 206.92  464.92 204.5  468 204.5  Z " stroke-width="1" stroke="#797979" fill="none" />
  <path d="M 468 213  C 466.32 213  465 211.68  465 210  C 465 208.32  466.32 207  468 207  C 469.68 207  471 208.32  471 210  C 471 211.68  469.68 213  468 213  " fill-rule="nonzero" fill="#797979" stroke="none" />
</svg>