<?xml version="1.0" encoding="utf-8"?>
<svg version="1.1" xmlns:xlink="http://www.w3.org/1999/xlink" width="12px" height="12px" viewBox="465 191  12 12" xmlns="http://www.w3.org/2000/svg">
  <path d="M 471 191  C 474.36 191  477 193.64  477 197  C 477 200.36  474.36 203  471 203  C 467.64 203  465 200.36  465 197  C 465 193.64  467.64 191  471 191  Z " fill-rule="nonzero" fill="#f0f0f0" stroke="none" />
  <path d="M 471 191.5  C 474.08 191.5  476.5 193.92  476.5 197  C 476.5 200.08  474.08 202.5  471 202.5  C 467.92 202.5  465.5 200.08  465.5 197  C 465.5 193.92  467.92 191.5  471 191.5  Z " stroke-width="1" stroke="#797979" fill="none" />
  <path d="M 471 200  C 469.32 200  468 198.68  468 197  C 468 195.32  469.32 194  471 194  C 472.68 194  474 195.32  474 197  C 474 198.68  472.68 200  471 200  " fill-rule="nonzero" fill="#797979" stroke="none" />
</svg>