<?xml version="1.0" encoding="utf-8"?>
<svg version="1.1" xmlns:xlink="http://www.w3.org/1999/xlink" width="33px" height="30px" xmlns="http://www.w3.org/2000/svg">
  <g transform="matrix(1 0 0 1 -117 -203 )">
    <path d="M 27.04453125 23.53125  L 26.27109375 24.1189903846154  L 26.27109375 26.1850961538462  C 26.2637276785714 27.1766826923077  25.4276785714286 27.9915865384615  24.4222098214286 28  L 3.83404017857143 28  C 2.82488839285714 27.9879807692308  1.98883928571428 27.1694711538462  2 26.1850961538462  L 2 7.97596153846154  L 3.98136160714285 7.97956730769231  C 6.09542410714285 7.97596153846154  7.81171875 6.29567307692308  7.81540178571428 4.22596153846154  L 7.81540178571428 2  L 24.4258928571429 2  C 25.4313616071429 2.00480769230769  26.2674107142857 2.81971153846154  26.2747767857143 3.80769230769231  L 26.2747767857143 7.55408653846154  C 26.5141741071429 7.52884615384615  26.7609375 7.51442307692307  27.0113839285714 7.51442307692307  C 27.4386160714286 7.51442307692307  27.8621651785714 7.55408653846154  28.2672991071429 7.62980769230769  L 28.2672991071429 3.8076923076923  C 28.25625 1.734375  26.5399553571429 0.0540865384615354  24.4258928571429 0  L 6.86149553571429 0  C 6.58158482142857 0.0432692307692278  6.29799107142857 0.147836538461535  6.09910714285714 0.353365384615381  L 0.276227678571429 6.33173076923077  C 0.0957589285714284 6.515625  0 6.75721153846154  0.0036830357142855 7.00240384615385  L 0 7.00240384615385  L 0 26.1923076923077  C 0.0036830357142855 28.2620192307692  1.71997767857143 29.9423076923077  3.83404017857143 30  L 24.4222098214286 30  C 26.5362723214286 29.9423076923077  28.2525669642857 28.2620192307692  28.25625 26.1923076923077  L 28.25625 24.4831730769231  L 27.04453125 23.53125  Z M 30.0277901785714 19.2908653846154  C 31.8066964285714 18.2740384615385  33 16.3846153846154  33 14.2211538461538  C 33 10.9759615384615  30.31875 8.35096153846154  27.0040178571429 8.35096153846154  C 23.6892857142857 8.35096153846154  21.0080357142857 10.9759615384615  21.0080357142857 14.2211538461538  C 21.0080357142857 16.3846153846154  22.2050223214286 18.2740384615385  23.9839285714286 19.2944711538462  L 23.9839285714286 24.7932692307692  L 27.0555803571429 22.4639423076923  L 30.0277901785714 24.7932692307692  L 30.0277901785714 19.2908653846154  Z M 32.1123883928571 14.2211538461538  C 32.1050223214286 16.9831730769231  29.8252232142857 19.2151442307692  27.0077008928571 19.21875  C 24.1828125 19.2115384615385  21.9030133928571 16.9795673076923  21.8993303571429 14.2211538461538  C 21.9030133928571 11.4555288461538  24.1864955357143 9.22355769230769  27.0077008928571 9.22355769230769  C 29.82890625 9.23076923076923  32.1087053571429 11.4627403846154  32.1123883928571 14.2211538461538  Z M 22.5438616071429 14.2211539762883  C 22.5438616071429 16.632753130297  24.5407415784054 18.5877405147498  27.0040178571429 18.5877405147498  C 29.4672941358804 18.5877405147498  31.4641741071429 16.632753130297  31.4641741071429 14.2211539762883  C 31.4641741071429 11.8095546921451  29.4672941358804 9.85456730769231  27.0040178571429 9.85456730769231  C 24.5407415784054 9.85456730769231  22.5438616071429 11.8095546921451  22.5438616071429 14.2211538461538  Z M 19.5974330357143 9.27403846153846  C 19.5974330357143 8.83774038461538  19.2401785714286 8.48798076923077  18.79453125 9  L 6.58158482142857 9  C 6.13225446428571 8.484375  5.775 8.83774038461539  5.775 9.27403846153846  C 5.775 9.71394230769231  6.1359375 10.0637019230769  6.58158482142857 10  L 18.7908482142857 10  C 19.2401785714286 10.0637019230769  19.5974330357143 9.71033653846154  19.5974330357143 9.27403846153846  Z M 5.775 13.0276442307692  C 5.775 13.4675480769231  6.1359375 13.8173076923077  6.58158482142857 14  L 18.7908482142857 14  C 19.2401785714286 13.8173076923077  19.5974330357143 13.4639423076923  19.5974330357143 13.0276442307692  C 19.5974330357143 12.5913461538462  19.2401785714286 12.2415865384615  18.79453125 12.2379807692308  L 6.58158482142857 12.2379807692308  C 6.13225446428571 12.2379807692308  5.775 12.5949519230769  5.775 13.0276442307692  Z M 5.775 16.78125  C 5.775 17.2211538461538  6.1359375 17.5709134615385  6.58158482142857 17  L 18.7908482142857 17  C 19.2401785714286 17.5709134615385  19.5974330357143 17.2175480769231  19.5974330357143 16.78125  C 19.5974330357143 16.3449519230769  19.2401785714286 15.9951923076923  18.79453125 16  L 6.58158482142857 16  C 6.13225446428571 15.9915865384615  5.775 16.3449519230769  5.775 16.78125  Z M 22.4370535714286 20.5348557692308  C 22.4370535714286 20.0985576923077  22.0761160714286 19.7487980769231  21.6341517857143 19.7451923076923  L 6.58158482142857 19.7451923076923  C 6.13225446428571 19.7451923076923  5.775 20.0985576923077  5.775 20.5348557692308  C 5.775 20.9747596153846  6.1359375 21.3245192307692  6.58158482142857 21  L 21.63046875 21  C 22.0797991071429 21.3245192307692  22.4370535714286 20.9711538461538  22.4370535714286 20.5348557692308  Z M 22.4370535714286 24.2884615384615  C 22.4370535714286 23.8521634615385  22.0761160714286 23.5024038461538  21.6341517857143 23  L 6.58158482142857 23  C 6.13225446428571 23.4987980769231  5.775 23.8485576923077  5.775 24.2884615384615  C 5.775 24.7283653846154  6.1359375 25.078125  6.58158482142857 25  L 21.63046875 25  C 22.0797991071429 25.078125  22.4370535714286 24.7247596153846  22.4370535714286 24.2884615384615  Z " fill-rule="nonzero" fill="#2680f0" stroke="none" transform="matrix(1 0 0 1 117 203 )" />
  </g>
</svg>