<?xml version="1.0" encoding="utf-8"?>
<svg version="1.1" xmlns:xlink="http://www.w3.org/1999/xlink" width="16px" height="19px" xmlns="http://www.w3.org/2000/svg">
  <g transform="matrix(1 0 0 1 -236 -214 )">
    <path d="M 7.58181818181818 0.203245192307692  L 0.595454545454545 2.70612980769231  C 0.359090909090909 2.790625  0.168181818181818 3.06466346153846  0.168181818181818 3.31586538461538  L 0.168181818181818 11.8909855769231  C 0.168181818181818 12.1421875  0.263636363636363 12.5304086538462  0.379545454545454 12.7519230769231  C 0.379545454545454 12.7519230769231  1.07045454545455 14.0650240384615  3.04545454545455 16.0518028846154  C 5.25909090909091 18.2760817307692  7.58181818181818 18.8881009615385  7.58181818181818 18.8881009615385  C 7.82272727272727 18.9520432692308  8.21363636363636 18.9337740384615  8.44772727272727 18.8469951923077  C 8.44772727272727 18.8469951923077  11.2340909090909 17.8262019230769  13.0136363636364 16.0381009615385  C 14.6840909090909 14.3596153846154  15.5977272727273 12.7496394230769  15.5977272727273 12.7496394230769  C 15.7204545454545 12.5304086538462  15.8227272727273 12.1467548076923  15.8227272727273 11.8955528846154  L 15.8295454545455 3.29759615384616  C 15.8295454545455 3.04639423076924  15.6363636363636 2.77235576923077  15.4022727272727 2.68786057692308  L 8.43863636363636 0.203245192307692  C 8.20227272727273 0.11875  7.81818181818182 0.11875  7.58181818181818 0.203245192307692  Z M 14.5818181818182 4.16081730769231  L 14.5818181818182 11.3703125  C 14.5818181818182 11.6215144230769  14.4840909090909 12.0074519230769  14.3613636363636 12.2266826923077  C 14.3613636363636 12.2266826923077  13.525 13.7521634615385  12.0863636363636 15.1977163461538  C 10.3977272727273 16.8944711538462  8.43863636363636 17.6069711538462  8.43863636363636 17.6069711538462  C 8.20454545454546 17.69375  7.81363636363636 17.7074519230769  7.57272727272727 17.6412259615385  C 7.57272727272727 17.6412259615385  5.95 17.1913461538462  3.92045454545454 15.1520432692308  C 2.48181818181818 13.7064903846154  1.64090909090909 12.1992788461538  1.64090909090909 12.1992788461538  C 1.51818181818182 11.9800480769231  1.41818181818182 11.5963942307692  1.41818181818182 11.3451923076923  L 1.41818181818182 4.17451923076923  C 1.41818181818182 3.92331730769231  1.61136363636363 3.64927884615385  1.84772727272727 3.56706730769231  L 7.58181818181818 1.56201923076923  C 7.81818181818182 1.47980769230769  8.20454545454545 1.47980769230769  8.44090909090909 1.56201923076923  L 14.1522727272727 3.55336538461539  C 14.3886363636364 3.63557692307693  14.5818181818182 3.90961538461539  14.5818181818182 4.16081730769231  Z " fill-rule="nonzero" fill="#2680f0" stroke="none" transform="matrix(1 0 0 1 236 214 )" />
  </g>
</svg>