<?xml version="1.0" encoding="utf-8"?>
<svg version="1.1" xmlns:xlink="http://www.w3.org/1999/xlink" width="9px" height="7px" xmlns="http://www.w3.org/2000/svg">
  <g transform="matrix(1 0 0 1 -239 -220 )">
    <path d="M 3.32775 6.86631944444444  L 0.297 3.88888888888889  C 0.114749999999999 3.70902777777778  0.0989999999999995 3.40034722222222  0.2655 3.20104166666667  L 0.492750000000001 2.93125  C 0.65925 2.734375  0.945000000000001 2.71979166666667  1.12725 2.89965277777778  L 3.23775 4.97534722222222  C 3.42 5.15520833333333  3.70575 5.140625  3.87225 4.94375  L 7.83675 0.228472222222222  C 8.00325 0.0315972222222211  8.289 0.0145833333333325  8.4735 0.194444444444444  L 8.72325 0.439930555555556  C 8.9055 0.619791666666667  8.92125 0.928472222222223  8.75475 1.12777777777778  L 3.96225 6.83229166666667  C 3.79575 7.02916666666667  3.51 7.04618055555556  3.32775 6.86631944444444  Z " fill-rule="nonzero" fill="#2680f0" stroke="none" transform="matrix(1 0 0 1 239 220 )" />
  </g>
</svg>