<?xml version="1.0" encoding="utf-8"?>
<svg version="1.1" xmlns:xlink="http://www.w3.org/1999/xlink" width="18px" height="18px" xmlns="http://www.w3.org/2000/svg">
  <g transform="matrix(1 0 0 1 -255 -215 )">
    <path d="M 17.5608173076923 9.87  C 18.0930288461539 9.33857142857143  18.0930288461539 8.48357142857143  17.5629807692308 7.95214285714286  L 15.8495192307692 6.28714285714286  L 15.8495192307692 4.18714285714286  C 15.8473557692308 3.43928571428572  16.0723557692308 2.08928571428571  15.3216346153846 2.08714285714286  L 11.0985576923077 2.08714285714286  L 10.0427884615385 0.514285714285714  C 9.51057692307692 -0.0128571428571427  8.55432692307692 -0.143571428571429  8.02211538461539 0.383571428571429  L 6.87548076923077 2.08928571428571  L 3.70600961538462 2.08928571428571  C 2.953125 2.09142857142857  2.08557692307692 2.67857142857143  2.08341346153846 3.42642857142857  L 2.08341346153846 6.17571428571429  L 0.406730769230769 7.95428571428572  C -0.123317307692307 8.48357142857143  -0.123317307692307 9.34071428571429  0.406730769230769 9.87  L 2.08341346153846 11.6721428571429  L 2.08341346153846 14.4214285714286  C 2.08557692307692 15.1692857142857  2.42524038461538 15.735  3.178125 15.7371428571429  L 6.34543269230769 15.7371428571429  L 8.01995192307692 17.4385714285714  C 8.55216346153846 17.9657142857143  9.41538461538462 17.9657142857143  9.94759615384616 17.4385714285714  L 11.6242788461538 15.7371428571429  L 14.2637019230769 15.7371428571429  C 15.0165865384615 15.735  15.8451923076923 14.91  15.8473557692308 14.1621428571429  L 15.8473557692308 11.5371428571429  L 17.5608173076923 9.87  Z M 13.8375 6.17357142857143  L 8.99783653846154 13.0457142857143  L 4.15817307692308 6.17357142857143  L 7.61538461538462 6.17357142857143  L 8.98485576923077 10.2664285714286  L 10.3802884615385 6.17357142857143  L 13.8375 6.17357142857143  Z " fill-rule="nonzero" fill="#2680f0" stroke="none" transform="matrix(1 0 0 1 255 215 )" />
  </g>
</svg>