<?xml version="1.0" encoding="utf-8"?>
<svg version="1.1" xmlns:xlink="http://www.w3.org/1999/xlink" width="75px" height="75px" xmlns="http://www.w3.org/2000/svg">
  <g transform="matrix(1 0 0 1 -1785 -51 )">
    <path d="M 1822.5 52  C 1842.94 52  1859 68.06  1859 88.5  C 1859 108.94  1842.94 125  1822.5 125  C 1802.06 125  1786 108.94  1786 88.5  C 1786 68.06  1802.06 52  1822.5 52  Z " fill-rule="nonzero" fill="#ffffff" stroke="none" />
    <path d="M 1822.5 52  C 1842.94 52  1859 68.06  1859 88.5  C 1859 108.94  1842.94 125  1822.5 125  C 1802.06 125  1786 108.94  1786 88.5  C 1786 68.06  1802.06 52  1822.5 52  Z " stroke-width="2" stroke="#02a7f0" fill="none" />
  </g>
</svg>