<?xml version="1.0" encoding="utf-8"?>
<svg version="1.1" xmlns:xlink="http://www.w3.org/1999/xlink" width="22px" height="22px" xmlns="http://www.w3.org/2000/svg">
  <g transform="matrix(1 0 0 1 -232 -114 )">
    <path d="M 243 114  C 249.16 114  254 118.84  254 125  C 254 131.16  249.16 136  243 136  C 236.84 136  232 131.16  232 125  C 232 118.84  236.84 114  243 114  Z " fill-rule="nonzero" fill="#ffffff" stroke="none" />
    <path d="M 243 114.5  C 248.88 114.5  253.5 119.12  253.5 125  C 253.5 130.88  248.88 135.5  243 135.5  C 237.12 135.5  232.5 130.88  232.5 125  C 232.5 119.12  237.12 114.5  243 114.5  Z " stroke-width="1" stroke="#d7d7d7" fill="none" />
  </g>
</svg>