<?xml version="1.0" encoding="utf-8"?>
<svg version="1.1" xmlns:xlink="http://www.w3.org/1999/xlink" width="20px" height="20px" xmlns="http://www.w3.org/2000/svg">
  <g transform="matrix(1 0 0 1 -1413 -116 )">
    <path d="M 1423 116  C 1428.6 116  1433 120.4  1433 126  C 1433 131.6  1428.6 136  1423 136  C 1417.4 136  1413 131.6  1413 126  C 1413 120.4  1417.4 116  1423 116  Z " fill-rule="nonzero" fill="#ffffff" stroke="none" />
    <path d="M 1423 116.5  C 1428.32 116.5  1432.5 120.68  1432.5 126  C 1432.5 131.32  1428.32 135.5  1423 135.5  C 1417.68 135.5  1413.5 131.32  1413.5 126  C 1413.5 120.68  1417.68 116.5  1423 116.5  Z " stroke-width="1" stroke="#d7d7d7" fill="none" />
  </g>
</svg>