<?xml version="1.0" encoding="utf-8"?>
<svg version="1.1" xmlns:xlink="http://www.w3.org/1999/xlink" width="18px" height="12px" xmlns="http://www.w3.org/2000/svg">
  <g transform="matrix(1 0 0 1 -678 -59 )">
    <path d="M 17.93877553125 7.80918365625  C 17.914285734375 10.7479591875  13.114285734375 11.80102040625  9 11.80102040625  C 6.820408171875 11.80102040625  4.763265328125 11.50714284375  3.220408171875 10.99285715625  C 0.624489796875 10.111224515625  0.0612245156250006 8.78877553125  0.0612244687500008 7.80918365625  C 0.0612244687500008 4.454081625  2.240816296875 1.441836703125  5.64489796875 0.19285715625  C 6.012244921875 0.0459183749999985  6.428571421875 0.1438775625  6.6979591875 0.437755125  C 7.3102040625 1.09897959375  8.14285715625 1.466326546875  9 1.466326546875  C 9.85714284375 1.466326546875  10.665306140625 1.09897959375  11.3020408125 0.437755125  C 11.571428578125 0.1438775625  11.987755078125 0.0459183749999985  12.35510203125 0.19285715625  C 15.734693859375 1.466326546875  17.938775484375 4.454081625  17.93877553125 7.80918365625  Z " fill-rule="nonzero" fill="#d9001b" stroke="none" transform="matrix(1 0 0 1 678 59 )" />
  </g>
</svg>