<?xml version="1.0" encoding="utf-8"?>
<svg version="1.1" xmlns:xlink="http://www.w3.org/1999/xlink" width="43px" height="40px" xmlns="http://www.w3.org/2000/svg">
  <g transform="matrix(1 0 0 1 -1865 -75 )">
    <path d="M 42.00871875 27.998359375  L 33.006984375 27.998359375  L 33.006984375 19.009796875  L 30.006421875 19.009796875  L 30.006421875 27.998359375  L 21.004640625 27.998359375  L 21.004640625 30.9945625  L 30.006375 30.9945625  L 30.006375 39.983921875  L 33.0069375 39.983125  L 33.0069375 30.994515625  L 42.008671875 30.994515625  L 42.008671875 27.998359375  Z M 36.00759375 1  L 36.00759375 4  L 0.000562500000000021 4  L 0.000562500000000021 1  L 36.00759375 1  Z M 33 15.99784375  L 33 3.99953125  L 36 3.99953125  L 36 15.99784375  L 33 15.99784375  Z M 3 3.99953125  L 3 36.986921875  L 0 36.994609375  L 0 3.99953125  L 3 3.99953125  Z " fill-rule="nonzero" fill="#00ffff" stroke="none" fill-opacity="0" transform="matrix(1 0 0 1 1865 75 )" />
  </g>
</svg>