<?xml version="1.0" encoding="utf-8"?>
<svg version="1.1" xmlns:xlink="http://www.w3.org/1999/xlink" width="24px" height="24px" xmlns="http://www.w3.org/2000/svg">
  <g transform="matrix(1 0 0 1 -389 -393 )">
    <path d="M 401 394  C 407.16 394  412 398.84  412 405  C 412 411.16  407.16 416  401 416  C 394.84 416  390 411.16  390 405  C 390 398.84  394.84 394  401 394  Z " fill-rule="nonzero" fill="#ffffff" stroke="none" fill-opacity="0" />
    <path d="M 401 394  C 407.16 394  412 398.84  412 405  C 412 411.16  407.16 416  401 416  C 394.84 416  390 411.16  390 405  C 390 398.84  394.84 394  401 394  Z " stroke-width="2" stroke="#04f21c" fill="none" />
  </g>
</svg>