<?xml version="1.0" encoding="utf-8"?>
<svg version="1.1" xmlns:xlink="http://www.w3.org/1999/xlink" width="24px" height="24px" xmlns="http://www.w3.org/2000/svg">
  <g transform="matrix(1 0 0 1 -389 -421 )">
    <path d="M 401 422  C 407.16 422  412 426.84  412 433  C 412 439.16  407.16 444  401 444  C 394.84 444  390 439.16  390 433  C 390 426.84  394.84 422  401 422  Z " fill-rule="nonzero" fill="#ffffff" stroke="none" fill-opacity="0" />
    <path d="M 401 422  C 407.16 422  412 426.84  412 433  C 412 439.16  407.16 444  401 444  C 394.84 444  390 439.16  390 433  C 390 426.84  394.84 422  401 422  Z " stroke-width="2" stroke="#f59a23" fill="none" />
  </g>
</svg>