<?xml version="1.0" encoding="utf-8"?>
<svg version="1.1" xmlns:xlink="http://www.w3.org/1999/xlink" width="24px" height="24px" xmlns="http://www.w3.org/2000/svg">
  <g transform="matrix(1 0 0 1 -389 -448 )">
    <path d="M 401 449  C 407.16 449  412 453.84  412 460  C 412 466.16  407.16 471  401 471  C 394.84 471  390 466.16  390 460  C 390 453.84  394.84 449  401 449  Z " fill-rule="nonzero" fill="#ffffff" stroke="none" fill-opacity="0" />
    <path d="M 401 449  C 407.16 449  412 453.84  412 460  C 412 466.16  407.16 471  401 471  C 394.84 471  390 466.16  390 460  C 390 453.84  394.84 449  401 449  Z " stroke-width="2" stroke="#333333" fill="none" />
  </g>
</svg>