<?xml version="1.0" encoding="utf-8"?>
<svg version="1.1" xmlns:xlink="http://www.w3.org/1999/xlink" width="24px" height="24px" xmlns="http://www.w3.org/2000/svg">
  <g transform="matrix(1 0 0 1 -389 -474 )">
    <path d="M 401 475  C 407.16 475  412 479.84  412 486  C 412 492.16  407.16 497  401 497  C 394.84 497  390 492.16  390 486  C 390 479.84  394.84 475  401 475  Z " fill-rule="nonzero" fill="#ffffff" stroke="none" fill-opacity="0" />
    <path d="M 401 475  C 407.16 475  412 479.84  412 486  C 412 492.16  407.16 497  401 497  C 394.84 497  390 492.16  390 486  C 390 479.84  394.84 475  401 475  Z " stroke-width="2" stroke="#d9001b" fill="none" />
  </g>
</svg>