<?xml version="1.0" encoding="utf-8"?>
<svg version="1.1" xmlns:xlink="http://www.w3.org/1999/xlink" width="5px" height="5px" xmlns="http://www.w3.org/2000/svg">
  <g transform="matrix(1 0 0 1 -353 -405 )">
    <path d="M 1.70923913043478 4.1925  C 1.6304347826087 4.39  1.63586956521739 4.575  1.73641304347826 4.735  C 1.89130434782609 4.9825  2.1875 5.02  2.47010869565217 4.87  L 4.69565217391304 3.685  C 4.91304347826087 3.57  4.98913043478261 3.32  4.86684782608695 3.12  C 4.74184782608695 2.92  4.46467391304348 2.8525  4.24728260869565 2.965  L 2.8179347826087 3.725  L 3.1875 2.895  C 3.58967391304348 1.99  3.74456521739131 1.4925  3.34782608695652 0.859999999999999  L 3.34239130434783 0.85  C 2.89945652173913 0.144999999999999  2.04891304347826 -0.0150000000000006  1.19836956521739 0.4375  C 0.57608695652174 0.767500000000001  0.320652173913044 1.1775  0.211956521739131 1.7025  C 0.190217391304348 1.8075  0.211956521739131 1.9275  0.269021739130436 2.015  C 0.402173913043479 2.225  0.69021739130435 2.295  0.915760869565219 2.175  C 1.05706521739131 2.1  1.125 1.985  1.14402173913044 1.895  C 1.22826086956522 1.5475  1.34782608695652 1.35  1.60597826086957 1.21  C 1.92934782608696 1.04  2.26358695652174 1.09  2.46467391304348 1.4075  C 2.66032608695652 1.72  2.59510869565217 2.0375  2.32336956521739 2.6925  L 1.70923913043478 4.1925  Z " fill-rule="nonzero" fill="#e5e5e5" stroke="none" transform="matrix(1 0 0 1 353 405 )" />
  </g>
</svg>