<?xml version="1.0" encoding="utf-8"?>
<svg version="1.1" xmlns:xlink="http://www.w3.org/1999/xlink" width="4px" height="4px" xmlns="http://www.w3.org/2000/svg">
  <g transform="matrix(1 0 0 1 -353 -404 )">
    <path d="M 1.40789473684211 1.485  L 2.73947368421053 3.555  C 2.9 3.82  3.25526315789474 3.91  3.53421052631579 3.7575  C 3.81315789473684 3.605  3.90789473684211 3.2675  3.74736842105263 3.0025  L 2.10789473684211 0.435000000000001  C 1.94736842105263 0.17  1.5921052631579 0.0800000000000011  1.31315789473684 0.2325  L 1.3 0.240000000000001  C 1.16052631578948 0.315000000000001  1.03421052631579 0.427500000000001  0.873684210526317 0.5825  L 0.328947368421053 1.125  C 0.157894736842105 1.295  0.123684210526315 1.53  0.244736842105263 1.725  C 0.381578947368421 1.9525  0.702631578947368 2.0275  0.939473684210527 1.895  C 0.994736842105265 1.865  1.05526315789474 1.815  1.10263157894737 1.77  L 1.40789473684211 1.485  Z " fill-rule="nonzero" fill="#fed530" stroke="none" transform="matrix(1 0 0 1 353 404 )" />
  </g>
</svg>