<?xml version="1.0" encoding="utf-8"?>
<svg version="1.1" xmlns:xlink="http://www.w3.org/1999/xlink" width="15px" height="13px" xmlns="http://www.w3.org/2000/svg">
  <g transform="matrix(1 0 0 1 -346 -425 )">
    <path d="M 5.87678571428571 8.1224609375  C 5.91160714285714 7.6603515625  5.57946428571429 7.11953125  5.14285714285714 6.9138671875  L 1.17857142857143 5.0552734375  C 0.741964285714285 4.849609375  0.361607142857143 5.0578125  0.329464285714286 5.519921875  L 0.0455357142857147 9.704296875  C 0.0133928571428579 10.16640625  0.342857142857143 10.7072265625  0.782142857142858 10.912890625  L 4.74375 12.771484375  C 5.18035714285714 12.9771484375  5.56339285714286 12.7689453125  5.59285714285714 12.3068359375  L 5.87678571428571 8.1224609375  Z M 14.9651785714286 3.1484375  C 14.9973214285714 2.686328125  14.6705357142857 2.1455078125  14.23125 1.93984375  L 10.2669642857143 0.0812499999999997  C 9.83035714285714 -0.1244140625  9.44732142857143 0.0837890624999996  9.41785714285714 0.5458984375  L 9.13392857142857 4.727734375  C 9.10178571428571 5.18984375  9.43125 5.7306640625  9.87053571428571 5.936328125  L 13.8348214285714 7.794921875  C 14.2714285714286 8.0005859375  14.6544642857143 7.7923828125  14.6839285714286 7.3302734375  L 14.9651785714286 3.1484375  Z " fill-rule="nonzero" fill="#c6c6c6" stroke="none" transform="matrix(1 0 0 1 346 425 )" />
  </g>
</svg>