<?xml version="1.0" encoding="utf-8"?>
<svg version="1.1" xmlns:xlink="http://www.w3.org/1999/xlink" width="4px" height="5px" xmlns="http://www.w3.org/2000/svg">
  <g transform="matrix(1 0 0 1 -353 -433 )">
    <path d="M 1.36739130434783 4.1925  C 1.30434782608696 4.39  1.30869565217391 4.575  1.38913043478261 4.735  C 1.51304347826087 4.9825  1.75 5.02  1.97608695652174 4.87  L 3.75652173913043 3.685  C 3.93043478260869 3.57  3.99130434782608 3.32  3.89347826086956 3.12  C 3.79347826086956 2.92  3.57173913043478 2.8525  3.39782608695652 2.965  L 2.25434782608696 3.725  L 2.55 2.895  C 2.87173913043478 1.99  2.99565217391305 1.4925  2.67826086956522 0.859999999999999  L 2.67391304347826 0.85  C 2.31956521739131 0.144999999999999  1.63913043478261 -0.0150000000000006  0.958695652173914 0.4375  C 0.460869565217392 0.767500000000001  0.256521739130435 1.1775  0.169565217391305 1.7025  C 0.152173913043478 1.8075  0.169565217391305 1.9275  0.215217391304349 2.015  C 0.321739130434783 2.225  0.55217391304348 2.295  0.732608695652175 2.175  C 0.845652173913045 2.1  0.900000000000002 1.985  0.915217391304348 1.895  C 0.982608695652175 1.5475  1.07826086956522 1.35  1.28478260869565 1.21  C 1.54347826086957 1.04  1.81086956521739 1.09  1.97173913043478 1.4075  C 2.12826086956522 1.72  2.07608695652174 2.0375  1.85869565217391 2.6925  L 1.36739130434783 4.1925  Z " fill-rule="nonzero" fill="#e8e8e8" stroke="none" transform="matrix(1 0 0 1 353 433 )" />
  </g>
</svg>