<?xml version="1.0" encoding="utf-8"?>
<svg version="1.1" xmlns:xlink="http://www.w3.org/1999/xlink" width="21px" height="19px" xmlns="http://www.w3.org/2000/svg">
  <g transform="matrix(1 0 0 1 -343 -424 )">
    <path d="M 20.7894801980198 9.80274725274725  C 20.7634900990099 9.76098901098901  20.732301980198 9.73228021978022  20.7115099009901 9.68269230769231  C 20.9844059405941 10.3221153846154  20.8700495049505 11.0476648351648  20.4568069306931 11.5853021978022  C 19.4977722772277 12.754532967033  17.3769801980198 14.417032967033  14.707797029703 15.9986263736264  C 12.0983910891089 17.5410714285714  9.68131188118812 18.5798076923077  8.20767326732673 18.8747252747253  C 7.52153465346535 18.9869505494506  6.81200495049505 18.7207417582418  6.38316831683169 18.1491758241758  C 6.39096534653466 18.1596153846154  6.39356435643565 18.1752747252747  6.40396039603961 18.1857142857143  L 0.161138613861386 10.0741758241758  C 0.163737623762376 10.0663461538462  0.176732673267327 10.068956043956  0.166336633663366 10.0480769230769  C -0.0103960396039602 9.74271978021978  0.098762376237624 9.34862637362637  0.408044554455446 9.17115384615385  C 0.525 9.10068681318681  0.657549504950495 9.08763736263736  0.78490099009901 9.09807692307692  L 6.56769801980198 10.2960164835165  L 6.14405940594059 2.61510989010989  C 6.13366336633663 2.29409340659341  6.29740099009901 1.97568681318681  6.59888613861386 1.80343406593407  C 6.87957920792079 1.63901098901099  7.20965346534653 1.65728021978022  7.47215346534653 1.79821428571429  L 13.920297029703 6.03145604395604  L 15.742202970297 0.508928571428572  C 15.744801980198 0.508928571428572  15.747400990099 0.529807692307693  15.747400990099 0.521978021978023  C 15.7915841584158 0.367994505494506  15.8955445544554 0.229670329670331  16.0462871287129 0.140934065934067  C 16.3555693069307 -0.0365384615384609  16.7454207920792 0.0652472527472535  16.9221534653465 0.370604395604397  C 16.9299504950495 0.386263736263737  16.9325495049505 0.373214285714287  16.9429455445545 0.375824175824177  L 20.7894801980198 9.80274725274725  Z " fill-rule="nonzero" fill="#e8e8e8" stroke="none" transform="matrix(1 0 0 1 343 424 )" />
  </g>
</svg>