<?xml version="1.0" encoding="utf-8"?>
<svg version="1.1" xmlns:xlink="http://www.w3.org/1999/xlink" width="4px" height="5px" xmlns="http://www.w3.org/2000/svg">
  <g transform="matrix(1 0 0 1 -353 -432 )">
    <path d="M 1.3 4.140625  C 1.23863636363636 4.32552083333333  1.24090909090909 4.50520833333333  1.32272727272727 4.66666666666667  C 1.44545454545455 4.90885416666667  1.67954545454546 4.9453125  1.9 4.79947916666667  L 3.65454545454546 3.640625  C 3.82727272727273 3.52864583333334  3.88636363636364 3.28385416666667  3.78636363636364 3.0859375  C 3.68863636363637 2.88802083333334  3.47045454545455 2.82291666666667  3.29772727272727 2.9375  L 2.17045454545455 3.68229166666667  L 2.46363636363636 2.86979166666667  C 2.77954545454545 1.98177083333333  2.90454545454545 1.4921875  2.59090909090909 0.872395833333335  L 2.58636363636364 0.861979166666669  C 2.23636363636364 0.169270833333335  1.56590909090909 0.0130208333333348  0.897727272727273 0.455729166666668  C 0.409090909090909 0.778645833333334  0.204545454545455 1.18229166666667  0.118181818181818 1.69791666666667  C 0.0999999999999995 1.79947916666667  0.118181818181818 1.91666666666667  0.161363636363636 2.0078125  C 0.263636363636363 2.21354166666667  0.49090909090909 2.28385416666667  0.672727272727272 2.16666666666667  C 0.784090909090909 2.09375  0.836363636363635 1.98177083333333  0.854545454545453 1.890625  C 0.922727272727271 1.54947916666667  1.01363636363636 1.35416666666667  1.21818181818182 1.22135416666667  C 1.47045454545454 1.05208333333333  1.73636363636363 1.10416666666667  1.89318181818182 1.41666666666667  C 2.04772727272727 1.72395833333333  1.99318181818182 2.03385416666667  1.78181818181818 2.67447916666667  L 1.3 4.140625  Z " fill-rule="nonzero" fill="#e8e8e8" stroke="none" transform="matrix(1 0 0 1 353 432 )" />
  </g>
</svg>