<?xml version="1.0" encoding="utf-8"?>
<svg version="1.1" xmlns:xlink="http://www.w3.org/1999/xlink" width="14px" height="13px" xmlns="http://www.w3.org/2000/svg">
  <g transform="matrix(1 0 0 1 -345 -452 )">
    <path d="M 5.485 8.1725  C 5.5175 7.7175  5.2075 7.185  4.8 6.9825  L 1.1 5.1525  C 0.6925 4.95  0.3375 5.155  0.3075 5.61  L 0.0425000000000004 9.73  C 0.0125000000000007 10.185  0.32 10.7175  0.73 10.92  L 4.4275 12.75  C 4.835 12.9525  5.1925 12.7475  5.22 12.2925  L 5.485 8.1725  Z M 13.9675 3.275  C 13.9975 2.82  13.6925 2.2875  13.2825 2.085  L 9.5825 0.255  C 9.175 0.0524999999999999  8.8175 0.2575  8.79 0.7125  L 8.525 4.83  C 8.495 5.285  8.8025 5.8175  9.2125 6.02  L 12.9125 7.85  C 13.32 8.0525  13.6775 7.8475  13.705 7.3925  L 13.9675 3.275  Z " fill-rule="nonzero" fill="#aa733d" stroke="none" transform="matrix(1 0 0 1 345 452 )" />
  </g>
</svg>