<?xml version="1.0" encoding="utf-8"?>
<svg version="1.1" xmlns:xlink="http://www.w3.org/1999/xlink" width="5px" height="5px" xmlns="http://www.w3.org/2000/svg">
  <g transform="matrix(1 0 0 1 -353 -461 )">
    <path d="M 1.70923913043478 4.1675  C 1.6304347826087 4.365  1.63586956521739 4.55  1.73641304347826 4.71  C 1.89130434782609 4.9575  2.1875 4.995  2.47010869565217 4.845  L 4.69565217391304 3.66  C 4.91304347826087 3.545  4.98913043478261 3.295  4.86684782608695 3.095  C 4.74184782608695 2.895  4.46467391304348 2.8275  4.24728260869565 2.94  L 2.8179347826087 3.7  L 3.1875 2.87  C 3.58967391304348 1.965  3.74456521739131 1.4675  3.34782608695652 0.835  L 3.34239130434783 0.825  C 2.89945652173913 0.119999999999999  2.04891304347826 -0.0400000000000006  1.19836956521739 0.4125  C 0.57608695652174 0.742500000000001  0.320652173913044 1.1525  0.211956521739131 1.6775  C 0.190217391304348 1.7825  0.211956521739131 1.9025  0.269021739130436 1.99  C 0.402173913043479 2.2  0.69021739130435 2.27  0.915760869565219 2.15  C 1.05706521739131 2.075  1.125 1.96  1.14402173913044 1.87  C 1.22826086956522 1.5225  1.34782608695652 1.325  1.60597826086957 1.185  C 1.92934782608696 1.015  2.26358695652174 1.065  2.46467391304348 1.3825  C 2.66032608695652 1.695  2.59510869565217 2.0125  2.32336956521739 2.6675  L 1.70923913043478 4.1675  Z " fill-rule="nonzero" fill="#e5e5e5" stroke="none" transform="matrix(1 0 0 1 353 461 )" />
  </g>
</svg>