<?xml version="1.0" encoding="utf-8"?>
<svg version="1.1" xmlns:xlink="http://www.w3.org/1999/xlink" width="20px" height="18px" xmlns="http://www.w3.org/2000/svg">
  <g transform="matrix(1 0 0 1 -343 -451 )">
    <path d="M 19.7995049504951 9.26208791208791  C 19.7747524752475 9.22252747252747  19.7450495049505 9.19532967032967  19.7252475247525 9.14835164835165  C 19.9851485148515 9.75412087912088  19.8762376237624 10.4414835164835  19.4826732673267 10.9508241758242  C 18.5693069306931 12.0585164835165  16.5495049504951 13.6335164835165  14.0074257425743 15.1318681318681  C 11.5222772277228 16.5931318681319  9.22029702970297 17.5771978021978  7.81683168316832 17.8565934065934  C 7.16336633663366 17.9629120879121  6.48762376237624 17.7107142857143  6.07920792079208 17.1692307692308  C 6.08663366336634 17.1791208791209  6.08910891089109 17.193956043956  6.0990099009901 17.2038461538462  L 0.153465346534654 9.51923076923077  C 0.155940594059406 9.51181318681319  0.168316831683168 9.51428571428571  0.158415841584159 9.49450549450549  C -0.00990099009900969 9.20521978021978  0.0940594059405943 8.83186813186813  0.388613861386139 8.66373626373626  C 0.5 8.59697802197802  0.626237623762377 8.58461538461538  0.747524752475247 8.59450549450549  L 6.2549504950495 9.7293956043956  L 5.85148514851485 2.45274725274725  C 5.84158415841584 2.14862637362637  5.99752475247525 1.84697802197802  6.28465346534653 1.68379120879121  C 6.5519801980198 1.52802197802198  6.86633663366337 1.54532967032967  7.11633663366337 1.67884615384615  L 13.2574257425743 5.68928571428571  L 14.9925742574257 0.457417582417583  C 14.9950495049505 0.457417582417583  14.9975247524753 0.477197802197803  14.9975247524753 0.469780219780221  C 15.039603960396 0.323901098901099  15.1386138613861 0.192857142857144  15.2821782178218 0.10879120879121  C 15.5767326732673 -0.0593406593406588  15.9480198019802 0.0370879120879128  16.1163366336634 0.326373626373628  C 16.1237623762376 0.341208791208792  16.1262376237624 0.328846153846155  16.1361386138614 0.331318681318682  L 19.7995049504951 9.26208791208791  Z " fill-rule="nonzero" fill="#ca9561" stroke="none" transform="matrix(1 0 0 1 343 451 )" />
  </g>
</svg>