<?xml version="1.0" encoding="utf-8"?>
<svg version="1.1" xmlns:xlink="http://www.w3.org/1999/xlink" width="4px" height="4px" xmlns="http://www.w3.org/2000/svg">
  <g transform="matrix(1 0 0 1 -352 -459 )">
    <path d="M 1.74736842105263 3.95  C 2.18157894736842 4.01818181818182  2.65526315789474 3.96363636363636  3.16052631578947 3.71136363636364  C 3.95263157894737 3.31590909090909  4.15263157894737 2.65  3.76842105263158 2.07045454545454  L 3.76315789473684 2.06136363636363  C 3.38157894736842 1.49090909090909  2.76578947368421 1.50909090909091  2.23421052631579 1.67727272727273  L 2.54473684210526 0.756818181818181  C 2.6078947368421 0.568181818181817  2.63947368421053 0.429545454545454  2.52368421052632 0.263636363636363  C 2.40263157894737 0.0795454545454533  2.15789473684211 0.0499999999999997  1.92894736842105 0.163636363636363  L 0.202631578947367 1.03181818181818  C 0.0210526315789462 1.12272727272727  -0.0447368421052644 1.32954545454545  0.0605263157894725 1.48863636363636  C 0.165789473684209 1.64545454545454  0.405263157894736 1.70227272727273  0.589473684210526 1.61136363636364  L 1.67894736842105 1.06818181818182  L 1.39473684210526 2.00909090909091  C 1.34473684210526 2.17272727272727  1.35 2.27727272727273  1.41052631578947 2.36818181818182  C 1.51578947368421 2.525  1.75526315789474 2.58181818181818  1.93947368421053 2.49090909090909  L 2.06052631578948 2.42954545454545  C 2.49473684210527 2.21136363636363  2.84736842105263 2.22272727272727  3.01578947368421 2.47272727272727  L 3.02105263157895 2.48181818181818  C 3.17368421052632 2.71136363636363  3.06052631578948 2.95909090909091  2.76842105263158 3.10454545454545  C 2.48947368421053 3.24545454545454  2.22631578947368 3.27272727272727  1.92105263157895 3.22272727272727  C 1.82894736842105 3.21136363636363  1.72631578947368 3.20909090909091  1.61578947368421 3.26363636363636  C 1.41315789473684 3.36363636363636  1.33947368421053 3.59999999999999  1.45526315789474 3.775  C 1.52105263157895 3.87045454545454  1.64210526315789 3.93181818181818  1.74736842105263 3.95  Z " fill-rule="nonzero" fill="#ca9561" stroke="none" transform="matrix(1 0 0 1 352 459 )" />
  </g>
</svg>