<?xml version="1.0" encoding="utf-8"?>
<svg version="1.1" xmlns:xlink="http://www.w3.org/1999/xlink" width="43px" height="43px" xmlns="http://www.w3.org/2000/svg">
  <g transform="matrix(1 0 0 1 -572 -40 )">
    <path d="M 21.5 22.8818636210938  L 29.7931363789062 31.175  L 31.175 29.7931363789062  L 22.8818636210938 21.5  L 31.175 13.2068636210937  L 29.7931363789062 11.825  L 21.5 20.1181363789063  L 13.2068636210937 11.825  L 11.825 13.2068636210937  L 20.1181363789063 21.5  L 11.825 29.7931363789062  L 13.2068636210937 31.175  L 21.5 22.8818636210938  Z M 21.5 43  C 33.3738636210938 43  43 33.3738636210938  43 21.5  C 43 9.62613637890625  33.3738636210938 0  21.5 0  C 9.62613637890625 0  0 9.62613637890625  0 21.5  C 0 33.3738636210938  9.62613637890625 43  21.5 43  Z M 21.5 41.0454545263672  C 10.7050454736328 41.0454545263672  1.95454547363281 32.2949545263672  1.95454547363281 21.5  C 1.95454547363281 10.7050454736328  10.7050454736328 1.95454547363281  21.5 1.95454547363281  C 32.2949545263672 1.95454547363281  41.0454545263672 10.7050454736328  41.0454545263672 21.5  C 41.0454545263672 32.2949545263672  32.2949545263672 41.0454545263672  21.5 41.0454545263672  Z " fill-rule="nonzero" fill="#d7d7d7" stroke="none" transform="matrix(1 0 0 1 572 40 )" />
  </g>
</svg>