<?xml version="1.0" encoding="utf-8"?>
<svg version="1.1" xmlns:xlink="http://www.w3.org/1999/xlink" width="17px" height="12px" xmlns="http://www.w3.org/2000/svg">
  <g transform="matrix(1 0 0 1 -291 -590 )">
    <path d="M 16.8950617349537 2.21052631578947  C 16.8950617349537 1.04782157567014  15.9554124415387 0.10526315131579  14.7962962962963 0.10526315131579  L 2.2037037037037 0.10526315131579  C 1.04458755846128 0.10526315131579  0.104938265046296 1.04782157567014  0.104938265046296 2.21052631578947  L 0.104938265046296 9.78947368421053  C 0.104938265046296 10.9521784243299  1.04458755846128 11.8947368486842  2.2037037037037 11.8947368486842  L 14.7962962962963 11.8947368486842  C 15.9554124415387 11.8947368486842  16.8950617349537 10.9521784243299  16.8950617349537 9.78947368421053  L 16.8950617349537 2.21052631578947  Z M 16.0555555555556 2.21052631578947  L 16.0555555555556 9.78947368421053  C 16.0555555555556 10.4870965261021  15.4917659812684 11.0526315789474  14.7962962962963 11  L 2.2037037037037 11  C 1.50823401873159 11.0526315789474  0.944444444444444 10.4870965261021  0.944444444444444 9.78947368421053  L 0.944444444444444 2.21052631578947  C 0.944444444444444 1.51290347389795  1.50823401873159 0.947368421052632  2.2037037037037 1  L 14.7962962962963 1  C 15.4917659812684 0.947368421052632  16.0555555555556 1.51290347389795  16.0555555555556 2.21052631578947  Z " fill-rule="nonzero" fill="#000000" stroke="none" transform="matrix(1 0 0 1 291 590 )" />
  </g>
</svg>