<?xml version="1.0" encoding="utf-8"?>
<svg version="1.1" xmlns:xlink="http://www.w3.org/1999/xlink" width="15px" height="8px" xmlns="http://www.w3.org/2000/svg">
  <g transform="matrix(1 0 0 1 -508 -62 )">
    <path d="M 14.9576271133475 3.333333328125  C 14.9576271133475 2.966666671875  14.6525423675847 2.666666671875  14.2796610222458 2.666666671875  L 14.2796610222458 1.33333334375  C 14.2796610222458 0.600000015625  13.6694915307203 0  12.9237288241525 0  L 1.39830508474576 0  C 0.652542378177966 0  0.0423728866525424 0.6  0.0423728866525424 1.333333328125  L 0.0423728866525424 6.66666665625  C 0.0423728866525424 7.399999984375  0.652542378177966 7.999999984375  1.39830508474576 8  L 12.9237288082627 8  C 13.6694915148305 7.999999984375  14.2796610063559 7.399999984375  14.2796610063559 6.66666665625  L 14.2796610063559 5.333333328125  C 14.6525423675847 5.333333328125  14.9576271133475 5.033333328125  14.9576271133475 4.66666665625  L 14.9576271133475 3.333333328125  Z M 13.6016949152542 1.333333328125  L 13.6016949152542 3.333333328125  L 13.6016949152542 4.66666665625  L 13.6016949152542 6.66666665625  C 13.6016949152542 7.033333328125  13.2966101694915 7.333333328125  12.9237288082627 7.333333328125  L 1.39830508474576 7.333333328125  C 1.02542372351695 7.333333328125  0.720338977754238 7.033333328125  0.720338977754238 6.66666665625  L 0.720338977754237 1.333333328125  C 0.720338977754237 0.96666665625  1.02542372351695 0.666666656249999  1.39830508474576 0.666666656249999  L 12.9237288082627 0.666666656249999  C 13.2966101694915 0.666666656249999  13.6016949152542 0.966666656249999  13.6016949152542 1.333333328125  Z M 1.39830508474576 1.333333328125  L 1.39830508474576 6.666666671875  L 10.2118644120763 6.666666671875  L 10.2118644120763 1.333333328125  L 1.39830508474576 1.333333328125  Z " fill-rule="nonzero" fill="#000000" stroke="none" transform="matrix(1 0 0 1 508 62 )" />
  </g>
</svg>