<?xml version="1.0" encoding="utf-8"?>
<svg version="1.1" xmlns:xlink="http://www.w3.org/1999/xlink" width="9px" height="10px" xmlns="http://www.w3.org/2000/svg">
  <g transform="matrix(1 0 0 1 -447 -60 )">
    <path d="M 8.88147439453125 7.34101218181818  C 9.0654516328125 7.02057005681818  8.95998697265625 6.62285820454546  8.65413945703125 6.40809380681818  C 8.621328234375 6.38536742045455  8.59086065625 6.36036838636364  8.56273674609375 6.33309670454545  C 8.42797634765625 6.20128363636364  8.3436046171875 6.0194725  8.3436046171875 5.81834394318182  L 8.3436046171875 2.72755468181818  C 8.3436046171875 2.28211740909091  8.26040471484375 1.85486123863636  8.10689504296875 1.45942202272727  L 8.88381805078125 0.706042136363636  C 9.0302967421875 0.564002193181818  9.0302967421875 0.333329318181818  8.88381805078125 0.191289374999999  C 8.7584322890625 0.0697031818181809  8.5674240703125 0.0526583863636357  8.42328903515625 0.137882352272727  C 8.40805524609375 0.161745068181817  8.3904778125 0.184471454545454  8.36821304296875 0.204925204545454  L 7.76354898046875 0.791266113636363  L 7.216304578125 1.32192735227273  L 1.14388374609375 7.21147175  L 0.21227923828125 8.11484581818182  C 0.19118630859375 8.13529956818182  0.1677497109375 8.15348068181818  0.143141296875 8.16825282954546  C 0.0552540820312499 8.30802013636364  0.0728315273437498 8.49437654545455  0.1982172890625 8.61482643181818  C 0.2720425546875 8.68641456818182  0.36696075 8.72164047727273  0.4630507734375 8.72164046590909  C 0.559140796875 8.72164045454546  0.6552308203125 8.68641455681818  0.7278842578125 8.61482643181818  L 1.25755121484375 8.10120997727273  C 1.4227791796875 8.15348068181818  1.59855362109375 8.18188867045455  1.78135903125 8.18188867045455  L 2.00869396875 8.18188867045455  C 2.17157827734375 8.18188867045455  2.3157133125 8.28529375  2.3661019921875 8.43528793181818  C 2.6731213359375 9.34434360227273  3.55433717578125 10  4.59375 10  C 5.63316282421875 10  6.5143786640625 9.34434360227273  6.8213980078125 8.43528793181818  C 6.87178667578125 8.28415743181818  7.0159217109375 8.18188867045455  7.17880603125 8.18188867045455  L 7.40614096875 8.18188867045455  C 8.04010076953125 8.18188867045455  8.59320432421875 7.84212911363636  8.88147439453125 7.34101218181818  Z M 6.0538496484375 8.18188867045454  C 6.08548904296875 8.18188867045454  6.1077538125 8.21370561363636  6.0972073359375 8.24324993181818  C 6.0186947578125 8.45801432954545  5.89213715625 8.654597625  5.72105005078125 8.82050027272727  C 5.41988984765625 9.11139809090909  5.01912413671875 9.27275546590909  4.59375 9.27275546590909  C 4.16837586328125 9.27275546590909  3.76761015234375 9.11139809090909  3.46644994921875 8.82050027272727  C 3.29536283203125 8.65459761363636  3.1676334140625 8.45801432954545  3.0902926640625 8.24324993181818  C 3.07974619921875 8.213705625  3.10201095703125 8.18188867045454  3.13482219140625 8.18188867045454  L 6.0538496484375 8.18188867045454  Z M 8.08931759765625 6.89671122727273  C 8.16548651953125 6.96375407954545  8.171345671875 7.07965868181818  8.10220773046875 7.15465577272727  C 7.92994878515625 7.33873953409091  7.68152091796875 7.45464413636364  7.40614096875 7.45464413636364  L 1.92549406640625 7.45464413636364  L 7.50926197265625 2.04008132954545  C 7.56550979296875 2.26393628409091  7.59480553125 2.49347284090909  7.59480553125 2.72755468181818  L 7.59480553125 5.81834394318182  C 7.59480553125 6.24560010227273  7.78581375 6.629676125  8.08931759765625 6.89671122727273  Z " fill-rule="nonzero" fill="#000000" stroke="none" transform="matrix(1 0 0 1 447 60 )" />
  </g>
</svg>