<?xml version="1.0" encoding="utf-8"?>
<svg version="1.1" xmlns:xlink="http://www.w3.org/1999/xlink" width="31px" height="31px" xmlns="http://www.w3.org/2000/svg">
  <g transform="matrix(1 0 0 1 -562 -123 )">
    <path d="M 15.0649902926339 7.41519998962053  C 12.2933729401775 7.41519998962053  10.0465331411272 9.6620397886708  10.0465331411272 12.4336571411272  C 10.0465331411272 15.2052744935837  12.2933729401775 17.4521142926339  15.0649902926339 17.4521142926339  C 17.8366076450904 17.4521142926339  20.0834474441406 15.2052744935837  20.0834474441406 12.4336571411272  C 20.0834474441406 9.6620397886708  17.8366076450904 7.41519998962053  15.0649902926339 7.41519998962053  Z M 24.0355045679688 24.9169142995536  C 23.5678474147321 21.3492571636161  20.4731616969866 19.4609142926339  15.0649902926339 19.4609142926339  C 9.65681885714286 19.4609142926339  6.56213313939732 21.3492571636161  6.09093315323661 24.9169142995536  C 11.1238969447497 29.680876642194  19.0025407764556 29.680876642194  24.0355045679688 24.9169142995536  Z M 15.3803045714286 30.5022285645089  L 15.0649902926339 30.5022285645089  C 15.0639587097343 30.5022287765339  15.0629271268271 30.5022288825464  15.0618955439057 30.5022288825464  C 6.74606516023882 30.5022288825464  0.00475267292356197 23.7609163952311  0.00475267292356197 15.4450860115642  C 0.00475267292356197 11.5021195622435  1.55141450357743 7.71647436932423  4.31241885022321 4.90154285714286  C 7.06263869536362 2.08204188089812  10.8134198622708 0.46028888124765  14.7514474147321 0.387942853683036  L 15.0649902926339 0.387942853683036  C 23.3806455539654 0.388190504398207  30.1216847428865 7.1294304529688  30.1216847428865 15.4450857179879  C 30.1216847428865 19.3880520163235  28.5750230303679 23.1736970766849  25.8140188709821 25.9886285610491  C 23.064989927358 28.8066875533708  19.316438648057 30.4283019259194  15.3803045714286 30.5022285645089  Z " fill-rule="nonzero" fill="#aaaaaa" stroke="none" transform="matrix(1 0 0 1 562 123 )" />
  </g>
</svg>