<?xml version="1.0" encoding="utf-8"?>
<svg version="1.1" xmlns:xlink="http://www.w3.org/1999/xlink" width="16px" height="20px" xmlns="http://www.w3.org/2000/svg">
  <g transform="matrix(1 0 0 1 -696 -211 )">
    <path d="M 0.367516385800204 18.5399431673194  C 0.367516385800204 18.528910748646  0.367677610870888 18.5178790259357  0.368000000000001 18.506852173913  L 0.368000000000001 1.2023652173913  C 0.36733312754867 1.18646633141855  0.366999561520461 1.17055299532074  0.366999561520461 1.15463759400108  C 0.366999561520461 0.575881595987091  0.798640043347595 0.10670715921847  1.33109556152046 0.10670715921847  C 1.51424845002409 0.10670715921847  1.69361218506227 0.16341442832314  1.848192 0.270191304347826  C 2.438016 0.64695652173913  14.221184 8.25405217391304  15.226752 8.90462608695652  C 15.5313993168069 9.10083419962562  15.7182156343714 9.45718403970479  15.7182156343714 9.84208695652174  C 15.7182156343714 10.2269898733387  15.5313993168069 10.5833397134179  15.226752 10.779547826087  C 14.502784 11.2564869565217  2.67456 18.9047652173913  1.817984 19.4340173913043  C 1.66928316694422 19.5306964616177  1.49925215314604 19.5817518629716  1.3259803858002 19.5817518629716  C 0.796635335338382 19.5817518629716  0.367516385800204 19.1153182221692  0.367516385800204 18.5399431673194  Z " fill-rule="nonzero" fill="#ffffff" stroke="none" transform="matrix(1 0 0 1 696 211 )" />
  </g>
</svg>