<?xml version="1.0" encoding="utf-8"?>
<svg version="1.1" xmlns:xlink="http://www.w3.org/1999/xlink" width="8px" height="15px" xmlns="http://www.w3.org/2000/svg">
  <g transform="matrix(1 0 0 1 -289 -85 )">
    <path d="M 7.70909090566038 14.6401124613402  C 7.57735849056604 14.8200562306701  7.40171526415094 14.8650421778351  7.22607203773585 14.8650421778351  C 7.05042881132075 14.8650421778351  6.87478558490566 14.8200562306701  6.74305316981132 14.6850984085052  L 0.244253867924528 7.98219307345361  C 0.112521452830189 7.84723525128866  0.0686106415094332 7.66729148195876  0.0686106415094332 7.48734771262887  C 0.0686106415094332 7.30740394329897  0.156432245283018 7.12746017396907  0.244253867924528 6.99250235180412  L 6.78696398113207 0.334582944587629  C 7.05042881132075 0.064667300257732  7.4456260754717 0.064667300257732  7.70909090566037 0.334582944587629  C 7.97255573584905 0.604498588917525  7.97255573584905 1.00937207474227  7.70909090566037 1.27928771907216  L 1.64939966037736 7.48734771262887  L 7.70909090566038 13.6954076868557  C 7.97255573584906 13.9653233311856  7.97255573584906 14.3701968170103  7.70909090566038 14.6401124613402  Z " fill-rule="nonzero" fill="#333333" stroke="none" transform="matrix(1 0 0 1 289 85 )" />
  </g>
</svg>