<?xml version="1.0" encoding="utf-8"?>
<svg version="1.1" xmlns:xlink="http://www.w3.org/1999/xlink" width="81px" height="45px" xmlns="http://www.w3.org/2000/svg">
  <defs>
    <mask fill="white" id="clip162">
      <path d="M 0 37  L 0 0  L 81 0  L 81 37  L 50.4698795180723 37  L 40.8313253012048 44.698795180723  L 31.1927710843374 37  L 0 37  Z " fill-rule="evenodd" />
    </mask>
  </defs>
  <g transform="matrix(1 0 0 1 -85 -541 )">
    <path d="M 0 37  L 0 0  L 81 0  L 81 37  L 50.4698795180723 37  L 40.8313253012048 44.698795180723  L 31.1927710843374 37  L 0 37  Z " fill-rule="nonzero" fill="#f2f2f2" stroke="none" transform="matrix(1 0 0 1 85 541 )" />
    <path d="M 0 37  L 0 0  L 81 0  L 81 37  L 50.4698795180723 37  L 40.8313253012048 44.698795180723  L 31.1927710843374 37  L 0 37  Z " stroke-width="2" stroke="#d7d7d7" fill="none" transform="matrix(1 0 0 1 85 541 )" mask="url(#clip162)" />
  </g>
</svg>