<?xml version="1.0" encoding="utf-8"?>
<svg version="1.1" xmlns:xlink="http://www.w3.org/1999/xlink" width="11px" height="11px" xmlns="http://www.w3.org/2000/svg">
  <g transform="matrix(1 0 0 1 -508 -186 )">
    <path d="M 10.7243514150943 6.08696933962264  C 11.0471228400194 5.76221532729211  11.0471228400194 5.23778467270789  10.7243514150943 4.91303066037736  L 9.65094339622642 3.83962264150943  L 9.65094339622642 2.17924528301887  C 9.64958990893424 1.72130654046334  9.27869345953666 1.35041009106576  8.82075471698113 1.34905660377358  L 7.16037735849057 1.34905660377358  L 6.08696933962264 0.27564858490566  C 5.76220018685303 -0.0472087995087689  5.23767009616584 -0.0472087995087692  4.91290094339623 0.27564858490566  L 3.83962264150943 1.34905660377358  L 2.17924528301887 1.34905660377359  C 1.72130654046334 1.35041009106576  1.35041009106576 1.72130654046334  1.34905660377358 2.17924528301887  L 1.34905660377358 3.83962264150943  L 0.27564858490566 4.91303066037736  C -0.04720879950877 5.23779981314697  -0.0472087995087703 5.76232990383417  0.27564858490566 6.08709905660377  L 1.34905660377358 7.16037735849057  L 1.34905660377359 8.82075471698113  C 1.35041009106576 9.27869345953667  1.72130654046334 9.64958990893424  2.17924528301887 9.65094339622642  L 3.83962264150943 9.65094339622642  L 4.91303066037736 10.7243514150943  C 5.23779981314697 11.0472087995088  5.76232990383417 11.0472087995088  6.08709905660377 10.7243514150943  L 7.16037735849057 9.65094339622642  L 8.82075471698113 9.65094339622642  C 9.27869345953666 9.64958990893424  9.64958990893424 9.27869345953666  9.65094339622642 8.82075471698113  L 9.65094339622642 7.16037735849057  L 10.7243514150943 6.08696933962264  Z M 7.99056603773585 3.83962264150943  L 5.5 8.40566037735849  L 3.00943396226415 3.83962264150943  L 4.25471698113208 3.83962264150943  L 5.5 6.33018867924528  L 6.74528301886792 3.83962264150943  L 7.99056603773585 3.83962264150943  Z " fill-rule="nonzero" fill="#caf982" stroke="none" transform="matrix(1 0 0 1 508 186 )" />
  </g>
</svg>