<?xml version="1.0" encoding="utf-8"?>
<svg version="1.1" xmlns:xlink="http://www.w3.org/1999/xlink" width="41px" height="41px" xmlns="http://www.w3.org/2000/svg">
  <g transform="matrix(1 0 0 1 -398 -177 )">
    <path d="M 19.9246645805804 9.80719998627232  C 16.2589771144283 9.80719998627232  13.2873502834263 12.7788268172743  13.2873502834263 16.4445142834263  C 13.2873502834263 20.1102017495784  16.2589771144283 23.0818285805804  19.9246645805804 23.0818285805804  C 23.5903520467324 23.0818285805804  26.5619788777344 20.1102017495784  26.5619788777344 16.4445142834263  C 26.5619788777344 12.7788268172743  23.5903520467324 9.80719998627232  19.9246645805804 9.80719998627232  Z M 31.7888931382813 32.9546285897321  C 31.1703788388393 28.2361143131696  27.077407405692 25.7386285805804  19.9246645805804 25.7386285805804  C 12.7719217142857 25.7386285805804  8.67895028113839 28.2361143131696  8.05575029944196 32.9546285897321  C 14.7122507978948 39.2553529783856  25.1323926398284 39.2553529783856  31.7888931382813 32.9546285897321  Z M 20.3416931428571 40.3416571337054  L 19.9246645805804 40.3416571337054  C 19.9233002290035 40.3416574141255  19.9219358774165 40.3416575543355  19.9205715258108 40.3416575543355  C 8.92221521192876 40.3416575543355  0.00628579322148519 31.4257281356282  0.00628579322148519 20.4273718217462  C 0.00628579322148519 15.2124807113543  2.05187079505403 10.2056596497514  5.70352170513393 6.48268571428571  C 9.3409092422551 2.75366829409106  14.301619817842 0.608769165521086  19.5099788388393 0.513085709709822  L 19.9246645805804 0.513085709709822  C 30.922789281051 0.513413247752468  39.8383572405919 9.42924672812003  39.8383572405919 20.4273714334679  C 39.8383572405919 25.6422623441698  37.7927723950028 30.6490832304543  34.1411217325893 34.3720571291295  C 30.5053092587637 38.0991674092968  25.5475478893657 40.243883192345  20.3416931428571 40.3416571337054  Z " fill-rule="nonzero" fill="#ffffff" stroke="none" transform="matrix(1 0 0 1 398 177 )" />
  </g>
</svg>