<?xml version="1.0" encoding="utf-8"?>
<svg version="1.1" xmlns:xlink="http://www.w3.org/1999/xlink" width="17px" height="17px" xmlns="http://www.w3.org/2000/svg">
  <g transform="matrix(1 0 0 1 -625 -87 )">
    <path d="M 11.9697817792969 8.48367990039062  C 11.9697817792969 10.3829984921875  10.4245987539062 11.9281815175781  8.52528016210937 11.9281815175781  C 6.62660157714844 11.9281815175781  5.08077854492187 10.3829984921875  5.08077854492187 8.48367990039062  C 5.08077854492187 6.58436130859375  6.6259615703125 5.03917828320312  8.52528016210937 5.03917828320312  C 10.4245987539062 5.03917828320312  11.9697817792969 6.58436130859375  11.9697817792969 8.48367990039062  Z M 11.2231104189453 8.48389323046875  C 11.2214644042495 6.99460505643833  10.0145683361398 5.78770898832865  8.52528016210937 5.78606297363281  C 7.03530965362679 5.78606297363281  5.82744990527344 6.99392272198617  5.82744990527344 8.48389323046875  C 5.82744990527344 9.97386373895133  7.03530965362679 11.1817234873047  8.52528016210937 11.1817234873047  C 10.015250670592 11.1817234873047  11.2231104189453 9.97386373895133  11.2231104189453 8.48389323046875  Z M 10.5758530332031 16.5549838779297  C 10.5759719945294 16.8001429178354  10.3777012721578 16.9991769522773  10.1325435849609 17  L 6.86852309863281 17  C 6.62319843575008 16.9997647943029  6.42438218165915 16.8009485476396  6.42414696679687 16.5556238847656  L 6.42414696679687 15.4863905068359  C 6.42791930111225 15.1833553325746  6.24675899721668 14.908573002387  5.96675743457031 14.7926261513672  C 5.91662378710937 14.7712926787109  5.86563680273437 14.7499592226563  5.81528982519531 14.72862575  C 5.53533809061717 14.6087653705118  5.21057962398749 14.6720256130725  4.99608467773437 14.8882000849609  L 4.28056018945312 15.59369784375  C 4.10571052954073 15.7656559745622  3.82466920757927 15.7636519433626  3.65228957910156 15.5892178125  L 1.36000853320312 13.263869890625  C 1.18805040239094 13.0890202307126  1.19005443359053 12.8079789087511  1.36448856445312 12.6355992802734  L 2.07702636523437 11.9330882089844  C 2.29709285831894 11.7190235711685  2.36370161800663 11.392073592515  2.24492075585937 11.1089763701172  C 2.23539180208333 11.0862206748047  2.22600507389323 11.0633938639323  2.21676057128906 11.0404959375  C 2.10139334607776 10.7579161833734  1.82565196686909 10.5740041194638  1.52043620507812 10.5760663632812  L 0.444802791992187 10.5760663632812  C 0.19947812911824 10.575831148419  0.000661882454949268 10.377014894328  0.0004266767578125 10.1316902314453  L 0.0004266767578125 6.86766976171875  C 0.000661882454947527 6.62234509883601  0.199478129118238 6.4235288447451  0.444802791992188 6.42329362988281  L 1.50678278125 6.42329362988281  C 1.8139065345199 6.42534294077713  2.09095692547968 6.23911903643031  2.20502716796875 5.95395736425781  C 2.23361401269531 5.88249024414062  2.26390753125 5.81038313378906  2.29505440332031 5.7406226875  C 2.42045870508145 5.45812768303459  2.35935448244055 5.1276055542706  2.14124009667969 4.90861746972656  L 1.42400893457031 4.18114623144531  C 1.25181505394537 4.00639215873491  1.25382047226297 3.72515631012174  1.42848896582031 3.55287562109375  L 3.75383688769531 1.26059457519531  C 3.92859096040572 1.08840069457037  4.20982680901889 1.09040611288797  4.38210749804688 1.26507460644531  L 5.1251521640625 2.0187859921875  C 5.33775037522349 2.23548771728563  5.66062442153087 2.30141311719364  5.94115727734375 2.18540038574219  L 5.95545070800781 2.17964034082031  C 6.23975803906718 2.06463348937087  6.42555962936479 1.78829584658581  6.42478697363281 1.48160930078125  L 6.42478697363281 0.444376115234375  C 6.4250221884951 0.199051452360426  6.62383844258601 0.000235205697135462  6.86916310546875 0  L 10.1331835751953 0  C 10.378508238078 0.000235205697135897  10.577324492169 0.199051452360426  10.5775597070312 0.444376115234375  L 10.5775597070312 1.46219584863281  C 10.5761610520884 1.77037936449254  10.7636723499373 2.04796380644013  11.0500960068359 2.16172023242187  C 11.1130297412109 2.18689372949219  11.1763901357422 2.21334722363281  11.2384705166016 2.24022739453125  C 11.5199761726569 2.36344964010411  11.8481937421909 2.30212032412237  12.0662090498047 2.08555975097656  L 12.8369872070312 1.32544831347656  C 12.9199201712694 1.24319307957037  13.0320761692698 1.19716462747631  13.1488825048828 1.19744751074219  L 13.1520825224609 1.19744751074219  C 13.2699470347211 1.19795417331584  13.3827131096023 1.24558017540382  13.4652578173828 1.32971501464844  L 15.7575388632812 3.65506293652344  C 15.9294969986348 3.82991259187799  15.9274929748618 4.11095391380134  15.7530588486328 4.283333546875  L 14.9795073173828 5.04600499511719  C 14.7603664024959 5.25919993113384  14.6933383710549 5.58445072185511  14.8103329296875 5.86691681640625  C 14.8229907910156 5.89721034049479  14.8353642011719 5.92750386458333  14.8474531601563 5.95779738867187  C 14.9618261008798 6.24185935164474  15.2384191556992 6.42696002835715  15.5446308632812 6.42436031347656  L 16.5560505449219 6.42436031347656  C 16.8006266584535 6.42506276062938  16.9987532091829 6.62309401444368  16.9995733232422 6.86766976171875  L 16.9995733232422 10.1316902314453  C 16.9993381175451 10.377014894328  16.8005218708818 10.575831148419  16.5551972080078 10.5760663632812  L 15.5311907861328 10.5760663632812  C 15.227030096048 10.5729246823404  14.9516702662707 10.7554836788579  14.8361464169922 11.0368692431641  C 14.819364085612 11.0785406149089  14.8021550885417 11.1199275465495  14.7845194257812 11.1610300380859  C 14.6661898706407 11.4406322517477  14.7295967269665 11.7640831990274  14.9447337675781 11.9783151650391  L 15.692685125 12.7369332587891  C 15.8646432492938 12.9117829121829  15.8626392255589 13.192824221334  15.6882051103516 13.3652038525391  L 13.362857171875 15.6574849150391  C 13.1880075139234 15.8294430347915  12.9069662047341 15.82743900363  12.734586578125 15.6530048837891  L 12.0092486904297 14.9176402666016  C 11.7952889557186 14.6994143290344  11.4704679882565 14.6325270233285  11.1876968623047 14.7484658789063  C 11.1384165517578 14.7697993515625  11.0880695742187 14.7911328076172  11.0383625869141 14.8099062529297  C 10.7610275087891 14.9197736171875  10.5758530166016 15.199455359375  10.5758530332031 15.5058039589844  L 10.5758530332031 16.5549838779297  Z M 7.16889830664062 15.4866038369141  L 7.16996499023437 16.25332865625  L 9.83003500976562 16.25332865625  L 9.83003500976562 15.5066572958984  C 9.83003500976562 14.8879867548828  10.1965439697266 14.3422766611328  10.7635875361328 14.1167819042969  C 10.8077478085937 14.0992884560547  10.8525480878906 14.0809416875  10.8964950302734 14.0621682255859  C 11.4608894429267 13.8222963507769  12.1146912402439 13.9541925794067  12.5419453671875 14.3941169824219  L 13.053948578125 14.9140135722656  L 14.9487871220703 13.0462685292969  L 14.4131037744141 12.5029051162109  C 13.9845094575639 12.073132466793  13.8599023232709 11.4261209145748  14.0982217890625 10.8679081855469  C 14.1138663268229 10.8312146263021  14.1292264244792 10.7943788414714  14.1443020820312 10.7574008310547  C 14.3731658308443 10.193610153022  14.922517106562 9.82622092370012  15.5309774560547 9.83003500976563  L 16.2529019794922 9.83003500976563  L 16.2529019794922 7.16996499023437  L 15.5437775263672 7.16996499023437  C 14.9319211916801 7.17360807740178  14.3802229648896 6.80228249573721  14.1532621445312 6.23406578320312  C 14.142453188151 6.20690116666667  14.1314308961589 6.17987877571615  14.1201952685547 6.15299861035156  C 13.8849060641779 5.58937804743811  14.017590681027 4.93923187211776  14.4549173662109 4.51288164160156  L 15.0130008701172 3.962478203125  L 13.1452558105469 2.06827964941406  L 12.5905856708984 2.61612307714844  C 12.1559652317573 3.04757069924524  11.5018406638003 3.169632225905  10.9408686494141 2.92396502050781  C 10.8856149638672 2.89985820703125  10.82908128125 2.87639138378906  10.7731875888672 2.85399124414062  C 10.2024296153388 2.62824841428088  9.82817847234705 2.07597190131665  9.83003500976562 1.46219584863281  L 9.83003500976562 0.74667134375  L 7.16996499023437 0.74667134375  L 7.16996499023437 1.48139595410156  C 7.17149582792045 2.09131906434675  6.8022661330387 2.64098413036418  6.23705247070313 2.87020467871094  L 6.22361237695312 2.87575137695313  C 5.66280157917487 3.10757212016243  5.01740883894856 2.97572495084931  4.59245548730469 2.54252262304687  L 4.06167881445313 2.00406590136719  L 2.16748026074219 3.87287762792969  L 2.6724434296875 4.38488083886719  C 3.10653899210963 4.82128247606533  3.22789013980269 5.47956158337931  2.97793869238281 6.04206457910156  C 2.95020518457031 6.10478496679687  2.92332501367187 6.16878536816406  2.89793818652344 6.232359109375  C 2.67121193781281 6.80152470063725  2.11922427583313 7.17391747610246  1.50656945117188 7.17103165722656  L 0.74667134375 7.17103165722656  L 0.74667134375 9.83003500976563  L 1.51936953808594 9.83003500976563  C 2.12882281384387 9.82704668565498  2.67864877858506 10.1955407780967  2.90753823925781 10.7603875185547  C 2.91578717936198 10.7807254287109  2.92417834505208 10.8010633333333  2.93271173632813 10.8214012324219  C 3.16979878457728 11.3858878206522  3.03764553321984 12.0379397563114  2.59948298242187 12.4655715556641  L 2.10241319238281 12.9562412939453  L 3.97015825195312 14.8504398476563  L 4.47021471289062 14.3572100820313  C 4.90121897026195 13.9261336866765  5.55183826436166 13.8021337000347  6.11118501855469 14.0444614472656  C 6.15598529785156 14.0638748994141  6.20121225390625 14.0828616914063  6.24579918652344 14.1009951464844  C 6.80665603125 14.3286232373047  7.16889830664062 14.8724133271484  7.16889830664062 15.4866038369141  Z " fill-rule="nonzero" fill="#ffffff" stroke="none" transform="matrix(1 0 0 1 625 87 )" />
  </g>
</svg>