<?xml version="1.0" encoding="utf-8"?>
<svg version="1.1" xmlns:xlink="http://www.w3.org/1999/xlink" width="11px" height="11px" xmlns="http://www.w3.org/2000/svg">
  <g transform="matrix(1 0 0 1 -608 -64 )">
    <path d="M 0 9.625  C 0 9.37186948966089  0.209568840504735 9.16666666666667  0.468085106382979 9.16666666666667  C 0.701993959062489 9.16667632762796  0.899989809779206 9.33575892332206  0.93180141356383 9.56266666666667  L 0.936170212765957 9.625  L 0.936170212765957 10.5416666666667  C 0.936090974664614 10.7947422924468  0.726545354089614 10.9998594852921  0.46808512838059 10.9998594852921  C 0.234223835240877 10.9998594852921  0.0362456316901276 10.8308519588686  0.00436879920212758 10.604  L 0 10.5416666666667  L 0 9.625  Z M 2.49645390558511 7.79227778255208  C 2.49645390558511 7.53914727221297  2.70602274608984 7.33394444921875  2.96453901196808 7.33394444921875  C 3.19865493755679 7.3339958677505  3.39672770805513 7.5034051778834  3.42825531914893 7.73055555078125  L 3.43262411835106 7.79227778255208  L 3.43262411835106 10.5416666666667  C 3.43254493880883 10.7947423330243  3.22299930106508 10.9998595891588  2.96453903393319 10.9998595891588  C 2.73067770009006 10.9998595891588  2.53269947519847 10.830852005492  2.50082269015957 10.604  L 2.49645390558511 10.5416666666667  L 2.49645390558511 7.79227778255208  Z M 4.99290779654255 5.95833333333333  C 4.99290779654255 5.70520282299422  5.20247663704729 5.5  5.46099290292553 5.5  C 5.69490176116592 5.50000965380411  5.89289762019287 5.66909225126129  5.92470922473404 5.896  L 5.92907800930851 5.95833333333333  L 5.92907800930851 10.5416666666667  C 5.92899877120717 10.7947422924468  5.71945315063216 10.9998594852921  5.46099292492314 10.9998594852921  C 5.22713163178343 10.9998594852921  5.02915342823268 10.8308519588686  4.99727659574468 10.604  L 4.99290779654255 10.5416666666667  L 4.99290779654255 5.95833333333333  Z M 7.48936170212766 4.125  C 7.48936170212766 3.87186948966089  7.69893054263239 3.66666666666667  7.95744680851064 3.66666666666667  C 8.19135566119015 3.66667632762796  8.38935151190686 3.83575892332206  8.42116311569149 4.06266666666667  L 8.42553191489362 4.125  L 8.42553191489362 10.5416666666667  C 8.42545267679227 10.7947422924468  8.21590705621727 10.9998594852921  7.95744683050825 10.9998594852921  C 7.72358553736853 10.9998594852921  7.52560733381779 10.8308519588686  7.49373050132979 10.604  L 7.48936170212766 10.5416666666667  L 7.48936170212766 4.125  Z M 10.4289361702128 1.83333333333333  C 10.6585742427684 1.83442929162747  10.8515898212393 2.00248250399478  10.8795460944149 2.22566666666667  L 10.8845390119681 2.28738888411458  L 10.9194893617021 10.5373888841146  C 10.9219858204787 10.7903888841146  10.7222694986702 10.9975555507813  10.4732482220745 11  C 10.2440583945919 10.9986368549506  10.0514763348346 10.8309900747458  10.0232624162234 10.6082777825521  L 10.0182694986702 10.5459444492188  L 9.98331914893617 2.29594444921875  C 9.98082269015957 2.04355556510417  10.1805390119681 1.8363888984375  10.4295602885638 1.83333333333333  Z M 3.98184396675532 0.206555550781251  C 4.21276595744681 0.0690555507812509  4.48363120079787 0  4.79443971143617 0  C 5.22632623138298 0  5.56459574468085 0.100833333333333  5.808 0.3025  C 6.05140425531915 0.504166666666667  6.19619858643617 0.798111115885417  6.24113475664894 1.18372221744792  L 5.51029787234043 1.18372221744792  C 5.47659574468085 0.9796111015625  5.40295034973404 0.829888884114583  5.2887375837766 0.735166666666667  C 5.17452481781915 0.64044444921875  5.01724822207447 0.593388884114583  4.81690779654255 0.593388884114583  C 4.56102127659574 0.593388884114583  4.36754609441489 0.686888884114583  4.23336170212766 0.8745  C 4.10042553191489 1.06272221744792  4.03239715824468 1.34261111588542  4.03114893617021 1.71294444921875  L 4.03114893617021 1.94088888411458  C 4.03114893617021 2.3155  4.10354609441489 2.59783333333333  4.24834042553192 2.78911111588542  C 4.39375886037234 2.9803888984375  4.60658156515957 3.07633333333333  4.8868085106383 3.07633333333333  C 5.16890779654255 3.07633333333333  5.36987234042553 3.01705555078125  5.49032624601064 2.89911111588542  L 5.49032624601064 2.28494444921875  L 4.80692199069149 2.28494444921875  L 4.80692199069149 1.7435  L 6.24113475664894 1.7435  L 6.24113475664894 3.16738888411459  C 6.10570212765957 3.32627776822917  5.91472340425532 3.4485  5.66819858643617 3.53588888411458  C 5.40428123254382 3.62595760090317  5.12632989776584 3.67021473416787  4.84686524335106 3.66666666666667  C 4.53168793351064 3.66666666666667  4.25520566888298 3.59944444921875  4.01679433111702 3.465  C 3.77706630917532 3.32801855704358  3.58519489927818 3.12331674200963  3.46632624601064 2.87772221744792  C 3.33713475664894 2.62105555078125  3.27097872340426 2.31916666666667  3.26723404255319 1.97327778255208  L 3.26723404255319 1.73066666666667  C 3.26723404255319 1.37438888411458  3.32902127659574 1.06577778255208  3.45134752260638 0.805444449218751  C 3.56201580906831 0.557728336741161  3.74704225819754 0.348847980382548  3.98184396675532 0.206555550781251  Z M 1.51909220345745 0.0488888841145841  L 2.25055319148936 0.0488888841145833  L 2.25055319148936 2.27455555078125  L 2.66309220345745 2.27455555078125  L 2.66309220345745 2.84533333333333  L 2.25055319148936 2.84533333333333  L 2.25055319148936 3.61777778255208  L 1.52658156515957 3.61777778255208  L 1.52658156515957 2.84533333333333  L 0.0330780093085108 2.84533333333333  L 0 2.39922221744792  L 1.51909220345745 0.0488888841145841  Z M 1.52658156515957 1.01444444921875  L 1.47914893617021 1.09572221744792  L 0.720851063829786 2.27455555078125  L 1.52720566888298 2.27455555078125  L 1.52720566888298 1.01444444921875  Z " fill-rule="nonzero" fill="#ffffff" stroke="none" transform="matrix(1 0 0 1 608 64 )" />
  </g>
</svg>