<?xml version="1.0" encoding="utf-8"?>
<svg version="1.1" xmlns:xlink="http://www.w3.org/1999/xlink" width="10px" height="10px" xmlns="http://www.w3.org/2000/svg">
  <g transform="matrix(1 0 0 1 -578 -65 )">
    <path d="M 5 9.78193146028037  C 7.59086418981482 9.78193146028037  9.69135802083333 7.66180684579439  9.69135802083333 5.04672897196262  C 9.69135802083333 2.4316510864486  7.59086418981482 0.31152648364486  5 0.31152648364486  C 2.40913581018518 0.31152648364486  0.308641979166667 2.4316510864486  0.308641979166667 5.04672897196262  C 0.308641979166667 7.66180685747663  2.40913581018519 9.78193146028037  5 9.78193146028037  Z M 4.75308642361111 4.92211837616822  C 4.75308642361111 4.94355140186916  4.75555555555556 4.96448598130841  4.76098765046296 4.98442367990654  C 4.73838400653175 5.07282272378958  4.76547674318206 5.16662119934635  4.83160494212963 5.22890966121495  L 6.27604938657407 6.58866043224299  C 6.32177772093561 6.63175382065999  6.38200681280634 6.65572177145938  6.44456790509259 6.65572177145938  C 6.58094591239093 6.65572177145938  6.69150213121439 6.54413231694599  6.69150213121439 6.40647974883178  C 6.69150213121439 6.33740923000706  6.66310528488485 6.2714357531469  6.61308642361111 6.22429906542056  L 5.24641975694444 4.93781931074767  L 5.24691357638889 4.92211837616822  L 5.24691357638889 2.9283489135514  C 5.24691357638889 2.79070785655418  5.13636660276576 2.67912773364486  5 2.67912773364486  C 4.86363339723423 2.67912773364486  4.75308642361111 2.79070785655418  4.75308642361111 2.9283489135514  L 4.75308642361111 4.92211837616822  Z M 5 9.28348910046729  C 2.6817283912037 9.28348910046729  0.802469131944444 7.38666667056075  0.802469131944444 5.04672897196262  C 0.802469131944444 2.70679127336449  2.6817283912037 0.809968843457944  5 0.809968843457944  C 7.3182716087963 0.809968843457944  9.19753086805556 2.70679127336449  9.19753086805556 5.04672897196262  C 9.19753086805556 7.38666667056075  7.3182716087963 9.28348910046729  5 9.28348910046729  Z M 8.75160494212963 9.48785046728972  L 7.89160494212963 8.60984424065421  C 7.84502569819325 8.56070532053756  7.78057451047698 8.53291357424552  7.71319683600551 8.53291357424552  C 7.57683023323975 8.53291357424552  7.46628325961662 8.64449369715485  7.46628325961662 8.78213475415207  C 7.46628325961662 8.84916331219858  7.49303313124108 8.91336628130913  7.54049383101852 8.96024921728972  L 8.40049383101852 9.83825545560748  C 8.44707306414958 9.88739426402482  8.51152417606427 9.9151859384143  8.57890176310453 9.9151859384143  C 8.7152683658703 9.9151859384143  8.82581533949342 9.80360581550497  8.82581533949342 9.66596475850776  C 8.82581533949342 9.59893628572604  8.79906553572393 9.53473339087739  8.75160494212963 9.48785046728972  Z M 1.47185185185185 9.83825545560748  L 2.33185185185185 8.96024921728972  C 2.3758178585201 8.91386714006086  2.40035732211661 8.85215065570327  2.40035732211661 8.78795870379187  C 2.40035732211661 8.65031764679465  2.28981034849348 8.53873752388533  2.15344374572772 8.53873752388533  C 2.08887957705519 8.53873752388533  2.02688373807889 8.56426296603539  1.98074074074074 8.6098442406542  L 1.12074074074074 9.48785046728972  C 1.07328014714645 9.53473339087739  1.04653034337697 9.59893628572603  1.04653034337697 9.66596475850774  C 1.04653034337697 9.80360581550496  1.15707731700009 9.91518593841428  1.29344391976586 9.91518593841428  C 1.36082150680611 9.91518593841428  1.4252726187208 9.88739426402481  1.47185185185185 9.83825545560748  Z M 7.84148148148148 0.560747663551402  L 8.08444444444444 0.560747663551402  C 8.83472469849515 0.560884115392611  9.44321873100843 1.17417294979161  9.44444444444444 1.93146417056075  C 9.44444444444444 2.06910523078393  9.55499142065851 2.18068535630841  9.69135802662037 2.18068535630841  C 9.82772463258223 2.18068535630841  9.9382716087963 2.06910523078393  9.9382716087963 1.93146417056075  C 9.9382716087963 0.90043613317757  9.10765431712963 0.0623052920560747  8.08444444444444 0.0623052920560747  L 7.84148148148148 0.0623052920560747  C 7.70511487551963 0.0623052920560746  7.59456789930556 0.173885417580556  7.59456789930556 0.311526477803738  C 7.59456789930556 0.44916753802692  7.70511487551963 0.560747663551402  7.84148148148148 0.560747663551402  Z M 2.15851851851852 0.0623052920560749  L 1.91555555555556 0.0623052920560747  C 0.89234568287037 0.0623052920560747  0.0617283912037037 0.90043613317757  0.0617283912037037 1.93146417056075  C 0.0617283912037037 2.06910523078393  0.172275367417773 2.18068535630841  0.30864197337963 2.18068535630841  C 0.445008579341486 2.18068535630841  0.555555555555556 2.06910523078393  0.555555555555556 1.93146417056075  C 0.555555555555556 1.17557632009346  1.16518518518519 0.560747663551402  1.91555555555556 0.560747663551402  L 2.15851851851852 0.560747663551402  C 2.29488512448037 0.560747663551402  2.40543210069444 0.44916753802692  2.40543210069444 0.311526477803738  C 2.40543210069444 0.173885417580557  2.29488512448037 0.0623052920560751  2.15851851851852 0.0623052920560751  Z " fill-rule="nonzero" fill="#ffffff" stroke="none" transform="matrix(1 0 0 1 578 65 )" />
  </g>
</svg>