<?xml version="1.0" encoding="utf-8"?>
<svg version="1.1" xmlns:xlink="http://www.w3.org/1999/xlink" width="9px" height="10px" xmlns="http://www.w3.org/2000/svg">
  <g transform="matrix(1 0 0 1 -594 -65 )">
    <path d="M 0.0143382352941178 7.89236111111111  C -0.0176470588235293 6.81365740740741  0.784191176470588 5.90856481481481  1.81213235294118 5.86574074074074  C 2.00845588235294 5.86458333333333  2.20367647058824 5.90046296296296  2.38786764705882 5.97106481481481  C 2.47389705882353 6.00462962962963  2.53014705882353 6.09027777777778  2.53014705882353 6.18518518518519  L 2.53014705882353 9.60416666666667  C 2.53014705882353 9.70023148148148  2.47279411764706 9.78587962962963  2.38786764705882 9.81828703703704  C 2.20367647058824 9.88773148148148  2.00845588235294 9.92361111111111  1.81213235294118 9.92361111111111  C 0.781985294117647 9.88078703703704  -0.0209558823529409 8.97222222222222  0.0143382352941178 7.89236111111111  Z M 8.98566176470588 7.89699074074074  C 9.02095588235294 8.97800925925926  8.21691176470588 9.88541666666667  7.18786764705882 9.92939814814815  C 6.99154411764706 9.93055555555556  6.79632352941177 9.89467592592593  6.61213235294118 9.82407407407407  C 6.52610294117647 9.79050925925926  6.46985294117647 9.70486111111111  6.46985294117647 9.6099537037037  L 6.46985294117647 6.18518518518519  C 6.46985294117647 6.08912037037037  6.52720588235294 6.00347222222222  6.61213235294118 5.97106481481481  C 6.79632352941177 5.90162037037037  6.99154411764706 5.86574074074074  7.18786764705882 5.86574074074074  C 8.21801470588235 5.90856481481481  9.02095588235294 6.81712962962963  8.98566176470588 7.89699074074074  Z M 2.34485294117647 8.96527777777778  L 2.30073529411765 9.42592592592593  C 1.65772058823529 9.35763888888889  1.11066176470588 9.0462962962963  0.721323529411765 8.52546296296296  C 0.35514705882353 8.03703703703704  0.153308823529412 7.38425925925926  0.153308823529412 6.68634259259259  L 0.153308823529412 4.36342592592593  C 0.153308823529412 3.78356481481481  0.26139705882353 3.22222222222222  0.475367647058824 2.69212962962963  C 0.681617647058824 2.18055555555556  0.976102941176471 1.72222222222222  1.35220588235294 1.3275462962963  C 1.72830882352941 0.932870370370371  2.16507352941176 0.623842592592593  2.65257352941176 0.407407407407408  C 3.15661764705882 0.184027777777778  3.69264705882353 0.0694444444444444  4.24522058823529 0.0694444444444444  L 4.75698529411765 0.0694444444444444  C 5.30955882352941 0.0694444444444444  5.84448529411765 0.18287037037037  6.34963235294118 0.407407407407407  C 6.83713235294118 0.623842592592593  7.27389705882353 0.93287037037037  7.65 1.3275462962963  C 8.02610294117647 1.72222222222222  8.32058823529412 2.18055555555556  8.52683823529412 2.69212962962963  C 8.7375 3.22222222222222  8.84558823529412 3.78472222222222  8.84558823529412 4.36342592592593  L 8.84558823529412 6.68634259259259  C 8.84558823529412 7.38425925925926  8.64485294117647 8.03703703703704  8.27867647058824 8.52430555555556  C 7.88933823529412 9.04398148148148  7.34338235294118 9.35532407407407  6.70036764705882 9.42592592592593  L 6.65514705882353 8.96527777777778  C 7.70183823529412 8.85185185185185  8.40441176470588 7.93634259259259  8.40441176470588 6.68634259259259  L 8.40441176470588 4.36342592592593  C 8.40441176470588 2.25231481481481  6.76764705882353 0.533564814814815  4.75477941176471 0.533564814814815  L 4.24301470588235 0.533564814814815  C 2.23125 0.533564814814815  0.593382352941177 2.25115740740741  0.593382352941177 4.36342592592593  L 0.593382352941177 6.68634259259259  C 0.593382352941177 7.9375  1.29705882352941 8.85416666666667  2.34485294117647 8.96527777777778  Z " fill-rule="nonzero" fill="#ffffff" stroke="none" transform="matrix(1 0 0 1 594 65 )" />
  </g>
</svg>