<?xml version="1.0" encoding="utf-8"?>
<svg version="1.1" xmlns:xlink="http://www.w3.org/1999/xlink" width="8px" height="10px" xmlns="http://www.w3.org/2000/svg">
  <g transform="matrix(1 0 0 1 -564 -64 )">
    <path d="M 7.92008493258427 1.86265582052417  C 7.94030886516854 1.84066593632412  7.96277991011236 1.82330549655606  7.98637450561798 1.80825977900398  C 7.9717683258427 1.83256439699409  7.95491505617978 1.85571164230213  7.93356756179775 1.87654416539417  L 7.35381475280899 2.47374323786005  L 6.829116 3.01423153501568  L 1.00686980898876 9.01168419247625  L 0.113646011235956 9.9317874075911  C 0.0934220786516865 9.95261993068315  0.070951033707866 9.9711377315592  0.0473564494382034 9.98618343753721  C 0.0619626292134843 9.9618788195471  0.0788158988764057 9.93873157423906  0.100163393258428 9.91789905114702  L 7.92008493258427 1.86265582052417  Z M 6.85383413483146 1.82909230209603  C 6.87181096629213 1.84761010297209  6.88978779775281 1.86728526495614  6.90776462921348 1.8858030658322  L 6.39879560674157 2.41008829590184  C 6.3808187752809 2.39041313391778  6.36284194382023 2.37189533304172  6.34486511235955 2.35337753216566  C 6.07970685393259 2.08023997503083  5.77185361797753 1.86497054274016  5.42917026966292 1.71567077462369  C 5.07637495505618 1.56058418939317  4.70110860674157 1.48188354145696  4.31460674157304 1.48188354145696  L 4.31123608988764 1.48188354145696  C 3.9269813258427 1.48188354145696  3.55283852808989 1.56174156207524  3.20004321348315 1.71914285794767  C 2.85848342696629 1.87075734828013  2.55063019101124 2.08834150278679  2.28434837078652 2.36495115481968  C 2.01919011235955 2.6415607952785  1.8102094494382 2.96215022728556  1.66414769662921 3.31746052725467  C 1.51359173033708 3.6843444498778  1.43719020224719 4.07206089559298  1.43719020224719 4.47019360285418  L 1.43719020224719 7.52100124510162  L 0.121510876404494 8.87743013033778  C 0.0934220786516856 8.61933829075502  0.204653719101124 8.35545962248414  0.421499247191011 8.19342888217973  C 0.602391112359551 8.05917483161534  0.719240516853933 7.84043330442661  0.719240516853933 7.59275772638987  L 0.719240516853933 4.47019360285418  C 0.719240516853933 2.69595683679869  1.94728279775281 1.18328400522402  3.57193891011236 0.822186899714934  C 3.69215896629213 0.79556755950884  3.77642535955056 0.685618115360478  3.77530180898876 0.558308243018126  L 3.77530180898876 0.555993520802137  C 3.77530180898876 0.241190905909128  4.0292245505618 -0.0122714776675821  4.3370777752809 0.000459494520356898  C 4.61684221348315 0.0120331171743755  4.84492325842697 0.248135072557095  4.8539116741573 0.537475719926078  L 4.8539116741573 0.557150881910131  C 4.8539116741573 0.683303393144489  4.93593096629213 0.794410198400846  5.05615102247191 0.82102953860694  C 5.74938257303371 0.971486667831403  6.36958324719101 1.3302690511245  6.85383413483146 1.82909230209603  Z " fill-rule="nonzero" fill="#ffffff" stroke="none" transform="matrix(1 0 0 1 564 64 )" />
  </g>
</svg>