<?xml version="1.0" encoding="utf-8"?>
<svg version="1.1" xmlns:xlink="http://www.w3.org/1999/xlink" width="80px" height="20px" xmlns="http://www.w3.org/2000/svg">
  <g transform="matrix(1 0 0 1 -496 -396 )">
    <path d="M 497 406  A 9 9 0 0 1 506 397 L 566 397  A 9 9 0 0 1 575 406 A 9 9 0 0 1 566 415 L 506 415  A 9 9 0 0 1 497 406 Z " fill-rule="nonzero" fill="#2962ff" stroke="none" fill-opacity="0" />
    <path d="M 496.5 406  A 9.5 9.5 0 0 1 506 396.5 L 566 396.5  A 9.5 9.5 0 0 1 575.5 406 A 9.5 9.5 0 0 1 566 415.5 L 506 415.5  A 9.5 9.5 0 0 1 496.5 406 Z " stroke-width="1" stroke="#02a7f0" fill="none" stroke-opacity="0.498039215686275" />
  </g>
</svg>