<?xml version="1.0" encoding="utf-8"?>
<svg version="1.1" xmlns:xlink="http://www.w3.org/1999/xlink" width="150px" height="20px" xmlns="http://www.w3.org/2000/svg">
  <g transform="matrix(1 0 0 1 -461 -505 )">
    <path d="M 462 515  A 9 9 0 0 1 471 506 L 601 506  A 9 9 0 0 1 610 515 A 9 9 0 0 1 601 524 L 471 524  A 9 9 0 0 1 462 515 Z " fill-rule="nonzero" fill="#2962ff" stroke="none" fill-opacity="0.0980392156862745" />
    <path d="M 461.5 515  A 9.5 9.5 0 0 1 471 505.5 L 601 505.5  A 9.5 9.5 0 0 1 610.5 515 A 9.5 9.5 0 0 1 601 524.5 L 471 524.5  A 9.5 9.5 0 0 1 461.5 515 Z " stroke-width="1" stroke="#02a7f0" fill="none" stroke-opacity="0.498039215686275" />
  </g>
</svg>