<?xml version="1.0" encoding="utf-8"?>
<svg version="1.1" xmlns:xlink="http://www.w3.org/1999/xlink" width="13px" height="13px" xmlns="http://www.w3.org/2000/svg">
  <g transform="matrix(1 0 0 1 -215 -511 )">
    <path d="M 12.8616919716797 6.52384591992187  C 12.8627771660156 6.23058391699219  12.6253174970703 5.99206759179688  12.3325980996094 5.99101095214844  L 7.06419163378906 5.99266732324219  L 7.06419163378906 0.703013712890625  C 7.06419163378906 0.409751726562499  6.82618934277344 0.171749435546875  6.53292735644531 0.171749435546875  C 6.23966537011719 0.171749435546875  6.00169163378906 0.4097517265625  6.00169163378906 0.703013712890625  L 6.00169163378906 5.98895478222656  L 0.649867280273437 5.98601331738281  C 0.649324674804687 5.98601331738281  0.648810640624999 5.98601331738281  0.64826803515625 5.98601331738281  C 0.355548637695312 5.98601331738281  0.118088952148437 6.22241634667969  0.117003757812499 6.51567834960937  C 0.115404512695312 6.8089403359375  0.352892752929687 7.04745667773438  0.646126184570312 7.04851331738281  L 6.00166307910156 7.05145478222656  L 6.00166307910156 12.3501327197266  C 6.00166307910156 12.6439087568359  6.23966537011719 12.8813969970703  6.53289880175781 12.8813969970703  C 6.82613223339843 12.8813969970703  7.06416307910156 12.6439373115234  7.06416307910156 12.3501327197266  L 7.06416307910156 7.05516732324219  L 12.3283143984375 7.05351095214844  C 12.3293710380859 7.05351095214844  12.3299136435547 7.05351095214844  12.3304276943359 7.05351095214844  C 12.6231470917969 7.05351095214844  12.8606067773437 6.81710792285156  12.8616919716797 6.52384591992187  Z " fill-rule="nonzero" fill="#02a7f0" stroke="none" transform="matrix(1 0 0 1 215 511 )" />
  </g>
</svg>