<?xml version="1.0" encoding="utf-8"?>
<svg version="1.1" xmlns:xlink="http://www.w3.org/1999/xlink" width="13px" height="11px" xmlns="http://www.w3.org/2000/svg">
  <g transform="matrix(1 0 0 1 -782 -113 )">
    <path d="M 12.8498582653934 5.5  C 12.8498582653934 5.35910578252651  12.7938873230408 5.22398242452875  12.6942587890625 5.1243564453125  L 8.431392578125 0.8615068359375  C 8.223939453125 0.654037109374999  7.88755859375 0.654037109374999  7.68010546875 0.8615068359375  C 7.4726357421875 1.0689765625  7.4726357421875 1.4053408203125  7.68010546875 1.612810546875  L 11.055203125 5  L 0.6234619140625 5  C 0.3406376953125 4.987908203125  0.1113701171875 5.2171923828125  0.1113701171875 5.5  C 0.1113701171875 5.78282421875  0.340654296875 6.012091796875  0.6234619140625 6  L 11.0552197265625 6  L 7.68010546875 9.3872060546875  C 7.4726357421875 9.5946591796875  7.4726357421875 9.9310400390625  7.68010546875 10.138509765625  C 7.78383203125 10.242236328125  7.919798828125 10.294099609375  8.0557490234375 10.294099609375  C 8.19169921875 10.294099609375  8.327666015625 10.242236328125  8.431392578125 10.138509765625  L 12.6942587890625 5.8756435546875  C 12.7938873230408 5.77601757547126  12.8498582653934 5.6408942174735  12.8498582653934 5.5  Z " fill-rule="nonzero" fill="#d7d7d7" stroke="none" transform="matrix(1 0 0 1 782 113 )" />
  </g>
</svg>