<?xml version="1.0" encoding="utf-8"?>
<svg version="1.1" xmlns:xlink="http://www.w3.org/1999/xlink" width="21px" height="21px" xmlns="http://www.w3.org/2000/svg">
  <g transform="matrix(1 0 0 1 -778 -108 )">
    <path d="M 788.5 108  C 794.38 108  799 112.62  799 118.5  C 799 124.38  794.38 129  788.5 129  C 782.62 129  778 124.38  778 118.5  C 778 112.62  782.62 108  788.5 108  Z " fill-rule="nonzero" fill="#81d3f8" stroke="none" fill-opacity="0.329411764705882" />
    <path d="M 788.5 108.5  C 794.1 108.5  798.5 112.9  798.5 118.5  C 798.5 124.1  794.1 128.5  788.5 128.5  C 782.9 128.5  778.5 124.1  778.5 118.5  C 778.5 112.9  782.9 108.5  788.5 108.5  Z " stroke-width="1" stroke="#02a7f0" fill="none" />
  </g>
</svg>