<?xml version="1.0" encoding="utf-8"?>
<svg version="1.1" xmlns:xlink="http://www.w3.org/1999/xlink" width="50px" height="50px" xmlns="http://www.w3.org/2000/svg">
  <g transform="matrix(1 0 0 1 -30 -241 )">
    <path d="M 55 241  C 69 241  80 252  80 266  C 80 280  69 291  55 291  C 41 291  30 280  30 266  C 30 252  41 241  55 241  Z " fill-rule="nonzero" fill="#ffffff" stroke="none" />
    <path d="M 55 241.5  C 68.72 241.5  79.5 252.28  79.5 266  C 79.5 279.72  68.72 290.5  55 290.5  C 41.28 290.5  30.5 279.72  30.5 266  C 30.5 252.28  41.28 241.5  55 241.5  Z " stroke-width="1" stroke="#d7d7d7" fill="none" />
  </g>
</svg>