<?xml version="1.0" encoding="utf-8"?>
<svg version="1.1" xmlns:xlink="http://www.w3.org/1999/xlink" width="24px" height="24px" xmlns="http://www.w3.org/2000/svg">
  <defs>
    <linearGradient gradientUnits="userSpaceOnUse" x1="1578.92887649263" y1="315" x2="1602.52514599494" y2="315" id="LinearGradient300">
      <stop id="Stop301" stop-color="#02a7f0" stop-opacity="0.43921568627451" offset="0" />
      <stop id="Stop302" stop-color="#02a7f0" stop-opacity="0.266666666666667" offset="0.78" />
      <stop id="Stop303" stop-color="#02a7f0" stop-opacity="0.219607843137255" offset="1" />
    </linearGradient>
  </defs>
  <g transform="matrix(1 0 0 1 -1579 -291 )">
    <path d="M 1591 291  C 1597.72 291  1603 296.28  1603 303  C 1603 309.72  1597.72 315  1591 315  C 1584.28 315  1579 309.72  1579 303  C 1579 296.28  1584.28 291  1591 291  Z " fill-rule="nonzero" fill="#02a7f0" stroke="none" fill-opacity="0.109803921568627" />
    <path d="M 1591 291.5  C 1597.44 291.5  1602.5 296.56  1602.5 303  C 1602.5 309.44  1597.44 314.5  1591 314.5  C 1584.56 314.5  1579.5 309.44  1579.5 303  C 1579.5 296.56  1584.56 291.5  1591 291.5  Z " stroke-width="1" stroke="url(#LinearGradient300)" fill="none" />
  </g>
</svg>