<?xml version="1.0" encoding="utf-8"?>
<svg version="1.1" xmlns:xlink="http://www.w3.org/1999/xlink" width="14px" height="16px" xmlns="http://www.w3.org/2000/svg">
  <g transform="matrix(1 0 0 1 -1558 -295 )">
    <path d="M 11.7315710445344 6.07412547368421  L 11.7315710445344 9.75079978345865  C 11.7315710445344 10.2704569423559  12.1544374412955 10.704845441604  12.67130351417 10.704845441604  C 13.1959749959514 10.704845441604  13.6110359838057 10.2704569423559  13.6110359838057 9.75079978345865  L 13.6110359838057 6.07412547368421  C 13.6110359838057 5.54677214636591  13.1959749959514 5.12798540350877  12.67130351417 5.12798540350877  C 12.1544374412955 5.12798540350877  11.7315710445344 5.54677214636591  11.7315710445344 6.07412547368421  Z M 8.83409049392712 3.41388639598997  C 8.58350691497975 3.41388639598997  8.37205609716599 3.21214556390977  8.37205609716599 2.95618252030075  C 8.37205609716599 2.70798545162907  8.58350691497976 2.5062271679198  8.83409049392712 2.5062271679198  C 9.09253234008097 2.5062271679198  9.30403601619433 2.70798545162907  9.30403601619433 2.95618252030075  C 9.30403601619433 3.21214556390977  9.09253234008097 3.41388639598997  8.83409049392712 3.41388639598997  Z M 5.25537217813765 3.41388639598997  C 5.00478859919028 3.41388639598997  4.80126652631579 3.21214556390977  4.80126652631579 2.95618252030075  C 4.80126652631579 2.70798545162907  5.00478859919028 2.5062271679198  5.25537217813765 2.5062271679198  C 5.5137964048583 2.5062271679198  5.71740657489878 2.70798545162907  5.71740657489878 2.95618252030075  C 5.71740657489878 3.21214556390977  5.5137787854251 3.41388639598997  5.25537217813765 3.41388639598997  Z M 2.86698753036437 5.15119607017544  L 2.86698753036437 11.8915562185464  C 2.86698753036437 12.2948808180451  3.18806646153846 12.6205107649123  3.60309221052631 12.6205107649123  L 4.43319656680162 12.6205107649123  L 4.43319656680162 14.6682151137845  C 4.43319656680162 15.1803157172932  4.84039928744939 15.6146518616541  5.37284093927125 15.6146518616541  C 5.88184874493927 15.6146518616541  6.31255578947368 15.1802982656642  6.31255578947368 14.6682151137845  L 6.31255578947368 12.6205107649123  L 7.76911909311741 12.6205107649123  L 7.76911909311741 14.6682151137845  C 7.76911909311741 15.1803157172932  8.1685164048583 15.6146518616541  8.70095805668016 15.6146518616541  C 9.22571763562753 15.6146518616541  9.64076100404858 15.1802982656642  9.64076100404858 14.6682151137845  L 9.64076100404858 12.6205107649123  L 10.4707596437247 12.6205107649123  C 10.8858030121457 12.6205107649123  11.2068819433198 12.2948982696742  11.2068819433198 11.8915562185464  L 11.2068819433198 5.15119607017544  L 2.86698753036437 5.15119607017544  Z M 2.85130623481781 4.56178474987469  L 11.1912358866397 4.56178474987469  C 11.065944097166 3.28980531328321  10.2201936842105 2.22707090927318  8.99855028340081 1.6686013273183  L 9.76608803238866 0.559515396491228  C 9.81649723076923 0.486480328822055  9.80516793522267 0.396482277694235  9.74251323076923 0.365523087719298  C 9.67985852631579 0.32681537443609  9.60946889068826 0.350008589473684  9.55456673684211 0.41206658245614  L 8.74796670445344 1.56010454937343  C 8.20763154655871 1.36618204711779  7.63605713360324 1.24208351278195  7.0173859757085 1.24208351278195  C 6.39871481781377 1.24208351278195  5.81138863157895 1.36618204711779  5.27889412145749 1.56010454937343  L 4.48801062348178 0.412066582456141  C 4.43319656680162 0.350008589473685  4.3627188340081 0.311300876190477  4.30006412955466 0.365523087719298  C 4.23742704453441 0.40431805914787  4.21785185425101 0.486619941854637  4.26873677732794 0.559515396491229  L 5.04392136032389 1.6686013273183  C 3.82236605668016 2.24267266566416  2.96095196761134 3.28196953182957  2.85130623481781 4.56178474987469  Z M 0.423700728744939 6.07412547368421  L 0.423700728744939 9.75079978345865  C 0.423700728744939 10.2704569423559  0.830903449392712 10.704845441604  1.36343319838057 10.704845441604  C 1.87244100404858 10.704845441604  2.303148048583 10.2704569423559  2.303148048583 9.75079978345865  L 2.303148048583 6.07412547368421  C 2.303148048583 5.54677214636591  1.87244100404858 5.12798540350877  1.36343319838057 5.12798540350877  C 0.830903449392712 5.12798540350877  0.423700728744939 5.54677214636591  0.423700728744939 6.07412547368421  Z " fill-rule="nonzero" fill="#69e147" stroke="none" transform="matrix(1 0 0 1 1558 295 )" />
  </g>
</svg>