<?xml version="1.0" encoding="utf-8"?>
<svg version="1.1" xmlns:xlink="http://www.w3.org/1999/xlink" width="304px" height="25px" xmlns="http://www.w3.org/2000/svg">
  <g transform="matrix(1 0 0 1 -946 -98 )">
    <path d="M 947 103  A 4 4 0 0 1 951 99 L 1245 99  A 4 4 0 0 1 1249 103 L 1249 118  A 4 4 0 0 1 1245 122 L 951 122  A 4 4 0 0 1 947 118 L 947 103  Z " fill-rule="nonzero" fill="#f2f2f2" stroke="none" />
    <path d="M 946.5 103  A 4.5 4.5 0 0 1 951 98.5 L 1245 98.5  A 4.5 4.5 0 0 1 1249.5 103 L 1249.5 118  A 4.5 4.5 0 0 1 1245 122.5 L 951 122.5  A 4.5 4.5 0 0 1 946.5 118 L 946.5 103  Z " stroke-width="1" stroke-dasharray="9,4" stroke="#d9001b" fill="none" stroke-dashoffset="0.5" />
  </g>
</svg>