<?xml version="1.0" encoding="utf-8"?>
<svg version="1.1" xmlns:xlink="http://www.w3.org/1999/xlink" width="194px" height="97px" xmlns="http://www.w3.org/2000/svg">
  <g transform="matrix(1 0 0 1 -36 -264 )">
    <path d="M 38 275  A 9 9 0 0 1 47 266 L 219 266  A 9 9 0 0 1 228 275 L 228 350  A 9 9 0 0 1 219 359 L 47 359  A 9 9 0 0 1 38 350 L 38 275  Z " fill-rule="nonzero" fill="#000000" stroke="none" />
    <path d="M 37 275  A 10 10 0 0 1 47 265 L 219 265  A 10 10 0 0 1 229 275 L 229 350  A 10 10 0 0 1 219 360 L 47 360  A 10 10 0 0 1 37 350 L 37 275  Z " stroke-width="2" stroke="#02a7f0" fill="none" stroke-opacity="0.329411764705882" />
  </g>
</svg>