<?xml version="1.0" encoding="utf-8"?>
<svg version="1.1" xmlns:xlink="http://www.w3.org/1999/xlink" width="35px" height="35px" xmlns="http://www.w3.org/2000/svg">
  <g transform="matrix(1 0 0 1 -137 -657 )">
    <path d="M 154.5 658  C 163.74 658  171 665.26  171 674.5  C 171 683.74  163.74 691  154.5 691  C 145.26 691  138 683.74  138 674.5  C 138 665.26  145.26 658  154.5 658  Z " fill-rule="nonzero" fill="#02a7f0" stroke="none" />
    <path d="M 154.5 658  C 163.74 658  171 665.26  171 674.5  C 171 683.74  163.74 691  154.5 691  C 145.26 691  138 683.74  138 674.5  C 138 665.26  145.26 658  154.5 658  Z " stroke-width="2" stroke="#ffffff" fill="none" />
  </g>
</svg>