<?xml version="1.0" encoding="utf-8"?>
<svg version="1.1" xmlns:xlink="http://www.w3.org/1999/xlink" width="21px" height="21px" xmlns="http://www.w3.org/2000/svg">
  <g transform="matrix(1 0 0 1 -204 -91 )">
    <path d="M 214.5 91  C 220.38 91  225 95.62  225 101.5  C 225 107.38  220.38 112  214.5 112  C 208.62 112  204 107.38  204 101.5  C 204 95.62  208.62 91  214.5 91  Z " fill-rule="nonzero" fill="#ffffff" stroke="none" fill-opacity="0.109803921568627" />
    <path d="M 214.5 91.5  C 220.1 91.5  224.5 95.9  224.5 101.5  C 224.5 107.1  220.1 111.5  214.5 111.5  C 208.9 111.5  204.5 107.1  204.5 101.5  C 204.5 95.9  208.9 91.5  214.5 91.5  Z " stroke-width="1" stroke="#81d3f8" fill="none" />
  </g>
</svg>