<?xml version="1.0" encoding="utf-8"?>
<svg version="1.1" xmlns:xlink="http://www.w3.org/1999/xlink" width="194px" height="97px" xmlns="http://www.w3.org/2000/svg">
  <g transform="matrix(1 0 0 1 -1294 0 )">
    <path d="M 1295.5 11  A 9.5 9.5 0 0 1 1305 1.5 L 1477 1.5  A 9.5 9.5 0 0 1 1486.5 11 L 1486.5 86  A 9.5 9.5 0 0 1 1477 95.5 L 1305 95.5  A 9.5 9.5 0 0 1 1295.5 86 L 1295.5 11  Z " fill-rule="nonzero" fill="#ffffff" stroke="none" fill-opacity="0.549019607843137" />
    <path d="M 1295 11  A 10 10 0 0 1 1305 1 L 1477 1  A 10 10 0 0 1 1487 11 L 1487 86  A 10 10 0 0 1 1477 96 L 1305 96  A 10 10 0 0 1 1295 86 L 1295 11  Z " stroke-width="2" stroke="#02a7f0" fill="none" />
  </g>
</svg>