<?xml version="1.0" encoding="utf-8"?>
<svg version="1.1" xmlns:xlink="http://www.w3.org/1999/xlink" width="194px" height="97px" xmlns="http://www.w3.org/2000/svg">
  <g transform="matrix(1 0 0 1 -1294 0 )">
    <path d="M 1296 11  A 9 9 0 0 1 1305 2 L 1477 2  A 9 9 0 0 1 1486 11 L 1486 86  A 9 9 0 0 1 1477 95 L 1305 95  A 9 9 0 0 1 1296 86 L 1296 11  Z " fill-rule="nonzero" fill="#ffffff" stroke="none" fill-opacity="0.768627450980392" />
    <path d="M 1295 11  A 10 10 0 0 1 1305 1 L 1477 1  A 10 10 0 0 1 1487 11 L 1487 86  A 10 10 0 0 1 1477 96 L 1305 96  A 10 10 0 0 1 1295 86 L 1295 11  Z " stroke-width="2" stroke="#02a7f0" fill="none" stroke-opacity="0.329411764705882" />
  </g>
</svg>