<?xml version="1.0" encoding="utf-8"?>
<svg version="1.1" xmlns:xlink="http://www.w3.org/1999/xlink" width="12px" height="12px" xmlns="http://www.w3.org/2000/svg">
  <g transform="matrix(1 0 0 1 -1577 -120 )">
    <path d="M 11.866666675 9.2  C 11.866666675 10.693333325  10.69333335 11.866666675  9.2 11.866666675  L 2.8 11.866666675  C 1.306666675 11.866666675  0.133333325000001 10.69333335  0.133333325000001 9.2  L 0.133333325000001 2.8  C 0.133333325000001 1.306666675  1.30666665 0.133333325  2.8 0.133333325  L 9.2 0.133333325  C 10.693333325 0.133333325  11.866666675 1.30666665  11.866666675 2.8  L 11.866666675 9.2  Z M 9.2 1.2  L 2.8 1.2  C 1.893333325 1.2  1.2 1.893333325  1.2 2.8  L 1.2 9.2  C 1.2 10.106666675  1.893333325 10.8  2.8 10.8  L 9.2 10.8  C 10.106666675 10.8  10.8 10.106666675  10.8 9.2  L 10.8 2.8  C 10.8 1.893333325  10.106666675 1.2  9.2 1.2  Z " fill-rule="nonzero" fill="#81d3f8" stroke="none" transform="matrix(1 0 0 1 1577 120 )" />
  </g>
</svg>