<?xml version="1.0" encoding="utf-8"?>
<svg version="1.1" xmlns:xlink="http://www.w3.org/1999/xlink" width="191px" height="191px" xmlns="http://www.w3.org/2000/svg">
  <g transform="matrix(1 0 0 1 -257 -17 )">
    <path d="M 352.5 20  C 404.3 20  445 60.7  445 112.5  C 445 164.3  404.3 205  352.5 205  C 300.7 205  260 164.3  260 112.5  C 260 60.7  300.7 20  352.5 20  Z " fill-rule="nonzero" fill="#9ac6fb" stroke="none" />
    <path d="M 352.5 19  C 404.86 19  446 60.14  446 112.5  C 446 164.86  404.86 206  352.5 206  C 300.14 206  259 164.86  259 112.5  C 259 60.14  300.14 19  352.5 19  Z " stroke-width="4" stroke="#ffffff" fill="none" />
  </g>
</svg>