<?xml version="1.0" encoding="utf-8"?>
<svg version="1.1" xmlns:xlink="http://www.w3.org/1999/xlink" width="16px" height="17px" xmlns="http://www.w3.org/2000/svg">
  <g transform="matrix(1 0 0 1 -338 -767 )">
    <path d="M 15.7713815789474 13.5918739667182  C 15.7671016947925 15.3399689507053  14.4330891458929 16.7552036706212  12.7878186727714 16.7570929276316  L 3.20894325657895 16.7570929276316  C 1.56369508382297 16.7551967620753  0.230403047458507 15.3385739734381  0.228618421052632 13.5904977898849  L 0.228618421052632 3.41019030651367  C 0.230046144035656 1.66184541068482  1.56344252720088 0.244803899461993  3.20894325657895 0.242907072368421  L 9.67214226472862 0.242907072368421  C 9.98512852616169 0.258544453384931  10.2313218176043 0.532714142391528  10.2313218176043 0.865629499987922  C 10.2313218176043 1.19854485758432  9.98512852616169 1.47271454659091  9.67214226472862 1.48835192760742  L 3.20894325657895 1.48835192760742  C 2.20970518632504 1.48948965723771  1.39992977318193 2.34987603370227  1.39885896882401 3.41156648334704  L 1.39885896882401 13.5918739667182  C 1.39992976490287 14.6535644225972  2.20970518046643 15.5139508087752  3.20894325657895 15.5150885384216  L 12.7897615181661 15.5150885384216  C 13.7887466736264 15.5135717422586  14.5981281066707 14.653296169227  14.5991981857813 13.5918739667182  L 14.5991981857813 7.43965165519788  C 14.6139157208556 7.10710375242524  14.8719577810971 6.84552338026749  15.1852898823643 6.84552338026749  C 15.4986219836315 6.84552338026749  15.756664043873 7.10710375242524  15.7713815789474 7.43965165519788  L 15.7713815789474 13.5918739667182  Z M 15.1587376594655 3.62143425660311  L 7.48967928132401 11.8021490746541  L 4.08451890946546 7.31579526128341  C 4.01120899790595 7.20907957289355  3.97170387544119 7.08037686305807  3.97170387544119 6.94825809943664  C 3.97170387544119 6.60395797854571  4.23439601204849 6.32484758340045  4.55844318465172 6.32484758340045  C 4.72605440110593 6.32484758340045  4.88566378102891 6.40101054759041  4.99700863987664 6.53412378682514  L 7.58164061999178 9.93948653903834  L 14.3291426759128 2.74343005260742  C 14.4389413870495 2.62585622487078  14.5883769054632 2.55972666906241  14.7442643264187 2.55972666906241  C 15.0672384951391 2.55972666906241  15.3290607902345 2.83791285760122  15.3290607902345 3.18107291186668  C 15.3304125810804 3.34671411936444  15.2689926104776 3.505270464759  15.1587376594655 3.62143425660311  Z " fill-rule="nonzero" fill="#ffffff" stroke="none" transform="matrix(1 0 0 1 338 767 )" />
  </g>
</svg>