<?xml version="1.0" encoding="utf-8"?>
<svg version="1.1" xmlns:xlink="http://www.w3.org/1999/xlink" width="18px" height="18px" xmlns="http://www.w3.org/2000/svg">
  <g transform="matrix(1 0 0 1 -60 -7 )">
    <path d="M 69 8  C 73.48 8  77 11.52  77 16  C 77 20.48  73.48 24  69 24  C 64.52 24  61 20.48  61 16  C 61 11.52  64.52 8  69 8  Z " fill-rule="nonzero" fill="#02a7f0" stroke="none" />
    <path d="M 69 8  C 73.48 8  77 11.52  77 16  C 77 20.48  73.48 24  69 24  C 64.52 24  61 20.48  61 16  C 61 11.52  64.52 8  69 8  Z " stroke-width="2" stroke="#ffffff" fill="none" />
  </g>
</svg>