<?xml version="1.0" encoding="utf-8"?>
<svg version="1.1" xmlns:xlink="http://www.w3.org/1999/xlink" width="18px" height="18px" xmlns="http://www.w3.org/2000/svg">
  <g transform="matrix(1 0 0 1 -60 -7 )">
    <path d="M 69 7  C 74.04 7  78 10.96  78 16  C 78 21.04  74.04 25  69 25  C 63.96 25  60 21.04  60 16  C 60 10.96  63.96 7  69 7  Z " fill-rule="nonzero" fill="#ffffff" stroke="none" fill-opacity="0.109803921568627" />
    <path d="M 69 7.5  C 73.76 7.5  77.5 11.24  77.5 16  C 77.5 20.76  73.76 24.5  69 24.5  C 64.24 24.5  60.5 20.76  60.5 16  C 60.5 11.24  64.24 7.5  69 7.5  Z " stroke-width="1" stroke="#ffffff" fill="none" />
  </g>
</svg>