<?xml version="1.0" encoding="utf-8"?>
<svg version="1.1" xmlns:xlink="http://www.w3.org/1999/xlink" width="96px" height="27px" viewBox="988 26  96 27" xmlns="http://www.w3.org/2000/svg">
  <path d="M 989 31  A 4 4 0 0 1 993 27 L 1079 27  A 4 4 0 0 1 1083 31 L 1083 48  A 4 4 0 0 1 1079 52 L 993 52  A 4 4 0 0 1 989 48 L 989 31  Z " fill-rule="nonzero" fill="#81d3f8" stroke="none" fill-opacity="0.109803921568627" />
  <path d="M 988.5 31  A 4.5 4.5 0 0 1 993 26.5 L 1079 26.5  A 4.5 4.5 0 0 1 1083.5 31 L 1083.5 48  A 4.5 4.5 0 0 1 1079 52.5 L 993 52.5  A 4.5 4.5 0 0 1 988.5 48 L 988.5 31  Z " stroke-width="1" stroke="#aaaaaa" fill="none" stroke-opacity="0.329411764705882" />
</svg>