<?xml version="1.0" encoding="utf-8"?>
<svg version="1.1" xmlns:xlink="http://www.w3.org/1999/xlink" width="19px" height="21px" xmlns="http://www.w3.org/2000/svg">
  <g transform="matrix(1 0 0 1 -1495 -17 )">
    <path d="M 2 16  L 14.2955 16  C 14.2907083408203 16.25  14.2916666591797 2.83429165917969  14.2916666591797 2.83429165917969  L 12.375 2.83333334082031  L 12.375 1.875  L 14.292625 1.875  C 14.821625 1.875  15.25 2.30145834082031  15 2.83429165917969  L 15 16.2490416591797  C 15.2505323819695 16.777195048906  14.8236494338591 17.2062209904006  14.2955 17  L 1.8295 17  C 1.30241665917969 17.2083333408203  0.875 16.781875  1 16.2490416591797  L 1 2.83429165917969  C 0.875 2.30433334082031  1.30529165917969 1.875  1.832375 1.875  L 3.75 1.875  L 3.75 2.83333334082031  L 2 2.83333334082031  L 2 16  Z M 17.1666666591797 5.7088125  L 17.1019791591797 5.70833334082031  L 16.2083333408203 5.70833334082031  L 16.2083333408203 4.75  L 17.1666666591797 4.75  C 17.6961458183594 4.75  18.125 5.17645834082031  18 5.70929165917969  L 18 19.1240416591797  C 18.1255323819695 19.652195048906  17.6986494338591 20.0812209904006  17.1705 20  L 4.7045 20  C 4.70417653916607 20.0833336699942  4.70385307818491 20.0833338345811  4.70352961718348 20.0833338345811  C 4.17690310049019 20.0833338345811  3.74998795800379 19.6564186920948  3.74998795800379 19.1297921754015  C 3.74998795800379 19.1281947760361  3.7499919720152 19.1265973791923  3.75 19.125  L 3.75 18.1666666591797  L 4.70833334082031 18.1666666591797  L 4.70833334082031 19  L 17.1666666591797 19  L 17.1671458408203 13.9936041591797  C 17.1661875 10.20675  17.1666666816406 5.7088125  17.1666666591797 5.7088125  Z M 4.70833334082031 7.625  L 4.70833334082031 6.66666665917969  L 11.4166666591797 6.66666665917969  L 11.4166666591797 7.625  L 4.70833334082031 7.625  Z M 4.70833334082031 10.5  L 4.70833334082031 9.54166665917969  L 9.5 9.54166665917969  L 9.5 10.5  L 4.70833334082031 10.5  Z M 4.70833334082031 2.83429165917969  L 4.70833334082031 1.87404165917969  C 4.70833334082031 1.34504165917969  5.13814584082031 0.916666659179687  5.66954165917969 0.916666659179687  L 10.4554583408203 0.916666659179687  C 10.986375 0.916666659179687  11.4166666591797 1.34695834082031  11.4166666591797 1.87404165917969  L 11.4166666591797 2.83429165917969  C 11.4158752424793 3.36326846671069  10.9868326318403 3.79166965512396  10.4578552322795 3.79166965512396  C 10.4570562675235 3.79166965512396  10.4562573030799 3.79166865647509  10.4554583408203 3.79166665917969  L 5.66954165917969 3.79166665917969  C 5.13995698411932 3.79219755164373  4.70991865837481 3.36387422750483  4.70833334082031 2.83429165917969  Z M 5.66954165917969 1.875  L 5.66666665917969 2.83429165917969  L 10.4554583408203 2.83333334082031  L 10.4583333408203 1.87404165917969  L 5.66954165917969 1.875  Z " fill-rule="nonzero" fill="#02a7f0" stroke="none" transform="matrix(1 0 0 1 1495 17 )" />
  </g>
</svg>