<?xml version="1.0" encoding="utf-8"?>
<svg version="1.1" xmlns:xlink="http://www.w3.org/1999/xlink" width="25px" height="25px" xmlns="http://www.w3.org/2000/svg">
  <g transform="matrix(1 0 0 1 -104 -131 )">
    <path d="M 116.5 131  C 123.5 131  129 136.5  129 143.5  C 129 150.5  123.5 156  116.5 156  C 109.5 156  104 150.5  104 143.5  C 104 136.5  109.5 131  116.5 131  Z " fill-rule="nonzero" fill="#ffffff" stroke="none" />
    <path d="M 116.5 131.5  C 123.22 131.5  128.5 136.78  128.5 143.5  C 128.5 150.22  123.22 155.5  116.5 155.5  C 109.78 155.5  104.5 150.22  104.5 143.5  C 104.5 136.78  109.78 131.5  116.5 131.5  Z " stroke-width="1" stroke="#aaaaaa" fill="none" />
  </g>
</svg>