<?xml version="1.0" encoding="utf-8"?>
<svg version="1.1" xmlns:xlink="http://www.w3.org/1999/xlink" width="170px" height="170px" xmlns="http://www.w3.org/2000/svg">
  <g transform="matrix(1 0 0 1 -100 -996 )">
    <path d="M 185 1000  C 230.36 1000  266 1035.64  266 1081  C 266 1126.36  230.36 1162  185 1162  C 139.64 1162  104 1126.36  104 1081  C 104 1035.64  139.64 1000  185 1000  Z " fill-rule="nonzero" fill="#02a7f0" stroke="none" />
    <path d="M 185 998.5  C 231.2 998.5  267.5 1034.8  267.5 1081  C 267.5 1127.2  231.2 1163.5  185 1163.5  C 138.8 1163.5  102.5 1127.2  102.5 1081  C 102.5 1034.8  138.8 998.5  185 998.5  Z " stroke-width="5" stroke="#ffffff" fill="none" />
  </g>
</svg>