<?xml version="1.0" encoding="utf-8"?>
<svg version="1.1" xmlns:xlink="http://www.w3.org/1999/xlink" width="170px" height="170px" xmlns="http://www.w3.org/2000/svg">
  <g transform="matrix(1 0 0 1 -100 -131 )">
    <path d="M 185 135  C 230.36 135  266 170.64  266 216  C 266 261.36  230.36 297  185 297  C 139.64 297  104 261.36  104 216  C 104 170.64  139.64 135  185 135  Z " fill-rule="nonzero" fill="#02a7f0" stroke="none" />
    <path d="M 185 133.5  C 231.2 133.5  267.5 169.8  267.5 216  C 267.5 262.2  231.2 298.5  185 298.5  C 138.8 298.5  102.5 262.2  102.5 216  C 102.5 169.8  138.8 133.5  185 133.5  Z " stroke-width="5" stroke="#000000" fill="none" />
  </g>
</svg>