<?xml version="1.0" encoding="utf-8"?>
<svg version="1.1" xmlns:xlink="http://www.w3.org/1999/xlink" width="170px" height="170px" xmlns="http://www.w3.org/2000/svg">
  <g transform="matrix(1 0 0 1 -629 -131 )">
    <path d="M 714 135  C 759.36 135  795 170.64  795 216  C 795 261.36  759.36 297  714 297  C 668.64 297  633 261.36  633 216  C 633 170.64  668.64 135  714 135  Z " fill-rule="nonzero" fill="#04f21c" stroke="none" />
    <path d="M 714 133.5  C 760.2 133.5  796.5 169.8  796.5 216  C 796.5 262.2  760.2 298.5  714 298.5  C 667.8 298.5  631.5 262.2  631.5 216  C 631.5 169.8  667.8 133.5  714 133.5  Z " stroke-width="5" stroke="#000000" fill="none" />
  </g>
</svg>