<?xml version="1.0" encoding="utf-8"?>
<svg version="1.1" xmlns:xlink="http://www.w3.org/1999/xlink" width="170px" height="170px" xmlns="http://www.w3.org/2000/svg">
  <g transform="matrix(1 0 0 1 -893 -131 )">
    <path d="M 978 135  C 1023.36 135  1059 170.64  1059 216  C 1059 261.36  1023.36 297  978 297  C 932.64 297  897 261.36  897 216  C 897 170.64  932.64 135  978 135  Z " fill-rule="nonzero" fill="#8400ff" stroke="none" />
    <path d="M 978 133.5  C 1024.2 133.5  1060.5 169.8  1060.5 216  C 1060.5 262.2  1024.2 298.5  978 298.5  C 931.8 298.5  895.5 262.2  895.5 216  C 895.5 169.8  931.8 133.5  978 133.5  Z " stroke-width="5" stroke="#000000" fill="none" />
  </g>
</svg>