<?xml version="1.0" encoding="utf-8"?>
<svg version="1.1" xmlns:xlink="http://www.w3.org/1999/xlink" width="170px" height="170px" xmlns="http://www.w3.org/2000/svg">
  <g transform="matrix(1 0 0 1 -364 -998 )">
    <path d="M 449 1002  C 494.36 1002  530 1037.64  530 1083  C 530 1128.36  494.36 1164  449 1164  C 403.64 1164  368 1128.36  368 1083  C 368 1037.64  403.64 1002  449 1002  Z " fill-rule="nonzero" fill="#f59a23" stroke="none" />
    <path d="M 449 1000.5  C 495.2 1000.5  531.5 1036.8  531.5 1083  C 531.5 1129.2  495.2 1165.5  449 1165.5  C 402.8 1165.5  366.5 1129.2  366.5 1083  C 366.5 1036.8  402.8 1000.5  449 1000.5  Z " stroke-width="5" stroke="#ffffff" fill="none" />
  </g>
</svg>