<?xml version="1.0" encoding="utf-8"?>
<svg version="1.1" xmlns:xlink="http://www.w3.org/1999/xlink" width="170px" height="170px" xmlns="http://www.w3.org/2000/svg">
  <g transform="matrix(1 0 0 1 -910 -401 )">
    <path d="M 995 405  C 1040.36 405  1076 440.64  1076 486  C 1076 531.36  1040.36 567  995 567  C 949.64 567  914 531.36  914 486  C 914 440.64  949.64 405  995 405  Z " fill-rule="nonzero" fill="#d9001b" stroke="none" fill-opacity="0" />
    <path d="M 995 403.5  C 1041.2 403.5  1077.5 439.8  1077.5 486  C 1077.5 532.2  1041.2 568.5  995 568.5  C 948.8 568.5  912.5 532.2  912.5 486  C 912.5 439.8  948.8 403.5  995 403.5  Z " stroke-width="5" stroke="#000000" fill="none" />
  </g>
</svg>