<?xml version="1.0" encoding="utf-8"?>
<svg version="1.1" xmlns:xlink="http://www.w3.org/1999/xlink" width="67px" height="22px" xmlns="http://www.w3.org/2000/svg">
  <g transform="matrix(1 0 0 1 -115 -1022 )">
    <path d="M 10.5 20.5  C 4.89999999999998 20.5  0.5 16.1  0.5 10.5  C 0.5 4.90000000000001  4.89999999999998 0.5  10.5 0.5  L 44.5140186915887 0.5  L 66 0.5  L 66 20.5  L 10.5 20.5  Z " fill-rule="nonzero" fill="#81d3f8" stroke="none" transform="matrix(1 0 0 1 115 1022 )" />
    <path d="M 66 20.5  L 10.5 20.5  C 4.89999999999998 20.5  0.5 16.1  0.5 10.5  C 0.5 4.90000000000001  4.89999999999998 0.5  10.5 0.5  L 44.5140186915887 0.5  L 66 0.5  " stroke-width="1" stroke="#81d3f8" fill="none" transform="matrix(1 0 0 1 115 1022 )" />
  </g>
</svg>