<?xml version="1.0" encoding="utf-8"?>
<svg version="1.1" xmlns:xlink="http://www.w3.org/1999/xlink" width="12px" height="12px" viewBox="635 440  12 12" xmlns="http://www.w3.org/2000/svg">
  <path d="M 641 440  C 644.36 440  647 442.64  647 446  C 647 449.36  644.36 452  641 452  C 637.64 452  635 449.36  635 446  C 635 442.64  637.64 440  641 440  Z " fill-rule="nonzero" fill="#f0f0f0" stroke="none" />
  <path d="M 641 440.5  C 644.08 440.5  646.5 442.92  646.5 446  C 646.5 449.08  644.08 451.5  641 451.5  C 637.92 451.5  635.5 449.08  635.5 446  C 635.5 442.92  637.92 440.5  641 440.5  Z " stroke-width="1" stroke="#797979" fill="none" />
  <path d="M 641 449  C 639.32 449  638 447.68  638 446  C 638 444.32  639.32 443  641 443  C 642.68 443  644 444.32  644 446  C 644 447.68  642.68 449  641 449  " fill-rule="nonzero" fill="#797979" stroke="none" />
</svg>