<?xml version="1.0" encoding="utf-8"?>
<svg version="1.1" xmlns:xlink="http://www.w3.org/1999/xlink" width="12px" height="12px" viewBox="548 440  12 12" xmlns="http://www.w3.org/2000/svg">
  <path d="M 554 440  C 557.36 440  560 442.64  560 446  C 560 449.36  557.36 452  554 452  C 550.64 452  548 449.36  548 446  C 548 442.64  550.64 440  554 440  Z " fill-rule="nonzero" fill="#ffffff" stroke="none" />
  <path d="M 554 440.5  C 557.08 440.5  559.5 442.92  559.5 446  C 559.5 449.08  557.08 451.5  554 451.5  C 550.92 451.5  548.5 449.08  548.5 446  C 548.5 442.92  550.92 440.5  554 440.5  Z " stroke-width="1" stroke="#797979" fill="none" />
  <path d="M 554 449  C 552.32 449  551 447.68  551 446  C 551 444.32  552.32 443  554 443  C 555.68 443  557 444.32  557 446  C 557 447.68  555.68 449  554 449  " fill-rule="nonzero" fill="#797979" stroke="none" />
</svg>