<?xml version="1.0" encoding="utf-8"?>
<svg version="1.1" xmlns:xlink="http://www.w3.org/1999/xlink" width="12px" height="12px" viewBox="461 440  12 12" xmlns="http://www.w3.org/2000/svg">
  <path d="M 467 440  C 470.36 440  473 442.64  473 446  C 473 449.36  470.36 452  467 452  C 463.64 452  461 449.36  461 446  C 461 442.64  463.64 440  467 440  Z " fill-rule="nonzero" fill="#ffffff" stroke="none" />
  <path d="M 467 440.5  C 470.08 440.5  472.5 442.92  472.5 446  C 472.5 449.08  470.08 451.5  467 451.5  C 463.92 451.5  461.5 449.08  461.5 446  C 461.5 442.92  463.92 440.5  467 440.5  Z " stroke-width="1" stroke="#797979" fill="none" />
  <path d="M 467 449  C 465.32 449  464 447.68  464 446  C 464 444.32  465.32 443  467 443  C 468.68 443  470 444.32  470 446  C 470 447.68  468.68 449  467 449  " fill-rule="nonzero" fill="#797979" stroke="none" />
</svg>