<?xml version="1.0" encoding="utf-8"?>
<svg version="1.1" xmlns:xlink="http://www.w3.org/1999/xlink" width="50px" height="50px" xmlns="http://www.w3.org/2000/svg">
  <g transform="matrix(1 0 0 1 -21 -20 )">
    <path d="M 46 20  C 60 20  71 31  71 45  C 71 59  60 70  46 70  C 32 70  21 59  21 45  C 21 31  32 20  46 20  Z " fill-rule="nonzero" fill="#ffffff" stroke="none" />
    <path d="M 46 20.5  C 59.72 20.5  70.5 31.28  70.5 45  C 70.5 58.72  59.72 69.5  46 69.5  C 32.28 69.5  21.5 58.72  21.5 45  C 21.5 31.28  32.28 20.5  46 20.5  Z " stroke-width="1" stroke="#797979" fill="none" />
  </g>
</svg>