<?xml version="1.0" encoding="utf-8"?>
<svg version="1.1" xmlns:xlink="http://www.w3.org/1999/xlink" width="21px" height="21px" xmlns="http://www.w3.org/2000/svg">
  <g transform="matrix(1 0 0 1 -26 -356 )">
    <path d="M 36.5 356.5  C 42.1 356.5  46.5 360.9  46.5 366.5  C 46.5 372.1  42.1 376.5  36.5 376.5  C 30.9 376.5  26.5 372.1  26.5 366.5  C 26.5 360.9  30.9 356.5  36.5 356.5  Z " fill-rule="nonzero" fill="#ffffff" stroke="none" />
    <path d="M 36.5 356.5  C 42.1 356.5  46.5 360.9  46.5 366.5  C 46.5 372.1  42.1 376.5  36.5 376.5  C 30.9 376.5  26.5 372.1  26.5 366.5  C 26.5 360.9  30.9 356.5  36.5 356.5  Z " stroke-width="1" stroke="#02a7f0" fill="none" stroke-opacity="0.498039215686275" />
  </g>
</svg>