<?xml version="1.0" encoding="utf-8"?>
<svg version="1.1" xmlns:xlink="http://www.w3.org/1999/xlink" width="17px" height="17px" xmlns="http://www.w3.org/2000/svg">
  <g transform="matrix(1 0 0 1 -28 -358 )">
    <path d="M 36.5 358.5  C 40.98 358.5  44.5 362.02  44.5 366.5  C 44.5 370.98  40.98 374.5  36.5 374.5  C 32.02 374.5  28.5 370.98  28.5 366.5  C 28.5 362.02  32.02 358.5  36.5 358.5  Z " fill-rule="nonzero" fill="#ffffff" stroke="none" />
    <path d="M 36.5 358.5  C 40.98 358.5  44.5 362.02  44.5 366.5  C 44.5 370.98  40.98 374.5  36.5 374.5  C 32.02 374.5  28.5 370.98  28.5 366.5  C 28.5 362.02  32.02 358.5  36.5 358.5  Z " stroke-width="1" stroke="#02a7f0" fill="none" stroke-opacity="0.749019607843137" />
  </g>
</svg>