<?xml version="1.0" encoding="utf-8"?>
<svg version="1.1" xmlns:xlink="http://www.w3.org/1999/xlink" width="11px" height="11px" xmlns="http://www.w3.org/2000/svg">
  <g transform="matrix(1 0 0 1 -31 -361 )">
    <path d="M 36.5 361.5  C 39.3 361.5  41.5 363.7  41.5 366.5  C 41.5 369.3  39.3 371.5  36.5 371.5  C 33.7 371.5  31.5 369.3  31.5 366.5  C 31.5 363.7  33.7 361.5  36.5 361.5  Z " fill-rule="nonzero" fill="#ffffff" stroke="none" />
    <path d="M 36.5 361.5  C 39.3 361.5  41.5 363.7  41.5 366.5  C 41.5 369.3  39.3 371.5  36.5 371.5  C 33.7 371.5  31.5 369.3  31.5 366.5  C 31.5 363.7  33.7 361.5  36.5 361.5  Z " stroke-width="1" stroke="#02a7f0" fill="none" stroke-opacity="0.949019607843137" />
  </g>
</svg>