<?xml version="1.0" encoding="utf-8"?>
<svg version="1.1" xmlns:xlink="http://www.w3.org/1999/xlink" width="10px" height="16px" xmlns="http://www.w3.org/2000/svg">
  <g transform="matrix(1 0 0 1 -833 -19 )">
    <path d="M 9.81203007142857 15.6086687254902  C 10.0045112678571 15.2388028823529  9.95639098214286 14.7632610980392  9.619548875 14.4990712156863  L 1.96842105357143 8  L 9.619548875 1.50092878431373  C 9.95639098214286 1.23673890196078  10.0045112857143 0.761197098039216  9.76390976785714 0.391331274509804  C 9.52330826785714 0.0214654313725492  9.09022555357143 -0.0313725490196077  8.75338346428572 0.232817333333334  L 0.332330821428571 7.3659442745098  C 0.187969910714285 7.52445821568627  0.0917293214285715 7.73581011764706  0.0917293214285715 8  C 0.0917293214285715 8.26418988235294  0.187969928571429 8.47554180392157  0.380451125 8.6340557254902  L 8.80150376785714 15.7671826666667  C 9.138345875 16.0313725490196  9.57142857142857 15.9785345686275  9.81203007142857 15.6086687254902  Z " fill-rule="nonzero" fill="#999999" stroke="none" transform="matrix(1 0 0 1 833 19 )" />
  </g>
</svg>