<?xml version="1.0" encoding="utf-8"?>
<svg version="1.1" xmlns:xlink="http://www.w3.org/1999/xlink" width="55px" height="64px" xmlns="http://www.w3.org/2000/svg">
  <g transform="matrix(1 0 0 1 -870 -110 )">
    <path d="M 34.816359483945 55.9876749375  C 34.816359483945 54.331461125  35.8570477866973 52.83774375  37.4212338474771 52.2502565625  C 47.6956654587156 48.3815910625  54.9994050286697 38.538056  54.9994050286697 27.0008079375  C 54.9994050286697 12.1823815  42.9526497591743 0.1513941875  28.0361176720183 0.0013975  C 12.9366767144495 -0.14859925  0.64394056766055 11.7948899375  0.505182127293578 26.750813375  C 0.397959690366973 38.400559  7.74584969036697 48.3690913125  18.1022749483945 52.2565064375  C 19.6664609461009 52.843993625  20.6882276720183 54.337711  20.6882276720183 55.9876749375  L 20.6882276720183 59.50009825  C 20.6882276720183 59.77509225  20.461168434633 60.0000873125  20.1836514908257 60.0000873125  L 15.6424662385321 60.0000873125  C 13.4160240424312 60.0000873125  11.6058571043578 61.7875483125  11.6058571674312 64  L 43.8987299885321 64  C 43.8987299885321 62.893774125  43.4446114506881 61.893796  42.7192832454128 61.1688118125  C 41.9939550401376 60.443827625  40.9784955905963 60.0000873125  39.8621209174312 60.0000873125  L 35.3209356651376 60.0000873125  C 35.0434187844037 60.0000873125  34.8163595470184 59.77509225  34.816359483945 59.50009825  L 34.816359483945 55.9876749375  Z M 23.7156844438073 10.001179125  C 23.7156843807339 8.9012031875  24.6239215194954 8.0012228125  25.7339890424312 8.0012228125  L 29.7705981135321 8.0012228125  C 30.8806656364679 8.0012228125  31.7889026490826 8.9012031875  31.788902712156 10.001179125  C 31.7889027752294 11.1011550625  30.8806656364679 12.0011354375  29.7705981135321 12.0011354375  L 25.7339890424312 12.0011354375  C 24.6239215194954 12.0011354375  23.7156845068807 11.1011550625  23.7156844438073 10.001179125  Z M 30.779750412844 53.8314720625  L 30.779750412844 59.50009825  C 30.779750412844 59.77509225  30.5526911754587 60.0000873125  30.2751742947248 60.0000873125  L 25.2294128612385 60.0000873125  C 24.9518959805046 60.0000873125  24.7248367431193 59.77509225  24.7248367431193 59.50009825  L 24.7248367431193 53.8314720625  C 25.7213746158257 53.943969625  26.7305269151376 54.000218375  27.7522935779817 54.000218375  C 28.7740602408257 54.000218375  29.7832125401376 53.943969625  30.779750412844 53.8314720625  Z M 40.8712731536697 31.0007205625  C 40.8712731536697 38.18181375  34.9992683543578 44.0004366875  27.7522935779817 44.0004366875  C 20.5053188016055 44.0004366875  14.6333140022936 38.18181375  14.6333140022936 31.0007205625  C 14.6333140022936 23.819627375  20.5053188016055 18.0010044375  27.7522935779817 18.0010044375  C 34.9992683543578 18.0010044375  40.8712731536697 23.819627375  40.8712731536697 31.0007205625  Z " fill-rule="nonzero" fill="#f59a23" stroke="none" transform="matrix(1 0 0 1 870 110 )" />
  </g>
</svg>