<?xml version="1.0" encoding="utf-8"?>
<svg version="1.1" xmlns:xlink="http://www.w3.org/1999/xlink" width="12px" height="12px" xmlns="http://www.w3.org/2000/svg">
  <g transform="matrix(1 0 0 1 -1743 -179 )">
    <path d="M 0.0740740694444444 6  C 0.0740740694444444 2.72725926388889  2.72725926388889 0.0740740694444444  6 0.0740740694444444  C 9.27274073611111 0.0740740694444444  11.9259259305556 2.72725925  11.9259259305556 6  C 11.9259259305556 9.27274075  9.27274073611111 11.9259259305556  6 11.9259259305556  C 2.72725926388889 11.9259259305556  0.0740740694444444 9.27274073611111  0.0740740694444444 6  Z M 6 7.629629625  C 5.67272014569155 7.629629625  5.40740740277778 7.89494236791377  5.40740740277778 8.22222222222223  C 5.40740740277778 8.54950207653068  5.67272014569154 8.81481481944444  6 8.81481481944444  C 6.32727985430846 8.81481481944444  6.59259259722222 8.54950207653068  6.59259259722222 8.22222222222223  C 6.59259259722222 7.89494236791377  6.32727985430846 7.629629625  6 7.629629625  Z M 6.59259259722222 3.18518518055556  C 6.5925925895516 2.85790533167105  6.32727984888451 2.59259259722222  6 2.59259259722222  C 5.67272015111549 2.59259259722222  5.4074074104484 2.85790533167105  5.40740740277778 3.18518518055556  L 5.40740740277778 6.44444444444444  C 5.40740740277778 6.7717242987529  5.67272014569155 7.03703704166667  6 7.03703704166667  C 6.32727985430846 7.03703704166667  6.59259259722222 6.7717242987529  6.59259259722222 6.44444444444444  L 6.59259259722222 3.18518518055556  Z " fill-rule="nonzero" fill="#0060f1" stroke="none" transform="matrix(1 0 0 1 1743 179 )" />
  </g>
</svg>