<?xml version="1.0" encoding="utf-8"?>
<svg version="1.1" xmlns:xlink="http://www.w3.org/1999/xlink" width="214px" height="214px" xmlns="http://www.w3.org/2000/svg">
  <defs>
    <filter x="2546px" y="210px" width="214px" height="214px" filterUnits="userSpaceOnUse" id="filter40">
      <feOffset dx="0" dy="0" in="SourceAlpha" result="shadowOffsetInner" />
      <feGaussianBlur stdDeviation="11" in="shadowOffsetInner" result="shadowGaussian" />
      <feComposite in2="shadowGaussian" operator="atop" in="SourceAlpha" result="shadowComposite" />
      <feColorMatrix type="matrix" values="0 0 0 0 0.666666666666667  0 0 0 0 0.666666666666667  0 0 0 0 0.666666666666667  0 0 0 0.349019607843137 0  " in="shadowComposite" />
    </filter>
    <g id="widget41">
      <path d="M 2653 232  C 2700.6 232  2738 269.4  2738 317  C 2738 364.6  2700.6 402  2653 402  C 2605.4 402  2568 364.6  2568 317  C 2568 269.4  2605.4 232  2653 232  Z " fill-rule="nonzero" fill="#ffffff" stroke="none" />
      <path d="M 2653 232.5  C 2700.32 232.5  2737.5 269.68  2737.5 317  C 2737.5 364.32  2700.32 401.5  2653 401.5  C 2605.68 401.5  2568.5 364.32  2568.5 317  C 2568.5 269.68  2605.68 232.5  2653 232.5  Z " stroke-width="1" stroke="#f2f2f2" fill="none" />
    </g>
  </defs>
  <g transform="matrix(1 0 0 1 -2546 -210 )">
    <use xlink:href="#widget41" filter="url(#filter40)" />
    <use xlink:href="#widget41" />
  </g>
</svg>