<?xml version="1.0" encoding="utf-8"?>
<svg version="1.1" xmlns:xlink="http://www.w3.org/1999/xlink" width="23px" height="14px" xmlns="http://www.w3.org/2000/svg">
  <g transform="matrix(1 0 0 1 -510 -442 )">
    <path d="M 20.9471863829787 13.58576  C 14.2987574468085 13.57168  7.64907574468085 13.57936  0.107424680851065 13.57936  C 2.12563063829788 11.34448  3.58134468085107 9.68688  5.08716936170213 8.0792  C 6.3549685106383 6.72624  7.42357787234043 7.73744  8.49845106382979 8.47088  C 11.7481259574468 10.68912  11.7606536170213 10.69936  14.1960306382979 7.74512  C 15.9812221276596 5.57936  17.7175557446809 3.37264  19.5027472340426 1.20816  C 19.7833668085106 0.868959999999998  20.2143182978723 0.422239999999999  20.5650927659574 0.4312  C 21.2428391489362 0.449120000000001  21.2766638297872 1.19792  21.3530825531915 1.71376  C 21.836650212766 4.9752  22.2500629787234 8.24688  22.7486638297872 11.50576  C 22.9804255319149 13.02128  22.3615591489362 13.58832  20.9471863829787 13.58576  Z " fill-rule="nonzero" fill="#fdfefe" stroke="none" transform="matrix(1 0 0 1 510 442 )" />
  </g>
</svg>