<?xml version="1.0" encoding="utf-8"?>
<svg version="1.1" xmlns:xlink="http://www.w3.org/1999/xlink" width="15px" height="16px" xmlns="http://www.w3.org/2000/svg">
  <g transform="matrix(1 0 0 1 -613 -444 )">
    <path d="M 0.646562499999999 10.9654871794872  C 0.336614583333332 11.344  0.194531250000001 11.8189230769231  0.246875000000001 12.302358974359  C 0.29921875 12.7859487179487  0.539895833333333 13.2201538461538  0.923906250000002 13.5256923076923  L 3.18802083333334 15.3251282051282  C 3.57244791666667 15.6306666666667  4.05447916666667 15.77  4.545625 15.7184102564103  C 5.03661458333333 15.6667692307692  5.47817708333334 15.430358974359  5.78791666666667 15.052  L 7.01223958333333 13.5586153846154  L 1.87114583333333 9.47210256410256  L 0.646562499999999 10.9654871794872  Z M 9.5565625 0.0972307692307729  L 2.25817708333333 9.00041025641026  L 7.39942708333333 13.0861025641026  L 14.6983854166667 4.18369230769231  L 9.5565625 0.0972307692307729  Z M 8.22130208333333 3.28810256410257  L 10.01671875 4.71523076923077  L 9.4978125 5.34769230769231  L 8.99026041666667 4.944  C 8.53895833333333 4.58548717948718  7.87744791666667 4.65497435897436  7.51333333333333 5.0991282051282  C 7.14901041666666 5.54379487179487  7.21953125 6.19435897435897  7.67088541666666 6.55297435897436  L 8.17875 6.95661538461538  L 7.75463541666666 7.474  L 5.95885416666666 6.0474358974359  L 8.22130208333333 3.28810256410257  Z " fill-rule="nonzero" fill="#ffffff" stroke="none" transform="matrix(1 0 0 1 613 444 )" />
  </g>
</svg>