<?xml version="1.0" encoding="utf-8"?>
<svg version="1.1" xmlns:xlink="http://www.w3.org/1999/xlink" width="12px" height="11px" xmlns="http://www.w3.org/2000/svg">
  <g transform="matrix(1 0 0 1 -622 -436 )">
    <path d="M 5.49654999999999 10.6496394230769  C 5.49649999999999 8.65625961538462  8.23759999999999 7.03212019230769  11.66645 6.9595625  L 3.65155 0.116822115384616  L 2.8879 1.11755769230769  L 9.0733 6.39829807692308  C 9.14305640104327 6.45765589065656  9.18362533784801 6.54724937733357  9.18362533784801 6.64194339930845  C 9.18362533784801 6.71358058169264  9.16037043925759 6.78304583038988  9.11774999999999 6.83872115384615  C 9.06875607276567 6.90337828897264  8.99735981412856 6.94463940793412  8.91944999999999 6.95332211538461  C 8.84138583093134 6.96224438299881  8.76317962082507 6.93788194011817  8.70215 6.88562980769231  L 2.51675 1.60446634615384  L 0.662499999999997 4.03377403846153  C -0.0278500000000037 4.93836538461538  0.0853499999999968 6.25783653846153  0.903399999999996 7.0190048076923  C 0.907949999999997 7.02249519230769  0.913199999999998 7.02492788461538  0.917749999999995 7.02926442307692  L 5.51879999999999 10.9571105769231  C 5.5041097916891 10.8553546539759  5.49667217071427 10.7525747032791  5.49654999999999 10.6496394230769  Z " fill-rule="nonzero" fill="#ffffff" stroke="none" transform="matrix(1 0 0 1 622 436 )" />
  </g>
</svg>