<?xml version="1.0" encoding="utf-8"?>
<svg version="1.1" xmlns:xlink="http://www.w3.org/1999/xlink" width="21px" height="21px" xmlns="http://www.w3.org/2000/svg">
  <g transform="matrix(1 0 0 1 -21 -169 )">
    <path d="M 31.5 169  C 37.38 169  42 173.62  42 179.5  C 42 185.38  37.38 190  31.5 190  C 25.62 190  21 185.38  21 179.5  C 21 173.62  25.62 169  31.5 169  Z " fill-rule="nonzero" fill="#ffffff" stroke="none" />
    <path d="M 31.5 169.5  C 37.1 169.5  41.5 173.9  41.5 179.5  C 41.5 185.1  37.1 189.5  31.5 189.5  C 25.9 189.5  21.5 185.1  21.5 179.5  C 21.5 173.9  25.9 169.5  31.5 169.5  Z " stroke-width="1" stroke="#d9001b" fill="none" />
  </g>
</svg>