<?xml version="1.0" encoding="utf-8"?>
<svg version="1.1" xmlns:xlink="http://www.w3.org/1999/xlink" width="17px" height="17px" xmlns="http://www.w3.org/2000/svg">
  <g transform="matrix(1 0 0 1 -23 -171 )">
    <path d="M 31.5 171  C 36.26 171  40 174.74  40 179.5  C 40 184.26  36.26 188  31.5 188  C 26.74 188  23 184.26  23 179.5  C 23 174.74  26.74 171  31.5 171  Z " fill-rule="nonzero" fill="#ffffff" stroke="none" />
    <path d="M 31.5 171.5  C 35.98 171.5  39.5 175.02  39.5 179.5  C 39.5 183.98  35.98 187.5  31.5 187.5  C 27.02 187.5  23.5 183.98  23.5 179.5  C 23.5 175.02  27.02 171.5  31.5 171.5  Z " stroke-width="1" stroke="#d9001b" fill="none" />
  </g>
</svg>