<?xml version="1.0" encoding="utf-8"?>
<svg version="1.1" xmlns:xlink="http://www.w3.org/1999/xlink" width="11px" height="11px" xmlns="http://www.w3.org/2000/svg">
  <g transform="matrix(1 0 0 1 -26 -174 )">
    <path d="M 31.5 174  C 34.58 174  37 176.42  37 179.5  C 37 182.58  34.58 185  31.5 185  C 28.42 185  26 182.58  26 179.5  C 26 176.42  28.42 174  31.5 174  Z " fill-rule="nonzero" fill="#ffffff" stroke="none" />
    <path d="M 31.5 174.5  C 34.3 174.5  36.5 176.7  36.5 179.5  C 36.5 182.3  34.3 184.5  31.5 184.5  C 28.7 184.5  26.5 182.3  26.5 179.5  C 26.5 176.7  28.7 174.5  31.5 174.5  Z " stroke-width="1" stroke="#d9001b" fill="none" />
  </g>
</svg>