<?xml version="1.0" encoding="utf-8"?>
<svg version="1.1" xmlns:xlink="http://www.w3.org/1999/xlink" width="5px" height="5px" xmlns="http://www.w3.org/2000/svg">
  <g transform="matrix(1 0 0 1 -29 -177 )">
    <path d="M 31.5 177  C 32.9 177  34 178.1  34 179.5  C 34 180.9  32.9 182  31.5 182  C 30.1 182  29 180.9  29 179.5  C 29 178.1  30.1 177  31.5 177  Z " fill-rule="nonzero" fill="#d9001b" stroke="none" />
    <path d="M 31.5 177.5  C 32.62 177.5  33.5 178.38  33.5 179.5  C 33.5 180.62  32.62 181.5  31.5 181.5  C 30.38 181.5  29.5 180.62  29.5 179.5  C 29.5 178.38  30.38 177.5  31.5 177.5  Z " stroke-width="1" stroke="#d9001b" fill="none" />
  </g>
</svg>