<?xml version="1.0" encoding="utf-8"?>
<svg version="1.1" xmlns:xlink="http://www.w3.org/1999/xlink" width="33px" height="33px" xmlns="http://www.w3.org/2000/svg">
  <g transform="matrix(1 0 0 1 -33 -896 )">
    <path d="M 49.5 896.5  C 58.46 896.5  65.5 903.54  65.5 912.5  C 65.5 921.46  58.46 928.5  49.5 928.5  C 40.54 928.5  33.5 921.46  33.5 912.5  C 33.5 903.54  40.54 896.5  49.5 896.5  Z " fill-rule="nonzero" fill="#ffffff" stroke="none" />
    <path d="M 49.5 896.5  C 58.46 896.5  65.5 903.54  65.5 912.5  C 65.5 921.46  58.46 928.5  49.5 928.5  C 40.54 928.5  33.5 921.46  33.5 912.5  C 33.5 903.54  40.54 896.5  49.5 896.5  Z " stroke-width="1" stroke="#02a7f0" fill="none" stroke-opacity="0.749019607843137" />
  </g>
</svg>