<?xml version="1.0" encoding="utf-8"?>
<svg version="1.1" xmlns:xlink="http://www.w3.org/1999/xlink" width="10px" height="10px" xmlns="http://www.w3.org/2000/svg">
  <g transform="matrix(1 0 0 1 -44 -908 )">
    <path d="M 49 908  C 51.8 908  54 910.2  54 913  C 54 915.8  51.8 918  49 918  C 46.2 918  44 915.8  44 913  C 44 910.2  46.2 908  49 908  Z " fill-rule="nonzero" fill="#02a7f0" stroke="none" />
    <path d="M 49 908.5  C 51.52 908.5  53.5 910.48  53.5 913  C 53.5 915.52  51.52 917.5  49 917.5  C 46.48 917.5  44.5 915.52  44.5 913  C 44.5 910.48  46.48 908.5  49 908.5  Z " stroke-width="1" stroke="#02a7f0" fill="none" />
  </g>
</svg>