<?xml version="1.0" encoding="utf-8"?>
<svg version="1.1" xmlns:xlink="http://www.w3.org/1999/xlink" width="41px" height="41px" xmlns="http://www.w3.org/2000/svg">
  <g transform="matrix(1 0 0 1 -29 -975 )">
    <path d="M 49.5 975  C 60.98 975  70 984.02  70 995.5  C 70 1006.98  60.98 1016  49.5 1016  C 38.02 1016  29 1006.98  29 995.5  C 29 984.02  38.02 975  49.5 975  Z " fill-rule="nonzero" fill="#ffffff" stroke="none" />
    <path d="M 49.5 975.5  C 60.7 975.5  69.5 984.3  69.5 995.5  C 69.5 1006.7  60.7 1015.5  49.5 1015.5  C 38.3 1015.5  29.5 1006.7  29.5 995.5  C 29.5 984.3  38.3 975.5  49.5 975.5  Z " stroke-width="1" stroke="#d9001b" fill="none" />
  </g>
</svg>