<?xml version="1.0" encoding="utf-8"?>
<svg version="1.1" xmlns:xlink="http://www.w3.org/1999/xlink" width="33px" height="33px" xmlns="http://www.w3.org/2000/svg">
  <g transform="matrix(1 0 0 1 -33 -979 )">
    <path d="M 49.5 979  C 58.74 979  66 986.26  66 995.5  C 66 1004.74  58.74 1012  49.5 1012  C 40.26 1012  33 1004.74  33 995.5  C 33 986.26  40.26 979  49.5 979  Z " fill-rule="nonzero" fill="#ffffff" stroke="none" />
    <path d="M 49.5 979.5  C 58.46 979.5  65.5 986.54  65.5 995.5  C 65.5 1004.46  58.46 1011.5  49.5 1011.5  C 40.54 1011.5  33.5 1004.46  33.5 995.5  C 33.5 986.54  40.54 979.5  49.5 979.5  Z " stroke-width="1" stroke="#d9001b" fill="none" />
  </g>
</svg>