<?xml version="1.0" encoding="utf-8"?>
<svg version="1.1" xmlns:xlink="http://www.w3.org/1999/xlink" width="22px" height="22px" xmlns="http://www.w3.org/2000/svg">
  <g transform="matrix(1 0 0 1 -38 -985 )">
    <path d="M 49 985  C 55.16 985  60 989.84  60 996  C 60 1002.16  55.16 1007  49 1007  C 42.84 1007  38 1002.16  38 996  C 38 989.84  42.84 985  49 985  Z " fill-rule="nonzero" fill="#ffffff" stroke="none" />
    <path d="M 49 985.5  C 54.88 985.5  59.5 990.12  59.5 996  C 59.5 1001.88  54.88 1006.5  49 1006.5  C 43.12 1006.5  38.5 1001.88  38.5 996  C 38.5 990.12  43.12 985.5  49 985.5  Z " stroke-width="1" stroke="#d9001b" fill="none" />
  </g>
</svg>