<?xml version="1.0" encoding="utf-8"?>
<svg version="1.1" xmlns:xlink="http://www.w3.org/1999/xlink" width="10px" height="10px" xmlns="http://www.w3.org/2000/svg">
  <g transform="matrix(1 0 0 1 -44 -991 )">
    <path d="M 49 991  C 51.8 991  54 993.2  54 996  C 54 998.8  51.8 1001  49 1001  C 46.2 1001  44 998.8  44 996  C 44 993.2  46.2 991  49 991  Z " fill-rule="nonzero" fill="#d9001b" stroke="none" />
    <path d="M 49 991.5  C 51.52 991.5  53.5 993.48  53.5 996  C 53.5 998.52  51.52 1000.5  49 1000.5  C 46.48 1000.5  44.5 998.52  44.5 996  C 44.5 993.48  46.48 991.5  49 991.5  Z " stroke-width="1" stroke="#d9001b" fill="none" />
  </g>
</svg>