<?xml version="1.0" encoding="utf-8"?>
<svg version="1.1" xmlns:xlink="http://www.w3.org/1999/xlink" width="20px" height="27px" xmlns="http://www.w3.org/2000/svg">
  <g transform="matrix(1 0 0 1 -387 -181 )">
    <path d="M 18.7535309230769 10.6440637884615  C 19.3352362548077 10.062142  19.3777182019231 9.15714085096158  18.842986625 8.6248445048077  L 11.2744860721154 1.03036771634618  C 11.1093746442308 0.782673524038501  10.8687697403846 0.57827300480767  10.5574337788461 0.469768105769276  C 10.3923223509615 0.403745153846103  10.2162250961538 0.37538778846158  10.0337961778846 0.378526596153847  C 10.021241 0.378526596153847  10.0117704759616 0.3722489807692  9.99770004807692 0.3722489807692  C 9.98195196153847 0.3722489807692  9.96777327884615 0.380150100961487  9.95050988942307 0.381719504807734  C 9.77587383653844 0.378526596153847  9.60296954326924 0.406072235576971  9.44251217307692 0.468198701923029  C 9.12798325 0.57827300480767  8.88115493750001 0.785866379807658  8.71604350961536 1.03826878365385  L 1.15538987019232 8.6248445048077  C 0.62385120192306 9.15714085096158  0.664763745192317 10.062142  1.245007875 10.6440096875  C 1.8283908125 11.2265808461539  2.70746987980772 11.2430866105769  3.24057795192306 10.7084632355769  C 3.28143639423075 10.6659812884616  3.32391839423076 10.6376779711538  3.360068625 10.5889725625  L 8.51164293750003 5.45390396153846  L 8.52419811538459 25.145783639423  C 8.5179205 25.2008749182693  8.52419811538459 25.2496344807693  8.52419811538459 25.3046175048077  C 8.52419811538459 26.0138228317307  9.15634061538464 26.5862740961538  9.98032840384616 26.5862740961538  C 10.8012856394231 26.5862740961538  11.4710936730769 26.0138769326923  11.4710936730769 25.3046175048077  L 11.4884111634615 5.45238871153845  L 16.6415548798077 10.5890266634616  C 16.6761357596154 10.637732125  16.7185636057692 10.6660894903846  16.7594761490384 10.7085173365384  C 17.292638375 11.2431407115384  18.1717174423077 11.226635  18.7535309230769 10.6440637884615  Z " fill-rule="nonzero" fill="#ec808d" stroke="none" transform="matrix(1 0 0 1 387 181 )" />
  </g>
</svg>