<?xml version="1.0" encoding="utf-8"?>
<svg version="1.1" xmlns:xlink="http://www.w3.org/1999/xlink" width="30px" height="30px" xmlns="http://www.w3.org/2000/svg">
  <g transform="matrix(1 0 0 1 -363 -98 )">
    <path d="M 27.5625 24.5238095238095  C 28.125 24.1428571428571  30 23.7619047619048  30 23.7619047619048  L 30 20.7142857142857  C 30 20.7142857142857  27.9375 20.3333333333333  27.9375 20.1428571428571  C 27.9375 19.952380952381  27.9375 19.7619047619048  27.75 19.7619047619048  C 27.9375 19.3809523809524  29.0625 18.4285714285714  29.0625 18.4285714285714  L 26.8125 15.3809523809524  C 26.8125 15.3809523809524  25.3125 16.5238095238095  24.9375 16.7142857142857  C 24.75 16.7142857142857  24.5625 16.5238095238095  24.375 16.5238095238095  C 24.1875 16.5238095238095  23.625 14.6190476190476  23.625 14.6190476190476  L 20.625 14.6190476190476  C 20.625 14.6190476190476  20.25 16.5238095238095  19.875 16.5238095238095  C 19.6875 16.5238095238095  19.5 16.7142857142857  19.3125 16.7142857142857  C 18.9375 16.5238095238095  17.4375 15.3809523809524  17.4375 15.3809523809524  L 15.375 18.4285714285714  C 15.375 18.4285714285714  16.5 19.5714285714286  16.5 19.952380952381  C 16.5 20.1428571428571  16.3125 20.1428571428571  16.3125 20.3333333333333  C 15.75 20.5238095238095  14.4375 20.7142857142857  14.4375 20.7142857142857  L 14.4375 23.7619047619048  C 14.4375 23.7619047619048  16.125 24.1428571428571  16.3125 24.3333333333333  C 16.3125 24.5238095238095  16.5 24.7142857142857  16.5 24.9047619047619  C 16.125 25.2857142857143  15.1875 26.047619047619  15.1875 26.047619047619  L 17.4375 29.0952380952381  C 17.4375 29.0952380952381  19.3125 27.952380952381  19.5 27.7619047619048  C 19.6875 27.7619047619048  19.875 27.952380952381  19.875 27.952380952381  C 20.0625 27.952380952381  20.4375 29.8571428571429  20.4375 29.8571428571429  L 23.4375 29.8571428571429  C 23.4375 29.8571428571429  23.625 28.1428571428571  23.8125 28.1428571428571  C 24 28.1428571428571  24.1875 27.952380952381  24.375 27.952380952381  C 24.5625 28.1428571428571  25.875 29.2857142857143  25.875 29.2857142857143  L 28.875 26.2380952380952  C 28.875 26.2380952380952  27.75 25.4761904761905  27.375 25.0952380952381  C 27.375 24.9047619047619  27.5625 24.7142857142857  27.5625 24.5238095238095  Z M 26.0625 22.2380952380952  C 26.0625 24.3333333333333  24.375 26.047619047619  22.3125 26.047619047619  C 20.25 26.047619047619  18.5625 24.3333333333333  18.5625 22.2380952380952  C 18.5625 20.1428571428571  20.25 18.4285714285714  22.3125 18.4285714285714  C 24.375 18.4285714285714  26.0625 20.1428571428571  26.0625 22.2380952380952  Z M 5.625 7.57142857142857  C 5.625 11.1904761904762  9 14.4285714285714  12.5625 14.4285714285714  C 16.125 14.4285714285714  19.6875 11  19.6875 7.38095238095238  C 19.6875 3.76190476190476  16.3125 0.142857142857143  12.75 0.142857142857143  C 9.1875 0.142857142857143  5.625 3.95238095238095  5.625 7.57142857142857  Z M 13.3125 23.1904761904762  C 13.125 18.047619047619  17.25 15.952380952381  14.0625 15.952380952381  L 7.125 15.952380952381  C 5.25 15.952380952381  2.625 16.9047619047619  1.875 19.5714285714286  C 0.9375 22.2380952380952  0.9375 22.2380952380952  0.1875 24.9047619047619  C -0.1875 26.2380952380952  6.1875 27  12.5625 27  C 14.625 27  13.3125 25.2857142857143  13.3125 23.1904761904762  Z " fill-rule="nonzero" fill="#02a7f0" stroke="none" transform="matrix(1 0 0 1 363 98 )" />
  </g>
</svg>