<?xml version="1.0" encoding="utf-8"?>
<svg version="1.1" xmlns:xlink="http://www.w3.org/1999/xlink" width="350px" height="175px" xmlns="http://www.w3.org/2000/svg">
  <g transform="matrix(1 0 0 1 -464 -56 )">
    <path d="M 465 67  A 10 10 0 0 1 475 57 L 803 57  A 10 10 0 0 1 813 67 L 813 220  A 10 10 0 0 1 803 230 L 475 230  A 10 10 0 0 1 465 220 L 465 67  Z " fill-rule="nonzero" fill="#ffffff" stroke="none" />
    <path d="M 464.5 67  A 10.5 10.5 0 0 1 475 56.5 L 803 56.5  A 10.5 10.5 0 0 1 813.5 67 L 813.5 220  A 10.5 10.5 0 0 1 803 230.5 L 475 230.5  A 10.5 10.5 0 0 1 464.5 220 L 464.5 67  Z " stroke-width="1" stroke="#f2f2f2" fill="none" stroke-opacity="0.996078431372549" />
  </g>
</svg>