<?xml version="1.0" encoding="utf-8"?>
<svg version="1.1" xmlns:xlink="http://www.w3.org/1999/xlink" width="20px" height="27px" xmlns="http://www.w3.org/2000/svg">
  <g transform="matrix(1 0 0 1 -770 -181 )">
    <path d="M 18.7535309230769 16.3559362115385  C 19.3352362548077 16.937858  19.3777182019231 17.8428591490384  18.842986625 18.3751554951923  L 11.2744860721154 25.9696322836538  C 11.1093746442308 26.2173264759615  10.8687697403846 26.4217269951923  10.5574337788461 26.5302318942307  C 10.3923223509615 26.5962548461539  10.2162250961538 26.6246122115384  10.0337961778846 26.6214734038462  C 10.021241 26.6214734038462  10.0117704759616 26.6277510192308  9.99770004807692 26.6277510192308  C 9.98195196153847 26.6277510192308  9.96777327884615 26.6198498990385  9.95050988942307 26.6182804951923  C 9.77587383653844 26.6214734038462  9.60296954326924 26.593927764423  9.44251217307692 26.531801298077  C 9.12798325 26.4217269951923  8.88115493750001 26.2141336201923  8.71604350961536 25.9617312163462  L 1.15538987019232 18.3751554951923  C 0.62385120192306 17.8428591490384  0.664763745192317 16.937858  1.245007875 16.3559903125  C 1.8283908125 15.7734191538461  2.70746987980772 15.7569133894231  3.24057795192306 16.2915367644231  C 3.28143639423075 16.3340187115384  3.32391839423076 16.3623220288462  3.360068625 16.4110274375  L 8.51164293750003 21.5460960384615  L 8.52419811538459 1.85421636057697  C 8.5179205 1.79912508173072  8.52419811538459 1.75036551923074  8.52419811538459 1.69538249519235  C 8.52419811538459 0.986177168269251  9.15634061538464 0.413725903846169  9.98032840384616 0.413725903846169  C 10.8012856394231 0.413725903846169  11.4710936730769 0.986123067307745  11.4710936730769 1.69538249519235  L 11.4884111634615 21.5476112884616  L 16.6415548798077 16.4109733365384  C 16.6761357596154 16.362267875  16.7185636057692 16.3339105096154  16.7594761490384 16.2914826634616  C 17.292638375 15.7568592884616  18.1717174423077 15.773365  18.7535309230769 16.3559362115385  Z " fill-rule="nonzero" fill="#eb1c26" stroke="none" transform="matrix(1 0 0 1 770 181 )" />
  </g>
</svg>