<?xml version="1.0" encoding="utf-8"?>
<svg version="1.1" xmlns:xlink="http://www.w3.org/1999/xlink" width="30px" height="30px" xmlns="http://www.w3.org/2000/svg">
  <g transform="matrix(1 0 0 1 -750 -98 )">
    <path d="M 2.2 21  L 27.8 21  C 27.8 21.4  27.8 21.4  27.8 21.4  C 28.9782074663057 21.4  29.9333333333333 22.3551258670276  29.9333333333333 23.5333333333333  L 29.9333333333333 27.8  C 29.9333333333333 28.9782074663057  28.9782074663057 29.9333333333333  27.8 30  L 2.2 30  C 1.02179253369431 29.9333333333333  0.0666666666666676 28.9782074663057  0.0666666666666676 27.8  L 0.0666666666666676 23.5333333333333  C 0.0666666666666688 23.8888888888889  0.0666666666666676 23.1777777777778  0.0666666666666676 23.5333333333333  C 0.0666666666666676 22.3551258670276  1.02179253369431 21.4  2.2 21.4  C 2.2 21.4  2.2 21.4  2.2 21  Z M 26.7333333333333 25.6666666666667  L 18.2 25.6666666666667  C 18.1993454588664 25.6666654617206  18.1986909167594 25.6666648592471  18.1980363745167 25.6666648592471  C 17.6089326413639 25.6666648592471  17.1313697078501 26.144227792761  17.1313697078501 26.7333315259138  C 17.1313697078501 27.2491337200749  17.5004497669414 27.6910384780713  18.008 27.7829333333333  L 18.2 27.8  L 26.7333333333333 27.8  C 27.3224370664862 27.8  27.8 27.3224370664862  27.8 26.7333333333333  C 27.8 26.1442296001805  27.3224370664862 25.6666666666667  26.7333333333333 25.6666666666667  Z M 2.2 11  L 27.8 11  C 28.9782074663057 10.7333333333333  29.9333333333333 11.688459200361  29.9333333333333 12.8666666666667  L 29.9333333333333 17.1333333333333  C 29.9333333333333 18.311540799639  28.9782074663057 19.2666666666667  27.8 19  L 2.2 19  C 1.0217925336943 19.2666666666667  0.0666666666666676 18.311540799639  0.0666666666666676 17.1333333333333  L 0.0666666666666676 12.8666666666667  C 0.0666666666666676 11.688459200361  1.02179253369431 10.7333333333333  2.2 11  Z M 5.4 15  L 3.26666666666667 15  C 3.26601212553306 14.9999987950539  3.2653575834261 14.9999981925805  3.2647030411834 14.9999981925805  C 2.67559930803055 14.9999981925805  2.19803637451673 15.4775611260943  2.19803637451673 16.0666648592471  C 2.19803637451673 16.5824670534083  2.5671164336081 17.0243718114046  3.07466666666667 17.1162666666667  L 3.26666666666667 17.1333333333333  L 5.4 17.1333333333333  C 5.98910373315285 17.1333333333333  6.46666666666667 16.6557703998195  6.46666666666667 16.0666666666667  C 6.46666666666667 15.4775629335138  5.98910373315285 15  5.4 15  Z M 16.0666666666667 15  L 9.66666666666667 15  C 9.66601212553305 14.9999987950539  9.6653575834261 14.9999981925805  9.6647030411834 14.9999981925805  C 9.07559930803055 14.9999981925805  8.59803637451673 15.4775611260943  8.59803637451673 16.0666648592471  C 8.59803637451673 16.5824670534083  8.9671164336081 17.0243718114046  9.47466666666667 17.1162666666667  L 9.66666666666667 17.1333333333333  L 16.0666666666667 17.1333333333333  C 16.6557703998195 17.1333333333333  17.1333333333333 16.6557703998195  17.1333333333333 16.0666666666667  C 17.1333333333333 15.4775629335138  16.6557703998195 15  16.0666666666667 15  Z M 2.2 0  L 27.8 0  C 28.9782074663057 0.0666666666666676  29.9333333333333 1.02179253369431  29.9333333333333 2.2  L 29.9333333333333 6.46666666666667  C 29.9333333333333 7.64487413297236  28.9782074663057 8.6  27.8 9  L 2.2 9  C 1.02179253369431 8.6  0.0666666666666676 7.64487413297236  0.0666666666666676 6.46666666666667  L 0.0666666666666676 2.2  C 0.0666666666666676 1.02179253369431  1.02179253369431 0.0666666666666676  2.2 0  Z M 3.26666666666667 4.33333333333333  C 2.67756293351382 4.33333333333333  2.2 4.81089626684715  2.2 5.4  C 2.2 5.98910373315285  2.67756293351382 6.46666666666667  3.26666666666667 6.46666666666667  C 3.85577039981951 6.46666666666667  4.33333333333333 5.98910373315285  4.33333333333333 5.4  C 4.33333333333333 4.81089626684715  3.85577039981951 4.33333333333333  3.26666666666667 4.33333333333333  Z M 7.53333333333333 4.33333333333333  C 6.94422960018049 4.33333333333333  6.46666666666667 4.81089626684715  6.46666666666667 5.4  C 6.46666666666667 5.98910373315285  6.94422960018049 6.46666666666667  7.53333333333333 6.46666666666667  C 8.12243706648618 6.46666666666667  8.6 5.98910373315285  8.6 5.4  C 8.6 4.81089626684715  8.12243706648618 4.33333333333333  7.53333333333333 4.33333333333333  Z " fill-rule="nonzero" fill="#81d3f8" stroke="none" transform="matrix(1 0 0 1 750 98 )" />
  </g>
</svg>