<?xml version="1.0" encoding="utf-8"?>
<svg version="1.1" xmlns:xlink="http://www.w3.org/1999/xlink" width="350px" height="175px" xmlns="http://www.w3.org/2000/svg">
  <g transform="matrix(1 0 0 1 -849 -56 )">
    <path d="M 850 67  A 10 10 0 0 1 860 57 L 1188 57  A 10 10 0 0 1 1198 67 L 1198 220  A 10 10 0 0 1 1188 230 L 860 230  A 10 10 0 0 1 850 220 L 850 67  Z " fill-rule="nonzero" fill="#ffffff" stroke="none" fill-opacity="0.996078431372549" />
    <path d="M 849.5 67  A 10.5 10.5 0 0 1 860 56.5 L 1188 56.5  A 10.5 10.5 0 0 1 1198.5 67 L 1198.5 220  A 10.5 10.5 0 0 1 1188 230.5 L 860 230.5  A 10.5 10.5 0 0 1 849.5 220 L 849.5 67  Z " stroke-width="1" stroke="#f2f2f2" fill="none" stroke-opacity="0.996078431372549" />
  </g>
</svg>