<?xml version="1.0" encoding="utf-8"?>
<svg version="1.1" xmlns:xlink="http://www.w3.org/1999/xlink" width="40px" height="30px" xmlns="http://www.w3.org/2000/svg">
  <g transform="matrix(1 0 0 1 -1129 -86 )">
    <path d="M 7.74609375000006 9.41394042968749  C 8.78515625000003 4.64587402343749  13.3125000000001 1.0546875  18.75 1.0546875  C 22.7578125 1.0546875  26.265625 3.0035400390625  28.2578125 5.936279296875  C 28.6484375 6.5152587890625  29.27734375 6.9012451171875  29.984375 7.00341796875  C 35.6562500000001 7.8359375  39.9921875000001 12.3807373046875  39.9921875000001 17.8829345703125  C 39.9921875000001 23.9716796875  34.9531250000001 28.90625  28.74609375 28.75  L 10.00390625 28.75  C 4.42578125000006 28.6224365234375  0.00781249999994132 24.5657958984375  0.00781249999994132 19.6236572265625  C 0.00781249999994132 15.8621826171875  2.57031250000006 12.6229248046875  6.25390624999997 11.166015625  C 7.02343750000006 10.86328125  7.57421875000003 10.2010498046875  7.74609375000006 9.41394042968749  Z M 18.1397849462365 14.875  C 18.2150537634409 15.90625  20.1720430107527 16.75  22.5806451612903 16.75  C 24.989247311828 16.75  26.9462365591398 15.90625  27.0215053763442 14.875  L 27.0215053763442 11.875  C 27.0215053763442 10.84375  25.0645161290322 10  22.5806451612903 10  C 20.0967741935484 10  18.1397849462365 10.84375  18.1397849462365 11.875  L 18.1397849462365 14.875  Z M 14.1935483870968 20.875  C 15.5698924731183 20.875  16.6881720430107 20.453125  16.731182795699 19.9375  L 16.731182795699 18.4375  C 16.731182795699 17.921875  15.6129032258065 17.5  14.1935483870968 17.5  C 12.7741935483871 17.5  11.6559139784946 17.921875  11.6559139784946 18.4375  L 11.6559139784946 19.9375  C 11.6989247311829 20.453125  12.8172043010752 20.875  14.1935483870968 20.875  Z M 22.5806451612903 25  C 24.989247311828 25  26.9462365591398 24.15625  27.0215053763442 23.125  L 27.0215053763442 20.125  C 27.0215053763442 21.25  25.0645161290322 22.09375  22.5806451612903 22.09375  C 20.0967741935484 22.09375  18.1397849462365 21.25  18.1397849462365 20.21875  L 18.1397849462365 23.125  C 18.2150537634409 24.15625  20.1720430107527 25  22.5806451612903 25  Z M 22.5806451612903 20.96875  C 24.989247311828 20.96875  26.9462365591398 20.125  27.0215053763442 19.09375  L 27.0215053763442 16.09375  C 27.0215053763442 17.125  25.0645161290322 17.96875  22.5806451612903 17.96875  C 20.0967741935484 17.96875  18.1397849462365 17.125  18.1397849462365 16.09375  L 18.1397849462365 19.09375  C 18.2150537634409 20.125  20.1720430107527 20.96875  22.5806451612903 20.96875  Z M 16.731182795699 24.0625  L 16.731182795699 22.5625  C 16.731182795699 23.125  15.6129032258065 23.546875  14.1935483870968 23.546875  C 12.7741935483871 23.546875  11.6559139784946 23.125  11.6559139784946 22.609375  L 11.6559139784946 24.0625  C 11.6989247311829 24.578125  12.8172043010752 25  14.1935483870968 25  C 15.5698924731183 25  16.6881720430107 24.578125  16.731182795699 24.0625  Z M 16.731182795699 22.046875  L 16.731182795699 20.546875  C 16.731182795699 21.0625  15.6129032258065 21.484375  14.1935483870968 21.484375  C 12.7741935483871 21.484375  11.6559139784946 21.0625  11.6559139784946 20.546875  L 11.6559139784946 22.046875  C 11.6989247311829 22.5625  12.8172043010752 22.984375  14.1935483870968 22.984375  C 15.5698924731183 22.984375  16.6881720430107 22.5625  16.731182795699 22.046875  Z M 19.268817204301 11.78125  C 19.268817204301 11.03125  20.7741935483871 10.375  22.5806451612903 10.375  C 24.3870967741935 10.375  25.8924731182796 11.03125  25.8924731182796 11.78125  C 25.8924731182796 12.625  24.3870967741935 13.1875  22.5806451612903 13.1875  C 20.7741935483871 13.1875  19.268817204301 12.53125  19.268817204301 11.78125  Z M 14.1935483870968 17.6875  C 15.2258064516128 17.6875  16.0860215053764 18.015625  16.0860215053764 18.390625  C 16.0860215053764 18.8125  15.2258064516128 19.09375  14.1935483870968 19.09375  C 13.1612903225807 19.09375  12.3010752688172 18.765625  12.3010752688172 18.390625  C 12.3010752688172 18.015625  13.1612903225807 17.6875  14.1935483870968 17.6875  Z " fill-rule="nonzero" fill="#81d3f8" stroke="none" transform="matrix(1 0 0 1 1129 86 )" />
  </g>
</svg>