<?xml version="1.0" encoding="utf-8"?>
<svg version="1.1" xmlns:xlink="http://www.w3.org/1999/xlink" width="30px" height="30px" xmlns="http://www.w3.org/2000/svg">
  <g transform="matrix(1 0 0 1 -1524 -86 )">
    <path d="M 1539 86  C 1547.4 86  1554 92.6  1554 101  C 1554 109.4  1547.4 116  1539 116  C 1530.6 116  1524 109.4  1524 101  C 1524 92.6  1530.6 86  1539 86  Z " fill-rule="nonzero" fill="#ffffff" stroke="none" />
    <path d="M 1539 86.5  C 1547.12 86.5  1553.5 92.88  1553.5 101  C 1553.5 109.12  1547.12 115.5  1539 115.5  C 1530.88 115.5  1524.5 109.12  1524.5 101  C 1524.5 92.88  1530.88 86.5  1539 86.5  Z " stroke-width="1" stroke="#f2f2f2" fill="none" />
  </g>
</svg>