<?xml version="1.0" encoding="utf-8"?>
<svg version="1.1" xmlns:xlink="http://www.w3.org/1999/xlink" width="22px" height="5px" xmlns="http://www.w3.org/2000/svg">
  <g transform="matrix(1 0 0 1 -762 -674 )">
    <path d="M 0 2.5  C 0 3.88071187457698  1.07062342431767 5  2.39130434782609 5  C 3.71198527133451 5  4.78260869565217 3.88071187457698  4.78260869565217 2.5  C 4.78260869565217 1.11928812542302  3.71198527133451 0  2.39130434782609 0  C 1.07062342431767 0  0 1.11928812542302  0 2.5  Z M 8.60869565217391 2.5  C 8.60869565217391 3.88071187457698  9.67931907649158 5  11 5  C 12.3206809235084 5  13.3913043478261 3.88071187457698  13.3913043478261 2.5  C 13.3913043478261 1.11928812542302  12.3206809235084 0  11 0  C 9.67931907649158 0  8.60869565217391 1.11928812542302  8.60869565217391 2.5  Z M 17.2173913043478 2.5  C 17.2173913043478 3.88071187457698  18.2880147286655 5  19.6086956521739 5  C 20.9293765756823 5  22 3.88071187457698  22 2.5  C 22 1.11928812542302  20.9293765756823 0  19.6086956521739 0  C 18.2880147286655 0  17.2173913043478 1.11928812542302  17.2173913043478 2.5  Z " fill-rule="nonzero" fill="#02a7f0" stroke="none" transform="matrix(1 0 0 1 762 674 )" />
  </g>
</svg>