<?xml version="1.0" encoding="utf-8"?>
<svg version="1.1" xmlns:xlink="http://www.w3.org/1999/xlink" width="12px" height="18px" xmlns="http://www.w3.org/2000/svg">
  <g transform="matrix(1 0 0 1 -1548 -396 )">
    <path d="M 11.7 5.67434210526316  C 11.888 5.85986842105263  11.886 6.15986842105263  11.698 6.34539473684211  C 11.51 6.53092105263158  11.206 6.52894736842105  11.02 6.34342105263158  L 6.402 1.77039473684211  L 6.402 17.3763157894737  C 6.402 17.6388157894737  6.188 17.85  5.922 17.85  C 5.656 17.85  5.442 17.6388157894737  5.442 17.3763157894737  L 5.442 1.77828947368421  L 0.832000000000001 6.33947368421053  C 0.644 6.525  0.340000000000001 6.525  0.154 6.33947368421053  C -0.0339999999999998 6.15394736842105  -0.0339999999999998 5.85394736842105  0.154 5.67039473684211  L 5.582 0.296052631578947  C 5.676 0.20328947368421  5.798 0.155921052631579  5.922 0.155921052631579  C 6.026 0.155921052631579  6.128 0.189473684210526  6.214 0.254605263157895  C 6.242 0.272368421052632  6.268 0.292105263157895  6.292 0.315789473684211  L 11.7 5.67434210526316  Z " fill-rule="nonzero" fill="#69e147" stroke="none" transform="matrix(1 0 0 1 1548 396 )" />
  </g>
</svg>