<?xml version="1.0" encoding="utf-8"?>
<svg version="1.1" xmlns:xlink="http://www.w3.org/1999/xlink" width="11px" height="11px" xmlns="http://www.w3.org/2000/svg">
  <g transform="matrix(1 0 0 1 -1358 -373 )">
    <path d="M 10.0833333369141 8.47916666308594  C 10.0375 8.47916666308594  10.0375 8.47916666308594  10.0833333369141 8.47916666308594  C 10.175 8.29583332617188  10.2666666738281 8.15833332617188  10.3583333369141 7.975  C 10.4041666738281 7.92916666308594  10.4041666738281 7.88333333691406  10.4041666630859 7.8375  C 10.45 7.7  10.5416666630859 7.5625  10.5875 7.425  C 10.6333333369141 7.37916666308594  10.6333333369141 7.33333333691406  10.6333333369141 7.24166666308594  C 10.6791666738281 7.10416666308594  10.725 6.96666666308594  10.7708333369141 6.875  C 10.7708333369141 6.82916666308594  10.8166666738281 6.7375  10.8166666630859 6.69166666308594  C 10.8625 6.55416666308594  10.8625 6.41666666308594  10.9083333369141 6.27916666308594  C 10.9083333369141 6.23333332617188  10.9541666738281 6.14166666308594  10.9541666630859 6.09583333691406  C 11 5.9125  11 5.68333333691406  11 5.5  C 11 2.475  8.525 0  5.5 0  C 2.475 0  0 2.475  0 5.5  C 0 5.68333333691406  0 5.9125  0.0458333369140613 6.09583333691406  C 0.0458333369140613 6.14166667382812  0.0458333369140613 6.23333333691406  0.0916666630859363 6.27916666308594  C 0.0916666630859363 6.41666666308594  0.137499999999999 6.55416666308594  0.137499999999999 6.69166666308594  C 0.137499999999999 6.7375  0.183333336914061 6.82916666308594  0.183333336914061 6.875  C 0.229166673828124 7.0125  0.274999999999999 7.15  0.320833336914061 7.24166666308594  C 0.320833336914061 7.2875  0.366666673828124 7.33333332617188  0.366666663085936 7.425  C 0.412499999999999 7.5625  0.458333326171874 7.7  0.549999999999999 7.8375  C 0.549999999999999 7.88333333691406  0.595833336914061 7.92916666308594  0.595833336914061 7.975  C 0.687499999999999 8.15833333691406  0.779166673828124 8.29583333691406  0.870833336914061 8.47916666308594  C 1.83333333691406 9.99166666308594  3.52916667382812 11  5.45416666308594 11  C 7.37916665234375 11  9.075 9.99166666308594  10.0833333369141 8.47916666308594  Z M 3.4375 4.62916666308594  C 3.4375 3.52916666308594  4.35416666308594 2.6125  5.45416666308594 2.6125  C 6.55416666308594 2.6125  7.47083332617188 3.52916666308594  7.47083333691406 4.62916666308594  C 7.47083333691406 5.72916666308594  6.55416667382813 6.64583332617187  5.45416666308594 6.64583333691406  C 4.35416665234375 6.64583334765625  3.4375 5.72916667382812  3.4375 4.62916666308594  Z M 5.45416666308594 10.3125  C 4.17083332617188 10.2666666630859  2.97916666308594 9.7625  2.10833333691406 8.9375  C 2.70416667382813 7.60833333691406  3.9875 6.7375  5.45416666308594 6.7375  C 6.92083332617188 6.7375  8.20416666308594 7.60833333691406  8.8 8.9375  C 7.92916666308594 9.7625  6.7375 10.3125  5.45416666308594 10.3125  Z " fill-rule="nonzero" fill="#ffffff" stroke="none" transform="matrix(1 0 0 1 1358 373 )" />
  </g>
</svg>