<?xml version="1.0" encoding="utf-8"?>
<svg version="1.1" xmlns:xlink="http://www.w3.org/1999/xlink" width="111px" height="111px" xmlns="http://www.w3.org/2000/svg">
  <g transform="matrix(1 0 0 1 -673 -903 )">
    <path d="M 728.5 903  C 759.58 903  784 927.42  784 958.5  C 784 989.58  759.58 1014  728.5 1014  C 697.42 1014  673 989.58  673 958.5  C 673 927.42  697.42 903  728.5 903  Z " fill-rule="nonzero" fill="#eb1c26" stroke="none" />
    <path d="M 728.5 903.5  C 759.3 903.5  783.5 927.7  783.5 958.5  C 783.5 989.3  759.3 1013.5  728.5 1013.5  C 697.7 1013.5  673.5 989.3  673.5 958.5  C 673.5 927.7  697.7 903.5  728.5 903.5  Z " stroke-width="1" stroke="#f2f2f2" fill="none" />
  </g>
</svg>