<?xml version="1.0" encoding="utf-8"?>
<svg version="1.1" xmlns:xlink="http://www.w3.org/1999/xlink" width="111px" height="111px" xmlns="http://www.w3.org/2000/svg">
  <g transform="matrix(1 0 0 1 -925 -903 )">
    <path d="M 980.5 903  C 1011.58 903  1036 927.42  1036 958.5  C 1036 989.58  1011.58 1014  980.5 1014  C 949.42 1014  925 989.58  925 958.5  C 925 927.42  949.42 903  980.5 903  Z " fill-rule="nonzero" fill="#81d3f8" stroke="none" />
    <path d="M 980.5 903.5  C 1011.3 903.5  1035.5 927.7  1035.5 958.5  C 1035.5 989.3  1011.3 1013.5  980.5 1013.5  C 949.7 1013.5  925.5 989.3  925.5 958.5  C 925.5 927.7  949.7 903.5  980.5 903.5  Z " stroke-width="1" stroke="#f2f2f2" fill="none" />
  </g>
</svg>