<?xml version="1.0" encoding="utf-8"?>
<svg version="1.1" xmlns:xlink="http://www.w3.org/1999/xlink" width="21px" height="19px" xmlns="http://www.w3.org/2000/svg">
  <g transform="matrix(1 0 0 1 -1670 -10301 )">
    <path d="M 3.73397260273973 15.2240294117647  C 3.61602739726027 15.2240294117647  3.49664383561644 15.1888235294118  3.39394520547945 15.1156176470588  C 1.20390410958904 13.5542647058824  0.22639726027397 11.3298676470588  0.224958904109588 7.90316176470588  C 0.223232876712328 4.80057352941176  0.899260273972602 2.58204411764706  2.55797260273973 0.246161764705882  C 2.66536953132722 0.094905033241515  2.84245330451154 0.00458776699817034  3.03162328767123 0.00458776699817034  C 3.34938896659128 0.00458776699817034  3.60698894645033 0.25479166900413  3.60698894645033 0.563433823529412  C 3.60698894645033 0.676762053510975  3.57151537041331 0.78741217784728  3.50527397260274 0.880705882352941  C 1.97083561643836 3.04083823529412  1.37391780821918 5.00957352941176  1.37564383561644 7.90260294117647  C 1.37679452054794 10.9381323529412  2.20902739726027 12.8847941176471  4.07486301369863 14.2147941176471  C 4.22246817646819 14.3200809924669  4.30965147022345 14.487331078363  4.30965147022345 14.665205977876  C 4.30965147022345 14.9738356910168  4.05206187423569 15.2240295072878  3.73430900447003 15.2240295072878  Z M 20.6314931506849 15.12875  C 20.6099178082192 15.1304264705882  20.5906438356164 15.1348970588235  20.5684931506849 15.1348970588235  L 18.8571369863014 15.1348970588235  C 19.0375068493151 15.7118823529412  19.0372191780822 16.1583823529412  18.8519589041096 16.4598676470588  C 18.5257397260274 16.99075  17.5974246575342 17.1519705882353  17.1512465753425 17.2296470588235  L 17.0951506849315 17.2394264705882  C 15.682397260274 17.4855882352941  14.7558082191781 17.1449852941176  13.7745616438356 16.7834264705882  C 13.608 16.7222352941176  13.4431643835616 16.6616029411765  13.2783287671233 16.6043235294118  C 12.3738904109589 16.2905441176471  11.6512602739726 15.6247058823529  11.5977534246575 15.0563823529412  C 11.5912746306397 15.0025985451202  11.5899264335369 14.9483483129594  11.5937260273973 14.8943235294118  C 11.6478082191781 14.8540882352941  11.9133287671233 14.6981764705882  12.7976301369863 14.6554264705882  C 14.2276438356164 14.5864117647059  15.642698630137 15.1636764705882  15.6766438356164 15.1776470588235  C 15.9899880437769 15.3093414458388  16.3538307887151 15.2489627326468  16.6043835616438 15.0236911764706  C 15.0532602739726 14.8012794117647  13.6361917808219 14.1332058823529  12.1791369863014 13.5732647058823  C 11.9592698950456 13.4927373731406  11.7925591055655 13.3145998842313  11.7309452054795 13.0943529411765  C 11.067 13.2234411764706  10.5929178082192 13.4542352941176  10.2799315068493 13.8040588235294  C 9.79808219178083 14.3430441176471  9.85705479452055 14.9717205882353  9.87920547945206 15.2083823529412  C 10.0129726027397 16.6339411764706  11.3909178082192 17.7295147058823  12.6978082191781 18.183  C 12.8522876712329 18.2363676470588  13.0064794520548 18.2936470588235  13.162397260274 18.3509264705882  C 13.9667260273973 18.6473823529412  14.9212191780822 18.9986029411765  16.1711506849315 18.9986029411765  C 16.5837317301662 18.9977575064709  16.9954050472885 18.9610076348496  17.4012328767123 18.8887941176471  L 17.4550273972603 18.8795735294118  C 18.0982602739726 18.7678088235294  19.6045068493151 18.5062794117647  20.3340410958904 17.3190588235294  C 20.7091643835616 16.7088235294118  20.8052465753425 15.9728529411765  20.6314931506849 15.12875  Z " fill-rule="nonzero" fill="#02a7f0" stroke="none" transform="matrix(1 0 0 1 1670 10301 )" />
  </g>
</svg>