<?xml version="1.0" encoding="utf-8"?>
<svg version="1.1" xmlns:xlink="http://www.w3.org/1999/xlink" width="24px" height="34px" xmlns="http://www.w3.org/2000/svg">
  <g transform="matrix(1 0 0 1 -1672 -10285 )">
    <path d="M 11.7566511627907 33.0957685950413  C 10.9914418604651 32.8892396694215  10.250511627907 32.5065289256198  9.33013953488372 32.1019008264463  C 8.80102325581396 32.1544462809917  8.18986046511628 32.1370247933884  7.46511627906977 32.0246280991736  C 4.81925581395349 31.6146611570248  3.37702325581395 30.3302479338843  2.68353488372093 29.7129090909091  C 2.42232558139535 29.4802479338843  2.26493023255814 29.3400330578512  2.05088372093023 29.2591074380165  C 1.95679984240549 29.2235429755594  1.8571252037125 29.2053248409729  1.75662961369217 29.2053248409729  C 1.29425168360127 29.2053248409729  0.919420311366586 29.5827376964874  0.919420311366586 30.0483000475844  C 0.919420311366586 30.3605547035309  1.09084690534733 30.6472298672138  1.36493023255814 30.7933223140496  C 1.41097674418605 30.8304132231405  1.50027906976744 30.9099338842975  1.57423255813953 30.9756859504132  C 2.32353488372093 31.6430413223141  4.07804651162791 33.2059173553719  7.21032558139535 33.6909090909091  C 7.75506976744186 33.7754876033058  8.25544186046512 33.8134214876033  8.71674418604651 33.8134214876033  C 9.99739534883721 33.8134214876033  10.9733023255814 33.5169752066116  11.7566511627907 33.0957685950413  Z M 23.8026976744186 20.494694214876  C 23.8029767441861 18.4538512396694  22.8655813953488 16.9272231404959  21.0923720930233 16.0797520661157  C 19.5092093023256 15.3230413223141  15.3033488372093 14.7950578512397  13.9426046511628 14.6396694214876  C 14.1792558139535 14.1097190082645  14.6941395348837 13.2583140495868  15.0965581395349 12.5926446280992  C 16.2404651162791 10.7010082644628  17.6634418604651 8.3474214876033  17.6634418604651 6.44454545454545  C 17.6634418604651 4.00188429752066  17.1711627906977 2.31930578512397  16.1584186046512 1.30099173553719  C 15.122511627907 0.259355371900826  13.8622325581395 0.262727272727272  13.2491162790698 0.262727272727272  L 13.1980465116279 0.262727272727272  C 11.6369302325581 0.262727272727272  11.5124651162791 1.8095867768595  11.4122790697674 3.0524132231405  C 11.2900465116279 4.56752066115702  11.1231627906977 6.64236363636364  9.2813023255814 8.3541652892562  C 7.69869767441861 9.82515702479339  5.98018604651163 10.9435041322314  4.46372093023256 11.9300661157025  C 2.6093023255814 13.1366446280992  1.008 14.1785619834711  0.166604651162793 15.5261983471074  C 0.0825429440220005 15.6606166377969  0.0379387771890966 15.816226687117  0.0379387771890966 15.9750735176686  C 0.0379387771890966 16.2648205177747  0.185825539768641 16.534233670581  0.429488372093026 16.6883801652893  C 0.563030459684426 16.7732071239371  0.717698615346967 16.8182254322193  0.875594161579996 16.8182254322193  C 1.16328211410511 16.8182254322193  1.43076392829508 16.6693015659679  1.58372093023256 16.4239669421488  C 2.22837209302326 15.3921652892562  3.68539534883721 14.4440991735537  5.3726511627907 13.3462644628099  C 6.94576744186047 12.3228925619835  8.72846511627907 11.1629586776859  10.4171162790698 9.59333884297521  C 12.738976744186 7.43532231404959  12.9449302325581 4.88026446280992  13.0811162790698 3.18925619834711  C 13.1162790697674 2.75512396694215  13.1626046511628 2.17740495867769  13.2482790697674 1.94923966942149  L 13.2519069767442 1.94923966942149  C 13.7458604651163 1.95120661157025  14.4306976744186 1.94727272727273  14.9754418604651 2.49464462809917  C 15.638511627907 3.16143801652893  15.989023255814 4.52733884297521  15.989023255814 6.44510743801653  C 15.989023255814 7.87507438016529  14.7011162790698 10.0049917355372  13.6663255813954 11.7165123966942  C 12.5042790697674 13.6384958677686  11.8026976744186 14.7987107438017  12.3002790697674 15.6728760330579  C 12.4286511627907 15.8987933884298  12.7445581395349 16.2713884297521  13.4333023255814 16.2798181818182  C 14.9704186046512 16.4441983471074  19.0858604651163 16.9873553719008  20.3740465116279 17.6032892561983  C 21.554511627907 18.1678016528926  22.1282790697674 19.1133388429752  22.1282790697674 20.494694214876  C 22.1282790697674 21.8856033057851  20.232 23.0236198347107  19.6166511627907 23.0236198347107  C 19.4620465116279 23.0236198347107  19.3160930232558 23.0682975206612  19.1893953488372 23.1444462809917  C 19.9889302325581 23.4434214876033  20.7206511627907 23.7013719008264  21.1007441860465 24.2852727272727  C 22.4173953488372 23.6187603305785  23.8026976744186 22.2219504132231  23.8026976744186 20.494694214876  Z " fill-rule="nonzero" fill="#555555" stroke="none" fill-opacity="0.988235294117647" transform="matrix(1 0 0 1 1672 10285 )" />
  </g>
</svg>