<?xml version="1.0" encoding="utf-8"?>
<svg version="1.1" xmlns:xlink="http://www.w3.org/1999/xlink" width="14px" height="7px" xmlns="http://www.w3.org/2000/svg">
  <g transform="matrix(1 0 0 1 -1680 -10311 )">
    <path d="M 13.4182857142857 4.81279166666667  C 13.8971428571429 3.969  13.8954285714286 2.93183333333334  13.4134285714286 1.72987499999999  C 13.2818720716278 1.40095602151763  12.968440368484 1.18599189163461  12.6204115733887 1.18599189163461  C 12.5090527327349 1.18599189163461  12.3987623661002 1.2081582015199  12.2957142857143 1.25125  C 11.973540846295 1.38566163441621  11.763017876277 1.70565625824684  11.763017876277 2.06094780703369  C 11.763017876277 2.17456629981622  11.7847015474497 2.28709653701811  11.8268571428571 2.39225  C 12.0968571428571 3.06658333333333  12.1331428571429 3.58545833333333  11.9348571428571 3.934875  C 11.5248571428571 4.65733333333333  10.1071428571429 4.84983333333333  9.50142857142857 4.93208333333333  L 9.42885714285714 4.94170833333333  C 7.46685714285714 5.21208333333333  6.19028571428571 4.77604166666667  4.83828571428571 4.31579166666667  C 4.62057142857143 4.24170833333333  4.40514285714286 4.1685  4.19 4.099375  C 2.92228571428571 3.691625  1.86171428571428 2.83558333333333  1.77485714285714 2.15045833333333  C 1.76634680294268 2.09569122237505  1.76318843006333 2.04019637769205  1.76542857142857 1.98479166666666  C 1.82885714285714 1.932  2.18971428571428 1.694875  3.56371428571428 1.66045833333333  C 5.56114285714285 1.6065  7.51628571428571 2.35433333333333  7.54085714285714 2.36366666666667  C 7.88873716264665 2.49755253828523  8.28149463316307 2.38604923565461  8.51171428571428 2.08804166666667  C 6.58142857142857 1.36675  4.54971428571428 1.017625  2.57199999999999 0.460250000000001  C 2.31342857142857 0.387333333333334  2.164 0.229833333333332  2.09857142857142 0.0463750000000018  C 1.32228571428571 0.191333333333335  0.792285714285709 0.452666666666669  0.45371428571428 0.855458333333335  C -0.04171428571429 1.444625  0.0459999999999923 2.14345833333333  0.0748571428571389 2.373875  C 0.278571428571423 3.98504166666667  2.03 5.23979166666667  3.67542857142857 5.768875  C 3.882 5.835375  4.088 5.90566666666667  4.29657142857143 5.97654166666667  C 5.41 6.35541666666667  6.64057142857143 6.77425  8.26885714285714 6.77425  C 8.702 6.77425  9.16314285714286 6.7445  9.65742857142857 6.67683333333334  L 9.72742857142857 6.66720833333334  C 10.6554285714286 6.54120833333334  12.5862857142857 6.27929166666667  13.4182857142857 4.81279166666667  Z " fill-rule="nonzero" fill="#02a7f0" stroke="none" transform="matrix(1 0 0 1 1680 10311 )" />
  </g>
</svg>