<?xml version="1.0" encoding="utf-8"?>
<svg version="1.1" xmlns:xlink="http://www.w3.org/1999/xlink" width="22px" height="21px" xmlns="http://www.w3.org/2000/svg">
  <g transform="matrix(1 0 0 1 -1786 -10285 )">
    <path d="M 3.91178082191781 16.8265588235294  C 3.78821917808219 16.8265588235294  3.6631506849315 16.7876470588235  3.55556164383562 16.7067352941176  C 1.26123287671233 14.9810294117647  0.237178082191778 12.5224852941176  0.235671232876711 8.73507352941176  C 0.233863013698629 5.30589705882353  0.942082191780821 2.85383823529412  2.67978082191781 0.272073529411765  C 2.79229188996185 0.104895036740622  2.97780822377399 0.005070689840083  3.17598630136986 0.005070689840083  C 3.5088836792861 0.005070689840083  3.77875032485273 0.281611844688776  3.77875032485273 0.622742647058824  C 3.77875032485273 0.748000164406867  3.74158753090918 0.870297670252257  3.67219178082192 0.973411764705883  C 2.06468493150685 3.36092647058823  1.43934246575342 5.53689705882353  1.44115068493151 8.73445588235294  C 1.44235616438356 12.0895147058824  2.31421917808219 14.2410882352941  4.26890410958904 15.7110882352941  C 4.42353808963334 15.8274579390423  4.51487296880552 16.012313297138  4.51487296880552 16.208911870284  C 4.51487296880552 16.5500289216501  4.24501720158025 16.8265589291075  3.91213324277812 16.8265589291075  Z M 21.6139452054795 16.72125  C 21.5913424657534 16.7231029411765  21.5711506849315 16.7280441176471  21.5479452054795 16.7280441176471  L 19.755095890411 16.7280441176471  C 19.9440547945205 17.3657647058824  19.9437534246575 17.8592647058824  19.7496712328767 18.1924852941176  C 19.4079178082192 18.77925  18.435397260274 18.9574411764706  17.9679726027397 19.0432941176471  L 17.9092054794521 19.0541029411765  C 16.4291780821918 19.3261764705882  15.4584657534247 18.9497205882353  14.4304931506849 18.5501029411765  C 14.256 18.4824705882353  14.0833150684932 18.4154558823529  13.9106301369863 18.3521470588235  C 12.9631232876712 18.0053382352941  12.2060821917808 17.2694117647059  12.1500273972603 16.6412647058823  C 12.1432400892416 16.5818194446065  12.1418276922767 16.5218586616919  12.1458082191781 16.4621470588235  C 12.2024657534247 16.4176764705882  12.4806301369863 16.2453529411765  13.4070410958904 16.1981029411765  C 14.9051506849315 16.1218235294118  16.3875890410959 16.7598529411765  16.4231506849315 16.7752941176471  C 16.7514160458616 16.9208510717166  17.1325846357968 16.8541167045043  17.3950684931507 16.6051323529412  C 15.7700821917808 16.3593088235294  14.2855342465753 15.6209117647059  12.759095890411 15.0020294117647  C 12.5287589376668 14.9130255176817  12.3541095391639 14.7161367141504  12.2895616438356 14.4727058823529  C 11.594 14.6153823529412  11.0973424657534 14.8704705882353  10.7694520547945 15.2571176470588  C 10.2646575342466 15.8528382352941  10.3264383561644 16.5476911764706  10.3496438356164 16.8092647058823  C 10.4897808219178 18.3848823529412  11.9333424657534 19.5957794117647  13.3024657534247 20.097  C 13.464301369863 20.1559852941176  13.6258356164384 20.2192941176471  13.7891780821918 20.2826029411765  C 14.6318082191781 20.6102647058823  15.6317534246575 20.9984558823529  16.9412054794521 20.9984558823529  C 17.3734332411265 20.9975214545205  17.8047100495403 20.9569031753601  18.2298630136986 20.8770882352941  L 18.2862191780822 20.8668970588235  C 18.9600821917808 20.7433676470588  20.5380547945205 20.4543088235294  21.3023287671233 19.1421176470588  C 21.6953150684932 18.4676470588235  21.7959726027397 17.6542058823529  21.6139452054795 16.72125  Z " fill-rule="nonzero" fill="#02a7f0" stroke="none" transform="matrix(1 0 0 1 1786 10285 )" />
  </g>
</svg>