<?xml version="1.0" encoding="utf-8"?>
<svg version="1.1" xmlns:xlink="http://www.w3.org/1999/xlink" width="14px" height="7px" xmlns="http://www.w3.org/2000/svg">
  <g transform="matrix(1 0 0 1 -1680 -10307 )">
    <path d="M 13.5003921568627 4.90554166666667  C 13.9401568627451 4.05416666666667  13.9074901960784 3.02429166666667  13.4026666666667 1.84420833333333  C 13.2690192240326 1.53178456055679  12.9758363762834 1.33119513634321  12.6528431372549 1.33119513634321  C 12.1979593967751 1.33119513634321  11.8292032655779 1.72299852574022  11.8292032655779 2.2063125  C 11.8292032655779 2.3312281282135  11.8543727203188 2.45469624048692  11.9030196078431 2.56841666666667  C 12.1813725490196 3.21854166666667  12.2329803921569 3.721375  12.0567450980392 4.062625  C 11.6696862745098 4.81104166666667  10.212862745098 5.02833333333334  9.59109803921569 5.12079166666667  L 9.51807843137255 5.13158333333334  C 7.53035294117647 5.43083333333333  6.16466666666667 4.99070833333333  4.84372549019608 4.56575  C 4.62329411764706 4.494875  4.40533333333334 4.424875  4.18709803921569 4.358375  C 2.88701960784314 3.96375000000001  1.78843137254902 3.11733333333334  1.68603921568628 2.43191666666667  C 1.67805638630462 2.38433636069056  1.67365031860579 2.3361564693693  1.67286274509804 2.28783333333334  C 1.74835294117647 2.22570833333334  2.12992156862745 1.98333333333334  3.50850980392157 1.92995833333333  C 5.53549019607843 1.85266666666667  7.54105882352941 2.57570833333333  7.56137254901961 2.583  C 7.64781689576984 2.61474170323382  7.73863773086027 2.63094587101176  7.83009872515527 2.63094587101176  C 8.18103108831525 2.63094587101176  8.49333063287656 2.39442881979806  8.60780392156863 2.04195833333333  C 8.63552941176471 1.9565  8.64623529411765 1.869875  8.64898039215686 1.784125  C 8.63662745098039 1.784125  8.62592156862745 1.78704166666667  8.61329411764706 1.78645833333333  C 7.01784313725491 1.72316666666667  5.62443137254902 0.792750000000001  4.04956862745098 0.692708333333333  C 3.71576470588236 0.671416666666669  3.50878431372549 0.448  3.42752941176471 0.182291666666667  C 1.81423529411765 0.247041666666665  0.875411764705884 0.557958333333332  0.385960784313727 1.18941666666667  C -0.0771372549019585 1.78675  0.0255294117647068 2.47770833333334  0.0592941176470611 2.70520833333334  C 0.315411764705887 4.42195833333333  2.19937254901961 5.57520833333334  3.73498039215687 6.04129166666667  C 3.94498039215687 6.104875  4.15443137254902 6.17254166666667  4.36662745098039 6.24079166666667  C 5.46054901960785 6.59283333333333  6.66674509803922 6.98104166666667  8.23337254901961 6.98104166666667  C 8.70388235294118 6.98104166666667  9.20705882352941 6.94604166666667  9.74921568627451 6.86466666666667  L 9.82003921568628 6.85416666666667  C 10.7599607843137 6.71416666666667  12.7161176470588 6.42279166666667  13.5003921568627 4.90554166666667  Z " fill-rule="nonzero" fill="#555555" stroke="none" fill-opacity="0.988235294117647" transform="matrix(1 0 0 1 1680 10307 )" />
  </g>
</svg>