<?xml version="1.0" encoding="utf-8"?>
<svg version="1.1" xmlns:xlink="http://www.w3.org/1999/xlink" width="11px" height="23px" xmlns="http://www.w3.org/2000/svg">
  <g transform="matrix(1 0 0 1 -1683 -10288 )">
    <path d="M 10.2886666666667 22.3526341463415  C 9.3748205128205 22.7416707317073  8.46492307692307 22.875743902439  7.59282051282051 22.875743902439  C 6.52074358974359 22.875743902439  5.50592307692308 22.673512195122  4.61153846153846 22.4956829268293  C 4.4561282051282 22.4648292682927  4.30353846153846 22.434256097561  4.15376923076923 22.4059268292683  C 2.54241025641026 22.0971097560976  0.516153846153842 21.1611219512195  0.108307692307688 19.5396219512195  C 0.0544358974358928 19.3250487804878  -0.109435897435903 18.6723536585366  0.31364102564102 18.0586463414634  C 0.762948717948713 17.4067926829268  1.70330769230769 17.0242073170732  3.36289743589743 16.8177682926829  C 5.74876923076922 16.5210121951219  8.0872564102564 17.0923658536585  8.18597435897435 17.1167682926829  C 8.56267588357207 17.2104055484759  8.82694842512093 17.5469893183297  8.82694842512093 17.9331280487805  C 8.82694842512093 18.39786234072  8.44810683537288 18.7746039216557  7.98078205128204 18.7746039216557  C 7.91160940366148 18.7746039216557  7.84269774699236 18.7661689406581  7.77558974358973 18.7494878048781  C 7.75528205128204 18.7447195121951  5.63735897435896 18.2308658536585  3.57302564102563 18.487512195122  C 2.16728205128204 18.662256097561  1.79694871794871 18.9287195121951  1.72446153846153 18.9951951219512  C 1.72643589743589 19.0179146341463  1.73235897435897 19.0594268292683  1.75041025641025 19.1317926829268  C 1.91343589743589 19.7797195121951  3.10961538461537 20.4918780487805  4.47417948717947 20.753012195122  C 4.62789743589742 20.782743902439  4.78471794871794 20.8138780487805  4.94379487179486 20.8455731707317  C 6.40905128205127 21.1367195121951  8.06920512820512 21.4676951219512  9.62189743589742 20.805743902439  C 10.0515270492628 20.6233746212449  10.5485413756883 20.8210783244838  10.7331794871795 21.2477926829268  C 10.9172177729743 21.6749547136617  10.7182046136433 22.1696040916938  10.2886666666667 22.3526341463415  Z M 3.77864102564103 3.40736585365854  C 3.28251282051282 4.11223170731707  2.41858974358974 4.46957317073171  1.2111282051282 4.46957317073171  C 0.899582961633909 4.46957317073171  0.64702564102564 4.21841583527093  0.64702564102564 3.90859756097561  C 0.64702564102564 3.59877928668029  0.899582961633909 3.34762195121951  1.2111282051282 3.34762195121951  C 2.02907692307692 3.34762195121951  2.58189743589743 3.15128048780488  2.85492307692308 2.76392682926829  C 3.31720512820513 2.10730487804878  2.94151282051282 1.02574390243902  2.93728205128205 1.01508536585366  C 2.91477977320077 0.953596197220234  2.90326834197 0.888666195721313  2.90326834197 0.823231707317073  C 2.90326834197 0.513398862223668  3.15583754038545 0.262229714797222  3.46739743589743 0.262229714797222  C 3.70456436607344 0.262229714797222  3.91640554487948 0.409746313060143  3.99751282051282 0.631378048780488  C 4.02176923076923 0.697573170731707  4.58164102564103 2.26746341463415  3.77864102564103 3.40736585365854  Z " fill-rule="nonzero" fill="#555555" stroke="none" fill-opacity="0.988235294117647" transform="matrix(1 0 0 1 1683 10288 )" />
  </g>
</svg>