<?xml version="1.0" encoding="utf-8"?>
<svg version="1.1" xmlns:xlink="http://www.w3.org/1999/xlink" width="26px" height="36px" xmlns="http://www.w3.org/2000/svg">
  <g transform="matrix(1 0 0 1 -1781 -10285 )">
    <path d="M 12.7363720930233 35.0425785123967  C 11.9073953488372 34.8239008264463  11.1047209302326 34.4186776859504  10.1076511627907 33.9902479338843  C 9.53444186046512 34.0458842975207  8.87234883720931 34.0274380165289  8.08720930232558 33.9084297520661  C 5.22086046511628 33.474347107438  3.65844186046512 32.1143801652893  2.90716279069767 31.4607272727273  C 2.62418604651163 31.2143801652893  2.45367441860465 31.0659173553719  2.22179069767442 30.9802314049587  C 2.11986649593928 30.9425749152982  2.0118856373552 30.923285125736  1.90301541483318 30.923285125736  C 1.40210599056804 30.923285125736  0.996038670647135 31.3228987374573  0.996038670647135 31.8158471092071  C 0.996038670647135 32.1464696860916  1.18175081412628 32.4500080946969  1.47867441860465 32.604694214876  C 1.52855813953488 32.6439669421488  1.62530232558139 32.7281652892562  1.70541860465116 32.7977851239669  C 2.51716279069767 33.5043966942149  4.41788372093023 35.1592066115702  7.81118604651163 35.6727272727273  C 8.40132558139535 35.7622809917355  8.94339534883721 35.8024462809917  9.44313953488372 35.8024462809917  C 10.830511627907 35.8024462809917  11.8877441860465 35.4885619834711  12.7363720930233 35.0425785123967  Z M 25.7862558139535 21.7002644628099  C 25.7865581395349 19.5393719008264  24.7710465116279 17.9229421487603  22.8500697674419 17.0256198347107  C 21.134976744186 16.2243966942149  16.5786279069767 15.6653553719008  15.104488372093 15.500826446281  C 15.3608604651163 14.9397024793388  15.9186511627907 14.0382148760331  16.3546046511628 13.3333884297521  C 17.5938372093023 11.330479338843  19.1353953488372 8.83844628099173  19.1353953488372 6.82363636363636  C 19.1353953488372 4.23728925619835  18.6020930232558 2.45573553719008  17.5049534883721 1.37752066115702  C 16.3827209302326 0.274611570247934  15.0174186046512 0.278181818181818  14.3532093023256 0.278181818181818  L 14.2978837209302 0.278181818181818  C 12.6066744186047 0.278181818181818  12.4718372093023 1.91603305785124  12.3633023255814 3.23196694214876  C 12.2308837209302 4.83619834710744  12.0500930232558 7.03309090909091  10.0547441860465 8.8455867768595  C 8.34025581395349 10.4031074380165  6.47853488372093 11.5872396694215  4.83569767441861 12.6318347107438  C 2.82674418604651 13.9093884297521  1.092 15.0125950413223  0.180488372093026 16.4395041322314  C 0.0894215226905006 16.5818293811968  0.0411003419548546 16.7465929628298  0.0411003419548546 16.9147837245902  C 0.0411003419548546 17.2215746658791  0.201311001416028 17.5068356512034  0.465279069767444 17.6700495867769  C 0.609949664658128 17.7598663665217  0.777506833292548 17.8075328105852  0.948560341711663 17.8075328105852  C 1.26022229028054 17.8075328105852  1.549994255653 17.6498487169072  1.71569767441861 17.3900826446281  C 2.41406976744186 16.2975867768595  3.99251162790698 15.2937520661157  5.82037209302326 14.1313388429752  C 7.52458139534884 13.0477685950413  9.45583720930233 11.8196033057851  11.2852093023256 10.157652892562  C 13.8005581395349 7.87269421487603  14.0236744186046 5.16733884297521  14.1712093023256 3.37685950413223  C 14.2093023255814 2.91719008264463  14.259488372093 2.30548760330578  14.3523023255814 2.06390082644628  L 14.3562325581395 2.06390082644628  C 14.8913488372093 2.06598347107438  15.6332558139535 2.06181818181818  16.2233953488372 2.64138842975207  C 16.9417209302326 3.34740495867769  17.3214418604651 4.79365289256198  17.3214418604651 6.82423140495868  C 17.3214418604651 8.33831404958678  15.9262093023256 10.593520661157  14.8051860465116 12.4057190082645  C 13.5463023255814 14.4407603305785  12.7862558139535 15.6692231404959  13.3253023255814 16.5948099173554  C 13.4643720930233 16.8340165289256  13.8066046511628 17.2285289256198  14.5527441860465 17.2374545454545  C 16.2179534883721 17.4115041322314  20.6763488372093 17.9866115702479  22.0718837209302 18.6387768595041  C 23.3507209302326 19.2364958677686  23.9723023255814 20.237652892562  23.9723023255814 21.7002644628099  C 23.9723023255814 23.1729917355372  21.918 24.3779504132231  21.2513720930233 24.3779504132231  C 21.0838837209302 24.3779504132231  20.9257674418605 24.4252561983471  20.788511627907 24.5058842975207  C 21.6546744186047 24.8224462809917  22.4473720930233 25.0955702479339  22.8591395348837 25.7138181818182  C 24.285511627907 25.0080991735537  25.7862558139535 23.5291239669421  25.7862558139535 21.7002644628099  Z " fill-rule="nonzero" fill="#555555" stroke="none" transform="matrix(1 0 0 1 1781 10285 )" />
  </g>
</svg>