<?xml version="1.0" encoding="utf-8"?>
<svg version="1.1" xmlns:xlink="http://www.w3.org/1999/xlink" width="11px" height="16px" xmlns="http://www.w3.org/2000/svg">
  <g transform="matrix(1 0 0 1 -1663 -10300 )">
    <path d="M 4.293025 15.9295438596491  L 4.2812 15.9295438596491  C 3.173775 15.9295438596491  2.143075 15.0515087719298  1.378025 13.4557192982456  C 0.677875 11.9943859649123  0.286 10.0931929824561  0.275 8.10301754385965  C 0.2585 5.13459649122807  1.12915 2.31157894736842  2.493425 0.911438596491228  C 3.047825 0.342456140350877  3.6685 0.0415438596491217  4.288625 0.0415438596491217  C 4.844675 0.0415438596491217  5.33005 0.0429473684210523  5.806075 0.0443508771929808  C 6.727875 0.0465964912280693  7.61585 0.0494035087719284  8.922375 0.0415438596491217  L 8.92705 0.0415438596491217  C 8.92782916471209 0.0415416062434672  8.92860833216043 0.0415404795389445  8.9293875 0.0415404795389445  C 9.38502424747467 0.0415404795389445  9.75439081145169 0.418565361429361  9.75439081145169 0.883649122807016  C 9.75439081145169 1.34780137882882  9.38644733812008 1.72443929318481  8.931725 1.72575438596491  C 7.62025 1.73333333333333  6.72815 1.73108771929824  5.801675 1.72856140350877  C 5.327025 1.72715789473684  4.8433 1.72575438596491  4.288625 1.72575438596491  C 4.12225 1.72575438596491  3.894275 1.86161403508772  3.663275 2.09880701754386  C 2.8149 2.9701052631579  1.90905 5.21712280701754  1.925 8.09347368421053  C 1.934625 9.83550877192983  2.266825 11.4773333333333  2.860275 12.7155087719298  C 3.366825 13.7729122807018  3.938825 14.2453333333333  4.28175 14.2453333333333  L 4.284225 14.2453333333333  C 4.43905 14.2442105263158  9.856825 14.2453333333333  9.856825 14.2453333333333  L 10.956825 15.9295438596491  C 10.9571 15.9295438596491  4.448125 15.928701754386  4.293025 15.9295438596491  Z " fill-rule="nonzero" fill="#02a7f0" stroke="none" transform="matrix(1 0 0 1 1663 10300 )" />
  </g>
</svg>