<?xml version="1.0" encoding="utf-8"?>
<svg version="1.1" xmlns:xlink="http://www.w3.org/1999/xlink" width="15px" height="7px" xmlns="http://www.w3.org/2000/svg">
  <g transform="matrix(1 0 0 1 -1782 -10291 )">
    <path d="M 14.4647058823529 4.90554166666667  C 14.9358823529412 4.05416666666667  14.9008823529412 3.02429166666667  14.36 1.84420833333333  C 14.2168063114635 1.53178456055679  13.9026818317322 1.33119513634321  13.5566176470588 1.33119513634321  C 13.0692422108305 1.33119513634321  12.6741463559763 1.72299852574022  12.6741463559763 2.2063125  C 12.6741463559763 2.3312281282135  12.701113628913 2.45469624048692  12.7532352941176 2.56841666666667  C 13.0514705882353 3.21854166666667  13.1067647058824 3.721375  12.9179411764706 4.062625  C 12.5032352941176 4.81104166666667  10.9423529411765 5.02833333333334  10.2761764705882 5.12079166666667  L 10.1979411764706 5.13158333333334  C 8.06823529411765 5.43083333333333  6.605 4.99070833333333  5.18970588235294 4.56575  C 4.95352941176471 4.494875  4.72000000000001 4.424875  4.48617647058824 4.358375  C 3.09323529411765 3.96375000000001  1.91617647058824 3.11733333333334  1.8064705882353 2.43191666666667  C 1.79791755675495 2.38433636069056  1.79319676993478 2.3361564693693  1.79235294117647 2.28783333333334  C 1.87323529411765 2.22570833333334  2.28205882352942 1.98333333333334  3.75911764705883 1.92995833333333  C 5.93088235294118 1.85266666666667  8.07970588235294 2.57570833333333  8.1014705882353 2.583  C 8.19408953118197 2.61474170323382  8.29139756877886 2.63094587101176  8.38939149123779 2.63094587101176  C 8.76539045176634 2.63094587101176  9.09999710665346 2.39442881979806  9.22264705882353 2.04195833333333  C 9.25235294117647 1.9565  9.26382352941176 1.869875  9.26676470588235 1.784125  C 9.25352941176471 1.784125  9.24205882352941 1.78704166666667  9.22852941176471 1.78645833333333  C 7.51911764705883 1.72316666666667  6.02617647058824 0.792750000000001  4.33882352941177 0.692708333333333  C 3.98117647058824 0.671416666666669  3.75941176470589 0.448  3.67235294117647 0.182291666666667  C 1.94382352941177 0.247041666666665  0.93794117647059 0.557958333333332  0.413529411764708 1.18941666666667  C -0.082647058823527 1.78675  0.0273529411764716 2.47770833333334  0.0635294117647083 2.70520833333334  C 0.337941176470593 4.42195833333333  2.3564705882353 5.57520833333334  4.00176470588236 6.04129166666667  C 4.22676470588236 6.104875  4.45117647058824 6.17254166666667  4.67852941176471 6.24079166666667  C 5.85058823529412 6.59283333333333  7.14294117647059 6.98104166666667  8.8214705882353 6.98104166666667  C 9.32558823529412 6.98104166666667  9.86470588235294 6.94604166666667  10.4455882352941 6.86466666666667  L 10.5214705882353 6.85416666666667  C 11.5285294117647 6.71416666666667  13.6244117647059 6.42279166666667  14.4647058823529 4.90554166666667  Z " fill-rule="nonzero" fill="#02a7f0" stroke="none" transform="matrix(1 0 0 1 1782 10291 )" />
  </g>
</svg>