<?xml version="1.0" encoding="utf-8"?>
<svg version="1.1" xmlns:xlink="http://www.w3.org/1999/xlink" width="13px" height="17px" xmlns="http://www.w3.org/2000/svg">
  <g transform="matrix(1 0 0 1 -1803 -10289 )">
    <path d="M 5.073575 16.9251403508772  L 5.0596 16.9251403508772  C 3.750825 16.9251403508772  2.532725 15.9922280701754  1.628575 14.296701754386  C 0.801125 12.7440350877193  0.338 10.7240175438596  0.325 8.60945614035088  C 0.3055 5.45550877192983  1.33445 2.45605263157895  2.946775 0.96840350877193  C 3.601975 0.363859649122807  4.3355 0.0441403508771918  5.068375 0.0441403508771918  C 5.725525 0.0441403508771918  6.29915 0.045631578947368  6.861725 0.0471228070175421  C 7.951125 0.0495087719298236  9.00055 0.0524912280701739  10.544625 0.0441403508771918  L 10.55015 0.0441403508771918  C 10.5510708310234 0.0441379566336838  10.5519916652805 0.0441367595101286  10.5529125 0.0441367595101286  C 11.0913922924701 0.0441367595101286  11.5279164135338 0.444725696518696  11.5279164135338 0.938877192982455  C 11.5279164135338 1.43203896500562  11.0930741268692 1.83221674900886  10.555675 1.83361403508772  C 9.00575 1.84166666666667  7.95145 1.83928070175438  6.856525 1.83659649122807  C 6.295575 1.83510526315789  5.7239 1.83361403508772  5.068375 1.83361403508772  C 4.87175 1.83361403508772  4.602325 1.9779649122807  4.329325 2.22998245614035  C 3.3267 3.15573684210526  2.25615 5.54319298245614  2.275 8.59931578947368  C 2.286375 10.4502280701754  2.678975 12.1946666666667  3.380325 13.5102280701754  C 3.978975 14.6337192982456  4.654975 15.1356666666667  5.06025 15.1356666666667  L 5.063175 15.1356666666667  C 5.24615 15.1344736842105  11.648975 15.1356666666667  11.648975 15.1356666666667  L 12.948975 16.9251403508772  C 12.9493 16.9251403508772  5.256875 16.9242456140351  5.073575 16.9251403508772  Z " fill-rule="nonzero" fill="#02a7f0" stroke="none" transform="matrix(1 0 0 1 1803 10289 )" />
  </g>
</svg>