<?xml version="1.0" encoding="utf-8"?>
<svg version="1.1" xmlns:xlink="http://www.w3.org/1999/xlink" width="12px" height="24px" xmlns="http://www.w3.org/2000/svg">
  <g transform="matrix(1 0 0 1 -1784 -10295 )">
    <path d="M 11.224 23.3244878048781  C 10.2270769230769 23.7304390243902  9.23446153846153 23.8703414634146  8.28307692307692 23.8703414634146  C 7.11353846153846 23.8703414634146  6.00646153846154 23.6593170731707  5.03076923076923 23.473756097561  C 4.86123076923077 23.4415609756098  4.69476923076923 23.4096585365854  4.53138461538461 23.3800975609756  C 2.77353846153846 23.0578536585366  0.563076923076918 22.0811707317073  0.118153846153842 20.3891707317073  C 0.0593846153846103 20.1652682926829  -0.119384615384621 19.4841951219512  0.34215384615384 18.8438048780488  C 0.832307692307687 18.1636097560976  1.85815384615384 17.7643902439024  3.66861538461538 17.5489756097561  C 6.27138461538461 17.2393170731707  8.82246153846153 17.835512195122  8.93015384615384 17.8609756097561  C 9.34110096389681 17.9586840505836  9.6293982819501 18.3099018973875  9.6293982819501 18.7128292682927  C 9.6293982819501 19.1977693990122  9.21611654767951 19.5908910486843  8.70630769230769 19.5908910486843  C 8.63084662217616 19.5908910486843  8.55567026944621 19.5820893293824  8.48246153846153 19.5646829268293  C 8.46030769230768 19.5597073170732  6.14984615384614 19.023512195122  3.89784615384614 19.2913170731707  C 2.36430769230768 19.4736585365854  1.96030769230768 19.7517073170732  1.88123076923076 19.8210731707317  C 1.88338461538461 19.8447804878049  1.88984615384614 19.8880975609756  1.90953846153845 19.9636097560976  C 2.0873846153846 20.6397073170732  3.39230769230768 21.3828292682927  4.88092307692306 21.6553170731707  C 5.04861538461537 21.6863414634146  5.21969230769229 21.7188292682927  5.39323076923076 21.7519024390244  C 6.99169230769229 22.0557073170732  8.80276923076922 22.4010731707317  10.4966153846154 21.7103414634146  C 10.9653022355594 21.5200430830382  11.507499682569 21.7263425994613  11.7089230769231 22.1716097560976  C 11.9096921159719 22.6173440490383  11.6925868512473 23.1334999217675  11.224 23.3244878048781  Z M 4.12215384615385 3.55551219512195  C 3.58092307692308 4.2910243902439  2.63846153846154 4.66390243902439  1.32123076923077 4.66390243902439  C 0.981363230873355 4.66390243902439  0.705846153846153 4.40182521941315  0.705846153846153 4.07853658536585  C 0.705846153846153 3.75524795131856  0.981363230873355 3.49317073170732  1.32123076923077 3.49317073170732  C 2.21353846153846 3.49317073170732  2.81661538461538 3.28829268292683  3.11446153846154 2.88409756097561  C 3.61876923076923 2.19892682926829  3.20892307692308 1.07034146341463  3.20430769230769 1.05921951219512  C 3.17975975258266 0.995056901447201  3.16720182760364 0.927303856404848  3.16720182760364 0.859024390243902  C 3.16720182760364 0.535720551885567  3.44273186223867 0.273631006744928  3.78261538461538 0.273631006744928  C 4.04134294480738 0.273631006744928  4.2724424125958 0.427561370149714  4.36092307692308 0.658829268292683  C 4.38738461538462 0.72790243902439  4.99815384615385 2.3660487804878  4.12215384615385 3.55551219512195  Z " fill-rule="nonzero" fill="#02a7f0" stroke="none" transform="matrix(1 0 0 1 1784 10295 )" />
  </g>
</svg>