<?xml version="1.0" encoding="utf-8"?>
<svg version="1.1" xmlns:xlink="http://www.w3.org/1999/xlink" width="300px" height="59px" xmlns="http://www.w3.org/2000/svg">
  <g transform="matrix(1 0 0 1 -10 -31 )">
    <path d="M 11 36  A 4 4 0 0 1 15 32 L 305 32  A 4 4 0 0 1 309 36 L 309 85  A 4 4 0 0 1 305 89 L 15 89  A 4 4 0 0 1 11 85 L 11 36  Z " fill-rule="nonzero" fill="#ffffff" stroke="none" />
    <path d="M 10.5 36  A 4.5 4.5 0 0 1 15 31.5 L 305 31.5  A 4.5 4.5 0 0 1 309.5 36 L 309.5 85  A 4.5 4.5 0 0 1 305 89.5 L 15 89.5  A 4.5 4.5 0 0 1 10.5 85 L 10.5 36  Z " stroke-width="1" stroke="#555555" fill="none" stroke-opacity="0.549019607843137" />
  </g>
</svg>