<?xml version="1.0" encoding="utf-8"?>
<svg version="1.1" xmlns:xlink="http://www.w3.org/1999/xlink" width="262px" height="79px" xmlns="http://www.w3.org/2000/svg">
  <defs>
    <mask fill="white" id="clip248">
      <path d="M 0 11  L 16.8567781539889 11  L 30 0.664424369855528  L 43.1402862274138 11  L 262 11  L 262 79  L 0 79  L 0 11  Z " fill-rule="evenodd" />
    </mask>
  </defs>
  <g transform="matrix(1 0 0 1 -696 -114 )">
    <path d="M 0 11  L 16.8567781539889 11  L 30 0.664424369855528  L 43.1402862274138 11  L 262 11  L 262 79  L 0 79  L 0 11  Z " fill-rule="nonzero" fill="#000000" stroke="none" fill-opacity="0.8" transform="matrix(1 0 0 1 696 114 )" />
    <path d="M 0 11  L 16.8567781539889 11  L 30 0.664424369855528  L 43.1402862274138 11  L 262 11  L 262 79  L 0 79  L 0 11  Z " stroke-width="2" stroke="#797979" fill="none" transform="matrix(1 0 0 1 696 114 )" mask="url(#clip248)" />
  </g>
</svg>