<?xml version="1.0" encoding="utf-8"?>
<svg version="1.1" xmlns:xlink="http://www.w3.org/1999/xlink" width="67px" height="67px" xmlns="http://www.w3.org/2000/svg">
  <g transform="matrix(1 0 0 1 -537 -106 )">
    <path d="M 32.5598177292411 16.026399977567  C 26.5695479674804 16.026399977567  21.713474853404 20.8824730916433  21.713474853404 26.872742853404  C 21.713474853404 32.8630126151647  26.5695479674804 37.7190857292411  32.5598177292411 37.7190857292411  C 38.5500874910018 37.7190857292411  43.4061606050781 32.8630126151647  43.4061606050781 26.872742853404  C 43.4061606050781 20.8824730916433  38.5500874910018 16.026399977567  32.5598177292411 16.026399977567  Z M 51.9477034210938 53.8526857441964  C 50.9369605415179 46.1419429020089  44.2484462483259 42.0606857292411  32.5598177292411 42.0606857292411  C 20.8711891428571 42.0606857292411  14.1826748496652 46.1419429020089  13.1642748795759 53.8526857441964  C 24.041970816072 64.1489914524838  41.0700074845976 64.1489914524838  51.9477034210938 53.8526857441964  Z M 33.2413034285714 65.9241714136161  L 32.5598177292411 65.9241714136161  C 32.5575881791032 65.9241718718636  32.5553586289489 65.9241721009873  32.5531290787639 65.9241721009873  C 14.5802053463226 65.9241721009873  0.0102719059960856 51.3542386606608  0.0102719059960856 33.3813149282194  C 0.0102719059960856 24.8594196990425  3.35305715289316 16.677541378862  9.32038912790179 10.5936571428571  C 15.264412664173 4.4998969683927  23.3709397023272 0.994817904632018  31.8821605415179 0.838457135379465  L 32.5598177292411 0.838457135379465  C 50.5323629714735 0.838992380473545  65.1017057346258 15.4087690435132  65.1017057346258 33.3813142937158  C 65.1017057346258 41.9032091965702  61.7589207430533 50.0850872302545  55.7915891727679 56.1689714061384  C 49.8501395204188 62.2596150347045  41.7484319167683 65.7643944850516  33.2413034285714 65.9241714136161  Z " fill-rule="nonzero" fill="#aaaaaa" stroke="none" transform="matrix(1 0 0 1 537 106 )" />
  </g>
</svg>