<?xml version="1.0" encoding="utf-8"?>
<svg version="1.1" xmlns:xlink="http://www.w3.org/1999/xlink" width="53px" height="53px" xmlns="http://www.w3.org/2000/svg">
  <g transform="matrix(1 0 0 1 -89 -93 )">
    <path d="M 25.7562737261161 12.6775999822545  C 21.0177021235293 12.6775999822545  17.1763308541853 16.5189712515985  17.1763308541853 21.2575428541853  C 17.1763308541853 25.9961144567721  21.0177021235293 29.8374857261161  25.7562737261161 29.8374857261161  C 30.4948453287029 29.8374857261161  34.3362165980469 25.9961144567721  34.3362165980469 21.2575428541853  C 34.3362165980469 16.5189712515985  30.4948453287029 12.6775999822545  25.7562737261161 12.6775999822545  Z M 41.0929594226563 42.5998857379464  C 40.2934165477679 36.5003428926339  35.0025022561384 33.2718857261161  25.7562737261161 33.2718857261161  C 16.5100451428571 33.2718857261161  11.2191308512277 36.5003428926339  10.4135308748884 42.5998857379464  C 19.0182754216689 50.7447245818155  32.4882148758757 50.7447245818155  41.0929594226563 42.5998857379464  Z M 26.2953594285714 52.1489714167411  L 25.7562737261161 52.1489714167411  C 25.7545100521265 52.1489717792353  25.7527463781237 52.1489719604825  25.7509827040969 52.1489719604825  C 11.5335952739567 52.1489719604825  0.00812553757899305 40.6235022241048  0.00812553757899305 26.4061147939646  C 0.00812553757899305 19.6649140902873  2.65241834482594 13.192681986264  7.37284513102679 8.38005714285714  C 12.0748338985249 3.55961998992258  18.4874597645275 0.786945506649208  25.2202165477679 0.663257136941965  L 25.7562737261161 0.663257136941965  C 39.9733617535537 0.66368053977758  51.4983642378383 12.1890262583015  51.4983642378383 26.4061142920439  C 51.4983642378383 33.1473147375854  48.8540716325645 39.6195466149775  44.1336451665179 44.4321714108259  C 39.4336924564507 49.2501432364081  33.0248789789361 52.0225807120557  26.2953594285714 52.1489714167411  Z " fill-rule="nonzero" fill="#aaaaaa" stroke="none" transform="matrix(1 0 0 1 89 93 )" />
  </g>
</svg>