<?xml version="1.0" encoding="utf-8"?>
<svg version="1.1" xmlns:xlink="http://www.w3.org/1999/xlink" width="55px" height="22px" xmlns="http://www.w3.org/2000/svg">
  <g transform="matrix(1 0 0 1 -519 -324 )">
    <path d="M 520 326  A 1 1 0 0 1 521 325 L 572 325  A 1 1 0 0 1 573 326 L 573 344  A 1 1 0 0 1 572 345 L 521 345  A 1 1 0 0 1 520 344 L 520 326  Z " fill-rule="nonzero" fill="#ffffff" stroke="none" fill-opacity="0" />
    <path d="M 519.5 326  A 1.5 1.5 0 0 1 521 324.5 L 572 324.5  A 1.5 1.5 0 0 1 573.5 326 L 573.5 344  A 1.5 1.5 0 0 1 572 345.5 L 521 345.5  A 1.5 1.5 0 0 1 519.5 344 L 519.5 326  Z " stroke-width="1" stroke="#02a7f0" fill="none" stroke-opacity="0.749019607843137" />
  </g>
</svg>