<?xml version="1.0" encoding="utf-8"?>
<svg version="1.1" xmlns:xlink="http://www.w3.org/1999/xlink" width="18px" height="7px" xmlns="http://www.w3.org/2000/svg">
  <g transform="matrix(1 0 0 1 -505 -133 )">
    <path d="M 17.9044247787611 4.6780487804878  C 17.8407079646018 5.90731707317073  16.9486725663717 6.93170731707317  15.8017699115044 7  L 2.03893805309735 7  C 0.95575221238938 6.93170731707317  0 5.90731707317073  0 4.6780487804878  L 0 0.785365853658536  C 0 0.375609756097559  0.254867256637168 0.102439024390243  0.63716814159292 0.102439024390243  C 1.01946902654867 0.102439024390243  1.27433628318584 0.375609756097559  1.27433628318584 0.785365853658536  L 1.27433628318584 4.6780487804878  C 1.27433628318584 5.15609756097561  1.5929203539823 5.56585365853658  2.03893805309735 5.56585365853658  L 15.8654867256637 5.56585365853658  C 16.2477876106195 5.56585365853658  16.6300884955752 5.15609756097561  16.6300884955752 4.6780487804878  L 16.6300884955752 0.785365853658536  C 16.6300884955752 0.375609756097559  16.8849557522124 0.102439024390243  17.2672566371681 0.102439024390243  C 17.6495575221239 0.102439024390243  17.9044247787611 0.375609756097559  17.9044247787611 0.785365853658536  L 17.9044247787611 4.6780487804878  Z " fill-rule="nonzero" fill="#ffffff" stroke="none" transform="matrix(1 0 0 1 505 133 )" />
  </g>
</svg>