<?xml version="1.0" encoding="utf-8"?>
<svg version="1.1" xmlns:xlink="http://www.w3.org/1999/xlink" width="56px" height="22px" xmlns="http://www.w3.org/2000/svg">
  <g transform="matrix(1 0 0 1 -486 -120 )">
    <path d="M 487 130  A 9 9 0 0 1 496 121 L 532 121  A 9 9 0 0 1 541 130 L 541 132  A 9 9 0 0 1 532 141 L 496 141  A 9 9 0 0 1 487 132 L 487 130  Z " fill-rule="nonzero" fill="#ffffff" stroke="none" fill-opacity="0.498039215686275" />
    <path d="M 486.5 130  A 9.5 9.5 0 0 1 496 120.5 L 532 120.5  A 9.5 9.5 0 0 1 541.5 130 L 541.5 132  A 9.5 9.5 0 0 1 532 141.5 L 496 141.5  A 9.5 9.5 0 0 1 486.5 132 L 486.5 130  Z " stroke-width="1" stroke="#ffffff" fill="none" stroke-opacity="0.749019607843137" />
  </g>
</svg>