<?xml version="1.0" encoding="utf-8"?>
<svg version="1.1" xmlns:xlink="http://www.w3.org/1999/xlink" width="10px" height="6px" xmlns="http://www.w3.org/2000/svg">
  <g transform="matrix(1 0 0 1 -509 -131 )">
    <path d="M 5.46666666666667 5.72571428571428  C 5.33333333333333 5.86285714285714  5.2 5.93142857142857  5 5.93142857142857  C 4.8 5.93142857142857  4.66666666666667 5.86285714285714  4.53333333333333 5.72571428571428  L 0.2 1.26857142857143  C -0.0666666666666664 0.994285714285714  -0.0666666666666664 0.582857142857141  0.2 0.308571428571427  C 0.466666666666667 0.0342857142857123  0.866666666666667 0.0342857142857123  1.13333333333333 0.308571428571427  L 5 4.28571428571428  L 8.86666666666667 0.308571428571426  C 9.13333333333333 0.0342857142857111  9.53333333333333 0.0342857142857111  9.8 0.308571428571426  C 10.0666666666667 0.582857142857139  10.0666666666667 0.994285714285711  9.8 1.26857142857142  L 5.46666666666667 5.72571428571428  Z " fill-rule="nonzero" fill="#ffffff" stroke="none" transform="matrix(1 0 0 1 509 131 )" />
  </g>
</svg>