<?xml version="1.0" encoding="utf-8"?>
<svg version="1.1" xmlns:xlink="http://www.w3.org/1999/xlink" width="56px" height="22px" xmlns="http://www.w3.org/2000/svg">
  <g transform="matrix(1 0 0 1 -359 -325 )">
    <path d="M 360 335  A 9 9 0 0 1 369 326 L 405 326  A 9 9 0 0 1 414 335 L 414 337  A 9 9 0 0 1 405 346 L 369 346  A 9 9 0 0 1 360 337 L 360 335  Z " fill-rule="nonzero" fill="#ffffff" stroke="none" fill-opacity="0" />
    <path d="M 359.5 335  A 9.5 9.5 0 0 1 369 325.5 L 405 325.5  A 9.5 9.5 0 0 1 414.5 335 L 414.5 337  A 9.5 9.5 0 0 1 405 346.5 L 369 346.5  A 9.5 9.5 0 0 1 359.5 337 L 359.5 335  Z " stroke-width="1" stroke="#aaaaaa" fill="none" stroke-opacity="0.996078431372549" />
  </g>
</svg>