<?xml version="1.0" encoding="utf-8"?>
<svg version="1.1" xmlns:xlink="http://www.w3.org/1999/xlink" width="10px" height="11px" xmlns="http://www.w3.org/2000/svg">
  <g transform="matrix(1 0 0 1 -382 -328 )">
    <path d="M 9.72986666666666 5.20620722891566  C 9.9608 4.97702554216867  9.95155555555555 4.60348144578313  9.70008888888889 4.37200963855422  L 5.48924444444444 0.353950843373494  C 5.42610176015611 0.276998153380507  5.34403018633283 0.216106625340581  5.25031111111111 0.176678554216867  C 5.24648888888889 0.175066987951807  5.24266666666667 0.17328578313253  5.23866666666667 0.17167421686747  C 5.16544713264048 0.141811917289639  5.08664936576404 0.126404570966732  5.00702222222222 0.126380722891566  L 5.00551111111111 0.126465542168675  L 4.99991111111111 0.126211084337349  C 4.99831111111111 0.126211084337349  4.9968 0.126465542168675  4.9952 0.126465542168675  C 4.99351111111111 0.126465542168675  4.99191111111111 0.126211084337349  4.99031111111111 0.126211084337349  C 4.86391556778599 0.125959635877822  4.74081996931296 0.164696410214016  4.63937777777778 0.23664578313253  C 4.59550069268742 0.266313107747441  4.55582415736808 0.301265203827057  4.52133333333333 0.34063421686747  L 0.296444444444445 4.37226409638554  C 0.17528888888889 4.48787277108434  0.107911111111111 4.63698506024096  0.104 4.79339180722891  C 0.0998522083703741 4.94602985949264  0.158202491041452 5.09420246748108  0.266666666666667 5.20646168674699  L 0.275555555555556 5.21494361445783  C 0.38772482521938 5.31743438356863  0.537233792080839 5.37433574849513  0.692533333333334 5.37364048192771  C 0.865283135975563 5.37324907276755  1.03040152400497 5.30568013717705  1.14977777777778 5.18652915662651  L 4.37777777777778 2.10631710843374  L 4.37777777777778 10.3894284337349  C 4.37777777777778 10.7173391864056  4.65635615566084 10.983163373494  5 10.983163373494  C 5.34364384433916 10.983163373494  5.62222222222222 10.7173391864056  5.62222222222222 10.3894284337349  L 5.62222222222222 2.10937060240964  L 8.84675555555556 5.18627469879518  C 8.96791111111111 5.30188337349398  9.12417777777778 5.36617638554217  9.288 5.36990843373494  L 9.30293333333333 5.37007807228916  C 9.46115555555556 5.37007807228916  9.60862222222222 5.3131643373494  9.72097777777778 5.21468915662651  L 9.72986666666666 5.20620722891566  Z " fill-rule="nonzero" fill="#aaaaaa" stroke="none" transform="matrix(1 0 0 1 382 328 )" />
  </g>
</svg>