<?xml version="1.0" encoding="utf-8"?>
<svg version="1.1" xmlns:xlink="http://www.w3.org/1999/xlink" width="16px" height="5px" xmlns="http://www.w3.org/2000/svg">
  <g transform="matrix(1 0 0 1 -506 -539 )">
    <path d="M 14.5828571428571 0.8511  L 14.5828571428571 2.0511  C 14.5828571428571 2.8243  14.0097828571429 3.4511  13.3028571428571 3.4511  L 2.69714285714286 3.4511  C 1.99021714285714 3.4511  1.41714285714286 2.8243  1.41714285714286 2.0511  L 1.41714285714286 0.851099999999998  C 1.41714285714286 0.46450066468763  1.13060509703456 0.151099989569186  0.777142857142857 0.151099989569186  C 0.423680617251149 0.151099989569186  0.137142857142857 0.46450066468763  0.137142857142857 0.851099989569186  L 0.137142857142857 2.0511  C 0.137142857142857 3.5975  1.28329142857143 4.8511  2.69714285714286 4.8511  L 13.3028571428571 4.8511  C 14.7167085714286 4.8511  15.8628571428571 3.5975  15.8628571428571 2.0511  L 15.8628571428571 0.851099999999998  C 15.8628571428571 0.464500675118442  15.5763193827489 0.151099999999995  15.2228571428571 0.151099999999995  C 14.8693949029654 0.151099999999995  14.5828571428571 0.46450067511844  14.5828571428571 0.851099999999998  Z " fill-rule="nonzero" fill="#ffffff" stroke="none" transform="matrix(1 0 0 1 506 539 )" />
  </g>
</svg>