<?xml version="1.0" encoding="utf-8"?>
<svg version="1.1" xmlns:xlink="http://www.w3.org/1999/xlink" width="19px" height="19px" xmlns="http://www.w3.org/2000/svg">
  <g transform="matrix(1 0 0 1 -716 -89 )">
    <path d="M 725.5 89  C 730.82 89  735 93.18  735 98.5  C 735 103.82  730.82 108  725.5 108  C 720.18 108  716 103.82  716 98.5  C 716 93.18  720.18 89  725.5 89  Z " fill-rule="nonzero" fill="#ffffff" stroke="none" />
    <path d="M 725.5 89.5  C 730.54 89.5  734.5 93.46  734.5 98.5  C 734.5 103.54  730.54 107.5  725.5 107.5  C 720.46 107.5  716.5 103.54  716.5 98.5  C 716.5 93.46  720.46 89.5  725.5 89.5  Z " stroke-width="1" stroke="#797979" fill="none" />
  </g>
</svg>