<?xml version="1.0" encoding="utf-8"?>
<svg version="1.1" xmlns:xlink="http://www.w3.org/1999/xlink" width="140px" height="40px" xmlns="http://www.w3.org/2000/svg">
  <g transform="matrix(1 0 0 1 -184 49 )">
    <path d="M 185 -44  A 4 4 0 0 1 189 -48 L 319 -48  A 4 4 0 0 1 323 -44 L 323 -14  A 4 4 0 0 1 319 -10 L 189 -10  A 4 4 0 0 1 185 -14 L 185 -44  Z " fill-rule="nonzero" fill="#f2f2f2" stroke="none" />
    <path d="M 184.5 -44  A 4.5 4.5 0 0 1 189 -48.5 L 319 -48.5  A 4.5 4.5 0 0 1 323.5 -44 L 323.5 -14  A 4.5 4.5 0 0 1 319 -9.5 L 189 -9.5  A 4.5 4.5 0 0 1 184.5 -14 L 184.5 -44  Z " stroke-width="1" stroke-dasharray="9,4" stroke="#d9001b" fill="none" stroke-dashoffset="0.5" />
  </g>
</svg>