<?xml version="1.0" encoding="utf-8"?>
<svg version="1.1" xmlns:xlink="http://www.w3.org/1999/xlink" width="99px" height="30px" xmlns="http://www.w3.org/2000/svg">
  <g transform="matrix(1 0 0 1 -1502 -82 )">
    <path d="M 1503 87  A 4 4 0 0 1 1507 83 L 1596 83  A 4 4 0 0 1 1600 87 L 1600 107  A 4 4 0 0 1 1596 111 L 1507 111  A 4 4 0 0 1 1503 107 L 1503 87  Z " fill-rule="nonzero" fill="#169bd5" stroke="none" fill-opacity="0" />
    <path d="M 1502.5 87  A 4.5 4.5 0 0 1 1507 82.5 L 1596 82.5  A 4.5 4.5 0 0 1 1600.5 87 L 1600.5 107  A 4.5 4.5 0 0 1 1596 111.5 L 1507 111.5  A 4.5 4.5 0 0 1 1502.5 107 L 1502.5 87  Z " stroke-width="1" stroke-dasharray="9,4" stroke="#d9001b" fill="none" stroke-dashoffset="0.5" />
  </g>
</svg>