<?xml version="1.0" encoding="utf-8"?>
<svg version="1.1" xmlns:xlink="http://www.w3.org/1999/xlink" width="14px" height="15px" xmlns="http://www.w3.org/2000/svg">
  <g transform="matrix(1 0 0 1 -266 -155 )">
    <path d="M 13.5219512195122 6.67529296875  L 13.5219512195122 11.841796875  C 13.5219512195122 13.34619140625  12.3339430894309 14.5693359375  10.8727642276423 14.5693359375  L 3.06605691056911 14.5693359375  C 1.60487804878049 14.5693359375  0.416869918699187 13.34619140625  0.416869918699187 11.841796875  L 0.416869918699187 3.158203125  C 0.416869918699187 1.65380859375  1.60487804878049 0.4306640625  3.06605691056911 0.4306640625  L 8.01727642276423 0.4306640625  L 8.01727642276423 0.00146484375  L 3.06605691056911 0.00146484375  C 1.37581300813008 0.00146484375  0 1.41796875  0 3.158203125  L 0 11.841796875  C 0 13.58349609375  1.37581300813008 15  3.06605691056911 15  L 10.8727642276423 15  C 12.5630081300813 15  13.940243902439 13.58349609375  13.940243902439 11.841796875  L 13.940243902439 6.67529296875  L 13.5219512195122 6.67529296875  Z " fill-rule="nonzero" fill="#00bfbf" stroke="none" transform="matrix(1 0 0 1 266 155 )" />
  </g>
</svg>