<?xml version="1.0" encoding="utf-8"?>
<svg version="1.1" xmlns:xlink="http://www.w3.org/1999/xlink" width="38px" height="38px" xmlns="http://www.w3.org/2000/svg">
  <defs>
    <radialGradient cx="34.12987012987" cy="18.2034632034631" r="48.6233057065873" gradientTransform="matrix(-0.701924100673522 0.712251751063953 -0.712251751063951 -0.701924100673521 71.0518970689779 6.67185297811222 )" gradientUnits="userSpaceOnUse" id="RadialGradient230">
      <stop id="Stop231" stop-color="#f59a23" offset="0" />
      <stop id="Stop232" stop-color="#b8741a" offset="1" />
    </radialGradient>
  </defs>
  <g transform="matrix(1 0 0 1 -136 -145 )">
    <path d="M 25.2520914668154 36.9170984455959  C 23.2810931399888 37.6390328151986  21.2429819669083 38  19.1377579475739 38  C 15.1392452128648 38  11.5751998512735 36.9025139128766  8.44562186279978 34.7075417386298  C 5.31604387432608 32.512569564383  2.9882877858338 29.6066014200729  1.46235359732292 25.9896373056995  C 0.642870422011526 24.079063519478  0.169548243167875 21.8840913452312  0.0423870607919688 19.4047207829591  C -0.0847741215839375 16.925350220687  0.0989031418479271 14.5006716561121  0.593418851087563 12.1306850892343  C 1.0879345603272 9.76069852235655  1.87209518497862 7.4855114181539  2.94590072504183 5.30512377662637  C 4.01970626510504 3.12473613509883  5.28425357873211 1.35636154289004  6.73954266592303 0  L 6.50641383156721 6.14738054116292  C 6.66183305447109 5.94319708309345  7.14221974344674 5.83016695451929  7.94757389849414 5.80829015544041  C 8.75292805354155 5.78641335636154  9.24744376278119 5.89944348493571  9.43112102621305 6.14738054116292  C 10.0245398773006 4.96603339090386  11.1583937534858 3.95970063327576  12.8326826547685 3.12838226827864  C 14.5069715560513 2.29706390328152  16.1635991820041 1.86682018806371  17.8025655326269 1.83765112262522  C 17.0395984383714 2.49395509499137  16.1953894775981 3.57685664939551  15.2699386503067 5.08635578583765  C 14.3444878230154 6.59585492227979  13.9312139802937 7.7881404720783  14.0301171221417 8.66321243523316  C 14.3833426287414 8.77988869698714  14.8248745119911 8.87833429284206  15.3547127718907 8.95854922279793  C 15.8845510317903 9.03876415275379  16.329615170106 9.09345615045097  16.6899051868377 9.12262521588947  C 17.0501952035694 9.15179428132796  17.5305818925451 9.18096334676645  18.1310652537646 9.21013241220495  C 18.7315486149842 9.23930147764344  19.0883063766499 9.26117827672232  19.2013385387618 9.27576280944157  C 19.4132738427217 9.3486854730378  19.4803866889756 9.68048359240069  19.4026770775237 10.2711571675302  C 19.3249674660718 10.8618307426598  19.1094999070459 11.4123968528114  18.7562744004462 11.922855497985  C 18.6856292991262 12.0249472270198  18.5690648819483 12.1598541546728  18.4065811489124 12.3275762809442  C 18.2440974158766 12.4952984072155  17.8449525934189 12.7541738629822  17.2091466815393 13.1042026482441  C 16.5733407696598 13.454231433506  15.8598252463283 13.7021684897333  15.0686001115449 13.8480138169257  L 15.3865030674847 17.9827288428325  L 12.4406023424428 16.5169833045481  C 12.186279977691 17.1441182114757  12.1332961517011 17.7384379197851  12.281650864473 18.2999424294761  C 12.4300055772448 18.8614469391671  12.6843279419967 19.3463826520821  13.0446179587284 19.7547495682211  C 13.4049079754601 20.16311648436  13.8676333891058 20.4657455382844  14.4327941996654 20.6626367299942  C 14.9979550102249 20.8595279217041  15.5701803309165 20.9069276530416  16.1494701617401 20.8048359240069  C 16.8700501952036 20.6735751295337  17.5623721881391 20.4219919401267  18.2264361405466 20.0500863557858  C 18.8905000929541 19.678180771445  19.4803866889756 19.3500287852619  19.9960959286113 19.0656303972366  C 20.5118051682469 18.7812320092113  21.0310466629485 18.6536173479179  21.5538204127161 18.6827864133564  C 22.4156906488195 18.7411245442334  23.047964305633 18.9817693341009  23.4506413831567 19.4047207829591  C 23.8533184606804 19.8276722318173  23.9910764082543 20.3016695451929  23.8639152258784 20.8267127230858  C 23.8497862056144 20.8558817885243  23.8321249302844 20.8959892535022  23.8109313998885 20.9470351180196  C 23.7897378694925 20.9980809825369  23.7296895333705 21.0892343120322  23.6307863915226 21.2204951065055  C 23.5318832496747 21.3517559009787  23.4047220672988 21.4647860295529  23.2493028443949 21.559585492228  C 23.093883621491 21.6543849549031  22.8713515523331 21.7309537516791  22.5817066369214 21.7892918825561  C 22.2920617215096 21.8476300134331  21.9635620003718 21.8549222797927  21.5962074735081 21.811168681635  C 20.7484662576687 23.1966992899635  19.7276445435955 24.1848013816926  18.5337423312883 24.7754749568221  C 17.3398401189812 25.3661485319516  15.8598252463283 25.5812703895605  14.0936977133296 25.4208405296488  C 15.1392452128648 26.3104970255229  16.287228109314 26.9121090001919  17.5376464026771 27.2256764536557  C 18.7880646960402 27.5392439071196  19.9784346532813 27.5829975052773  21.1087562744004 27.356937248129  C 22.2390778955196 27.1308769909806  23.3305447109128 26.7516791402802  24.38315672058 26.2193436960276  C 25.4357687302473 25.6870082517751  26.3400260271426 25.048934945308  27.095928611266 24.3051237766264  C 27.8518311953895 23.5613126079447  28.4205242610151 22.8029169065439  28.8020078081428 22.0299366724237  C 29.4095556794943 20.7027441949722  29.6850715746421 19.2989829207446  29.6285554935862 17.8186528497409  C 29.5720394125302 16.3383227787373  29.3071202825804 14.9637305699482  28.8337981037368 13.6948762233736  C 28.3604759248931 12.4260218767991  27.8059118795315 11.5144885818461  27.170105967652 10.9602763385147  C 28.3993307306191 11.5144885818461  29.3671686187024 12.0942237574362  30.0736196319018 12.699481865285  C 30.7800706451013 13.3047399731338  31.3240379252649 14.1251199385914  31.7055214723926 15.160621761658  C 31.9174567763525 12.6812511993859  31.5112474437628 10.1800038380349  30.4868934746235 7.65687967760507  C 29.4625395054843 5.1337555171752  27.9825246328314 3.06275187104203  26.0468488566648 1.44386873920553  C 29.791039226622 2.5668777585876  32.7016174010039 4.60506620610247  34.7785833798104 7.55843408175014  C 36.8555493586168 10.5118019573978  37.9222903885481 14.2855497985032  37.978806469604 18.8796776050662  C 38.007064510132 20.7319132604107  37.7209518497862 22.5914411821148  37.1204684885667 24.4582613701785  C 36.5199851273471 26.3250815582422  35.6475181260457 28.0606409518327  34.5030674846626 29.6649395509499  C 33.3586168432794 31.2692381500672  32.0234244283324 32.6985223565534  30.4974902398215 33.9527921704087  C 28.9715560513107 35.2070619842641  27.2230897936419 36.1951640759931  25.2520914668154 36.9170984455959  Z " fill-rule="nonzero" fill="url(#RadialGradient230)" stroke="none" transform="matrix(1 0 0 1 136 145 )" />
  </g>
</svg>