<?xml version="1.0" encoding="utf-8"?>
<svg version="1.1" xmlns:xlink="http://www.w3.org/1999/xlink" width="13px" height="13px" xmlns="http://www.w3.org/2000/svg">
  <g transform="matrix(1 0 0 1 -354 -156 )">
    <path d="M 12.9290909090909 6.5  C 12.9290909090909 2.90727272727273  9.99818181818182 0.0709090909090909  6.5 0.0709090909090909  C 3.00181818181818 0.0709090909090909  0.0709090909090911 2.90727272727273  0.0709090909090911 6.5  C 0.0709090909090911 10.0927272727273  2.90727272727273 12.9290909090909  6.5 12.9290909090909  C 10.0927272727273 12.9290909090909  12.9290909090909 10.0927272727273  12.9290909090909 6.5  Z M 10.0927272727273 3.94727272727273  C 10.4709090909091 4.13636363636364  10.4709090909091 4.51454545454545  10.1872727272727 4.79818181818182  L 6.02727272727273 9.33636363636364  C 5.83818181818182 9.52545454545455  5.46 9.52545454545455  5.27090909090909 9.33636363636364  L 3.19090909090909 7.16181818181818  C 3.00181818181818 6.97272727272727  3.00181818181818 6.59454545454545  3.19090909090909 6.40545454545454  C 3.38 6.21636363636364  3.75818181818182 6.21636363636364  3.94727272727273 6.40545454545454  L 5.64909090909091 8.10727272727273  L 9.33636363636364 3.94727272727273  C 9.52545454545455 3.75818181818182  9.90363636363636 3.75818181818182  10.0927272727273 3.94727272727273  Z " fill-rule="nonzero" fill="#68d279" stroke="none" fill-opacity="0.749019607843137" transform="matrix(1 0 0 1 354 156 )" />
  </g>
</svg>