<?xml version="1.0" encoding="utf-8"?>
<svg version="1.1" xmlns:xlink="http://www.w3.org/1999/xlink" width="38px" height="38px" xmlns="http://www.w3.org/2000/svg">
  <defs>
    <radialGradient cx="-6.75015598972095E-14" cy="-2.36255459640233E-13" r="53.7401153701778" gradientTransform="matrix(0.707106781186546 0.707106781186548 -0.707106781186549 0.707106781186546 -1.86828586757177E-13 -2.14668112922932E-14 )" gradientUnits="userSpaceOnUse" id="RadialGradient233">
      <stop id="Stop234" stop-color="#02a7f0" stop-opacity="0.498039215686275" offset="0" />
      <stop id="Stop235" stop-color="#00ffff" offset="0.6" />
      <stop id="Stop236" stop-color="#02a7f0" stop-opacity="0.498039215686275" offset="1" />
    </radialGradient>
  </defs>
  <g transform="matrix(1 0 0 1 -136 -226 )">
    <path d="M 7.125 0  L 30.875 0  C 32.8376736111111 0  34.5158420138889 0.69683159722222  35.9095052083333 2.09049479166667  C 37.3031684027778 3.48415798611111  38 5.16232638888888  38 7.125  L 38 30.875  C 38 32.8376736111111  37.3031684027778 34.5158420138889  35.9095052083333 35.9095052083333  C 34.5158420138889 37.3031684027778  32.8376736111111 38  30.875 38  L 26 38  L 26 23.2799479166667  L 31.1471354166667 23.2799479166667  L 31.8893229166667 17.5403645833333  L 26.2239583333333 17.5403645833333  L 26.2239583333333 13.87890625  C 26.2239583333333 12.9552951388889  26.4177517361111 12.2625868055556  26.8053385416667 11.80078125  C 27.1929253472222 11.3389756944444  27.9474826388889 11.1080729166667  29.0690104166667 11.1080729166667  L 32.0872395833333 11.0833333333333  L 32.0872395833333 5.96223958333333  C 31.0481770833333 5.81380208333333  29.5802951388889 5.73958333333333  27.68359375 5.73958333333333  C 25.4405381944445 5.73958333333333  23.6469184027778 6.39930555555555  22.302734375 7.71875  C 20.9585503472222 9.03819444444444  20.2864583333333 10.9019097222222  20.2864583333333 13.3098958333333  L 20.2864583333333 17.5403645833333  L 15.3385416666667 17.5403645833333  L 15.3385416666667 23.2799479166667  L 20 23.2799479166667  L 20 38  L 7.125 38  C 5.16232638888889 38  3.48415798611111 37.3031684027778  2.09049479166667 35.9095052083333  C 0.696831597222222 34.5158420138889  0 32.8376736111111  0 30.875  L 0 7.125  C 0 5.16232638888888  0.696831597222222 3.48415798611111  2.09049479166667 2.09049479166667  C 3.48415798611111 0.69683159722222  5.16232638888889 0  7.125 0  Z " fill-rule="nonzero" fill="url(#RadialGradient233)" stroke="none" transform="matrix(1 0 0 1 136 226 )" />
  </g>
</svg>