<?xml version="1.0" encoding="utf-8"?>
<svg version="1.1" xmlns:xlink="http://www.w3.org/1999/xlink" width="38px" height="38px" xmlns="http://www.w3.org/2000/svg">
  <defs>
    <linearGradient gradientUnits="userSpaceOnUse" x1="38" y1="19.2156862745098" x2="1.25490196078431" y2="19.2156862745098" id="LinearGradient237">
      <stop id="Stop238" stop-color="#0000ff" offset="0" />
      <stop id="Stop239" stop-color="#8400ff" stop-opacity="0.498039215686275" offset="1" />
    </linearGradient>
  </defs>
  <g transform="matrix(1 0 0 1 -136 -320 )">
    <path d="M 15.9676339285714 34.4587053571429  C 16.8865327380952 34.6283482142857  17.7418154761905 34.7202380952381  18.5334821428571 34.734375  L 18.5334821428571 36.1339285714286  C 15.593005952381 36.0491071428571  12.8716517857143 35.2751116071429  10.3694196428571 33.8119419642857  C 7.8671875 32.3487723214286  5.86681547619048 30.4014136904762  4.36830357142857 27.9698660714286  L 5.59821428571429 27.2488839285714  C 6.00818452380952 27.9415922619048  6.52418154761905 28.6413690476191  7.14620535714286 29.3482142857143  L 8.52455357142857 28.1395089285714  C 10.6168154761905 30.5145089285714  13.218005952381 32.0130208333333  16.328125 32.6350446428571  L 15.9676339285714 34.4587053571429  Z M 5.08928571428571 19  C 5.08928571428572 20.5409226190476  5.34375 22.0394345238095  5.85267857142857 23.4955357142857  L 4.09263392857143 24.0892857142857  C 4.40364583333333 24.9375  4.75 25.7291666666667  5.13169642857143 26.4642857142857  L 3.92299107142857 27.1640625  C 2.5375744047619 24.6194196428571  1.84486607142857 21.8980654761905  1.84486607142857 19  C 1.84486607142857 16.1019345238095  2.5375744047619 13.3805803571429  3.92299107142857 10.8359375  L 5.13169642857143 11.5357142857143  C 4.70758928571429 12.327380952381  4.36123511904762 13.1190476190476  4.09263392857143 13.9107142857143  L 5.83147321428571 14.5044642857143  C 5.33668154761905 15.9181547619048  5.08928571428572 17.4166666666667  5.08928571428571 19  Z M 30.8537946428571 29.3482142857143  C 31.475818452381 28.6413690476191  31.9918154761905 27.9415922619048  32.4017857142857 27.2488839285714  L 33.6316964285714 27.9698660714286  C 32.1331845238095 30.4014136904762  30.1328125 32.3487723214286  27.6305803571429 33.8119419642857  C 25.1283482142857 35.2751116071429  22.4069940476191 36.0491071428571  19.4665178571429 36.1339285714286  L 19.4665178571429 34.734375  C 20.2581845238095 34.7202380952381  21.1134672619048 34.6283482142857  22.0323660714286 34.4587053571429  L 21.671875 32.6350446428571  C 24.7819940476191 32.0130208333333  27.3831845238095 30.5145089285714  29.4754464285714 28.1395089285714  L 30.8537946428571 29.3482142857143  Z M 27.1004464285714 11.9174107142857  C 28.0334821428571 12.9918154761905  28.7332589285714 14.1863839285714  29.1997767857143 15.5011160714286  L 24.2589285714286 17.1975446428571  C 24.4568452380952 17.7912946428571  24.5558035714286 18.3921130952381  24.5558035714286 19  C 24.5558035714286 19.6078869047619  24.4568452380952 20.2087053571429  24.2589285714286 20.8024553571429  L 29.1785714285714 22.4988839285714  C 28.7403273809524 23.7994791666667  28.0476190476191 24.9940476190476  27.1004464285714 26.0825892857143  L 23.1774553571429 22.6473214285714  C 22.3716517857143 23.594494047619  21.3325892857143 24.1953125  20.0602678571429 24.4497767857143  L 21.078125 29.5602678571429  C 20.343005952381 29.7016369047619  19.6502976190476 29.7723214285714  19 29.7723214285714  C 18.3497023809524 29.7723214285714  17.6569940476191 29.7016369047619  16.921875 29.5602678571429  L 17.9397321428571 24.4497767857143  C 16.6674107142857 24.1953125  15.6283482142857 23.594494047619  14.8225446428571 22.6473214285714  L 10.8995535714286 26.0825892857143  C 9.95238095238095 24.9940476190476  9.25967261904762 23.7994791666667  8.82142857142857 22.4988839285714  L 13.7410714285714 20.8024553571429  C 13.5431547619048 20.2087053571429  13.4441964285714 19.6078869047619  13.4441964285714 19  C 13.4441964285714 18.3921130952381  13.5431547619048 17.7912946428571  13.7410714285714 17.1975446428571  L 8.80022321428571 15.5011160714286  C 9.26674107142857 14.1863839285714  9.96651785714286 12.9918154761905  10.8995535714286 11.9174107142857  L 14.8225446428571 15.3526785714286  C 15.6566220238095 14.391369047619  16.6956845238095 13.7834821428571  17.9397321428571 13.5290178571429  L 16.921875 8.43973214285714  C 17.5438988095238 8.29836309523809  18.2366071428571 8.22767857142857  19 8.22767857142857  C 19.7633928571429 8.22767857142857  20.4561011904762 8.29836309523809  21.078125 8.43973214285714  L 20.0602678571429 13.5290178571429  C 21.3043154761905 13.7834821428571  22.3433779761905 14.391369047619  23.1774553571429 15.3526785714286  L 27.1004464285714 11.9174107142857  Z M 10.3694196428571 4.18805803571429  C 12.8575148809524 2.72488839285714  15.578869047619 1.95089285714286  18.5334821428571 1.86607142857143  L 18.5334821428571 3.265625  C 17.6145833333333 3.29389880952381  16.7593005952381 3.38578869047619  15.9676339285714 3.54129464285714  L 16.328125 5.36495535714286  C 13.218005952381 5.95870535714286  10.6168154761905 7.45014880952381  8.52455357142857 9.83928571428571  L 7.14620535714286 8.65178571428571  C 6.60900297619048 9.24553571428571  6.09300595238095 9.93824404761905  5.59821428571429 10.7299107142857  L 4.38950892857143 10.0301339285714  C 5.88802083333333 7.59858630952381  7.88132440476191 5.65122767857143  10.3694196428571 4.18805803571429  Z M 34.0770089285714 10.8359375  C 35.4624255952381 13.3805803571429  36.1551339285714 16.1019345238095  36.1551339285714 19  C 36.1551339285714 21.8980654761905  35.4624255952381 24.6194196428571  34.0770089285714 27.1640625  L 32.8683035714286 26.4642857142857  C 33.25 25.7291666666667  33.5963541666667 24.9375  33.9073660714286 24.0892857142857  L 32.1473214285714 23.4955357142857  C 32.65625 22.0394345238095  32.9107142857143 20.5409226190476  32.9107142857143 19  C 32.9107142857143 17.4166666666667  32.663318452381 15.9181547619048  32.1685267857143 14.5044642857143  L 33.9073660714286 13.9107142857143  C 33.6387648809524 13.1190476190476  33.2924107142857 12.327380952381  32.8683035714286 11.5357142857143  L 34.0770089285714 10.8359375  Z M 27.6305803571429 4.18805803571429  C 30.1186755952381 5.65122767857143  32.1119791666667 7.59858630952381  33.6104910714286 10.0301339285714  L 32.4017857142857 10.7299107142857  C 31.9069940476191 9.93824404761905  31.3909970238095 9.24553571428571  30.8537946428571 8.65178571428571  L 29.4754464285714 9.83928571428571  C 27.3831845238095 7.45014880952381  24.7819940476191 5.95870535714286  21.671875 5.36495535714286  L 22.0323660714286 3.54129464285714  C 21.2406994047619 3.38578869047619  20.3854166666667 3.29389880952381  19.4665178571429 3.265625  L 19.4665178571429 1.86607142857143  C 22.421130952381 1.95089285714286  25.1424851190476 2.72488839285714  27.6305803571429 4.18805803571429  Z M 35.6356026785714 26.0189732142857  C 36.58984375 23.7853422619048  37.0669642857143 21.4456845238095  37.0669642857143 19  C 37.0669642857143 16.5543154761905  36.58984375 14.2146577380952  35.6356026785714 11.9810267857143  C 34.6813616071429 9.74739583333333  33.3984375 7.82477678571429  31.7868303571429 6.21316964285714  C 30.1752232142857 4.6015625  28.2526041666667 3.31863839285714  26.0189732142857 2.36439732142857  C 23.7853422619048 1.41015625  21.4456845238095 0.933035714285713  19 0.933035714285713  C 16.5543154761905 0.933035714285713  14.2146577380952 1.41015625  11.9810267857143 2.36439732142857  C 9.74739583333333 3.31863839285714  7.82477678571429 4.6015625  6.21316964285714 6.21316964285714  C 4.6015625 7.82477678571429  3.31863839285714 9.74739583333333  2.36439732142857 11.9810267857143  C 1.41015625 14.2146577380952  0.933035714285714 16.5543154761905  0.933035714285714 19  C 0.933035714285714 21.4456845238095  1.41015625 23.7853422619048  2.36439732142857 26.0189732142857  C 3.31863839285714 28.2526041666667  4.6015625 30.1752232142857  6.21316964285714 31.7868303571429  C 7.82477678571429 33.3984375  9.74739583333333 34.6813616071429  11.9810267857143 35.6356026785714  C 14.2146577380952 36.58984375  16.5543154761905 37.0669642857143  19 37.0669642857143  C 21.4456845238095 37.0669642857143  23.7853422619048 36.58984375  26.0189732142857 35.6356026785714  C 28.2526041666667 34.6813616071429  30.1752232142857 33.3984375  31.7868303571429 31.7868303571429  C 33.3984375 30.1752232142857  34.6813616071429 28.2526041666667  35.6356026785714 26.0189732142857  Z M 36.4944196428571 11.6205357142857  C 37.4981398809524 13.9672619047619  38 16.4270833333333  38 19  C 38 21.5729166666667  37.4981398809524 24.0327380952381  36.4944196428571 26.3794642857143  C 35.4906994047619 28.7261904761905  34.140625 30.7477678571429  32.4441964285714 32.4441964285714  C 30.7477678571429 34.140625  28.7261904761905 35.4906994047619  26.3794642857143 36.4944196428571  C 24.0327380952381 37.4981398809524  21.5729166666667 38  19 38  C 16.4270833333333 38  13.9672619047619 37.4981398809524  11.6205357142857 36.4944196428571  C 9.27380952380953 35.4906994047619  7.25223214285714 34.140625  5.55580357142857 32.4441964285714  C 3.859375 30.7477678571429  2.5093005952381 28.7261904761905  1.50558035714286 26.3794642857143  C 0.501860119047619 24.0327380952381  0 21.5729166666667  0 19  C 0 16.4270833333333  0.501860119047619 13.9672619047619  1.50558035714286 11.6205357142857  C 2.5093005952381 9.27380952380952  3.859375 7.25223214285714  5.55580357142857 5.55580357142857  C 7.25223214285714 3.859375  9.27380952380953 2.50930059523809  11.6205357142857 1.50558035714286  C 13.9672619047619 0.501860119047619  16.4270833333333 0  19 0  C 21.5729166666667 0  24.0327380952381 0.501860119047619  26.3794642857143 1.50558035714286  C 28.7261904761905 2.50930059523809  30.7477678571429 3.859375  32.4441964285714 5.55580357142857  C 34.140625 7.25223214285714  35.4906994047619 9.27380952380952  36.4944196428571 11.6205357142857  Z " fill-rule="nonzero" fill="url(#LinearGradient237)" stroke="none" transform="matrix(1 0 0 1 136 320 )" />
  </g>
</svg>