<?xml version="1.0" encoding="utf-8"?>
<svg version="1.1" xmlns:xlink="http://www.w3.org/1999/xlink" width="38px" height="38px" xmlns="http://www.w3.org/2000/svg">
  <defs>
    <radialGradient cx="19" cy="18.9999999999997" r="19.0041525916121" gradientTransform="matrix(-0.999781490303654 0.0209038667763681 -0.0209038667763681 -0.999781490303652 38.3930217845203 37.5986748470179 )" gradientUnits="userSpaceOnUse" id="RadialGradient240">
      <stop id="Stop241" stop-color="#00bfbf" offset="0" />
      <stop id="Stop242" stop-color="#00bfbf" stop-opacity="0.498039215686275" offset="0.31" />
      <stop id="Stop243" stop-color="#facd91" stop-opacity="0.498039215686275" offset="0.65" />
      <stop id="Stop244" stop-color="#00bfbf" offset="1" />
    </radialGradient>
  </defs>
  <g transform="matrix(1 0 0 1 -136 -408 )">
    <path d="M 10.8147321428571 1.87458193979933  C 13.4017857142857 0.653102935711631  16.1090029761905 0.0353028613898132  18.9363839285714 0.0211817168338921  C 22.3292410714286 -0.00706057227796686  25.5171130952381 0.840208101077664  28.5 2.56298773690078  C 31.7797619047619 4.45522110739502  34.2678571428571 7.08175399479747  35.9642857142857 10.4425863991081  L 20.2299107142857 9.6164994425864  C 17.968005952381 9.48940914158305  15.889880952381 10.0154217762913  13.9955357142857 11.1945373467113  C 12.1011904761905 12.3736529171312  10.7935267857143 13.9940542549238  10.0725446428571 16.0557413600892  L 4.21986607142857 7.07469342251951  C 6.02938988095238 4.82943143812709  8.22767857142857 3.09606094388703  10.8147321428571 1.87458193979933  Z M 0 19  C 0 15.2296544035674  1.03199404761905 11.7629134150873  3.09598214285714 8.59977703455964  L 10.2421875 22.6432552954292  C 11.2600446428571 24.6625789669268  12.7514880952381 26.1947231512449  14.7165178571429 27.2396878483835  C 16.6815476190476 28.2846525455221  18.7526041666667 28.6023782980305  20.9296875 28.1928651059086  L 16.0524553571429 37.7458193979933  C 13.055431547619 37.2798216276477  10.3340773809524 36.1677814938685  7.88839285714286 34.4096989966555  C 5.44270833333333 32.6516164994426  3.51655505952381 30.4204756596061  2.10993303571429 27.716276477146  C 0.703311011904762 25.012077294686  0 22.106651802304  0 19  Z M 26.0189732142857 12.7302118171683  L 36.7276785714286 12.1794871794872  C 37.5476190476191 14.2976588628763  37.9681919642857 16.4899665551839  37.9893973214286 18.7564102564103  C 38.0106026785714 21.0228539576366  37.6677827380952 23.1833890746934  36.9609375 25.2380156075808  C 36.2540922619048 27.2926421404682  35.1726190476191 29.2131178000743  33.7165178571429 30.9994425863991  C 32.2604166666667 32.7857673727239  30.5215773809524 34.2649572649573  28.5 35.4370122630992  C 25.2485119047619 37.3151244890375  21.7284226190476 38.1553325901152  17.9397321428571 37.9576365663322  L 26.5279017857143 24.7614269788183  C 27.7719494047619 22.9115570419918  28.3550967261905 20.8604607952434  28.27734375 18.608138238573  C 28.1995907738095 16.3558156819026  27.4468005952381 14.3965068747677  26.0189732142857 12.7302118171683  Z M 14.47265625 14.4777034559643  C 15.7237723214286 13.2279821627648  17.2328869047619 12.603121516165  19 12.603121516165  C 20.7671130952381 12.603121516165  22.2762276785714 13.2279821627648  23.52734375 14.4777034559643  C 24.7784598214286 15.7274247491639  25.4040178571429 17.2348569305091  25.4040178571429 19  C 25.4040178571429 20.7651430694909  24.7784598214286 22.2725752508361  23.52734375 23.5222965440357  C 22.2762276785714 24.7720178372352  20.7671130952381 25.396878483835  19 25.396878483835  C 17.2328869047619 25.396878483835  15.7237723214286 24.7720178372352  14.47265625 23.5222965440357  C 13.2215401785714 22.2725752508361  12.5959821428571 20.7651430694909  12.5959821428571 19  C 12.5959821428571 17.2348569305091  13.2215401785714 15.7274247491639  14.47265625 14.4777034559643  Z " fill-rule="nonzero" fill="url(#RadialGradient240)" stroke="none" transform="matrix(1 0 0 1 136 408 )" />
  </g>
</svg>