<?xml version="1.0" encoding="utf-8"?>
<svg version="1.1" xmlns:xlink="http://www.w3.org/1999/xlink" width="38px" height="38px" xmlns="http://www.w3.org/2000/svg">
  <defs>
    <linearGradient gradientUnits="userSpaceOnUse" x1="19" y1="0" x2="38" y2="38" id="LinearGradient245">
      <stop id="Stop246" stop-color="#d7d7d7" offset="0" />
      <stop id="Stop247" stop-color="#000000" offset="1" />
    </linearGradient>
  </defs>
  <g transform="matrix(1 0 0 1 -136 -491 )">
    <path d="M 19 10.0690104166667  L 22.63671875 23.7005208333333  L 15.36328125 23.7005208333333  L 19 10.0690104166667  Z M 22.7109375 23.8984375  L 24.7643229166667 31.6666666666667  L 32.4583333333333 31.6666666666667  L 24.4427083333333 7  L 13.5572916666667 7  L 5.54166666666667 31.6666666666667  L 13.2356770833333 31.6666666666667  L 22.7109375 23.8984375  Z M 35.8971354166667 2.10286458333333  C 37.2990451388889 3.50477430555555  38 5.17881944444444  38 7.125  L 38 30.875  C 38 32.8211805555556  37.2990451388889 34.4952256944444  35.8971354166667 35.8971354166667  C 34.4952256944445 37.2990451388889  32.8211805555556 38  30.875 38  L 7.125 38  C 5.17881944444444 38  3.50477430555556 37.2990451388889  2.10286458333333 35.8971354166667  C 0.700954861111111 34.4952256944444  0 32.8211805555556  0 30.875  L 0 7.125  C 0 5.17881944444444  0.700954861111111 3.50477430555555  2.10286458333333 2.10286458333333  C 3.50477430555556 0.700954861111108  5.17881944444444 0  7.125 0  L 30.875 0  C 32.8211805555556 0  34.4952256944445 0.700954861111108  35.8971354166667 2.10286458333333  Z " fill-rule="nonzero" fill="url(#LinearGradient245)" stroke="none" transform="matrix(1 0 0 1 136 491 )" />
  </g>
</svg>