<?xml version="1.0" encoding="utf-8"?>
<svg version="1.1" xmlns:xlink="http://www.w3.org/1999/xlink" width="20px" height="20px" xmlns="http://www.w3.org/2000/svg">
  <g transform="matrix(1 0 0 1 -747 -44 )">
    <path d="M 1.98703703703704 13.6945776641411  C 1.98703703703704 14.1936301252733  1.57248587947296 14.5981920791419  1.06111111111111 14.5981920791419  C 0.549736342749265 14.5981920791419  0.135185185185185 14.1936301252733  0.135185185185185 13.6945776641411  L 0.135185185185185 5.33915637343434  C 0.135185185185185 4.84010391230216  0.549736342749265 4.43554195843361  1.06111111111111 4.43554195843361  C 1.57248587947296 4.43554195843361  1.98703703703704 4.84010391230216  1.98703703703704 5.33915637343434  L 1.98703703703704 13.6945776641411  Z M 6 13.6810234479161  C 5.78086419753086 14.1800759090483  5.36631303996678 14.5846378629169  4.85493827160494 14.5846378629169  C 4.34356350324309 14.5846378629169  3.92901234567901 14.1800759090483  4 13.6810234479161  L 4 3.16897575340758  C 3.92901234567901 3.16897575340758  3.92901234567901 3.16897575340758  3.92901234567901 3.16897575340758  C 3.92901234567901 2.6699232922754  4.34356350324309 2.26536133840684  4.85493827160494 2.26536133840684  C 5.36631303996678 2.26536133840684  5.78086419753086 2.6699232922754  5.78086419753086 3.16897575340758  C 5.78086419753086 3.16897575340758  5.78086419753086 3.16897575340758  6 3.16897575340758  L 6 13.6810234479161  Z M 9.57469135802469 13.7084330851711  C 9.57469135802469 14.2074855463033  9.16014020046061 14.6120475001719  8.64876543209877 14.6120475001719  C 8.13739066373692 14.6120475001719  7.72283950617284 14.2074855463033  8 13.7084330851711  L 8 1.06596380489587  C 7.72283950617284 1.06596380489587  7.72283950617284 1.06596380489587  7.72283950617284 1.06596380489587  C 7.72283950617284 0.566911343763687  8.13739066373692 0.162349389895132  8.64876543209877 0.162349389895132  C 9.16014020046061 0.162349389895132  9.57469135802469 0.566911343763687  9.57469135802469 1.06596380489587  L 9.57469135802469 13.7084330851711  Z M 19.9689380955607 19.0963846576144  C 19.9689380955607 19.5953617715314  19.5545074256055 19.9998925086959  19.0432098765432 19.9999990520163  C 18.7975779207712 20.000346724051  18.5619529268441 19.9050503297187  18.3885802469136 19.735240028421  L 13.4533950617284 14.9192764012721  C 13.2797355607424 14.7498014746079  13.1821746689585 14.5199441472348  13.1821746689585 14.2802704074641  C 13.1821746689585 13.7811756811507  13.5967609352159 13.3765794645831  14.1081790123457 13.3765794645831  C 14.353770633875 13.3765794645831  14.589303461977 13.4717894869919  14.762962962963 13.6412644136561  L 19.6978395061728 18.45752924561  C 19.8714238384706 18.6269819709602  19.9689380955607 18.8567784853216  19.9689380955607 19.0963846576144  Z " fill-rule="nonzero" fill="#ec808d" stroke="none" fill-opacity="0.988235294117647" transform="matrix(1 0 0 1 747 44 )" />
  </g>
</svg>