<?xml version="1.0" encoding="utf-8"?>
<svg version="1.1" xmlns:xlink="http://www.w3.org/1999/xlink" width="23px" height="23px" xmlns="http://www.w3.org/2000/svg">
  <g transform="matrix(1 0 0 1 -751 -36 )">
    <path d="M 15.8252034883721 21.9275581395349  C 14.428371642827 22.5188806746081  12.9265751794019 22.8222417409632  11.409738372093 22.8194767441861  C 5.16764313951088 22.8123484296477  0.111202268472401 17.7501299342326  0.111202268472401 11.5080306314745  C 0.111202268472401 5.2608873714263  5.17551249679626 0.19657714310244  11.4226557568445 0.19657714310244  C 17.6697990168927 0.19657714310244  22.7341092452166 5.2608873714263  22.7341092452166 11.5080306314745  C 22.7341092452166 16.053965621945  20.0126843220026 20.1582279822265  15.8252034883721 21.9275581395349  Z M 20.7468023255814 11.4765988372093  C 20.7468023255814 6.32834302325581  16.5579941860465 2.13953488372093  11.409738372093 2.13953488372093  C 6.26114825581395 2.13953488372093  2.07267441860465 6.32800872093023  2.07267441860465 11.4765988372093  C 2.07267441860465 16.6251889534884  6.26114825581395 20.8136627906977  11.409738372093 20.8136627906977  C 16.5583284883721 20.8136627906977  20.7468023255814 16.6248546511628  20.7468023255814 11.4765988372093  Z " fill-rule="nonzero" fill="#ec808d" stroke="none" fill-opacity="0.988235294117647" transform="matrix(1 0 0 1 751 36 )" />
  </g>
</svg>