<?xml version="1.0" encoding="utf-8"?>
<svg version="1.1" xmlns:xlink="http://www.w3.org/1999/xlink" width="8px" height="8px" xmlns="http://www.w3.org/2000/svg">
  <g transform="matrix(1 0 0 1 -522 -175 )">
    <path d="M 7.89161290322581 3.97114754098361  C 7.89161290322581 1.78663500919387  6.14927845869635 0.0157377049180329  4 0.0157377049180329  C 1.85072154130365 0.0157377049180329  0.108387096774194 1.78663500919387  0.108387096774194 3.97114754098361  C 0.108387096774194 6.15566007277334  1.85072154130365 7.92655737704918  4 7.92655737704918  C 6.14927845869635 7.92655737704918  7.89161290322581 6.15566007277334  7.89161290322581 3.97114754098361  Z M 5.03225806451613 3.95016393442623  C 5.03225806451613 4.52961022933067  4.57010038692211 4.99934426229508  4 4.99934426229508  C 3.42989961307789 4.99934426229508  2.96774193548387 4.52961022933067  2.96774193548387 3.95016393442623  C 2.96774193548387 3.37071763952179  3.42989961307789 2.90098360655738  4 2.90098360655738  C 4.57010038692211 2.90098360655738  5.03225806451613 3.37071763952179  5.03225806451613 3.95016393442623  Z " fill-rule="nonzero" fill="#555555" stroke="none" transform="matrix(1 0 0 1 522 175 )" />
  </g>
</svg>