<?xml version="1.0" encoding="utf-8"?>
<svg version="1.1" xmlns:xlink="http://www.w3.org/1999/xlink" width="16px" height="10px" xmlns="http://www.w3.org/2000/svg">
  <g transform="matrix(1 0 0 1 -518 -174 )">
    <path d="M 16 4.97215189873418  C 16 4.97215189873418  12.42 0.0607594936708866  8 0.0607594936708861  C 3.58 0.0607594936708861  0 4.97215189873418  0 4.97215189873418  C 0 4.97215189873418  3.58 9.88354430379747  8 9.88354430379747  C 12.42 9.88354430379747  16 4.97215189873418  16 4.97215189873418  Z M 12.84 4.97215189873418  C 12.84 7.6790462675251  10.673058189181 9.87341772151899  8 9.87341772151899  C 5.32694181081896 9.87341772151899  3.16 7.6790462675251  3.16 4.97215189873418  C 3.16 2.26525752994325  5.32694181081896 0.0708860759493669  8 0.0708860759493669  C 10.673058189181 0.0708860759493669  12.84 2.26525752994325  12.84 4.97215189873418  Z " fill-rule="nonzero" fill="#555555" stroke="none" transform="matrix(1 0 0 1 518 174 )" />
  </g>
</svg>