<?xml version="1.0" encoding="utf-8"?>
<svg version="1.1" xmlns:xlink="http://www.w3.org/1999/xlink" width="36px" height="36px" xmlns="http://www.w3.org/2000/svg">
  <g transform="matrix(1 0 0 1 -622 -90 )">
    <path d="M 35.7638203125 18  C 35.7638203125 27.81066796875  27.81066796875 35.76371484375  18 35.76371484375  C 8.18926171875 35.76371484375  0.236179687500001 27.8105625  0.236179687500001 17.99989453125  C 0.236179687500001 8.1892265625  8.18926171875 0.236179687500001  18 0.236179687500001  C 27.81066796875 0.236179687500001  35.7638203125 8.18933203125  35.7638203125 18  Z M 33.54324609375 18  C 33.54324609375 9.4158984375  26.5841015625 2.4566484375  18 2.4566484375  C 9.41593359375 2.4566484375  2.4566484375 9.41579296875  2.4566484375 18  C 2.4566484375 26.58420703125  9.4158984375 33.54324609375  18 33.54324609375  C 26.58406640625 33.54324609375  33.54324609375 26.5841015625  33.54324609375 18  Z M 19.57644140625 18.005765625  L 24.280453125 22.71062109375  C 24.71417578125 23.14360546875  24.71417578125 23.84687109375  24.280453125 24.280453125  C 23.84687109375 24.71417578125  23.14360546875 24.71417578125  22.71062109375 24.280453125  L 18.005765625 19.57644140625  L 13.2699375 24.31226953125  C 12.83262890625 24.7495078125  12.12430078125 24.7495078125  11.68773046875 24.31226953125  C 11.250421875 23.87503125  11.250421875 23.1666328125  11.68773046875 22.7299921875  L 16.42355859375 17.99349609375  L 11.71944140625 13.28937890625  C 11.2857890625 12.8557265625  11.2857890625 12.15312890625  11.71944140625 11.71940625  C 12.1531640625 11.28582421875  12.85569140625 11.28582421875  13.2894140625 11.71940625  L 17.99353125 16.4235234375  L 22.764796875 11.6522578125  C 23.20203515625 11.21565234375  23.91043359375 11.21565234375  24.34707421875 11.6522578125  C 24.7843125 12.08949609375  24.7843125 12.79789453125  24.34707421875 13.235203125  L 19.57637109375 18.0058359375  Z " fill-rule="nonzero" fill="#aaaaaa" stroke="none" transform="matrix(1 0 0 1 622 90 )" />
  </g>
</svg>