<?xml version="1.0" encoding="utf-8"?>
<svg version="1.1" xmlns:xlink="http://www.w3.org/1999/xlink" width="9px" height="5px" xmlns="http://www.w3.org/2000/svg">
  <g transform="matrix(1 0 0 1 -566 -114 )">
    <path d="M 0.2376 0.2677333375  C 0.481387083448909 0.0346407624370954  0.870555758845266 0.0165456838815111  1.13687441424419 0.225920000000001  L 1.1846511627907 0.2673066625  L 4.49687442296512 3.43232  L 7.78677209738372 0.2464  C 8.02913738047313 0.0117655059363329  8.41838020428431 -0.00854916612596313  8.68604651162791 0.1994666625  L 8.73426976744186 0.2404266625  C 8.9798175015991 0.472020156862467  9.00107704232092 0.843963308376507  8.7833860508721 1.0997333375  L 8.74052093459303 1.1453866625  L 4.97642791133721 4.7899733375  C 4.73217792620326 5.02639911335893  4.33922346469355 5.04493266609769  4.07179534447675 4.83264  L 4.02625115843024 4.79296  L 0.237600000000002 1.1726933375  C 0.111901387244031 1.05265828576614  0.0412778678508226 0.889809622958148  0.0412778678508226 0.72  C 0.0412778678508226 0.550190377041851  0.11190138724403 0.387341714233862  0.237600000000002 0.2673066625  Z " fill-rule="nonzero" fill="#555555" stroke="none" transform="matrix(1 0 0 1 566 114 )" />
  </g>
</svg>