<?xml version="1.0" encoding="utf-8"?>
<svg version="1.1" xmlns:xlink="http://www.w3.org/1999/xlink" width="9px" height="9px" xmlns="http://www.w3.org/2000/svg">
  <g transform="matrix(1 0 0 1 -245 -110 )">
    <path d="M 8.94509090795454 4.50568807224771  C 8.94509090795454 2.01614678669725  6.94363636022727 0.0198165137614679  4.5 0.0198165137614679  C 2.05636363977273 0.0198165137614679  0.0549090920454545 2.03963302981651  0.0549090920454545 4.50568807224771  C 0.0549090920454545 6.9717431146789  2.05636363977273 8.99155963073395  4.5 8.99155963073395  C 6.94363636022727 8.99155963073395  8.94509090795454 6.99522935779817  8.94509090795454 4.50568807224771  Z M 4.94218182272727 4.50568807224771  L 6.54800000113636 6.0792660516055  C 6.68763636136364 6.2201834793578  6.68763636136364 6.43155962614679  6.54800000113636 6.57247706422018  C 6.47818181590909 6.64293578325688  6.38509090909091 6.66642201605505  6.29200000227273 6.66642201605505  C 6.19890909545455 6.66642201605505  6.10581818863636 6.64293577293578  6.03600000340909 6.57247706422018  L 4.47672726818182 4.99889908486239  L 2.91745454318182 6.57247706422018  C 2.84763635795455 6.64293578325688  2.75454545113636 6.66642201605505  2.66145454431818 6.66642201605505  C 2.5683636375 6.66642201605505  2.47527273068182 6.64293577293578  2.40545454545454 6.57247706422018  C 2.26581818522727 6.43155963646789  2.26581818522727 6.2201834896789  2.40545454545454 6.0792660516055  L 3.96472727045454 4.50568807224771  L 2.40545454545454 2.93211009288991  C 2.26581818522727 2.79119266513761  2.26581818522727 2.57981651834862  2.40545454545454 2.43889908027523  C 2.54509090568182 2.29798164220183  2.75454545113636 2.29798165252294  2.89418182159091 2.43889908027523  L 4.45345454659091 4.01247705963303  L 6.01272727159091 2.43889908027523  C 6.15236363181818 2.29798165252294  6.36181817727273 2.29798165252294  6.50145454772727 2.43889908027523  C 6.64109091818182 2.57981650802752  6.64109090795454 2.79119265481651  6.50145454772727 2.93211009288991  L 4.94218182272727 4.50568807224771  Z " fill-rule="nonzero" fill="#000000" stroke="none" transform="matrix(1 0 0 1 245 110 )" />
  </g>
</svg>