<?xml version="1.0" encoding="utf-8"?>
<svg version="1.1" xmlns:xlink="http://www.w3.org/1999/xlink" width="14px" height="11px" xmlns="http://www.w3.org/2000/svg">
  <g transform="matrix(1 0 0 1 -563 -138 )">
    <path d="M 13.7522608695652 0.00504166666666686  L 12.5718326086957 0.00504166666666686  C 12.4062907508813 0.00495349684616089  12.249960137983 0.0815208588080238  12.1481347826087 0.212559722222222  L 5.18362173913044 9.1282125  L 1.84456086956522 4.8522375  C 1.74252037375543 4.72146734886684  1.58632639838733 4.64497254109225  1.42086304347826 4.64473472222222  L 0.240450000000001 4.64473472222222  C 0.189146479753796 4.64530680871547  0.142594301243428 4.67500865917851  0.12029347826087 4.72139861111111  C 0.0979121079945123 4.76791070497329  0.103384375893876 4.82309248515979  0.134460869565218 4.86426111111111  L 4.76095869565217 10.7877  C 4.97718260869565 11.0639986111111  5.39223695652174 11.0639986111111  5.60949565217391 10.7877  L 13.8582347826087 0.223559722222223  C 13.8895784154157 0.182607713467099  13.895164425666 0.127383734669876  13.8726608695652 0.0809416666666671  C 13.8503120154226 0.034580059853935  13.8035477905511 0.00510961341708307  13.7522456521739 0.00505694444444471  Z " fill-rule="nonzero" fill="#00bfbf" stroke="none" transform="matrix(1 0 0 1 563 138 )" />
  </g>
</svg>