<?xml version="1.0" encoding="utf-8"?>
<svg version="1.1" xmlns:xlink="http://www.w3.org/1999/xlink" width="14px" height="14px" xmlns="http://www.w3.org/2000/svg">
  <g transform="matrix(1 0 0 1 -238 -281 )">
    <path d="M 245 281  C 248.92 281  252 284.08  252 288  C 252 291.92  248.92 295  245 295  C 241.08 295  238 291.92  238 288  C 238 284.08  241.08 281  245 281  Z " fill-rule="nonzero" fill="#ffffff" stroke="none" fill-opacity="0" />
    <path d="M 245 281.5  C 248.64 281.5  251.5 284.36  251.5 288  C 251.5 291.64  248.64 294.5  245 294.5  C 241.36 294.5  238.5 291.64  238.5 288  C 238.5 284.36  241.36 281.5  245 281.5  Z " stroke-width="1" stroke="#02a7f0" fill="none" />
  </g>
</svg>