<?xml version="1.0" encoding="utf-8"?>
<svg version="1.1" xmlns:xlink="http://www.w3.org/1999/xlink" width="10px" height="10px" xmlns="http://www.w3.org/2000/svg">
  <g transform="matrix(1 0 0 1 -293 -284 )">
    <path d="M 8.54241550884956 1.53829209070796  C 7.57275363938053 0.568618904867257  6.30581226769912 0.0873253982300885  5.03887090707965 0.0873253982300885  C 3.77192953539823 0.0873253982300885  2.50499949115044 0.568618904867257  1.53532630530973 1.53829209070796  C -0.396933882743363 3.47055227876106  -0.396933882743363 6.61312109513274  1.53532630530973 8.54538128318584  C 2.50499949115044 9.51505446902655  3.77192953539823 9.99634797566372  5.03887090707965 9.99634797566372  C 6.30581227876106 9.99634797566372  7.57275363938053 9.51505446902655  8.54241550884956 8.54538128318584  C 10.4746756969027 6.61312109513274  10.4746756969027 3.47055227876106  8.54241550884956 1.53829209070796  Z M 3.36141848451327 0.908358827433629  C 3.89225857300885 0.69602278761062  4.45848422566372 0.582779922566372  5.03887090707965 0.582779922566372  C 5.61925757743363 0.582779922566372  6.18548324115044 0.69602278761062  6.71632332964602 0.908358827433628  C 7.2683992920354 1.13485588495575  7.76384248893805 1.46043478982301  8.18851456858407 1.89218170353982  C 8.62026149336283 2.31685377212389  8.94585171460177 2.81230829646018  9.17233744469027 3.36437294247788  C 9.38467348451328 3.89521303097345  9.49791634955752 4.46143869469027  9.49791634955752 5.04182536504425  C 9.49791634955752 5.62221203539823  9.38467348451327 6.18843769911504  9.17233744469027 6.71927778761062  C 8.94585171460177 7.27135375  8.62026148230088 7.76679694690266  8.18851456858407 8.19146902654867  C 7.7638425 8.62321595132743  7.26838797566372 8.94880617256637  6.71632332964602 9.17529190265487  C 6.18548324115044 9.38762794247788  5.61925757743363 9.50087080752212  5.03887090707965 9.50087080752212  C 4.45848423672566 9.50087080752212  3.89225857300885 9.38762794247788  3.36141848451327 9.17529190265487  C 2.80934252212389 8.94879484513275  2.31389932522124 8.62321594026549  1.88922724557522 8.19146902654867  C 1.45748032079646 7.7667969579646  1.13189009955752 7.27134243362832  0.905404369469026 6.71927778761062  C 0.693068329646017 6.18843769911504  0.579825464601769 5.62221203539823  0.579825464601769 5.04182536504425  C 0.579825464601769 4.46143869469027  0.693068329646017 3.89521303097345  0.905404369469026 3.36437294247788  C 1.13190142699115 2.8122969800885  1.45748033185841 2.31685378318584  1.88922724557522 1.89218170353982  C 2.31389931415929 1.46043477876106  2.80935383849557 1.13484455752212  3.36141848451327 0.908358827433629  Z M 5.42107123893805 7.2218071460177  C 5.42108255530974 7.00948243362832  5.25120693584071 6.83960681415929  5.03887090707965 6.83960681415929  C 4.83360972345133 6.83960681415929  4.65667057522124 7.00947111725664  4.65667057522124 7.2218071460177  C 4.65667057522124 7.42706832964602  4.83362103982301 7.59693263274336  5.03887090707965 7.59693263274336  C 5.25120694690265 7.59693263274336  5.42107123893805 7.42706832964602  5.42107123893805 7.2218071460177  Z M 6.22795495575221 2.89015428097345  C 5.93776162610619 2.62119681415929  5.54140027654867 2.48671807522124  5.04595706858407 2.48671807522124  C 4.57881326327434 2.48671807522124  4.20368777654867 2.60704711283186  3.92058060840708 2.8618435619469  C 3.63746212389381 3.1095651659292  3.46052296460177 3.47054095132743  3.40390153761062 3.94475961283186  L 4.04798449115044 4.02261691371681  C 4.09753107300885 3.66872728982301  4.21784879424779 3.40684466814159  4.39479925884956 3.24405522123894  C 4.57174972345133 3.07419091814159  4.79116061946903 2.99633361725664  5.0530432300885 2.99633361725664  C 5.32907555309735 2.99633361725664  5.56264745575221 3.08834061946903  5.75374762168142 3.27236594026549  C 5.93777294247788 3.44931640486726  6.02977994469026 3.66165244469027  6.02977994469026 3.90937404867257  C 6.02977994469026 4.03677793141593  6.00146922566372 4.16418182522124  5.93777294247787 4.27742469026549  C 5.87407665929203 4.39066755530973  5.73251175884956 4.5393073119469  5.52017571902655 4.73040747787611  C 5.30076483407079 4.92150764380531  5.15212507743363 5.06307255530973  5.06719293141593 5.16215440265487  C 4.96102491150442 5.29663314159292  4.87609276548672 5.43111186946903  4.82654618362832 5.56559060840708  C 4.7557637278761 5.74254107300885  4.72037816371681 5.95487711283186  4.72037816371681 6.19552387168142  L 4.72745300884956 6.38662403761062  L 5.32198938053097 6.38662403761062  C 5.32906422566372 6.13890243362832  5.34322524336283 5.95487711283186  5.37153596238938 5.84870909292035  C 5.40692152654867 5.73546622787611  5.44939326327434 5.63637305309734  5.51308954646018 5.55144090707965  C 5.57678582964602 5.46650876106195  5.70418971238938 5.33203002212389  5.90945090707964 5.15507954646018  C 6.20671909292035 4.88612207964602  6.41198027654867 4.65962502212389  6.51814829646018 4.47559970132743  C 6.61724146017699 4.29157438053097  6.67386289823009 4.08631319690265  6.67386289823009 3.8669023119469  C 6.67386289823009 3.4847019800885  6.52522314159292 3.15911174778761  6.22795495575221 2.89015428097345  Z " fill-rule="nonzero" fill="#015478" stroke="none" transform="matrix(1 0 0 1 293 284 )" />
  </g>
</svg>