<?xml version="1.0" encoding="utf-8"?>
<svg version="1.1" xmlns:xlink="http://www.w3.org/1999/xlink" width="78px" height="32px" xmlns="http://www.w3.org/2000/svg">
  <defs>
    <mask fill="white" id="clip164">
      <path d="M 0 30  L 0 2  C 0 0.879999999999995  0.879999999999995 0  2 0  L 76 0  C 77.12 0  78 0.879999999999995  78 2  L 78 30  C 78 31.12  77.12 32  76 32  L 37.7647058823529 32  L 2 32  C 0.879999999999995 32  0 31.12  0 30  Z " fill-rule="evenodd" />
    </mask>
  </defs>
  <g transform="matrix(1 0 0 1 -329 -632 )">
    <path d="M 0 30  L 0 2  C 0 0.879999999999995  0.879999999999995 0  2 0  L 76 0  C 77.12 0  78 0.879999999999995  78 2  L 78 30  C 78 31.12  77.12 32  76 32  L 37.7647058823529 32  L 2 32  C 0.879999999999995 32  0 31.12  0 30  Z " fill-rule="nonzero" fill="#ffffff" stroke="none" transform="matrix(1 0 0 1 329 632 )" />
    <path d="M 0 30  L 0 2  C 0 0.879999999999995  0.879999999999995 0  2 0  L 76 0  C 77.12 0  78 0.879999999999995  78 2  L 78 30  C 78 31.12  77.12 32  76 32  L 37.7647058823529 32  L 2 32  C 0.879999999999995 32  0 31.12  0 30  Z " stroke-width="2" stroke="#7f7f7f" fill="none" transform="matrix(1 0 0 1 329 632 )" mask="url(#clip164)" />
  </g>
</svg>