<?xml version="1.0" encoding="utf-8"?>
<svg version="1.1" xmlns:xlink="http://www.w3.org/1999/xlink" width="103px" height="103px" xmlns="http://www.w3.org/2000/svg">
  <g transform="matrix(1 0 0 1 -311 -168 )">
    <path d="M 102 88.9625  C 102.55158882149 96.4687051010165  96.4687051010165 102.55158882149  88.9625 102  L 14.0375 102  C 6.53129489898349 102.55158882149  0.448411178509708 96.4687051010165  1 88.9625  L 1 14.0375  C 0.448411178509704 6.5312948989835  6.5312948989835 0.448411178509704  14.0375 1  L 88.9625 1  C 96.4687051010165 0.448411178509708  102.55158882149 6.5312948989835  102 14.0375  L 102 88.9625  Z M 88.9625 6  L 14.0375 6  C 9.28868928503955 5.44035250087203  5.44035250087203 9.28868928503955  6 14.0375  L 6 88.9625  C 5.44035250087203 93.7113107149604  9.28868928503955 97.559647499128  14.0375 97  L 88.9625 97  C 93.7113107149604 97.559647499128  97.559647499128 93.7113107149604  97 88.9625  L 97 14.0375  C 97.559647499128 9.28868928503954  93.7113107149604 5.44035250087203  88.9625 6  Z " fill-rule="nonzero" fill="#ff7c00" stroke="none" transform="matrix(1 0 0 1 311 168 )" />
  </g>
</svg>