<?xml version="1.0" encoding="utf-8"?>
<svg version="1.1" xmlns:xlink="http://www.w3.org/1999/xlink" width="38px" height="54px" xmlns="http://www.w3.org/2000/svg">
  <g transform="matrix(1 0 0 1 -659 -201 )">
    <path d="M 33.554 0  C 36.000853590274 0.0209601744600832  37.979350346643 2.02920876175198  38 4.51285714285714  L 38 48.7928571428571  C 37.7256334541609 51.6184393349769  35.4718555144764 53.8244061959195  32.68 54  L 9.88 54  C 8.3662495776383 51.0189111705108  7.58408224869756 47.710872655254  7.6 44.3571428571429  C 7.53696877309136 33.3473567518584  15.7964124361015 24.1253463461665  26.6 23.1428571428571  C 25.4179586033463 23.1526563279366  24.2815694323769 22.6801473783262  23.446 21.8314285714286  L 5.092 3.20142857142857  C 4.25585480505638 2.3532941851813  3.79034598803278 1.19981645524997  3.8 0  L 33.554 0  Z " fill-rule="nonzero" fill="#000000" stroke="none" transform="matrix(1 0 0 1 659 201 )" />
  </g>
</svg>