<?xml version="1.0" encoding="utf-8"?>
<svg version="1.1" xmlns:xlink="http://www.w3.org/1999/xlink" width="47px" height="15px" xmlns="http://www.w3.org/2000/svg">
  <g transform="matrix(1 0 0 1 -1283 -267 )">
    <path d="M 34.7827246376812 0.659999999999993  C 34.7364359551609 0.657633914996936  34.6900567984623 0.657633914996936  34.643768115942 0.660000000000002  C 34.2407108290209 0.689201684516105  33.8714072160946 0.896011900814383  33.635652173913 1.22454545454546  L 30.6521739130435 5.22545454545455  L 27.6605217391304 1.22454545454546  L 27.6496231884058 1.23  C 27.3871961887281 0.881441466013103  26.9739398550763 0.679682779111362  26.5379710144927 0.687272727272724  C 25.7876991475841 0.699234981074277  25.1883496986725 1.31623522460227  25 2.06727272727272  L 25 12.9490909090909  C 25.1974492753623 13.702206477042  25.8073801958827 14.3127272727273  26.559768115942 14.3127272727273  C 27.3121560360014 14.3127272727273  27.9220869565217 13.702206477042  27.9220869565217 12.9490909090909  L 27.9220869565217 6.11999999999999  L 29.2789565217391 7.93090909090908  C 29.4414849537069 8.52291815459098  29.9792156822828 8.93320977734792  30.5925779765212 8.93320977734792  C 31.0548472270546 8.93320977734792  31.4855769851913 8.69856415682489  31.7365797101449 8.30999999999999  L 33.3713623188406 6.12818181818181  L 33.3713623188406 12.9490909090909  C 33.3713623188406 13.702206477042  33.9812932393609 14.3127272727273  34.7336811594203 14.3127272727273  C 35.4860690794796 14.3127272727273  36.096 13.702206477042  36.096 12.9490909090909  C 36.096 12.9490909090909  36.096 12.9490909090909  36 12.9490909090909  L 36 2.14090909090908  C 36.0994041090925 2.10167403321882  36.1011085604607 2.06230978031898  36.1011085604607 2.02292704126546  C 36.1011085604607 1.28693188364385  35.5176262163575 0.683735916870744  34.7827246376812 0.659999999999993  Z M 2.04357847482373 0.687096561775475  C 2.03627901606128 0.687096561775475  2.02897967518003 0.687155285504491  2.02168115942029 0.687272727272734  C 1.27140929251166 0.699234981074287  0.672059843600032 1.31623522460228  1 2.06727272727273  L 1 12.9490909090909  C 0.681159420289853 13.702206477042  1.29109034081022 14.3127272727273  2.04347826086957 14.3127272727273  C 2.79586618092891 14.3127272727273  3.40579710144928 13.702206477042  3.40579710144928 12.9490909090909  L 3.40579710144928 8.87454545454546  L 8.85507246376812 8.87454545454546  L 8.85507246376812 12.9490909090909  C 8.85507246376812 13.702206477042  9.46500338428848 14.3127272727273  10.2173913043478 14.3127272727273  C 10.9697792244072 14.3127272727273  11.5797101449275 13.702206477042  11.5797101449275 12.9490909090909  L 11.5797101449275 7.72363636363637  C 11.6031111237105 7.57912483704267  11.6031111237105 7.43178425386642  11.5797101449275 7.28727272727273  L 11.5797101449275 2.06727272727272  C 11.579776953616 2.06175971346913  11.5798103588817 2.05624634478977  11.5798103588817 2.05073292541184  C 11.5798103588817 1.29761735746075  10.9698794383613 0.687096561775475  10.217491518302 0.687096561775475  C 10.2101920595395 0.687096561775475  10.2028927186583 0.687155285504491  10.1955942028986 0.687272727272724  C 9.44532233598992 0.699234981074277  8.84597288707829 1.31623522460227  8.85507246376812 2.06727272727272  L 8.85507246376812 6.14727272727272  L 3.40579710144928 6.14727272727272  L 3.40579710144928 2.06727272727272  C 3.40586391013772 2.06175971346913  3.40589731540344 2.05624634478977  3.40589731540344 2.05073292541184  C 3.40589731540344 1.29761735746075  2.79596639488307 0.687096561775475  2.04357847482373 0.687096561775475  Z M 18.372231884058 0.687272727272734  L 18.3695072463768 0.687272727272734  C 18.3240341302022 0.686813799103531  18.2785665767836 0.688634260139819  18.2332753623188 0.692727272727276  L 15.6666666666667 0.692727272727276  C 14.9142787466073 0.692727272727276  14.304347826087 1.30324806841255  14.304347826087 2.05636363636364  C 14.304347826087 2.80947920431473  14.9142787466073 3.42  15.6666666666667 3.42  L 17.0289855072464 3.42  L 17.0289855072464 12.9490909090909  C 17.0289855072464 13.702206477042  17.6389164277667 14.3127272727273  18.3913043478261 14.3127272727273  C 19.1436922678854 14.3127272727273  19.7536231884058 13.702206477042  19.7536231884058 12.9490909090909  L 19.7536231884058 3.42  L 21.1159420289855 3.42  C 21.8683299490448 3.42  22.4782608695652 2.80947920431473  22.4782608695652 2.05636363636364  C 22.4782608695652 1.30324806841255  21.8683299490448 0.692727272727276  21.1159420289855 0.692727272727276  L 18.5357101449275 0.692727272727276  C 18.4813757224156 0.687633231406247  18.4267845955017 0.685811767307084  18.372231884058 0.687272727272734  Z M 40.1830567356933 0.687096561775504  C 40.1757572769308 0.687096561775504  40.1684579360496 0.687155285504521  40.1611594202898 0.687272727272734  C 39.4108875533812 0.699234981074287  38.8115381044696 1.31623522460228  38 2.06727272727273  L 38 12.8481818181818  C 38.8081243694002 13.0155833360349  38.8265983028045 13.1838587149214  38.8751304347826 13.3445454545455  C 38.8751268019287 13.3463636345454  38.8751268019287 13.34818182  38.8751304347826 13.35  C 38.8776974223268 13.3618540438382  38.8804223025223 13.3736732775681  38.8833043478261 13.3854545454545  C 38.8948161132703 13.4177413556129  38.9075401295304 13.4495821603257  38.9214492753623 13.4809090909091  C 38.9426782384601 13.5342252953519  38.9672488485825 13.5861467490438  38.9950144927536 13.6363636363636  C 39.0121335341091 13.6652068463229  39.0303101545085 13.6934078552936  39.0495072463768 13.7209090909091  C 39.0548504179748 13.7300633034353  39.0603000639131 13.73915483075  39.0658550724638 13.7481818181818  C 39.085706154534 13.7762354857673  39.1066099792075 13.8035277133391  39.1285217391304 13.83  C 39.1512074861059 13.8554231079176  39.174837612842 13.8799858177688  39.1993623188406 13.9036363636364  C 39.2091508560874 13.9156239947239  39.2191426430608 13.9274438904269  39.2293333333333 13.9390909090909  C 39.2522592932273 13.9598903648547  39.2758865235921 13.9799019715876  39.3001739130435 13.9990909090909  C 39.3126868315019 14.0102337718342  39.3254039692607 14.0211447176041  39.3383188405797 14.0318181818182  C 39.3481736037527 14.0410572574828  39.3581650459713 14.0501491712301  39.3682898550724 14.0590909090909  C 39.399188116674 14.0813239785331  39.4310034583476 14.1022514228143  39.463652173913 14.1218181818182  C 39.5303908441248 14.1632596780503  39.6005846842394 14.1988467859434  39.6734492753623 14.2281818181818  C 39.6977043802064 14.2379777104953  39.7222362878129 14.2470723893308  39.7470144927536 14.2554545454546  C 39.8942703460971 14.3059980242331  40.0490914430143 14.3309040500307  40.2047536231884 14.3290909090909  L 45.615884057971 14.3290909090909  C 46.3682719780304 14.3290909090909  46.9782028985507 13.7185701134057  46.9782028985507 12.9654545454546  C 46.9782028985507 12.2123389775035  46.3682719780304 11.6018181818182  45.615884057971 11.6018181818182  L 41.5452753623188 11.6018181818182  L 41.5452753623188 2.06727272727275  C 41.5453421710073 2.06175971346943  41.545375576273 2.05624634478953  41.545375576273 2.05073292541187  C 41.545375576273 1.29761735746078  40.9354446557526 0.687096561775504  40.1830567356933 0.687096561775504  Z " fill-rule="nonzero" fill="#e9eded" stroke="none" transform="matrix(1 0 0 1 1283 267 )" />
  </g>
</svg>