<?xml version="1.0" encoding="utf-8"?>
<svg version="1.1" xmlns:xlink="http://www.w3.org/1999/xlink" width="31px" height="24px" xmlns="http://www.w3.org/2000/svg">
  <g transform="matrix(1 0 0 1 -1476 -225 )">
    <path d="M 9.06233333333333 0.0103783783783772  C 6.22066666666667 0.0103783783783772  3.89566666666666 2.34551351351351  3.89566666666666 5.19956756756757  L 3.89566666666666 7.79416216216216  C 3.89566666666666 9.25491891891892  2.76416666666666 10.3887567567568  1.31233333333333 10.3887567567568  C 1.22574713749021 10.3869599592764  1.13920052103428 10.3939138704992  1.054 10.4095135135135  C 0.576778992147299 10.5001610266801  0.190523195088583 10.8520131880364  0.0542499999999975 11.3202162162162  C 0.0428285653433811 11.3603816735986  0.0333452951075794 11.4010777331727  0.0258333333333328 11.4421621621622  C 0.0258298888854462 11.4438918901622  0.0258298888854462 11.4456216233514  0.0258333333333328 11.4473513513514  C 0.0111486901452869 11.5261005798321  0.0037590102818017 11.6060467636924  0.0037590102818017 11.6861652001069  C 0.0037590102818017 12.4026427134009  0.582057875083694 12.9834624974042  1.29542567694847 12.9834624974042  C 1.30106174348724 12.9834624974042  1.30669774966503 12.9834254479264  1.31233333333333 12.9833513513514  C 2.76416666666666 12.9833513513514  3.89566666666666 14.1171891891892  3.89566666666666 15.5779459459459  L 3.89566666666666 18.1725405405405  C 3.89566666666666 21.0265945945946  6.22066666666667 23.3617297297297  9.06233333333333 23.3617297297297  C 9.7757011351981 23.3617297297297  10.354 22.7809099457264  10.354 22.0644324324324  C 10.354 21.3479549191384  9.7757011351981 20.7671351351351  9.06233333333333 20.7671351351351  C 7.60791666666666 20.7671351351351  6.479 19.6332972972973  6.479 18.1725405405405  L 6.479 15.5779459459459  C 6.479 14.0263783783784  5.77375 12.6382702702703  4.68616666666667 11.6860540540541  C 5.81727048490833 10.7111363537298  6.47139811729801 9.29115269912733  6.479 7.79416216216217  L 6.479 5.19956756756757  C 6.479 3.73881081081081  7.60791666666666 2.60497297297298  9.06233333333333 2.60497297297298  C 9.7757011351981 2.60497297297298  10.354 2.02415318896968  10.354 1.30767567567568  C 10.354 0.591198162381677  9.7757011351981 0.0103783783783818  9.06233333333333 0.0103783783783818  Z M 21.8085 0.0103783783783726  L 21.8059166666667 0.0103783783783772  C 21.1181188423434 0.0456089780075309  20.5784462783798 0.615981807638486  20.5784462783798 1.30767567567567  C 20.5784462783798 2.0250843628731  21.1574967324519 2.6066590124729  21.8717916666667 2.6066590124729  C 21.8937606937432 2.6066590124729  21.915726154696 2.6060968168782  21.9376666666667 2.60497297297297  C 23.3920833333333 2.60497297297297  24.521 3.73881081081081  24.521 5.19956756756757  L 24.521 7.79416216216216  C 24.521 9.34832432432432  25.22625 10.7312432432432  26.3138333333333 11.6860540540541  C 25.2288333333333 12.6382702702703  24.521 14.0263783783784  24.521 15.5779459459459  L 24.521 18.1725405405405  C 24.521 19.6332972972973  23.3920833333333 20.7671351351351  21.9376666666667 20.7671351351351  C 21.2242988648019 20.7671351351351  20.646 21.3479549191384  20.646 22.0644324324324  C 20.646 22.7809099457264  21.2242988648019 23.3617297297297  21.9376666666667 23.3617297297297  C 24.7793333333333 23.3617297297297  27.1043333333333 21.0265945945946  27.1043333333333 18.1725405405405  L 27.1043333333333 15.5779459459459  C 27.1043333333333 14.1171891891892  28.2358333333333 12.9833513513513  29.6876666666667 12.9833513513513  C 29.9923664364088 12.9878451402381  30.2888364687522 12.8839959067834  30.5246666666667 12.6901621621622  C 30.5589902517662 12.6607698755516  30.5917573649546 12.6295920267435  30.6228333333333 12.5967567567568  C 30.8611132509253 12.3540169323759  30.9946948324975 12.0268376913622  30.9946948324975 11.6859623072016  C 30.9946948324975 10.9694847939076  30.4163959676956 10.3886650099043  29.7030281658308 10.3886650099043  C 29.6979075303067 10.3886650099043  29.6927869400516 10.3886955927292  29.6876666666667 10.3887567567568  C 28.2358333333333 10.3887567567568  27.1043333333333 9.25491891891891  27.1043333333333 7.79416216216216  L 27.1043333333333 5.19956756756756  C 27.1043333333333 2.34551351351351  24.7793333333333 0.0103783783783726  21.9376666666667 0.0103783783783726  C 21.8946380545231 0.0082148631730246  21.8515286121435 0.0082148631730246  21.8085 0.0103783783783726  Z M 18.0833333333333 6.4812972972973  C 18.0833333333333 5.04834227070929  16.9267356037296 3.8867027027027  15.5 3.8867027027027  C 14.0732643962705 3.8867027027027  12.9166666666667 5.04834227070929  12.9166666666667 6.4812972972973  C 12.9166666666667 7.9142523238853  14.0732643962705 9.07589189189189  15.5 9.07589189189189  C 16.9267356037296 9.07589189189189  18.0833333333333 7.9142523238853  18.0833333333333 6.4812972972973  Z M 18.0833333333333 14.2650810810811  C 18.0833333333333 12.8321260544931  16.9267356037296 11.6704864864865  15.5 11.6704864864865  C 14.0732643962705 11.6704864864865  12.9166666666667 12.8321260544931  12.9166666666667 14.2650810810811  C 12.9162895083729 15.2009617074332  13.4177630524811 16.0645197437516  14.229 16.524972972973  L 13.0665 18.8652972972973  C 12.9744341904426 19.0473372453587  12.9264498894111 19.2486324423623  12.9264498894111 19.4528105880061  C 12.9264498894111 20.1692881013002  13.504748754213 20.7501078853034  14.2181165560777 20.7501078853034  C 14.7115648698021 20.7501078853034  15.1618977578217 20.4677457769379  15.3785833333333 20.0224864864865  L 17.3160833333333 16.1098378378378  C 17.7809462591251 15.646658280252  18.0533352717106 15.0234604915948  18.0781666666667 14.3662702702703  C 18.0781976669457 14.3610811277846  18.0781976669457 14.3558918451884  18.0781666666667 14.3507027027027  C 18.0803585386385 14.3221927069663  18.0820809961915 14.2936482665416  18.0833333333333 14.2650810810811  Z " fill-rule="nonzero" fill="#25b39e" stroke="none" transform="matrix(1 0 0 1 1476 225 )" />
  </g>
</svg>