<?xml version="1.0" encoding="utf-8"?>
<svg version="1.1" xmlns:xlink="http://www.w3.org/1999/xlink" width="47px" height="23px" xmlns="http://www.w3.org/2000/svg">
  <g transform="matrix(1 0 0 1 -1561 -238 )">
    <path d="M 20.2479828381148 20.7576497395833  C 20.3638575819672 21.490625  20.5376696977459 22.0259440104167  20.7859727202869 22.35537109375  C 21.0342757428279 22.6847981770833  21.4894979508197 22.8330403645833  22.1764696465164 22.8165690104167  C 22.6647989241803 22.8165690104167  23.0455302254098 22.75068359375  23.326940317623 22.6106770833333  C 23.6083504098361 22.4706705729167  23.8069928278689 22.2894856770833  23.9311443391393 22.0671223958333  C 24.0552958504098 21.8447591145833  24.1297867571721 21.589453125  24.1380635245902 21.29296875  C 24.1463402920082 20.996484375  24.1297867571721 20.6917643229167  24.088402920082 20.3705729166667  L 21.3405161372951 2.45797526041666  C 21.2163646260246 1.67558593749999  20.9018474641393 1.07438151041666  20.3969646516393 0.662597656249995  C 19.9003586065574 0.250813802083328  19.3375384221311 0.0449218749999946  18.7250576331967 0.0449218749999946  C 18.0877465420082 0.0449218749999946  17.524926357582 0.209635416666661  17.0531506147541 0.539062499999995  C 16.5730981045082 0.868489583333328  16.2006435706967 1.52734374999999  15.9192334784836 2.52386067708333  L 12.3767770235656 15.8656575520833  L 8.73499935963115 2.58974609374999  C 8.43703573258197 1.57675781249999  8.05630443135246 0.893196614583322  7.58452868852459 0.555533854166661  C 7.11275294569673 0.217871093749995  6.54165599385246 0.0449218749999946  5.86296106557377 0.0449218749999946  C 5.18426613729508 0.0449218749999946  4.61316918545082 0.242578124999995  4.15794697745902 0.646126302083328  C 3.70272476946722 1.04967447916666  3.4213146772541 1.61793619791666  3.31371670081968 2.35914713541666  L 0.56582991803279 20.3705729166667  C 0.416848104508199 21.2600260416667  0.466508709016396 21.8859375  0.723088498975413 22.25654296875  C 0.979668288934429 22.6271484375  1.43489049692623 22.8083333333333  2.09703189036886 22.8083333333333  C 2.90815509733607 22.8083333333333  3.46269851434426 22.6271484375  3.76893890881148 22.25654296875  C 4.07517930327869 21.8859375  4.28209848872951 21.31767578125  4.38969646516394 20.5599934895833  L 5.88779136782787 9.31829427083333  C 5.9705590420082 8.80768229166666  6.09471055327869 8.55237630208333  6.25196913422131 8.55237630208333  C 6.40922771516394 8.55237630208333  6.56648629610656 8.80768229166667  6.71546810963115 9.31829427083333  C 7.31139536372951 11.3689778645833  7.9155993852459 13.4031901041667  8.51980340676229 15.4044596354167  C 9.12400742827869 17.4057291666667  9.73648821721311 19.4317057291667  10.3572457735656 21.490625  C 10.4234599129098 21.7212239583333  10.4896740522541 21.9188802083333  10.5641649590164 22.0753580729167  C 10.6386558657787 22.2318359375  10.7462538422131 22.3718424479167  10.8952356557377 22.4871419270833  C 11.0442174692623 22.60244140625  11.234583119877 22.6847981770833  11.466332607582 22.7424479166667  C 11.6980820952869 22.7918619791667  11.9960457223361 22.8248046875  12.3602234887295 22.8248046875  C 13.0389184170082 22.8248046875  13.502417392418 22.70126953125  13.750720414959 22.4624348958333  C 13.9990234375 22.2153645833333  14.1728355532787 21.8941731770833  14.2804335297131 21.490625  L 17.8559970543033 9.29358723958333  C 18.0049788678279 8.80768229166667  18.1622374487705 8.56061197916667  18.3360495645492 8.56061197916667  C 18.5098616803279 8.56061197916667  18.6340131915984 8.80768229166667  18.7167808657787 9.29358723958333  L 20.2479828381148 20.7576497395833  Z M 31.5126632940574 22.50361328125  L 37.5712570440574 22.50361328125  C 39.1438428534836 22.50361328125  40.5177862448771 22.2400716145833  41.6930872182377 21.71298828125  C 42.8601114241803 21.1859049479167  43.8450467469262 20.42822265625  44.6313396516393 19.4564127604167  C 45.4176325563525 18.4846028645833  46.0052830430328 17.31513671875  46.3860143442623 15.9480143229167  C 46.7667456454918 14.5808919270833  46.9571112961066 13.06552734375  46.9571112961066 11.3936848958333  C 46.9571112961066 9.82890624999999  46.7750224129098 8.37119140625  46.4025678790983 7.02877604166666  C 46.0301133452869 5.68636067708333  45.4590163934426 4.51689453124999  44.6810002561475 3.53684895833333  C 43.9029841188525 2.54856770833333  42.9180487961066 1.78264973958333  41.7096407530738 1.21438802083333  C 40.509509477459 0.654361979166667  39.0776287141393 0.374348958333333  37.4139984631148 0.374348958333333  L 31.5126632940574 0.374348958333333  C 30.7429239241803 0.374348958333333  30.2711481813525 0.497884114583333  30.0725057633197 0.73671875  C 29.8821401127049 0.9837890625  29.7828189036885 1.33792317708333  29 1.79912109374999  L 29 21.0788411458333  C 29.7828189036885 21.5482747395833  29.8821401127049 21.9024088541667  30.0890592981558 22.1412434895833  C 30.2877017161885 22.3883138020833  30.7677542264344 22.50361328125  31.5126632940574 22.50361328125  Z M 42.8104508196721 11.28662109375  C 42.8021740522541 16.5574544270833  41.0640528944672 19.2011067708333  37.5712570440574 19.2011067708333  L 34 19.2011067708333  L 34 3.66861979166667  L 36.7684106045082 3.66861979166667  C 37.9354348104508 3.66861979166667  38.9038165983606 3.84156901041667  39.6735559682377 4.17923177083334  C 40.4432953381148 4.51689453125001  41.0557761270492 5.01103515625001  41.5275518698771 5.65341796875  C 41.9993276127049 6.29580078125  42.3221215420082 7.09466145833333  42.520763960041 8.05000000000001  C 42.7111296106557 9.00533854166667  42.8104508196721 10.0842122395833  42.8104508196721 11.28662109375  Z " fill-rule="nonzero" fill="#ffffff" stroke="none" transform="matrix(1 0 0 1 1561 238 )" />
  </g>
</svg>