<?xml version="1.0" encoding="utf-8"?>
<svg version="1.1" xmlns:xlink="http://www.w3.org/1999/xlink" width="26px" height="33px" xmlns="http://www.w3.org/2000/svg">
  <g transform="matrix(1 0 0 1 -655 -337 )">
    <path d="M 1 4  L 12.6285714285714 4  C 15.5481651676831 3.4668809557369  18.4445700451605 4.29866902311504  20.8 6.01333333333334  C 22.7410865022424 7.74564679576488  23.7796513387242 10.2548110312729  23.6228571428572 12.8333333333333  C 23.6718013463624 14.8793435915962  23.2127312041636 16.9060859537182  22.2857142857143 18.7366666666667  C 21.3543672152436 20.317584841396  19.972137364774 21.5928268553687  18.3114285714286 22.4033333333333  C 16.4381570528876 23.2567349736407  14.3942844458464 23.6828265873717  12.3314285714286 23.65  L 6.61142857142857 23.65  L 6.61142857142857 33  L 1 33  L 1 4  Z M 7 8.17666666666667  L 7 18.3333333333333  L 11.5885714285714 18.3333333333333  C 13.17011794915 18.442553042757  14.7387631597584 17.9871017561173  16.0085714285714 17.05  C 17.0519411259088 15.9689363478268  17.5905245136464 14.5068205484238  17.4942857142857 13.0166666666667  C 17.4942857142857 9.79  15.6 8.17666666666667  11.7742857142857 8.17666666666667  L 7 8.17666666666667  Z " fill-rule="nonzero" fill="#ffffff" stroke="none" transform="matrix(1 0 0 1 655 337 )" />
  </g>
</svg>