<?xml version="1.0" encoding="utf-8"?>
<svg version="1.1" xmlns:xlink="http://www.w3.org/1999/xlink" width="50px" height="50px" xmlns="http://www.w3.org/2000/svg">
  <g transform="matrix(1 0 0 1 -50 -30 )">
    <path d="M 0.0532292405961698 1.89985795454545  C -0.0295718003312073 2.38517992424242  0.0473148805299251 2.85274621212121  0.283889283179561 3.30255681818182  L 22.9950319375444 48.7571022727273  C 23.3972084220487 49.5857007575758  24.0714454696002 50  25.0177430801987 50  C 25.1360302815235 50  25.3134610835108 49.9763257575758  25.5500354861604 49.9289772727273  C 26.0704991719896 49.8106060606061  26.4904187366927 49.5442708333333  26.8097941802697 49.1299715909091  C 27.1291696238467 48.7156723484848  27.2888573456352 48.2481060606061  27 47.7272727272727  L 27 27  L 47.7288857345635 27  C 48.2493494203927 27.2727272727273  48.7165838656257 27.1129261363636  49.1305890702626 26.7933238636364  C 49.5445942748995 26.4737215909091  49.8107404778803 26.0535037878788  49.9290276792051 25.5326704545455  C 50.0473148805299 25.0118371212121  50 24.514678030303  49.7870830376153 24.0411931818182  C 49.5741660752307 23.5677083333333  49.2311331913887 23.2125946969697  48.7579843860894 22.9758522727273  L 3.33569907735983 0.248579545454547  C 3.0281523539153 0.0828598484848453  2.68511947007333 0  2.30660042583393 0  C 1.66784953867992 0  1.13555713271824 0.224905303030298  0.709723207948898 0.674715909090912  C 0.354861603974449 1.0061553030303  0.136030281523536 1.41453598484848  0.0532292405961698 1.89985795454545  Z " fill-rule="nonzero" fill="#aaaaaa" stroke="none" transform="matrix(1 0 0 1 50 30 )" />
  </g>
</svg>