<?xml version="1.0" encoding="utf-8"?>
<svg version="1.1" xmlns:xlink="http://www.w3.org/1999/xlink" width="16px" height="16px" xmlns="http://www.w3.org/2000/svg">
  <g transform="matrix(1 0 0 1 -785 -679 )">
    <path d="M 15.4380859375 7.71015625  C 15.434765625 3.6361328125  12.12109375 0.322460937499999  8.050390625 0.322460937500001  C 3.9763671875 0.322460937500001  0.662695312499999 3.6361328125  0.662695312499999 7.71015625  C 0.662695312499999 11.7841796875  3.9763671875 15.0978515625  8.050390625 15.0978515625  C 12.1244140625 15.0978515625  15.4380859375 11.7841796875  15.4380859375 7.71015625  Z M 14.1896484375 7.71015625  C 14.1896484375 11.1001953125  11.4404296875 13.8494140625  8.050390625 13.8494140625  C 4.6603515625 13.8494140625  1.9111328125 11.1001953125  1.9111328125 7.71015625  C 1.9111328125 4.3201171875  4.6603515625 1.5708984375  8.050390625 1.5708984375  C 11.4404296875 1.5708984375  14.1896484375 4.3201171875  14.1896484375 7.71015625  Z " fill-rule="nonzero" fill="#108ee9" stroke="none" transform="matrix(1 0 0 1 785 679 )" />
  </g>
</svg>