<?xml version="1.0" encoding="utf-8"?>
<svg version="1.1" xmlns:xlink="http://www.w3.org/1999/xlink" width="11px" height="11px" xmlns="http://www.w3.org/2000/svg">
  <g transform="matrix(1 0 0 1 -226 -464 )">
    <path d="M 11 5.5  C 11 2.46125  8.53875 0  5.5 0  C 2.46125 0  0 2.46125  0 5.5  C 0 8.53875  2.46125 11  5.5 11  C 8.53875 11  11 8.53875  11 5.5  Z M 6.05 8.25  L 6.05 9.35  L 4.95 9.35  L 4.95 8.25  L 6.05 8.25  Z M 7.7 3.85  C 7.7 4.334  7.50475 4.77125  7.18575 5.09025  L 6.6935 5.59625  C 6.2975 5.99225  6.05 6.325  6.05 7.15  L 4.95 7.15  L 4.95 6.875  C 4.95 6.26725  5.1975 5.71725  5.5935 5.3185  L 6.27825 4.6255  C 6.47625 4.4275  6.6 4.1525  6.6 3.85  C 6.6 3.24225  6.10775 2.75  5.5 2.75  C 4.89225 2.75  4.4 3.24225  4.4 3.85  L 3.3 3.85  C 3.3 2.6345  4.2845 1.65  5.5 1.65  C 6.7155 1.65  7.7 2.6345  7.7 3.85  Z " fill-rule="nonzero" fill="#ffffff" stroke="none" transform="matrix(1 0 0 1 226 464 )" />
  </g>
</svg>