<?xml version="1.0" encoding="utf-8"?>
<svg version="1.1" xmlns:xlink="http://www.w3.org/1999/xlink" width="20px" height="25px" xmlns="http://www.w3.org/2000/svg">
  <g transform="matrix(1 0 0 1 -29 -88 )">
    <path d="M 15.0520833333333 0.948660714285715  L 19.1145833333333 5.30133928571428  C 19.3576388888889 5.56175595238095  19.5659722222222 5.91517857142857  19.7395833333333 6.36160714285714  C 19.9131944444444 6.80803571428572  20 7.2172619047619  20 7.58928571428572  L 20 23.6607142857143  C 20 24.0327380952381  19.8784722222222 24.3489583333333  19.6354166666667 24.609375  C 19.3923611111111 24.8697916666667  19.0972222222222 25  18.75 25  L 1.25 25  C 0.902777777777778 25  0.607638888888889 24.8697916666667  0.364583333333333 24.609375  C 0.121527777777778 24.3489583333333  0 24.0327380952381  0 23.6607142857143  L 0 1.33928571428572  C 0 0.967261904761904  0.121527777777778 0.651041666666666  0.364583333333333 0.390625  C 0.607638888888889 0.130208333333334  0.902777777777778 0  1.25 0  L 12.9166666666667 0  C 13.2638888888889 0  13.6458333333333 0.0930059523809534  14.0625 0.279017857142858  C 14.4791666666667 0.465029761904762  14.8090277777778 0.688244047619047  15.0520833333333 0.948660714285715  Z M 13.8671875 2.20424107142857  C 13.7630208333333 2.09263392857143  13.5850694444444 1.99032738095238  13.3333333333333 1.89732142857143  L 13.3333333333333 7.14285714285714  L 18.2291666666667 7.14285714285714  C 18.1423611111111 6.87313988095238  18.046875 6.68247767857143  17.9427083333333 6.57087053571428  L 13.8671875 2.20424107142857  Z M 2 23  L 18 23  L 18 8.92857142857143  L 12.9166666666667 8.92857142857143  C 12.5694444444444 8.92857142857143  12.2743055555556 8.79836309523809  12.03125 8.53794642857143  C 11.7881944444444 8.27752976190476  11.6666666666667 7.96130952380952  11.6666666666667 7.58928571428572  L 11.6666666666667 2  L 2 2  L 2 23  Z M 3.30729166666667 14.9135044642857  L 6.25 10.7142857142857  C 6.31944444444445 10.6119791666667  6.41059027777778 10.5538504464286  6.5234375 10.5398995535714  C 6.63628472222222 10.5259486607143  6.74045138888889 10.5561755952381  6.8359375 10.6305803571429  L 7.5 11.1607142857143  C 7.59548611111111 11.235119047619  7.64973958333333 11.332775297619  7.66276041666667 11.4536830357143  C 7.67578125 11.5745907738095  7.64756944444445 11.6861979166667  7.578125 11.7885044642857  L 5.20833333333333 15.1785714285714  L 7.578125 18.5686383928571  C 7.64756944444445 18.6709449404762  7.67578125 18.7825520833333  7.66276041666667 18.9034598214286  C 7.64973958333333 19.0243675595238  7.59548611111111 19.1220238095238  7.5 19.1964285714286  L 6.8359375 19.7265625  C 6.74045138888889 19.8009672619048  6.63628472222222 19.8311941964286  6.5234375 19.8172433035714  C 6.41059027777778 19.8032924107143  6.31944444444445 19.7451636904762  6.25 19.6428571428571  L 3.30729166666667 15.4436383928571  C 3.18576388888889 15.2669270833333  3.18576388888889 15.0902157738095  3.30729166666667 14.9135044642857  Z M 13.75 10.7142857142857  L 16.6927083333333 14.9135044642857  C 16.8142361111111 15.0902157738095  16.8142361111111 15.2669270833333  16.6927083333333 15.4436383928571  L 13.75 19.6428571428571  C 13.6805555555556 19.7451636904762  13.5894097222222 19.8032924107143  13.4765625 19.8172433035714  C 13.3637152777778 19.8311941964286  13.2595486111111 19.8009672619048  13.1640625 19.7265625  L 12.5 19.1964285714286  C 12.4045138888889 19.1220238095238  12.3502604166667 19.0243675595238  12.3372395833333 18.9034598214286  C 12.32421875 18.7825520833333  12.3524305555556 18.6709449404762  12.421875 18.5686383928571  L 14.7916666666667 15.1785714285714  L 12.421875 11.7885044642857  C 12.3524305555556 11.6861979166667  12.32421875 11.5745907738095  12.3372395833333 11.4536830357143  C 12.3502604166667 11.332775297619  12.4045138888889 11.235119047619  12.5 11.1607142857143  L 13.1640625 10.6305803571429  C 13.2595486111111 10.5561755952381  13.3637152777778 10.5259486607143  13.4765625 10.5398995535714  C 13.5894097222222 10.5538504464286  13.6805555555556 10.6119791666667  13.75 10.7142857142857  Z M 9.44010416666667 21.484375  L 8.61979166666667 21.3448660714286  C 8.50694444444444 21.3262648809524  8.41796875 21.2658110119048  8.35286458333333 21.1635044642857  C 8.28776041666667 21.0611979166667  8.26388888888889 20.9495907738095  8.28125 20.8286830357143  L 10.078125 9.23549107142857  C 10.0954861111111 9.11458333333333  10.1519097222222 9.01925223214286  10.2473958333333 8.94949776785714  C 10.3428819444444 8.87974330357143  10.4470486111111 8.85416666666667  10.5598958333333 8.87276785714286  L 11.3802083333333 9.01227678571428  C 11.4930555555556 9.03087797619047  11.58203125 9.09133184523809  11.6471354166667 9.19363839285714  C 11.7122395833333 9.29594494047619  11.7361111111111 9.40755208333333  11.71875 9.52845982142857  L 9.921875 21.1216517857143  C 9.90451388888889 21.2425595238095  9.84809027777778 21.337890625  9.75260416666667 21.4076450892857  C 9.65711805555556 21.4773995535714  9.55295138888889 21.5029761904762  9.44010416666667 21.484375  Z " fill-rule="nonzero" fill="#000000" stroke="none" transform="matrix(1 0 0 1 29 88 )" />
  </g>
</svg>