<?xml version="1.0" encoding="utf-8"?>
<svg version="1.1" xmlns:xlink="http://www.w3.org/1999/xlink" width="27px" height="22px" xmlns="http://www.w3.org/2000/svg">
  <g transform="matrix(1 0 0 1 -29 -309 )">
    <path d="M 12.4615384615385 4  L 23.3653846153846 4  C 24.3605769230769 4.00000000000002  25.2151442307692 4.34375000000002  25.9290865384615 5.03125000000002  C 26.6430288461539 5.71875000000002  27 6.54166666666665  27 7.49999999999999  L 27 18.5  C 27 19.4583333333333  26.6430288461539 20.28125  25.9290865384615 20.96875  C 25.2151442307692 21.65625  24.3605769230769 22  23.3653846153846 22  L 3.63461538461538 22  C 2.63942307692308 22  1.78485576923077 21.65625  1.07091346153846 20.96875  C 0.356971153846154 20.28125  0 19.4583333333333  0 18.5  L 0 3.50000000000001  C 0 2.54166666666667  0.356971153846154 1.71875  1.07091346153846 1.03125  C 1.78485576923077 0.34375  2.63942307692308 0  3.63461538461538 0  L 8.82692307692307 0  C 9.82211538461539 0  10.6766826923077 0.34375  11.390625 1.03125  C 12.1045673076923 1.71875  12.4615384615385 2.54166666666667  12.4615384615385 3.50000000000001  L 12.4615384615385 4  Z M 3.63461538461538 20  L 23.3653846153846 20  C 23.7980769230769 20  24.1658653846154 19.8541666666667  24.46875 19.5625  C 24.7716346153846 19.2708333333333  24.9230769230769 18.9166666666666  24 18.5  L 24 7.49999999999999  C 24.9230769230769 7.08333333333333  24.7716346153846 6.72916666666668  24.46875 6.4375  C 24.1658653846154 6.14583333333333  23.7980769230769 6.00000000000001  23.3653846153846 6  L 11.9423076923077 6  C 11.5096153846154 6.00000000000001  11.1418269230769 5.85416666666665  10.8389423076923 5.56250000000001  C 10.5360576923077 5.27083333333333  10.3846153846154 4.91666666666664  10.3846153846154 4.49999999999998  L 10.3846153846154 3.50000000000001  C 10.3846153846154 3.08333333333335  10.2331730769231 2.72916666666666  9.93028846153847 2.43749999999998  C 9.62740384615384 2.14583333333335  9.25961538461539 1.99999999999999  8.82692307692307 1.99999999999999  L 3.63461538461538 1.99999999999999  C 3.20192307692308 1.99999999999999  2.83413461538461 2.14583333333335  2.53125 2.43749999999998  C 2.22836538461539 2.72916666666666  2.07692307692308 3.08333333333335  3 3.50000000000001  L 3 18.5  C 2.07692307692308 18.9166666666666  2.22836538461539 19.2708333333333  2.53125 19.5625  C 2.83413461538461 19.8541666666667  3.20192307692308 20  3.63461538461538 20  Z M 14.7272727272727 8.14814814814815  L 20.7102272727273 8.14814814814815  C 21.2807173295455 8.14814814814815  21.7685102982955 8.34374999999999  22.1736061789773 8.73495370370369  C 22.5787020596591 9.12615740740739  22.78125 9.5972222222222  22.78125 10.1481481481481  L 22.78125 15.9259259259259  C 22.78125 16.4768518518519  22.5787020596591 16.9479166666667  22.1736061789773 17.3391203703704  C 21.7685102982955 17.7303240740741  21.2807173295455 17.9259259259259  20.7102272727273 17.9259259259259  L 14.7272727272727 17.9259259259259  C 14.1567826704545 17.9259259259259  13.6689897017045 17.7303240740741  13.2638938210227 17.3391203703704  C 12.8587979403409 16.9479166666667  12.65625 16.4768518518519  12.65625 15.9259259259259  L 12.65625 10.1481481481481  C 12.65625 9.5972222222222  12.8587979403409 9.12615740740739  13.2638938210227 8.73495370370369  C 13.6689897017045 8.34374999999999  14.1567826704545 8.14814814814815  14.7272727272727 8.14814814814815  Z M 14.7272727272727 17.0370370370371  L 20.7102272727273 17.0370370370371  C 21.0266335227273 17.0370370370371  21.2974964488636 16.9282407407407  21.5228160511364 16.7106481481482  C 21.7481356534091 16.4930555555555  21.8607954545455 16.2314814814815  21.8607954545455 15.9259259259259  L 21.8607954545455 10.1481481481481  C 21.8607954545455 9.84259259259258  21.7481356534091 9.58101851851854  21.5228160511364 9.36342592592591  C 21.2974964488636 9.14583333333333  21.0266335227273 9.03703703703702  20.7102272727273 9.03703703703702  L 14.7272727272727 9.03703703703702  C 14.4108664772727 9.03703703703702  14.1400035511364 9.14583333333333  13.9146839488636 9.36342592592591  C 13.6893643465909 9.58101851851854  13.5767045454545 9.84259259259258  13.5767045454545 10.1481481481481  L 13.5767045454545 15.9259259259259  C 13.5767045454545 16.2314814814815  13.6893643465909 16.4930555555555  13.9146839488636 16.7106481481482  C 14.1400035511364 16.9282407407407  14.4108664772727 17.0370370370371  14.7272727272727 17.0370370370371  Z M 18.1789772727273 12.5925925925926  L 20.7102272727273 12.5925925925926  C 20.77734375 12.5925925925926  20.8324751420455 12.6134259259259  20.8756214488636 12.6550925925926  C 20.9187677556818 12.6967592592593  20.9403409090909 12.75  20.9403409090909 12.8148148148148  L 20.9403409090909 13.2592592592592  C 20.9403409090909 13.3240740740741  20.9187677556818 13.3773148148148  20.8756214488636 13.4189814814815  C 20.8324751420455 13.4606481481482  20.77734375 13.4814814814815  20.7102272727273 13.4814814814815  L 18.1789772727273 13.4814814814815  L 18.1789772727273 15.9259259259259  C 18.1789772727273 15.9907407407407  18.1574041193182 16.0439814814815  18.1142578125 16.0856481481481  C 18.0711115056818 16.1273148148148  18.0159801136364 16.1481481481481  17.9488636363636 16.1481481481481  L 17.4886363636364 16.1481481481481  C 17.4215198863636 16.1481481481481  17.3663884943182 16.1273148148148  17.3232421875 16.0856481481481  C 17.2800958806818 16.0439814814815  17.2585227272727 15.9907407407407  17.2585227272727 15.9259259259259  L 17.2585227272727 13.4814814814815  L 14.7272727272727 13.4814814814815  C 14.66015625 13.4814814814815  14.6050248579545 13.4606481481482  14.5618785511364 13.4189814814815  C 14.5187322443182 13.3773148148148  14.4971590909091 13.3240740740741  14.4971590909091 13.2592592592592  L 14.4971590909091 12.8148148148148  C 14.4971590909091 12.75  14.5187322443182 12.6967592592593  14.5618785511364 12.6550925925926  C 14.6050248579545 12.6134259259259  14.66015625 12.5925925925926  14.7272727272727 12.5925925925926  L 17.2585227272727 12.5925925925926  L 17.2585227272727 10.1481481481481  C 17.2585227272727 10.0833333333333  17.2800958806818 10.0300925925926  17.3232421875 9.98842592592594  C 17.3663884943182 9.94675925925927  17.4215198863636 9.92592592592593  17.4886363636364 9.92592592592593  L 17.9488636363636 9.92592592592593  C 18.0159801136364 9.92592592592593  18.0711115056818 9.94675925925927  18.1142578125 9.98842592592594  C 18.1574041193182 10.0300925925926  18.1789772727273 10.0833333333333  18.1789772727273 10.1481481481481  L 18.1789772727273 12.5925925925926  Z M 18.1789772727273 12.5925925925926  L 20.7102272727273 12.5925925925926  C 20.77734375 12.5925925925926  20.8324751420455 12.6134259259259  20.8756214488636 12.6550925925926  C 20.9187677556818 12.6967592592593  20.9403409090909 12.75  20.9403409090909 12.8148148148148  L 20.9403409090909 13.2592592592592  C 20.9403409090909 13.3240740740741  20.9187677556818 13.3773148148148  20.8756214488636 13.4189814814815  C 20.8324751420455 13.4606481481482  20.77734375 13.4814814814815  20.7102272727273 13.4814814814815  L 18.1789772727273 13.4814814814815  L 18.1789772727273 15.9259259259259  C 18.1789772727273 15.9907407407407  18.1574041193182 16.0439814814815  18.1142578125 16.0856481481481  C 18.0711115056818 16.1273148148148  18.0159801136364 16.1481481481481  17.9488636363636 16.1481481481481  L 17.4886363636364 16.1481481481481  C 17.4215198863636 16.1481481481481  17.3663884943182 16.1273148148148  17.3232421875 16.0856481481481  C 17.2800958806818 16.0439814814815  17.2585227272727 15.9907407407407  17.2585227272727 15.9259259259259  L 17.2585227272727 13.4814814814815  L 14.7272727272727 13.4814814814815  C 14.66015625 13.4814814814815  14.6050248579545 13.4606481481482  14.5618785511364 13.4189814814815  C 14.5187322443182 13.3773148148148  14.4971590909091 13.3240740740741  14.4971590909091 13.2592592592592  L 14.4971590909091 12.8148148148148  C 14.4971590909091 12.75  14.5187322443182 12.6967592592593  14.5618785511364 12.6550925925926  C 14.6050248579545 12.6134259259259  14.66015625 12.5925925925926  14.7272727272727 12.5925925925926  L 17.2585227272727 12.5925925925926  L 17.2585227272727 10.1481481481481  C 17.2585227272727 10.0833333333333  17.2800958806818 10.0300925925926  17.3232421875 9.98842592592594  C 17.3663884943182 9.94675925925927  17.4215198863636 9.92592592592593  17.4886363636364 9.92592592592593  L 17.9488636363636 9.92592592592593  C 18.0159801136364 9.92592592592593  18.0711115056818 9.94675925925927  18.1142578125 9.98842592592594  C 18.1574041193182 10.0300925925926  18.1789772727273 10.0833333333333  18.1789772727273 10.1481481481481  L 18.1789772727273 12.5925925925926  Z M 18.1789772727273 12.5925925925926  L 20.7102272727273 12.5925925925926  C 20.77734375 12.5925925925926  20.8324751420455 12.6134259259259  20.8756214488636 12.6550925925926  C 20.9187677556818 12.6967592592593  20.9403409090909 12.75  20.9403409090909 12.8148148148148  L 20.9403409090909 13.2592592592592  C 20.9403409090909 13.3240740740741  20.9187677556818 13.3773148148148  20.8756214488636 13.4189814814815  C 20.8324751420455 13.4606481481482  20.77734375 13.4814814814815  20.7102272727273 13.4814814814815  L 18.1789772727273 13.4814814814815  L 18.1789772727273 15.9259259259259  C 18.1789772727273 15.9907407407407  18.1574041193182 16.0439814814815  18.1142578125 16.0856481481481  C 18.0711115056818 16.1273148148148  18.0159801136364 16.1481481481481  17.9488636363636 16.1481481481481  L 17.4886363636364 16.1481481481481  C 17.4215198863636 16.1481481481481  17.3663884943182 16.1273148148148  17.3232421875 16.0856481481481  C 17.2800958806818 16.0439814814815  17.2585227272727 15.9907407407407  17.2585227272727 15.9259259259259  L 17.2585227272727 13.4814814814815  L 14.7272727272727 13.4814814814815  C 14.66015625 13.4814814814815  14.6050248579545 13.4606481481482  14.5618785511364 13.4189814814815  C 14.5187322443182 13.3773148148148  14.4971590909091 13.3240740740741  14.4971590909091 13.2592592592592  L 14.4971590909091 12.8148148148148  C 14.4971590909091 12.75  14.5187322443182 12.6967592592593  14.5618785511364 12.6550925925926  C 14.6050248579545 12.6134259259259  14.66015625 12.5925925925926  14.7272727272727 12.5925925925926  L 17.2585227272727 12.5925925925926  L 17.2585227272727 10.1481481481481  C 17.2585227272727 10.0833333333333  17.2800958806818 10.0300925925926  17.3232421875 9.98842592592594  C 17.3663884943182 9.94675925925927  17.4215198863636 9.92592592592593  17.4886363636364 9.92592592592593  L 17.9488636363636 9.92592592592593  C 18.0159801136364 9.92592592592593  18.0711115056818 9.94675925925927  18.1142578125 9.98842592592594  C 18.1574041193182 10.0300925925926  18.1789772727273 10.0833333333333  18.1789772727273 10.1481481481481  L 18.1789772727273 12.5925925925926  Z " fill-rule="nonzero" fill="#000000" stroke="none" transform="matrix(1 0 0 1 29 309 )" />
  </g>
</svg>