<?xml version="1.0" encoding="utf-8"?>
<svg version="1.1" xmlns:xlink="http://www.w3.org/1999/xlink" width="48px" height="48px" xmlns="http://www.w3.org/2000/svg">
  <g transform="matrix(1 0 0 1 -905 -34 )">
    <path d="M 929 34  C 942.44 34  953 44.56  953 58  C 953 71.44  942.44 82  929 82  C 915.56 82  905 71.44  905 58  C 905 44.56  915.56 34  929 34  Z " fill-rule="nonzero" fill="#ffffff" stroke="none" />
    <path d="M 929 34.5  C 942.16 34.5  952.5 44.84  952.5 58  C 952.5 71.16  942.16 81.5  929 81.5  C 915.84 81.5  905.5 71.16  905.5 58  C 905.5 44.84  915.84 34.5  929 34.5  Z " stroke-width="1" stroke="#000000" fill="none" />
  </g>
</svg>