<?xml version="1.0" encoding="utf-8"?>
<svg version="1.1" xmlns:xlink="http://www.w3.org/1999/xlink" width="14px" height="14px" xmlns="http://www.w3.org/2000/svg">
  <g transform="matrix(1 0 0 1 -2349 -367 )">
    <path d="M 2356 368  C 2359.36 368  2362 370.64  2362 374  C 2362 377.36  2359.36 380  2356 380  C 2352.64 380  2350 377.36  2350 374  C 2350 370.64  2352.64 368  2356 368  Z " fill-rule="nonzero" fill="#ffffff" stroke="none" />
    <path d="M 2356 368  C 2359.36 368  2362 370.64  2362 374  C 2362 377.36  2359.36 380  2356 380  C 2352.64 380  2350 377.36  2350 374  C 2350 370.64  2352.64 368  2356 368  Z " stroke-width="2" stroke="#797979" fill="none" />
  </g>
</svg>