<?xml version="1.0" encoding="utf-8"?>
<svg version="1.1" xmlns:xlink="http://www.w3.org/1999/xlink" width="28px" height="14px" xmlns="http://www.w3.org/2000/svg">
  <g transform="matrix(1 0 0 1 -2349 -367 )">
    <path d="M 28 7  C 28 10.92  24.9916279069767 14  21.1627906976744 14  L 6.83720930232558 14  C 3.00837209302326 14  0 10.92  0 7  C 0 3.08  3.00837209302326 0  6.83720930232558 0  L 21.1627906976744 0  C 24.9916279069767 0  28 3.08  28 7  Z M 14.9767441860465 7  C 14.9767441860465 10.1733333333333  17.4120930232558 12.6666666666667  20.5116279069767 12.6666666666667  C 23.6111627906977 12.6666666666667  26.046511627907 10.1733333333333  26.046511627907 7  C 26.046511627907 3.82666666666667  23.6111627906977 1.33333333333333  20.5116279069767 1.33333333333333  C 17.4120930232558 1.33333333333333  14.9767441860465 3.82666666666667  14.9767441860465 7  Z " fill-rule="nonzero" fill="#00bfbf" stroke="none" transform="matrix(1 0 0 1 2349 367 )" />
  </g>
</svg>