<?xml version="1.0" encoding="utf-8"?>
<svg version="1.1" xmlns:xlink="http://www.w3.org/1999/xlink" width="29px" height="29px" xmlns="http://www.w3.org/2000/svg">
  <g transform="matrix(1 0 0 1 -4330 -306 )">
    <path d="M 4344.5 306  C 4352.62 306  4359 312.38  4359 320.5  C 4359 328.62  4352.62 335  4344.5 335  C 4336.38 335  4330 328.62  4330 320.5  C 4330 312.38  4336.38 306  4344.5 306  Z " fill-rule="nonzero" fill="#ffffff" stroke="none" />
    <path d="M 4344.5 306.5  C 4352.34 306.5  4358.5 312.66  4358.5 320.5  C 4358.5 328.34  4352.34 334.5  4344.5 334.5  C 4336.66 334.5  4330.5 328.34  4330.5 320.5  C 4330.5 312.66  4336.66 306.5  4344.5 306.5  Z " stroke-width="1" stroke="#d7d7d7" fill="none" />
  </g>
</svg>