<?xml version="1.0" encoding="utf-8"?>
<svg version="1.1" xmlns:xlink="http://www.w3.org/1999/xlink" width="32px" height="32px" preserveAspectRatio="xMinYMid meet" viewBox="1379 1833  32 30" xmlns="http://www.w3.org/2000/svg">
  <path d="M 1465.5 597  L 1465.5 1185  A 3 3 0 0 1 1468.5 1188 A 3 3 0 0 1 1465.5 1191 L 1465.5 1346  A 3 3 0 0 1 1468.5 1349 A 3 3 0 0 1 1465.5 1352 L 1465.5 1843  A 5 5 0 0 1 1460 1848.5 L 1434 1848.5  A 3 3 0 0 0 1431 1845.5 A 3 3 0 0 0 1428 1848.5 L 1395 1848.5  " stroke-width="1" stroke-dasharray="9,4" stroke="#f59a23" fill="none" />
  <path d="M 1400.7 1842.5  L 1394 1848.5  L 1400.7 1854.5  L 1398.4 1848.5  L 1400.7 1842.5  Z " fill-rule="nonzero" fill="#f59a23" stroke="none" />
</svg>