<?xml version="1.0" encoding="utf-8"?>
<svg version="1.1" xmlns:xlink="http://www.w3.org/1999/xlink" width="96px" height="27px" viewBox="1088 157  96 27" xmlns="http://www.w3.org/2000/svg">
  <path d="M 1088.5 162  A 4.5 4.5 0 0 1 1093 157.5 L 1179 157.5  A 4.5 4.5 0 0 1 1183.5 162 L 1183.5 179  A 4.5 4.5 0 0 1 1179 183.5 L 1093 183.5  A 4.5 4.5 0 0 1 1088.5 179 L 1088.5 162  Z " fill-rule="nonzero" fill="#81d3f8" stroke="none" fill-opacity="0.109803921568627" />
  <path d="M 1088.5 162  A 4.5 4.5 0 0 1 1093 157.5 L 1179 157.5  A 4.5 4.5 0 0 1 1183.5 162 L 1183.5 179  A 4.5 4.5 0 0 1 1179 183.5 L 1093 183.5  A 4.5 4.5 0 0 1 1088.5 179 L 1088.5 162  Z " stroke-width="1" stroke="#81d3f8" fill="none" />
</svg>