<?xml version="1.0" encoding="utf-8"?>
<svg version="1.1" xmlns:xlink="http://www.w3.org/1999/xlink" width="96px" height="27px" viewBox="1088 157  96 27" xmlns="http://www.w3.org/2000/svg">
  <path d="M 1089 162  A 4 4 0 0 1 1093 158 L 1179 158  A 4 4 0 0 1 1183 162 L 1183 179  A 4 4 0 0 1 1179 183 L 1093 183  A 4 4 0 0 1 1089 179 L 1089 162  Z " fill-rule="nonzero" fill="#f0f0f0" stroke="none" />
  <path d="M 1088.5 162  A 4.5 4.5 0 0 1 1093 157.5 L 1179 157.5  A 4.5 4.5 0 0 1 1183.5 162 L 1183.5 179  A 4.5 4.5 0 0 1 1179 183.5 L 1093 183.5  A 4.5 4.5 0 0 1 1088.5 179 L 1088.5 162  Z " stroke-width="1" stroke="#81d3f8" fill="none" stroke-opacity="0.329411764705882" />
</svg>