<?xml version="1.0" encoding="utf-8"?>
<svg version="1.1" xmlns:xlink="http://www.w3.org/1999/xlink" width="16px" height="16px" xmlns="http://www.w3.org/2000/svg">
  <g transform="matrix(1 0 0 1 -313 -351 )">
    <path d="M 3.1664 12.864  C 3.6352 10.4432  6.4352 9.8224  8.024 9.8224  C 9.6128 9.8224  12.4128 10.4272  12.8816 12.8496  C 14.0928 11.6384  14.8336 9.944  14.8336 8.0832  C 14.8336 4.3152  11.792 1.2736  8.024 1.2736  C 4.256 1.2736  1.2144 4.3296  1.2144 8.0816  C 1.2144 9.9424  1.9552 11.6384  3.1664 12.864  Z M 4.8304 6.1456  C 4.832 4.3888  6.2688 2.952  8.024 2.952  C 9.7792 2.952  11.2176 4.3744  11.2176 6.1456  C 11.2176 7.9008  9.7952 9.3392  8.024 9.3392  C 8.02079517040023 9.33920967745809  8.01759032801558 9.33921451619541  8.01438548380459 9.33921451619541  C 6.25591084034334 9.33921451619541  4.83038548380459 7.91368915965666  4.83038548380459 6.15521451619541  C 4.83038548380459 6.15200967198442  4.83039032254191 6.14880482959977  4.8304 6.1456  Z M 11.0224 15.1328  C 10.083583085826 15.5306834210807  9.07404922678611 15.734767085307  8.0544 15.7328  C 7.0256 15.7328  6.0256 15.5312  5.0864 15.1328  C 4.1776 14.7488  3.3632 14.1984  2.6624 13.4992  C 1.96588933810164 12.8047297481287  1.4110601159735 11.9814523029533  1.0288 11.0752  C 0.6288 10.1344  0.4272 9.136  0.4272 8.1072  C 0.4272 7.0784  0.6288 6.0784  1.0272 5.1392  C 1.4112 4.2304  1.9616 3.416  2.6608 2.7152  C 3.3616 2.0144  4.176 1.4656  5.0848 1.0816  C 6.0256 0.6816  7.024 0.48  8.0544 0.48  C 9.0832 0.48  10.0832 0.6816  11.0224 1.08  C 11.9312 1.464  12.7456 2.0144  13.4464 2.7136  C 14.1472 3.4144  14.696 4.2288  15.08 5.1376  C 15.4784 6.0784  15.68 7.0768  15.68 8.1072  C 15.68 9.136  15.4784 10.136  15.08 11.0752  C 14.696 11.984  14.1456 12.7984  13.4464 13.4992  C 12.7519297481287 14.1957106618984  11.9286523029533 14.7505398840265  11.0224 15.1328  Z M 10.784 1.6448  C 9.92024288499109 1.2801641968662  8.99196792943047 1.09298565951986  8.0544 1.0944  C 7.1072 1.0944  6.1888 1.28  5.3248 1.6448  C 4.49174516778678 1.99683910074063  3.7348459143313 2.50705331394573  3.096 3.1472  C 2.45482285114996 3.78519520136533  1.94446394443455 4.54230910664175  1.5936 5.376  C 1.22866218728252 6.23966392477298  1.04147113569706 7.16800094222876  1.0432 8.1056  C 1.0432 9.0528  1.2288 9.9712  1.5936 10.8352  C 1.9472 11.6704  2.4528 12.4208  3.096 13.064  C 3.7392 13.7088  4.4896 14.2144  5.3248 14.5664  C 6.1888 14.9312  7.1072 15.1168  8.0544 15.1168  C 9.0016 15.1168  9.92 14.9312  10.784 14.5664  C 11.6192 14.2128  12.3696 13.7072  13.0128 13.064  C 13.6576 12.4208  14.1632 11.6704  14.5152 10.8352  C 14.88 9.9712  15.0656 9.0528  15.0656 8.1056  C 15.0656 7.1584  14.88 6.24  14.5152 5.376  C 14.1631608992594 4.54294516778678  13.6529466860543 3.78604591433131  13.0128 3.1472  C 12.3748047986347 2.50602285114996  11.6176908933583 1.99566394443455  10.784 1.6448  Z " fill-rule="nonzero" fill="#02a7f0" stroke="none" transform="matrix(1 0 0 1 313 351 )" />
  </g>
</svg>