<?xml version="1.0" encoding="utf-8"?>
<svg version="1.1" xmlns:xlink="http://www.w3.org/1999/xlink" width="1456px" height="121px" xmlns="http://www.w3.org/2000/svg">
  <defs>
    <filter x="96px" y="73px" width="1456px" height="121px" filterUnits="userSpaceOnUse" id="filter24">
      <feOffset dx="5" dy="5" in="SourceAlpha" result="shadowOffsetInner" />
      <feGaussianBlur stdDeviation="16.5" in="shadowOffsetInner" result="shadowGaussian" />
      <feComposite in2="shadowGaussian" operator="atop" in="SourceAlpha" result="shadowComposite" />
      <feColorMatrix type="matrix" values="0 0 0 0 0.666666666666667  0 0 0 0 0.666666666666667  0 0 0 0 0.666666666666667  0 0 0 0.349019607843137 0  " in="shadowComposite" />
    </filter>
    <g id="widget25">
      <path d="M 124.5 128.5  A 27 27 0 0 1 151.5 101.5 L 1486.5 101.5  A 27 27 0 0 1 1513.5 128.5 A 27 27 0 0 1 1486.5 155.5 L 151.5 155.5  A 27 27 0 0 1 124.5 128.5 Z " fill-rule="nonzero" fill="#ffffff" stroke="none" fill-opacity="0" />
      <path d="M 124.5 128.5  A 27 27 0 0 1 151.5 101.5 L 1486.5 101.5  A 27 27 0 0 1 1513.5 128.5 A 27 27 0 0 1 1486.5 155.5 L 151.5 155.5  A 27 27 0 0 1 124.5 128.5 Z " stroke-width="1" stroke="#f2f2f2" fill="none" />
    </g>
  </defs>
  <g transform="matrix(1 0 0 1 -96 -73 )">
    <use xlink:href="#widget25" filter="url(#filter24)" />
    <use xlink:href="#widget25" />
  </g>
</svg>