<?xml version="1.0" encoding="utf-8"?>
<svg version="1.1" xmlns:xlink="http://www.w3.org/1999/xlink" width="20px" height="13px" xmlns="http://www.w3.org/2000/svg">
  <g transform="matrix(1 0 0 1 -180 -386 )">
    <path d="M 19.625 6.974609375  C 19.625 3.859375  17.08984375 1.32421875  13.9724609375 1.32421875  C 13.0572265625 1.32421875  12.1935546875 1.543359375  11.4265625 1.9322265625  L 10.9302734375 0.8408203125  C 10.5521484375 1.096484375  10.1310546875 1.28984375  9.677734375 1.4080078125  L 10.2685546875 2.7099609375  C 9.3705078125 3.48984375  8.7216796875 4.5490234375  8.4552734375 5.75  L 5.4861328125 5.75  L 7.5271484375 1.384375  C 7.078125 1.25546875  6.6591796875 1.053515625  6.2875 0.789257812500001  L 3.9693359375 5.75  L 0.375 5.75  L 0.375 12.625  L 13.5234375 12.625  L 13.5234375 12.6078125  C 13.6716796875 12.6185546875  13.8220703125 12.625  13.9724609375 12.625  C 15.4828125 12.625  16.90078125 12.036328125  17.9685546875 10.970703125  C 19.036328125 9.9029296875  19.625 8.4849609375  19.625 6.974609375  Z M 10.279296875 11.25  L 1.75 11.25  L 1.75 7.125  L 8.3263671875 7.125  C 8.3650390625 8.57734375  8.947265625 9.939453125  9.978515625 10.970703125  C 10.0751953125 11.0673828125  10.176171875 11.1619140625  10.279296875 11.25  Z M 18.25 6.974609375  C 18.25 9.3314453125  16.3314453125 11.25  13.9724609375 11.25  C 11.6177734375 11.25  9.69921875 9.3314453125  9.69921875 6.974609375  C 9.69921875 4.6177734375  11.6177734375 2.69921875  13.9724609375 2.69921875  C 16.3314453125 2.69921875  18.25 4.6177734375  18.25 6.974609375  Z " fill-rule="nonzero" fill="#727272" stroke="none" transform="matrix(1 0 0 1 180 386 )" />
  </g>
</svg>