<?xml version="1.0" encoding="utf-8"?>
<svg version="1.1" xmlns:xlink="http://www.w3.org/1999/xlink" width="9px" height="9px" xmlns="http://www.w3.org/2000/svg">
  <g transform="matrix(1 0 0 1 -184 -379 )">
    <path d="M 4.646484375 0.375  C 6.90234375 0.375  8.728515625 2.201171875  8.728515625 4.45703125  C 8.728515625 5.8642578125  8.0173828125 7.1060546875  6.932421875 7.838671875  C 6.554296875 8.0943359375  6.133203125 8.2876953125  5.6798828125 8.405859375  C 5.3490234375 8.491796875  5.003125 8.5369140625  4.646484375 8.5369140625  C 4.2576171875 8.5369140625  3.881640625 8.483203125  3.5271484375 8.3822265625  C 3.078125 8.2533203125  2.6591796875 8.0513671875  2.2875 7.787109375  C 1.2455078125 7.0501953125  0.564453124999999 5.83203125  0.564453124999999 4.45703125  C 0.564453124999999 2.201171875  2.390625 0.375  4.646484375 0.375  Z " fill-rule="nonzero" fill="#02a7f0" stroke="none" transform="matrix(1 0 0 1 184 379 )" />
  </g>
</svg>