<?xml version="1.0" encoding="utf-8"?>
<svg version="1.1" xmlns:xlink="http://www.w3.org/1999/xlink" width="31px" height="31px" xmlns="http://www.w3.org/2000/svg">
  <g transform="matrix(1 0 0 1 -131 -759 )">
    <path d="M 146.5 760  C 154.62 760  161 766.38  161 774.5  C 161 782.62  154.62 789  146.5 789  C 138.38 789  132 782.62  132 774.5  C 132 766.38  138.38 760  146.5 760  Z " fill-rule="nonzero" fill="#02a7f0" stroke="none" />
    <path d="M 146.5 760  C 154.62 760  161 766.38  161 774.5  C 161 782.62  154.62 789  146.5 789  C 138.38 789  132 782.62  132 774.5  C 132 766.38  138.38 760  146.5 760  Z " stroke-width="2" stroke="#ffffff" fill="none" />
  </g>
</svg>