<?xml version="1.0" encoding="utf-8"?>
<svg version="1.1" xmlns:xlink="http://www.w3.org/1999/xlink" width="31px" height="31px" xmlns="http://www.w3.org/2000/svg">
  <g transform="matrix(1 0 0 1 -131 -759 )">
    <path d="M 146.5 759  C 155.18 759  162 765.82  162 774.5  C 162 783.18  155.18 790  146.5 790  C 137.82 790  131 783.18  131 774.5  C 131 765.82  137.82 759  146.5 759  Z " fill-rule="nonzero" fill="#ffffff" stroke="none" fill-opacity="0.109803921568627" />
    <path d="M 146.5 759.5  C 154.9 759.5  161.5 766.1  161.5 774.5  C 161.5 782.9  154.9 789.5  146.5 789.5  C 138.1 789.5  131.5 782.9  131.5 774.5  C 131.5 766.1  138.1 759.5  146.5 759.5  Z " stroke-width="1" stroke="#d7d7d7" fill="none" />
  </g>
</svg>