<?xml version="1.0" encoding="utf-8"?>
<svg version="1.1" xmlns:xlink="http://www.w3.org/1999/xlink" width="21px" height="10px" xmlns="http://www.w3.org/2000/svg">
  <g transform="matrix(1 0 0 1 -198 -121 )">
    <path d="M 20.7895791583166 8.1786941580756  C 20.9298597194389 8.29324169530355  21 8.42497136311569  21 8.57388316151203  C 21 8.72279495990836  20.9298597194389 8.8545246277205  20.7895791583166 8.96907216494845  L 19.7374749498998 9.82817869415807  C 19.5971943887776 9.94272623138602  19.435871743487 10  19.2535070140281 10  C 19.0711422845691 10  18.9098196392786 9.94272623138602  18.7695390781563 9.82817869415807  L 10.5 3.07560137457045  L 2.23046092184369 9.82817869415807  C 2.09018036072144 9.94272623138602  1.92885771543086 10  1.74649298597194 10  C 1.56412825651303 10  1.40280561122245 9.94272623138602  1.2625250501002 9.82817869415807  L 0.210420841683367 8.96907216494845  C 0.0701402805611225 8.8545246277205  0 8.72279495990836  0 8.57388316151203  C 0 8.42497136311569  0.0701402805611225 8.29324169530355  0.210420841683367 8.1786941580756  L 10.0160320641283 0.171821305841925  C 10.1563126252505 0.0572737686139735  10.3176352705411 0  10.5 0  C 10.6823647294589 0  10.8436873747495 0.0572737686139735  10.9839679358717 0.171821305841925  L 20.7895791583166 8.1786941580756  Z " fill-rule="nonzero" fill="#81d3f8" stroke="none" transform="matrix(1 0 0 1 198 121 )" />
  </g>
</svg>