<?xml version="1.0" encoding="utf-8"?>
<svg version="1.1" xmlns:xlink="http://www.w3.org/1999/xlink" width="6px" height="4px" xmlns="http://www.w3.org/2000/svg">
  <g transform="matrix(1 0 0 1 -23 -127 )">
    <path d="M 0.646693548387097 3.6725  C 0.653225806451613 3.678125  0.660241935483872 3.68333333333333  0.667016129032258 3.6875  C 0.691209677419355 3.70541666666667  0.710322580645162 3.70833333333333  0.695080645161291 3.69708333333334  C 0.679480693562455 3.6881401230543  0.663327842160636 3.67993357716154  0.646693548387097 3.6725  Z M 2.79895161290323 3.68833333333333  L 2.81443548387097 3.676875  C 2.80233870967742 3.68395833333333  2.79024193548387 3.6925  2.77935483870968 3.70041666666667  C 2.7863327736713 3.6969537846549  2.7928968381636 3.69290639509483  2.79895161290323 3.68833333333333  Z M 1.95629032258065 3.99104166666667  L 1.96475806451613 3.99104166666667  C 2.03733870967742 3.98479166666667  2.00201612903226 3.98625  1.96306451612903 3.99104166666667  L 1.95629032258065 3.99104166666667  Z M 1.92556451612903 3.99625  C 1.93548387096774 3.994375  1.94588709677419 3.99291666666667  1.95629032258065 3.99166666666667  L 1.95459677419355 3.99166666666667  C 1.9441935483871 3.99291666666667  1.93379032258065 3.99458333333333  1.92556451612903 3.99625  Z M 0.631693548387097 3.66625  L 0.646693548387097 3.67333333333333  L 0.645241935483871 3.67208333333334  L 0.631693548387097 3.66625  Z M 0.125806451612903 3.06833333333333  L 0.136693548387096 3.09395833333333  C 0.146854838709677 3.11770833333333  0.162338709677419 3.13166666666667  0.156532258064515 3.11708333333333  C 0.147096774193548 3.10041666666667  0.136693548387096 3.08416666666667  0.125806451612903 3.06833333333333  Z M 5.55774193548387 1.31479166666667  L 5.57443548387097 1.29833333333334  C 5.58233747988907 1.29099213913246  5.58857389835002 1.28244213706849  5.59282258064516 1.273125  C 5.5800808532977 1.28633658960391  5.56836201267275 1.30025551908182  5.55774193548387 1.31479166666667  Z M 5.81443548387097 0.939791666666669  C 5.81782258064516 0.93416666666667  5.82120967741935 0.92854166666667  5.82483870967742 0.923333333333334  L 5.81637096774193 0.935208333333335  C 5.81562243874494 0.936702259763974  5.81497617071981 0.938232658351256  5.81443548387097 0.939791666666669  Z M 2.81443548387097 3.67729166666667  C 2.82067664468124 3.67325951446229  2.82731475864744 3.66970434570194  2.83427419354839 3.66666666666667  L 2.82024193548387 3.67270833333333  L 2.81443548387097 3.67729166666667  Z M 5.92475806451613 0.176875  C 5.92246362308413 0.164113296243277  5.92109002153511 0.151241392838654  5.92064516129032 0.138333333333333  L 5.92064516129032 0.157916666666668  C 5.92064516129032 0.163958333333333  5.92354838709678 0.170416666666668  5.92475806451613 0.176875  Z M 5.92983870967742 0.216041666666667  C 5.93038584732807 0.206063830754985  5.92957386327741 0.196065149375611  5.92741935483871 0.186250000000001  L 5.92524193548387 0.176875  C 5.92645161290322 0.183124999999999  5.92741935483871 0.189166666666668  5.92790322580645 0.195208333333333  C 5.92838709677419 0.201249999999999  5.92790322580645 0.208541666666666  5.92983870967742 0.216041666666667  Z M 5.54903225806452 1.32875  C 5.55165385312112 1.32403848902422  5.55456108543604 1.31944883060112  5.55774193548387 1.315  L 5.5558064516129 1.316875  C 5.55362903225806 1.320625  5.55120967741935 1.32458333333333  5.54903225806452 1.32875  Z M 0.117096774193548 3.055  L 0.125806451612903 3.06833333333333  L 0.125806451612903 3.066875  L 0.117096774193548 3.055  Z " fill-rule="nonzero" fill="#02a7f0" stroke="none" transform="matrix(1 0 0 1 23 127 )" />
  </g>
</svg>