<?xml version="1.0" encoding="utf-8"?>
<svg version="1.1" xmlns:xlink="http://www.w3.org/1999/xlink" width="9px" height="9px" xmlns="http://www.w3.org/2000/svg">
  <g transform="matrix(1 0 0 1 -23 -123 )">
    <path d="M 5.398425 5.65232142857143  C 5.40135 5.64405612244898  5.404275 5.63579081632653  5.407425 5.62752551020408  C 5.397975 5.64520408163265  5.389425 5.6640306122449  5.381325 5.68331632653061  C 5.38903463664712 5.6742811912201  5.39485366170492 5.66373381765937  5.398425 5.65232142857143  Z M 0.0191250000000005 7.0934693877551  C 0.0187887904692977 7.10723290301067  0.0175863136558462 7.12096015744995  0.0155249999999999 7.13456632653061  C 0.0166500000000002 7.12767857142857  0.0180000000000003 7.12079081632653  0.0191250000000005 7.11413265306123  C 0.0202500000000008 7.10747448979592  0.0191250000000005 7.10081632653061  0.0191250000000005 7.0934693877551  Z M 1.424025 8.99426020408163  L 1.432575 8.99609693877551  L 1.424025 8.99426020408163  Z M 6.404625 0.16438775510204  C 6.3432 0.208469387755102  6.402375 0.168061224489796  6.427125 0.148086734693877  L 6.404625 0.16438775510204  Z M 1.405575 8.99012755102041  C 1.36665 8.98507653061225  1.32435 8.9827806122449  1.396125 8.99012755102041  L 1.405575 8.99012755102041  Z M 8.898525 2.06747448979592  C 8.894475 2.07895408163265  8.8875 2.09502551020408  8.8812 2.10994897959184  L 8.893575 2.08377551020408  C 8.89800413934444 2.07524504214539  8.90097186665498 2.06600486553749  8.90235 2.05645408163265  C 8.90235 2.06012755102041  8.899875 2.06380102040816  8.898525 2.06747448979592  Z M 8.87625 2.1269387755102  C 8.87739743868297 2.12113551882411  8.87905411379377 2.11544934265531  8.8812 2.10994897959184  L 8.878275 2.11591836734694  C 8.878275 2.11959183673469  8.876925 2.12303571428571  8.87625 2.1269387755102  Z " fill-rule="nonzero" fill="#02a7f0" stroke="none" transform="matrix(1 0 0 1 23 123 )" />
  </g>
</svg>