<?xml version="1.0" encoding="utf-8"?>
<svg version="1.1" xmlns:xlink="http://www.w3.org/1999/xlink" width="20px" height="20px" xmlns="http://www.w3.org/2000/svg">
  <g transform="matrix(1 0 0 1 -17 -117 )">
    <path d="M 19.9776785714286 10  C 19.9776785714286 4.48950892857143  15.5104910714286 0.0223214285714286  10 0.0223214285714286  C 4.48950892857143 0.0223214285714286  0.0223214285714286 4.48950892857143  0.0223214285714286 10  C 0.0223214285714286 15.5104910714286  4.48950892857143 19.9776785714286  10 19.9776785714286  C 15.5104910714286 19.9776785714286  19.9776785714286 15.5104910714286  19.9776785714286 10  Z M 11.2495535714286 8.6484375  C 11.9013392857143 9.25602678571429  12.1705357142857 10.1475446428571  12.0457589285714 11.0183035714286  C 11.9604910714286 11.6133928571429  11.6459821428571 12.1290178571429  11.2267857142857 12.5482142857143  L 9.37075892857143 14.4042410714286  C 9.11049107142857 14.6651785714286  8.86160714285714 14.9330357142857  8.54732142857143 15.13125  C 7.825 15.5908482142857  6.88950892857143 15.65625  6.10513392857143 15.325  C 5.32075892857143 14.99375  4.70982142857143 14.2910714285714  4.53348214285714 13.453125  C 4.35111607142857 12.584375  4.59241071428571 11.6808035714286  5.203125 11.0321428571429  C 5.68348214285714 10.5225446428571  6.19464285714286 10.0392857142857  6.68973214285714 9.54419642857143  C 6.90133928571429 9.33258928571429  7.23325892857143 9.34799107142857  7.446875 9.54419642857143  C 7.66049107142857 9.74040178571429  7.64508928571429 10.1022321428571  7.446875 10.3011160714286  L 7.39040178571429 10.3571428571429  L 6.51785714285714 11.2303571428571  L 6.10848214285714 11.6395089285714  C 6.07700892857143 11.6709821428571  6.0453125 11.7024553571429  6.0140625 11.7341517857143  C 5.98816964285714 11.7600446428571  5.96272321428571 11.7861607142857  5.93794642857143 11.8131696428571  C 5.91316964285714 11.8401785714286  5.88839285714286 11.8772321428571  5.86049107142857 11.9044642857143  L 5.85044642857143 11.9185267857143  C 5.79884592753308 11.9918069900075  5.75209432661914 12.0683841736417  5.71049107142857 12.1477678571429  C 5.69441964285714 12.178125  5.67991071428571 12.2089285714286  5.66584821428571 12.2399553571429  C 5.66116071428571 12.2520089285714  5.65580357142857 12.2640625  5.65133928571429 12.2756696428571  C 5.61955916632006 12.3625171556016  5.59338923985857 12.4513159659026  5.57299107142857 12.5415178571429  C 5.56629464285714 12.5712053571429  5.56071428571429 12.6008928571429  5.55513392857143 12.6308035714286  C 5.55379464285714 12.7055803571429  5.54821428571429 12.7104910714286  5.54709821428571 12.6933035714286  C 5.54059284527633 12.7724411056886  5.53843186317106 12.8518758272134  5.540625 12.93125  C 5.540625 12.9669642857143  5.54352678571428 13.0024553571429  5.54620535714286 13.0381696428571  L 5.54888392857143 13.0660714285714  C 5.56852678571429 13.1495535714286  5.5796875 13.2348214285714  5.60334821428571 13.3178571428571  C 5.61473214285714 13.3573660714286  5.62745535714286 13.3966517857143  5.64107142857143 13.4354910714286  C 5.64441964285714 13.4450892857143  5.64799107142857 13.4549107142857  5.65178571428571 13.4645089285714  C 5.66311572841697 13.4814582653502  5.67275990163266 13.499475674226  5.68058035714286 13.5183035714286  C 5.70892857142857 13.5747767857143  5.73303571428571 13.6348214285714  5.76517857142857 13.6883928571429  C 5.7875 13.7247767857143  5.80982142857143 13.7604910714286  5.83325892857143 13.7953125  C 5.84352678571429 13.8104910714286  5.92477678571429 13.9354910714286  5.87633928571429 13.8573660714286  C 5.83169642857143 13.7839285714286  5.88169642857143 13.8620535714286  5.89575892857143 13.8783482142857  C 5.90982142857143 13.8946428571429  5.92433035714286 13.9109375  5.93883928571429 13.9270089285714  C 5.9608630952381 13.9514136904762  5.98318452380953 13.9751488095238  6.00580357142857 13.9982142857143  C 6.03683035714286 14.0290178571429  6.06852678571429 14.0589285714286  6.10133928571429 14.0875  L 6.13035714285714 14.1125  C 6.14661735459889 14.1200795014109  6.16203044156757 14.1293572819163  6.17633928571429 14.1401785714286  C 6.23236607142857 14.1770089285714  6.28616071428572 14.2229910714286  6.34285714285714 14.2555803571429  C 6.37901785714286 14.2763392857143  6.41584821428571 14.2962053571429  6.45334821428571 14.3147321428571  C 6.459375 14.3178571428571  6.48169642857143 14.3283482142857  6.50290178571429 14.3383928571428  C 6.51629464285714 14.3439732142857  6.53236607142857 14.3506696428571  6.53950892857143 14.3533482142857  C 6.55892857142857 14.3602678571428  6.57834821428572 14.3671875  6.59776785714286 14.3736607142857  C 6.63683035714286 14.3868303571428  6.67633928571429 14.3986607142857  6.71584821428572 14.4095982142857  C 6.78861607142857 14.4292410714286  6.86316964285714 14.4388392857143  6.93616071428572 14.4555803571428  C 6.95111607142857 14.4571428571428  6.96607142857143 14.4584821428571  6.98080357142857 14.4595982142857  C 7.02142857142857 14.4625  7.06205357142857 14.4640625  7.10290178571429 14.4647321428571  C 7.18136582154468 14.46577817592  7.25982893205972 14.4625740792893  7.33794642857143 14.4551339285714  L 7.34575892857143 14.4540178571428  C 7.3546875 14.4526785714286  7.36339285714286 14.4515625  7.37165178571429 14.45  C 7.41197916666667 14.4428571428571  7.45208333333334 14.4344494047619  7.49196428571429 14.4247767857143  C 7.57192538985432 14.4055504376623  7.65070360287182 14.3817008367487  7.72790178571429 14.3533482142857  L 7.74151785714286 14.3477678571428  C 7.82834821428572 14.303125  7.77767857142857 14.3319196428571  7.74151785714286 14.3477678571428  L 7.71517857142857 14.3609375  C 7.72901785714286 14.3540178571429  7.74375 14.3484375  7.7578125 14.3417410714286  C 7.79575892857143 14.3243303571429  7.83296130952381 14.3057291666667  7.86941964285715 14.2859375  C 7.9438040743119 14.246083093962  8.01573356974327 14.2018073216447  8.08482142857143 14.1533482142857  C 8.08928571428572 14.1502232142857  8.09397321428572 14.1464285714286  8.09866071428572 14.1428571428571  C 8.07834821428572 14.1542410714286  8.07633928571429 14.1428571428571  8.13638392857143 14.1127232142857  C 8.16272321428572 14.0904017857143  8.18883928571429 14.0680803571428  8.21428571428572 14.0435267857143  C 8.23191964285715 14.0267857142857  8.24910714285715 14.0098214285714  8.26651785714286 13.9926339285714  C 8.46004464285715 13.8011160714286  8.6515625 13.6073660714286  8.84419642857143 13.4149553571428  C 9.40297619047619 12.8563244047619  9.96160714285715 12.2976934523809  10.5200892857143 11.7390625  C 10.5517857142857 11.7073660714286  10.5832589285714 11.6756696428571  10.6133928571429 11.6426339285714  C 10.6293154761905 11.6250744047619  10.6449404761905 11.6072172619048  10.6602678571429 11.5890625  C 10.6854910714286 11.5392857142857  10.6973214285714 11.5319196428571  10.6944196428571 11.5421875  C 10.70625 11.5272321428571  10.7183035714286 11.5125  10.728125 11.4975446428571  C 10.7719635755496 11.4320076304669  10.8120574617185 11.3640417862549  10.8482142857143 11.2939732142857  C 10.8571428571429 11.2765625  10.8649553571429 11.2578125  10.8729910714286 11.2390625  C 10.8669642857143 11.2444196428571  10.8696428571429 11.2299107142857  10.9006696428571 11.1799107142857  L 10.9113839285714 11.1506696428571  C 10.9382633056399 11.0731622956168  10.960622317197 10.9941604547818  10.9783482142857 10.9140625  C 10.9879464285714 10.8712053571428  10.9933035714286 10.8270089285714  11.0022321428571 10.7841517857143  C 11.0022321428571 10.7741071428571  11.0042410714286 10.7638392857143  11.0051339285714 10.7535714285714  C 11.0115683068642 10.6718931553995  11.0132824675534 10.5899115572215  11.0102678571429 10.5080357142857  C 11.0091517857143 10.4745535714286  11.0069196428571 10.4410714285714  11.0042410714286 10.4078125  C 11.0042410714286 10.425  10.9975446428571 10.4205357142857  10.9962053571429 10.3462053571428  C 10.9828125 10.2756696428571  10.9678571428571 10.2058035714286  10.9479910714286 10.1368303571428  C 10.9337053571429 10.0875  10.9176339285714 10.0383928571428  10.9 9.99017857142856  C 10.8959821428571 9.97924107142856  10.8908482142857 9.96785714285713  10.8863839285714 9.9564732142857  C 10.8549107142857 9.88839285714286  10.8203125 9.82142857142857  10.78125 9.75446428571429  C 10.7566964285714 9.71361607142857  10.7305803571429 9.67388392857143  10.7033482142857 9.63482142857143  C 10.6975446428571 9.6265625  10.6915178571429 9.61852678571429  10.6854910714286 9.61049107142857  C 10.6408482142857 9.55892857142857  10.5962053571429 9.50691964285714  10.5475446428571 9.45825892857143  C 10.5029017857143 9.41361607142857  10.4551339285714 9.37165178571429  10.4073660714286 9.32991071428572  C 10.4033516410936 9.32634241529337  10.3995504418495 9.32254121604929  10.3959821428571 9.31852678571429  C 10.3852678571429 9.31160714285714  10.3736607142857 9.30513392857143  10.3671875 9.3  C 10.2867023178018 9.24410108291046  10.2025880793703 9.1936176259795  10.1154017857143 9.14888392857143  C 9.85000000000001 9.0109375  9.79330357142858 8.6625  9.92321428571429 8.41651785714286  C 10.0629464285714 8.15223214285714  10.4073660714286 8.0953125  10.6555803571429 8.22433035714286  C 10.8717043561973 8.33840721557874  11.0714892396415 8.4810570759861  11.2495535714286 8.6484375  Z M 15.2895089285714 5.99419642857143  C 15.6305803571429 6.7609375  15.625 7.61160714285714  15.2426339285714 8.36495535714286  C 15.0334821428571 8.77700892857143  14.6924107142857 9.08772321428571  14.3707589285714 9.40959821428572  L 13.6359375 10.1441964285714  C 13.4245535714286 10.3558035714286  13.0926339285714 10.3404017857143  12.8790178571429 10.1441964285714  C 12.6654017857143 9.94799107142857  12.6808035714286 9.58616071428571  12.8790178571429 9.38727678571429  L 12.9383928571429 9.32790178571429  L 13.7825892857143 8.48370535714286  C 13.8575892857143 8.40848214285714  13.9332589285714 8.33370535714286  14.0080357142857 8.25825892857143  C 14.0388392857143 8.22700892857143  14.0689732142857 8.1953125  14.0973214285714 8.1625  C 14.1078125 8.15066964285714  14.1419642857143 8.10803571428571  14.1522321428571 8.09553571428571  C 14.1651785714286 8.07745535714286  14.1779017857143 8.05982142857143  14.18125 8.0546875  C 14.2019345238095 8.02403273809524  14.2219494047619 7.99293154761905  14.2412946428571 7.96138392857143  C 14.2787946428571 7.89955357142857  14.3111607142857 7.83571428571429  14.3428571428571 7.77098214285714  C 14.3546875 7.70803571428572  14.3683035714286 7.69776785714286  14.3667410714286 7.71316964285714  C 14.3776785714286 7.6828125  14.3890625 7.65223214285714  14.3977678571429 7.62142857142857  C 14.4221446390582 7.54311791881452  14.4418959820044 7.46344174670346  14.4569196428571 7.3828125  C 14.4584821428571 7.375  14.4598214285714 7.36741071428572  14.4611607142857 7.36049107142857  C 14.4640625 7.3296875  14.4683035714286 7.29866071428572  14.4703125 7.26785714285715  C 14.4755953373345 7.18648561944655  14.4761915608541 7.1048775252108  14.4720982142857 7.0234375  C 14.4703125 6.98794642857143  14.4676339285714 6.95245535714286  14.4640625 6.9171875  C 14.4495535714286 6.83816964285715  14.4332589285714 6.7609375  14.4109375 6.68258928571429  C 14.3996279761905 6.64300595238096  14.3871279761905 6.60379464285715  14.3734375 6.56495535714286  C 14.3698660714286 6.55491071428572  14.3595982142857 6.52857142857143  14.3511160714286 6.50848214285715  C 14.3386160714286 6.48147321428572  14.321875 6.44575892857143  14.3169642857143 6.43571428571429  C 14.3004464285714 6.403125  14.2828125 6.37098214285715  14.2645089285714 6.3390625  C 14.2274553571429 6.27455357142858  14.1857142857143 6.21316964285715  14.1430803571429 6.15223214285715  L 14.1180803571429 6.12209821428572  C 14.0898065476191 6.0890625  14.0604166666667 6.05691964285715  14.0299107142857 6.02566964285715  C 13.9802933887014 5.97471693690231  13.9281441465003 5.9262926405727  13.8736607142857 5.88058035714286  L 13.8683035714286 5.87611607142858  C 13.7941964285714 5.82566964285715  13.8412946428571 5.85379464285715  13.8683035714286 5.87611607142858  L 13.8939732142857 5.89375  C 13.8808035714286 5.88482142857143  13.8683035714286 5.87455357142858  13.8553571428571 5.86517857142858  C 13.8209821428571 5.84017857142858  13.7858630952381 5.81629464285715  13.75 5.79352678571429  C 13.6837282636087 5.75124071161194  13.6150890891884 5.71278488750674  13.5444196428571 5.67834821428572  L 13.5220982142857 5.66718750000001  C 13.4857523223214 5.65498463790237  13.4500644178486 5.64090318916467  13.4151785714286 5.625  C 13.3470676748253 5.60196320224939  13.2777720345122 5.58259022753821  13.2075892857143 5.56696428571429  C 13.1689732142857 5.55825892857143  13.1299107142857 5.55178571428571  13.0908482142857 5.54464285714286  L 13.0776785714286 5.54308035714286  C 13.0015560571521 5.5359778732822  12.9251051365157 5.53299733056732  12.8486607142857 5.53415178571429  C 12.8026785714286 5.53415178571429  12.7568452380952 5.53623511904762  12.7111607142857 5.54040178571428  L 12.678125 5.54375  C 12.6558035714286 5.54709821428571  12.6216517857143 5.55245535714286  12.6111607142857 5.55446428571429  C 12.5709821428571 5.56227678571429  12.5310267857143 5.57142857142857  12.4912946428571 5.58147321428571  C 12.4121239777863 5.60240783177486  12.3340502063493 5.62729012152672  12.2573660714286 5.65602678571428  L 12.2553571428571 5.65714285714286  C 12.2223214285714 5.67202380952381  12.1895833333333 5.68809523809524  12.1571428571429 5.70535714285714  C 12.0828480974155 5.74491428179556  12.0109928828445 5.78889205834832  11.9419642857143 5.83705357142857  C 11.934375 5.8421875  11.9272321428571 5.84732142857143  11.9196428571429 5.85267857142857  C 11.9066964285714 5.87678571428571  11.8558035714286 5.90446428571428  11.8352678571429 5.92299107142857  C 11.7997767857143 5.9546875  11.7658482142857 5.98816964285714  11.7319196428571 6.021875  C 11.5369791666667 6.21607142857143  11.3424107142857 6.41063988095238  11.1482142857143 6.60558035714286  L 9.52745535714286 8.22633928571428  L 9.47321428571429 8.28125  C 9.45602678571429 8.29866071428571  9.43883928571429 8.31584821428571  9.42232142857143 8.33370535714286  C 9.39241071428572 8.36540178571428  9.36428571428572 8.39821428571428  9.3359375 8.43102678571428  L 9.33147321428572 8.43616071428571  C 9.28196901893516 8.50461029620637  9.23657649987713 8.57594139758326  9.19553571428572 8.64977678571428  C 9.17769013732858 8.68174872640221  9.160719546812 8.71420125914443  9.14464285714286 8.74709821428571  C 9.14084821428572 8.7546875  9.13727678571429 8.7625  9.13370535714286 8.76941964285714  C 9.12165178571429 8.84263392857143  9.07633928571429 8.92321428571428  9.05691964285715 8.99486607142857  C 9.0375 9.06651785714286  9.02544642857143 9.134375  9.01227678571429 9.2046875  C 9.01227678571429 9.21294642857143  9.01071428571429 9.22142857142857  9.01004464285714 9.2296875  C 9.00650856519254 9.27030790005844  9.00420096414122 9.31102589280273  9.003125 9.35178571428571  C 9.00085394098037 9.428244136322  9.00271677665859 9.50476942598335  9.00870535714286 9.58102678571428  C 9.00870535714286 9.58950892857143  9.01026785714286 9.59799107142857  9.01116071428572 9.60647321428571  C 9.01941964285714 9.64017857142857  9.021875 9.67790178571429  9.02879464285714 9.71138392857143  C 9.04349899330647 9.78170300459862  9.06182699930727 9.85121532004066  9.08370535714286 9.91964285714286  C 9.09620535714286 9.95892857142857  9.11116071428572 9.99709821428571  9.125 10.0357142857143  C 9.12723214285715 10.0410714285714  9.12946428571429 10.0464285714286  9.13191964285715 10.0513392857143  C 9.16523359349992 10.122412379303  9.20249408794266 10.1915678569887  9.24352678571429 10.2584821428571  C 9.26852678571429 10.2988839285714  9.29464285714286 10.3386160714286  9.32232142857143 10.3774553571429  L 9.3296875 10.3875  C 9.37544642857143 10.4395089285714  9.41897321428572 10.4919642857143  9.46897321428572 10.5410714285714  C 9.68058035714286 10.7526785714286  9.66517857142857 11.084375  9.46897321428572 11.2982142857143  C 9.27276785714286 11.5120535714286  8.9109375 11.4964285714286  8.71183035714286 11.2982142857143  C 8.57362918667059 11.1583039171921  8.45041634914522 11.0043439781349  8.34419642857143 10.8388392857143  C 7.92410714285714 10.1892857142857  7.8125 9.328125  8.05959821428571 8.59375  C 8.21785714285714 8.12276785714286  8.49732142857143 7.74308035714286  8.84419642857143 7.39620535714286  L 10.6261160714286 5.6140625  C 10.8477678571429 5.39263392857143  11.0604910714286 5.16941964285714  11.3109375 4.97924107142857  C 11.9359375 4.50424107142857  12.78125 4.35870535714286  13.5379464285714 4.54665178571429  C 14.2897321428571 4.73348214285714  14.9734375 5.28325892857143  15.2895089285714 5.99419642857143  Z " fill-rule="nonzero" fill="#02a7f0" stroke="none" transform="matrix(1 0 0 1 17 117 )" />
  </g>
</svg>