<?xml version="1.0" encoding="utf-8"?>
<svg version="1.1" xmlns:xlink="http://www.w3.org/1999/xlink" width="18px" height="21px" xmlns="http://www.w3.org/2000/svg">
  <g transform="matrix(1 0 0 1 -17 -160 )">
    <path d="M 12.6370316616432 11.5982345548663  C 12.6370316616432 13.4170005424599  11.1950924569762 14.9396883610695  9.38236886339329 14.9396883610695  C 7.5696452698104 14.9396883610695  6.12770606514341 13.4170005424599  6.12770606514341 11.5982345548663  C 6.12770606514341 9.77946856727273  7.61084355080214 8.2567807486631  9.38236886339329 8.2567807486631  C 11.1538941759844 8.2567807486631  12.6370316616432 9.77946856727273  12.6370316616432 11.5982345548663  Z M 11.8954629304813 11.5559376770053  C 11.8954629304813 10.1601405159358  10.7831098104035 8.97582776812834  9.38236886339329 8.97582776812834  C 7.98162791638308 8.97582776812834  6.8692747963053 10.1601405159358  6.8692747963053 11.5559376770053  C 6.8692747963053 12.9517348380749  8.02282617403986 14.1360475858824  9.38236886339329 14.1360475858824  C 10.7419115527467 14.1360475858824  11.8954629304813 12.9517348380749  11.8954629304813 11.5559376770053  Z M 9.91794628293631 2.37751391144385  C 9.91794628293631 3.64642041497326  8.92918795916383 4.74613940705882  7.65204180845892 4.74613940705882  C 6.37489565775401 4.74613940705882  5.38613733398153 3.68871731679144  5.38613733398153 2.41981081326203  C 5.38613733398153 1.15090430973262  6.41609391541079 0.0511853176470592  7.65204180845892 0.0511853176470592  C 8.92918795916383 0.0511853176470592  9.91794628293631 1.10860740791444  9.91794628293631 2.37751391144385  Z M 9.17637755177443 2.37751391144385  C 9.17637755177443 1.5315762344385  8.51720533592611 0.812529238930482  7.65204180845892 0.812529238930482  C 6.78687828099173 0.812529238930482  6.12770606514341 1.53157625839572  6.12770606514341 2.37751391144385  C 6.12770606514341 3.22345156449198  6.82807653864852 3.94249860791444  7.65204180845892 3.94249860791444  C 8.51720533592611 3.94249860791444  9.17637755177443 3.2234515884492  9.17637755177443 2.37751391144385  Z M 4.56217206417112 10.456218708877  C 4.56217206417112 11.7251252363636  3.57341374039864 12.7825473026738  2.29626758969373 12.7825473026738  C 1.01912143898882 12.7825473026738  0.0303631152163334 11.7251252124064  0.0303630918813798 10.456218708877  C 0.0303630685464262 9.18731220534759  1.06031967331065 8.12989011508021  2.29626758969373 8.129890091123  C 3.57341374039864 8.129890091123  4.56217206417112 9.18731218139038  4.56217206417112 10.456218708877  Z M 3.82060333300924 10.4139218070588  C 3.82060333300924 9.56798413005347  3.16143111716091 8.84893711058823  2.29626758969373 8.84893711058824  C 1.43110406222654 8.84893711058824  0.77193184637822 9.56798413005348  0.77193184637822 10.4139218070588  C 0.77193184637822 11.2598594840642  1.47230231988332 11.9789065035294  2.29626758969373 11.9789065035294  C 3.16143111716091 11.9789065035294  3.82060333300924 11.2598594840642  3.82060333300924 10.4139218070588  Z M 7.15766264657268 17.9850639982888  C 7.19886090422946 19.2539705018182  6.1689043228002 20.3113925920856  4.89175817209529 20.3113925920856  C 3.61461202139037 20.3113925920856  2.62585369761789 19.2539705018182  2.62585369761789 17.9850639982888  C 2.62585369761789 16.6738606168984  3.65581027904715 15.658735404492  4.89175817209529 15.6587353805348  C 6.1689043228002 15.6587353805348  7.15766264657268 16.7161574708021  7.15766264657268 17.9850639982888  Z M 6.41609391541079 17.9427670964706  C 6.45729217306758 17.0968294194652  5.75692169956247 16.3777824  4.89175817209529 16.3777824  C 4.0265946446281 16.3777824  3.36742242877978 17.0968294194652  3.36742242877978 17.9427670964706  C 3.36742242877978 18.8310016513369  4.06779290228488 19.5077517929412  4.89175817209529 19.5077517929412  C 5.75692169956247 19.5077517929412  6.41609391541079 18.7887047734759  6.41609391541079 17.9427670964706  Z M 16.1800823101604 18.6195172380749  C 16.1800823101604 19.8884237416043  15.1501257287312 20.9458458318717  13.914177835683 20.9458458318717  C 12.6370316849781 20.9458458318717  11.6482733612056 19.8884237416043  11.6482733378707 18.6195172380749  C 11.6482733378707 17.3083138566845  12.6782299192999 16.2931886442781  13.914177835683 16.2931886442781  C 15.1501257520661 16.2931886442781  16.1800823101604 17.3506107345455  16.1800823101604 18.6195172380749  Z M 15.4385135789985 18.5772203602139  C 15.4385135789985 17.7312826832086  14.7381431054934 17.0122356637433  13.914177835683 17.0122356637433  C 13.0490143082158 17.0122356637433  12.3898420923675 17.7312826832086  12.3898420923675 18.5772203602139  C 12.3898420923675 19.4654549150802  13.0902125658726 20.1422050566845  13.914177835683 20.1422050566845  C 14.7381431054934 20.1422050566845  15.4385135789985 19.4231580372193  15.4385135789985 18.5772203602139  Z M 17.9104093650948 7.58003060705882  C 17.9104093650948 8.84893711058824  16.8804527836655 9.90635920085561  15.6445048906174 9.90635920085561  C 14.3673587399125 9.90635920085561  13.37860041614 8.84893711058824  13.37860041614 7.58003060705882  C 13.37860041614 6.31112410352941  14.4085569975693 5.25370201326203  15.6445048906174 5.25370201326203  C 16.9216510413223 5.25370201326203  17.9104093650948 6.31112410352941  17.9104093650948 7.58003060705882  Z M 17.1688406339329 7.53773372919786  C 17.1688406339329 6.69179605219251  16.4684701604278 5.97274903272727  15.6445048906174 5.97274903272727  C 14.7793413631502 5.97274903272727  14.1201691473019 6.69179605219251  14.1201691473019 7.53773372919786  C 14.1201691473019 8.38367140620321  14.820539620807 9.10271842566845  15.6445048906174 9.10271842566845  C 16.5096684180846 9.10271842566845  17.1688406339329 8.38367140620321  17.1688406339329 7.53773372919786  Z " fill-rule="nonzero" fill="#02a7f0" stroke="none" transform="matrix(1 0 0 1 17 160 )" />
  </g>
</svg>