<?xml version="1.0" encoding="utf-8"?>
<svg version="1.1" xmlns:xlink="http://www.w3.org/1999/xlink" width="10px" height="13px" xmlns="http://www.w3.org/2000/svg">
  <g transform="matrix(1 0 0 1 -21 -165 )">
    <path d="M 7.71903343446469 5.73932145386639  L 7.34045784713885 5.09636408092126  L 9.60081317181418 3.7356384741533  L 9.97897771472225 4.37859587063916  L 7.71903343446469 5.73932145386639  Z M 4.07961063116155 4.39272680553433  L 3.45358385972571 0.242804662422545  L 4.18525007093746 0.129757206801913  L 4.81127684237331 4.2796793499137  L 4.07961063116155 4.39272680553433  Z M 2.40458826148641 7.13620562102821  L 0.0673668856633556 6.65866325688255  L 0.214111163010658 5.9251016418527  L 2.55092151769799 6.40305964111705  L 2.40458826148641 7.13620562102821  Z M 2.28908366255593 12.3043860643409  L 1.67990987522282 11.879626864952  L 3.26737892247808 9.55342614628073  L 3.87614166539343 9.97818534566958  L 2.28908366255593 12.3043860643409  Z M 8.34218287169413 12.8941446374105  L 6.457936844556 9.96862618521348  L 7.07820894757903 9.56049161372832  L 8.96245495143512 12.4860100894661  L 8.34218287169413 12.8941446374105  Z " fill-rule="nonzero" fill="#02a7f0" stroke="none" transform="matrix(1 0 0 1 21 165 )" />
  </g>
</svg>