<?xml version="1.0" encoding="utf-8"?>
<svg version="1.1" xmlns:xlink="http://www.w3.org/1999/xlink" width="20px" height="20px" xmlns="http://www.w3.org/2000/svg">
  <g transform="matrix(1 0 0 1 -16 -208 )">
    <path d="M 19.5120192307692 10.9666666666667  C 20.1033653846154 10.3761904761905  20.1033653846154 9.42619047619048  19.5144230769231 8.83571428571429  L 17.6105769230769 6.98571428571429  L 17.6105769230769 4.65238095238095  C 17.6081730769231 3.82142857142857  17.8581730769231 2.32142857142857  17.0240384615385 2.31904761904762  L 12.3317307692308 2.31904761904762  L 11.1586538461538 0.571428571428571  C 10.5673076923077 -0.0142857142857142  9.50480769230769 -0.15952380952381  8.91346153846154 0.426190476190476  L 7.63942307692308 2.32142857142857  L 4.11778846153846 2.32142857142857  C 3.28125 2.32380952380952  2.31730769230769 2.97619047619048  2.31490384615385 3.80714285714286  L 2.31490384615385 6.86190476190476  L 0.451923076923077 8.83809523809524  C -0.137019230769231 9.42619047619048  -0.137019230769231 10.3785714285714  0.451923076923077 10.9666666666667  L 2.31490384615385 12.9690476190476  L 2.31490384615385 16.0238095238095  C 2.31730769230769 16.8547619047619  2.69471153846154 17.4833333333333  3.53125 17.4857142857143  L 7.05048076923077 17.4857142857143  L 8.91105769230769 19.3761904761905  C 9.50240384615385 19.9619047619048  10.4615384615385 19.9619047619048  11.0528846153846 19.3761904761905  L 12.9158653846154 17.4857142857143  L 15.8485576923077 17.4857142857143  C 16.6850961538462 17.4833333333333  17.6057692307692 16.5666666666667  17.6081730769231 15.7357142857143  L 17.6081730769231 12.8190476190476  L 19.5120192307692 10.9666666666667  Z M 15.375 6.85952380952381  L 9.99759615384615 14.4952380952381  L 4.62019230769231 6.85952380952381  L 8.46153846153846 6.85952380952381  L 9.98317307692308 11.4071428571429  L 11.5336538461538 6.85952380952381  L 15.375 6.85952380952381  Z " fill-rule="nonzero" fill="#02a7f0" stroke="none" transform="matrix(1 0 0 1 16 208 )" />
  </g>
</svg>