<?xml version="1.0" encoding="utf-8"?>
<svg version="1.1" xmlns:xlink="http://www.w3.org/1999/xlink" width="18px" height="18px" xmlns="http://www.w3.org/2000/svg">
  <g transform="matrix(1 0 0 1 -19 -252 )">
    <path d="M 14.00677734375 9.03578906495557  C 14.5435546875 9.03578906495557  15.0505078125 9.13717968992779  15.52763671875 9.33996093987225  C 16.004765625 9.5427421898167  16.422263671875 9.82305468973991  16.780130859375 10.1808984396419  C 17.137998046875 10.5387421895439  17.421298828125 10.9562402363045  17.630033203125 11.4333925799238  C 17.838767578125 11.9105449235431  17.943140625 12.4175039077792  17.94315234375 12.9542695326322  C 17.9431640625 13.4910351574851  17.838791015625 13.9979941417213  17.630033203125 14.4751464853406  C 17.421275390625 14.9522988289599  17.137974609375 15.3697968757205  16.780130859375 15.7276406256225  C 16.422287109375 16.0854843755244  16.0047890625 16.3687851566968  15.52763671875 16.5775429691397  C 15.050484375 16.7863007815825  14.54353125 16.8906738284289  14.00677734375 16.8906621096789  C 13.45805859375 16.8906621096789  12.94512890625 16.7862890628325  12.46798828125 16.5775429691397  C 11.99084765625 16.3687968754468  11.57335546875 16.0854960942744  11.21551171875 15.7276406256225  C 10.85766796875 15.3697851569705  10.57735546875 14.9522871102099  10.37457421875 14.4751464853406  C 10.17179296875 13.9980058604713  10.070396484375 13.4910527356101  10.070384765625 12.9542871107572  C 10.070373046875 12.4175214859042  10.171763671875 11.9105566422931  10.374556640625 11.4333925799238  C 10.577349609375 10.9562285175545  10.85766796875 10.5387363301689  11.21551171875 10.1809160177669  C 11.57335546875 9.8230957053649  11.990853515625 9.54277734606669  12.468005859375 9.33996093987225  C 12.945158203125 9.13714453367781  13.458076171875 9.03575390870558  14.006759765625 9.03578906495557  Z M 15.9570703125 13.5626308605905  C 16.1359921875 13.5626308605905  16.288078125 13.5089531262302  16.413328125 13.4015976575096  C 16.538578125 13.294242188789  16.601203125 13.1510976575783  16.601203125 12.9721640638773  C 16.601203125 12.7932304701763  16.538578125 12.641144532718  16.413328125 12.5159062515023  C 16.288078125 12.3906679702866  16.1359921875 12.3280429703037  15.9570703125 12.3280312515537  L 12.092255859375 12.3280312515537  C 11.913322265625 12.3280312515537  11.761236328125 12.3906562515366  11.635998046875 12.5159062515023  C 11.510759765625 12.641156251468  11.448134765625 12.7932421889263  11.448123046875 12.9721640638773  C 11.448111328125 13.1510859388283  11.510736328125 13.2942304700391  11.635998046875 13.4015976575096  C 11.761259765625 13.5089648449802  11.913345703125 13.5626367199655  12.092255859375 13.5626132824655  L 15.9570703125 13.5626132824655  Z M 8.70159375 12.560642579615  C 8.61212109375 13.2524941419255  8.644927734375 13.9264511729909  8.800013671875 14.5825136728112  C 8.847720703125 14.8210722664958  8.925251953125 15.0715664070522  9.032607421875 15.3339960944803  C 9.139962890625 15.5964257819084  9.298013671875 15.8618320318357  9.506759765625 16.1302148442622  C 9.715505859375 16.3985976566887  9.977935546875 16.664003906616  10.294048828125 16.9264335940441  C 10.610162109375 17.1888632814722  11.0127421875 17.4333984376552  11.5017890625 17.6600390625931  C 11.17972265625 17.7316054688235  10.803978515625 17.7912480469322  10.374556640625 17.8389667969191  C 10.004771484375 17.886685546906  9.55745507812501 17.9254511718954  9.032607421875 17.9552636718873  C 8.507759765625 17.9850761718791  7.905375 17.99998828125  7.225453125 18  C 6.87952734375 18  6.479923828125 17.9880703125033  6.026642578125 17.9642109375098  C 5.573361328125 17.9403515625163  5.10219140625 17.9075507812753  4.6131328125 17.8658085937868  C 4.12407421875 17.8240664062982  3.64096875 17.7733710938121  3.16381640625 17.7137226563284  C 2.6866640625 17.6540742188448  2.25127734375 17.5944257813611  1.85765625 17.5347773438774  C 1.46403515625 17.4751289063938  1.1300390625 17.4154921876601  0.85566796875 17.3558671876764  C 0.581296875 17.2962421876928  0.408333984375 17.2365937502091  0.336779296875 17.1769218752255  C 0.217494140625 17.0815195315016  0.12505078125 16.7892773440817  0.05944921875 16.3001953129656  C -0.00615234375000001 15.8111132818496  0.02068359375 15.1789101570228  0.13995703125 14.4035859384852  C 0.21153515625 13.9622343761061  0.390462890625 13.6252558605734  0.676740234375 13.3926503918871  C 0.963017578125 13.1600449232008  1.29999609375 12.9751523451265  1.68767578125 12.837972657664  C 2.07535546875 12.7007929702016  2.47496484375 12.5785253921101  2.88650390625 12.4711699233895  C 3.29804296875 12.3638144546689  3.66483984375 12.2087460953364  3.98689453125 12.005964845392  C 4.2373828125 11.8508906266844  4.431216796875 11.6988046892261  4.568396484375 11.5497070330169  C 4.705576171875 11.4006093768078  4.801001953125 11.2544824237228  4.854673828125 11.111326173762  C 4.908345703125 10.9681699238012  4.935181640625 10.8190664082171  4.935181640625 10.6640156270096  C 4.935181640625 10.508964845802  4.92922265625 10.3360019552244  4.9173046875 10.1451269552767  C 4.8934453125 9.87077929910184  4.79801953125 9.65308593978648  4.63102734375 9.49204687733059  C 4.46403515625 9.3310078148747  4.285107421875 9.16699218991963  4.094244140625 9.00000000246537  C 3.998818359375 8.91650390873825  3.912333984375 8.80020117439511  3.834791015625 8.65109179943595  C 3.757248046875 8.5019824244768  3.6886640625 8.34989648701846  3.6290390625 8.19483398706094  C 3.569390625 8.01590039335995  3.5097421875 7.82504297153723  3.45009375 7.62226172159278  C 3.36659765625 7.59840234659932  3.2831015625 7.55665429973575  3.19960546875 7.49701758100209  C 3.1280390625 7.43736914351843  3.053490234375 7.3538730497913  2.975958984375 7.2465292998207  C 2.898427734375 7.13918554985011  2.829837890625 6.98411133114259  2.770189453125 6.78130664369814  C 2.698611328125 6.57852539375369  2.671775390625 6.39363867505434  2.689681640625 6.22664648760008  C 2.707587890625 6.05965430014583  2.740388671875 5.91054492518667  2.788083984375 5.77931836272262  C 2.835779296875 5.64809180025857  2.913310546875 5.52284765966788  3.020677734375 5.40358594095054  C 3.020677734375 4.95030469107471  3.044537109375 4.49702344119888  3.092255859375 4.04374219132305  C 3.139962890625 3.66202734767761  3.223458984375 3.25049414466534  3.342744140625 2.80914258228624  C 3.462029296875 2.36779101990714  3.646921875 1.97415820751497  3.897421875 1.62824414510972  C 4.1240625 1.29423633270122  4.3775390625 1.01987695777638  4.6578515625 0.805166020335191  C 4.9381640625 0.590455082894007  5.22146484375 0.423462895439751  5.50775390625 0.304189457972424  C 5.79404296875 0.184916020505097  6.08330859375 0.104396489277153  6.37555078125 0.0626308642885942  C 6.66779296875 0.020865239300035  6.95109375 -1.17138192462737E-05  7.225453125 0  C 7.57137890625 0  7.905375 0.0417480517943143  8.22744140625 0.125244145521442  C 8.5495078125 0.20874023924857  8.847720703125 0.316095707969162  9.122080078125 0.447310551683218  C 9.396439453125 0.578525395397274  9.64096875 0.727634770356429  9.85566796875 0.894638676560681  C 10.0703671875 1.06164258276493  10.2433359375 1.22863477021919  10.37457421875 1.39561523892345  C 10.68469921875 1.77733008256888  10.91133984375 2.1978105512037  11.05449609375 2.6570566448279  C 11.19765234375 3.1163027384521  11.299037109375 3.55467187895702  11.358650390625 3.97216406634265  C 11.418298828125 4.44930469121195  11.448123046875 4.93241015982961  11.448123046875 5.42148047219564  C 11.531619140625 5.4811171909293  11.5972265625 5.55864844090807  11.6449453125 5.65407422213193  C 11.69265234375 5.73757031585905  11.73141796875 5.84492578457965  11.7612421875 5.9761406282937  C 11.79106640625 6.10735547200776  11.794048828125 6.27435351883701  11.770189453125 6.47713476878146  C 11.746330078125 6.72763476871284  11.695634765625 6.92743945615811  11.618103515625 7.07654883111727  C 11.540572265625 7.22565820607642  11.454087890625 7.34195508104457  11.358650390625 7.4254394560217  C 11.251306640625 7.52087695599555  11.137986328125 7.58648437785258  11.018689453125 7.62226172159278  C 10.959041015625 7.82504297153723  10.8993984375 8.01590039335995  10.83976171875 8.19483398706094  C 10.78011328125 8.34989648701846  10.711529296875 8.5019824244768  10.634009765625 8.65109179943595  C 10.556490234375 8.80020117439511  10.470005859375 8.91650390873825  10.374556640625 9.00000000246537  C 10.267212890625 9.09542578368923  10.183716796875 9.19085156491309  10.124068359375 9.28627734613696  C 10.064419921875 9.38170312736082  10.01670703125 9.47713476795968  9.9809296875 9.57257226793353  C 9.94515234375 9.66800976790739  9.906380859375 9.7723828147538  9.864615234375 9.88569140847276  C 9.822849609375 9.99900000219172  9.760224609375 10.1153027365349  9.676740234375 10.2345996115022  C 9.116115234375 11.0934433612669  8.79106640625 11.8687910173045  8.70159375 12.560642579615  Z " fill-rule="nonzero" fill="#02a7f0" stroke="none" transform="matrix(1 0 0 1 19 252 )" />
  </g>
</svg>