<?xml version="1.0" encoding="utf-8"?>
<svg version="1.1" xmlns:xlink="http://www.w3.org/1999/xlink" width="19px" height="19px" xmlns="http://www.w3.org/2000/svg">
  <g transform="matrix(1 0 0 1 -19 -297 )">
    <path d="M 0.153535353535354 4.19476571428571  C 0.153535353535354 1.91660780248736  1.9816925721592 0.0697959183673468  4.23683878787879 0.0697959183673468  L 4.8210101010101 0.0697959183673468  C 4.82150141412139 0.0697957392096486  4.82199272726075 0.0697956496307982  4.82248404040405 0.0697956496307982  C 7.07763025612363 0.0697956496307982  8.90578747474748 1.91660753375081  8.90578747474748 4.19476544554917  L 8.90578747474748 8.90986775510204  L 4.23831272727273 8.90986775510204  C 4.23782141416144 8.90986793425974  4.23733010102208 8.90986802383859  4.23683878787878 8.90986802383859  C 1.9816925721592 8.90986802383859  0.153535353535345 7.06305613971858  0.153535353535345 4.78489822792022  L 0.153535353535354 4.19476571428571  Z M 4.23683878787879 10.0886432653061  L 8.90431353535354 10.0886432653061  L 8.90431353535354 14.8037453061224  C 8.90431371270867 14.8042416425735  8.90431380138623 14.8047379790582  8.90431380138623 14.8052343155416  C 8.90431380138623 17.0831985071373  7.07645585012274 18.9299301397802  4.82150141414141 18.9302040816327  L 4.23683878787879 18.9302040816327  C 1.9816925721592 18.9302040816327  0.153535353535354 17.0833921975126  0.153535353535354 14.8052342857143  L 0.153535353535354 14.2151020408163  C 0.15353517618733 14.2146057143059  0.153535087513316 14.2141093877672  0.153535087513316 14.2136130612245  C 0.153535087513316 11.9354551494261  1.98169230613717 10.0886432653061  4.23683852185675 10.0886432653061  Z M 14.1559595959596 0.0697959183673468  L 14.7401309090909 0.0697959183673468  C 16.9952771248105 0.0697959183673468  18.8234343434343 1.91660780248736  18.8234343434343 4.19476571428571  L 18.8234343434343 4.78489795918367  C 18.8234345207824 4.78539428569068  18.8234346094564 4.78589061223618  18.8234346094564 4.78638693877552  C 18.8234346094564 7.06454485057388  16.9952773908325 8.91135673469389  14.7401311751129 8.91135673469389  L 10.0726561616162 8.91135673469388  L 10.0726561616162 4.19625469387755  C 10.072655984261 4.19575835742654  10.0726558955835 4.19526202094178  10.0726558955835 4.19476568445843  C 10.0726558955835 1.91680149286268  11.900513846847 0.0700698602198232  14.1554682828283 0.0697959183673468  Z M 10.0711822222222 14.8052342857143  L 10.0711822222222 10.0886432653061  L 14.738656969697 10.0886432653061  C 14.7391483715159 10.0886430860837  14.739639773358 10.0886429964725  14.740131175209 10.0886429964725  C 16.9952773909286 10.0886429964725  18.8234346095525 11.9354548805925  18.8234346095525 14.2136127923909  C 18.8234346095525 14.2141092085465  18.8234345208464 14.2146056246931  18.8234343434343 14.2151020408163  L 18.8234343434343 14.8052342857143  C 18.8234343434343 17.0833921975126  16.9952771248105 18.9302040816327  14.7401309090909 18.9302040816327  L 14.1559595959596 18.9302040816327  C 14.1554682828517 18.9302042607904  14.1549769697056 18.9302043503692  14.1544856565657 18.9302043503692  C 11.8993394408461 18.9302043503692  10.0711822222222 17.0833924662492  10.0711822222222 14.8052345544508  Z " fill-rule="nonzero" fill="#02a7f0" stroke="none" transform="matrix(1 0 0 1 19 297 )" />
  </g>
</svg>