<?xml version="1.0" encoding="utf-8"?>
<svg version="1.1" xmlns:xlink="http://www.w3.org/1999/xlink" width="24px" height="22px" xmlns="http://www.w3.org/2000/svg">
  <g transform="matrix(1 0 0 1 -15 -72 )">
    <path d="M 3.42857142857143 21.3653846153846  C 3.42857142857143 21.0149076923077  3.7164 20.7307692307692  4.07142857142857 20.7307692307692  L 19.9285714285714 20.7307692307692  C 20.2836 20.7307692307692  20.5714285714286 21.0149076923077  20.5714285714286 21.3653846153846  C 20.5714285714286 21.7158615384615  20.2836 22  19.9285714285714 22  L 4.07142857142857 22  C 3.7164 22  3.42857142857143 21.7158615384615  3.42857142857143 21.3653846153846  Z M 1.71428571428571 0  L 22.2857142857143 0  C 23.2324714285714 0  24 0.757688461538461  24 1.69230769230769  L 24 15.6538461538462  C 24 16.5884653846154  23.2324714285714 17.3461538461538  22.2857142857143 17  L 1.71428571428571 17  C 0.767528571428572 17.3461538461538  0 16.5884653846154  0 15.6538461538462  L 0 1.69230769230769  C 0 0.757688461538462  0.767528571428571 0  1.71428571428571 0  Z M 22.7142857142857 1.69230769230769  C 22.7142857142857 1.45864230769231  22.5224142857143 1.26923076923077  22.2857142857143 1.26923076923077  L 1.71428571428571 1.26923076923077  C 1.47758571428571 1.26923076923077  1.28571428571429 1.45864230769231  1.28571428571429 1.69230769230769  L 1.28571428571429 15.6538461538462  C 1.28571428571429 15.8875115384615  1.47758571428571 16.0769230769231  1.71428571428571 16.0769230769231  L 6.21428571428572 16.0769230769231  L 6.21428571428572 11.6346153846154  C 6.21428571428572 11.2841384615385  6.50211428571429 11  6.85714285714286 11  C 7.21217142857143 11  7.5 11.2841384615385  7.5 11.6346153846154  L 7.5 16.0769230769231  L 11.3571428571429 16.0769230769231  L 11.3571428571429 4.86538461538462  C 11.3571428571429 4.51490769230769  11.6449714285714 4.23076923076923  12 4.23076923076923  C 12.3550285714286 4.23076923076923  12.6428571428571 4.51490769230769  12.6428571428571 4.86538461538462  L 12.6428571428571 16.0769230769231  L 16.5 16.0769230769231  L 16.5 8.25  C 16.5 7.89952307692308  16.7878285714286 7.61538461538462  17.1428571428571 7.61538461538462  C 17.4978857142857 7.61538461538462  17.7857142857143 7.89952307692308  17.7857142857143 8.25  L 17.7857142857143 16.0769230769231  L 22.2857142857143 16.0769230769231  C 22.5224142857143 16.0769230769231  22.7142857142857 15.8875115384615  22.7142857142857 15.6538461538462  L 22.7142857142857 1.69230769230769  Z " fill-rule="nonzero" fill="#02a7f0" stroke="none" transform="matrix(1 0 0 1 15 72 )" />
  </g>
</svg>