<?xml version="1.0" encoding="utf-8"?>
<svg version="1.1" xmlns:xlink="http://www.w3.org/1999/xlink" width="9px" height="9px" xmlns="http://www.w3.org/2000/svg">
  <g transform="matrix(1 0 0 1 -420 -529 )">
    <path d="M 424.5 529  C 427.02 529  429 530.98  429 533.5  C 429 536.02  427.02 538  424.5 538  C 421.98 538  420 536.02  420 533.5  C 420 530.98  421.98 529  424.5 529  Z " fill-rule="nonzero" fill="#aaaaaa" stroke="none" />
    <path d="M 424.5 529.5  C 426.74 529.5  428.5 531.26  428.5 533.5  C 428.5 535.74  426.74 537.5  424.5 537.5  C 422.26 537.5  420.5 535.74  420.5 533.5  C 420.5 531.26  422.26 529.5  424.5 529.5  Z " stroke-width="1" stroke="#aaaaaa" fill="none" />
  </g>
</svg>