<?xml version="1.0" encoding="utf-8"?>
<svg version="1.1" xmlns:xlink="http://www.w3.org/1999/xlink" width="15px" height="7px" xmlns="http://www.w3.org/2000/svg">
  <g transform="matrix(1 0 0 1 -532 -530 )">
    <path d="M 14.9707264218043 3.5  C 14.9707264218043 3.39964926958963  14.9055571014181 3.30340878567389  14.7895554123711 3.23245101351351  L 9.82612113402062 0.196271959459459  C 9.58457474226804 0.0485033783783781  9.19291237113402 0.0485033783783781  8.95136597938144 0.196271959459459  C 8.70980025773196 0.344040540540541  8.70980025773196 0.583613175675675  8.95136597938144 0.731381756756757  L 12.8811340206186 3  L 0.735019329896907 3  C 0.405715206185567 3.13526689189189  0.138769329896907 3.29857263513513  0.138769329896907 3.5  C 0.138769329896907 3.70143918918919  0.405734536082474 3.86473310810811  0.735019329896907 3.86473310810811  L 12.8811533505155 3.86473310810811  L 8.95136597938144 6.26863006756757  C 8.70980025773196 6.41638682432432  8.70980025773196 6.65597128378379  8.95136597938144 6.80373986486487  C 9.07213917525773 6.87761824324324  9.23045103092783 6.91455743243243  9.38874355670103 6.91455743243243  C 9.54703608247423 6.91455743243243  9.70534793814433 6.87761824324324  9.82612113402062 6.80373986486487  L 14.7895554123711 3.76754898648649  C 14.9055571014181 3.69659121432611  14.9707264218043 3.60035073041038  14.9707264218043 3.5  Z " fill-rule="nonzero" fill="#aaaaaa" stroke="none" transform="matrix(1 0 0 1 532 530 )" />
  </g>
</svg>