<?xml version="1.0" encoding="utf-8"?>
<svg version="1.1" xmlns:xlink="http://www.w3.org/1999/xlink" width="9px" height="9px" xmlns="http://www.w3.org/2000/svg">
  <g transform="matrix(1 0 0 1 -485 -529 )">
    <path d="M 489.5 529  C 492.02 529  494 530.98  494 533.5  C 494 536.02  492.02 538  489.5 538  C 486.98 538  485 536.02  485 533.5  C 485 530.98  486.98 529  489.5 529  Z " fill-rule="nonzero" fill="#02a7f0" stroke="none" />
    <path d="M 489.5 529.5  C 491.74 529.5  493.5 531.26  493.5 533.5  C 493.5 535.74  491.74 537.5  489.5 537.5  C 487.26 537.5  485.5 535.74  485.5 533.5  C 485.5 531.26  487.26 529.5  489.5 529.5  Z " stroke-width="1" stroke="#02a7f0" fill="none" />
  </g>
</svg>