<?xml version="1.0" encoding="utf-8"?>
<svg version="1.1" xmlns:xlink="http://www.w3.org/1999/xlink" width="14px" height="14px" xmlns="http://www.w3.org/2000/svg">
  <g transform="matrix(1 0 0 1 -275 -637 )">
    <path d="M 282 637  C 285.92 637  289 640.08  289 644  C 289 647.92  285.92 651  282 651  C 278.08 651  275 647.92  275 644  C 275 640.08  278.08 637  282 637  Z " fill-rule="nonzero" fill="#ffffff" stroke="none" fill-opacity="0" />
    <path d="M 282 637.5  C 285.64 637.5  288.5 640.36  288.5 644  C 288.5 647.64  285.64 650.5  282 650.5  C 278.36 650.5  275.5 647.64  275.5 644  C 275.5 640.36  278.36 637.5  282 637.5  Z " stroke-width="1" stroke="#d9d9d9" fill="none" />
  </g>
</svg>