<?xml version="1.0" encoding="utf-8"?>
<svg version="1.1" xmlns:xlink="http://www.w3.org/1999/xlink" width="14px" height="14px" xmlns="http://www.w3.org/2000/svg">
  <g transform="matrix(1 0 0 1 -215 -637 )">
    <path d="M 222 637  C 225.92 637  229 640.08  229 644  C 229 647.92  225.92 651  222 651  C 218.08 651  215 647.92  215 644  C 215 640.08  218.08 637  222 637  Z " fill-rule="nonzero" fill="#ffffff" stroke="none" fill-opacity="0" />
    <path d="M 222 637.5  C 225.64 637.5  228.5 640.36  228.5 644  C 228.5 647.64  225.64 650.5  222 650.5  C 218.36 650.5  215.5 647.64  215.5 644  C 215.5 640.36  218.36 637.5  222 637.5  Z " stroke-width="1" stroke="#1890ff" fill="none" />
  </g>
</svg>