<?xml version="1.0" encoding="utf-8"?>
<svg version="1.1" xmlns:xlink="http://www.w3.org/1999/xlink" width="54px" height="54px" xmlns="http://www.w3.org/2000/svg">
  <g transform="matrix(1 0 0 1 -1005 -310 )">
    <path d="M 1032 310  C 1047.12 310  1059 321.88  1059 337  C 1059 352.12  1047.12 364  1032 364  C 1016.88 364  1005 352.12  1005 337  C 1005 321.88  1016.88 310  1032 310  Z " fill-rule="nonzero" fill="#f2f2f2" stroke="none" />
    <path d="M 1032 310.5  C 1046.84 310.5  1058.5 322.16  1058.5 337  C 1058.5 351.84  1046.84 363.5  1032 363.5  C 1017.16 363.5  1005.5 351.84  1005.5 337  C 1005.5 322.16  1017.16 310.5  1032 310.5  Z " stroke-width="1" stroke="#d7d7d7" fill="none" />
  </g>
</svg>