<?xml version="1.0" encoding="utf-8"?>
<svg version="1.1" xmlns:xlink="http://www.w3.org/1999/xlink" width="70px" height="70px" xmlns="http://www.w3.org/2000/svg">
  <defs>
    <filter x="61px" y="720px" width="70px" height="70px" filterUnits="userSpaceOnUse" id="filter2460">
      <feOffset dx="0" dy="5" in="SourceAlpha" result="shadowOffsetInner" />
      <feGaussianBlur stdDeviation="2.5" in="shadowOffsetInner" result="shadowGaussian" />
      <feComposite in2="shadowGaussian" operator="atop" in="SourceAlpha" result="shadowComposite" />
      <feColorMatrix type="matrix" values="0 0 0 0 0  0 0 0 0 0  0 0 0 0 0  0 0 0 0.349019607843137 0  " in="shadowComposite" />
    </filter>
    <g id="widget2461">
      <path d="M 96 720  C 112.8 720  126 733.2  126 750  C 126 766.8  112.8 780  96 780  C 79.2 780  66 766.8  66 750  C 66 733.2  79.2 720  96 720  Z " fill-rule="nonzero" fill="#ffffff" stroke="none" />
      <path d="M 96 720.5  C 112.52 720.5  125.5 733.48  125.5 750  C 125.5 766.52  112.52 779.5  96 779.5  C 79.48 779.5  66.5 766.52  66.5 750  C 66.5 733.48  79.48 720.5  96 720.5  Z " stroke-width="1" stroke="#d7d7d7" fill="none" />
    </g>
  </defs>
  <g transform="matrix(1 0 0 1 -61 -720 )">
    <use xlink:href="#widget2461" filter="url(#filter2460)" />
    <use xlink:href="#widget2461" />
  </g>
</svg>