<?xml version="1.0" encoding="utf-8"?>
<svg version="1.1" xmlns:xlink="http://www.w3.org/1999/xlink" width="20px" height="20px" viewBox="1542 484  20 20" xmlns="http://www.w3.org/2000/svg">
  <path d="M 1552 484  C 1557.6 484  1562 488.4  1562 494  C 1562 499.6  1557.6 504  1552 504  C 1546.4 504  1542 499.6  1542 494  C 1542 488.4  1546.4 484  1552 484  Z " fill-rule="nonzero" fill="#ffffff" stroke="none" />
  <path d="M 1552 484.5  C 1557.32 484.5  1561.5 488.68  1561.5 494  C 1561.5 499.32  1557.32 503.5  1552 503.5  C 1546.68 503.5  1542.5 499.32  1542.5 494  C 1542.5 488.68  1546.68 484.5  1552 484.5  Z " stroke-width="1" stroke="#797979" fill="none" />
  <path d="M 1552 499  C 1549.2 499  1547 496.8  1547 494  C 1547 491.2  1549.2 489  1552 489  C 1554.8 489  1557 491.2  1557 494  C 1557 496.8  1554.8 499  1552 499  " fill-rule="nonzero" fill="#797979" stroke="none" />
</svg>