<?xml version="1.0" encoding="utf-8"?>
<svg version="1.1" xmlns:xlink="http://www.w3.org/1999/xlink" width="18px" height="15px" xmlns="http://www.w3.org/2000/svg">
  <g transform="matrix(1 0 0 1 -1812 -479 )">
    <path d="M 18 0.0977393617021278  L 14.2705752212389 0.0977393617021278  L 14.2705752212389 2.33178191489362  L 11.2977876106195 2.33178191489362  L 11.2977876106195 0.0977393617021272  L 6.83561946902655 0.0977393617021272  L 6.83561946902655 2.33178191489362  L 3.86283185840708 2.33178191489362  L 3.86283185840708 0.0977393617021272  L 0.145353982300885 0.0977393617021272  L 0.145353982300885 15  L 18 15  L 18 0.0977393617021278  Z M 17 0.841755319148936  L 17 14  L 1 14  L 1 0.841755319148937  L 3.12013274336283 0.841755319148937  L 3.12013274336283 3.07380319148936  L 7.57632743362832 3.07380319148936  L 7.57632743362832 0.841755319148936  L 10.5530973451327 0.841755319148936  L 10.5530973451327 3.07380319148936  L 15.0132743362832 3.07380319148936  L 15.0132743362832 0.841755319148936  L 17 0.841755319148936  Z " fill-rule="nonzero" fill="#aaaaaa" stroke="none" transform="matrix(1 0 0 1 1812 479 )" />
  </g>
</svg>