<?xml version="1.0" encoding="utf-8"?>
<svg version="1.1" xmlns:xlink="http://www.w3.org/1999/xlink" width="14px" height="14px" xmlns="http://www.w3.org/2000/svg">
  <g transform="matrix(1 0 0 1 -725 -1125 )">
    <path d="M 14 8.30502604166667  L 14 12.3353125  C 14 13.249140625  13.2890625 13.9925260416667  12.4169791666667 14  L 1.58302083333333 14  C 0.7109375 13.9925260416667  0 13.249140625  0 12.3353125  L 0 8.30502604166667  C 0 7.9828599375987  0.261167229265371 7.72169270833333  0.583333333333333 7.72169270833333  C 0.905499437401296 7.72169270833333  1.16666666666667 7.9828599375987  1.16666666666667 8.30502604166667  L 1.16666666666667 12.3353125  C 1.16666666666667 12.6058333333333  1.353515625 12.825859375  1.58302083333333 12.825859375  L 12.4169791666667 12.825859375  C 12.646484375 12.825859375  12.8333333333333 12.6058333333333  12.8333333333333 12.3353125  L 12.8333333333333 8.30502604166667  C 12.8333333333333 7.9828599375987  13.0945005625987 7.72169270833333  13.4166666666667 7.72169270833333  C 13.7388327707346 7.72169270833333  14 7.9828599375987  14 8.30502604166667  Z M 3.15565104166667 5.02158854166667  C 3.31043235443037 5.02174608415931  3.45889403023051 4.9602096051931  3.56817708333333 4.85059895833333  L 6.41794270833333 1.99919270833333  L 6.41958333333333 9.296875  C 6.41958333333333 9.61904110406797  6.6807505625987 9.88020833333333  7.00291666666667 9.88020833333333  C 7.32508277073463 9.88020833333333  7.58625 9.61904110406796  7.58625 9.296875  L 7.584609375 1.999921875  L 10.431640625 4.85041666666667  C 10.5410557322462 4.95995272804426  10.689527078627 5.02149962462953  10.8443489583333 5.02149962462953  C 11.1665162933314 5.02149962462953  11.4276845204629 4.76033139749811  11.4276845204629 4.4381640625  C 11.4276845204629 4.28356551569805  11.3663145659649 4.13528951228476  11.2570572916667 4.02591145833333  L 7.41361979166667 0.178463541666667  C 7.406875 0.171536458333333  7.399765625 0.164973958333333  7.39265625 0.158411458333333  L 7.38408854166667 0.1509375  C 7.380078125 0.147473958333333  7.37606770833333 0.143828125  7.371875 0.140546875  L 7.37005208333333 0.13890625  C 7.3675 0.13671875  7.36458333333333 0.134713541666667  7.36203125 0.132708333333333  L 7.35856770833333 0.129973958333333  L 7.34963541666666 0.123046875  L 7.34671875 0.120859375  L 7.33942708333333 0.115755208333333  L 7.33432291666667 0.112291666666667  L 7.326484375 0.106822916666666  L 7.32283854166667 0.104270833333333  L 7.31609375 0.100078125  L 7.31026041666667 0.096432291666667  L 7.30260416666667 0.0915104166666668  L 7.29822916666667 0.0889583333333338  L 7.293125 0.0860416666666672  L 7.28638020833333 0.082213541666667  L 7.27763020833333 0.0772916666666668  L 7.27307291666667 0.0749218750000002  L 7.26888020833333 0.0727343750000002  L 7.261953125 0.0692708333333335  L 7.25192708333333 0.0643489583333333  L 7.24736979166667 0.0621614583333333  L 7.24481770833333 0.0610677083333332  L 7.23734375 0.0577864583333331  L 7.22549479166667 0.0524999999999999  L 7.22130208333333 0.0508593749999999  L 7.21966145833333 0.0508593749999999  L 7.21236979166667 0.0481249999999998  L 7.19833333333334 0.0428385416666666  L 7.1946875 0.0415625  L 7.18684895833333 0.0390104166666669  C 7.1815625 0.0373697916666669  7.17645833333333 0.0355468750000003  7.171171875 0.0340885416666668  L 7.16041666666667 0.0309895833333336  L 7.14364583333334 0.026432291666667  L 7.13325520833333 0.0240625000000004  L 7.11502604166667 0.0202343750000002  L 7.10427083333333 0.0182291666666667  L 7.08713541666667 0.0153125000000001  L 7.074375 0.0138541666666665  L 7.0590625 0.0118489583333329  L 7.04083333333333 0.0105729166666664  L 7.03044270833333 0.0105729166666664  C 7.0110136414417 0.0094792842397046  6.99153844189163 0.0094792842397046  6.972109375 0.0105729166666664  L 6.96080729166666 0.0105729166666664  L 6.943671875 0.0118489583333329  L 6.92854166666666 0.0136718749999995  L 6.91559895833333 0.0153124999999995  L 6.898828125 0.0182291666666662  L 6.88770833333333 0.0202343749999997  L 6.870390625 0.0238802083333329  L 6.8621875 0.0257031249999994  L 6.86 0.0257031249999994  C 6.85434895833333 0.026979166666666  6.84869791666666 0.028619791666666  6.84322916666667 0.0300781249999996  L 6.83502604166666 0.0324479166666662  L 6.83229166666667 0.0324479166666662  L 6.816796875 0.0375520833333329  L 6.808046875 0.040286458333333  L 6.80494791666666 0.0415624999999995  L 6.79109375 0.0468489583333327  L 6.78161458333333 0.0503124999999993  L 6.77778645833333 0.0519531249999994  L 6.7659375 0.0572395833333326  L 6.755546875 0.0616145833333327  L 6.751171875 0.0638020833333328  L 6.74114583333333 0.068723958333333  L 6.72984375 0.0743749999999997  L 6.72546875 0.0767447916666663  L 6.71690104166667 0.0816666666666665  C 6.712890625 0.0838541666666666  6.70869791666667 0.0860416666666667  6.70486979166667 0.0884114583333332  L 6.70049479166666 0.0909635416666663  L 6.69265625 0.0958854166666665  L 6.68026041666666 0.103723958333333  L 6.67643229166667 0.106276041666666  L 6.66877604166666 0.1115625  L 6.65638020833333 0.120312499999999  L 6.65328125 0.122682291666666  L 6.64489583333333 0.129244791666666  L 6.63322916666666 0.138177083333333  L 6.63122395833333 0.14  C 6.627578125 0.142916666666666  6.62411458333333 0.146015625  6.62065104166666 0.149114583333333  L 6.610625 0.1575  C 6.61041962197976 0.15788846885558  6.61010201052224 0.158206080313092  6.60971354166666 0.158411458333333  C 6.60388020833333 0.163697916666666  6.59841145833333 0.168984375  6.59276041666666 0.174453125  L 6.58911458333333 0.178098958333333  L 2.74294270833333 4.02572916666667  C 2.63351764027465 4.13512921883771  2.57204117378013 4.28352254646073  2.57204117378013 4.43825527388022  C 2.57204117378013 4.76042137794818  2.8332084030455 5.02158860721355  3.15537450711346 5.02158860721355  Z " fill-rule="nonzero" fill="#555555" stroke="none" transform="matrix(1 0 0 1 725 1125 )" />
  </g>
</svg>