<?xml version="1.0" encoding="utf-8"?>
<svg version="1.1" xmlns:xlink="http://www.w3.org/1999/xlink" width="40px" height="50px" xmlns="http://www.w3.org/2000/svg">
  <defs>
    <filter x="170px" y="167px" width="40px" height="50px" filterUnits="userSpaceOnUse" id="filter404">
      <feOffset dx="1" dy="1" in="SourceAlpha" result="shadowOffsetInner" />
      <feGaussianBlur stdDeviation="2.5" in="shadowOffsetInner" result="shadowGaussian" />
      <feComposite in2="shadowGaussian" operator="atop" in="SourceAlpha" result="shadowComposite" />
      <feColorMatrix type="matrix" values="0 0 0 0 0  0 0 0 0 0  0 0 0 0 0  0 0 0 0.698039215686274 0  " in="shadowComposite" />
    </filter>
    <g id="widget405">
      <path d="M 189 210.036928468354  C 183.2 200.40734059591  174.5 194.629587872444  174.5 185  C 174.5 179.985714285714  177.4 171.5  189 171.5  C 200.6 171.5  203.5 179.985714285714  203.5 185  C 203.5 194.629587872444  194.8 200.40734059591  189 210.036928468354  Z " fill-rule="nonzero" fill="#d9001b" stroke="none" />
      <path d="M 189 211  C 183 201  174 195  174 185  C 174 179.8  177 171  189 171  C 201 171  204 179.8  204 185  C 204 195  195 201  189 211  Z M 189 209.073856936707  C 194.6 199.81468119182  203 194.259175744887  203 185  C 203 180.171428571429  200.2 172  189 172  C 177.8 172  175 180.171428571429  175 185  C 175 194.259175744887  183.4 199.81468119182  189 209.073856936707  Z " fill-rule="nonzero" fill="#ffffff" stroke="none" />
    </g>
  </defs>
  <g transform="matrix(1 0 0 1 -170 -167 )">
    <use xlink:href="#widget405" filter="url(#filter404)" />
    <use xlink:href="#widget405" />
  </g>
</svg>