<?xml version="1.0" encoding="utf-8"?>
<svg version="1.1" xmlns:xlink="http://www.w3.org/1999/xlink" width="520px" height="35px" viewBox="838 77  520 35" xmlns="http://www.w3.org/2000/svg">
  <path d="M 839 82  A 4 4 0 0 1 843 78 L 1353 78  A 4 4 0 0 1 1357 82 L 1357 107  A 4 4 0 0 1 1353 111 L 843 111  A 4 4 0 0 1 839 107 L 839 82  Z " fill-rule="nonzero" fill="#f0f0f0" stroke="none" />
  <path d="M 838.5 82  A 4.5 4.5 0 0 1 843 77.5 L 1353 77.5  A 4.5 4.5 0 0 1 1357.5 82 L 1357.5 107  A 4.5 4.5 0 0 1 1353 111.5 L 843 111.5  A 4.5 4.5 0 0 1 838.5 107 L 838.5 82  Z " stroke-width="1" stroke="#d7d7d7" fill="none" stroke-opacity="0.549019607843137" />
</svg>