<?xml version="1.0" encoding="utf-8"?>
<svg version="1.1" xmlns:xlink="http://www.w3.org/1999/xlink" width="75px" height="27px" viewBox="1041 81  75 27" xmlns="http://www.w3.org/2000/svg">
  <path d="M 1041.5 86  A 4.5 4.5 0 0 1 1046 81.5 L 1111 81.5  A 4.5 4.5 0 0 1 1115.5 86 L 1115.5 103  A 4.5 4.5 0 0 1 1111 107.5 L 1046 107.5  A 4.5 4.5 0 0 1 1041.5 103 L 1041.5 86  Z " fill-rule="nonzero" fill="#d7d7d7" stroke="none" fill-opacity="0.109803921568627" />
  <path d="M 1041.5 86  A 4.5 4.5 0 0 1 1046 81.5 L 1111 81.5  A 4.5 4.5 0 0 1 1115.5 86 L 1115.5 103  A 4.5 4.5 0 0 1 1111 107.5 L 1046 107.5  A 4.5 4.5 0 0 1 1041.5 103 L 1041.5 86  Z " stroke-width="1" stroke="#81d3f8" fill="none" />
</svg>