<?xml version="1.0" encoding="utf-8"?>
<svg version="1.1" xmlns:xlink="http://www.w3.org/1999/xlink" width="19px" height="20px" xmlns="http://www.w3.org/2000/svg">
  <g transform="matrix(1 0 0 1 -1392 -72 )">
    <path d="M 12.6334440989011 18.798041175  C 12.5929585137363 18.805716575  12.5524729038462 18.8108335  12.5145176538462 18.8108335  C 12.3348628186813 18.8108335  12.1602686538462 18.7238457  12.0514636236264 18.57289625  L 12.0489332637363 18.567779325  L 8.28377258241758 12.496542075  C 8.28124222252747 12.4939836  8.27871188736264 12.49142515  8.27618152747253 12.49142515  L 0.60163021978022 11.92344595  L 0.594039164835165 11.92344595  C 0.35871660989011 11.892744375  0.16387968956044 11.7162103  0.10821196978022 11.480831525  C 0.0525442747252751 11.250569675  0.14616721978022 11.00495705  0.338473804945055 10.8693584  L 17.0969813406593 0.131481125000002  L 17.0995117005495 0.128922650000002  C 17.2513327005495 0.0265840500000017  17.4411089505495 -0.00155904999999805  17.6106423956044 0.0598441000000022  C 17.8915112307692 0.164741150000003  18.0408018708791 0.446172300000002  17.9826038406593 0.725044975000002  L 13.073724989011 18.350309825  C 13.0256483489011 18.572896275  12.853584543956 18.74943035  12.6334440989011 18.798041175  Z M 16.6263363049451 1.83541875  L 2.17044717032967 10.9486708  L 8.64055191758242 11.39640215  C 8.64055191758242 11.39640215  8.64055191758242 11.39640215  8.64308227747253 11.39640215  L 8.64561263736264 11.39640215  C 8.80502469230769 11.416869875  8.94925463736264 11.503857675  9.04287758241758 11.6343394  L 12.2311184835165 16.89710175  L 16.6263363049451 1.83541875  Z " fill-rule="nonzero" fill="#2962ff" stroke="none" transform="matrix(1 0 0 1 1392 72 )" />
  </g>
</svg>