<?xml version="1.0" encoding="utf-8"?>
<svg version="1.1" xmlns:xlink="http://www.w3.org/1999/xlink" width="21px" height="12px" xmlns="http://www.w3.org/2000/svg">
  <g transform="matrix(1 0 0 1 -1373 -912 )">
    <path d="M 20.714385421875 10.4643360909091  C 21.0570791484375 10.7966315227273  21.0570791484375 11.3363790227273  20.7143614453125 11.6694652045455  C 20.3725551796875 12.0017373863636  19.8175966875 12.0017373863636  19.475790421875 11.6694652045455  L 10.4997241640625 2.14083325  L 1.523633953125 11.6694652045455  C 1.1818036875 12.0017373863636  0.6268691953125 12.0017373863636  0.28419946875 11.6694652045455  C -0.0576307968749997 11.3363790454545  -0.0576307968749997 10.7966315227273  0.28419946875 10.4643360909091  L 9.8356831640625 0.324883363636364  C 10.018950421875 0.147153681818182  10.2610282265625 0.0711266818181823  10.4997241640625 0.0835226363636369  C 10.738396125 0.0711266818181823  10.98049790625 0.147153681818182  11.1637651640625 0.324883363636364  L 20.714385421875 10.4643360909091  Z " fill-rule="nonzero" fill="#555555" stroke="none" transform="matrix(1 0 0 1 1373 912 )" />
  </g>
</svg>