<?xml version="1.0" encoding="utf-8"?>
<svg version="1.1" xmlns:xlink="http://www.w3.org/1999/xlink" width="12px" height="12px" viewBox="804 289.5  12 12" xmlns="http://www.w3.org/2000/svg">
  <path d="M 810 289.5  C 813.36 289.5  816 292.14  816 295.5  C 816 298.86  813.36 301.5  810 301.5  C 806.64 301.5  804 298.86  804 295.5  C 804 292.14  806.64 289.5  810 289.5  Z " fill-rule="nonzero" fill="#f0f0f0" stroke="none" />
  <path d="M 810 290  C 813.08 290  815.5 292.42  815.5 295.5  C 815.5 298.58  813.08 301  810 301  C 806.92 301  804.5 298.58  804.5 295.5  C 804.5 292.42  806.92 290  810 290  Z " stroke-width="1" stroke="#02a7f0" fill="none" />
  <path d="M 810 298.5  C 808.32 298.5  807 297.18  807 295.5  C 807 293.82  808.32 292.5  810 292.5  C 811.68 292.5  813 293.82  813 295.5  C 813 297.18  811.68 298.5  810 298.5  " fill-rule="nonzero" fill="#02a7f0" stroke="none" />
</svg>