<?xml version="1.0" encoding="utf-8"?>
<svg version="1.1" xmlns:xlink="http://www.w3.org/1999/xlink" width="57px" height="10px" preserveAspectRatio="xMinYMid meet" viewBox="301 73  57 8" xmlns="http://www.w3.org/2000/svg">
  <defs>
    <mask fill="white" id="clip594">
      <path d="M 330 528  L 376 528  L 376 553  L 330 553  Z M 301 74  L 396 74  L 396 1046  L 301 1046  Z " fill-rule="evenodd" />
    </mask>
  </defs>
  <path d="M 301 77.5  L 348 77.5  A 5 5 0 0 1 353.5 82 L 353.5 317  A 3 3 0 0 1 356.5 320 A 3 3 0 0 1 353.5 323 L 353.5 1025  A 5 5 0 0 0 358.5 1030.5 L 379 1030.5  " stroke-width="1" stroke-dasharray="9,4" stroke="#02a7f0" fill="none" mask="url(#clip594)" />
  <path d="M 373.3 1036.5  L 380 1030.5  L 373.3 1024.5  L 375.6 1030.5  L 373.3 1036.5  Z " fill-rule="nonzero" fill="#02a7f0" stroke="none" mask="url(#clip594)" />
</svg>