<?xml version="1.0" encoding="utf-8"?>
<svg version="1.1" xmlns:xlink="http://www.w3.org/1999/xlink" width="10px" height="17px" xmlns="http://www.w3.org/2000/svg">
  <g transform="matrix(1 0 0 1 -1905 -715 )">
    <path d="M 9.81203007142857 16.5842105208333  C 10.0045112678571 16.1912280625  9.95639098214286 15.6859649166667  9.619548875 15.4052631666667  L 1.96842105357143 8.5  L 9.619548875 1.59473683333333  C 9.95639098214286 1.31403508333333  10.0045112857143 0.808771916666667  9.76390976785714 0.415789479166667  C 9.52330826785714 0.0228070208333335  9.09022555357143 -0.0333333333333332  8.75338346428572 0.247368416666667  L 0.332330821428571 7.82631579166667  C 0.187969910714285 7.99473685416667  0.0917293214285715 8.21929825  0.0917293214285715 8.5  C 0.0917293214285715 8.78070175  0.187969928571429 9.00526316666667  0.380451125 9.17368420833333  L 8.80150376785714 16.7526315833333  C 9.138345875 17.0333333333333  9.57142857142857 16.9771929791667  9.81203007142857 16.5842105208333  Z " fill-rule="nonzero" fill="#555555" stroke="none" fill-opacity="0.996078431372549" transform="matrix(1 0 0 1 1905 715 )" />
  </g>
</svg>