<?xml version="1.0" encoding="utf-8"?>
<svg version="1.1" xmlns:xlink="http://www.w3.org/1999/xlink" width="109px" height="10px" preserveAspectRatio="xMinYMid meet" viewBox="412 1385  109 8" xmlns="http://www.w3.org/2000/svg">
  <defs>
    <mask fill="white" id="clip105">
      <path d="M 499.5 1233  L 532.5 1233  L 532.5 1258  L 499.5 1258  Z M 403 1051  L 532.5 1051  L 532.5 1398  L 403 1398  Z " fill-rule="evenodd" />
    </mask>
  </defs>
  <path d="M 461 1054.5  L 467 1054.5  A 3 3 0 0 1 470 1051.5 A 3 3 0 0 1 473 1054.5 L 511 1054.5  A 5 5 0 0 1 516.5 1059.5 L 516.5 1384  A 5 5 0 0 1 511 1389.5 L 473 1389.5  A 3 3 0 0 0 470 1386.5 A 3 3 0 0 0 467 1389.5 L 417 1389.5  " stroke-width="1" stroke="#000000" fill="none" mask="url(#clip105)" />
  <path d="M 418 1383.2  L 412 1389.5  L 418 1395.8  L 418 1383.2  Z " fill-rule="nonzero" fill="#000000" stroke="none" mask="url(#clip105)" />
</svg>