<?xml version="1.0" encoding="utf-8"?>
<svg version="1.1" xmlns:xlink="http://www.w3.org/1999/xlink" width="46.96875px" height="10px" preserveAspectRatio="xMinYMid meet" viewBox="1106 237  46.96875 8" xmlns="http://www.w3.org/2000/svg">
  <defs>
    <mask fill="white" id="clip171">
      <path d="M 1131.5 410  L 1164.5 410  L 1164.5 435  L 1131.5 435  Z M 1058 238  L 1164.5 238  L 1164.5 573  L 1058 573  Z " fill-rule="evenodd" />
    </mask>
  </defs>
  <path d="M 1106 241.5  L 1142.96875 241.5  A 5 5 0 0 1 1148.46875 246 L 1148.46875 356  A 3 3 0 0 1 1151.46875 359 A 3 3 0 0 1 1148.46875 362 L 1148.46875 458  A 3 3 0 0 1 1151.46875 461 A 3 3 0 0 1 1148.46875 464 L 1148.46875 559  A 5 5 0 0 1 1143.46875 564.5 L 1072 564.5  " stroke-width="1" stroke="#000000" fill="none" mask="url(#clip171)" />
  <path d="M 1073 558.2  L 1067 564.5  L 1073 570.8  L 1073 558.2  Z " fill-rule="nonzero" fill="#000000" stroke="none" mask="url(#clip171)" />
</svg>