<?xml version="1.0" encoding="utf-8"?>
<svg version="1.1" xmlns:xlink="http://www.w3.org/1999/xlink" width="211px" height="10px" preserveAspectRatio="xMinYMid meet" viewBox="1067 662  211 8" xmlns="http://www.w3.org/2000/svg">
  <path d="M 1067 1544.5  L 1268 1544.5  A 5 5 0 0 0 1273.5 1539 L 1273.5 1299  A 3 3 0 0 0 1276.5 1296 A 3 3 0 0 0 1273.5 1293 L 1273.5 1178  A 3 3 0 0 0 1276.5 1175 A 3 3 0 0 0 1273.5 1172 L 1273.5 975  A 3 3 0 0 0 1276.5 972 A 3 3 0 0 0 1273.5 969 L 1273.5 873  A 3 3 0 0 0 1276.5 870 A 3 3 0 0 0 1273.5 867 L 1273.5 771  A 3 3 0 0 0 1276.5 768 A 3 3 0 0 0 1273.5 765 L 1273.5 671  A 5 5 0 0 0 1268.5 666.5 L 1072 666.5  " stroke-width="1" stroke="#000000" fill="none" />
  <path d="M 1073 660.2  L 1067 666.5  L 1073 672.8  L 1073 660.2  Z " fill-rule="nonzero" fill="#000000" stroke="none" />
</svg>