<?xml version="1.0" encoding="utf-8"?>
<svg version="1.1" xmlns:xlink="http://www.w3.org/1999/xlink" width="250px" height="35px" viewBox="28 22  250 35" xmlns="http://www.w3.org/2000/svg">
  <path d="M 29 27  A 4 4 0 0 1 33 23 L 273 23  A 4 4 0 0 1 277 27 L 277 52  A 4 4 0 0 1 273 56 L 33 56  A 4 4 0 0 1 29 52 L 29 27  Z " fill-rule="nonzero" fill="#ffffff" stroke="none" />
  <path d="M 28.5 27  A 4.5 4.5 0 0 1 33 22.5 L 273 22.5  A 4.5 4.5 0 0 1 277.5 27 L 277.5 52  A 4.5 4.5 0 0 1 273 56.5 L 33 56.5  A 4.5 4.5 0 0 1 28.5 52 L 28.5 27  Z " stroke-width="1" stroke="#d7d7d7" fill="none" stroke-opacity="0.549019607843137" />
</svg>