<?xml version="1.0" encoding="utf-8"?>
<svg version="1.1" xmlns:xlink="http://www.w3.org/1999/xlink" width="91px" height="35px" xmlns="http://www.w3.org/2000/svg">
  <g transform="matrix(1 0 0 1 -1509 -22 )">
    <path d="M 1510 39.5  A 16.5 16.5 0 0 1 1526.5 23 L 1582.5 23  A 16.5 16.5 0 0 1 1599 39.5 A 16.5 16.5 0 0 1 1582.5 56 L 1526.5 56  A 16.5 16.5 0 0 1 1510 39.5 Z " fill-rule="nonzero" fill="#02a7f0" stroke="none" fill-opacity="0.749019607843137" />
    <path d="M 1509.5 39.5  A 17 17 0 0 1 1526.5 22.5 L 1582.5 22.5  A 17 17 0 0 1 1599.5 39.5 A 17 17 0 0 1 1582.5 56.5 L 1526.5 56.5  A 17 17 0 0 1 1509.5 39.5 Z " stroke-width="1" stroke="#d7d7d7" fill="none" stroke-opacity="0.549019607843137" />
  </g>
</svg>