<?xml version="1.0" encoding="utf-8"?>
<svg version="1.1" xmlns:xlink="http://www.w3.org/1999/xlink" width="11px" height="15px" xmlns="http://www.w3.org/2000/svg">
  <g transform="matrix(1 0 0 1 -239 -767 )">
    <path d="M 5.5 14.9235509821429  C 2.48617886702128 14.9235509821429  0.0343823430851065 12.429317202381  0.0343823430851065 9.3632905952381  L 0.0343823430851065 6.58311514880952  L 10.9656176569149 6.58311514880952  L 10.9656176569149 9.3632905952381  C 10.9656176569149 12.429317202381  8.51341192420213 14.9235509821429  5.5 14.9235509821429  Z M 0.945303796542553 7.509900625  L 0.945303796542553 9.3632905952381  C 0.945303796542553 11.918267514881  2.98858321276596 13.9968559970238  5.5 13.9968559970238  C 8.01148795079787 13.9968559970238  10.0546962034574 11.918267514881  10.0546962034574 9.3632905952381  L 10.0546962034574 7.509900625  L 0.945303796542553 7.509900625  Z M 5.5 12.6067682738095  C 4.75030768218085 12.6067682738095  4.13997838696809 11.989599077381  4.13357334441489 11.2282825595238  L 4.13357334441489 10.2899855654762  C 4.13357334441489 9.52363729166667  4.74669595212766 8.89989784226191  5.5 8.89989784226191  C 6.25337522606383 8.89989784226191  6.86642665558511 9.52363729166667  6.86642665558511 10.2899855654762  L 6.86642665558511 11.2282825595238  C 6.86003940026596 11.9896171875  6.24928310904255 12.6067682738095  5.5 12.6067682738095  Z M 5.5 9.82668333333333  C 5.24904690691489 9.82668333333333  5.04458374867021 10.0346869791667  5.04458374867021 10.2900036755952  L 5.04458374867021 11.2166986607143  C 5.04458374867021 11.4719972619048  5.24904690691489 11.6800913988095  5.5 11.6800913988095  C 5.75095309308511 11.6800913988095  5.95550520212766 11.4720153571429  5.95550520212766 11.2166986607143  L 5.95550520212766 10.2900036755952  C 5.95550520212766 10.0346869791667  5.75097088031915 9.82668333333333  5.5 9.82668333333333  Z M 9.14377476462766 5.65642016369048  L 8.23285331117021 5.65642016369048  L 8.23285331117021 3.65752538690476  C 8.23285331117021 2.20486642857143  7.0071596462766 1.02285476190476  5.5 1.02285476190476  C 3.99333851329787 1.02285476190476  2.76723565425532 2.20486644345238  2.76723565425532 3.65752538690476  L 2.76723565425532 5.65642016369048  L 1.85622523537234 5.65642016369048  L 1.85622523537234 3.65752538690476  C 1.85622523537234 1.69330995535714  3.49050717154255 0.0961597767857144  5.5 0.0961597767857144  C 7.50956399202128 0.0961597767857143  9.14377476462766 1.69332805059524  9.14377476462766 3.65752538690476  L 9.14377476462766 5.65642016369048  Z " fill-rule="nonzero" fill="#ffffff" stroke="none" transform="matrix(1 0 0 1 239 767 )" />
  </g>
</svg>