<?xml version="1.0" encoding="utf-8"?>
<svg version="1.1" xmlns:xlink="http://www.w3.org/1999/xlink" width="520px" height="35px" xmlns="http://www.w3.org/2000/svg">
  <g transform="matrix(1 0 0 1 -568 -77 )">
    <path d="M 569 82  A 4 4 0 0 1 573 78 L 1083 78  A 4 4 0 0 1 1087 82 L 1087 107  A 4 4 0 0 1 1083 111 L 573 111  A 4 4 0 0 1 569 107 L 569 82  Z " fill-rule="nonzero" fill="#ffffff" stroke="none" />
    <path d="M 568.5 82  A 4.5 4.5 0 0 1 573 77.5 L 1083 77.5  A 4.5 4.5 0 0 1 1087.5 82 L 1087.5 107  A 4.5 4.5 0 0 1 1083 111.5 L 573 111.5  A 4.5 4.5 0 0 1 568.5 107 L 568.5 82  Z " stroke-width="1" stroke="#d7d7d7" fill="none" stroke-opacity="0.549019607843137" />
  </g>
</svg>