<?xml version="1.0" encoding="utf-8"?>
<svg version="1.1" xmlns:xlink="http://www.w3.org/1999/xlink" width="65px" height="35px" xmlns="http://www.w3.org/2000/svg">
  <defs>
    <mask fill="white" id="clip47">
      <path d="M 0 30  L 0 14.25  L 0 5  C 0 2.2  2.19999999999999 0  5 0  L 65 0  L 65 35  L 5 35  C 2.19999999999999 35  0 32.8  0 30  Z " fill-rule="evenodd" />
    </mask>
  </defs>
  <g transform="matrix(1 0 0 1 -568 -77 )">
    <path d="M 0 30  L 0 14.25  L 0 5  C 0 2.2  2.19999999999999 0  5 0  L 65 0  L 65 35  L 5 35  C 2.19999999999999 35  0 32.8  0 30  Z " fill-rule="nonzero" fill="#d7d7d7" stroke="none" fill-opacity="0.219607843137255" transform="matrix(1 0 0 1 568 77 )" />
    <path d="M 0 30  L 0 14.25  L 0 5  C 0 2.2  2.19999999999999 0  5 0  L 65 0  L 65 35  L 5 35  C 2.19999999999999 35  0 32.8  0 30  Z " stroke-width="2" stroke="#d7d7d7" fill="none" stroke-opacity="0.549019607843137" transform="matrix(1 0 0 1 568 77 )" mask="url(#clip47)" />
  </g>
</svg>