<?xml version="1.0" encoding="utf-8"?>
<svg version="1.1" xmlns:xlink="http://www.w3.org/1999/xlink" width="3px" height="3px" xmlns="http://www.w3.org/2000/svg">
  <defs>
    <mask fill="white" id="clip51">
      <path d="M 2.10409239130435 2.83767391304348  C 2.20573369565217 2.93933152173913  2.33902173913043 2.9901847826087  2.47226086956522 2.9901847826087  C 2.60553260869565 2.9901847826087  2.73875543478261 2.93936413043478  2.84042934782609 2.83767391304348  C 3.04377717391304 2.63434239130435  3.04377717391304 2.30465217391304  2.84042934782609 2.10130434782609  L 0.929038043478261 0.189913043478261  C 0.725722826086956 -0.0134184782608692  0.396032608695652 -0.0134184782608692  0.192684782608696 0.189913043478261  C -0.0106630434782609 0.393260869565217  -0.0106630434782609 0.722934782608696  0.192684782608696 0.926282608695652  L 2.10409239130435 2.83767391304348  Z " fill-rule="evenodd" />
    </mask>
  </defs>
  <g transform="matrix(1 0 0 1 -1469 -38 )">
    <path d="M 2.10409239130435 2.83767391304348  C 2.20573369565217 2.93933152173913  2.33902173913043 2.9901847826087  2.47226086956522 2.9901847826087  C 2.60553260869565 2.9901847826087  2.73875543478261 2.93936413043478  2.84042934782609 2.83767391304348  C 3.04377717391304 2.63434239130435  3.04377717391304 2.30465217391304  2.84042934782609 2.10130434782609  L 0.929038043478261 0.189913043478261  C 0.725722826086956 -0.0134184782608692  0.396032608695652 -0.0134184782608692  0.192684782608696 0.189913043478261  C -0.0106630434782609 0.393260869565217  -0.0106630434782609 0.722934782608696  0.192684782608696 0.926282608695652  L 2.10409239130435 2.83767391304348  Z " fill-rule="nonzero" fill="#ffffff" stroke="none" transform="matrix(1 0 0 1 1469 38 )" />
    <path d="M 2.10409239130435 2.83767391304348  C 2.20573369565217 2.93933152173913  2.33902173913043 2.9901847826087  2.47226086956522 2.9901847826087  C 2.60553260869565 2.9901847826087  2.73875543478261 2.93936413043478  2.84042934782609 2.83767391304348  C 3.04377717391304 2.63434239130435  3.04377717391304 2.30465217391304  2.84042934782609 2.10130434782609  L 0.929038043478261 0.189913043478261  C 0.725722826086956 -0.0134184782608692  0.396032608695652 -0.0134184782608692  0.192684782608696 0.189913043478261  C -0.0106630434782609 0.393260869565217  -0.0106630434782609 0.722934782608696  0.192684782608696 0.926282608695652  L 2.10409239130435 2.83767391304348  Z " stroke-width="2" stroke="#d7d7d7" fill="none" stroke-opacity="0.549019607843137" transform="matrix(1 0 0 1 1469 38 )" mask="url(#clip51)" />
  </g>
</svg>