<?xml version="1.0" encoding="utf-8"?>
<svg version="1.1" xmlns:xlink="http://www.w3.org/1999/xlink" width="10px" height="5px" xmlns="http://www.w3.org/2000/svg">
  <defs>
    <mask fill="white" id="clip52">
      <path d="M 5.18157894736842 4.8491847826087  C 5.11842105263158 4.90353260869565  5.04210526315789 4.93206521739131  4.96447368421053 4.9320652173913  C 4.87236842105263 4.9320652173913  4.78157894736842 4.89266304347826  4.71710526315789 4.81657608695652  C 4.59736842105263 4.67527173913043  4.61184210526316 4.46059782608696  4.74868421052632 4.33695652173913  L 9.37105263157895 0.165760869565218  C 9.5078947368421 0.0421195652173916  9.71578947368421 0.057065217391305  9.83552631578947 0.198369565217392  C 9.95526315789474 0.339673913043478  9.94078947368421 0.554347826086957  9.80394736842105 0.677989130434783  L 5.18157894736842 4.8491847826087  Z M 5.20394736842105 4.80163043478261  C 5.13815789473684 4.87907608695652  5.04736842105263 4.91847826086956  4.95526315789474 4.91847826086957  C 4.87894736842105 4.91847826086957  4.80131578947368 4.89130434782609  4.73947368421053 4.83423913043478  L 0.117105263157895 0.663043478260869  C -0.0197368421052628 0.539402173913043  -0.034210526315789 0.324728260869565  0.0855263157894741 0.183423913043477  C 0.205263157894737 0.0421195652173908  0.413157894736843 0.0271739130434775  0.55 0.150815217391304  L 5.17236842105263 4.32201086956522  C 5.30921052631579 4.44565217391304  5.32368421052632 4.66032608695652  5.20394736842105 4.80163043478261  Z " fill-rule="evenodd" />
    </mask>
  </defs>
  <g transform="matrix(1 0 0 1 -258 -92 )">
    <path d="M 5.18157894736842 4.8491847826087  C 5.11842105263158 4.90353260869565  5.04210526315789 4.93206521739131  4.96447368421053 4.9320652173913  C 4.87236842105263 4.9320652173913  4.78157894736842 4.89266304347826  4.71710526315789 4.81657608695652  C 4.59736842105263 4.67527173913043  4.61184210526316 4.46059782608696  4.74868421052632 4.33695652173913  L 9.37105263157895 0.165760869565218  C 9.5078947368421 0.0421195652173916  9.71578947368421 0.057065217391305  9.83552631578947 0.198369565217392  C 9.95526315789474 0.339673913043478  9.94078947368421 0.554347826086957  9.80394736842105 0.677989130434783  L 5.18157894736842 4.8491847826087  Z M 5.20394736842105 4.80163043478261  C 5.13815789473684 4.87907608695652  5.04736842105263 4.91847826086956  4.95526315789474 4.91847826086957  C 4.87894736842105 4.91847826086957  4.80131578947368 4.89130434782609  4.73947368421053 4.83423913043478  L 0.117105263157895 0.663043478260869  C -0.0197368421052628 0.539402173913043  -0.034210526315789 0.324728260869565  0.0855263157894741 0.183423913043477  C 0.205263157894737 0.0421195652173908  0.413157894736843 0.0271739130434775  0.55 0.150815217391304  L 5.17236842105263 4.32201086956522  C 5.30921052631579 4.44565217391304  5.32368421052632 4.66032608695652  5.20394736842105 4.80163043478261  Z " fill-rule="nonzero" fill="#555555" stroke="none" transform="matrix(1 0 0 1 258 92 )" />
    <path d="M 5.18157894736842 4.8491847826087  C 5.11842105263158 4.90353260869565  5.04210526315789 4.93206521739131  4.96447368421053 4.9320652173913  C 4.87236842105263 4.9320652173913  4.78157894736842 4.89266304347826  4.71710526315789 4.81657608695652  C 4.59736842105263 4.67527173913043  4.61184210526316 4.46059782608696  4.74868421052632 4.33695652173913  L 9.37105263157895 0.165760869565218  C 9.5078947368421 0.0421195652173916  9.71578947368421 0.057065217391305  9.83552631578947 0.198369565217392  C 9.95526315789474 0.339673913043478  9.94078947368421 0.554347826086957  9.80394736842105 0.677989130434783  L 5.18157894736842 4.8491847826087  Z " stroke-width="2" stroke="#d7d7d7" fill="none" stroke-opacity="0.549019607843137" transform="matrix(1 0 0 1 258 92 )" mask="url(#clip52)" />
    <path d="M 5.20394736842105 4.80163043478261  C 5.13815789473684 4.87907608695652  5.04736842105263 4.91847826086956  4.95526315789474 4.91847826086957  C 4.87894736842105 4.91847826086957  4.80131578947368 4.89130434782609  4.73947368421053 4.83423913043478  L 0.117105263157895 0.663043478260869  C -0.0197368421052628 0.539402173913043  -0.034210526315789 0.324728260869565  0.0855263157894741 0.183423913043477  C 0.205263157894737 0.0421195652173908  0.413157894736843 0.0271739130434775  0.55 0.150815217391304  L 5.17236842105263 4.32201086956522  C 5.30921052631579 4.44565217391304  5.32368421052632 4.66032608695652  5.20394736842105 4.80163043478261  Z " stroke-width="2" stroke="#d7d7d7" fill="none" stroke-opacity="0.549019607843137" transform="matrix(1 0 0 1 258 92 )" mask="url(#clip52)" />
  </g>
</svg>