<?xml version="1.0" encoding="utf-8"?>
<svg version="1.1" xmlns:xlink="http://www.w3.org/1999/xlink" width="14px" height="19px" xmlns="http://www.w3.org/2000/svg">
  <g transform="matrix(1 0 0 1 -1468 -283 )">
    <path d="M 7 18.903164577381  C 3.16422764893617 18.903164577381  0.043759345744681 15.7438017896825  0.043759345744681 11.8601680873016  L 0.043759345744681 8.3386125218254  L 13.9562406542553 8.3386125218254  L 13.9562406542553 11.8601680873016  C 13.9562406542553 15.7438017896825  10.8352515398936 18.903164577381  7 18.903164577381  Z M 1.20311392287234 9.51254079166667  L 1.20311392287234 11.8601680873016  C 1.20311392287234 15.0964721855159  3.80365136170213 17.7293509295635  7 17.7293509295635  C 10.1964392101064 17.7293509295635  12.7968860771277 15.0964721855159  12.7968860771277 11.8601680873016  L 12.7968860771277 9.51254079166667  L 1.20311392287234 9.51254079166667  Z M 7 15.9685731468254  C 6.04584614095745 15.9685731468254  5.26906340159574 15.1868254980159  5.26091152925532 14.2224912420635  L 5.26091152925532 13.0339817162698  C 5.26091152925532 12.0632739027778  6.04124939361702 11.2732039335317  7 11.2732039335317  C 7.95884119680851 11.2732039335317  8.73908847074468 12.0632739027778  8.73908847074468 13.0339817162698  L 8.73908847074468 14.2224912420635  C 8.73095923670213 15.1868484375  7.95363304787234 15.9685731468254  7 15.9685731468254  Z M 7 12.4471322222222  C 6.68060515425532 12.4471322222222  6.42037931648936 12.7106035069444  6.42037931648936 13.034004655754  L 6.42037931648936 14.2078183035714  C 6.42037931648936 14.531196531746  6.68060515425532 14.7947824384921  7 14.7947824384921  C 7.31939484574468 14.7947824384921  7.57973389361702 14.531219452381  7.57973389361702 14.2078183035714  L 7.57973389361702 13.034004655754  C 7.57973389361702 12.7106035069444  7.31941748404255 12.4471322222222  7 12.4471322222222  Z M 11.637531518617 7.16479887400794  L 10.4781769414894 7.16479887400794  L 10.4781769414894 4.63286549007937  C 10.4781769414894 2.79283080952381  8.91820318617021 1.29561603174603  7 1.29561603174603  C 5.08243083510638 1.29561603174603  3.52193628723404 2.79283082837302  3.52193628723404 4.63286549007937  L 3.52193628723404 7.16479887400794  L 2.36246848138298 7.16479887400794  L 2.36246848138298 4.63286549007937  C 2.36246848138298 2.14485927678571  4.44246367287234 0.121802383928572  7 0.121802383928572  C 9.55762689893617 0.121802383928571  11.637531518617 2.14488219742063  11.637531518617 4.63286549007937  L 11.637531518617 7.16479887400794  Z " fill-rule="nonzero" fill="#00bfbf" stroke="none" transform="matrix(1 0 0 1 1468 283 )" />
  </g>
</svg>