<?xml version="1.0" encoding="utf-8"?>
<svg version="1.1" xmlns:xlink="http://www.w3.org/1999/xlink" width="70px" height="22px" xmlns="http://www.w3.org/2000/svg">
  <g transform="matrix(1 0 0 1 -661 -1110 )">
    <path d="M 662 1113  A 2 2 0 0 1 664 1111 L 728 1111  A 2 2 0 0 1 730 1113 L 730 1129  A 2 2 0 0 1 728 1131 L 664 1131  A 2 2 0 0 1 662 1129 L 662 1113  Z " fill-rule="nonzero" fill="#ffffff" stroke="none" fill-opacity="0" />
    <path d="M 661.5 1113  A 2.5 2.5 0 0 1 664 1110.5 L 728 1110.5  A 2.5 2.5 0 0 1 730.5 1113 L 730.5 1129  A 2.5 2.5 0 0 1 728 1131.5 L 664 1131.5  A 2.5 2.5 0 0 1 661.5 1129 L 661.5 1113  Z " stroke-width="1" stroke-dasharray="3,1" stroke="#81d3f8" fill="none" stroke-dashoffset="0.5" />
  </g>
</svg>