<?xml version="1.0" encoding="utf-8"?>
<svg version="1.1" xmlns:xlink="http://www.w3.org/1999/xlink" width="24px" height="24px" xmlns="http://www.w3.org/2000/svg">
  <g transform="matrix(1 0 0 1 -741 -1070 )">
    <path d="M 20.72727271875 1  L 3.27272728125 1  C 2.06774237370501 1.0909091015625  1.0909091015625 2.06774237370501  1 3.27272728125  L 1 20.72727271875  C 1.0909091015625 21.932257626295  2.06774237370501 22.9090908984375  3.27272728125 23  L 20.72727271875 23  C 21.932257626295 22.9090908984375  22.9090908984375 21.932257626295  23 20.72727271875  L 23 3.27272728125  C 22.9090908984375 2.06774237370501  21.932257626295 1.0909091015625  20.72727271875 1  Z M 0 3.27272728125  C 0 1.46524991346043  1.46524991346043 0  3.27272728125 0  L 20.72727271875 0  C 22.5347500865396 0  24 1.46524991346043  24 3.27272728125  L 24 20.72727271875  C 24 22.5347500865396  22.5347500865396 24  20.72727271875 24  L 3.27272728125 24  C 1.46524991346043 24  0 22.5347500865396  0 20.72727271875  L 0 3.27272728125  Z M 11.4545454609375 8.1818181796875  C 11.4545454609375 7.8805719560373  11.6987537763498 7.636363640625  12 7.636363640625  C 12.3012462236502 7.636363640625  12.5454545390625 7.8805719560373  12.5454545390625 8.1818181796875  L 12.5454545390625 19.0909091015625  C 12.5454545390625 19.3921553252127  12.3012462236502 19.636363640625  12 19.636363640625  C 11.6987537763498 19.636363640625  11.4545454609375 19.3921553252127  11.4545454609375 19.0909091015625  L 11.4545454609375 8.1818181796875  Z M 6 4.363636359375  L 18 4.363636359375  C 18.3012462301223 4.363636359375  18.5454545507813 4.60784468003396  18.5454545507813 4.90909091015625  C 18.5454545507813 5.21033714027854  18.3012462301223 5.4545454609375  18 5.4545454609375  L 6 5.4545454609375  C 5.69875376987771 5.4545454609375  5.45454544921875 5.21033714027854  5.45454544921875 4.90909091015625  C 5.45454544921875 4.60784468003396  5.69875376987771 4.363636359375  6 4.363636359375  Z M 12 8.407636359375  L 8.0225454609375 12.3861818203125  C 7.92012367411437 12.4886036071356  7.78120992063275 12.5461435678279  7.636363640625 12.5461435678279  C 7.33473687689549 12.5461435678279  7.09022007279713 12.3016267637295  7.09022007279713 12  C 7.09022007279713 11.8551537199923  7.14776003348937 11.7162399665106  7.2501818203125 11.6138181796875  L 11.6138181796875 7.2501818203125  C 11.7161501023062 7.14759087122912  11.8550975320408 7.08993405149685  12 7.08993405149685  C 12.1449024679592 7.08993405149685  12.2838498976938 7.14759087122912  12.3861818203125 7.2501818203125  L 16.7498181796875 11.6138181796875  C 16.8522399665106 11.7162399665106  16.9097799272029 11.8551537199923  16.9097799272029 12  C 16.9097799272029 12.3016267637295  16.6652631231045 12.5461435678279  16.363636359375 12.5461435678279  C 16.2187900793672 12.5461435678279  16.0798763258856 12.4886036071356  15.9774545390625 12.3861818203125  L 12 8.407636359375  Z " fill-rule="nonzero" fill="#81d3f8" stroke="none" transform="matrix(1 0 0 1 741 1070 )" />
  </g>
</svg>