<?xml version="1.0" encoding="utf-8"?>
<svg version="1.1" xmlns:xlink="http://www.w3.org/1999/xlink" width="304px" height="201px" xmlns="http://www.w3.org/2000/svg">
  <defs>
    <filter x="384px" y="65px" width="304px" height="201px" filterUnits="userSpaceOnUse" id="filter452">
      <feOffset dx="5" dy="5" in="SourceAlpha" result="shadowOffsetInner" />
      <feGaussianBlur stdDeviation="2.5" in="shadowOffsetInner" result="shadowGaussian" />
      <feComposite in2="shadowGaussian" operator="atop" in="SourceAlpha" result="shadowComposite" />
      <feColorMatrix type="matrix" values="0 0 0 0 0.666666666666667  0 0 0 0 0.666666666666667  0 0 0 0 0.666666666666667  0 0 0 0.349019607843137 0  " in="shadowComposite" />
    </filter>
    <g id="widget453">
      <path d="M 385 76  A 10 10 0 0 1 395 66 L 667 66  A 10 10 0 0 1 677 76 L 677 245  A 10 10 0 0 1 667 255 L 395 255  A 10 10 0 0 1 385 245 L 385 76  Z " fill-rule="nonzero" fill="#ffffff" stroke="none" />
      <path d="M 384.5 76  A 10.5 10.5 0 0 1 395 65.5 L 667 65.5  A 10.5 10.5 0 0 1 677.5 76 L 677.5 245  A 10.5 10.5 0 0 1 667 255.5 L 395 255.5  A 10.5 10.5 0 0 1 384.5 245 L 384.5 76  Z " stroke-width="1" stroke="#d7d7d7" fill="none" stroke-opacity="0.658823529411765" />
    </g>
  </defs>
  <g transform="matrix(1 0 0 1 -384 -65 )">
    <use xlink:href="#widget453" filter="url(#filter452)" />
    <use xlink:href="#widget453" />
  </g>
</svg>