<?xml version="1.0" encoding="utf-8"?>
<svg version="1.1" xmlns:xlink="http://www.w3.org/1999/xlink" width="53px" height="63px" xmlns="http://www.w3.org/2000/svg">
  <g transform="matrix(1 0 0 1 -877 -720 )">
    <path d="M 16.8636363636364 33.9230769230769  L 21.6818181818182 58.1538461538462  L 25.2954545454545 41.1923076923077  L 21.6818181818182 36.3461538461538  L 16.8636363636364 33.9230769230769  Z M 27.7045454545455 41.1923076923077  L 31.3181818181818 58.1538461538462  L 36.1363636363636 33.9230769230769  L 31.3181818181818 36.3461538461538  L 27.7045454545455 41.1923076923077  Z M 37.1903409090909 20.9368990384615  C 37.2405303030303 20.7097355769231  37.2907196969697 20.3689903846154  37.3409090909091 19.9146634615385  C 37.2907196969697 19.8137019230769  37.2405303030303 19.7379807692308  37.1903409090909 19.6875  C 36.9393939393939 19.4855769230769  35.7348484848485 19.3846153846154  33.5767045454545 19.3846153846154  C 31.8200757575758 19.3846153846154  29.7246685606061 19.6243990384615  27.2904829545455 20.1039663461538  C 27.1148200757576 20.1544471153846  26.8513257575758 20.1796875  26.5 20.1796875  C 26.1486742424242 20.1796875  25.8851799242424 20.1544471153846  25.7095170454545 20.1039663461538  C 23.2753314393939 19.6243990384615  21.1799242424242 19.3846153846154  19.4232954545455 19.3846153846154  C 17.2651515151515 19.3846153846154  16.0606060606061 19.4855769230769  15.8096590909091 19.6875  C 15.7594696969697 19.7379807692308  15.7092803030303 19.8137019230769  15.6590909090909 19.9146634615385  C 15.7092803030303 20.3689903846154  15.7594696969697 20.7097355769231  15.8096590909091 20.9368990384615  C 15.8598484848485 21.0126201923077  15.9539535984848 21.0946514423077  16.0919744318182 21.1829927884615  C 16.2299952651515 21.2713341346154  16.3241003787879 21.4038461538461  16.3742897727273 21.5805288461538  C 16.4244791666667 21.6814903846154  16.518584280303 21.9402043269231  16.6566051136364 22.3566706730769  C 16.7946259469697 22.7731370192308  16.8824573863636 23.0318509615385  16.9200994318182 23.1328125  C 16.9577414772727 23.2337740384615  17.0518465909091 23.4483173076923  17.2024147727273 23.7764423076923  C 17.3529829545455 24.1045673076923  17.4596354166667 24.3191105769231  17.5223721590909 24.4200721153846  C 17.5851089015152 24.5210336538462  17.6980350378788 24.6977163461538  17.8611505681818 24.9501201923077  C 18.0242660984848 25.2025240384615  18.174834280303 25.3728966346154  18.3128551136364 25.4612379807692  C 18.4508759469697 25.5495793269231  18.6265388257576 25.6694711538462  18.83984375 25.8209134615385  C 19.0531486742424 25.9723557692308  19.2727272727273 26.0733173076923  19.4985795454545 26.1237980769231  C 19.7244318181818 26.1742788461538  19.9816524621212 26.2247596153846  20.2702414772727 26.2752403846154  C 20.5588304924242 26.3257211538461  20.866240530303 26.3509615384615  21.1924715909091 26.3509615384615  C 22.0958806818182 26.3509615384615  22.8361742424242 26.1932091346154  23.4133522727273 25.8777043269231  C 23.9905303030303 25.5621995192308  24.3983191287879 25.18359375  24.63671875 24.7418870192308  C 24.8751183712121 24.3001802884615  25.0570549242424 23.8647836538461  25.1825284090909 23.4356971153846  C 25.3080018939394 23.0066105769231  25.4522964015152 22.6343149038461  25.6154119318182 22.3188100961538  C 25.7785274621212 22.0033052884615  25.9981060606061 21.8455528846154  26.2741477272727 21.8455528846154  L 26.7258522727273 21.8455528846154  C 27.0018939393939 21.8455528846154  27.2214725378788 22.0033052884615  27.3845880681818 22.3188100961538  C 27.5477035984848 22.6343149038461  27.6919981060606 23.0066105769231  27.8174715909091 23.4356971153846  C 27.9429450757576 23.8647836538461  28.1248816287879 24.3001802884615  28.36328125 24.7418870192308  C 28.6016808712121 25.18359375  29.0094696969697 25.5621995192308  29.5866477272727 25.8777043269231  C 30.1638257575758 26.1932091346154  30.9041193181818 26.3509615384615  31.8075284090909 26.3509615384615  C 32.133759469697 26.3509615384615  32.4411695075758 26.3257211538461  32.7297585227273 26.2752403846154  C 33.0183475378788 26.2247596153846  33.2755681818182 26.1742788461538  33.5014204545455 26.1237980769231  C 33.7272727272727 26.0733173076923  33.9468513257576 25.9723557692308  34.16015625 25.8209134615385  C 34.3734611742424 25.6694711538462  34.5491240530303 25.5495793269231  34.6871448863636 25.4612379807692  C 34.825165719697 25.3728966346154  34.9757339015152 25.2025240384615  35.1388494318182 24.9501201923077  C 35.3019649621212 24.6977163461538  35.4148910984849 24.5210336538462  35.4776278409091 24.4200721153846  C 35.5403645833333 24.3191105769231  35.6470170454546 24.1045673076923  35.7975852272727 23.7764423076923  C 35.9481534090909 23.4483173076923  36.0422585227273 23.2337740384615  36.0799005681818 23.1328125  C 36.1175426136364 23.0318509615385  36.2053740530303 22.7731370192308  36.3433948863636 22.3566706730769  C 36.481415719697 21.9402043269231  36.5755208333333 21.6814903846154  36.6257102272727 21.5805288461538  C 36.6758996212121 21.4038461538461  36.7700047348485 21.2713341346154  36.9080255681818 21.1829927884615  C 37.0460464015152 21.0946514423077  37.1401515151515 21.0126201923077  37.1903409090909 20.9368990384615  Z M 52.6988636363636 47.5718149038462  C 52.8996212121212 49.3765024038462  53 51.2506009615385  53 53.1941105769231  C 53 56.2481971153846  52.0840435606061 58.6460336538462  50.2521306818182 60.3876201923077  C 48.4202178030303 62.1292067307692  45.9860321969697 63  42.9495738636364 63  L 10.0504261363636 63  C 7.0139678030303 63  4.5797821969697 62.1292067307692  2.74786931818182 60.3876201923077  C 0.915956439393939 58.6460336538462  0 56.2481971153846  0 53.1941105769231  C 0 51.6544471153846  0.0564630681818182 50.1652644230769  0.169389204545455 48.7265625  C 0.282315340909091 47.2878605769231  0.520714962121212 45.7040264423077  0.884588068181818 43.9750600961538  C 1.24846117424242 42.24609375  1.71898674242424 40.6875  2.29616477272727 39.2992788461538  C 2.8733428030303 37.9110576923077  3.67009943181818 36.6048677884615  4.68643465909091 35.3807091346154  C 5.70276988636364 34.1565504807692  6.87594696969697 33.2163461538461  8.20596590909091 32.5600961538462  L 4.81818181818182 24.2307692307692  L 12.8735795454545 24.2307692307692  C 12.3214962121212 22.6153846153846  12.0454545454545 21  12.0454545454545 19.3846153846154  C 12.0454545454545 19.0817307692308  12.0705492424242 18.6778846153846  12.1207386363636 18.1730769230769  C 7.25236742424242 17.1634615384615  4.81818181818182 15.9519230769231  4.81818181818182 14.5384615384615  C 4.81818181818182 13.0997596153846  7.453125 11.8503605769231  12.7230113636364 10.7902644230769  C 13.1496212121212 9.22536057692307  13.7958096590909 7.53425480769231  14.6615767045455 5.71694711538461  C 15.52734375 3.89963942307692  16.4119318181818 2.4609375  17.3153409090909 1.40084134615384  C 18.1183712121212 0.466947115384619  19.0719696969697 0  20.1761363636364 0  C 20.9289772727273 0  21.9829545454545 0.391225961538469  23.3380681818182 1.17367788461539  C 24.6931818181818 1.9561298076923  25.7471590909091 2.34735576923077  26.5 2.34735576923077  C 27.2528409090909 2.34735576923077  28.3068181818182 1.9561298076923  29.6619318181818 1.17367788461539  C 31.0170454545455 0.391225961538469  32.0710227272727 0  32.8238636363636 0  C 33.9280303030303 0  34.8816287878788 0.466947115384619  35.6846590909091 1.40084134615384  C 36.5880681818182 2.4609375  37.47265625 3.89963942307692  38.3384232954545 5.71694711538461  C 39.2041903409091 7.53425480769231  39.8503787878788 9.22536057692307  40.2769886363636 10.7902644230769  C 45.546875 11.8503605769231  48.1818181818182 13.0997596153846  48.1818181818182 14.5384615384615  C 48.1818181818182 15.9519230769231  45.7476325757576 17.1634615384615  40.8792613636364 18.1730769230769  C 41.0549242424242 20.2175480769231  40.8039772727273 22.2367788461538  40.1264204545455 24.2307692307692  L 48.1818181818182 24.2307692307692  L 45.0951704545455 32.7493990384615  C 46.6761363636364 33.5823317307692  48.0249763257576 34.8001802884615  49.1416903409091 36.4029447115385  C 50.2584043560606 38.0057091346154  51.0802556818182 39.8167067307692  51.6072443181818 41.8359375  C 52.1342329545455 43.8551682692308  52.4981060606061 45.7671274038461  52.6988636363636 47.5718149038462  Z " fill-rule="nonzero" fill="#c280ff" stroke="none" transform="matrix(1 0 0 1 877 720 )" />
  </g>
</svg>