<?xml version="1.0" encoding="utf-8"?>
<svg version="1.1" xmlns:xlink="http://www.w3.org/1999/xlink" width="20px" height="20px" viewBox="277 1242  20 20" xmlns="http://www.w3.org/2000/svg">
  <path d="M 287 1242  C 292.6 1242  297 1246.4  297 1252  C 297 1257.6  292.6 1262  287 1262  C 281.4 1262  277 1257.6  277 1252  C 277 1246.4  281.4 1242  287 1242  Z " fill-rule="nonzero" fill="#ffffff" stroke="none" />
  <path d="M 287 1242.5  C 292.32 1242.5  296.5 1246.68  296.5 1252  C 296.5 1257.32  292.32 1261.5  287 1261.5  C 281.68 1261.5  277.5 1257.32  277.5 1252  C 277.5 1246.68  281.68 1242.5  287 1242.5  Z " stroke-width="1" stroke="#04f21c" fill="none" />
  <path d="M 287 1257  C 284.2 1257  282 1254.8  282 1252  C 282 1249.2  284.2 1247  287 1247  C 289.8 1247  292 1249.2  292 1252  C 292 1254.8  289.8 1257  287 1257  " fill-rule="nonzero" fill="#04f21c" stroke="none" />
</svg>