<?xml version="1.0" encoding="utf-8"?>
<svg version="1.1" xmlns:xlink="http://www.w3.org/1999/xlink" width="20px" height="20px" viewBox="277 1148  20 20" xmlns="http://www.w3.org/2000/svg">
  <path d="M 287 1148  C 292.6 1148  297 1152.4  297 1158  C 297 1163.6  292.6 1168  287 1168  C 281.4 1168  277 1163.6  277 1158  C 277 1152.4  281.4 1148  287 1148  Z " fill-rule="nonzero" fill="#ffffff" stroke="none" />
  <path d="M 287 1148.5  C 292.32 1148.5  296.5 1152.68  296.5 1158  C 296.5 1163.32  292.32 1167.5  287 1167.5  C 281.68 1167.5  277.5 1163.32  277.5 1158  C 277.5 1152.68  281.68 1148.5  287 1148.5  Z " stroke-width="1" stroke="#797979" fill="none" />
  <path d="M 287 1163  C 284.2 1163  282 1160.8  282 1158  C 282 1155.2  284.2 1153  287 1153  C 289.8 1153  292 1155.2  292 1158  C 292 1160.8  289.8 1163  287 1163  " fill-rule="nonzero" fill="#797979" stroke="none" />
</svg>