<?xml version="1.0" encoding="utf-8"?>
<svg version="1.1" xmlns:xlink="http://www.w3.org/1999/xlink" width="68px" height="68px" xmlns="http://www.w3.org/2000/svg">
  <g transform="matrix(1 0 0 1 303 -350 )">
    <path d="M 67.0957446808511 34  C 67.0957446808511 32.4770786236702  65.8606873337766 31.2420212765957  64.3377659574468 32  L 36 32  L 36 3.66223404255319  C 36.7579787234043 2.1393126662234  35.5229213763298 0.904255319148936  34 0.904255319148936  C 32.4770786236702 0.904255319148936  31.2420212765957 2.13931266622341  32 3.66223404255319  L 32 32  L 3.66223404255319 32  C 2.1393126662234 31.2420212765957  0.904255319148936 32.4770786236702  0.904255319148936 34  C 0.904255319148936 35.5229213763298  2.13931266622341 36.7579787234043  3.66223404255319 36  L 32 36  L 32 64.3377659574468  C 31.2420212765957 65.8606873337766  32.4770786236702 67.0957446808511  34 67.0957446808511  C 35.5229213763298 67.0957446808511  36.7579787234043 65.8606873337766  36 64.3377659574468  L 36 36  L 64.3377659574468 36  C 65.8606873337766 36.7579787234043  67.0957446808511 35.5229213763298  67.0957446808511 34  Z " fill-rule="nonzero" fill="#02a7f0" stroke="none" transform="matrix(1 0 0 1 -303 350 )" />
  </g>
</svg>