<?xml version="1.0" encoding="utf-8"?>
<svg version="1.1" xmlns:xlink="http://www.w3.org/1999/xlink" width="5px" height="27px" xmlns="http://www.w3.org/2000/svg">
  <g transform="matrix(1 0 0 1 -1429 -24 )">
    <path d="M 0.0394850240384619 2.96999140429687  L 1.02409754807692 17.5499491904297  C 1.15480645036247 18.331974820035  1.77617589485303 18.8999453552024  2.50101635817308 18.8999453552024  C 3.22585682149312 18.8999453552024  3.84722626598369 18.3319748200349  3.97793516826923 17.5499491904297  L 4.96254769230769 2.6999921953125  C 4.95969714417946 1.21012472255099  3.85930008200479 0.00312669497815267  2.50101634615385 0  C 1.12834581031145 0.0371298438315486  0.0331978455747808 1.26835850882282  0.0331978455747808 2.77446425117479  C 0.0331978455747808 2.83970076400985  0.0352948744348106 2.90491699500836  0.0394850240384619 2.96999140429687  Z M 2.64128237373958 21.5952932776144  C 2.59449508420163 21.5952932776144  2.54771845013217 21.5968420511716  2.50101634615385 21.5999374833984  C 1.14155012244261 21.5999374833984  0.0394850000000018 22.8087651645777  0.0394850000000018 24.2999296787109  C 0.0394850000000018 25.7910941928442  1.14155012244261 26.9999218740234  2.50101634615385 26.9999218740234  C 3.86048256986508 26.9999218740234  4.96254769230769 25.7910941928442  4.96254769230769 24.2999296787109  C 4.96536973786948 24.2487032903024  4.96678172470111 24.197395178107  4.96678172470111 24.1460753782004  C 4.96678172470111 22.7373173239054  3.92562020101704 21.5952932776144  2.64128237373958 21.5952932776144  Z " fill-rule="nonzero" fill="#d9001b" stroke="none" transform="matrix(1 0 0 1 1429 24 )" />
  </g>
</svg>