<?xml version="1.0" encoding="utf-8"?>
<svg version="1.1" xmlns:xlink="http://www.w3.org/1999/xlink" width="18px" height="19px" xmlns="http://www.w3.org/2000/svg">
  <g transform="matrix(1 0 0 1 -1430 -72 )">
    <path d="M 6.15529411764706 17.5234285714286  L 6.15529411764706 18.9710476190476  L 0.155294117647059 18.9710476190476  L 0.155294117647059 0.152000000000001  L 17.8023529411765 0.152000000000001  L 17.8023529411765 9.56152380952381  L 16.3905882352941 9.56152380952381  L 16.3905882352941 1.59961904761905  L 1.56705882352941 1.59961904761905  L 1.56705882352941 17.5234285714286  L 6.15529411764706 17.5234285714286  Z M 4.39058823529412 6.66628571428571  L 4.39058823529412 5.21866666666667  L 13.5670588235294 5.21866666666667  L 13.5670588235294 6.66628571428571  L 4.39058823529412 6.66628571428571  Z M 4.41176470588235 10.6472380952381  L 4.41176470588235 9.19961904761905  L 9.35294117647059 9.19961904761905  L 9.35294117647059 10.6472380952381  L 4.41176470588235 10.6472380952381  Z M 10.0976470588235 18.9710476190476  L 10.0976470588235 17.5234285714286  L 17.8623529411765 17.5234285714286  L 17.8623529411765 18.9710476190476  L 10.0976470588235 18.9710476190476  Z M 12.9211764705882 17.8853333333333  L 12.9211764705882 16.4377142857143  L 15.0388235294118 16.4377142857143  L 15.0388235294118 17.8853333333333  L 12.9211764705882 17.8853333333333  Z M 16.4505882352941 14.4472380952381  C 16.4505882352941 15.8463594614761  15.3444682054643 16.9805714285714  13.98 16.9805714285714  C 12.6155317945357 16.9805714285714  11.5094117647059 15.8463594614761  11.5094117647059 14.4472380952381  C 11.5094117647059 13.0481167290001  12.6155317945357 11.9139047619048  13.98 11.9139047619048  C 15.3444682054643 11.9139047619048  16.4505882352941 13.0481167290001  16.4505882352941 14.4472380952381  Z M 15.0388235294118 14.4472380952381  C 15.0388235294118 13.8476146525647  14.5647720880561 13.3615238095238  13.98 13.3615238095238  C 13.3952279119439 13.3615238095238  12.9211764705882 13.8476146525647  12.9211764705882 14.4472380952381  C 12.9211764705882 15.0468615379115  13.3952279119439 15.5329523809524  13.98 15.5329523809524  C 14.5647720880561 15.5329523809524  15.0388235294118 15.0468615379115  15.0388235294118 14.4472380952381  Z " fill-rule="nonzero" fill="#00bfbf" stroke="none" transform="matrix(1 0 0 1 1430 72 )" />
  </g>
</svg>