<?xml version="1.0" encoding="utf-8"?>
<svg version="1.1" xmlns:xlink="http://www.w3.org/1999/xlink" width="141px" height="34px" xmlns="http://www.w3.org/2000/svg">
  <g transform="matrix(1 0 0 1 -1256 -9 )">
    <path d="M 1257 14  A 4 4 0 0 1 1261 10 L 1392 10  A 4 4 0 0 1 1396 14 L 1396 38  A 4 4 0 0 1 1392 42 L 1261 42  A 4 4 0 0 1 1257 38 L 1257 14  Z " fill-rule="nonzero" fill="#ffffff" stroke="none" />
    <path d="M 1256.5 14  A 4.5 4.5 0 0 1 1261 9.5 L 1392 9.5  A 4.5 4.5 0 0 1 1396.5 14 L 1396.5 38  A 4.5 4.5 0 0 1 1392 42.5 L 1261 42.5  A 4.5 4.5 0 0 1 1256.5 38 L 1256.5 14  Z " stroke-width="1" stroke-dasharray="9,4" stroke="#d9001b" fill="none" stroke-dashoffset="0.5" />
  </g>
</svg>