<?xml version="1.0" encoding="utf-8"?>
<svg version="1.1" xmlns:xlink="http://www.w3.org/1999/xlink" width="15px" height="15px" xmlns="http://www.w3.org/2000/svg">
  <g transform="matrix(1 0 0 1 -1070 -130 )">
    <path d="M 14.7075001025391 13.2955005615234  L 8.91250202636719 7.5005025  L 14.7075001025391 1.70450443359375  C 14.8965000439453 1.5155044921875  15 1.26450458496094  15 0.997004663085937  C 15 0.731004755859375  14.8960000341797 0.480504829101563  14.7080000976562 0.29300490234375  C 14.5216252805198 0.105009096544094  14.2677223115059 -0.000513699338911566  14.0030003320313 0  C 13.7350004150391 0  13.4840005078125 0.1040049609375  13.2955005615234 0.292504907226562  L 7.50000250488281 6.08750296875  L 1.70450443359375 0.292504907226562  C 1.51767623248029 0.104634717172033  1.26345654929702 -0.000690012514630483  0.998504663085938 0  C 0.732004760742187 0  0.481504833984375 0.1040049609375  0.292504907226562 0.292504907226562  C 0.104645272264921 0.478930601068861  -0.000701771365655616 0.732843980164411  0 0.997504672851562  C 0 1.26450458496094  0.103504965820312 1.51550450683594  0.292504907226562 1.70450443359375  L 6.08850297363281 7.5005025  L 0.292504907226562 13.2950005664062  C 0.104511266804907 13.4819507713887  -0.000823717881490328 13.7363752649087  0 14.0015003320312  C 0 14.2680002490234  0.1040049609375 14.51900015625  0.292504907226562 14.7075001025391  C 0.481504848632813 14.8960000341797  0.732004760742187 15  0.998504663085938 15  C 1.26500458007813 15  1.51600448730469 14.8960000341797  1.70450443359375 14.7075001025391  L 7.5005025 8.91250202636719  L 13.2955005615234 14.7075001025391  C 13.4840004931641 14.8960000341797  13.7355004101563 15  14.0020003271484 15  C 14.2690002392578 15  14.51900015625 14.8960000341797  14.7070000927734 14.7080000976562  C 15.0963832662407 14.3176727449124  15.0963832662407 13.6858279142672  14.7070000927734 13.2955005615234  Z " fill-rule="nonzero" fill="#000000" stroke="none" transform="matrix(1 0 0 1 1070 130 )" />
  </g>
</svg>