<?xml version="1.0" encoding="utf-8"?>
<svg version="1.1" xmlns:xlink="http://www.w3.org/1999/xlink" width="14px" height="15px" xmlns="http://www.w3.org/2000/svg">
  <g transform="matrix(1 0 0 1 -38 -85 )">
    <path d="M 4.78745098039216 13.8342857142857  L 4.78745098039216 14.9771428571429  L 0.120784313725491 14.9771428571429  L 0.120784313725491 0.12  L 13.8462745098039 0.12  L 13.8462745098039 7.54857142857143  L 12.7482352941176 7.54857142857143  L 12.7482352941176 1.26285714285714  L 1.21882352941176 1.26285714285714  L 1.21882352941176 13.8342857142857  L 4.78745098039216 13.8342857142857  Z M 3.41490196078431 5.26285714285714  L 3.41490196078431 4.12  L 10.5521568627451 4.12  L 10.5521568627451 5.26285714285714  L 3.41490196078431 5.26285714285714  Z M 3.43137254901961 8.40571428571429  L 3.43137254901961 7.26285714285714  L 7.27450980392157 7.26285714285714  L 7.27450980392157 8.40571428571429  L 3.43137254901961 8.40571428571429  Z M 7.85372549019608 14.9771428571429  L 7.85372549019608 13.8342857142857  L 13.8929411764706 13.8342857142857  L 13.8929411764706 14.9771428571429  L 7.85372549019608 14.9771428571429  Z M 10.0498039215686 14.12  L 10.0498039215686 12.9771428571429  L 11.696862745098 12.9771428571429  L 11.696862745098 14.12  L 10.0498039215686 14.12  Z M 12.7949019607843 11.4057142857143  C 12.7949019607843 12.5102837853759  11.9345863820278 13.4057142857143  10.8733333333333 13.4057142857143  C 9.81208028463887 13.4057142857143  8.95176470588235 12.5102837853759  8.95176470588235 11.4057142857143  C 8.95176470588235 10.3011447860527  9.81208028463887 9.40571428571428  10.8733333333333 9.40571428571428  C 11.9345863820278 9.40571428571428  12.7949019607843 10.3011447860527  12.7949019607843 11.4057142857143  Z M 11.696862745098 11.4057142857143  C 11.696862745098 10.9323273572879  11.3281560684881 10.5485714285714  10.8733333333333 10.5485714285714  C 10.4185105981786 10.5485714285714  10.0498039215686 10.9323273572879  10.0498039215686 11.4057142857143  C 10.0498039215686 11.8791012141407  10.4185105981786 12.2628571428571  10.8733333333333 12.2628571428571  C 11.3281560684881 12.2628571428571  11.696862745098 11.8791012141407  11.696862745098 11.4057142857143  Z " fill-rule="nonzero" fill="#ffffff" stroke="none" transform="matrix(1 0 0 1 38 85 )" />
  </g>
</svg>