<?xml version="1.0" encoding="utf-8"?>
<svg version="1.1" xmlns:xlink="http://www.w3.org/1999/xlink" width="14px" height="15px" xmlns="http://www.w3.org/2000/svg">
  <g transform="matrix(1 0 0 1 -135 -85 )">
    <path d="M 5.02572492592593 8.45544252212389  C 4.7462296875 8.45544252212389  4.51962894444444 8.68750324115044  4.51962894444444 8.97369504424779  L 4.51962894444444 9.47895813053097  C 4.51962894444444 9.76516690818584  4.74624626388889 9.99721065265487  5.02572492592593 9.99721065265487  C 5.30522016435185 9.99721065265487  5.53182090740741 9.76514993362832  5.53182090740741 9.47895813053097  L 5.53182090740741 8.97369504424779  C 5.53182090740741 8.68748626659292  5.30520358796296 8.45544252212389  5.02572492592593 8.45544252212389  Z M 8.97263352546296 8.45544252212389  C 8.69313830324074 8.45544252212389  8.46653754398148 8.68750324115044  8.46653754398148 8.97369504424779  L 8.46653754398148 9.47895813053097  C 8.46653754398148 9.76516690818584  8.69315486342593 9.99721065265487  8.97263352546296 9.99721065265487  C 9.2521121875 9.99721065265487  9.47872950694444 9.76514993362832  9.47872949074074 9.47895813053097  L 9.47872949074074 8.97369504424779  C 9.47872949074074 8.68748626659292  9.25212874768518 8.45544252212389  8.97263352546296 8.45544252212389  Z M 6.47949482638889 10.8425249668142  C 6.33080985185185 10.60338375  6.02158425231482 10.5307618307522  5.78549897916667 10.6806410840708  C 5.54810378240741 10.8317089214602  5.47511267592593 11.1512317533186  5.62265353935185 11.3943462278761  C 5.80115177314815 11.6885694026549  6.29086537268519 12.186497289823  6.99432917361111 12.186497289823  C 7.69426113425926 12.186497289823  8.19006009953704 11.6923558573009  8.3726041875 11.4003400387168  C 8.52195241203704 11.1615384126106  8.45415127083333 10.8471603982301  8.22292433796296 10.6911175221239  C 7.99169740509259 10.5352444413717  7.67885706712963 10.6013631471239  7.52357272916667 10.8361236338496  C 7.5215166412037 10.8392478816372  7.31212734259259 11.1499922455752  6.99432917361111 11.1499922455752  C 6.68599895833333 11.1499922455752  6.49300861805556 10.8633589712389  6.47949482638889 10.8425249668142  Z M 13.9158988726852 2.24529265486726  C 13.9158988726852 1.95908389380531  13.6892815532407 1.72704013274336  13.4098028912037 1.72704013274336  L 10.0357965393519 1.72704013274336  L 10.0357965393519 1.28098503318584  C 10.0357965393519 0.614856852876106  9.5060555625 0.0729007466814161  8.85488934490741 0.0729007466814161  L 5.14348568287037 0.0729007466814161  C 4.49231946527778 0.0729007466814161  3.96257848842593 0.614856836283186  3.96257848842593 1.28098503318584  L 3.96257848842593 1.72704013274336  L 0.588572136574074 1.72704013274336  C 0.309076898148148 1.72704013274336  0.0824761550925926 1.95908387721239  0.0824761550925926 2.24529265486726  C 0.0824761550925926 2.53150143252212  0.309076898148148 2.76354517699115  0.588572136574074 3  L 13.4098028912037 3  C 13.6892981296296 2.76354516039823  13.9158988726852 2.5315014159292  13.9158988726852 2.24529265486726  Z M 9.023588 1.72704013274336  L 4.97477043518519 1.72704013274336  L 4.97477043518519 1.28098503318584  C 4.97477043518519 1.18793661504425  5.05203953009259 1.1094057909292  5.14346909027778 1.1094057909292  L 8.85487276851852 1.1094057909292  C 8.94630232870371 1.1094057909292  9.02357142361111 1.18793661504425  9.02357142361111 1.28098503318584  L 9.02357142361111 1.72704013274336  Z M 12.5662930231481 3.89124784845133  C 12.5662930231481 3.60503907079646  12.3396922800926 3.37299532632743  12.0601970416667 3.37299532632743  C 11.7807018032407 3.37299532632743  11.5541010601852 3.60503907079646  11.5541010601852 3.89124784845133  L 11.5541010601852 12.6867004480088  C 11.5541010601852 13.3518947621681  11.0243600833333 13.8931037389381  10.3731938657407 13.893103755531  L 3.62518116203704 13.893103755531  C 2.97401494444444 13.893103755531  2.44427396759259 13.3518947621681  2.44427396759259 12.6867004480088  L 2.44427396759259 3.89124784845133  C 2.44427396759259 3.60503907079646  2.21767322453704 3.37299532632743  1.93817798611111 3.37299532632743  C 1.65868274768518 3.37299532632743  1.43208200462963 3.60503907079646  1.43208200462963 3.89124784845133  L 1.43208200462963 12.6867004480088  C 1.43208200462963 13.923463340708  2.41587010648148 14.9296087831858  3.62518116203704 14.9296087831858  L 10.3731938657407 14.9296087831858  C 11.5825214976852 14.9296087831858  12.5662930231481 13.923463340708  12.5662930231481 12.6867004480088  L 12.5662930231481 3.89124784845133  Z M 4.97477043518518 3.89124784845133  C 4.97477043518518 3.60503907079646  4.74816969212963 3.37299532632743  4.4686744537037 3.37299532632743  C 4.18917921527778 3.37299532632743  3.96257847222222 3.60503907079646  3.96257848842593 3.89124784845133  L 3.96257848842593 6.67047502765487  C 3.96257848842593 6.95668380530974  4.18919580787037 7.18872754977876  4.4686744537037 7.18872754977876  C 4.74816969212963 7.18872754977876  4.97477043518518 6.95666683075221  4.97477043518518 6.67047502765487  L 4.97477043518518 3.89124784845133  Z M 9.52970057407408 7.18872754977876  C 9.80917923611111 7.18872754977876  10.0357965555556 6.95668380530974  10.0357965393519 6.67047502765487  L 10.0357965393519 3.89124784845133  C 10.0357965393519 3.60503907079646  9.8091957962963 3.37299532632743  9.52970057407408 3.37299532632743  C 9.25020535185185 3.37299532632743  9.02360459259259 3.60503907079646  9.02360459259259 3.89124784845133  L 9.02360459259259 6.67047502765487  C 9.02360459259259 6.95668380530974  9.25022191203704 7.18872754977876  9.52970057407408 7.18872754977876  Z M 6.49309153240741 6.67047502765487  C 6.49307495601852 6.95668380530974  6.71969227546296 7.18872754977876  6.99918751388889 7.18872754977876  C 7.27868275231482 7.18872754977876  7.50528349537037 6.95666683075221  7.50528349537037 6.67047502765487  L 7.50528349537037 3.89124784845133  C 7.50528349537037 3.60503907079646  7.27866617592593 3.37299532632743  6.99918751388889 3.37299532632743  C 6.71970885185185 3.37299532632743  6.49309153240741 3.60503907079646  6.49309153240741 3.89124784845133  L 6.49309153240741 6.67047502765487  Z " fill-rule="nonzero" fill="#ffffff" stroke="none" transform="matrix(1 0 0 1 135 85 )" />
  </g>
</svg>