<?xml version="1.0" encoding="utf-8"?>
<svg version="1.1" xmlns:xlink="http://www.w3.org/1999/xlink" width="13px" height="13px" xmlns="http://www.w3.org/2000/svg">
  <g transform="matrix(1 0 0 1 -137 -564 )">
    <path d="M 143.5 564  C 147.14 564  150 566.86  150 570.5  C 150 574.14  147.14 577  143.5 577  C 139.86 577  137 574.14  137 570.5  C 137 566.86  139.86 564  143.5 564  Z " fill-rule="nonzero" fill="#02a7f0" stroke="none" />
    <path d="M 143.5 564.5  C 146.86 564.5  149.5 567.14  149.5 570.5  C 149.5 573.86  146.86 576.5  143.5 576.5  C 140.14 576.5  137.5 573.86  137.5 570.5  C 137.5 567.14  140.14 564.5  143.5 564.5  Z " stroke-width="1" stroke="#d7d7d7" fill="none" />
  </g>
</svg>