<?xml version="1.0" encoding="utf-8"?>
<svg version="1.1" xmlns:xlink="http://www.w3.org/1999/xlink" width="13px" height="13px" xmlns="http://www.w3.org/2000/svg">
  <g transform="matrix(1 0 0 1 -173 -564 )">
    <path d="M 179.5 564  C 183.14 564  186 566.86  186 570.5  C 186 574.14  183.14 577  179.5 577  C 175.86 577  173 574.14  173 570.5  C 173 566.86  175.86 564  179.5 564  Z " fill-rule="nonzero" fill="#ffffff" stroke="none" />
    <path d="M 179.5 564.5  C 182.86 564.5  185.5 567.14  185.5 570.5  C 185.5 573.86  182.86 576.5  179.5 576.5  C 176.14 576.5  173.5 573.86  173.5 570.5  C 173.5 567.14  176.14 564.5  179.5 564.5  Z " stroke-width="1" stroke="#d7d7d7" fill="none" />
  </g>
</svg>