<?xml version="1.0" encoding="utf-8"?>
<svg version="1.1" xmlns:xlink="http://www.w3.org/1999/xlink" width="17px" height="17px" xmlns="http://www.w3.org/2000/svg">
  <g transform="matrix(1 0 0 1 -37 -824 )">
    <path d="M 7.08333333333333 13.1705729166667  C 7.27517361111111 13.1705729166667  7.44118923611111 13.1004774305556  7.58138020833333 12.9602864583333  L 14.376953125 6.16471354166667  C 14.5171440972222 6.02452256944444  14.5872395833333 5.85850694444444  14.5872395833333 5.66666666666667  C 14.5872395833333 5.47482638888889  14.5171440972222 5.30881076388889  14.376953125 5.16861979166667  L 13.248046875 4.03971354166667  C 13.1078559027778 3.89952256944444  12.9418402777778 3.82942708333333  12.75 3.82942708333333  C 12.5581597222222 3.82942708333333  12.3921440972222 3.89952256944444  12.251953125 4.03971354166667  L 7.08333333333333 9.20833333333333  L 4.748046875 6.873046875  C 4.60785590277778 6.73285590277778  4.44184027777778 6.66276041666667  4.25 6.66276041666667  C 4.05815972222222 6.66276041666667  3.89214409722222 6.73285590277778  3.751953125 6.873046875  L 2.623046875 8.001953125  C 2.48285590277778 8.14214409722222  2.41276041666667 8.30815972222222  2.41276041666667 8.5  C 2.41276041666667 8.69184027777778  2.48285590277778 8.85785590277778  2.623046875 8.998046875  L 6.58528645833333 12.9602864583333  C 6.72547743055556 13.1004774305556  6.89149305555556 13.1705729166667  7.08333333333333 13.1705729166667  Z M 16.0647786458333 0.935221354166667  C 16.6882595486111 1.55870225694444  17 2.30946180555555  17 3.1875  L 17 13.8125  C 17 14.6905381944444  16.6882595486111 15.4412977430556  16.0647786458333 16.0647786458333  C 15.4412977430556 16.6882595486111  14.6905381944444 17  13.8125 17  L 3.1875 17  C 2.30946180555556 17  1.55870225694444 16.6882595486111  0.935221354166667 16.0647786458333  C 0.311740451388889 15.4412977430556  0 14.6905381944444  0 13.8125  L 0 3.1875  C 0 2.30946180555555  0.311740451388889 1.55870225694444  0.935221354166667 0.935221354166667  C 1.55870225694444 0.311740451388888  2.30946180555556 0  3.1875 0  L 13.8125 0  C 14.6905381944444 0  15.4412977430556 0.311740451388888  16.0647786458333 0.935221354166667  Z " fill-rule="nonzero" fill="#555555" stroke="none" transform="matrix(1 0 0 1 37 824 )" />
  </g>
</svg>