<?xml version="1.0" encoding="utf-8"?>
<svg version="1.1" xmlns:xlink="http://www.w3.org/1999/xlink" width="18px" height="18px" xmlns="http://www.w3.org/2000/svg">
  <g transform="matrix(1 0 0 1 -151 -340 )">
    <path d="M 17.30628 5.56326  C 16.8536362988193 4.47234678456802  16.191184272403 3.48093155190231  15.35652 2.64528  C 14.5208344757062 1.81061503228781  13.5293897565976 1.14816373553032  12.43845 0.69552  C 11.3469783702443 0.244181484701064  10.1775080495339 0.011541134329389  8.9964 0.0108  C 7.81526211930557 0.0115340253799912  6.6457609856164 0.244174422417778  5.55426 0.69552  C 4.46334789186536 1.14816577126433  3.47193304069002 1.81061754277327  2.63628 2.64528  C 1.80162298808606 3.48093750685802  1.1391719812523 4.47235121363259  0.68652 5.56326  C 0.235162867082834 6.65478898000494  0.00252224438149946 7.82432182654252  0.0018 9.00549  C 0.00254580605892125 10.1865975878886  0.235185977439499 11.3560670088206  0.68652 12.44754  C 1.13916991130012 13.5384498936024  1.80162117301778 14.5298639818321  2.63628 15.36552  C 3.47195601804366 16.2002190860119  4.46340166345724 16.8627015801638  5.55435 17.31537  C 6.64583398738923 17.7666574619656  7.81530003392525 17.9992663838116  8.9964 18  C 10.17369 18  11.35071 17.76591  12.43845 17.31537  C 13.5293640444463 16.8626871245304  14.5207775331381 16.2002056849983  15.35643 15.36552  C 16.1910888269822 14.5298639818321  16.8535400886999 13.5384498936024  17.30619 12.44754  C 17.7575240225605 11.3560670088206  17.9901641939411 10.1865975878886  17.99091 9.00549  C 17.99091 7.82802  17.75682 6.65109  17.30619 5.56326  Z M 8.51958 9.9666  C 8.89875 14.34033  10.134 14.20947  10.66482 11.04633  L 11.52081 10.83906  C 10.57824 16.91442  6.78591 16.44534  6.34158 10.09746  C 1.97496 9.9774  1.33569 6.61806  6.64497 4.50207  L 6.82911 4.96017  C 4.05531 6.14907  3.83868 7.81785  6.37416 8.11233  C 7.04592 3.58587  9.2997 2.53881  10.81656 5.4837  L 10.37241 5.61456  C 9.44055 4.88385  8.84457 6.1272  8.60616 8.02503  C 12.16017 7.1307  14.0238 4.88394  11.36916 4.34943  L 11.21751 3.69495  C 16.99272 4.1967  15.29154 8.45046  8.51949 9.9666  Z " fill-rule="nonzero" fill="#aaaaaa" stroke="none" transform="matrix(1 0 0 1 151 340 )" />
  </g>
</svg>