<?xml version="1.0" encoding="utf-8"?>
<svg version="1.1" xmlns:xlink="http://www.w3.org/1999/xlink" width="205px" height="175px" xmlns="http://www.w3.org/2000/svg">
  <g>
    <path d="M 0 0  L 205 0  L 205 175  L 0 175  L 0 0  " fill-rule="nonzero" fill="#cccccc" stroke="none" />
    <path d="M 12 12  L 193 12  L 193 163  L 12 163  L 12 12  " fill-rule="nonzero" fill="#ffffff" stroke="none" />
    <path d="M 119.725 52.5  C 112.375 52.5  106.6 46.725  106.6 39.375  C 106.6 32.025  112.375 26.25  119.725 26.25  C 127.075 26.25  132.85 32.025  132.85 39.375  C 132.85 46.725  127.075 52.5  119.725 52.5  " fill-rule="nonzero" fill="#cccccc" stroke="none" />
    <path d="M 17 159  L 17 80.9  L 60 45.4  L 120.2 86.2682926829268  L 154.6 66.7  L 189 86.2682926829268  L 189 159  L 17 159  " fill-rule="nonzero" fill="#169bd5" stroke="none" />
  </g>
</svg>