<?xml version="1.0" encoding="utf-8"?>
<svg version="1.1" xmlns:xlink="http://www.w3.org/1999/xlink" width="265px" height="327px" xmlns="http://www.w3.org/2000/svg">
  <defs>
    <filter x="229px" y="260px" width="265px" height="327px" filterUnits="userSpaceOnUse" id="filter408">
      <feOffset dx="0" dy="0" in="SourceAlpha" result="shadowOffsetInner" />
      <feGaussianBlur stdDeviation="5" in="shadowOffsetInner" result="shadowGaussian" />
      <feComposite in2="shadowGaussian" operator="atop" in="SourceAlpha" result="shadowComposite" />
      <feColorMatrix type="matrix" values="0 0 0 0 0  0 0 0 0 0  0 0 0 0 0  0 0 0 0.349019607843137 0  " in="shadowComposite" />
    </filter>
    <g id="widget409">
      <path d="M 241.5 273  A 0.5 0.5 0 0 1 242 272.5 L 481 272.5  A 0.5 0.5 0 0 1 481.5 273 L 481.5 574  A 0.5 0.5 0 0 1 481 574.5 L 242 574.5  A 0.5 0.5 0 0 1 241.5 574 L 241.5 273  Z " fill-rule="nonzero" fill="#ffffff" stroke="none" fill-opacity="0" />
      <path d="M 240.5 273  A 1.5 1.5 0 0 1 242 271.5 L 481 271.5  A 1.5 1.5 0 0 1 482.5 273 L 482.5 574  A 1.5 1.5 0 0 1 481 575.5 L 242 575.5  A 1.5 1.5 0 0 1 240.5 574 L 240.5 273  Z " stroke-width="3" stroke="#027db4" fill="none" />
    </g>
  </defs>
  <g transform="matrix(1 0 0 1 -229 -260 )">
    <use xlink:href="#widget409" filter="url(#filter408)" />
    <use xlink:href="#widget409" />
  </g>
</svg>