<?xml version="1.0" encoding="utf-8"?>
<svg version="1.1" xmlns:xlink="http://www.w3.org/1999/xlink" width="15px" height="6px" xmlns="http://www.w3.org/2000/svg">
  <g transform="matrix(1 0 0 1 -220 -349 )">
    <path d="M 8.50000000488281 3.19619048333333  C 8.17857143554687 3.39936508333333  7.85714286621094 3.48063493333333  7.5 3.48063491666667  C 7.1428571484375 3.48063491666667  6.82142856445313 3.39936508333333  6.49999999511719 3.19619048333333  L 1.1428571484375 0.0266666666666652  L 0.3928571484375 0.473650799999998  C -0.107142846679688 0.758095249999999  -0.107142846679688 1.61142858333333  0.3928571484375 1.89587301666666  L 7.00000000488281 5.83746031666666  C 7.1428571484375 5.91873015  7.32142857421875 5.95936508333333  7.5 5.95936508333333  C 7.67857142578125 5.95936508333333  7.8571428515625 5.91873016666667  7.99999999511719 5.83746031666666  L 14.6071428515625 1.89587301666666  C 15.1071428466797 1.61142856666666  15.1071428466797 0.758095233333332  14.6071428515625 0.473650799999998  L 13.8571428515625 0.0266666666666652  L 8.50000000488281 3.19619048333333  Z " fill-rule="nonzero" fill="#02a7f0" stroke="none" transform="matrix(1 0 0 1 220 349 )" />
  </g>
</svg>