<?xml version="1.0" encoding="utf-8"?>
<svg version="1.1" xmlns:xlink="http://www.w3.org/1999/xlink" width="7px" height="7px" xmlns="http://www.w3.org/2000/svg">
  <g transform="matrix(1 0 0 1 -155 -345 )">
    <path d="M 4.97454185295861 0.893917945913462  C 4.97454185295861 0.998042337533074  5.0159380628404 1.09789502314013  5.08961026201923 1.17147692307692  L 5.83685127644231 1.91871795432692  C 5.91043317637911 1.99239015350576  6.01028586198616 2.03378636338755  6.11441025360577 2.03378636338755  C 6.21853464522538 2.03378636338755  6.31838733083243 1.99239015350576  6.39196923076923 1.91871795432692  L 6.84341538461539 1.46727180048077  C 6.91708758379422 1.39368990054397  6.95848379367601 1.29383721493692  6.95848379367601 1.18971282331731  C 6.95848379367601 1.0855884316977  6.91708758379422 0.985735746090644  6.84341538461538 0.912153846153846  L 6.09617435336538 0.164912814903847  C 6.0225924541083 0.0912406208773969  5.92273977210915 0.0498444142670087  5.81861538461539 0.0498444142670087  C 5.71449099712162 0.0498444142670087  5.61463831512247 0.0912406208773959  5.54105641586538 0.164912814903846  L 5.08961026201923 0.61635896875  C 5.0159380628404 0.689940868686797  4.97454185295861 0.789793554293848  4.97454185295861 0.893917945913462  Z M 0.227984953768714 6.88730406158649  C 0.236277936079603 6.88730406158649  0.244546535334945 6.88640602175846  0.252646153846154 6.88462564663462  L 1.17449230769231 6.68245127644231  C 1.22723186405489 6.67091841835228  1.26482432286287 6.62421708106007  1.26482432286287 6.57023127161865  C 1.26482432286287 6.53971028360129  1.25267810558062 6.51044401702562  1.23106666105769 6.48889230769231  L 0.515702569711539 5.77352819951923  C 0.494161418689322 5.75199675665958  0.464951174405686 5.73990133378955  0.434494250414903 5.73990133378955  C 0.380778975502662 5.73990133378955  0.334235569056499 5.77712612456058  0.32243076923077 5.82952819951923  L 0.115948723557692 6.74706666105769  C 0.114064212575664 6.75539027673475  0.113113153287944 6.76389797967255  0.113113153287944 6.77243226110573  C 0.113113153287944 6.83587420469686  0.164543010177579 6.88730406158649  0.227984953768714 6.88730406158649  Z M 1.31377435336538 4.39219487740385  C 1.16066689755362 4.5455626862806  1.16066689755362 4.7939450060271  1.31377435336538 4.94731281490385  L 2.06101538461539 5.69455384615385  C 2.13459728455218 5.76822604533268  2.23444997015923 5.80962225521447  2.33857436177885 5.80962225521447  C 2.44269875339846 5.80962225521447  2.54255143900551 5.76822604533268  2.61613333894231 5.69455384615385  L 5.0247076923077 3.28597949278846  C 5.09837989148653 3.21239759285166  5.13977610136832 3.11254490724461  5.13977610136832 3.008420515625  C 5.13977610136832 2.90429612400539  5.09837989148653 2.80444343839834  5.02470769230769 2.73086153846154  L 4.27746666105769 1.98362050721154  C 4.20388476180061 1.90994831318509  4.10403207980146 1.8685521065747  3.99990769230769 1.8685521065747  C 3.89578330481393 1.8685521065747  3.79593062281478 1.90994831318509  3.72234872355769 1.98362050721154  L 1.31377435336538 4.39219487740385  Z " fill-rule="nonzero" fill="#ffffff" stroke="none" transform="matrix(1 0 0 1 155 345 )" />
  </g>
</svg>