<?xml version="1.0" encoding="utf-8"?>
<svg version="1.1" xmlns:xlink="http://www.w3.org/1999/xlink" width="15px" height="6px" xmlns="http://www.w3.org/2000/svg">
  <g transform="matrix(1 0 0 1 -220 -347 )">
    <path d="M 14.5357142871094 1.89079365  C 15.1071428613281 1.6063492  15.1071428613281 0.7936508  14.6071428515625 0.468571433333333  L 13.8571428515625 0.0215872999999997  L 11.8928571386719 1.2  L 10.7142857080078 1.89079365  L 8.50000000488281 3.23174603333333  C 8.17857143554688 3.39428571666667  7.85714286621094 3.51619048333333  7.5 3.51619048333333  C 7.14285713378906 3.51619048333333  6.82142856445313 3.43492065  6.49999999511719 3.23174603333333  L 4.28571429199219 1.89079365  L 3.10714286132812 1.2  L 1.1428571484375 0.0215872999999997  L 0.3928571484375 0.468571433333333  C -0.107142846679688 0.753015883333333  -0.107142846679688 1.60634921666667  0.3928571484375 1.89079365  L 1.1428571484375 2.33777778333333  L 2.28571428222656 3.02857143333333  L 6.96428570800781 5.83238095  C 7.1071428515625 5.91365078333333  7.28571427734375 5.95428571666667  7.46428571777344 5.95428571666667  C 7.64285715820312 5.95428571666667  7.82142856933594 5.9136508  7.96428571289063 5.83238095  L 12.6428571386719 3.02857143333333  L 13.7857142871094 2.33777778333333  L 14.5357142871094 1.89079365  Z " fill-rule="nonzero" fill="#c7b2ff" stroke="none" transform="matrix(1 0 0 1 220 347 )" />
  </g>
</svg>