<?xml version="1.0" encoding="utf-8"?>
<svg version="1.1" xmlns:xlink="http://www.w3.org/1999/xlink" width="15px" height="8px" xmlns="http://www.w3.org/2000/svg">
  <g transform="matrix(1 0 0 1 -220 -341 )">
    <path d="M 14.5357142871094 4.605291  C 15.1071428613281 4.36825395833333  15.1071428613281 3.65714284722222  14.6071428515625 3.42010581944444  L 7.99999999511719 0.135449736111111  C 7.92857143066406 0.101587305555556  7.8571428515625 0.067724875  7.75000000488281 0.0338624305555556  C 7.67857144042969 0  7.57142857910156 0  7.5 0  C 7.42857142089844 0  7.32142857421875 0  7.24999999511719 0.0338624305555556  C 7.17857141601562 0.0677248611111111  7.07142856933594 0.0677248611111111  7.00000000488281 0.135449736111111  L 0.3928571484375 3.42010581944444  C -0.107142846679688 3.65714286111111  -0.107142846679688 4.36825397222222  0.3928571484375 4.605291  L 1.1428571484375 4.97777777777778  L 2.28571428222656 5.55343915277778  L 4.24999999511719 6.53544973611111  L 5.39285714355469 7.11111111111111  L 6.96428570800781 7.88994708333333  C 7.1071428515625 7.95767194444444  7.28571427734375 7.99153438888889  7.46428571777344 7.99153438888889  C 7.64285715820312 7.99153438888889  7.82142856933594 7.95767195833333  7.96428571289063 7.88994708333333  L 9.53571429199219 7.11111111111111  L 10.6785714257813 6.53544973611111  L 12.6428571386719 5.55343915277778  L 13.7857142871094 4.97777777777778  L 14.5357142871094 4.605291  Z " fill-rule="nonzero" fill="#02a7f0" stroke="none" fill-opacity="0.749019607843137" transform="matrix(1 0 0 1 220 341 )" />
  </g>
</svg>