<?xml version="1.0" encoding="utf-8"?>
<svg version="1.1" xmlns:xlink="http://www.w3.org/1999/xlink" width="13px" height="13px" xmlns="http://www.w3.org/2000/svg">
  <g transform="matrix(1 0 0 1 -152 -342 )">
    <path d="M 13 1.3908761953125  C 12.9380952332589 0.659904766741072  12.3400952332589 0.0619047667410714  11.6091238046875 0  L 1.3908761953125 0  C 0.659904766741072 0.0619047667410714  0.0619047667410714 0.659904766741072  0 1.3908761953125  L 0 11.6091238046875  C 0.0619047667410714 12.3400952332589  0.659904766741072 12.9380952332589  1.3908761953125 13  L 11.6091238046875 13  C 12.3400952332589 12.9380952332589  12.9380952332589 12.3400952332589  13 11.6091238046875  L 13 1.3908761953125  Z M 5.70984762388393 9.82106666183036  C 5.64289081300528 9.88797413634996  5.55816193266624 9.93429144669802  5.46569523325893 9.95453333816964  L 3.11628571428571 10.4698285714286  C 3.08140389971753 10.4774870430019  3.04579601788906 10.4813499798911  3.01008337062778 10.4813499798911  C 2.73657092576355 10.4813499798911  2.51484528022599 10.2596243343535  2.51484528022599 9.98611188948927  C 2.51484528022599 9.9494973117329  2.51890579596738 9.91299565572539  2.52695237611607 9.8772761953125  L 3.05339048102678 7.53851428571429  C 3.07394285714286 7.44714285714286  3.12 7.36344762388393  3.18636190959821 7.29708571428571  L 8.2652761953125 2.21817142857143  C 8.45866659629377 2.0248394215697  8.77215245616159 2.0248394215697  8.96554285714286 2.21817142857143  L 10.7887619095982 4.04139048102679  C 10.9820939165999 4.23478088200806  10.9820939165999 4.54826674187587  10.7887619095982 4.74165714285714  L 5.70984762388393 9.82106666183036  Z " fill-rule="nonzero" fill="#ffffff" stroke="none" transform="matrix(1 0 0 1 152 342 )" />
  </g>
</svg>