<?xml version="1.0" encoding="utf-8"?>
<svg version="1.1" xmlns:xlink="http://www.w3.org/1999/xlink" width="20px" height="20px" xmlns="http://www.w3.org/2000/svg">
  <g transform="matrix(1 0 0 1 -1581 -106 )">
    <path d="M 13.7610465116279 19.0674418604651  C 12.5464101241974 19.5816353692244  11.2405001560017 19.8454276008376  9.92151162790698 19.843023255814  C 4.49360273000946 19.8368247214328  0.0966976247586094 15.4348955949849  0.0966976247586094 10.0069831578039  C 0.0966976247586094 4.57468467080547  4.50044564938805 0.170936646176035  9.93274413638652 0.170936646176035  C 15.365042623385 0.170936646176035  19.7687906480144 4.57468467080547  19.7687906480144 10.0069831578039  C 19.7687906480144 13.9599701060391  17.4023341930457 17.5288938975883  13.7610465116279 19.0674418604651  Z M 18.0406976744186 9.9796511627907  C 18.0406976744186 5.50290697674419  14.3982558139535 1.86046511627907  9.92151162790698 1.86046511627907  C 5.44447674418605 1.86046511627907  1.80232558139535 5.50261627906977  1.80232558139535 9.9796511627907  C 1.80232558139535 14.4566860465116  5.44447674418605 18.0988372093023  9.92151162790698 18.0988372093023  C 14.3985465116279 18.0988372093023  18.0406976744186 14.4563953488372  18.0406976744186 9.9796511627907  Z " fill-rule="nonzero" fill="#ec808d" stroke="none" fill-opacity="0.988235294117647" transform="matrix(1 0 0 1 1581 106 )" />
  </g>
</svg>