<?xml version="1.0" encoding="utf-8"?>
<svg version="1.1" xmlns:xlink="http://www.w3.org/1999/xlink" width="17px" height="17px" xmlns="http://www.w3.org/2000/svg">
  <g transform="matrix(1 0 0 1 -21 -456 )">
    <path d="M 15.1758849557522 6.67857142857143  C 15.1758849557522 7.0125  14.9069690265487 7.28381696428571  14.5741150442478 7.28381696428571  C 14.2412610619469 7.28381696428571  13.9723451327434 7.0125  13.9723451327434 6.67667410714286  C 13.9723451327434 3.66372767857143  11.5426991150442 1.21238839285714  8.55641592920354 1.21238839285714  C 5.57013274336283 1.21238839285714  3.14048672566372 3.66372767857143  3.14048672566372 6.67667410714286  C 3.14048672566372 7.0125  2.87157079646018 7.28381696428571  2.53871681415929 7.28381696428571  C 2.20586283185841 7.28381696428571  1.93694690265487 7.0125  1.93694690265487 6.67667410714286  C 1.93694690265487 5.77544642857143  2.11183628318584 4.90078125  2.45785398230088 4.07734375  C 2.79070796460177 3.28236607142857  3.26836283185841 2.56707589285714  3.87577433628319 1.95424107142857  C 4.48318584070796 1.34140625  5.19214601769912 0.859486607142857  5.98008849557522 0.523660714285714  C 6.7962389380531 0.176450892857143  7.66316371681416 0  8.55641592920354 0  C 9.44966814159292 0  10.316592920354 0.176450892857143  11.1327433628319 0.525558035714286  C 11.920685840708 0.861383928571429  12.6296460176991 1.34330357142857  13.2370575221239 1.95613839285714  C 13.8444690265487 2.56897321428572  14.3221238938053 3.28426339285714  14.6549778761062 4.07924107142857  C 15.0009955752212 4.90267857142857  15.1758849557522 5.77734375  15.1758849557522 6.67857142857143  Z M 12.7744469026549 6.67667410714286  C 12.7744469026549 7.0125  12.5055309734513 7.28381696428571  12.1726769911504 7.28381696428571  C 11.8398230088496 7.28381696428571  11.570907079646 7.0125  11.570907079646 6.67667410714286  C 11.570907079646 5.00133928571428  10.220685840708 3.6390625  8.56017699115044 3.6390625  C 6.89966814159292 3.6390625  5.54944690265487 5.00133928571428  5.54944690265487 6.67667410714286  C 5.54944690265487 7.0125  5.28053097345133 7.28381696428571  4.94767699115044 7.28381696428571  C 4.61482300884956 7.28381696428571  4.34590707964602 7.0125  4.34590707964602 6.67667410714286  C 4.34590707964602 5.54017857142857  4.78407079646018 4.47198660714286  5.57953539823009 3.66941964285714  C 6.375 2.86685267857143  7.4337389380531 2.42477678571429  8.56017699115044 2.42477678571429  C 9.68661504424779 2.42477678571429  10.7453539823009 2.86685267857143  11.5408185840708 3.66941964285714  C 12.3362831858407 4.47198660714286  12.7744469026549 5.54017857142857  12.7744469026549 6.67667410714286  Z M 9.15818584070797 10.0368303571429  C 9.15818584070797 10.3707589285714  8.88738938053097 10.6439732142857  8.55641592920354 10.6439732142857  C 8.22544247787611 10.6439732142857  7.95464601769911 10.3707589285714  7.95464601769911 10.0368303571429  L 7.95464601769911 5.46428571428571  C 7.95464601769911 5.13035714285714  8.22544247787611 4.85714285714286  8.55641592920354 4.85714285714286  C 8.88738938053097 4.85714285714286  9.15818584070797 5.13035714285714  9.15818584070797 5.46428571428571  L 9.15818584070797 10.0368303571429  Z M 1.32389380530973 11  L 15.762610619469 11  L 15.7644911504425 10.9247767857143  L 15.7644911504425 15.778125  L 15.762610619469 15.7800223214286  L 1.32389380530973 15.7800223214286  L 1.32201327433628 15.778125  L 1.32201327433628 10.9247767857143  L 1.32389380530973 11  Z M 16.9680309734513 10.9228794642857  C 16.9680309734513 10.2550223214286  16.4264380530973 9.70859375  15.7644911504425 9.70859375  L 1.32201327433628 9.70859375  C 0.660066371681415 9.70859375  0.118473451327433 10.2550223214286  0.118473451327433 10.9228794642857  L 0.118473451327433 15.7800223214286  C 0.118473451327433 16.4478794642857  0.660066371681415 16.9943080357143  1.32201327433628 17  L 15.7644911504425 17  C 16.4264380530973 16.9943080357143  16.9680309734513 16.4478794642857  16.9680309734513 15.7800223214286  L 16.9680309734513 10.9228794642857  Z M 3.74225663716814 13.3533482142857  C 3.74225663716814 13.0175223214286  3.4733407079646 12.7462053571429  3.14048672566372 12.7462053571429  C 2.80763274336283 12.7462053571429  2.53871681415929 13.0175223214286  2.53871681415929 13.3533482142857  C 2.53871681415929 13.6891741071429  2.80763274336283 13.9604910714286  3.14048672566372 13.9604910714286  C 3.4733407079646 13.9604910714286  3.74225663716814 13.6891741071429  3.74225663716814 13.3533482142857  Z M 6.15121681415929 13.3533482142857  C 6.15121681415929 13.0175223214286  5.8804203539823 12.7462053571429  5.54944690265487 12.7462053571429  C 5.21659292035398 12.7462053571429  4.94767699115044 13.0175223214286  4.94767699115044 13.3533482142857  C 4.94767699115044 13.6891741071429  5.21659292035398 13.9604910714286  5.54944690265487 13.9604910714286  C 5.88230088495575 13.9604910714286  6.15121681415929 13.6891741071429  6.15121681415929 13.3533482142857  Z " fill-rule="nonzero" fill="#02a7f0" stroke="none" transform="matrix(1 0 0 1 21 456 )" />
  </g>
</svg>