<?xml version="1.0" encoding="utf-8"?>
<svg version="1.1" xmlns:xlink="http://www.w3.org/1999/xlink" width="17px" height="17px" xmlns="http://www.w3.org/2000/svg">
  <g transform="matrix(1 0 0 1 -21 -727 )">
    <path d="M 16.8234226190476 14.7485119047619  C 16.8214724992595 15.9098106652348  15.8804656532062 16.8507043823093  14.7191666666667 16.8525148809524  L 2.20089285714286 16.8525148809524  C 1.03969266267288 16.8505651523511  0.098839609553649 15.9097120992319  0 14.7485119047619  L 0 2.2302380952381  C 0.0981432235709711 1.06854396485648  1.03919968981804 0.126921755873907  2.20089285714286 0.124970238095238  L 14.7181547619048 0.124970238095237  C 15.8803419263863 0.126225075072314  16.8221677820705 1.06805093075657  16.8234226190476 2.23023809523809  L 16.8234226190476 14.7485119047619  Z M 14.7191666666667 1  L 2.20089285714286 1  C 1.45771802808431 0.88473554882673  0.855503631768137 1.48706312206384  1 2.23023809523809  L 1 14.7485119047619  C 0.856200262873996 15.4911928826892  1.45821104111875 16.0927511063177  2.20089285714286 16  L 14.7181547619048 16  C 15.4613304199127 16.0934481078647  16.0641108541537 15.4916862661713  16 14.7485119047619  L 16 2.2302380952381  C 16.0648086316991 1.48696447093704  15.4624402909677 0.884596130205678  14.7191666666667 1  Z " fill-rule="nonzero" fill="#02a7f0" stroke="none" transform="matrix(1 0 0 1 21 727 )" />
  </g>
</svg>