<?xml version="1.0" encoding="utf-8"?>
<svg version="1.1" xmlns:xlink="http://www.w3.org/1999/xlink" width="700px" height="48px" xmlns="http://www.w3.org/2000/svg">
  <g transform="matrix(1 0 0 1 -908 -750 )">
    <path d="M 909 774  A 23 23 0 0 1 932 751 L 1584 751  A 23 23 0 0 1 1607 774 A 23 23 0 0 1 1584 797 L 932 797  A 23 23 0 0 1 909 774 Z " fill-rule="nonzero" fill="#ffffff" stroke="none" fill-opacity="0.219607843137255" />
    <path d="M 908.5 774  A 23.5 23.5 0 0 1 932 750.5 L 1584 750.5  A 23.5 23.5 0 0 1 1607.5 774 A 23.5 23.5 0 0 1 1584 797.5 L 932 797.5  A 23.5 23.5 0 0 1 908.5 774 Z " stroke-width="1" stroke="#ffffff" fill="none" stroke-opacity="0.549019607843137" />
  </g>
</svg>