<?xml version="1.0" encoding="utf-8"?>
<svg version="1.1" xmlns:xlink="http://www.w3.org/1999/xlink" width="12px" height="6px" xmlns="http://www.w3.org/2000/svg">
  <g transform="matrix(1 0 0 1 -1067 -771 )">
    <path d="M 6.58434782608696 5.64  C 6.33391304347827 5.72  6.08347826086957 5.8  5.91652173913043 5.8  C 5.7495652173913 5.8  5.49913043478261 5.72  5.41565217391304 5.64  L 0.406956521739131 1.64  C 0.0730434782608699 1.32  -0.0104347826086954 0.84  0.323478260869566 0.52  C 0.657391304347827 0.199999999999999  1.15826086956522 0.119999999999999  1.49217391304348 0.44  L 6 4.04  L 10.5078260869565 0.44  C 10.8417391304348 0.119999999999999  11.4260869565217 0.199999999999999  11.6765217391304 0.52  C 12.0104347826087 0.84  11.9269565217391 1.4  11.5930434782609 1.64  L 6.58434782608696 5.64  Z " fill-rule="nonzero" fill="#555555" stroke="none" transform="matrix(1 0 0 1 1067 771 )" />
  </g>
</svg>