<?xml version="1.0" encoding="utf-8"?>
<svg version="1.1" xmlns:xlink="http://www.w3.org/1999/xlink" width="102px" height="127px" xmlns="http://www.w3.org/2000/svg">
  <defs>
    <filter x="995px" y="629px" width="102px" height="127px" filterUnits="userSpaceOnUse" id="filter659">
      <feOffset dx="5" dy="5" in="SourceAlpha" result="shadowOffsetInner" />
      <feGaussianBlur stdDeviation="2.5" in="shadowOffsetInner" result="shadowGaussian" />
      <feComposite in2="shadowGaussian" operator="atop" in="SourceAlpha" result="shadowComposite" />
      <feColorMatrix type="matrix" values="0 0 0 0 0  0 0 0 0 0  0 0 0 0 0  0 0 0 0.349019607843137 0  " in="shadowComposite" />
    </filter>
    <g id="widget660">
      <path d="M 995.5 634  A 4.5 4.5 0 0 1 1000 629.5 L 1082 629.5  A 4.5 4.5 0 0 1 1086.5 634 L 1086.5 741  A 4.5 4.5 0 0 1 1082 745.5 L 1000 745.5  A 4.5 4.5 0 0 1 995.5 741 L 995.5 634  Z " fill-rule="nonzero" fill="#ffffff" stroke="none" fill-opacity="0.87843137254902" />
      <path d="M 995.5 634  A 4.5 4.5 0 0 1 1000 629.5 L 1082 629.5  A 4.5 4.5 0 0 1 1086.5 634 L 1086.5 741  A 4.5 4.5 0 0 1 1082 745.5 L 1000 745.5  A 4.5 4.5 0 0 1 995.5 741 L 995.5 634  Z " stroke-width="1" stroke="#02a7f0" fill="none" />
    </g>
  </defs>
  <g transform="matrix(1 0 0 1 -995 -629 )">
    <use xlink:href="#widget660" filter="url(#filter659)" />
    <use xlink:href="#widget660" />
  </g>
</svg>