<?xml version="1.0" encoding="utf-8"?>
<svg version="1.1" xmlns:xlink="http://www.w3.org/1999/xlink" width="13px" height="13px" xmlns="http://www.w3.org/2000/svg">
  <g transform="matrix(1 0 0 1 -1169 -443 )">
    <path d="M 1175.5 443  C 1179.14 443  1182 445.86  1182 449.5  C 1182 453.14  1179.14 456  1175.5 456  C 1171.86 456  1169 453.14  1169 449.5  C 1169 445.86  1171.86 443  1175.5 443  Z " fill-rule="nonzero" fill="#00ffff" stroke="none" fill-opacity="0" />
    <path d="M 1175.5 443.5  C 1178.86 443.5  1181.5 446.14  1181.5 449.5  C 1181.5 452.86  1178.86 455.5  1175.5 455.5  C 1172.14 455.5  1169.5 452.86  1169.5 449.5  C 1169.5 446.14  1172.14 443.5  1175.5 443.5  Z " stroke-width="1" stroke="#d9001b" fill="none" />
  </g>
</svg>