<?xml version="1.0" encoding="utf-8"?>
<svg version="1.1" xmlns:xlink="http://www.w3.org/1999/xlink" width="23px" height="23px" xmlns="http://www.w3.org/2000/svg">
  <defs>
    <mask fill="white" id="clip130">
      <path d="M 2.05517578125 11.5  C 2.05517578125 6.29130859375  6.29130859375 2.05517578125  11.5 2.05517578125  C 16.70869140625 2.05517578125  20.94482421875 6.29130859375  20.94482421875 11.5  C 20.94482421875 16.70869140625  16.70869140625 20.94482421875  11.5 20.94482421875  C 6.29130859375 20.94482421875  2.05517578125 16.70869140625  2.05517578125 11.5  Z M 22.89892578125 11.5  C 22.89892578125 5.20419921875  17.79580078125 0.10107421875  11.5 0.10107421875  C 5.20419921875 0.10107421875  0.10107421875 5.20419921875  0.10107421875 11.5  C 0.10107421875 17.79580078125  5.20419921875 22.89892578125  11.5 22.89892578125  C 17.79580078125 22.89892578125  22.89892578125 17.79580078125  22.89892578125 11.5  Z " fill-rule="evenodd" />
    </mask>
  </defs>
  <g transform="matrix(1 0 0 1 -611 -357 )">
    <path d="M 2.05517578125 11.5  C 2.05517578125 6.29130859375  6.29130859375 2.05517578125  11.5 2.05517578125  C 16.70869140625 2.05517578125  20.94482421875 6.29130859375  20.94482421875 11.5  C 20.94482421875 16.70869140625  16.70869140625 20.94482421875  11.5 20.94482421875  C 6.29130859375 20.94482421875  2.05517578125 16.70869140625  2.05517578125 11.5  Z M 22.89892578125 11.5  C 22.89892578125 5.20419921875  17.79580078125 0.10107421875  11.5 0.10107421875  C 5.20419921875 0.10107421875  0.10107421875 5.20419921875  0.10107421875 11.5  C 0.10107421875 17.79580078125  5.20419921875 22.89892578125  11.5 22.89892578125  C 17.79580078125 22.89892578125  22.89892578125 17.79580078125  22.89892578125 11.5  Z " fill-rule="nonzero" fill="#ffffff" stroke="none" transform="matrix(1 0 0 1 611 357 )" />
    <path d="M 2.05517578125 11.5  C 2.05517578125 6.29130859375  6.29130859375 2.05517578125  11.5 2.05517578125  C 16.70869140625 2.05517578125  20.94482421875 6.29130859375  20.94482421875 11.5  C 20.94482421875 16.70869140625  16.70869140625 20.94482421875  11.5 20.94482421875  C 6.29130859375 20.94482421875  2.05517578125 16.70869140625  2.05517578125 11.5  Z " stroke-width="2" stroke="#d7d7d7" fill="none" stroke-opacity="0.658823529411765" transform="matrix(1 0 0 1 611 357 )" mask="url(#clip130)" />
    <path d="M 22.89892578125 11.5  C 22.89892578125 5.20419921875  17.79580078125 0.10107421875  11.5 0.10107421875  C 5.20419921875 0.10107421875  0.10107421875 5.20419921875  0.10107421875 11.5  C 0.10107421875 17.79580078125  5.20419921875 22.89892578125  11.5 22.89892578125  C 17.79580078125 22.89892578125  22.89892578125 17.79580078125  22.89892578125 11.5  Z " stroke-width="2" stroke="#d7d7d7" fill="none" stroke-opacity="0.658823529411765" transform="matrix(1 0 0 1 611 357 )" mask="url(#clip130)" />
  </g>
</svg>