<?xml version="1.0" encoding="utf-8"?>
<svg version="1.1" xmlns:xlink="http://www.w3.org/1999/xlink" width="239px" height="33px" xmlns="http://www.w3.org/2000/svg">
  <g transform="matrix(1 0 0 1 -410 -475 )">
    <path d="M 411 491.5  A 15.5 15.5 0 0 1 426.5 476 L 632.5 476  A 15.5 15.5 0 0 1 648 491.5 A 15.5 15.5 0 0 1 632.5 507 L 426.5 507  A 15.5 15.5 0 0 1 411 491.5 Z " fill-rule="nonzero" fill="#69e147" stroke="none" />
    <path d="M 410.5 491.5  A 16 16 0 0 1 426.5 475.5 L 632.5 475.5  A 16 16 0 0 1 648.5 491.5 A 16 16 0 0 1 632.5 507.5 L 426.5 507.5  A 16 16 0 0 1 410.5 491.5 Z " stroke-width="1" stroke="#d7d7d7" fill="none" stroke-opacity="0.658823529411765" />
  </g>
</svg>