<?xml version="1.0" encoding="utf-8"?>
<svg version="1.1" xmlns:xlink="http://www.w3.org/1999/xlink" width="239px" height="33px" xmlns="http://www.w3.org/2000/svg">
  <g transform="matrix(1 0 0 1 -410 -586 )">
    <path d="M 411 602.5  A 15.5 15.5 0 0 1 426.5 587 L 632.5 587  A 15.5 15.5 0 0 1 648 602.5 A 15.5 15.5 0 0 1 632.5 618 L 426.5 618  A 15.5 15.5 0 0 1 411 602.5 Z " fill-rule="nonzero" fill="#ec808d" stroke="none" />
    <path d="M 410.5 602.5  A 16 16 0 0 1 426.5 586.5 L 632.5 586.5  A 16 16 0 0 1 648.5 602.5 A 16 16 0 0 1 632.5 618.5 L 426.5 618.5  A 16 16 0 0 1 410.5 602.5 Z " stroke-width="1" stroke="#d7d7d7" fill="none" stroke-opacity="0.658823529411765" />
  </g>
</svg>