<?xml version="1.0" encoding="utf-8"?>
<svg version="1.1" xmlns:xlink="http://www.w3.org/1999/xlink" width="17px" height="12px" xmlns="http://www.w3.org/2000/svg">
  <g transform="matrix(1 0 0 1 -20 -264 )">
    <path d="M 16.893325 7.80741818181818  C 16.89375 10.1105454545455  15.06795 11.9851636363636  12.82395 11.9851636363636  L 3.304375 11.9851636363636  C 1.54105 11.9851636363636  0.10625 10.5124363636364  0.10625 8.70196363636364  C 0.10625 6.89149090909091  1.54105 5.41832727272727  3.304375 5.41832727272727  C 3.528775 5.41832727272727  3.752325 5.44276363636364  3.970775 5.49076363636364  C 3.96494426349439 5.39633567901689  3.96196783213454 5.30174473587759  3.96185 5.20712727272727  C 3.96185 2.34414545454546  6.2305 0.0152727272727285  9.0185 0.0152727272727285  C 10.982425 0.0152727272727285  12.78315 1.20087272727273  13.6068 3.03578181818182  C 13.6213250747812 3.06588807148916  13.6288821511488 3.09903177210328  13.6288821511488 3.13262935167057  C 13.6288821511488 3.25312784254275  13.5337426604879 3.35081116985239  13.4163821511488 3.35081116985239  C 13.3312246958186 3.35081116985239  13.2542915557494 3.29861411539296  13.2209 3.21818181818182  C 12.4634826537361 1.53521105171295  10.8241727189532 0.456012153782044  9.0185 0.451636363636366  C 6.46425 0.451636363636366  4.38685 2.58501818181818  4.38685 5.20712727272728  C 4.38685 5.37425454545455  4.397475 5.55403636363637  4.42 5.75694545454546  L 4.45655 6.0912  L 4.1446 5.98952727272727  C 3.8727892180147 5.90057699196487  3.58923321966196 5.85524311201649  3.30395 5.85512727272728  C 1.7748 5.85512727272728  0.530824999999999 7.1328  0.530824999999999 8.7024  C 0.530824999999999 10.272  1.775225 11.5492363636364  3.30395 11.5492363636364  L 12.8231 11.5492363636364  C 14.832925 11.5492363636364  16.4679 9.87054545454546  16.4679 7.80741818181818  C 16.4690873365984 6.69335222617082  15.985036692569 5.63710167566944  15.148275 4.92785454545455  C 15.0994829509036 4.88657432922028  15.0712193585586 4.82506002506263  15.0712193585586 4.76014677119712  C 15.0712193585586 4.70933797975847  15.0885591865094 4.66013538484182  15.120225 4.62109090909091  C 15.1604302106032 4.57099425975126  15.2203425797567 4.54197495638107  15.2835653843028 4.54197495638107  C 15.3330510301311 4.54197495638107  15.3809723074718 4.55977841609525  15.419 4.59229090909091  C 16.3539444360064 5.38374333536734  16.8948304292352 6.56327790764011  16.893325 7.80741818181818  Z " fill-rule="nonzero" fill="#02a7f0" stroke="none" transform="matrix(1 0 0 1 20 264 )" />
  </g>
</svg>