<?xml version="1.0" encoding="utf-8"?>
<svg version="1.1" xmlns:xlink="http://www.w3.org/1999/xlink" width="14px" height="14px" xmlns="http://www.w3.org/2000/svg">
  <g transform="matrix(1 0 0 1 -81 -365 )">
    <path d="M 0.05642 7  C 0.05642 3.16512  3.16512 0.05642  7 0.05642  C 10.83488 0.05642  13.94358 3.16512  13.94358 7  C 13.94358 10.83488  10.83488 13.94358  7 13.94358  C 3.16512 13.94358  0.05642 10.83488  0.05642 7  Z M 8.05154 10.43  C 8.05154 9.84914  7.58072 9.37846  7 9.37846  C 6.41928 9.37846  5.94846 9.84914  5.94846 10.43  C 5.94846 11.01072  6.41928 11.48154  7 11.48154  C 7.58072 11.48154  8.05154 11.01072  8.05154 10.43  Z M 6.0641 7.65072  C 6.0641 8.15094  6.46954 8.55638  6.96976 8.55638  C 7.46998 8.55638  7.87542 8.1508  7.87542 7.65072  L 7.87542 3.42412  C 7.87542 2.9239  7.46998 2.51846  6.96976 2.51846  C 6.46954 2.51846  6.0641 2.92404  6.0641 3.42412  L 6.0641 7.65072  Z " fill-rule="nonzero" fill="#f59a23" stroke="none" transform="matrix(1 0 0 1 81 365 )" />
  </g>
</svg>