<?xml version="1.0" encoding="utf-8"?>
<svg version="1.1" xmlns:xlink="http://www.w3.org/1999/xlink" width="15px" height="15px" xmlns="http://www.w3.org/2000/svg">
  <g transform="matrix(1 0 0 1 -19 -192 )">
    <path d="M 14.93408203125 7.49267578125  C 14.93408203125 11.595703125  11.595703125 14.93408203125  7.49267578125 14.93408203125  C 3.3896484375 14.93408203125  0.05126953125 11.595703125  0.05126953125 7.49267578125  C 0.05126953125 3.3896484375  3.3896484375 0.05126953125  7.49267578125 0.05126953125  C 11.595703125 0.05126953125  14.93408203125 3.3896484375  14.93408203125 7.49267578125  Z M 14.21630859375 7.49267578125  C 14.21630859375 3.78515625  11.2001953125 0.76904296875  7.49267578125 0.76904296875  C 3.78515625 0.76904296875  0.76904296875 3.78515625  0.76904296875 7.49267578125  C 0.76904296875 11.2001953125  3.78515625 14.21630859375  7.49267578125 14.21630859375  C 11.2001953125 14.21630859375  14.21630859375 11.2001953125  14.21630859375 7.49267578125  Z M 7.49267578125 9.81884765625  C 7.6904296875 9.81884765625  7.8515625 9.65771484375  7.8515625 9.45849609375  L 7.8515625 3.18017578125  C 7.8515625 2.982421875  7.6904296875 2.8212890625  7.49267578125 2.8212890625  C 7.294921875 2.8212890625  7.1337890625 2.982421875  7.1337890625 3.18017578125  L 7.1337890625 9.4599609375  C 7.1337890625 9.65771484375  7.294921875 9.81884765625  7.49267578125 9.81884765625  Z M 8.0302734375 11.267578125  C 8.0302734375 10.97021484375  7.7900390625 10.72998046875  7.49267578125 10.72998046875  C 7.1953125 10.72998046875  6.955078125 10.97021484375  6.955078125 11.267578125  C 6.955078125 11.56494140625  7.1953125 11.80517578125  7.49267578125 11.80517578125  C 7.7900390625 11.80517578125  8.0302734375 11.56494140625  8.0302734375 11.267578125  Z " fill-rule="nonzero" fill="#eb1c26" stroke="none" transform="matrix(1 0 0 1 19 192 )" />
  </g>
</svg>