<?xml version="1.0" encoding="utf-8"?>
<svg version="1.1" xmlns:xlink="http://www.w3.org/1999/xlink" width="58px" height="51px" xmlns="http://www.w3.org/2000/svg">
  <g transform="matrix(1 0 0 1 -130 -970 )">
    <path d="M 32.7487804960938 47.4637630814732  C 32.7487804960938 45.4735191595982  31.1219512402344 43.9097561350446  29.2121950957031 43.909756078125  C 27.2317072714844 43.909756078125  25.6756097519531 45.4735191595982  25.6756097519531 47.4637630814732  C 25.6756097519531 49.3829268348214  27.231707328125 50.9466899162946  29.2121950957031 50.9466899162946  C 31.1926828632813 50.9466899162946  32.7487804394531 49.3829268348214  32.7487804960938 47.4637630814732  Z M 10.468292671875 12.9188153504464  L 7.28536583984375 9.64912890736607  C 5.02195118359375 10.9996515401786  2.82926826367188 12.5634146216518  0.778048759765625 14.3404180948661  C -0.141463416015625 15.1222996071429  -0.21219515234375 16.5439024084821  0.5658536640625 17.4679442578125  C 1.34390242382813 18.3919860502232  2.75853658398438 18.46306621875  3.67804875976563 17.6811846495536  C 5.8 15.8331010078125  8.06341459960938 14.2693379832589  10.468292671875 12.9188153504464  Z M 57.5048780722656 17.4679442578125  C 58.2121951523437 16.5439024654018  58.1414634160156 15.1222996640625  57.2219512402344 14.3404180948661  C 49.3707316796875 7.51672476227679  39.3975609921875 3.7494773671875  29 3.7494773671875  C 24.5439024238281 3.7494773671875  20.0878049042969 4.46027876785714  15.9146341601562 5.81080140066964  L 19.4512195039062 9.435888515625  C 22.5634145996094 8.65400700334821  25.8170731679687 8.22752616294643  29.0707316796875 8.22752610602679  C 38.4073170234375 8.22752610602679  47.3902438554687 11.5682926607143  54.3926829199219 17.6811846495536  C 54.8170731679688 18.0365853214286  55.3121950957031 18.2498257700893  55.8073170800781 18.2498257700893  C 56.4439024238281 18.2498257700893  57.0097560878906 17.9655052098214  57.5048780722656 17.4679442578125  Z M 20.0878049042969 22.7278745658482  L 16.76341465625 19.3160278995536  C 13.86341465625 20.5954704207589  11.1048780722656 22.3013937254464  8.7 24.5048780390625  C 7.78048782421875 25.2867595513393  7.70975608789063 26.7083623526786  8.55853658398438 27.6324042020089  C 9.40731708007813 28.5564459944196  10.7512195039063 28.6275261629464  11.6707316796875 27.7745644821429  C 14.1463414316406 25.5710801685268  17.0463414316406 23.8651568069196  20.0878049042969 22.7278745658482  Z M 48.66341465625 24.5759582075893  C 43.1463414882813 19.6003484598214  36.0024390644531 16.8993031372768  28.6463414882813 16.8993031372768  C 28.0097561445312 16.8993031372768  27.3731707441406 16.8993031372768  26.73658534375 16.9703832488839  L 31.1219512402344 21.4484320446429  C 36.4975609921875 21.9459929966518  41.5902439121094 24.2205574787946  45.6926829199219 27.84564459375  C 46.1170731679688 28.201045265625  46.6121950957031 28.4142857142857  47.1780487597656 28.4142857142857  C 47.8146341035156 28.4142857142857  48.3804877675781 28.1299651540178  48.8048780722656 27.7034843136161  C 49.6536585683594 26.7794425212054  49.5121951523438 25.3578397198661  48.66341465625 24.5759582075893  Z M 28.6463414882812 34.7404180948661  C 29.9195122324219 34.7404180948661  31.1219512402344 34.882578375  32.2536585117187 35.2379791037947  L 27.4439024238281 30.3334494676339  C 23.6951219277344 30.6177700279018  20.0878048476562 32.1104529408482  17.2585365839844 34.7404180948661  C 16.3390244082031 35.5933797756696  16.268292671875 36.9439024084821  17.1170731679687 37.8679442578125  C 17.9658536640625 38.7919860502232  19.3097560878906 38.86306621875  20.2292683203125 38.0101045379464  C 22.56341465625 35.8777003359375  25.5341463925781 34.7404181517857  28.6463414882812 34.7404180948661  Z M 44.7731707441406 39.8581881796875  L 6.3658536640625 0.479790924107142  C 5.8 -0.0888501964285712  4.95121950390625 -0.0888501964285712  4.45609757617187 0.4087108125  C 3.9609756484375 0.906271764508928  3.89024391210937 1.7592334453125  4.45609757617187 2.25679439732143  L 42.9341463359375 41.6351916529018  C 43.2170731679688 41.9195122131696  43.5707316796875 42.0616724933036  43.8536585117188 42.0616724933036  C 44.2073170234375 42.0616724933036  44.4902438554687 41.9195122131696  44.7731707441406 41.7062717645089  C 45.268292671875 41.2087108125  45.3390244082031 40.3557491316964  44.7731707441406 39.8581881796875  Z " fill-rule="nonzero" fill="#d9001b" stroke="none" transform="matrix(1 0 0 1 130 970 )" />
  </g>
</svg>