<?xml version="1.0" encoding="utf-8"?>
<svg version="1.1" xmlns:xlink="http://www.w3.org/1999/xlink" width="23px" height="23px" xmlns="http://www.w3.org/2000/svg">
  <g transform="matrix(1 0 0 1 -460 -1365 )">
    <path d="M 5.93002470023148 21.7316941983945  L 7.52469136689815 21.7316941983945  L 7.52469136689815 14.9777125470183  C 7.52469136689815 14.0211376146789  8.40607407407408 13.2935779816514  9.45555555555556 13.2935779816514  L 13.5444444444444 13.2935779816514  C 14.5893827071759 13.2935779816514  15.4753086331019 14.0228256880734  15.4753086331019 14.9777125470183  L 15.4753086331019 21.7316941983945  L 17.0699752997685 21.7316941983945  C 18.7009876365741 21.7316941983945  20.0185185185185 20.466764543578  20.0185185185185 18.9165504587156  L 20.0185185185185 9.02500304931193  L 12.7022469224537 1.77585321100917  C 12.3836051304335 1.45952370930439  11.9510638178376 1.28176019020331  11.5 1.28176019020331  C 11.0489361821624 1.28176019020331  10.6163948695665 1.45952370930439  10.2977530775463 1.77585321100917  L 2.98148148148148 9.02500304931193  L 2.98148148148148 18.9165504587156  C 2.98148148148148 20.4695779816514  4.29617284837963 21.7316941983945  5.93002470023148 21.7316941983945  Z M 8.66049381828704 14.9777125470183  L 8.66049381828704 21.7316941983945  L 14.339506181713 21.7316941983945  L 14.339506181713 14.9777125470183  C 14.339506181713 14.6952416077982  14.0044444444444 14.4189602534404  13.5444444444444 14.4189602534404  L 9.45555555555556 14.4189602534404  C 8.99214814814815 14.4189602534404  8.66049381828704 14.6929908256881  8.66049381828704 14.9777125470183  Z M 21.8886172928241 10.8779449541284  L 21.1543209965278 10.1503853211009  L 21.1543209965278 18.9165504587156  C 21.1543209965278 21.0964158933486  19.3205679189815 22.8570764438073  17.0699752997685 22.8570764438073  L 5.93002470023148 22.8570764438073  C 3.6771604849537 22.8570764438073  1.84567900347222 21.0992293577982  1.84567900347222 18.9165504587156  L 1.84567900347222 10.1503853211009  L 1.11138270717593 10.8779449541284  C 1.00436946747245 10.9877273761423  0.856937877747937 11.0497278108267  0.702898157360076 11.0497278108267  C 0.389254970998819 11.0497278108267  0.134996931665631 10.7978024140562  0.134996931665631 10.4870366881203  C 0.134996931665631 10.3344101761764  0.197571444448963 10.1883311698438  0.30837037037037 10.0822997029817  L 9.49474074074074 0.980207959862385  C 10.0263771997857 0.452902174436632  10.7477622355969 0.156618865717185  11.5 0.156618865717185  C 12.2522377644031 0.156618865717185  12.9736228002143 0.452902174436632  13.5052592592593 0.980207959862385  L 22.6916296296296 10.0822997029817  C 22.7938910461562 10.1872073388589  22.8510463055083 10.3273586950669  22.8510463055083 10.4732079689898  C 22.8510463055083 10.7839736949258  22.5967882661751 11.0358990916963  22.2831450798138 11.0358990916963  C 22.1359453496508 11.0358990916963  21.9944962957002 10.9792681925218  21.8886172928241 10.8779449541284  Z " fill-rule="nonzero" fill="#02a7f0" stroke="none" transform="matrix(1 0 0 1 460 1365 )" />
  </g>
</svg>