<?xml version="1.0" encoding="utf-8"?>
<svg version="1.1" xmlns:xlink="http://www.w3.org/1999/xlink" width="50px" height="35px" xmlns="http://www.w3.org/2000/svg">
  <g transform="matrix(1 0 0 1 -1038 -77 )">
    <path d="M 49.9888524590164 24.6241882352941  C 49.9914754098361 30.3401411764706  45.3593442622951 34.9914352941177  39.6701639344262 34.9914352941177  L 34.5737704918033 34.9914352941177  C 33.7055737704918 34.9914352941177  33 34.2825411764706  33 33.4102588235294  C 33 32.5379764705882  33.7055737704918 31.8290823529412  34.5737704918033 31.8290823529412  L 39.6675409836066 31.8290823529412  C 43.6229508196721 31.8290823529412  46.8413114754098 28.5955764705882  46.8413114754098 24.6215529411765  C 46.8413114754098 20.6475294117647  43.6229508196721 17.4140235294118  39.6675409836066 17.4140235294118  L 39.4104918032787 17.4140235294118  C 38.5527868852459 17.4140235294118  37.8524590163934 16.7235764705882  37.8367213114754 15.8618352941177  C 37.7055737704918 8.88094117647059  31.9455737704918 3.20188235294118  24.9973770491803 3.20188235294118  C 18.0491803278688 3.20188235294118  12.2918032786885 8.88357647058823  12.1606557377049 15.8644705882353  C 12.1446467525256 16.7262683942642  11.4447958977004 17.4165216865822  10.5868852459016 17.4166588235294  L 10.3298360655738 17.4166588235294  C 6.3744262295082 17.4166588235294  3.15606557377049 20.6501647058824  3.15606557377049 24.6241882352941  C 3.15606557377049 28.5982117647059  6.3744262295082 31.8317176470588  10.3298360655738 31.8317176470588  L 14.9829508196721 31.8317176470588  C 15.8511475409836 31.8317176470588  16.5567213114754 32.5406117647059  16.5567213114754 33.4128941176471  C 16.5567213114754 34.2851764705882  15.8511475409836 34.9940705882353  14.9829508196721 34.9940705882353  L 10.3298360655738 34.9940705882353  C 4.63803278688525 34.9940705882353  0.00852459016393349 30.3427764705882  0.00852459016393349 24.6241882352941  C 0.00852459016393349 19.3219764705882  3.99016393442623 14.9368470588235  9.10754098360656 14.3254588235294  C 9.50885245901639 10.6597647058824  11.1429508196721 7.26550588235294  13.792131147541 4.64865882352941  C 16.8006557377049 1.67868235294118  20.7822950819672 0.0421647058823527  25 0.0421647058823527  C 29.2177049180328 0.0421647058823527  33.1967213114754 1.67868235294118  36.2052459016393 4.64865882352941  C 38.8544262295082 7.26550588235294  40.4885245901639 10.6597647058824  40.8898360655738 14.3254588235294  C 46.0072131147541 14.9342117647059  49.9888524590164 19.3193411764706  49.9888524590164 24.6241882352941  Z " fill-rule="nonzero" fill="#000000" stroke="none" transform="matrix(1 0 0 1 1038 77 )" />
  </g>
</svg>