<?xml version="1.0" encoding="utf-8"?>
<svg version="1.1" xmlns:xlink="http://www.w3.org/1999/xlink" width="15px" height="19px" xmlns="http://www.w3.org/2000/svg">
  <g transform="matrix(1 0 0 1 -1056 -95 )">
    <path d="M 14.785980324435 11.8016926340567  C 14.785980324435 11.3933437816175  14.6199749606386 11.0014740552932  14.324 10.7111489361702  C 14.02329744982 10.4158050055419  13.6132248243652 10.2495766449801  13.185336533394 10.2495766449801  C 12.7639809557497 10.2495766449801  12.3596217504387 10.410781884452  12.06 10.6982127659574  L 9 13.5286468085106  L 9 1.86022127659574  C 9.108 1.00384680851064  8.39066666666667 0.307880851063825  7.508 0.307880851063825  C 6.62533333333333 0.307880851063825  5.908 1.00384680851063  6 1.86022127659574  L 6 13.5415829787234  L 2.95866666666667 10.7008  C 2.33081136507168 10.0974684601611  1.31811161027998 10.1009403125646  0.694666666666667 10.7085617021277  C 0.0728117900783569 11.3177149309092  0.076390234441579 12.3002491610901  0.702666666666663 12.9051234042553  L 6.36666666666667 18.3616  C 6.99063521469152 18.9602403906886  7.99457280010886 18.9613930925366  8.62 18.3641872340426  L 14.308 12.9077106382979  C 14.6137589128071 12.6161481653731  14.785980324435 12.2176380756503  14.785980324435 11.8016926340567  Z " fill-rule="nonzero" fill="#4f4f4f" stroke="none" transform="matrix(1 0 0 1 1056 95 )" />
  </g>
</svg>