<?xml version="1.0" encoding="utf-8"?>
<svg version="1.1" xmlns:xlink="http://www.w3.org/1999/xlink" width="60px" height="60px" xmlns="http://www.w3.org/2000/svg">
  <g transform="matrix(1 0 0 1 -21 -20 )">
    <path d="M 51 20  C 67.8 20  81 33.2  81 50  C 81 66.8  67.8 80  51 80  C 34.2 80  21 66.8  21 50  C 21 33.2  34.2 20  51 20  Z " fill-rule="nonzero" fill="#ffffff" stroke="none" />
    <path d="M 51 20.5  C 67.52 20.5  80.5 33.48  80.5 50  C 80.5 66.52  67.52 79.5  51 79.5  C 34.48 79.5  21.5 66.52  21.5 50  C 21.5 33.48  34.48 20.5  51 20.5  Z " stroke-width="1" stroke="#797979" fill="none" />
  </g>
</svg>