<?xml version="1.0" encoding="utf-8"?>
<svg version="1.1" xmlns:xlink="http://www.w3.org/1999/xlink" width="23px" height="23px" xmlns="http://www.w3.org/2000/svg">
  <g transform="matrix(1 0 0 1 -35 -552 )">
    <path d="M 46.5 552  C 52.94 552  58 557.06  58 563.5  C 58 569.94  52.94 575  46.5 575  C 40.06 575  35 569.94  35 563.5  C 35 557.06  40.06 552  46.5 552  Z " fill-rule="nonzero" fill="#ffffff" stroke="none" />
    <path d="M 46.5 552.5  C 52.66 552.5  57.5 557.34  57.5 563.5  C 57.5 569.66  52.66 574.5  46.5 574.5  C 40.34 574.5  35.5 569.66  35.5 563.5  C 35.5 557.34  40.34 552.5  46.5 552.5  Z " stroke-width="1" stroke="#797979" fill="none" />
  </g>
</svg>