<?xml version="1.0" encoding="utf-8"?>
<svg version="1.1" xmlns:xlink="http://www.w3.org/1999/xlink" width="10px" height="10px" xmlns="http://www.w3.org/2000/svg">
  <g transform="matrix(1 0 0 1 -258 -600 )">
    <path d="M 263 600  C 265.8 600  268 602.2  268 605  C 268 607.8  265.8 610  263 610  C 260.2 610  258 607.8  258 605  C 258 602.2  260.2 600  263 600  Z " fill-rule="nonzero" fill="#d9001b" stroke="none" />
    <path d="M 263 600.5  C 265.52 600.5  267.5 602.48  267.5 605  C 267.5 607.52  265.52 609.5  263 609.5  C 260.48 609.5  258.5 607.52  258.5 605  C 258.5 602.48  260.48 600.5  263 600.5  Z " stroke-width="1" stroke="#d9001b" fill="none" />
  </g>
</svg>