<?xml version="1.0" encoding="utf-8"?>
<svg version="1.1" xmlns:xlink="http://www.w3.org/1999/xlink" width="91px" height="35px" xmlns="http://www.w3.org/2000/svg">
  <g transform="matrix(1 0 0 1 -3241 -977 )">
    <path d="M 3242 994.5  A 16.5 16.5 0 0 1 3258.5 978 L 3314.5 978  A 16.5 16.5 0 0 1 3331 994.5 A 16.5 16.5 0 0 1 3314.5 1011 L 3258.5 1011  A 16.5 16.5 0 0 1 3242 994.5 Z " fill-rule="nonzero" fill="#ff0000" stroke="none" fill-opacity="0.749019607843137" />
    <path d="M 3241.5 994.5  A 17 17 0 0 1 3258.5 977.5 L 3314.5 977.5  A 17 17 0 0 1 3331.5 994.5 A 17 17 0 0 1 3314.5 1011.5 L 3258.5 1011.5  A 17 17 0 0 1 3241.5 994.5 Z " stroke-width="1" stroke="#d7d7d7" fill="none" stroke-opacity="0.549019607843137" />
  </g>
</svg>