<?xml version="1.0" encoding="utf-8"?>
<svg version="1.1" xmlns:xlink="http://www.w3.org/1999/xlink" width="75px" height="27px" viewBox="1013 4  75 27" xmlns="http://www.w3.org/2000/svg">
  <path d="M 1014 9  A 4 4 0 0 1 1018 5 L 1083 5  A 4 4 0 0 1 1087 9 L 1087 26  A 4 4 0 0 1 1083 30 L 1018 30  A 4 4 0 0 1 1014 26 L 1014 9  Z " fill-rule="nonzero" fill="#f0f0f0" stroke="none" />
  <path d="M 1013.5 9  A 4.5 4.5 0 0 1 1018 4.5 L 1083 4.5  A 4.5 4.5 0 0 1 1087.5 9 L 1087.5 26  A 4.5 4.5 0 0 1 1083 30.5 L 1018 30.5  A 4.5 4.5 0 0 1 1013.5 26 L 1013.5 9  Z " stroke-width="1" stroke="#aaaaaa" fill="none" stroke-opacity="0.329411764705882" />
</svg>