<?xml version="1.0" encoding="utf-8"?>
<svg version="1.1" xmlns:xlink="http://www.w3.org/1999/xlink" width="250px" height="35px" viewBox="1108 977  250 35" xmlns="http://www.w3.org/2000/svg">
  <path d="M 1109 982  A 4 4 0 0 1 1113 978 L 1353 978  A 4 4 0 0 1 1357 982 L 1357 1007  A 4 4 0 0 1 1353 1011 L 1113 1011  A 4 4 0 0 1 1109 1007 L 1109 982  Z " fill-rule="nonzero" fill="#f0f0f0" stroke="none" />
  <path d="M 1108.5 982  A 4.5 4.5 0 0 1 1113 977.5 L 1353 977.5  A 4.5 4.5 0 0 1 1357.5 982 L 1357.5 1007  A 4.5 4.5 0 0 1 1353 1011.5 L 1113 1011.5  A 4.5 4.5 0 0 1 1108.5 1007 L 1108.5 982  Z " stroke-width="1" stroke="#d7d7d7" fill="none" stroke-opacity="0.549019607843137" />
</svg>