<?xml version="1.0" encoding="utf-8"?>
<svg version="1.1" xmlns:xlink="http://www.w3.org/1999/xlink" width="520px" height="35px" xmlns="http://www.w3.org/2000/svg">
  <g transform="matrix(1 0 0 1 -28 -1032 )">
    <path d="M 29 1037  A 4 4 0 0 1 33 1033 L 543 1033  A 4 4 0 0 1 547 1037 L 547 1062  A 4 4 0 0 1 543 1066 L 33 1066  A 4 4 0 0 1 29 1062 L 29 1037  Z " fill-rule="nonzero" fill="#ffffff" stroke="none" />
    <path d="M 28.5 1037  A 4.5 4.5 0 0 1 33 1032.5 L 543 1032.5  A 4.5 4.5 0 0 1 547.5 1037 L 547.5 1062  A 4.5 4.5 0 0 1 543 1066.5 L 33 1066.5  A 4.5 4.5 0 0 1 28.5 1062 L 28.5 1037  Z " stroke-width="1" stroke="#d7d7d7" fill="none" stroke-opacity="0.549019607843137" />
  </g>
</svg>