<?xml version="1.0" encoding="utf-8"?>
<svg version="1.1" xmlns:xlink="http://www.w3.org/1999/xlink" width="15px" height="15px" xmlns="http://www.w3.org/2000/svg">
  <defs>
    <mask fill="white" id="clip441">
      <path d="M 11.3552903225806 11.359872  C 13.9441935483871 8.79168  13.9441935483871 4.610688  11.3552903225806 2.042496  C 10.1010967741935 0.798336  8.43193548387097 0.11328  6.65748387096774 0.11328  C 4.88303225806452 0.11328  3.21387096774194 0.798336  1.95967741935484 2.042496  C -0.629225806451613 4.610688  -0.629225806451613 8.79168  1.95967741935484 11.359872  C 3.21387096774194 12.604032  4.88303225806452 13.289088  6.65748387096774 13.289088  C 8.43193548387097 13.289088  10.1010967741935 12.604032  11.3552903225806 11.359872  Z M 10.5687096774194 2.825856  C 12.7209677419355 4.963968  12.7209677419355 8.441472  10.5656129032258 10.576512  C 9.522 11.611776  8.13464516129032 12.183168  6.65748387096774 12.183168  C 5.18032258064516 12.183168  3.79296774193548 11.611776  2.74935483870968 10.576512  C 0.597096774193548 8.441472  0.597096774193548 4.963968  2.75245161290323 2.825856  C 3.79606451612903 1.790592  5.18341935483871 1.2192  6.66058064516129 1.2192  C 8.13774193548387 1.2192  9.52509677419355 1.790592  10.5687096774194 2.825856  Z M 14.8174838709677 14.806656  C 15.0652258064516 14.554752  14.9630322580645 14.18304  14.7989032258065 14.023296  L 12.724064516129 11.965056  C 12.5630322580645 11.805312  12.2069032258065 11.719296  11.9374838709677 11.965056  C 11.6835483870968 12.195456  11.7764516129032 12.610176  11.9374838709677 12.76992  L 14.0123225806452 14.82816  C 14.0928387096774 14.908032  14.5170967741935 15.116928  14.8174838709677 14.806656  Z " fill-rule="evenodd" />
    </mask>
  </defs>
  <g transform="matrix(1 0 0 1 -3302 -987 )">
    <path d="M 11.3552903225806 11.359872  C 13.9441935483871 8.79168  13.9441935483871 4.610688  11.3552903225806 2.042496  C 10.1010967741935 0.798336  8.43193548387097 0.11328  6.65748387096774 0.11328  C 4.88303225806452 0.11328  3.21387096774194 0.798336  1.95967741935484 2.042496  C -0.629225806451613 4.610688  -0.629225806451613 8.79168  1.95967741935484 11.359872  C 3.21387096774194 12.604032  4.88303225806452 13.289088  6.65748387096774 13.289088  C 8.43193548387097 13.289088  10.1010967741935 12.604032  11.3552903225806 11.359872  Z M 10.5687096774194 2.825856  C 12.7209677419355 4.963968  12.7209677419355 8.441472  10.5656129032258 10.576512  C 9.522 11.611776  8.13464516129032 12.183168  6.65748387096774 12.183168  C 5.18032258064516 12.183168  3.79296774193548 11.611776  2.74935483870968 10.576512  C 0.597096774193548 8.441472  0.597096774193548 4.963968  2.75245161290323 2.825856  C 3.79606451612903 1.790592  5.18341935483871 1.2192  6.66058064516129 1.2192  C 8.13774193548387 1.2192  9.52509677419355 1.790592  10.5687096774194 2.825856  Z M 14.8174838709677 14.806656  C 15.0652258064516 14.554752  14.9630322580645 14.18304  14.7989032258065 14.023296  L 12.724064516129 11.965056  C 12.5630322580645 11.805312  12.2069032258065 11.719296  11.9374838709677 11.965056  C 11.6835483870968 12.195456  11.7764516129032 12.610176  11.9374838709677 12.76992  L 14.0123225806452 14.82816  C 14.0928387096774 14.908032  14.5170967741935 15.116928  14.8174838709677 14.806656  Z " fill-rule="nonzero" fill="#ffffff" stroke="none" transform="matrix(1 0 0 1 3302 987 )" />
    <path d="M 11.3552903225806 11.359872  C 13.9441935483871 8.79168  13.9441935483871 4.610688  11.3552903225806 2.042496  C 10.1010967741935 0.798336  8.43193548387097 0.11328  6.65748387096774 0.11328  C 4.88303225806452 0.11328  3.21387096774194 0.798336  1.95967741935484 2.042496  C -0.629225806451613 4.610688  -0.629225806451613 8.79168  1.95967741935484 11.359872  C 3.21387096774194 12.604032  4.88303225806452 13.289088  6.65748387096774 13.289088  C 8.43193548387097 13.289088  10.1010967741935 12.604032  11.3552903225806 11.359872  Z " stroke-width="2" stroke="#d7d7d7" fill="none" stroke-opacity="0.549019607843137" transform="matrix(1 0 0 1 3302 987 )" mask="url(#clip441)" />
    <path d="M 10.5687096774194 2.825856  C 12.7209677419355 4.963968  12.7209677419355 8.441472  10.5656129032258 10.576512  C 9.522 11.611776  8.13464516129032 12.183168  6.65748387096774 12.183168  C 5.18032258064516 12.183168  3.79296774193548 11.611776  2.74935483870968 10.576512  C 0.597096774193548 8.441472  0.597096774193548 4.963968  2.75245161290323 2.825856  C 3.79606451612903 1.790592  5.18341935483871 1.2192  6.66058064516129 1.2192  C 8.13774193548387 1.2192  9.52509677419355 1.790592  10.5687096774194 2.825856  Z " stroke-width="2" stroke="#d7d7d7" fill="none" stroke-opacity="0.549019607843137" transform="matrix(1 0 0 1 3302 987 )" mask="url(#clip441)" />
    <path d="M 14.8174838709677 14.806656  C 15.0652258064516 14.554752  14.9630322580645 14.18304  14.7989032258065 14.023296  L 12.724064516129 11.965056  C 12.5630322580645 11.805312  12.2069032258065 11.719296  11.9374838709677 11.965056  C 11.6835483870968 12.195456  11.7764516129032 12.610176  11.9374838709677 12.76992  L 14.0123225806452 14.82816  C 14.0928387096774 14.908032  14.5170967741935 15.116928  14.8174838709677 14.806656  Z " stroke-width="2" stroke="#d7d7d7" fill="none" stroke-opacity="0.549019607843137" transform="matrix(1 0 0 1 3302 987 )" mask="url(#clip441)" />
  </g>
</svg>