<?xml version="1.0" encoding="utf-8"?>
<svg version="1.1" xmlns:xlink="http://www.w3.org/1999/xlink" width="13px" height="13px" xmlns="http://www.w3.org/2000/svg">
  <defs>
    <mask fill="white" id="clip442">
      <path d="M 2.68272727272727 11.6931060606061  C 3.78421464646465 12.4938042929293  5.08835101010101 12.9170265151515  6.45412247474748 12.9170265151515  C 7.32064141414142 12.9170265151515  8.16150505050505 12.7472058080808  8.95338888888889 12.4122588383838  C 9.71797601010101 12.088851010101  10.4045467171717 11.6259886363636  10.9940113636364 11.036523989899  C 11.583476010101 10.4470593434343  12.0463383838384 9.76048863636364  12.3697462121212 8.9958851010101  C 12.7046767676768 8.20400126262626  12.8745138888889 7.36315404040404  12.8745138888889 6.49661868686869  C 12.8745138888889 5.63009974747475  12.7046931818182 4.78923611111111  12.3697462121212 3.99735227272727  C 12.0463383838384 3.23276515151515  11.583476010101 2.54619444444445  10.9940113636364 1.9567297979798  C 10.4045467171717 1.36726515151515  9.71797601010101 0.904402777777779  8.95338888888889 0.580994949494951  C 8.16150505050505 0.246064393939395  7.32064141414142 0.076227272727274  6.45412247474748 0.076227272727274  C 4.78963005050505 0.076227272727274  3.21155808080808 0.710535353535355  2.01061742424243 1.86229924242424  C 0.813402777777779 3.01050126262626  0.113602272727274 4.55356186868687  0.0401489898989908 6.20722095959596  L 1.08751893939394 6.25378787878788  C 1.2152702020202 3.37763636363636  3.57257070707071 1.12464772727273  6.45412247474747 1.12464772727273  C 9.41625126262626 1.12464772727273  11.8261098484848 3.53452272727273  11.8261098484848 6.4966351010101  C 11.8261098484848 9.45874747474748  9.41625126262626 11.8686388888889  6.45412247474748 11.8686388888889  C 5.31128787878788 11.8686388888889  4.22030555555556 11.5147007575758  3.29916035353535 10.8451022727273  L 2.68272727272727 11.6931060606061  Z " fill-rule="evenodd" />
    </mask>
  </defs>
  <g transform="matrix(1 0 0 1 -3203 -988 )">
    <path d="M 2.68272727272727 11.6931060606061  C 3.78421464646465 12.4938042929293  5.08835101010101 12.9170265151515  6.45412247474748 12.9170265151515  C 7.32064141414142 12.9170265151515  8.16150505050505 12.7472058080808  8.95338888888889 12.4122588383838  C 9.71797601010101 12.088851010101  10.4045467171717 11.6259886363636  10.9940113636364 11.036523989899  C 11.583476010101 10.4470593434343  12.0463383838384 9.76048863636364  12.3697462121212 8.9958851010101  C 12.7046767676768 8.20400126262626  12.8745138888889 7.36315404040404  12.8745138888889 6.49661868686869  C 12.8745138888889 5.63009974747475  12.7046931818182 4.78923611111111  12.3697462121212 3.99735227272727  C 12.0463383838384 3.23276515151515  11.583476010101 2.54619444444445  10.9940113636364 1.9567297979798  C 10.4045467171717 1.36726515151515  9.71797601010101 0.904402777777779  8.95338888888889 0.580994949494951  C 8.16150505050505 0.246064393939395  7.32064141414142 0.076227272727274  6.45412247474748 0.076227272727274  C 4.78963005050505 0.076227272727274  3.21155808080808 0.710535353535355  2.01061742424243 1.86229924242424  C 0.813402777777779 3.01050126262626  0.113602272727274 4.55356186868687  0.0401489898989908 6.20722095959596  L 1.08751893939394 6.25378787878788  C 1.2152702020202 3.37763636363636  3.57257070707071 1.12464772727273  6.45412247474747 1.12464772727273  C 9.41625126262626 1.12464772727273  11.8261098484848 3.53452272727273  11.8261098484848 6.4966351010101  C 11.8261098484848 9.45874747474748  9.41625126262626 11.8686388888889  6.45412247474748 11.8686388888889  C 5.31128787878788 11.8686388888889  4.22030555555556 11.5147007575758  3.29916035353535 10.8451022727273  L 2.68272727272727 11.6931060606061  Z " fill-rule="nonzero" fill="#ffffff" stroke="none" transform="matrix(1 0 0 1 3203 988 )" />
    <path d="M 2.68272727272727 11.6931060606061  C 3.78421464646465 12.4938042929293  5.08835101010101 12.9170265151515  6.45412247474748 12.9170265151515  C 7.32064141414142 12.9170265151515  8.16150505050505 12.7472058080808  8.95338888888889 12.4122588383838  C 9.71797601010101 12.088851010101  10.4045467171717 11.6259886363636  10.9940113636364 11.036523989899  C 11.583476010101 10.4470593434343  12.0463383838384 9.76048863636364  12.3697462121212 8.9958851010101  C 12.7046767676768 8.20400126262626  12.8745138888889 7.36315404040404  12.8745138888889 6.49661868686869  C 12.8745138888889 5.63009974747475  12.7046931818182 4.78923611111111  12.3697462121212 3.99735227272727  C 12.0463383838384 3.23276515151515  11.583476010101 2.54619444444445  10.9940113636364 1.9567297979798  C 10.4045467171717 1.36726515151515  9.71797601010101 0.904402777777779  8.95338888888889 0.580994949494951  C 8.16150505050505 0.246064393939395  7.32064141414142 0.076227272727274  6.45412247474748 0.076227272727274  C 4.78963005050505 0.076227272727274  3.21155808080808 0.710535353535355  2.01061742424243 1.86229924242424  C 0.813402777777779 3.01050126262626  0.113602272727274 4.55356186868687  0.0401489898989908 6.20722095959596  L 1.08751893939394 6.25378787878788  C 1.2152702020202 3.37763636363636  3.57257070707071 1.12464772727273  6.45412247474747 1.12464772727273  C 9.41625126262626 1.12464772727273  11.8261098484848 3.53452272727273  11.8261098484848 6.4966351010101  C 11.8261098484848 9.45874747474748  9.41625126262626 11.8686388888889  6.45412247474748 11.8686388888889  C 5.31128787878788 11.8686388888889  4.22030555555556 11.5147007575758  3.29916035353535 10.8451022727273  L 2.68272727272727 11.6931060606061  Z " stroke-width="2" stroke="#d7d7d7" fill="none" stroke-opacity="0.549019607843137" transform="matrix(1 0 0 1 3203 988 )" mask="url(#clip442)" />
  </g>
</svg>