<?xml version="1.0" encoding="utf-8"?>
<svg version="1.1" xmlns:xlink="http://www.w3.org/1999/xlink" width="23px" height="26px" xmlns="http://www.w3.org/2000/svg">
  <defs>
    <filter x="957px" y="434px" width="23px" height="26px" filterUnits="userSpaceOnUse" id="filter18">
      <feOffset dx="0" dy="0" in="SourceAlpha" result="shadowOffsetInner" />
      <feGaussianBlur stdDeviation="2.5" in="shadowOffsetInner" result="shadowGaussian" />
      <feComposite in2="shadowGaussian" operator="atop" in="SourceAlpha" result="shadowComposite" />
      <feColorMatrix type="matrix" values="0 0 0 0 1  0 0 0 0 1  0 0 0 0 1  0 0 0 0.549019607843137 0  " in="shadowComposite" />
    </filter>
    <g id="widget19">
      <path d="M 12.8822265 7.2336027032967  C 12.8843862516234 6.62856791208791  12.4049232694805 6.14274072527473  11.8217926314935 6.14274072527473  L 3.10074993344156 6.14274072527473  L 3.10074993344156 4.66051797802198  C 3.10074993344156 2.64073643956044  4.67952214448052 0.996571296703298  6.62113121428571 0.996571296703298  C 8.56274028409091 0.996571296703298  10.1415124951299 2.64298564835165  10.1415124951299 4.66501637362637  C 10.1415124951299 4.93941876923077  10.3531673100649 5.15984035164835  10.616655974026 5.15984035164835  C 10.880144637987 5.15984035164835  11.0917994529221 4.93941876923077  11.0917994529221 4.66501637362637  C 11.0917994529221 2.09643004395604  9.08539810876623 0.0069233186813199  6.62113121428571 0.0069233186813199  C 5.42679327272727 0.0069233186813199  4.30372686038961 0.490501296703298  3.45926728896104 1.36993848351648  C 2.61480773863636 2.24937564835165  2.15046295454545 3.41671041758242  2.15046295454545 4.66051797802198  L 2.15046297564935 6.14274072527473  L 1.14834216883117 6.14274072527473  C 0.565211530844156 6.14274072527473  0.0987070162337665 6.62856791208791  0.0987070162337665 7.23360268131868  L 0.0987070162337665 14.7481796483516  C 0.0987070162337665 15.3554636263736  0.567371282467533 15.8570352087912  1.14834216883117 15.8570352087912  L 11.819632900974 15.8570352087912  C 12.402763538961 15.8570352087912  12.8822265211039 15.3554636263736  12.8822265211039 14.7481796483516  L 12.8822265 7.2336027032967  Z M 11.9319395422078 14.7594256703297  L 11.9340992727273 14.7594256703297  C 11.9340992727273 14.8201540659341  11.8865849269481 14.8696364615385  11.8282718652597 14.8696364615385  L 1.1548214025974 14.8696364615385  C 1.09650834090909 14.8696364615385  1.04899399512987 14.8201540659341  1.04899399512987 14.7594256703297  L 1.04899397402597 7.24259949450549  C 1.04899397402597 7.1818710989011  1.0965083198052 7.1323887032967  1.15482138149351 7.1323887032967  L 11.8261121136364 7.1323887032967  C 11.8844251753247 7.1323887032967  11.9319395211039 7.1818710989011  11.9319395211039 7.24259949450549  L 11.9319395422078 14.7594256703297  Z M 7.37704128571429 9.71896861538462  C 7.37704130681818 9.15891784615385  6.94293293993507 8.70682865934066  6.4051568961039 8.70682865934066  C 5.86738085227273 8.70682865934066  5.43327248538961 9.15891784615385  5.43327248538961 9.71896863736264  C 5.43327248538961 10.0878374285714  5.62332988961039 10.4117222197802  5.90841596428572 10.589409010989  L 5.90841598538961 12.5529605274725  C 5.90841598538961 12.8251137142857  6.12223055194805 13.0477845054945  6.38355946428572 13.0477845054945  C 6.64488837662338 13.0477845054945  6.85870294318182 12.8251137142857  6.85870294318182 12.5529605274725  L 6.85870294318182 10.6141501978022  C 7.1675462012987 10.4454601978022  7.37704128571429 10.1080802197802  7.37704128571429 9.71896861538462  Z " fill-rule="nonzero" fill="#ffffff" stroke="none" transform="matrix(1 0 0 1 962 439 )" />
    </g>
  </defs>
  <g transform="matrix(1 0 0 1 -957 -434 )">
    <use xlink:href="#widget19" filter="url(#filter18)" />
    <use xlink:href="#widget19" />
  </g>
</svg>