<?xml version="1.0" encoding="utf-8"?>
<svg version="1.1" xmlns:xlink="http://www.w3.org/1999/xlink" width="25px" height="25px" xmlns="http://www.w3.org/2000/svg">
  <defs>
    <filter x="956px" y="345px" width="25px" height="25px" filterUnits="userSpaceOnUse" id="filter20">
      <feOffset dx="0" dy="0" in="SourceAlpha" result="shadowOffsetInner" />
      <feGaussianBlur stdDeviation="2.5" in="shadowOffsetInner" result="shadowGaussian" />
      <feComposite in2="shadowGaussian" operator="atop" in="SourceAlpha" result="shadowComposite" />
      <feColorMatrix type="matrix" values="0 0 0 0 1  0 0 0 0 1  0 0 0 0 1  0 0 0 0.549019607843137 0  " in="shadowComposite" />
    </filter>
    <g id="widget21">
      <path d="M 7.49899999511719 14.9905000048828  C 5.3963515851523 14.9889073759535  3.3905893983899 14.1062631969854  1.96900000488281 12.5569999951172  L 1.6725 12.2385  L 1.96900000488281 11.9200000048828  C 3.39150134637506 10.3720107862554  5.39667487330128 9.4896256495513  7.49899999511719 9.48649999511719  C 9.5955 9.48649999511719  11.6164999951172 10.3734999902344  13.029 11.9200000048828  L 13.3255000048828 12.2385  L 13.0294999951172 12.5569999951172  C 11.6079106016101 14.1062631969854  9.6021484148477 14.9889073759535  7.49950000488281 14.9905000048828  Z M 2.979 12.2385  C 4.19938927656942 13.396010848625  5.81698337770204 14.0417959279717  7.49899999511719 14.043  C 9.18101661759613 14.0417959317182  10.7986107246386 13.396010852105  12.0190000048828 12.2385  C 10.7986107246386 11.080989147895  9.18101661759613 10.4352040682818  7.49899999511719 10.434  C 5.8169145045504 10.43533907662  4.19931130553383 11.0813067247352  2.979 12.2389999951172  Z M 7.50649999511719 8.80399999511719  C 6.18499999511719 8.80399999511719  5.10649999511719 7.72749999023438  5.10649999511719 6.40849999511719  C 5.10649999511719 5.0895  6.18499999511719 4.0125  7.50649999511719 4.0125  C 8.82849999023438 4.0125  9.90699999023438 5.0895  9.90700000488281 6.40849999511719  C 9.90534414171048 7.73256909938523  8.83106988497168 8.80482909189264  7.50700000488281 8.80399999511719  Z M 7.50800078509173 4.96049922305238  C 7.50750052166616 4.96049922305238  7.50700025827461 4.96049948203495  7.50649999511719 4.9605  C 6.70718130006893 4.96241728887827  6.05929613169121 5.60918579673586  6.05599999511719 6.40849999511719  C 6.05929612366176 7.20781419922109  6.70718129437961 7.85458271595769  7.50649999511719 7.85650000488281  C 8.30601388542739 7.85485719371078  8.95420246174386 7.20800877295315  8.95750000488281 6.40849999511719  C 8.95667261235685 5.6085491012581  8.30795210683846 4.96049922305238  7.50800078509173 4.96049922305238  Z M 1.71049999511719 10.563  C 1.20908118094556 9.62007655427668  0.948196435783563 8.56795018223122  0.951 7.5  C 0.951 3.89149999511719  3.891 0.964999995117188  7.49899999511719 0.964999995117188  C 11.1075 0.964999995117188  14.0469999902344 3.89899999511719  14.0470000048828 7.5  C 14.0470000048828 8.56900000488281  13.7815000048828 9.62299999511719  13.2874999951172 10.5555  C 13.5304999951172 10.7830000048828  13.7584999951172 11.0254999951172  13.9714999951172 11.2834999951172  C 14.6458899183083 10.1369093608251  14.9998918221943 8.83021063998274  14.9965000048828 7.5  C 14.9965000048828 3.36850000488281  11.6315000097656 0.0100000048828122  7.49149999511719 0.0100000048828122  C 3.35899999511719 0.0169999951171875  0.0015 3.37549999511719  0.0015 7.5  C 0.0015 8.83450000488281  0.3585 10.146  1.03450000488281 11.2834999951172  C 1.23950000976563 11.0334999902344  1.46750000976563 10.7904999902344  1.71049999511719 10.5634999951172  Z " fill-rule="nonzero" fill="#ffffff" stroke="none" transform="matrix(1 0 0 1 961 350 )" />
    </g>
  </defs>
  <g transform="matrix(1 0 0 1 -956 -345 )">
    <use xlink:href="#widget21" filter="url(#filter20)" />
    <use xlink:href="#widget21" />
  </g>
</svg>