<?xml version="1.0" encoding="utf-8"?>
<svg version="1.1" xmlns:xlink="http://www.w3.org/1999/xlink" width="19px" height="18px" preserveAspectRatio="xMinYMid meet" viewBox="133 2059  19 16" xmlns="http://www.w3.org/2000/svg">
  <defs>
    <mask fill="white" id="clip92">
      <path d="M 441.5 2213  L 474.5 2213  L 474.5 2238  L 441.5 2238  Z M 111 2058  L 935 2058  L 935 2238  L 111 2238  Z " fill-rule="evenodd" />
    </mask>
  </defs>
  <path d="M 935 2168.5  L 914 2168.5  A 5 5 0 0 0 909.5 2173.5 L 909.5 2220  A 5 5 0 0 1 904.5 2225.5 L 119 2225.5  A 5 5 0 0 1 114.5 2220.5 L 114.5 2072  A 5 5 0 0 1 119.5 2067.5 L 141 2067.5  " stroke-width="1" stroke-dasharray="9,4" stroke="#333333" fill="none" mask="url(#clip92)" />
  <path d="M 140 2073.8  L 146 2067.5  L 140 2061.2  L 140 2073.8  Z " fill-rule="nonzero" fill="#333333" stroke="none" mask="url(#clip92)" />
</svg>