<?xml version="1.0" encoding="utf-8"?>
<svg version="1.1" xmlns:xlink="http://www.w3.org/1999/xlink" width="14px" height="14px" xmlns="http://www.w3.org/2000/svg">
  <g transform="matrix(1 0 0 1 -1469 -550 )">
    <path d="M 13.496875 6.874  C 13.496875 3.28587501594306  10.5881249840569 0.377125000000001  7 0.377125  C 3.41187501594306 0.377125000000001  0.503124999999999 3.28587501594306  0.503124999999999 6.874  C 0.503124999999999 10.4621249840569  3.41187501594306 13.370875  7 13.370875  C 10.5881249840569 13.370875  13.496875 10.4621249840569  13.496875 6.874  Z M 7.4095 10.07125  L 7.4095 10.063375  C 7.27969040458975 10.1858884076348  7.10761474519899 10.2535903064115  6.929125 10.252375  C 6.74868712076757 10.2558822036419  6.57482885480806 10.1846288159536  6.44875 10.0555  C 6.32083790126609 9.93184519007884  6.24960894935624 9.76089570549519  6.251875 9.583  C 6.24454839761148 9.40416268737917  6.31660595740395 9.23122454387726  6.44875 9.1105  C 6.57616090689792 8.98425865692355  6.74985063306451 8.91592171548095  6.929125 8.9215  C 7.11094140557092 8.91467289671122  7.28754274795964 8.98303470666815  7.417375 9.1105  C 7.54951904259605 9.23122454387726  7.62157660238852 9.40416268737917  7.61425 9.583  C 7.61694595213012 9.76715688340366  7.54274393107115 9.94410016439043  7.4095 10.07125  Z M 8.74825 6.44875  L 8.74825 6.440875  C 8.49957455070723 6.6969830188165  8.23665733515691 6.93886685712279  7.96075 7.165375  C 7.79881959656254 7.2956309262404  7.66715232677681 7.45954324168794  7.574875 7.64575  C 7.47294691096026 7.83420285891476  7.42140823432876 8.04578268929668  7.42525 8.26  L 7.42525 8.4175  L 6.440875 8.4175  L 6.440875 8.26  C 6.42983483223884 7.95488253885597  6.49478047264666 7.65180288361949  6.629875 7.378  C 6.91025386657904 6.93522796608856  7.26142413581383 6.54149160361319  7.669375 6.2125  L 7.826875 6.03925  C 7.98795758347995 5.84959879490686  8.07961831041831 5.61072538530992  8.08675 5.362  C 8.08213668231877 5.09136165784418  7.97521879271611 4.8325078198588  7.7875 4.6375  C 7.57305031554711 4.44295083413974  7.2889657142179 4.34352122367452  7 4.361875  C 6.64938883972405 4.33255977742179  6.30801239453616 4.48395280963555  6.094375 4.7635  C 5.91222299466581 5.04377752936792  5.82396642908425 5.37473965029876  5.842375 5.7085  L 4.897375 5.7085  C 4.87097232262624 5.12634733855871  5.08116192470064 4.55826733295224  5.480125 4.1335  C 5.91372089110598 3.72233403921481  6.49793664784046 3.50859656723878  7.0945 3.542875  C 7.62728288315756 3.49729670827161  8.15723427340142 3.65797345956895  8.575 3.99175  C 8.95440739836812 4.32701971348594  9.16025021354035 4.81698359748743  9.134125 5.322625  C 9.13729789525202 5.73095796372534  9.00118840556479 6.12817545403706  8.74825 6.44875  Z " fill-rule="nonzero" fill="#555555" stroke="none" transform="matrix(1 0 0 1 1469 550 )" />
  </g>
</svg>