<?xml version="1.0" encoding="utf-8"?>
<svg version="1.1" xmlns:xlink="http://www.w3.org/1999/xlink" width="259px" height="100px" xmlns="http://www.w3.org/2000/svg">
  <g transform="matrix(1 0 0 1 -897 -71 )">
    <path d="M 898 76  A 4 4 0 0 1 902 72 L 1151 72  A 4 4 0 0 1 1155 76 L 1155 166  A 4 4 0 0 1 1151 170 L 902 170  A 4 4 0 0 1 898 166 L 898 76  Z " fill-rule="nonzero" fill="#ffffff" stroke="none" />
    <path d="M 897.5 76  A 4.5 4.5 0 0 1 902 71.5 L 1151 71.5  A 4.5 4.5 0 0 1 1155.5 76 L 1155.5 166  A 4.5 4.5 0 0 1 1151 170.5 L 902 170.5  A 4.5 4.5 0 0 1 897.5 166 L 897.5 76  Z " stroke-width="1" stroke-dasharray="3,1" stroke="#d9001b" fill="none" stroke-dashoffset="0.5" />
  </g>
</svg>