<?xml version="1.0" encoding="utf-8"?>
<svg version="1.1" xmlns:xlink="http://www.w3.org/1999/xlink" width="211px" height="175px" xmlns="http://www.w3.org/2000/svg">
  <g transform="matrix(1 0 0 1 -31 -28 )">
    <path d="M 31 28  L 242 28  L 242 203  L 31 203  L 31 28  " fill-rule="nonzero" fill="#cccccc" stroke="none" />
    <path d="M 43 40  L 230 40  L 230 191  L 43 191  L 43 40  " fill-rule="nonzero" fill="#ffffff" stroke="none" />
    <path d="M 153.845 80.5  C 146.495 80.5  140.72 74.725  140.72 67.375  C 140.72 60.025  146.495 54.25  153.845 54.25  C 161.195 54.25  166.97 60.025  166.97 67.375  C 166.97 74.725  161.195 80.5  153.845 80.5  " fill-rule="nonzero" fill="#cccccc" stroke="none" />
    <path d="M 48 187  L 48 108.9  L 92.5 73.4  L 154.8 116.336492890995  L 190.4 94.7  L 226 116.336492890995  L 226 187  L 48 187  " fill-rule="nonzero" fill="#169bd5" stroke="none" />
  </g>
</svg>