<?xml version="1.0" encoding="utf-8"?>
<svg version="1.1" xmlns:xlink="http://www.w3.org/1999/xlink" width="16px" height="11px" xmlns="http://www.w3.org/2000/svg">
  <g transform="matrix(1 0 0 1 -37 -339 )">
    <path d="M 15.9416071428571 5.71891447368421  C 15.9951785714286 5.55463815789473  15.9951785714286 5.44536184210526  15.9416071428571 5.28108552631579  C 14.5369642857143 2.10646381578947  11.4575 0.0264144736842107  8 0.0264144736842107  C 4.5425 0.0264144736842107  1.46303571428571 2.10646381578947  0.0583928571428571 5.28108552631579  C 0.0048214285714285 5.44536184210526  0.0048214285714285 5.55463815789474  0.0583928571428571 5.71891447368421  C 1.46303571428571 8.89353618421053  4.54232142857143 10.9735855263158  8 10.9735855263158  C 11.4576785714286 10.9735855263158  14.5369642857143 8.89299342105263  15.9416071428571 5.71891447368421  Z M 11.0273214285714 5.5  C 11.0273214285714 7.18690789473684  9.665 8.56715460526316  8 8.56715460526316  C 6.335 8.56715460526316  4.97267857142857 7.18690789473684  4.97267857142857 5.5  C 4.97267857142857 3.81309210526316  6.335 2.43284539473684  8 2.43284539473684  C 9.665 2.43284539473684  11.0273214285714 3.81309210526316  11.0273214285714 5.5  Z " fill-rule="nonzero" fill="#7f7f7f" stroke="none" transform="matrix(1 0 0 1 37 339 )" />
  </g>
</svg>