<?xml version="1.0" encoding="utf-8"?>
<svg version="1.1" xmlns:xlink="http://www.w3.org/1999/xlink" width="13px" height="13px" xmlns="http://www.w3.org/2000/svg">
  <g transform="matrix(1 0 0 1 -77 -338 )">
    <path d="M 5.82721210186588 10.6090920110878  L 5.82721210186588 8.01392310554692  L 8.53254214714774 8.01392310554692  C 8.53569376767323 8.01399767200408  8.53884610126992 8.01403495884736  8.5419985367453 8.01403495884736  C 8.77169755020728 8.01403495884736  8.95790539191802 7.82031873642248  8.95790539191802 7.58135766596606  C 8.95790539191802 7.34239659550965  8.77169755020728 7.14868037308477  8.5419985367453 7.14868037308477  C 8.53884610126992 7.14868037308477  8.53569376767323 7.14871765992805  8.53254214714774 7.14879222638521  L 5.82721210186588 7.14879222638521  L 5.82721210186588 4.55362332084438  C 5.82709350033388 4.31474955502319  5.64092042553191 4.12116951581112  5.41130530217435 4.12116951581112  C 5.18104496459984 4.1211696893613  4.99487191680914 4.31474962284101  4.99475322321043 4.55362332084438  L 4.99475322321043 7.14879222638521  L 2.28942319010914 7.14879222638521  C 2.28627156958365 7.14871765992805  2.28311923598696 7.14868037308477  2.27996680051158 7.14868037308477  C 2.0502677870496 7.14868037308477  1.86405994533886 7.34239659550966  1.86405994533886 7.58135766596607  C 1.86405994533886 7.82031873642248  2.0502677870496 8.01403495884736  2.27996680051158 8.01403495884736  C 2.28311923598696 8.01403495884736  2.28627156958365 8.01399767200409  2.28942319010914 8.01392310554692  L 4.99475322321043 8.01392310554692  L 4.99475322321043 10.6090920110878  C 4.99475322321043 10.8482384236563  5.18110549076683 11.0421048955497  5.41098266253815 11.0421048955497  C 5.64085983430948 11.0421048955497  5.82721210186588 10.8482384236563  5.82721210186588 10.6090920110878  Z M 10.6137968434167 8.90925637795851  L 10.6137968434167 12.3391300374669  C 10.6137968434167 12.6975318095586  10.3342317371222 12.9879222638521  9.98950645860143 12.9879222638521  L 0.624290396995849 12.9879222638521  C 0.279707027572597 12.9880458826308  0.000237457131948383 12.6976078337907  0 12.3391300374669  L 0 3.03970021529745  C 0 2.6815221624783  0.279565106294515 2.39090798891224  0.62429039699585 2.39090798891224  L 9.98950645860143 2.39090798891224  C 10.3340898232689 2.39078437713193  10.6135593862857 2.68122242392363  10.6137968434167 3.03970021529745  L 10.6137968434167 8.90948009723111  Z M 4.16229435673555 0.0120777361479177  L 12.278714588547 0.0120777361479177  C 12.6234398792484 0.0120777361479177  12.9030049855429 0.295980268177526  12.9030049855429 0.646104351152944  L 12.9030049855429 8.67748094331232  C 12.9030049855429 9.02760502628773  12.6234398792484 9.31150755831734  12.278714588547 9.31150755831734  L 11.9664618721479 9.31150755831734  C 11.6217365936272 9.31150755831734  11.3421714751521 9.02738130701514  11.3421714751521 8.67748094331232  L 11.3421714751521 2.23117086965792  C 11.3421714751521 1.88104678668251  11.0626063688576 1.5971442546529  10.7178810903368 1.59714426732462  L 4.16229435673555 1.59714426732462  C 3.81735401805126 1.59714426732462  3.5380039597397 1.31324173529501  3.53800397192027 0.963117652319595  L 3.53800397192027 0.646104351152944  C 3.53800397192027 0.295980268177526  3.81756907821479 0.0120777361479177  4.16229435673555 0.0120777361479177  Z " fill-rule="nonzero" fill="#7f7f7f" stroke="none" transform="matrix(1 0 0 1 77 338 )" />
  </g>
</svg>