<?xml version="1.0" encoding="utf-8"?>
<svg version="1.1" xmlns:xlink="http://www.w3.org/1999/xlink" width="20px" height="20px" xmlns="http://www.w3.org/2000/svg">
  <g transform="matrix(1 0 0 1 -97 -335 )">
    <path d="M 107 335  C 112.6 335  117 339.4  117 345  C 117 350.6  112.6 355  107 355  C 101.4 355  97 350.6  97 345  C 97 339.4  101.4 335  107 335  Z " fill-rule="nonzero" fill="#ffffff" stroke="none" />
    <path d="M 107 335.5  C 112.32 335.5  116.5 339.68  116.5 345  C 116.5 350.32  112.32 354.5  107 354.5  C 101.68 354.5  97.5 350.32  97.5 345  C 97.5 339.68  101.68 335.5  107 335.5  Z " stroke-width="1" stroke="#797979" fill="none" />
  </g>
</svg>