<?xml version="1.0" encoding="utf-8"?>
<svg version="1.1" xmlns:xlink="http://www.w3.org/1999/xlink" width="11px" height="13px" xmlns="http://www.w3.org/2000/svg">
  <g transform="matrix(1 0 0 1 -930 -162 )">
    <path d="M 10.859375 11.0765625  C 10.7671875 11.259375  10.5796875 11.375  10.375 11.375  L 0.625 11.375  C 0.4203125 11.375  0.2328125 11.259375  0.140625 11.0765625  C 0.0484374999999999 10.89375  0.0671875000000002 10.675  0.1890625 10.5109375  L 1.4015625 8.871875  L 1.4015625 5.6875  C 1.4015625 3.446875  3.240625 1.625  5.5 1.625  C 7.759375 1.625  9.5984375 3.446875  9.5984375 5.6875  L 9.5984375 8.871875  L 10.8109375 10.5109375  C 10.9328125 10.675  10.9515625 10.89375  10.859375 11.0765625  Z M 2.378125 9.371875  L 1.6984375 10.2921875  L 9.3 10.2921875  L 8.6203125 9.3734375  C 8.5515625 9.2796875  8.5140625 9.1671875  8.5140625 9.0515625  L 8.5140625 5.6875  C 8.5140625 4.0453125  7.1609375 2.7078125  5.4984375 2.7078125  C 3.8359375 2.7078125  2.484375 4.0453125  2.484375 5.6875  L 2.484375 9.05  C 2.484375 9.165625  2.446875 9.278125  2.378125 9.371875  Z M 7.3953125 12.4578125  C 7.3953125 12.7578125  7.153125 13  6.8546875 13  L 4.1453125 13  C 3.846875 13  3.603125 12.7578125  3.603125 12.4578125  C 3.603125 12.1578125  3.8453125 11.915625  4.1453125 11.915625  L 6.853125 11.915625  C 7.1515625 11.915625  7.3953125 12.1578125  7.3953125 12.4578125  Z M 6.3140625 0.5421875  C 6.3140625 0.8421875  6.0703125 1.0828125  5.7703125 1.0828125  L 5.228125 1.0828125  C 4.9296875 1.0828125  4.6859375 0.840625  4.6859375 0.540625  C 4.6859375 0.240625000000001  4.9296875 0  5.2296875 0  L 5.771875 0  C 6.0703125 0  6.3140625 0.2421875  6.3140625 0.5421875  Z " fill-rule="nonzero" fill="#000000" stroke="none" transform="matrix(1 0 0 1 930 162 )" />
  </g>
</svg>