<?xml version="1.0" encoding="utf-8"?>
<svg version="1.1" xmlns:xlink="http://www.w3.org/1999/xlink" width="20px" height="14px" xmlns="http://www.w3.org/2000/svg">
  <g transform="matrix(1 0 0 1 -1031 -30 )">
    <path d="M 19.8745 9.10865454545455  C 19.875 11.7956363636364  17.727 13.9826909090909  15.087 14  L 3.8875 14  C 1.813 13.9826909090909  0.125 12.2645090909091  0.125 10.1522909090909  C 0.125 8.04007272727273  1.813 6.32138181818182  3.8875 6.32138181818182  C 4.1515 6.32138181818182  4.4145 6.34989090909091  4.6715 6.40589090909091  C 4.66464030999339 6.29572495885304  4.66113862604064 6.18536885852386  4.661 6.07498181818182  C 4.661 2.73483636363637  7.33 0.0178181818181832  10.61 0.0178181818181832  C 12.9205 0.0178181818181832  15.039 1.40101818181818  16.008 3.54174545454546  C 16.025088323272 3.57686941673735  16.0339790013516 3.61553706745383  16.0339790013516 3.65473424361567  C 16.0339790013516 3.79531581629987  15.9220501888093 3.90927969816112  15.7839790013516 3.90927969816112  C 15.6837937597866 3.90927969816112  15.5932841832346 3.84838313462512  15.554 3.75454545454546  C 14.6629207691013 1.79107956033177  12.7343208458273 0.532014179412385  10.61 0.526909090909093  C 7.605 0.526909090909093  5.161 3.01585454545455  5.161 6.07498181818182  C 5.161 6.26996363636364  5.1735 6.47970909090909  5.2 6.71643636363637  L 5.243 7.1064  L 4.876 6.98778181818182  C 4.55622260942906 6.88400649062568  4.22262731724936 6.83111696401923  3.887 6.83098181818182  C 2.088 6.83098181818182  0.624499999999999 8.3216  0.624499999999999 10.1528  C 0.624499999999999 11.984  2.0885 13.4741090909091  3.887 13.4741090909091  L 15.086 13.4741090909091  C 17.4505 13.4741090909091  19.374 11.5156363636364  19.374 9.10865454545455  C 19.3753968665863 7.80891093053262  18.8059255206694 6.57661862161435  17.8215 5.74916363636364  C 17.7640975892983 5.70100338409033  17.7308463041866 5.6292366959064  17.7308463041866 5.55350456639665  C 17.7308463041866 5.49422764305155  17.7512461017758 5.43682461564879  17.7885 5.39127272727273  C 17.8358002477684 5.33282663637647  17.9062853879491 5.29897078244458  17.9806651580033 5.29897078244458  C 18.0388835648601 5.29897078244458  18.0952615382021 5.31974148544445  18.14 5.35767272727273  C 19.2399346305958 6.28103389126189  19.8762710932179 7.65715755891346  19.8745 9.10865454545455  Z " fill-rule="nonzero" fill="#02a7f0" stroke="none" transform="matrix(1 0 0 1 1031 30 )" />
  </g>
</svg>