<?xml version="1.0" encoding="utf-8"?>
<svg version="1.1" xmlns:xlink="http://www.w3.org/1999/xlink" width="11px" height="8px" xmlns="http://www.w3.org/2000/svg">
  <g transform="matrix(1 0 0 1 -1038 -33 )">
    <path d="M 10.9604637681159 1.277184  C 10.9604637681159 1.953024  10.412568115942 2.5024  9.73968695652174 2.5024  C 9.06680579710145 2.5024  8.51891014492753 1.953024  8.51891014492753 1.277184  C 8.51891014492753 0.601343999999999  9.06629565217391 0.0519679999999994  9.73968695652174 0.0519679999999994  C 10.4130782608696 0.0519679999999994  10.9604637681159 0.601343999999999  10.9604637681159 1.277184  Z M 10.4503188405797 1.277184  C 10.4494770731968 0.883636150415266  10.1318089081007 0.564812828355214  9.73968695652174 0.563968  C 9.34789565217391 0.563968  9.02905507246377 0.883968  9.02905507246377 1.277184  C 9.02905507246377 1.6704  9.34789565217391 1.9904  9.73968695652174 1.9904  C 10.1314782608696 1.9904  10.4503188405797 1.6704  10.4503188405797 1.277184  Z M 6.97929275362319 2.2464  L 0.134678260869565 2.2464  L 0.134678260869565 3.68  L 6.97929275362319 3.68  L 6.97929275362319 2.2464  Z M 3.31900289855072 2.753792  L 3.31900289855072 3.172096  L 0.700428985507245 3.172096  L 0.700428985507245 2.753792  L 3.31900289855072 2.753792  Z M 6.97929275362319 6.487296  L 0.134678260869565 6.487296  L 0.134678260869565 7.920896  L 6.97929275362319 7.920896  L 6.97929275362319 6.487296  Z M 3.31900289855072 6.9952  L 3.31900289855072 7.413504  L 0.700428985507245 7.413504  L 0.700428985507245 6.9952  L 3.31900289855072 6.9952  Z M 6.97929275362319 4.367104  L 0.134678260869565 4.367104  L 0.134678260869565 5.800704  L 6.97929275362319 5.800704  L 6.97929275362319 4.367104  Z M 3.79496811594203 5.2928  L 3.79496811594203 4.874496  L 6.41354202898551 4.874496  L 6.41354202898551 5.2928  L 3.79496811594203 5.2928  Z " fill-rule="nonzero" fill="#02a7f0" stroke="none" transform="matrix(1 0 0 1 1038 33 )" />
  </g>
</svg>