<?xml version="1.0" encoding="utf-8"?>
<svg version="1.1" xmlns:xlink="http://www.w3.org/1999/xlink" width="6px" height="9px" xmlns="http://www.w3.org/2000/svg">
  <defs>
    <mask fill="white" id="clip2098">
      <path d="M 5.49 5.221875  C 5.9125 4.8234375  5.9125 4.1765625  5.4875 3.778125  L 1.9 0.41484375  C 1.6875 0.215625  1.41 0.1171875  1.13 0.1171875  C 0.852499999999999 0.1171875  0.572499999999999 0.215625  0.359999999999999 0.41484375  C -0.0650000000000006 0.81328125  -0.0650000000000006 1.4578125  0.359999999999999 1.85625  L 3.1825 4.5  L 0.3625 7.14375  C -0.0625 7.5421875  -0.0625 8.18671875  0.3625 8.58515625  C 0.575 8.784375  0.8525 8.8828125  1.1325 8.8828125  C 1.41 8.8828125  1.69 8.784375  1.9025 8.58515625  L 5.49 5.221875  Z " fill-rule="evenodd" />
    </mask>
  </defs>
  <g transform="matrix(1 0 0 1 -620 -364 )">
    <path d="M 5.49 5.221875  C 5.9125 4.8234375  5.9125 4.1765625  5.4875 3.778125  L 1.9 0.41484375  C 1.6875 0.215625  1.41 0.1171875  1.13 0.1171875  C 0.852499999999999 0.1171875  0.572499999999999 0.215625  0.359999999999999 0.41484375  C -0.0650000000000006 0.81328125  -0.0650000000000006 1.4578125  0.359999999999999 1.85625  L 3.1825 4.5  L 0.3625 7.14375  C -0.0625 7.5421875  -0.0625 8.18671875  0.3625 8.58515625  C 0.575 8.784375  0.8525 8.8828125  1.1325 8.8828125  C 1.41 8.8828125  1.69 8.784375  1.9025 8.58515625  L 5.49 5.221875  Z " fill-rule="nonzero" fill="#ffffff" stroke="none" transform="matrix(1 0 0 1 620 364 )" />
    <path d="M 5.49 5.221875  C 5.9125 4.8234375  5.9125 4.1765625  5.4875 3.778125  L 1.9 0.41484375  C 1.6875 0.215625  1.41 0.1171875  1.13 0.1171875  C 0.852499999999999 0.1171875  0.572499999999999 0.215625  0.359999999999999 0.41484375  C -0.0650000000000006 0.81328125  -0.0650000000000006 1.4578125  0.359999999999999 1.85625  L 3.1825 4.5  L 0.3625 7.14375  C -0.0625 7.5421875  -0.0625 8.18671875  0.3625 8.58515625  C 0.575 8.784375  0.8525 8.8828125  1.1325 8.8828125  C 1.41 8.8828125  1.69 8.784375  1.9025 8.58515625  L 5.49 5.221875  Z " stroke-width="2" stroke="#d7d7d7" fill="none" stroke-opacity="0.658823529411765" transform="matrix(1 0 0 1 620 364 )" mask="url(#clip2098)" />
  </g>
</svg>