<?xml version="1.0" encoding="utf-8"?>
<svg version="1.1" xmlns:xlink="http://www.w3.org/1999/xlink" width="20px" height="15px" xmlns="http://www.w3.org/2000/svg">
  <g transform="matrix(1 0 0 1 -1129 -205 )">
    <path d="M 9.98942200195313 14.29227734375  L 10.0207462207031 14.29227734375  C 14.2725255175781 14.264046875  17.6800011035156 13.4613798828125  18.8346143847656 13.153390625  C 19.1098614550781 13.0799140625  19.2571046191406 12.94830078125  19.2571046191406 12.94830078125  C 19.2580714160156 12.91053125  19.2745714160156 12.27308984375  19.2745714160156 11.9442822265625  C 19.2745714160156 6.4067275390625  16.5948682910156 0.8424892578125  10.0050196582031 0.842134765625  C 3.41520325195313 0.8424892578125  0.735371220703125 6.4066953125  0.735371220703125 11.9442822265625  C 0.735371220703125 12.27308984375  0.752000126953124 12.91053125  0.752999150390624 12.94830078125  C 0.752999150390624 12.94830078125  0.872785283203125 13.0714384765625  1.09231262695312 13.131025390625  C 2.15830286132812 13.420419921875  5.62990930664062 14.2634345703125  9.98942200195313 14.29227734375  Z " fill-rule="nonzero" fill="#000000" stroke="none" transform="matrix(1 0 0 1 1129 205 )" />
  </g>
</svg>