<?xml version="1.0" encoding="utf-8"?>
<svg version="1.1" xmlns:xlink="http://www.w3.org/1999/xlink" width="26px" height="14px" xmlns="http://www.w3.org/2000/svg">
  <g transform="matrix(1 0 0 1 -1126 -221 )">
    <path d="M 25.2596534472656 8.6780927734375  C 25.5674171191406 8.6409033203125  25.9716348925781 6.9820087890625  24.7239512988281 2.973443359375  C 24.4622716113281 2.13278125  24.1050723925781 1.15244921875  23.7433936816406 0.210982421875002  C 23.7433936816406 0.210982421875002  23.5353389941406 0.185362304687501  23.4302159472656 0.215751953125  C 20.1846788378906 1.1569287109375  16.2510079394531 1.75676171875  13.2533253222656 1.7205712890625  L 13.2223233691406 1.7205712890625  C 10.2414307910156 1.7564072265625  6.33444348632812 1.1634384765625  3.09983118164062 0.231478515625  C 2.97624231445313 0.195932617187502  2.73222278320313 0.211014648437498  2.73222278320313 0.211014648437498  C 2.37054407226563 1.15244921875  2.01337708007812 2.13278125  1.75172961914063 2.973443359375  C 0.503981572265625 6.9819765625  0.908199345703125 8.64087109375  1.21602747070312 8.678060546875  C 1.87654309570313 8.7577890625  3.78706262695313 5.6604619140625  3.78706262695313 5.6604619140625  C 3.78706262695313 8.8077080078125  6.63344153320313 13.640306640625  13.1513282519531 13.6847470703125  C 13.2089813709352 13.6845315952838  13.2666350939085 13.6845315952838  13.3242882128906 13.6847470703125  C 19.8422393847656 13.640306640625  22.6885216113281 8.807740234375  22.6885216113281 5.660494140625  C 22.6885216113281 5.660494140625  24.5990411425781 8.7578212890625  25.2596534472656 8.6780927734375  Z " fill-rule="nonzero" fill="#000000" stroke="none" transform="matrix(1 0 0 1 1126 221 )" />
  </g>
</svg>