<?xml version="1.0" encoding="utf-8"?>
<svg version="1.1" xmlns:xlink="http://www.w3.org/1999/xlink" width="10px" height="7px" xmlns="http://www.w3.org/2000/svg">
  <g transform="matrix(1 0 0 1 -1135 -209 )">
    <path d="M 3.53721887695313 2.8143291015625  C 3.58642883789063 4.099427734375  2.89742493164063 5.1733134765625  1.99865833007813 5.2131455078125  C 1.09953723632812 5.2531064453125  0.331094853515625 4.2429326171875  0.282916142578125 2.9587041015625  C 0.233996220703126 1.67360546875  0.922871220703124 0.599494140624999  1.82218567382813 0.559307617187498  C 2.72050110351563 0.519862304687499  3.48839563476562 1.5296171875  3.53721887695313 2.8143291015625  Z M 8.65892200195312 2.9587041015625  C 8.61077551757812 4.2429326171875  7.84230090820312 5.2530419921875  6.94317981445312 5.2131455078125  C 6.04444543945312 5.1732490234375  5.35540930664062 4.099427734375  5.40461926757812 2.814361328125  C 5.45337805664063 1.529552734375  6.22127258789062 0.519797851562497  7.11958801757812 0.559339843749997  C 8.01899915039062 0.599526367187498  8.70787415039062 1.67360546875  8.65895422851563 2.9587041015625  Z " fill-rule="nonzero" fill="#ffffff" stroke="none" transform="matrix(1 0 0 1 1135 209 )" />
  </g>
</svg>