<?xml version="1.0" encoding="utf-8"?>
<svg version="1.1" xmlns:xlink="http://www.w3.org/1999/xlink" width="13px" height="4px" xmlns="http://www.w3.org/2000/svg">
  <g transform="matrix(1 0 0 1 -1133 -214 )">
    <path d="M 12.0582315722656 1.9600830078125  C 12.0582315722656 1.93117578125  12.0517862597656 1.9041376953125  12.0411192675781 1.8795810546875  C 11.8051241503906 1.312103515625  9.42876965820312 0.679882812500001  6.48677454101562 0.679882812500001  L 6.45519250976562 0.679882812500001  C 3.51322961914062 0.679882812500001  1.13681067382812 1.312103515625  0.900880009765622 1.8795810546875  C 0.889615870360389 1.90500959792032  0.883745290393605 1.93249707982087  0.883638798828121 1.96030859375  C 0.883638798828121 2.0012041015625  0.896303837890621 2.038103515625  0.91605872070312 2.069427734375  C 1.11483215820312 2.3841201171875  3.75373645507812 3.9391484375  6.45522473632812 3.9391484375  L 6.48680676757812 3.9391484375  C 9.18826282226562 3.9391484375  11.8270704394531 2.384216796875  12.0259405566406 2.0694921875  C 12.0468538081605 2.03681892493598  12.0580523640575 1.99887571408741  12.0582315722656 1.9600830078125  Z " fill-rule="nonzero" fill="#faad08" stroke="none" transform="matrix(1 0 0 1 1133 214 )" />
  </g>
</svg>