<?xml version="1.0" encoding="utf-8"?>
<svg version="1.1" xmlns:xlink="http://www.w3.org/1999/xlink" width="7px" height="3px" xmlns="http://www.w3.org/2000/svg">
  <g transform="matrix(1 0 0 1 -1136 -211 )">
    <path d="M 1.30149133789062 0.425096679687499  C 1.68585754882812 0.375177734374999  2.03003723632813 0.750198242187499  2.07015930664063 1.2621494140625  C 2.11076477539063 1.7741005859375  1.83242395507813 2.2289462890625  1.44928235351563 2.2786396484375  C 1.06556067382813 2.3283974609375  0.721961064453124 1.95369921875  0.681130009765624 1.4414580078125  C 0.641072392578124 0.929216796874999  0.918994267578126 0.474403320312499  1.30149133789062 0.425096679687499  Z M 4.49659387695313 1.7800302734375  C 4.41029114257812 1.7209267578125  4.37458411132813 1.601076171875  4.42582434570312 1.5178671875  C 4.50745422851563 1.385158203125  5.06478040039062 0.687388671874999  6.21826575195313 0.941462890624999  C 6.52122766601562 1.008171875  6.66138098632813 1.106333984375  6.69096497070312 1.145005859375  C 6.73463196289062 1.202046875  6.74658801757813 1.2832578125  6.70230872070313 1.392634765625  C 6.61458801757813 1.6093583984375  6.43360364257813 1.6034609375  6.33318567382813 1.56105078125  C 6.26841028320313 1.533658203125  5.46500208007813 1.0490029296875  4.72491907226563 1.7722314453125  C 4.67403333007813 1.822021484375  4.58296106445313 1.8390693359375  4.49659387695313 1.7800302734375  Z " fill-rule="nonzero" fill="#000000" stroke="none" transform="matrix(1 0 0 1 1136 211 )" />
  </g>
</svg>