<?xml version="1.0" encoding="utf-8"?>
<svg version="1.1" xmlns:xlink="http://www.w3.org/1999/xlink" width="33px" height="26px" xmlns="http://www.w3.org/2000/svg">
  <g transform="matrix(1 0 0 1 -1189 -208 )">
    <path d="M 22.012611328125 7.7528662109375  C 22.367103515625 7.7528662109375  22.721595703125 7.7856083984375  23.0742509765625 7.8165458984375  C 22.12559765625 3.414171875  17.366765625 0.125  11.9457744140625 0.125  C 5.8838291015625 0.14626953125  0.916652343749999 4.2433291015625  0.916652343749999 9.445759765625  C 0.916652343749999 12.445021484375  2.5724208984375 14.9187001953125  5.3228291015625 16.833892578125  L 4.21265625 20.119326171875  L 8.07326953125 18.206099609375  C 9.456369140625 18.4766416015625  10.566638671875 18.74718359375  11.932142578125 18.74718359375  C 12.286634765625 18.74718359375  12.623724609375 18.73171484375  12.96062109375 18.700712890625  C 12.7416847622103 17.9536209385048  12.6282774299733 17.1795874221235  12.6236923828125 16.40108984375  C 12.639322265625 11.631494140625  16.7726689453125 7.7547998046875  22.014609375 7.7547998046875  L 22.01267578125 7.7528662109375  Z M 14.4234814453125 6.1602939453125  C 14.4234814453125 5.3293642578125  15.2591162109375 4.7882802734375  16.0792822265625 4.7882802734375  C 16.9168505859375 4.7882802734375  17.462220703125 5.3293642578125  17.462220703125 6.160326171875  C 17.462220703125 6.972048828125  16.9168505859375 7.5325009765625  16.0792822265625 7.5325009765625  C 15.2591162109375 7.5325009765625  14.4234814453125 6.9894833984375  14.4234814453125 6.1602939453125  Z M 9.7427021484375 6.160326171875  C 9.7427021484375 6.972048828125  9.1972998046875 7.5325009765625  8.3596025390625 7.5325009765625  C 7.5415634765625 7.5325009765625  6.7039951171875 6.9894833984375  6.7039951171875 6.1602939453125  C 6.7039951171875 5.3293642578125  7.5415634765625 4.7882802734375  8.3596025390625 4.7882802734375  C 9.1797685546875 4.7882802734375  9.7427021484375 5.3293642578125  9.7427021484375 6.160326171875  Z M 28.206943359375 22.6044775390625  C 30.4275791015625 20.9309521484375  32.08334765625 18.743251953125  32.08334765625 16.2870078125  C 32.08334765625 11.9155712890625  27.6771708984375 8.3422900390625  22.7059658203125 8.3422900390625  C 17.464154296875 8.3422900390625  13.3306787109375 11.9155712890625  13.3306787109375 16.2870078125  C 13.3306787109375 20.6739453125  17.464154296875 24.2336591796875  22.7059658203125 24.2336591796875  C 23.8007666015625 24.2336591796875  24.91100390625 23.9631171875  26.0194365234375 23.6906416015625  L 29.042578125 25.333326171875  L 28.206943359375 22.6044775390625  Z M 19.6672587890625 14.91480078125  C 19.121888671875 14.91480078125  18.5569892578125 14.373716796875  18.5569892578125 13.8133291015625  C 18.5569892578125 13.2722451171875  19.121888671875 12.7118251953125  19.6672587890625 12.7118251953125  C 20.5048271484375 12.7118251953125  21.0503583984375 13.2548427734375  21.0503583984375 13.8133291015625  C 21.0503583984375 14.3737490234375  20.5048271484375 14.9148330078125  19.6672587890625 14.9148330078125  Z M 25.731169921875 14.91480078125  C 25.183833984375 14.91480078125  24.636369140625 14.373716796875  24.636369140625 13.8133291015625  C 24.636369140625 13.2722451171875  25.1818681640625 12.7118251953125  25.731169921875 12.7118251953125  C 26.5668046875 12.7118251953125  27.1141083984375 13.2548427734375  27.1141083984375 13.8133291015625  C 27.1141083984375 14.3737490234375  26.5668046875 14.9148330078125  25.731169921875 14.9148330078125  Z " fill-rule="nonzero" fill="#09bb07" stroke="none" transform="matrix(1 0 0 1 1189 208 )" />
  </g>
</svg>