<?xml version="1.0" encoding="utf-8"?>
<svg version="1.1" xmlns:xlink="http://www.w3.org/1999/xlink" width="28px" height="22px" xmlns="http://www.w3.org/2000/svg">
  <g transform="matrix(1 0 0 1 -1258 -211 )">
    <path d="M 27.4376953125 12.0198916015625  C 26.72239453125 9.8854296875  24.5248974609375 9.1059013671875  24.024515625 9.059462890625  C 23.5242626953125 9.0129921875  23.0708349609375 8.739130859375  23.4027041015625 8.1730712890625  C 23.7347021484375 7.6069794921875  24.3470712890625 5.9596220703125  23.1691259765625 4.7995625  C 21.9907939453125 3.63489453125  19.4143447265625 4.075689453125  17.5909013671875 4.827470703125  C 15.7722275390625 5.5792197265625  15.8703251953125 5.0548291015625  15.9263994140625 4.5398486328125  C 15.9873076171875 3.9968955078125  16.96908984375 0.9620556640625  13.967314453125 0.595478515625  C 10.0351904296875 0.11755859375  4.990283203125 4.948126953125  3.20886328125 7.732373046875  C 0.515625 11.9365537109375  0.9412734375 14.7810634765625  0.9412734375 14.7810634765625  L 0.95996484375 14.7810634765625  C 1.2825205078125 18.70687109375  7.1083740234375 21.834458984375  14.24787890625 21.834458984375  C 20.3870390625 21.834458984375  25.5581455078125 19.5188837890625  27.087005859375 16.372765625  C 27.087005859375 16.372765625  27.0916142578125 16.3588115234375  27.1055361328125 16.33551171875  C 27.2646708984375 15.996939453125  27.3862294921875 15.65333984375  27.46115625 15.296076171875  C 27.67604296875 14.4515791015625  27.8399794921875 13.2266474609375  27.4376953125 12.019923828125  Z M 22.5706142578125 14.0663427734375  C 22.5706142578125 17.411943359375  18.4466455078125 20.1174599609375  13.36435546875 20.1174599609375  C 8.281904296875 20.1174599609375  4.158064453125 17.4073671875  4.158064453125 14.0663427734375  C 4.158064453125 10.7253828125  8.277263671875 8.0154833984375  13.36435546875 8.0154833984375  C 18.4466455078125 8.0154833984375  22.5706142578125 10.7253828125  22.5706142578125 14.0663427734375  Z " fill-rule="nonzero" fill="#e71f19" stroke="none" transform="matrix(1 0 0 1 1258 211 )" />
  </g>
</svg>