<?xml version="1.0" encoding="utf-8"?>
<svg version="1.1" xmlns:xlink="http://www.w3.org/1999/xlink" width="7px" height="6px" xmlns="http://www.w3.org/2000/svg">
  <g transform="matrix(1 0 0 1 -1279 -212 )">
    <path d="M 4.8810234375 5.7068271484375  C 4.9743515625 5.7486572265625  5.0726103515625 5.76705859375  5.170869140625 5.76705859375  C 5.4606826171875 5.76705859375  5.741279296875 5.59535546875  5.8580361328125 5.31227734375  C 6.0497841796875 4.862265625  6.147849609375 4.3843779296875  6.147849609375 3.8877021484375  C 6.147849609375 1.8739287109375  4.497591796875 0.235755859375001  2.4681884765625 0.235755859375001  C 1.972576171875 0.235755859375001  1.4910791015625 0.333144531250001  1.0374580078125 0.523410156250002  C 0.658634765625003 0.681191406250001  0.481130859375 1.11741015625  0.639943359375 1.49794140625  C 0.7989169921875 1.873767578125  1.238455078125 2.050111328125  1.6217255859375 1.892330078125  C 1.893041015625 1.780826171875  2.1782138671875 1.7205625  2.4728291015625 1.7205625  C 3.6791015625 1.7205625  4.6562431640625 2.6951259765625  4.6562431640625 3.8877021484375  C 4.6562431640625 4.1799326171875  4.600330078125 4.463171875  4.48321875 4.7321025390625  C 4.44309924274025 4.82454860252179  4.42239772318634 4.92425060436698  4.42239772318634 5.02502683922364  C 4.42239772318634 5.3242493442894  4.60360043650426 5.59367124887324  4.8807333984375 5.7065048828125  Z " fill-rule="nonzero" fill="#f5aa15" stroke="none" transform="matrix(1 0 0 1 1279 212 )" />
  </g>
</svg>