<?xml version="1.0" encoding="utf-8"?>
<svg version="1.1" xmlns:xlink="http://www.w3.org/1999/xlink" width="13px" height="13px" xmlns="http://www.w3.org/2000/svg">
  <g transform="matrix(1 0 0 1 -1278 -207 )">
    <path d="M 12.0620458984375 9.245126953125  C 12.0574375 4.521099609375  8.18589941406249 0.6788876953125  3.426197265625 0.6788876953125  C 2.5893056640625 0.6788876953125  1.7616953125 0.7995439453125  0.966827148437499 1.0315107421875  C 0.3731171875 1.2078544921875  0.0365107421874988 1.8249931640625  0.209502929687499 2.4143525390625  C 0.387039062500001 3.0037763671875  1.0088505859375 3.337869140625  1.6028828125 3.166166015625  C 2.19525674581718 2.99352109064644  2.80917775756147 2.9060196052863  3.426197265625 2.906291015625  C 6.9470458984375 2.906291015625  9.8131474609375 5.7509619140625  9.8131474609375 9.245126953125  C 9.8131474609375 9.871482421875  9.719529296875 10.4932294921875  9.54183203125 11.087197265625  C 9.364328125 11.6765888671875  9.696197265625 12.298529296875  10.289875 12.4746474609375  C 10.397576171875 12.5073251953125  10.5095634765625 12.5211181640625  10.6172646484375 12.5211181640625  C 11.098826171875 12.5211181640625  11.54297265625 12.2101962890625  11.6926650390625 11.7322119140625  C 11.93587890625 10.9295771484375  12.0620458984375 10.0942646484375  12.0620458984375 9.245126953125  Z " fill-rule="nonzero" fill="#f5aa15" stroke="none" transform="matrix(1 0 0 1 1278 207 )" />
  </g>
</svg>