<?xml version="1.0" encoding="utf-8"?>
<svg version="1.1" xmlns:xlink="http://www.w3.org/1999/xlink" width="11px" height="9px" xmlns="http://www.w3.org/2000/svg">
  <g transform="matrix(1 0 0 1 -1265 -221 )">
    <path d="M 10.4226787109375 4.48880078125  C 10.4226787109375 2.131427734375  8.2251494140625 0.224130859375002  5.513380859375 0.224130859375002  C 2.8014833984375 0.224130859375002  0.603986328124999 2.131234375  0.603986328124999 4.48880078125  C 0.603986328124999 6.8458837890625  2.8014833984375 8.75327734375  5.513380859375 8.75327734375  C 8.225181640625 8.75327734375  10.4226787109375 6.846044921875  10.4226787109375 4.48880078125  Z M 5.630234375 5.551375  C 5.630234375 6.4932607421875  4.8588271484375 7.2589638671875  3.909658203125 7.2589638671875  C 2.96045703125 7.2589638671875  2.18908203125 6.493421875  2.18908203125 5.551375  C 2.18908203125 4.60945703125  2.9606181640625 3.8437216796875  3.909658203125 3.8437216796875  C 4.8588271484375 3.8437216796875  5.630234375 4.6094248046875  5.630234375 5.551375  Z M 7.126513671875 4.182455078125  C 6.92084375 4.53971875  6.504669921875 4.688283203125  6.2007734375 4.5117783203125  C 5.896876953125 4.340236328125  5.822111328125 3.90859375  6.027716796875 3.551330078125  C 6.233515625 3.1939375  6.6495927734375 3.045373046875  6.9534248046875 3.221845703125  C 7.2573212890625 3.398189453125  7.332248046875 3.829767578125  7.1264814453125 4.182455078125  Z " fill-rule="nonzero" fill="#040000" stroke="none" transform="matrix(1 0 0 1 1265 221 )" />
  </g>
</svg>