<?xml version="1.0" encoding="utf-8"?>
<svg version="1.1" xmlns:xlink="http://www.w3.org/1999/xlink" width="23px" height="23px" xmlns="http://www.w3.org/2000/svg">
  <g transform="matrix(1 0 0 1 -1328 -210 )">
    <path d="M 13.0776561826172 14.8948127578125  C 11.803806640625 14.8948127578125  10.5299795595703 14.4098811396484  9.56004894042969 13.4399505205078  C 9.29660462695312 13.1765511289062  9.29660462695312 12.7483109169922  9.56004894042969 12.4848890419922  C 9.82349325390625 12.2214896503906  10.2516660830078 12.2214896503906  10.5151104189453 12.4848890419922  C 11.928150390625 13.8979065527344  14.2259491064453 13.8979065527344  15.63894415625 12.4848890419922  L 20.5506343164062 7.5731539375  C 21.9636742880859 6.16013642675781  21.9636742880859 3.8623377109375  20.5506343164062 2.44932020019531  C 19.1376617275391 1.03630268945312  16.8398405507813 1.03630268945312  15.4268455009766 2.44932020019531  L 11.2824208984375 6.59376726367188  C 11.0189765849609 6.85718911621094  10.5907812949219 6.85718911621094  10.3273369589844 6.59376726367188  C 10.0639375673828 6.33034541113281  10.0639375673828 5.90212766015625  10.3273369589844 5.63870578515625  L 14.4717840449219 1.49428118261719  C 16.4116228222656 -0.445557594726563  19.5672496181641 -0.445557594726563  21.5057407392578 1.49428118261719  C 23.4442318603516 3.43409749902344  23.4455570556641 6.58972429492187  21.5057407392578 8.52823787695313  L 16.5940280732422 13.4399280595703  C 15.6240749931641 14.4098811396484  14.3502029902344 14.894790296875  13.0763534482422 14.894790296875  L 13.0776561826172 14.894790296875  Z M 4.97116730664063 22.9999988769531  L 4.97253742382812 22.9999988769531  C 3.69866542089844 22.9999988769531  2.42479341796875 22.5150223369141  1.45488525976562 21.5451366396484  C -0.484931056640625 19.6052978623047  -0.484931056640625 16.4497159882812  1.45488525976562 14.5111799453125  L 6.36662036425781 9.59944484082031  C 8.30645914160156 7.65960606347656  11.4620859375 7.65960606347656  13.4005545976562 9.59944484082031  C 13.6639764501953 9.86286669335937  13.6639764501953 10.2910619833984  13.4005545976562 10.5545063193359  C 13.1371327451172 10.8179057109375  12.7089149941406 10.8179057109375  12.4455380410156 10.5545063193359  C 11.0324980693359 9.14148880859375  8.73467689257813 9.14148880859375  7.32168184277344 10.5545063193359  L 2.40992427734375 15.4662414238281  C 0.996906766601563 16.8792140126953  0.996906766601563 19.1770801113281  2.40992427734375 20.5900527001953  C 3.82291932714844 22.0030252890625  6.12074050390625 22.0030252890625  7.53375801464844 20.5900527001953  L 11.6781826171875 16.4456056367187  C 11.9416269306641 16.1821613232422  12.3698446816406 16.1821613232422  12.6332440957031 16.4456056367187  C 12.8966884091797 16.7090050283203  12.8966884091797 17.1372003183594  12.6332440957031 17.4006671152344  L 8.48884195410156 21.5451366396484  C 7.51891133496094 22.5150223369141  6.24503930957031 22.9999988769531  4.97116730664063 22.9999988769531  Z " fill-rule="nonzero" fill="#000000" stroke="none" transform="matrix(1 0 0 1 1328 210 )" />
  </g>
</svg>