<?xml version="1.0" encoding="utf-8"?>
<svg version="1.1" xmlns:xlink="http://www.w3.org/1999/xlink" width="9px" height="7px" xmlns="http://www.w3.org/2000/svg">
  <g transform="matrix(1 0 0 1 -26 -267 )">
    <path d="M 8.96765217391304 1.117536  C 8.96765217391304 1.708896  8.51937391304348 2.1896  7.96883478260869 2.1896  C 7.41829565217391 2.1896  6.97001739130435 1.708896  6.97001739130435 1.117536  C 6.97001739130435 0.526175999999999  7.41787826086956 0.0454719999999995  7.96883478260869 0.0454719999999995  C 8.51979130434782 0.0454719999999995  8.96765217391304 0.526175999999999  8.96765217391304 1.117536  Z M 8.55026086956521 1.117536  C 8.54957215079738 0.773181631613358  8.2896618339006 0.494211224810812  7.96883478260869 0.493472  C 7.64827826086956 0.493472  7.38740869565217 0.773472  7.38740869565217 1.117536  C 7.38740869565217 1.4616  7.64827826086956 1.7416  7.96883478260869 1.7416  C 8.28939130434783 1.7416  8.55026086956522 1.4616  8.55026086956521 1.117536  Z M 5.71033043478261 1.9656  L 0.110191304347826 1.9656  L 0.110191304347826 3.22  L 5.71033043478261 3.22  L 5.71033043478261 1.9656  Z M 2.71554782608696 2.409568  L 2.71554782608696 2.775584  L 0.573078260869564 2.775584  L 0.573078260869564 2.409568  L 2.71554782608696 2.409568  Z M 5.71033043478261 5.676384  L 0.110191304347826 5.676384  L 0.110191304347826 6.930784  L 5.71033043478261 6.930784  L 5.71033043478261 5.676384  Z M 2.71554782608696 6.1208  L 2.71554782608696 6.486816  L 0.573078260869564 6.486816  L 0.573078260869564 6.1208  L 2.71554782608696 6.1208  Z M 5.71033043478261 3.821216  L 0.110191304347826 3.821216  L 0.110191304347826 5.075616  L 5.71033043478261 5.075616  L 5.71033043478261 3.821216  Z M 3.10497391304348 4.6312  L 3.10497391304348 4.265184  L 5.24744347826087 4.265184  L 5.24744347826087 4.6312  L 3.10497391304348 4.6312  Z " fill-rule="nonzero" fill="#02a7f0" stroke="none" transform="matrix(1 0 0 1 26 267 )" />
  </g>
</svg>