<?xml version="1.0" encoding="utf-8"?>
<svg version="1.1" xmlns:xlink="http://www.w3.org/1999/xlink" width="279px" height="86px" xmlns="http://www.w3.org/2000/svg">
  <defs>
    <linearGradient gradientUnits="userSpaceOnUse" x1="552.5" y1="941" x2="552.5" y2="855" id="LinearGradient2115">
      <stop id="Stop2116" stop-color="#027db4" offset="0" />
      <stop id="Stop2117" stop-color="#81d3f8" stop-opacity="0.87843137254902" offset="1" />
    </linearGradient>
  </defs>
  <g transform="matrix(1 0 0 1 -413 -855 )">
    <path d="M 414.5 866  A 9.5 9.5 0 0 1 424 856.5 L 681 856.5  A 9.5 9.5 0 0 1 690.5 866 L 690.5 930  A 9.5 9.5 0 0 1 681 939.5 L 424 939.5  A 9.5 9.5 0 0 1 414.5 930 L 414.5 866  Z " fill-rule="nonzero" fill="url(#LinearGradient2115)" stroke="none" />
    <path d="M 414 866  A 10 10 0 0 1 424 856 L 681 856  A 10 10 0 0 1 691 866 L 691 930  A 10 10 0 0 1 681 940 L 424 940  A 10 10 0 0 1 414 930 L 414 866  Z " stroke-width="2" stroke="#ffffff" fill="none" />
  </g>
</svg>