<?xml version="1.0" encoding="utf-8"?>
<svg version="1.1" xmlns:xlink="http://www.w3.org/1999/xlink" width="34px" height="34px" xmlns="http://www.w3.org/2000/svg">
  <g transform="matrix(1 0 0 1 -658 -787 )">
    <path d="M 33.9387019230769 16.8866666666667  C 33.9346153846154 7.60952380952381  26.3418269230769 0.0890476190476209  16.9713942307692 0.0890476190476192  C 7.60504807692308 0.0890476190476192  0.0122596153846158 7.60952380952381  0.0122596153846158 16.8866666666667  C 0.0122596153846158 26.1638095238095  7.60504807692308 33.6883333333333  16.9754807692308 33.6883333333333  C 26.3459134615385 33.6883333333333  33.9387019230769 26.1678571428571  33.9387019230769 16.8866666666667  Z M 23.2074519230769 15.5469047619048  C 23.9512019230769 15.5469047619048  24.5600961538462 16.1459523809524  24.5600961538462 16.8866666666667  C 24.5600961538462 17.627380952381  23.9552884615385 18.2304761904762  23.2033653846154 18.2304761904762  L 18.328125 18.2304761904762  L 18.328125 23.0592857142857  C 18.328125 23.8  17.7233173076923 24.4030952380952  16.9713942307692 24.4030952380952  C 16.2235576923077 24.4030952380952  15.6146634615385 23.8040476190476  15.6146634615385 23.0592857142857  L 15.6146634615385 18.2304761904762  L 10.7435096153846 18.2304761904762  C 9.99567307692308 18.2304761904762  9.38677884615385 17.6314285714286  9.38677884615385 16.8866666666667  C 9.38677884615385 16.1459523809524  9.99158653846154 15.5428571428571  10.7435096153846 15.5428571428571  L 15.61875 15.5428571428571  L 15.61875 10.7180952380952  C 15.61875 9.97738095238095  16.2235576923077 9.37428571428572  16.9754807692308 9.37428571428572  C 17.7233173076923 9.37428571428572  18.3322115384615 9.97333333333333  18.3322115384615 10.7180952380952  L 18.3322115384615 15.5469047619048  L 23.2074519230769 15.5469047619048  Z " fill-rule="nonzero" fill="#02a7f0" stroke="none" transform="matrix(1 0 0 1 658 787 )" />
  </g>
</svg>