<?xml version="1.0" encoding="utf-8"?>
<svg version="1.1" xmlns:xlink="http://www.w3.org/1999/xlink" width="43px" height="43px" xmlns="http://www.w3.org/2000/svg">
  <defs>
    <linearGradient gradientUnits="userSpaceOnUse" x1="21.5" y1="0" x2="21.5" y2="43" id="LinearGradient2121">
      <stop id="Stop2122" stop-color="#ffffff" offset="0" />
      <stop id="Stop2123" stop-color="#f59a23" offset="1" />
    </linearGradient>
  </defs>
  <g transform="matrix(1 0 0 1 -628 -877 )">
    <path d="M 42.9937956542969 31.0681019005673  C 43.0861727558594 28.4311552992897  40.9614992099609 26.2183035867065  38.3245525966797 26.2015077615877  C 36.338444703125 26.1889109032466  34.6378660898438 27.4066091691879  33.9366398105469 29.1365805001801  C 33.8316658085937 29.3927170537016  33.5881261542969 29.5606754308667  33.3109948496094 29.5606754308667  L 32.2486580556641 29.5606754308667  C 30.7664253378906 29.5606754308667  29.5613239248047 28.3555740232665  29.5613239248047 26.8733412702482  L 29.5613239248047 24.227996735415  C 34.3817295351562 23.8290955634027  38.1775890107422 19.6973193507657  38.1775890107422 14.6585678678431  C 38.1775890107422 9.54843407567526  34.0584096376953 5.38306617080828  28.8684955791016 5.0849400334935  C 27.33587534375 2.07428601887797  24.1530639707031 0  20.4579794882813 0  C 15.5074061591797 0  11.4638080625 3.7202781822837  11.1110954394531 8.43570976921705  C 7.47059748339844 9.44346007419999  4.82105396972656 12.5254963980609  4.82105396972656 16.1743922710992  C 4.82105396972656 20.4783258276792  8.5077404765625 24.0138498076789  13.1601877509766 24.2615884276449  L 13.4373190556641 24.2615884276449  L 13.4373190556641 26.8733412702482  C 13.4373190556641 28.3555739812743  12.2322176425781 29.5606753888746  10.7499849248047 29.5606754308667  L 9.68764813085937 29.5606754308667  C 9.41051678417969 29.5606754308667  9.16697712988281 29.3927170537016  9.06200316992187 29.1365805001801  C 8.36077693261719 27.4066091691879  6.65599931054687 26.1889108612544  4.67409038378906 26.2015077615877  C 2.03714377050781 26.2183035867065  -0.087529775390625 28.4311552992897  0.004847326171875 31.0681019005673  C 0.088826494140625 33.5874776420285  2.15891359765625 35.6071772187722  4.703483109375 35.6071772187722  C 6.68119306933594 35.6071772187722  8.36917482421875 34.3894789528309  9.06620213671875 32.6637065466243  C 9.166977171875 32.4117689598805  9.41471579296875 32.2480095494931  9.68764813085937 32.2480095494931  L 10.7499849248047 32.2480095494931  C 13.7186493691406 32.2480095494931  16.1246531865234 29.8420057010705  16.1246531865234 26.8733412702482  L 16.1246531865234 24.5975051819752  C 16.1246531865234 24.4127509796912  16.2758157392578 24.2615884276449  16.460569984375 24.2615884276449  L 19.8197376689453 24.2615884276449  C 20.0044918720703 24.2615884276449  20.1556544248047 24.4127509796912  20.1556544248047 24.5975051819752  L 20.1556544248047 33.3145452633881  C 20.1556544248047 33.5916766088063  19.987696046875 33.8352162619946  19.7315594921875 33.9401902634698  C 18.0015881533203 34.6414164975825  16.7838898398437 36.3461941118925  16.7964867402344 38.3281030296285  C 16.8132825654297 40.9650496309061  19.0261342880859 43.0855242423472  21.6630809013672 42.9973460659908  C 24.1866556210937 42.9133668564122  26.2021562402344 40.8390808375342  26.2021562402344 38.2987103041763  C 26.2021562402344 36.3210003532181  24.98445796875 34.6330186060191  23.2586855546875 33.9359912966921  C 23.0067479667969 33.8352162619946  22.8429885556641 33.5874776420285  22.8429885556641 33.3145452633881  L 22.8429885556641 24.5975051819752  C 22.8429885556641 24.4127509796912  22.9941511083984 24.2615884276449  23.1789053115234 24.2615884276449  L 26.5380729960937 24.2615884276449  C 26.7228271992187 24.2615884276449  26.8739897519531 24.4127509796912  26.8739897519531 24.5975051819752  L 26.8739897519531 26.8733412702482  C 26.8739897519531 29.8420057010705  29.2799936113281 32.2480095075009  32.2486580556641 32.2480095494931  L 33.3109948496094 32.2480095494931  C 33.5839272294922 32.2480095494931  33.8316658505859 32.4117689598805  33.93244084375 32.6637065466243  C 34.62946815625 34.3894789108387  36.3174499111328 35.6071772187722  38.2951598710938 35.6071772187722  C 40.8397293828125 35.6071772187722  42.9098164863281 33.5874776420285  42.9937956542969 31.0681019005673  Z M 6.71898372851562 30.9043424901799  C 6.71898372851562 32.0170667966381  5.81620742089844 32.9198431001458  4.703483109375 32.9198430581536  C 3.59075879785156 32.9198430581536  2.68798249023437 32.0170667546459  2.68798249023437 30.9043424901799  C 2.68798249023437 29.7916182257139  3.59075879785156 28.8888418802141  4.703483109375 28.8888418802141  C 5.81620742089844 28.8888418802141  6.71898372851562 29.7916181837217  6.71898372851562 30.9043424901799  Z M 21.4993214902344 36.2790107274327  C 22.6120458017578 36.2790107274327  23.514822109375 37.1817870309404  23.514822109375 38.2945113373986  C 23.514822109375 39.4072356438568  22.6120458017578 40.3100119473644  21.4993214902344 40.3100119473644  C 20.3865971787109 40.3100119473644  19.4838208710938 39.4072356438568  19.4838208710938 38.2945113373986  C 19.4838208710938 37.1817870309404  20.3865971787109 36.2790107274327  21.4993214902344 36.2790107274327  Z M 28.8013122363281 21  L 13.2357689853516 21  C 11.6527612324219 21.4776782410988  10.1915232646484 20.8478343162315  9.1123906875 19.8064923190187  C 8.07524765234375 18.8071399475913  7.50838814257813 17.5180593304124  7.50838810058594 16.1743922710992  C 7.50838810058594 15.0364742059666  7.91148824121094 13.948943700175  8.6714999296875 13.0251726047707  C 9.44830744335938 12.0804067174698  10.5694296464844 11.3707825498016  11.8249185771484 11.0264678619159  L 13.6472670595703 10.5225926884283  L 13.7858327119141 8.63725983861207  C 13.9034035722656 7.03745622577734  14.64242046875 5.5510245479734  15.8601187402344 4.44249925028514  C 17.1114087041016 3.30878015193031  18.7406050078125 2.68733416061857  20.4579794882813 2.68733411862638  C 21.7428611445313 2.68733411862638  22.9899521416016 3.03584777328991  24.0606868271484 3.69928339038708  C 25.0978298623047 4.33752524880987  25.9292238603516 5.23610258553977  26.4708896533203 6.30263834142699  L 27.172115890625 7.67569812619232  L 28.7131340595703 7.76387626055655  C 30.5606763007813 7.86885026203182  32.2780507392578 8.6456577721676  33.5503355371094 9.94313628090979  C 34.8016255009766 11.2238189645331  35.4944538466797 12.8992038113988  35.4944538046875 14.6585678678431  C 35.4944538046875 18.4712231512688  32.4921977099609 21.5742543090185  28.8013122363281 21  Z M 40.3106604902344 30.9043424901799  C 40.3106604902344 32.0170667966381  39.4078841826172 32.9198431001458  38.2951598710938 32.9198430581536  C 37.1824355595703 32.9198430581536  36.2796592519531 32.0170667546459  36.2796592519531 30.9043424901799  C 36.2796592519531 29.7916182257139  37.1824355595703 28.8888418802141  38.2951598710938 28.8888418802141  C 39.4078841826172 28.8888418802141  40.3106604902344 29.7916181837217  40.3106604902344 30.9043424901799  Z " fill-rule="nonzero" fill="url(#LinearGradient2121)" stroke="none" transform="matrix(1 0 0 1 628 877 )" />
  </g>
</svg>