<?xml version="1.0" encoding="utf-8"?>
<svg version="1.1" xmlns:xlink="http://www.w3.org/1999/xlink" width="32px" height="29px" xmlns="http://www.w3.org/2000/svg">
  <g transform="matrix(1 0 0 1 -616 -789 )">
    <path d="M 28.7355354482759 22.7136642241666  L 28.7355354482759 24  L 14.5611552413793 24  L 14.5611552413793 22.7136642241666  L 28.7355354482759 22.7136642241666  Z M 30.2007720689655 21.1943138446875  L 30.202727 21.10859724875  L 31.7813508275862 21.10859724875  L 31.7774409310344 21.2659013325  L 31.7657112068965 21.4213215551041  L 31.7471391724138 21.5748578833334  L 31.7207473103448 21.7255684032292  L 31.6884905862069 21.8743950619791  L 31.6484140689655 22.021337793125  L 31.6014952413793 22.1645128019792  L 31.5487115172414 22.3048619692708  L 31.4890854827586 22.4414433478125  L 31.4235945862069 22.57519895125  L 31.3522388275862 22.706128713125  L 31.2750182413793 22.8323487722917  L 31.1919327586207 22.9548010427083  L 31.1029824482758 23.0725436436459  L 31.0091447586207 23.1865184890625  L 30.9094421724138 23.2957835985416  L 30.8048522413793 23.4003390053125  L 30.6953749310345 23.4992427954166  L 30.5810102413793 23.5934368495833  L 30.4627356206896 23.6829212342708  L 30.3385961724138 23.7658120218749  L 30.2105468275862 23.8439931067709  L 30.0785875517241 23.9146386473958  L 29.9427183793104 23.9796325713542  L 29.8019618275862 24.0380328982292  L 29.658272862069 24.0888976808334  L 29.5116514482759 24.1331688995833  L 29.361120137931 24.1699045740625  L 29.2076563793104 24.1991047375  L 29.0522376896552 24.2198274427084  L 28.8948640344828 24.2320726896875  L 28.7355354482759 24.2367823923959  L 28.7355354482759 22.7136642241666  L 28.8078686896552 22.7117803630208  L 28.8782469655172 22.706128713125  L 28.9476477586206 22.6967093077083  L 29.0160710689655 22.6844640607292  L 29.0844944137931 22.6675091442709  L 29.1509627586207 22.64772838625  L 29.2164536551724 22.6241798727084  L 29.2809671034482 22.5978055176042  L 29.3445030344827 22.5676634069792  L 29.4070615172413 22.5337535408334  L 29.467665 22.4970178663542  L 29.5272910689655 22.456514403125  L 29.584962137931 22.4131851315625  L 29.6416557586207 22.3670300516667  L 29.6963944137931 22.3171071830208  L 29.7482006551724 22.2643585060416  L 29.7990294137931 22.2097259346875  L 29.8469257241379 22.1513256078125  L 29.8928671034482 22.0900994726042  L 29.9358760344827 22.0269894430209  L 29.9759525517242 21.9610536051042  L 30.0130966551724 21.8932338728126  L 30.0473083103449 21.8225882989584  L 30.0785875517241 21.7510008111458  L 30.1069343448276 21.6765874817708  L 30.1313712413793 21.60029029125  L 30.152875724138 21.5221092063542  L 30.1704703103449 21.4429862075  L 30.1841549655172 21.3610373670833  L 30.1949072068966 21.2790884934375  L 30.2007720689655 21.1943138446875  Z M 30 3.30120788593746  L 31.7813508275862 3.30120788593746  L 31.7813508275862 21.10859724875  L 30 21.10859724875  L 30 3.30120788593746  Z M 28.8078686896552 1.69802477166671  L 28.7355354482759 1.6961408772917  L 28.7355354482759 0.173964689479165  L 28.8948640344828 0.177732444999985  L 29.0522376896552 0.190919605937453  L 29.2076563793104 0.211642311145871  L 29.361120137931 0.240842474583322  L 29.5116514482759 0.277578149062523  L 29.658272862069 0.320907420624947  L 29.8019618275862 0.372714183645826  L 29.9427183793104 0.431114510520839  L 30.0785875517241 0.495166454062481  L 30.2105468275862 0.566753975104162  L 30.3385961724138 0.643993112812473  L 30.4627356206896 0.727825814375027  L 30.5810102413793 0.816368251874997  L 30.6953749310345 0.910562306041705  L 30.8048522413793 1.01040804333333  L 30.9094421724138 1.11496345010419  L 31.0091447586207 1.22422859281247  L 31.1029824482758 1.33820340499998  L 31.1919327586207 1.45594600593751  L 31.2750182413794 1.57839830958337  L 31.3522388275862 1.70461833552084  L 31.4235945862069 1.83460618343754  L 31.4890854827586 1.96836175364585  L 31.5487115172414 2.10588511260418  L 31.6014952413793 2.24623427989583  L 31.6484140689655 2.38940925552079  L 31.6884905862069 2.53541007270838  L 31.7207473103448 2.68423669822917  L 31.7471391724138 2.83588916531248  L 31.7657112068965 2.98942549354171  L 31.7774409310344 3.14484571614583  L 31.7813508275862 3.30120788593746  L 30.202727 3.30120788593746  L 30.2007720689655 3.21549125677081  L 30.1949072068966 3.13165855520836  L 30.1841549655172 3.04876776760411  L 30.1704703103449 2.96776087437498  L 30.152875724138 2.88863784229166  L 30.1313712413793 2.81045675739585  L 30.1069343448276 2.73415956687504  L 30.0785875517241 2.65974623750005  L 30.0473083103449 2.58721680249995  L 30.0130966551724 2.51751320906248  L 29.9759525517242 2.44875152958331  L 29.9358760344828 2.38281565843746  L 29.8928671034482 2.31970562885412  L 29.8469257241379 2.2594214408333  L 29.7990294137931 2.20102111395829  L 29.7482006551725 2.1454465954167  L 29.6963944137931 2.09269791843752  L 29.6416557586207 2.04371699697915  L 29.584962137931 1.9975619170833  L 29.5272910689655 1.95423264552088  L 29.467665 1.91372918229166  L 29.4070615172413 1.87699350781246  L 29.3445030344827 1.84308364166668  L 29.2809671034482 1.81294153104161  L 29.2164536551724 1.78656720916668  L 29.1509627586207 1.76301866239586  L 29.0844944137931 1.74229599041664  L 29.0160710689655 1.72628298791666  L 28.9476477586206 1.71309582697919  L 28.8782469655173 1.70367642156254  L 28.8078686896552 1.69802477166671  Z M 3.26446455172413 2  L 3.26446455172413 0.173964689479165  L 28.7355354482759 0.173964689479165  L 28.7355354482759 2  L 3.26446455172413 2  Z M 1.79922793103447 3.21549125677081  L 1.79727300000002 3.30120788593746  L 0.219626655172419 3.30120788593746  L 0.223536551724123 3.14484571614583  L 0.234288793103474 2.98942549354171  L 0.252860827586233 2.83588916531248  L 0.279252689655209 2.68423669822917  L 0.312486862069022 2.53541007270838  L 0.351585931034492 2.38940925552079  L 0.398504758620675 2.24623427989583  L 0.451288482758628 2.10588511260418  L 0.510914517241417 1.96836175364585  L 0.576405413793054 1.83460618343754  L 0.647761172413766 1.70461833552084  L 0.724981758620743 1.57839830958337  L 0.808067241379263 1.45594600593751  L 0.897017551724161 1.33820340499998  L 0.990855241379336 1.22422859281247  L 1.09055782758617 1.11496345010419  L 1.19514775862069 1.01040804333333  L 1.30462506896549 0.910562306041705  L 1.41898975862068 0.816368251874997  L 1.53824182758626 0.727825814375027  L 1.66140382758624 0.643993112812473  L 1.7894531724138 0.566753975104162  L 1.92141244827587 0.495166454062481  L 2.05825910344822 0.431114510520839  L 2.19803817241382 0.372714183645826  L 2.341727137931 0.320907420624947  L 2.48932603448282 0.277578149062523  L 2.63887986206896 0.240842474583322  L 2.79234362068962 0.211642311145871  L 2.94776231034484 0.190919605937453  L 3.10513596551721 0.177732444999985  L 3.26446455172413 0.173964689479165  L 3.26446455172413 1.6961408772917  L 3.19310879310342 1.69802477166671  L 3.12175303448271 1.70367642156254  L 3.05235224137937 1.71309582697919  L 2.98392893103448 1.72628298791666  L 2.91648306896548 1.74229599041664  L 2.85001468965515 1.76301866239586  L 2.78354634482764 1.78656720916668  L 2.71903289655177 1.81294153104161  L 2.65549696551727 1.84308364166668  L 2.59391596551723 1.87699350781246  L 2.53233499999999 1.91372918229166  L 2.4727089310345 1.95423264552088  L 2.41503786206897 1.9975619170833  L 2.35834424137931 2.04371699697915  L 2.30458306896548 2.09269791843752  L 2.25179934482753 2.1454465954167  L 2.20097058620695 2.20102111395829  L 2.15307427586208 2.2594214408333  L 2.10811037931035 2.31970562885412  L 2.06510144827587 2.38281565843746  L 2.02404744827584 2.44875152958331  L 1.98690334482762 2.51751320906248  L 1.95269168965513 2.58721680249995  L 1.92141244827587 2.65974623750005  L 1.89306565517245 2.73415956687504  L 1.86862875862073 2.81045675739585  L 1.84712427586203 2.88863784229166  L 1.82952968965515 2.96776087437498  L 1.81584503448278 3.04876776760411  L 1.80509279310343 3.13165855520836  L 1.79922793103447 3.21549125677081  Z M 2 21.10859724875  L 0.219626655172419 21.10859724875  L 0.219626655172419 3.30120788593746  L 2 3.30120788593746  L 2 21.10859724875  Z M 3.19310879310342 22.7117803630208  L 3.26446455172413 22.7136642241666  L 3.26446455172413 24.2367823923959  L 3.10513596551721 24.2320726896875  L 2.94776231034484 24.2198274427084  L 2.79234362068962 24.1991047375  L 2.63887986206896 24.1699045740625  L 2.4893260344827 24.1331688995833  L 2.341727137931 24.0888976808334  L 2.19803817241382 24.0380328982292  L 2.05825910344822 23.9796325713542  L 1.92141244827587 23.9146386473958  L 1.7894531724138 23.8439931067709  L 1.66140382758624 23.7658120218749  L 1.53824182758626 23.6829212342708  L 1.41898975862068 23.5934368495833  L 1.30462506896549 23.4992427954166  L 1.19514775862069 23.4003390053125  L 1.09055782758617 23.2957835985416  L 0.990855241379336 23.1865184890625  L 0.897017551724161 23.0725436436459  L 0.808067241379263 22.9548010427083  L 0.724981758620743 22.8323487722917  L 0.647761172413766 22.706128713125  L 0.576405413793054 22.57519895125  L 0.510914517241417 22.4414433478125  L 0.451288482758628 22.3048619692708  L 0.398504758620675 22.1645128019792  L 0.351585931034492 22.021337793125  L 0.312486862068909 21.8743950619791  L 0.279252689655209 21.7255684032292  L 0.252860827586233 21.5748578833334  L 0.234288793103474 21.4213215551041  L 0.223536551724123 21.2659013325  L 0.219626655172419 21.10859724875  L 1.79727300000002 21.10859724875  L 1.79922793103447 21.1943138446875  L 1.80509279310343 21.2790884934375  L 1.81584503448278 21.3610373670833  L 1.82952968965515 21.4429862075  L 1.84712427586203 21.5221092063542  L 1.86862875862073 21.60029029125  L 1.89306565517245 21.6765874817708  L 1.92141244827587 21.7510008111458  L 1.95269168965513 21.8225882989584  L 1.98690334482762 21.8932338728126  L 2.02404744827584 21.9610536051042  L 2.06510144827587 22.0269894430209  L 2.10811037931035 22.0900994726042  L 2.15307427586208 22.1513256078125  L 2.20097058620695 22.2097259346875  L 2.25179934482753 22.2643585060416  L 2.30458306896548 22.3171071830208  L 2.35834424137931 22.3670300516667  L 2.41503786206897 22.4131851315625  L 2.4727089310345 22.456514403125  L 2.53233499999999 22.4970178663542  L 2.59391596551723 22.5337535408334  L 2.65549696551727 22.5676634069792  L 2.71903289655177 22.5978055176042  L 2.78354634482753 22.6241798727084  L 2.85001468965515 22.64772838625  L 2.91648306896548 22.6675091442709  L 2.98392893103448 22.6844640607292  L 3.05235224137925 22.6967093077083  L 3.12175303448271 22.706128713125  L 3.19310879310342 22.7117803630208  Z M 7.3698639655172 22.7136642241666  L 7.3698639655172 24.2367823923959  L 3.26446455172413 24.2367823923959  L 3.26446455172413 22.7136642241666  L 7.3698639655172 22.7136642241666  Z M 8.90841124137933 24.1878014709375  L 8.91036620689658 24.2640986614583  L 7.33271986206898 24.2640986614583  L 7.33271986206898 24.2546792560417  L 7.3317423793103 24.2509115005208  L 7.33076489655173 24.2471437117708  L 7.33076489655173 24.24337595625  L 7.32978744827585 24.2396082007292  L 7.32880996551728 24.2367823923959  L 7.32783248275859 24.2339565508334  L 7.32587751724134 24.2320726896875  L 7.32490006896546 24.229246848125  L 7.32392258620689 24.2273629869792  L 7.32294510344832 24.2254790926042  L 7.32196762068963 24.2245371454167  L 7.32099013793106 24.2235951982292  L 7.32001268965519 24.2217113370833  L 7.32099013793106 24.2226532842708  L 7.32196762068963 24.2235951982292  L 7.32392258620689 24.2245371454167  L 7.32587751724134 24.2254790926042  L 7.32880996551728 24.2273629869792  L 7.3317423793103 24.229246848125  L 7.33565231034481 24.2301887953125  L 7.33956220689652 24.2320726896875  L 7.34347210344822 24.2330146036458  L 7.3493369655173 24.2339565508334  L 7.35422434482757 24.2348984980209  L 7.35911172413796 24.2358404452084  L 7.36497658620692 24.2367823923959  L 7.3698639655172 24.2367823923959  L 7.3698639655172 22.7136642241666  L 7.45197193103445 22.7164900657291  L 7.53310244827583 22.7230836295834  L 7.61325548275863 22.7334449821875  L 7.69243103448275 22.7485160375  L 7.770629137931 22.7673548483333  L 7.84589479310341 22.7899614146875  L 7.92018296551726 22.8163357697917  L 7.99251620689654 22.8464778804166  L 8.06191699999999 22.879445799375  L 8.129362862069 22.9152395598958  L 8.19387627586207 22.9548010427083  L 8.25741220689656 22.9971884003125  L 8.31703824137935 23.0414595858334  L 8.37470934482758 23.0894985933333  L 8.42944799999998 23.13942142875  L 8.48125420689655 23.1912281917709  L 8.53110551724137 23.2458607298959  L 8.57802434482755 23.302377195625  L 8.62201075862072 23.3607775225  L 8.66306475862064 23.4210617105208  L 8.70118634482753 23.4832297929166  L 8.7363754827586 23.5472817696875  L 8.76863217241373 23.6132176076041  L 8.79795644827584 23.6810373398959  L 8.82337082758625 23.7497990193751  L 8.8458527931034 23.8204445932291  L 8.86540231034485 23.8910901338542  L 8.88201941379305 23.9645615160417  L 8.89472658620684 24.0380328982292  L 8.90352386206894 24.112446194375  L 8.90841124137933 24.1878014709375  Z M 8.48125420689655 28.42  L 7.32001268965519 27.55  L 7.33271986206898 24.2640986614583  L 8.91036620689658 24.2640986614583  L 8.90352386206894 27.55  L 8.48125420689655 28.42  Z M 7.32001268965519 26.68  L 8.48125420689655 28.42  L 5.70000000000005 28.42  L 7.32001268965519 26.68  Z M 13.4487875172414 23.1912281917709  L 14.6100290689656 24.2217113370833  L 8.57802434482755 28.42  L 8.37470934482758 26.68  L 13.4487875172414 23.1912281917709  Z M 14.5230336896552 22.7146061713541  L 14.5611552413793 22.7136642241666  L 14.5611552413793 24.2367823923959  L 14.5631102068966 24.2367823923959  L 14.5650651724138 24.2358404452084  L 14.5699525517241 24.2358404452084  L 14.5719074827587 24.2348984980209  L 14.5748399310345 24.2348984980209  L 14.5777723448276 24.2339565508334  L 14.5807047586206 24.2330146036458  L 14.5836372068966 24.2320726896874  L 14.5865696206896 24.2311307425  L 14.5904795517241 24.2301887953125  L 14.5934119655172 24.2283049009375  L 14.5963443793104 24.2273629869791  L 14.5992768275862 24.2264210397916  L 14.6022092413793 24.2245371454166  L 14.6051416896552 24.2235951982292  L 14.6070966206896 24.2217113370833  L 14.6090515862069 24.2207693898958  L 14.6110065172413 24.2198274427083  L 14.611984 24.2188854955208  L 14.6139389655173 24.2179435483333  L 14.6139389655173 24.2179435483333  L 14.6129614827586 24.2188854955208  L 14.611984 24.2198274427083  L 14.6100290689656 24.2217113370833  L 13.4487875172414 23.1912281917708  L 13.4742018965517 23.1639118894791  L 13.5015712068965 23.1384794815625  L 13.5289405517241 23.113047106875  L 13.5572873448276 23.0876146989583  L 13.5856341724137 23.0631242382292  L 13.6149584482758 23.0386337775  L 13.6452602068965 23.0160272111458  L 13.6765394137931 22.9924786976041  L 13.708796137931 22.9708140452083  L 13.741052862069 22.9491494260417  L 13.7742870344828 22.9293686680208  L 13.8075212068966 22.90958791  L 13.8417328965518 22.8907490991667  L 13.8769220344827 22.8728522022917  L 13.9121111724138 22.8549553386458  L 13.9482777586206 22.8389423361458  L 13.985421862069 22.8238712808333  L 14.0215884827586 22.8097421727083  L 14.0597100344828 22.7965550117708  L 14.096854137931 22.7833678508333  L 14.1349756896552 22.7720645510416  L 14.1730972758621 22.762645145625  L 14.2121963103448 22.7532257402083  L 14.250317862069 22.7447482819792  L 14.2894168965518 22.7372127377084  L 14.3285159655172 22.7306191738541  L 14.367615 22.7259094711458  L 14.4057365517241 22.7211997684375  L 14.4448356206897 22.718373926875  L 14.4839346551724 22.7155481185416  L 14.5230336896552 22.7146061713541  Z " fill-rule="nonzero" fill="#81d3f8" stroke="none" transform="matrix(1 0 0 1 616 789 )" />
  </g>
</svg>