<?xml version="1.0" encoding="utf-8"?>
<svg version="1.1" xmlns:xlink="http://www.w3.org/1999/xlink" width="23px" height="24px" xmlns="http://www.w3.org/2000/svg">
  <g transform="matrix(1 0 0 1 -613 -1365 )">
    <path d="M 17.0447619047619 15  L 17.0447619047619 14.9020833333333  C 17.8907142857143 14.9020833333333  18.6869047619048 15.2375  19.2866666666667 15.8497685185185  C 19.8864285714286 16.462037037037  20.2190476190476 17.2766203703704  20.2190476190476 18.1417824074074  L 20.2190476190476 18.833912037037  C 20.2190476190476 20.2394675925926  19.0980952380952 21.3814814814815  17.7230952380952 21  L 4.15904761904762 21  C 2.78404761904762 21.3814814814815  1.66309523809524 20.2368055555556  1.66309523809524 18.833912037037  L 1.66309523809524 18.1417824074074  C 1.66309523809524 17.2739583333333  1.99309523809524 16.459375  2.59547619047619 15.8497685185185  C 3.1952380952381 15.240162037037  3.99142857142857 14.9047453703704  4.83738095238095 15  L 17.0447619047619 15  Z M 21.7930952380952 18.1417824074074  C 21.7904761904762 15.4690972222222  19.6664285714286 13.3048611111111  17.0447619047619 13  L 4.84 13  C 2.21571428571428 13.3048611111111  0.0916666666666652 15.4717592592593  0.0942857142857134 18.1417824074074  L 0.0942857142857134 18.833912037037  C 0.0942857142857134 21.1232638888889  1.91452380952381 22.9787037037037  4.16166666666667 23  L 17.7257142857143 23  C 19.9702380952381 22.9787037037037  21.7930952380952 21.1232638888889  21.7930952380952 18.833912037037  L 21.7930952380952 18.1417824074074  Z M 8.00380952380952 2.91226851851852  C 8.8 2.10300925925926  9.85809523809524 1.65578703703704  10.9842857142857 1.65578703703704  C 12.1104761904762 1.65578703703704  13.1685714285714 2.10034722222222  13.9647619047619 2.91226851851852  C 14.7609523809524 3.72152777777778  15.2009523809524 4.79699074074074  15.2009523809524 5.94166666666667  C 15.2009523809524 7.08634259259259  14.7635714285714 8.16180555555556  13.9647619047619 8.97106481481481  C 13.1685714285714 9.78032407407407  12.1104761904762 10.2275462962963  10.9842857142857 10.2275462962963  C 9.85809523809524 10.2275462962963  8.8 9.78298611111111  8.00380952380952 8.97106481481481  C 7.20761904761905 8.16180555555556  6.76761904761905 7.08634259259259  6.76761904761905 5.94166666666667  C 6.76761904761905 4.79699074074074  7.205 3.72152777777778  8.00380952380952 2.91226851851852  Z M 16.772380952381 5.94166666666667  C 16.772380952381 2.69131944444445  14.1795238095238 0.058564814814816  10.9842857142857 0.0585648148148145  C 7.78904761904762 0.0585648148148145  5.19619047619048 2.69131944444444  5.19619047619048 5.94166666666667  C 5.19619047619048 9.19201388888889  7.78642857142857 11.8247685185185  10.9842857142857 11.8247685185185  C 14.1821428571429 11.8247685185185  16.772380952381 9.19201388888889  16.772380952381 5.94166666666667  Z " fill-rule="nonzero" fill="#aaaaaa" stroke="none" transform="matrix(1 0 0 1 613 1365 )" />
  </g>
</svg>