<?xml version="1.0" encoding="utf-8"?>
<svg version="1.1" xmlns:xlink="http://www.w3.org/1999/xlink" width="16px" height="9px" xmlns="http://www.w3.org/2000/svg">
  <g transform="matrix(1 0 0 1 -675 -729 )">
    <path d="M 15.9547966101695 3.749994140625  C 15.9547966101695 3.337505859375  15.6293728813559 3.000005859375  15.2316440677966 3.000005859375  L 15.2316440677966 1.499994140625  C 15.2316440677966 0.675  14.5807966101695 0  13.7853050847458 0  L 1.49152542372881 0  C 0.696050847457627 0  0.0452033898305085 0.675  0.0452033898305085 1.499994140625  L 0.0452033898305085 7.500005859375  C 0.0452033898305085 8.325  0.696050847457627 9  1.49152542372881 9  L 13.7853050847458 9  C 14.5807966101695 9  15.2316440677966 8.325  15.2316440677966 7.500005859375  L 15.2316440677966 5.999994140625  C 15.6293728813559 5.999994140625  15.9547966101695 5.662494140625  15.9547966101695 5.250005859375  L 15.9547966101695 3.749994140625  Z M 14.5084745762712 1.499994140625  L 14.5084745762712 3.749994140625  L 14.5084745762712 7.500005859375  C 14.5084745762712 7.912494140625  14.1830508474576 8.249994140625  13.7853050847458 8.249994140625  L 1.49152542372881 8.249994140625  C 1.09377966101695 8.249994140625  0.76835593220339 7.912494140625  0.76835593220339 7.500005859375  L 0.76835593220339 1.499994140625  C 0.76835593220339 1.087505859375  1.09377966101695 0.750005859375001  1.49152542372881 0.750005859375001  L 13.7853050847458 0.750005859375001  C 14.1830508474576 0.750005859375001  14.5084745762712 1.087505859375  14.5084745762712 1.499994140625  Z M 1.49152542372881 1.499994140625  L 1.49152542372881 7.500005859375  L 10.8926610169492 7.500005859375  L 10.8926610169492 1.499994140625  L 1.49152542372881 1.499994140625  Z " fill-rule="nonzero" fill="#2c2c2c" stroke="none" transform="matrix(1 0 0 1 675 729 )" />
  </g>
</svg>