<?xml version="1.0" encoding="utf-8"?>
<svg version="1.1" xmlns:xlink="http://www.w3.org/1999/xlink" width="13px" height="9px" xmlns="http://www.w3.org/2000/svg">
  <g transform="matrix(1 0 0 1 -654 -729 )">
    <path d="M 3.55296610169492 6.10714285714286  L 2.39618644067797 4.95535714285714  C 4.68220338983051 2.75892857142857  8.34533898305085 2.75892857142857  10.603813559322 4.95535714285714  L 9.44703389830508 6.10714285714286  C 7.82203389830508 4.52678571428571  5.17796610169492 4.52678571428571  3.55296610169492 6.10714285714286  Z M 6.5 8.97321428571429  L 4.73728813559322 7.25892857142857  C 5.70127118644068 6.32142857142857  7.29872881355932 6.32142857142857  8.26271186440678 7.25892857142857  L 6.5 8.97321428571429  Z M 1.21186440677966 3.83035714285714  L 0.0275423728813559 2.67857142857143  C 3.60805084745763 -0.776785714285714  9.41949152542373 -0.776785714285714  12.9724576271186 2.67857142857143  L 11.7881355932203 3.83035714285714  C 8.86864406779661 0.991071428571429  4.13135593220339 0.991071428571429  1.21186440677966 3.83035714285714  Z " fill-rule="nonzero" fill="#000000" stroke="none" transform="matrix(1 0 0 1 654 729 )" />
  </g>
</svg>