<?xml version="1.0" encoding="utf-8"?>
<svg version="1.1" xmlns:xlink="http://www.w3.org/1999/xlink" width="8px" height="9px" xmlns="http://www.w3.org/2000/svg">
  <g transform="matrix(1 0 0 1 -639 -729 )">
    <path d="M 5 3.21428571428571  C 5 3.03649553571429  4.8625 2.89285714285714  4.69230769230769 2.89285714285714  L 3.30769230769231 2.89285714285714  C 3.1375 2.89285714285714  3 3.03649553571429  3 3.21428571428571  L 3 8.67857142857143  C 3 8.85636160714286  3.1375 9  3.30769230769231 9  L 4.69230769230769 9  C 4.8625 9  5 8.85636160714286  5 8.67857142857143  L 5 3.21428571428571  Z M 7.96153846153846 0.321428571428571  C 7.96153846153846 0.143638392857143  7.82403846153846 0  7.65384615384615 0  L 6.26923076923077 0  C 6.09903846153846 0  5.96153846153846 0.143638392857143  5.96153846153846 0.321428571428571  L 5.96153846153846 8.67857142857143  C 5.96153846153846 8.85636160714286  6.09903846153846 9  6.26923076923077 9  L 7.65384615384615 9  C 7.82403846153846 9  7.96153846153846 8.85636160714286  7.96153846153846 8.67857142857143  L 7.96153846153846 0.321428571428571  Z M 2.03846153846154 6.10714285714286  C 2.03846153846154 5.92935267857143  1.90096153846154 5.78571428571429  1.73076923076923 5.78571428571429  L 0.346153846153846 5.78571428571429  C 0.175961538461538 5.78571428571429  0.0384615384615385 5.92935267857143  0.0384615384615385 6.10714285714286  L 0.0384615384615385 8.67857142857143  C 0.0384615384615385 8.85636160714286  0.175961538461538 9  0.346153846153846 9  L 1.73076923076923 9  C 1.90096153846154 9  2.03846153846154 8.85636160714286  2.03846153846154 8.67857142857143  L 2.03846153846154 6.10714285714286  Z " fill-rule="nonzero" fill="#000000" stroke="none" transform="matrix(1 0 0 1 639 729 )" />
  </g>
</svg>