<?xml version="1.0" encoding="utf-8"?>
<svg version="1.1" xmlns:xlink="http://www.w3.org/1999/xlink" width="17px" height="17px" xmlns="http://www.w3.org/2000/svg">
  <g transform="matrix(1 0 0 1 -1698 -842 )">
    <path d="M 11.9 6.30275  L 10.69725 5.1  L 8.5 7.29725  L 6.30275 5.1  L 5.1 6.30275  L 7.29725 8.5  L 5.1 10.69725  L 6.30275 11.9  L 8.5 9.70275  L 10.69725 11.9  L 11.9 10.69725  L 9.70275 8.5  L 11.9 6.30275  Z M 17 8.5  C 17 3.80375  13.19625 0  8.5 0  C 3.80375 0  0 3.80375  0 8.5  C 0 13.19625  3.80375 17  8.5 17  C 13.19625 17  17 13.19625  17 8.5  Z M 15.3 8.5  C 15.3 12.2485  12.2485 15.3  8.5 15.3  C 4.7515 15.3  1.7 12.2485  1.7 8.5  C 1.7 4.7515  4.7515 1.7  8.5 1.7  C 12.2485 1.7  15.3 4.7515  15.3 8.5  Z " fill-rule="nonzero" fill="#555555" stroke="none" transform="matrix(1 0 0 1 1698 842 )" />
  </g>
</svg>