<?xml version="1.0" encoding="utf-8"?>
<svg version="1.1" xmlns:xlink="http://www.w3.org/1999/xlink" width="17px" height="16px" xmlns="http://www.w3.org/2000/svg">
  <g transform="matrix(1 0 0 1 -232 -202 )">
    <path d="M 9.16161616161616 5.22613065326633  C 8.78451178451178 4.85092127303182  8.5959595959596 4.39530988274707  8.5959595959596 3.85929648241206  C 8.5959595959596 3.32328308207705  8.78451178451178 2.86767169179229  9.16161616161616 2.49246231155779  C 9.53872053872054 2.11725293132328  9.99663299663299 1.92964824120603  10.5353535353535 1.92964824120603  C 11.0740740740741 1.92964824120603  11.5319865319865 2.11725293132328  11.9090909090909 2.49246231155779  C 12.2861952861953 2.86767169179229  12.4747474747475 3.32328308207705  12.4747474747475 3.85929648241206  C 12.4747474747475 4.14070351758794  12.4107744107744 4.41876046901172  12.2828282828283 4.69346733668342  C 12.5589225589226 4.56616415410385  12.8383838383838 4.50251256281407  13.1212121212121 4.50251256281407  C 13.6599326599327 4.50251256281407  14.1178451178451 4.69011725293132  14.4949494949495 5.06532663316583  C 14.8720538720539 5.44053601340033  15.0606060606061 5.89614740368509  15.0606060606061 6.4321608040201  C 15.0606060606061 6.96817420435511  14.8720538720539 7.42378559463987  14.4949494949495 7.79899497487437  C 14.1178451178451 8.17420435510888  13.6599326599327 8.36180904522613  13.1212121212121 8.36180904522613  C 12.5824915824916 8.36180904522613  12.1245791245791 8.17420435510888  11.7474747474747 7.79899497487437  C 11.3703703703704 7.42378559463987  11.1818181818182 6.96817420435511  11.1818181818182 6.4321608040201  C 11.1818181818182 6.15075376884422  11.2457912457912 5.87269681742043  11.3737373737374 5.59798994974874  C 11.0976430976431 5.72529313232831  10.8181818181818 5.78894472361809  10.5353535353535 5.78894472361809  C 9.99663299663299 5.78894472361809  9.53872053872054 5.60134003350084  9.16161616161616 5.22613065326633  Z M 0.287878787878788 10.5226130653266  C 0.0959595959595942 10.7437185929648  0 10.8810720268007  0 10.9346733668342  C 0 11.0485762144054  0.164983164983163 11.2696817420436  0.494949494949495 11.5979899497487  C 0.824915824915824 11.9262981574539  1.04713804713805 12.0904522613065  1.16161616161616 12.0904522613065  C 1.22222222222222 12.0904522613065  1.31818181818182 12.036850921273  1.44949494949495 11.929648241206  C 1.58080808080808 11.822445561139  1.7037037037037 11.7118927973199  1.81818181818182 11.5979899497487  C 1.93265993265993 11.4840871021776  2.06228956228956 11.3500837520938  2.20707070707071 11.1959798994975  C 2.35185185185185 11.0418760469012  2.43434343434343 10.9547738693467  2.45454545454546 10.9346733668342  L 3.42424242424242 11.8994974874372  L 1.2020202020202 14.1105527638191  C 1.01346801346801 14.2981574539363  0.919191919191919 14.5259631490787  0.919191919191919 14.7939698492462  C 0.919191919191919 15.0753768844221  1.05050505050505 15.3467336683417  1.31313131313131 15.608040201005  C 1.57575757575758 15.8693467336683  1.84848484848485 16  2.13131313131313 16  C 2.4006734006734 16  2.62962962962963 15.9061976549414  2.81818181818182 15.7185929648241  L 9.5959595959596 8.9748743718593  C 10.7811447811448 9.85259631490787  12.010101010101 10.2914572864322  13.2828282828283 10.2914572864322  C 14.3804713804714 10.2914572864322  15.2744107744108 9.94807370184255  15.9646464646465 9.26130653266332  C 16.6548821548822 8.57453936348409  17 7.68509212730318  17 6.5929648241206  C 17 5.52093802345058  16.6801346801347 4.47236180904523  16.040404040404 3.44723618090452  C 15.4006734006734 2.42211055276382  14.5656565656566 1.59128978224456  13.5353535353535 0.954773869346734  C 12.5050505050505 0.31825795644891  11.4511784511785 0  10.3737373737374 0  C 9.27609427609428 0  8.38215488215488 0.343383584589613  7.69191919191919 1.03015075376884  C 7.0016835016835 1.71691792294807  6.65656565656566 2.60636515912898  6.65656565656566 3.69849246231156  C 6.65656565656566 4.96482412060302  7.0976430976431 6.18760469011725  7.97979797979798 7.36683417085427  L 4.39393939393939 10.9346733668342  L 3.42424242424242 9.96984924623116  C 3.44444444444444 9.94974874371859  3.53198653198653 9.86767169179229  3.68686868686869 9.72361809045226  C 3.84175084175084 9.57956448911223  3.97643097643097 9.45058626465661  4.09090909090909 9.33668341708543  C 4.2053872053872 9.22278056951424  4.31649831649831 9.10050251256281  4.42424242424242 8.96984924623116  C 4.53198653198653 8.8391959798995  4.58585858585859 8.74371859296483  4.58585858585859 8.68341708542714  C 4.58585858585859 8.56951423785595  4.42087542087542 8.34840871021775  4.09090909090909 8.02010050251256  C 3.76094276094276 7.69179229480737  3.53872053872054 7.52763819095477  3.42424242424242 7.52763819095477  C 3.33670033670034 7.52763819095477  3.25925925925926 7.56113902847571  3.19191919191919 7.62814070351759  C 3.15151515151515 7.66834170854271  2.996632996633 7.81742043551089  2.72727272727273 8.07537688442211  C 2.45791245791246 8.33333333333333  2.18181818181818 8.59966499162479  1.8989898989899 8.87437185929648  C 1.61616161616162 9.14907872696817  1.32491582491582 9.43718592964824  1.02525252525252 9.73869346733668  C 0.725589225589223 10.0402010050251  0.479797979797977 10.3015075376884  0.287878787878788 10.5226130653266  Z " fill-rule="nonzero" fill="#f59a23" stroke="none" transform="matrix(1 0 0 1 232 202 )" />
  </g>
</svg>