<?xml version="1.0" encoding="utf-8"?>
<svg version="1.1" xmlns:xlink="http://www.w3.org/1999/xlink" width="23px" height="23px" xmlns="http://www.w3.org/2000/svg">
  <g transform="matrix(1 0 0 1 -263 -808 )">
    <path d="M 274.5 808  C 280.94 808  286 813.06  286 819.5  C 286 825.94  280.94 831  274.5 831  C 268.06 831  263 825.94  263 819.5  C 263 813.06  268.06 808  274.5 808  Z " fill-rule="nonzero" fill="#ffffff" stroke="none" />
    <path d="M 274.5 808.5  C 280.66 808.5  285.5 813.34  285.5 819.5  C 285.5 825.66  280.66 830.5  274.5 830.5  C 268.34 830.5  263.5 825.66  263.5 819.5  C 263.5 813.34  268.34 808.5  274.5 808.5  Z " stroke-width="1" stroke="#d7d7d7" fill="none" />
  </g>
</svg>