<?xml version="1.0" encoding="utf-8"?>
<svg version="1.1" xmlns:xlink="http://www.w3.org/1999/xlink" width="33px" height="33px" xmlns="http://www.w3.org/2000/svg">
  <g transform="matrix(1 0 0 1 -490 -70 )">
    <path d="M 506.5 70  C 515.74 70  523 77.26  523 86.5  C 523 95.74  515.74 103  506.5 103  C 497.26 103  490 95.74  490 86.5  C 490 77.26  497.26 70  506.5 70  Z " fill-rule="nonzero" fill="#ffffff" stroke="none" />
    <path d="M 506.5 70.5  C 515.46 70.5  522.5 77.54  522.5 86.5  C 522.5 95.46  515.46 102.5  506.5 102.5  C 497.54 102.5  490.5 95.46  490.5 86.5  C 490.5 77.54  497.54 70.5  506.5 70.5  Z " stroke-width="1" stroke="#00ffff" fill="none" />
  </g>
</svg>