<?xml version="1.0" encoding="utf-8"?>
<svg version="1.1" xmlns:xlink="http://www.w3.org/1999/xlink" width="37px" height="35px" xmlns="http://www.w3.org/2000/svg">
  <g transform="matrix(1 0 0 1 -1650 -854 )">
    <path d="M 19.9399881164587 11.4321608040201  C 19.1192315309962 10.6113902847571  18.708853238265 9.61474036850921  18.708853238265 8.44221105527638  C 18.708853238265 7.26968174204355  19.1192315309962 6.27303182579564  19.9399881164587 5.45226130653266  C 20.7607447019212 4.63149078726968  21.7573776985542 4.22110552763819  22.9298871063577 4.22110552763819  C 24.1023965141612 4.22110552763819  25.0990295107942 4.63149078726968  25.9197860962567 5.45226130653266  C 26.7405426817192 6.27303182579564  27.1509209744504 7.26968174204355  27.1509209744504 8.44221105527638  C 27.1509209744504 9.05778894472362  27.0116854822737 9.66603852596315  26.7332144979204 10.266959798995  C 27.3341255694197 9.98848408710218  27.9423648247178 9.84924623115578  28.5579322638146 9.84924623115578  C 29.7304416716181 9.84924623115578  30.7270746682511 10.2596314907873  31.5478312537136 11.0804020100503  C 32.3685878391761 11.9011725293132  32.7789661319073 12.8978224455611  32.7789661319073 14.070351758794  C 32.7789661319073 15.2428810720268  32.3685878391761 16.2395309882747  31.5478312537136 17.0603015075377  C 30.7270746682511 17.8810720268007  29.7304416716181 18.2914572864322  28.5579322638146 18.2914572864322  C 27.3854228560111 18.2914572864322  26.3887898593781 17.8810720268007  25.5680332739156 17.0603015075377  C 24.7472766884532 16.2395309882747  24.3368983957219 15.2428810720268  24.3368983957219 14.070351758794  C 24.3368983957219 13.4547738693467  24.4761338878986 12.8465242881072  24.7546048722519 12.2456030150754  C 24.1536938007526 12.5240787269682  23.5454545454545 12.6633165829146  22.9298871063577 12.6633165829146  C 21.7573776985542 12.6633165829146  20.7607447019212 12.2529313232831  19.9399881164587 11.4321608040201  Z M 0.62655971479501 23.018216080402  C 0.208853238264999 23.5018844221106  0 23.8023450586265  0 23.9195979899498  C 0 24.1687604690117  0.359081006139824 24.6524288107203  1.07724301841949 25.3706030150754  C 1.79540503069915 26.0887772194305  2.2790651614181 26.447864321608  2.52822341057635 26.447864321608  C 2.66013071895425 26.447864321608  2.86898395721925 26.3306113902848  3.15478312537136 26.0961055276382  C 3.44058229352347 25.8615996649916  3.70806100217865 25.6197654941374  3.9572192513369 25.3706030150754  C 4.20637750049515 25.1214405360134  4.48851257674787 24.8283082077052  4.80362448009507 24.4912060301508  C 5.11873638344226 24.1541038525963  5.29827688651218 23.963567839196  5.34224598930481 23.9195979899498  L 7.45276292335116 26.0301507537688  L 2.61616161616162 30.8668341708543  C 2.20578332343038 31.2772194304858  2.00059417706476 31.7755443886097  2.00059417706476 32.3618090452261  C 2.00059417706476 32.9773869346734  2.28639334521688 33.5709798994975  2.85799168152109 34.1425879396985  C 3.42959001782531 34.7141959798995  4.02317290552585 35  4.6387403446227 35  C 5.22499504852446 35  5.72331154684096 34.7948073701843  6.13368983957219 34.3844221105528  L 20.8853238265003 19.6325376884422  C 23.4648445236681 21.552554438861  26.1396316102198 22.5125628140704  28.9096850861557 22.5125628140704  C 31.2986730045554 22.5125628140704  33.2443058031293 21.7614112227806  34.7465834818776 20.259108040201  C 36.2488611606259 18.7568048576214  37 16.8111390284757  37 14.4221105527638  C 37 12.0770519262982  36.3038225391167 9.78329145728643  34.91146761735 7.54082914572864  C 33.5191126955833 5.29836683417085  31.7017231134878 3.48094639865996  29.4592988710636 2.08856783919598  C 27.2168746286393 0.696189279731991  24.9231530996237 0  22.5781342840166 0  C 20.189146365617 0  18.243513567043 0.751151591289779  16.7412358882947 2.25345477386935  C 15.2389582095464 3.75575795644891  14.4878193701723 5.70142378559464  14.4878193701723 8.09045226130653  C 14.4878193701723 10.8605527638191  15.4478114478114 13.5353852596315  17.3677956030897 16.1149497487437  L 9.5632798573975 23.9195979899498  L 7.45276292335116 21.8090452261307  C 7.49673202614379 21.7650753768844  7.68726480491186 21.5855318257956  8.02436125965538 21.2704145728643  C 8.36145771439889 20.955297319933  8.65458506634977 20.6731574539363  8.90374331550802 20.4239949748744  C 9.15290156466627 20.1748324958124  9.39473163002574 19.9073492462312  9.62923351158645 19.6215452261307  C 9.86373539314715 19.3357412060302  9.98098633392751 19.1268844221106  9.98098633392751 18.9949748743719  C 9.98098633392751 18.7458123953099  9.62190532778768 18.2621440536013  8.90374331550802 17.5439698492462  C 8.18558130322836 16.8257956448911  7.70192117250941 16.4667085427136  7.45276292335116 16.4667085427136  C 7.26223014458308 16.4667085427136  7.09368191721133 16.5399916247906  6.94711824123589 16.6865577889447  C 6.85918003565063 16.7744974874372  6.52208358090711 17.1006072026801  5.93582887700535 17.6648869346734  C 5.34957417310358 18.2291666666667  4.74866310160428 18.8117671691792  4.13309566250743 19.4126884422111  C 3.51752822341058 20.0136097152429  2.88364032481679 20.6438442211055  2.23143196672608 21.303391959799  C 1.57922360863537 21.9629396984925  1.04426619132501 22.5345477386935  0.62655971479501 23.018216080402  Z " fill-rule="nonzero" fill="#f59a23" stroke="none" transform="matrix(1 0 0 1 1650 854 )" />
  </g>
</svg>