<?xml version="1.0" encoding="utf-8"?>
<svg version="1.1" xmlns:xlink="http://www.w3.org/1999/xlink" width="58px" height="59px" xmlns="http://www.w3.org/2000/svg">
  <g transform="matrix(1 0 0 1 -1640 -842 )">
    <path d="M 1669 842  C 1685.24 842  1698 854.98  1698 871.5  C 1698 888.02  1685.24 901  1669 901  C 1652.76 901  1640 888.02  1640 871.5  C 1640 854.98  1652.76 842  1669 842  Z " fill-rule="nonzero" fill="#ffffff" stroke="none" />
    <path d="M 1669 842.5  C 1684.96 842.5  1697.5 855.26  1697.5 871.5  C 1697.5 887.74  1684.96 900.5  1669 900.5  C 1653.04 900.5  1640.5 887.74  1640.5 871.5  C 1640.5 855.26  1653.04 842.5  1669 842.5  Z " stroke-width="1" stroke="#797979" fill="none" />
  </g>
</svg>