<?xml version="1.0" encoding="utf-8"?>
<svg version="1.1" xmlns:xlink="http://www.w3.org/1999/xlink" width="58px" height="59px" xmlns="http://www.w3.org/2000/svg">
  <g transform="matrix(1 0 0 1 -1534 -842 )">
    <path d="M 1563 842  C 1579.24 842  1592 854.98  1592 871.5  C 1592 888.02  1579.24 901  1563 901  C 1546.76 901  1534 888.02  1534 871.5  C 1534 854.98  1546.76 842  1563 842  Z " fill-rule="nonzero" fill="#00bfbf" stroke="none" />
    <path d="M 1563 842.5  C 1578.96 842.5  1591.5 855.26  1591.5 871.5  C 1591.5 887.74  1578.96 900.5  1563 900.5  C 1547.04 900.5  1534.5 887.74  1534.5 871.5  C 1534.5 855.26  1547.04 842.5  1563 842.5  Z " stroke-width="1" stroke="#797979" fill="none" />
  </g>
</svg>