<?xml version="1.0" encoding="utf-8"?>
<svg version="1.1" xmlns:xlink="http://www.w3.org/1999/xlink" width="16px" height="16px" xmlns="http://www.w3.org/2000/svg">
  <g transform="matrix(1 0 0 1 -1583 -97 )">
    <path d="M 11.0162831858407 15.2429824561404  C 10.0397061913887 15.652839843885  8.98970714739624 15.8630621794726  7.92920353982301 15.861052631579  C 3.54985764844447 15.8588227444819  0.000888937748671114 12.3391778007141  0.000888937748671114 7.99824665143834  C 0.000888937748671114 4.83975863713107  1.90758200674111 1.9878414144122  4.84212389380531 0.757017543859649  C 5.81900362760869 0.347927711772288  6.86872080176036 0.137150970547831  7.92920353982301 0.137150970547831  C 12.3101646322784 0.137150970547831  15.8616353040491 3.65746839081171  15.8616353040491 8  C 15.8616353040491 11.1601058381844  13.9530234135833 14.0131580211775  11.0162831858407 15.2429824561404  Z M 14.7242477876106 8  C 14.7242477876106 4.2859649122807  11.6761061946903 1.26456140350877  7.92920353982301 1.26456140350877  C 4.18230088495575 1.26456140350877  1.1341592920354 4.2859649122807  1.1341592920354 8  C 1.1341592920354 11.7140350877193  4.18230088495575 14.7354385964912  7.92920353982301 14.7354385964912  C 11.6761061946903 14.7354385964912  14.7242477876106 11.7140350877193  14.7242477876106 8  Z M 11.0375427083326 8  C 11.0375427083326 7.81490522624492  10.9455006147819 7.64170504810642  10.7915044247788 7.53701754385965  L 7.22938053097345 5.11684210526316  C 6.85362831858407 4.86140350877193  6.34283185840708 5.12824561403509  6.34283185840708 5.57982456140351  L 6.34283185840708 10.4210526315789  C 6.34283185840708 10.8726315789474  6.85362831858407 11.1394736842105  7.22938053097345 10.8840350877193  L 10.7915044247788 8.46298245614035  C 10.9455006147819 8.35829495189358  11.0375427083326 8.18509477375508  11.0375427083326 8  Z " fill-rule="nonzero" fill="#333333" stroke="none" transform="matrix(1 0 0 1 1583 97 )" />
  </g>
</svg>