<?xml version="1.0" encoding="utf-8"?>
<svg version="1.1" xmlns:xlink="http://www.w3.org/1999/xlink" width="1006px" height="10px" preserveAspectRatio="xMinYMid meet" viewBox="1207 2285  1006 8" xmlns="http://www.w3.org/2000/svg">
  <path d="M 1212.5 730  L 1212.5 1221  A 3 3 0 0 1 1215.5 1224 A 3 3 0 0 1 1212.5 1227 L 1212.5 2284  A 5 5 0 0 0 1217 2289.5 L 1482.93103448276 2289.5  A 3 3 0 0 1 1485.93103448276 2286.5 A 3 3 0 0 1 1488.93103448276 2289.5 L 2203 2289.5  A 5 5 0 0 1 2208.5 2294.5 L 2208.5 2378  " stroke-width="1" stroke-dasharray="9,4" stroke="#02a7f0" fill="none" />
  <path d="M 2202.5 2372.3  L 2208.5 2379  L 2214.5 2372.3  L 2208.5 2374.6  L 2202.5 2372.3  Z " fill-rule="nonzero" fill="#02a7f0" stroke="none" />
</svg>