<?xml version="1.0" encoding="utf-8"?>
<svg version="1.1" xmlns:xlink="http://www.w3.org/1999/xlink" width="26px" height="26px" xmlns="http://www.w3.org/2000/svg">
  <g transform="matrix(1 0 0 1 -658 -1167 )">
    <path d="M 2.03272727272727 13  C 2.03272727272727 19.0570574745079  6.9429425254921 23.9672727272727  13 23.9672727272727  C 19.0570574745079 23.9672727272727  23.9672727272727 19.0570574745079  23.9672727272727 13  C 23.9672727272727 6.9429425254921  19.0570574745079 2.03272727272727  13 2.03272727272727  C 6.9429425254921 2.03272727272727  2.03272727272727 6.9429425254921  2.03272727272727 13  Z M 13 25.8581818181818  C 5.8986222712666 25.8581818181818  0.141818181818185 20.1013777287334  0.141818181818185 13  C 0.141818181818185 5.8986222712666  5.8986222712666 0.141818181818185  13 0.141818181818185  C 20.1013777287334 0.141818181818185  25.8581818181818 5.8986222712666  25.8581818181818 13  C 25.8581818181818 20.1013777287334  20.1013777287334 25.8581818181818  13 25.8581818181818  Z M 17.9466181818182 9.38458181818182  L 14.3312 13  L 17.9466181818182 16.6154181818182  C 18.1231462774554 16.7919462774554  18.2223187289337 17.0313697548282  18.2223187289337 17.2810181818182  C 18.2223187289337 17.8008841189975  17.8008841189975 18.2223187289337  17.2810181818182 18.2223187289337  C 17.0313697548282 18.2223187289337  16.7919462774554 18.1231462774554  16.6154181818182 17.9466181818182  L 13 14.3312  L 9.38458181818182 17.9466181818182  C 9.20805372254462 18.1231462774554  8.96863024517184 18.2223187289337  8.71898181818182 18.2223187289337  C 8.19911588100253 18.2223187289337  7.77768127106629 17.8008841189975  7.77768127106629 17.2810181818182  C 7.77768127106629 17.0313697548282  7.87685372254462 16.7919462774554  8.05338181818182 16.6154181818182  L 11.6688 13  L 8.05338181818182 9.38458181818182  C 7.87685372254462 9.20805372254462  7.77768127106629 8.96863024517184  7.77768127106629 8.71898181818182  C 7.77768127106629 8.19911588100253  8.19911588100253 7.77768127106629  8.71898181818182 7.77768127106629  C 8.96863024517184 7.77768127106629  9.20805372254462 7.87685372254462  9.38458181818182 8.05338181818182  L 13 11.6688  L 16.6154181818182 8.05338181818182  C 16.7919462774554 7.87685372254462  17.0313697548282 7.77768127106629  17.2810181818182 7.77768127106629  C 17.8008841189975 7.77768127106629  18.2223187289337 8.19911588100253  18.2223187289337 8.71898181818182  C 18.2223187289337 8.96863024517184  18.1231462774554 9.20805372254462  17.9466181818182 9.38458181818182  Z " fill-rule="nonzero" fill="#ffffff" stroke="none" transform="matrix(1 0 0 1 658 1167 )" />
  </g>
</svg>