<?xml version="1.0" encoding="utf-8"?>
<svg version="1.1" xmlns:xlink="http://www.w3.org/1999/xlink" width="1157px" height="589px" xmlns="http://www.w3.org/2000/svg">
  <defs>
    <linearGradient gradientUnits="userSpaceOnUse" x1="605.5" y1="583" x2="605.5" y2="60" id="LinearGradient97">
      <stop id="Stop98" stop-color="#ec808d" stop-opacity="0.0470588235294118" offset="0" />
      <stop id="Stop99" stop-color="#ec808d" stop-opacity="0.149019607843137" offset="1" />
    </linearGradient>
    <filter x="27px" y="27px" width="1157px" height="589px" filterUnits="userSpaceOnUse" id="filter100">
      <feOffset dx="0" dy="0" in="SourceAlpha" result="shadowOffsetInner" />
      <feGaussianBlur stdDeviation="16.5" in="shadowOffsetInner" result="shadowGaussian" />
      <feComposite in2="shadowGaussian" operator="atop" in="SourceAlpha" result="shadowComposite" />
      <feColorMatrix type="matrix" values="0 0 0 0 0  0 0 0 0 0  0 0 0 0 0  0 0 0 0.349019607843137 0  " in="shadowComposite" />
    </filter>
    <g id="widget101">
      <path d="M 62.5 115  A 52.5 52.5 0 0 1 115 62.5 L 1096 62.5  A 52.5 52.5 0 0 1 1148.5 115 L 1148.5 528  A 52.5 52.5 0 0 1 1096 580.5 L 115 580.5  A 52.5 52.5 0 0 1 62.5 528 L 62.5 115  Z " fill-rule="nonzero" fill="url(#LinearGradient97)" stroke="none" />
      <path d="M 61.5 115  A 53.5 53.5 0 0 1 115 61.5 L 1096 61.5  A 53.5 53.5 0 0 1 1149.5 115 L 1149.5 528  A 53.5 53.5 0 0 1 1096 581.5 L 115 581.5  A 53.5 53.5 0 0 1 61.5 528 L 61.5 115  Z " stroke-width="3" stroke="#ffffff" fill="none" />
    </g>
  </defs>
  <g transform="matrix(1 0 0 1 -27 -27 )">
    <use xlink:href="#widget101" filter="url(#filter100)" />
    <use xlink:href="#widget101" />
  </g>
</svg>