<?xml version="1.0" encoding="utf-8"?>
<svg version="1.1" xmlns:xlink="http://www.w3.org/1999/xlink" width="170px" height="170px" xmlns="http://www.w3.org/2000/svg">
  <g transform="matrix(1 0 0 1 -653 -286 )">
    <path d="M 738 290  C 783.36 290  819 325.64  819 371  C 819 416.36  783.36 452  738 452  C 692.64 452  657 416.36  657 371  C 657 325.64  692.64 290  738 290  Z " fill-rule="nonzero" fill="#d9001b" stroke="none" fill-opacity="0" />
    <path d="M 738 288.5  C 784.2 288.5  820.5 324.8  820.5 371  C 820.5 417.2  784.2 453.5  738 453.5  C 691.8 453.5  655.5 417.2  655.5 371  C 655.5 324.8  691.8 288.5  738 288.5  Z " stroke-width="5" stroke="#aaaaaa" fill="none" />
  </g>
</svg>