<?xml version="1.0" encoding="utf-8"?>
<svg version="1.1" xmlns:xlink="http://www.w3.org/1999/xlink" width="520px" height="35px" viewBox="838 77  520 35" xmlns="http://www.w3.org/2000/svg">
  <path d="M 838.5 82  A 4.5 4.5 0 0 1 843 77.5 L 1353 77.5  A 4.5 4.5 0 0 1 1357.5 82 L 1357.5 107  A 4.5 4.5 0 0 1 1353 111.5 L 843 111.5  A 4.5 4.5 0 0 1 838.5 107 L 838.5 82  Z " fill-rule="nonzero" fill="#ffffff" stroke="none" />
  <path d="M 838.5 82  A 4.5 4.5 0 0 1 843 77.5 L 1353 77.5  A 4.5 4.5 0 0 1 1357.5 82 L 1357.5 107  A 4.5 4.5 0 0 1 1353 111.5 L 843 111.5  A 4.5 4.5 0 0 1 838.5 107 L 838.5 82  Z " stroke-width="1" stroke="#81d3f8" fill="none" />
</svg>