<?xml version="1.0" encoding="utf-8"?>
<svg version="1.1" xmlns:xlink="http://www.w3.org/1999/xlink" width="41px" height="41px" xmlns="http://www.w3.org/2000/svg">
  <g transform="matrix(1 0 0 1 -131 -232 )">
    <path d="M 40.884180776483 20.5  C 40.884180776483 31.7578124004237  31.7578124004237 40.884180776483  20.5 40.884180776483  C 9.24218755614407 40.884180776483  0.11581922351695 31.7578124004237  0.11581922351695 20.5  C 0.11581922351695 9.24218759957627  9.24218755614407 0.115819223516949  20.5 0.115819223516949  C 31.7578124438559 0.115819223516949  40.884180776483 9.24218759957627  40.884180776483 20.5  Z M 14.5211344777542 21.3503909459746  C 14.5304 24.6340971461864  17.2022101694915 27.2942327394068  20.5 27.3036836302966  C 23.7977898305085 27.2944181080509  26.4694146747881 24.6340971896187  26.4788655222458 21.3503909459746  L 26.4788655222458 15.3346485730932  C 26.4788655222458 12.0477921048729  23.8011254237288 9.38135593220339  20.5 9.38135593220339  C 17.1990599014831 9.38135593220339  14.5211344777542 12.0477921048729  14.5211344777542 15.3346485730932  L 14.5211344777542 21.3503909459746  Z M 28.6186485730932 21.2981333188559  L 28.6186485730932 21.3503909459746  C 28.6186485730932 25.8154530783898  24.9841491525424 29.434386440678  20.5 29.434386440678  C 16.0158508474576 29.434386440678  12.3813514269068 25.8152677966102  12.3813514269068 21.3503909459746  L 12.3813514269068 21.2981333188559  C 12.3813514269068 20.7767403160851  11.9586788857158 20.3540677748941  11.4372858829449 20.3540677748941  C 10.9158928801741 20.3540677748941  10.4932203389831 20.7767403160851  10.4932203389831 21.2981333188559  L 10.4932203389831 21.3503909459746  C 10.4932203389831 26.5359412139831  14.4707299290254 30.797346878178  19.5560271186441 31.2704451832627  L 19.5560271186441 34.3849627118644  C 19.5560271186441 34.9049446472458  19.9776090540254 35.3248587425848  20.5 35.3248587425848  C 21.0223909459746 35.3248587425848  21.4439728813559 34.9049446038136  21.4439728813559 34.3849627118644  L 21.4439728813559 31.270259901483  C 26.5292700709746 30.797346878178  30.5067796610169 26.5359412574153  30.5067796610169 21.3503909459746  L 30.5067796610169 21.2981333188559  C 30.5067796610169 20.7767403160851  30.0841071198259 20.3540677748941  29.5627141170551 20.3540677748941  C 29.0413211142842 20.3540677748941  28.6186485730932 20.7767403160851  28.6186485730932 21.2981333188559  Z " fill-rule="nonzero" fill="#02a7f0" stroke="none" transform="matrix(1 0 0 1 131 232 )" />
  </g>
</svg>