<?xml version="1.0" encoding="utf-8"?>
<svg version="1.1" xmlns:xlink="http://www.w3.org/1999/xlink" width="22px" height="22px" xmlns="http://www.w3.org/2000/svg">
  <g transform="matrix(1 0 0 1 -22 0 )">
    <path d="M 33 0  C 39.16 0  44 4.84  44 11  C 44 17.16  39.16 22  33 22  C 26.84 22  22 17.16  22 11  C 22 4.84  26.84 0  33 0  Z " fill-rule="nonzero" fill="#ffffff" stroke="none" />
    <path d="M 33 0.5  C 38.88 0.5  43.5 5.12  43.5 11  C 43.5 16.88  38.88 21.5  33 21.5  C 27.12 21.5  22.5 16.88  22.5 11  C 22.5 5.12  27.12 0.5  33 0.5  Z " stroke-width="1" stroke="#169bd5" fill="none" />
  </g>
</svg>