<?xml version="1.0" encoding="utf-8"?>
<svg version="1.1" xmlns:xlink="http://www.w3.org/1999/xlink" width="25px" height="25px" xmlns="http://www.w3.org/2000/svg">
  <g transform="matrix(1 0 0 1 -380 -325 )">
    <path d="M 24.6261378413524 10.3055916775033  L 22.3829648894668 12.5  L 24.6261378413524 14.6944083224967  C 24.9512353706112 14.9978326831383  25.0596012136974 15.3771131339402  24.9512353706112 15.8322496749025  C 24.8211963589077 16.2765496315561  24.5394451668834 16.5528825314261  24.1059817945384 16.6612483745124  L 21.0500650195059 17.4414824447334  L 21.9115734720416 20.4648894668401  C 22.0416124837451 20.9091894234937  21.9386649328132 21.2884698742956  21.6027308192458 21.6027308192458  C 21.2884698742956 21.9386649328132  20.9091894234937 22.0416124837451  20.4648894668401 21.9115734720416  L 17.4414824447334 21.0500650195059  L 16.6612483745124 24.1059817945384  C 16.5528825314261 24.5394451668834  16.2765496315561 24.8211963589077  15.8322496749025 24.9512353706112  C 15.702210663199 24.9729085392284  15.599263112267 24.9837451235371  15.5234070221066 24.9837451235371  C 15.1874729085392 24.9837451235371  14.9111400086693 24.8645426961422  14.6944083224967 24.6261378413524  L 12.5 22.3829648894668  L 10.3055916775033 24.6261378413524  C 10.0021673168617 24.9512353706112  9.62288686605982 25.0596012136974  9.16775032509753 24.9512353706112  C 8.72345036844387 24.8320329432163  8.44711746857391 24.550281751192  8.33875162548765 24.1059817945384  L 7.55851755526658 21.0500650195059  L 4.53511053315995 21.9115734720416  C 4.09081057650629 22.0416124837451  3.71153012570438 21.9386649328132  3.39726918075423 21.6027308192458  C 3.06133506718682 21.2884698742956  2.95838751625488 20.9091894234937  3.08842652795839 20.4648894668401  L 3.94993498049415 17.4414824447334  L 0.894018205461639 16.6612483745124  C 0.460554833116602 16.5528825314261  0.178803641092328 16.2765496315561  0.0487646293888166 15.8322496749025  C -0.0596012136974426 15.3771131339402  0.0487646293888166 14.9978326831383  0.373862158647594 14.6944083224967  L 2.61703511053316 12.5  L 0.373862158647594 10.3055916775033  C 0.0487646293888166 10.0021673168617  -0.0596012136974426 9.62288686605982  0.0487646293888166 9.16775032509753  C 0.178803641092328 8.72345036844387  0.460554833116602 8.44711746857391  0.894018205461639 8.33875162548765  L 3.94993498049415 7.55851755526658  L 3.08842652795839 4.53511053315995  C 2.95838751625488 4.09081057650628  3.06133506718682 3.71153012570438  3.39726918075423 3.39726918075423  C 3.71153012570438 3.06133506718682  4.09081057650629 2.95838751625488  4.53511053315995 3.08842652795839  L 7.55851755526658 3.94993498049415  L 8.33875162548765 0.894018205461639  C 8.44711746857391 0.449718248807973  8.72345036844387 0.173385348938013  9.16775032509753 0.0650195058517544  C 9.61205028175119 -0.0650195058517544  9.9913307325531 0.0379280450801905  10.3055916775033 0.373862158647595  L 12.5 2.6332899869961  L 14.6944083224967 0.373862158647595  C 15.0086692674469 0.0487646293888172  15.3879497182488 -0.0541829215431333  15.8322496749025 0.0650195058517544  C 16.2765496315561 0.173385348938013  16.5528825314261 0.449718248807973  16.6612483745124 0.894018205461639  L 17.4414824447334 3.94993498049415  L 20.4648894668401 3.08842652795839  C 20.9091894234937 2.95838751625488  21.2884698742956 3.06133506718682  21.6027308192458 3.39726918075423  C 21.9386649328132 3.71153012570438  22.0416124837451 4.09081057650628  21.9115734720416 4.53511053315995  L 21.0500650195059 7.55851755526658  L 24.1059817945384 8.33875162548765  C 24.5394451668834 8.44711746857391  24.8211963589077 8.72345036844387  24.9512353706112 9.16775032509753  C 25.0596012136974 9.62288686605982  24.9512353706112 10.0021673168617  24.6261378413524 10.3055916775033  Z " fill-rule="nonzero" fill="#eb1c26" stroke="none" fill-opacity="0.219607843137255" transform="matrix(1 0 0 1 380 325 )" />
  </g>
</svg>