<?xml version="1.0" encoding="utf-8"?>
<svg version="1.1" xmlns:xlink="http://www.w3.org/1999/xlink" width="18px" height="18px" xmlns="http://www.w3.org/2000/svg">
  <g transform="matrix(1 0 0 1 -236 -766 )">
    <path d="M 17.9995590527344 9.04456193554688  C 17.9992782070312 8.73555076757813  17.7489658300781 8.4850979765625  17.4399371191406 8.4850979765625  L 16.85207165625 8.4850979765625  C 16.5770264707031 4.60536150585938  13.4834042460938 1.51135310742187  9.60454545117187 1.23637812890625  L 9.60463321875 0.649565876953125  C 9.60463321875 0.340712701171875  9.35396977148438 0.0898737363281251  9.04485331054688 0.0898737363281251  C 8.73582459960938 0.0898737363281251  8.48542447265625 0.34071271875  8.48542447265625 0.649565876953125  L 8.48542447265625 1.23637812890625  C 4.60633747851563 1.51135310742187  1.51271525390625 4.60536150585938  1.23796847460938 8.4850979765625  L 0.65005034765625 8.4850979765625  C 0.340986533203125 8.4850979765625  0.0903230859375 8.73549812109375  0.0903230859375 9.04456193554688  C 0.0903230859375 9.3536784140625  0.340986533203125 9.60451737890625  0.65005034765625 9.60451737890625  L 1.23796847460938 9.60451737890625  C 1.51271527148438 13.4838150117188  4.60633747851563 16.5780515917969  8.48542447265625 16.8531143554688  L 8.48542447265625 17.4399266074219  C 8.48542447265625 17.7490430859375  8.7358246171875 17.9993554453125  9.04485331054688 17.9993554453125  C 9.35405755664062 17.9993554453125  9.60463321875 17.7490430683594  9.60463321875 17.4399266074219  L 9.60463321875 16.8531143554688  C 13.4834042460938 16.5780515917969  16.577026453125 13.4838150117188  16.8520892167969 9.60451737890625  L 17.4399546796875 9.60451737890625  C 17.748983390625 9.60451737890625  17.9995590527344 9.35367839648437  17.9995590527344 9.04456193554688  Z M 14.6419327617188 9.04457947851562  C 14.6419327792969 9.35369593945313  14.89233290625 9.604534921875  15.2015371523438 9.604534921875  L 15.732880453125 9.604534921875  C 15.4629959765625 12.8661437636719  12.8658734472656 15.4643897109375  9.60463321875 15.7339231347656  L 9.60463321875 15.2011755527344  C 9.60463321875 14.8920590742187  9.35396977148437 14.6413956445313  9.04485331054688 14.6413956445313  C 8.73582459960937 14.6413956445313  8.48542447265625 14.8920590917969  8.48542447265625 15.2011755527344  L 8.48542447265625 15.7339231347656  C 5.22381563085937 15.4643897285156  2.626745765625 12.8661262207031  2.35717723828125 9.604534921875  L 2.888380125 9.604534921875  C 3.19749660351563 9.604534921875  3.44810738671875 9.35369593945313  3.44810738671875 9.04457947851562  C 3.44810738671875 8.73555076757812  3.19749660351563 8.48511551953125  2.888380125 8.48511551953125  L 2.35717722070313 8.48511551953125  C 2.62674574804688 5.22312050390625  5.22386827734375 2.62529583398438  8.48542445507812 2.35576241015625  L 8.48542445507812 2.88833445703125  C 8.48542445507812 3.19745093554688  8.73582459960937 3.44802659765625  9.04485329296875 3.44802659765625  C 9.3540575390625 3.44802659765625  9.60463320117187 3.19745091796875  9.60463320117187 2.88833445703125  L 9.60463320117187 2.35576241015625  C 12.8658734296875 2.62529581640625  15.4629959589844 5.22312048632813  15.7328804355469 8.48511551953125  L 15.2015371347656 8.48511551953125  C 14.8923328886719 8.48511551953125  14.6419327617188 8.7355156640625  14.6419327617188 9.04457947851562  Z M 11.0041707832031 9.04510608398438  C 11.0041532226562 7.96314577148438  10.1272875644531 7.08622744921875  9.04537991601562 7.08622744921875  C 7.96343714648437 7.08622744921875  7.0865539453125 7.96314577148438  7.0865539453125 9.04510608398438  C 7.0865539453125 10.1268381972656  7.9634371640625 11.00398471875  9.04537991601562 11.00398471875  C 10.1272875644531 11.00398471875  11.0041707832031 10.1268381972656  11.0041707832031 9.04510608398438  Z " fill-rule="nonzero" fill="#ffffff" stroke="none" transform="matrix(1 0 0 1 236 766 )" />
  </g>
</svg>