<?xml version="1.0" encoding="utf-8"?>
<svg version="1.1" xmlns:xlink="http://www.w3.org/1999/xlink" width="18px" height="19px" xmlns="http://www.w3.org/2000/svg">
  <g transform="matrix(1 0 0 1 -1476 -348 )">
    <path d="M 17.7428042763158 15.1909179628027  C 17.7379894066416 17.1446711802  16.2372252891295 18.7264041024589  14.3862960068678 18.728515625  L 3.61006116365132 18.728515625  C 1.75915696930084 18.726396381143  0.25920342839082 17.1431120879602  0.257195723684211 15.1893798828125  L 0.257195723684211 3.81138916610352  C 0.258801912040113 1.85735663547127  1.75887284310099 0.273604358222228  3.61006116365132 0.271484375  L 10.8811600478197 0.271484375  C 11.2332695919319 0.288961447900806  11.5102370448048 0.59538639443759  11.5102370448048 0.967468264692383  C 11.5102370448048 1.33955013494718  11.2332695919319 1.64597508148396  10.8811600478197 1.66345215438477  L 3.61006116365132 1.66345215438477  C 2.48591833461568 1.66472373455979  1.57492099482967 2.62633203766724  1.57371633992701 3.81292724609375  L 1.57371633992701 15.1909179628027  C 1.57492098551573 16.3775131781969  2.48591832802474 17.3391214921605  3.61006116365132 17  L 14.3884817079369 17  C 15.5123400078297 17.3386978295831  16.4228941200045 16.3772133656066  16.4240979590039 15.1909179628027  L 16.4240979590039 8.31490479110352  C 16.4406551859626 7.94323360565174  16.7309525037343 7.65087907206366  17.0834511176598 7.65087907206366  C 17.4359497315854 7.65087907206366  17.7262470493571 7.94323360565174  17.7428042763158 8.31490479110352  L 17.7428042763158 15.1909179628027  Z M 17.0535798668986 4.04748534561524  L 8.42588919148951 13.190637201084  L 4.59508377314864 8.17647705672852  C 4.51261012264419 8.05720658146926  4.46816685987134 7.91336237635902  4.46816685987134 7.76570022878212  C 4.46816685987134 7.38089421131579  4.76369551355455 7.06894729909462  5.12824858273318 7.06894729909462  C 5.31681120124417 7.06894729909462  5.49637175365752 7.15407061201282  5.62163471986123 7.30284423233398  L 8.52934569749075 11.1088378965723  L 16.1202855104019 3.06618652938477  C 16.2438090604307 2.93478048662028  16.4119240186461 2.86087098306975  16.587297367221 2.86087098306975  C 16.9506433070315 2.86087098306975  17.2451933890138 3.17178495849548  17.2451933890138 3.555316783851  C 17.2467141537154 3.74044519223085  17.1776166867873 3.91765522531888  17.0535798668986 4.04748534561524  Z " fill-rule="nonzero" fill="#00bfbf" stroke="none" transform="matrix(1 0 0 1 1476 348 )" />
  </g>
</svg>