<?xml version="1.0" encoding="utf-8"?>
<svg version="1.1" xmlns:xlink="http://www.w3.org/1999/xlink" width="6px" height="10px" xmlns="http://www.w3.org/2000/svg">
  <g transform="matrix(1 0 0 1 -160 -52 )">
    <path d="M 5.81432602631579 9.823996775  C 5.69137707894737 9.941593875  5.52967838157895 9.999994625  5.36800231578947 9.999994625  C 5.20632625 9.999994625  5.04462755263158 9.941593875  4.92127118421053 9.824405325  L 0.29011097368421 5.4248031125  C 0.0433756052631576 5.1908130625  0.0433756052631576 4.8107996125  0.29011097368421 4.5764010125  L 4.92127119736842 0.176390275  C 5.16800656578947 -0.0580083250000001  5.56759067105263 -0.0580083250000001  5.81432603947368 0.176390275  C 6.06106140789474 0.410380325  6.06106140789474 0.790393775  5.81432603947368 1.024792375  L 1.62989694736842 5.00038705  L 5.81432602631579 8.975594675  C 6.06106139473684 9.209993275  6.06106139473684 9.589598175  5.81432602631579 9.823996775  Z " fill-rule="nonzero" fill="#aaaaaa" stroke="none" transform="matrix(1 0 0 1 160 52 )" />
  </g>
</svg>