<?xml version="1.0" encoding="utf-8"?>
<svg version="1.1" xmlns:xlink="http://www.w3.org/1999/xlink" width="19px" height="19px" xmlns="http://www.w3.org/2000/svg">
  <g transform="matrix(1 0 0 1 -1523 -294 )">
    <path d="M 1.49633968561585 11.229030960379  L 1.46309262101637 11.229030960379  L 1.42962682859604 11.1634117622739  L 0.46568078208441 11.3628941300603  L 0.498927846683893 11.4285133281654  C 0.930920919035314 13.3568428966408  2.02807395176572 15.0856900973299  3.55765751248923 16.3823254978467  C 4.82104584840654 17.413203129199  6.31716361670973 18.1113914263566  7.91302257881137 18.3773679233419  L 7.91302257881137 17.2799961627907  C 4.78779878380706 16.7150148518519  2.22864995865633 14.3875018001723  1.49633968561585 11.229030960379  Z M 15.9581552756245 3.01700675710594  L 15.9922772713178 3.01700675710594  C 14.2634300706288 1.28794080878553  11.93613574677 0.357023099052541  9.47563445650302 0.357023099052541  C 6.436186359074 0.354485719551721  3.58968944504459 1.84618159411388  1.86205735658915 4.34688920241171  L 1.29685731782946 5.17806575796727  L 1.29685731782946 2.35184677691645  C 1.29685866220492 2.35148126625931  1.29685933439436 2.35111575343896  1.29685933439436 2.35075024030947  C 1.29685933439436 2.18609764159623  1.16338203043749 2.05262033763936  0.998729431724249 2.05262033763936  C 0.998291295693911 2.05262033763936  0.997853160195898 2.05262130347596  0.997415028423773 2.05262323514212  L 0.29922673126615 2.05262323514212  C 0.298788310476042 2.05262129950644  0.298349885947044 2.05262033168506  0.297911460884025 2.05262033168506  C 0.133379662210599 2.05262033168506  0 2.1859997078609  0 2.35053150653433  C 0 2.35096993159739  0 2.3514083561263  0 2.35184677691645  L 0 6.80717176485788  C 0 6.80761019225153  0 6.80804862338414  0 6.8084870550509  C 0 6.97301885372433  0.133379662123133 7.10639822990017  0.297911460796559 7.10639822990017  C 0.298349885888817 7.10639822990017  0.298788310446805 7.10639726207866  0.29922673126615 7.10639532644272  L 4.82104584840654 7.10639532644272  C 4.82148426922579 7.10639726207866  4.82192269378398 7.10639822990017  4.82236111887614 7.10639822990017  C 4.98689291754956 7.10639822990017  5.12027229372541 6.97301885372433  5.12027229372541 6.8084870550509  C 5.12027229372541 6.8080486233842  5.12027132587487 6.80761019225147  5.12026939018088 6.80717176485788  L 5.12026939018088 6.17525886907838  C 5.12027132184704 6.17482073730632  5.12027228768364 6.17438260180818  5.12027228768364 6.17394446577791  C 5.12027228768364 6.00929186706466  4.98679498372677 5.87581456310779  4.82214238501353 5.87581456310779  C 4.82177687188406 5.87581456310779  4.82141135906367 5.87581523529723  4.82104584840654 5.8758165796727  L 2.02807393195521 5.8758165796727  L 2.29426915676141 5.41079519035314  C 3.72389279586563 2.88379977088717  6.45015185529716 1.28794082859604  9.40914034711456 1.28794080878553  C 13.8977123996555 1.28794080878553  17.55488916882 4.91208926098191  17.5548891490095 9.33394845650302  C 17.5547171854962 9.73498156299624  17.5213562704058 10.1353125838376  17.4551479750215 10.5308426632214  L 18.5855480723514 10.5308426632214  C 18.6187951369509 10.1651249922481  18.6511672704565 9.79940730146426  18.6511672704565 9.43368963049096  C 18.6511672704565 7.0057792213609  17.6870024763135 4.74585395779501  15.9581552756245 3.01700675710594  Z M 9.84047721619294 10.563214796727  L 9.80810508268734 10.5308426632214  C 9.84312501430803 10.5280528917398  9.87093450931082 10.500243396737  9.87372428079242 10.4652234651163  L 9.87372428079242 5.21131280275624  C 9.87093450931081 5.17629287113555  9.84312501430803 5.14848337613277  9.80810508268734 5.14569360465116  L 9.04254774504737 5.14569360465116  C 9.00752781342668 5.14848337613277  8.9797183184239 5.17629287113555  8.97692854694229 5.21131280275624  L 8.97692854694229 9.66641906287683  L 5.51923414556417 9.66641906287683  C 5.48421420621713 9.66920882511933  5.45640470046363 9.69701832247711  5.45361492764858 9.73203826098191  L 5.45361492764858 10.4975955986219  C 5.45640470046363 10.5326155371267  5.48421420621713 10.5604250344845  5.51923414556417 10.563214796727  L 9.84047721619294 10.563214796727  Z M 9.10991678552972 13.024372290267  L 9.10991678552972 12.0934545607235  L 18.5523010077519 12.0934545607235  L 18.5523010077519 13.024372290267  L 9.10991678552972 13.024372290267  Z M 9.10991678552972 15.750631329888  L 9.10991678552972 14.8197136003445  L 18.5523010077519 14.8197136003445  L 18.5523010077519 15.750631329888  L 9.10991678552972 15.750631329888  Z M 9.10991678552972 18.4771091171404  L 9.10991678552972 17.5461913875969  L 18.5523010077519 17.5461913875969  L 18.5523010077519 18.4771091171404  L 9.10991678552972 18.4771091171404  Z " fill-rule="nonzero" fill="#aaaaaa" stroke="none" transform="matrix(1 0 0 1 1523 294 )" />
  </g>
</svg>