<?xml version="1.0" encoding="utf-8"?>
<svg version="1.1" xmlns:xlink="http://www.w3.org/1999/xlink" width="20px" height="20px" xmlns="http://www.w3.org/2000/svg">
  <g transform="matrix(1 0 0 1 -1427 -293 )">
    <path d="M 19.9995100585937 10.0495132617188  C 19.9991980078125 9.70616751953125  19.7210731445313 9.427886640625  19.3777079101563 9.427886640625  L 18.7245240625 9.427886640625  C 18.4189183007813 5.11706833984375  14.9815602734375 1.67928123046875  10.6717171679688 1.3737534765625  L 10.6718146875 0.72173986328125  C 10.6718146875 0.37856966796875  10.3932997460938 0.0998597070312501  10.0498370117188 0.0998597070312501  C 9.70647177734375 0.0998597070312501  9.4282494140625 0.3785696875  9.4282494140625 0.72173986328125  L 9.4282494140625 1.3737534765625  C 5.11815275390625 1.67928123046875  1.6807947265625 5.11706833984375  1.37552052734375 9.427886640625  L 0.7222781640625 9.427886640625  C 0.37887392578125 9.427886640625  0.100358984375 9.7061090234375  0.100358984375 10.0495132617188  C 0.100358984375 10.392976015625  0.37887392578125 10.6716859765625  0.7222781640625 10.6716859765625  L 1.37552052734375 10.6716859765625  C 1.68079474609375 14.9820166796875  5.11815275390625 18.4200573242188  9.4282494140625 18.7256826171875  L 9.4282494140625 19.3776962304688  C 9.4282494140625 19.721158984375  9.706471796875 19.999283828125  10.0498370117188 19.999283828125  C 10.3933972851562 19.999283828125  10.6718146875 19.7211589648437  10.6718146875 19.3776962304688  L 10.6718146875 18.7256826171875  C 14.9815602734375 18.4200573242188  18.41891828125 14.9820166796875  18.7245435742188 10.6716859765625  L 19.377727421875 10.6716859765625  C 19.72109265625 10.6716859765625  19.9995100585937 10.3929759960937  19.9995100585937 10.0495132617188  Z M 16.2688141796875 10.0495327539062  C 16.2688141992188 10.3929954882812  16.5470365625 10.67170546875  16.8905968359375 10.67170546875  L 17.48097828125 10.67170546875  C 17.181106640625 14.2957152929687  14.2954149414062 17.182655234375  10.6718146875 17.4821368164063  L 10.6718146875 16.8901950585937  C 10.6718146875 16.5467323046875  10.3932997460937 16.2682173828125  10.0498370117188 16.2682173828125  C 9.70647177734375 16.2682173828125  9.4282494140625 16.5467323242187  9.4282494140625 16.8901950585937  L 9.4282494140625 17.4821368164063  C 5.80423958984375 17.1826552539062  2.91860640625 14.2956958007812  2.6190858203125 10.67170546875  L 3.20931125 10.67170546875  C 3.55277400390625 10.67170546875  3.8312304296875 10.3929954882812  3.8312304296875 10.0495327539062  C 3.8312304296875 9.70616751953125  3.55277400390625 9.4279061328125  3.20931125 9.4279061328125  L 2.61908580078125 9.4279061328125  C 2.91860638671875 5.8034672265625  5.8042980859375 2.91699537109375  9.42824939453125 2.6175137890625  L 9.42824939453125 3.2092605078125  C 9.42824939453125 3.55272326171875  9.70647177734375 3.8311406640625  10.0498369921875 3.8311406640625  C 10.393397265625 3.8311406640625  10.6718146679687 3.5527232421875  10.6718146679687 3.2092605078125  L 10.6718146679687 2.6175137890625  C 14.295414921875 2.9169953515625  17.1811066210938 5.80346720703125  17.4809782617188 9.4279061328125  L 16.8905968164062 9.4279061328125  C 16.5470365429687 9.4279061328125  16.2688141796875 9.706128515625  16.2688141796875 10.0495327539062  Z M 12.2268564257813 10.0501178710938  C 12.2268369140625 8.84793974609375  11.2525417382813 7.8735860546875  10.0504221289062 7.8735860546875  C 8.84826349609375 7.8735860546875  7.873948828125 8.84793974609375  7.873948828125 10.0501178710938  C 7.873948828125 11.2520424414063  8.848263515625 12.2266496875  10.0504221289062 12.2266496875  C 11.2525417382813 12.2266496875  12.2268564257813 11.2520424414063  12.2268564257813 10.0501178710938  Z " fill-rule="nonzero" fill="#00bfbf" stroke="none" transform="matrix(1 0 0 1 1427 293 )" />
  </g>
</svg>