<?xml version="1.0" encoding="utf-8"?>
<svg version="1.1" xmlns:xlink="http://www.w3.org/1999/xlink" width="148.492537313433px" height="10px" preserveAspectRatio="xMinYMid meet" viewBox="7.50746268656718 1176  148.492537313433 8" xmlns="http://www.w3.org/2000/svg">
  <path d="M 46 1070.5  L 17.5074626865672 1070.5  A 5 5 0 0 0 13.0074626865672 1075.5 L 13.0074626865672 1175  A 5 5 0 0 0 18.0074626865672 1180.5 L 146 1180.5  A 5 5 0 0 1 151.5 1185.5 L 151.5 1192  " stroke-width="1" stroke="#ff3399" fill="none" />
  <path d="M 44 1067.5  A 3 3 0 0 0 41 1070.5 A 3 3 0 0 0 44 1073.5 A 3 3 0 0 0 47 1070.5 A 3 3 0 0 0 44 1067.5 Z " fill-rule="nonzero" fill="#ff3399" stroke="none" />
</svg>