<?xml version="1.0" encoding="utf-8"?>
<svg version="1.1" xmlns:xlink="http://www.w3.org/1999/xlink" width="14px" height="18px" xmlns="http://www.w3.org/2000/svg">
  <g transform="matrix(1 0 0 1 -961 -498 )">
    <path d="M 7.67907796474359 11.7885714285714  C 7.67907796474359 11.4819624821429  7.36695157692308 11.2335353571429  6.98201502564102 11.2335353571429  C 6.59678840064103 11.2335353571429  6.28466201282051 11.4819624821429  6.28466201282051 11.7885714285714  L 6.28466201282051 14.0082539642857  C 6.28466201282051 14.3146320357143  6.59707847435897 14.5632900357143  6.98201502564102 14.5632900357143  C 7.36695157692308 14.5632900357143  7.67907796474359 14.3146320357143  7.67907796474359 14.0082539642857  L 7.67907796474359 11.7885714285714  Z M 13.9549650288462 12.343376625  C 13.9549650288462 11.09685425  13.4319502692308 9.95007214285715  12.5599689294872 9.02378066071429  L 12.5599689294872 4.57402598214286  C 12.5599689294872 2.12184703571429  10.0629577820513 0.134199142857143  6.98201502564102 0.134199142857143  C 3.90136234294872 0.134199142857143  1.40377104807692 2.12184705357143  1.40377104807692 4.57402598214286  L 1.40377104807692 9.02378066071429  C 0.531789685897436 9.95007214285714  0.0090650000000002 11.09685425  0.0090650000000002 12.343376625  C 0.0090650000000002 15.4085425714286  3.13090909294872 17.8932756071429  6.98201502564103 17.8932756071429  C 10.8331209583333 17.8932756071429  13.9549650288462 15.4085425535714  13.9549650288462 12.343376625  Z M 2.798187 7.91116883928571  L 2.798187 4.57402598214286  C 2.798187 2.73483407142857  4.67152551923077 1.24404041071429  6.98201502564103 1.24404041071429  C 9.29250453205128 1.24404041071429  11.1655529775641 2.73483405357143  11.1655529551282 4.57402598214286  L 11.1655529551282 7.91116883928571  C 9.99943017948718 7.21275614285714  8.55396010897436 6.79370851785714  6.98201502564103 6.79370851785714  C 5.41006994230769 6.79370851785714  3.96459984935898 7.21252525  2.798187 7.91116883928571  Z M 12.5599689294872 12.343376625  C 12.5599689294872 14.7955555535714  10.0629577820513 16.7834343392857  6.98201502564103 16.7834343392857  C 3.90136234294872 16.7834343392857  1.40377104807692 14.7955555535714  1.40377104807692 12.343376625  C 1.40377104807692 9.89142857142857  3.90107226923077 7.90378066071429  6.98201502564103 7.90378066071429  C 9.95765864423077 7.90378066071429  12.5599689294872 9.97500721428572  12.5599689294872 12.343376625  Z " fill-rule="nonzero" fill="#d9001b" stroke="none" transform="matrix(1 0 0 1 961 498 )" />
  </g>
</svg>