<?xml version="1.0" encoding="utf-8"?>
<svg version="1.1" xmlns:xlink="http://www.w3.org/1999/xlink" width="15px" height="15px" xmlns="http://www.w3.org/2000/svg">
  <g transform="matrix(1 0 0 1 -1270 -575 )">
    <path d="M 14.196876742889 0.0919732441471566  C 14.3920803123257 -0.0250836120401354  14.5817066369214 -0.0195094760312176  14.765755716676 0.108695652173914  C 14.9498047964306 0.242474916387959  15.0250976017847 0.420847268673354  14.9916341327384 0.643812709030101  L 12.8499721137758 13.4866220735786  C 12.8220858895706 13.6482720178372  12.7328499721138 13.7736900780379  12.5822643614055 13.8628762541806  C 12.5041829336308 13.907469342252  12.4177356385945 13.9297658862876  12.3229224762967 13.9297658862876  C 12.2615727830452 13.9297658862876  12.1946458449526 13.9158305462653  12.122141662019 13.8879598662207  L 7.71332961517011 12.0903010033445  L 5.22030117122142 14.8244147157191  C 5.11991076408254 14.9414715719064  4.9888455103179 15  4.8271054099275 15  C 4.74902398215282 15  4.68488566648076 14.9888517279822  4.63469046291132 14.9665551839465  C 4.5287228109314 14.9275362318841  4.44506413831567 14.8620401337793  4.38371444506414 14.7700668896321  C 4.3223647518126 14.6780936454849  4.29168990518684 14.5763656633222  4.29168990518684 14.4648829431438  L 4.29168990518684 10.685618729097  L 0.343000557724484 9.07190635451505  C 0.136642498605689 8.99386845039019  0.0250976017847184 8.84057971014493  0.00836586726157278 8.61204013377926  C -0.00836586726157278 8.39464882943144  0.0808700501952036 8.23021181716834  0.276073619631902 8.11872909698997  L 14.196876742889 0.0919732441471566  Z M 7.78862242052426 10.9615384615385  L 11.9046291132181 12.6421404682274  L 13.7534857780257 1.58026755852843  L 1.75683212493028 8.49498327759197  L 4.56776352481874 9.64046822742475  L 11.7875069715561 4.29765886287625  L 7.78862242052426 10.9615384615385  Z " fill-rule="nonzero" fill="#ffffff" stroke="none" transform="matrix(1 0 0 1 1270 575 )" />
  </g>
</svg>