<?xml version="1.0" encoding="utf-8"?>
<svg version="1.1" xmlns:xlink="http://www.w3.org/1999/xlink" width="14px" height="14px" xmlns="http://www.w3.org/2000/svg">
  <g transform="matrix(1 0 0 1 -961 -329 )">
    <path d="M 6.96150297637795 8.20812505078125  C 4.69165674015748 8.20812505078125  2.84500217322835 6.367627  2.84500218700787 4.10597110546875  C 2.84500218700787 1.84431519726563  4.69165675393701 0.00381714648437592  6.96150297637795 0.00381714648437592  C 9.23199041535433 0.00381714648437592  11.0786449685039 1.84431519726563  11.0786449822835 4.10597110546875  C 11.0786449822835 6.36762701367187  9.23199041535433 8.20812506445312  6.96214417913386 8.20812505078125  Z M 6.96214417913386 0.477142599609375  L 6.96150297637795 0.478414972656251  C 4.95518975 0.47777879296875  3.32333701771654 2.105789328125  3.32333701771654 4.10533491210937  C 3.32333701771654 6.10615286914062  4.95583095275591 7.73289103125  6.96214417913386 7.73289103125  C 8.96909862204724 7.73289103125  10.6015925433071 6.10615286914062  10.6015925570866 4.10533491210937  C 10.6015925570866 2.1051531484375  8.96845743307087 0.477142599609375  6.96214417913386 0.477142599609375  Z M 13.9178763720472 13.7321639492187  C 13.9127467775591 13.8594019785156  13.8056664547244 13.9923657070312  13.678067753937 14  L 0.245579415354331 14  C 0.113490899197687 13.9923657207031  0.00641199999999999 13.8861233754054  0.00641199999999999 13.7550668007813  L 0.00384720275590551 13.6596382753906  C 0.00384720275590551 10.5003180898437  3.12456516929134 7.9301099609375  6.96150297637795 7.93010997460937  C 10.7984407972441 7.93010997460937  13.9197999665354 10.5003181035156  13.9197999665354 13.6596382753906  L 13.9178763720472 13.7321639492187  Z M 6.96086178740157 8.40407162109375  C 3.44644732677165 8.40407162109375  0.576438356299212 10.6854494277344  0.482823222440945 13.5184040742187  L 13.4350531496063 13.5184040742187  C 13.3119428405512 10.6587294433594  10.4547578700787 8.40407162109375  6.96086178740157 8.40407162109375  Z " fill-rule="nonzero" fill="#000000" stroke="none" transform="matrix(1 0 0 1 961 329 )" />
  </g>
</svg>