<?xml version="1.0" encoding="utf-8"?>
<svg version="1.1" xmlns:xlink="http://www.w3.org/1999/xlink" width="14px" height="12px" xmlns="http://www.w3.org/2000/svg">
  <g transform="matrix(1 0 0 1 -961 -568 )">
    <path d="M 14 0.554897837837838  C 13.963158984375 0.317228047297297  13.814635671875 0.124549175675676  13.631463875 0.124549175675676  L 0.368568109375 0.124549175675676  C 0.185348328125 0.124549175675676  0.03682503125 0.317228047297298  0 0.554897837837838  L 0 11.4450814256757  C 0.03682503125 11.6827511959459  0.185348328125 11.8754300878378  0.368568109375 11.8754300878378  L 13.631463859375 11.8754300878378  C 13.814635671875 11.8754300878378  13.96315896875 11.6827512162162  14 11.4450814256757  L 14 0.554897837837838  Z M 0.563443984375 2.78629305405405  L 0.563443984375 1  L 13.43652403125 1  L 13.43652403125 2.89257861486486  L 12.83512378125 3.38308108783784  L 12.820157921875 3.38308108783784  L 7.01689253125 8.16288210810811  L 2.840172359375 4.6963839527027  L 0.563443984375 2.78629305405405  Z M 13.436540015625 3.67061629054054  L 13.43654003125 11  L 0.563443984375 11  L 0.563443984375 3.70645966216216  L 0.56541065625 3.70948810135135  L 3.656914609375 6.20945971621622  L 6.816660296875 8.79547202027027  C 7.046792265625 9.00298191891892  7.214566515625 8.79547202027027  7.214566515625 8.79547202027027  L 7.405700921875 8.63602293243243  L 13.436540015625 3.67061629054054  Z " fill-rule="nonzero" fill="#555555" stroke="none" transform="matrix(1 0 0 1 961 568 )" />
  </g>
</svg>