<?xml version="1.0" encoding="utf-8"?>
<svg version="1.1" xmlns:xlink="http://www.w3.org/1999/xlink" width="103px" height="25px" xmlns="http://www.w3.org/2000/svg">
  <g transform="matrix(1 0 0 1 -636 -592 )">
    <path d="M 637 597  A 4 4 0 0 1 641 593 L 734 593  A 4 4 0 0 1 738 597 L 738 612  A 4 4 0 0 1 734 616 L 641 616  A 4 4 0 0 1 637 612 L 637 597  Z " fill-rule="nonzero" fill="#ec808d" stroke="none" fill-opacity="0.298039215686275" />
    <path d="M 636.5 597  A 4.5 4.5 0 0 1 641 592.5 L 734 592.5  A 4.5 4.5 0 0 1 738.5 597 L 738.5 612  A 4.5 4.5 0 0 1 734 616.5 L 641 616.5  A 4.5 4.5 0 0 1 636.5 612 L 636.5 597  Z " stroke-width="1" stroke-dasharray="9,4" stroke="#d9001b" fill="none" stroke-dashoffset="0.5" />
  </g>
</svg>