<?xml version="1.0" encoding="utf-8"?>
<svg version="1.1" xmlns:xlink="http://www.w3.org/1999/xlink" width="37px" height="23px" xmlns="http://www.w3.org/2000/svg">
  <defs>
    <linearGradient gradientUnits="userSpaceOnUse" x1="0" y1="0" x2="36.63" y2="22.77" id="LinearGradient141">
      <stop id="Stop142" stop-color="#81d3f8" stop-opacity="0.996078431372549" offset="0" />
      <stop id="Stop143" stop-color="#02a7f0" offset="1" />
    </linearGradient>
  </defs>
  <g transform="matrix(1 0 0 1 -25 -13 )">
    <path d="M 36.8565773195876 13.2222570067544  C 36.8565162886598 12.6230763455386  36.376935257732 12.1372757909705  35.7854235051546 12.1372757909705  L 26.7717657731959 12.1372757909705  C 26.1803150515464 12.1372757909705  25.7006729896907 12.6230763455386  25.7006729896907 13.2222570067544  L 25.7006729896907 13.7385545965162  C 25.7006729896907 14.33779674369  26.1802540206186 14.8235358123  26.7717657731959 14.8235358123  L 27.250858556701 14.8235358123  C 27.511338556701 14.8235358123  27.7207356701031 14.8671293565588  27.8734350515464 14.9528407820832  C 27.9623571134021 15.0029518378955  28.0133789690722 15.0421798791326  28.0395002061856 15.0652371134021  C 28.0588470103093 15.1665044863135  28.0944280412371 15.4354440668325  28.0944280412371 16.041326697476  L 28.0944280412371 19.1938347387131  C 27.9003820991792 19.2502310977864  27.7042925799595 19.2992292868949  27.5065781443299 19.3407246924991  C 27.1106705154639 19.4229929043725  26.7204997938144 19.4646803839317  26.3479059793814 19.4646803839317  C 25.2710762886598 19.4646803839317  24.3783769072165 19.2109278350515  23.6181756701031 18.689035023107  C 22.8839125773196 18.1844812513331  22.3572767010309 17.3867009456097  22.0089731958763 16.2501330110203  C 21.6235628865979 14.9928066548169  21.4281418556701 13.4948242587984  21.4281418556701 11.7984881621045  C 21.4281418556701 10.403494745823  21.6088544329897 9.02491808034127  21.965030927835 7.7008794596516  C 22.292889072165 6.48155142552434  22.8219051546392 5.56946872378243  23.5825946391753 4.91249126199786  C 24.3098391752577 4.28385882687522  25.2145616494845 3.97851955918947  26.3479059793814 3.97851955918947  C 27.5669987628866 3.97851955918947  28.6647620618557 4.37098442943475  29.7038746391753 5.17811060078207  C 30.748846185567 5.99003267685744  31.5518301030928 7.21710794169924  32.0903059793814 8.82515020263063  C 32.2378177319588 9.26538966228225  32.6457484536082 9.56162900817631  33.10464 9.56162900817631  L 33.6108915463918 9.56162900817631  C 34.2023422680412 9.56162900817631  34.6819843298969 9.07576696765018  34.6819843298969 8.47652482047634  L 34.6819843298969 1.80468351226447  C 34.6819843298969 1.2055028510487  34.2024032989691 0.719640810522563  33.6108915463918 0.719640810522563  L 33.10464 0.719640810522563  C 32.6491051546392 0.719640810522563  32.2433105154639 1.0116991112691  32.0931744329897 1.44745009598292  C 31.9247901030928 1.93681683611801  31.8042540206186 2.06372385353713  31.7990663917526 2.06895015997155  L 31.796686185567 2.07104068254531  C 31.6507612371134 2.02972211873443  31.3139925773196 1.92076900106646  30.5818045360825 1.63621198720226  C 29.6211167010309 1.26243884820475  28.923655257732 1.03733875577674  28.4506655670103 0.948491546391738  C 27.6485971134021 0.787275364379646  26.7435694845361 0.705560526128677  25.7598729896907 0.705560526128677  C 22.5086944329897 0.705560526128677  19.7656593814433 1.80203961606824  17.6070564948454 3.96431630287947  C 15.444913814433 6.12917539992889  14.3484931958763 8.81678811233557  14.3484931958763 11.9520800853182  C 14.3484931958763 13.7065818983292  14.7090639175258 15.3217565303946  15.4201962886598 16.7526577461784  C 15.982535257732 17.8698576039815  16.7667216494845 18.8818549875578  17.7534696907217 19.7649163170992  C 18.7264857731959 20.6359263988624  19.862698556701 21.3476263633132  21.1301888659794 21.8802177319588  C 22.4177583505155 22.4212941628155  24.0306226804124 22.6957674795592  25.9241072164948 22.6957674795592  C 27.3694416494845 22.6957674795592  28.7853591752577 22.5491849555634  30.1328610309278 22.2602009527195  C 31.482926185567 21.9710939779595  32.8011331958763 21.5359578528262  34.0500701030928 20.9672742268041  C 34.4346870103093 20.7921622182723  34.6820453608247 20.4047391965873  34.6820453608247 19.9775347600426  L 34.6820453608247 16.0412652115179  C 34.6820453608247 15.4507540703875  34.7142086597938 15.2205506434412  34.7270251546392 15.1524242019196  C 34.7586391752577 15.0863882829719  34.8033748453608 15.0127281052257  34.8564107216495 14.9843830785638  C 34.8655653608248 14.9797716317099  35.0805162886598 14.8741387557767  35.8573789690722 14.8211993458941  C 36.4199010309279 14.7828321080697  36.8565773195876 14.3095746889442  36.8565773195876 13.7385545965162  L 36.8565773195876 13.2222570067544  Z M 35.7854235051546 13.7386160824742  C 35.1018771134021 13.7852839246356  34.6251645360825 13.8806486455741  34.3560791752577 14.0249561891219  C 34.0872989690722 14.1688333309634  33.8796107216495 14.4090589690722  33.7337468041237 14.7436040668326  C 33.6516602061856 14.9200072804835  33.6108305154639 15.3528684251689  33.6108305154639 16.041326697476  L 33.6108305154639 19.9775962460007  C 32.4251826804124 20.5174429576964  31.1919917525773 20.9243570280839  29.9109525773196 21.1987688588695  C 28.6299134020619 21.4734881194454  27.3005377319588 21.6107247778173  25.9239851546392 21.6107247778173  C 24.1638531958763 21.6107247778173  22.7027117525773 21.366379580519  21.5403167010309 20.8779966157128  C 20.3771892783505 20.3892447351582  19.3516865979381 19.7476387628866  18.4625270103093 18.9518260078208  C 17.5734894845361 18.1561362246712  16.87792 17.2604702737291  16.3767340206186 16.2646436971205  C 15.7385336082474 14.9806939210807  15.4194028865979 13.5427833060789  15.4194028865979 11.9520800853182  C 15.4194028865979 9.10484982580875  16.3993764948454 6.69896577319588  18.3600560824742 4.73578061855671  C 20.3201863917526 2.77234952008532  22.786812371134 1.79066471382865  25.7597509278351 1.79066471382865  C 26.680707628866 1.79066471382865  27.5101789690722 1.86506272307145  28.249141443299 2.01422765730536  C 28.6502977319588 2.08862566654817  29.2998498969072 2.2997684464984  30.1981030927835 2.64919314610736  C 31.0963562886598 2.99831041592606  31.6273863917526 3.17293053679347  31.7916206185567 3.17293053679347  C 32.0468519587629 3.17293053679347  32.2839571134021 3.07731987202275  32.5028750515464 2.88659043014575  C 32.7217319587629 2.69586098826876  32.9220354639175 2.33506138642019  33.1045179381443 1.80468351226449  L 33.6107694845361 1.80468351226449  L 33.6107694845361 8.47652482047637  L 33.1045179381443 8.47652482047637  C 32.4936593814433 6.65272833274086  31.5774020618557 5.26652740846071  30.3554408247423 4.31712273018131  C 29.1335406185567 3.36790250977604  27.7978177319588 2.89347685744757  26.3477839175258 2.89347685744757  C 24.9615884536083 2.89347685744757  23.8082259793815 3.29135249200142  22.887452371134 4.08691930323498  C 21.9662515463918 4.8826705723427  21.3143802061856 5.99181576964096  20.9314721649485 7.41570758620691  C 20.5484420618557 8.83953791681479  20.3569880412371 10.300505766086  20.3569880412371 11.7985496480626  C 20.3569880412371 13.6131232420903  20.5667513402062 15.2041338926413  20.9859117525773 16.57207348738  C 21.4053773195876 17.9400745680768  22.0823934020619 18.9451240383932  23.0172041237113 19.5872218983292  C 23.9517707216495 20.229073814433  25.0620453608247 20.5498460575898  26.3477839175258 20.5498460575898  C 26.7944082474227 20.5498460575898  27.2528115463918 20.5011491788127  27.7224445360825 20.4036324493423  C 28.1920775257732 20.3056238322076  28.6729402061856 20.163898698898  29.1653987628866 19.9776577319588  L 29.1653987628866 16.0413881834341  C 29.1653987628866 15.29728511909  29.1151703092784 14.8156656096694  29.0147744329897 14.5969600568788  C 28.9143175257732 14.3786234198365  28.7072395876289 14.1807001208674  28.392686185567 14.0040509633843  C 28.0781327835052 13.8273403199431  27.6968725773196 13.7386160824742  27.2507364948454 13.7386160824742  L 26.7716437113402 13.7386160824742  L 26.7716437113402 13.2223184927124  L 35.785301443299 13.2223184927124  L 35.785301443299 13.7386160824742  Z M 13.4511554639175 15.2962398578031  C 13.4511554639175 13.1463218485602  12.7515579381443 11.4202880341273  11.3716486597938 10.1664048915748  C 10.0254894845361 8.94209649484536  8.16783010309278 8.32133426235336  5.85060783505154 8.32133426235336  C 5.68912 8.32133426235336  5.49760494845361 8.32508490579452  5.27362144329897 8.33258619267685  L 5.27362144329897 5.01935385709207  L 11.4995084536082 5.01935385709207  C 12.0910202061856 5.01935385709207  12.5706012371134 4.53349181656594  12.5706012371134 3.9342496693921  L 12.5706012371134 1.74750157127622  C 12.5706012371134 1.14832091006043  12.0910202061856 0.662520355492349  11.4995084536082 0.662520355492349  L 1.91295340206186 0.662520355492349  C 1.32144164948454 0.662520355492349  0.841860618556699 1.14832091006043  0.841860618556699 1.74750157127622  L 0.841860618556699 11.6943924351226  C 0.841860618556699 11.9991168432279  0.968316701030928 12.2897609669392  1.19028618556701 12.4952470387487  C 1.41182101849946 12.7006527514323  1.70915661998129 12.8022527271635  2.00901608247423 12.7750081478848  C 3.26533773195876 12.660336836118  4.27015092783505 12.6021096338429  4.99513731958763 12.6021096338429  C 6.31944742268041 12.6021096338429  7.31248164948453 12.8684053181657  7.9468981443299 13.3935568858869  C 8.53261195876289 13.8788655527906  8.8054812371134 14.5396551439744  8.8054812371134 15.4731964450764  C 8.8054812371134 16.4080289512975  8.51729319587629 17.1269227728404  7.92449979381443 17.6707045858514  C 7.30070268041237 18.2430158833985  6.47416082474227 18.5211783576253  5.3978193814433 18.5211783576253  C 4.1807406185567 18.5211783576253  3.03378639175258 18.1565051404195  1.89159257731959 17.4064379381443  C 1.56263417187903 17.1900902603741  1.14221280146907 17.1735979011376  0.797552164948454 17.3635207394241  C 0.452666391752576 17.5534508638464  0.237959587628865 17.9192923142552  0.237959587628865 18.3168605190188  L 0.237959587628865 20.8446097404906  C 0.237959587628865 21.2322787060078  0.442169072164947 21.5905573835762  0.773750103092782 21.7844226093139  C 1.87218474226804 22.4263974973338  3.39301443298969 22.7386846782794  5.42296412371134 22.7386846782794  C 7.86584907216495 22.7386846782794  9.83080082474227 22.0489966868112  11.2632577319588 20.6886813508709  C 12.715061443299 19.3092438819765  13.4511554639175 17.4950392036971  13.4511554639175 15.2962398578031  Z M 12.3801237113402 15.2962398578031  C 12.3801237113402 17.1919134305012  11.7636503092783 18.7256806541059  10.5307035051546 19.8970496409527  C 9.29775670103093 21.0679882260931  7.59505484536083 21.6536419765375  5.42296412371134 21.6536419765375  C 3.60296082474227 21.6536419765375  2.23171793814433 21.3839645645219  1.30899134020619 20.8446712264486  L 1.30899134020619 18.3169220049769  C 2.61749443298969 19.1763112406683  3.98037608247423 19.6062825453253  5.3978193814433 19.6062825453253  C 6.73952329896907 19.6062825453253  7.82147958762887 19.2290047067188  8.64350515463917 18.4751868610025  C 9.46553072164948 17.7209386135798  9.87657402061856 16.720193160327  9.87657402061856 15.4733194169925  C 9.87657402061856 14.2178376395308  9.45924453608248 13.2448838393174  8.62464659793815 12.5534742410238  C 7.79010969072165 11.8626795023107  6.58029360824742 11.5171899040171  4.99513731958763 11.5171899040171  C 4.23200659793814 11.5171899040171  3.20430680412371 11.5765238535371  1.91295340206186 11.6944539210807  L 1.91295340206186 1.74744008531817  L 11.4995694845361 1.74744008531817  L 11.4995694845361 3.93418818343406  L 4.20258969072165 3.93418818343406  L 4.20258969072165 9.46958452897263  C 4.93227546391752 9.42777407749733  5.48143175257732 9.40631547813721  5.85060783505154 9.40631547813721  C 7.90539711340206 9.40631547813721  9.5073369072165 9.92894612157838  10.6564882474227 10.9740229505866  C 11.8056395876289 12.0183004621401  12.3801237113402 13.4593468610025  12.3801237113402 15.2962398578031  Z " fill-rule="nonzero" fill="url(#LinearGradient141)" stroke="none" transform="matrix(1 0 0 1 25 13 )" />
  </g>
</svg>