<?xml version="1.0" encoding="utf-8"?>
<svg version="1.1" xmlns:xlink="http://www.w3.org/1999/xlink" width="10px" height="1414px" preserveAspectRatio="xMidYMin meet" viewBox="1159 418  8 1414" xmlns="http://www.w3.org/2000/svg">
  <path d="M 1468 423.5  L 1168 423.5  A 5 5 0 0 0 1163.5 428 L 1163.5 772  A 3 3 0 0 1 1166.5 775 A 3 3 0 0 1 1163.5 778 L 1163.5 1488  A 3 3 0 0 1 1166.5 1491 A 3 3 0 0 1 1163.5 1494 L 1163.5 1822  A 5 5 0 0 1 1158.5 1827.5 L 281 1827.5  A 5 5 0 0 1 276.5 1822.5 L 276.5 1653  " stroke-width="1" stroke-dasharray="9,4" stroke="#02a7f0" fill="none" />
  <path d="M 282.5 1658.7  L 276.5 1652  L 270.5 1658.7  L 276.5 1656.4  L 282.5 1658.7  Z " fill-rule="nonzero" fill="#02a7f0" stroke="none" />
</svg>