<?xml version="1.0" encoding="utf-8"?>
<svg version="1.1" xmlns:xlink="http://www.w3.org/1999/xlink" width="20px" height="20px" xmlns="http://www.w3.org/2000/svg">
  <g transform="matrix(1 0 0 1 -972 -455 )">
    <path d="M 982 456  C 987.04 456  991 459.96  991 465  C 991 470.04  987.04 474  982 474  C 976.96 474  973 470.04  973 465  C 973 459.96  976.96 456  982 456  Z " fill-rule="nonzero" fill="#ffffff" stroke="none" />
    <path d="M 982 456  C 987.04 456  991 459.96  991 465  C 991 470.04  987.04 474  982 474  C 976.96 474  973 470.04  973 465  C 973 459.96  976.96 456  982 456  Z " stroke-width="2" stroke="#69e147" fill="none" />
  </g>
</svg>