<?xml version="1.0" encoding="utf-8"?>
<svg version="1.1" xmlns:xlink="http://www.w3.org/1999/xlink" width="20px" height="20px" xmlns="http://www.w3.org/2000/svg">
  <g transform="matrix(1 0 0 1 -1412 -455 )">
    <path d="M 1422 456  C 1427.04 456  1431 459.96  1431 465  C 1431 470.04  1427.04 474  1422 474  C 1416.96 474  1413 470.04  1413 465  C 1413 459.96  1416.96 456  1422 456  Z " fill-rule="nonzero" fill="#ffffff" stroke="none" />
    <path d="M 1422 456  C 1427.04 456  1431 459.96  1431 465  C 1431 470.04  1427.04 474  1422 474  C 1416.96 474  1413 470.04  1413 465  C 1413 459.96  1416.96 456  1422 456  Z " stroke-width="2" stroke="#d9001b" fill="none" />
  </g>
</svg>