<?xml version="1.0" encoding="utf-8"?>
<svg version="1.1" xmlns:xlink="http://www.w3.org/1999/xlink" width="5px" height="12px" xmlns="http://www.w3.org/2000/svg">
  <g transform="matrix(1 0 0 1 -494 -473 )">
    <path d="M 4.94441441844271 6.03453142382812  C 4.94441441844271 5.76854641790104  4.86921539305222 5.51347394803588  4.73538551666667 5.32551268359375  L 1.20595369166667 0.3619845703125  C 1.07326203473107 0.183671309702554  0.896791960278313 0.0841640196849768  0.713255988361867 0.0841640196849768  C 0.319394353741056 0.0841640196849768  0.000106413361867178 0.53316268584321  0.000106413361867178 1.08703060952873  C 0.000106413361867178 1.34519277983965  0.0709025509743244 1.5934109131404  0.19775965 1.78002205078125  L 3.22328261666667 6.03439911328125  L 0.197571483333333 10.28824696875  C 0.0718945904707757 10.4745714360172  0.00183627681166977 10.7215958248864  0.00183627681166977 10.9784058841711  C 0.00183627681166977 11.5322738078566  0.321124217190858 11.9812724740148  0.71498585181167 11.9812724740148  C 0.897606338414137 11.9812724740148  1.07326812605445 11.8827529704317  1.205765525 11.7060198398437  L 4.73538551666667 6.7435501640625  C 4.86921539305222 6.55558889962037  4.94441441844271 6.30051642975521  4.94441441844271 6.03453142382812  Z " fill-rule="nonzero" fill="#02a7f0" stroke="none" transform="matrix(1 0 0 1 494 473 )" />
  </g>
</svg>