<?xml version="1.0" encoding="utf-8"?>
<svg version="1.1" xmlns:xlink="http://www.w3.org/1999/xlink" width="5px" height="12px" xmlns="http://www.w3.org/2000/svg">
  <g transform="matrix(1 0 0 1 -434 -473 )">
    <path d="M 0.0555855815572859 6.03453142382812  C 0.0555855815572859 5.76854641790104  0.130784606947776 5.51347394803588  0.264614483333334 5.32551268359375  L 3.79404630833333 0.3619845703125  C 3.92673796526893 0.183671309702554  4.10320803972169 0.0841640196849768  4.28674401163813 0.0841640196849768  C 4.68060564625894 0.0841640196849768  4.99989358663813 0.53316268584321  4.99989358663813 1.08703060952873  C 4.99989358663813 1.34519277983965  4.92909744902568 1.5934109131404  4.80224035 1.78002205078125  L 1.77671738333333 6.03439911328125  L 4.80242851666667 10.28824696875  C 4.92810540952922 10.4745714360172  4.99816372318833 10.7215958248864  4.99816372318833 10.9784058841711  C 4.99816372318833 11.5322738078566  4.67887578280914 11.9812724740148  4.28501414818833 11.9812724740148  C 4.10239366158586 11.9812724740148  3.92673187394555 11.8827529704317  3.794234475 11.7060198398437  L 0.264614483333332 6.7435501640625  C 0.130784606947776 6.55558889962037  0.0555855815572859 6.30051642975521  0.0555855815572859 6.03453142382812  Z " fill-rule="nonzero" fill="#02a7f0" stroke="none" transform="matrix(1 0 0 1 434 473 )" />
  </g>
</svg>