<?xml version="1.0" encoding="utf-8"?>
<svg version="1.1" xmlns:xlink="http://www.w3.org/1999/xlink" width="74px" height="78px" xmlns="http://www.w3.org/2000/svg">
  <g transform="matrix(1 0 0 1 -818 -1056 )">
    <path d="M 49.0995229282787 10.1426896289062  C 49.0995229282787 15.7344827402344  44.572346 20.2840344433594  39.0064081741803 20.2840345195312  C 33.4404703483607 20.2840345195312  28.910616227459 15.7344828164062  28.9106161516393 10.1426896289062  C 28.9106161516393 4.55224140820313  33.4404703483607 0  39.0064081741803 0  C 44.572346 0  49.0995229282787 4.549551703125  49.0995229282787 10.1426896289062  Z M 26.7353759159836 19.0723448144531  C 26.7353759159836 24.18  22.5990729016393 28.3382068886719  17.5150344487705 28.3382068886719  C 12.4309959959016 28.3382068886719  8.2933543852459 24.1826896289063  8.29335446106557 19.0723448144531  C 8.29335453688524 13.962  12.4309960717213 9.80648274023437  17.5150344487705 9.80648274023437  C 22.6055805129627 9.81315368124093  26.7302136824643 13.9581500668142  26.7353759159836 19.0723448144531  Z M 8.38170265163935 49.296  L 8.38170265163935 49.2973448144531  C 3.8915022390432 49.2928936591984  0.253202625533809 45.6358878097435  0.250989272540984 41.1248275546875  C 0.255416662643599 36.6153427969187  3.89306881120364 32.9607927709794  8.38170265163935 32.9563448144531  C 12.8698137289369 32.9615338529595  16.5066513479789 36.6158671951843  16.5110774344262 41.1248275546875  C 16.5081270437672 45.6348382377542  12.8708579810131 49.2908085350881  8.38170265163935 49.296  Z M 24.4088727807377 63.1329310371094  C 24.4088727807377 66.9522414082031  21.316685125 70.0614827402344  17.5150344487705 70.0614827402344  C 13.7082462005086 70.0570348864964  10.6235458484689 66.9574036369919  10.6198575204918 63.1329310371094  C 10.6250173643149 59.3098144339555  13.7082576169218 56.2116502344487  17.513695852459 56.2057241484375  C 21.3196568526102 56.210909748988  24.403711157323 59.3092903194744  24.4088727807377 63.1329310371094  Z M 39.0050695020492 78  L 39.0064081741803 78  C 35.6808107937635 77.9970341213403  32.9856181015305 75.2893215306215  32.9826659364754 71.9482758515625  C 32.9826659364754 68.6104137773438  35.6853182745902 65.896551703125  39.0064081741803 65.896551703125  C 42.3314827587224 65.9002588306806  45.025860775481 68.6077546554782  45.0288117397541 71.9482758515625  C 45.0288117397541 75.2861379257813  42.3274979979508 78  39.0050695020492 78  Z M 65.6848931782787 62.8868275546875  C 65.681942252386 65.5831858618951  63.5069548204007 67.7682767324127  60.8230639118852 67.7712414082031  C 58.1391729737604 67.7682767743832  55.9641854956433 65.5831858915959  55.9612345696721 62.8868275546875  C 55.9641855374198 60.1904692475261  58.1391730033238 58.0053784110848  60.8230639118852 58.0024137773437  C 63.5069547908373 58.0053784530554  65.6819422106094 60.1904692772268  65.6848931782787 62.8868275546875  Z M 73.7486760594262 41.1624827402344  C 73.744991411467 43.3750190802447  71.9605875168745 45.1677120131988  69.7582814836066 45.1714137773437  C 67.5564096383252 45.1684504647009  65.7721751489702 43.375927689847  65.769225579918 41.1638275546875  C 65.7714377858354 38.9512022551569  67.555887768383 37.1578614016006  69.7582814836066 37.1548965175781  C 71.9603709676235 37.1578580142102  73.7449894313032 38.9501650735368  73.7486760594262 41.1624827402344  Z M 57.7281989877049 19.3735862226562  L 57.7281989877049 19.3722414082031  C 57.7281989153491 21.090471808092  59.1141168095316 22.4828276654654  60.8237331721311 22.4828276654654  C 62.5330881633922 22.4828276654654  63.918897769905 21.090881589699  63.9192673565574 19.3735862226562  C 63.9192673565574 17.6560282701406  62.5333494947697 16.2636724453125  60.8237331721311 16.2636724453125  C 59.1141168494926 16.2636724453125  57.7281989877049 17.6560282701406  57.7281989877049 19.3735862226562  Z " fill-rule="nonzero" fill="#02a7f0" stroke="none" transform="matrix(1 0 0 1 818 1056 )" />
  </g>
</svg>