<?xml version="1.0" encoding="utf-8"?>
<svg version="1.1" xmlns:xlink="http://www.w3.org/1999/xlink" width="53px" height="53px" xmlns="http://www.w3.org/2000/svg">
  <g transform="matrix(1 0 0 1 -2272 -467 )">
    <path d="M 53 26.5  C 53 11.86429678125  41.13570321875 0  26.5 0  C 11.86429678125 0  0 11.86429678125  0 26.5  C 0 41.13570321875  11.86429678125 53  26.5 53  C 41.13570321875 53  53 41.13570321875  53 26.5  Z M 33.1177546883408 26.7979387753906  C 33.1177546883408 27.5057640238644  32.7408058744352 28.1600241995467  32.1284523349609 28.5150449384766  L 23.8804415644531 35.3618798027344  C 23.578710901803 35.5360840896108  23.2364404665622 35.6277951797793  22.8880319041683 35.6277951797793  C 21.7919864525289 35.6277951797793  20.9034105847049 34.7393797404131  21 33.6433343066406  L 21 19.9554218583984  C 20.9034106132796 18.859376444841  21.7919864727294 17.9709610370122  22.888031904159 17.9709610370122  C 23.2364404665566 17.9709610370122  23.5787109018008 18.0626721271826  23.8804415644531 18.2368764140625  L 32.1284523349609 25.0808326123047  C 32.7408058744352 25.4358533512345  33.1177546883408 26.0901135269169  33.1177546883408 26.7979387753906  Z " fill-rule="nonzero" fill="#ffffff" stroke="none" transform="matrix(1 0 0 1 2272 467 )" />
  </g>
</svg>