<?xml version="1.0" encoding="utf-8"?>
<svg version="1.1" xmlns:xlink="http://www.w3.org/1999/xlink" width="20px" height="20px" xmlns="http://www.w3.org/2000/svg">
  <g transform="matrix(1 0 0 1 -853 -134 )">
    <path d="M 861.118131381105 141.409830056251  L 863 135.61803398875  L 864.881868618895 141.409830056251  L 870.971723394364 141.409830056251  L 866.044927387734 144.989356881874  L 867.92679600663 150.781152949375  L 863 147.201626123751  L 858.07320399337 150.781152949375  L 859.955072612266 144.989356881874  L 855.028276605636 141.409830056251  L 861.118131381105 141.409830056251  Z " fill-rule="nonzero" fill="#333333" stroke="none" />
    <path d="M 860.754860117102 140.909830056251  L 863 134  L 865.245139882898 140.909830056251  L 872.510565162951 140.909830056251  L 866.632712640027 145.180339887499  L 868.877852522925 152.090169943749  L 863 147.819660112501  L 857.122147477075 152.090169943749  L 859.367287359973 145.180339887499  L 853.489434837049 140.909830056251  L 860.754860117102 140.909830056251  Z M 863 137.2360679775  L 861.481402645107 141.909830056251  L 856.567118374224 141.909830056251  L 860.542857864558 144.798373876249  L 859.024260509666 149.472135955  L 863 146.583592135001  L 866.975739490334 149.472135955  L 865.457142135442 144.798373876249  L 869.432881625776 141.909830056251  L 864.518597354893 141.909830056251  L 863 137.2360679775  Z " fill-rule="nonzero" fill="#333333" stroke="none" />
  </g>
</svg>