<?xml version="1.0" encoding="utf-8"?>
<svg version="1.1" xmlns:xlink="http://www.w3.org/1999/xlink" width="12px" height="12px" xmlns="http://www.w3.org/2000/svg">
  <g transform="matrix(1 0 0 1 -335 -84 )">
    <path d="M 12 6  C 12 2.685  9.312 0  6 0  C 2.688 0  0 2.685  0 6  C 0 9.315  2.688 12  6 12  C 9.312 12  12 9.315  12 6  Z M 6.6 7.8  L 6.6 9  L 5.4 9  L 5.4 7.8  L 6.6 7.8  Z M 6.6 3  L 6.6 6.6  L 5.4 6.6  L 5.4 3  L 6.6 3  Z " fill-rule="nonzero" fill="#ffffff" stroke="none" transform="matrix(1 0 0 1 335 84 )" />
  </g>
</svg>