<?xml version="1.0" encoding="utf-8"?>
<svg version="1.1" xmlns:xlink="http://www.w3.org/1999/xlink" width="18px" height="19px" preserveAspectRatio="xMidYMin meet" viewBox="152 634  16 19" xmlns="http://www.w3.org/2000/svg">
  <defs>
    <mask fill="white" id="clip2205">
      <path d="M 735 676  L 781 676  L 781 701  L 735 701  Z M 151 94  L 781 94  L 781 701  L 151 701  Z " fill-rule="evenodd" />
    </mask>
  </defs>
  <path d="M 688 97.5  L 753 97.5  A 5 5 0 0 1 758.5 102 L 758.5 203  A 3 3 0 0 1 761.5 206 A 3 3 0 0 1 758.5 209 L 758.5 450  A 3 3 0 0 1 761.5 453 A 3 3 0 0 1 758.5 456 L 758.5 690.833333333333  A 5 5 0 0 1 753.5 696.333333333333 L 165 696.333333333333  A 5 5 0 0 1 160.5 691.333333333333 L 160.5 645  " stroke-width="1" stroke-dasharray="9,4" stroke="#02a7f0" fill="none" mask="url(#clip2205)" />
  <path d="M 166.8 646  L 160.5 640  L 154.2 646  L 166.8 646  Z " fill-rule="nonzero" fill="#02a7f0" stroke="none" mask="url(#clip2205)" />
</svg>