<?xml version="1.0" encoding="utf-8"?>
<svg version="1.1" xmlns:xlink="http://www.w3.org/1999/xlink" width="19px" height="19px" xmlns="http://www.w3.org/2000/svg">
  <g transform="matrix(1 0 0 1 -1474 -289 )">
    <path d="M 19 15.5169545488281  C 18.996672241296 17.4392073443521  17.4392073443521 18.996672241296  15.5169545488281 19  L 3.48304545117187 19  C 1.56079265564788 18.996672241296  0.00332775870404662 17.4392073443521  0 15.5169545488281  L 0 3.48304545117187  C 0.00332775870404555 1.56079265564788  1.56079265564788 0.00332775870404555  3.48304545117187 0  L 15.5169545488281 0  C 17.4392073443521 0.00332775870404491  18.996672241296 1.56079265564788  19 3.48304545117187  L 19 15.5169545488281  Z M 15.3606363720703 1  L 3.63936362792969 1  C 2.10637179907352 0.863636382317783  0.863636382317783 2.10637179907352  1 3.63936362792969  L 1 15.3606363720703  C 0.863636382317784 16.8936282009265  2.10637179907352 18.1363636176822  3.63936362792969 18  L 15.3606363720703 18  C 16.8936282009265 18.1363636176822  18.1363636176822 16.8936282009265  18 15.3606363720703  L 18 3.63936362792969  C 18.1363636176822 2.10637179907352  16.8936282009265 0.863636382317782  15.3606363720703 1  Z M 16.4090909023437 9.25818182324219  C 16.4090909023437 8.45327272558594  15.7561818046875 7.80036364648438  14.9512727255859 7.80036362792969  L 14.6403636279297 7.80036362792969  C 14.557152171624 7.54910842848607  14.4555438573674 7.30432476514142  14.3363636279297 7.068  L 14.5574545488281 6.84690909765625  C 14.8342477273847 6.57307808116733  14.9899999579965 6.19990119661705  14.9899999579965 5.81054546044922  C 14.9899999579965 5.42118972428139  14.8342477273847 5.04801283973111  14.5574545488281 4.77418182324219  L 14.212 4.42872727441406  C 13.6337764434243 3.87067544694014  12.7174962821616 3.87067544694014  12.1392727255859 4.42872727441406  L 11.932 4.66363637207031  C 11.6958679533498 4.54403670990764  11.4510525331399 4.4424152135559  11.1996363720703 4.35963637207031  L 11.1996363720703 4.04872727441406  C 11.1996363720703 3.24381817675781  10.5467272744141 2.59090909765625  9.74181817675781 2.59090909765625  L 9.25818182324218 2.59090909765625  C 8.45327272558593 2.59090909765625  7.80036364648437 3.2438181953125  7.80036362792968 4.04872727441406  L 7.80036362792968 4.35963637207031  C 7.54903777474331 4.44265807508281  7.3042402723589 4.54427213384653  7.068 4.66363637207031  L 6.84690909765625 4.44254545117187  C 6.26868554108058 3.88449362369795  5.35240537981784 3.88449362369795  4.77418182324218 4.44254545117187  L 4.42872727441406 4.788  C 4.1519340958575 5.06183101648892  3.99618186524567 5.4350079010392  3.99618186524567 5.82436363720703  C 3.99618186524567 6.21371937337486  4.1519340958575 6.58689625792515  4.42872727441406 6.86072727441406  L 4.64981817675781 7.08181817675781  C 4.53070598396115 7.31817416764805  4.42909977846068 7.56295275700912  4.34581817675781 7.81418182324219  L 4.04872727441406 7.81418182324219  C 3.249 7.81418182324219  2.59781817675781 8.45845454882813  2.59090909765625 9.25818182324219  L 2.59090909765625 9.74181817675781  C 2.59090909765625 10.5467272744141  3.2438181953125 11.1996363535156  4.04872727441406 11.1996363720703  L 4.35963637207031 11.1996363720703  C 4.44254546972656 11.4509545488281  4.54445454882812 11.6953636464844  4.66363637207031 11.932  L 4.44254545117187 12.1530909023437  C 4.16575227261532 12.4269219188327  4.01000004200348 12.8000988033829  4.01000004200348 13.1894545395508  C 4.01000004200348 13.5788102757186  4.16575227261532 13.9519871602689  4.44254545117187 14.2258181767578  L 4.78799999999999 14.5712727255859  C 5.36663637207031 15.1291818232422  6.28209090234374 15.1291818232422  6.86072727441406 14.5712727255859  L 7.08181817675781 14.3501818232422  C 7.31845454882812 14.4693636464844  7.56286362792968 14.5712727255859  7.81418182324218 14.6541818232422  L 7.81418182324218 14.9650909023438  C 7.82195454882812 15.7596363535156  8.46363637207031 16.4013181767578  9.25818182324218 16.4090909023437  L 9.74181817675781 16.4090909023437  C 10.5467272744141 16.4090909023437  11.1996363535156 15.7561818046875  11.1996363720703 14.9512727255859  L 11.1996363720703 14.6403636279297  C 11.4500909208984 14.5565909023438  11.6953636464844 14.4555454511719  11.932 14.3363636279297  L 12.1530909023437 14.5574545488281  C 12.7317272744141 15.1153636464844  13.6471818046875 15.1153636464844  14.2258181767578 14.5574545488281  L 14.5712727255859 14.212  C 14.8463571911507 13.9372580748534  15.0009268625418 13.5644224075892  15.0009268625418 13.175636362793  C 15.0009268625418 12.7868503179967  14.8463571911507 12.4140146507325  14.5712727255859 12.1392727255859  L 14.3363636279297 11.932  C 14.4564090791016 11.6962272744141  14.5574545302734 11.4509545488281  14.6403636279297 11.1996363720703  L 14.9512727255859 11.1996363720703  C 15.7561818232422 11.1996363720703  16.4090909023437 10.5467272744141  16.4090909023437 9.74181817675781  L 16.4090909023437 9.25818182324219  Z M 15.6836363720703 9.71418182324219  L 15.7181818232422 9.75563637207031  C 15.7181818232422 10.0380045014158  15.4892772270018 10.2669090976562  15.2069090976563 10.2669090976562  L 14.516 10.2669090976562  C 14.2855246860379 10.2685278009179  14.0846264175929 10.4241532212061  14.0254545488281 10.6469090976563  C 13.9157727255859 11.0787272744141  13.7430454511719 11.4932727255859  13.5141818232422 11.8767272744141  C 13.3946984748012 12.0770678699092  13.4259643291465 12.3328794033801  13.5901818232422 12.4985454511719  L 14.0876363720703 12.996  C 14.2667870150695 13.1914631169294  14.2667870150695 13.4914459807268  14.0876363720703 13.6869090976563  L 13.7283636279297 14.0461818232422  C 13.5297272558594 14.2189090976562  13.2360909023438 14.2189090976562  13.0374545488281 14.0461818232422  L 12.54 13.5487272744141  C 12.3743339522082 13.3845097803184  12.1185224187373 13.3532439259731  11.9181818232422 13.4727272744141  C 11.5349436100328 13.7013688532845  11.1207436302729 13.8735643480305  10.6883636279297 13.984  C 10.4628675328015 14.0405351598157  10.3039001261713 14.242083126558  10.3014545488281 14.4745454511719  L 10.3014545488281 15.1654545488281  C 10.3014545488281 15.4478226781737  10.0725499525877 15.6767272744141  9.79018182324219 15.6767272744141  L 9.27890909765625 15.6767272744141  C 8.99654096831072 15.6767272744141  8.76763637207031 15.4478226781737  8.76763637207031 15.1654545488281  L 8.76763637207031 14.4745454511719  C 8.76601766880865 14.2440701372097  8.61039224852046 14.0431718687648  8.38763637207031 13.984  C 7.95494678454984 13.8744939336157  7.54061571736213 13.7022439418499  7.15781817675781 13.4727272744141  C 6.95747758126267 13.3532439259731  6.70166604779182 13.3845097803184  6.536 13.5487272744141  L 6.03854545117188 14.0461818232422  C 5.83990907910156 14.2189090976562  5.54627272558594 14.2189090976562  5.34763637207031 14.0461818232422  L 4.98836362792969 13.6869090976563  C 4.80921298493052 13.4914459807268  4.80921298493052 13.1914631169294  4.98836362792969 12.996  L 5.48581817675781 12.4985454511719  C 5.65003567085346 12.3328794033801  5.68130152519878 12.0770678699092  5.56181817675781 11.8767272744141  C 5.33247863802797 11.4938404458939  5.16023974581123 11.0795360838726  5.05054545117188 10.6469090976563  C 4.99401029850186 10.4214129951683  4.79246232999234 10.2624455795208  4.56 10.26  L 3.86909090234375 10.26  C 3.84393368148351 10.2637816753144  3.81852929292101 10.2656804239043  3.7930894259875 10.2656804239043  C 3.51120100472991 10.2656804239043  3.28249560171488 10.0375239793441  3.28181817675781 9.75563637207031  L 3.28181817675781 9.24436362792969  C 3.28181817675781 8.96199549858415  3.51072277299821 8.73309090234375  3.79309090234375 8.73309090234375  L 4.484 8.73309090234375  C 4.71646232461391 8.73064532500062  4.91801029135621 8.57167791837038  4.97454545117188 8.34618182324219  C 5.08509090234375 7.91436364648438  5.25781817675781 7.4998181953125  5.48581817675782 7.11636362792969  C 5.60787920297169 6.91657444768883  5.57640466352198 6.65905549065054  5.40981817675782 6.49454545117187  L 4.91236362792969 5.99709090234375  C 4.73321299626798 5.8016277881252  4.73321299626798 5.50164493746074  4.91236362792969 5.30618182324219  L 5.27163637207032 4.94690909765625  C 5.47027274414063 4.77418182324219  5.76390909765625 4.77418182324219  5.96254545117188 4.94690909765625  L 6.46 5.44436362792969  C 6.62581817675782 5.60845453027344  6.88145454882813 5.63954545117188  7.08181817675781 5.52036362792969  C 7.46492569710899 5.29146227002783  7.87916437779293 5.11925068613385  8.31163637207031 5.00909090234375  C 8.53439224852046 4.94991903357896  8.69001766880865 4.749020765134  8.69163637207031 4.51854545117188  L 8.69163637207031 3.82763637207031  C 8.69077477541894 3.81554364745579  8.69034356821187 3.80342410320353  8.69034356821187 3.79130072341932  C 8.69034356821187 3.50893259407378  8.91924816445227 3.28002799783338  9.20161629379781 3.28002799783338  C 9.21588414204214 3.28002799783338  9.23014573736929 3.28062524694615  9.24436362792969 3.28181817675781  L 9.75563637207031 3.28181817675781  C 10.0380454697266 3.28181817675781  10.2669090976562 3.5106818046875  10.2669090976562 3.79309090234375  L 10.2669090976562 4.484  C 10.2669090976562 4.71718182324219  10.4266818232422 4.92013637207031  10.6538181767578 4.97454545117188  C 11.0856363535156 5.08509090234375  11.5001818046875 5.25695454882813  11.8836363720703 5.48581817675781  C 12.0839769675655 5.60530152519878  12.3397885010363 5.57403567085346  12.5054545488281 5.40981817675781  L 13.0029090976563 4.91236362792969  C 13.199611367731 4.73642777754812  13.497115906683 4.73642777754812  13.6938181767578 4.91236362792969  L 14.0530909023437 5.27163637207031  C 14.2355982702017 5.46578166763402  14.2355982702017 5.76840015560817  14.0530909023437 5.96254545117188  L 13.5556363720703 6.46  C 13.3914188779747 6.62566604779182  13.3601530236293 6.88147758126267  13.4796363720703 7.08181817675781  C 13.7085 7.46440907910156  13.8812272744141 7.87895454882813  13.9909090976562 8.31163637207031  C 14.050080966421 8.53439224852046  14.250979234866 8.69001766880865  14.4814545488281 8.69163637207031  L 15.1723636279297 8.69163637207031  C 15.4547727255859 8.69163637207031  15.6836363535156 8.9205  15.6836363720703 9.20290909765625  L 15.6836363720703 9.71418182324219  Z M 9.49999994540067 6.90909090234375  C 8.06908036256726 6.90909090234375  6.90909084774442 8.06908041716659  6.90909084774442 9.5  C 6.90909084774442 10.9309195828334  8.06908036256726 12.0909090976562  9.49999994540067 12.0909090976562  C 10.9309195282341 12.0909090976562  12.0909090430569 10.9309195828334  12.0909090430569 9.5  C 12.0909090430569 8.06908041716659  10.9309195282341 6.90909090234375  9.49999994540067 6.90909090234375  Z M 9.5 11.2272727255859  C 8.54605361486022 11.2272727255859  7.77272727441406 10.4539463851398  7.77272727441406 9.5  C 7.77272727441406 8.54605361486022  8.54605361486022 7.77272727441406  9.5 7.77272727441406  C 10.4539463851398 7.77272727441406  11.2272727255859 8.54605361486022  11.2272727255859 9.5  C 11.2272727255859 10.4539463851398  10.4539463851398 11.2272727255859  9.5 11.2272727255859  Z " fill-rule="nonzero" fill="#02a7f0" stroke="none" transform="matrix(1 0 0 1 1474 289 )" />
  </g>
</svg>