<?xml version="1.0" encoding="utf-8"?>
<svg version="1.1" xmlns:xlink="http://www.w3.org/1999/xlink" width="20px" height="20px" viewBox="277 541  20 20" xmlns="http://www.w3.org/2000/svg">
  <path d="M 287 541  C 292.6 541  297 545.4  297 551  C 297 556.6  292.6 561  287 561  C 281.4 561  277 556.6  277 551  C 277 545.4  281.4 541  287 541  Z " fill-rule="nonzero" fill="#f0f0f0" stroke="none" />
  <path d="M 287 541.5  C 292.32 541.5  296.5 545.68  296.5 551  C 296.5 556.32  292.32 560.5  287 560.5  C 281.68 560.5  277.5 556.32  277.5 551  C 277.5 545.68  281.68 541.5  287 541.5  Z " stroke-width="1" stroke="#04f21c" fill="none" />
  <path d="M 287 556  C 284.2 556  282 553.8  282 551  C 282 548.2  284.2 546  287 546  C 289.8 546  292 548.2  292 551  C 292 553.8  289.8 556  287 556  " fill-rule="nonzero" fill="#04f21c" stroke="none" />
</svg>