<?xml version="1.0" encoding="utf-8"?>
<svg version="1.1" xmlns:xlink="http://www.w3.org/1999/xlink" width="14px" height="15px" xmlns="http://www.w3.org/2000/svg">
  <g transform="matrix(1 0 0 1 -43 -667 )">
    <path d="M 13.4504399101124 13.7907451685393  L 0.63405591011236 13.7907451685393  C 0.358047640449438 13.7907451685393  0.135074516853933 14.0295586516854  0.135074516853933 14.3248503370787  C 0.135074516853933 14.6196674157303  0.358450337078652 14.858437752809  0.633089438202247 14.858437752809  L 13.4504399101124 14.858437752809  C 13.726609258427 14.858437752809  13.9495421123596 14.6196674157303  13.9495421123596 14.3248503370787  C 13.9495018426966 14.0295586516854  13.726609258427 13.7907451685393  13.4514063820225 13.7907451685393  Z M 6.66870651685393 12.6495748314607  C 6.76168916853933 12.7498031460674  6.88966615730337 12.8124943820225  7.03193887640449 12.8124943820225  C 7.17413105617977 12.8124943820225  7.30210804494382 12.7503208988764  7.39416449438202 12.6490570786517  L 13.584779505618 6.01621213483146  C 13.6778426966292 5.91710561797753  13.7364753258427 5.77994426966292  13.7367974831461 5.62867415730337  C 13.7367974831461 5.32652224719101  13.5064952808989 5.08179775280899  13.2260976179775 5.08179775280899  C 13.0842678651685 5.08136629213483  12.9568143820225 5.1435397752809  12.8647579325843 5.24268943820225  L 7.54227631460674 10.9449168539326  L 7.54227631460674 0.622004494382022  C 7.54179307865169 0.621443595505618  7.54179307865169 0.621443595505618  7.54179307865169 0.620925842696629  C 7.54227631460674 0.318730786516854  7.31386678651685 0.0735748314606744  7.03250265168539 0.0735748314606744  C 6.75037339325842 0.0735748314606744  6.52204440449438 0.318687640449438  6.52204440449438 0.62092584269663  C 6.52204440449438 0.62092584269663  6.52204440449438 0.621443595505618  6.52252764044944 0.622004494382023  L 6.52252764044944 10.9443559550562  L 1.20052925842697 5.24212853932584  C 1.10843253932584 5.14302202247191  0.980052853932584 5.08140943820225  0.839229842696629 5.08184089887641  C 0.557221393258427 5.08140943820225  0.328892404494382 5.32652224719101  0.327885662921348 5.62763865168539  C 0.327885662921348 5.77951280898876  0.385914247191011 5.91770966292135  0.478977438202248 6.0157806741573  L 6.66870651685393 12.6495748314607  Z " fill-rule="nonzero" fill="#ffffff" stroke="none" transform="matrix(1 0 0 1 43 667 )" />
  </g>
</svg>