<?xml version="1.0" encoding="utf-8"?>
<svg version="1.1" xmlns:xlink="http://www.w3.org/1999/xlink" width="21px" height="21px" xmlns="http://www.w3.org/2000/svg">
  <g transform="matrix(1 0 0 1 -204 -91 )">
    <path d="M 214.5 92  C 219.82 92  224 96.18  224 101.5  C 224 106.82  219.82 111  214.5 111  C 209.18 111  205 106.82  205 101.5  C 205 96.18  209.18 92  214.5 92  Z " fill-rule="nonzero" fill="#02a7f0" stroke="none" />
    <path d="M 214.5 92  C 219.82 92  224 96.18  224 101.5  C 224 106.82  219.82 111  214.5 111  C 209.18 111  205 106.82  205 101.5  C 205 96.18  209.18 92  214.5 92  Z " stroke-width="2" stroke="#ffffff" fill="none" />
  </g>
</svg>