<?xml version="1.0" encoding="utf-8"?>
<svg version="1.1" xmlns:xlink="http://www.w3.org/1999/xlink" width="11px" height="11px" xmlns="http://www.w3.org/2000/svg">
  <g transform="matrix(1 0 0 1 -1564 -121 )">
    <path d="M 10.8777777854167 8.43333333333333  C 10.8777777854167 9.80222221458333  9.8022222375 10.8777777854167  8.43333333333333 10.8777777854167  L 2.56666666666667 10.8777777854167  C 1.19777778541667 10.8777777854167  0.122222214583333 9.8022222375  0.122222214583333 8.43333333333333  L 0.122222214583333 2.56666666666667  C 0.122222214583333 1.19777778541667  1.1977777625 0.122222214583333  2.56666666666667 0.122222214583333  L 8.43333333333333 0.122222214583333  C 9.80222221458333 0.122222214583333  10.8777777854167 1.1977777625  10.8777777854167 2.56666666666667  L 10.8777777854167 8.43333333333333  Z M 8.43333333333333 1.1  L 2.56666666666667 1.1  C 1.73555554791667 1.1  1.1 1.73555554791667  1.1 2.56666666666667  L 1.1 8.43333333333333  C 1.1 9.26444445208333  1.73555554791667 9.9  2.56666666666667 9.9  L 8.43333333333333 9.9  C 9.26444445208333 9.9  9.9 9.26444445208333  9.9 8.43333333333333  L 9.9 2.56666666666667  C 9.9 1.73555554791667  9.26444445208333 1.1  8.43333333333333 1.1  Z " fill-rule="nonzero" fill="#81d3f8" stroke="none" transform="matrix(1 0 0 1 1564 121 )" />
  </g>
</svg>