<?xml version="1.0" encoding="utf-8"?>
<svg version="1.1" xmlns:xlink="http://www.w3.org/1999/xlink" width="191px" height="191px" xmlns="http://www.w3.org/2000/svg">
  <g transform="matrix(1 0 0 1 -20 -338 )">
    <path d="M 115.5 341  C 167.3 341  208 381.7  208 433.5  C 208 485.3  167.3 526  115.5 526  C 63.7 526  23 485.3  23 433.5  C 23 381.7  63.7 341  115.5 341  Z " fill-rule="nonzero" fill="#7c8ffd" stroke="none" />
    <path d="M 115.5 340  C 167.86 340  209 381.14  209 433.5  C 209 485.86  167.86 527  115.5 527  C 63.14 527  22 485.86  22 433.5  C 22 381.14  63.14 340  115.5 340  Z " stroke-width="4" stroke="#ffffff" fill="none" />
  </g>
</svg>