<?xml version="1.0" encoding="utf-8"?>
<svg version="1.1" xmlns:xlink="http://www.w3.org/1999/xlink" width="191px" height="191px" xmlns="http://www.w3.org/2000/svg">
  <g transform="matrix(1 0 0 1 -495 -17 )">
    <path d="M 590.5 20  C 642.3 20  683 60.7  683 112.5  C 683 164.3  642.3 205  590.5 205  C 538.7 205  498 164.3  498 112.5  C 498 60.7  538.7 20  590.5 20  Z " fill-rule="nonzero" fill="#ffffff" stroke="none" />
    <path d="M 590.5 19  C 642.86 19  684 60.14  684 112.5  C 684 164.86  642.86 206  590.5 206  C 538.14 206  497 164.86  497 112.5  C 497 60.14  538.14 19  590.5 19  Z " stroke-width="4" stroke="#9ac6fb" fill="none" />
  </g>
</svg>