<?xml version="1.0" encoding="utf-8"?>
<svg version="1.1" xmlns:xlink="http://www.w3.org/1999/xlink" width="10px" height="68px" preserveAspectRatio="xMidYMin meet" viewBox="2393 2207  8 68" xmlns="http://www.w3.org/2000/svg">
  <path d="M 1576 428.5  L 1659.44444444444 428.5  A 5 5 0 0 1 1664.94444444444 433 L 1664.94444444444 699  A 3 3 0 0 1 1667.94444444444 702 A 3 3 0 0 1 1664.94444444444 705 L 1664.94444444444 1051  A 3 3 0 0 1 1667.94444444444 1054 A 3 3 0 0 1 1664.94444444444 1057 L 1664.94444444444 2207  A 5 5 0 0 0 1669.94444444444 2212.5 L 2392 2212.5  A 5 5 0 0 1 2397.5 2217.5 L 2397.5 2274  " stroke-width="1" stroke-dasharray="9,4" stroke="#02a7f0" fill="none" />
  <path d="M 2391.5 2268.3  L 2397.5 2275  L 2403.5 2268.3  L 2397.5 2270.6  L 2391.5 2268.3  Z " fill-rule="nonzero" fill="#02a7f0" stroke="none" />
</svg>