<?xml version="1.0" encoding="utf-8"?>
<svg version="1.1" xmlns:xlink="http://www.w3.org/1999/xlink" width="32px" height="32px" preserveAspectRatio="xMinYMid meet" viewBox="3157 2540  32 30" xmlns="http://www.w3.org/2000/svg">
  <path d="M 778 616.5  L 818 616.5  A 3 3 0 0 1 821 613.5 A 3 3 0 0 1 824 616.5 L 1351 616.5  A 3 3 0 0 1 1354 613.5 A 3 3 0 0 1 1357 616.5 L 1470 616.5  A 5 5 0 0 1 1475.5 621 L 1475.5 1051  A 3 3 0 0 1 1478.5 1054 A 3 3 0 0 1 1475.5 1057 L 1475.5 2550  A 5 5 0 0 0 1480.5 2555.5 L 3173 2555.5  " stroke-width="1" stroke-dasharray="9,4" stroke="#02a7f0" fill="none" />
  <path d="M 3167.3 2561.5  L 3174 2555.5  L 3167.3 2549.5  L 3169.6 2555.5  L 3167.3 2561.5  Z " fill-rule="nonzero" fill="#02a7f0" stroke="none" />
</svg>