<?xml version="1.0" encoding="utf-8"?>
<svg version="1.1" xmlns:xlink="http://www.w3.org/1999/xlink" width="1578px" height="10px" preserveAspectRatio="xMinYMid meet" viewBox="1547 698  1578 8" xmlns="http://www.w3.org/2000/svg">
  <path d="M 1552.5 59  L 1552.5 138  A 3 3 0 0 1 1555.5 141 A 3 3 0 0 1 1552.5 144 L 1552.5 371  A 3 3 0 0 1 1555.5 374 A 3 3 0 0 1 1552.5 377 L 1552.5 697  A 5 5 0 0 0 1557.5 702.5 L 3115 702.5  A 5 5 0 0 1 3120.5 707.5 L 3120.5 1049  A 5 5 0 0 0 3125.5 1054.5 L 3173 1054.5  " stroke-width="1" stroke-dasharray="9,4" stroke="#02a7f0" fill="none" />
  <path d="M 3167.3 1060.5  L 3174 1054.5  L 3167.3 1048.5  L 3169.6 1054.5  L 3167.3 1060.5  Z " fill-rule="nonzero" fill="#02a7f0" stroke="none" />
</svg>