<?xml version="1.0" encoding="utf-8"?>
<svg version="1.1" xmlns:xlink="http://www.w3.org/1999/xlink" width="2387px" height="10px" preserveAspectRatio="xMinYMid meet" viewBox="1469 316  2387 8" xmlns="http://www.w3.org/2000/svg">
  <path d="M 1474.5 330  L 1474.5 325  A 5 5 0 0 1 1479 320.5 L 1549 320.5  A 3 3 0 0 1 1552 317.5 A 3 3 0 0 1 1555 320.5 L 3117 320.5  A 3 3 0 0 1 3120 317.5 A 3 3 0 0 1 3123 320.5 L 3846 320.5  A 5 5 0 0 1 3851.5 325.5 L 3851.5 1578  " stroke-width="1" stroke-dasharray="9,4" stroke="#02a7f0" fill="none" />
  <path d="M 3845.5 1572.3  L 3851.5 1579  L 3857.5 1572.3  L 3851.5 1574.6  L 3845.5 1572.3  Z " fill-rule="nonzero" fill="#02a7f0" stroke="none" />
</svg>