<?xml version="1.0" encoding="utf-8"?>
<svg version="1.1" xmlns:xlink="http://www.w3.org/1999/xlink" width="12px" height="12px" viewBox="458 201  12 12" xmlns="http://www.w3.org/2000/svg">
  <path d="M 464 201  C 467.36 201  470 203.64  470 207  C 470 210.36  467.36 213  464 213  C 460.64 213  458 210.36  458 207  C 458 203.64  460.64 201  464 201  Z " fill-rule="nonzero" fill="#f0f0f0" stroke="none" />
  <path d="M 464 201.5  C 467.08 201.5  469.5 203.92  469.5 207  C 469.5 210.08  467.08 212.5  464 212.5  C 460.92 212.5  458.5 210.08  458.5 207  C 458.5 203.92  460.92 201.5  464 201.5  Z " stroke-width="1" stroke="#797979" fill="none" />
  <path d="M 464 210  C 462.32 210  461 208.68  461 207  C 461 205.32  462.32 204  464 204  C 465.68 204  467 205.32  467 207  C 467 208.68  465.68 210  464 210  " fill-rule="nonzero" fill="#797979" stroke="none" />
</svg>