<?xml version="1.0" encoding="utf-8"?>
<svg version="1.1" xmlns:xlink="http://www.w3.org/1999/xlink" width="12px" height="12px" viewBox="632 201  12 12" xmlns="http://www.w3.org/2000/svg">
  <path d="M 638 201  C 641.36 201  644 203.64  644 207  C 644 210.36  641.36 213  638 213  C 634.64 213  632 210.36  632 207  C 632 203.64  634.64 201  638 201  Z " fill-rule="nonzero" fill="#f0f0f0" stroke="none" />
  <path d="M 638 201.5  C 641.08 201.5  643.5 203.92  643.5 207  C 643.5 210.08  641.08 212.5  638 212.5  C 634.92 212.5  632.5 210.08  632.5 207  C 632.5 203.92  634.92 201.5  638 201.5  Z " stroke-width="1" stroke="#797979" fill="none" />
  <path d="M 638 210  C 636.32 210  635 208.68  635 207  C 635 205.32  636.32 204  638 204  C 639.68 204  641 205.32  641 207  C 641 208.68  639.68 210  638 210  " fill-rule="nonzero" fill="#797979" stroke="none" />
</svg>