<?xml version="1.0" encoding="utf-8"?>
<svg version="1.1" xmlns:xlink="http://www.w3.org/1999/xlink" width="12px" height="12px" viewBox="545 201  12 12" xmlns="http://www.w3.org/2000/svg">
  <path d="M 551 201  C 554.36 201  557 203.64  557 207  C 557 210.36  554.36 213  551 213  C 547.64 213  545 210.36  545 207  C 545 203.64  547.64 201  551 201  Z " fill-rule="nonzero" fill="#f0f0f0" stroke="none" />
  <path d="M 551 201.5  C 554.08 201.5  556.5 203.92  556.5 207  C 556.5 210.08  554.08 212.5  551 212.5  C 547.92 212.5  545.5 210.08  545.5 207  C 545.5 203.92  547.92 201.5  551 201.5  Z " stroke-width="1" stroke="#797979" fill="none" />
  <path d="M 551 210  C 549.32 210  548 208.68  548 207  C 548 205.32  549.32 204  551 204  C 552.68 204  554 205.32  554 207  C 554 208.68  552.68 210  551 210  " fill-rule="nonzero" fill="#797979" stroke="none" />
</svg>