<?xml version="1.0" encoding="utf-8"?>
<svg version="1.1" xmlns:xlink="http://www.w3.org/1999/xlink" width="320px" height="219px" xmlns="http://www.w3.org/2000/svg">
  <g transform="matrix(1 0 0 1 -805 -211 )">
    <path d="M 805 211  L 1125 211  L 1125 430  L 805 430  L 805 211  " fill-rule="nonzero" fill="#cccccc" stroke="none" />
    <path d="M 820 226  L 1110 226  L 1110 415  L 820 415  L 820 226  " fill-rule="nonzero" fill="#ffffff" stroke="none" />
    <path d="M 987.825 276.7  C 978.627 276.7  971.4 269.473  971.4 260.275  C 971.4 251.077  978.627 243.85  987.825 243.85  C 997.023 243.85  1004.25 251.077  1004.25 260.275  C 1004.25 269.473  997.023 276.7  987.825 276.7  " fill-rule="nonzero" fill="#cccccc" stroke="none" />
    <path d="M 826 410  L 826 312.1  L 895.75 267.6  L 993.4 336.90875  L 1049.2 294.3  L 1105 336.90875  L 1105 410  L 826 410  " fill-rule="nonzero" fill="#169bd5" stroke="none" />
  </g>
</svg>