<?xml version="1.0" encoding="utf-8"?>
<svg version="1.1" xmlns:xlink="http://www.w3.org/1999/xlink" width="467px" height="320px" xmlns="http://www.w3.org/2000/svg">
  <g transform="matrix(1 0 0 1 -1301 -78 )">
    <path d="M 1301 78  L 1768 78  L 1768 398  L 1301 398  L 1301 78  " fill-rule="nonzero" fill="#cccccc" stroke="none" />
    <path d="M 1323 100  L 1746 100  L 1746 376  L 1323 376  L 1323 100  " fill-rule="nonzero" fill="#ffffff" stroke="none" />
    <path d="M 1567.84 174  C 1554.4 174  1543.84 163.44  1543.84 150  C 1543.84 136.56  1554.4 126  1567.84 126  C 1581.28 126  1591.84 136.56  1591.84 150  C 1591.84 163.44  1581.28 174  1567.84 174  " fill-rule="nonzero" fill="#cccccc" stroke="none" />
    <path d="M 1331 368  L 1331 225  L 1432.75 160  L 1575.2 261.104925053533  L 1656.6 199  L 1738 261.104925053533  L 1738 368  L 1331 368  " fill-rule="nonzero" fill="#169bd5" stroke="none" />
  </g>
</svg>