<?xml version="1.0" encoding="utf-8"?>
<svg version="1.1" xmlns:xlink="http://www.w3.org/1999/xlink" width="80px" height="10px" preserveAspectRatio="xMinYMid meet" viewBox="5 414  80 8" xmlns="http://www.w3.org/2000/svg">
  <path d="M 49.9445686975459 9.74945866880787  A 0.784810126582286 0.784810126582286 0 0 0 49.7151898734177 9.71518987341771 L 15 9.71518987341771  A 5 5 0 0 0 10.5 14.7151898734177 L 10.5 413  A 5 5 0 0 0 15.5 418.5 L 85 418.5  " stroke-width="1" stroke="#ff3399" fill="none" />
  <path d="M 47.4479667374846 6.71518987341771  A 3 3 0 0 0 44.4479667374846 9.71518987341771 A 3 3 0 0 0 47.4479667374846 12.7151898734177 A 3 3 0 0 0 50.4479667374846 9.71518987341771 A 3 3 0 0 0 47.4479667374846 6.71518987341771 Z " fill-rule="nonzero" fill="#ff3399" stroke="none" />
</svg>