<?xml version="1.0" encoding="utf-8"?>
<svg version="1.1" xmlns:xlink="http://www.w3.org/1999/xlink" width="14px" height="14px" xmlns="http://www.w3.org/2000/svg">
  <g transform="matrix(1 0 0 1 -1765 -665 )">
    <path d="M 14 7  C 14 10.92  10.9200000000001 14  7 14  C 3.07999999999993 14  0 10.92  0 7  C 0 3.08000000000004  3.07999999999993 0  7 0  C 10.9200000000001 0  14 3.08000000000004  14 7  Z M 3.32609523809515 8.80082758620688  C 3.51464126984138 9.20101149425284  3.77307936507941 9.55558620689658  4.10140952380948 9.86455172413798  C 4.42973968253978 10.1735172413793  4.81658412698403 10.4265747126436  5.26194285714291 10.623724137931  C 5.70730158730157 10.8208735632184  6.36233650793633 10.9488735632185  6.87596190476188 10.9900689655173  L 8.56312380952386 10.9900689655173  C 8.66714920634922 10.9900689655173  8.77279999999996 10.9724137931034  8.8800761904763 10.9371034482758  C 8.98735238095242 10.9017931034483  9.08487619047628 10.8547126436781  9.17264761904767 10.7958620689656  C 9.26041904761905 10.7370114942529  9.33031111111109 10.6663908045977  9.38232380952377 10.5839999999999  C 9.43433650793645 10.5016091954024  9.4603428571429 10.4162758620689  9.4603428571429 10.328  C 9.4603428571429 10.2338390804598  9.43433650793645 10.1470344827586  9.38232380952377 10.0675862068965  C 9.33031111111109 9.98813793103443  9.2636698412698 9.91898850574717  9.18239999999992 9.8601379310345  C 9.10113015873026 9.80128735632184  9.00685714285714 9.75420689655175  8.89958095238103 9.71889655172413  C 8.79230476190469 9.68358620689651  8.68665396825395 9.66593103448281  8.58262857142859 9.66593103448281  L 7.07100952380961 9.67475862068966  C 6.72642539682533 9.67475862068966  6.40134603174602 9.61737931034486  6.09577142857142 9.50262068965515  C 5.79019682539683 9.38786206896555  5.5236317460317 9.23337931034484  5.29607619047624 9.03917241379315  C 5.06852063492056 8.84496551724135  4.88972698412704 8.6169195402299  4.75969523809522 8.35503448275858  C 4.6296634920634 8.09314942528738  4.56464761904772 7.8121379310345  4.56464761904772 7.51199999999994  C 4.56464761904772 7.22951724137931  4.6231619047619 6.96468965517238  4.74019047619049 6.71751724137926  C 4.85721904761908 6.47034482758625  5.01813333333325 6.24965517241378  5.22293333333323 6.05544827586209  C 5.42773333333344 5.8612413793104  5.66666666666674 5.70381609195397  5.93973333333338 5.58317241379314  C 6.21280000000002 5.46252873563219  6.55738412698406 5.38749425287358  6.87596190476188 5.35806896551719  L 8.42659047619054 5.35806896551719  L 8.42659047619054 6.06427586206894  C 8.42659047619054 6.11135632183903  8.43796825396817 6.15549425287361  8.46072380952387 6.19668965517246  C 8.48347936507935 6.23788505747132  8.5159873015873 6.26731034482759  8.55824761904773 6.2849655172414  C 8.60050793650794 6.30262068965521  8.65577142857137 6.30409195402297  8.72403809523803 6.28937931034488  C 8.79230476190469 6.27466666666669  8.87519999999995 6.24082758620693  8.97272380952381 6.1878620689655  C 9.0247365079365 6.16432183908046  9.10925714285713 6.11577011494251  9.22628571428572 6.04220689655176  C 9.34331428571431 5.9686436781609  9.47822222222226 5.88183908045971  9.63100952380955 5.78179310344831  C 9.78379682539685 5.68174712643679  9.94471111111102 5.57581609195404  10.1137523809523 5.46400000000006  L 10.6013714285714 5.12855172413788  C 10.6988952380952 5.05793103448275  10.7817904761905 4.99466666666672  10.8500571428572 4.93875862068967  C 10.9183238095238 4.88285057471262  10.9524571428572 4.81370114942524  10.9524571428572 4.73131034482753  C 10.9524571428572 4.6606896551724  10.9134476190477 4.58712643678166  10.8354285714286 4.51062068965518  C 10.7574095238094 4.43411494252871  10.6663873015873 4.35760919540235  10.5623619047619 4.28110344827587  C 10.4453333333333 4.19282758620693  10.3055492063493 4.0898390804598  10.1430095238095 3.97213793103447  C 9.98046984126995 3.85443678160925  9.81955555555555 3.73820689655167  9.66026666666676 3.62344827586207  C 9.50097777777773 3.50868965517236  9.35631746031754 3.40570114942534  9.22628571428572 3.31448275862067  C 9.0962539682539 3.22326436781611  9.00848253968252 3.16294252873558  8.96297142857134 3.13351724137931  C 8.80693333333329 3.03347126436779  8.68015238095245 3.01287356321836  8.58262857142859 3.07172413793103  C 8.48510476190472 3.13057471264369  8.43309206349204 3.21885057471263  8.42659047619054 3.33655172413796  L 8.42659047619054 4.04275862068971  L 6.87596190476188 4.04275862068971  C 6.80444444444447 4.04275862068971  6.73617777777781 4.05158620689656  6.6711619047619 4.06924137931037  C 6.16403809523808 4.11632183908046  5.68942222222222 4.2369655172414  5.24731428571431 4.43117241379309  C 4.8052063492064 4.62537931034478  4.4199873015873 4.87696551724139  4.09165714285723 5.18593103448279  C 3.76332698412693 5.49489655172408  3.50651428571427 5.84947126436782  3.32121904761902 6.24965517241378  C 3.13592380952377 6.64983908045974  3.04327619047626 7.07356321839086  3.04327619047626 7.52082758620691  C 3.04327619047626 7.9739770114943  3.13754920634915 8.40064367816092  3.32609523809515 8.80082758620688  Z " fill-rule="nonzero" fill="#aaaaaa" stroke="none" transform="matrix(1 0 0 1 1765 665 )" />
  </g>
</svg>