<?xml version="1.0" encoding="utf-8"?>
<svg version="1.1" xmlns:xlink="http://www.w3.org/1999/xlink" width="23px" height="6px" xmlns="http://www.w3.org/2000/svg">
  <g transform="matrix(1 0 0 1 -1753 -23 )">
    <path d="M 6.7196384203125 2.96029490625  C 6.7196384203125 4.539608125  5.2416485015625 5.82484875  3.4254015 5.82484875  C 1.6086396578125 5.82484875  0.130612975 4.53960815625  0.130612975 2.96029490625  C 0.130612975 1.380502  1.6086396578125 0.0952614062499997  3.4254015 0.0952614062499997  C 5.2416485015625 0.0952614062499997  6.7196384203125 1.38047003125  6.7196384203125 2.96029490625  Z M 5.639003078125 2.96029490625  C 5.6389663140625 1.89851878125  4.645892403125 1.03497628125  3.4254015 1.03497628125  C 2.20435895625 1.03497628125  1.21128508125 1.8985188125  1.21128508125 2.96029490625  C 1.21128508125 4.02159134375  2.2043589921875 4.88516584375  3.4254015 4.88516584375  C 4.645892403125 4.88516584375  5.639003078125 4.0216233125  5.639003078125 2.96029490625  Z M 14.8136098921875 2.96029490625  C 14.8136098921875 4.539608125  13.335583209375 5.82484875  11.5188213671875 5.82484875  C 9.702574365625 5.82484875  8.224584446875 4.53960815625  8.224584446875 2.96029490625  C 8.224584446875 1.380502  9.702574365625 0.0952614062499997  11.5188213671875 0.0952614062499997  C 13.335583209375 0.0952614062499997  14.8136098921875 1.38047003125  14.8136098921875 2.96029490625  Z M 13.7329377859375 2.96029490625  C 13.7329377859375 1.89851878125  12.739863875 1.03497628125  11.5188213671875 1.03497628125  C 10.2983304640625 1.03497628125  9.305256553125 1.8985188125  9.305256553125 2.96029490625  C 9.305256553125 4.02159134375  10.2983304640625 4.88516584375  11.5188213671875 4.88516584375  C 12.7398639109375 4.88516584375  13.7329377859375 4.0216233125  13.7329377859375 2.96029490625  Z M 22.9075814 2.96029490625  C 22.9075446359375 4.539608125  21.4295547171875 5.82484875  19.6127928390625 5.82484875  C 17.7965458375 5.82484875  16.31855591875 4.53960815625  16.3185559546875 2.96029490625  C 16.3185559546875 1.380502  17.7965458734375 0.0952614062499997  19.6127928390625 0.0952614062499997  C 21.42955468125 0.0952614062499997  22.9075813640625 1.38047003125  22.9075814 2.96029490625  Z M 21.82690929375 2.96029490625  C 21.8268725296875 1.89851878125  20.83379861875 1.03497628125  19.6127928390625 1.03497628125  C 18.3923019359375 1.03497628125  17.3991912609375 1.8985188125  17.3991912609375 2.96029490625  C 17.3991912609375 4.02159134375  18.392265171875 4.88516584375  19.6127928390625 4.88516584375  C 20.8338353828125 4.88516584375  21.8269092578125 4.0216233125  21.82690929375 2.96029490625  Z " fill-rule="nonzero" fill="#555555" stroke="none" transform="matrix(1 0 0 1 1753 23 )" />
  </g>
</svg>