<?xml version="1.0" encoding="utf-8"?>
<svg version="1.1" xmlns:xlink="http://www.w3.org/1999/xlink" width="25px" height="25px" xmlns="http://www.w3.org/2000/svg">
  <g transform="matrix(1 0 0 1 -1633 -16 )">
    <path d="M 7.29521780395508 2.93757891845703  C 8.30571848285071 2.51013098304867  9.39208116421228 2.29097962623462  10.4892676696777 2.29324496459961  C 14.6875 2.29995266723633  18.1983901367188 5.4853219909668  18.6119002380371 9.66303662109375  C 19.025804901123 13.8407512817383  16.2077809143066 17.6530934448242  12.0928030395508 18.4828756408691  C 7.97743057250976 19.3130523986816  3.90230429077148 16.8911773986816  2.66453598022461 12.8795770263672  C 1.42676766967773 8.86797665405274  3.42803030395508 4.57110165405274  7.29521780395508 2.93757891845703  Z M 20.5902777709961 10.5003156433105  C 20.5902777709961 4.921875  16.0677083129883 0.399305541992189  10.4892676696777 0.399305541992187  C 4.91082702636719 0.399305541992187  0.388257568359376 4.921875  0.388257568359376 10.5003156433105  C 0.388257568359376 16.0787562866211  4.91082702636719 20.6013257446289  10.4892676696777 20.6013257446289  C 16.0677083129883 20.6013257446289  20.5902777709961 16.0787562866211  20.5902777709961 10.5003156433105  Z M 24.5265151367188 24.0250157775879  C 24.3803638158636 24.3790644894156  24.0351747696093 24.610073232007  23.6521464538574 24.6101641540527  C 23.4008208189258 24.6106589576741  23.159730696437 24.5106427752837  22.982559967041 24.3323863525391  L 18.1845801696777 19.5344065551758  C 17.8259154052734 19.1627209472656  17.8310448303223 18.572048614502  18.1960227355957 18.2066761474609  C 18.5613952026367 17.8413036804199  19.152067565918 17.8361742553711  19.523358581543 18.195233581543  L 24.3213383789062 22.9932133789062  C 24.5920032325829 23.2640574325483  24.6729698941837 23.6712263367831  24.5265151367188 24.0250157775879  Z " fill-rule="nonzero" fill="#000000" stroke="none" fill-opacity="0.996078431372549" transform="matrix(1 0 0 1 1633 16 )" />
  </g>
</svg>