<?xml version="1.0" encoding="utf-8"?>
<svg version="1.1" xmlns:xlink="http://www.w3.org/1999/xlink" width="50px" height="34px" xmlns="http://www.w3.org/2000/svg">
  <g transform="matrix(1 0 0 1 -290 -14 )">
    <path d="M 290.5 19  A 4.5 4.5 0 0 1 295 14.5 L 335 14.5  A 4.5 4.5 0 0 1 339.5 19 L 339.5 43  A 4.5 4.5 0 0 1 335 47.5 L 295 47.5  A 4.5 4.5 0 0 1 290.5 43 L 290.5 19  Z " fill-rule="nonzero" fill="#f2f2f2" stroke="none" fill-opacity="0.549019607843137" />
    <path d="M 290.5 19  A 4.5 4.5 0 0 1 295 14.5 L 335 14.5  A 4.5 4.5 0 0 1 339.5 19 L 339.5 43  A 4.5 4.5 0 0 1 335 47.5 L 295 47.5  A 4.5 4.5 0 0 1 290.5 43 L 290.5 19  Z " stroke-width="1" stroke="#aaaaaa" fill="none" />
  </g>
</svg>