<?xml version="1.0" encoding="utf-8"?>
<svg version="1.1" xmlns:xlink="http://www.w3.org/1999/xlink" width="96px" height="34px" xmlns="http://www.w3.org/2000/svg">
  <g transform="matrix(1 0 0 1 -350 -14 )">
    <path d="M 350.5 19  A 4.5 4.5 0 0 1 355 14.5 L 441 14.5  A 4.5 4.5 0 0 1 445.5 19 L 445.5 43  A 4.5 4.5 0 0 1 441 47.5 L 355 47.5  A 4.5 4.5 0 0 1 350.5 43 L 350.5 19  Z " fill-rule="nonzero" fill="#f2f2f2" stroke="none" fill-opacity="0.549019607843137" />
    <path d="M 350.5 19  A 4.5 4.5 0 0 1 355 14.5 L 441 14.5  A 4.5 4.5 0 0 1 445.5 19 L 445.5 43  A 4.5 4.5 0 0 1 441 47.5 L 355 47.5  A 4.5 4.5 0 0 1 350.5 43 L 350.5 19  Z " stroke-width="1" stroke="#aaaaaa" fill="none" />
  </g>
</svg>