<?xml version="1.0" encoding="utf-8"?>
<svg version="1.1" xmlns:xlink="http://www.w3.org/1999/xlink" width="108px" height="34px" xmlns="http://www.w3.org/2000/svg">
  <g transform="matrix(1 0 0 1 -668 -14 )">
    <path d="M 669 19  A 4 4 0 0 1 673 15 L 771 15  A 4 4 0 0 1 775 19 L 775 43  A 4 4 0 0 1 771 47 L 673 47  A 4 4 0 0 1 669 43 L 669 19  Z " fill-rule="nonzero" fill="#f2f2f2" stroke="none" fill-opacity="0.549019607843137" />
    <path d="M 668.5 19  A 4.5 4.5 0 0 1 673 14.5 L 771 14.5  A 4.5 4.5 0 0 1 775.5 19 L 775.5 43  A 4.5 4.5 0 0 1 771 47.5 L 673 47.5  A 4.5 4.5 0 0 1 668.5 43 L 668.5 19  Z " stroke-width="1" stroke="#d7d7d7" fill="none" stroke-opacity="0.549019607843137" />
  </g>
</svg>