<?xml version="1.0" encoding="utf-8"?>
<svg version="1.1" xmlns:xlink="http://www.w3.org/1999/xlink" width="222px" height="45px" xmlns="http://www.w3.org/2000/svg">
  <g transform="matrix(1 0 0 1 -6 -11 )">
    <path d="M 7 24  A 12 12 0 0 1 19 12 L 215 12  A 12 12 0 0 1 227 24 L 227 43  A 12 12 0 0 1 215 55 L 19 55  A 12 12 0 0 1 7 43 L 7 24  Z " fill-rule="nonzero" fill="#81d3f8" stroke="none" fill-opacity="0.149019607843137" />
    <path d="M 6.5 24  A 12.5 12.5 0 0 1 19 11.5 L 215 11.5  A 12.5 12.5 0 0 1 227.5 24 L 227.5 43  A 12.5 12.5 0 0 1 215 55.5 L 19 55.5  A 12.5 12.5 0 0 1 6.5 43 L 6.5 24  Z " stroke-width="1" stroke="#81d3f8" fill="none" stroke-opacity="0.247058823529412" />
  </g>
</svg>