<?xml version="1.0" encoding="utf-8"?>
<svg version="1.1" xmlns:xlink="http://www.w3.org/1999/xlink" width="15px" height="7px" xmlns="http://www.w3.org/2000/svg">
  <g transform="matrix(1 0 0 1 -202 -232 )">
    <path d="M 14.8496993987976 5.72508591065292  C 14.9498997995992 5.80526918671248  15 5.89747995418098  15 6.00171821305842  C 15 6.10595647193585  14.9498997995992 6.19816723940435  14.8496993987976 6.27835051546392  L 14.0981963927856 6.87972508591065  C 13.997995991984 6.95990836197022  13.8827655310621 7  13.75250501002 7  C 13.622244488978 7  13.5070140280561 6.95990836197022  13.4068136272545 6.87972508591065  L 7.5 2.15292096219931  L 1.59318637274549 6.87972508591065  C 1.49298597194389 6.95990836197022  1.37775551102204 7  1.24749498997996 7  C 1.11723446893788 7  1.00200400801603 6.95990836197022  0.901803607214429 6.87972508591065  L 0.150300601202405 6.27835051546392  C 0.0501002004008018 6.19816723940435  0 6.10595647193585  0 6.00171821305842  C 0 5.89747995418098  0.0501002004008018 5.80526918671248  0.150300601202405 5.72508591065292  L 7.15430861723447 0.120274914089347  C 7.25450901803607 0.0400916380297814  7.36973947895792 0  7.5 0  C 7.63026052104208 0  7.74549098196393 0.0400916380297814  7.84569138276553 0.120274914089347  L 14.8496993987976 5.72508591065292  Z " fill-rule="nonzero" fill="#81d3f8" stroke="none" transform="matrix(1 0 0 1 202 232 )" />
  </g>
</svg>