<?xml version="1.0" encoding="utf-8"?>
<svg version="1.1" xmlns:xlink="http://www.w3.org/1999/xlink" width="17px" height="17px" xmlns="http://www.w3.org/2000/svg">
  <g transform="matrix(1 0 0 1 -21 -591 )">
    <path d="M 8.19878049997705 3.928882162497  C 8.27958377678282 3.928882162497  8.3586697577012 3.95220461430339  8.42654321643519 3.99604937615741  C 8.45802469791667 4.01619752430555  8.48530865509259 4.0397037037037  8.50923456134259 4.06572840162037  C 8.58850982010808 3.98199726869991  8.69873844871048 3.93456428923823  8.81404442978899 3.93456428923823  C 8.95460092558539 3.93456428923823  9.08582868347179 4.00491488483007  9.16362962962963 4.12197530208333  L 10.745679005787 6.49987654976852  L 13.4207654386574 5.72879011689815  C 13.4585241158569 5.71791736558594  13.4976224292062 5.71240020315646  13.5369153601856 5.71240020315646  C 13.7687385848874 5.71240020315646  13.9566684400467 5.90033005831578  13.9566684400467 6.13215328301757  C 13.9566684400467 6.15778555162391  13.9543205943242 6.1833639436312  13.9496543275463 6.20856789467593  L 12.6538765497685 13.193679005787  C 12.6170556871485 13.3926126053265  12.4435717633278 13.5369766441263  12.2412592592593 13.537037037037  L 4.75874074074074 13.537037037037  C 4.55642823667217 13.5369766441263  4.38294431285154 13.3926126053265  4.34612345023148 13.193679005787  L 3.0503456724537 6.20856789467592  C 3.04564808747151 6.18328185891314  3.04328438365198 6.15761759510885  3.04328438365198 6.13189890717067  C 3.04328438365198 5.90007568246887  3.23121423881129 5.71214582730956  3.46303746351309 5.71214582730956  C 3.5016158239736 5.71214582730956  3.54001002430027 5.71746415617291  3.57713580902778 5.72795062384259  L 6.30972840162037 6.5002962962963  L 7.84602469791666 4.12113580902778  C 7.92331670736885 4.0012884564958  8.0561710941369 3.928882162497  8.19878049997705 3.928882162497  Z M 10.5987654386574 11.8580246979167  L 4.95224692013889 11.8580246979167  L 5.10755555555556 12.6975308576389  L 11.8920246979167 12.6975308576389  L 13.0001728460648 6.72360493171296  L 10.6827160428241 7.39143210532407  C 10.5068617637438 7.44230419596199  10.3183201068237 7.37334210713182  10.2167901168981 7.22101233912037  L 8.50545678356482 4.6483456724537  L 6.84743210532408 7.21597530208333  C 6.74738997577606 7.37105043705733  6.55779780085751 7.44259465400773  6.38024692013889 7.39227159837963  L 3.99898766087963 6.71940740740741  L 4.79651851851852 11.0185185185185  L 10.5987654386574 11.0185185185185  C 10.8305886687926 11.0185185185185  11.0185185283565 11.2064483780824  11.0185185283565 11.4382716082176  C 11.0185185283565 11.6700948383527  10.8305886687926 11.8580246979167  10.5987654386574 11.8580246979167  Z M 8.5 0.104938265046296  C 9.61654321643518 0.104938265046296  10.7037037037037 0.323209863425926  11.7136296296296 0.742123450231481  C 11.8659715317727 0.809162828191408  11.9643130445918 0.959881261978296  11.9643130445918 1.12632144145976  C 11.9643130445918 1.35814466616156  11.7763831894325 1.54607452132087  11.5445599647307 1.54607452132087  C 11.4923998425371 1.54607452132087  11.4406966090305 1.53635281799433  11.3920987719907 1.51740740740741  C 10.4752299676208 1.13774292223717  9.49236662080471 0.943024712460455  8.5 0.944444444444444  C 4.32723456134259 0.944444444444444  0.944444444444444 4.32723456134259  0.944444444444444 8.5  C 0.944444444444444 12.6727654386574  4.32723456134259 16.0555555555556  8.5 16.0555555555556  C 12.6727654386574 16.0555555555556  16.0555555555556 12.6727654386574  16.0555555555556 8.5  C 16.0555555555556 7.49427159837963  15.8591111111111 6.51666666666667  15.4825925925926 5.60790122800926  C 15.4636471820057 5.5593033909695  15.4539254786791 5.50760015746291  15.4539254786791 5.45544003526933  C 15.4539254786791 5.22361681056753  15.6418553338384 5.03568695540822  15.8736785585402 5.03568695540822  C 16.0401187380217 5.03568695540822  16.1908371718086 5.13402846822731  16.2578765497685 5.28637037037037  C 16.6798734484933 6.30515320547301  16.8964152352545 7.39727699957333  16.8950617349537 8.5  C 16.8950617349537 13.1365925925926  13.1365925925926 16.8950617349537  8.5 16.8950617349537  C 3.86340740740741 16.8950617349537  0.104938265046296 13.1365925925926  0.104938265046296 8.5  C 0.104938265046296 3.86340740740741  3.86340740740741 0.104938265046296  8.5 0.104938265046296  Z M 8.5 4.72222222222222  C 7.80453031502789 4.72222222222222  7.24074074074074 4.15843264793507  7.24074074074074 3.46296296296296  C 7.24074074074074 2.76749327799085  7.80453031502789 2.2037037037037  8.5 2.2037037037037  C 9.19546968497211 2.2037037037037  9.75925925925926 2.76749327799085  9.75925925925926 3.46296296296296  C 9.75925925925926 4.15843264793507  9.19546968497211 4.72222222222222  8.5 4.72222222222222  Z M 8.5 3.88271604282407  C 8.7318232247018 3.88271604282407  8.91975307986111 3.69478618766476  8.91975307986111 3.46296296296296  C 8.91975307986111 3.23113973826116  8.7318232247018 3.04320988310185  8.5 3.04320988310185  C 8.2681767752982 3.04320988310185  8.08024692013889 3.23113973826116  8.08024692013889 3.46296296296296  C 8.08024692013889 3.69478618766476  8.2681767752982 3.88271604282407  8.5 3.88271604282407  Z " fill-rule="nonzero" fill="#02a7f0" stroke="none" transform="matrix(1 0 0 1 21 591 )" />
  </g>
</svg>