<?xml version="1.0" encoding="utf-8"?>
<svg version="1.1" xmlns:xlink="http://www.w3.org/1999/xlink" width="18px" height="18px" xmlns="http://www.w3.org/2000/svg">
  <g transform="matrix(1 0 0 1 -21 -1272 )">
    <path d="M 4.68568664760638 16.917794962766  C 4.000853429134 16.9289575232503  3.32249766972567 16.7837498045877  2.70224370345745 16.4932224268617  L 2.69803482446809 16.4911179986702  C 2.5125141320455 16.4047946876553  2.39387350144148 16.2187357444576  2.39387350144148 16.0141150188662  C 2.39387350144148 15.8745203200263  2.44935141591648 15.7406482129296  2.54809283510638 15.6419729268617  L 4.14747388164894 14.041539643617  L 2.93215473271277 12.8262204946809  L 1.34224370345745 14.4171837606383  C 1.24357499250924 14.515875573133  1.10973763603865 14.5713219984879  0.970182670617625 14.5713219984879  C 0.764126821701036 14.5713219984879  0.577038417092744 14.4510307576005  0.491520299202128 14.2635589880319  L 0.489415871010638 14.2593500864362  C 0.207888732509943 13.6425040226141  0.0690603541579844 12.970121523557  0.0832572513297878 12.2922166303191  C 0.100247435488893 11.2871541888287  0.451600851684517 10.3163969009241  1.08181817154255 9.53328432446808  C 1.96358219680851 8.44475820611702  3.2451914893617 7.83709863164894  4.62044874069149 7.83709865425532  C 5.14971760771277 7.83709865425532  5.6647814375 7.92653773404255  6.15511799867021 8.10331142021277  L 8.08068857978724 6.17774081648936  C 7.87761702114395 5.6122725832075  7.78856864222625 5.01217948003569  7.81868471542553 4.41210831515957  C 7.86364439663029 3.45226200355232  8.21301863757122 2.53165351340407  8.81619342154255 1.78365184574468  C 9.70111411170213 0.6919690625  10.9864061875 0.0822050372340423  12.3658723404255 0.0822050372340423  C 13.022460356383 0.0822050372340423  13.656951650266 0.21952032180851  14.2509323058511 0.490468085106383  L 14.2551412074468 0.492572535904255  C 14.44300388448 0.577926449989335  14.5636273665513 0.765220535751428  14.5636273665513 0.971564123177142  C 14.5636273665513 1.11121562241019  14.5081044218987 1.24513740166832  14.4092920757979 1.34382205851064  L 12.9130290053191 2.84061122473404  C 12.8932706434325 2.86034761270658  12.8821686622294 2.88712909129467  12.8821686622294 2.91505610106383  C 12.8821686622294 2.94298311083299  12.8932706434325 2.96976458942108  12.9130290053191 2.98950097739362  L 13.9794584242021 4.05645646941489  C 14.0204991131626 4.09725369524174  14.0867813695502 4.09725369524174  14.1278220585106 4.05645646941489  L 15.6361856928191 2.54704062101064  C 15.7348435805223 2.44843018114635  15.8686239164241 2.39303539979998  16.0081136925952 2.39303539979998  C 16.2120189106032 2.39303539979998  16.3975623616129 2.51085712196045  16.4842785279255 2.69540425531915  L 16.4863829787234 2.69961315691489  C 16.7810057965426 3.32568664760638  16.9262127659574 3.99805803324468  16.917794962766 4.69620890159574  C 16.9060562916183 5.71133520614076  16.5544861311513 6.69324955380051  15.9192340425532 7.48512959175532  C 15.0343133523936 8.57996903989362  13.7469168257979 9.19131142021276  12.3658723404255 9.19131142021277  C 11.8238069671715 9.19254094641872  11.2859518655233 9.09612622732625  10.7780657619681 8.90668471542553  L 8.87880078191489 10.8059497180851  C 9.06451838962766 11.3073346289894  9.15869246675531 11.8344990452128  9.15869246675531 12.3774468085106  C 9.15869246675531 13.7548085106383  8.54945455984042 15.0385222539894  7.45935008643617 15.920812375  C 6.67196630958587 16.55372876621  5.69530184273888 16.904720454197  4.6851605518617 16.917794962766  Z M 4.09749322606383 15.8282166303191  C 4.38001548005319 15.8703056010638  4.67095551462766 15.8776711675532  4.96557833244681 15.8492611156915  C 5.56055466765893 15.7937577351069  6.13037518173966 15.5823434392715  6.6175706037234 15.2363404255319  C 7.56562477260638 14.5592340425532  8.09910251861702 13.5117446808511  8.09910251861702 12.3816557101064  C 8.09910251861702 11.8671179986702  7.98967119015957 11.3715203218085  7.77396517553192 10.9095938125  L 7.61665764228723 10.5728820013298  L 10.5455241861702 7.64243714760639  L 10.882235974734 7.80132301329788  C 11.4111516928575 8.05047578171958  11.9943336194951 8.16229906571907  12.5778955492021 8.12646035638298  C 13.2970510866136 8.0854935468171  13.985561673846 7.82141736597828  14.5476595744681 7.37096324335107  C 15.3823962506122 6.70778262698688  15.8678955621195 5.69918446569655  15.8655706037234 4.63307544547872  C 15.8655706037234 4.45261897606383  15.8518916848404 4.27426693484043  15.8255860837766 4.09854546276596  C 15.8183881081572 4.04620168312162  15.7736597995506 4.00720319552225  15.7208234283612 4.00720319552225  C 15.6928427310875 4.00720319552225  15.66600253895 4.0182926454578  15.6461818284574 4.03804255319149  L 14.4308626795213 5.25336170212766  C 14.3321595484848 5.35231467429319  14.1981393325706 5.40792692594985  14.05837525 5.40792692594985  C 13.9186111674294 5.40792692594985  13.7845909515152 5.35231467429319  13.6858878204787 5.25336170212766  L 11.7161237952128 3.28201934441489  C 11.5106184883717 3.07621169647539  11.5106184883717 2.74285213331184  11.7161237952128 2.53704448537234  L 12.9067156755319 1.34592650930851  C 12.9262863193883 1.32613071009847  12.9372622607154 1.29941662265725  12.9372622607154 1.27157988852197  C 12.9372622607154 1.21784587646326  12.8969651363986 1.17265461182665  12.8435821968085 1.16652225398936  C 12.6490388625967 1.14025980643927  12.4526477265546 1.13022907200236  12.2564410119681 1.13653384707447  C 10.3324487406915 1.19545840159575  8.79567505452128 2.85849902260638  8.87564409441489 4.78249129388298  C 8.8940580106383 5.23494776329787  8.99822822340426 5.67109476728723  9.18552418617021 6.08198838430851  L 9.33809672207447 6.41659574468085  L 6.3939729268617 9.36177175398936  L 6.05989168484043 9.20919921808511  C 5.96140681602741 9.16301057842871  5.86061078412715 9.12191951620899  5.75790327792553 9.08608897074468  C 3.45563634308511 8.31059960904255  1.20177175398936 10.0294081196809  1.13600772872341 12.2732765957447  C 1.13074661303192 12.4689903390957  1.14021663031915 12.6615473949468  1.1659961356383 12.8509477859043  C 1.17757060372341 12.9388085106383  1.28174081648936 12.9772147207447  1.34487427260638 12.9146073603723  L 2.55545842420213 11.7029709946808  C 2.6541403690458 11.6041792032664  2.78804775493031 11.5486693093113  2.92768279454787 11.5486693093113  C 3.06731783416544 11.5486693093113  3.20122522004995 11.6041792032664  3.29990716489362 11.7029709946808  L 5.27019728590426 13.6743133523936  C 5.47538104654255 13.8800232087766  5.47590714228723 14.2130522367021  5.27019728590426 14.4192882114362  L 4.04067312234043 15.6498646117021  C 3.98069633111702 15.7098414029255  4.01331528457447 15.8150638297872  4.09749322606383 15.8276905119681  Z " fill-rule="nonzero" fill="#02a7f0" stroke="none" transform="matrix(1 0 0 1 21 1272 )" />
  </g>
</svg>