<?xml version="1.0" encoding="utf-8"?>
<svg version="1.1" xmlns:xlink="http://www.w3.org/1999/xlink" width="300px" height="34px" xmlns="http://www.w3.org/2000/svg">
  <defs>
    <mask fill="white" id="clip3">
      <path d="M 0 31  L 0 3  C 0 1.31999999999999  1.31999999999994 0  3 0  L 123.509433962265 0  L 297 0  C 298.68 0  300 1.31999999999999  300 3  L 300 31  C 300 32.68  298.68 34  297 34  L 3 34  C 1.31999999999994 34  0 32.68  0 31  Z " fill-rule="evenodd" />
    </mask>
  </defs>
  <g transform="matrix(1 0 0 1 -925 -80 )">
    <path d="M 0 31  L 0 3  C 0 1.31999999999999  1.31999999999994 0  3 0  L 123.509433962265 0  L 297 0  C 298.68 0  300 1.31999999999999  300 3  L 300 31  C 300 32.68  298.68 34  297 34  L 3 34  C 1.31999999999994 34  0 32.68  0 31  Z " fill-rule="nonzero" fill="#ffffff" stroke="none" transform="matrix(1 0 0 1 925 80 )" />
    <path d="M 0 31  L 0 3  C 0 1.31999999999999  1.31999999999994 0  3 0  L 123.509433962265 0  L 297 0  C 298.68 0  300 1.31999999999999  300 3  L 300 31  C 300 32.68  298.68 34  297 34  L 3 34  C 1.31999999999994 34  0 32.68  0 31  Z " stroke-width="2" stroke="#aaaaaa" fill="none" transform="matrix(1 0 0 1 925 80 )" mask="url(#clip3)" />
  </g>
</svg>