<?xml version="1.0" encoding="utf-8"?>
<svg version="1.1" xmlns:xlink="http://www.w3.org/1999/xlink" width="30px" height="30px" xmlns="http://www.w3.org/2000/svg">
  <g transform="matrix(1 0 0 1 -615 -85 )">
    <path d="M 630 87  C 637.28 87  643 92.72  643 100  C 643 107.28  637.28 113  630 113  C 622.72 113  617 107.28  617 100  C 617 92.72  622.72 87  630 87  Z " fill-rule="nonzero" fill="#02a7f0" stroke="none" />
    <path d="M 630 86.5  C 637.56 86.5  643.5 92.44  643.5 100  C 643.5 107.56  637.56 113.5  630 113.5  C 622.44 113.5  616.5 107.56  616.5 100  C 616.5 92.44  622.44 86.5  630 86.5  Z " stroke-width="3" stroke="#81d3f8" fill="none" />
  </g>
</svg>