<?xml version="1.0" encoding="utf-8"?>
<svg version="1.1" xmlns:xlink="http://www.w3.org/1999/xlink" width="16px" height="17px" xmlns="http://www.w3.org/2000/svg">
  <g transform="matrix(1 0 0 1 -136 -787 )">
    <path d="M 5.74368562962963 9.58283485840708  C 5.4242625 9.58283485840708  5.16529022222222 9.84583700663717  5.16529022222222 10.1701877168142  L 5.16529022222222 10.7428192146018  C 5.16529022222222 11.0671891626106  5.42428144444444 11.3301720730088  5.74368562962963 11.3301720730088  C 6.06310875925926 11.3301720730088  6.32208103703704 11.0671699247788  6.32208103703704 10.7428192146018  L 6.32208103703704 10.1701877168142  C 6.32208103703704 9.84581776880531  6.06308981481482 9.58283485840708  5.74368562962963 9.58283485840708  Z M 10.2544383148148 9.58283485840708  C 9.9350152037037 9.58283485840708  9.67604290740741 9.84583700663717  9.67604290740741 10.1701877168142  L 9.67604290740741 10.7428192146018  C 9.67604290740741 11.0671891626106  9.93503412962963 11.3301720730088  10.2544383148148 11.3301720730088  C 10.5738425 11.3301720730088  10.8328337222222 11.0671699247788  10.8328337037037 10.7428192146018  L 10.8328337037037 10.1701877168142  C 10.8328337037037 9.84581776880531  10.5738614259259 9.58283485840708  10.2544383148148 9.58283485840708  Z M 7.40513694444445 12.2881949623894  C 7.23521125925926 12.01716825  6.88181057407408 11.9348634081858  6.61199883333333 12.1047265619469  C 6.34069003703704 12.2759367776549  6.25727162962963 12.6380626537611  6.42588975925926 12.9135923915929  C 6.62988774074074 13.2470453230088  7.18956042592593 13.8113635951327  7.99351905555556 13.8113635951327  C 8.7934412962963 13.8113635951327  9.36006868518519 13.2513366382743  9.5686905 12.9203853772124  C 9.73937418518518 12.649743534292  9.66188716666667 12.2934484513274  9.39762781481481 12.1165998584071  C 9.13336846296296 11.9399437002212  8.77583664814815 12.0148782334071  8.59836883333333 12.2809401183628  C 8.59601901851852 12.2844809325221  8.35671696296296 12.6366578783186  7.99351905555556 12.6366578783186  C 7.64114166666667 12.6366578783186  7.42058127777778 12.3118068340708  7.40513694444445 12.2881949623894  Z M 15.9038844259259 2.54466500884956  C 15.9038844259259 2.22029507964602  15.6448932037037 1.95731215044248  15.3254890185185 1.95731215044248  L 11.4694817592593 1.95731215044248  L 11.4694817592593 1.45178303761062  C 11.4694817592593 0.696837766592921  10.8640635 0.0826208462389383  10.119873537037 0.0826208462389383  L 5.87826935185185 0.0826208462389383  C 5.13407938888889 0.0826208462389383  4.52866112962963 0.696837747787611  4.52866112962963 1.45178303761062  L 4.52866112962963 1.95731215044248  L 0.67265387037037 1.95731215044248  C 0.353230740740741 1.95731215044248  0.0942584629629629 2.22029506084071  0.0942584629629629 2.54466500884956  C 0.0942584629629629 2.86903495685841  0.353230740740741 3.13201786725664  0.67265387037037 3.13201784845133  L 15.3254890185185 3.13201784845133  C 15.6449121481481 3.13201784845133  15.9038844259259 2.8690349380531  15.9038844259259 2.54466500884956  Z M 10.312672 1.95731215044248  L 5.68545192592593 1.95731215044248  L 5.68545192592593 1.45178303761062  C 5.68545192592593 1.34632816371681  5.77375946296296 1.2573265630531  5.87825038888889 1.2573265630531  L 10.1198545925926 1.2573265630531  C 10.2243455185185 1.2573265630531  10.3126530555556 1.34632816371681  10.3126530555556 1.45178303761062  L 10.3126530555556 1.95731215044248  Z M 14.3614777407407 4.4100808949115  C 14.3614777407407 4.08571094690265  14.102505462963 3.82272803650442  13.7830823333333 3.82272803650442  C 13.4636592037037 3.82272803650442  13.2046869259259 4.08571094690265  13.2046869259259 4.4100808949115  L 13.2046869259259 14.3782605077434  C 13.2046869259259 15.1321473971239  12.5992686666667 15.7455175707965  11.8550787037037 15.7455175896018  L 4.14306418518519 15.7455175896018  C 3.39887422222222 15.7455175896018  2.79345596296296 15.1321473971239  2.79345596296296 14.3782605077434  L 2.79345596296296 4.4100808949115  C 2.79345596296296 4.08571094690265  2.53448368518518 3.82272803650442  2.21506055555556 3.82272803650442  C 1.89563742592593 3.82272803650442  1.63666514814815 4.08571094690265  1.63666514814815 4.4100808949115  L 1.63666514814815 14.3782605077434  C 1.63666514814815 15.779925119469  2.76099440740741 16.9202232876106  4.14306418518519 16.9202232876106  L 11.8550787037037 16.9202232876106  C 13.2371674259259 16.9202232876106  14.3614777407407 15.779925119469  14.3614777407407 14.3782605077434  L 14.3614777407407 4.4100808949115  Z M 5.68545192592592 4.4100808949115  C 5.68545192592592 4.08571094690265  5.42647964814815 3.82272803650442  5.10705651851852 3.82272803650442  C 4.78763338888889 3.82272803650442  4.52866111111111 4.08571094690265  4.52866112962963 4.4100808949115  L 4.52866112962963 7.55987169800885  C 4.52866112962963 7.8842416460177  4.78765235185185 8.14722455641593  5.10705651851852 8.14722455641593  C 5.42647964814815 8.14722455641593  5.68545192592592 7.88422240818584  5.68545192592592 7.55987169800885  L 5.68545192592592 4.4100808949115  Z M 10.8910863703704 8.14722455641593  C 11.2104905555556 8.14722455641593  11.4694817777778 7.8842416460177  11.4694817592593 7.55987169800885  L 11.4694817592593 4.4100808949115  C 11.4694817592593 4.08571094690265  11.2105094814815 3.82272803650442  10.8910863703704 3.82272803650442  C 10.5716632592593 3.82272803650442  10.312690962963 4.08571094690265  10.312690962963 4.4100808949115  L 10.312690962963 7.55987169800885  C 10.312690962963 7.8842416460177  10.5716821851852 8.14722455641593  10.8910863703704 8.14722455641593  Z M 7.42067603703704 7.55987169800885  C 7.42065709259259 7.8842416460177  7.67964831481481 8.14722455641593  7.99907144444444 8.14722455641593  C 8.31849457407407 8.14722455641593  8.57746685185185 7.88422240818584  8.57746685185185 7.55987169800885  L 8.57746685185185 4.4100808949115  C 8.57746685185185 4.08571094690265  8.31847562962963 3.82272803650442  7.99907144444444 3.82272803650442  C 7.67966725925926 3.82272803650442  7.42067603703704 4.08571094690265  7.42067603703704 4.4100808949115  L 7.42067603703704 7.55987169800885  Z " fill-rule="nonzero" fill="#ffffff" stroke="none" transform="matrix(1 0 0 1 136 787 )" />
  </g>
</svg>