<?xml version="1.0" encoding="utf-8"?>
<svg version="1.1" xmlns:xlink="http://www.w3.org/1999/xlink" width="1390px" height="55px" xmlns="http://www.w3.org/2000/svg">
  <g transform="matrix(1 0 0 1 -114 -101 )">
    <path d="M 114.5 128.5  A 27 27 0 0 1 141.5 101.5 L 1476.5 101.5  A 27 27 0 0 1 1503.5 128.5 A 27 27 0 0 1 1476.5 155.5 L 141.5 155.5  A 27 27 0 0 1 114.5 128.5 Z " fill-rule="nonzero" fill="#ffffff" stroke="none" fill-opacity="0" />
    <path d="M 114.5 128.5  A 27 27 0 0 1 141.5 101.5 L 1476.5 101.5  A 27 27 0 0 1 1503.5 128.5 A 27 27 0 0 1 1476.5 155.5 L 141.5 155.5  A 27 27 0 0 1 114.5 128.5 Z " stroke-width="1" stroke="#f2f2f2" fill="none" />
  </g>
</svg>