<?xml version="1.0" encoding="utf-8"?>
<svg version="1.1" xmlns:xlink="http://www.w3.org/1999/xlink" width="27px" height="27px" xmlns="http://www.w3.org/2000/svg">
  <g transform="matrix(1 0 0 1 -1454 -179 )">
    <path d="M 26.9244084726563 13.5  C 26.9243724726562 6.10293645703125  20.9064944882812 0.0850224726562492  13.5094309453125 0.0850224726562502  C 6.11236740234375 0.0850224726562502  0.0944534179687473 6.10290045703125  0.0944534179687473 13.5  C 0.0944534179687473 20.8970635429687  6.11236740234375 26.9149415273438  13.5094309453125 26.9149415273438  C 20.9064944882812 26.9149415273438  26.9244084726563 20.8970275429687  26.9244084726563 13.5  Z M 25.6667453085937 13.5  C 25.6667453085937 20.203529203125  20.2129601484375 25.6573143632813  13.5094309453125 25.6573143632813  C 6.8059017421875 25.6573143632813  1.35211658203125 20.2035651679687  1.352116546875 13.5  C 1.35211651171875 6.79643483203125  6.8058657421875 1.34268563671875  13.5094309453125 1.34268563671875  C 20.2129961484375 1.34268563671875  25.6667453085937 6.79643483203125  25.6667453085937 13.5  Z M 14.2260386835937 13.4528452734375  L 18.4352992382813 17.662141828125  C 18.6808637460937 17.9077783007812  18.6808637460937 18.3058577226562  18.4352992382813 18.5514942304688  C 18.3174580322414 18.6695773632138  18.1574287239782 18.7358481994112  17.9906050546875 18.73564959375  C 17.8297030898438 18.73564959375  17.6687290898437 18.674240484375  17.5459108710937 18.5514942304688  L 13.33665028125 14.3421976757812  L 9.0044635078125 18.674384484375  C 8.8866222931722 18.7924676257604  8.72659297053318 18.8587384626719  8.5597692890625 18.8585398476563  C 8.39886732421875 18.8585398476563  8.23789332421875 18.7971307382813  8.11507510546875 18.674384484375  C 7.86951059765625 18.4287480117188  7.86951059765625 18.0306685898437  8.11507510546875 17.7850320820313  L 12.4472619140625 13.4528452734375  L 8.41585742578125 9.4213688203125  C 8.17029291796875 9.17573234765625  8.17029291796875 8.77765292578125  8.41585742578125 8.53201641796875  C 8.6614938984375 8.28655991015625  9.0595733203125 8.28655991015625  9.305209828125 8.53201641796875  L 13.33665028125 12.56345690625  L 17.427376125 8.4727310625  C 17.6730125976563 8.2272745546875  18.0710920195313 8.2272745546875  18.3167285273438 8.4727310625  C 18.5622930351563 8.71836753515625  18.5622930351563 9.11644695703125  18.3167285273438 9.3620834296875  L 14.2260386835937 13.4528452734375  Z " fill-rule="nonzero" fill="#ec808d" stroke="none" transform="matrix(1 0 0 1 1454 179 )" />
  </g>
</svg>