<?xml version="1.0" encoding="utf-8"?>
<svg version="1.1" xmlns:xlink="http://www.w3.org/1999/xlink" width="31px" height="31px" xmlns="http://www.w3.org/2000/svg">
  <g transform="matrix(1 0 0 1 -232 -780 )">
    <path d="M 247.5 781  C 255.62 781  262 787.38  262 795.5  C 262 803.62  255.62 810  247.5 810  C 239.38 810  233 803.62  233 795.5  C 233 787.38  239.38 781  247.5 781  Z " fill-rule="nonzero" fill="#02a7f0" stroke="none" />
    <path d="M 247.5 781  C 255.62 781  262 787.38  262 795.5  C 262 803.62  255.62 810  247.5 810  C 239.38 810  233 803.62  233 795.5  C 233 787.38  239.38 781  247.5 781  Z " stroke-width="2" stroke="#ffffff" fill="none" />
  </g>
</svg>