<?xml version="1.0" encoding="utf-8"?>
<svg version="1.1" xmlns:xlink="http://www.w3.org/1999/xlink" width="31px" height="31px" xmlns="http://www.w3.org/2000/svg">
  <g transform="matrix(1 0 0 1 -232 -780 )">
    <path d="M 247.5 780  C 256.18 780  263 786.82  263 795.5  C 263 804.18  256.18 811  247.5 811  C 238.82 811  232 804.18  232 795.5  C 232 786.82  238.82 780  247.5 780  Z " fill-rule="nonzero" fill="#ffffff" stroke="none" fill-opacity="0.109803921568627" />
    <path d="M 247.5 780.5  C 255.9 780.5  262.5 787.1  262.5 795.5  C 262.5 803.9  255.9 810.5  247.5 810.5  C 239.1 810.5  232.5 803.9  232.5 795.5  C 232.5 787.1  239.1 780.5  247.5 780.5  Z " stroke-width="1" stroke="#d7d7d7" fill="none" />
  </g>
</svg>