<?xml version="1.0" encoding="utf-8"?>
<svg version="1.1" xmlns:xlink="http://www.w3.org/1999/xlink" width="17px" height="17px" xmlns="http://www.w3.org/2000/svg">
  <g transform="matrix(1 0 0 1 -35 -787 )">
    <path d="M 5.6869147734375 9.91691433105469  L 5.6869147734375 9.34506004980469  L 9.11804047949219 9.34506004980469  L 9.11804047949219 9.91691433105469  L 5.6869147734375 9.91691433105469  Z M 5.6869147734375 8.49631650488281  L 5.6869147734375 7.92446222363281  L 11.4054765859375 7.92446222363281  L 11.4054765859375 8.49631650488281  L 5.6869147734375 8.49631650488281  Z M 5.6869147734375 7.07569967871094  L 5.6869147734375 6.50384539746094  L 11.4054765859375 6.50384539746094  L 11.4054765859375 7.07569967871094  L 5.6869147734375 7.07569967871094  Z M 16.8073710947266 8.49527220996094  C 16.8073710947266 3.90724190332031  13.0880398066406 0.187891615234375  8.4999905 0.187891615234375  C 3.91194119335937 0.187891615234375  0.192609905273438 3.90722290332031  0.192609905273438 8.49527220996094  C 0.192609905273438 13.0833215166016  3.91194119335938 16.8026528046875  8.4999905 16.8026528046875  C 13.0880398066406 16.8026528046875  16.8073710947266 13.0833025166016  16.8073710947266 8.49527220996094  Z M 13.1210584111328 5.93199111621094  L 13.1210584296875 10.5068253662109  C 13.1210584296875 11.1384511240234  12.6089566435547 11.6505339287109  11.9773308857422 11.6505339287109  L 9.11805947949219 11.6505339287109  L 9.11805947949219 13.9379700537109  L 6.8306233359375 11.6505529287109  L 5.1150604921875 11.6505529287109  C 4.48345371582031 11.6505529287109  3.9713519296875 11.1384511425781  3.9713519296875 10.5068443662109  L 3.9713519296875 5.93199111621094  C 3.9713519296875 5.30038433984375  4.48345371582031 4.78828255371094  5.1150604921875 4.78828255371094  L 11.9773308671875 4.78828255371094  C 12.6089756064453 4.78828255371094  13.1210584111328 5.30038433984375  13.1210584111328 5.93199111621094  Z " fill-rule="nonzero" fill="#ffffff" stroke="none" transform="matrix(1 0 0 1 35 787 )" />
  </g>
</svg>