<?xml version="1.0" encoding="utf-8"?>
<svg version="1.1" xmlns:xlink="http://www.w3.org/1999/xlink" width="10px" height="12px" xmlns="http://www.w3.org/2000/svg">
  <g transform="matrix(1 0 0 1 -425 -206 )">
    <path d="M 9.92075581395349 5.76142647058824  C 9.92074127906977 5.13113235294118  9.46151162790698 4.62017647058824  8.83399709302326 4.62017647058824  L 8.80418604651163 4.62017647058824  C 8.58385174418605 4.62017647058824  8.40302325581395 4.6842205882353  8.22885174418605 4.79327941176471  C 8.07643895348837 4.34351470588235  7.68875 4.01952941176471  7.18941860465116 4.01952941176471  C 6.96906976744186 4.01952941176471  6.75863372093023 4.08355882352941  6.58447674418604 4.19261764705882  C 6.43204941860465 3.74286764705882  6.04418604651163 3.41886764705882  5.54484011627907 3.41886764705882  C 5.35008720930232 3.41886764705882  5.16911337209302 3.46823529411765  5.00889534883721 3.55497058823529  L 5.00889534883721 2.39775  C 5.00889534883721 1.76744117647059  4.53770348837209 1.25648529411765  3.91020348837209 1.25648529411765  C 3.28268895348837 1.25648529411765  2.77401162790697 1.76744117647059  2.77401162790697 2.39775  L 2.77401162790697 6.82836764705882  L 2.08375 6.13285294117647  C 1.64002906976744 5.68717647058824  0.854709302325579 5.75061764705882  0.47691860465116 6.13285294117647  C 0.0991279069767408 6.51508823529412  -0.148633720930236 7.28444117647059  0.392354651162787 7.83179411764706  L 3.56540697674418 11.0211323529412  C 3.63087209302325 11.0868823529412  3.70283430232558 11.1417205882353  3.77853197674418 11.1880882352941  C 4.35706395348837 11.6655882352941  5.01998546511628 11.9482647058824  6.42180232558139 11.9482647058824  C 9.62418604651162 11.9482647058824  9.92075581395348 10.20025  9.92075581395348 8.04397058823529  L 9.92075581395349 5.76142647058824  Z M 9.32271802325581 5.83351470588235  C 9.32271802325581 5.83351470588235  9.32271802325581 7.55814705882353  9.32271802325581 8.04394117647059  C 9.32271802325581 9.86848529411765  9.3140988372093 11.3475735294118  6.42177325581395 11.3475735294118  C 5.19651162790698 11.3475735294118  4.46091569767442 11.0711617647059  3.90366279069767 10.5114264705882  L 0.899767441860465 7.49198529411765  C 0.633997093023256 7.22308823529412  0.700828488372093 6.87927941176471  0.918401162790698 6.65914705882353  C 1.13595930232558 6.43902941176471  1.5352761627907 6.43141176470588  1.74546511627907 6.64251470588235  C 1.74546511627907 6.64251470588235  2.27248546511628 7.17258823529412  2.72654069767442 7.62927941176471  C 3.07015988372093 7.97489705882353  3.37200581395349 8.2784705882353  3.37200581395349 8.2784705882353  L 3.37200581395349 2.51788235294118  C 3.37200581395349 2.21932352941177  3.61296511627907 1.97729411764706  3.91020348837209 1.97729411764706  C 4.2074273255814 1.97729411764706  4.4109011627907 2.21933823529412  4.4109011627907 2.51788235294118  L 4.4109011627907 6.18191176470588  L 4.41693313953488 6.18191176470588  C 4.41300872093023 6.20132352941177  4.4109011627907 6.22139705882353  4.4109011627907 6.24198529411765  C 4.4109011627907 6.40783823529412  4.54476744186046 6.54232352941177  4.70989825581395 6.54232352941177  C 4.87501453488372 6.54232352941177  5.00888081395349 6.40785294117647  5.00888081395349 6.24198529411765  C 5.00888081395349 6.22139705882353  5.00678779069768 6.20132352941177  5.0028488372093 6.18191176470588  L 5.00888081395349 6.18191176470588  L 5.00888081395349 4.68025  C 5.00888081395349 4.38169117647059  5.22392441860465 4.13964705882353  5.52116279069767 4.13964705882353  C 5.52116279069767 4.13964705882353  6.04779069767442 4.13244117647059  6.04779069767442 4.68025  L 6.04779069767442 6.66241176470588  L 6.0538226744186 6.66241176470588  C 6.04989825581395 6.68183823529412  6.04779069767442 6.70191176470588  6.04779069767442 6.72248529411765  C 6.04779069767442 6.88835294117647  6.18165697674419 7.02282352941176  6.34677325581395 7.02282352941176  C 6.51190406976744 7.02282352941176  6.64577034883721 6.88836764705882  6.64577034883721 6.72248529411765  C 6.64577034883721 6.70191176470588  6.6436773255814 6.68183823529412  6.63973837209302 6.66241176470588  L 6.64577034883721 6.66241176470588  L 6.64577034883721 5.28091176470588  C 6.64577034883721 4.98233823529412  6.85738372093023 4.74029411764706  7.15463662790698 4.74029411764706  C 7.15463662790698 4.74029411764706  7.69218023255814 4.77416176470588  7.69218023255814 5.28091176470588  L 7.69218023255814 7.02280882352941  L 7.69821220930233 7.02280882352941  C 7.6943023255814 7.04222058823529  7.69218023255814 7.06230882352941  7.69218023255814 7.08288235294118  C 7.69218023255814 7.24875  7.82604651162791 7.38322058823529  7.9911773255814 7.38322058823529  C 8.15630813953488 7.38322058823529  8.28267441860465 7.24876470588235  8.28267441860465 7.08288235294118  C 8.28267441860465 7.06230882352941  8.2806976744186 7.04222058823529  8.27697674418605 7.02280882352941  L 8.28267441860465 7.02280882352941  L 8.28267441860465 5.83351470588235  C 8.28267441860465 5.53495588235294  8.50440406976744 5.29291176470588  8.80162790697674 5.29291176470588  C 8.80162790697674 5.29291176470588  9.32271802325581 5.27158823529412  9.32271802325581 5.83351470588235  Z M 1.58584302325581 2.38588235294118  C 1.58585755813954 3.06411764705882  1.87351744186047 3.67286764705882  2.33004360465116 4.09933823529412  L 2.33004360465116 3.09005882352941  C 2.23511627906977 2.87475  2.18120639534884 2.63686764705882  2.18120639534884 2.38588235294118  C 2.18120639534884 1.42945588235294  2.94752906976744 0.654117647058824  3.89283430232558 0.654117647058824  C 4.83813953488372 0.654117647058824  5.60446220930233 1.42945588235294  5.60446220930233 2.38588235294118  C 5.60446220930233 2.51652941176471  5.58920058139535 2.64336764705882  5.5618023255814 2.76558823529412  C 5.77709302325581 2.77408823529412  5.97133720930233 2.8645  6.11273255813954 3.00966176470588  C 6.16754360465116 2.81086764705882  6.19979651162791 2.60252941176471  6.19979651162791 2.38588235294118  C 6.19979651162791 1.09679411764706  5.16691860465116 0.0517647058823531  3.89281976744186 0.0517647058823531  C 2.61872093023256 0.0517647058823531  1.58584302325581 1.09679411764706  1.58584302325581 2.38588235294118  Z " fill-rule="nonzero" fill="#69e147" stroke="none" transform="matrix(1 0 0 1 425 206 )" />
  </g>
</svg>