<?xml version="1.0" encoding="utf-8"?>
<svg version="1.1" xmlns:xlink="http://www.w3.org/1999/xlink" width="50px" height="50px" xmlns="http://www.w3.org/2000/svg">
  <defs>
    <linearGradient gradientUnits="userSpaceOnUse" x1="1496" y1="16" x2="1496" y2="66" id="LinearGradient247">
      <stop id="Stop248" stop-color="#ffffff" offset="0" />
      <stop id="Stop249" stop-color="#000000" offset="1" />
    </linearGradient>
  </defs>
  <g transform="matrix(1 0 0 1 -1471 -16 )">
    <path d="M 1496 18  C 1508.88 18  1519 28.12  1519 41  C 1519 53.88  1508.88 64  1496 64  C 1483.12 64  1473 53.88  1473 41  C 1473 28.12  1483.12 18  1496 18  Z " fill-rule="nonzero" fill="#ffffff" stroke="none" />
    <path d="M 1496 17.5  C 1509.16 17.5  1519.5 27.84  1519.5 41  C 1519.5 54.16  1509.16 64.5  1496 64.5  C 1482.84 64.5  1472.5 54.16  1472.5 41  C 1472.5 27.84  1482.84 17.5  1496 17.5  Z " stroke-width="3" stroke="url(#LinearGradient247)" fill="none" />
  </g>
</svg>