<?xml version="1.0" encoding="utf-8"?>
<svg version="1.1" xmlns:xlink="http://www.w3.org/1999/xlink" width="50px" height="50px" xmlns="http://www.w3.org/2000/svg">
  <g transform="matrix(1 0 0 1 -1471 -16 )">
    <path d="M 1496 16  C 1510 16  1521 27  1521 41  C 1521 55  1510 66  1496 66  C 1482 66  1471 55  1471 41  C 1471 27  1482 16  1496 16  Z " fill-rule="nonzero" fill="#ffffff" stroke="none" />
    <path d="M 1496 16.5  C 1509.72 16.5  1520.5 27.28  1520.5 41  C 1520.5 54.72  1509.72 65.5  1496 65.5  C 1482.28 65.5  1471.5 54.72  1471.5 41  C 1471.5 27.28  1482.28 16.5  1496 16.5  Z " stroke-width="1" stroke="#797979" fill="none" />
  </g>
</svg>