<?xml version="1.0" encoding="utf-8"?>
<svg version="1.1" xmlns:xlink="http://www.w3.org/1999/xlink" width="45px" height="45px" xmlns="http://www.w3.org/2000/svg">
  <g transform="matrix(1 0 0 1 -1389 -148 )">
    <path d="M 1411.5 148  C 1424.1 148  1434 157.9  1434 170.5  C 1434 183.1  1424.1 193  1411.5 193  C 1398.9 193  1389 183.1  1389 170.5  C 1389 157.9  1398.9 148  1411.5 148  Z " fill-rule="nonzero" fill="#d7d7d7" stroke="none" />
    <path d="M 1411.5 148.5  C 1423.82 148.5  1433.5 158.18  1433.5 170.5  C 1433.5 182.82  1423.82 192.5  1411.5 192.5  C 1399.18 192.5  1389.5 182.82  1389.5 170.5  C 1389.5 158.18  1399.18 148.5  1411.5 148.5  Z " stroke-width="1" stroke="#797979" fill="none" />
  </g>
</svg>