<?xml version="1.0" encoding="utf-8"?>
<svg version="1.1" xmlns:xlink="http://www.w3.org/1999/xlink" width="45px" height="45px" xmlns="http://www.w3.org/2000/svg">
  <g transform="matrix(1 0 0 1 -1389 -93 )">
    <path d="M 1411.5 93  C 1424.1 93  1434 102.9  1434 115.5  C 1434 128.1  1424.1 138  1411.5 138  C 1398.9 138  1389 128.1  1389 115.5  C 1389 102.9  1398.9 93  1411.5 93  Z " fill-rule="nonzero" fill="#ffffff" stroke="none" />
    <path d="M 1411.5 93.5  C 1423.82 93.5  1433.5 103.18  1433.5 115.5  C 1433.5 127.82  1423.82 137.5  1411.5 137.5  C 1399.18 137.5  1389.5 127.82  1389.5 115.5  C 1389.5 103.18  1399.18 93.5  1411.5 93.5  Z " stroke-width="1" stroke="#797979" fill="none" />
  </g>
</svg>