<?xml version="1.0" encoding="utf-8"?>
<svg version="1.1" xmlns:xlink="http://www.w3.org/1999/xlink" width="89px" height="89px" xmlns="http://www.w3.org/2000/svg">
  <g transform="matrix(1 0 0 1 -1238 -102 )">
    <path d="M 1282.5 102  C 1307.42 102  1327 121.58  1327 146.5  C 1327 171.42  1307.42 191  1282.5 191  C 1257.58 191  1238 171.42  1238 146.5  C 1238 121.58  1257.58 102  1282.5 102  Z " fill-rule="nonzero" fill="#ffffff" stroke="none" fill-opacity="0" />
    <path d="M 1282.5 102.5  C 1307.14 102.5  1326.5 121.86  1326.5 146.5  C 1326.5 171.14  1307.14 190.5  1282.5 190.5  C 1257.86 190.5  1238.5 171.14  1238.5 146.5  C 1238.5 121.86  1257.86 102.5  1282.5 102.5  Z " stroke-width="1" stroke="#797979" fill="none" />
  </g>
</svg>