<?xml version="1.0" encoding="utf-8"?>
<svg version="1.1" xmlns:xlink="http://www.w3.org/1999/xlink" width="170px" height="170px" xmlns="http://www.w3.org/2000/svg">
  <g transform="matrix(1 0 0 1 -446 -275 )">
    <path d="M 531 276  C 578.04 276  615 312.96  615 360  C 615 407.04  578.04 444  531 444  C 483.96 444  447 407.04  447 360  C 447 312.96  483.96 276  531 276  Z " fill-rule="nonzero" fill="#ffffff" stroke="none" />
    <path d="M 531 276  C 578.04 276  615 312.96  615 360  C 615 407.04  578.04 444  531 444  C 483.96 444  447 407.04  447 360  C 447 312.96  483.96 276  531 276  Z " stroke-width="2" stroke="#d7d7d7" fill="none" />
  </g>
</svg>