<?xml version="1.0" encoding="utf-8"?>
<svg version="1.1" xmlns:xlink="http://www.w3.org/1999/xlink" width="170px" height="170px" xmlns="http://www.w3.org/2000/svg">
  <g transform="matrix(1 0 0 1 -693 -275 )">
    <path d="M 778 276  C 825.04 276  862 312.96  862 360  C 862 407.04  825.04 444  778 444  C 730.96 444  694 407.04  694 360  C 694 312.96  730.96 276  778 276  Z " fill-rule="nonzero" fill="#555555" stroke="none" />
    <path d="M 778 276  C 825.04 276  862 312.96  862 360  C 862 407.04  825.04 444  778 444  C 730.96 444  694 407.04  694 360  C 694 312.96  730.96 276  778 276  Z " stroke-width="2" stroke="#555555" fill="none" />
  </g>
</svg>