<?xml version="1.0" encoding="utf-8"?>
<svg version="1.1" xmlns:xlink="http://www.w3.org/1999/xlink" width="170px" height="170px" xmlns="http://www.w3.org/2000/svg">
  <g transform="matrix(1 0 0 1 -940 -275 )">
    <path d="M 1025 276  C 1072.04 276  1109 312.96  1109 360  C 1109 407.04  1072.04 444  1025 444  C 977.96 444  941 407.04  941 360  C 941 312.96  977.96 276  1025 276  Z " fill-rule="nonzero" fill="#ffffff" stroke="none" />
    <path d="M 1025 276  C 1072.04 276  1109 312.96  1109 360  C 1109 407.04  1072.04 444  1025 444  C 977.96 444  941 407.04  941 360  C 941 312.96  977.96 276  1025 276  Z " stroke-width="2" stroke="#000000" fill="none" />
  </g>
</svg>