<?xml version="1.0" encoding="utf-8"?>
<svg version="1.1" xmlns:xlink="http://www.w3.org/1999/xlink" width="255px" height="173px" xmlns="http://www.w3.org/2000/svg">
  <defs>
    <mask fill="white" id="clip653">
      <path d="M 235 139  L 146.041379539776 139  L 123 162.041630560343  L 99.9587352856227 139  L 10 139  C 4.39999999999998 139  0 134.6  0 129  L 0 10  C 0 4.40000000000001  4.39999999999998 0  10 0  L 235 0  C 240.6 0  245 4.40000000000001  245 10  L 245 129  C 245 134.6  240.6 139  235 139  Z " fill-rule="evenodd" />
    </mask>
    <filter x="404px" y="86px" width="255px" height="173px" filterUnits="userSpaceOnUse" id="filter654">
      <feOffset dx="0" dy="0" in="SourceAlpha" result="shadowOffsetInner" />
      <feGaussianBlur stdDeviation="2.5" in="shadowOffsetInner" result="shadowGaussian" />
      <feComposite in2="shadowGaussian" operator="atop" in="SourceAlpha" result="shadowComposite" />
      <feColorMatrix type="matrix" values="0 0 0 0 0  0 0 0 0 0  0 0 0 0 0  0 0 0 0.349019607843137 0  " in="shadowComposite" />
    </filter>
    <g id="widget655">
      <path d="M 235 139  L 146.041379539776 139  L 123 162.041630560343  L 99.9587352856227 139  L 10 139  C 4.39999999999998 139  0 134.6  0 129  L 0 10  C 0 4.40000000000001  4.39999999999998 0  10 0  L 235 0  C 240.6 0  245 4.40000000000001  245 10  L 245 129  C 245 134.6  240.6 139  235 139  Z " fill-rule="nonzero" fill="#ffffff" stroke="none" transform="matrix(1 0 0 1 409 91 )" />
      <path d="M 235 139  L 146.041379539776 139  L 123 162.041630560343  L 99.9587352856227 139  L 10 139  C 4.39999999999998 139  0 134.6  0 129  L 0 10  C 0 4.40000000000001  4.39999999999998 0  10 0  L 235 0  C 240.6 0  245 4.40000000000001  245 10  L 245 129  C 245 134.6  240.6 139  235 139  Z " stroke-width="2" stroke="#797979" fill="none" transform="matrix(1 0 0 1 409 91 )" mask="url(#clip653)" />
    </g>
  </defs>
  <g transform="matrix(1 0 0 1 -404 -86 )">
    <use xlink:href="#widget655" filter="url(#filter654)" />
    <use xlink:href="#widget655" />
  </g>
</svg>