<?xml version="1.0" encoding="utf-8"?>
<svg version="1.1" xmlns:xlink="http://www.w3.org/1999/xlink" width="74px" height="43px" xmlns="http://www.w3.org/2000/svg">
  <g transform="matrix(1 0 0 1 -1267 -619 )">
    <path d="M 1304 619.5  C 1324.44 619.5  1340.5 628.74  1340.5 640.5  C 1340.5 652.26  1324.44 661.5  1304 661.5  C 1283.56 661.5  1267.5 652.26  1267.5 640.5  C 1267.5 628.74  1283.56 619.5  1304 619.5  Z " fill-rule="nonzero" fill="#ffffff" stroke="none" fill-opacity="0" />
    <path d="M 1304 619.5  C 1324.44 619.5  1340.5 628.74  1340.5 640.5  C 1340.5 652.26  1324.44 661.5  1304 661.5  C 1283.56 661.5  1267.5 652.26  1267.5 640.5  C 1267.5 628.74  1283.56 619.5  1304 619.5  Z " stroke-width="1" stroke-dasharray="17,8" stroke="#d9001b" fill="none" stroke-dashoffset="0.5" />
  </g>
</svg>