<?xml version="1.0" encoding="utf-8"?>
<svg version="1.1" xmlns:xlink="http://www.w3.org/1999/xlink" width="14px" height="14px" xmlns="http://www.w3.org/2000/svg">
  <g transform="matrix(1 0 0 1 -1624 -285 )">
    <path d="M 13.9724124022537 6.97424064195122  C 13.9724124022537 3.11276823609756  10.8821600175458 0.00773776585365854  7.04049750930611 0.00773776585365854  C 3.19836344993761 0.00773776585365854  0.10851326741539 3.11276823609756  0.10851326741539 6.97424064195122  C 0.10851326741539 10.8356990614634  3.19834958557005 13.9799486263415  7.04049750930611 13.9799486263415  C 10.8821600310985 13.9799486263415  13.9724124022537 10.8356990614634  13.9724124022537 6.97424064195122  Z M 10.4861445111288 10.2182989931707  L 10.4472155761165 10.5559940312195  L 9.67466981378711 11.1538125112195  C 8.94184348581584 11.3729557814634  7.1394493708149 11.7311828370732  4.90133416585366 8.54677773463415  C 2.36612758724901 5.10318564682927  3.37649067586311 3.15239264780488  3.75263260750993 2.81430626536585  L 4.56449561556438 2.23694992585366  L 4.90133416585366 2.3367447395122  L 6.26789626240121 4.32674284682927  L 6.22857901667612 4.64526162731707  L 5.43613193728871 5.20257514341464  C 5.07987745833239 5.50103712780488  5.3172371385139 5.87923711609756  5.5748725820987 6.59559339121951  C 5.81263443736056 7.01389301268293  6.34741834442806 7.84966762146342  6.70368668775194 8.16820037463415  C 7.31759047466062 8.68580561560976  7.59514111322367 9.02438120585366  8.01108569253923 8.78558645658537  L 8.76332794917754 8.24834370926829  L 9.06118209343165 8.28756279024391  L 10.4861445111288 10.2182989931707  Z " fill-rule="nonzero" fill="#f2f2f2" stroke="none" transform="matrix(1 0 0 1 1624 285 )" />
  </g>
</svg>