<?xml version="1.0" encoding="utf-8"?>
<svg version="1.1" xmlns:xlink="http://www.w3.org/1999/xlink" width="14px" height="14px" xmlns="http://www.w3.org/2000/svg">
  <g transform="matrix(1 0 0 1 -1624 -414 )">
    <path d="M 13.9931375053554 7.01361333008763  C 13.9944988315482 3.16648747419669  10.8756859104187 0.0476745530671857  7.02719872833496 0.0476745530671857  C 3.18007288607595 0.0476745530671857  0.061259964946446 3.16648747419669  0.061259964946446 7.01361333008763  C 0.061259964946446 10.8607391859786  3.18007288607595 13.9795520934761  7.02719872833496 13.9795520934761  C 10.874324570594 13.9795520934761  13.9931374917235 10.8607391723466  13.9931375053554 7.01361333008763  Z M 10.9097192288218 3.48912329503408  L 10.9097192288218 4.31953617137293  C 10.9097192288218 4.77149858033106  10.5421594391431 5.13905838364167  10.0901970165531 5.13905837000974  L 9.26114548003895 5.13905837000974  C 8.80918307108082 5.13905837000974  8.44162326777021 4.77149858033106  8.44162328140214 4.31953617137293  L 8.44162328140214 4.21335222395326  L 6.95913210516066 4.21335222395326  C 6.91556946251217 4.21335222395326  6.88153614410906 4.24874686854917  6.88153614410906 4.29094818500487  L 6.88153614410906 6.80124544888023  L 8.44298460759494 6.80124544888023  L 8.44298460759494 6.62835620447906  C 8.44298460759494 6.17639379552094  8.81054439727361 5.80883399221032  9.26250681986368 5.80883400584226  L 10.0915583563778 5.80883400584226  C 10.5435207653359 5.80883400584226  10.9110805686465 6.17639379552094  10.9110805550146 6.62835620447906  L 10.9110805550146 7.45740774099318  C 10.9110805550146 7.90937014995132  10.5435207653359 8.27692995326193  10.0915583563778 8.27692995326193  L 9.26250681986368 8.27692995326193  C 8.81054441090555 8.27692995326193  8.44298460759494 7.90937016358325  8.44298460759494 7.45740774099318  L 8.44298460759494 7.28451851022395  L 6.88017481791626 7.28451851022395  L 6.88017481791626 9.79481577409932  C 6.88017481791626 9.83837841674781  6.91556946251217 9.87241173515092  6.95777077896787 9.87241172151899  L 8.44026194157741 9.87241172151899  L 8.44026194157741 9.6818251684518  C 8.44026194157741 9.22986275949367  8.80782173125609 8.86230295618306  9.25978415384615 8.86230295618306  L 10.0888356903603 8.86230295618306  C 10.5407980993184 8.86230295618306  10.908357902629 9.22986274586173  10.9083578889971 9.6818251684518  L 10.9083578889971 10.5108767049659  C 10.9083578889971 10.9628391139241  10.5407980993184 11.3303989172347  10.0888356903603 11.3303989036027  L 9.25978415384615 11.3303989036027  C 8.80782174488802 11.3303989036027  8.44026194157741 10.9628391139241  8.44026194157741 10.5108767049659  L 8.44026194157741 10.3556847828627  L 6.95913210516066 10.3556847828627  C 6.64874827458617 10.3556847828627  6.39690175657254 10.1038382512171  6.39690175657254 9.79345443427458  L 6.39690175657254 7.28451851022395  L 5.53926223369036 7.28451851022395  L 5.53926223369036 7.59898633300876  C 5.53926223369036 8.15985535540409  5.08321581888997 8.61454043037974  4.52370813631938 8.61454043037974  L 3.41149942940604 8.61454043037974  C 2.85063040701071 8.61454043037974  2.39594533203505 8.15849401557936  2.39594533203505 7.59898633300876  L 2.39594533203505 6.48677762609542  C 2.39594533203505 5.9259086037001  2.85199174683544 5.47122352872444  3.41149942940604 5.47122352872444  L 4.52370813631938 5.47122352872444  C 5.0845771587147 5.47122352872444  5.53926223369036 5.92726994352483  5.53926223369036 6.48677762609542  L 5.53926223369036 6.80124544888023  L 6.39690175657254 6.80124544888023  L 6.39690175657254 4.29094818500487  C 6.39690175657254 3.98056435443038  6.64874828821811 3.72871783641675  6.95913210516066 3.72871783641675  L 8.44162328140214 3.72871783641675  L 8.44162328140214 3.48912329503408  C 8.44162328140214 3.03716088607595  8.80918307108082 2.66960108276534  9.26114548003895 2.66960109639727  L 10.0901970165531 2.66960109639727  C 10.5421594255112 2.66960109639727  10.9097192288218 3.03716088607595  10.9097192288218 3.48912329503408  Z " fill-rule="nonzero" fill="#f2f2f2" stroke="none" transform="matrix(1 0 0 1 1624 414 )" />
  </g>
</svg>