<?xml version="1.0" encoding="utf-8"?>
<svg version="1.1" xmlns:xlink="http://www.w3.org/1999/xlink" width="14px" height="14px" xmlns="http://www.w3.org/2000/svg">
  <g transform="matrix(1 0 0 1 -1624 -465 )">
    <path d="M 6.94930975609756 3.87057317073171  C 7.78410243902439 3.87057317073171  8.46335853658536 4.57117073170732  8.46335853658536 5.43242682926829  L 8.46335853658536 6.35804878048781  L 5.43527804878049 6.35804878048781  L 5.43527804878049 5.43242682926829  C 5.43527804878049 4.57117073170732  6.11446585365854 3.87057317073171  6.94930975609756 3.87057317073171  Z M 9.47861463414634 6.80821707317073  C 9.47861463414634 6.73493902439024  9.41892682926829 6.67523414634146  9.34556341463415 6.67523414634146  L 8.61701707317073 6.67523414634146  L 8.46335853658536 6.67523414634146  L 5.43527804878049 6.67523414634146  L 5.27666829268293 6.67523414634146  L 4.64103414634146 6.67523414634146  C 4.56767073170732 6.67523414634146  4.50798292682927 6.73493902439024  4.50798292682927 6.80821707317073  L 4.50798292682927 9.99644390243903  C 4.50798292682927 10.0698073170732  4.56767073170732 10.1294951219512  4.64103414634146 10.1294951219512  L 9.34563170731707 10.1294951219512  C 9.41899512195122 10.1294951219512  9.47861463414634 10.0698073170732  9.47861463414634 9.99644390243903  L 9.47861463414634 6.80821707317073  Z M 7.2953487804878 7.87517073170732  C 7.29538292682927 7.9607243902439  7.25889756097561 8.03755365853659  7.20100243902439 8.09170975609756  C 7.19207317073171 8.48108048780488  7.10503414634146 8.94577804878049  6.9989243902439 8.94577804878049  C 6.89283170731707 8.94577804878049  6.80584390243902 8.48099512195122  6.79689756097561 8.09170975609756  C 6.7389512195122 8.03755365853659  6.70246585365854 7.9607243902439  6.70246585365854 7.87517073170732  C 6.70246585365854 7.71143902439024  6.83519268292683 7.57871219512195  6.99890731707317 7.57871219512195  C 7.16263902439024 7.57871219512195  7.2953487804878 7.71143902439024  7.2953487804878 7.87517073170732  Z M 13.9866487804878 7.00023902439024  C 13.9864609756098 3.13789512195122  10.8555317073171 0.00682926829268293  6.99325609756098 0.00682926829268293  C 3.13099756097561 0.00682926829268293  0 3.13789512195122  0 7.00023902439024  C 0 10.8623780487805  3.13099756097561 13.9931707317073  6.99339268292683 13.9931707317073  C 10.8555317073171 13.9931707317073  13.9866487804878 10.8623097560976  13.9866487804878 7.00023902439024  Z M 9.7958 6.80821707317073  L 9.7958 9.99644390243903  C 9.7958 10.2446707317073  9.59385853658537 10.4466804878049  9.3457 10.4466804878049  L 4.64110243902439 10.4466804878049  C 4.39280731707317 10.4466804878049  4.19086585365854 10.2446707317073  4.19086585365854 9.99644390243903  L 4.19086585365854 6.80821707317073  C 4.19086585365854 6.55999024390244  4.3928756097561 6.35804878048781  4.64110243902439 6.35804878048781  L 5.11814390243902 6.35804878048781  L 5.11814390243902 5.43242682926829  C 5.11814390243902 4.93131219512195  5.30808292682927 4.45999024390244  5.65296097560976 4.10532926829268  C 5.9989487804878 3.74938780487805  6.45939512195122 3.55338780487805  6.94937804878049 3.55338780487805  C 7.43929268292683 3.55338780487805  7.89973902439024 3.74937073170732  8.24581219512195 4.10532926829268  C 8.59060487804878 4.45999024390244  8.78054390243902 4.93131219512195  8.78054390243902 5.43242682926829  L 8.78054390243902 6.35804878048781  L 9.34563170731708 6.35804878048781  C 9.59385853658537 6.35804878048781  9.7958 6.55999024390244  9.7958 6.80821707317073  Z " fill-rule="nonzero" fill="#f2f2f2" stroke="none" transform="matrix(1 0 0 1 1624 465 )" />
  </g>
</svg>