<?xml version="1.0" encoding="utf-8"?>
<svg version="1.1" xmlns:xlink="http://www.w3.org/1999/xlink" width="28px" height="27px" xmlns="http://www.w3.org/2000/svg">
  <g transform="matrix(1 0 0 1 -1863 -15 )">
    <path d="M 6.22372713178295 3.76606451612903  C 6.76132713178295 5.27388387096774  6.57795968992248 7.07434838709677  5.68751627906977 8.62258064516129  C 4.79568372093023 10.1708129032258  3.33291162790698 11.2299096774194  1.76178604651163 11.5183741935484  C 1.55412800463357 12.8312459566868  1.55412800463357 14.1687540433132  1.76178604651163 15.4816258064516  C 3.33152248062015 15.7700903225806  4.79568372093023 16.8291870967742  5.68751627906977 18.3774193548387  C 6.57795968992248 19.9242580645161  6.76132713178295 21.7261161290323  6.22372713178295 23.233935483871  C 7.25188193218148 24.0739074567404  8.40683938182308 24.7442398316342  9.64519689922481 25.2197419354839  C 10.6773333333333 23.9976  12.3262511627907 23.2548387096774  14.1085271317829 23.2548387096774  C 15.892192248062 23.2548387096774  17.5383317829457 23.9976  18.5718573643411 25.2197419354839  C 19.8102148817428 24.7442398316342  20.9651723313844 24.0739074567404  21.9933271317829 23.233935483871  C 21.4557271317829 21.7261161290323  21.6390945736434 19.9256516129032  22.5295379844961 18.3774193548387  C 23.4213705426357 16.8291870967742  24.8841426356589 15.7700903225806  26.4552682170543 15.4816258064516  C 26.6629262589323 14.1687540433132  26.6629262589323 12.8312459566868  26.4552682170543 11.5183741935484  C 24.8855317829457 11.2299096774194  23.4213705426357 10.1708129032258  22.5295379844961 8.62258064516129  C 21.6390945736434 7.07574193548387  21.4557271317829 5.27388387096774  21.9933271317829 3.76606451612903  C 20.9651723313844 2.92609254325959  19.8102148817428 2.25576016836577  18.5718573643411 1.78025806451613  C 17.5397209302326 3.0024  15.8908031007752 3.74516129032258  14.1085271317829 3.74516129032258  C 12.3248620155039 3.74516129032258  10.6787224806202 3.0024  9.64519689922481 1.78025806451613  C 8.40683938182308 2.25576016836578  7.25188193218148 2.92609254325959  6.22372713178295 3.76606451612903  Z M 4.48451472868217 7.9258064516129  C 5.37079069767442 6.38593548387097  5.32911627906977 4.60776774193548  4.50396279069767 3.43161290322581  C 6.11527662778446 1.88265671865416  8.07520661418863 0.746378222751194  10.2175255813953 0.119148387096774  C 10.8190263565891 1.42490322580645  12.3345860465116 2.35161290322581  14.1085271317829 2.35161290322581  C 15.8824682170543 2.35161290322581  17.3980279069767 1.42490322580645  17.9981395348837 0.119148387096774  C 20.1409542350716 0.746173643718659  22.1013815438573 1.88246419651256  23.7130914728682 3.43161290322581  C 22.8879379844961 4.60776774193548  22.8462635658915 6.38593548387097  23.7325395348837 7.9258064516129  C 24.6202046511628 9.46707096774194  26.1774387596899 10.3199225806452  27.6054821705426 10.1889290322581  C 27.8638635658915 11.2508129032258  28 12.3586838709677  28 13.5  C 28 14.6413161290323  27.8638635658915 15.7491870967742  27.6054821705426 16.8110709677419  C 26.1774387596899 16.6800774193548  24.618815503876 17.5329290322581  23.7325395348837 19.0741935483871  C 22.8462635658915 20.614064516129  22.8879379844961 22.3922322580645  23.7130914728682 23.5683870967742  C 22.1017776357814 25.1173432813458  20.1418476493773 26.2536217772488  17.9995286821705 26.8808516129032  C 17.3980279069767 25.5750967741936  15.8824682170543 24.6483870967742  14.1085271317829 24.6483870967742  C 12.3345860465116 24.6483870967742  10.8190263565891 25.5750967741936  10.2189147286822 26.8808516129032  C 8.07610002849428 26.2538263562813  6.11567271970859 25.1175358034874  4.50396279069767 23.5683870967742  C 5.32911627906977 22.3922322580645  5.37079069767442 20.614064516129  4.48451472868217 19.0741935483871  C 3.5968496124031 17.5329290322581  2.03961550387597 16.6800774193548  0.611572093023256 16.8110709677419  C 0.348747292027068 15.7271425177395  0.216297858832774 14.6155337634617  0.217054263565891 13.5  C 0.217054263565891 12.3586838709677  0.353190697674419 11.2508129032258  0.611572093023256 10.1889290322581  C 2.03961550387597 10.3199225806452  3.59823875968992 9.46707096774194  4.48451472868217 7.9258064516129  Z M 14.1085271317829 18.3774193548387  C 11.4233101155514 18.3774193548387  9.24651162790698 16.193724328207  9.24651162790698 13.5  C 9.24651162790698 10.806275671793  11.4233101155514 8.62258064516129  14.1085271317829 8.62258064516129  C 16.7937441480145 8.62258064516129  18.9705426356589 10.806275671793  18.9705426356589 13.5  C 18.9705426356589 16.193724328207  16.7937441480145 18.3774193548387  14.1085271317829 18.3774193548387  Z M 14.1085271317829 16.9838709677419  C 16.0265392862341 16.9838709677419  17.5813953488372 15.4240888058621  17.5813953488372 13.5  C 17.5813953488372 11.5759111941379  16.0265392862341 10.0161290322581  14.1085271317829 10.0161290322581  C 12.1905149773318 10.0161290322581  10.6356589147287 11.5759111941379  10.6356589147287 13.5  C 10.6356589147287 15.4240888058621  12.1905149773318 16.9838709677419  14.1085271317829 16.9838709677419  Z " fill-rule="nonzero" fill="#ffffff" stroke="none" transform="matrix(1 0 0 1 1863 15 )" />
  </g>
</svg>