<?xml version="1.0" encoding="utf-8"?>
<svg version="1.1" xmlns:xlink="http://www.w3.org/1999/xlink" width="7px" height="27px" xmlns="http://www.w3.org/2000/svg">
  <g transform="matrix(1 0 0 1 -1693 -15 )">
    <path d="M 6.5416015625 5.93525390625  C 6.38583984375 6.03017578125  6.21025390625 6.075  6.0375 6.075  C 5.74580078125 6.075  5.45693359375 5.9431640625  5.28134765625 5.69794921875  L 2.7466796875 2.1568359375  C 2.469140625 1.76923828125  2.582421875 1.24453125  2.99873046875 0.9861328125  C 3.4150390625 0.727734375  3.97861328125 0.833203125  4.25615234375 1.22080078125  L 6.79365234375 4.76455078125  C 7.07119140625 5.1521484375  6.95791015625 5.67685546875  6.5416015625 5.93525390625  Z M 4.00126953125 26.0138671875  C 3.84833984375 26.11142578125  3.67275390625 26.15625  3.5 26.15625  C 3.20830078125 26.15625  2.91943359375 26.0244140625  2.74384765625 25.77919921875  L 0.206347656250001 22.23544921875  C -0.0711914062499996 21.8478515625  0.0420898437500004 21.32314453125  0.458398437500001 21.06474609375  C 0.874707031250001 20.80634765625  1.43544921875 20.91181640625  1.7158203125 21.2994140625  L 4.2533203125 24.8431640625  C 4.530859375 25.23076171875  4.417578125 25.75546875  4.00126953125 26.0138671875  Z " fill-rule="nonzero" fill="#ffffff" stroke="none" transform="matrix(1 0 0 1 1693 15 )" />
  </g>
</svg>