<?xml version="1.0" encoding="utf-8"?>
<svg version="1.1" xmlns:xlink="http://www.w3.org/1999/xlink" width="12px" height="7px" xmlns="http://www.w3.org/2000/svg">
  <g transform="matrix(1 0 0 1 -23 -275 )">
    <path d="M 11.1173275862069 2.02003472222222  C 10.9468965517241 3.19083333333333  10.448275862069 4.27145833333333  9.67241379310345 5.12847222222222  C 8.68681034482759 6.21541666666667  7.37301724137931 6.8140625  5.97284482758621 6.8140625  C 4.57267241379311 6.8140625  3.25862068965517 6.21517361111111  2.27275862068965 5.12847222222222  C 1.49689655172414 4.27170138888889  0.9975 3.19107638888889  0.826810344827588 2.02027777777778  C 0.388537845494669 1.89972648310453  0.0873685284439892 1.52196992231718  0.0873685284439892 1.09279618637644  C 0.0873685284439892 0.559074340637184  0.547743313273153 0.126407297487555  1.11564439051295 0.126407297487555  C 1.68354546775276 0.126407297487555  2.14392025258192 0.559074340637184  2.14392025258192 1.09279618637644  C 2.14392025258192 1.5331711051408  1.82713472604929 1.91785322129684  1.37353448275862 2.02829861111111  C 1.76456896551724 4.45739583333333  3.67784482758621 6.30607638888889  5.97206896551724 6.30607638888889  C 8.26629310344828 6.30607638888889  10.1798275862069 4.45666666666667  10.5706034482759 2.02829861111111  C 10.1164114526555 1.91783538631639  9.79916644693651 1.53270559739775  9.79916644693651 1.09178782564902  C 9.79916644693651 0.557529036402979  10.2600043854727 0.124426714537905  10.8284767917641 0.124426714537905  C 11.3969491980554 0.124426714537905  11.8577871365917 0.557529036402979  11.8577871365917 1.09178782564902  C 11.8577871365917 1.52149262137529  11.5561779855109 1.89969162779382  11.1173275862069 2.02027777777778  Z " fill-rule="nonzero" fill="#02a7f0" stroke="none" transform="matrix(1 0 0 1 23 275 )" />
  </g>
</svg>