<?xml version="1.0" encoding="utf-8"?>
<svg version="1.1" xmlns:xlink="http://www.w3.org/1999/xlink" width="18px" height="17px" xmlns="http://www.w3.org/2000/svg">
  <g transform="matrix(1 0 0 1 -20 -366 )">
    <path d="M 18 1.79272727272727  C 17.8461538461538 0.803636363636363  17.0461538461538 0.0618181818181819  16.0615384615385 0  L 1.78461538461539 0  C 0.800000000000001 0.0618181818181819  0 0.865454545454546  0 1.79272727272727  L 0 13.0436363636364  C 0 13.9709090909091  0.800000000000001 14.7745454545455  1.78461538461539 14.7745454545455  L 6.70769230769231 14.7745454545455  C 6.70769230769231 14.7745454545455  6.83076923076923 14.8981818181818  7.01538461538462 15.1454545454545  C 7.07692307692308 15.2072727272727  7.13846153846154 15.2690909090909  7.2 15.3927272727273  C 7.2 15.3927272727273  7.32307692307692 15.5781818181818  7.38461538461539 15.64  C 7.93846153846154 16.5054545454545  8.36923076923077 16.9381818181818  9.04615384615385 16.9381818181818  C 9.72307692307693 16.9381818181818  10.2153846153846 16.5054545454545  10.7692307692308 15.64  C 11.2 14.96  11.3230769230769 14.7745454545455  11.3230769230769 14.7745454545455  L 16.1230769230769 14.7745454545455  C 17.1076923076923 14.7745454545455  17.9076923076923 13.9709090909091  18 13.0436363636364  L 18 1.79272727272727  Z M 17 13.0436363636364  L 16.9846153846154 13.0436363636364  C 16.9846153846154 13.5381818181818  16.6153846153846 13.9090909090909  16.1230769230769 13.9090909090909  L 11.2615384615385 13.9090909090909  C 11.1384615384615 13.9090909090909  11.0769230769231 13.9090909090909  10.9538461538462 13.9709090909091  C 10.7692307692308 14.0945454545455  10.5846153846154 14.2181818181818  10.4 14.5272727272727  C 10.3384615384615 14.6509090909091  9.96923076923077 15.2072727272727  9.96923076923077 15.2072727272727  C 9.6 15.8254545454545  9.29230769230769 16.0727272727273  9.04615384615385 16.0727272727273  C 8.8 16.0727272727273  8.55384615384616 15.8254545454545  8.12307692307693 15.2072727272727  C 8.06153846153847 15.1454545454545  8.00000000000001 14.96  7.93846153846154 14.96  C 7.87692307692308 14.8363636363636  7.81538461538462 14.7745454545455  7.75384615384616 14.7127272727273  C 7.38461538461539 14.2181818181818  7.13846153846154 13.9709090909091  6.70769230769231 13.9709090909091  L 1.78461538461539 13.9709090909091  C 1.2923076923077 13.9709090909091  0.923076923076927 13.6  1 13.1054545454545  L 1 1.85454545454546  C 0.923076923076927 1.36  1.35384615384616 0.989090909090913  1.84615384615385 1  L 16.1230769230769 1  C 16.6153846153846 0.989090909090913  17.0461538461538 1.36  17 1.85454545454546  L 17 13.0436363636364  Z M 3.32307692307692 7.78909090909091  C 3.32307692307692 8.33535073437809  3.76390424632045 8.77818181818182  4.30769230769231 8.77818181818182  C 4.85148036906417 8.77818181818182  5.29230769230769 8.33535073437809  5.29230769230769 7.78909090909091  C 5.29230769230769 7.24283108380373  4.85148036906417 6.8  4.30769230769231 6.8  C 3.76390424632045 6.8  3.32307692307692 7.24283108380373  3.32307692307692 7.78909090909091  Z M 7.93846153846154 7.78909090909091  C 7.93846153846154 8.33535073437809  8.37928886170507 8.77818181818182  8.92307692307692 8.77818181818182  C 9.46686498444878 8.77818181818182  9.90769230769231 8.33535073437809  9.90769230769231 7.78909090909091  C 9.90769230769231 7.24283108380373  9.46686498444878 6.8  8.92307692307692 6.8  C 8.37928886170507 6.8  7.93846153846154 7.24283108380373  7.93846153846154 7.78909090909091  Z M 12.4923076923077 7.78909090909091  C 12.4923076923077 8.33535073437809  12.9331350155512 8.77818181818182  13.4769230769231 8.77818181818182  C 14.0207111382949 8.77818181818182  14.4615384615385 8.33535073437809  14.4615384615385 7.78909090909091  C 14.4615384615385 7.24283108380373  14.0207111382949 6.8  13.4769230769231 6.8  C 12.9331350155512 6.8  12.4923076923077 7.24283108380373  12.4923076923077 7.78909090909091  Z " fill-rule="nonzero" fill="#02a7f0" stroke="none" transform="matrix(1 0 0 1 20 366 )" />
  </g>
</svg>