<?xml version="1.0" encoding="utf-8"?>
<svg version="1.1" xmlns:xlink="http://www.w3.org/1999/xlink" width="18px" height="18px" xmlns="http://www.w3.org/2000/svg">
  <g transform="matrix(1 0 0 1 -21 -411 )">
    <path d="M 13.7336818242187 4.73836363183594  L 10.0307727197266 8.00468182421875  L 6.18568182421875 5.04977271972656  C 6.0435 4.89368180761719  5.7583636484375 5.04977271972656  5.61618182421875 5.20509091210937  L 2.48277271972656 8.31531817578125  C 2.34059089550781 8.47140908789062  2.1976363515625 8.93736363183594  2.48277271972656 9.09345454394531  C 2.62495454394531 9.248  3.05227271972656 9.40409091210937  3.19445454394531 9.09345454394531  L 6.0435 6.29386363183594  L 9.88859091210937 9.09345454394531  C 10.0307727363281 9.09345454394531  10.0307727363281 9.248  10.1729545439453 9.248  C 10.3159090878906 9.248  10.4580909121094 9.248  10.4580909121094 9.09345454394531  L 14.4453636318359 5.67181817578125  C 14.7312727197266 5.5165  14.7312727197266 5.20509089550781  14.5883181757812 4.89368182421875  C 14.3031818076172 4.58304545605469  14.0188181757812 4.58304545605469  13.7336818242187 4.73913636816406  Z M 15.8664090878906 1.28581817578125  L 9.06640908789062 1.28581817578125  L 9.06640908789062 0.571045456054687  C 9.06640908789062 0.285909087890625  8.78359091210937 0  8.5 0  C 8.21640908789062 0  7.93359091210937 0.285909087890625  7.93359091210937 0.57181817578125  L 7.93359091210937 1.28581817578125  L 1.13359091210937 1.28581817578125  C 0.566409087890625 1.28581817578125  0 1.71390908789062  0 2.42868182421875  L 0 11.8575  C 0 12.4285454560547  0.566409087890625 13.0003636318359  1.13359091210937 13.0003636318359  L 7.93359091210937 13.0003636318359  L 7.93359091210937 13.5714090878906  L 4.81640908789062 16.0000909121094  C 4.53359091210937 16.1430454560547  4.53359091210937 16.4289545439453  4.675 16.7140909121094  C 4.81640908789062 17  5.1 17  5.38359091210938 16.8570454560547  L 7.93359091210937 15.0001818242187  L 8.21640908789063 14.7142727197266  C 8.35859091210937 14.5713181757812  8.5 14.5713181757812  8.64140908789062 14.7142727197266  L 8.925 15.0001818242187  L 11.475 16.8570454560547  C 11.6164090878906 16.8570454560547  11.6164090878906 17  11.7585909121094 17  C 11.9 17  12.0414090878906 17  12.1835909121094 16.8570454560547  C 12.325 16.5711363681641  12.325 16.2852272802734  12.0414090878906 16.1430454560547  L 9.06640908789063 13.5714090878906  L 9.06640908789063 12.9995909121094  L 15.8664090878906 12.9995909121094  C 16.4335909121094 12.9995909121094  17 12.4285454560547  17 11.8575  L 17 2.42868182421875  C 17 1.71390910449219  16.4335909121094 1.28504545605469  15.8664090878906 1.28504545605469  Z M 16.0085909121094 11.8567272802734  C 16.0085909121094 11.8567272802734  16.0085909121094 11.9996818242187  16.0085909121094 11.8567272802734  L 1.13359091210937 11.9996818242187  C 0.991409087890623 11.9996818242187  0.991409087890623 11.9996818242187  0.991409087890623 11.8575  L 0.991409087890623 2.42868182421875  C 0.991409087890623 2.28572728027344  0.991409087890623 2.28572728027344  1.13359091210937 2.28572728027344  L 15.8664090878906 2.28572728027344  C 16.0085909121094 2.28572728027344  16.0085909121094 2.28572728027344  16.0085909121094 2.42868182421875  L 16.0085909121094 11.8575  Z " fill-rule="nonzero" fill="#02a7f0" stroke="none" transform="matrix(1 0 0 1 21 411 )" />
  </g>
</svg>