<?xml version="1.0" encoding="utf-8"?>
<svg version="1.1" xmlns:xlink="http://www.w3.org/1999/xlink" width="18px" height="18px" xmlns="http://www.w3.org/2000/svg">
  <g transform="matrix(1 0 0 1 -21 -502 )">
    <path d="M 13.1344375 9.01975  L 9.25818750683594 9.01975  C 9.11483338887032 9.01999133346988  8.99874979686038 9.13627067889491  8.99875 9.279625  L 8.99875 13.1545624931641  C 9.00974679340533 15.1700425360337  10.6407712936898 16.8012621318939  12.6562500068359 16.8124999931641  C 14.9518125068359 16.8124999931641  16.8125000136719 14.9518124863281  16.8124999931641 12.6571249931641  C 16.7897297320551 10.6419657404557  15.1497253916509 9.02029854560386  13.1344375 9.02018749316406  Z M 7.7216875 9.01931250683594  C 7.71424999316406 9.01931250683594  7.70725 9.01931250683594  7.69981249316406 9.02018749316406  L 4.21381249316406 9.02018749316406  C 1.99848653558709 9.02015610342885  0.199295175268706 10.8097679500554  0.187500006835938 13.0250625068359  C 0.187741619227995 15.1166356130297  1.88336437301509 16.8120625026299  3.97493749316406 16.8120625  L 3.9955 16.8120625  C 6.19628743730254 16.8120625132615  7.98044589111622 15.028099924041  7.98068749316406 12.8273125  L 7.98068749316406 9.258625  C 7.97039668079076 9.12317642227264  7.8575264249712 9.0185045099746  7.7216875 9.0184375  Z M 4.34374999316406 0.187062493164063  L 4.34374999316406 0.188374993164063  C 2.04862500683594 0.187500006835938  0.187500006835938 2.04818749316406  0.187500006835938 4.34287500683594  C 0.187500006835938 6.35150012417367  1.81581238949821 7.97981250683594  3.82443750683594 7.97981250683594  L 7.70506249316406 7.97981250683594  C 7.84858749252634 7.97981250683594  7.96493749316406 7.86346250619821  7.96493749316406 7.71993750683594  L 7.96493749316406 3.82399999316406  C 7.96493749316406 1.82112499316406  6.3461875 0.195812499999999  4.34374999316406 0.187062493164063  Z M 13.259125 0.187062493164063  C 10.9141898002063 0.198141750683393  9.01924211355921 2.10247617509718  9.01975 4.44743749316406  L 9.01975 7.69456249316406  C 9.01890138399694 7.70310944311457  9.01847629601489 7.71169315589427  9.01847629601489 7.72028213153617  C 9.01847629601489 7.85622822006645  9.1230873661817 7.96928213145706  9.258625 7.97981250683594  L 12.5941249931641 7.97981250683594  C 14.9239171811903 7.9798125071091  16.8125479996228 6.09118168867657  16.8125479996228 3.7614375071091  C 16.8125479996228 3.75472914049857  16.8125319974244 3.74802078343123  16.8124999931641 3.74131249316406  C 16.8125001009127 1.77820428153523  15.2217957992646 0.187499979887172  13.2595626009127 0.187499979887172  Z M 6.66818749316406 10.33225  L 6.66818749316406 12.8277499931641  C 6.66591347427646 13.538463919735  6.38267143913534 14.2194400616854  5.88025 14.7221250068359  C 5.37625 15.2235000068359  4.706875 15.5004375068359  3.97493749316406 15.5004375068359  C 2.60993749316406 15.4999999931641  1.50000000683594 14.3900625068359  1.50000000683594 13.0316250068359  C 1.50787500683594 11.542375  2.725 10.3313750136719  4.21381249316406 10.3313749931641  L 6.66818749316406 10.3313749931641  Z M 10.31125 10.3313749931641  L 13.1344375 10.3313749931641  C 14.4241875068359 10.3313749931641  15.4855624931641 11.3804999863281  15.4999999931641 12.6562500068359  C 15.4999999931641 14.2238125  14.2242499931641 15.5000000136719  12.6636874931641 15.4999999931641  C 11.3739374863281 15.4925624863281  10.3182499931641 14.4368749931641  10.31125 13.1545624931641  L 10.31125 10.3313749931641  Z M 10.33225 4.447  C 10.33225 2.83087500683594  11.6460625 1.50874999316406  13.2621874931641 1.50000000683594  C 13.8558068525372 1.49902744151526  14.425205395265 1.73529239700396  14.8437499931641 2.15625000683594  C 15.2664385285215 2.57739683789017  15.5027945547117 3.15032384537531  15.4999999931641 3.74700000683594  C 15.5016964578419 4.51979859593164  15.1975079612225 5.26186754150256  14.6538750068359 5.81112499316406  C 14.1073583166255 6.35741815487764  13.3668554519548 6.66522701632246  12.5941249931641 6.66731250683594  L 10.33225 6.66731250683594  L 10.33225 4.447  Z M 1.50000000683594 4.34374999316406  C 1.50144364477598 2.77498372896143  2.77192370199298 1.50313399046141  4.3406875 1.50000000683594  C 5.61831259247475 1.50935837023056  6.64983147507099 2.5463432847497  6.65243749316406 3.82399999316406  L 6.65243749316406 6.66775  L 3.82443750683594 6.66775  C 2.54155611395759 6.66606344928053  1.50192803730616 5.62663104585185  1.50000000683594 4.34374999316406  Z " fill-rule="nonzero" fill="#02a7f0" stroke="none" transform="matrix(1 0 0 1 21 502 )" />
  </g>
</svg>