<?xml version="1.0" encoding="utf-8"?>
<svg version="1.1" xmlns:xlink="http://www.w3.org/1999/xlink" width="136px" height="136px" xmlns="http://www.w3.org/2000/svg">
  <g transform="matrix(1 0 0 1 -2340 -399 )">
    <path d="M 2408 401  C 2444.96 401  2474 430.04  2474 467  C 2474 503.96  2444.96 533  2408 533  C 2371.04 533  2342 503.96  2342 467  C 2342 430.04  2371.04 401  2408 401  Z " fill-rule="nonzero" fill="#81d3f8" stroke="none" />
    <path d="M 2408 400.5  C 2445.24 400.5  2474.5 429.76  2474.5 467  C 2474.5 504.24  2445.24 533.5  2408 533.5  C 2370.76 533.5  2341.5 504.24  2341.5 467  C 2341.5 429.76  2370.76 400.5  2408 400.5  Z " stroke-width="3" stroke="#ffffff" fill="none" />
  </g>
</svg>