<?xml version="1.0" encoding="utf-8"?>
<svg version="1.1" xmlns:xlink="http://www.w3.org/1999/xlink" width="136px" height="136px" xmlns="http://www.w3.org/2000/svg">
  <g transform="matrix(1 0 0 1 -3093 -399 )">
    <path d="M 3161 401  C 3197.96 401  3227 430.04  3227 467  C 3227 503.96  3197.96 533  3161 533  C 3124.04 533  3095 503.96  3095 467  C 3095 430.04  3124.04 401  3161 401  Z " fill-rule="nonzero" fill="#69e147" stroke="none" />
    <path d="M 3161 400.5  C 3198.24 400.5  3227.5 429.76  3227.5 467  C 3227.5 504.24  3198.24 533.5  3161 533.5  C 3123.76 533.5  3094.5 504.24  3094.5 467  C 3094.5 429.76  3123.76 400.5  3161 400.5  Z " stroke-width="3" stroke="#ffffff" fill="none" />
  </g>
</svg>