<?xml version="1.0" encoding="utf-8"?>
<svg version="1.1" xmlns:xlink="http://www.w3.org/1999/xlink" width="191px" height="191px" xmlns="http://www.w3.org/2000/svg">
  <g transform="matrix(1 0 0 1 -3065 -141 )">
    <path d="M 3160.5 144  C 3212.3 144  3253 184.7  3253 236.5  C 3253 288.3  3212.3 329  3160.5 329  C 3108.7 329  3068 288.3  3068 236.5  C 3068 184.7  3108.7 144  3160.5 144  Z " fill-rule="nonzero" fill="#69e147" stroke="none" />
    <path d="M 3160.5 143  C 3212.86 143  3254 184.14  3254 236.5  C 3254 288.86  3212.86 330  3160.5 330  C 3108.14 330  3067 288.86  3067 236.5  C 3067 184.14  3108.14 143  3160.5 143  Z " stroke-width="4" stroke="#ffffff" fill="none" />
  </g>
</svg>