<?xml version="1.0" encoding="utf-8"?>
<svg version="1.1" xmlns:xlink="http://www.w3.org/1999/xlink" width="72px" height="72px" xmlns="http://www.w3.org/2000/svg">
  <g transform="matrix(1 0 0 1 -293 -404 )">
    <path d="M 329 405  C 348.6 405  364 420.4  364 440  C 364 459.6  348.6 475  329 475  C 309.4 475  294 459.6  294 440  C 294 420.4  309.4 405  329 405  Z " fill-rule="nonzero" fill="#69e147" stroke="none" />
    <path d="M 329 405  C 348.6 405  364 420.4  364 440  C 364 459.6  348.6 475  329 475  C 309.4 475  294 459.6  294 440  C 294 420.4  309.4 405  329 405  Z " stroke-width="2" stroke="#ffffff" fill="none" />
  </g>
</svg>