<?xml version="1.0" encoding="utf-8"?>
<svg version="1.1" xmlns:xlink="http://www.w3.org/1999/xlink" width="8px" height="8px" xmlns="http://www.w3.org/2000/svg">
  <g transform="matrix(1 0 0 1 -979 -288 )">
    <path d="M 6.92529230769231 5.12984615384616  C 6.92529230769231 4.85795212316023  7.14570596931407 4.63753846153846  7.4176 4.63753846153846  C 7.66754256103336 4.63735081619638  7.87796057134092 4.82448313119829  7.90695384615385 5.07273846153846  L 7.90990769230769 5.12984615384616  L 7.90990769230769 6.67913846153846  C 7.90931601164133 7.34234812601558  7.3950221950089 7.89171721131374  6.73329230769231 7.936  L 6.65058461538462 7.93846153846154  L 1.32036923076923 7.93846153846154  C 0.657539034523463 7.93735251669511  0.108749139457561 7.42319812657065  0.0644923076923082 6.76184615384616  L 0.0615384615384613 6.67913846153846  L 0.0615384615384624 5.12984615384615  C 0.0615308012415323 5.12872498182977  0.0615269710595444 5.12760378691563  0.0615269710595444 5.12648258873044  C 0.0615269710595444 4.85458855804451  0.281940632681308 4.63417489642275  0.553834663367236 4.63417489642275  C 0.80492881377014 4.63417489642275  1.01578861446353 4.82314501549164  1.0432 5.07273846153846  L 1.04615384615385 5.12984615384615  L 1.04615384615385 6.67913846153846  C 1.04615384615385 6.816  1.14609230769231 6.92923076923077  1.27606153846154 6.9504  L 1.32036923076923 6.95384615384615  L 6.65058461538461 6.95384615384616  C 6.78509869401074 6.9539595078804  6.89990931002814 6.85665178069324  6.92184615384615 6.72393846153846  L 6.92529230769231 6.67963076923077  L 6.92529230769231 5.12984615384616  Z M 3.52541538461539 0.553846153846154  C 3.52541538461539 0.281952123160225  3.74582904623715 0.0615384615384624  4.01772307692308 0.0615384615384624  C 4.26747778122709 0.0616007046753293  4.47761307654168 0.248669789325979  4.50658461538462 0.496738461538461  L 4.51003076923077 0.553846153846154  L 4.51003076923077 3.29747692307692  L 5.33464615384615 2.47286153846154  C 5.42729818244879 2.3771324776572  5.55482213066061 2.32308608360309  5.68804544501161 2.32308608360309  C 5.95966758166685 2.32308608360309  6.17986082962699 2.54327933156324  6.17986082962699 2.81490146821848  C 6.17986082962699 2.92682996241492  6.14168202879749 3.03541044810034  6.07163076923077 3.12270769230769  L 6.03076923076923 3.16898461538462  L 4.01772307692308 5.18252307692308  L 2.00467692307692 3.16898461538462  C 1.90894786227259 3.07633258678198  1.85490146821849 2.94880863857016  1.85490146821849 2.81558532421917  C 1.85490146821849 2.54396318756393  2.07509471617864 2.32376993960379  2.34671685283388 2.32376993960379  C 2.45864534703031 2.32376993960379  2.56722583271572 2.36194874043329  2.65452307692308 2.432  L 2.7008 2.47286153846154  L 3.52541538461539 3.29747692307692  L 3.52541538461539 0.553846153846154  Z " fill-rule="nonzero" fill="#02a7f0" stroke="none" fill-opacity="0.996078431372549" transform="matrix(1 0 0 1 979 288 )" />
  </g>
</svg>