<?xml version="1.0" encoding="utf-8"?>
<svg version="1.1" xmlns:xlink="http://www.w3.org/1999/xlink" width="9px" height="8px" xmlns="http://www.w3.org/2000/svg">
  <g transform="matrix(1 0 0 1 -673 -207 )">
    <path d="M 8.36398255813954 7.79505263157895  C 8.36398255813954 7.79505263157895  9.523125 4.856  8.45416569767442 2.73852631578947  C 8.49524127906977 2.24536842105263  8.33808139534884 1.54444736842105  7.95228488372093 0.542921052631578  C 7.86121220930232 0.30607894736842  7.55461046511628 0.265368421052631  7.39711046511628 0.463578947368421  C 6.95032848837209 1.02707894736842  6.35975581395349 0.914499999999999  5.38780813953488 0.515947368421052  C 3.763125 -0.149052631578947  2.57093895348837 0.257263157894737  1.88419186046512 0.980368421052631  C -1.06218313953488 2.493  0.737869186046511 7.79505263157895  0.737869186046511 7.79505263157895  C 0.737869186046511 7.79505263157895  0.799482558139535 5.03413157894737  1.81159011627907 3.76642105263158  C 2.3658488372093 3.89486842105263  3.92596220930233 4.10955263157895  4.55018023255814 4.10955263157895  C 5.17468604651163 4.10955263157895  6.80863081395349 3.90323684210526  7.37570930232558 3.76639473684211  C 8.12495930232558 4.57094736842105  8.36398255813954 7.79505263157895  8.36398255813954 7.79505263157895  Z " fill-rule="nonzero" fill="#4f3c30" stroke="none" transform="matrix(1 0 0 1 673 207 )" />
  </g>
</svg>