<?xml version="1.0" encoding="utf-8"?>
<svg version="1.1" xmlns:xlink="http://www.w3.org/1999/xlink" width="17px" height="5px" xmlns="http://www.w3.org/2000/svg">
  <g transform="matrix(1 0 0 1 -670 -222 )">
    <path d="M 0.867621951219512 0.112451923076923  C 0.743801829268293 0.220745192307692  0.621717987804878 0.335360576923077  0.499375 0.448581730769232  C 0.375982325748984 0.588555973139146  0.272246000531166 0.742494961282157  0.190653963414633 0.906706730769229  C -0.584504573170733 2.50151442307692  1.5487362804878 4.15730769230769  1.68349237804878 4.25985576923077  C 2.00699278170698 4.02094051100184  2.31904545242758 3.76898384753313  2.61875152439024 3.50471153846154  L 0.867647865853658 0.11245192307692  Z M 14.5345594512195 0.24783653846154  C 14.5204100609756 0.235528846153849  14.5065716463415 0.222115384615385  14.4923963414634 0.209543269230769  L 14.4912301829268 0.211706730769231  C 14.5053795731707 0.224038461538463  14.5207210365854 0.235504807692308  14.5345594512195 0.24783653846154  Z M 16.935550304878 2.77774038461538  C 16.2228978658537 1.86204326923077  15.4200106707317 1.03223557692308  14.5805579268293 0.28966346153846  C 14.7724676690103 0.468562085569785  14.9288799786324 0.677438845978253  15.0426158536585 0.906706730769229  C 15.7670335365854 2.39620192307692  13.9537088414634 3.93877403846154  13.6013734756098 4.219375  C 13.9316036585366 4.4671875  14.195181402439 4.64112980769231  14.4723643292683 4.84735576923077  C 15.3917378572947 4.26538657535211  16.2205501967896 3.569002792007  16.935550304878 2.77774038461538  Z " fill-rule="nonzero" fill="#ffffff" stroke="none" transform="matrix(1 0 0 1 670 222 )" />
  </g>
</svg>