<?xml version="1.0" encoding="utf-8"?>
<svg version="1.1" xmlns:xlink="http://www.w3.org/1999/xlink" width="12px" height="11px" xmlns="http://www.w3.org/2000/svg">
  <g transform="matrix(1 0 0 1 -43 -194 )">
    <path d="M 4.62706896551724 10.3231764705882  C 4.73362068965517 10.3231764705882  4.82068965517241 10.2414852941176  4.82051724137931 10.1416764705882  L 4.36655172413793 9.71575  L 4.32672413793103 9.75311764705882  C 4.29120689655172 9.78644117647059  4.24586206896552 9.80488235294118  4.19931034482759 9.80876470588236  C 4.17053606845654 9.82436223177665  4.13788658226081 9.83256448376517  4.10465517241379 9.83254411764706  C 4.10431034482759 9.83238235294118  4.10396551724138 9.83254411764706  4.10344827586207 9.83254411764706  L 1.05 10.2497352941176  C 0.987068965517241 10.2623529411765  0.919827586206896 10.2469852941176  0.874137931034483 10.2042794117647  C 0.870689655172414 10.2010441176471  0.867241379310345 10.1976470588235  0.86396551724138 10.1940882352941  C 0.825517241379311 10.1520294117647  0.813103448275863 10.0942794117647  0.825517241379311 10.0400882352941  L 1.27034482758621 7.17426470588235  C 1.27051724137931 7.17394117647059  1.27051724137931 7.17345588235294  1.27051724137931 7.17329411764706  C 1.27051724137931 7.14304411764706  1.27862068965517 7.11457352941177  1.29293103448276 7.0895  C 1.29551724137931 7.04339705882353  1.31551724137931 6.99794117647059  1.35293103448276 6.96283823529412  L 1.39275862068966 6.9254705882353  L 0.941034482758621 6.50164705882353  C 0.834655172413794 6.50164705882353  0.747758620689656 6.58333823529412  0.747758620689656 6.68298529411765  L 0.103620689655172 10.7233823529412  C 0.0984482758620691 10.7560588235294  0.101034482758621 10.7898676470588  0.114827586206897 10.8201176470588  C 0.134655172413793 10.8637941176471  0.172068965517242 10.8987352941176  0.218620689655173 10.9171764705882  C 0.25051724137931 10.9296323529412  0.285862068965517 10.9322205882353  0.319827586206897 10.9275294117647  L 4.62706896551724 10.3231764705882  Z M 11.6496551724138 3.56885294117647  C 11.5691379310345 3.64439705882353  11.4374137931035 3.64439705882353  11.3570689655172 3.56885294117647  L 8.19948275862069 0.606294117647059  C 8.11896551724138 0.53075  8.11896551724138 0.407323529411764  8.19948275862069 0.331779411764706  L 8.39448275862069 0.148823529411765  C 8.475 0.0732794117647059  8.60655172413793 0.0732794117647059  8.68706896551724 0.148823529411765  L 11.8446551724138 3.11138235294118  C 11.9251724137931 3.18692647058824  11.9251724137931 3.31035294117647  11.8446551724138 3.38589705882353  L 11.6496551724138 3.56885294117647  Z " fill-rule="nonzero" fill="#7f7f7f" stroke="none" transform="matrix(1 0 0 1 43 194 )" />
  </g>
</svg>