<?xml version="1.0" encoding="utf-8"?>
<svg version="1.1" xmlns:xlink="http://www.w3.org/1999/xlink" width="15px" height="14px" xmlns="http://www.w3.org/2000/svg">
  <g transform="matrix(1 0 0 1 -123 -192 )">
    <path d="M 14.9512834821429 2.01898148148148  C 14.9514508928571 0.951643518518518  14.0492745535714 0.083287037037037  12.9405133928571 0.083287037037037  L 3.47126116071429 0.083287037037037  C 2.3625 0.083287037037037  1.46032366071429 0.951643518518519  1.46032366071429 2.01914351851852  L 1.46032366071429 3.05164351851852  C 0.658928571428572 3.2037962962963  0.0518973214285718 3.88743055555556  0.0518973214285718 4.70685185185185  L 0.0518973214285718 12.2325  C 0.0518973214285718 13.1634027777778  0.834375000000001 13.9206018518519  1.79598214285714 13.9206018518519  L 9.57137276785714 13.9206018518519  C 10.2231026785714 13.9206018518519  10.7856026785714 13.5686574074074  11.0849330357143 13.0546759259259  L 12.9405133928571 13.0546759259259  C 14.0491071428571 13.0546759259259  14.9512834821429 12.1863194444444  14.9512834821429 11.1189814814815  L 14.9512834821429 2.01898148148148  Z M 10.2751674107143 12.232662037037  C 10.2751674107143 12.6082638888889  9.95959821428571 12.9138657407407  9.57154017857143 12.9138657407407  L 1.79598214285714 12.9138657407407  C 1.40792410714286 12.9138657407407  1.0921875 12.6082638888889  1.0921875 12.232662037037  L 1.0921875 4.70701388888889  C 1.0921875 4.33141203703704  1.40792410714286 4.02581018518518  1.79614955357143 4.02581018518518  L 9.57120535714286 4.02581018518518  C 9.95926339285714 4.02581018518518  10.275 4.33141203703704  10.275 4.70701388888889  L 10.275 12.232662037037  Z M 13.9111607142857 11.1191435185185  C 13.9111607142857 11.6313425925926  13.4758928571429 12.0479398148148  12.9406808035714 12.0479398148148  L 11.3154575892857 12.0479398148148  L 11.3154575892857 4.70701388888889  C 11.3154575892857 3.77611111111111  10.5329799107143 3.01891203703704  9.57137276785714 3.01891203703704  L 2.50044642857143 3.01891203703704  L 2.50044642857143 2.01930555555556  C 2.50044642857143 1.50694444444444  2.93588169642857 1.09034722222222  3.47109375 1.09034722222222  L 12.9403459821429 1.09034722222222  C 13.4755580357143 1.09034722222222  13.9109933035714 1.50710648148148  13.9109933035714 2.01930555555556  L 13.9109933035714 11.1191435185185  Z " fill-rule="nonzero" fill="#7f7f7f" stroke="none" transform="matrix(1 0 0 1 123 192 )" />
  </g>
</svg>