<?xml version="1.0" encoding="utf-8"?>
<svg version="1.1" xmlns:xlink="http://www.w3.org/1999/xlink" width="16px" height="16px" xmlns="http://www.w3.org/2000/svg">
  <g transform="matrix(1 0 0 1 -131 -231 )">
    <path d="M 10.8061538461538 7.16307692307692  L 8.39384615384615 4.20923076923077  C 8.29538461538462 4.11076923076923  8.14769230769231 4.06153846153846  8 4.06153846153846  C 7.85230769230769 4.06153846153846  7.70461538461538 4.11076923076923  7.60615384615385 4.20923076923077  L 5.19384615384615 7.16307692307692  C 4.99692307692308 7.36  4.99692307692308 7.65538461538462  5.19384615384615 7.85230769230769  C 5.39076923076923 8.04923076923077  5.68615384615385 8.04923076923077  5.88307692307692 7.85230769230769  L 7.50769230769231 5.88307692307692  L 7.50769230769231 13.4153846153846  C 7.50769230769231 13.7107692307692  7.70461538461538 13.9076923076923  8 13.9076923076923  C 8.29538461538462 13.9076923076923  8.49230769230769 13.7107692307692  8.49230769230769 13.4153846153846  L 8.49230769230769 5.88307692307692  L 10.1169230769231 7.85230769230769  C 10.3138461538462 8.04923076923077  10.6092307692308 8.04923076923077  10.8061538461538 7.85230769230769  C 11.0030769230769 7.65538461538462  11.0030769230769 7.36  10.8061538461538 7.16307692307692  Z M 12.9230769230769 2.58461538461538  C 12.9230769230769 2.33846153846154  12.7261538461538 2.09230769230769  12.4307692307692 2.09230769230769  L 3.56923076923077 2.09230769230769  C 3.27384615384615 2.09230769230769  3.07692307692308 2.28923076923077  3.07692307692308 2.58461538461538  C 3.07692307692308 2.88  3.27384615384615 3.07692307692308  3.56923076923077 3.07692307692308  L 12.4307692307692 3.07692307692308  C 12.7261538461538 3.07692307692308  12.9230769230769 2.88  12.9230769230769 2.58461538461538  Z M 15.8769230769231 2.09230769230769  C 15.8769230769231 1.00923076923077  14.9907692307692 0.123076923076923  13.9076923076923 0.123076923076923  L 2.09230769230769 0.123076923076923  C 1.00923076923077 0.123076923076923  0.123076923076923 1.00923076923077  0.123076923076923 2.09230769230769  L 0.123076923076923 13.9076923076923  C 0.123076923076923 14.9907692307692  1.00923076923077 15.8769230769231  2.09230769230769 15.8769230769231  L 13.9076923076923 15.8769230769231  C 14.9907692307692 15.8769230769231  15.8769230769231 14.9907692307692  15.8769230769231 13.9076923076923  L 15.8769230769231 2.09230769230769  Z M 14.8923076923077 2.09230769230769  L 14.8923076923077 13.9076923076923  C 14.8923076923077 14.4492307692308  14.4492307692308 14.8923076923077  13.9076923076923 14.8923076923077  L 2.09230769230769 14.8923076923077  C 1.55076923076923 14.8923076923077  1.10769230769231 14.4492307692308  1.10769230769231 13.9076923076923  L 1.10769230769231 2.09230769230769  C 1.10769230769231 1.55076923076923  1.55076923076923 1.10769230769231  2.09230769230769 1.10769230769231  L 13.9076923076923 1.10769230769231  C 14.4492307692308 1.10769230769231  14.8923076923077 1.55076923076923  14.8923076923077 2.09230769230769  Z " fill-rule="nonzero" fill="#2962ff" stroke="none" transform="matrix(1 0 0 1 131 231 )" />
  </g>
</svg>