<?xml version="1.0" encoding="utf-8"?>
<svg version="1.1" xmlns:xlink="http://www.w3.org/1999/xlink" width="16px" height="16px" xmlns="http://www.w3.org/2000/svg">
  <g transform="matrix(1 0 0 1 -320 -231 )">
    <path d="M 14.8294642857143 14.7326315789474  C 14.0848214285714 15.4643859649123  13.0946428571429 15.8671929824561  12.0414285714286 15.8671929824561  L 6.32714285714286 15.8671929824561  C 5.27392857142857 15.8671929824561  4.28375 15.4642105263158  3.53910714285714 14.7326315789474  C 2.79446428571429 14.0010526315789  2.38428571428571 13.0282456140351  2.38428571428571 11.9935087719298  L 2.38428571428571 6.37947368421053  C 2.38428571428571 5.34473684210526  2.79446428571429 4.3719298245614  3.53910714285714 3.64035087719298  C 4.28375 2.90877192982456  5.27392857142857 2.50578947368421  6.32714285714286 2.50578947368421  L 12.0414285714286 2.50578947368421  C 13.0946428571429 2.50578947368421  14.0846428571429 2.90877192982456  14.8294642857143 3.64035087719298  C 15.5741071428571 4.3719298245614  15.9842857142857 5.34473684210526  15.9842857142857 6.37947368421053  L 15.9842857142857 11.9935087719298  C 15.9842857142857 13.0282456140351  15.5741071428571 14.0008771929825  14.8294642857143 14.7326315789474  Z M 12.0414285714286 3.51631578947368  L 6.32714285714286 3.51631578947368  C 4.72017857142857 3.51631578947368  3.41285714285714 4.80070175438596  3.41285714285714 6.37947368421053  L 3.41285714285714 11.9935087719298  C 3.41285714285714 13.5722807017544  4.72017857142857 14.8566666666667  6.32714285714286 14.8566666666667  L 12.0414285714286 14.8566666666667  C 13.6483928571429 14.8566666666667  14.9557142857143 13.5722807017544  14.9557142857143 11.9935087719298  L 14.9557142857143 6.37947368421052  C 14.9557142857143 4.80070175438596  13.6483928571429 3.51631578947368  12.0414285714286 3.51631578947368  Z M 8.41892857142857 12.2589473684211  C 8.31910714285714 12.3536842105263  8.19035714285714 12.400701754386  8.06178571428572 12.400701754386  C 7.92785714285714 12.400701754386  7.79428571428571 12.349649122807  7.69339285714286 12.2480701754386  L 5.00589285714286 9.53912280701754  C 4.80767857142857 9.33929824561404  4.81178571428571 9.01947368421053  5.01517857142857 8.82456140350877  C 5.21857142857143 8.62982456140351  5.54428571428571 8.63385964912281  5.7425 8.83368421052632  L 8.07267857142857 11.1824561403509  L 12.6371428571429 6.85210526315789  C 12.8414285714286 6.65824561403509  13.1669642857143 6.66385964912281  13.3642857142857 6.86456140350877  C 13.5616071428571 7.06526315789474  13.5558928571429 7.38508771929824  13.3516071428571 7.57894736842105  L 8.41892857142857 12.2589473684211  Z M 1.08571428571429 8.98245614035088  C 1.08571428571429 9.26157894736842  0.855535714285715 9.48771929824561  0.571428571428571 9.48771929824561  C 0.287321428571429 9.48771929824561  0.0571428571428572 9.26157894736842  0.0571428571428572 8.98245614035088  L 0.0571428571428572 3.92982456140351  C 0.0571428571428572 2.89508771929825  0.467321428571429 1.92228070175439  1.21196428571429 1.19070175438597  C 1.95660714285714 0.459122807017544  2.94678571428571 0.056140350877193  4 0.056140350877193  L 9.14285714285714 0.056140350877193  C 9.42696428571429 0.056140350877193  9.65714285714286 0.282280701754386  9.65714285714286 0.56140350877193  C 9.65714285714286 0.840526315789474  9.42696428571429 1.06666666666667  9.14285714285714 1.06666666666667  L 4 1.06666666666667  C 2.39303571428571 1.06666666666667  1.08571428571429 2.35105263157895  1.08571428571429 3.92982456140351  L 1.08571428571429 8.98245614035088  Z " fill-rule="nonzero" fill="#2962ff" stroke="none" transform="matrix(1 0 0 1 320 231 )" />
  </g>
</svg>