<?xml version="1.0" encoding="utf-8"?>
<svg version="1.1" xmlns:xlink="http://www.w3.org/1999/xlink" width="15px" height="15px" xmlns="http://www.w3.org/2000/svg">
  <g transform="matrix(1 0 0 1 -233 -231 )">
    <path d="M 0 4.32525669642857  C 0 4.56959263392857  0.196995412844037 4.76842633928571  0.439162844036697 4.76842633928571  L 2.45587155963303 4.76842633928571  C 2.69800458715596 4.76842633928571  2.895 4.56959263392857  2.895 4.32525669642857  C 2.895 4.08087053571429  2.69800458715596 3.88202008928571  2.45587155963303 3.88202008928571  L 0.439162844036697 3.88202008928571  C 0.197012614678899 3.88202008928571  0 4.08087053571429  0 4.32525669642857  Z M 0 7.50917410714286  C 0 7.75352678571429  0.196995412844037 7.95234375  0.439162844036697 7.95234375  L 2.45587155963303 7.95234375  C 2.69800458715596 7.95234375  2.895 7.75352678571429  2.895 7.50917410714286  C 2.895 7.39079799107143  2.84932912844037 7.27948660714286  2.76638188073394 7.19579799107143  C 2.68343463302752 7.11209263392857  2.57315366972477 7.06597098214286  2.45587155963303 7.06597098214286  L 0.439162844036697 7.06597098214286  C 0.197012614678899 7.06597098214286  0 7.2648046875  0 7.50917410714286  Z M 2.45587155963303 11.1244754464286  C 2.69800458715596 11.1244921875  2.895 10.9257421875  2.895 10.6813895089286  C 2.895 10.5629464285714  2.84932912844037 10.4516183035714  2.76636467889908 10.3679464285714  C 2.68345183486239 10.2842410714286  2.57315366972477 10.2380859375  2.45587155963303 10.2380859375  L 0.439162844036697 10.2380859375  C 0.197012614678899 10.2380859375  0 10.4369698660714  0 10.6813895089286  C 0 10.9257254464286  0.197012614678899 11.1244754464286  0.439162844036697 11.1244754464286  L 2.45587155963303 11.1244754464286  Z M 4.30211009174312 11.1311216517857  L 4.24283256880734 11.2711774553571  L 5.22161697247706 11.2711774553571  L 5.25096330275229 11.2172879464286  C 5.70973623853211 10.3758482142857  6.78806766055046 9.76016183035714  7.87266055045871 9.72005022321428  L 7.97858944954128 9.72005022321428  C 8.01856651376147 9.72005022321428  8.05826834862385 9.72005022321428  8.09702408256881 9.72013392857143  C 9.18216743119266 9.76026227678571  10.260498853211 10.3758816964286  10.7193405963303 11.2172879464286  L 10.7487041284404 11.2711941964286  L 11.7275401376147 11.2711941964286  L 11.6682282110092 11.1311216517857  C 11.49 10.7101171875  11.1790080275229 10.2983537946429  10.7689162844037 9.94039620535714  C 10.4461926605505 9.6587109375  10.0638130733945 9.41104352678571  9.6614621559633 9.22287388392857  C 10.057620412844 8.97256138392857  10.3942603211009 8.63499441964285  10.6363933486239 8.24491071428571  C 10.9240940366972 7.78151785714286  11.0761582568807 7.24916852678571  11.0761582568807 6.70546875  C 11.0761582568807 5.04319754464285  9.68657683486239 3.69088727678571  7.97858944954129 3.69088727678571  C 6.27049885321101 3.69088727678571  4.88088302752294 5.04323102678571  4.88088302752294 6.70545200892857  C 4.88088302752294 7.25030691964285  5.03354931192661 7.78361049107143  5.32241972477064 8.24767299107143  C 5.56561926605505 8.63851004464285  5.90366972477064 8.97634486607143  6.30135894495413 9.22642299107142  C 5.90045298165138 9.41492745535714  5.51970756880734 9.66236049107142  5.19851490825688 9.94319196428571  C 4.78978211009174 10.3005301339286  4.47980504587156 10.7113225446429  4.30212729357798 11.1311383928571  Z M 5.78186353211009 6.70545200892857  C 5.78186353211009 5.52661272321429  6.76730504587156 4.56758370535714  7.97857224770642 4.56758370535714  C 9.1897878440367 4.56758370535714  10.1751949541284 5.52661272321429  10.1751949541284 6.70545200892857  C 10.1751949541284 7.88422433035714  9.18980504587156 8.84321986607143  7.97857224770642 8.84321986607143  C 6.76730504587156 8.84321986607143  5.78186353211009 7.88424107142857  5.78186353211009 6.70545200892857  Z M 2.7452752293578 0  L 13.2117832568807 0  C 14.1253383027523 0  14.8685607798165 0.723297991071429  14.8685607798165 1.61231584821429  L 14.8685607798165 13.3875837053571  C 14.8685607798165 14.2767020089286  14.1253383027523 15  13.2117832568807 15  L 2.74524082568807 15  C 1.83168577981651 15  1.08848050458716 14.2767020089286  1.08848050458716 13.3875837053571  L 1.08848050458716 12.1985658482143  L 1.97741972477064 12.1985658482143  L 1.97741972477064 13.2250111607143  C 1.97741972477064 13.8361272321429  2.3093119266055 14.1591127232143  2.93719610091743 14  L 13.0361353211009 14  C 13.664002293578 14.1591127232143  13.9958256880734 13.83609375  14 13.2250111607143  L 14 1.79253348214286  C 13.9958256880734 1.18151785714286  13.6639506880734 0.858549107142857  13.0361353211009 1  L 2.93721330275229 1  C 2.3093119266055 0.858549107142857  1.9774369266055 1.18153459821429  1.9774369266055 1.79253348214286  L 1.9774369266055 2.81912946428571  L 1.08853211009174 2.81912946428571  L 1.08853211009174 1.6123828125  C 1.08853211009174 0.723281249999999  1.83172018348624 1.67410714279377E-05  2.7452752293578 0  Z " fill-rule="nonzero" fill="#2962ff" stroke="none" transform="matrix(1 0 0 1 233 231 )" />
  </g>
</svg>