<?xml version="1.0" encoding="utf-8"?>
<svg version="1.1" xmlns:xlink="http://www.w3.org/1999/xlink" width="14px" height="14px" xmlns="http://www.w3.org/2000/svg">
  <g transform="matrix(1 0 0 1 -131 -314 )">
    <path d="M 138 314  C 141.92 314  145 317.08  145 321  C 145 324.92  141.92 328  138 328  C 134.08 328  131 324.92  131 321  C 131 317.08  134.08 314  138 314  Z " fill-rule="nonzero" fill="#ffffff" stroke="none" />
    <path d="M 138 314.5  C 141.64 314.5  144.5 317.36  144.5 321  C 144.5 324.64  141.64 327.5  138 327.5  C 134.36 327.5  131.5 324.64  131.5 321  C 131.5 317.36  134.36 314.5  138 314.5  Z " stroke-width="1" stroke="#d7d7d7" fill="none" />
  </g>
</svg>