<?xml version="1.0" encoding="utf-8"?>
<svg version="1.1" xmlns:xlink="http://www.w3.org/1999/xlink" width="72px" height="72px" xmlns="http://www.w3.org/2000/svg">
  <g transform="matrix(1 0 0 1 -293 -314 )">
    <path d="M 329 315  C 348.6 315  364 330.4  364 350  C 364 369.6  348.6 385  329 385  C 309.4 385  294 369.6  294 350  C 294 330.4  309.4 315  329 315  Z " fill-rule="nonzero" fill="#69e147" stroke="none" />
    <path d="M 329 315  C 348.6 315  364 330.4  364 350  C 364 369.6  348.6 385  329 385  C 309.4 385  294 369.6  294 350  C 294 330.4  309.4 315  329 315  Z " stroke-width="2" stroke="#ffffff" fill="none" />
  </g>
</svg>