<?xml version="1.0" encoding="utf-8"?>
<svg version="1.1" xmlns:xlink="http://www.w3.org/1999/xlink" width="191px" height="191px" xmlns="http://www.w3.org/2000/svg">
  <g transform="matrix(1 0 0 1 -1329 -51 )">
    <path d="M 1424.5 54  C 1476.3 54  1517 94.7  1517 146.5  C 1517 198.3  1476.3 239  1424.5 239  C 1372.7 239  1332 198.3  1332 146.5  C 1332 94.7  1372.7 54  1424.5 54  Z " fill-rule="nonzero" fill="#69e147" stroke="none" />
    <path d="M 1424.5 53  C 1476.86 53  1518 94.14  1518 146.5  C 1518 198.86  1476.86 240  1424.5 240  C 1372.14 240  1331 198.86  1331 146.5  C 1331 94.14  1372.14 53  1424.5 53  Z " stroke-width="4" stroke="#ffffff" fill="none" />
  </g>
</svg>