<?xml version="1.0" encoding="utf-8"?>
<svg version="1.1" xmlns:xlink="http://www.w3.org/1999/xlink" width="136px" height="136px" xmlns="http://www.w3.org/2000/svg">
  <g transform="matrix(1 0 0 1 -604 -309 )">
    <path d="M 672 312  C 708.4 312  737 340.6  737 377  C 737 413.4  708.4 442  672 442  C 635.6 442  607 413.4  607 377  C 607 340.6  635.6 312  672 312  Z " fill-rule="nonzero" fill="#81d3f8" stroke="none" />
    <path d="M 672 311  C 708.96 311  738 340.04  738 377  C 738 413.96  708.96 443  672 443  C 635.04 443  606 413.96  606 377  C 606 340.04  635.04 311  672 311  Z " stroke-width="4" stroke="#ffffff" fill="none" />
  </g>
</svg>