<?xml version="1.0" encoding="utf-8"?>
<svg version="1.1" xmlns:xlink="http://www.w3.org/1999/xlink" width="136px" height="136px" xmlns="http://www.w3.org/2000/svg">
  <g transform="matrix(1 0 0 1 -1357 -309 )">
    <path d="M 1425 312  C 1461.4 312  1490 340.6  1490 377  C 1490 413.4  1461.4 442  1425 442  C 1388.6 442  1360 413.4  1360 377  C 1360 340.6  1388.6 312  1425 312  Z " fill-rule="nonzero" fill="#69e147" stroke="none" />
    <path d="M 1425 311  C 1461.96 311  1491 340.04  1491 377  C 1491 413.96  1461.96 443  1425 443  C 1388.04 443  1359 413.96  1359 377  C 1359 340.04  1388.04 311  1425 311  Z " stroke-width="4" stroke="#ffffff" fill="none" />
  </g>
</svg>