<?xml version="1.0" encoding="utf-8"?>
<svg version="1.1" xmlns:xlink="http://www.w3.org/1999/xlink" width="30px" height="30px" xmlns="http://www.w3.org/2000/svg">
  <g transform="matrix(1 0 0 1 -24 -380 )">
    <path d="M 39 380  C 47.4 380  54 386.6  54 395  C 54 403.4  47.4 410  39 410  C 30.6 410  24 403.4  24 395  C 24 386.6  30.6 380  39 380  Z " fill-rule="nonzero" fill="#ffffff" stroke="none" />
    <path d="M 39 380.5  C 47.12 380.5  53.5 386.88  53.5 395  C 53.5 403.12  47.12 409.5  39 409.5  C 30.88 409.5  24.5 403.12  24.5 395  C 24.5 386.88  30.88 380.5  39 380.5  Z " stroke-width="1" stroke="#797979" fill="none" />
  </g>
</svg>