<?xml version="1.0" encoding="utf-8"?>
<svg version="1.1" xmlns:xlink="http://www.w3.org/1999/xlink" width="48px" height="30px" xmlns="http://www.w3.org/2000/svg">
  <g transform="matrix(1 0 0 1 -145 -70 )">
    <path d="M 146 85  A 14 14 0 0 1 160 71 L 178 71  A 14 14 0 0 1 192 85 A 14 14 0 0 1 178 99 L 160 99  A 14 14 0 0 1 146 85 Z " fill-rule="nonzero" fill="#f2f2f2" stroke="none" />
    <path d="M 145.5 85  A 14.5 14.5 0 0 1 160 70.5 L 178 70.5  A 14.5 14.5 0 0 1 192.5 85 A 14.5 14.5 0 0 1 178 99.5 L 160 99.5  A 14.5 14.5 0 0 1 145.5 85 Z " stroke-width="1" stroke-dasharray="9,4" stroke="#797979" fill="none" stroke-dashoffset="0.5" />
  </g>
</svg>