<?xml version="1.0" encoding="utf-8"?>
<svg version="1.1" xmlns:xlink="http://www.w3.org/1999/xlink" width="17px" height="17px" xmlns="http://www.w3.org/2000/svg">
  <g transform="matrix(1 0 0 1 -1103 -253 )">
    <path d="M 5.40082305401235 12.4526749058642  L 2.04279836265432 15.8106995972222  L 4.61728395061728 15.8106995972222  L 4.61728395061728 16.9300411435185  L 0.139917686728395 16.9300411435185  L 0.139917686728395 12.4526749058642  L 1.25925925925926 12.4526749058642  L 1.25925925925926 15.0271604938272  L 4.61728395061728 11.6691358024691  L 5.40082305401235 12.4526749058642  Z M 12.4526749058642 15.8106995972222  L 15.0271604938272 15.8106995972222  L 11.6691358024691 12.4526749058642  L 12.4526749058642 11.6691358024691  L 15.8106995972222 15.0271604938272  L 15.8106995972222 12.4526749058642  L 16.9300411435185 12.4526749058642  L 16.9300411435185 16.9300411435185  L 12.4526749058642 16.9300411435185  L 12.4526749058642 15.8106995972222  Z M 4.61728395061728 1.25925925925926  L 2.04279836265432 1.25925925925926  L 5.40082305401235 4.61728395061728  L 4.61728395061728 5.40082305401235  L 1.25925925925926 2.04279836265432  L 1.25925925925926 4.61728395061728  L 0.139917686728395 4.61728395061728  L 0.139917686728395 0.139917686728395  L 4.61728395061728 0.139917686728395  L 4.61728395061728 1.25925925925926  Z M 11.6691358024691 4.61728395061728  L 15.0271604938272 1.25925925925926  L 12.4526749058642 1.25925925925926  L 12.4526749058642 0.139917686728395  L 16.9300411435185 0.139917686728395  L 16.9300411435185 4.61728395061728  L 15.8106995972222 4.61728395061728  L 15.8106995972222 2.04279836265432  L 12.4526749058642 5.40082305401235  L 11.6691358024691 4.61728395061728  Z " fill-rule="nonzero" fill="#444444" stroke="none" transform="matrix(1 0 0 1 1103 253 )" />
  </g>
</svg>