<?xml version="1.0" encoding="utf-8"?>
<svg version="1.1" xmlns:xlink="http://www.w3.org/1999/xlink" width="40px" height="40px" xmlns="http://www.w3.org/2000/svg">
  <g transform="matrix(1 0 0 1 -504 -81 )">
    <path d="M 2.93333333333333 28  L 37.0666666666667 28  C 37.0666666666667 28.5333333333333  37.0666666666667 28.5333333333333  37.0666666666667 28.5333333333333  C 38.6376099550743 28.5333333333333  39.9111111111111 29.8068344893702  39.9111111111111 31.3777777777778  L 39.9111111111111 37.0666666666667  C 39.9111111111111 38.6376099550743  38.6376099550743 39.9111111111111  37.0666666666667 40  L 2.93333333333333 40  C 1.36239004492574 39.9111111111111  0.0888888888888902 38.6376099550743  0.0888888888888902 37.0666666666667  L 0.0888888888888902 31.3777777777778  C 0.0888888888888917 31.8518518518519  0.0888888888888902 30.9037037037037  0.0888888888888902 31.3777777777778  C 0.0888888888888902 29.8068344893702  1.36239004492574 28.5333333333333  2.93333333333333 28.5333333333333  C 2.93333333333333 28.5333333333333  2.93333333333333 28.5333333333333  2.93333333333333 28  Z M 35.6444444444444 34.2222222222222  C 35.6444444444444 34.2222222222222  35.6444444444444 34.2222222222222  35.6444444444444 34  L 24.2666666666667 34  C 24.2657939451552 34.2222206156274  24.2649212223459 34.2222198123295  24.2640484993556 34.2222198123295  C 23.4785768551518 34.2222198123295  22.8418262771334 34.858970390348  22.8418262771334 35.6444420345518  C 22.8418262771334 36.3321782934332  23.3339330225886 36.9213846374284  24.0106666666667 37.0439111111111  L 24.2666666666667 37  L 35.6444444444444 37  C 35.6444444444444 37.0666666666667  35.6444444444444 37.0666666666667  35.6444444444444 37.0666666666667  C 36.4299160886482 37.0666666666667  37.0666666666667 36.4299160886482  37.0666666666667 35.6444444444444  C 37.0666666666667 34.8589728002407  36.4299160886482 34.2222222222222  35.6444444444444 34.2222222222222  Z M 2.93333333333333 15  L 37.0666666666667 15  C 38.6376099550743 14.3111111111111  39.9111111111111 15.584612267148  39.9111111111111 17.1555555555556  L 39.9111111111111 22.8444444444444  C 39.9111111111111 24.415387732852  38.6376099550743 25.6888888888889  37.0666666666667 25  L 2.93333333333333 25  C 1.36239004492574 25.6888888888889  0.0888888888888902 24.415387732852  0.0888888888888902 22.8444444444444  L 0.0888888888888902 17.1555555555556  C 0.0888888888888902 15.584612267148  1.36239004492574 14.3111111111111  2.93333333333333 15  Z M 7.2 20  L 4.35555555555556 20  C 4.35468283404408 19.9999983934052  4.3538101112348 19.9999975901073  4.35293738824453 19.9999975901073  C 3.56746574404073 19.9999975901073  2.93071516602231 20.6367481681257  2.93071516602231 21.4222198123295  C 2.93071516602231 22.109956071211  3.42282191147747 22.6991624152062  4.09955555555556 22.8216888888889  L 4.35555555555556 22.8444444444444  L 7.2 22.8444444444444  C 7.9854716442038 22.8444444444444  8.62222222222222 22.207693866426  8.62222222222222 21.4222222222222  C 8.62222222222222 20.6367505780184  7.9854716442038 20  7.2 20  Z M 21.4222222222222 20  L 12.8888888888889 20  C 12.8880161673774 19.9999983934052  12.8871434445681 19.9999975901073  12.8862707215779 19.9999975901073  C 12.1007990773741 19.9999975901073  11.4640484993556 20.6367481681257  11.4640484993556 21.4222198123295  C 11.4640484993556 22.109956071211  11.9561552448108 22.6991624152062  12.6328888888889 22.8216888888889  L 12.8888888888889 22.8444444444444  L 21.4222222222222 22.8444444444444  C 22.207693866426 22.8444444444444  22.8444444444444 22.207693866426  22.8444444444444 21.4222222222222  C 22.8444444444444 20.6367505780184  22.207693866426 20  21.4222222222222 20  Z M 2.93333333333333 0  L 37.0666666666667 0  C 38.6376099550743 0.0888888888888902  39.9111111111111 1.36239004492574  39.9111111111111 2.93333333333333  L 39.9111111111111 8.62222222222222  C 39.9111111111111 10.1931655106298  38.6376099550743 11.4666666666667  37.0666666666667 12  L 2.93333333333333 12  C 1.36239004492574 11.4666666666667  0.0888888888888902 10.1931655106298  0.0888888888888902 8.62222222222222  L 0.0888888888888902 2.93333333333333  C 0.0888888888888902 1.36239004492574  1.36239004492574 0.0888888888888902  2.93333333333333 0  Z M 4.35555555555556 5.77777777777778  C 3.57008391135176 5.77777777777778  2.93333333333333 6.41452835579621  2.93333333333333 7.2  C 2.93333333333333 7.9854716442038  3.57008391135176 8.62222222222222  4.35555555555556 8.62222222222222  C 5.14102719975935 8.62222222222222  5.77777777777778 7.9854716442038  5.77777777777778 7.2  C 5.77777777777778 6.41452835579621  5.14102719975935 5.77777777777778  4.35555555555556 5.77777777777778  Z M 10.0444444444444 5.77777777777778  C 9.25897280024065 5.77777777777778  8.62222222222222 6.41452835579621  8.62222222222222 7.2  C 8.62222222222222 7.9854716442038  9.25897280024065 8.62222222222222  10.0444444444444 8.62222222222222  C 10.8299160886482 8.62222222222222  11.4666666666667 7.9854716442038  11.4666666666667 7.2  C 11.4666666666667 6.41452835579621  10.8299160886482 5.77777777777778  10.0444444444444 5.77777777777778  Z " fill-rule="nonzero" fill="#02a7f0" stroke="none" transform="matrix(1 0 0 1 504 81 )" />
  </g>
</svg>