<?xml version="1.0" encoding="utf-8"?>
<svg version="1.1" xmlns:xlink="http://www.w3.org/1999/xlink" width="133px" height="133px" xmlns="http://www.w3.org/2000/svg">
  <defs>
    <filter x="903px" y="842px" width="133px" height="133px" filterUnits="userSpaceOnUse" id="filter744">
      <feOffset dx="0" dy="0" in="SourceAlpha" result="shadowOffsetInner" />
      <feGaussianBlur stdDeviation="5.5" in="shadowOffsetInner" result="shadowGaussian" />
      <feComposite in2="shadowGaussian" operator="atop" in="SourceAlpha" result="shadowComposite" />
      <feColorMatrix type="matrix" values="0 0 0 0 0.333333333333333  0 0 0 0 0.333333333333333  0 0 0 0 0.333333333333333  0 0 0 0.349019607843137 0  " in="shadowComposite" />
    </filter>
    <g id="widget745">
      <path d="M 969.5 853  C 1000.58 853  1025 877.42  1025 908.5  C 1025 939.58  1000.58 964  969.5 964  C 938.42 964  914 939.58  914 908.5  C 914 877.42  938.42 853  969.5 853  Z " fill-rule="nonzero" fill="#81d3f8" stroke="none" />
      <path d="M 969.5 853.5  C 1000.3 853.5  1024.5 877.7  1024.5 908.5  C 1024.5 939.3  1000.3 963.5  969.5 963.5  C 938.7 963.5  914.5 939.3  914.5 908.5  C 914.5 877.7  938.7 853.5  969.5 853.5  Z " stroke-width="1" stroke="#ffffff" fill="none" />
    </g>
  </defs>
  <g transform="matrix(1 0 0 1 -903 -842 )">
    <use xlink:href="#widget745" filter="url(#filter744)" />
    <use xlink:href="#widget745" />
  </g>
</svg>