<?xml version="1.0" encoding="utf-8"?>
<svg version="1.1" xmlns:xlink="http://www.w3.org/1999/xlink" width="17px" height="17px" xmlns="http://www.w3.org/2000/svg">
  <g transform="matrix(1 0 0 1 -1103 -118 )">
    <path d="M 16.5981557894737 0.401844210526315  C 16.9334733280838 0.737263030328867  16.9334733280838 1.28097696967113  16.5981557894737 1.61639578947368  L 9.71455157894737 8.5  L 16.5981557894737 15.3841768421053  C 16.7657386327399 15.5460337678935  16.8603822903932 15.7690232755777  16.8603822903932 16.0020075535511  C 16.8603822903932 16.4763910860374  16.4758184544584 16.8609549219722  16.0014349219722 16.8609549219722  C 15.7684506439988 16.8609549219722  15.5454611363145 16.7663112643188  15.3836042105263 16.5987284210526  L 8.5 9.71455157894737  L 1.61696842105263 16.5981557894737  C 1.45585927154885 16.7593408980296  1.23730277753033 16.8499001372684  1.00940631578947 16.8499001372684  C 0.534982594178561 16.8499001372684  0.150386178521034 16.4653037216109  0.150386178521034 15.99088  C 0.150386178521034 15.7631238490808  0.24083425237007 15.5446900809683  0.401844210526316 15.3836042105263  L 7.28487578947369 8.5  L 0.401844210526316 1.61696842105263  C 0.240659101970439 1.45585927154886  0.150099862731561 1.23730277753033  0.150099862731561 1.00940631578947  C 0.150099862731561 0.53498259417856  0.534696278389087 0.150386178521034  1.00912 0.150386178521034  C 1.23687615091923 0.150386178521034  1.45530991903165 0.24083425237007  1.61639578947369 0.401844210526316  L 8.5 7.28487578947369  L 15.3841768421053 0.401844210526316  C 15.7195956619078 0.0665266719161932  16.2633096012501 0.0665266719161932  16.5987284210526 0.401844210526316  Z " fill-rule="nonzero" fill="#131415" stroke="none" transform="matrix(1 0 0 1 1103 118 )" />
  </g>
</svg>