<?xml version="1.0" encoding="utf-8"?>
<svg version="1.1" xmlns:xlink="http://www.w3.org/1999/xlink" width="12px" height="12px" viewBox="586 265  12 12" xmlns="http://www.w3.org/2000/svg">
  <path d="M 592 265  C 595.36 265  598 267.64  598 271  C 598 274.36  595.36 277  592 277  C 588.64 277  586 274.36  586 271  C 586 267.64  588.64 265  592 265  Z " fill-rule="nonzero" fill="#f0f0f0" stroke="none" />
  <path d="M 592 265.5  C 595.08 265.5  597.5 267.92  597.5 271  C 597.5 274.08  595.08 276.5  592 276.5  C 588.92 276.5  586.5 274.08  586.5 271  C 586.5 267.92  588.92 265.5  592 265.5  Z " stroke-width="1" stroke="#797979" fill="none" />
  <path d="M 592 274  C 590.32 274  589 272.68  589 271  C 589 269.32  590.32 268  592 268  C 593.68 268  595 269.32  595 271  C 595 272.68  593.68 274  592 274  " fill-rule="nonzero" fill="#797979" stroke="none" />
</svg>