<?xml version="1.0" encoding="utf-8"?>
<svg version="1.1" xmlns:xlink="http://www.w3.org/1999/xlink" width="12px" height="12px" viewBox="673 265  12 12" xmlns="http://www.w3.org/2000/svg">
  <path d="M 679 265  C 682.36 265  685 267.64  685 271  C 685 274.36  682.36 277  679 277  C 675.64 277  673 274.36  673 271  C 673 267.64  675.64 265  679 265  Z " fill-rule="nonzero" fill="#ffffff" stroke="none" />
  <path d="M 679 265.5  C 682.08 265.5  684.5 267.92  684.5 271  C 684.5 274.08  682.08 276.5  679 276.5  C 675.92 276.5  673.5 274.08  673.5 271  C 673.5 267.92  675.92 265.5  679 265.5  Z " stroke-width="1" stroke="#797979" fill="none" />
  <path d="M 679 274  C 677.32 274  676 272.68  676 271  C 676 269.32  677.32 268  679 268  C 680.68 268  682 269.32  682 271  C 682 272.68  680.68 274  679 274  " fill-rule="nonzero" fill="#797979" stroke="none" />
</svg>