<?xml version="1.0" encoding="utf-8"?>
<svg version="1.1" xmlns:xlink="http://www.w3.org/1999/xlink" width="12px" height="12px" viewBox="499 265  12 12" xmlns="http://www.w3.org/2000/svg">
  <path d="M 505 265  C 508.36 265  511 267.64  511 271  C 511 274.36  508.36 277  505 277  C 501.64 277  499 274.36  499 271  C 499 267.64  501.64 265  505 265  Z " fill-rule="nonzero" fill="#f0f0f0" stroke="none" />
  <path d="M 505 265.5  C 508.08 265.5  510.5 267.92  510.5 271  C 510.5 274.08  508.08 276.5  505 276.5  C 501.92 276.5  499.5 274.08  499.5 271  C 499.5 267.92  501.92 265.5  505 265.5  Z " stroke-width="1" stroke="#797979" fill="none" />
  <path d="M 505 274  C 503.32 274  502 272.68  502 271  C 502 269.32  503.32 268  505 268  C 506.68 268  508 269.32  508 271  C 508 272.68  506.68 274  505 274  " fill-rule="nonzero" fill="#797979" stroke="none" />
</svg>