<?xml version="1.0" encoding="utf-8"?>
<svg version="1.1" xmlns:xlink="http://www.w3.org/1999/xlink" width="22px" height="21px" xmlns="http://www.w3.org/2000/svg">
  <g transform="matrix(1 0 0 1 -1776 -1644 )">
    <path d="M 21.0874391431353 10.5  C 21.0874391431353 4.7183135345667  16.3811957156767 0.0306718597857836  10.5765660499838 0.0306718597857836  C 4.77193638429081 0.0306718597857836  0.0656929568321973 4.7183135345667  0.0656929568321973 10.5  C 0.0656929568321973 16.2816864654333  4.77193638429081 20.9693281402142  10.5765660499838 20.9693281402142  C 16.3811957156767 20.9693281402142  21.0874391431353 16.2816864654333  21.0874391431353 10.5  Z M 15.634923726063 10.5  C 15.634923726063 10.6805959104187  15.5613476144109 10.8441791626095  15.443100292113 10.9632677702045  C 15.3235391106784 11.0810477117819  15.1593067185979 11.1543330087634  14.977994157741 11.1543330087634  L 6.17513794222655 11.1543330087634  C 5.81251282051282 11.1543330087634  5.51820837390458 10.8611918208374  5.51820837390458 10.5  C 5.51820837390458 10.3194040895813  5.59178448555664 10.1558208373905  5.71003180785459 10.0367322297955  C 5.82959298928919 9.91895228821811  5.99382538136969 9.84566699123661  6.17513794222655 9.84566699123661  L 14.977994157741 9.84566699123661  C 15.3406192794547 9.84566699123661  15.634923726063 10.1388081791626  15.634923726063 10.5  Z " fill-rule="nonzero" fill="#ec808d" stroke="none" transform="matrix(1 0 0 1 1776 1644 )" />
  </g>
</svg>