<?xml version="1.0" encoding="utf-8"?>
<svg version="1.1" xmlns:xlink="http://www.w3.org/1999/xlink" width="22px" height="21px" xmlns="http://www.w3.org/2000/svg">
  <g transform="matrix(1 0 0 1 -2244 -1644 )">
    <path d="M 14.3921959918478 6.46031759510869  L 10.9520805027174 9.63091457201087  L 7.6305027173913 6.34716796875  C 7.36820652173913 6.08957201086957  6.939453125 6.08475713315217  6.66959069293478 6.33513077445652  C 6.53844259510869 6.45309527853261  6.46278023097826 6.61680112092391  6.46025815217391 6.79013671875  C 6.45521399456522 6.96347231657609  6.52583220108696 7.12958559782609  6.6494140625 7.25236497961956  L 9.97099184782608 10.5361115828804  L 6.53087635869565 13.7067085597826  C 6.26101392663043 13.957082201087  6.25596976902174 14.3663468070652  6.51826596467391 14.6239427649457  C 6.64184782608695 14.7491295855978  6.81334918478261 14.8213527513587  6.99493885869565 14.8237601902174  C 7.17652853260869 14.8285750679348  7.3505519701087 14.7611667798913  7.47917798913043 14.6432022758152  L 10.9192934782609 11.472605298913  L 14.240871263587 14.7563519021739  C 14.5031674592391 15.0139478600544  14.9319208559783 15.0187627377717  15.2017832880435 14.7683890964674  C 15.3329313858696 14.6504245923913  15.40859375 14.48671875  15.4111158288043 14.3133831521739  C 15.416159986413 14.1400475543478  15.3455417798913 13.9739342730978  15.2219599184783 13.8511548913043  L 11.9003821331522 10.5674082880435  L 15.3404976222826 7.3968113111413  C 15.6103600543478 7.14643766983696  15.6154042119565 6.7371730638587  15.3531080163043 6.47957710597826  C 15.2295261548913 6.35439028532609  15.0580247961957 6.28216711956522  14.8764351222826 6.27975968070652  C 14.6948454483696 6.27494480298913  14.5208220108696 6.34235309103261  14.3921959918478 6.46031759510869  Z M 18.1223505434783 17.5104619565217  C 14.0542374320652 21.2588442595109  7.57501698369565 21.1529169497283  3.64561820652174 17.2697180706522  C -0.281258491847826 13.3865191915761  -0.167764945652173 7.20180876358696  3.89782608695652 3.45101902173913  C 7.96593919836957 -0.297363281249999  14.4451596467391 -0.189028532608694  18.374558423913 3.6917629076087  C 22.3014351222826 7.57496178668478  22.1904636548913 13.7596722146739  18.1223505434783 17.5104619565217  Z " fill-rule="nonzero" fill="#aaaaaa" stroke="none" transform="matrix(1 0 0 1 2244 1644 )" />
  </g>
</svg>