<?xml version="1.0" encoding="utf-8"?>
<svg version="1.1" xmlns:xlink="http://www.w3.org/1999/xlink" width="22px" height="22px" xmlns="http://www.w3.org/2000/svg">
  <g transform="matrix(1 0 0 1 -1749 -1644 )">
    <path d="M 21.4014811197917 10.9767252604167  C 21.4014811197917 16.7069661458333  16.7558430989583 21.354931640625  11.0232747395833 21.354931640625  C 5.29303385416667 21.354931640625  0.645068359375 16.7069661458333  0.645068359375 10.9767252604167  C 0.645068359375 5.24415690104167  5.29303385416667 0.598518880208333  11.0232747395833 0.598518880208333  C 16.753515625 0.598518880208333  21.4014811197917 5.24415690104167  21.4014811197917 10.9767252604167  Z M 6.86640625 13.5229817708333  L 5.658447265625 16.718603515625  L 8.82381184895833 15.4803873697917  L 6.86640625 13.5229817708333  Z M 13.716162109375 6.67555338541667  L 7.35517578125 13.0342122395833  L 9.31258138020833 14.9916178385417  L 15.6735677083333 8.632958984375  L 13.716162109375 6.67555338541667  Z M 17.3842610677083 6.91993815104167  L 15.42685546875 4.96253255208334  L 14.2026041666667 6.18678385416667  L 16.160009765625 8.144189453125  L 17.3842610677083 6.91993815104167  Z " fill-rule="nonzero" fill="#facd91" stroke="none" transform="matrix(1 0 0 1 1749 1644 )" />
  </g>
</svg>