<?xml version="1.0" encoding="utf-8"?>
<svg version="1.1" xmlns:xlink="http://www.w3.org/1999/xlink" width="28px" height="28px" xmlns="http://www.w3.org/2000/svg">
  <defs>
    <linearGradient gradientUnits="userSpaceOnUse" x1="14" y1="0" x2="14" y2="28" id="LinearGradient122">
      <stop id="Stop123" stop-color="#02a7f0" offset="0" />
      <stop id="Stop124" stop-color="#2962ff" offset="1" />
    </linearGradient>
  </defs>
  <g transform="matrix(1 0 0 1 -1845 -17 )">
    <path d="M 26.0130208333333 10.1536458333333  L 23.3880208333333 7.52864583333333  L 16.9166666666667 14  L 23.3880208333333 20.4713541666667  L 26.0130208333333 17.8463541666667  C 26.3654513888889 17.4696180555556  26.7907986111111 17.3845486111111  27.2890625 17.5911458333333  C 27.7630208333333 17.7977430555556  28 18.15625  28 18.6666666666667  L 28 26.8333333333333  C 28 27.1493055555556  27.8845486111111 27.4227430555556  27.6536458333333 27.6536458333333  C 27.4227430555556 27.8845486111111  27.1493055555556 28  26.8333333333333 28  L 18.6666666666667 28  C 18.15625 28  17.7977430555556 27.7569444444444  17.5911458333333 27.2708333333333  C 17.3845486111111 26.796875  17.4696180555556 26.3776041666667  17.8463541666667 26.0130208333333  L 20.4713541666667 23.3880208333333  L 14 16.9166666666667  L 7.52864583333333 23.3880208333333  L 10.1536458333333 26.0130208333333  C 10.5303819444444 26.3776041666667  10.6154513888889 26.796875  10.4088541666667 27.2708333333333  C 10.2022569444444 27.7569444444444  9.84375 28  9.33333333333333 28  L 1.16666666666667 28  C 0.850694444444445 28  0.577256944444444 27.8845486111111  0.346354166666667 27.6536458333333  C 0.115451388888889 27.4227430555556  0 27.1493055555556  0 26.8333333333333  L 0 18.6666666666667  C 0 18.15625  0.243055555555556 17.7977430555556  0.729166666666667 17.5911458333333  C 1.203125 17.3845486111111  1.62239583333333 17.4696180555556  1.98697916666667 17.8463541666667  L 4.61197916666667 20.4713541666667  L 11.0833333333333 14  L 4.61197916666667 7.52864583333333  L 1.98697916666667 10.1536458333333  C 1.75607638888889 10.3845486111111  1.48263888888889 10.5  1.16666666666667 10.5  C 1.02083333333333 10.5  0.875 10.4696180555556  0.729166666666667 10.4088541666667  C 0.243055555555556 10.2022569444444  0 9.84375  0 9.33333333333333  L 0 1.16666666666667  C 0 0.850694444444441  0.115451388888889 0.577256944444441  0.346354166666667 0.346354166666666  C 0.577256944444444 0.115451388888888  0.850694444444445 0  1.16666666666667 0  L 9.33333333333333 0  C 9.84375 0  10.2022569444444 0.243055555555553  10.4088541666667 0.729166666666666  C 10.6154513888889 1.203125  10.5303819444444 1.62239583333333  10.1536458333333 1.98697916666667  L 7.52864583333333 4.61197916666667  L 14 11.0833333333333  L 20.4713541666667 4.61197916666667  L 17.8463541666667 1.98697916666667  C 17.4696180555556 1.62239583333333  17.3845486111111 1.203125  17.5911458333333 0.729166666666666  C 17.7977430555556 0.243055555555553  18.15625 0  18.6666666666667 0  L 26.8333333333333 0  C 27.1493055555556 0  27.4227430555556 0.115451388888888  27.6536458333333 0.346354166666666  C 27.8845486111111 0.577256944444441  28 0.850694444444441  28 1.16666666666667  L 28 9.33333333333333  C 28 9.84375  27.7630208333333 10.2022569444444  27.2890625 10.4088541666667  C 27.1310763888889 10.4696180555556  26.9791666666667 10.5  26.8333333333333 10.5  C 26.5173611111111 10.5  26.2439236111111 10.3845486111111  26.0130208333333 10.1536458333333  Z " fill-rule="nonzero" fill="url(#LinearGradient122)" stroke="none" transform="matrix(1 0 0 1 1845 17 )" />
  </g>
</svg>