<?xml version="1.0" encoding="utf-8"?>
<svg version="1.1" xmlns:xlink="http://www.w3.org/1999/xlink" width="14px" height="14px" xmlns="http://www.w3.org/2000/svg">
  <g transform="matrix(1 0 0 1 -891 -171 )">
    <path d="M 13.2286192639147 0.850881621383861  C 13.4964685705182 1.13973871392319  13.7039204797271 1.44172567010658  13.8509749761462 1.75684244374894  C 13.8929905480178 1.85137749072351  13.9271282027294 1.96166837714995  13.9533879402808 2.08771510302825  C 13.9796476778323 2.21376182890656  13.992777546608 2.3450605064005  13.992777546608 2.48161113551007  C 13.992777546608 2.61816176461964  13.9665178090566 2.75471238859753  13.9139983339536 2.89126300744375  C 13.8614788588507 3.02781362628997  13.7774477048441 3.15911230378391  13.6619048719337 3.28515903992556  C 13.5358581460554 3.41120576580387  13.4229412838211 3.52149665223031  13.3231542852309 3.61603169920487  C 13.2233672866407 3.71056674617944  13.1367101619579 3.79459790018609  13.0631829111825 3.86812516122483  C 12.9791517571759 3.95215631523149  12.9003725496532 4.02568357627023  12.8268452886144 4.08870694434106  L 9.88050300321435 1.14236465894096  C 10.0065497290927 1.02682182603056  10.1562302218463 0.88764523137653  10.3295444814752 0.724834874978853  C 10.5028587411042 0.562024518581177  10.6472872873738 0.433351816895055  10.7628301202842 0.338816769920487  C 10.9098846423617 0.223273937010094  11.0621911057915 0.141868758811256  11.2197495105735 0.0946012353239725  C 11.3773079153556 0.0473337118366889  11.5322403545931 0.026325925900863  11.6845468282862 0.0315778775164949  C 11.8368533019794 0.0368298291321267  11.9839078189252 0.0604635908757686  12.1257103791237 0.10247916274742  C 12.2675129393222 0.144494734619072  12.3909336945243 0.191762258106356  12.4959726447302 0.244281733209271  C 12.716554417583 0.359824566119664  12.9607699573112 0.562024528844527  13.2286192639147 0.850881621383861  Z M 1.23842411706987 9.84746687210286  C 1.31720331946089 9.72667209784018  1.43012018169515 9.5927474496701  1.57717473456268 9.44569292759262  C 1.64019810263351 9.3826695595218  1.78725261957932 9.23298906676817  2.0183382854001 8.99665144933175  C 2.24942395122089 8.76031383189534  2.53828103862855 8.46883076867986  2.88490954762308 8.12220225968533  L 4.03508595076975 6.97202585653866  L 5.31130908492641 5.695802722382  L 8.69881493655896 2.30829687074945  L 11.6451572219591 5.27039501099645  L 8.25765137032651 8.657900862629  L 6.99718407562172 9.93412399678565  C 6.5770283158518 10.3437758635877  6.19888812795353 10.7192900756781  5.86276351192692 11.060666633057  C 5.5266388959003 11.4020431904359  5.24828570146056 11.6830223555518  5.02770392860768 11.9036041284047  C 4.80712215575481 12.1241859012575  4.67582347826087 12.2502326322675  4.63380789612587 12.2817443214346  C 4.52876895618339 12.3762793684092  4.40797417165736 12.4760663618677  4.27142354254779 12.5811053018102  C 4.13487291343822 12.6861442417527  3.99307034297637 12.7701753957593  3.84601583116224 12.8331987638301  C 3.69896130908476 12.9067260248689  3.48363148271584 12.9960091253595  3.20002635205549 13.101048065302  C 2.91642122139514 13.2060870052445  2.61968621169571 13.3084999745108  2.3098213229572 13.408286973101  C 1.99995643421869 13.5080739716912  1.70584740032707 13.594731096374  1.42749422128236 13.6682583471494  C 1.14914104223764 13.7417855979248  0.941689133028817 13.7890531214121  0.805138493655896 13.8100609176112  C 0.521533352732194 13.841572596515  0.33246325878306 13.7995570195116  0.237928211808492 13.6840141866013  C 0.143393164833925 13.5684713536909  0.117133427282468 13.3741493132578  0.159148999154119 13.101048065302  C 0.180156785089945 12.9539935432245  0.230050284385045 12.7412896875317  0.308829497039418 12.4629364982237  C 0.387608709693791 12.1845833089156  0.471639863700446 11.8957262215079  0.560922959059381 11.5963652360007  C 0.650206054418316 11.2970042504934  0.736863179101111 11.0212770318615  0.820894333107765 10.7691835801049  C 0.904925487114419 10.5170901283483  0.973200796537529 10.343775873851  1.02572026137709 10.2492408166131  C 1.08874362944792 10.1021862945356  1.15964491467885 9.96826164636553  1.23842411706987 9.84746687210286  Z " fill-rule="nonzero" fill="#ffffff" stroke="none" transform="matrix(1 0 0 1 891 171 )" />
  </g>
</svg>