<?xml version="1.0" encoding="utf-8"?>
<svg version="1.1" xmlns:xlink="http://www.w3.org/1999/xlink" width="194px" height="97px" xmlns="http://www.w3.org/2000/svg">
  <g transform="matrix(1 0 0 1 -36 -264 )">
    <path d="M 37.5 275  A 9.5 9.5 0 0 1 47 265.5 L 219 265.5  A 9.5 9.5 0 0 1 228.5 275 L 228.5 350  A 9.5 9.5 0 0 1 219 359.5 L 47 359.5  A 9.5 9.5 0 0 1 37.5 350 L 37.5 275  Z " fill-rule="nonzero" fill="#ffffff" stroke="none" fill-opacity="0.996078431372549" />
    <path d="M 37 275  A 10 10 0 0 1 47 265 L 219 265  A 10 10 0 0 1 229 275 L 229 350  A 10 10 0 0 1 219 360 L 47 360  A 10 10 0 0 1 37 350 L 37 275  Z " stroke-width="2" stroke="#02a7f0" fill="none" />
  </g>
</svg>