<?xml version="1.0" encoding="utf-8"?>
<svg version="1.1" xmlns:xlink="http://www.w3.org/1999/xlink" width="10px" height="10px" xmlns="http://www.w3.org/2000/svg">
  <g transform="matrix(1 0 0 1 -122 -331 )">
    <path d="M 9.60745707865168 9.19383011235955  L 0.452897078651685 9.19383011235955  C 0.255748314606742 9.19383011235955  0.0964817977528091 9.3530391011236  0.0964817977528091 9.5499002247191  C 0.0964817977528091 9.74644494382022  0.25603595505618 9.90562516853933  0.452206741573034 9.90562516853933  L 9.60745707865168 9.90562516853933  C 9.8047208988764 9.90562516853933  9.96395865168539 9.74644494382022  9.96395865168539 9.5499002247191  C 9.96392988764045 9.3530391011236  9.8047208988764 9.19383011235955  9.60814741573034 9.19383011235955  Z M 4.76336179775281 8.43304988764045  C 4.82977797752809 8.49986876404494  4.92119011235955 8.54166292134831  5.02281348314607 8.54166292134831  C 5.1243793258427 8.54166292134831  5.21579146067416 8.50021393258427  5.28154606741573 8.43270471910112  L 9.70341393258427 4.01080808988764  C 9.76988764044944 3.94473707865168  9.81176808988764 3.85329617977528  9.81199820224719 3.75244943820225  C 9.81199820224719 3.55101483146067  9.64749662921348 3.38786516853933  9.44721258426966 3.38786516853933  C 9.34590561797752 3.38757752808989  9.25486741573033 3.42902651685393  9.18911280898876 3.49512629213483  L 5.3873402247191 7.29661123595506  L 5.3873402247191 0.414669662921348  C 5.38699505617978 0.414295730337079  5.38699505617978 0.414295730337079  5.38699505617978 0.413950561797753  C 5.3873402247191 0.212487191011236  5.22419056179775 0.0490498876404496  5.02321617977528 0.0490498876404496  C 4.82169528089887 0.0490498876404496  4.65860314606741 0.212458426966292  4.65860314606741 0.413950561797753  C 4.65860314606741 0.413950561797753  4.65860314606741 0.414295730337079  4.65894831460674 0.414669662921348  L 4.65894831460674 7.29623730337079  L 0.857520898876404 3.49475235955056  C 0.791737528089888 3.42868134831461  0.700037752808989 3.38760629213483  0.59944988764045 3.38789393258427  C 0.398015280898877 3.38760629213483  0.234923146067416 3.55101483146067  0.23420404494382 3.7517591011236  C 0.23420404494382 3.85300853932584  0.275653033707865 3.9451397752809  0.342126741573034 4.0105204494382  L 4.76336179775281 8.43304988764045  Z " fill-rule="nonzero" fill="#ffffff" stroke="none" transform="matrix(1 0 0 1 122 331 )" />
  </g>
</svg>