<?xml version="1.0" encoding="utf-8"?>
<svg version="1.1" xmlns:xlink="http://www.w3.org/1999/xlink" width="35px" height="35px" xmlns="http://www.w3.org/2000/svg">
  <g transform="matrix(1 0 0 1 -137 -657 )">
    <path d="M 154.5 657  C 164.3 657  172 664.7  172 674.5  C 172 684.3  164.3 692  154.5 692  C 144.7 692  137 684.3  137 674.5  C 137 664.7  144.7 657  154.5 657  Z " fill-rule="nonzero" fill="#ffffff" stroke="none" fill-opacity="0.109803921568627" />
    <path d="M 154.5 657.5  C 164.02 657.5  171.5 664.98  171.5 674.5  C 171.5 684.02  164.02 691.5  154.5 691.5  C 144.98 691.5  137.5 684.02  137.5 674.5  C 137.5 664.98  144.98 657.5  154.5 657.5  Z " stroke-width="1" stroke="#81d3f8" fill="none" />
  </g>
</svg>