<?xml version="1.0" encoding="utf-8"?>
<svg version="1.1" xmlns:xlink="http://www.w3.org/1999/xlink" width="191px" height="191px" xmlns="http://www.w3.org/2000/svg">
  <g transform="matrix(1 0 0 1 -802 -338 )">
    <path d="M 897.5 341  C 949.3 341  990 381.7  990 433.5  C 990 485.3  949.3 526  897.5 526  C 845.7 526  805 485.3  805 433.5  C 805 381.7  845.7 341  897.5 341  Z " fill-rule="nonzero" fill="#81d3f8" stroke="none" />
    <path d="M 897.5 340  C 949.86 340  991 381.14  991 433.5  C 991 485.86  949.86 527  897.5 527  C 845.14 527  804 485.86  804 433.5  C 804 381.14  845.14 340  897.5 340  Z " stroke-width="4" stroke="#ffffff" fill="none" />
  </g>
</svg>