<?xml version="1.0" encoding="utf-8"?>
<svg version="1.1" xmlns:xlink="http://www.w3.org/1999/xlink" width="100px" height="22px" xmlns="http://www.w3.org/2000/svg">
  <g transform="matrix(1 0 0 1 -1500 -30 )">
    <path d="M 0 20.5  L 0 0.5  L 40.0063291139239 0.5  L 83.25 0.5  C 91.6499999999999 0.5  98.25 4.9  98.25 10.5  C 98.25 16.1  91.6499999999999 20.5  83.25 20.5  L 0 20.5  Z " fill-rule="nonzero" fill="#81d3f8" stroke="none" transform="matrix(1 0 0 1 1500 30 )" />
    <path d="M 0 0.5  L 40.0063291139239 0.5  L 83.25 0.5  C 91.6499999999999 0.5  98.25 4.9  98.25 10.5  C 98.25 16.1  91.6499999999999 20.5  83.25 20.5  L 0 20.5  " stroke-width="1" stroke="#81d3f8" fill="none" transform="matrix(1 0 0 1 1500 30 )" />
  </g>
</svg>