<?xml version="1.0" encoding="utf-8"?>
<svg version="1.1" xmlns:xlink="http://www.w3.org/1999/xlink" width="20px" height="98px" xmlns="http://www.w3.org/2000/svg">
  <defs>
    <linearGradient gradientUnits="userSpaceOnUse" x1="3.5527136788005E-14" y1="236" x2="20" y2="334" id="LinearGradient704">
      <stop id="Stop705" stop-color="#81d3f8" offset="0" />
      <stop id="Stop706" stop-color="#81d3f8" stop-opacity="0.549019607843137" offset="1" />
    </linearGradient>
  </defs>
  <g transform="matrix(1 0 0 1 0 -236 )">
    <path d="M 0.5 247  A 10.5 10.5 0 0 1 11 236.5 L 19.5 236.5  L 19.5 333.5  L 11 333.5  A 10.5 10.5 0 0 1 0.5 323 L 0.5 247  Z " fill-rule="nonzero" fill="url(#LinearGradient704)" stroke="none" />
    <path d="M 0.5 247  A 10.5 10.5 0 0 1 11 236.5 L 19.5 236.5  L 19.5 333.5  L 11 333.5  A 10.5 10.5 0 0 1 0.5 323 L 0.5 247  Z " stroke-width="1" stroke="#81d3f8" fill="none" />
  </g>
</svg>