<?xml version="1.0" encoding="utf-8"?>
<svg version="1.1" xmlns:xlink="http://www.w3.org/1999/xlink" width="170px" height="170px" xmlns="http://www.w3.org/2000/svg">
  <g transform="matrix(1 0 0 1 -629 -996 )">
    <path d="M 714 1000  C 759.36 1000  795 1035.64  795 1081  C 795 1126.36  759.36 1162  714 1162  C 668.64 1162  633 1126.36  633 1081  C 633 1035.64  668.64 1000  714 1000  Z " fill-rule="nonzero" fill="#04f21c" stroke="none" />
    <path d="M 714 998.5  C 760.2 998.5  796.5 1034.8  796.5 1081  C 796.5 1127.2  760.2 1163.5  714 1163.5  C 667.8 1163.5  631.5 1127.2  631.5 1081  C 631.5 1034.8  667.8 998.5  714 998.5  Z " stroke-width="5" stroke="#ffffff" fill="none" />
  </g>
</svg>