<?xml version="1.0" encoding="utf-8"?>
<svg version="1.1" xmlns:xlink="http://www.w3.org/1999/xlink" width="1441px" height="688px" xmlns="http://www.w3.org/2000/svg">
  <defs>
    <linearGradient gradientUnits="userSpaceOnUse" x1="754.5" y1="672" x2="754.5" y2="50" id="LinearGradient160">
      <stop id="Stop161" stop-color="#02a7f0" stop-opacity="0.0470588235294118" offset="0" />
      <stop id="Stop162" stop-color="#02a7f0" stop-opacity="0.149019607843137" offset="1" />
    </linearGradient>
    <filter x="34px" y="17px" width="1441px" height="688px" filterUnits="userSpaceOnUse" id="filter163">
      <feOffset dx="0" dy="0" in="SourceAlpha" result="shadowOffsetInner" />
      <feGaussianBlur stdDeviation="16.5" in="shadowOffsetInner" result="shadowGaussian" />
      <feComposite in2="shadowGaussian" operator="atop" in="SourceAlpha" result="shadowComposite" />
      <feColorMatrix type="matrix" values="0 0 0 0 0  0 0 0 0 0  0 0 0 0 0  0 0 0 0.349019607843137 0  " in="shadowComposite" />
    </filter>
    <g id="widget164">
      <path d="M 69.5 105  A 52.5 52.5 0 0 1 122 52.5 L 1387 52.5  A 52.5 52.5 0 0 1 1439.5 105 L 1439.5 617  A 52.5 52.5 0 0 1 1387 669.5 L 122 669.5  A 52.5 52.5 0 0 1 69.5 617 L 69.5 105  Z " fill-rule="nonzero" fill="url(#LinearGradient160)" stroke="none" />
      <path d="M 68.5 105  A 53.5 53.5 0 0 1 122 51.5 L 1387 51.5  A 53.5 53.5 0 0 1 1440.5 105 L 1440.5 617  A 53.5 53.5 0 0 1 1387 670.5 L 122 670.5  A 53.5 53.5 0 0 1 68.5 617 L 68.5 105  Z " stroke-width="3" stroke="#ffffff" fill="none" />
    </g>
  </defs>
  <g transform="matrix(1 0 0 1 -34 -17 )">
    <use xlink:href="#widget164" filter="url(#filter163)" />
    <use xlink:href="#widget164" />
  </g>
</svg>