<?xml version="1.0" encoding="utf-8"?>
<svg version="1.1" xmlns:xlink="http://www.w3.org/1999/xlink" width="170px" height="170px" xmlns="http://www.w3.org/2000/svg">
  <g transform="matrix(1 0 0 1 -893 -996 )">
    <path d="M 978 1000  C 1023.36 1000  1059 1035.64  1059 1081  C 1059 1126.36  1023.36 1162  978 1162  C 932.64 1162  897 1126.36  897 1081  C 897 1035.64  932.64 1000  978 1000  Z " fill-rule="nonzero" fill="#8400ff" stroke="none" />
    <path d="M 978 998.5  C 1024.2 998.5  1060.5 1034.8  1060.5 1081  C 1060.5 1127.2  1024.2 1163.5  978 1163.5  C 931.8 1163.5  895.5 1127.2  895.5 1081  C 895.5 1034.8  931.8 998.5  978 998.5  Z " stroke-width="5" stroke="#ffffff" fill="none" />
  </g>
</svg>