<?xml version="1.0" encoding="utf-8"?>
<svg version="1.1" xmlns:xlink="http://www.w3.org/1999/xlink" width="18px" height="18px" preserveAspectRatio="xMinYMid meet" viewBox="421 176  18 16" xmlns="http://www.w3.org/2000/svg">
  <path d="M 428 184.5  L 1149 184.5  A 3 3 0 0 1 1152 181.5 A 3 3 0 0 1 1155 184.5 L 1450 184.5  A 5 5 0 0 1 1455.5 189 L 1455.5 519  A 3 3 0 0 1 1458.5 522 A 3 3 0 0 1 1455.5 525 L 1455.5 860  A 3 3 0 0 1 1458.5 863 A 3 3 0 0 1 1455.5 866 L 1455.5 1212  A 3 3 0 0 1 1458.5 1215 A 3 3 0 0 1 1455.5 1218 L 1455.5 1883  A 5 5 0 0 0 1460.5 1888.5 L 1503 1888.5  " stroke-width="1" stroke-dasharray="9,4" stroke="#d9001b" fill="none" />
  <path d="M 430 181.5  A 3 3 0 0 0 427 184.5 A 3 3 0 0 0 430 187.5 A 3 3 0 0 0 433 184.5 A 3 3 0 0 0 430 181.5 Z M 1497.3 1894.5  L 1504 1888.5  L 1497.3 1882.5  L 1499.6 1888.5  L 1497.3 1894.5  Z " fill-rule="nonzero" fill="#d9001b" stroke="none" />
</svg>