<?xml version="1.0" encoding="utf-8"?>
<svg version="1.1" xmlns:xlink="http://www.w3.org/1999/xlink" width="10px" height="995.333333333333px" preserveAspectRatio="xMidYMin meet" viewBox="517 493  8 995.333333333333" xmlns="http://www.w3.org/2000/svg">
  <path d="M 521.5 493  L 521.5 568  A 3 3 0 0 1 524.5 571 A 3 3 0 0 1 521.5 574 L 521.5 684  A 3 3 0 0 1 524.5 687 A 3 3 0 0 1 521.5 690 L 521.5 1478.33333333333  A 5 5 0 0 0 526 1483.83333333333 L 1262 1483.83333333333  A 3 3 0 0 1 1265 1480.83333333333 A 3 3 0 0 1 1268 1483.83333333333 L 1452 1483.83333333333  A 3 3 0 0 1 1455 1480.83333333333 A 3 3 0 0 1 1458 1483.83333333333 L 3630 1483.83333333333  A 5 5 0 0 1 3635.5 1488.83333333333 L 3635.5 1607  " stroke-width="1" stroke-dasharray="9,4" stroke="#02a7f0" fill="none" />
  <path d="M 3629.5 1601.3  L 3635.5 1608  L 3641.5 1601.3  L 3635.5 1603.6  L 3629.5 1601.3  Z " fill-rule="nonzero" fill="#02a7f0" stroke="none" />
</svg>