<?xml version="1.0" encoding="utf-8"?>
<svg version="1.1" xmlns:xlink="http://www.w3.org/1999/xlink" width="32px" height="32px" preserveAspectRatio="xMinYMid meet" viewBox="2686 1093  32 30" xmlns="http://www.w3.org/2000/svg">
  <path d="M 350 687.5  L 724 687.5  A 3 3 0 0 1 727 684.5 A 3 3 0 0 1 730 687.5 L 803 687.5  A 3 3 0 0 1 806 684.5 A 3 3 0 0 1 809 687.5 L 932 687.5  A 3 3 0 0 1 935 684.5 A 3 3 0 0 1 938 687.5 L 1452 687.5  A 3 3 0 0 1 1455 684.5 A 3 3 0 0 1 1458 687.5 L 1521 687.5  A 5 5 0 0 1 1526.5 692 L 1526.5 860  A 3 3 0 0 1 1529.5 863 A 3 3 0 0 1 1526.5 866 L 1526.5 1103  A 5 5 0 0 0 1531.5 1108.5 L 2702 1108.5  " stroke-width="1" stroke-dasharray="9,4" stroke="#02a7f0" fill="none" />
  <path d="M 2696.3 1114.5  L 2703 1108.5  L 2696.3 1102.5  L 2698.6 1108.5  L 2696.3 1114.5  Z " fill-rule="nonzero" fill="#02a7f0" stroke="none" />
</svg>