<?xml version="1.0" encoding="utf-8"?>
<svg version="1.1" xmlns:xlink="http://www.w3.org/1999/xlink" width="10px" height="377px" preserveAspectRatio="xMidYMin meet" viewBox="1148 150  8 377" xmlns="http://www.w3.org/2000/svg">
  <path d="M 491 155.5  L 1147 155.5  A 5 5 0 0 1 1152.5 160.5 L 1152.5 517  A 5 5 0 0 0 1157.5 522.5 L 1813 522.5  " stroke-width="1" stroke-dasharray="9,4" stroke="#f59a23" fill="none" />
  <path d="M 493 152.5  A 3 3 0 0 0 490 155.5 A 3 3 0 0 0 493 158.5 A 3 3 0 0 0 496 155.5 A 3 3 0 0 0 493 152.5 Z M 1807.3 528.5  L 1814 522.5  L 1807.3 516.5  L 1809.6 522.5  L 1807.3 528.5  Z " fill-rule="nonzero" fill="#f59a23" stroke="none" />
</svg>