<?xml version="1.0" encoding="utf-8"?>
<svg version="1.1" xmlns:xlink="http://www.w3.org/1999/xlink" width="10px" height="662px" preserveAspectRatio="xMidYMin meet" viewBox="931 206  8 662" xmlns="http://www.w3.org/2000/svg">
  <path d="M 491 211.5  L 930 211.5  A 5 5 0 0 1 935.5 216.5 L 935.5 858  A 5 5 0 0 0 940.5 863.5 L 1813 863.5  " stroke-width="1" stroke-dasharray="9,4" stroke="#f59a23" fill="none" />
  <path d="M 493 208.5  A 3 3 0 0 0 490 211.5 A 3 3 0 0 0 493 214.5 A 3 3 0 0 0 496 211.5 A 3 3 0 0 0 493 208.5 Z M 1807.3 869.5  L 1814 863.5  L 1807.3 857.5  L 1809.6 863.5  L 1807.3 869.5  Z " fill-rule="nonzero" fill="#f59a23" stroke="none" />
</svg>