<?xml version="1.0" encoding="utf-8"?>
<svg version="1.1" xmlns:xlink="http://www.w3.org/1999/xlink" width="321px" height="10px" preserveAspectRatio="xMinYMid meet" viewBox="490 235  321 8" xmlns="http://www.w3.org/2000/svg">
  <path d="M 491 239.5  L 801 239.5  A 5 5 0 0 1 806.5 244.5 L 806.5 1210  A 5 5 0 0 0 811.5 1215.5 L 1813 1215.5  " stroke-width="1" stroke-dasharray="9,4" stroke="#f59a23" fill="none" />
  <path d="M 493 236.5  A 3 3 0 0 0 490 239.5 A 3 3 0 0 0 493 242.5 A 3 3 0 0 0 496 239.5 A 3 3 0 0 0 493 236.5 Z M 1807.3 1221.5  L 1814 1215.5  L 1807.3 1209.5  L 1809.6 1215.5  L 1807.3 1221.5  Z " fill-rule="nonzero" fill="#f59a23" stroke="none" />
</svg>