<?xml version="1.0" encoding="utf-8"?>
<svg version="1.1" xmlns:xlink="http://www.w3.org/1999/xlink" width="18px" height="18px" preserveAspectRatio="xMinYMid meet" viewBox="484 119  18 16" xmlns="http://www.w3.org/2000/svg">
  <path d="M 491 127.5  L 1586 127.5  A 5 5 0 0 1 1591.5 132.5 L 1591.5 177  A 5 5 0 0 0 1596.5 182.5 L 1813 182.5  " stroke-width="1" stroke-dasharray="9,4" stroke="#f59a23" fill="none" />
  <path d="M 493 124.5  A 3 3 0 0 0 490 127.5 A 3 3 0 0 0 493 130.5 A 3 3 0 0 0 496 127.5 A 3 3 0 0 0 493 124.5 Z M 1807.3 188.5  L 1814 182.5  L 1807.3 176.5  L 1809.6 182.5  L 1807.3 188.5  Z " fill-rule="nonzero" fill="#f59a23" stroke="none" />
</svg>