<?xml version="1.0" encoding="utf-8"?>
<svg version="1.1" xmlns:xlink="http://www.w3.org/1999/xlink" width="48px" height="48px" xmlns="http://www.w3.org/2000/svg">
  <g transform="matrix(1 0 0 1 -947 -212 )">
    <path d="M 24 25.5425454375  L 33.2574545625 34.8  L 34.8 33.2574545625  L 25.5425454375 24  L 34.8 14.7425454375  L 33.2574545625 13.2  L 24 22.4574545625  L 14.7425454375 13.2  L 13.2 14.7425454375  L 22.4574545625 24  L 13.2 33.2574545625  L 14.7425454375 34.8  L 24 25.5425454375  Z M 24 48  C 37.2545454375 48  48 37.2545454375  48 24  C 48 10.7454545625  37.2545454375 0  24 0  C 10.7454545625 0  0 10.7454545625  0 24  C 0 37.2545454375  10.7454545625 48  24 48  Z M 24 45.818181796875  C 11.949818203125 45.818181796875  2.181818203125 36.050181796875  2.181818203125 24  C 2.181818203125 11.949818203125  11.949818203125 2.181818203125  24 2.181818203125  C 36.050181796875 2.181818203125  45.818181796875 11.949818203125  45.818181796875 24  C 45.818181796875 36.050181796875  36.050181796875 45.818181796875  24 45.818181796875  Z " fill-rule="nonzero" fill="#7f7f7f" stroke="none" transform="matrix(1 0 0 1 947 212 )" />
  </g>
</svg>