<?xml version="1.0" encoding="utf-8"?>
<svg version="1.1" xmlns:xlink="http://www.w3.org/1999/xlink" width="9px" height="16px" xmlns="http://www.w3.org/2000/svg">
  <g transform="matrix(1 0 0 1 -127 -45 )">
    <path d="M 0.0775862068965517 15.8137931034483  L 7.33189655172414 0.0517241379310345  C 7.34741379310345 0.0551724137931033  7.36681034482759 0.0620689655172413  7.38232758620689 0.0724137931034481  C 7.87112068965517 0.248275862068965  8.24353448275862 0.620689655172414  8.49568965517241 1.15172413793103  C 8.54224137931035 1.25172413793103  8.58879310344827 1.35862068965517  8.62758620689655 1.47241379310345  C 9.22887931034483 3.16206896551724  8.82931034482759 6.07586206896552  7.42112068965517 9.13103448275862  C 6.1448275862069 11.9  4.35258620689655 14.1206896551724  2.68448275862069 15.1965517241379  C 2.09094827586207 15.5827586206897  1.51681034482758 15.8172413793103  0.985344827586206 15.8862068965517  C 0.663362068965518 15.9275862068966  0.360775862068964 15.9034482758621  0.0775862068965517 15.8137931034483  Z " fill-rule="nonzero" fill="#8adcff" stroke="none" transform="matrix(1 0 0 1 127 45 )" />
  </g>
</svg>