<?xml version="1.0" encoding="utf-8"?>
<svg version="1.1" xmlns:xlink="http://www.w3.org/1999/xlink" width="22px" height="26px" xmlns="http://www.w3.org/2000/svg">
  <g transform="matrix(1 0 0 1 -414 -234 )">
    <path d="M 9.50943395800781 2.35849057617187  L 9.50943395800781 0  L 11.4905660419922 0  L 11.4905660419922 2.35849057617187  L 9.50943395800781 2.35849057617187  Z M 7.13207547363281 5.18867924804688  L 7.13207547363281 2.830188671875  L 9.11320753710937 2.830188671875  L 9.11320753710937 5.18867924804688  L 7.13207547363281 5.18867924804688  Z M 9.50943395800781 5.18867924804688  L 9.50943395800781 2.830188671875  L 11.4905660419922 2.830188671875  L 11.4905660419922 5.18867924804688  L 9.50943395800781 5.18867924804688  Z M 11.8867924628906 5.18867924804688  L 11.8867924628906 2.830188671875  L 13.8679245263672 2.830188671875  L 13.8679245263672 5.18867924804688  L 11.8867924628906 5.18867924804688  Z M 4.75471698925781 8.01886791992188  L 4.75471698925781 5.66037736816406  L 6.73584905273438 5.66037736816406  L 6.73584905273438 8.01886791992188  L 4.75471698925781 8.01886791992188  Z M 9.50943395800781 8.01886791992188  L 9.50943395800781 5.66037736816406  L 11.4905660419922 5.66037736816406  L 11.4905660419922 8.01886791992188  L 9.50943395800781 8.01886791992188  Z M 14.2641509472656 8.01886791992188  L 14.2641509472656 5.66037736816406  L 16.2452830107422 5.66037736816406  L 16.2452830107422 8.01886791992188  L 14.2641509472656 8.01886791992188  Z M 9.50943395800781 10.8490565917969  L 9.50943395800781 8.49056604003906  L 11.4905660419922 8.49056604003906  L 11.4905660419922 10.8490565917969  L 9.50943395800781 10.8490565917969  Z M 9.50943395800781 13.6792452880859  L 9.50943395800781 11.3207547119141  L 11.4905660419922 11.3207547119141  L 11.4905660419922 13.6792452880859  L 9.50943395800781 13.6792452880859  Z M 9.50943395800781 16.5094339599609  L 9.50943395800781 14.1509434082031  L 11.4905660419922 14.1509434082031  L 11.4905660419922 16.5094339599609  L 9.50943395800781 16.5094339599609  Z M 16.2452830107422 14.1509434082031  L 14.2641509472656 14.1509434082031  L 16.2452830107422 14.1509434082031  Z M 9.50943395800781 19.3396226318359  L 9.50943395800781 16.9811320800781  L 11.4905660419922 16.9811320800781  L 11.4905660419922 19.3396226318359  L 9.50943395800781 19.3396226318359  Z M 11.8867924628906 16.9811320800781  L 11.8867924628906 19.3396226318359  L 11.8867924628906 16.9811320800781  Z M 9.50943395800781 25  L 9.50943395800781 22.6415094238281  L 11.4905660419922 22.6415094238281  L 11.4905660419922 25  L 9.50943395800781 25  Z M 11.8867924628906 25  L 11.8867924628906 22.6415094238281  L 11.8867924628906 25  Z M 9.50943395800781 22.169811328125  L 9.50943395800781 19.8113207519531  L 11.4905660419922 19.8113207519531  L 11.4905660419922 22.169811328125  L 9.50943395800781 22.169811328125  Z M 11.8867924628906 22.169811328125  L 11.8867924628906 19.8113207519531  L 11.8867924628906 22.169811328125  Z M 1.98113208398438 13.6792452880859  L 0 13.6792452880859  L 0 11.3207547119141  L 1.98113208398438 11.3207547119141  L 1.98113208398438 13.6792452880859  Z M 4.35849056835938 10.8490565917969  L 2.377358484375 10.8490565917969  L 2.377358484375 8.49056604003906  L 4.35849056835938 8.49056604003906  L 4.35849056835938 10.8490565917969  Z M 21 13.6792452880859  L 19.0188679160156 13.6792452880859  L 19.0188679160156 11.3207547119141  L 21 11.3207547119141  L 21 13.6792452880859  Z M 18.622641515625 10.8490565917969  L 16.6415094316406 10.8490565917969  L 16.6415094316406 8.49056604003906  L 18.622641515625 8.49056604003906  L 18.622641515625 10.8490565917969  Z " fill-rule="nonzero" fill="#d9001b" stroke="none" transform="matrix(1 0 0 1 414 234 )" />
  </g>
</svg>