<?xml version="1.0" encoding="utf-8"?>
<svg version="1.1" xmlns:xlink="http://www.w3.org/1999/xlink" width="11px" height="25px" xmlns="http://www.w3.org/2000/svg">
  <g transform="matrix(1 0 0 1 -120 -38 )">
    <path d="M 2.72884615384615 15.7603092783505  L 9.76602564102564 0.041881443298969  C 10.3089743589744 0.23840206185567  10.6580128205128 0.615335051546392  10.8272435897436 1.07603092783505  C 10.5980769230769 0.579896907216495  10.2596153846154 0.228737113402062  9.81538461538461 0.067654639175258  L 3.17307692307692 14.7712628865979  C 3.43044871794872 14.8550257731959  3.70544871794872 14.8775773195876  3.99807692307692 14.8389175257732  C 4.48108974358974 14.777706185567  5.00288461538461 14.555412371134  5.54230769230769 14.1978092783505  L 3.84647435897436 17.986469072165  L 2.72179487179487 20.5025773195876  L 0.736858974358972 24.9323453608247  C 0.909615384615381 24.4909793814433  1.00480769230769 24.0238402061856  1.00480769230769 23.5438144329897  C 1.00480769230769 22.6900773195876  0.708653846153845 21.9426546391753  0.208012820512818 21.3885309278351  L 1.60416666666666 18.2731958762887  L 2.72884615384615 15.7603092783505  Z M 2.72532051282051 18.6887886597938  C 3.04967948717949 18.6469072164948  3.31410256410256 18.3537371134021  3.31410256410256 18.034793814433  C 3.31410256410256 17.7158505154639  3.05320512820513 17.4903350515464  2.72884615384615 17.5322164948454  C 2.40448717948718 17.5740979381443  2.1400641025641 17.8672680412371  2.1400641025641 18.1862113402062  C 2.1400641025641 18.5051546391753  2.40096153846154 18.7306701030928  2.72532051282051 18.6887886597938  Z " fill-rule="nonzero" fill="#fdf17f" stroke="none" transform="matrix(1 0 0 1 120 38 )" />
  </g>
</svg>