<?xml version="1.0" encoding="utf-8"?>
<svg version="1.1" xmlns:xlink="http://www.w3.org/1999/xlink" width="10px" height="8px" xmlns="http://www.w3.org/2000/svg">
  <g transform="matrix(1 0 0 1 -111 -35 )">
    <path d="M 7.83593750000001 1.62571428571429  C 7.88671875000001 1.61428571428572  7.92968750000001 1.61142857142858  7.97265625 1.61142857142857  L 7.99609375 1.61142857142857  C 8.03515625 1.60857142857143  8.07421875 1.60857142857143  8.11328125 1.60857142857143  L 8.28515625 1.60857142857143  C 8.328125 1.60857142857143  8.37109375 1.61142857142857  8.41015625 1.61142857142857  L 8.41796875 1.61142857142857  C 8.45703125 1.61428571428571  8.49609375 1.61428571428571  8.5390625 1.61714285714286  C 8.546875 1.61714285714286  8.5546875 1.61714285714286  8.5625 1.62  C 8.6015625 1.62285714285714  8.64453125 1.62571428571429  8.68359375 1.63142857142857  C 8.69140625 1.63142857142857  8.69921875 1.63428571428572  8.70703125 1.63428571428572  C 8.74609375 1.63714285714286  8.78125 1.64285714285714  8.8203125 1.64857142857143  C 8.82421875 1.64857142857143  8.828125 1.64857142857143  8.83203125 1.65142857142857  C 8.87109375 1.65714285714286  8.91015625 1.66285714285714  8.953125 1.66857142857143  C 8.9609375 1.66857142857143  8.96875 1.67142857142857  8.98046875 1.67142857142857  C 9.01953125 1.67714285714286  9.05859375 1.68571428571429  9.09765625 1.69142857142858  C 9.1484375 1.7  9.19921875 1.71142857142858  9.25 1.72285714285715  C 9.265625 1.72571428571429  9.27734375 1.72857142857144  9.29296875 1.73428571428572  C 9.328125 1.74285714285715  9.36328125 1.75142857142858  9.40234375 1.76  C 9.41796875 1.76571428571429  9.4375 1.76857142857143  9.453125 1.77428571428572  C 9.48828125 1.78285714285715  9.51953125 1.79428571428572  9.55468750000001 1.80285714285715  C 9.5703125 1.80857142857143  9.58593750000001 1.81142857142857  9.60156250000001 1.81714285714286  L 9.73046875000001 1.86  C 9.73437500000001 1.86  9.73828125000001 1.86285714285715  9.74218750000001 1.86285714285715  C 9.78125000000001 1.87714285714286  9.82031250000001 1.89142857142858  9.85937500000001 1.90857142857143  L 9.86328125000001 1.90857142857143  L 6.30078125000001 0.491428571428576  C 6.26171875000001 0.474285714285718  6.22265625000001 0.460000000000004  6.17968750000001 0.44571428571429  C 6.17578125000001 0.44571428571429  6.17187500000001 0.442857142857146  6.17187500000001 0.442857142857146  L 6.04296875000001 0.400000000000003  C 6.02734375000001 0.394285714285716  6.01171875000001 0.391428571428576  5.99609375000001 0.385714285714289  C 5.96093750000001 0.374285714285718  5.92968750000001 0.365714285714288  5.89453125000001 0.35714285714286  C 5.87890625000001 0.351428571428573  5.85937500000001 0.348571428571433  5.84375000000001 0.342857142857146  C 5.80859375000001 0.334285714285719  5.77343750000001 0.325714285714288  5.73437500000001 0.317142857142861  C 5.71875000000001 0.314285714285718  5.70703125000001 0.311428571428574  5.69140625 0.30571428571429  C 5.640625 0.294285714285719  5.58984375 0.282857142857149  5.53906250000001 0.274285714285718  L 5.53515625 0.274285714285718  C 5.50000000000001 0.268571428571431  5.46093750000001 0.260000000000004  5.42187500000001 0.254285714285717  C 5.41406250000001 0.254285714285717  5.40625000000001 0.251428571428573  5.39453125000001 0.251428571428573  C 5.35546875000001 0.245714285714286  5.31640625000001 0.240000000000003  5.2734375 0.234285714285716  C 5.26953125 0.234285714285716  5.26562500000001 0.234285714285716  5.26171875 0.231428571428572  C 5.22265625 0.225714285714285  5.18750000000001 0.222857142857145  5.14843750000001 0.217142857142858  C 5.14062500000001 0.217142857142858  5.13281250000001 0.214285714285714  5.125 0.214285714285714  C 5.0859375 0.211428571428571  5.04296875 0.205714285714287  5.00390625 0.202857142857144  C 4.99609375 0.202857142857144  4.98828125 0.202857142857144  4.98046875 0.2  C 4.94140625 0.197142857142856  4.90234375 0.194285714285713  4.859375 0.194285714285713  L 4.8515625 0.194285714285713  C 4.80859375 0.191428571428569  4.765625 0.191428571428569  4.7265625 0.191428571428569  L 4.5546875 0.191428571428569  C 4.515625 0.191428571428569  4.4765625 0.194285714285713  4.4375 0.194285714285713  L 4.4140625 0.194285714285713  L 4.28515625 0.20285714285714  C 4.27734375 0.20285714285714  4.265625 0.20285714285714  4.2578125 0.205714285714284  C 4.21484375 0.208571428571427  4.16796875 0.214285714285711  4.125 0.217142857142855  C 4.078125 0.222857142857142  4.03515625 0.228571428571425  3.98828125 0.234285714285712  C 3.9765625 0.237142857142856  3.96484375 0.237142857142856  3.953125 0.239999999999999  C 3.91015625 0.245714285714286  3.87109375 0.25142857142857  3.828125 0.257142857142857  C 3.82421875 0.257142857142857  3.8203125 0.257142857142857  3.81640625 0.260000000000001  C 3.7734375 0.268571428571428  3.7265625 0.274285714285715  3.68359375 0.282857142857142  C 3.671875 0.285714285714286  3.66015625 0.288571428571429  3.64843750000001 0.288571428571429  C 3.60937500000001 0.297142857142856  3.57031250000001 0.302857142857143  3.53125000000001 0.311428571428571  C 3.52343750000001 0.311428571428571  3.51953125000001 0.314285714285714  3.51171875000001 0.314285714285714  C 3.46875 0.322857142857142  3.42578125000001 0.334285714285716  3.38281250000001 0.345714285714286  C 3.37109375 0.34857142857143  3.359375 0.351428571428573  3.3515625 0.354285714285714  C 3.31640625000001 0.362857142857141  3.27734375000001 0.374285714285715  3.2421875 0.382857142857142  C 3.234375 0.385714285714286  3.22656250000001 0.385714285714286  3.21875 0.388571428571429  C 3.17578125 0.4  3.1328125 0.414285714285714  3.09375 0.425714285714285  C 3.08203125 0.428571428571429  3.07421875 0.431428571428572  3.0625 0.434285714285712  L 2.95703125 0.468571428571428  C 2.94921875 0.471428571428571  2.9453125 0.471428571428571  2.9375 0.474285714285715  C 2.93359375 0.474285714285715  2.93359375 0.477142857142858  2.9296875 0.477142857142858  C 2.87890625 0.494285714285716  2.828125 0.511428571428574  2.78125 0.531428571428572  C 2.7734375 0.534285714285716  2.765625 0.537142857142859  2.75390625 0.539999999999999  C 2.70703125 0.560000000000001  2.65625 0.577142857142855  2.609375 0.597142857142857  C 2.60156250000001 0.6  2.59375000000001 0.602857142857144  2.5859375 0.608571428571427  C 2.5390625 0.628571428571429  2.48828125 0.65142857142857  2.44140625 0.671428571428571  C 2.4375 0.674285714285715  2.4296875 0.677142857142858  2.42578125000001 0.679999999999999  C 2.375 0.70285714285714  2.32812500000001 0.725714285714285  2.28125000000001 0.75142857142857  C 2.28125000000001 0.75142857142857  2.27734375 0.75142857142857  2.27734375 0.754285714285714  C 2.23828125 0.774285714285715  2.20312500000001 0.794285714285713  2.16406250000001 0.814285714285714  C 2.15625000000001 0.820000000000001  2.14453125000001 0.825714285714285  2.13671875000001 0.831428571428572  C 2.10546875000001 0.84857142857143  2.07031250000001 0.865714285714288  2.03906250000001 0.885714285714286  C 2.03515625000001 0.888571428571429  2.02734375000001 0.891428571428573  2.02343750000001 0.894285714285713  C 1.98828125000001 0.914285714285714  1.95312500000001 0.937142857142856  1.91796875000001 0.957142857142857  C 1.91015625000001 0.962857142857144  1.89843750000001 0.968571428571428  1.89062500000001 0.974285714285715  C 1.85937500000001 0.991428571428573  1.83203125000001 1.01142857142857  1.80078125000001 1.03142857142857  C 1.79687500000001 1.03428571428572  1.79296875000001 1.03714285714286  1.78515625000001 1.04  C 1.78125000000001 1.04  1.78125000000001 1.04285714285714  1.78125000000001 1.04285714285714  C 1.75000000000001 1.06285714285714  1.71484375000001 1.08571428571429  1.68359375000001 1.10857142857143  C 1.67578125000001 1.11428571428571  1.66796875000001 1.12  1.66015625000001 1.12285714285714  C 1.63671875000001 1.14  1.60937500000001 1.15714285714286  1.58593750000001 1.17714285714286  L 1.55859375000001 1.19714285714286  C 1.53125000000001 1.21714285714286  1.50781250000001 1.23714285714286  1.48046875000001 1.25714285714286  C 1.47656250000001 1.26  1.47265625000001 1.26571428571428  1.46484375000001 1.26857142857143  C 1.43359375000001 1.29142857142857  1.40625000000001 1.31714285714286  1.37500000000001 1.34  L 1.36718750000001 1.34571428571429  C 1.36328125000001 1.35142857142857  1.35546875000001 1.35428571428571  1.35156250000001 1.36  C 1.32812500000001 1.37714285714286  1.30859375000001 1.39714285714286  1.28515625000001 1.41714285714286  C 1.27734375000001 1.42571428571429  1.26953125000001 1.43142857142857  1.26171875000001 1.44  C 1.23437500000001 1.46285714285714  1.20703125000001 1.48857142857143  1.17968750000001 1.51142857142857  L 1.17578125000001 1.51428571428571  L 1.09375000000001 1.59142857142857  C 1.08593750000001 1.6  1.07812500000001 1.60571428571429  1.07031250000001 1.61428571428571  L 1.01171875000001 1.67428571428572  C 1.00781250000001 1.68  1.00390625000001 1.68285714285714  0.996093750000009 1.68857142857143  C 0.992187500000009 1.69142857142857  0.992187500000009 1.69428571428572  0.988281250000009 1.69714285714286  C 0.96093750000001 1.72571428571429  0.937500000000009 1.75428571428571  0.910156250000009 1.78  C 0.90625000000001 1.78571428571429  0.90234375000001 1.78857142857143  0.898437500000009 1.79428571428571  C 0.875000000000009 1.81714285714285  0.855468750000009 1.84285714285714  0.835937500000009 1.86857142857143  C 0.82812500000001 1.87714285714286  0.824218750000009 1.88285714285714  0.816406250000009 1.89142857142857  C 0.792968750000009 1.92  0.76953125000001 1.95142857142857  0.746093750000009 1.98  L 0.746093750000009 1.98285714285714  C 0.722656250000009 2.01142857142857  0.699218750000009 2.04285714285714  0.679687500000009 2.07142857142857  C 0.675781250000009 2.07428571428571  0.675781250000009 2.08  0.67187500000001 2.08285714285714  C 0.66796875000001 2.08571428571429  0.66796875000001 2.09142857142857  0.66406250000001 2.09428571428571  C 0.63671875000001 2.12857142857143  0.61328125000001 2.16571428571428  0.58984375000001 2.2  C 0.58593750000001 2.20285714285714  0.58593750000001 2.20857142857143  0.58203125000001 2.21428571428571  C 0.55859375000001 2.24857142857143  0.535156250000011 2.28571428571429  0.515625000000011 2.32  C 0.511718750000011 2.32571428571429  0.511718750000011 2.32857142857143  0.507812500000011 2.33428571428572  C 0.484375000000011 2.37142857142857  0.464843750000011 2.40857142857143  0.441406250000012 2.44571428571429  C 0.437500000000012 2.45428571428571  0.433593750000012 2.46  0.429687500000011 2.46857142857143  L 0.371093750000011 2.58  C 0.371093750000011 2.58285714285714  0.367187500000011 2.58285714285714  0.367187500000011 2.58571428571429  C 0.363281250000012 2.59428571428571  0.359375000000012 2.60571428571429  0.351562500000011 2.61428571428571  C 0.343750000000012 2.62571428571429  0.339843750000011 2.64  0.332031250000011 2.65142857142857  C 0.324218750000012 2.66571428571428  0.320312500000011 2.67714285714286  0.312500000000011 2.69142857142857  C 0.308593750000011 2.70285714285714  0.300781250000011 2.71714285714285  0.296875000000011 2.72857142857143  C 0.292968750000011 2.74285714285714  0.28515625000001 2.75428571428571  0.281250000000011 2.76857142857142  C 0.277343750000011 2.78  0.26953125000001 2.79428571428571  0.26562500000001 2.80571428571428  C 0.261718750000011 2.82  0.25390625000001 2.83142857142857  0.25000000000001 2.84571428571428  C 0.24609375000001 2.85714285714285  0.23828125000001 2.87142857142856  0.23437500000001 2.88285714285714  C 0.23046875000001 2.89714285714285  0.22265625000001 2.90857142857142  0.21875000000001 2.92285714285714  C 0.21484375000001 2.93428571428571  0.21093750000001 2.94857142857142  0.207031250000009 2.95999999999999  C 0.20312500000001 2.97428571428571  0.19921875000001 2.98857142857142  0.191406250000009 2.99999999999999  C 0.187500000000009 3.01142857142856  0.18359375000001 3.02571428571428  0.179687500000009 3.03714285714285  L 0.167968750000008 3.07999999999999  C 0.164062500000008 3.09142857142856  0.160156250000009 3.10571428571427  0.156250000000008 3.11714285714285  L 0.144531250000007 3.15999999999999  C 0.140625000000008 3.17142857142856  0.136718750000008 3.18571428571427  0.132812500000007 3.19714285714284  L 0.121093750000006 3.23999999999999  C 0.117187500000007 3.25142857142856  0.113281250000007 3.26571428571427  0.113281250000007 3.27714285714284  C 0.109375000000007 3.29142857142856  0.105468750000007 3.30571428571427  0.105468750000007 3.31999999999999  C 0.101562500000008 3.33142857142856  0.101562500000008 3.34571428571427  0.0976562500000078 3.35714285714284  C 0.093750000000008 3.37142857142856  0.093750000000008 3.38571428571427  0.0898437500000082 3.40285714285713  C 0.0859375000000084 3.4142857142857  0.0859375000000084 3.42571428571427  0.0820312500000087 3.43999999999998  C 0.0781250000000089 3.4542857142857  0.0781250000000089 3.47142857142856  0.0742187500000091 3.48571428571427  C 0.0742187500000091 3.49714285714284  0.0703125000000093 3.50857142857141  0.0703125000000093 3.52285714285713  C 0.0664062500000095 3.53714285714284  0.0664062500000095 3.5542857142857  0.0664062500000095 3.56857142857141  C 0.0664062500000095 3.57999999999998  0.0625000000000098 3.59142857142855  0.0625000000000098 3.60285714285713  C 0.0625000000000098 3.61999999999999  0.05859375000001 3.6342857142857  0.05859375000001 3.65142857142856  C 0.05859375000001 3.66285714285713  0.0546875000000102 3.6742857142857  0.0546875000000102 3.68571428571427  C 0.0546875000000102 3.70285714285713  0.0546875000000102 3.72285714285713  0.0507812500000104 3.73999999999999  L 0.0507812500000104 3.85142857142856  C 0.0468750000000107 4.99142857142856  0.80078125000001 5.91714285714284  1.93750000000001 6.36857142857142  L 5.50000000000001 7.78571428571427  C 4.36328125000001 7.3342857142857  3.61328125000001 6.40857142857141  3.61328125000001 5.26857142857142  L 3.61328125000001 5.18571428571427  L 3.61328125000001 5.15999999999999  C 3.61328125000001 5.14285714285713  3.61328125000001 5.12285714285713  3.61718750000001 5.10571428571427  C 3.61718750000001 5.0942857142857  3.61718750000001 5.08285714285713  3.62109375000001 5.0742857142857  C 3.62109375000001 5.05714285714284  3.62500000000001 5.03999999999999  3.62500000000001 5.02571428571427  C 3.62500000000001 5.0142857142857  3.62890625000001 5.00285714285713  3.62890625000001 4.99142857142856  C 3.62890625000001 4.97714285714284  3.63281250000001 4.95999999999998  3.63281250000001 4.94571428571427  C 3.63281250000001 4.9342857142857  3.63671875000001 4.92285714285713  3.63671875000001 4.90857142857141  C 3.64062500000002 4.8942857142857  3.64062500000002 4.87714285714284  3.64453125000001 4.86285714285713  C 3.64843750000001 4.85142857142856  3.64843750000001 4.83714285714284  3.65234375000001 4.82571428571427  C 3.65625000000001 4.81142857142856  3.65625000000001 4.79714285714284  3.66015625000001 4.78285714285713  C 3.66406250000001 4.77142857142856  3.66406250000001 4.75714285714284  3.66796875000001 4.74571428571427  C 3.67187500000001 4.73142857142856  3.67187500000001 4.71714285714284  3.67578125000001 4.70285714285713  C 3.67968750000001 4.69142857142856  3.67968750000001 4.67714285714285  3.68359375000001 4.66571428571427  L 3.69531250000001 4.62285714285713  C 3.69921875000001 4.61142857142856  3.70312500000001 4.59714285714285  3.70703125000001 4.58571428571428  L 3.71875000000001 4.54285714285713  C 3.72265625000001 4.53142857142856  3.72656250000001 4.51714285714285  3.73046875000001 4.50571428571428  L 3.74218750000001 4.46285714285713  C 3.74609375000001 4.45142857142856  3.75000000000001 4.43714285714285  3.75390625000001 4.42571428571428  C 3.75781250000002 4.41142857142856  3.76171875000001 4.39714285714285  3.76562500000001 4.38571428571428  C 3.76953125000002 4.37428571428571  3.77343750000001 4.35999999999999  3.77734375000002 4.34857142857142  C 3.78125000000002 4.33428571428571  3.78906250000002 4.32  3.79296875000001 4.30857142857142  C 3.79687500000002 4.29714285714285  3.80078125000001 4.28285714285714  3.80859375000001 4.27142857142857  C 3.81250000000001 4.25714285714285  3.82031250000001 4.24571428571428  3.82421875000001 4.23142857142857  C 3.82812500000001 4.22  3.83593750000001 4.20571428571428  3.83984375000001 4.19428571428571  C 3.84375000000001 4.18  3.85156250000001 4.16857142857143  3.85546875000001 4.15428571428571  C 3.85937500000001 4.14285714285714  3.86718750000001 4.12857142857143  3.87109375000001 4.11714285714286  C 3.87890625000001 4.10285714285714  3.88281250000001 4.09142857142857  3.89062500000001 4.07714285714286  C 3.89453125000001 4.06571428571429  3.90234375000001 4.05428571428572  3.91015625000001 4.04  C 3.91796875000001 4.02857142857143  3.92187500000001 4.01428571428572  3.92968750000001 4.00285714285715  L 3.98828125000001 3.89142857142858  C 3.99218750000001 3.88285714285715  3.99609375000001 3.87714285714286  4.00000000000001 3.86857142857143  C 4.01953125000001 3.83142857142858  4.04296875000001 3.79428571428572  4.06640625000001 3.75714285714286  C 4.07031250000001 3.75142857142858  4.07031250000001 3.74857142857144  4.07421875000001 3.74285714285715  C 4.09765625000001 3.70857142857143  4.11718750000001 3.67142857142858  4.14062500000001 3.63714285714286  C 4.14453125000001 3.63428571428572  4.14453125000001 3.62857142857144  4.14843750000001 3.62285714285715  C 4.17187500000001 3.58571428571429  4.19921875000001 3.55142857142858  4.22265625000001 3.51714285714286  C 4.22656250000001 3.50857142857143  4.23437500000001 3.50285714285715  4.23828125000001 3.49428571428572  C 4.26171875000001 3.46571428571429  4.28125000000001 3.43428571428572  4.30468750000001 3.40571428571429  L 4.30468750000001 3.40285714285715  C 4.32812500000001 3.37428571428572  4.35156250000001 3.34285714285715  4.37500000000001 3.31428571428572  C 4.38281250000001 3.30571428571429  4.38671875000001 3.3  4.39453125000001 3.29142857142858  C 4.41406250000001 3.26571428571429  4.43750000000001 3.24285714285715  4.45703125000001 3.21714285714286  C 4.46093750000001 3.21142857142857  4.46484375000001 3.20857142857143  4.46875000000001 3.20285714285715  C 4.49609375000001 3.17428571428572  4.51953125000001 3.14571428571429  4.54687500000001 3.12  C 4.55468750000001 3.11142857142858  4.56250000000001 3.10571428571429  4.56640625000001 3.09714285714286  L 4.62500000000001 3.03714285714286  C 4.63281250000001 3.02857142857144  4.64062500000001 3.02285714285715  4.64843750000001 3.01428571428572  L 4.73046875000001 2.93714285714286  L 4.73437500000001 2.93428571428572  C 4.76171875000001 2.90857142857143  4.78906250000001 2.88571428571429  4.81640625000001 2.86285714285715  C 4.82421875000001 2.85428571428572  4.83203125000001 2.84857142857143  4.83984375000001 2.84000000000001  C 4.86328125000001 2.82  4.88281250000001 2.80285714285715  4.90625000000001 2.78571428571429  C 4.91406250000001 2.78000000000001  4.92187500000001 2.77142857142858  4.92968750000001 2.76571428571429  C 4.95703125000001 2.74285714285715  4.98828125000001 2.71714285714286  5.01953125000001 2.69428571428572  C 5.02343750000001 2.69142857142858  5.02734375000001 2.68571428571429  5.03515625000001 2.68285714285715  C 5.06250000000001 2.66285714285715  5.08593750000001 2.64285714285715  5.11328125000001 2.62285714285715  L 5.14062500000001 2.60285714285715  L 5.21484375000001 2.54857142857143  C 5.22265625000001 2.54285714285715  5.23046875000001 2.53714285714286  5.23828125000001 2.53428571428572  C 5.26953125000001 2.51142857142858  5.30078125000001 2.49142857142858  5.33593750000001 2.46857142857143  L 5.35546875000001 2.45428571428572  C 5.38281250000001 2.43428571428572  5.41406250000001 2.41714285714286  5.44531250000001 2.39714285714286  C 5.45312500000001 2.39142857142858  5.46484375000001 2.38571428571429  5.47265625000001 2.38000000000001  C 5.50781250000001 2.35714285714286  5.54296875000001 2.33714285714286  5.57812500000001 2.31714285714286  C 5.58203125000001 2.31428571428572  5.58984375000001 2.31142857142857  5.59375000000001 2.30857142857143  C 5.62500000000001 2.29142857142858  5.65625000000001 2.27142857142858  5.69140625000001 2.25428571428572  C 5.69921875000001 2.24857142857143  5.71093750000001 2.24285714285715  5.71875000000001 2.23714285714286  C 5.75781250000001 2.21714285714286  5.79296875000001 2.19714285714286  5.83203125000001 2.17714285714286  L 5.83593750000001 2.17428571428572  C 5.88281250000001 2.15142857142858  5.93359375000001 2.12571428571429  5.98046875000001 2.10285714285715  C 5.98437500000001 2.1  5.99218750000001 2.09714285714286  5.99609375000001 2.09428571428572  C 6.04296875000001 2.07142857142858  6.09375000000001 2.05142857142858  6.14062500000001 2.03142857142858  C 6.14843750000001 2.02857142857143  6.15625000000001 2.02571428571429  6.16406250000001 2.02  C 6.21093750000001 2  6.26171875000001 1.98000000000001  6.30859375000001 1.96285714285715  C 6.31640625000001 1.96  6.32421875000001 1.95714285714286  6.33593750000001 1.95428571428572  C 6.38671875000001 1.93428571428572  6.43359375000001 1.91714285714286  6.48437500000001 1.90000000000001  L 6.50781250000001 1.89142857142858  L 6.61328125000001 1.85714285714286  C 6.62500000000001 1.85428571428572  6.63281250000001 1.85142857142858  6.64453125000001 1.84857142857144  C 6.68750000000001 1.83428571428572  6.73046875000001 1.82285714285715  6.76953125000001 1.81142857142858  C 6.77734375000001 1.80857142857144  6.78515625000001 1.80857142857144  6.79296875000001 1.80571428571429  C 6.82812500000001 1.79428571428572  6.86718750000001 1.78571428571429  6.90234375000001 1.77714285714286  C 6.91406250000001 1.77428571428572  6.92578125000001 1.77142857142858  6.93359375000001 1.76857142857144  C 6.97656250000001 1.75714285714287  7.01953125000001 1.74857142857144  7.06250000000001 1.73714285714287  C 7.07031250000001 1.73714285714287  7.07421875000001 1.73428571428572  7.08203125000001 1.73428571428572  C 7.12109375000001 1.72571428571429  7.16015625000001 1.71714285714286  7.19921875000001 1.71142857142858  C 7.21093750000001 1.70857142857144  7.22265625000001 1.70571428571429  7.23437500000001 1.70571428571429  C 7.27734375000001 1.69714285714287  7.32421875000001 1.68857142857144  7.36718750000001 1.68285714285715  C 7.37109375000001 1.68285714285715  7.37500000000001 1.68285714285715  7.37890625000001 1.68000000000001  C 7.42187500000001 1.67428571428572  7.46093750000001 1.66857142857144  7.50390625000001 1.66285714285715  C 7.51562500000001 1.66000000000001  7.52734375000001 1.66000000000001  7.53906250000001 1.65714285714286  C 7.58593750000001 1.65142857142858  7.62890625000001 1.64571428571429  7.67578125000001 1.64000000000001  C 7.71875000000001 1.63428571428572  7.76562500000001 1.63142857142858  7.80859375000001 1.62857142857144  C 7.81640625000001 1.62857142857144  7.82812500000001 1.62571428571429  7.83593750000001 1.62571428571429  Z " fill-rule="nonzero" fill="#00a4ff" stroke="none" transform="matrix(1 0 0 1 111 35 )" />
  </g>
</svg>