<?xml version="1.0" encoding="utf-8"?>
<svg version="1.1" xmlns:xlink="http://www.w3.org/1999/xlink" width="9px" height="16px" xmlns="http://www.w3.org/2000/svg">
  <g transform="matrix(1 0 0 1 -127 -33 )">
    <path d="M 8.88387096774194 15.8103448275862  C 7.425 15.0586206896552  5.90443548387097 13.3655172413793  4.80120967741936 11.0827586206897  C 3.49475806451613 8.37931034482759  3.13185483870968 5.56206896551724  3.70161290322581 3.72068965517241  L 3.75604838709677 3.5551724137931  C 3.7633064516129 3.53793103448276  3.77056451612903 3.52068965517241  3.7741935483871 3.50344827586207  C 3.78870967741935 3.46206896551724  3.80322580645161 3.42068965517241  3.82137096774194 3.37931034482759  C 3.83588709677419 3.34137931034483  3.85403225806452 3.30344827586207  3.86854838709677 3.26551724137931  C 3.87217741935484 3.25172413793103  3.87943548387097 3.24137931034483  3.8866935483871 3.22758620689655  C 3.89758064516129 3.20344827586207  3.90846774193549 3.17586206896552  3.91935483870968 3.15172413793103  C 3.92661290322581 3.13793103448276  3.93387096774193 3.12413793103448  3.94112903225807 3.10689655172414  C 3.95201612903226 3.08620689655172  3.96290322580645 3.06206896551724  3.97379032258065 3.04137931034483  C 3.98104838709677 3.02758620689655  3.9883064516129 3.01034482758621  3.9991935483871 2.99655172413793  L 4.03185483870968 2.93448275862069  C 4.04274193548387 2.91379310344827  4.05725806451613 2.89310344827586  4.06814516129032 2.87241379310345  C 4.07177419354839 2.86206896551724  4.07903225806452 2.8551724137931  4.08266129032258 2.84482758620689  C 4.1008064516129 2.81379310344827  4.11895161290322 2.78620689655172  4.13709677419355 2.7551724137931  C 4.14072580645161 2.75172413793103  4.14435483870967 2.74482758620689  4.14798387096774 2.74137931034482  C 4.1625 2.71724137931034  4.18064516129032 2.69310344827586  4.19516129032258 2.67241379310345  C 4.20241935483871 2.66206896551724  4.20967741935484 2.6551724137931  4.21693548387097 2.64482758620689  C 4.22782258064516 2.62758620689655  4.23870967741936 2.61379310344827  4.25322580645161 2.59655172413793  C 4.28225806451613 2.55862068965517  4.30766129032258 2.52413793103448  4.3366935483871 2.48965517241379  C 4.3366935483871 2.48620689655172  4.34032258064516 2.48620689655172  4.34032258064516 2.48275862068965  C 4.36572580645161 2.45172413793103  4.39475806451613 2.41724137931034  4.42379032258065 2.38620689655172  C 4.43104838709677 2.37586206896551  4.44193548387097 2.36896551724138  4.4491935483871 2.35862068965517  C 4.47096774193549 2.33448275862069  4.49274193548387 2.31379310344827  4.51451612903226 2.28965517241379  C 4.52177419354839 2.28275862068965  4.52903225806452 2.27241379310344  4.53991935483871 2.26551724137931  C 4.56895161290323 2.23793103448276  4.60161290322581 2.2103448275862  4.63064516129032 2.18275862068965  C 4.63427419354839 2.17931034482758  4.64153225806452 2.17586206896551  4.64516129032258 2.16896551724138  C 4.6741935483871 2.14482758620689  4.70322580645161 2.12413793103448  4.73225806451613 2.1  C 4.74314516129032 2.09310344827586  4.75040322580645 2.08620689655172  4.76129032258064 2.07931034482758  L 4.84838709677419 2.01724137931034  C 4.85564516129032 2.0103448275862  4.86653225806451 2.00689655172413  4.87379032258064 2  L 4.88104838709677 1.99310344827586  C 4.88467741935484 1.98965517241379  4.89193548387097 1.98620689655172  4.89556451612903 1.98275862068965  C 4.90282258064516 1.97931034482758  4.91008064516129 1.97241379310344  4.91733870967742 1.96896551724138  L 1.60766129032258 0.258620689655168  C 1.60040322580645 0.262068965517237  1.59314516129032 0.265517241379307  1.58588709677419 0.272413793103445  C 1.58225806451613 0.275862068965513  1.575 0.279310344827583  1.57137096774193 0.282758620689651  L 1.56774193548387 0.282758620689651  C 1.5641129032258 0.282758620689651  1.5641129032258 0.28620689655172  1.56048387096774 0.28620689655172  C 1.55685483870967 0.289655172413789  1.55322580645161 0.289655172413789  1.54959677419355 0.293103448275858  C 1.54596774193548 0.296551724137927  1.53870967741935 0.299999999999996  1.53508064516129 0.303448275862065  L 1.44798387096774 0.365517241379306  C 1.43709677419355 0.372413793103444  1.42620967741935 0.379310344827582  1.41895161290322 0.389655172413789  C 1.38991935483871 0.410344827586203  1.36088709677419 0.434482758620686  1.33185483870968 0.458620689655168  L 1.32096774193548 0.468965517241375  L 1.31733870967742 0.472413793103444  C 1.28467741935484 0.499999999999996  1.25564516129032 0.527586206896547  1.2266129032258 0.555172413793099  C 1.21935483870968 0.562068965517237  1.21209677419355 0.572413793103444  1.20120967741935 0.579310344827582  C 1.17943548387097 0.599999999999996  1.15766129032258 0.624137931034479  1.13588709677419 0.648275862068961  C 1.13225806451613 0.6551724137931  1.125 0.658620689655168  1.12137096774193 0.662068965517238  C 1.11774193548387 0.665517241379306  1.11411290322581 0.672413793103444  1.11048387096774 0.675862068965514  C 1.08145161290322 0.706896551724134  1.05241935483871 0.737931034482755  1.02701612903226 0.772413793103445  C 1.02701612903226 0.775862068965513  1.02338709677419 0.775862068965513  1.02338709677419 0.779310344827583  C 0.994354838709675 0.813793103448272  0.965322580645159 0.851724137931031  0.939919354838707 0.886206896551721  C 0.936290322580642 0.88965517241379  0.932661290322578 0.893103448275858  0.929032258064513 0.899999999999997  C 0.921774193548384 0.910344827586204  0.91088709677419 0.924137931034479  0.903629032258062 0.934482758620687  C 0.896370967741933 0.944827586206894  0.889112903225803 0.951724137931031  0.881854838709675 0.962068965517239  C 0.867338709677417 0.986206896551721  0.849193548387094 1.00689655172414  0.834677419354836 1.03103448275862  C 0.831048387096771 1.03448275862069  0.827419354838707 1.04137931034483  0.823790322580642 1.04482758620689  C 0.805645161290319 1.07241379310345  0.787499999999996 1.10344827586207  0.769354838709674 1.13103448275862  C 0.76572580645161 1.13793103448276  0.75846774193548 1.14827586206896  0.754838709677416 1.15862068965517  C 0.743951612903222 1.17586206896552  0.736693548387093 1.18965517241379  0.725806451612899 1.20689655172414  C 0.722177419354835 1.2103448275862  0.722177419354835 1.21724137931034  0.71854838709677 1.22068965517241  L 0.68588709677419 1.28275862068965  C 0.678629032258061 1.29655172413793  0.671370967741931 1.31379310344827  0.660483870967738 1.32758620689655  C 0.649596774193544 1.34827586206896  0.638709677419352 1.37241379310345  0.627822580645158 1.39310344827586  L 0.606048387096771 1.43448275862069  C 0.595161290322577 1.45862068965517  0.584274193548384 1.48620689655172  0.57338709677419 1.51034482758621  C 0.566129032258061 1.52413793103448  0.562499999999996 1.53448275862069  0.555241935483867 1.54827586206896  C 0.537096774193545 1.58620689655172  0.522580645161286 1.62413793103448  0.508064516129028 1.66206896551724  C 0.504435483870964 1.67241379310345  0.497177419354834 1.68620689655172  0.49354838709677 1.7  C 0.482661290322576 1.72758620689655  0.471774193548383 1.75862068965517  0.460887096774189 1.78620689655172  C 0.45362903225806 1.80344827586207  0.446370967741931 1.82068965517241  0.442741935483866 1.83793103448276  C 0.424596774193544 1.89310344827586  0.406451612903221 1.94482758620689  0.388306451612899 2.00344827586207  C -0.181451612903226 3.8448275862069  0.181451612903226 6.66206896551724  1.48790322580645 9.36551724137931  C 2.5875 11.648275862069  4.1116935483871 13.3413793103448  5.5741935483871 14.1  L 8.88387096774194 15.8103448275862  Z " fill-rule="nonzero" fill="#d30032" stroke="none" transform="matrix(1 0 0 1 127 33 )" />
  </g>
</svg>