<?xml version="1.0" encoding="utf-8"?>
<svg version="1.1" xmlns:xlink="http://www.w3.org/1999/xlink" width="10px" height="8px" xmlns="http://www.w3.org/2000/svg">
  <g transform="matrix(1 0 0 1 -112 -47 )">
    <path d="M 3.64062500000001 5.21176470588235  C 3.66015625000001 5.18823529411765  3.66015625000001 5.18235294117647  3.66015625 5.17647058823529  C 3.6640625 5.13529411764706  3.66796875 5.09117647058824  3.671875 5.05  C 3.671875 5.04117647058824  3.671875 5.03529411764706  3.67578125 5.0264705882353  C 3.6796875 4.98529411764706  3.6875 4.94117647058824  3.69140625 4.9  C 3.69140625 4.89411764705883  3.6953125 4.88823529411765  3.6953125 4.88235294117647  L 3.71875 4.75882352941177  L 3.71875 4.75  C 3.7265625 4.70882352941177  3.73828125 4.66470588235295  3.75 4.62352941176471  C 3.75 4.61764705882353  3.75390625 4.60882352941177  3.75390625 4.60294117647059  C 3.765625 4.56176470588236  3.77734375 4.52058823529412  3.7890625 4.48235294117647  C 3.79296875 4.47352941176471  3.79296875 4.46764705882353  3.796875 4.45882352941177  C 3.80859375 4.41764705882353  3.82421875 4.3764705882353  3.83984375 4.33529411764706  C 3.83984375 4.33235294117647  3.84375 4.3264705882353  3.84375 4.32352941176471  C 3.859375 4.28529411764706  3.875 4.24411764705883  3.89062500000001 4.20588235294118  C 3.89062500000001 4.2  3.89453125000001 4.19705882352942  3.89453125000001 4.19117647058824  C 3.91015625000001 4.15  3.92968750000001 4.11176470588236  3.94921875000001 4.07352941176471  C 3.95312500000001 4.06764705882353  3.95703125000001 4.05882352941177  3.9609375 4.05294117647059  C 3.97265625 4.02941176470589  3.984375 4.00294117647059  3.99609375 3.97941176470588  C 4.0078125 3.95882352941177  4.01953125 3.93529411764706  4.03125 3.91470588235294  C 4.04296875 3.89117647058824  4.0546875 3.87058823529412  4.06640625 3.85  C 4.078125 3.82941176470588  4.08984375 3.80588235294118  4.1015625 3.78529411764706  C 4.11328125 3.76470588235294  4.12890625 3.74117647058823  4.140625 3.72058823529411  C 4.15234375 3.7  4.16796875 3.67941176470588  4.1796875 3.65882352941176  C 4.1953125 3.63823529411764  4.20703125 3.61764705882353  4.22265625 3.59411764705882  C 4.23828125 3.5735294117647  4.25 3.55294117647058  4.265625 3.53235294117646  C 4.2890625 3.4970588235294  4.31640625 3.46176470588235  4.34375 3.42647058823529  C 4.34765625 3.42058823529411  4.3515625 3.41470588235294  4.359375 3.40882352941176  C 4.3828125 3.37941176470587  4.40625 3.3470588235294  4.43359375 3.31764705882352  C 4.44140625 3.30882352941176  4.44921875 3.2970588235294  4.45703125 3.28823529411764  C 4.48828125 3.25294117647058  4.515625 3.21764705882352  4.546875 3.18235294117646  C 4.5703125 3.15882352941176  4.58984375 3.13529411764705  4.61328125 3.10882352941176  C 4.640625 3.07941176470587  4.66796875 3.05294117647058  4.6953125 3.0235294117647  C 4.69921875 3.01764705882352  4.70703125 3.01470588235293  4.7109375 3.00882352941176  C 4.734375 2.98529411764705  4.7578125 2.96470588235293  4.77734375 2.94117647058823  C 4.7890625 2.93235294117647  4.796875 2.9235294117647  4.80859375 2.91176470588235  L 4.8671875 2.85882352941176  C 4.87890625 2.85  4.890625 2.83823529411764  4.90234375 2.82941176470588  C 4.921875 2.81176470588235  4.94140625 2.79705882352941  4.9609375 2.77941176470588  C 4.97265625 2.77058823529411  4.984375 2.75882352941176  4.99609375 2.74999999999999  C 5.015625 2.73235294117646  5.0390625 2.71470588235293  5.05859375 2.69999999999999  C 5.0703125 2.69117647058823  5.078125 2.68235294117646  5.08984375 2.6735294117647  C 5.1171875 2.64999999999999  5.1484375 2.62941176470587  5.17578125 2.60588235294117  L 5.18359375 2.59999999999999  C 5.21484375 2.57647058823529  5.25 2.55294117647058  5.28125 2.52647058823529  C 5.29296875 2.52058823529411  5.30078125 2.51176470588235  5.3125 2.50588235294117  C 5.3359375 2.48823529411764  5.359375 2.4735294117647  5.3828125 2.45588235294117  C 5.39453125 2.4470588235294  5.40625 2.44117647058823  5.41796875 2.43235294117646  C 5.44140625 2.41470588235293  5.46875 2.39999999999999  5.4921875 2.38235294117646  C 5.50390624999999 2.3735294117647  5.515625 2.36764705882352  5.52734375 2.35882352941176  C 5.55859374999999 2.34117647058823  5.5859375 2.32058823529411  5.61718749999999 2.30294117647058  C 5.625 2.29999999999999  5.63281249999999 2.29411764705882  5.64062499999999 2.29117647058823  C 5.67968749999999 2.26764705882352  5.71484374999999 2.2470588235294  5.75390624999999 2.22647058823529  C 5.76562499999999 2.22058823529411  5.77343749999999 2.21470588235293  5.78515624999999 2.20882352941176  C 5.81249999999999 2.19411764705881  5.84374999999999 2.17647058823528  5.87109374999999 2.16176470588234  L 5.90624999999999 2.14411764705881  L 6.04687499999999 2.0735294117647  L 6.05078124999999 2.0735294117647  C 6.09765625 2.04999999999999  6.14453124999999 2.02941176470587  6.19140625 2.00882352941175  C 6.20312499999999 2.00294117647058  6.21484375 1.99999999999999  6.22656249999999 1.99411764705881  C 6.2734375 1.97352941176469  6.32421874999999 1.95294117647058  6.37109375 1.93529411764705  C 6.37890625 1.93235294117646  6.38281249999999 1.92941176470587  6.390625 1.92647058823528  C 6.43359375 1.90882352941175  6.48046874999999 1.89117647058822  6.5234375 1.87647058823528  C 6.53515624999999 1.87352941176469  6.546875 1.86764705882352  6.55859374999999 1.86470588235293  C 6.59765624999999 1.84999999999999  6.63671874999999 1.83823529411764  6.6796875 1.8235294117647  C 6.68359375 1.8235294117647  6.6875 1.82058823529411  6.6875 1.82058823529411  C 6.73046875 1.80588235294117  6.7734375 1.79411764705881  6.8203125 1.77941176470587  C 6.83203124999999 1.77647058823528  6.84765625 1.77058823529411  6.859375 1.76764705882352  C 6.89062499999999 1.75882352941176  6.921875 1.74999999999999  6.95703125 1.74117647058823  C 6.97265625 1.73823529411764  6.98828124999999 1.73235294117646  7 1.72941176470587  C 7.03515625 1.72058823529411  7.0703125 1.71176470588234  7.1015625 1.70294117647058  C 7.11328125 1.69999999999999  7.125 1.6970588235294  7.1328125 1.69411764705882  C 7.1796875 1.68529411764705  7.22265624999999 1.6735294117647  7.26953125 1.66470588235294  C 7.28124999999999 1.66176470588235  7.2890625 1.66176470588235  7.30078124999999 1.65882352941176  C 7.33593749999999 1.65294117647058  7.37109374999999 1.64411764705882  7.41015624999999 1.63823529411764  L 7.45703124999999 1.62941176470588  C 7.48828124999999 1.6235294117647  7.5234375 1.61764705882352  7.55468749999999 1.61470588235293  C 7.57031249999999 1.61176470588234  7.58203125 1.61176470588234  7.59765625 1.60882352941176  L 7.73828125 1.59117647058823  C 7.78125 1.58529411764705  7.82812499999999 1.58235294117646  7.87109375 1.57941176470587  C 7.87890625 1.57941176470587  7.890625 1.57647058823528  7.8984375 1.57647058823528  L 8.02734375 1.56764705882352  L 8.05078125 1.56764705882352  C 8.08984375 1.56470588235293  8.12890625 1.56470588235293  8.16796875 1.56470588235293  L 8.33593749999999 1.56470588235293  C 8.37890625 1.56470588235293  8.421875 1.56764705882352  8.4609375 1.56764705882352  L 8.47265624999999 1.56764705882352  C 8.51171874999999 1.57058823529411  8.55078124999999 1.57058823529411  8.58984374999999 1.5735294117647  C 8.59765625 1.5735294117647  8.60546874999999 1.5735294117647  8.61328125 1.57647058823529  C 8.65234375 1.57941176470588  8.6953125 1.58235294117647  8.734375 1.58823529411764  C 8.7421875 1.58823529411764  8.75 1.59117647058823  8.7578125 1.59117647058823  C 8.796875 1.59411764705882  8.8359375 1.59999999999999  8.875 1.60588235294117  L 8.8828125 1.60588235294117  C 8.921875 1.61176470588235  8.96484375 1.61764705882352  9.00390625 1.6235294117647  C 9.01171875 1.6235294117647  9.01953125 1.62647058823529  9.03125 1.62647058823529  C 9.0703125 1.63235294117647  9.10546875 1.63823529411764  9.14453125 1.64705882352941  C 9.1953125 1.65588235294117  9.24609375 1.66764705882353  9.296875 1.67941176470588  C 9.30859375 1.68235294117647  9.32421875 1.68529411764706  9.3359375 1.68823529411764  C 9.375 1.69705882352941  9.41015625 1.70588235294117  9.4453125 1.71764705882353  C 9.4609375 1.7235294117647  9.4765625 1.72647058823529  9.49609375 1.73235294117647  C 9.53125 1.74117647058823  9.5625 1.75294117647059  9.59765625 1.76176470588235  C 9.61328125 1.76764705882353  9.62890625 1.77058823529411  9.64453125 1.77647058823529  C 9.6875 1.79117647058823  9.7265625 1.80588235294117  9.76953125 1.82058823529411  C 9.7734375 1.8235294117647  9.78125 1.8235294117647  9.78515625 1.82647058823529  C 9.82421875 1.84117647058823  9.8671875 1.85882352941176  9.90625 1.8735294117647  L 6.34375 0.414705882352938  C 6.3046875 0.397058823529408  6.26171875 0.382352941176467  6.22265625 0.367647058823526  L 6.21875 0.367647058823526  C 6.21484375 0.364705882352937  6.2109375 0.364705882352937  6.203125 0.361764705882348  C 6.16015625 0.347058823529407  6.12109375 0.332352941176466  6.078125 0.317647058823525  C 6.0625 0.311764705882347  6.046875 0.308823529411761  6.03124999999999 0.302941176470584  C 5.99609375 0.291176470588231  5.96484374999999 0.282352941176465  5.92968749999999 0.273529411764701  C 5.91406249999999 0.267647058823523  5.8984375 0.264705882352938  5.87890625 0.25882352941176  C 5.84375 0.249999999999997  5.8046875 0.238235294117641  5.76953125 0.229411764705878  C 5.7578125 0.226470588235289  5.7421875 0.2235294117647  5.73046875 0.220588235294114  C 5.6796875 0.208823529411762  5.62890625 0.19705882352941  5.578125 0.188235294117643  L 5.5703125 0.188235294117643  C 5.53515625 0.182352941176465  5.5 0.176470588235291  5.4609375 0.167647058823524  C 5.453125 0.167647058823524  5.4453125 0.164705882352935  5.43359375 0.164705882352935  C 5.39453125 0.158823529411757  5.35546875 0.152941176470583  5.3125 0.147058823529405  L 5.30468749999999 0.147058823529405  C 5.26562499999999 0.141176470588227  5.22656249999999 0.138235294117642  5.18749999999999 0.132352941176464  C 5.17968749999999 0.132352941176464  5.17187499999999 0.129411764705875  5.16406249999999 0.129411764705875  C 5.12499999999999 0.126470588235286  5.08203124999999 0.120588235294112  5.04296874999999 0.117647058823523  C 5.03515624999999 0.117647058823523  5.02734374999999 0.117647058823523  5.01953124999999 0.114705882352934  C 4.98046874999999 0.111764705882345  4.94140624999999 0.108823529411756  4.90234374999999 0.108823529411756  L 4.89062499999999 0.108823529411756  C 4.84765624999999 0.105882352941167  4.80859374999999 0.105882352941167  4.76562499999999 0.105882352941167  L 4.59765625 0.105882352941167  C 4.55859375 0.105882352941167  4.51953125 0.108823529411756  4.48046875 0.108823529411756  L 4.45703125 0.108823529411756  L 4.328125 0.117647058823519  C 4.3203125 0.117647058823519  4.30859375 0.117647058823519  4.30078125 0.120588235294108  C 4.2578125 0.123529411764697  4.2109375 0.129411764705872  4.16796875 0.132352941176461  L 4.02734375 0.149999999999991  C 4.01171875 0.15294117647058  4 0.15294117647058  3.984375 0.155882352941168  C 3.94921875 0.161764705882346  3.91796875 0.164705882352932  3.88671875 0.17058823529411  L 3.83984375 0.179411764705873  C 3.8046875 0.185294117647051  3.76953125 0.191176470588225  3.73046875 0.199999999999992  C 3.71875 0.202941176470581  3.7109375 0.202941176470581  3.69921875 0.20588235294117  C 3.65234375 0.214705882352933  3.609375 0.2235294117647  3.5625 0.235294117647052  C 3.55078125 0.238235294117641  3.5390625 0.24117647058823  3.53125 0.244117647058816  C 3.49609375 0.252941176470579  3.46093750000001 0.261764705882346  3.4296875 0.270588235294109  C 3.4140625 0.273529411764698  3.3984375 0.279411764705872  3.38671875 0.282352941176461  C 3.35546875 0.291176470588225  3.32421875 0.299999999999991  3.2890625 0.308823529411755  C 3.27734375 0.311764705882344  3.26171875 0.314705882352933  3.25 0.320588235294107  C 3.20703125 0.332352941176459  3.1640625 0.3470588235294  3.1171875 0.361764705882342  C 3.11328125 0.361764705882342  3.109375 0.364705882352931  3.109375 0.364705882352931  C 3.0703125 0.376470588235283  3.02734375 0.391176470588224  2.98828125 0.405882352941165  C 2.984375 0.408823529411754  2.98046875 0.408823529411754  2.97265625 0.411764705882343  C 2.96484375 0.414705882352932  2.9609375 0.417647058823521  2.953125 0.420588235294106  C 2.90625 0.438235294117636  2.86328125 0.452941176470578  2.8203125 0.470588235294108  C 2.8125 0.473529411764697  2.80859375 0.476470588235285  2.80078125 0.479411764705871  C 2.75 0.49999999999999  2.703125 0.517647058823517  2.65625 0.538235294117636  C 2.64453125 0.544117647058813  2.6328125 0.547058823529399  2.62109375 0.552941176470577  C 2.57421875 0.573529411764696  2.52734375 0.594117647058812  2.48046875 0.617647058823519  C 2.48046875 0.617647058823519  2.4765625 0.617647058823519  2.4765625 0.620588235294108  L 2.3359375 0.691176470588225  C 2.33203125 0.694117647058814  2.32421875 0.697058823529403  2.3203125 0.699999999999989  C 2.3125 0.702941176470578  2.30859375 0.705882352941166  2.30078125 0.708823529411752  C 2.2734375 0.723529411764693  2.2421875 0.738235294117634  2.21484375 0.755882352941164  C 2.203125 0.761764705882342  2.1953125 0.767647058823517  2.18359375 0.773529411764694  C 2.14453125 0.794117647058813  2.109375 0.817647058823518  2.0703125 0.838235294117637  C 2.0625 0.841176470588226  2.0546875 0.8470588235294  2.046875 0.849999999999989  C 2.015625 0.867647058823519  1.98828125 0.885294117647049  1.95703125 0.905882352941165  C 1.9453125 0.914705882352928  1.93359375 0.920588235294106  1.921875 0.92941176470587  C 1.89453125 0.9470588235294  1.87109375 0.961764705882341  1.84765625 0.979411764705871  C 1.83984375 0.985294117647049  1.83203125 0.988235294117634  1.82421875 0.994117647058812  C 1.8203125 0.997058823529401  1.81640625 0.99999999999999  1.80859375 1.00294117647058  C 1.78515625 1.01764705882352  1.76171875 1.03529411764705  1.73828125 1.05294117647058  C 1.72656250000001 1.05882352941175  1.71875 1.06764705882352  1.70703125000001 1.0735294117647  C 1.67578125000001 1.0970588235294  1.640625 1.12058823529411  1.60937500000001 1.1470588235294  C 1.60546875000001 1.14999999999999  1.6015625 1.15294117647058  1.6015625 1.15588235294117  C 1.57421875 1.17647058823528  1.54296875 1.19999999999999  1.515625 1.22352941176469  C 1.50390625 1.23235294117646  1.49609375 1.24117647058822  1.484375 1.24999999999999  C 1.46484375 1.26764705882352  1.44140625 1.28529411764705  1.421875 1.30294117647057  C 1.41796875 1.30588235294116  1.4140625 1.31176470588234  1.40625 1.31470588235293  C 1.3984375 1.3205882352941  1.39453125000001 1.32647058823528  1.38671875 1.33235294117646  C 1.3671875 1.34999999999999  1.34765625 1.36470588235293  1.328125 1.38235294117646  C 1.31640625000001 1.39117647058822  1.3046875 1.40294117647058  1.29296875000001 1.41176470588234  L 1.23437500000001 1.46470588235293  C 1.22265625000001 1.47352941176469  1.21484375000001 1.48235294117646  1.20312500000001 1.49411764705881  C 1.17968750000001 1.51764705882351  1.15625000000001 1.53823529411763  1.13281250000001 1.56176470588234  C 1.12890625000001 1.56764705882351  1.12109375000001 1.5705882352941  1.11718750000001 1.57647058823528  C 1.08984375000001 1.60294117647057  1.06250000000001 1.63235294117645  1.03515625000001 1.66176470588234  C 1.03515625000001 1.66470588235293  1.03125000000001 1.66470588235293  1.03125000000001 1.66764705882351  C 1.01171875000001 1.69117647058822  0.988281250000007 1.71176470588234  0.968750000000007 1.73529411764704  C 0.937500000000009 1.7705882352941  0.906250000000006 1.80588235294116  0.878906250000009 1.84117647058822  C 0.871093750000007 1.84999999999998  0.86328125000001 1.86176470588234  0.855468750000008 1.8705882352941  C 0.832031250000007 1.89999999999998  0.80468750000001 1.93235294117646  0.781250000000009 1.96176470588234  C 0.777343750000008 1.96764705882352  0.773437500000007 1.97352941176469  0.76562500000001 1.97941176470587  C 0.742187500000009 2.00882352941175  0.718750000000008 2.04117647058822  0.695312500000012 2.07352941176469  C 0.691406250000011 2.07941176470587  0.68750000000001 2.08235294117646  0.68750000000001 2.08823529411763  C 0.671875000000011 2.10882352941175  0.660156250000008 2.12941176470587  0.644531250000009 2.14999999999999  C 0.62890625000001 2.17058823529411  0.617187500000007 2.19117647058822  0.601562500000008 2.21470588235293  C 0.58984375000001 2.23529411764705  0.574218750000006 2.25588235294116  0.562500000000008 2.27941176470587  C 0.55078125000001 2.29999999999999  0.535156250000006 2.3235294117647  0.523437500000008 2.34411764705881  C 0.51171875000001 2.36470588235293  0.500000000000007 2.38823529411764  0.488281250000009 2.40882352941176  C 0.476562500000011 2.42941176470588  0.464843750000008 2.45294117647058  0.45312500000001 2.4735294117647  C 0.441406250000012 2.49411764705882  0.429687500000009 2.51764705882352  0.417968750000011 2.53823529411764  C 0.410156250000009 2.55588235294117  0.398437500000011 2.5735294117647  0.390625000000009 2.58823529411764  C 0.386718750000008 2.59411764705882  0.382812500000007 2.60294117647058  0.378906250000011 2.60882352941176  C 0.37500000000001 2.61470588235294  0.371093750000009 2.6235294117647  0.367187500000012 2.62941176470588  C 0.347656250000012 2.66764705882353  0.332031250000013 2.70882352941177  0.312500000000013 2.74705882352941  C 0.312500000000013 2.75294117647059  0.308593750000012 2.75588235294117  0.308593750000012 2.76176470588235  C 0.292968750000013 2.8  0.277343750000014 2.84117647058824  0.261718750000011 2.87941176470588  C 0.261718750000011 2.88235294117647  0.25781250000001 2.88823529411765  0.25781250000001 2.89117647058823  C 0.242187500000011 2.93235294117647  0.230468750000008 2.9735294117647  0.214843750000009 3.01470588235294  C 0.210937500000008 3.0235294117647  0.210937500000008 3.02941176470588  0.207031250000007 3.03823529411765  C 0.195312500000009 3.07941176470588  0.183593750000006 3.11764705882353  0.171875000000008 3.15882352941176  C 0.171875000000008 3.16470588235294  0.167968750000007 3.17352941176471  0.167968750000007 3.17941176470588  C 0.156250000000009 3.22058823529412  0.148437500000007 3.26470588235294  0.136718750000009 3.30588235294118  L 0.136718750000009 3.31470588235294  L 0.113281250000008 3.43823529411765  C 0.113281250000008 3.44411764705882  0.109375000000007 3.45  0.109375000000007 3.45588235294118  C 0.101562500000005 3.49705882352941  0.0976562500000089 3.53823529411765  0.093750000000008 3.58235294117647  C 0.093750000000008 3.59117647058823  0.093750000000008 3.59705882352941  0.0898437500000071 3.60588235294117  C 0.0859375000000062 3.64705882352941  0.0820312500000053 3.68823529411764  0.0781250000000089 3.73235294117647  L 0.0781250000000089 3.75294117647059  C 0.074218750000008 3.79705882352941  0.074218750000008 3.84117647058823  0.074218750000008 3.88529411764706  C 0.074218750000008 4.34117647058823  0.187500000000007 4.76470588235294  0.390625000000009 5.13529411764706  C 0.714843750000007 5.7235294117647  1.26562500000001 6.19117647058823  1.96093750000001 6.47647058823529  L 5.52343750000001 7.93529411764706  C 4.82812500000001 7.65  4.27734375000001 7.18235294117647  3.95312500000001 6.59411764705882  C 3.75000000000001 6.22058823529411  3.63671875000001 5.8  3.63671875000001 5.34411764705882  C 3.63671875000001 5.3  3.63671875000001 5.25588235294117  3.64062500000001 5.21176470588235  Z " fill-rule="nonzero" fill="#d30032" stroke="none" transform="matrix(1 0 0 1 112 47 )" />
  </g>
</svg>