<?xml version="1.0" encoding="utf-8"?>
<svg version="1.1" xmlns:xlink="http://www.w3.org/1999/xlink" width="9px" height="14px" xmlns="http://www.w3.org/2000/svg">
  <g transform="matrix(1 0 0 1 -126 -36 )">
    <path d="M 8.7375 13.6668269230769  L 1.785 0.0471153846153848  C 1.77 0.0538461538461537  1.755 0.0639423076923079  1.73625 0.0774038461538465  C 1.26 0.370192307692308  0.896250000000001 0.83125  0.64875 1.41682692307692  C 0.603750000000001 1.52451923076923  0.5625 1.63557692307692  0.525 1.75  C -0.0637499999999996 3.54711538461539  0.31125 6.29663461538462  1.66125 8.93509615384615  C 2.88375 11.3245192307692  4.605 13.0576923076923  6.22125 13.7038461538462  C 6.79125 13.9326923076923  7.35 14.0269230769231  7.86 13.9596153846154  C 8.17125 13.9192307692308  8.46375 13.825  8.7375 13.6668269230769  Z " fill-rule="nonzero" fill="#f77490" stroke="none" transform="matrix(1 0 0 1 126 36 )" />
  </g>
</svg>