<?xml version="1.0" encoding="utf-8"?>
<svg version="1.1" xmlns:xlink="http://www.w3.org/1999/xlink" width="17px" height="24px" xmlns="http://www.w3.org/2000/svg">
  <g transform="matrix(1 0 0 1 -953 -459 )">
    <path d="M 16.9232638888889 1.4764705882353  C 16.9232638888889 0.920588235294128  16.6517361111111 0.470588235294128  16.2473958333333 0.252941176470588  C 16.2444444444444 0.25  16.2385416666667 0.25  16.2355902777778 0.247058823529412  C 16.2326388888889 0.247058823529412  16.2296875 0.244117647058824  16.2267361111111 0.241176470588236  C 16.2178819444445 0.23529411764706  16.2090277777778 0.232352941176471  16.1972222222222 0.226470588235295  C 16.1824652777778 0.220588235294118  16.1706597222222 0.214705882352941  16.1588541666667 0.208823529411765  C 16.1529513888889 0.205882352941177  16.1440972222222 0.202941176470589  16.1381944444444 0.2  C 16.1263888888889 0.194117647058824  16.1145833333333 0.191176470588235  16.1027777777778 0.185294117647059  C 16.096875 0.182352941176471  16.0909722222222 0.182352941176471  16.0880208333333 0.179411764705883  L 16.0850694444444 0.179411764705883  C 16.0732638888889 0.173529411764707  16.0614583333333 0.170588235294118  16.0467013888889 0.16764705882353  C 16.04375 0.16764705882353  16.0407986111111 0.164705882352942  16.0348958333333 0.164705882352942  C 16.0171875 0.158823529411766  16.0024305555556 0.155882352941177  15.9847222222222 0.150000000000001  C 15.9788194444444 0.150000000000001  15.9758680555556 0.147058823529413  15.9699652777778 0.147058823529413  L 15.9670138888889 0.147058823529413  C 15.9522569444444 0.144117647058825  15.9404513888889 0.141176470588236  15.9256944444444 0.138235294117648  C 15.9168402777778 0.135294117647059  15.9079861111111 0.135294117647059  15.8991319444444 0.132352941176471  C 15.8902777777778 0.129411764705883  15.8784722222222 0.129411764705883  15.8696180555556 0.126470588235295  C 15.8607638888889 0.126470588235295  15.8519097222222 0.123529411764707  15.8430555555556 0.123529411764707  C 15.83125 0.123529411764707  15.8194444444444 0.120588235294119  15.8105902777778 0.120588235294119  C 15.8046875 0.120588235294119  15.8017361111111 0.120588235294119  15.7987847222222 0.117647058823531  L 15.7574652777778 0.117647058823531  L 15.5862847222222 0.117647058823531  C 15.5744791666667 0.117647058823531  15.565625 0.117647058823531  15.5538194444444 0.120588235294119  C 15.5479166666667 0.120588235294119  15.5390625 0.120588235294119  15.5302083333333 0.123529411764707  C 15.5243055555556 0.123529411764707  15.5154513888889 0.126470588235295  15.5095486111111 0.126470588235295  C 15.4977430555556 0.126470588235295  15.4859375 0.129411764705883  15.4741319444444 0.132352941176471  L 13.1897569444444 0.452941176470589  L 13.1897569444444 0.911764705882353  C 13.1897569444444 1.34411764705882  12.8651041666667 1.73529411764706  12.4637152777778 1.79411764705882  C 12.0623263888889 1.85  11.7376736111111 1.55  11.740625 1.11764705882353  L 11.740625 0.658823529411765  L 9.30572916666667 1  L 9.30572916666667 1.45882352941176  C 9.30572916666667 1.48235294117647  9.30572916666667 1.50882352941176  9.30277777777778 1.53235294117647  L 9.30277777777778 1.54705882352941  C 9.30277777777778 1.55882352941176  9.29982638888889 1.56764705882353  9.29982638888889 1.57941176470588  C 9.29982638888889 1.58823529411765  9.296875 1.6  9.29392361111111 1.60882352941176  C 9.28802083333333 1.63823529411765  9.28211805555555 1.66764705882353  9.27326388888888 1.69705882352941  C 9.27031249999999 1.70882352941176  9.26736111111111 1.71764705882353  9.26440972222222 1.72941176470588  C 9.25260416666666 1.76764705882353  9.23784722222222 1.80588235294118  9.22013888888888 1.84411764705882  C 9.21423611111111 1.85882352941176  9.20538194444444 1.87058823529412  9.19947916666666 1.88529411764706  C 9.19947916666666 1.88823529411765  9.19652777777777 1.89117647058823  9.19357638888888 1.89411764705882  C 9.1876736111111 1.90588235294118  9.18177083333333 1.91764705882353  9.17291666666666 1.92941176470588  C 9.17291666666666 1.93235294117647  9.16996527777777 1.93235294117647  9.16996527777777 1.93529411764706  C 9.1611111111111 1.94705882352941  9.15520833333332 1.96176470588235  9.14635416666666 1.97352941176471  C 9.13749999999999 1.98823529411765  9.12864583333333 2  9.11684027777777 2.01176470588235  C 9.1079861111111 2.02352941176471  9.09618055555555 2.03529411764706  9.08732638888888 2.04705882352941  L 9.08437499999999 2.05  C 9.07552083333333 2.06176470588235  9.06666666666666 2.07058823529412  9.0548611111111 2.08235294117647  L 9.04895833333332 2.08823529411765  L 9.01944444444444 2.11764705882353  C 9.00763888888888 2.12941176470588  8.99583333333333 2.13823529411765  8.98402777777777 2.15  C 8.96336805555554 2.16764705882353  8.94565972222221 2.18235294117647  8.92499999999999 2.19705882352941  C 8.91319444444443 2.20588235294118  8.90138888888888 2.21176470588235  8.88958333333332 2.22058823529412  C 8.88368055555554 2.22352941176471  8.87482638888888 2.22941176470588  8.8689236111111 2.23235294117647  C 8.85711805555554 2.24117647058823  8.8423611111111 2.24705882352941  8.82760416666665 2.25588235294118  C 8.80399305555554 2.26764705882353  8.78333333333332 2.27941176470588  8.75972222222221 2.28823529411765  C 8.74791666666666 2.29411764705882  8.7361111111111 2.29705882352941  8.72430555555554 2.30294117647059  C 8.71249999999999 2.30588235294118  8.70069444444443 2.31176470588235  8.68888888888888 2.31470588235294  C 8.65347222222221 2.32647058823529  8.61510416666665 2.33529411764706  8.5767361111111 2.33823529411765  C 8.56197916666665 2.34117647058824  8.54427083333332 2.34117647058824  8.52951388888888 2.34411764705882  L 8.50590277777776 2.34411764705882  C 8.47638888888888 2.34411764705882  8.44687499999999 2.34411764705882  8.4173611111111 2.34117647058824  L 8.35538194444443 2.33235294117647  C 8.34357638888888 2.32941176470588  8.33472222222221 2.32647058823529  8.32586805555554 2.32647058823529  C 8.31406249999999 2.32352941176471  8.30520833333332 2.32058823529412  8.29635416666665 2.31764705882353  C 8.28749999999999 2.31470588235294  8.27569444444443 2.31176470588235  8.26684027777777 2.30588235294118  C 8.2579861111111 2.30294117647059  8.25208333333332 2.3  8.24322916666666 2.29705882352941  C 8.24027777777776 2.29411764705882  8.23437499999999 2.29411764705882  8.2314236111111 2.29117647058823  C 8.22552083333332 2.28823529411765  8.21666666666666 2.28529411764706  8.21076388888888 2.28235294117647  C 8.20190972222221 2.27647058823529  8.19305555555554 2.2735294117647  8.18420138888888 2.26764705882353  C 8.17534722222221 2.26470588235294  8.16944444444443 2.25882352941176  8.16059027777777 2.25294117647059  C 8.15468749999999 2.25  8.14583333333332 2.24411764705882  8.13993055555554 2.23823529411765  C 8.13402777777777 2.23529411764706  8.12812499999999 2.22941176470588  8.12222222222221 2.22647058823529  C 8.09270833333332 2.20294117647059  8.06319444444443 2.17941176470588  8.03958333333332 2.15  C 8.03368055555554 2.14411764705882  8.02777777777777 2.13529411764706  8.02187499999999 2.12941176470588  C 8.01302083333332 2.12058823529412  8.00711805555554 2.11176470588235  7.99826388888888 2.1  C 7.9923611111111 2.09411764705882  7.98940972222221 2.08823529411765  7.98645833333332 2.08235294117647  C 7.9657986111111 2.05294117647059  7.94809027777777 2.02352941176471  7.93333333333332 1.99117647058823  C 7.92743055555555 1.98235294117647  7.92447916666666 1.97352941176471  7.92152777777777 1.96470588235294  C 7.91562499999999 1.95294117647059  7.91267361111111 1.94117647058823  7.90677083333333 1.92941176470588  C 7.90381944444444 1.92058823529412  7.90086805555555 1.91470588235294  7.89791666666666 1.90588235294118  C 7.8890625 1.87647058823529  7.88020833333333 1.84411764705882  7.87430555555555 1.81176470588235  C 7.87430555555555 1.80588235294118  7.87135416666666 1.8  7.87135416666666 1.79411764705882  C 7.87135416666666 1.78823529411765  7.86840277777777 1.78235294117647  7.86840277777777 1.77352941176471  L 7.86840277777777 1.76470588235294  C 7.86840277777777 1.75588235294118  7.86545138888888 1.74705882352941  7.86545138888888 1.73823529411765  C 7.86545138888888 1.72352941176471  7.86249999999999 1.70882352941176  7.86249999999999 1.69411764705882  L 7.86249999999999 1.19705882352941  L 5.42465277777777 1.53823529411765  L 5.42465277777777 1.99705882352941  C 5.42465277777777 2.02058823529412  5.42465277777777 2.04411764705882  5.42170138888888 2.06470588235294  L 5.42170138888888 2.06764705882353  C 5.42170138888888 2.07352941176471  5.42170138888888 2.08235294117647  5.41874999999999 2.08823529411765  C 5.41874999999999 2.09705882352941  5.41874999999999 2.10294117647059  5.4157986111111 2.11176470588235  C 5.4157986111111 2.11764705882353  5.4157986111111 2.12352941176471  5.41284722222221 2.12941176470588  L 5.41284722222221 2.13529411764706  C 5.41284722222221 2.14411764705882  5.40989583333332 2.15  5.40989583333332 2.15882352941176  C 5.40694444444443 2.17058823529412  5.40399305555554 2.18235294117647  5.40104166666666 2.19705882352941  C 5.39809027777777 2.21176470588235  5.39513888888888 2.22352941176471  5.39218749999999 2.23823529411765  C 5.3892361111111 2.24705882352941  5.38628472222221 2.25882352941176  5.38333333333332 2.26764705882353  C 5.37743055555554 2.28235294117647  5.37447916666665 2.29705882352941  5.36857638888888 2.30882352941176  C 5.36562499999999 2.31470588235294  5.3626736111111 2.32352941176471  5.35972222222221 2.32941176470588  C 5.35677083333332 2.33529411764706  5.35381944444443 2.34411764705882  5.35086805555554 2.35  C 5.34496527777776 2.36470588235294  5.33906249999999 2.37647058823529  5.33315972222221 2.39117647058823  C 5.32725694444443 2.40588235294118  5.32135416666665 2.41764705882353  5.31249999999999 2.42941176470588  C 5.30659722222221 2.44117647058824  5.29774305555554 2.45588235294118  5.29184027777776 2.46764705882353  C 5.28593749999999 2.47941176470588  5.27708333333332 2.49117647058824  5.26822916666665 2.50588235294118  L 5.24166666666665 2.54117647058824  C 5.23281249999999 2.55  5.22690972222221 2.56176470588235  5.21805555555554 2.57058823529412  C 5.21805555555554 2.57352941176471  5.21510416666665 2.57352941176471  5.21215277777776 2.57647058823529  C 5.19444444444443 2.6  5.1767361111111 2.62058823529412  5.15607638888888 2.64117647058824  L 5.12656249999999 2.67058823529412  C 5.11770833333332 2.67941176470588  5.10885416666665 2.68529411764706  5.09999999999999 2.69411764705882  C 5.09114583333332 2.70294117647059  5.07934027777777 2.71176470588235  5.0704861111111 2.71764705882353  C 5.06163194444443 2.7264705882353  5.04982638888888 2.73235294117647  5.03802083333332 2.74117647058824  L 5.01145833333332 2.75882352941177  C 5.00850694444443 2.76176470588236  5.00555555555554 2.76176470588236  5.00260416666666 2.76470588235294  C 4.99374999999999 2.77058823529412  4.98489583333332 2.7764705882353  4.97309027777777 2.78235294117647  C 4.96128472222221 2.78823529411765  4.95243055555554 2.79411764705883  4.94062499999999 2.8  C 4.92881944444443 2.80588235294118  4.91701388888888 2.81176470588236  4.90815972222221 2.81764705882353  C 4.89635416666665 2.82352941176471  4.8845486111111 2.82941176470589  4.87274305555554 2.83235294117647  C 4.83732638888888 2.84705882352942  4.79895833333332 2.85882352941177  4.76059027777776 2.86764705882353  C 4.7517361111111 2.87058823529412  4.74288194444443 2.87352941176471  4.73402777777777 2.87352941176471  C 4.73107638888888 2.87352941176471  4.72812499999999 2.87352941176471  4.7251736111111 2.8764705882353  C 4.71336805555554 2.87941176470589  4.70156249999999 2.87941176470589  4.69270833333332 2.88235294117647  C 4.29131944444443 2.93823529411765  3.96961805555554 2.63529411764706  3.96961805555554 2.20294117647059  L 3.96961805555554 1.74411764705883  L 1.69114583333332 2.06176470588236  C 1.66753472222221 2.06470588235295  1.64687499999999 2.06764705882353  1.62326388888888 2.07352941176471  C 1.6173611111111 2.07352941176471  1.61145833333332 2.0764705882353  1.60555555555554 2.0764705882353  C 1.59965277777776 2.0764705882353  1.5907986111111 2.07941176470589  1.58489583333332 2.08235294117647  C 1.57604166666665 2.08529411764706  1.5642361111111 2.08529411764706  1.55538194444443 2.08823529411765  C 1.54947916666665 2.09117647058824  1.54357638888888 2.09117647058824  1.5376736111111 2.09411764705883  C 1.51701388888887 2.1  1.49340277777776 2.10588235294118  1.47274305555554 2.11176470588236  C 1.46979166666665 2.11176470588236  1.46684027777776 2.11470588235294  1.46388888888887 2.11470588235294  C 1.44618055555554 2.12058823529412  1.42552083333332 2.1264705882353  1.40781249999999 2.13235294117647  C 1.40190972222221 2.13529411764706  1.39600694444443 2.13823529411765  1.39010416666665 2.13823529411765  C 1.37534722222221 2.14411764705883  1.35763888888887 2.15  1.33993055555554 2.15588235294118  C 1.33402777777776 2.15882352941177  1.33107638888887 2.15882352941177  1.3251736111111 2.16176470588235  L 1.26319444444443 2.18823529411765  C 1.25729166666665 2.19117647058824  1.24843749999999 2.19411764705883  1.24253472222221 2.2  C 1.22777777777776 2.20588235294118  1.21302083333332 2.21470588235294  1.20121527777776 2.22058823529412  C 1.1923611111111 2.22352941176471  1.18350694444443 2.22941176470588  1.17760416666665 2.23529411764706  C 1.1657986111111 2.24117647058824  1.15104166666665 2.25  1.1392361111111 2.25588235294118  C 1.13038194444443 2.26176470588235  1.12152777777776 2.26470588235294  1.1126736111111 2.27058823529412  C 1.10086805555554 2.27647058823529  1.08906249999999 2.28529411764706  1.07725694444443 2.29411764705883  L 1.05069444444443 2.31176470588235  C 1.04184027777776 2.31764705882353  1.0329861111111 2.32352941176471  1.02413194444443 2.33235294117647  C 0.997569444444433 2.35  0.973958333333322 2.36764705882353  0.95034722222221 2.38823529411765  C 0.947395833333321 2.38823529411765  0.947395833333321 2.39117647058824  0.944444444444433 2.39411764705882  C 0.935590277777766 2.40294117647059  0.923784722222211 2.40882352941177  0.914930555555544 2.41764705882353  C 0.909027777777766 2.42058823529412  0.906076388888877 2.4264705882353  0.900173611111099 2.42941176470588  C 0.888368055555545 2.43823529411765  0.879513888888877 2.44705882352941  0.867708333333321 2.45588235294118  C 0.861805555555544 2.46176470588235  0.852951388888876 2.46764705882353  0.847048611111099 2.47352941176471  L 0.838194444444432 2.48235294117647  C 0.823437499999988 2.49705882352941  0.808680555555543 2.50882352941177  0.793923611111099 2.52352941176471  L 0.779166666666654 2.53823529411765  C 0.755555555555543 2.56176470588236  0.734895833333321 2.58235294117647  0.714236111111099 2.60588235294118  C 0.708333333333322 2.61176470588236  0.705381944444432 2.61470588235294  0.702430555555544 2.62058823529412  C 0.693576388888877 2.62941176470589  0.68472222222221 2.63823529411765  0.678819444444433 2.65  C 0.669965277777766 2.65882352941177  0.664062499999988 2.67058823529412  0.655208333333321 2.67941176470588  C 0.649305555555544 2.68823529411765  0.643402777777766 2.69411764705883  0.637499999999987 2.70294117647059  C 0.622743055555543 2.72352941176471  0.607986111111098 2.74411764705883  0.593229166666654 2.76176470588236  L 0.593229166666654 2.76470588235294  C 0.590277777777764 2.77058823529412  0.587326388888876 2.77352941176471  0.581423611111099 2.77941176470589  C 0.563715277777765 2.80588235294118  0.543055555555543 2.83529411764706  0.525347222222211 2.86176470588236  C 0.522395833333321 2.86764705882353  0.516493055555544 2.8764705882353  0.513541666666656 2.88235294117647  C 0.513541666666656 2.88529411764706  0.510590277777766 2.88529411764706  0.510590277777766 2.88823529411765  C 0.504687499999989 2.9  0.495833333333322 2.91176470588236  0.489930555555544 2.92352941176471  C 0.484027777777767 2.93235294117647  0.47812499999999 2.94411764705883  0.4751736111111 2.95294117647059  C 0.47222222222221 2.96176470588236  0.466319444444433 2.96764705882353  0.463368055555545 2.9764705882353  C 0.460416666666656 2.97941176470589  0.460416666666656 2.98529411764706  0.457465277777768 2.98823529411765  C 0.454513888888878 2.99117647058824  0.454513888888878 2.99705882352941  0.45156249999999 3  C 0.445659722222213 3.01470588235294  0.436805555555546 3.0264705882353  0.430902777777768 3.04117647058824  C 0.427951388888879 3.05  0.422048611111101 3.05882352941177  0.419097222222213 3.06764705882353  C 0.413194444444436 3.08235294117647  0.407291666666659 3.09705882352941  0.398437499999992 3.10882352941176  C 0.395486111111102 3.11764705882353  0.392534722222214 3.12647058823529  0.386631944444437 3.13529411764706  C 0.380729166666659 3.15  0.374826388888882 3.16764705882353  0.368923611111103 3.18235294117647  C 0.365972222222213 3.18823529411765  0.363020833333325 3.19705882352941  0.360069444444436 3.20294117647059  C 0.357118055555546 3.20882352941176  0.354166666666658 3.21764705882353  0.354166666666658 3.22352941176471  C 0.348263888888881 3.24117647058824  0.342361111111103 3.25588235294118  0.336458333333324 3.2735294117647  L 0.336458333333324 3.27941176470588  C 0.336458333333324 3.28235294117647  0.336458333333324 3.28235294117647  0.333506944444435 3.28529411764706  C 0.327604166666657 3.30882352941176  0.31874999999999 3.33235294117647  0.312847222222213 3.35588235294117  C 0.309895833333323 3.37058823529412  0.306944444444435 3.38235294117647  0.301041666666658 3.39705882352941  L 0.292187499999991 3.43235294117647  L 0.283333333333324 3.47647058823529  C 0.280381944444434 3.48823529411764  0.277430555555546 3.5  0.277430555555546 3.51176470588235  C 0.274479166666657 3.52647058823529  0.271527777777769 3.54117647058823  0.271527777777769 3.55588235294117  C 0.271527777777769 3.56176470588235  0.26857638888888 3.56764705882352  0.26857638888888 3.5735294117647  C 0.26857638888888 3.57941176470588  0.26562499999999 3.58529411764706  0.26562499999999 3.59117647058823  C 0.2626736111111 3.60588235294117  0.2626736111111 3.6235294117647  0.259722222222212 3.63823529411764  C 0.259722222222212 3.65  0.256770833333323 3.65882352941176  0.256770833333323 3.67058823529412  C 0.253819444444433 3.68823529411765  0.253819444444433 3.70588235294117  0.253819444444433 3.7235294117647  C 0.253819444444433 3.73235294117647  0.250868055555544 3.74117647058823  0.250868055555544 3.75  C 0.247916666666654 3.77647058823529  0.247916666666654 3.80294117647059  0.247916666666654 3.82941176470588  L 0.242013888888877 5.27058823529412  L 0.209548611111098 22.5588235294118  L 0.209548611111098 22.6147058823529  C 0.209548611111098 22.6323529411765  0.209548611111098 22.65  0.212499999999988 22.6647058823529  C 0.212499999999988 22.6823529411765  0.215451388888877 22.6970588235294  0.215451388888877 22.7147058823529  C 0.218402777777767 22.7323529411765  0.218402777777767 22.7529411764706  0.221354166666655 22.7705882352941  C 0.224305555555544 22.7852941176471  0.224305555555544 22.8  0.227256944444432 22.8117647058824  C 0.230208333333322 22.8264705882353  0.23315972222221 22.8441176470588  0.236111111111099 22.8588235294118  C 0.239062499999989 22.8735294117647  0.242013888888877 22.8911764705882  0.244965277777766 22.9058823529412  C 0.247916666666656 22.9205882352941  0.250868055555544 22.9382352941176  0.256770833333321 22.9529411764706  C 0.259722222222211 22.9647058823529  0.262673611111099 22.9794117647059  0.268576388888876 22.9911764705882  C 0.271527777777766 23  0.271527777777766 23.0058823529412  0.274479166666654 23.0147058823529  C 0.277430555555543 23.0235294117647  0.280381944444431 23.0352941176471  0.283333333333321 23.0441176470588  C 0.303993055555542 23.1058823529412  0.327604166666654 23.1647058823529  0.354166666666653 23.2205882352941  L 0.371874999999987 23.2558823529412  C 0.398437499999987 23.3088235294118  0.430902777777765 23.3588235294118  0.466319444444431 23.4088235294118  L 0.492881944444431 23.4441176470588  C 0.528298611111097 23.4911764705882  0.566666666666653 23.5352941176471  0.607986111111097 23.5764705882353  L 0.637499999999986 23.6058823529412  C 0.658159722222208 23.6235294117647  0.678819444444429 23.6441176470588  0.699479166666653 23.6617647058824  C 0.720138888888875 23.6794117647059  0.740798611111097 23.6941176470588  0.764409722222208 23.7117647058824  L 0.844097222222208 23.7647058823529  C 0.849999999999985 23.7676470588235  0.855902777777763 23.7705882352941  0.858854166666652 23.7735294117647  L 0.873611111111097 23.7823529411765  L 0.879513888888874 23.7852941176471  C 1.10381944444443 23.9058823529412  1.36944444444443 23.9588235294118  1.65277777777776 23.9176470588235  L 15.4387152777778 21.9882352941176  C 16.2385416666667 21.8764705882353  16.8907986111111 21.0882352941176  16.8907986111111 20.2264705882353  L 16.8996527777778 15.6617647058824  L 13.8479166666667 19.3352941176471  L 13.8449652777778 19.3323529411765  L 11.3982638888889 20.2176470588235  L 9.91076388888887 20.7529411764706  L 8.54427083333332 19.9970588235294  L 8.85121527777776 18.3558823529412  L 9.17586805555554 16.6323529411765  L 2.95434027777776 17.5029411764706  C 2.63559027777776 17.5470588235294  2.37291666666665 17.3029411764706  2.37586805555554 16.9588235294118  C 2.37586805555554 16.6176470588235  2.63559027777776 16.2970588235294  2.95729166666665 16.2529411764706  L 9.63628472222221 15.3176470588235  L 11.6019097222222 12.9323529411765  L 2.96024305555554 14.1441176470588  C 2.64149305555554 14.1882352941176  2.38177083333332 13.9441176470588  2.38177083333332 13.6  C 2.38177083333332 13.5764705882353  2.38177083333332 13.5558823529412  2.38472222222221 13.5323529411765  C 2.38472222222221 13.5176470588235  2.3876736111111 13.5029411764706  2.39062499999999 13.4882352941177  C 2.39062499999999 13.4852941176471  2.39062499999999 13.4794117647059  2.39357638888888 13.4764705882353  C 2.39357638888888 13.4735294117647  2.39357638888888 13.4705882352941  2.39652777777777 13.4676470588235  C 2.39947916666666 13.45  2.40538194444443 13.4323529411765  2.40833333333332 13.4117647058824  C 2.41128472222221 13.4  2.4142361111111 13.3852941176471  2.42013888888888 13.3735294117647  C 2.42309027777777 13.3676470588235  2.42604166666665 13.3588235294118  2.42899305555554 13.35  C 2.43194444444443 13.3411764705882  2.43489583333332 13.3294117647059  2.4407986111111 13.3205882352941  C 2.44965277777776 13.3  2.45850694444443 13.2823529411765  2.4673611111111 13.2647058823529  C 2.47326388888887 13.2529411764706  2.47916666666665 13.2441176470588  2.48506944444443 13.2323529411765  C 2.48802083333332 13.2264705882353  2.4939236111111 13.2176470588235  2.49687499999999 13.2117647058824  C 2.50277777777776 13.2029411764706  2.50868055555554 13.1941176470588  2.51458333333332 13.1823529411765  C 2.51458333333332 13.1794117647059  2.51753472222221 13.1794117647059  2.5204861111111 13.1764705882353  C 2.52638888888887 13.1676470588235  2.53229166666665 13.1588235294118  2.53819444444443 13.1529411764706  C 2.54114583333332 13.15  2.54409722222221 13.1441176470588  2.5470486111111 13.1411764705882  C 2.55295138888888 13.1323529411765  2.56180555555554 13.1235294117647  2.57065972222221 13.114705882353  C 2.57951388888888 13.1029411764706  2.58836805555554 13.0941176470588  2.6001736111111 13.0823529411765  L 2.60902777777777 13.0735294117647  C 2.61788194444443 13.064705882353  2.62968749999999 13.0558823529412  2.63854166666665 13.0470588235294  C 2.65034722222221 13.0382352941177  2.66215277777777 13.0294117647059  2.67100694444443 13.0205882352941  C 2.6798611111111 13.014705882353  2.68871527777777 13.0058823529412  2.69756944444443 13  C 2.70937499999999 12.9941176470588  2.71822916666665 12.9852941176471  2.73003472222221 12.9794117647059  C 2.74184027777777 12.9735294117647  2.75069444444443 12.9676470588235  2.76249999999999 12.9617647058824  C 2.77135416666666 12.9588235294118  2.77725694444443 12.9529411764706  2.7861111111111 12.95  L 2.80381944444443 12.9411764705882  C 2.80972222222221 12.9382352941177  2.81857638888888 12.9352941176471  2.82447916666666 12.9323529411765  C 2.83038194444443 12.9294117647059  2.83628472222221 12.9264705882353  2.84513888888888 12.9235294117647  L 2.84809027777777 12.9235294117647  L 2.87465277777777 12.914705882353  C 2.88055555555554 12.9117647058824  2.88940972222221 12.9117647058824  2.89531249999999 12.9088235294118  C 2.90711805555554 12.9058823529412  2.92187499999999 12.9029411764706  2.93368055555554 12.9  C 2.94253472222221 12.8970588235294  2.95434027777777 12.8970588235294  2.96319444444443 12.8941176470588  L 12.7647569444444 11.5205882352941  L 14.8130208333333 9.03529411764707  L 14.8130208333333 9.03235294117648  L 15.6039930555555 8.07647058823531  L 16.1086805555555 7.46470588235295  C 16.3329861111111 7.19117647058825  16.6163194444444 7.01176470588236  16.9085069444444 6.92941176470589  L 16.9173611111111 3.81764705882354  L 16.9232638888889 1.4764705882353  Z M 2.3640625 20.2264705882353  C 2.37586805555555 20.2264705882353  2.37586805555555 20.2235294117647  2.37586805555556 20.2176470588235  C 2.37586805555556 20.2117647058824  2.37881944444444 20.2058823529412  2.37881944444444 20.1970588235294  C 2.38177083333333 20.1882352941176  2.38177083333333 20.1764705882353  2.38472222222222 20.1676470588235  L 2.39357638888889 20.1323529411765  L 2.39357638888889 20.1294117647059  C 2.39652777777778 20.1176470588235  2.39947916666667 20.1058823529412  2.40243055555556 20.0970588235294  C 2.40538194444445 20.0852941176471  2.41128472222222 20.0735294117647  2.41423611111111 20.0617647058823  L 2.41423611111111 20.0588235294118  C 2.4171875 20.0470588235294  2.42309027777778 20.0382352941176  2.42899305555556 20.0264705882353  C 2.43489583333333 20.0147058823529  2.44079861111111 20.0029411764706  2.44375 19.9941176470588  C 2.44670138888889 19.9852941176471  2.45260416666667 19.9794117647059  2.45555555555556 19.9705882352941  C 2.45850694444444 19.9676470588235  2.45850694444444 19.9617647058823  2.46145833333333 19.9588235294118  C 2.46736111111111 19.95  2.47326388888889 19.9411764705882  2.47916666666667 19.9294117647059  L 2.496875 19.9029411764706  C 2.49982638888889 19.8970588235294  2.50572916666667 19.8911764705882  2.50868055555556 19.8852941176471  C 2.51163194444444 19.8823529411765  2.51458333333333 19.8794117647059  2.51753472222222 19.8735294117647  C 2.52048611111111 19.8676470588235  2.52638888888889 19.8617647058824  2.52934027777778 19.8588235294118  C 2.53229166666667 19.8558823529412  2.53524305555556 19.8529411764706  2.53524305555556 19.85  C 2.54114583333333 19.8441176470588  2.54409722222222 19.8382352941176  2.55 19.8323529411765  C 2.56475694444444 19.8176470588235  2.57951388888889 19.8  2.59427083333333 19.7852941176471  C 2.60902777777778 19.7705882352941  2.62378472222222 19.7588235294118  2.64149305555556 19.7441176470588  C 2.65034722222222 19.7382352941176  2.65625 19.7323529411765  2.66510416666667 19.7264705882353  C 2.67395833333333 19.7205882352941  2.6828125 19.7117647058823  2.69166666666667 19.7058823529412  C 2.70052083333333 19.7  2.70642361111111 19.6970588235294  2.71527777777778 19.6911764705882  C 2.72413194444444 19.6852941176471  2.73298611111111 19.6823529411765  2.74184027777778 19.6764705882353  C 2.75659722222222 19.6676470588235  2.77135416666667 19.6617647058823  2.78611111111111 19.6558823529412  C 2.79201388888889 19.6529411764706  2.79791666666667 19.65  2.80086805555556 19.65  L 2.82743055555555 19.6411764705882  L 2.85399305555555 19.6323529411765  L 2.88055555555555 19.6235294117647  C 2.89236111111111 19.6205882352941  2.90416666666666 19.6176470588235  2.91302083333333 19.6176470588235  C 2.921875 19.6147058823529  2.93072916666667 19.6147058823529  2.94253472222222 19.6117647058823  L 7.915625 18.9147058823529  C 8.234375 18.8705882352941  8.49704861111111 19.1147058823529  8.49409722222222 19.4588235294118  C 8.49114583333333 19.8029411764706  8.23142361111111 20.1205882352941  7.91267361111111 20.1647058823529  L 2.93958333333333 20.8617647058823  C 2.78611111111111 20.8823529411765  2.64739583333333 20.8382352941176  2.54114583333333 20.7470588235294  L 2.5234375 20.7294117647059  L 2.50572916666666 20.7117647058823  C 2.49392361111111 20.7  2.48211805555555 20.6882352941176  2.47326388888888 20.6735294117647  C 2.46736111111111 20.6676470588235  2.46440972222222 20.6588235294118  2.45850694444444 20.6529411764706  L 2.43194444444444 20.6088235294118  C 2.42899305555555 20.6029411764706  2.42309027777777 20.5941176470588  2.42013888888889 20.5852941176471  C 2.4171875 20.5764705882353  2.41128472222222 20.5705882352941  2.40833333333333 20.5617647058823  C 2.40538194444444 20.5529411764706  2.40243055555555 20.5470588235294  2.39947916666666 20.5382352941176  C 2.39652777777777 20.5294117647059  2.39357638888889 20.5205882352941  2.390625 20.5088235294118  C 2.38472222222222 20.4941176470588  2.38177083333333 20.4764705882353  2.37586805555555 20.4588235294118  C 2.37291666666666 20.45  2.37291666666666 20.4411764705882  2.36996527777777 20.4323529411765  C 2.36701388888889 20.4235294117647  2.36701388888889 20.4147058823529  2.3640625 20.4029411764706  C 2.36111111111111 20.3852941176471  2.36111111111111 20.3676470588235  2.35815972222222 20.3470588235294  L 2.35815972222222 20.3147058823529  C 2.35815972222222 20.2941176470588  2.35815972222222 20.2705882352941  2.36111111111111 20.25  C 2.36111111111111 20.2411764705882  2.3640625 20.2323529411765  2.3640625 20.2264705882353  Z M 14.7392361111111 8.51470588235294  C 14.7392361111111 8.53235294117647  14.7392361111111 8.54705882352941  14.7362847222222 8.56470588235294  C 14.7362847222222 8.57058823529412  14.7362847222222 8.57941176470588  14.7333333333333 8.58529411764706  L 14.7333333333333 8.59705882352941  C 14.7333333333333 8.60882352941176  14.7303819444444 8.61764705882353  14.7274305555556 8.62941176470588  L 14.7274305555556 8.63235294117647  C 14.7274305555556 8.64117647058823  14.7244791666667 8.64705882352941  14.7215277777778 8.65588235294118  C 14.7215277777778 8.66176470588235  14.7185763888889 8.67058823529412  14.715625 8.67647058823529  C 14.7097222222222 8.7  14.7038194444444 8.72352941176471  14.6949652777778 8.74411764705883  C 14.6920138888889 8.75294117647059  14.6890625 8.76176470588235  14.6861111111111 8.77352941176471  C 14.6861111111111 8.77647058823529  14.6831597222222 8.77941176470588  14.6831597222222 8.78235294117647  C 14.6802083333333 8.79117647058824  14.6743055555556 8.8  14.6713541666667 8.80882352941176  C 14.6654513888889 8.82058823529412  14.6625 8.83235294117647  14.6565972222222 8.84117647058824  C 14.6506944444444 8.85  14.6477430555555 8.86176470588235  14.6418402777778 8.87058823529412  C 14.6300347222222 8.89411764705882  14.6152777777778 8.91764705882353  14.5975694444444 8.93823529411765  C 14.5916666666667 8.94705882352941  14.5857638888889 8.95588235294118  14.5769097222222 8.96470588235294  L 14.5739583333333 8.96764705882353  C 14.5680555555555 8.9764705882353  14.5592013888889 8.98529411764706  14.5532986111111 8.99411764705882  L 14.5503472222222 8.99705882352941  C 14.5444444444444 9.00588235294118  14.5355902777778 9.01470588235294  14.5267361111111 9.02352941176471  L 14.5001736111111 9.05  C 14.4854166666667 9.06470588235294  14.4706597222222 9.07647058823529  14.4529513888889 9.09117647058823  C 14.4381944444444 9.10294117647059  14.4204861111111 9.11470588235294  14.4027777777778 9.12647058823529  C 14.3939236111111 9.13235294117647  14.3850694444444 9.13823529411765  14.3762152777778 9.14117647058823  C 14.3673611111111 9.14705882352941  14.3585069444444 9.15294117647059  14.3496527777778 9.15588235294118  C 14.34375 9.15882352941176  14.3348958333333 9.16470588235294  14.3260416666667 9.16764705882353  C 14.3230902777778 9.16764705882353  14.3230902777778 9.17058823529412  14.3201388888889 9.17058823529412  C 14.3112847222222 9.1735294117647  14.3024305555555 9.17941176470588  14.2935763888889 9.18235294117647  C 14.2847222222222 9.18529411764706  14.2758680555555 9.19117647058823  14.2670138888889 9.19411764705882  C 14.2493055555555 9.2  14.2286458333333 9.20588235294117  14.2109375 9.21176470588235  L 14.2079861111111 9.21176470588235  C 14.1991319444444 9.21470588235294  14.1902777777778 9.21470588235294  14.1814236111111 9.21764705882353  C 14.1725694444444 9.22058823529412  14.1607638888889 9.22058823529412  14.1519097222222 9.2235294117647  L 2.96024305555555 10.7911764705882  C 2.93368055555555 10.7941176470588  2.91006944444444 10.7970588235294  2.88645833333333 10.7970588235294  L 2.85989583333333 10.7970588235294  C 2.84809027777777 10.7970588235294  2.83628472222222 10.7970588235294  2.82447916666666 10.7941176470588  C 2.81857638888888 10.7941176470588  2.80972222222222 10.7911764705882  2.80381944444444 10.7911764705882  C 2.79496527777777 10.7882352941176  2.78611111111111 10.7882352941176  2.77725694444444 10.7852941176471  L 2.74184027777777 10.7764705882353  L 2.71527777777777 10.7676470588235  C 2.69756944444444 10.7617647058823  2.67986111111111 10.7529411764706  2.66215277777777 10.7441176470588  C 2.65329861111111 10.7411764705882  2.64444444444444 10.7352941176471  2.63854166666666 10.7294117647059  C 2.6296875 10.7235294117647  2.62378472222222 10.7205882352941  2.61493055555555 10.7147058823529  C 2.60902777777777 10.7117647058824  2.603125 10.7058823529412  2.59722222222222 10.7029411764706  C 2.59427083333333 10.7  2.59131944444444 10.6970588235294  2.58541666666666 10.6941176470588  C 2.57951388888889 10.6882352941176  2.57361111111111 10.6852941176471  2.56770833333333 10.6794117647059  C 2.56180555555555 10.6735294117647  2.55295138888888 10.6676470588235  2.54704861111111 10.6588235294118  L 2.52934027777777 10.6411764705882  C 2.51753472222222 10.6294117647059  2.50572916666666 10.6176470588235  2.49687499999999 10.6029411764706  C 2.49097222222222 10.5970588235294  2.48802083333333 10.5882352941176  2.48211805555555 10.5823529411765  C 2.47916666666666 10.5764705882353  2.47621527777777 10.5735294117647  2.47031249999999 10.5676470588235  C 2.46736111111111 10.5617647058824  2.46145833333333 10.5558823529412  2.45850694444444 10.55  L 2.44965277777777 10.5323529411765  C 2.44670138888888 10.5264705882353  2.44375 10.5235294117647  2.44079861111111 10.5176470588235  C 2.42899305555555 10.4941176470588  2.42013888888888 10.4705882352941  2.41128472222222 10.4441176470588  L 2.40243055555555 10.4176470588235  C 2.39947916666666 10.4088235294118  2.39652777777777 10.4  2.39652777777777 10.3911764705882  C 2.39652777777777 10.3823529411765  2.39357638888888 10.3735294117647  2.39062499999999 10.3647058823529  C 2.38767361111111 10.3588235294118  2.38767361111111 10.35  2.38767361111111 10.3441176470588  L 2.38767361111111 10.3382352941176  C 2.38472222222222 10.3205882352941  2.38472222222222 10.3029411764706  2.38177083333333 10.2823529411765  L 2.38177083333333 10.25  C 2.38177083333333 10.1647058823529  2.39947916666666 10.0794117647059  2.42899305555555 10.0029411764706  C 2.43489583333333 9.98235294117647  2.44375 9.96470588235294  2.45260416666666 9.94411764705882  C 2.46145833333333 9.92647058823529  2.4703125 9.90588235294117  2.48211805555555 9.88823529411765  C 2.48802083333333 9.87647058823529  2.496875 9.86470588235294  2.50277777777777 9.85588235294117  L 2.52048611111111 9.82941176470588  C 2.5234375 9.82647058823529  2.52638888888888 9.82058823529411  2.52934027777777 9.81764705882353  C 2.53524305555555 9.80882352941176  2.54114583333333 9.8  2.55 9.79117647058824  C 2.56475694444444 9.7735294117647  2.57951388888889 9.75588235294118  2.59722222222222 9.73823529411765  L 2.60607638888889 9.72941176470588  C 2.61197916666666 9.72352941176471  2.62083333333333 9.71470588235294  2.6296875 9.70882352941176  C 2.63559027777777 9.70294117647059  2.64149305555555 9.7  2.64739583333333 9.69411764705882  C 2.65329861111111 9.68823529411765  2.65920138888889 9.68235294117647  2.66510416666667 9.67941176470588  C 2.69166666666666 9.65882352941176  2.71822916666667 9.64117647058823  2.74479166666666 9.62352941176471  L 2.7625 9.61470588235294  C 2.78315972222222 9.60294117647059  2.80086805555556 9.59411764705882  2.82152777777778 9.58529411764706  C 2.83038194444444 9.58235294117647  2.83923611111111 9.57647058823529  2.85104166666667 9.57352941176471  L 2.87760416666666 9.56470588235294  C 2.88940972222222 9.56176470588235  2.89826388888889 9.55882352941176  2.91006944444444 9.55588235294118  C 2.91892361111111 9.55294117647059  2.92777777777778 9.55  2.93663194444444 9.55  L 2.94253472222222 9.55  C 2.95138888888889 9.54705882352941  2.96024305555555 9.54705882352941  2.96909722222222 9.54411764705882  L 14.1607638888889 7.97058823529412  C 14.4795138888889 7.92647058823529  14.7421875 8.17058823529412  14.7392361111111 8.51470588235294  Z M 15.3619791666667 2.93235294117647  L 15.3590277777778 5.87941176470588  C 15.3590277777778 6.06470588235294  15.2173611111111 6.23823529411765  15.0432291666667 6.26176470588235  L 2.09253472222222 8.07647058823529  C 1.99809027777778 8.09117647058823  1.91545138888889 8.05588235294118  1.85642361111111 7.99411764705882  C 1.85052083333333 7.98823529411765  1.84461805555555 7.97941176470588  1.83871527777777 7.97352941176471  C 1.8328125 7.96764705882353  1.82690972222222 7.95882352941176  1.82395833333333 7.95  C 1.82100694444444 7.94411764705882  1.81805555555555 7.93823529411765  1.81215277777778 7.93235294117647  L 1.80329861111111 7.91470588235294  L 1.79444444444444 7.88823529411765  C 1.79149305555555 7.88235294117647  1.79149305555555 7.87647058823529  1.78854166666666 7.8735294117647  C 1.78854166666666 7.87058823529411  1.78559027777777 7.86470588235294  1.78559027777777 7.86176470588235  L 1.78559027777777 7.85588235294118  C 1.78559027777777 7.85  1.78263888888888 7.84411764705882  1.78263888888888 7.83823529411765  C 1.78263888888888 7.83235294117647  1.7796875 7.8235294117647  1.7796875 7.81470588235294  L 1.7796875 7.81176470588235  L 1.7796875 7.78529411764706  L 1.78559027777777 4.84117647058823  L 1.78559027777777 4.8235294117647  L 1.78559027777777 4.82058823529411  C 1.78559027777777 4.80882352941176  1.78854166666666 4.8  1.78854166666666 4.78823529411764  C 1.78854166666666 4.78235294117647  1.79149305555555 4.7735294117647  1.79149305555555 4.76764705882352  C 1.79149305555555 4.76176470588235  1.79444444444444 4.75294117647058  1.79739583333333 4.74705882352941  C 1.79739583333333 4.74411764705882  1.80034722222222 4.73823529411764  1.80034722222222 4.73529411764706  C 1.80034722222222 4.72941176470588  1.80329861111111 4.7235294117647  1.80625 4.72058823529411  C 1.80920138888889 4.71176470588235  1.81215277777777 4.70294117647058  1.81805555555555 4.69411764705882  C 1.82100694444444 4.68823529411764  1.82395833333333 4.67941176470588  1.82690972222222 4.6735294117647  C 1.82986111111111 4.66470588235294  1.83576388888889 4.65588235294117  1.83871527777777 4.65  C 1.84166666666666 4.64411764705882  1.84756944444444 4.63529411764706  1.85052083333333 4.62941176470588  C 1.85642361111111 4.6235294117647  1.859375 4.61470588235294  1.86527777777777 4.60882352941176  C 1.87118055555555 4.60294117647059  1.87413194444444 4.59411764705882  1.88003472222222 4.58823529411765  C 1.88593749999999 4.58235294117647  1.89184027777777 4.57647058823529  1.89774305555555 4.56764705882353  L 1.91545138888888 4.55  L 1.93315972222222 4.53235294117647  C 1.9390625 4.52647058823529  1.94496527777777 4.5235294117647  1.95381944444444 4.51764705882353  C 1.95677083333333 4.51470588235294  1.96267361111111 4.51176470588235  1.96857638888889 4.50882352941176  C 1.97152777777777 4.50588235294117  1.97743055555555 4.50294117647059  1.98038194444444 4.5  C 1.98333333333333 4.49705882352941  1.98628472222222 4.49705882352941  1.98628472222222 4.49705882352941  C 1.9921875 4.49411764705882  1.99809027777777 4.49117647058823  2.00104166666666 4.48823529411764  L 2.01875 4.47941176470588  C 2.02170138888889 4.47647058823529  2.02465277777777 4.47647058823529  2.02760416666666 4.4735294117647  C 2.03350694444444 4.47058823529411  2.03940972222222 4.47058823529411  2.0453125 4.46764705882353  C 2.04826388888889 4.46764705882353  2.05121527777777 4.46470588235294  2.05121527777777 4.46470588235294  C 2.05711805555555 4.46176470588235  2.06302083333333 4.46176470588235  2.06597222222222 4.46176470588235  C 2.07777777777777 4.45882352941176  2.08663194444444 4.45588235294117  2.0984375 4.45588235294117  L 15.0491319444444 2.64117647058823  C 15.1612847222222 2.62647058823529  15.2586805555556 2.6735294117647  15.3147569444444 2.76176470588235  C 15.3177083333333 2.76764705882352  15.3206597222222 2.7735294117647  15.3236111111111 2.77647058823529  L 15.3324652777778 2.79411764705882  C 15.3354166666667 2.79705882352941  15.3354166666667 2.80294117647059  15.3383680555556 2.80588235294117  C 15.3383680555556 2.80882352941176  15.3413194444444 2.81176470588235  15.3413194444444 2.81470588235294  L 15.3413194444444 2.81764705882353  C 15.3413194444444 2.82058823529412  15.3442708333333 2.82647058823529  15.3472222222222 2.83235294117647  C 15.3501736111111 2.83823529411764  15.3501736111111 2.84411764705882  15.353125 2.85  C 15.3560763888889 2.85882352941176  15.3560763888889 2.86470588235294  15.3590277777778 2.8735294117647  C 15.3590277777778 2.87941176470588  15.3619791666667 2.88529411764706  15.3619791666667 2.89117647058823  L 15.3619791666667 2.93235294117647  Z " fill-rule="nonzero" fill="#fef8e6" stroke="none" transform="matrix(1 0 0 1 953 459 )" />
  </g>
</svg>