<?xml version="1.0" encoding="utf-8"?>
<svg version="1.1" xmlns:xlink="http://www.w3.org/1999/xlink" width="20px" height="21px" xmlns="http://www.w3.org/2000/svg">
  <g transform="matrix(1 0 0 1 -116 -454 )">
    <path d="M 0.213768115942024 11.802  C 0.221014492753618 6.1285  4.64130434782608 0.930999999999999  10.0833333333333 0.1925  C 15.5253623188406 -0.546  19.9275362318841 3.4545  19.9166666666667 9.128  C 19.9130434782609 10.6085  19.6123188405797 12.0575  19.0688405797101 13.4015  C 18.8442028985507 13.958  18.5869565217391 14.4795  18.2934782608696 14.9835  C 18.0072463768116 15.477  17.6847826086957 15.9495  17.3369565217391 16.3975  C 16.518115942029 17.43  15.5434782608696 18.3365  14.4565217391304 19.0505  C 14.0326086956522 19.3305  13.5869565217391 19.5825  13.1304347826087 19.803  C 12.6920289855072 20.013  12.2427536231884 20.1915  11.7826086956522 20.342  C 11.2173913043478 20.524  10.6376811594203 20.657  10.0434782608696 20.7375  C 9.45289855072464 20.818  8.87681159420289 20.8425  8.31884057971014 20.8145  C 7.85869565217391 20.7935  7.40579710144927 20.734  6.96739130434782 20.643  C 6.51086956521739 20.5485  6.06884057971014 20.419  5.64130434782608 20.2545  C 4.55434782608695 19.8345  3.58333333333333 19.194  2.77536231884058 18.3785  C 2.42753623188405 18.0285  2.10869565217391 17.6435  1.82246376811594 17.227  C 1.52898550724637 16.8035  1.27536231884058 16.3485  1.05797101449275 15.869  C 0.514492753623184 14.665  0.210144927536228 13.2895  0.213768115942024 11.802  Z M 1.84782608695652 11.571  C 1.83695652173913 16.2995  5.5036231884058 19.6455  10.0471014492754 19.0295  C 14.5869565217391 18.4135  18.2717391304348 14.0735  18.2789855072464 9.3485  C 18.286231884058 4.6235  14.6268115942029 1.2705  10.0797101449275 1.89  C 5.53985507246377 2.506  1.85507246376812 6.846  1.84782608695652 11.571  Z " fill-rule="nonzero" fill="#fdf17f" stroke="none" transform="matrix(1 0 0 1 116 454 )" />
  </g>
</svg>