<?xml version="1.0" encoding="utf-8"?>
<svg version="1.1" xmlns:xlink="http://www.w3.org/1999/xlink" width="15px" height="18px" xmlns="http://www.w3.org/2000/svg">
  <g transform="matrix(1 0 0 1 -119 -456 )">
    <path d="M 0.0969827586206878 10.0928571428571  C 0.103448275862067 5.26785714285714  3.39116379310345 0.842857142857144  7.44181034482759 0.214285714285714  C 11.4989224137931 -0.414285714285714  14.7672413793103 3  14.7575431034483 7.825  C 14.7478448275862 12.65  11.4633620689655 17.075  7.41271551724138 17.7035714285714  C 3.36206896551724 18.3321428571429  0.0872844827586185 14.9178571428571  0.0969827586206878 10.0928571428571  Z M 1.67456896551724 9.84285714285714  C 1.66810344827586 13.6321428571429  4.24461206896552 16.3035714285714  7.41594827586207 15.8107142857143  C 10.5872844827586 15.3178571428571  13.1734913793103 11.8607142857143  13.1799568965517 8.06785714285714  C 13.1864224137931 4.275  10.6099137931034 1.61071428571429  7.4385775862069 2.10357142857143  C 4.25754310344828 2.59642857142857  1.68103448275862 6.05357142857143  1.67456896551724 9.84285714285714  Z " fill-rule="nonzero" fill="#ffa300" stroke="none" transform="matrix(1 0 0 1 119 456 )" />
  </g>
</svg>