<?xml version="1.0" encoding="utf-8"?>
<svg version="1.1" xmlns:xlink="http://www.w3.org/1999/xlink" width="9px" height="4px" xmlns="http://www.w3.org/2000/svg">
  <g transform="matrix(1 0 0 1 -964 -463 )">
    <path d="M 8.01477272727272 2.775  C 8.01818181818182 2.77222222222222  8.025 2.77222222222222  8.03181818181818 2.77222222222222  C 8.04545454545455 2.77222222222222  8.0625 2.76944444444444  8.07613636363636 2.76944444444444  L 8.16136363636364 2.76944444444444  C 8.18181818181818 2.76944444444444  8.20227272727273 2.76944444444444  8.22613636363636 2.77222222222222  L 8.23636363636363 2.77222222222222  C 8.25340909090909 2.77222222222222  8.27045454545454 2.775  8.2875 2.775  C 8.29431818181818 2.775  8.30113636363636 2.775  8.30795454545454 2.77777777777778  C 8.32159090909091 2.77777777777778  8.33863636363636 2.78055555555556  8.35227272727272 2.78333333333333  C 8.35909090909091 2.78333333333333  8.36590909090909 2.78611111111111  8.37272727272727 2.78611111111111  C 8.38977272727272 2.78888888888889  8.40340909090909 2.79166666666667  8.42045454545454 2.79444444444445  C 8.42386363636363 2.79444444444445  8.43068181818181 2.79722222222223  8.43409090909091 2.79722222222223  C 8.45454545454545 2.8  8.475 2.80555555555556  8.49545454545454 2.80833333333334  C 8.50227272727272 2.80833333333334  8.50568181818181 2.81111111111111  8.51249999999999 2.81111111111111  C 8.52613636363636 2.81388888888889  8.53977272727272 2.81666666666667  8.55681818181817 2.82222222222222  C 8.56363636363636 2.825  8.57045454545454 2.825  8.57727272727272 2.82777777777778  C 8.59090909090908 2.83055555555556  8.60454545454545 2.83611111111111  8.61477272727272 2.83888888888889  C 8.62159090909091 2.84166666666667  8.62840909090908 2.84166666666667  8.63522727272727 2.84444444444445  C 8.64886363636363 2.84722222222222  8.66249999999999 2.85277777777778  8.67613636363636 2.85833333333333  C 8.68295454545454 2.86111111111111  8.68636363636363 2.86111111111111  8.69318181818181 2.86388888888889  C 8.71363636363636 2.86944444444444  8.73068181818181 2.87777777777778  8.74772727272727 2.88611111111111  C 8.76477272727272 2.89166666666667  8.77840909090909 2.9  8.79545454545454 2.90555555555556  L 2.58068181818181 0.150000000000001  C 2.56363636363636 0.141666666666667  2.54999999999999 0.136111111111112  2.53295454545454 0.130555555555557  C 2.51590909090909 0.122222222222223  2.49545454545454 0.116666666666668  2.47840909090908 0.108333333333334  C 2.4715909090909 0.105555555555556  2.46818181818181 0.105555555555556  2.46136363636363 0.102777777777779  C 2.44772727272727 0.0972222222222238  2.4340909090909 0.0944444444444454  2.42045454545454 0.0888888888888902  C 2.41363636363635 0.0861111111111117  2.40681818181818 0.0861111111111117  2.39999999999999 0.0833333333333349  C 2.38636363636363 0.0805555555555565  2.37272727272727 0.0750000000000013  2.36249999999999 0.0722222222222244  C 2.35568181818181 0.069444444444446  2.34886363636363 0.069444444444446  2.34204545454544 0.0666666666666692  C 2.32840909090908 0.0638888888888908  2.31477272727272 0.061111111111114  2.29772727272726 0.0555555555555587  C 2.29431818181817 0.0555555555555587  2.29090909090908 0.0527777777777803  2.2840909090909 0.0527777777777803  L 2.28068181818181 0.0527777777777803  C 2.26022727272726 0.0472222222222251  2.23977272727272 0.0444444444444467  2.21931818181817 0.0416666666666698  C 2.21590909090908 0.0416666666666698  2.2090909090909 0.0388888888888914  2.20568181818181 0.0388888888888914  C 2.18863636363636 0.036111111111113  2.17499999999999 0.0333333333333362  2.15795454545454 0.0305555555555578  C 2.15113636363636 0.0305555555555578  2.14431818181818 0.0277777777777794  2.13749999999999 0.0277777777777794  C 2.12386363636363 0.0250000000000009  2.10681818181818 0.0250000000000009  2.09318181818181 0.0222222222222241  C 2.08636363636363 0.0222222222222241  2.07954545454545 0.0222222222222241  2.07272727272727 0.0194444444444457  C 2.05568181818181 0.0194444444444457  2.03863636363636 0.0166666666666673  2.0215909090909 0.0166666666666673  L 2.01136363636363 0.0166666666666673  C 1.99090909090909 0.0166666666666673  1.97045454545454 0.0166666666666673  1.94659090909091 0.0138888888888889  L 1.86136363636363 0.0138888888888889  C 1.84772727272727 0.0138888888888889  1.83068181818182 0.0166666666666673  1.81704545454545 0.0166666666666673  L 1.79659090909091 0.0166666666666673  C 1.77613636363636 0.0194444444444457  1.75227272727273 0.0194444444444457  1.73181818181818 0.0222222222222225  C 1.66363636363636 0.0305555555555562  1.59545454545454 0.0416666666666667  1.52727272727273 0.0555555555555556  C 1.50681818181818 0.0611111111111108  1.48295454545455 0.066666666666666  1.4625 0.0722222222222229  C 1.45568181818182 0.0750000000000013  1.44886363636364 0.0750000000000013  1.44204545454545 0.0777777777777781  C 1.42840909090909 0.0805555555555565  1.41136363636364 0.0861111111111117  1.39772727272727 0.0888888888888886  C 1.3875 0.091666666666667  1.38068181818182 0.0944444444444438  1.37386363636363 0.0972222222222222  C 1.36022727272727 0.100000000000001  1.34659090909091 0.105555555555556  1.33636363636363 0.111111111111111  C 1.32613636363636 0.11388888888889  1.31931818181818 0.116666666666666  1.30909090909091 0.119444444444445  C 1.29545454545455 0.125  1.28522727272727 0.127777777777778  1.27159090909091 0.133333333333334  C 1.26818181818182 0.133333333333334  1.26818181818182 0.136111111111112  1.26477272727272 0.136111111111112  L 1.24431818181818 0.144444444444446  C 1.23068181818181 0.150000000000001  1.22045454545454 0.152777777777779  1.20681818181818 0.158333333333335  C 1.19659090909091 0.161111111111113  1.18977272727272 0.166666666666668  1.17954545454545 0.169444444444445  C 1.16931818181818 0.175  1.15568181818181 0.180555555555556  1.14545454545454 0.186111111111112  C 1.13522727272727 0.191666666666668  1.12840909090909 0.194444444444446  1.11818181818182 0.200000000000001  C 1.10795454545455 0.205555555555556  1.09431818181818 0.211111111111112  1.08409090909091 0.216666666666669  C 1.07386363636364 0.222222222222224  1.06704545454545 0.225000000000002  1.05681818181818 0.230555555555557  C 1.04659090909091 0.236111111111113  1.03295454545454 0.241666666666668  1.02272727272727 0.250000000000002  C 1.01931818181818 0.25277777777778  1.0125 0.255555555555557  1.00909090909091 0.258333333333335  C 1.00568181818182 0.261111111111114  1.00227272727273 0.261111111111114  1.00227272727273 0.26388888888889  C 0.975000000000001 0.280555555555558  0.94431818181818 0.297222222222224  0.917045454545454 0.313888888888891  C 0.913636363636362 0.316666666666669  0.906818181818183 0.319444444444446  0.903409090909091 0.322222222222224  C 0.876136363636365 0.338888888888892  0.848863636363636 0.358333333333336  0.82159090909091 0.37777777777778  L 0.818181818181818 0.380555555555558  C 0.79431818181818 0.400000000000003  0.770454545454546 0.41666666666667  0.746590909090908 0.436111111111114  L 0.729545454545454 0.450000000000003  C 0.705681818181816 0.469444444444447  0.681818181818182 0.488888888888891  0.657954545454544 0.511111111111114  C 0.640909090909089 0.525000000000003  0.623863636363635 0.54166666666667  0.610227272727272 0.558333333333336  L 0.0272727272727257 1.13611111111111  L 6.23863636363636 3.89722222222222  L 6.82159090909091 3.31944444444444  C 6.83863636363636 3.30277777777778  6.85227272727273 3.28888888888889  6.86931818181818 3.27222222222222  C 6.89318181818182 3.25  6.91704545454545 3.23055555555556  6.94090909090909 3.21111111111111  L 6.95795454545455 3.19722222222222  C 6.98181818181818 3.17777777777778  7.00568181818182 3.15833333333333  7.02954545454546 3.14166666666667  L 7.03636363636364 3.13611111111111  C 7.06363636363637 3.11666666666667  7.09090909090909 3.09722222222222  7.11818181818182 3.08055555555556  C 7.12159090909091 3.07777777777778  7.125 3.075  7.13181818181818 3.07222222222222  C 7.15909090909091 3.05555555555556  7.18636363636364 3.03611111111111  7.21704545454546 3.02222222222222  C 7.22386363636364 3.01666666666667  7.23068181818182 3.01388888888889  7.24090909090909 3.00833333333333  C 7.25113636363637 3.00277777777778  7.26477272727273 2.99722222222222  7.275 2.98888888888889  C 7.28522727272727 2.98333333333333  7.29204545454546 2.98055555555556  7.30227272727273 2.975  C 7.3125 2.96944444444445  7.32613636363637 2.96388888888889  7.33636363636364 2.95833333333333  C 7.34659090909091 2.95277777777778  7.35340909090909 2.95  7.36363636363636 2.94444444444444  C 7.37386363636363 2.93888888888889  7.3875 2.93333333333333  7.39772727272727 2.92777777777778  C 7.40795454545454 2.925  7.41477272727273 2.91944444444444  7.425 2.91666666666667  C 7.43863636363636 2.91111111111111  7.44886363636364 2.90555555555556  7.4625 2.90277777777778  C 7.47272727272727 2.9  7.47954545454545 2.89444444444444  7.48977272727273 2.89166666666667  C 7.50340909090909 2.88611111111111  7.51363636363636 2.88333333333333  7.52727272727273 2.87777777777778  C 7.5375 2.875  7.54431818181818 2.87222222222222  7.55454545454545 2.86944444444444  C 7.56818181818181 2.86388888888889  7.58181818181818 2.86111111111111  7.59204545454545 2.85555555555556  C 7.59886363636364 2.85277777777778  7.60909090909091 2.85  7.61590909090909 2.84722222222222  C 7.62954545454545 2.84166666666667  7.64318181818182 2.83888888888889  7.66022727272727 2.83611111111111  C 7.66704545454545 2.83333333333333  7.67386363636363 2.83333333333333  7.68068181818182 2.83055555555556  C 7.70113636363636 2.825  7.725 2.81944444444445  7.74545454545454 2.81388888888889  C 7.81363636363636 2.79722222222222  7.88181818181818 2.78611111111111  7.95 2.78055555555556  C 7.97045454545454 2.77777777777778  7.99431818181818 2.775  8.01477272727272 2.775  Z " fill-rule="nonzero" fill="#d30032" stroke="none" transform="matrix(1 0 0 1 964 463 )" />
  </g>
</svg>