<?xml version="1.0" encoding="utf-8"?>
<svg version="1.1" xmlns:xlink="http://www.w3.org/1999/xlink" width="7px" height="6px" xmlns="http://www.w3.org/2000/svg">
  <g transform="matrix(1 0 0 1 -951 -454 )">
    <path d="M 5.74181034482759 4.49659090909091  C 5.74784482758621 4.47272727272727  5.74784482758621 4.4625  5.75086206896552 4.45227272727273  C 5.75086206896552 4.44545454545455  5.75086206896552 4.43863636363636  5.75387931034483 4.43181818181818  C 5.75387931034483 4.42159090909091  5.75689655172414 4.41477272727273  5.75689655172414 4.40454545454545  C 5.75689655172414 4.39772727272727  5.75991379310345 4.39090909090909  5.75991379310345 4.38409090909091  C 5.75991379310345 4.37727272727273  5.76293103448276 4.36704545454545  5.76293103448276 4.36022727272727  C 5.76293103448276 4.35340909090909  5.76594827586207 4.34659090909091  5.76594827586207 4.33977272727273  C 5.76594827586207 4.33295454545455  5.76896551724138 4.32272727272727  5.76896551724138 4.31590909090909  C 5.76896551724138 4.30909090909091  5.77198275862069 4.30227272727273  5.775 4.29545454545455  C 5.77801724137931 4.28863636363636  5.77801724137931 4.27840909090909  5.78103448275863 4.27159090909091  C 5.78405172413794 4.26477272727273  5.78405172413794 4.25795454545455  5.78706896551725 4.25113636363637  C 5.79008620689656 4.24431818181818  5.79008620689656 4.23409090909091  5.79310344827587 4.22727272727273  C 5.79612068965518 4.22045454545455  5.79612068965518 4.21363636363637  5.79913793103449 4.20681818181818  C 5.8021551724138 4.2  5.8021551724138 4.19318181818182  5.80517241379311 4.18295454545455  C 5.81120689655173 4.1625  5.82025862068966 4.14204545454546  5.82931034482759 4.11818181818182  C 5.8323275862069 4.11477272727273  5.8323275862069 4.11136363636364  5.83534482758621 4.10795454545455  L 5.8625 4.04659090909091  C 5.86551724137931 4.04318181818182  5.86551724137931 4.03977272727273  5.86853448275862 4.03295454545455  C 5.87456896551724 4.01931818181818  5.88060344827586 4.00568181818182  5.88965517241379 3.99204545454546  C 5.89267241379311 3.98863636363637  5.89267241379311 3.98522727272727  5.89568965517241 3.98181818181818  C 5.90474137931035 3.96477272727273  5.91379310344828 3.95113636363636  5.92284482758621 3.93409090909091  C 5.92586206896552 3.93068181818182  5.92586206896552 3.92727272727273  5.92887931034483 3.92386363636364  C 5.93491379310345 3.91363636363636  5.94396551724138 3.9  5.95301724137931 3.88977272727273  C 5.95603448275862 3.88636363636364  5.95905172413793 3.87954545454545  5.96206896551724 3.87613636363636  C 5.97112068965517 3.86590909090909  5.97715517241379 3.85227272727273  5.98620689655173 3.84204545454546  C 5.98922413793104 3.83863636363636  5.98922413793104 3.83522727272727  5.99224137931035 3.83522727272727  C 6.00431034482759 3.82159090909091  6.01336206896552 3.80795454545455  6.02543103448276 3.79431818181818  L 6.03448275862069 3.78409090909091  C 6.04353448275862 3.77386363636364  6.05258620689655 3.76363636363636  6.06163793103448 3.75681818181818  L 6.07068965517242 3.74659090909091  C 6.08275862068966 3.73295454545455  6.0948275862069 3.72272727272727  6.10991379310345 3.70909090909091  L 6.11293103448276 3.70568181818182  C 6.125 3.69545454545455  6.13706896551724 3.68522727272727  6.1521551724138 3.675  C 6.15517241379311 3.67159090909091  6.15818965517242 3.66818181818182  6.16120689655173 3.66818181818182  C 6.17931034482759 3.65454545454546  6.19439655172414 3.64431818181818  6.2125 3.63068181818182  C 6.21551724137931 3.62727272727273  6.21853448275862 3.62727272727273  6.22155172413793 3.62386363636364  C 6.2396551724138 3.61363636363636  6.25775862068966 3.6  6.27586206896552 3.58977272727273  C 6.27887931034483 3.58977272727273  6.27887931034483 3.58977272727273  6.28189655172414 3.58636363636364  C 6.29698275862069 3.57954545454546  6.30905172413793 3.57272727272727  6.32413793103449 3.56590909090909  C 6.3271551724138 3.5625  6.33318965517242 3.5625  6.33620689655173 3.55909090909091  C 6.35129310344828 3.55227272727273  6.36637931034483 3.54545454545455  6.38448275862069 3.54204545454546  L 6.3875 3.54204545454546  C 6.40258620689656 3.53522727272728  6.41767241379311 3.53181818181818  6.43275862068966 3.52840909090909  C 6.43577586206897 3.52840909090909  6.44181034482759 3.525  6.4448275862069 3.525  C 6.46293103448276 3.52159090909091  6.47801724137931 3.51818181818182  6.49612068965517 3.51477272727273  C 6.51724137931035 3.51136363636364  6.53836206896552 3.50795454545455  6.55646551724138 3.50795454545455  L 6.63793103448276 3.50795454545455  C 6.65 3.50795454545455  6.66508620689655 3.51136363636364  6.6771551724138 3.51136363636364  C 6.68318965517242 3.51136363636364  6.68922413793104 3.51477272727273  6.69525862068966 3.51477272727273  C 6.71336206896552 3.51818181818182  6.72844827586207 3.52159090909091  6.74353448275862 3.525  C 6.74655172413793 3.525  6.74956896551724 3.525  6.74956896551724 3.52840909090909  L 6.80387931034483 3.54886363636364  C 6.80991379310345 3.55227272727273  6.81293103448276 3.55227272727273  6.81896551724138 3.55568181818182  C 6.83103448275862 3.5625  6.84310344827587 3.56590909090909  6.85517241379311 3.57272727272727  C 6.86422413793104 3.57954545454546  6.87629310344828 3.58295454545455  6.88534482758621 3.58977272727273  L 1.38491379310345 0.221590909090909  C 1.37887931034483 0.218181818181818  1.3698275862069 0.211363636363636  1.36379310344828 0.207954545454546  C 1.36077586206897 0.207954545454546  1.35775862068966 0.204545454545455  1.35474137931034 0.204545454545455  C 1.3426724137931 0.197727272727273  1.33060344827586 0.190909090909091  1.31853448275862 0.1875  C 1.3125 0.184090909090909  1.30948275862069 0.184090909090909  1.30344827586207 0.180681818181818  L 1.24913793103448 0.160227272727273  L 1.24310344827586 0.160227272727273  C 1.22801724137931 0.156818181818182  1.20991379310345 0.153409090909091  1.1948275862069 0.15  C 1.18879310344828 0.15  1.18275862068966 0.146590909090909  1.17672413793104 0.146590909090909  C 1.16465517241379 0.143181818181818  1.14956896551724 0.143181818181818  1.1375 0.143181818181818  L 1.05603448275862 0.143181818181818  C 1.03491379310345 0.143181818181818  1.01379310344828 0.146590909090909  0.995689655172414 0.15  C 0.977586206896552 0.153409090909091  0.9625 0.156818181818182  0.944396551724138 0.160227272727273  C 0.941379310344828 0.160227272727273  0.935344827586207 0.163636363636364  0.932327586206897 0.163636363636364  C 0.917241379310345 0.167045454545454  0.902155172413793 0.170454545454545  0.887068965517242 0.177272727272727  L 0.884051724137931 0.177272727272727  C 0.86896551724138 0.184090909090909  0.850862068965518 0.1875  0.835775862068966 0.194318181818182  C 0.832758620689656 0.197727272727273  0.826724137931035 0.197727272727273  0.823706896551724 0.201136363636364  C 0.808620689655173 0.207954545454546  0.796551724137931 0.214772727272727  0.781465517241379 0.221590909090909  C 0.781465517241379 0.221590909090909  0.778448275862069 0.221590909090909  0.778448275862069 0.225  C 0.760344827586207 0.235227272727273  0.742241379310346 0.245454545454546  0.724137931034483 0.259090909090909  C 0.721120689655173 0.2625  0.718103448275862 0.2625  0.715086206896551 0.265909090909091  C 0.696982758620689 0.276136363636364  0.681896551724138 0.289772727272727  0.663793103448276 0.303409090909091  C 0.663793103448276 0.303409090909091  0.660775862068966 0.306818181818182  0.657758620689656 0.306818181818182  C 0.654741379310345 0.306818181818182  0.654741379310345 0.310227272727273  0.651724137931035 0.310227272727273  C 0.639655172413794 0.320454545454545  0.624568965517242 0.330681818181818  0.6125 0.344318181818182  L 0.60948275862069 0.344318181818182  C 0.597413793103449 0.354545454545454  0.582327586206897 0.368181818181818  0.570258620689655 0.381818181818181  C 0.570258620689655 0.381818181818181  0.567241379310345 0.385227272727272  0.564224137931035 0.385227272727272  L 0.558189655172415 0.392045454545454  C 0.549137931034483 0.402272727272727  0.540086206896553 0.412499999999999  0.531034482758621 0.419318181818181  L 0.52198275862069 0.429545454545454  C 0.509913793103448 0.443181818181818  0.500862068965518 0.456818181818181  0.488793103448276 0.470454545454545  L 0.485775862068966 0.473863636363636  L 0.479741379310346 0.480681818181817  C 0.470689655172414 0.49090909090909  0.461637931034484 0.501136363636363  0.455603448275863 0.514772727272727  C 0.452586206896553 0.518181818181817  0.449568965517242 0.524999999999999  0.446551724137931 0.52840909090909  C 0.4375 0.538636363636363  0.43146551724138 0.552272727272727  0.422413793103448 0.5625  L 0.416379310344828 0.569318181818181  L 0.416379310344828 0.572727272727272  C 0.407327586206897 0.589772727272727  0.398275862068966 0.603409090909091  0.389224137931035 0.620454545454545  C 0.386206896551724 0.623863636363636  0.386206896551724 0.627272727272727  0.383189655172414 0.630681818181818  C 0.377155172413794 0.644318181818182  0.368103448275863 0.657954545454545  0.362068965517242 0.671590909090909  C 0.362068965517242 0.674999999999999  0.359051724137932 0.678409090909091  0.359051724137932 0.678409090909091  C 0.359051724137932 0.678409090909091  0.359051724137932 0.681818181818181  0.356034482758622 0.681818181818181  L 0.328879310344829 0.743181818181818  C 0.325862068965518 0.746590909090908  0.325862068965518 0.75  0.322844827586208 0.75340909090909  C 0.313793103448277 0.773863636363636  0.307758620689657 0.794318181818181  0.298706896551725 0.818181818181818  C 0.295689655172415 0.825  0.295689655172415 0.831818181818182  0.292672413793105 0.838636363636363  C 0.289655172413795 0.845454545454545  0.289655172413795 0.852272727272727  0.286637931034484 0.859090909090908  C 0.283620689655174 0.86590909090909  0.283620689655174 0.876136363636363  0.280603448275864 0.882954545454545  C 0.277586206896554 0.889772727272726  0.277586206896554 0.896590909090909  0.274568965517244 0.90340909090909  C 0.271551724137934 0.910227272727272  0.271551724137934 0.920454545454545  0.268534482758623 0.927272727272726  C 0.265517241379313 0.934090909090908  0.265517241379313 0.94090909090909  0.262500000000003 0.947727272727272  C 0.259482758620693 0.954545454545453  0.259482758620693 0.964772727272726  0.259482758620693 0.971590909090908  C 0.259482758620693 0.97840909090909  0.256465517241383 0.985227272727272  0.256465517241383 0.992045454545453  C 0.256465517241383 0.998863636363635  0.253448275862073 1.00909090909091  0.253448275862073 1.01590909090909  C 0.253448275862073 1.02272727272727  0.250431034482762 1.02954545454545  0.250431034482762 1.03636363636364  C 0.250431034482762 1.04659090909091  0.247413793103452 1.05340909090909  0.247413793103452 1.06363636363636  C 0.247413793103452 1.07045454545454  0.247413793103452 1.07727272727273  0.244396551724142 1.08409090909091  C 0.244396551724142 1.09431818181818  0.244396551724142 1.10454545454545  0.241379310344832 1.11477272727273  L 0.241379310344832 1.17954545454545  L 0.238362068965522 2.45795454545454  L 5.73879310344828 5.83977272727273  L 5.74181034482759 4.56136363636363  L 5.74181034482759 4.51363636363636  L 5.74181034482759 4.49659090909091  Z " fill-rule="nonzero" fill="#00b794" stroke="none" transform="matrix(1 0 0 1 951 454 )" />
  </g>
</svg>