<?xml version="1.0" encoding="utf-8"?>
<svg version="1.1" xmlns:xlink="http://www.w3.org/1999/xlink" width="7px" height="26px" xmlns="http://www.w3.org/2000/svg">
  <g transform="matrix(1 0 0 1 -947 -457 )">
    <path d="M 5.99083333333333 25.7608490566038  C 5.59416666666667 25.5278301886792  5.32875 25.0587264150943  5.32875 24.4792452830189  L 5.36083333333333 6.45707547169811  L 5.36666666666667 4.95471698113208  C 5.36666666666667 4.92712264150944  5.36666666666667 4.89952830188679  5.36958333333333 4.87193396226415  C 5.36958333333333 4.8627358490566  5.36958333333333 4.85353773584906  5.3725 4.84433962264151  C 5.3725 4.82594339622642  5.37541666666667 4.80754716981132  5.37541666666667 4.78915094339623  C 5.37541666666667 4.77688679245283  5.37833333333334 4.76768867924528  5.37833333333334 4.75542452830189  C 5.38125 4.74009433962264  5.38125 4.72169811320755  5.38416666666667 4.7063679245283  C 5.38708333333334 4.69410377358491  5.38708333333334 4.68183962264151  5.39 4.67264150943396  L 5.39875 4.62665094339623  C 5.40166666666667 4.61438679245283  5.40458333333333 4.60212264150943  5.40458333333333 4.58985849056604  L 5.41333333333334 4.5438679245283  L 5.42208333333334 4.50707547169811  C 5.425 4.49174528301887  5.42791666666667 4.47948113207547  5.43375 4.46415094339623  C 5.43666666666667 4.45188679245283  5.43958333333334 4.43962264150943  5.44541666666667 4.42735849056604  C 5.44833333333334 4.41202830188679  5.45416666666667 4.3997641509434  5.45708333333333 4.38443396226415  C 5.46 4.37216981132076  5.46583333333333 4.35990566037736  5.46875 4.34764150943396  C 5.47458333333333 4.33231132075472  5.4775 4.32004716981132  5.48333333333333 4.30471698113208  C 5.48625 4.29858490566038  5.48916666666667 4.28938679245283  5.49208333333333 4.28325471698114  C 5.49791666666667 4.26792452830189  5.50375 4.24952830188679  5.50958333333333 4.23419811320755  C 5.5125 4.225  5.51541666666667 4.21580188679245  5.52125 4.20660377358491  C 5.52708333333333 4.19127358490566  5.53291666666667 4.17594339622642  5.53875 4.16367924528302  C 5.54166666666667 4.15448113207547  5.5475 4.14528301886793  5.55041666666667 4.13608490566038  C 5.55625 4.12075471698114  5.565 4.10542452830189  5.57083333333333 4.0931603773585  C 5.57375 4.08396226415095  5.57958333333333 4.07783018867925  5.5825 4.0686320754717  C 5.58541666666667 4.05943396226416  5.59125 4.05330188679246  5.59416666666667 4.04410377358491  C 5.60583333333333 4.01957547169812  5.62041666666666 3.99504716981132  5.635 3.97051886792453  C 5.63791666666667 3.96438679245284  5.64375 3.95518867924529  5.64666666666666 3.94905660377359  C 5.66416666666666 3.9183962264151  5.68166666666666 3.89080188679246  5.69916666666666 3.86320754716982  C 5.70208333333333 3.85707547169812  5.705 3.85400943396227  5.71083333333333 3.84787735849057  C 5.72541666666666 3.82641509433963  5.74 3.80495283018869  5.7575 3.78349056603774  C 5.76333333333333 3.77429245283019  5.76916666666666 3.7681603773585  5.775 3.75896226415095  C 5.78958333333333 3.7375  5.80708333333333 3.71910377358491  5.82166666666667 3.69764150943397  C 5.82458333333333 3.69150943396227  5.83041666666667 3.68844339622642  5.83333333333333 3.68231132075472  C 5.85375 3.65778301886793  5.87416666666666 3.63325471698114  5.8975 3.61179245283019  C 5.90333333333333 3.6056603773585  5.90916666666666 3.5995283018868  5.915 3.59646226415095  C 5.9325 3.57806603773585  5.95 3.55966981132076  5.9675 3.54433962264151  C 5.97333333333333 3.53820754716982  5.98208333333333 3.53207547169812  5.98791666666667 3.52594339622642  C 6.01125 3.50448113207548  6.0375 3.47995283018868  6.06375 3.45849056603774  L 6.06958333333333 3.45235849056604  C 6.09291666666667 3.43396226415095  6.11916666666666 3.4125  6.1425 3.39410377358491  L 6.16875 3.37570754716982  L 6.195 3.35731132075472  C 6.20666666666666 3.34811320754717  6.21833333333333 3.34198113207548  6.23 3.33278301886793  C 6.23875 3.32665094339623  6.2475 3.32051886792453  6.25625 3.31745283018868  C 6.26791666666666 3.30825471698114  6.2825 3.30212264150944  6.29416666666666 3.29599056603774  C 6.30291666666666 3.28985849056604  6.31166666666666 3.28679245283019  6.3175 3.2806603773585  C 6.33208333333333 3.27146226415095  6.34666666666666 3.26533018867925  6.35833333333333 3.25919811320755  C 6.36416666666666 3.2561320754717  6.37291666666666 3.25  6.37875 3.24693396226416  L 6.44 3.21933962264151  C 6.44583333333333 3.21627358490567  6.44875 3.21627358490567  6.45458333333333 3.21320754716982  C 6.46916666666666 3.20707547169812  6.48666666666666 3.20094339622642  6.50416666666666 3.19481132075472  C 6.51 3.19174528301887  6.51583333333333 3.18867924528303  6.52166666666666 3.18867924528303  C 6.53916666666666 3.18254716981133  6.55666666666666 3.17641509433963  6.57708333333333 3.17028301886793  C 6.58 3.17028301886793  6.58291666666666 3.16721698113208  6.58583333333333 3.16721698113208  C 6.60625 3.16108490566038  6.62958333333333 3.15495283018869  6.65 3.14882075471699  C 6.65583333333333 3.14575471698114  6.66166666666666 3.14575471698114  6.6675 3.14575471698114  C 6.685 3.14268867924529  6.69958333333333 3.13655660377359  6.71708333333333 3.13349056603774  C 6.72291666666666 3.13349056603774  6.72875 3.13042452830189  6.7375 3.13042452830189  C 6.76083333333333 3.12735849056604  6.78125 3.12122641509435  6.80458333333333 3.1181603773585  L 1.4875 0.0766509433962264  C 1.46416666666667 0.0797169811320753  1.44375 0.0827830188679242  1.42041666666667 0.0889150943396228  C 1.41458333333333 0.0889150943396228  1.40875 0.0919811320754717  1.4 0.0919811320754717  C 1.3825 0.0950471698113206  1.36791666666667 0.0981132075471695  1.35041666666667 0.104245283018868  C 1.34458333333333 0.104245283018868  1.33875 0.107311320754717  1.33291666666667 0.107311320754717  C 1.3125 0.113443396226415  1.28916666666667 0.119575471698113  1.26875 0.125707547169811  C 1.26583333333333 0.125707547169811  1.26291666666667 0.12877358490566  1.26 0.12877358490566  C 1.2425 0.134905660377358  1.22208333333333 0.141037735849056  1.20458333333333 0.147169811320754  C 1.19875 0.150235849056603  1.19291666666667 0.153301886792452  1.18708333333333 0.153301886792452  C 1.16958333333333 0.15943396226415  1.155 0.165566037735848  1.1375 0.171698113207546  C 1.13166666666667 0.174764150943395  1.12875 0.174764150943395  1.12291666666667 0.177830188679244  C 1.10541666666667 0.187028301886791  1.085 0.196226415094338  1.0675 0.205424528301886  C 1.0675 0.205424528301886  1.06458333333333 0.205424528301886  1.06458333333333 0.208490566037734  C 1.05875 0.211556603773583  1.05 0.214622641509432  1.04416666666667 0.220754716981131  C 1.02958333333333 0.226886792452829  1.015 0.236084905660376  1.00333333333333 0.242216981132074  C 0.994583333333334 0.248349056603772  0.985833333333334 0.251415094339621  0.98 0.257547169811319  C 0.968333333333333 0.263679245283017  0.95375 0.272877358490564  0.942083333333334 0.279009433962262  C 0.933333333333334 0.28514150943396  0.924583333333334 0.291273584905659  0.915833333333334 0.294339622641508  C 0.904166666666667 0.300471698113205  0.8925 0.309669811320753  0.880833333333333 0.3188679245283  L 0.854583333333333 0.337264150943394  C 0.84875 0.340330188679243  0.842916666666666 0.343396226415092  0.837083333333333 0.349528301886791  C 0.834166666666667 0.35259433962264  0.83125 0.355660377358489  0.825416666666667 0.358726415094338  C 0.799166666666666 0.377122641509433  0.775833333333333 0.395518867924527  0.7525 0.416981132075471  L 0.746666666666666 0.423113207547168  C 0.720416666666666 0.444575471698112  0.697083333333333 0.466037735849055  0.670833333333333 0.490566037735847  C 0.667916666666667 0.493632075471696  0.665 0.496698113207545  0.662083333333333 0.496698113207545  C 0.659166666666667 0.499764150943394  0.653333333333333 0.502830188679243  0.650416666666667 0.508962264150941  C 0.632916666666667 0.527358490566036  0.615416666666667 0.542688679245281  0.597916666666667 0.561084905660375  C 0.592083333333333 0.567216981132073  0.58625 0.573349056603771  0.580416666666667 0.57641509433962  C 0.56 0.600943396226413  0.536666666666667 0.622405660377356  0.51625 0.646933962264149  L 0.513333333333334 0.649999999999998  C 0.510416666666667 0.653066037735847  0.5075 0.659198113207545  0.504583333333334 0.662264150943394  C 0.487083333333334 0.680660377358488  0.472500000000001 0.702122641509432  0.455 0.723584905660375  C 0.449166666666667 0.732783018867923  0.443333333333333 0.738915094339621  0.4375 0.748113207547168  C 0.422916666666667 0.769575471698111  0.405416666666667 0.791037735849055  0.390833333333334 0.812499999999998  C 0.387916666666667 0.815566037735847  0.385000000000001 0.821698113207546  0.382083333333334 0.824764150943395  L 0.379166666666667 0.827830188679244  C 0.361666666666668 0.855424528301885  0.341250000000001 0.886084905660376  0.326666666666668 0.913679245283017  C 0.323750000000001 0.919811320754715  0.317916666666668 0.929009433962263  0.315000000000001 0.93514150943396  C 0.300416666666667 0.959669811320753  0.288750000000001 0.984198113207545  0.274166666666667 1.00872641509434  C 0.271250000000001 1.01485849056604  0.268333333333334 1.01792452830189  0.265416666666667 1.02405660377358  C 0.262500000000001 1.02712264150943  0.262500000000001 1.03018867924528  0.259583333333334 1.03325471698113  C 0.256666666666667 1.04245283018868  0.250833333333334 1.04858490566038  0.247916666666667 1.05778301886792  C 0.242083333333334 1.07311320754717  0.233333333333334 1.08537735849057  0.2275 1.10070754716981  C 0.224583333333334 1.10990566037736  0.21875 1.1191037735849  0.215833333333334 1.12830188679245  C 0.21 1.1436320754717  0.204166666666667 1.15896226415094  0.198333333333334 1.17122641509434  C 0.195416666666667 1.18042452830189  0.189583333333334 1.18962264150943  0.186666666666667 1.19882075471698  C 0.180833333333333 1.21415094339623  0.175 1.23254716981132  0.169166666666667 1.24787735849057  C 0.16625 1.25400943396226  0.163333333333334 1.26320754716981  0.160416666666667 1.26933962264151  C 0.160416666666667 1.27240566037736  0.157500000000001 1.27240566037736  0.157500000000001 1.27547169811321  C 0.154583333333334 1.2877358490566  0.148750000000001 1.3  0.145833333333334 1.31226415094339  C 0.142916666666667 1.32452830188679  0.137083333333334 1.33679245283019  0.134166666666667 1.34905660377358  C 0.13125 1.36438679245283  0.125416666666667 1.37665094339622  0.1225 1.39198113207547  C 0.119583333333334 1.40424528301887  0.116666666666667 1.41650943396226  0.110833333333333 1.42877358490566  C 0.107916666666667 1.4441037735849  0.105 1.4563679245283  0.0991666666666664 1.47169811320755  L 0.0904166666666665 1.50849056603773  L 0.0816666666666666 1.55448113207547  C 0.0787500000000001 1.56674528301887  0.0758333333333332 1.57900943396226  0.0758333333333332 1.59127358490566  C 0.0729166666666667 1.6066037735849  0.0699999999999997 1.62193396226415  0.0699999999999997 1.63726415094339  C 0.0670833333333333 1.64952830188679  0.0670833333333333 1.66179245283019  0.0641666666666663 1.67099056603773  C 0.0612499999999998 1.68632075471698  0.0612499999999998 1.70471698113207  0.0583333333333329 1.72004716981132  C 0.0583333333333329 1.73231132075471  0.0554166666666664 1.74150943396226  0.0554166666666664 1.75377358490566  C 0.0524999999999999 1.77216981132075  0.0524999999999999 1.79056603773585  0.0524999999999999 1.80896226415094  C 0.0524999999999999 1.81816037735849  0.0524999999999999 1.82735849056603  0.0495833333333334 1.83655660377358  C 0.0495833333333334 1.86415094339622  0.0466666666666669 1.89174528301887  0.0466666666666669 1.91933962264151  L 0 3.42169811320754  L 0 21.4438679245283  C 0.00875000000000033 22.0202830188679  0.274166666666667 22.4893867924528  0.67375 22.7193396226415  L 5.99083333333333 25.7608490566038  Z " fill-rule="nonzero" fill="#f7d59f" stroke="none" transform="matrix(1 0 0 1 947 457 )" />
  </g>
</svg>