<?xml version="1.0" encoding="utf-8"?>
<svg version="1.1" xmlns:xlink="http://www.w3.org/1999/xlink" width="13px" height="7px" xmlns="http://www.w3.org/2000/svg">
  <g transform="matrix(1 0 0 1 -955 -466 )">
    <path d="M 0.625471698113207 5.453125  L 10.8077830188679 3.99375  L 9.5997641509434 5.49375  L 0.622405660377359 6.78125  C 0.29127358490566 6.828125  0.021462264150943 6.571875  0.021462264150943 6.203125  C 0.021462264150943 5.840625  0.294339622641508 5.5  0.625471698113207 5.453125  Z M 0.628537735849057 1.884375  L 12.2549528301887 0.21875  C 12.5860849056604 0.171875  12.8589622641509 0.428125  12.8558962264151 0.796875  C 12.8558962264151 1.159375  12.5830188679245 1.5  12.2518867924528 1.546875  L 0.625471698113209 3.2125  C 0.29433962264151 3.259375  0.0245283018867928 3.003125  0.0245283018867928 2.634375  C 0.0245283018867928 2.271875  0.297405660377358 1.93125  0.628537735849057 1.884375  Z " fill-rule="nonzero" fill="#91a0a7" stroke="none" transform="matrix(1 0 0 1 955 466 )" />
  </g>
</svg>