<?xml version="1.0" encoding="utf-8"?>
<svg version="1.1" xmlns:xlink="http://www.w3.org/1999/xlink" width="9px" height="3px" xmlns="http://www.w3.org/2000/svg">
  <g transform="matrix(1 0 0 1 -960 -456 )">
    <path d="M 8.19375000000001 2.67321428571429  C 8.203125 2.67321428571429  8.21250000000001 2.67321428571429  8.21875 2.67053571428571  C 8.234375 2.67053571428571  8.246875 2.66785714285714  8.2625 2.66785714285714  L 8.4125 2.66785714285714  C 8.43125 2.66785714285714  8.453125 2.67053571428571  8.471875 2.67321428571429  C 8.478125 2.67321428571429  8.484375 2.67321428571429  8.490625 2.67589285714286  C 8.50625 2.67857142857143  8.51875 2.67857142857143  8.534375 2.68125  C 8.540625 2.68125  8.546875 2.68392857142857  8.55625 2.68392857142857  C 8.56875 2.68660714285714  8.58125 2.68660714285714  8.596875 2.68928571428571  C 8.603125 2.68928571428571  8.609375 2.69196428571428  8.615625 2.69196428571428  C 8.63125 2.69464285714286  8.64375 2.69732142857143  8.659375 2.7  C 8.6625 2.7  8.66875 2.70267857142857  8.671875 2.70267857142857  C 8.690625 2.70803571428571  8.709375 2.71071428571428  8.728125 2.71607142857143  C 8.734375 2.71607142857143  8.73749999999999 2.71875  8.74375 2.72142857142857  C 8.759375 2.72410714285714  8.77187499999999 2.72946428571428  8.78749999999999 2.73482142857143  C 8.79375 2.7375  8.79999999999999 2.7375  8.80625 2.74017857142857  C 8.81874999999999 2.74553571428571  8.83124999999999 2.74821428571428  8.84375 2.75357142857143  C 8.85 2.75625  8.85625 2.75892857142857  8.8625 2.75892857142857  C 8.878125 2.76428571428571  8.89375 2.77232142857143  8.909375 2.77767857142857  C 8.9125 2.77767857142857  8.9125 2.78035714285714  8.915625 2.78035714285714  C 8.93125 2.78571428571428  8.946875 2.79375  8.9625 2.80178571428571  L 3.25625 0.144642857142857  C 3.240625 0.136607142857143  3.225 0.13125  3.209375 0.123214285714286  C 3.20625 0.123214285714286  3.20625 0.123214285714286  3.203125 0.120535714285715  C 3.1875 0.115178571428572  3.171875 0.107142857142858  3.15625 0.101785714285715  C 3.15 0.0991071428571433  3.14375 0.0964285714285716  3.1375 0.0964285714285716  C 3.125 0.0910714285714287  3.1125 0.0883928571428574  3.1 0.0830357142857145  C 3.09375 0.0803571428571432  3.0875 0.0776785714285716  3.08125 0.0776785714285716  C 3.06875 0.0723214285714286  3.053125 0.0696428571428574  3.0375 0.0642857142857144  C 3.03125 0.0642857142857144  3.028125 0.0616071428571432  3.021875 0.0589285714285715  C 3.003125 0.0535714285714286  2.984375 0.0482142857142856  2.965625 0.0455357142857144  L 2.9625 0.0455357142857144  C 2.959375 0.0455357142857144  2.95625 0.0428571428571431  2.953125 0.0428571428571431  C 2.9375 0.0401785714285718  2.925 0.0375000000000002  2.909375 0.0348214285714289  C 2.903125 0.0348214285714289  2.896875 0.0321428571428576  2.890625 0.0321428571428576  C 2.878125 0.0294642857142863  2.865625 0.0267857142857147  2.85 0.0267857142857147  C 2.84375 0.0267857142857147  2.8375 0.0241071428571434  2.828125 0.0241071428571434  C 2.8125 0.0214285714285721  2.8 0.0214285714285721  2.784375 0.0187500000000005  C 2.778125 0.0187500000000005  2.771875 0.0187500000000005  2.76875 0.0160714285714292  C 2.75 0.0133928571428579  2.728125 0.0133928571428579  2.709375 0.0107142857142862  L 2.559375 0.0107142857142862  C 2.54375 0.0107142857142862  2.53125 0.0133928571428575  2.515625 0.0133928571428575  C 2.509375 0.0133928571428575  2.503125 0.0133928571428575  2.496875 0.0160714285714288  C 2.475 0.0187500000000001  2.453125 0.0187500000000001  2.434375 0.0214285714285717  L 0.0156250000000036 0.313392857142858  L 5.71250000000001 2.97053571428571  L 8.13125000000001 2.67857142857143  C 8.15312500000001 2.67589285714286  8.175 2.67321428571429  8.19375000000001 2.67321428571429  Z " fill-rule="nonzero" fill="#f7d59f" stroke="none" transform="matrix(1 0 0 1 960 456 )" />
  </g>
</svg>