<?xml version="1.0" encoding="utf-8"?>
<svg version="1.1" xmlns:xlink="http://www.w3.org/1999/xlink" width="18px" height="21px" xmlns="http://www.w3.org/2000/svg">
  <g transform="matrix(1 0 0 1 -114 -453 )">
    <path d="M 3.30468750000002 12.8625  C 3.30117187500002 12.8386363636364  3.30468750000002 12.8113636363636  3.3046875 12.7806818181818  C 3.308203125 12.7227272727273  3.308203125 12.6647727272727  3.31171875 12.6068181818182  C 3.31171875 12.5727272727273  3.315234375 12.5386363636364  3.31875 12.5011363636364  C 3.322265625 12.45  3.32578125 12.3988636363636  3.329296875 12.3443181818182  C 3.3328125 12.3068181818182  3.336328125 12.2693181818182  3.33984375 12.2352272727273  C 3.343359375 12.1875  3.346875 12.1363636363636  3.35390625 12.0886363636364  C 3.357421875 12.0511363636364  3.3609375 12.0136363636364  3.36796875 11.9761363636364  C 3.371484375 11.9284090909091  3.378515625 11.8806818181818  3.385546875 11.8329545454545  C 3.3890625 11.7954545454545  3.39609375 11.7545454545455  3.399609375 11.7170454545455  C 3.406640625 11.6693181818182  3.413671875 11.6215909090909  3.420703125 11.5772727272727  C 3.427734375 11.5397727272727  3.43125 11.4988636363636  3.43828125 11.4613636363636  C 3.4453125 11.4136363636364  3.45234375 11.3693181818182  3.459375 11.3215909090909  C 3.46640625 11.2840909090909  3.4734375 11.2431818181818  3.48046875 11.2056818181818  C 3.4875 11.1613636363636  3.498046875 11.1136363636364  3.505078125 11.0693181818182  C 3.512109375 11.0318181818182  3.519140625 10.9909090909091  3.5296875 10.9534090909091  C 3.540234375 10.9090909090909  3.547265625 10.8613636363636  3.5578125 10.8170454545455  C 3.56484375 10.7795454545455  3.575390625 10.7386363636364  3.582421875 10.7011363636364  L 3.6140625 10.5681818181818  C 3.624609375 10.5306818181818  3.631640625 10.4897727272727  3.6421875 10.4522727272727  C 3.652734375 10.4079545454545  3.666796875 10.3636363636364  3.67734375 10.3193181818182  C 3.687890625 10.2818181818182  3.6984375 10.2409090909091  3.708984375 10.2034090909091  C 3.723046875 10.1590909090909  3.73359375 10.1147727272727  3.74765625 10.0704545454545  C 3.758203125 10.0329545454545  3.76875 9.99545454545455  3.7828125 9.95795454545455  L 3.825 9.825  C 3.835546875 9.7875  3.849609375 9.75  3.86015625 9.7125  C 3.87421875 9.66818181818182  3.88828125 9.62386363636364  3.905859375 9.57954545454546  C 3.919921875 9.54204545454546  3.93046875 9.50454545454546  3.94453125 9.47045454545455  C 3.95859375 9.42613636363637  3.976171875 9.38181818181818  3.99375 9.33750000000001  C 4.0078125 9.3  4.018359375 9.26590909090909  4.032421875 9.2284090909091  C 4.053515625 9.16704545454546  4.078125 9.10909090909091  4.102734375 9.04772727272728  C 4.109765625 9.03409090909092  4.11328125 9.02045454545455  4.1203125 9.00681818181819  C 4.1484375 8.93181818181819  4.180078125 8.85681818181819  4.21171875 8.78522727272728  C 4.222265625 8.76477272727273  4.229296875 8.74431818181819  4.23984375 8.72386363636364  C 4.264453125 8.66931818181819  4.285546875 8.61818181818182  4.31015625 8.56363636363637  C 4.320703125 8.53636363636364  4.334765625 8.51250000000001  4.3453125 8.48522727272728  C 4.36640625 8.43750000000001  4.391015625 8.38977272727273  4.412109375 8.34204545454546  C 4.426171875 8.31477272727273  4.43671875 8.2909090909091  4.45078125 8.26363636363637  C 4.475390625 8.2125  4.5 8.16136363636364  4.524609375 8.11363636363637  C 4.53515625 8.09318181818182  4.545703125 8.06931818181819  4.55625 8.04886363636364  C 4.59140625 7.97727272727273  4.630078125 7.90568181818182  4.66875 7.83409090909092  C 4.672265625 7.82727272727273  4.67578125 7.82386363636364  4.679296875 7.81704545454546  C 4.714453125 7.75227272727274  4.749609375 7.68409090909092  4.78828125 7.61931818181819  C 4.798828125 7.60227272727273  4.805859375 7.58522727272728  4.81640625 7.57159090909092  L 4.911328125 7.40795454545455  C 4.921875 7.3909090909091  4.92890625 7.37386363636364  4.939453125 7.36022727272728  C 4.978125 7.29545454545455  5.016796875 7.22727272727274  5.058984375 7.16250000000001  C 5.066015625 7.14886363636364  5.073046875 7.13863636363637  5.08359375 7.12500000000001  L 5.1890625 6.96136363636364  C 5.199609375 6.94431818181819  5.21015625 6.92727272727273  5.22421875 6.91022727272728  L 5.35078125 6.7159090909091  C 5.354296875 6.71250000000001  5.3578125 6.70909090909092  5.3578125 6.70227272727273  C 5.4 6.6409090909091  5.438671875 6.58295454545455  5.480859375 6.52159090909092  C 5.49140625 6.50454545454546  5.50546875 6.48750000000001  5.516015625 6.47045454545455  C 5.540625 6.43636363636364  5.56171875 6.40568181818183  5.586328125 6.37159090909092  C 5.63203125 6.31022727272728  5.67421875 6.25227272727273  5.719921875 6.1909090909091  C 5.7375 6.16704545454546  5.75859375 6.13977272727273  5.776171875 6.1159090909091  C 5.8359375 6.03750000000001  5.89921875 5.95909090909092  5.9625 5.88068181818183  L 5.96953125 5.87386363636364  C 6.0328125 5.79545454545455  6.099609375 5.71704545454546  6.16640625 5.63863636363637  C 6.1875 5.61477272727274  6.205078125 5.5909090909091  6.226171875 5.57045454545455  C 6.282421875 5.50568181818183  6.338671875 5.4409090909091  6.3984375 5.37613636363637  C 6.40546875 5.36931818181819  6.4125 5.35909090909092  6.41953125 5.35227272727274  C 6.486328125 5.27727272727274  6.556640625 5.20227272727274  6.626953125 5.13068181818183  C 6.6375 5.12045454545455  6.648046875 5.10681818181819  6.65859375 5.09659090909092  C 6.72890625 5.02500000000001  6.795703125 4.95681818181819  6.86953125 4.88522727272728  C 6.880078125 4.87159090909092  6.894140625 4.86136363636365  6.9046875 4.84772727272728  C 6.975 4.77954545454546  7.048828125 4.71136363636365  7.119140625 4.64318181818183  C 7.1296875 4.63295454545455  7.140234375 4.62272727272728  7.154296875 4.61250000000001  C 7.228125 4.54431818181819  7.30546875 4.47613636363637  7.379296875 4.40795454545455  L 7.453125 4.34659090909092  C 7.47421875 4.32954545454546  7.4953125 4.30909090909092  7.51640625 4.29204545454546  C 7.541015625 4.27159090909092  7.569140625 4.24772727272728  7.59375 4.22727272727274  L 7.65703125 4.17613636363637  C 7.68515625 4.15227272727274  7.71328125 4.13181818181819  7.737890625 4.10795454545455  C 7.758984375 4.0909090909091  7.780078125 4.07386363636365  7.79765625 4.06022727272728  C 7.82578125 4.03636363636365  7.85390625 4.0159090909091  7.885546875 3.99204545454546  C 7.906640625 3.9784090909091  7.92421875 3.96136363636364  7.9453125 3.94431818181819  L 8.040234375 3.87272727272728  L 8.09296875 3.83181818181819  C 8.13515625 3.80113636363637  8.17734375 3.77045454545455  8.216015625 3.73977272727274  C 8.223046875 3.73295454545456  8.23359375 3.72613636363637  8.240625 3.72272727272728  C 8.28984375 3.68863636363637  8.3390625 3.65113636363637  8.391796875 3.61704545454546  C 8.405859375 3.60681818181819  8.4234375 3.59659090909092  8.4375 3.58636363636365  L 8.54296875 3.51477272727274  C 8.59921875 3.47727272727274  8.658984375 3.43977272727274  8.715234375 3.40227272727274  C 8.7328125 3.39204545454546  8.750390625 3.38181818181819  8.76796875 3.36818181818183  C 8.81015625 3.3409090909091  8.848828125 3.31704545454546  8.891015625 3.28977272727274  L 8.954296875 3.24886363636365  C 8.99296875 3.22500000000001  9.031640625 3.20113636363637  9.0703125 3.18068181818183  C 9.09140625 3.16704545454546  9.116015625 3.1534090909091  9.137109375 3.14318181818183  C 9.17578125 3.11931818181819  9.21796875 3.09545454545455  9.256640625 3.07500000000001  C 9.277734375 3.06477272727274  9.2953125 3.05113636363637  9.31640625 3.0409090909091  C 9.369140625 3.01022727272728  9.421875 2.98295454545456  9.474609375 2.95568181818183  C 9.481640625 2.95227272727274  9.488671875 2.94886363636365  9.49921875 2.94204545454546  C 9.558984375 2.91136363636365  9.622265625 2.87727272727274  9.68203125 2.84659090909092  C 9.699609375 2.83636363636364  9.7171875 2.82954545454546  9.73828125 2.81931818181819  C 9.78046875 2.79886363636365  9.826171875 2.77500000000001  9.868359375 2.75454545454546  C 9.889453125 2.74431818181819  9.9140625 2.73409090909092  9.93515625 2.72045454545455  C 9.973828125 2.70000000000001  10.016015625 2.68295454545455  10.0546875 2.66250000000001  C 10.079296875 2.65227272727274  10.10390625 2.63863636363637  10.128515625 2.6284090909091  C 10.156640625 2.61477272727274  10.184765625 2.60454545454546  10.209375 2.5909090909091  C 10.2375 2.57727272727274  10.265625 2.56704545454546  10.29375 2.5534090909091  C 10.321875 2.54318181818183  10.35 2.52954545454546  10.378125 2.51931818181819  C 10.40625 2.50568181818183  10.434375 2.49545454545455  10.466015625 2.48181818181819  C 10.494140625 2.47159090909092  10.522265625 2.45795454545455  10.550390625 2.44772727272728  C 10.578515625 2.43750000000001  10.61015625 2.42386363636365  10.63828125 2.41363636363637  L 10.72265625 2.38295454545455  C 10.75078125 2.37272727272728  10.782421875 2.36250000000001  10.810546875 2.34886363636365  L 10.894921875 2.31818181818183  C 10.923046875 2.30795454545455  10.9546875 2.29772727272728  10.9828125 2.28750000000001  L 11.0671875 2.25681818181819  C 11.0953125 2.24659090909092  11.126953125 2.23636363636364  11.155078125 2.22613636363637  C 11.183203125 2.2159090909091  11.2078125 2.20909090909092  11.2359375 2.19886363636364  C 11.274609375 2.18522727272728  11.316796875 2.17500000000001  11.35546875 2.16136363636364  C 11.380078125 2.15454545454546  11.4046875 2.14772727272728  11.42578125 2.1409090909091  C 11.471484375 2.12727272727274  11.513671875 2.11363636363637  11.559375 2.1034090909091  C 11.576953125 2.09659090909092  11.598046875 2.09318181818183  11.615625 2.08636363636364  C 11.67890625 2.06931818181819  11.7421875 2.05227272727274  11.808984375 2.03522727272728  C 11.816015625 2.03181818181819  11.8265625 2.03181818181819  11.83359375 2.0284090909091  L 12.00234375 1.98750000000001  C 12.0234375 1.98409090909092  12.048046875 1.97727272727274  12.069140625 1.97386363636365  C 12.111328125 1.96363636363637  12.15703125 1.9534090909091  12.19921875 1.94659090909092  C 12.223828125 1.93977272727274  12.2484375 1.93636363636364  12.273046875 1.92954545454546  C 12.315234375 1.92272727272728  12.35390625 1.91250000000001  12.39609375 1.90568181818183  C 12.420703125 1.90227272727274  12.448828125 1.89545454545455  12.4734375 1.89204545454546  C 12.515625 1.88522727272728  12.5578125 1.8784090909091  12.596484375 1.87159090909092  C 12.62109375 1.86818181818183  12.645703125 1.86477272727274  12.6703125 1.85795454545455  L 12.807421875 1.83750000000001  L 12.88125 1.82727272727274  C 12.948046875 1.81704545454546  13.01484375 1.81022727272728  13.081640625 1.8034090909091  C 13.102734375 1.80000000000001  13.123828125 1.80000000000001  13.144921875 1.79659090909092  C 13.190625 1.79318181818183  13.236328125 1.78636363636365  13.28203125 1.78295454545455  C 13.306640625 1.77954545454546  13.327734375 1.77954545454546  13.35234375 1.77613636363637  L 13.489453125 1.7659090909091  C 13.510546875 1.7659090909091  13.531640625 1.76250000000001  13.552734375 1.76250000000001  C 13.6125 1.75909090909092  13.66875 1.75568181818183  13.728515625 1.75227272727274  L 13.749609375 1.75227272727274  C 13.812890625 1.74886363636365  13.8796875 1.74886363636365  13.94296875 1.74545454545455  L 14.203125 1.74545454545455  C 14.2453125 1.74545454545455  14.291015625 1.74545454545455  14.333203125 1.74886363636365  L 14.396484375 1.74886363636365  C 14.44921875 1.74886363636365  14.501953125 1.75227272727274  14.5546875 1.75568181818183  L 14.586328125 1.75568181818183  C 14.649609375 1.75909090909092  14.712890625 1.76250000000001  14.776171875 1.76931818181819  C 14.79375 1.76931818181819  14.811328125 1.77272727272728  14.82890625 1.77272727272728  C 14.874609375 1.77613636363637  14.9203125 1.77954545454546  14.966015625 1.78636363636365  C 14.987109375 1.78977272727274  15.008203125 1.78977272727274  15.0328125 1.79318181818183  C 15.075 1.79659090909092  15.1171875 1.8034090909091  15.159375 1.80681818181819  C 15.18046875 1.81022727272728  15.2015625 1.81022727272728  15.22265625 1.81363636363637  C 15.271875 1.82045454545455  15.32109375 1.82727272727274  15.366796875 1.83409090909092  C 15.380859375 1.83750000000001  15.394921875 1.83750000000001  15.40546875 1.8409090909091  C 15.465234375 1.85113636363637  15.528515625 1.86136363636364  15.58828125 1.87159090909092  C 15.60234375 1.87500000000001  15.619921875 1.8784090909091  15.633984375 1.8784090909091  C 15.6796875 1.88522727272728  15.725390625 1.89545454545455  15.77109375 1.90227272727273  C 15.7921875 1.90568181818183  15.81328125 1.90909090909092  15.834375 1.9159090909091  C 15.8765625 1.92272727272728  15.915234375 1.93295454545455  15.957421875 1.94318181818183  C 15.978515625 1.94659090909092  15.999609375 1.9534090909091  16.020703125 1.95681818181819  C 16.06640625 1.96704545454546  16.10859375 1.97727272727273  16.154296875 1.98750000000001  C 16.168359375 1.9909090909091  16.182421875 1.99431818181819  16.2 1.99772727272728  C 16.259765625 2.01136363636365  16.31953125 2.0284090909091  16.379296875 2.04545454545455  C 16.393359375 2.04886363636364  16.407421875 2.05227272727274  16.421484375 2.05909090909092  L 16.55859375 2.10000000000001  C 16.5796875 2.10681818181819  16.597265625 2.11363636363637  16.618359375 2.11704545454546  C 16.660546875 2.13068181818183  16.69921875 2.14431818181819  16.74140625 2.15454545454546  C 16.758984375 2.16136363636364  16.780078125 2.16818181818183  16.79765625 2.17159090909092  C 16.846875 2.18863636363637  16.899609375 2.20568181818183  16.948828125 2.22272727272728  C 16.955859375 2.22613636363637  16.962890625 2.22613636363637  16.969921875 2.22954545454546  C 17.026171875 2.25000000000001  17.082421875 2.27045454545455  17.1421875 2.29431818181819  C 17.159765625 2.30113636363637  17.173828125 2.30795454545455  17.19140625 2.31477272727274  C 17.23359375 2.33181818181819  17.272265625 2.34545454545455  17.314453125 2.36250000000001  C 17.33203125 2.36931818181819  17.353125 2.37954545454546  17.370703125 2.38636363636364  C 17.409375 2.4034090909091  17.4515625 2.42045454545455  17.490234375 2.43750000000001  C 17.5078125 2.44431818181819  17.521875 2.45113636363637  17.539453125 2.45795454545455  C 17.595703125 2.48181818181819  17.6484375 2.50909090909092  17.7046875 2.53295454545455  C 17.71875 2.53977272727273  17.736328125 2.54659090909092  17.750390625 2.55681818181819  C 17.78203125 2.57386363636364  17.8171875 2.58750000000001  17.848828125 2.60454545454546  C 17.86640625 2.61477272727273  17.8875 2.62500000000001  17.905078125 2.63181818181819  C 17.93671875 2.64886363636364  17.968359375 2.66250000000001  18 2.67954545454546  L 14.79375 0.988636363636364  L 14.790234375 0.988636363636364  L 14.776171875 0.981818181818182  C 14.7515625 0.968181818181818  14.7234375 0.954545454545455  14.698828125 0.940909090909091  C 14.68125 0.930681818181818  14.66015625 0.920454545454545  14.642578125 0.913636363636363  C 14.6109375 0.896590909090909  14.57578125 0.882954545454545  14.544140625 0.865909090909091  L 14.501953125 0.845454545454545  L 14.4984375 0.845454545454545  C 14.445703125 0.818181818181818  14.389453125 0.794318181818182  14.333203125 0.770454545454545  C 14.315625 0.763636363636363  14.3015625 0.756818181818182  14.283984375 0.75  C 14.2453125 0.732954545454545  14.203125 0.715909090909091  14.164453125 0.698863636363636  C 14.146875 0.692045454545455  14.12578125 0.681818181818182  14.108203125 0.675  C 14.06953125 0.657954545454545  14.02734375 0.640909090909091  13.98515625 0.627272727272727  C 13.967578125 0.620454545454545  13.953515625 0.613636363636363  13.9359375 0.606818181818182  C 13.8796875 0.586363636363637  13.8234375 0.5625  13.763671875 0.542045454545454  C 13.756640625 0.538636363636364  13.749609375 0.538636363636364  13.742578125 0.535227272727272  C 13.693359375 0.518181818181818  13.640625 0.501136363636363  13.59140625 0.484090909090909  C 13.573828125 0.477272727272727  13.552734375 0.470454545454545  13.53515625 0.467045454545454  C 13.49296875 0.45340909090909  13.454296875 0.439772727272727  13.412109375 0.429545454545454  C 13.391015625 0.422727272727272  13.3734375 0.415909090909091  13.35234375 0.4125  L 13.215234375 0.371590909090909  C 13.201171875 0.368181818181818  13.187109375 0.364772727272727  13.173046875 0.357954545454545  C 13.11328125 0.34090909090909  13.053515625 0.327272727272727  12.99375 0.310227272727272  C 12.990234375 0.310227272727272  12.98671875 0.310227272727272  12.983203125 0.306818181818181  C 12.97265625 0.303409090909091  12.95859375 0.299999999999999  12.948046875 0.299999999999999  C 12.90234375 0.289772727272727  12.86015625 0.279545454545454  12.814453125 0.269318181818181  C 12.793359375 0.26590909090909  12.772265625 0.259090909090908  12.751171875 0.255681818181817  C 12.708984375 0.245454545454545  12.6703125 0.238636363636363  12.628125 0.22840909090909  C 12.60703125 0.224999999999999  12.5859375 0.221590909090908  12.56484375 0.214772727272726  C 12.519140625 0.204545454545454  12.4734375 0.197727272727272  12.427734375 0.19090909090909  C 12.413671875 0.187499999999999  12.39609375 0.184090909090908  12.38203125 0.184090909090908  C 12.322265625 0.173863636363635  12.258984375 0.163636363636363  12.19921875 0.153409090909089  C 12.18515625 0.149999999999999  12.17109375 0.149999999999999  12.160546875 0.146590909090908  C 12.111328125 0.139772727272726  12.065625 0.132954545454544  12.01640625 0.126136363636362  C 11.9953125 0.122727272727272  11.97421875 0.11931818181818  11.953125 0.11931818181818  C 11.9109375 0.11590909090909  11.86875 0.109090909090908  11.8265625 0.105681818181817  C 11.80546875 0.102272727272726  11.784375 0.102272727272726  11.759765625 0.0988636363636346  C 11.7140625 0.0954545454545439  11.668359375 0.0920454545454527  11.62265625 0.0852272727272708  C 11.605078125 0.0852272727272708  11.5875 0.0818181818181801  11.569921875 0.0818181818181801  C 11.506640625 0.0784090909090894  11.443359375 0.0715909090909074  11.380078125 0.0681818181818162  L 11.3484375 0.0681818181818162  C 11.295703125 0.0647727272727255  11.24296875 0.0647727272727255  11.190234375 0.0613636363636343  L 11.126953125 0.0613636363636343  C 11.084765625 0.0613636363636343  11.0390625 0.0579545454545436  10.996875 0.0579545454545436  L 10.73671875 0.0579545454545436  C 10.6734375 0.0579545454545436  10.606640625 0.0613636363636343  10.543359375 0.0647727272727255  L 10.522265625 0.0647727272727255  C 10.4625 0.0681818181818162  10.40625 0.0715909090909074  10.346484375 0.0749999999999982  C 10.325390625 0.0749999999999982  10.304296875 0.0784090909090889  10.283203125 0.0784090909090889  L 10.14609375 0.0886363636363615  C 10.121484375 0.0920454545454522  10.100390625 0.0920454545454522  10.07578125 0.0954545454545434  C 10.030078125 0.0988636363636341  9.984375 0.105681818181816  9.938671875 0.109090909090907  C 9.917578125 0.112499999999998  9.896484375 0.112499999999998  9.875390625 0.115909090909089  C 9.80859375 0.122727272727271  9.741796875 0.132954545454544  9.675 0.139772727272726  C 9.66796875 0.139772727272726  9.657421875 0.143181818181816  9.650390625 0.143181818181816  C 9.6328125 0.146590909090907  9.61875000000001 0.146590909090907  9.60117187500001 0.149999999999998  L 9.46406250000001 0.170454545454543  C 9.43945312500001 0.173863636363634  9.41484375000001 0.177272727272725  9.39023437500001 0.184090909090907  C 9.34804687500001 0.190909090909089  9.30585937500001 0.197727272727271  9.26718750000001 0.204545454545453  C 9.24257812500001 0.207954545454543  9.21445312500001 0.214772727272725  9.18984375000001 0.218181818181816  C 9.14765625000001 0.224999999999998  9.10898437500001 0.235227272727271  9.06679687500001 0.242045454545453  C 9.04218750000001 0.245454545454544  9.01757812500001 0.252272727272726  8.99296875 0.259090909090907  C 8.95078125000001 0.26931818181818  8.90859375000001 0.276136363636362  8.86289062500001 0.286363636363635  C 8.841796875 0.289772727272725  8.8171875 0.296590909090907  8.79609375000001 0.299999999999998  L 8.62734375000001 0.340909090909089  C 8.62031250000001 0.34431818181818  8.60976562500001 0.34431818181818  8.60273437500001 0.347727272727271  C 8.53945312500001 0.364772727272726  8.47265625000001 0.381818181818181  8.40937500000001 0.398863636363635  C 8.38828125000001 0.405681818181817  8.37070312500001 0.409090909090908  8.35312500000001 0.41590909090909  C 8.307421875 0.429545454545453  8.26523437500001 0.439772727272726  8.21953125 0.453409090909089  C 8.19492187500001 0.460227272727271  8.17031250000001 0.467045454545453  8.14921875 0.473863636363635  C 8.110546875 0.487499999999998  8.068359375 0.497727272727271  8.02968750000001 0.511363636363634  C 8.01914062500001 0.514772727272725  8.00507812500001 0.518181818181816  7.99453125000001 0.521590909090907  C 7.98046875000001 0.524999999999998  7.96289062500001 0.53181818181818  7.948828125 0.535227272727271  C 7.920703125 0.545454545454544  7.88906250000001 0.555681818181816  7.8609375 0.565909090909089  L 7.77656250000001 0.596590909090908  C 7.74843750000001 0.60681818181818  7.71679687500001 0.617045454545453  7.68867187500001 0.627272727272726  L 7.60429687500001 0.657954545454544  C 7.57617187500001 0.668181818181817  7.54453125000001 0.67840909090909  7.51640625000001 0.692045454545454  L 7.43203125000001 0.722727272727272  C 7.40390625000001 0.732954545454545  7.37226562500001 0.746590909090908  7.34414062500001 0.756818181818181  C 7.31601562500001 0.767045454545454  7.28789062500001 0.780681818181817  7.25976562500001 0.79090909090909  C 7.23164062500001 0.801136363636363  7.20351562500001 0.814772727272727  7.17187500000001 0.82840909090909  C 7.14375000000001 0.838636363636363  7.11562500000001 0.852272727272726  7.08750000000001 0.862499999999999  C 7.05937500000001 0.876136363636363  7.03125000000001 0.886363636363635  7.00312500000001 0.899999999999999  C 6.97500000000001 0.913636363636363  6.94687500000001 0.923863636363635  6.92226562500001 0.937499999999999  C 6.91171875000001 0.944318181818181  6.89765625000001 0.947727272727271  6.88710937500001 0.954545454545453  C 6.87304687500001 0.961363636363635  6.86250000000001 0.968181818181817  6.84843750000001 0.971590909090908  C 6.80625000000001 0.988636363636362  6.76757812500001 1.00909090909091  6.72539062500001 1.02954545454545  C 6.70429687500001 1.03977272727273  6.67968750000001 1.05  6.65859375000001 1.06022727272727  C 6.61640625000001 1.08068181818182  6.57070312500001 1.10454545454545  6.52851562500001 1.125  C 6.51093750000001 1.13522727272727  6.49335937500001 1.14204545454545  6.47226562500001 1.15227272727273  C 6.41250000000001 1.18295454545454  6.34921875000001 1.21363636363636  6.28945312500001 1.24772727272727  C 6.28242187500001 1.25113636363636  6.27539062500001 1.25454545454545  6.26484375000001 1.26136363636364  C 6.21210937500001 1.28863636363636  6.15937500000001 1.31931818181818  6.10664062500001 1.34659090909091  C 6.08554687500001 1.35681818181818  6.06796875000001 1.37045454545454  6.04687500000001 1.38068181818182  C 6.00820312500001 1.40454545454545  5.96601562500001 1.425  5.92734375000001 1.44886363636364  C 5.90625000000001 1.4625  5.88164062500001 1.47613636363636  5.86054687500001 1.48636363636364  C 5.82187500000001 1.51022727272727  5.78320312500001 1.53068181818182  5.74453125000001 1.55454545454545  L 5.68125000000001 1.59545454545454  C 5.63906250000001 1.61931818181818  5.60039062500001 1.64659090909091  5.55820312500001 1.67386363636364  C 5.54062500000001 1.68409090909091  5.52304687500001 1.69431818181818  5.50546875000001 1.70795454545454  C 5.44921875000001 1.74545454545454  5.38945312500001 1.78295454545454  5.33320312500001 1.82045454545454  C 5.33320312500001 1.82045454545454  5.32968750000001 1.82045454545454  5.32968750000001 1.82386363636364  C 5.29453125000001 1.84772727272727  5.26289062500001 1.87159090909091  5.22773437500001 1.89204545454545  C 5.21367187500001 1.90227272727273  5.19609375000001 1.9125  5.18203125000001 1.92272727272727  C 5.13281250000001 1.95681818181818  5.08007812500001 1.99431818181818  5.03085937500001 2.02840909090909  C 5.02382812500001 2.03522727272727  5.01328125000001 2.03863636363636  5.00625000000001 2.04545454545454  C 4.96406250000001 2.07613636363636  4.92187500000001 2.10681818181818  4.88320312500001 2.1375  L 4.83046875000001 2.17840909090909  L 4.73554687500001 2.25  C 4.71445312500001 2.26363636363636  4.69687500000001 2.28068181818182  4.67578125000001 2.29772727272727  C 4.64765625000001 2.32159090909091  4.61953125000001 2.34204545454545  4.59140625000001 2.36590909090909  L 4.52812500000001 2.41704545454545  C 4.50000000000001 2.4375  4.47539062500001 2.46136363636364  4.44726562500001 2.48181818181818  L 4.38398437500001 2.53295454545454  C 4.35937500000001 2.55340909090909  4.33125000000001 2.57727272727273  4.30664062500001 2.59772727272727  C 4.28554687500001 2.61477272727273  4.26445312500001 2.63522727272727  4.24335937500001 2.65227272727273  C 4.22226562500001 2.67272727272727  4.19765625000001 2.68977272727273  4.17656250000001 2.71022727272727  L 4.16953125000001 2.71704545454545  C 4.09218750000001 2.78522727272727  4.01835937500001 2.85  3.94453125000001 2.92159090909091  C 3.93398437500001 2.93181818181818  3.92343750000001 2.94204545454545  3.90937500000001 2.95227272727272  C 3.83554687500001 3.02045454545454  3.76523437500001 3.08863636363636  3.69492187500001 3.15681818181818  C 3.68437500000001 3.17045454545454  3.67031250000001 3.18068181818182  3.65976562500001 3.19431818181818  C 3.58945312500001 3.2625  3.51914062500001 3.33409090909091  3.44882812500001 3.40568181818182  C 3.43828125000001 3.41590909090909  3.42773437500001 3.42954545454545  3.41718750000001 3.43977272727272  C 3.34687500000001 3.51136363636363  3.27656250000001 3.58636363636363  3.20976562500001 3.66136363636363  L 3.20273437500001 3.66818181818182  C 3.19921875000001 3.675  3.19218750000001 3.67840909090909  3.18867187500002 3.68522727272727  C 3.15703125000002 3.71931818181818  3.12890625000002 3.75340909090909  3.09726562500001 3.7875  C 3.06914062500001 3.81818181818182  3.04453125000001 3.84886363636363  3.01640625000001 3.87954545454545  C 2.99531250000001 3.90340909090909  2.97773437500001 3.92727272727272  2.95664062500001 3.94772727272727  C 2.88984375000002 4.02613636363636  2.82304687500001 4.10454545454545  2.75976562500001 4.18295454545454  L 2.75273437500001 4.18977272727272  C 2.68945312500001 4.26818181818182  2.62968750000001 4.3465909090909  2.56640625000001 4.425  C 2.54882812500001 4.44886363636363  2.52773437500001 4.47613636363636  2.51015625000001 4.5  C 2.46445312500001 4.55795454545454  2.41875000000001 4.61931818181818  2.37656250000001 4.68068181818181  C 2.36601562500001 4.69772727272727  2.35195312500001 4.71136363636363  2.34140625000001 4.72840909090909  C 2.33085937500001 4.74545454545454  2.31679687500001 4.7625  2.30625000000001 4.77954545454545  C 2.29570312500001 4.79659090909091  2.28164062500001 4.81363636363636  2.27109375000001 4.83068181818182  C 2.22890625000001 4.88863636363636  2.18671875000001 4.95  2.14804687500001 5.01136363636363  C 2.14453125000001 5.01477272727272  2.14101562500001 5.01818181818182  2.14101562500001 5.025  L 2.01445312500001 5.21931818181818  C 2.00390625000001 5.23636363636363  1.99335937500001 5.25340909090909  1.97929687500001 5.27045454545454  L 1.87382812500001 5.43409090909091  C 1.86679687500001 5.44772727272727  1.85976562500001 5.45795454545454  1.84921875000001 5.47159090909091  C 1.81054687500001 5.53636363636363  1.76835937500001 5.60113636363636  1.72968750000001 5.66931818181818  C 1.71914062500001 5.68636363636363  1.71210937500001 5.70340909090909  1.70156250000001 5.71704545454545  L 1.60664062500001 5.88068181818182  C 1.59609375000001 5.89772727272727  1.58906250000001 5.91477272727272  1.57851562500001 5.92840909090909  C 1.57500000000001 5.93863636363636  1.56796875000001 5.94545454545454  1.56445312500001 5.95568181818182  C 1.53281250000001 6.01363636363636  1.50117187500001 6.06818181818182  1.47304687500001 6.12613636363636  C 1.46953125000001 6.13295454545454  1.46601562500001 6.13636363636363  1.46250000000001 6.14318181818182  C 1.42382812500001 6.21477272727273  1.38867187500001 6.28636363636363  1.35000000000001 6.35795454545454  C 1.33945312500001 6.37840909090909  1.32890625000001 6.40227272727273  1.31835937500001 6.42272727272727  C 1.29375000000001 6.47386363636363  1.26914062500001 6.525  1.24453125000001 6.57272727272727  C 1.23046875000001 6.6  1.21992187500001 6.62386363636363  1.20585937500001 6.65113636363636  C 1.18476562500001 6.69886363636363  1.16015625000001 6.74659090909091  1.13906250000001 6.79431818181818  C 1.12851562500001 6.82159090909091  1.11445312500001 6.84545454545454  1.10390625000001 6.87272727272727  C 1.07929687500001 6.92727272727273  1.05820312500001 6.97840909090909  1.03359375000001 7.03295454545454  C 1.02304687500001 7.05340909090909  1.01601562500001 7.07386363636363  1.00546875000001 7.09431818181818  C 0.973828125000013 7.16931818181818  0.942187500000012 7.24431818181818  0.914062500000013 7.31590909090909  C 0.907031250000013 7.32954545454545  0.903515625000013 7.34318181818182  0.896484375000013 7.35681818181818  C 0.875390625000013 7.40795454545454  0.857812500000013 7.45909090909091  0.836718750000013 7.50681818181818  L 0.826171875000013 7.5375  C 0.812109375000013 7.57499999999999  0.798046875000013 7.6090909090909  0.787500000000013 7.6465909090909  C 0.769921875000013 7.69090909090909  0.755859375000013 7.73522727272727  0.738281250000013 7.77954545454545  C 0.724218750000013 7.81704545454545  0.713671875000013 7.85454545454545  0.699609375000013 7.88863636363636  C 0.685546875000013 7.93295454545454  0.671484375000013 7.97727272727272  0.653906250000013 8.0215909090909  C 0.643359375000012 8.0590909090909  0.629296875000013 8.0965909090909  0.618750000000013 8.1340909090909  L 0.576562500000013 8.26704545454545  C 0.566015625000013 8.30454545454545  0.555468750000013 8.34204545454545  0.541406250000013 8.37954545454545  C 0.527343750000013 8.42386363636363  0.516796875000014 8.46818181818181  0.502734375000013 8.51249999999999  C 0.492187500000013 8.54999999999999  0.481640625000014 8.58749999999999  0.471093750000013 8.62840909090908  C 0.460546875000013 8.67272727272726  0.446484375000014 8.71704545454545  0.435937500000013 8.76136363636363  C 0.425390625000013 8.79886363636363  0.414843750000013 8.83977272727272  0.407812500000013 8.87727272727272  L 0.376171875000013 9.01022727272726  C 0.365625000000012 9.04772727272726  0.358593750000013 9.08863636363635  0.351562500000013 9.12613636363635  C 0.341015625000013 9.17045454545453  0.333984375000013 9.21477272727271  0.323437500000013 9.26249999999999  C 0.316406250000013 9.29999999999999  0.305859375000013 9.34090909090908  0.298828125000013 9.37840909090908  C 0.288281250000013 9.42272727272726  0.281250000000013 9.47045454545453  0.274218750000013 9.51477272727271  C 0.267187500000014 9.55227272727272  0.260156250000013 9.59318181818181  0.253125000000014 9.6306818181818  C 0.246093750000014 9.67840909090908  0.239062500000013 9.72272727272726  0.232031250000014 9.77045454545453  C 0.225000000000014 9.80795454545453  0.217968750000014 9.84886363636362  0.214453125000014 9.88636363636362  C 0.207421875000014 9.93409090909089  0.200390625000014 9.98181818181817  0.193359375000014 10.0261363636364  C 0.189843750000014 10.0636363636364  0.182812500000014 10.1045454545454  0.179296875000014 10.1420454545454  C 0.172265625000014 10.1897727272727  0.168750000000013 10.2375  0.161718750000014 10.2852272727273  C 0.158203125000014 10.3227272727273  0.154687500000014 10.3602272727273  0.147656250000014 10.3977272727273  C 0.144140625000014 10.4454545454545  0.137109375000013 10.4965909090909  0.133593750000013 10.5443181818182  C 0.130078125000014 10.5818181818182  0.126562500000014 10.6193181818182  0.123046875000013 10.6534090909091  C 0.119531250000013 10.7045454545454  0.116015625000013 10.7556818181818  0.112500000000013 10.8102272727273  C 0.108984375000013 10.8443181818182  0.108984375000013 10.8784090909091  0.105468750000013 10.9159090909091  C 0.101953125000013 10.9738636363636  0.101953125000013 11.0318181818182  0.0984375000000134 11.0897727272727  C 0.0984375000000134 11.1204545454545  0.0949218750000136 11.1477272727273  0.0949218750000136 11.1784090909091  C 0.0914062500000138 11.2670454545454  0.0914062500000138 11.3522727272727  0.0914062500000138 11.4409090909091  C 0.087890625000014 12.8931818181818  0.379687500000013 14.2295454545454  0.910546875000014 15.4022727272727  C 1.12148437500001 15.8727272727273  1.37109375000001 16.3125  1.65234375000001 16.725  C 1.93007812500001 17.1272727272727  2.23945312500001 17.5022727272727  2.57695312500001 17.8465909090909  C 2.64726562500001 17.9181818181818  2.72109375000002 17.9897727272727  2.79492187500001 18.0579545454545  C 2.81250000000001 18.075  2.83007812500001 18.0886363636364  2.84765625000001 18.1056818181818  C 2.86875000000001 18.1227272727273  2.88632812500001 18.1431818181818  2.90742187500001 18.1602272727273  C 2.92500000000001 18.1738636363636  2.94257812500001 18.1909090909091  2.95664062500001 18.2045454545454  C 2.97773437500001 18.225  2.99882812500001 18.2420454545454  3.01992187500001 18.2625  C 3.03750000000001 18.2761363636364  3.05507812500001 18.2931818181818  3.07265625000001 18.3068181818182  C 3.09375000000001 18.3238636363636  3.11484375000001 18.3443181818182  3.13593750000001 18.3613636363636  L 3.18867187500001 18.4022727272727  C 3.20976562500001 18.4193181818182  3.23085937500001 18.4397727272727  3.25546875000001 18.4568181818182  C 3.27304687500001 18.4704545454545  3.29414062500001 18.4875  3.31171875000001 18.5011363636364  C 3.33281250000001 18.5181818181818  3.35390625000001 18.5352272727273  3.37500000000001 18.5488636363636  C 3.39609375000001 18.5625  3.41367187500001 18.5795454545454  3.43476562500001 18.5931818181818  C 3.45585937500001 18.6102272727273  3.47695312500001 18.6238636363636  3.49453125000001 18.6409090909091  C 3.51562500000001 18.6579545454545  3.53671875000001 18.6715909090909  3.55781250000001 18.6886363636363  C 3.57890625000001 18.7022727272727  3.59648437500001 18.7193181818182  3.61757812500001 18.7329545454545  C 3.63867187500001 18.75  3.66328125000001 18.7636363636363  3.68437500000001 18.7806818181818  C 3.70546875000001 18.7943181818182  3.72304687500001 18.8079545454545  3.74414062500001 18.8215909090909  L 3.80742187500001 18.8625  C 3.82851562500001 18.8761363636364  3.84960937500001 18.8897727272727  3.87070312500001 18.9068181818182  C 3.89179687500001 18.9204545454545  3.91640625000001 18.9340909090909  3.93750000000001 18.9477272727273  L 4.00078125000001 18.9886363636364  C 4.02539062500001 19.0022727272727  4.04648437500001 19.0159090909091  4.07109375000001 19.0329545454545  C 4.09218750000001 19.0465909090909  4.10976562500001 19.0568181818182  4.13085937500001 19.0704545454545  C 4.15195312500001 19.0840909090909  4.17656250000001 19.0977272727273  4.19765625000001 19.1113636363636  C 4.21875000000001 19.125  4.23984375000001 19.1352272727273  4.26093750000001 19.1488636363636  C 4.28554687500001 19.1625  4.31015625000001 19.1761363636364  4.33125000000001 19.1897727272727  C 4.35234375000001 19.2  4.37343750000001 19.2136363636364  4.39101562500001 19.2238636363636  C 4.41562500000001 19.2375  4.44023437500001 19.2511363636364  4.46132812500001 19.2613636363636  C 4.48242187500001 19.2715909090909  4.50351562500001 19.2852272727273  4.52109375000001 19.2954545454545  L 4.52460937500001 19.2954545454545  L 6.76406250000001 20.475  L 7.73085937500001 20.9829545454545  L 7.73437500000001 20.9829545454545  C 7.70976562500001 20.9693181818182  7.68867187500001 20.9590909090909  7.66757812500001 20.9454545454545  C 7.64648437500001 20.9318181818182  7.62187500000001 20.9215909090909  7.60078125000001 20.9079545454545  C 7.57968750000001 20.8943181818182  7.55507812500001 20.8840909090909  7.53398437500001 20.8704545454545  C 7.51289062500001 20.8568181818182  7.48828125000001 20.8465909090909  7.46718750000002 20.8329545454545  C 7.44257812500002 20.8193181818182  7.42148437500001 20.8056818181818  7.40039062500002 20.7920454545454  C 7.37929687500002 20.7784090909091  7.35820312500002 20.7681818181818  7.33710937500002 20.7545454545454  L 7.27382812500002 20.7136363636364  L 7.21054687500001 20.6727272727273  C 7.18945312500001 20.6590909090909  7.16835937500002 20.6454545454545  7.14375000000002 20.6318181818182  L 7.08046875000002 20.5909090909091  C 7.05937500000001 20.5772727272727  7.03828125000002 20.5636363636363  7.01718750000001 20.5465909090909  L 6.95390625000001 20.5056818181818  C 6.93281250000001 20.4920454545454  6.91523437500001 20.4784090909091  6.89414062500001 20.4647727272727  C 6.87304687500001 20.4477272727273  6.84843750000001 20.4340909090909  6.82734375000002 20.4170454545454  C 6.80625000000001 20.4034090909091  6.78867187500001 20.3897727272727  6.76757812500002 20.3727272727273  C 6.74648437500002 20.3556818181818  6.72539062500002 20.3420454545454  6.70429687500002 20.325  C 6.68320312500001 20.3113636363636  6.66210937500002 20.2943181818182  6.64453125000002 20.2772727272727  C 6.62343750000002 20.2636363636363  6.60585937500002 20.2465909090909  6.58476562500002 20.2329545454545  C 6.56367187500002 20.2159090909091  6.54257812500002 20.1988636363636  6.52148437500002 20.1852272727273  C 6.50390625000002 20.1715909090909  6.48281250000002 20.1545454545454  6.46523437500002 20.1409090909091  C 6.44414062500001 20.1238636363636  6.41953125000001 20.1034090909091  6.39843750000002 20.0863636363636  L 6.34570312500002 20.0454545454545  C 6.32460937500002 20.0284090909091  6.30351562500002 20.0113636363636  6.28242187500002 19.9909090909091  C 6.26484375000002 19.9772727272727  6.24726562500002 19.9602272727273  6.22968750000002 19.9465909090909  C 6.20859375000001 19.9295454545454  6.18750000000002 19.9090909090909  6.16640625000002 19.8886363636363  C 6.14882812500002 19.875  6.13125000000002 19.8579545454545  6.11718750000002 19.8443181818182  C 6.09609375000002 19.8272727272727  6.07851562500002 19.8068181818182  6.05742187500002 19.7897727272727  C 6.03984375000002 19.7727272727273  6.02226562500002 19.7590909090909  6.00468750000002 19.7420454545454  C 5.93085937500002 19.6738636363636  5.85703125000002 19.6022727272727  5.78671875000002 19.5306818181818  C 5.44921875000002 19.1897727272727  5.13984375000002 18.8147727272727  4.86210937500002 18.4090909090909  C 4.57734375000002 17.9965909090909  4.33125000000002 17.5534090909091  4.12031250000002 17.0863636363636  C 3.59296875000002 15.9136363636363  3.29765625000002 14.5738636363636  3.30117187500002 13.125  C 3.30117187500002 13.0363636363636  3.30117187500002 12.9511363636363  3.30468750000002 12.8625  Z " fill-rule="nonzero" fill="#ffa300" stroke="none" transform="matrix(1 0 0 1 114 453 )" />
  </g>
</svg>