<?xml version="1.0" encoding="utf-8"?>
<svg version="1.1" xmlns:xlink="http://www.w3.org/1999/xlink" width="7px" height="6px" xmlns="http://www.w3.org/2000/svg">
  <g transform="matrix(1 0 0 1 -955 -454 )">
    <path d="M 5.8125 4.40795454545454  C 5.81875 4.3875  5.821875 4.37727272727273  5.821875 4.36704545454545  C 5.821875 4.36022727272727  5.821875 4.35340909090909  5.825 4.34659090909091  C 5.825 4.33636363636364  5.828125 4.32954545454545  5.828125 4.31931818181818  C 5.828125 4.3125  5.83125 4.30568181818182  5.83125 4.29886363636364  C 5.83125 4.29204545454545  5.834375 4.28181818181818  5.834375 4.275  C 5.834375 4.26818181818182  5.8375 4.26136363636364  5.8375 4.25454545454545  C 5.8375 4.24772727272727  5.840625 4.2375  5.840625 4.23068181818182  C 5.840625 4.22386363636364  5.84375 4.21704545454546  5.846875 4.21022727272727  C 5.85000000000001 4.20340909090909  5.85000000000001 4.19318181818182  5.85312500000001 4.18636363636364  C 5.85625000000001 4.17954545454546  5.85625000000001 4.17272727272727  5.85937500000001 4.16590909090909  C 5.86250000000001 4.15909090909091  5.86250000000001 4.14886363636364  5.86562500000001 4.14204545454546  C 5.86875000000001 4.13522727272728  5.86875000000001 4.12840909090909  5.87187500000001 4.12159090909091  C 5.87500000000001 4.11477272727273  5.87500000000001 4.10795454545455  5.87812500000001 4.09772727272728  C 5.88437500000001 4.07727272727273  5.89375000000001 4.05681818181818  5.90312500000001 4.03295454545455  C 5.90625000000001 4.02954545454546  5.90625000000001 4.02613636363637  5.90937500000001 4.01931818181818  L 5.93750000000001 3.95795454545455  C 5.94062500000001 3.95454545454546  5.94062500000001 3.95113636363637  5.94375000000001 3.94431818181818  C 5.95000000000001 3.93068181818182  5.95625000000001 3.91704545454546  5.96562500000001 3.90340909090909  C 5.96875000000001 3.9  5.96875000000001 3.89659090909091  5.97187500000001 3.88977272727273  C 5.98125000000001 3.87272727272727  5.99062500000002 3.85909090909091  6.00000000000001 3.84204545454546  C 6.00312500000001 3.83863636363637  6.00312500000001 3.83522727272727  6.00625000000002 3.83181818181818  C 6.01250000000002 3.82159090909091  6.02187500000002 3.80795454545455  6.03125000000001 3.79772727272727  C 6.03437500000001 3.79431818181818  6.03750000000002 3.7875  6.04062500000001 3.78409090909091  C 6.05000000000001 3.77386363636364  6.05625000000001 3.76022727272727  6.06562500000001 3.75  C 6.06875000000001 3.74659090909091  6.06875000000001 3.74318181818182  6.07187500000001 3.73977272727273  C 6.08437500000001 3.72613636363636  6.09375000000001 3.7125  6.10625000000001 3.69886363636364  L 6.11562500000001 3.68863636363636  C 6.12500000000001 3.67840909090909  6.13437500000001 3.66818181818182  6.14375000000001 3.66136363636364  L 6.15312500000001 3.65113636363636  C 6.16562500000001 3.6375  6.17812500000001 3.62727272727273  6.19375000000001 3.61363636363636  L 6.19687500000001 3.61363636363636  C 6.20937500000001 3.60340909090909  6.22500000000001 3.59318181818182  6.23750000000001 3.57954545454545  C 6.24062500000001 3.57613636363636  6.24375000000001 3.57272727272727  6.24687500000001 3.57272727272727  C 6.26562500000001 3.55909090909091  6.28125000000001 3.54886363636364  6.30000000000001 3.53522727272727  C 6.30312500000001 3.53181818181818  6.30625000000001 3.53181818181818  6.30937500000001 3.53181818181818  C 6.32812500000001 3.52159090909091  6.34687500000001 3.50795454545455  6.36562500000001 3.49772727272727  C 6.36875000000001 3.49772727272727  6.36875000000001 3.49772727272727  6.37187500000001 3.49431818181818  C 6.38750000000001 3.4875  6.40000000000001 3.48068181818182  6.41562500000001 3.47386363636364  C 6.41875000000001 3.47045454545455  6.425 3.47045454545455  6.42812500000001 3.46704545454546  C 6.44375000000001 3.46022727272727  6.46250000000001 3.45340909090909  6.47812500000001 3.45  L 6.48125000000001 3.45  C 6.49687500000001 3.44318181818182  6.51250000000001 3.43977272727273  6.52812500000001 3.43636363636364  C 6.53125000000001 3.43636363636364  6.53750000000001 3.43295454545455  6.54062500000001 3.43295454545455  C 6.55937500000001 3.42954545454546  6.57500000000001 3.42613636363637  6.59375000000001 3.42272727272727  C 6.61562500000001 3.41931818181818  6.63750000000001 3.41590909090909  6.65625000000001 3.41590909090909  L 6.74062500000001 3.41590909090909  C 6.75312500000001 3.41590909090909  6.76875000000001 3.41931818181818  6.78125000000001 3.41931818181818  C 6.78750000000001 3.41931818181818  6.79375000000001 3.42272727272727  6.80000000000001 3.42272727272727  C 6.81875000000001 3.42613636363636  6.83437500000001 3.42954545454546  6.85000000000001 3.43295454545455  C 6.85312500000001 3.43295454545455  6.85625000000001 3.43295454545455  6.85625000000001 3.43636363636364  L 6.91250000000001 3.45681818181818  C 6.91875000000001 3.46022727272727  6.92187500000001 3.46022727272727  6.92812500000001 3.46363636363636  C 6.94062500000001 3.47045454545455  6.95312500000001 3.47386363636364  6.96562500000001 3.48068181818182  C 6.97500000000001 3.4875  6.98750000000001 3.49090909090909  6.99687500000001 3.49772727272727  L 1.3 0.132954545454545  C 1.29375 0.129545454545454  1.284375 0.122727272727273  1.278125 0.119318181818182  C 1.275 0.119318181818182  1.271875 0.115909090909091  1.26875 0.115909090909091  C 1.25625 0.109090909090909  1.24375 0.102272727272727  1.23125 0.0988636363636363  C 1.225 0.0954545454545454  1.221875 0.0954545454545454  1.215625 0.0920454545454544  L 1.159375 0.0715909090909089  L 1.153125 0.0715909090909089  C 1.1375 0.0681818181818179  1.11875 0.064772727272727  1.103125 0.0613636363636363  C 1.096875 0.0613636363636363  1.090625 0.0579545454545453  1.084375 0.0579545454545453  C 1.071875 0.0545454545454544  1.05625 0.0545454545454544  1.04375 0.0545454545454544  L 0.959375 0.0545454545454544  C 0.9375 0.0545454545454544  0.915625 0.0579545454545453  0.896875 0.0613636363636363  C 0.878124999999999 0.0647727272727272  0.862499999999999 0.0681818181818182  0.84375 0.0715909090909089  C 0.840624999999999 0.0715909090909089  0.834375 0.0749999999999999  0.831250000000001 0.0749999999999999  C 0.815625000000001 0.0784090909090908  0.800000000000001 0.0852272727272725  0.784375000000001 0.0886363636363634  L 0.78125 0.0886363636363634  C 0.765625 0.0954545454545454  0.746874999999999 0.0988636363636361  0.731249999999999 0.105681818181818  C 0.728124999999999 0.109090909090909  0.721874999999999 0.109090909090909  0.71875 0.1125  C 0.703125 0.119318181818182  0.690625000000001 0.126136363636363  0.675000000000001 0.132954545454545  C 0.675000000000001 0.132954545454545  0.671875 0.132954545454545  0.671875 0.136363636363636  C 0.653124999999999 0.146590909090909  0.634375 0.156818181818182  0.615625 0.170454545454545  C 0.612499999999999 0.173863636363636  0.609375 0.173863636363636  0.606249999999999 0.173863636363636  C 0.587499999999999 0.184090909090909  0.571874999999999 0.197727272727273  0.553125 0.211363636363636  C 0.549999999999999 0.211363636363636  0.549999999999999 0.214772727272727  0.546875 0.214772727272727  C 0.543750000000001 0.214772727272727  0.543749999999999 0.218181818181818  0.540625 0.218181818181818  C 0.528125000000001 0.228409090909091  0.512500000000001 0.238636363636364  0.5 0.252272727272727  L 0.496874999999999 0.252272727272727  C 0.484375 0.2625  0.46875 0.276136363636364  0.456249999999999 0.289772727272728  C 0.456249999999999 0.289772727272728  0.453124999999998 0.293181818181818  0.449999999999999 0.293181818181818  L 0.44375 0.3  C 0.434374999999999 0.310227272727273  0.424999999999999 0.320454545454546  0.415625 0.327272727272728  L 0.40625 0.3375  C 0.393750000000001 0.351136363636364  0.384375 0.364772727272727  0.371874999999999 0.378409090909091  L 0.368749999999999 0.381818181818182  L 0.362499999999999 0.388636363636364  C 0.353124999999999 0.398863636363637  0.343749999999998 0.40909090909091  0.337499999999999 0.422727272727273  C 0.334374999999998 0.426136363636364  0.331249999999999 0.432954545454546  0.328124999999998 0.436363636363637  C 0.318749999999998 0.446590909090909  0.312499999999998 0.460227272727273  0.303124999999998 0.470454545454546  L 0.296874999999998 0.477272727272728  L 0.296874999999998 0.480681818181819  C 0.287499999999998 0.497727272727273  0.278124999999998 0.511363636363637  0.268749999999999 0.528409090909091  C 0.265624999999998 0.531818181818182  0.265624999999998 0.535227272727273  0.262499999999999 0.542045454545455  C 0.25625 0.555681818181819  0.246874999999999 0.569318181818182  0.240625 0.582954545454546  C 0.240625 0.586363636363637  0.237499999999999 0.589772727272728  0.237499999999999 0.589772727272728  C 0.237499999999999 0.589772727272728  0.237499999999999 0.593181818181819  0.234374999999998 0.593181818181819  L 0.206249999999999 0.654545454545455  C 0.203124999999998 0.657954545454546  0.203124999999998 0.661363636363637  0.199999999999999 0.664772727272728  C 0.190624999999999 0.685227272727273  0.184374999999999 0.705681818181819  0.174999999999999 0.729545454545455  C 0.171874999999998 0.736363636363637  0.171874999999998 0.743181818181819  0.168749999999999 0.75  C 0.165624999999999 0.756818181818183  0.165624999999999 0.763636363636364  0.1625 0.770454545454546  C 0.159374999999999 0.777272727272728  0.159374999999999 0.787500000000001  0.15625 0.794318181818182  C 0.153124999999999 0.801136363636364  0.153124999999999 0.807954545454546  0.15 0.814772727272728  C 0.146875 0.82159090909091  0.146875 0.831818181818182  0.143750000000001 0.838636363636365  C 0.140625 0.845454545454546  0.140625 0.852272727272728  0.137500000000001 0.85909090909091  C 0.134375 0.865909090909092  0.134375 0.876136363636364  0.134375 0.882954545454546  C 0.134375 0.889772727272728  0.13125 0.89659090909091  0.13125 0.903409090909091  C 0.13125 0.910227272727273  0.128124999999999 0.920454545454546  0.128124999999999 0.927272727272728  C 0.128124999999999 0.93409090909091  0.124999999999998 0.940909090909092  0.124999999999998 0.947727272727273  C 0.124999999999998 0.957954545454546  0.121874999999997 0.964772727272728  0.121874999999997 0.975  C 0.121874999999997 0.981818181818182  0.121874999999997 0.988636363636364  0.118749999999997 0.995454545454546  C 0.118749999999997 1.00568181818182  0.118749999999997 1.01590909090909  0.115624999999996 1.02613636363636  L 0.115624999999996 1.09090909090909  L 0.112499999999995 2.36931818181818  L 5.809375 5.75113636363636  L 5.8125 4.47272727272727  L 5.8125 4.425  L 5.8125 4.40795454545454  Z " fill-rule="nonzero" fill="#00b794" stroke="none" transform="matrix(1 0 0 1 955 454 )" />
  </g>
</svg>