<?xml version="1.0" encoding="utf-8"?>
<svg version="1.1" xmlns:xlink="http://www.w3.org/1999/xlink" width="7px" height="6px" xmlns="http://www.w3.org/2000/svg">
  <g transform="matrix(1 0 0 1 -958 -454 )">
    <path d="M 5.72068965517241 4.59545454545455  C 5.72974137931034 4.575  5.72974137931034 4.56477272727273  5.72974137931034 4.55454545454545  C 5.72974137931034 4.54772727272727  5.72974137931034 4.54090909090909  5.73275862068966 4.5375  C 5.73275862068966 4.52727272727273  5.73577586206897 4.52045454545455  5.73577586206897 4.51022727272727  C 5.73577586206897 4.50340909090909  5.73879310344828 4.49659090909091  5.73879310344828 4.48977272727273  C 5.73879310344828 4.47954545454545  5.74181034482759 4.47272727272727  5.74181034482759 4.4625  C 5.74181034482759 4.45568181818182  5.7448275862069 4.44886363636364  5.7448275862069 4.44204545454545  C 5.74784482758621 4.43522727272727  5.74784482758621 4.425  5.75086206896552 4.41818181818182  C 5.75086206896552 4.41136363636364  5.75387931034483 4.40454545454545  5.75387931034483 4.39772727272727  C 5.75689655172414 4.39090909090909  5.75689655172414 4.38068181818182  5.75991379310346 4.37386363636364  C 5.76293103448277 4.36704545454546  5.76293103448277 4.36022727272727  5.76594827586208 4.35340909090909  C 5.76896551724139 4.34659090909091  5.76896551724139 4.33636363636364  5.7719827586207 4.32954545454546  C 5.77500000000001 4.32272727272727  5.77500000000001 4.31590909090909  5.77801724137932 4.30909090909091  C 5.78103448275863 4.30227272727273  5.78103448275863 4.29545454545455  5.78405172413794 4.28863636363636  C 5.79008620689657 4.26818181818182  5.79913793103449 4.24772727272727  5.80818965517242 4.22386363636364  C 5.81120689655174 4.22045454545455  5.81120689655174 4.21704545454546  5.81422413793105 4.21363636363636  L 5.84137931034484 4.15227272727273  C 5.84439655172415 4.14886363636364  5.84439655172415 4.14545454545455  5.84741379310346 4.13863636363636  C 5.85344827586208 4.125  5.8594827586207 4.11136363636364  5.86853448275863 4.09772727272727  C 5.87155172413795 4.09431818181818  5.87155172413795 4.09090909090909  5.87456896551726 4.0875  C 5.88362068965519 4.07045454545455  5.89267241379312 4.05681818181818  5.90172413793105 4.03977272727273  C 5.90474137931036 4.03636363636364  5.90474137931036 4.03295454545455  5.90775862068967 4.02954545454545  C 5.91379310344829 4.01931818181818  5.92284482758622 4.00568181818182  5.93189655172415 3.99545454545455  C 5.93491379310346 3.99204545454545  5.93793103448277 3.98522727272727  5.94094827586208 3.98181818181818  C 5.95000000000001 3.97159090909091  5.95603448275863 3.95795454545455  5.96508620689656 3.94772727272727  C 5.96810344827587 3.94431818181818  5.96810344827587 3.94090909090909  5.97112068965519 3.9375  C 5.98318965517243 3.92386363636364  5.99224137931036 3.91022727272727  6.0043103448276 3.89659090909091  L 6.01336206896553 3.88636363636364  C 6.02241379310346 3.87613636363636  6.03146551724139 3.86590909090909  6.04051724137932 3.85909090909091  L 6.04956896551725 3.84886363636363  C 6.06163793103449 3.83522727272727  6.07370689655173 3.825  6.08879310344828 3.81136363636363  L 6.0918103448276 3.81136363636363  C 6.10387931034484 3.80113636363636  6.11896551724139 3.79090909090909  6.13103448275863 3.77727272727273  C 6.13405172413794 3.77386363636364  6.13706896551725 3.77045454545454  6.14008620689656 3.77045454545454  C 6.15818965517242 3.75681818181818  6.17327586206897 3.74659090909091  6.19137931034484 3.73295454545454  C 6.19439655172415 3.72954545454545  6.19741379310346 3.72954545454545  6.20043103448277 3.72954545454545  C 6.21853448275863 3.71931818181818  6.23663793103449 3.70568181818182  6.25474137931035 3.69545454545454  C 6.25775862068966 3.69545454545454  6.25775862068966 3.69545454545454  6.26077586206897 3.69204545454545  C 6.27586206896552 3.68522727272727  6.28793103448276 3.67840909090909  6.30301724137932 3.67159090909091  C 6.30603448275863 3.66818181818182  6.31206896551725 3.66818181818182  6.31508620689656 3.66477272727273  C 6.33017241379311 3.65795454545454  6.34827586206897 3.65113636363636  6.36336206896552 3.64772727272727  L 6.36637931034483 3.64772727272727  C 6.38146551724139 3.64090909090909  6.39655172413794 3.6375  6.41163793103449 3.63409090909091  C 6.4146551724138 3.63409090909091  6.42068965517242 3.63068181818182  6.42370689655173 3.63068181818182  C 6.44181034482759 3.62727272727273  6.45689655172415 3.62386363636364  6.47500000000001 3.62045454545454  C 6.49612068965518 3.61704545454545  6.51724137931035 3.61363636363636  6.53534482758621 3.61363636363636  L 6.6168103448276 3.61363636363636  C 6.62887931034484 3.61363636363636  6.64396551724139 3.61704545454545  6.65603448275863 3.61704545454545  C 6.66206896551725 3.61704545454545  6.66810344827587 3.62045454545454  6.67413793103449 3.62045454545454  C 6.69224137931035 3.62386363636363  6.70732758620691 3.62727272727273  6.72241379310346 3.63068181818182  C 6.72543103448277 3.63068181818182  6.72844827586208 3.63068181818182  6.72844827586208 3.63409090909091  L 6.78275862068966 3.65454545454545  C 6.78879310344829 3.65795454545454  6.79181034482759 3.65795454545454  6.79784482758622 3.66136363636363  C 6.80991379310346 3.66818181818182  6.8219827586207 3.67159090909091  6.83405172413794 3.67840909090909  C 6.84310344827587 3.68522727272727  6.85517241379311 3.68863636363636  6.86422413793104 3.69545454545454  L 1.36379310344828 0.320454545454544  C 1.35775862068966 0.317045454545453  1.34870689655173 0.310227272727271  1.34267241379311 0.30681818181818  C 1.3396551724138 0.30681818181818  1.33663793103449 0.303409090909089  1.33362068965518 0.303409090909089  C 1.32155172413794 0.296590909090907  1.3094827586207 0.289772727272726  1.29741379310346 0.286363636363635  C 1.29137931034483 0.282954545454544  1.28836206896553 0.282954545454544  1.2823275862069 0.279545454545453  L 1.22801724137932 0.259090909090907  L 1.2219827586207 0.259090909090907  C 1.20689655172414 0.255681818181816  1.18879310344828 0.252272727272726  1.17370689655173 0.248863636363635  C 1.16767241379311 0.248863636363635  1.16163793103449 0.245454545454544  1.15560344827587 0.245454545454544  C 1.14353448275863 0.242045454545453  1.12844827586208 0.242045454545453  1.11637931034483 0.242045454545453  L 1.03491379310345 0.242045454545453  C 1.01379310344828 0.242045454545453  0.992672413793105 0.245454545454544  0.974568965517242 0.248863636363634  C 0.956465517241379 0.252272727272725  0.941379310344827 0.255681818181816  0.923275862068966 0.259090909090907  C 0.920258620689655 0.259090909090907  0.914224137931035 0.262499999999998  0.911206896551726 0.262499999999998  C 0.896120689655174 0.265909090909089  0.881034482758622 0.272727272727271  0.86594827586207 0.276136363636362  L 0.862931034482759 0.276136363636362  C 0.847844827586208 0.282954545454544  0.829741379310345 0.286363636363634  0.814655172413793 0.293181818181816  C 0.811637931034482 0.296590909090907  0.805603448275862 0.296590909090907  0.802586206896552 0.299999999999998  C 0.787500000000001 0.30681818181818  0.77543103448276 0.313636363636362  0.760344827586208 0.320454545454544  C 0.760344827586208 0.320454545454544  0.757327586206897 0.320454545454544  0.757327586206897 0.323863636363635  C 0.739224137931034 0.334090909090907  0.721120689655174 0.34431818181818  0.703017241379311 0.357954545454544  C 0.7 0.361363636363635  0.69698275862069 0.361363636363635  0.693965517241379 0.361363636363635  C 0.675862068965517 0.371590909090907  0.660775862068965 0.385227272727271  0.642672413793104 0.398863636363635  C 0.642672413793104 0.398863636363635  0.639655172413793 0.402272727272726  0.636637931034483 0.402272727272726  C 0.633620689655174 0.402272727272726  0.633620689655172 0.405681818181817  0.630603448275863 0.405681818181817  C 0.618534482758622 0.415909090909089  0.603448275862071 0.426136363636362  0.591379310344828 0.439772727272726  L 0.588362068965517 0.439772727272726  C 0.576293103448277 0.449999999999998  0.561206896551725 0.463636363636362  0.549137931034482 0.477272727272726  C 0.549137931034482 0.477272727272726  0.546120689655171 0.480681818181817  0.543103448275862 0.480681818181817  L 0.537068965517242 0.487499999999998  C 0.52801724137931 0.497727272727271  0.518965517241379 0.507954545454544  0.509913793103449 0.514772727272726  L 0.500862068965518 0.524999999999998  C 0.488793103448277 0.538636363636362  0.479741379310346 0.552272727272726  0.467672413793103 0.565909090909089  L 0.464655172413792 0.569318181818181  L 0.458620689655172 0.576136363636362  C 0.449568965517241 0.586363636363635  0.440517241379309 0.596590909090908  0.434482758620689 0.610227272727272  C 0.431465517241378 0.613636363636362  0.428448275862069 0.620454545454544  0.425431034482758 0.623863636363635  C 0.416379310344826 0.634090909090908  0.410344827586206 0.647727272727271  0.401293103448274 0.657954545454544  L 0.395258620689654 0.664772727272726  L 0.395258620689654 0.668181818181817  C 0.386206896551723 0.685227272727272  0.377155172413791 0.698863636363635  0.368103448275862 0.71590909090909  C 0.365086206896551 0.719318181818181  0.365086206896551 0.722727272727272  0.362068965517241 0.726136363636362  C 0.356034482758621 0.739772727272726  0.34698275862069 0.753409090909089  0.340948275862069 0.767045454545453  C 0.340948275862069 0.770454545454544  0.337931034482758 0.773863636363635  0.337931034482758 0.773863636363635  C 0.337931034482758 0.773863636363635  0.337931034482758 0.777272727272726  0.334913793103447 0.777272727272726  L 0.307758620689655 0.838636363636363  C 0.304741379310344 0.842045454545453  0.304741379310344 0.845454545454544  0.301724137931034 0.852272727272726  C 0.292672413793103 0.872727272727271  0.286637931034483 0.893181818181817  0.277586206896551 0.917045454545453  C 0.27456896551724 0.923863636363635  0.27456896551724 0.930681818181817  0.271551724137931 0.937499999999999  C 0.26853448275862 0.944318181818181  0.26853448275862 0.951136363636362  0.265517241379311 0.957954545454544  C 0.2625 0.964772727272726  0.2625 0.974999999999999  0.25948275862069 0.981818181818181  C 0.256465517241379 0.988636363636363  0.256465517241379 0.995454545454544  0.25344827586207 1.00227272727273  C 0.250431034482759 1.00909090909091  0.250431034482759 1.01931818181818  0.24741379310345 1.02613636363636  C 0.24741379310345 1.03295454545454  0.244396551724139 1.03977272727273  0.244396551724139 1.04659090909091  C 0.241379310344828 1.05340909090909  0.241379310344828 1.06363636363636  0.238362068965518 1.07045454545454  C 0.238362068965518 1.07727272727273  0.235344827586207 1.08409090909091  0.235344827586207 1.09090909090909  C 0.235344827586207 1.10113636363636  0.232327586206896 1.10795454545454  0.232327586206896 1.11818181818182  C 0.232327586206896 1.125  0.229310344827585 1.13181818181818  0.229310344827585 1.13863636363636  C 0.229310344827585 1.14886363636364  0.226293103448274 1.15568181818182  0.226293103448274 1.16590909090909  C 0.226293103448274 1.17272727272727  0.226293103448274 1.17954545454545  0.223275862068963 1.18295454545454  C 0.223275862068963 1.19318181818182  0.223275862068963 1.20340909090909  0.220258620689652 1.21363636363636  L 0.220258620689652 1.275  L 0.217241379310341 2.55340909090909  L 5.7176724137931 5.93522727272727  L 5.72068965517241 4.65681818181818  L 5.72068965517241 4.60909090909091  L 5.72068965517241 4.59545454545455  Z " fill-rule="nonzero" fill="#00b794" stroke="none" transform="matrix(1 0 0 1 958 454 )" />
  </g>
</svg>