<?xml version="1.0" encoding="utf-8"?>
<svg version="1.1" xmlns:xlink="http://www.w3.org/1999/xlink" width="7px" height="9px" xmlns="http://www.w3.org/2000/svg">
  <g transform="matrix(1 0 0 1 -932 -42 )">
    <path d="M 1.20511363636364 0.943269230769234  L 5.93409090909091 0.220673076923078  C 6.38352272727273 0.151442307692308  6.76136363636364 0.467307692307693  6.85284090909091 0.947596153846155  C 6.83693181818182 1.02548076923077  6.82897727272727 1.10769230769231  6.82897727272727 1.18990384615385  L 6.82102272727273 6.74567307692308  C 6.82102272727273 6.82788461538462  6.82897727272727 6.90576923076924  6.84090909090909 6.97932692307693  C 6.74545454545455 7.48990384615385  6.36761363636364 7.92259615384615  5.91818181818182 7.9875  L 1.19318181818182 8.71442307692308  C 0.676136363636364 8.79230769230769  0.250568181818182 8.35961538461538  0.250568181818182 7.74951923076923  L 0.258522727272727 2.19375  C 0.258522727272727 1.58365384615385  0.684090909090909 1.02115384615385  1.20511363636364 0.943269230769234  Z " fill-rule="nonzero" fill="#50e6cc" stroke="none" transform="matrix(1 0 0 1 932 42 )" />
  </g>
</svg>