<?xml version="1.0" encoding="utf-8"?>
<svg version="1.1" xmlns:xlink="http://www.w3.org/1999/xlink" width="10px" height="10px" xmlns="http://www.w3.org/2000/svg">
  <g transform="matrix(1 0 0 1 -939 -49 )">
    <path d="M 9.29296875 2.01209677419355  L 9.3203125 2.01209677419355  L 9.3984375 2.01209677419355  C 9.4140625 2.01209677419355  9.4296875 2.01612903225806  9.44921875 2.01612903225806  C 9.45703125 2.01612903225806  9.46484375 2.02016129032258  9.47265625 2.02016129032258  L 9.53125 2.03225806451613  C 9.53515625 2.03225806451613  9.5390625 2.03225806451613  9.54296875 2.03629032258065  C 9.56640625 2.04435483870968  9.58984375 2.04838709677419  9.609375 2.05645161290323  C 9.6171875 2.06048387096774  9.62109375 2.06048387096774  9.62890625 2.06451612903226  C 9.64453125 2.07258064516129  9.66015625 2.07661290322581  9.67578125 2.08467741935484  C 9.6875 2.09274193548387  9.703125 2.09677419354839  9.71484375 2.10483870967742  L 6.15234375 0.10483870967742  C 6.14453125 0.100806451612903  6.1328125 0.0927419354838737  6.125 0.0887096774193567  C 6.12109375 0.0887096774193567  6.1171875 0.0846774193548396  6.11328125 0.0846774193548396  C 6.09765625 0.0766129032258055  6.08203125 0.068548387096776  6.06640625 0.064516129032259  C 6.05859375 0.0604838709677419  6.0546875 0.0604838709677419  6.046875 0.0564516129032249  C 6.0234375 0.0483870967741908  6 0.0403225806451613  5.98046875 0.0362903225806442  C 5.9765625 0.0362903225806442  5.97265624999999 0.0362903225806442  5.96875 0.0322580645161272  L 5.91015625 0.0201612903225806  C 5.90234375 0.0201612903225806  5.89453125 0.0161290322580636  5.88671875 0.0161290322580636  C 5.87109375 0.0120967741935466  5.85546875 0.0120967741935466  5.8359375 0.0120967741935466  L 5.734375 0.0120967741935466  C 5.7109375 0.0120967741935466  5.68359375 0.0161290322580636  5.66015625 0.0201612903225806  L 1.015625 0.693548387096776  C 0.98828125 0.697580645161293  0.96484375 0.70161290322581  0.9375 0.70967741935484  C 0.9296875 0.70967741935484  0.921875000000001 0.713709677419357  0.914062499999999 0.717741935483874  C 0.8984375 0.721774193548391  0.87890625 0.725806451612908  0.863281249999999 0.733870967741937  C 0.855468749999999 0.737903225806454  0.843749999999999 0.741935483870971  0.835937499999999 0.741935483870971  C 0.8203125 0.745967741935488  0.804687499999999 0.754032258064518  0.7890625 0.758064516129035  C 0.78125 0.762096774193552  0.76953125 0.766129032258069  0.76171875 0.770161290322582  C 0.757812499999999 0.774193548387099  0.75 0.774193548387099  0.746093750000001 0.778225806451616  L 0.72265625 0.790322580645162  C 0.7109375 0.798387096774196  0.6953125 0.802419354838709  0.68359375 0.810483870967743  C 0.671875 0.818548387096777  0.660156249999999 0.822580645161289  0.648437500000001 0.830645161290323  C 0.63671875 0.838709677419358  0.625 0.846774193548387  0.609375000000001 0.854838709677421  C 0.60546875 0.858870967741938  0.59765625 0.862903225806455  0.593750000000002 0.866935483870968  C 0.585937500000002 0.870967741935485  0.578125000000003 0.879032258064514  0.570312500000001 0.883064516129031  C 0.562500000000001 0.887096774193548  0.554687500000002 0.895161290322578  0.546875 0.903225806451612  C 0.531250000000001 0.915322580645159  0.51953125 0.92741935483871  0.503906249999999 0.939516129032256  C 0.49609375 0.943548387096773  0.492187499999999 0.951612903225803  0.484374999999999 0.95564516129032  L 0.480468749999998 0.959677419354837  C 0.464843749999999 0.9758064516129  0.445312499999999 0.991935483870964  0.429687499999998 1.00806451612903  L 0.421874999999998 1.01612903225807  C 0.410156249999998 1.02822580645161  0.398437499999997 1.04435483870968  0.386718749999999 1.05645161290323  C 0.382812499999998 1.06048387096774  0.382812499999998 1.06451612903226  0.37890625 1.06854838709677  C 0.374999999999999 1.07661290322581  0.367187499999999 1.08064516129032  0.36328125 1.08870967741935  C 0.3515625 1.10483870967742  0.33984375 1.11693548387097  0.328125000000001 1.13306451612903  C 0.32421875 1.14112903225807  0.316406250000001 1.1491935483871  0.312500000000002 1.15322580645161  C 0.308593750000001 1.15725806451613  0.304687500000003 1.16129032258065  0.304687500000003 1.16532258064516  L 0.281250000000002 1.2016129032258  C 0.277343750000001 1.20967741935484  0.273437500000002 1.21774193548387  0.265625000000003 1.22177419354839  C 0.250000000000004 1.24596774193548  0.238281250000003 1.27016129032258  0.226562500000003 1.29435483870967  C 0.222656250000002 1.30241935483871  0.218750000000003 1.31451612903225  0.214843750000002 1.32258064516129  C 0.207031250000003 1.33870967741935  0.199218750000003 1.35887096774193  0.191406250000001 1.375  C 0.1875 1.38709677419354  0.183593750000002 1.39919354838709  0.179687500000001 1.40725806451612  C 0.171875000000001 1.42338709677419  0.16796875 1.43951612903225  0.160156250000001 1.45564516129032  C 0.152343750000001 1.4758064516129  0.1484375 1.49193548387096  0.140625000000001 1.51209677419354  C 0.13671875 1.52016129032258  0.132812500000001 1.53225806451612  0.132812500000001 1.54032258064516  C 0.125000000000002 1.56854838709677  0.117187500000002 1.6008064516129  0.113281250000001 1.62903225806452  C 0.0976562500000022 1.7016129032258  0.0898437500000004 1.77822580645161  0.0898437500000004 1.85483870967742  L 0.078125 7.03225806451613  C 0.078125 7.10887096774193  0.0859374999999996 7.18145161290323  0.101562500000001 7.25  C 0.15625 7.51209677419355  0.3046875 7.7258064516129  0.511718750000001 7.83870967741935  L 4.07421875 9.83870967741936  C 3.8671875 9.72177419354839  3.71875 9.51209677419355  3.6640625 9.25  C 3.6484375 9.18145161290322  3.640625 9.10887096774193  3.640625 9.03225806451613  L 3.6484375 3.85887096774194  C 3.6484375 3.78225806451613  3.65625000000001 3.70564516129033  3.671875 3.63306451612903  C 3.67578125000001 3.60483870967742  3.68359375 3.57258064516129  3.69140625 3.54435483870968  C 3.69531250000001 3.53629032258064  3.69921875000001 3.5241935483871  3.69921875000001 3.51612903225806  C 3.70703125000001 3.49596774193548  3.7109375 3.4758064516129  3.71875000000001 3.45967741935484  C 3.72656250000001 3.44354838709677  3.73046875 3.42741935483871  3.73828125000001 3.41129032258064  C 3.74218750000001 3.3991935483871  3.74609375000001 3.38709677419354  3.75 3.37903225806451  C 3.75781250000001 3.36290322580645  3.765625 3.34274193548387  3.77343750000001 3.32661290322581  C 3.77734375000001 3.31854838709677  3.78125000000001 3.30645161290323  3.78515625 3.29838709677419  C 3.796875 3.27419354838709  3.81250000000001 3.25  3.82421875 3.2258064516129  C 3.828125 3.21774193548387  3.83203125000001 3.20967741935484  3.83984375 3.20564516129032  C 3.8515625 3.18951612903226  3.859375 3.1733870967742  3.87109375 3.15725806451613  C 3.875 3.14919354838709  3.8828125 3.14112903225806  3.88671875 3.13709677419355  C 3.8984375 3.12096774193548  3.91015625 3.10887096774193  3.921875 3.09274193548387  C 3.92578125 3.08467741935483  3.93359375 3.08064516129032  3.9375 3.07258064516129  C 3.953125 3.05645161290322  3.96875 3.04032258064516  3.98046875 3.02016129032258  C 3.984375 3.01612903225806  3.984375 3.01209677419355  3.98828125 3.01209677419355  L 4.04296875 2.95564516129032  C 4.05078125 2.9516129032258  4.0546875 2.94354838709677  4.0625 2.93951612903226  C 4.07421875 2.92741935483871  4.08984375 2.91532258064516  4.10546875 2.90322580645161  C 4.11328125 2.89516129032258  4.12109375 2.89112903225807  4.12890625 2.88306451612903  C 4.140625 2.875  4.15234375 2.86290322580645  4.16796875 2.85483870967742  C 4.1796875 2.84677419354838  4.19140625 2.83870967741935  4.20703125 2.83064516129032  C 4.21875 2.82258064516129  4.23046875 2.81451612903226  4.2421875 2.81048387096774  C 4.25390625 2.80241935483871  4.26953125 2.79435483870968  4.28125 2.79032258064516  C 4.29296875 2.78225806451612  4.30859375 2.77822580645161  4.3203125 2.77016129032258  C 4.328125 2.76612903225806  4.33984375 2.76209677419354  4.34765625 2.75806451612903  C 4.36328125 2.75  4.37890625 2.74596774193548  4.39453125 2.74193548387097  C 4.40234375000001 2.73790322580645  4.4140625 2.73387096774193  4.42187500000001 2.73387096774193  C 4.43750000000001 2.72983870967742  4.45703125000001 2.72177419354839  4.47265625 2.71774193548387  C 4.48046875000001 2.71370967741935  4.48828125 2.71370967741935  4.49609375000001 2.70967741935484  C 4.51953125000001 2.70564516129032  4.546875 2.69758064516129  4.57421875000001 2.69354838709677  L 9.21875 2.02016129032258  C 9.24609375 2.01612903225806  9.26953125 2.01612903225806  9.29296875 2.01209677419355  Z " fill-rule="nonzero" fill="#00b794" stroke="none" transform="matrix(1 0 0 1 939 49 )" />
  </g>
</svg>