<?xml version="1.0" encoding="utf-8"?>
<svg version="1.1" xmlns:xlink="http://www.w3.org/1999/xlink" width="7px" height="7px" xmlns="http://www.w3.org/2000/svg">
  <g transform="matrix(1 0 0 1 -936 -52 )">
    <path d="M 1.26875 0.626499999999999  L 5.99772727272727 0.0454999999999984  C 6.44715909090909 -0.0105000000000024  6.825 0.245  6.91647727272727 0.633499999999997  C 6.90056818181818 0.696499999999995  6.89261363636363 0.762999999999998  6.89261363636363 0.829499999999998  L 6.88465909090909 5.32  C 6.88465909090909 5.3865  6.89261363636363 5.4495  6.90852272727272 5.509  C 6.81306818181818 5.922  6.43522727272727 6.2685  5.98579545454545 6.3245  L 1.25681818181818 6.909  C 0.739772727272724 6.972  0.314204545454542 6.622  0.314204545454542 6.1285  L 0.322159090909087 1.638  C 0.322159090909087 1.1445  0.747727272727269 0.689499999999998  1.26875 0.626499999999999  Z " fill-rule="nonzero" fill="#50e6cc" stroke="none" transform="matrix(1 0 0 1 936 52 )" />
  </g>
</svg>