<?xml version="1.0" encoding="utf-8"?>
<svg version="1.1" xmlns:xlink="http://www.w3.org/1999/xlink" width="7px" height="7px" xmlns="http://www.w3.org/2000/svg">
  <g transform="matrix(1 0 0 1 -946 -39 )">
    <path d="M 1.26079545454546 0.707000000000002  L 5.99375 0.118999999999999  C 6.51079545454546 0.0559999999999988  6.93636363636364 0.405999999999999  6.93636363636364 0.8995  L 6.92443181818182 5.39  C 6.92443181818182 5.8835  6.49886363636364 6.3385  5.98181818181819 6.4015  L 1.24886363636364 6.986  C 0.799431818181824 7.042  0.421590909090915 6.7865  0.330113636363639 6.398  C 0.314204545454549 6.3385  0.306250000000002 6.272  0.306250000000002 6.209  L 0.314204545454549 1.7185  C 0.314204545454549 1.652  0.322159090909096 1.5855  0.338068181818186 1.5225  C 0.433522727272731 1.1095  0.81136363636364 0.763000000000002  1.26079545454546 0.707000000000002  Z " fill-rule="nonzero" fill="#fdf17f" stroke="none" transform="matrix(1 0 0 1 946 39 )" />
  </g>
</svg>