<?xml version="1.0" encoding="utf-8"?>
<svg version="1.1" xmlns:xlink="http://www.w3.org/1999/xlink" width="10px" height="10px" xmlns="http://www.w3.org/2000/svg">
  <g transform="matrix(1 0 0 1 -929 -41 )">
    <path d="M 9.35546875000001 2.13306451612903  L 9.3671875 2.13306451612903  L 9.4453125 2.13306451612903  C 9.4609375 2.13306451612903  9.4765625 2.13709677419355  9.49609375 2.13709677419355  C 9.50390625 2.13709677419355  9.51171875 2.13709677419355  9.51953125 2.14112903225807  C 9.5390625 2.14516129032258  9.55859375 2.1491935483871  9.58203125 2.15322580645161  C 9.5859375 2.15322580645161  9.58984375 2.15322580645161  9.58984375 2.15725806451613  C 9.61328125 2.16532258064516  9.63671875 2.16935483870968  9.65625 2.17741935483871  C 9.6640625 2.18145161290323  9.66796875 2.18145161290323  9.67578125 2.18548387096774  C 9.69140625 2.19354838709678  9.70703125 2.19758064516129  9.72265625 2.20564516129032  C 9.734375 2.21370967741936  9.75 2.21774193548387  9.76171875 2.2258064516129  L 6.19921875 0.225806451612904  C 6.19140625 0.221774193548387  6.1796875 0.213709677419355  6.171875 0.209677419354841  C 6.16796875 0.209677419354841  6.1640625 0.205645161290323  6.16015625 0.205645161290323  C 6.14453125 0.197580645161292  6.12890625 0.18951612903226  6.11328125 0.185483870967743  C 6.10546875 0.181451612903226  6.1015625 0.181451612903226  6.09375 0.177419354838711  C 6.0703125 0.169354838709679  6.05078125 0.161290322580647  6.02734375 0.15725806451613  L 6.01953125 0.15725806451613  C 6 0.153225806451613  5.98046875 0.149193548387099  5.95703125 0.145161290322582  C 5.94921875 0.145161290322582  5.94140625 0.141129032258065  5.93359375 0.141129032258065  C 5.91796875 0.137096774193547  5.90234375 0.137096774193547  5.8828125 0.137096774193547  L 5.78125 0.137096774193547  C 5.7578125 0.137096774193547  5.73046875 0.141129032258065  5.703125 0.145161290322579  L 1.05859375 0.818548387096772  C 1.0390625 0.822580645161289  1.015625 0.826612903225804  0.99609375 0.830645161290321  C 0.9921875 0.830645161290321  0.984375 0.834677419354838  0.98046875 0.834677419354838  C 0.9609375 0.838709677419355  0.9453125 0.84274193548387  0.92578125 0.850806451612902  L 0.91796875 0.850806451612902  C 0.8984375 0.858870967741934  0.87890625 0.862903225806451  0.859375 0.870967741935482  C 0.85546875 0.870967741935482  0.84765625 0.875  0.84375 0.875  C 0.828125 0.883064516129031  0.812499999999999 0.887096774193548  0.792968749999999 0.89516129032258  C 0.7890625 0.89516129032258  0.7890625 0.899193548387097  0.78515625 0.899193548387097  L 0.78125 0.899193548387097  C 0.7578125 0.911290322580646  0.734375 0.923387096774195  0.71484375 0.935483870967741  C 0.710937500000001 0.939516129032259  0.707031250000001 0.939516129032259  0.703125 0.943548387096773  C 0.6796875 0.955645161290322  0.66015625 0.971774193548386  0.640625 0.983870967741935  L 0.63671875 0.987903225806452  C 0.632812500000001 0.987903225806452  0.632812500000001 0.991935483870969  0.628906250000001 0.991935483870969  L 0.582031250000001 1.02822580645161  L 0.578125000000002 1.03225806451613  C 0.562500000000001 1.04435483870968  0.546875000000001 1.06048387096774  0.531250000000002 1.07258064516129  L 0.527343750000002 1.07661290322581  L 0.519531250000003 1.08467741935484  C 0.507812500000002 1.09677419354839  0.496093750000003 1.10483870967742  0.484375000000002 1.11693548387097  L 0.472656250000002 1.12903225806452  L 0.429687500000002 1.1733870967742  C 0.425781250000002 1.17741935483871  0.425781250000002 1.17741935483871  0.425781250000002 1.18145161290323  C 0.414062500000002 1.19354838709678  0.402343750000003 1.20564516129033  0.394531250000002 1.22177419354839  C 0.390625000000002 1.22580645161291  0.386718750000002 1.22983870967742  0.382812500000002 1.23790322580645  C 0.371093750000001 1.25  0.363281250000002 1.26612903225807  0.351562500000001 1.27822580645161  C 0.351562500000001 1.28225806451613  0.347656250000001 1.28225806451613  0.347656250000001 1.28629032258065  L 0.347656250000001 1.29032258064516  C 0.335937500000001 1.30645161290323  0.324218750000002 1.32661290322581  0.312500000000001 1.34677419354839  C 0.308593750000001 1.35080645161291  0.308593750000001 1.35483870967742  0.304687500000002 1.35887096774194  C 0.296875000000002 1.375  0.285156250000002 1.39112903225807  0.277343750000002 1.40725806451613  C 0.277343750000002 1.41129032258065  0.273437500000002 1.41129032258065  0.273437500000002 1.41532258064516  L 0.273437500000002 1.41935483870968  C 0.261718750000002 1.44354838709678  0.250000000000002 1.46370967741936  0.242187500000002 1.48790322580645  C 0.238281250000002 1.49193548387097  0.238281250000002 1.49596774193548  0.234375000000002 1.5  C 0.222656250000002 1.5241935483871  0.214843750000002 1.5483870967742  0.207031250000003 1.57258064516129  L 0.207031250000003 1.57661290322581  C 0.203125000000003 1.58467741935484  0.203125000000003 1.59274193548387  0.199218750000003 1.59677419354839  C 0.195312500000003 1.60483870967742  0.195312500000003 1.61290322580645  0.191406250000004 1.62096774193549  C 0.187500000000004 1.62903225806452  0.187500000000004 1.63709677419355  0.183593750000004 1.6491935483871  C 0.179687500000004 1.65725806451613  0.179687500000004 1.66532258064516  0.175781250000004 1.6733870967742  C 0.171875000000005 1.68145161290323  0.171875000000005 1.69354838709678  0.167968750000005 1.70161290322581  C 0.167968750000005 1.70967741935484  0.164062500000005 1.71774193548387  0.164062500000005 1.72580645161291  C 0.160156250000005 1.73387096774194  0.160156250000005 1.74596774193549  0.160156250000005 1.75403225806452  C 0.160156250000005 1.76209677419355  0.156250000000006 1.77016129032258  0.156250000000006 1.77822580645162  C 0.156250000000006 1.78629032258065  0.152343750000006 1.7983870967742  0.152343750000006 1.80645161290323  C 0.152343750000006 1.81451612903226  0.148437500000006 1.82258064516129  0.148437500000006 1.82661290322581  C 0.148437500000006 1.83870967741936  0.144531250000006 1.84677419354839  0.144531250000006 1.85887096774194  C 0.144531250000006 1.86693548387097  0.144531250000006 1.87096774193549  0.140625000000006 1.87903225806452  C 0.140625000000006 1.89112903225807  0.140625000000006 1.90322580645162  0.136718750000007 1.91532258064517  L 0.136718750000007 1.98387096774194  L 0.128906250000007 7.16129032258065  C 0.128906250000007 7.36693548387097  0.183593750000007 7.55241935483871  0.277343750000008 7.69758064516129  C 0.351562500000008 7.81451612903226  0.449218750000008 7.90725806451613  0.562500000000008 7.96774193548387  L 4.12500000000001 9.96774193548387  C 3.86718750000001 9.82258064516129  3.69140625000001 9.5241935483871  3.69531250000001 9.15725806451613  L 3.70312500000001 3.97983870967742  L 3.70312500000001 3.92741935483871  L 3.70312500000001 3.91129032258065  C 3.70312500000001 3.8991935483871  3.70312500000001 3.88709677419355  3.70703125000001 3.875  C 3.70703125000001 3.86693548387097  3.70703125000001 3.86290322580645  3.71093750000001 3.85483870967742  C 3.71093750000001 3.84274193548387  3.71484375000001 3.83467741935484  3.71484375000001 3.82258064516129  C 3.71484375000001 3.81451612903226  3.71875000000001 3.80645161290323  3.71875000000001 3.80241935483871  C 3.71875000000001 3.79435483870968  3.72265625000001 3.78225806451613  3.72265625000001 3.7741935483871  C 3.72265625000001 3.76612903225807  3.72656250000001 3.75806451612904  3.72656250000001 3.75  C 3.72656250000001 3.74193548387097  3.73046875000001 3.72983870967742  3.73046875000001 3.72177419354839  C 3.73046875000001 3.71370967741936  3.73437500000001 3.70564516129033  3.73437500000001 3.69758064516129  C 3.73828125000002 3.68951612903226  3.73828125000002 3.67741935483871  3.74218750000001 3.66935483870968  C 3.74609375000001 3.66129032258065  3.74609375000001 3.65322580645162  3.75000000000001 3.64516129032258  C 3.75390625000001 3.63709677419355  3.75390625000001 3.62903225806452  3.75781250000001 3.61693548387097  C 3.76171875000001 3.60887096774194  3.76171875000001 3.60080645161291  3.76562500000001 3.59274193548387  C 3.76953125000001 3.58467741935484  3.76953125000001 3.57661290322581  3.77343750000001 3.56854838709677  C 3.78125000000001 3.54435483870968  3.79296875000001 3.52016129032258  3.80078125000001 3.49596774193548  C 3.80468750000001 3.49193548387097  3.80468750000001 3.48790322580645  3.80859375000001 3.48387096774193  C 3.82031250000001 3.45967741935484  3.82812500000001 3.43951612903226  3.83984375000001 3.41532258064516  C 3.84375000000001 3.41129032258064  3.84375000000001 3.40725806451613  3.84765625000001 3.40322580645161  C 3.85546875000001 3.38709677419355  3.86328125000001 3.37096774193548  3.87500000000001 3.35483870967742  C 3.87890625000001 3.3508064516129  3.87890625000001 3.34677419354839  3.88281250000001 3.34274193548387  C 3.89453125000001 3.32258064516129  3.90625000000001 3.30645161290323  3.91796875000001 3.28629032258065  C 3.92187500000001 3.28225806451613  3.92187500000001 3.27822580645161  3.92578125000001 3.2741935483871  C 3.93359375000001 3.26209677419355  3.94531250000001 3.24596774193548  3.95703125000001 3.23387096774194  C 3.96093750000001 3.22983870967742  3.96484375000001 3.2258064516129  3.96875000000001 3.21774193548387  C 3.98046875000001 3.20564516129032  3.98828125000001 3.18951612903226  4.00000000000001 3.17741935483871  C 4.00390625000001 3.17338709677419  4.00390625000001 3.16935483870968  4.00781250000001 3.16935483870968  C 4.01953125000001 3.15322580645161  4.03515625000001 3.13709677419355  4.05078125000001 3.125  L 4.06250000000001 3.11290322580645  C 4.07421875000001 3.1008064516129  4.08593750000001 3.08870967741935  4.09765625000001 3.08064516129032  L 4.10937500000001 3.06854838709677  C 4.12500000000001 3.05241935483871  4.14062500000001 3.04032258064516  4.15625000000001 3.02822580645161  L 4.16015625000001 3.02419354838709  L 4.20703125000001 2.98790322580645  C 4.21093750000001 2.98387096774193  4.21484375000001 2.98387096774193  4.21875000000001 2.97983870967742  C 4.23828125000001 2.96370967741936  4.26171875000001 2.95161290322581  4.28125000000001 2.93951612903226  C 4.28515625000001 2.93548387096774  4.28906250000001 2.93548387096774  4.29296875000001 2.93145161290323  C 4.31640625000001 2.91935483870968  4.33984375000001 2.90725806451613  4.35937500000001 2.89516129032258  C 4.36328125000001 2.89516129032258  4.36718750000001 2.89112903225806  4.36718750000001 2.89112903225806  C 4.38281250000001 2.88306451612903  4.39843750000001 2.875  4.41796875000001 2.87096774193548  C 4.42187500000001 2.87096774193548  4.42968750000001 2.86693548387097  4.43359375000001 2.86693548387097  C 4.45312500000001 2.85887096774193  4.47265625000001 2.8508064516129  4.49218750000001 2.84677419354839  L 4.50000000000001 2.84677419354839  C 4.51953125000001 2.84274193548387  4.53515625000001 2.83467741935484  4.55468750000001 2.83064516129032  C 4.55859375000001 2.83064516129032  4.56640625000001 2.82661290322581  4.57031250000001 2.82661290322581  C 4.58984375000001 2.82258064516129  4.60937500000001 2.81854838709677  4.63281250000001 2.81451612903226  L 9.27734375000001 2.14112903225806  C 9.30468750000001 2.13709677419355  9.32812500000001 2.13709677419355  9.35546875000001 2.13306451612903  Z " fill-rule="nonzero" fill="#00b794" stroke="none" transform="matrix(1 0 0 1 929 41 )" />
  </g>
</svg>