<?xml version="1.0" encoding="utf-8"?>
<svg version="1.1" xmlns:xlink="http://www.w3.org/1999/xlink" width="10px" height="10px" xmlns="http://www.w3.org/2000/svg">
  <g transform="matrix(1 0 0 1 -942 -39 )">
    <path d="M 9.48437500000001 2.1171875  C 9.48828125000001 2.12109375  9.49609375000001 2.12109375  9.50390625 2.12109375  L 9.58203125 2.12109375  C 9.59765625 2.12109375  9.61328125 2.125  9.6328125 2.125  C 9.640625 2.125  9.6484375 2.12890625  9.65625 2.12890625  L 9.71484375 2.140625  C 9.71875 2.140625  9.72265625 2.140625  9.7265625 2.14453125  C 9.75 2.15234375  9.7734375 2.15625  9.79296875 2.1640625  C 9.80078125 2.16796875  9.8046875 2.16796875  9.8125 2.171875  C 9.828125 2.1796875  9.84375 2.18359375  9.859375 2.19140625  C 9.87109375 2.19921875  9.88671875 2.203125  9.8984375 2.2109375  L 6.3359375 0.2734375  C 6.328125 0.269531249999999  6.31640625 0.26171875  6.30859375 0.257812500000001  C 6.3046875 0.257812500000001  6.30078125 0.25390625  6.296875 0.25390625  C 6.28125 0.24609375  6.265625 0.238281250000001  6.25 0.234375  C 6.2421875 0.230468749999999  6.23828125 0.230468749999999  6.23046875 0.2265625  C 6.20703125 0.218750000000001  6.18359375 0.210937500000001  6.1640625 0.20703125  C 6.16015625 0.20703125  6.15625 0.20703125  6.15234375 0.203125  L 6.09375 0.191406249999999  C 6.0859375 0.191406249999999  6.078125 0.187499999999998  6.0703125 0.187499999999998  C 6.0546875 0.183593749999997  6.0390625 0.183593749999997  6.01953125 0.183593749999997  L 5.91796875 0.183593749999997  C 5.89453125 0.183593749999997  5.8671875 0.187499999999998  5.84375 0.191406249999997  L 1.19921875 0.843749999999996  C 1.1796875 0.847656249999997  1.15625 0.851562499999996  1.13671875 0.855468749999997  C 1.1328125 0.855468749999997  1.125 0.859374999999998  1.12109375 0.859374999999998  C 1.1015625 0.863281249999999  1.0859375 0.867187499999997  1.06640625 0.874999999999997  L 1.05859375 0.874999999999997  C 1.0390625 0.882812499999996  1.01953125 0.886718749999997  1 0.894531249999997  C 0.99609375 0.894531249999997  0.988281250000003 0.898437499999998  0.984375000000002 0.898437499999998  C 0.968750000000003 0.906249999999997  0.953125000000004 0.910156249999998  0.933593750000004 0.917968749999998  C 0.929687500000003 0.917968749999998  0.929687500000003 0.917968749999998  0.925781250000002 0.921874999999999  L 0.921875000000001 0.921874999999999  L 0.851562500000003 0.957031249999998  C 0.847656250000002 0.960937499999999  0.843750000000001 0.960937499999999  0.839843750000004 0.964843749999997  C 0.816406250000004 0.976562499999998  0.796875000000004 0.992187499999997  0.777343750000004 1.00390625  L 0.773437500000003 1.0078125  C 0.769531250000002 1.0078125  0.769531250000002 1.01171875  0.765625000000001 1.01171875  L 0.718749999999999 1.046875  L 0.714843749999998 1.05078125  C 0.699218749999999 1.0625  0.68359375 1.078125  0.667968749999996 1.08984375  L 0.664062499999996 1.09375  L 0.656249999999994 1.1015625  C 0.644531249999996 1.11328125  0.632812499999993 1.12109375  0.621093749999995 1.1328125  L 0.609374999999994 1.14453125  L 0.566406249999993 1.1875  C 0.562499999999992 1.19140625  0.562499999999992 1.19140625  0.562499999999992 1.1953125  C 0.550781249999992 1.20703125  0.542968749999992 1.21875  0.531249999999992 1.234375  C 0.527343749999991 1.23828125  0.523437499999992 1.2421875  0.519531249999992 1.25  C 0.507812499999991 1.26171875  0.499999999999992 1.27734375  0.488281249999991 1.2890625  C 0.488281249999991 1.29296875  0.48437499999999 1.29296875  0.48437499999999 1.296875  L 0.48437499999999 1.30078125  C 0.47265624999999 1.31640625  0.460937499999989 1.3359375  0.449218749999991 1.35546875  C 0.44531249999999 1.359375  0.44531249999999 1.36328125  0.441406249999992 1.3671875  C 0.433593749999992 1.3828125  0.421874999999992 1.3984375  0.414062499999992 1.4140625  C 0.414062499999992 1.41796875  0.410156249999991 1.41796875  0.410156249999991 1.421875  L 0.410156249999991 1.42578125  C 0.398437499999991 1.44921875  0.38671874999999 1.46875  0.378906249999991 1.4921875  C 0.37499999999999 1.49609375  0.37499999999999 1.5  0.371093749999991 1.50390625  C 0.359374999999991 1.52734375  0.351562499999991 1.55078125  0.343749999999992 1.57421875  L 0.343749999999992 1.578125  C 0.339843749999991 1.5859375  0.339843749999991 1.59375  0.335937499999992 1.59765625  C 0.332031249999991 1.60546875  0.332031249999991 1.61328125  0.328124999999992 1.62109375  C 0.324218749999992 1.62890625  0.324218749999992 1.63671875  0.320312499999993 1.6484375  C 0.316406249999992 1.65625  0.316406249999992 1.6640625  0.312499999999993 1.671875  C 0.308593749999992 1.6796875  0.308593749999992 1.6875  0.304687499999994 1.69921875  C 0.304687499999994 1.70703125  0.300781249999993 1.71484375  0.300781249999993 1.72265625  C 0.296874999999992 1.73046875  0.296874999999992 1.7421875  0.296874999999992 1.75  C 0.296874999999992 1.7578125  0.292968749999991 1.765625  0.292968749999991 1.7734375  C 0.292968749999991 1.78125  0.28906249999999 1.79296875  0.28906249999999 1.80078125  C 0.28906249999999 1.80859375  0.285156249999989 1.81640625  0.285156249999989 1.8203125  C 0.285156249999989 1.83203125  0.281249999999988 1.83984375  0.281249999999988 1.8515625  C 0.281249999999988 1.859375  0.281249999999988 1.86328125  0.277343749999988 1.87109375  C 0.277343749999988 1.8828125  0.277343749999988 1.89453125  0.273437499999987 1.90625  L 0.273437499999987 1.97265625  L 0.265624999999987 6.98828125  C 0.265624999999987 7.34375  0.437499999999986 7.6328125  0.695312499999989 7.7734375  L 4.25781249999999 9.7109375  C 3.99999999999999 9.5703125  3.82421874999999 9.28125  3.82812499999999 8.92578125  L 3.83593749999999 3.91015625  L 3.83593749999999 3.859375  L 3.83593749999999 3.84375  C 3.83593749999999 3.83203125  3.83593749999999 3.8203125  3.83984374999999 3.80859375  C 3.83984374999999 3.80078125  3.83984374999999 3.796875  3.84374999999999 3.7890625  C 3.84374999999999 3.77734375  3.84765625 3.76953125  3.84765625 3.7578125  C 3.84765625 3.75  3.8515625 3.7421875  3.8515625 3.73828125  C 3.8515625 3.73046875  3.85546875 3.71875  3.85546875 3.7109375  C 3.85546875 3.703125  3.859375 3.6953125  3.859375 3.6875  C 3.859375 3.6796875  3.86328125 3.66796875  3.86328125 3.66015625  C 3.86328125 3.65234375  3.8671875 3.64453125  3.8671875 3.63671875  C 3.87109375 3.62890625  3.87109375 3.62109375  3.875 3.609375  C 3.87890625 3.6015625  3.87890625 3.59375  3.8828125 3.5859375  C 3.88671875 3.578125  3.88671875 3.5703125  3.89062500000001 3.55859375  C 3.89453125000001 3.55078125  3.89453125000001 3.54296875  3.89843750000001 3.53515625  C 3.90234375000001 3.52734375  3.90234375000001 3.51953125  3.90625000000001 3.51171875  C 3.91406250000001 3.48828125  3.92578125000001 3.46484375  3.93359375000001 3.44140625  C 3.93750000000001 3.4375  3.93750000000001 3.43359375  3.94140625000001 3.4296875  C 3.95312500000001 3.40625  3.96093750000001 3.3828125  3.97265625000001 3.36328125  C 3.97656250000001 3.359375  3.97656250000001 3.35546875  3.98046875000001 3.3515625  C 3.98828125000001 3.3359375  3.99609375000001 3.3203125  4.00781250000001 3.3046875  C 4.01171875000002 3.30078125  4.01171875000002 3.296875  4.01562500000002 3.29296875  C 4.02734375000001 3.2734375  4.03906250000002 3.2578125  4.05078125000002 3.23828125  C 4.05468750000002 3.234375  4.05468750000002 3.23046875  4.05859375000002 3.2265625  C 4.06640625000002 3.21484375  4.07812500000002 3.19921875  4.08984375000002 3.1875  C 4.09375000000002 3.18359375  4.09765625000002 3.1796875  4.10156250000001 3.171875  C 4.11328125000001 3.16015625  4.12109375000001 3.14453125  4.13281250000001 3.1328125  C 4.13671875000001 3.12890625  4.13671875000001 3.125  4.14062500000001 3.125  C 4.15234375000001 3.109375  4.16796875000002 3.09375  4.18359375000001 3.08203125  L 4.19531250000001 3.0703125  C 4.20703125000001 3.05859375  4.21875000000001 3.046875  4.23046875000001 3.0390625  L 4.24218750000001 3.02734375  C 4.25781250000001 3.01171875  4.27343750000001 3  4.28906250000001 2.984375  L 4.29296875000001 2.98046875  L 4.33984375000001 2.9453125  C 4.34375000000002 2.94140625  4.34765625000002 2.94140625  4.35156250000001 2.9375  C 4.37109375000001 2.921875  4.39453125000001 2.91015625  4.41406250000001 2.8984375  C 4.41796875000001 2.89453125  4.42187500000002 2.89453125  4.42578125000001 2.890625  C 4.44921875000001 2.87890625  4.47265625000001 2.8671875  4.49218750000001 2.85546875  C 4.49609375000001 2.85546875  4.50000000000002 2.8515625  4.50000000000002 2.8515625  C 4.51562500000001 2.84375  4.53125000000001 2.8359375  4.55078125000001 2.83203125  C 4.55468750000001 2.828125  4.56250000000001 2.828125  4.56640625000001 2.828125  C 4.58593750000001 2.8203125  4.60546875000001 2.8125  4.62500000000001 2.80859375  L 4.63281250000001 2.80859375  C 4.65234375000001 2.8046875  4.66796875000001 2.796875  4.68750000000001 2.79296875  C 4.69140625000001 2.79296875  4.69921875000001 2.7890625  4.70312500000001 2.7890625  C 4.72265625000001 2.78515625  4.74218750000001 2.78125  4.76562500000001 2.77734375  L 9.41015625000001 2.125  C 9.43750000000001 2.12109375  9.46093750000001 2.12109375  9.48437500000001 2.1171875  Z " fill-rule="nonzero" fill="#d30032" stroke="none" transform="matrix(1 0 0 1 942 39 )" />
  </g>
</svg>