<?xml version="1.0" encoding="utf-8"?>
<svg version="1.1" xmlns:xlink="http://www.w3.org/1999/xlink" width="10px" height="10px" xmlns="http://www.w3.org/2000/svg">
  <g transform="matrix(1 0 0 1 -933 -36 )">
    <path d="M 9.43359375 2.00806451612903  L 9.45703125 2.00806451612903  L 9.53515625 2.00806451612903  C 9.55078125 2.00806451612903  9.56640625 2.01209677419355  9.5859375 2.01209677419355  C 9.59375 2.01209677419355  9.6015625 2.01209677419355  9.609375 2.01612903225807  C 9.62890625 2.02016129032258  9.6484375 2.0241935483871  9.671875 2.02822580645162  L 9.6796875 2.02822580645162  C 9.703125 2.03629032258065  9.7265625 2.04032258064516  9.74609375 2.0483870967742  C 9.75390625000001 2.05241935483871  9.7578125 2.05241935483871  9.765625 2.05645161290323  C 9.78125 2.06451612903226  9.796875 2.06854838709678  9.81250000000001 2.07661290322581  C 9.82421875 2.08467741935484  9.83984375000001 2.08870967741936  9.85156250000001 2.09677419354839  L 9.34375000000001 1.81048387096774  L 6.28906250000001 0.0967741935483885  C 6.28125000000001 0.0927419354838714  6.26953125000001 0.0887096774193567  6.26171875000001 0.0806451612903249  C 6.25781250000001 0.0806451612903249  6.25390625000001 0.0766129032258078  6.25000000000001 0.0766129032258078  C 6.23437500000001 0.068548387096776  6.21875000000001 0.0604838709677442  6.20312500000001 0.0564516129032272  C 6.19531250000001 0.0524193548387101  6.19140625000001 0.0524193548387101  6.18359375000001 0.0483870967741954  C 6.16015625000001 0.0403225806451636  6.14062500000001 0.0322580645161318  6.11718750000001 0.0282258064516147  L 6.10937500000001 0.0282258064516147  C 6.08984375000001 0.0241935483870977  6.07031250000001 0.0201612903225829  6.04687500000001 0.0161290322580659  C 6.03906250000001 0.0161290322580659  6.03125000000001 0.0120967741935488  6.02343750000001 0.0120967741935488  C 6.00781250000001 0.0080645161290318  5.99218750000001 0.0080645161290318  5.97265625000001 0.0080645161290318  L 5.87109375000001 0.0080645161290318  C 5.84765625 0.0080645161290318  5.8203125 0.0120967741935488  5.79296875000001 0.0161290322580636  L 1.1484375 0.689516129032257  C 1.12890625 0.693548387096774  1.10546875 0.697580645161288  1.0859375 0.701612903225806  C 1.08203125 0.701612903225806  1.07421875 0.705645161290323  1.0703125 0.705645161290323  C 1.05078125 0.70967741935484  1.03515625 0.713709677419354  1.015625 0.721774193548386  L 1.0078125 0.721774193548386  C 0.988281250000005 0.729838709677418  0.968750000000005 0.733870967741935  0.949218750000005 0.741935483870967  C 0.945312500000004 0.741935483870967  0.937500000000004 0.745967741935484  0.933593750000006 0.745967741935484  C 0.917968750000007 0.754032258064516  0.902343750000005 0.758064516129033  0.882812500000005 0.766129032258065  C 0.878906250000004 0.766129032258065  0.878906250000004 0.766129032258065  0.875000000000006 0.770161290322582  L 0.871093750000005 0.770161290322582  C 0.847656250000004 0.78225806451613  0.824218750000005 0.794354838709679  0.804687500000005 0.806451612903226  C 0.800781250000004 0.810483870967743  0.796875000000006 0.810483870967743  0.792968750000005 0.814516129032258  C 0.769531250000004 0.826612903225806  0.750000000000004 0.84274193548387  0.730468750000004 0.854838709677419  L 0.726562500000003 0.858870967741936  C 0.722656250000002 0.858870967741936  0.722656250000002 0.862903225806453  0.718750000000004 0.862903225806453  L 0.671875000000004 0.899193548387097  L 0.667968750000003 0.903225806451614  C 0.652343750000004 0.915322580645163  0.636718750000003 0.931451612903227  0.621093750000004 0.943548387096776  L 0.617187500000003 0.947580645161293  L 0.609375000000003 0.955645161290324  C 0.597656250000003 0.967741935483873  0.585937500000002 0.975806451612905  0.574218750000004 0.987903225806454  L 0.562500000000004 1  L 0.519531250000003 1.04435483870968  L 0.519531250000003 1.0483870967742  C 0.515625000000002 1.05241935483872  0.515625000000002 1.05241935483872  0.515625000000002 1.05645161290323  C 0.503906250000001 1.06854838709678  0.496093750000002 1.08064516129033  0.484375000000001 1.09677419354839  C 0.48046875 1.10080645161291  0.476562500000002 1.10483870967742  0.472656250000001 1.11290322580645  C 0.4609375 1.125  0.453125000000001 1.14112903225807  0.44140625 1.15322580645162  C 0.44140625 1.15725806451613  0.4375 1.15725806451613  0.4375 1.16129032258065  L 0.4375 1.16532258064516  C 0.425781249999999 1.18145161290323  0.414062499999999 1.20161290322581  0.40234375 1.22177419354839  C 0.3984375 1.22580645161291  0.3984375 1.22983870967742  0.394531250000001 1.23387096774194  C 0.386718750000001 1.25  0.375000000000001 1.26612903225807  0.367187500000001 1.28225806451613  C 0.367187500000001 1.28629032258065  0.36328125 1.28629032258065  0.36328125 1.29032258064516  L 0.36328125 1.29435483870968  C 0.3515625 1.31854838709678  0.33984375 1.33870967741936  0.33203125 1.36290322580645  C 0.328124999999999 1.36693548387097  0.328124999999999 1.37096774193549  0.32421875 1.375  C 0.3125 1.3991935483871  0.3046875 1.4233870967742  0.296875000000001 1.44758064516129  L 0.296875000000001 1.45161290322581  C 0.29296875 1.45967741935484  0.29296875 1.46774193548387  0.289062500000001 1.47580645161291  C 0.28515625 1.48387096774194  0.28515625 1.49193548387097  0.281250000000002 1.50000000000001  C 0.277343750000001 1.50806451612904  0.277343750000001 1.51612903225807  0.273437500000002 1.52822580645162  C 0.269531250000001 1.53629032258065  0.269531250000001 1.54435483870968  0.265625000000003 1.55241935483872  C 0.261718750000002 1.56048387096775  0.261718750000002 1.5725806451613  0.257812500000003 1.58064516129033  C 0.257812500000003 1.58870967741936  0.253906250000002 1.59677419354839  0.253906250000002 1.60483870967743  C 0.250000000000001 1.61290322580646  0.250000000000001 1.62500000000001  0.250000000000001 1.63306451612904  C 0.250000000000001 1.64112903225807  0.24609375 1.6491935483871  0.24609375 1.65725806451614  C 0.24609375 1.66532258064517  0.2421875 1.67741935483872  0.2421875 1.68548387096775  C 0.2421875 1.69354838709678  0.238281249999999 1.70161290322581  0.238281249999999 1.70564516129033  C 0.238281249999999 1.71774193548388  0.234374999999998 1.72580645161291  0.234374999999998 1.73790322580646  C 0.234374999999998 1.74596774193549  0.234374999999998 1.75000000000001  0.230468749999997 1.75806451612904  C 0.230468749999997 1.77016129032259  0.230468749999997 1.78225806451614  0.226562499999996 1.79435483870968  L 0.226562499999996 1.86290322580645  L 0.218749999999996 7.03629032258065  C 0.218749999999996 7.40322580645161  0.390624999999996 7.70161290322581  0.648437499999996 7.84677419354839  L 4.2109375 9.84677419354839  C 3.953125 9.70161290322581  3.77734375 9.40322580645162  3.78125 9.03629032258065  L 3.7890625 3.86290322580645  L 3.7890625 3.81048387096774  L 3.7890625 3.79435483870968  C 3.7890625 3.78225806451613  3.7890625 3.77016129032258  3.79296875 3.75806451612903  C 3.79296875 3.75  3.79296875 3.74596774193549  3.796875 3.73790322580645  C 3.796875 3.7258064516129  3.80078125 3.71774193548387  3.80078125 3.70564516129032  C 3.80078125 3.69758064516129  3.8046875 3.68951612903226  3.8046875 3.68548387096774  C 3.8046875 3.67741935483871  3.80859375 3.66532258064516  3.80859375 3.65725806451613  C 3.80859375 3.6491935483871  3.8125 3.64112903225807  3.8125 3.63306451612903  C 3.8125 3.625  3.81640625 3.61290322580645  3.81640625 3.60483870967742  C 3.81640625 3.59677419354839  3.8203125 3.58870967741936  3.8203125 3.58064516129032  C 3.82421875 3.57258064516129  3.82421875 3.56048387096774  3.828125 3.55241935483871  C 3.83203125 3.54435483870968  3.83203125 3.53629032258065  3.8359375 3.52822580645161  C 3.83984375 3.52016129032258  3.83984375 3.51209677419355  3.84375 3.5  C 3.84765625 3.49193548387097  3.84765625 3.48387096774194  3.8515625 3.4758064516129  C 3.85546875 3.46774193548387  3.85546875 3.45967741935484  3.859375 3.45161290322581  C 3.8671875 3.42741935483871  3.87890625 3.40322580645161  3.88671875 3.37903225806451  C 3.890625 3.375  3.890625 3.37096774193548  3.89453125 3.36693548387097  C 3.90625 3.34274193548387  3.9140625 3.31854838709677  3.92578125 3.29838709677419  C 3.9296875 3.29435483870967  3.9296875 3.29032258064516  3.93359375 3.28629032258064  C 3.94140625 3.27016129032258  3.94921875 3.25403225806451  3.9609375 3.23790322580645  C 3.96484375 3.23387096774193  3.96484375 3.22983870967742  3.96875 3.2258064516129  C 3.98046875 3.20564516129032  3.9921875 3.18951612903226  4.00390625 3.16935483870968  C 4.0078125 3.16532258064516  4.0078125 3.16129032258064  4.01171875 3.15725806451613  C 4.01953125 3.14516129032258  4.03125 3.12903225806451  4.04296875 3.11693548387097  C 4.046875 3.11290322580645  4.05078125 3.10887096774193  4.0546875 3.1008064516129  C 4.06640625 3.08870967741935  4.07421875 3.07258064516129  4.0859375 3.06048387096774  C 4.08984375 3.05645161290322  4.08984375 3.05241935483871  4.09375 3.05241935483871  C 4.10546875 3.03629032258065  4.12109375 3.02016129032258  4.13671875 3.00806451612903  L 4.1484375 2.99596774193548  C 4.16015625 2.98387096774193  4.171875 2.97177419354838  4.18359375 2.96370967741935  L 4.1953125 2.9516129032258  C 4.2109375 2.93548387096774  4.2265625 2.92338709677419  4.2421875 2.91129032258064  L 4.24609375 2.90725806451613  L 4.29296875 2.87096774193548  C 4.296875 2.86693548387096  4.30078125 2.86693548387096  4.3046875 2.86290322580645  C 4.32421875 2.84677419354839  4.34765625 2.83467741935484  4.3671875 2.82258064516129  C 4.37109375 2.81854838709677  4.375 2.81854838709677  4.37890625 2.81451612903226  C 4.40234375 2.80241935483871  4.42578125 2.79032258064516  4.4453125 2.77822580645161  C 4.44921875 2.77822580645161  4.453125 2.7741935483871  4.453125 2.7741935483871  C 4.46875 2.76612903225806  4.484375 2.75806451612903  4.50390625 2.75403225806451  C 4.5078125 2.75  4.515625 2.75  4.51953125 2.75  C 4.5390625 2.74193548387097  4.55859375 2.73387096774193  4.578125 2.72983870967742  L 4.5859375 2.72983870967742  C 4.60546875 2.7258064516129  4.62109375 2.71774193548387  4.640625 2.71370967741935  C 4.64453125 2.71370967741935  4.65234375 2.70967741935484  4.65625 2.70967741935484  C 4.67578125 2.70564516129032  4.6953125 2.7016129032258  4.71875 2.69758064516129  L 9.35546875 2.01612903225806  C 9.3828125 2.01209677419355  9.40625 2.01209677419355  9.43359375 2.00806451612903  Z " fill-rule="nonzero" fill="#ffa300" stroke="none" transform="matrix(1 0 0 1 933 36 )" />
  </g>
</svg>