<?xml version="1.0" encoding="utf-8"?>
<svg version="1.1" xmlns:xlink="http://www.w3.org/1999/xlink" width="10px" height="10px" xmlns="http://www.w3.org/2000/svg">
  <g transform="matrix(1 0 0 1 -942 -46 )">
    <path d="M 9.89453125 2.10887096774192  L 6.32421875 0.11290322580645  C 6.1796875 0.0322580645161272  6.01171875 0  5.83203125 0.0241935483870931  L 1.1875 0.697580645161288  C 1.16796875 0.701612903225806  1.14453125 0.705645161290323  1.125 0.709677419354835  C 1.12109375 0.709677419354835  1.11328125 0.713709677419352  1.109375 0.713709677419352  C 1.08984375 0.717741935483869  1.07421875 0.721774193548386  1.0546875 0.729838709677416  L 1.046875 0.729838709677416  C 1.02734375 0.73790322580645  1.0078125 0.741935483870962  0.988281249999998 0.749999999999996  C 0.984374999999997 0.749999999999996  0.9765625 0.754032258064513  0.972656249999999 0.754032258064513  C 0.95703125 0.762096774193547  0.941406250000001 0.76612903225806  0.921875000000001 0.774193548387094  C 0.91796875 0.774193548387094  0.91796875 0.774193548387094  0.914062499999999 0.778225806451611  L 0.910156249999998 0.778225806451611  C 0.886718749999997 0.790322580645158  0.863281249999996 0.802419354838709  0.843749999999996 0.814516129032255  C 0.839843749999996 0.818548387096772  0.835937499999995 0.818548387096772  0.832031249999998 0.822580645161289  C 0.808593749999997 0.834677419354836  0.789062499999997 0.850806451612904  0.769531249999997 0.862903225806451  L 0.765624999999996 0.866935483870968  C 0.761718749999996 0.866935483870968  0.761718749999996 0.870967741935485  0.757812499999995 0.870967741935485  L 0.710937499999993 0.907258064516129  L 0.707031249999992 0.911290322580646  C 0.691406249999993 0.923387096774193  0.675781249999994 0.939516129032261  0.66015624999999 0.951612903225807  L 0.656249999999989 0.955645161290324  L 0.648437499999988 0.963709677419359  C 0.636718749999989 0.975806451612905  0.624999999999987 0.983870967741939  0.613281249999988 0.995967741935486  L 0.601562499999988 1.00806451612903  L 0.558593749999987 1.05241935483871  C 0.554687499999986 1.05645161290323  0.554687499999986 1.05645161290323  0.554687499999986 1.06048387096774  C 0.542968749999986 1.07258064516129  0.531249999999985 1.08467741935484  0.523437499999986 1.10080645161291  C 0.519531249999985 1.10483870967742  0.515624999999986 1.10887096774194  0.511718749999985 1.11693548387097  C 0.499999999999985 1.12903225806452  0.492187499999985 1.14516129032258  0.480468749999985 1.15725806451613  C 0.480468749999985 1.16129032258065  0.476562499999984 1.16129032258065  0.476562499999984 1.16532258064516  L 0.476562499999984 1.16935483870968  C 0.464843749999984 1.18548387096775  0.453124999999983 1.20564516129033  0.441406249999985 1.22580645161291  C 0.437499999999984 1.22983870967742  0.437499999999984 1.23387096774194  0.433593749999985 1.23790322580645  C 0.425781249999986 1.25403225806452  0.414062499999985 1.27016129032258  0.406249999999986 1.28629032258065  C 0.406249999999986 1.29032258064517  0.402343749999985 1.29032258064517  0.402343749999985 1.29435483870968  L 0.402343749999985 1.2983870967742  C 0.390624999999984 1.3225806451613  0.378906249999984 1.34274193548388  0.371093749999984 1.36693548387098  C 0.367187499999984 1.37096774193549  0.367187499999984 1.37500000000001  0.363281249999985 1.37903225806452  C 0.351562499999984 1.40322580645162  0.343749999999985 1.42741935483872  0.335937499999985 1.45161290322581  L 0.335937499999985 1.45564516129033  C 0.332031249999984 1.46370967741936  0.332031249999984 1.47177419354839  0.328124999999986 1.47580645161291  C 0.324218749999985 1.48387096774194  0.324218749999985 1.49193548387097  0.320312499999986 1.50000000000001  C 0.316406249999985 1.50806451612904  0.316406249999985 1.51612903225807  0.312499999999987 1.52822580645162  C 0.308593749999986 1.53629032258066  0.308593749999986 1.54435483870968  0.304687499999987 1.55241935483872  C 0.300781249999986 1.56048387096775  0.300781249999986 1.56854838709678  0.296874999999988 1.58064516129033  C 0.296874999999988 1.58870967741937  0.292968749999987 1.5967741935484  0.292968749999987 1.60483870967743  C 0.289062499999986 1.61290322580647  0.289062499999986 1.62500000000001  0.289062499999986 1.63306451612905  C 0.289062499999986 1.64112903225808  0.285156249999985 1.64919354838711  0.285156249999985 1.65725806451614  C 0.285156249999985 1.66532258064518  0.281249999999984 1.67741935483872  0.281249999999984 1.68548387096776  C 0.281249999999984 1.69354838709679  0.277343749999983 1.70161290322582  0.277343749999983 1.70967741935486  C 0.277343749999983 1.7217741935484  0.273437499999982 1.72983870967744  0.273437499999982 1.74193548387098  C 0.273437499999982 1.75000000000002  0.273437499999982 1.75403225806453  0.269531249999981 1.76209677419356  C 0.269531249999981 1.77419354838711  0.269531249999981 1.78629032258066  0.26562499999998 1.79838709677421  L 0.26562499999998 1.86693548387097  L 0.257812499999981 7.04032258064516  C 0.257812499999981 7.24596774193548  0.31249999999998 7.43145161290322  0.406249999999981 7.5766129032258  C 0.425781249999981 7.60887096774193  0.449218749999982 7.64112903225806  0.472656249999981 7.66935483870967  C 0.49609374999998 7.69758064516128  0.523437499999981 7.7258064516129  0.550781249999981 7.74999999999999  C 0.593749999999982 7.78629032258064  0.63671874999998 7.81854838709677  0.687499999999979 7.84677419354838  L 4.24999999999998 9.84677419354838  C 3.99218749999998 9.7016129032258  3.81640624999998 9.40322580645161  3.82031249999998 9.03629032258064  L 3.82812499999998 3.86290322580644  L 3.82812499999998 3.81048387096773  L 3.82812499999998 3.79435483870967  C 3.82812499999998 3.78225806451612  3.82812499999998 3.77016129032257  3.83203124999998 3.75806451612902  C 3.83203124999998 3.74999999999999  3.83203124999998 3.74596774193548  3.83593749999998 3.73790322580644  C 3.83593749999998 3.7258064516129  3.83984374999998 3.71774193548386  3.83984374999998 3.70564516129032  C 3.83984374999998 3.69758064516128  3.84374999999999 3.68951612903225  3.84374999999999 3.68145161290322  C 3.84374999999999 3.67338709677419  3.84765624999999 3.66129032258064  3.84765624999999 3.65322580645161  C 3.84765624999999 3.64516129032257  3.85156249999999 3.63709677419354  3.85156249999999 3.62903225806451  C 3.85156249999999 3.62096774193547  3.85546874999999 3.60887096774193  3.85546874999999 3.60080645161289  C 3.85546874999999 3.59274193548386  3.85937499999999 3.58467741935483  3.85937499999999 3.57661290322579  C 3.86328124999999 3.56854838709676  3.86328124999999 3.55645161290321  3.86718749999999 3.54838709677418  C 3.87109374999999 3.54032258064515  3.87109374999999 3.53225806451612  3.87499999999999 3.52419354838708  C 3.87890624999999 3.51612903225805  3.87890624999999 3.50806451612902  3.88281249999999 3.49596774193547  C 3.88671875 3.48790322580643  3.88671875 3.4798387096774  3.890625 3.47177419354837  C 3.89453125 3.46370967741934  3.89453125 3.45564516129031  3.8984375 3.44758064516127  C 3.90625 3.42338709677417  3.91796875 3.39919354838708  3.92578125 3.37499999999998  C 3.9296875 3.37096774193547  3.9296875 3.36693548387095  3.93359375 3.36290322580644  C 3.9453125 3.33870967741934  3.953125 3.31854838709676  3.96484375 3.29435483870966  C 3.96875 3.29032258064514  3.96875 3.28629032258063  3.97265625 3.28225806451611  C 3.98046875 3.26612903225805  3.98828125 3.24999999999999  4 3.23387096774192  C 4.00390625 3.2298387096774  4.00390625 3.22580645161288  4.00781250000001 3.22177419354837  C 4.01953125 3.20161290322579  4.03125000000001 3.18548387096773  4.04296875 3.16532258064515  C 4.04687500000001 3.16129032258063  4.04687500000001 3.15725806451611  4.05078125000001 3.1532258064516  C 4.05859375000001 3.14112903225805  4.07031250000001 3.12499999999999  4.08203125 3.11290322580644  C 4.08593750000001 3.10887096774192  4.08984375000001 3.10483870967741  4.09375 3.09677419354838  C 4.10546875 3.08467741935483  4.11328125 3.06854838709676  4.125 3.05645161290321  C 4.12890625 3.0524193548387  4.12890625 3.04838709677418  4.1328125 3.04838709677418  C 4.14453125 3.03225806451612  4.16015625 3.01612903225805  4.17578125 3.0040322580645  L 4.1875 2.99193548387096  C 4.19921875 2.97983870967741  4.2109375 2.96774193548386  4.22265625 2.95967741935483  L 4.234375 2.94758064516128  C 4.25 2.93145161290322  4.265625 2.91935483870967  4.28125 2.90725806451612  L 4.28515625 2.9032258064516  L 4.33203125 2.86693548387096  C 4.3359375 2.86290322580644  4.33984375000001 2.86290322580644  4.34375 2.85887096774193  C 4.36328125 2.84274193548386  4.38671875 2.83064516129031  4.40625 2.81854838709676  C 4.41015625 2.81451612903225  4.4140625 2.81451612903225  4.41796875 2.81048387096773  C 4.44140625 2.79838709677418  4.46484375 2.78629032258063  4.484375 2.77419354838709  C 4.48828125 2.77419354838709  4.4921875 2.77016129032257  4.4921875 2.77016129032257  C 4.5078125 2.76209677419353  4.5234375 2.7540322580645  4.54296875 2.74999999999999  C 4.546875 2.74596774193547  4.5546875 2.74596774193547  4.55859375 2.74596774193547  C 4.578125 2.73790322580644  4.59765625 2.72983870967741  4.6171875 2.72580645161289  L 4.625 2.72580645161289  C 4.64453125 2.72177419354837  4.66015625 2.71370967741934  4.6796875 2.70967741935483  C 4.68359375 2.70967741935483  4.69140625 2.70564516129031  4.6953125 2.70564516129031  C 4.71484375 2.70161290322579  4.734375 2.69758064516128  4.7578125 2.69354838709676  L 9.40234375 2.02016129032257  C 9.58203125 1.99193548387095  9.75390625 2.0282258064516  9.89453125 2.10887096774192  Z " fill-rule="nonzero" fill="#00a4ff" stroke="none" transform="matrix(1 0 0 1 942 46 )" />
  </g>
</svg>