<?xml version="1.0" encoding="utf-8"?>
<svg version="1.1" xmlns:xlink="http://www.w3.org/1999/xlink" width="10px" height="10px" xmlns="http://www.w3.org/2000/svg">
  <g transform="matrix(1 0 0 1 -939 -35 )">
    <path d="M 9.32031250000001 2.03629032258065  C 9.32812500000001 2.04032258064516  9.3359375 2.04032258064516  9.34375 2.04032258064516  L 9.421875 2.04032258064516  C 9.4375 2.04032258064516  9.453125 2.04435483870968  9.47265625 2.04435483870968  C 9.48046875 2.04435483870968  9.48828125 2.0483870967742  9.49609375 2.0483870967742  L 9.5546875 2.06048387096775  C 9.55859375 2.06048387096775  9.5625 2.06048387096775  9.56640625 2.06451612903226  C 9.58984375 2.07258064516129  9.61328125 2.07661290322581  9.6328125 2.08467741935484  C 9.640625 2.08870967741936  9.64453125 2.08870967741936  9.65234375 2.09274193548387  C 9.66796875 2.10080645161291  9.68359375 2.10483870967742  9.69921875 2.11290322580646  C 9.7109375 2.12096774193549  9.7265625 2.125  9.73828125 2.13306451612904  L 6.17578125 0.133064516129035  C 6.16796875 0.129032258064518  6.15625 0.120967741935486  6.1484375 0.116935483870971  C 6.14453125 0.116935483870971  6.140625 0.112903225806454  6.13671875 0.112903225806454  C 6.12109375 0.104838709677423  6.10546875 0.0967741935483908  6.08984375 0.0927419354838737  C 6.08203125 0.0887096774193567  6.078125 0.0887096774193567  6.0703125 0.0846774193548419  C 6.046875 0.0766129032258101  6.0234375 0.0685483870967783  6.00390625 0.0645161290322613  C 6 0.0645161290322613  5.99609375 0.0645161290322613  5.9921875 0.0604838709677442  L 5.93359375 0.0483870967741954  C 5.92578125 0.0483870967741954  5.91796875 0.0443548387096783  5.91015625 0.0443548387096783  C 5.89453125 0.0403225806451613  5.87890625 0.0403225806451613  5.859375 0.0403225806451613  L 5.7578125 0.0403225806451613  C 5.734375 0.0403225806451613  5.70703125 0.0443548387096783  5.68359375 0.0483870967741931  L 1.0390625 0.721774193548386  C 1.01171875 0.725806451612903  0.98828125 0.729838709677418  0.960937500000001 0.73790322580645  C 0.953125000000001 0.73790322580645  0.945312500000002 0.741935483870967  0.9375 0.745967741935482  C 0.921875000000001 0.749999999999999  0.902343750000001 0.754032258064513  0.88671875 0.762096774193545  C 0.87890625 0.766129032258062  0.8671875 0.770161290322577  0.859375 0.770161290322577  C 0.843750000000001 0.774193548387094  0.828125 0.782258064516126  0.8125 0.786290322580641  C 0.804687500000001 0.790322580645158  0.79296875 0.794354838709672  0.785156250000001 0.79838709677419  C 0.78125 0.802419354838707  0.7734375 0.802419354838707  0.769531250000002 0.806451612903221  L 0.746093750000001 0.81854838709677  C 0.734375 0.826612903225802  0.718750000000001 0.830645161290319  0.707031250000001 0.838709677419351  C 0.6953125 0.846774193548382  0.68359375 0.850806451612899  0.671875000000002 0.858870967741931  C 0.660156250000001 0.866935483870963  0.648437500000001 0.874999999999995  0.632812500000002 0.883064516129029  C 0.628906250000001 0.887096774193546  0.621093750000001 0.891129032258061  0.617187500000003 0.895161290322578  C 0.609375000000003 0.899193548387095  0.601562500000004 0.907258064516127  0.593750000000002 0.911290322580641  C 0.585937500000002 0.915322580645159  0.578125000000003 0.92338709677419  0.570312500000001 0.931451612903222  C 0.554687500000002 0.943548387096771  0.542968750000001 0.95564516129032  0.52734375 0.967741935483866  C 0.51953125 0.971774193548383  0.515625 0.979838709677415  0.5078125 0.98387096774193  L 0.503906249999999 0.987903225806447  C 0.48828125 1.00403225806451  0.46875 1.02016129032258  0.453124999999999 1.03629032258064  C 0.449218749999998 1.04032258064516  0.449218749999998 1.04435483870967  0.445312499999999 1.04435483870967  C 0.433593749999999 1.05645161290322  0.421874999999998 1.07258064516128  0.41015625 1.08467741935483  C 0.406249999999999 1.08870967741935  0.406249999999999 1.09274193548387  0.40234375 1.09677419354838  C 0.3984375 1.10483870967741  0.390625 1.10887096774193  0.386718750000001 1.11693548387096  C 0.375000000000001 1.13306451612903  0.36328125 1.14516129032258  0.351562500000002 1.16129032258064  C 0.347656250000001 1.16935483870967  0.339843750000002 1.1774193548387  0.335937500000003 1.18145161290322  C 0.332031250000002 1.18548387096774  0.328125000000004 1.18951612903225  0.328125000000004 1.19354838709677  L 0.304687500000003 1.22983870967741  C 0.300781250000002 1.23790322580645  0.296875000000003 1.24596774193548  0.289062500000004 1.25  C 0.273437500000004 1.27419354838709  0.261718750000004 1.29838709677419  0.250000000000004 1.32258064516129  C 0.246093750000003 1.33064516129032  0.242187500000004 1.34274193548387  0.238281250000003 1.3508064516129  C 0.230468750000004 1.36693548387096  0.222656250000004 1.38306451612903  0.214843750000002 1.40322580645161  C 0.210937500000001 1.41532258064516  0.207031250000003 1.42741935483871  0.203125000000002 1.43548387096774  C 0.195312500000002 1.4516129032258  0.191406250000001 1.46774193548387  0.183593750000002 1.48387096774193  C 0.175781250000002 1.50403225806451  0.171875000000001 1.52419354838709  0.164062500000002 1.54032258064516  C 0.160156250000001 1.54838709677419  0.156250000000002 1.56048387096774  0.156250000000002 1.56854838709677  C 0.148437500000003 1.59677419354838  0.140625000000003 1.62903225806451  0.136718750000002 1.65725806451612  C 0.121093750000003 1.72983870967741  0.113281250000001 1.80645161290322  0.113281250000001 1.88306451612903  L 0.105468750000002 7.05645161290322  C 0.105468750000002 7.13306451612903  0.113281250000001 7.20564516129032  0.128906250000003 7.27419354838709  C 0.183593750000002 7.54032258064516  0.332031250000002 7.74999999999999  0.539062500000003 7.86290322580645  L 4.1015625 9.86290322580645  C 3.89453125000001 9.74596774193548  3.74609375 9.53629032258064  3.69140625 9.27419354838709  C 3.67578125000001 9.20564516129032  3.66796875 9.12903225806451  3.66796875 9.05645161290322  L 3.67578125000001 3.88306451612903  C 3.67578125000001 3.80645161290322  3.68359375000001 3.72983870967742  3.69921875000001 3.65725806451612  C 3.70312500000001 3.62903225806451  3.7109375 3.59677419354838  3.71875000000001 3.56854838709677  C 3.72265625000001 3.56048387096774  3.72656250000001 3.54838709677419  3.72656250000001 3.54032258064516  C 3.73046875000001 3.52016129032258  3.73828125000001 3.5  3.74609375000001 3.48387096774193  C 3.75390625000001 3.46774193548387  3.75781250000001 3.4516129032258  3.76562500000001 3.43548387096774  C 3.76953125000001 3.42338709677419  3.77343750000001 3.41129032258064  3.77734375000001 3.40322580645161  C 3.78515625000001 3.38709677419355  3.79296875000001 3.36693548387097  3.80078125000001 3.3508064516129  C 3.80468750000001 3.34274193548387  3.80859375000001 3.33064516129032  3.81250000000001 3.32258064516129  C 3.82421875 3.29838709677419  3.83984375000001 3.27419354838709  3.85156250000001 3.25  C 3.85546875000001 3.24193548387096  3.85937500000001 3.23387096774193  3.8671875 3.22983870967742  C 3.87890625 3.21370967741935  3.88671875 3.19758064516129  3.8984375 3.18145161290322  C 3.90234375 3.17338709677419  3.91015625 3.16532258064516  3.9140625 3.16129032258064  C 3.92578125 3.14516129032258  3.9375 3.13306451612903  3.94921875 3.11693548387096  C 3.953125 3.10887096774193  3.9609375 3.10483870967742  3.96484375 3.09677419354838  C 3.98046875 3.08064516129032  3.99609375 3.06451612903225  4.0078125 3.04435483870967  C 4.01171875 3.04032258064516  4.01171875 3.03629032258064  4.015625 3.03629032258064  L 4.0703125 2.97983870967742  C 4.078125 2.9758064516129  4.08203125 2.96774193548387  4.08984375 2.96370967741935  C 4.1015625 2.9516129032258  4.1171875 2.93951612903225  4.1328125 2.92741935483871  C 4.140625 2.91935483870968  4.1484375 2.91532258064516  4.15625 2.90725806451613  C 4.16796875 2.8991935483871  4.1796875 2.88709677419355  4.1953125 2.87903225806452  C 4.20703125 2.87096774193548  4.21875 2.86290322580645  4.234375 2.85483870967742  C 4.24609375 2.84677419354839  4.2578125 2.83870967741935  4.26953125 2.83467741935484  C 4.28125 2.82661290322581  4.296875 2.81854838709677  4.30859375 2.81451612903226  C 4.3203125 2.80645161290322  4.3359375 2.80241935483871  4.34765625 2.79435483870968  C 4.35546875 2.79032258064516  4.3671875 2.78629032258064  4.375 2.78225806451613  C 4.390625 2.7741935483871  4.40625 2.77016129032258  4.42187500000001 2.76612903225806  C 4.42968750000001 2.76209677419355  4.44140625000001 2.75806451612903  4.44921875000001 2.75806451612903  C 4.46484375000001 2.75403225806451  4.48437500000001 2.74596774193548  4.50000000000001 2.74193548387097  C 4.50781250000001 2.73790322580645  4.51562500000001 2.73790322580645  4.52343750000001 2.73387096774194  C 4.54687500000001 2.72983870967742  4.57421875000001 2.72177419354839  4.60156250000001 2.71774193548387  L 9.24609375000001 2.04435483870968  C 9.27343750000001 2.04032258064516  9.296875 2.04032258064516  9.32031250000001 2.03629032258065  Z " fill-rule="nonzero" fill="#ffa300" stroke="none" transform="matrix(1 0 0 1 939 35 )" />
  </g>
</svg>