<?xml version="1.0" encoding="utf-8"?>
<svg version="1.1" xmlns:xlink="http://www.w3.org/1999/xlink" width="10px" height="10px" xmlns="http://www.w3.org/2000/svg">
  <g transform="matrix(1 0 0 1 -929 -48 )">
    <path d="M 9.33984375000001 2.21484374999999  C 9.33593750000001 2.21093749999999  9.34375000000001 2.21093749999999  9.3515625 2.2109375  L 9.4296875 2.2109375  C 9.4453125 2.2109375  9.4609375 2.21484375  9.48046875 2.21484375  C 9.48828125 2.21484375  9.49609375 2.21484375  9.50390625 2.21875  C 9.5234375 2.22265625  9.54296875 2.2265625  9.56640625 2.23046875  L 9.57421875 2.23046875  C 9.59765625 2.23828125  9.62109375 2.2421875  9.640625 2.25  C 9.6484375 2.25390625  9.65234375 2.25390625  9.66015625 2.2578125  C 9.67578125 2.265625  9.69140625 2.26953125  9.70703125 2.27734375  C 9.71875 2.28515625  9.734375 2.2890625  9.74609375 2.296875  L 8.62890625 1.69140625  L 6.18359375 0.363281250000003  C 6.17578125 0.359375000000002  6.1640625 0.355468750000001  6.15625 0.347656250000004  C 6.15234375 0.347656250000004  6.1484375 0.343750000000003  6.14453125 0.343750000000003  C 6.12890625 0.335937500000001  6.11328125 0.328125000000004  6.09765625 0.324218750000003  C 6.08984375 0.320312500000002  6.0859375 0.320312500000002  6.078125 0.316406250000001  C 6.0546875 0.308593749999999  6.03515625 0.300781250000002  6.01171875 0.296875000000001  L 6.00390625 0.296875000000001  C 5.984375 0.29296875  5.96484375 0.289062499999999  5.94140625 0.285156250000003  C 5.93359375 0.285156250000003  5.92578125 0.281250000000002  5.91796875 0.281250000000002  C 5.90234375 0.277343750000001  5.88671875 0.277343750000001  5.8671875 0.277343750000001  L 5.765625 0.277343750000001  C 5.7421875 0.277343750000001  5.71484375 0.281250000000002  5.6875 0.285156250000003  L 1.046875 0.9375  C 1.02734375 0.941406250000001  1.00390625 0.945312500000002  0.984375000000001 0.949218749999998  C 0.980468750000001 0.949218749999998  0.97265625 0.953124999999999  0.96875 0.953124999999999  C 0.94921875 0.95703125  0.93359375 0.960937500000001  0.9140625 0.968749999999998  L 0.906250000000001 0.968749999999998  C 0.886718750000001 0.9765625  0.867187500000001 0.980468749999996  0.847656250000001 0.988281249999998  C 0.843750000000001 0.988281249999998  0.8359375 0.992187499999999  0.83203125 0.992187499999999  C 0.81640625 1  0.80078125 1.00390625  0.78125 1.01171875  C 0.77734375 1.01171875  0.77734375 1.015625  0.7734375 1.015625  L 0.769531250000001 1.015625  C 0.746093750000001 1.02734375  0.722656250000001 1.0390625  0.703125000000001 1.05078125  C 0.699218750000001 1.0546875  0.695312500000002 1.0546875  0.691406250000001 1.05859375  C 0.667968750000001 1.0703125  0.648437500000001 1.0859375  0.628906250000001 1.09765625  L 0.625000000000001 1.1015625  C 0.621093750000001 1.1015625  0.621093750000001 1.10546875  0.617187500000002 1.10546875  L 0.570312500000002 1.140625  L 0.566406250000002 1.14453125  C 0.550781250000002 1.15625  0.535156250000002 1.171875  0.519531250000003 1.18359375  L 0.515625000000003 1.1875  L 0.507812500000003 1.19531250000001  C 0.496093750000003 1.20703125  0.484375000000004 1.21484375000001  0.472656250000003 1.2265625  L 0.460937500000003 1.23828125  L 0.417968750000003 1.28125  C 0.414062500000003 1.28515625  0.414062500000003 1.28515625  0.414062500000003 1.2890625  C 0.402343750000003 1.30078125  0.394531250000003 1.31250000000001  0.382812500000003 1.328125  C 0.378906250000003 1.33203125000001  0.375000000000003 1.33593750000001  0.371093750000002 1.34375  C 0.359375000000002 1.35546875  0.351562500000002 1.37109375000001  0.339843750000002 1.3828125  C 0.339843750000002 1.38671875  0.335937500000002 1.38671875  0.335937500000002 1.39062500000001  L 0.335937500000002 1.39453125000001  C 0.324218750000002 1.41015625000001  0.312500000000002 1.42968750000001  0.300781250000002 1.44921875000001  C 0.296875000000002 1.45312500000001  0.296875000000002 1.45703125000001  0.292968750000002 1.4609375  C 0.285156250000003 1.4765625  0.273437500000002 1.4921875  0.265625000000003 1.50781250000001  C 0.265625000000003 1.51171875000001  0.261718750000003 1.51171875000001  0.261718750000003 1.51562500000001  L 0.261718750000003 1.51953125000001  C 0.250000000000002 1.54296875000001  0.238281250000003 1.56250000000001  0.230468750000002 1.58593750000001  C 0.226562500000003 1.58984375000001  0.226562500000003 1.59375000000001  0.222656250000003 1.59765625000001  C 0.210937500000002 1.62109375000001  0.203125000000003 1.64453125000001  0.195312500000003 1.66796875000001  L 0.195312500000003 1.67187500000001  C 0.191406250000004 1.67968750000001  0.191406250000004 1.68750000000001  0.187500000000004 1.69140625000001  C 0.183593750000004 1.69921875000001  0.183593750000004 1.70703125000001  0.179687500000004 1.71484375000001  C 0.175781250000004 1.72265625000001  0.175781250000004 1.73046875000001  0.171875000000005 1.74218750000001  C 0.167968750000005 1.75000000000001  0.167968750000005 1.75781250000001  0.164062500000005 1.76562500000001  C 0.160156250000005 1.77343750000001  0.160156250000005 1.78515625000001  0.156250000000006 1.79296875000001  C 0.156250000000006 1.80078125000001  0.152343750000006 1.80859375000001  0.152343750000006 1.81640625000001  C 0.148437500000006 1.82421875000002  0.148437500000006 1.83593750000001  0.148437500000006 1.84375000000002  C 0.148437500000006 1.85156250000002  0.144531250000006 1.85937500000001  0.144531250000006 1.86718750000002  C 0.144531250000006 1.87500000000002  0.140625000000006 1.88671875000002  0.140625000000006 1.89453125000002  C 0.140625000000006 1.90234375000002  0.136718750000007 1.91015625000002  0.136718750000007 1.91796875000002  C 0.136718750000007 1.92968750000002  0.132812500000007 1.93750000000002  0.132812500000007 1.94921875000002  C 0.132812500000007 1.95703125000002  0.132812500000007 1.96093750000002  0.128906250000007 1.96875000000002  C 0.128906250000007 1.98046875000002  0.128906250000007 1.99218750000002  0.125000000000007 2.00390625000002  L 0.125000000000007 2.0703125  L 0.117187500000008 7.08203125  C 0.117187500000008 7.4375  0.289062500000008 7.7265625  0.546875000000008 7.8671875  L 4.10937500000001 9.8046875  C 3.85156250000001 9.6640625  3.67578125000001 9.375  3.67968750000001 9.01953125  L 3.68750000000001 4.0078125  L 3.68750000000001 3.95703125  L 3.68750000000001 3.94140625  C 3.68750000000001 3.9296875  3.68750000000001 3.91796875  3.69140625000001 3.90625  C 3.69140625000001 3.8984375  3.69140625000001 3.89453125  3.69531250000001 3.88671875  C 3.69531250000001 3.875  3.69921875000001 3.8671875  3.69921875000001 3.85546875  C 3.69921875000001 3.84765625  3.70312500000001 3.83984375  3.70312500000001 3.83203125  C 3.70312500000001 3.82421875  3.70703125000001 3.8125  3.70703125000001 3.8046875  C 3.70703125000001 3.796875  3.71093750000001 3.7890625  3.71093750000001 3.78125  C 3.71093750000001 3.7734375  3.71484375000001 3.76171875  3.71484375000001 3.75390625  C 3.71484375000001 3.74609374999999  3.71875000000002 3.73828125  3.71875000000002 3.73046875  C 3.72265625000002 3.72265624999999  3.72265625000002 3.7109375  3.72656250000001 3.70312499999999  C 3.73046875000002 3.69531249999999  3.73046875000002 3.68749999999999  3.73437500000001 3.67968749999999  C 3.73828125000002 3.67187499999999  3.73828125000002 3.66406249999999  3.74218750000001 3.65234374999999  C 3.74609375000001 3.64453124999999  3.74609375000001 3.63671874999999  3.75000000000001 3.62890624999999  C 3.75390625000001 3.62109374999999  3.75390625000001 3.61328124999999  3.75781250000001 3.60546874999999  C 3.76562500000001 3.58203124999999  3.77734375000001 3.55859374999999  3.78515625000001 3.53515624999999  C 3.78906250000001 3.53124999999999  3.78906250000001 3.52734374999999  3.79296875000001 3.52343749999999  C 3.80468750000001 3.49999999999999  3.81250000000001 3.48046874999999  3.82421875000001 3.45703124999999  C 3.82812500000001 3.45312499999999  3.82812500000001 3.44921874999999  3.83203125000001 3.44531249999999  C 3.83984375000001 3.42968749999999  3.84765625000001 3.41406249999999  3.85937500000001 3.39843749999999  C 3.86328125000001 3.39453124999999  3.86328125000001 3.39062499999999  3.86718750000001 3.38671874999999  C 3.87890625000001 3.36718749999999  3.89062500000001 3.35156249999999  3.90234375000001 3.33203124999999  C 3.90625000000001 3.32812499999999  3.90625000000001 3.32421874999999  3.91015625000001 3.3203125  C 3.91796875000001 3.30859375  3.92968750000001 3.29296874999999  3.94140625000001 3.28125  C 3.94531250000001 3.27734374999999  3.94921875000001 3.27343749999999  3.95312500000001 3.265625  C 3.96484375000001 3.25390625  3.97265625000001 3.23828124999999  3.98437500000001 3.2265625  C 3.98828125000001 3.22265625  3.98828125000001 3.21874999999999  3.99218750000001 3.21874999999999  C 4.00390625000001 3.203125  4.01953125000001 3.1875  4.03515625000001 3.17578124999999  L 4.04687500000001 3.1640625  C 4.05859375000001 3.15234375  4.07031250000001 3.14062499999999  4.08203125000001 3.1328125  L 4.09375000000001 3.12109375  C 4.10937500000001 3.10546875  4.12500000000001 3.09375  4.14062500000001 3.08203125  L 4.14453125000001 3.078125  L 4.19140625000001 3.04296875  C 4.19531250000001 3.0390625  4.19921875000001 3.0390625  4.20312500000001 3.03515625  C 4.22265625000001 3.01953125  4.24609375000001 3.0078125  4.26562500000001 2.99609375  C 4.26953125000001 2.9921875  4.27343750000001 2.9921875  4.27734375000001 2.98828125  C 4.30078125000001 2.9765625  4.32421875000001 2.96484374999999  4.34375000000001 2.953125  C 4.34765625000001 2.953125  4.35156250000001 2.94921875  4.35156250000001 2.94921875  C 4.36718750000001 2.94140624999999  4.38281250000001 2.93359375  4.40234375000001 2.9296875  C 4.40625000000001 2.92578124999999  4.41406250000001 2.92578124999999  4.41796875000001 2.92578124999999  C 4.43750000000001 2.91796874999999  4.45703125000001 2.91015625  4.47656250000001 2.90624999999999  L 4.48437500000001 2.90624999999999  C 4.50390625000001 2.90234374999999  4.51953125000001 2.89453125  4.53906250000001 2.890625  C 4.54296875000001 2.890625  4.55078125000001 2.88671874999999  4.55468750000001 2.88671874999999  C 4.57421875000001 2.88281249999999  4.59375000000001 2.87890624999999  4.61718750000001 2.875  L 9.26171875000001 2.22265624999999  C 9.28906250000001 2.21874999999999  9.31250000000001 2.21874999999999  9.33984375000001 2.21484374999999  Z " fill-rule="nonzero" fill="#00b794" stroke="none" transform="matrix(1 0 0 1 929 48 )" />
  </g>
</svg>