<?xml version="1.0" encoding="utf-8"?>
<svg version="1.1" xmlns:xlink="http://www.w3.org/1999/xlink" width="10px" height="10px" xmlns="http://www.w3.org/2000/svg">
  <g transform="matrix(1 0 0 1 -943 -43 )">
    <path d="M 9.38671874999999 2.13671874999998  C 9.39453125 2.14062499999998  9.40234374999999 2.14062499999998  9.41015625 2.140625  L 9.48828125 2.140625  C 9.50390625 2.140625  9.51953125 2.14453125  9.5390625 2.14453125  C 9.546875 2.14453125  9.5546875 2.1484375  9.5625 2.1484375  L 9.62109375 2.16015625  C 9.625 2.16015625  9.62890625 2.16015625  9.6328125 2.1640625  C 9.65625 2.171875  9.6796875 2.17578125  9.69921875 2.18359375  C 9.70703125 2.1875  9.7109375 2.1875  9.71875 2.19140625  C 9.734375 2.19921875  9.75 2.203125  9.765625 2.2109375  C 9.77734375 2.21875  9.79296875 2.22265625  9.8046875 2.23046875  L 6.2421875 0.29296875  C 6.234375 0.289062499999999  6.22265625 0.28125  6.21484375 0.277343750000001  C 6.2109375 0.277343750000001  6.20703124999999 0.2734375  6.203125 0.2734375  C 6.1875 0.265625  6.171875 0.257812500000001  6.15625 0.25390625  C 6.14843749999999 0.249999999999999  6.14453125 0.249999999999999  6.13671875 0.24609375  C 6.11328125 0.238281250000001  6.08984374999999 0.230468750000001  6.07031249999999 0.2265625  C 6.06640624999999 0.2265625  6.06249999999999 0.2265625  6.05859375 0.22265625  L 6 0.210937499999999  C 5.99218749999999 0.210937499999999  5.984375 0.207031249999998  5.9765625 0.207031249999998  C 5.9609375 0.203124999999997  5.9453125 0.203124999999997  5.92578125 0.203124999999997  L 5.82421875 0.203124999999997  C 5.80078125 0.203124999999997  5.7734375 0.207031249999998  5.75 0.210937499999997  L 1.10546875 0.863281249999996  C 1.078125 0.867187499999997  1.0546875 0.871093749999996  1.02734375 0.878906249999996  C 1.01953125 0.878906249999996  1.01171875 0.882812499999996  1.00390625 0.886718749999995  C 0.988281249999998 0.890624999999996  0.968749999999998 0.894531249999995  0.953124999999999 0.902343749999994  C 0.945312499999997 0.906249999999995  0.933593749999999 0.910156249999994  0.925781249999997 0.910156249999994  C 0.910156249999998 0.914062499999995  0.894531249999999 0.921874999999994  0.878906249999996 0.925781249999993  C 0.871093749999994 0.929687499999994  0.859374999999996 0.933593749999992  0.851562499999994 0.937499999999993  C 0.847656249999993 0.941406249999992  0.839843749999996 0.941406249999992  0.835937499999995 0.945312499999993  L 0.812499999999994 0.957031249999991  C 0.800781249999996 0.964843749999993  0.785156249999992 0.968749999999989  0.773437499999994 0.976562499999991  C 0.761718749999996 0.984374999999993  0.749999999999993 0.988281249999989  0.738281249999995 0.996093749999991  C 0.726562499999996 1.00390624999999  0.714843749999994 1.01171874999999  0.699218749999995 1.01953124999999  C 0.695312499999994 1.02343749999999  0.687499999999996 1.02734374999999  0.683593749999996 1.03124999999999  C 0.675781249999994 1.03515624999999  0.667968749999996 1.04296874999999  0.660156249999995 1.04687499999999  C 0.652343749999993 1.05078124999999  0.644531249999996 1.05859374999999  0.636718749999994 1.06640624999999  C 0.621093749999995 1.07812499999999  0.609374999999992 1.08984374999999  0.593749999999993 1.10156249999999  C 0.585937499999991 1.10546874999999  0.582031249999995 1.11328124999999  0.574218749999993 1.11718749999999  L 0.570312499999992 1.12109374999999  C 0.554687499999993 1.13671874999999  0.535156249999993 1.15234374999999  0.519531249999994 1.16796874999999  C 0.515624999999993 1.17187499999999  0.515624999999993 1.17578124999999  0.511718749999992 1.17578124999999  C 0.499999999999994 1.18749999999999  0.488281249999991 1.20312499999999  0.476562499999993 1.21484374999999  C 0.472656249999992 1.21874999999999  0.472656249999992 1.22265624999999  0.468749999999991 1.22656249999999  C 0.46484374999999 1.23437499999999  0.457031249999993 1.23828124999999  0.453124999999992 1.24609374999999  C 0.441406249999994 1.26171874999999  0.429687499999991 1.27343749999999  0.417968749999993 1.28906249999999  C 0.414062499999992 1.29687499999999  0.406249999999995 1.30468749999999  0.402343749999994 1.30859374999999  C 0.398437499999993 1.31249999999999  0.394531249999992 1.31640624999999  0.394531249999992 1.32031249999999  L 0.371093749999991 1.35546874999999  C 0.36718749999999 1.36328124999999  0.363281249999989 1.37109374999999  0.355468749999992 1.37499999999999  C 0.339843749999993 1.39843749999999  0.32812499999999 1.42187499999999  0.316406249999992 1.44531249999999  C 0.312499999999991 1.45312499999999  0.30859374999999 1.46484374999999  0.304687499999994 1.47265624999999  C 0.296874999999992 1.48828124999999  0.289062499999995 1.50781249999999  0.281249999999993 1.52343749999999  C 0.277343749999992 1.53515624999998  0.273437499999991 1.54687499999999  0.269531249999995 1.55468749999998  C 0.261718749999993 1.57031249999998  0.257812499999996 1.58593749999998  0.249999999999995 1.60156249999999  C 0.242187499999993 1.62109374999999  0.238281249999996 1.63671874999999  0.230468749999995 1.65624999999999  C 0.226562499999994 1.66406249999999  0.222656249999993 1.67578124999999  0.222656249999993 1.68359374999999  C 0.214843749999991 1.71093749999999  0.207031249999994 1.74218749999999  0.203124999999993 1.76953124999999  C 0.187499999999994 1.83984374999999  0.179687499999992 1.91406249999999  0.179687499999992 1.98828124999999  L 0.17187499999999 7.00390624999999  C 0.17187499999999 7.07812499999999  0.179687499999992 7.14843749999999  0.19140624999999 7.21484374999999  C 0.246093749999989 7.47265624999999  0.394531249999992 7.67578124999999  0.60156249999999 7.78906249999999  L 4.16406249999999 9.72656249999999  C 3.95703124999999 9.61328124999999  3.80859374999999 9.41015624999999  3.75390624999999 9.15234374999999  C 3.73828124999999 9.08593749999999  3.73437499999999 9.01562499999999  3.73437499999999 8.94140624999999  L 3.74218749999999 3.92578124999999  C 3.74218749999999 3.85156249999999  3.75 3.77734374999999  3.76562499999999 3.70703124999999  C 3.76953125 3.67968749999999  3.77734374999999 3.64843749999999  3.78515624999999 3.62109374999999  C 3.7890625 3.61328124999999  3.79296875 3.60156249999999  3.79296875 3.59374999999999  C 3.796875 3.57421874999999  3.80468749999999 3.55468749999999  3.8125 3.53906249999999  C 3.8203125 3.52343749999999  3.82421874999999 3.50781249999999  3.83203125 3.49218749999999  C 3.8359375 3.48046874999999  3.83984375 3.46874999999998  3.84374999999999 3.46093749999999  C 3.8515625 3.44531249999999  3.85937499999999 3.42578124999999  3.8671875 3.41015624999999  C 3.87109375 3.40234374999999  3.875 3.39062499999999  3.87890624999999 3.38281249999999  C 3.89062499999999 3.35937499999999  3.90625 3.33593749999999  3.91796874999999 3.31249999999999  C 3.92187499999999 3.30468749999999  3.92578125 3.29687499999999  3.93359374999999 3.29296874999999  C 3.94531249999999 3.27734374999999  3.95312499999999 3.26171874999999  3.96484374999999 3.24609374999999  C 3.96874999999999 3.23828124999999  3.97656249999999 3.23046874999999  3.98046874999999 3.22656249999999  C 3.99218749999999 3.21093749999999  4.00390624999999 3.19921874999999  4.01562499999999 3.18359374999999  C 4.01953124999999 3.17578124999998  4.02734374999999 3.17187499999999  4.03124999999999 3.16406249999999  C 4.04687499999999 3.14843749999999  4.06249999999999 3.13281249999999  4.07421874999999 3.11328124999999  C 4.07812499999999 3.10937499999999  4.07812499999999 3.10546874999999  4.08203124999999 3.10546874999999  L 4.13671874999999 3.05078124999999  C 4.14453124999999 3.04687499999999  4.14843749999999 3.03906249999999  4.15624999999999 3.03515624999999  C 4.16796874999999 3.02343749999999  4.18359374999999 3.01171874999999  4.19921874999999 2.99999999999999  C 4.20703124999999 2.99218749999999  4.21484374999999 2.98828124999999  4.22265624999999 2.98046874999999  C 4.23437499999999 2.97265624999999  4.24609374999999 2.96093749999999  4.26171874999999 2.95312499999999  C 4.27343749999999 2.94531249999999  4.28515624999999 2.93749999999999  4.30078124999999 2.92968749999999  C 4.31249999999999 2.92187499999998  4.32421874999999 2.91406249999999  4.33593749999999 2.91015624999999  C 4.34765624999999 2.90234374999998  4.36328124999999 2.89453124999999  4.37499999999999 2.89062499999999  C 4.38671874999999 2.88281249999998  4.40234374999999 2.87890624999999  4.41406249999999 2.87109374999999  C 4.42187499999999 2.86718749999999  4.43359374999999 2.86328124999998  4.44140624999999 2.85937499999999  C 4.45703124999999 2.85156249999999  4.47265624999999 2.84765624999999  4.48828124999999 2.84374999999999  C 4.49609375 2.83984374999999  4.50781249999999 2.83593749999999  4.515625 2.83593749999999  C 4.53125 2.83203124999999  4.55078125 2.82421874999999  4.56640624999999 2.82031249999999  C 4.57421875 2.81640624999999  4.58203124999999 2.81640624999999  4.58984375 2.81249999999999  C 4.61328125 2.80859374999999  4.64062499999999 2.80078124999999  4.66796875 2.79687499999999  L 9.31249999999999 2.14453124999999  C 9.33984375 2.14062499999998  9.36328124999999 2.14062499999998  9.38671874999999 2.13671874999998  Z " fill-rule="nonzero" fill="#d30032" stroke="none" transform="matrix(1 0 0 1 943 43 )" />
  </g>
</svg>