<?xml version="1.0" encoding="utf-8"?>
<svg version="1.1" xmlns:xlink="http://www.w3.org/1999/xlink" width="10px" height="10px" xmlns="http://www.w3.org/2000/svg">
  <g transform="matrix(1 0 0 1 -945 -41 )">
    <path d="M 9.54838709677422 2.1328125  C 9.55241935483873 2.13671875  9.56048387096776 2.13671875  9.56854838709677 2.13671875  L 9.64919354838709 2.13671875  C 9.66532258064516 2.13671875  9.68145161290322 2.140625  9.7016129032258 2.140625  C 9.70967741935484 2.140625  9.71774193548387 2.14453125  9.7258064516129 2.14453125  L 9.78629032258064 2.15625  C 9.79032258064516 2.15625  9.79435483870968 2.15625  9.79838709677419 2.16015625  C 9.82258064516129 2.16796875  9.84677419354838 2.171875  9.86693548387097 2.1796875  C 9.875 2.18359375  9.87903225806451 2.18359375  9.88709677419355 2.1875  C 9.90322580645161 2.1953125  9.91935483870967 2.19921875  9.93548387096774 2.20703125  C 9.94758064516129 2.21484375  9.96370967741936 2.21875  9.9758064516129 2.2265625  L 6.29838709677419 0.289062500000001  C 6.29032258064516 0.28515625  6.27822580645161 0.277343750000001  6.27016129032258 0.273437500000002  C 6.26612903225806 0.273437500000002  6.26209677419354 0.269531250000001  6.25806451612903 0.269531250000001  C 6.24193548387097 0.261718750000002  6.2258064516129 0.253906250000002  6.20967741935483 0.250000000000001  C 6.2016129032258 0.24609375  6.19758064516129 0.24609375  6.18951612903225 0.242187500000002  C 6.16532258064516 0.234375000000002  6.14112903225806 0.226562500000003  6.12096774193548 0.222656250000002  C 6.11693548387096 0.222656250000002  6.11290322580644 0.222656250000002  6.10887096774193 0.218750000000001  L 6.04838709677419 0.20703125  C 6.04032258064515 0.20703125  6.03225806451612 0.203125  6.02419354838709 0.203125  C 6.00806451612903 0.199218749999999  5.99193548387096 0.199218749999999  5.97177419354838 0.199218749999999  L 5.86693548387096 0.199218749999999  C 5.84274193548386 0.199218749999999  5.81451612903226 0.203125  5.79032258064516 0.207031249999998  L 0.995967741935486 0.859375  C 0.975806451612905 0.863281250000001  0.951612903225807 0.8671875  0.931451612903227 0.87109375  C 0.92741935483871 0.87109375  0.91935483870968 0.875000000000001  0.915322580645163 0.875000000000001  C 0.895161290322583 0.878906250000002  0.879032258064519 0.882812500000001  0.858870967741938 0.890625  L 0.850806451612904 0.890625  C 0.830645161290323 0.8984375  0.810483870967743 0.902343750000001  0.790322580645162 0.91015625  C 0.786290322580645 0.91015625  0.778225806451616 0.914062500000001  0.774193548387099 0.914062500000001  C 0.758064516129035 0.921875000000001  0.741935483870971 0.925781250000002  0.721774193548391 0.933593750000001  C 0.717741935483874 0.933593750000001  0.717741935483874 0.933593750000001  0.713709677419357 0.937500000000002  L 0.70967741935484 0.937500000000002  L 0.637096774193551 0.972656250000001  C 0.633064516129034 0.976562500000002  0.629032258064517 0.976562500000002  0.625000000000005 0.980468750000001  C 0.600806451612907 0.992187500000001  0.580645161290326 1.0078125  0.560483870967746 1.01953125  L 0.556451612903229 1.0234375  C 0.552419354838712 1.0234375  0.552419354838712 1.02734375  0.548387096774195 1.02734375  L 0.499999999999999 1.0625  L 0.495967741935482 1.06640625  C 0.479838709677418 1.078125  0.463709677419355 1.09375  0.447580645161287 1.10546875  L 0.44354838709677 1.109375  L 0.435483870967736 1.1171875  C 0.423387096774189 1.12890625  0.411290322580638 1.13671875  0.399193548387091 1.1484375  L 0.387096774193545 1.16015625  L 0.342741935483866 1.203125  C 0.338709677419349 1.20703125000001  0.338709677419349 1.20703125000001  0.338709677419349 1.2109375  C 0.326612903225803 1.22265625  0.318548387096769 1.23437500000001  0.306451612903222 1.25  C 0.302419354838705 1.25390625000001  0.298387096774188 1.2578125  0.294354838709676 1.265625  C 0.282258064516129 1.27734375  0.274193548387095 1.29296875  0.262096774193548 1.3046875  C 0.262096774193548 1.30859375  0.258064516129031 1.30859375  0.258064516129031 1.3125  L 0.258064516129031 1.31640625  C 0.245967741935485 1.33203125  0.233870967741934 1.3515625  0.221774193548387 1.37109375  C 0.21774193548387 1.375  0.21774193548387 1.37890625  0.213709677419353 1.3828125  C 0.205645161290319 1.3984375  0.193548387096772 1.4140625  0.185483870967738 1.4296875  C 0.185483870967738 1.43359375  0.181451612903221 1.43359375  0.181451612903221 1.4375  L 0.181451612903221 1.44140625  C 0.169354838709675 1.46484375  0.157258064516124 1.484375  0.149193548387094 1.5078125  C 0.145161290322577 1.51171875  0.145161290322577 1.515625  0.14112903225806 1.51953125  C 0.129032258064513 1.54296875  0.120967741935479 1.56640625  0.112903225806445 1.58984375  L 0.112903225806445 1.59375  C 0.108870967741928 1.6015625  0.108870967741928 1.609375  0.104838709677411 1.61328125  C 0.100806451612894 1.62109375  0.100806451612894 1.62890625  0.096774193548377 1.63671875000001  C 0.09274193548386 1.64453125000001  0.09274193548386 1.65234375  0.0887096774193429 1.66406250000001  C 0.0846774193548259 1.671875  0.0846774193548259 1.6796875  0.0806451612903088 1.68750000000001  C 0.0766129032257918 1.69531250000001  0.0766129032257918 1.70312500000001  0.0725806451612747 1.71484375000001  C 0.0725806451612747 1.72265625000001  0.0685483870967577 1.73046875  0.0685483870967577 1.73828125000001  C 0.0645161290322406 1.74609375000001  0.0645161290322406 1.75781250000001  0.0645161290322406 1.76562500000001  C 0.0645161290322406 1.77343750000001  0.0604838709677236 1.78125000000001  0.0604838709677236 1.78906250000001  C 0.0604838709677236 1.79687500000001  0.0564516129032066 1.80859375000001  0.0564516129032066 1.81640625000001  C 0.0564516129032066 1.82421875000001  0.0524193548386895 1.83203125000001  0.0524193548386895 1.83593750000001  C 0.0524193548386895 1.84765625000001  0.0483870967741725 1.85546875000001  0.0483870967741725 1.86718750000001  C 0.0483870967741725 1.87500000000001  0.0483870967741725 1.87890625000001  0.0443548387096554 1.88671875000001  C 0.0443548387096554 1.89843750000001  0.0443548387096554 1.91015625000001  0.0403225806451384 1.92187500000001  L 0.0403225806451384 1.98828125  L 0.0322580645161043 7.00390625  C 0.0322580645161043 7.359375  0.209677419354813 7.6484375  0.475806451612878 7.7890625  L 4.15322580645161 9.7265625  C 3.88709677419355 9.5859375  3.70564516129032 9.296875  3.70967741935484 8.94140625  L 3.71774193548387 3.92578125  L 3.71774193548387 3.875  L 3.71774193548387 3.859375  C 3.71774193548387 3.84765625  3.71774193548387 3.8359375  3.72177419354839 3.82421875  C 3.72177419354839 3.81640625  3.72177419354839 3.8125  3.72580645161291 3.8046875  C 3.72580645161291 3.79296875  3.72983870967742 3.78515625  3.72983870967742 3.7734375  C 3.72983870967742 3.765625  3.73387096774194 3.7578125  3.73387096774194 3.75390625  C 3.73387096774194 3.74609375  3.73790322580646 3.734375  3.73790322580646 3.7265625  C 3.73790322580646 3.71875  3.74193548387098 3.7109375  3.74193548387098 3.703125  C 3.74193548387098 3.6953125  3.74596774193549 3.68359375  3.74596774193549 3.67578125  C 3.74596774193549 3.66796875  3.75000000000001 3.66015625  3.75000000000001 3.65234375  C 3.75403225806453 3.64453125  3.75403225806453 3.63671875  3.75806451612904 3.625  C 3.76209677419356 3.6171875  3.76209677419356 3.609375  3.76612903225808 3.6015625  C 3.77016129032259 3.59375  3.77016129032259 3.5859375  3.77419354838711 3.57421875  C 3.77822580645163 3.56640625  3.77822580645163 3.55859375  3.78225806451615 3.55078125  C 3.78629032258066 3.54296875  3.78629032258066 3.53515625  3.79032258064518 3.52734375  C 3.79838709677421 3.50390625  3.81048387096776 3.48046875  3.81854838709679 3.45703125  C 3.82258064516131 3.453125  3.82258064516131 3.44921875  3.82661290322583 3.4453125  C 3.83870967741938 3.421875  3.84677419354841 3.3984375  3.85887096774196 3.37890625  C 3.86290322580647 3.375  3.86290322580647 3.37109375  3.86693548387099 3.3671875  C 3.87500000000002 3.3515625  3.88306451612905 3.3359375  3.8951612903226 3.3203125  C 3.89919354838712 3.31640625  3.89919354838712 3.3125  3.90322580645164 3.30859375  C 3.91532258064519 3.2890625  3.92741935483874 3.2734375  3.93951612903228 3.25390625  C 3.9435483870968 3.25  3.9435483870968 3.24609375  3.94758064516132 3.2421875  C 3.95564516129035 3.23046875  3.9677419354839 3.21484375  3.97983870967744 3.203125  C 3.98387096774196 3.19921875  3.98790322580648 3.1953125  3.99193548387099 3.1875  C 4.00403225806454 3.17578125  4.01209677419357 3.16015625  4.02419354838712 3.1484375  C 4.02822580645163 3.14453125  4.02822580645163 3.140625  4.03225806451615 3.140625  C 4.0443548387097 3.125  4.06048387096777 3.109375  4.07661290322583 3.09765625  L 4.08870967741938 3.0859375  C 4.10080645161292 3.07421875  4.11290322580648 3.0625  4.12500000000002 3.0546875  L 4.13709677419357 3.04296875  C 4.15322580645163 3.02734375  4.16935483870969 3.015625  4.18548387096776 3  L 4.18951612903228 2.99609375  L 4.23790322580648 2.9609375  C 4.24193548387099 2.95703125  4.24596774193551 2.95703125  4.25000000000002 2.953125  C 4.2701612903226 2.9375  4.2943548387097 2.92578125  4.31451612903228 2.9140625  C 4.3185483870968 2.91015625  4.32258064516131 2.91015625  4.32661290322583 2.90625  C 4.35080645161293 2.89453125  4.37500000000002 2.8828125  4.3951612903226 2.87109375  C 4.39919354838712 2.87109375  4.40322580645164 2.8671875  4.40322580645164 2.8671875  C 4.4193548387097 2.859375  4.43548387096777 2.8515625  4.45564516129035 2.84765625  C 4.45967741935486 2.84375  4.46774193548389 2.84375  4.47177419354841 2.84375  C 4.49193548387099 2.8359375  4.51209677419357 2.828125  4.53225806451615 2.82421875  L 4.54032258064519 2.82421875  C 4.56048387096777 2.8203125  4.57661290322583 2.8125  4.59677419354841 2.80859375  C 4.60080645161293 2.80859375  4.60887096774196 2.8046875  4.61290322580647 2.8046875  C 4.63306451612905 2.80078125  4.65322580645163 2.796875  4.67741935483873 2.79296875  L 9.47177419354841 2.140625  C 9.50000000000002 2.13671875  9.52419354838712 2.13671875  9.54838709677422 2.1328125  Z " fill-rule="nonzero" fill="#d30032" stroke="none" transform="matrix(1 0 0 1 945 41 )" />
  </g>
</svg>