<?xml version="1.0" encoding="utf-8"?>
<svg version="1.1" xmlns:xlink="http://www.w3.org/1999/xlink" width="10px" height="10px" xmlns="http://www.w3.org/2000/svg">
  <g transform="matrix(1 0 0 1 -939 -42 )">
    <path d="M 9.30859375 2.109375  C 9.31640625 2.11328125  9.32421875 2.11328125  9.33203125 2.11328125  L 9.41015625 2.11328125  C 9.42578125 2.11328125  9.44140625 2.1171875  9.4609375 2.1171875  C 9.46875 2.1171875  9.4765625 2.12109375  9.484375 2.12109375  L 9.54296875 2.1328125  C 9.546875 2.1328125  9.55078125 2.1328125  9.5546875 2.13671875  C 9.578125 2.14453125  9.6015625 2.1484375  9.62109375 2.15625  C 9.62890625 2.16015625  9.6328125 2.16015625  9.640625 2.1640625  C 9.65625 2.171875  9.671875 2.17578125  9.6875 2.18359375  C 9.69921875 2.19140625  9.71484375 2.1953125  9.7265625 2.203125  L 6.1640625 0.265625000000003  C 6.15625 0.261718750000002  6.14453125 0.253906250000002  6.13671875 0.250000000000004  C 6.1328125 0.250000000000004  6.12890624999999 0.246093750000003  6.125 0.246093750000003  C 6.109375 0.238281250000003  6.09375 0.230468750000004  6.078125 0.226562500000003  C 6.07031249999999 0.222656250000002  6.06640625 0.222656250000002  6.05859375 0.218750000000003  C 6.03515625 0.210937500000004  6.01171874999999 0.203125000000004  5.99218749999999 0.199218750000003  C 5.98828124999999 0.199218750000003  5.98437499999999 0.199218750000003  5.98046875 0.195312500000002  L 5.921875 0.183593750000002  C 5.91406249999999 0.183593750000002  5.90625 0.179687500000001  5.8984375 0.179687500000001  C 5.8828125 0.17578125  5.8671875 0.17578125  5.84765625 0.17578125  L 5.74609375 0.17578125  C 5.72265625 0.17578125  5.6953125 0.179687500000001  5.671875 0.18359375  L 1.02734375 0.835937499999999  C 0.999999999999999 0.83984375  0.976562499999998 0.843749999999999  0.949218749999998 0.851562499999998  C 0.941406249999999 0.851562499999998  0.933593749999999 0.855468749999999  0.925781249999997 0.859374999999998  C 0.910156249999998 0.863281249999999  0.890624999999998 0.867187499999997  0.874999999999997 0.874999999999997  C 0.867187499999997 0.878906249999998  0.855468749999997 0.882812499999996  0.847656249999997 0.882812499999996  C 0.832031249999998 0.886718749999997  0.816406249999997 0.894531249999997  0.800781249999998 0.898437499999996  C 0.792968749999998 0.902343749999996  0.781249999999998 0.906249999999995  0.773437499999998 0.910156249999996  C 0.769531249999997 0.914062499999997  0.761718749999998 0.914062499999997  0.757812499999999 0.917968749999996  L 0.734374999999998 0.929687499999996  C 0.722656249999998 0.937499999999996  0.707031249999999 0.941406249999996  0.695312499999998 0.949218749999996  C 0.683593749999998 0.957031249999996  0.671874999999997 0.960937499999996  0.660156249999999 0.968749999999996  C 0.648437499999999 0.976562499999996  0.636718749999998 0.984374999999995  0.621093749999999 0.992187499999997  C 0.617187499999998 0.996093749999998  0.609374999999999 0.999999999999996  0.60546875 1.00390625  C 0.59765625 1.0078125  0.589843750000001 1.015625  0.582031249999999 1.01953125  C 0.57421875 1.0234375  0.56640625 1.03125  0.558593749999998 1.0390625  C 0.542968749999999 1.05078125  0.531249999999999 1.0625  0.515624999999997 1.07421875  C 0.507812499999998 1.078125  0.503906249999997 1.0859375  0.496093749999997 1.08984374999999  L 0.492187499999996 1.09375  C 0.476562499999997 1.10937499999999  0.457031249999997 1.125  0.441406249999996 1.140625  C 0.437499999999995 1.14453125  0.437499999999995 1.14843749999999  0.433593749999996 1.14843749999999  C 0.421874999999996 1.16015625  0.410156249999996 1.17578124999999  0.398437499999997 1.18749999999999  C 0.394531249999996 1.19140625  0.394531249999996 1.19531249999999  0.390624999999998 1.19921875  C 0.386718749999997 1.20703124999999  0.378906249999997 1.2109375  0.374999999999999 1.21875  C 0.363281249999998 1.23437499999999  0.351562499999998 1.24609374999999  0.33984375 1.26171875  C 0.335937499999999 1.26953125  0.328124999999999 1.27734375  0.32421875 1.28125  C 0.3203125 1.28515625  0.316406250000001 1.2890625  0.316406250000001 1.29296875  L 0.29296875 1.328125  C 0.289062499999999 1.3359375  0.28515625 1.34374999999999  0.277343750000001 1.34765625  C 0.261718750000002 1.37109375  0.250000000000001 1.39453125  0.238281250000001 1.41796875  C 0.234375 1.42578125  0.230468750000001 1.4375  0.2265625 1.4453125  C 0.218750000000001 1.46093749999999  0.210937500000001 1.48046874999999  0.203125 1.49609375  C 0.199218749999999 1.5078125  0.1953125 1.51953125  0.191406249999999 1.52734375  C 0.18359375 1.54296875  0.179687499999999 1.55859375  0.171874999999999 1.57421875  C 0.1640625 1.59375  0.160156249999999 1.609375  0.152343749999999 1.62890625  C 0.148437499999998 1.63671874999999  0.14453125 1.6484375  0.14453125 1.65624999999999  C 0.13671875 1.68359374999999  0.12890625 1.71484374999999  0.125 1.74218749999999  C 0.109375 1.81249999999999  0.101562499999999 1.88671874999999  0.101562499999999 1.9609375  L 0.0937499999999991 6.9765625  C 0.0937499999999991 7.05078125  0.101562499999999 7.12109375  0.113281249999999 7.1875  C 0.167968749999998 7.4453125  0.316406249999999 7.64843749999999  0.523437499999999 7.76171875  L 4.0859375 9.69921875  C 3.87890625 9.5859375  3.73046875 9.3828125  3.67578125 9.125  C 3.66015625 9.05859374999999  3.65625 8.98828125  3.65625 8.9140625  L 3.6640625 3.8984375  C 3.6640625 3.82421875  3.671875 3.75  3.6875 3.6796875  C 3.69140625 3.65234375  3.69921875 3.62109375  3.70703125 3.59375  C 3.7109375 3.58593749999999  3.71484375000001 3.57421875  3.71484375000001 3.56640624999999  C 3.71875000000001 3.54687499999999  3.7265625 3.52734374999999  3.73437500000001 3.51171874999999  C 3.74218750000001 3.49609375  3.74609375 3.48046875  3.75390625000001 3.46484374999999  C 3.75781250000001 3.45312499999999  3.76171875000001 3.44140624999999  3.765625 3.43359374999999  C 3.77343750000001 3.41796875  3.78125 3.3984375  3.7890625 3.3828125  C 3.79296875000001 3.37499999999999  3.79687500000001 3.36328125  3.80078125 3.35546874999999  C 3.8125 3.33203124999999  3.828125 3.30859374999999  3.83984375 3.28515625  C 3.84375 3.27734374999999  3.84765625 3.26953125  3.85546875 3.265625  C 3.8671875 3.25  3.875 3.234375  3.88671875 3.21874999999999  C 3.890625 3.21093749999999  3.8984375 3.203125  3.90234375 3.19921874999999  C 3.9140625 3.18359375  3.92578125 3.17187499999999  3.9375 3.15624999999999  C 3.94140625 3.14843749999999  3.94921875 3.14453125  3.953125 3.13671874999999  C 3.96875 3.12109374999999  3.984375 3.10546874999999  3.99609375 3.08593749999999  C 4 3.08203124999999  4 3.07812499999999  4.00390625 3.07812499999999  L 4.05859375 3.02343749999999  C 4.06640625 3.01953124999999  4.0703125 3.01171874999999  4.078125 3.0078125  C 4.08984375 2.99609375  4.10546875 2.98437499999999  4.12109375 2.97265625  C 4.12890625 2.96484375  4.13671875 2.9609375  4.14453125 2.953125  C 4.15625 2.9453125  4.16796875 2.93359375  4.18359375 2.92578125  C 4.1953125 2.91796875  4.20703125 2.91015625  4.22265625 2.90234375  C 4.234375 2.89453125  4.24609375 2.88671875  4.2578125 2.8828125  C 4.26953125 2.875  4.28515625 2.8671875  4.296875 2.86328125  C 4.30859375 2.85546875  4.32421875 2.8515625  4.3359375 2.84375  C 4.34375 2.83984375  4.35546875 2.8359375  4.36328125 2.83203125  C 4.37890625 2.82421875  4.39453125 2.8203125  4.41015625 2.81640625  C 4.41796875000001 2.8125  4.4296875 2.80859375  4.43750000000001 2.80859375  C 4.453125 2.8046875  4.47265625 2.796875  4.48828125 2.79296875  C 4.49609375000001 2.7890625  4.50390625 2.7890625  4.51171875 2.78515625  C 4.53515625000001 2.78125  4.5625 2.7734375  4.58984375 2.76953125  L 9.234375 2.1171875  C 9.26171875000001 2.11328125  9.28515625 2.11328125  9.30859375 2.109375  Z " fill-rule="nonzero" fill="#d30032" stroke="none" transform="matrix(1 0 0 1 939 42 )" />
  </g>
</svg>