<?xml version="1.0" encoding="utf-8"?>
<svg version="1.1" xmlns:xlink="http://www.w3.org/1999/xlink" width="7px" height="7px" xmlns="http://www.w3.org/2000/svg">
  <g transform="matrix(1 0 0 1 -942 -36 )">
    <path d="M 1.18522727272728 0.685999999999999  L 5.91420454545455 0.0980000000000004  C 6.43125 0.035  6.85681818181819 0.385  6.85681818181819 0.878500000000001  L 6.84886363636364 5.369  C 6.84886363636364 5.8625  6.42329545454545 6.3175  5.90625 6.3805  L 1.17329545454545 6.965  C 0.723863636363638 7.021  0.346022727272729 6.7655  0.254545454545454 6.377  C 0.238636363636364 6.3175  0.230681818181816 6.251  0.230681818181816 6.188  L 0.238636363636364 1.6975  C 0.238636363636364 1.631  0.246590909090911 1.5645  0.262500000000001 1.5015  C 0.357954545454545 1.0885  0.735795454545455 0.742  1.18522727272728 0.685999999999999  Z " fill-rule="nonzero" fill="#fdf17f" stroke="none" transform="matrix(1 0 0 1 942 36 )" />
  </g>
</svg>