<?xml version="1.0" encoding="utf-8"?>
<svg version="1.1" xmlns:xlink="http://www.w3.org/1999/xlink" width="10px" height="10px" xmlns="http://www.w3.org/2000/svg">
  <g transform="matrix(1 0 0 1 -949 -51 )">
    <path d="M 9.73437499999999 2.15322580645161  L 6.1640625 0.157258064516128  C 6.01953125 0.0766129032258055  5.8515625 0.0443548387096783  5.671875 0.0685483870967714  L 1.02734375 0.741935483870967  C 1.0078125 0.745967741935484  0.984374999999997 0.750000000000001  0.964843749999997 0.754032258064513  C 0.960937499999996 0.754032258064513  0.953124999999999 0.75806451612903  0.949218749999998 0.75806451612903  C 0.929687499999998 0.762096774193547  0.914062499999999 0.766129032258065  0.894531249999999 0.774193548387094  L 0.886718749999997 0.774193548387094  C 0.867187499999997 0.782258064516128  0.847656249999997 0.786290322580641  0.828124999999997 0.794354838709675  C 0.824218749999996 0.794354838709675  0.816406249999999 0.798387096774192  0.812499999999998 0.798387096774192  C 0.796874999999999 0.806451612903226  0.78125 0.810483870967738  0.76171875 0.818548387096772  C 0.757812499999999 0.818548387096772  0.757812499999999 0.818548387096772  0.753906249999998 0.822580645161289  L 0.749999999999997 0.822580645161289  C 0.726562499999996 0.834677419354836  0.703124999999996 0.846774193548387  0.683593749999996 0.858870967741934  C 0.679687499999995 0.862903225806451  0.675781249999994 0.862903225806451  0.671874999999997 0.866935483870968  C 0.648437499999996 0.879032258064514  0.628906249999996 0.895161290322583  0.609374999999996 0.907258064516129  L 0.605468749999996 0.911290322580646  C 0.601562499999995 0.911290322580646  0.601562499999995 0.915322580645163  0.597656249999994 0.915322580645163  L 0.550781249999992 0.951612903225807  L 0.546874999999991 0.955645161290324  C 0.531249999999992 0.967741935483871  0.515624999999993 0.983870967741939  0.499999999999989 0.995967741935486  L 0.496093749999988 1  L 0.488281249999987 1.00806451612904  C 0.476562499999988 1.02016129032258  0.464843749999986 1.02822580645162  0.453124999999988 1.04032258064516  L 0.441406249999989 1.05241935483871  L 0.398437499999988 1.09677419354839  C 0.394531249999988 1.10080645161291  0.394531249999988 1.10080645161291  0.394531249999988 1.10483870967742  C 0.382812499999989 1.11693548387097  0.371093749999987 1.12903225806452  0.363281249999989 1.14516129032258  C 0.359374999999988 1.1491935483871  0.355468749999988 1.15322580645162  0.351562499999991 1.16129032258065  C 0.339843749999993 1.17338709677419  0.332031249999991 1.18951612903226  0.320312499999993 1.20161290322581  C 0.320312499999993 1.20564516129033  0.316406249999992 1.20564516129033  0.316406249999992 1.20967741935484  L 0.316406249999992 1.21370967741936  C 0.304687499999994 1.22983870967742  0.292968749999991 1.25  0.281249999999993 1.27016129032259  C 0.277343749999992 1.2741935483871  0.277343749999992 1.27822580645162  0.273437499999991 1.28225806451613  C 0.265624999999989 1.2983870967742  0.253906249999991 1.31451612903226  0.246093749999989 1.33064516129033  C 0.246093749999989 1.33467741935484  0.242187499999988 1.33467741935484  0.242187499999988 1.33870967741936  L 0.242187499999988 1.34274193548388  C 0.23046874999999 1.36693548387098  0.218749999999988 1.38709677419356  0.21093749999999 1.41129032258065  C 0.207031249999989 1.41532258064517  0.207031249999989 1.41935483870969  0.203124999999988 1.4233870967742  C 0.19140624999999 1.4475806451613  0.183593749999988 1.4717741935484  0.175781249999987 1.49596774193549  L 0.175781249999987 1.50000000000001  C 0.171874999999986 1.50806451612904  0.171874999999986 1.51612903225807  0.167968749999985 1.52016129032259  C 0.164062499999984 1.52822580645162  0.164062499999984 1.53629032258065  0.160156249999983 1.54435483870968  C 0.156249999999982 1.55241935483872  0.156249999999982 1.56048387096775  0.152343749999981 1.5725806451613  C 0.14843749999998 1.58064516129033  0.14843749999998 1.58870967741936  0.14453124999998 1.5967741935484  C 0.140624999999979 1.60483870967743  0.140624999999979 1.61290322580646  0.136718749999978 1.62500000000001  C 0.136718749999978 1.63306451612905  0.132812499999977 1.64112903225808  0.132812499999977 1.64919354838711  C 0.128906249999976 1.65725806451614  0.128906249999976 1.66935483870969  0.128906249999976 1.67741935483872  C 0.128906249999976 1.68548387096776  0.124999999999975 1.69354838709679  0.124999999999975 1.70161290322582  C 0.124999999999975 1.70967741935486  0.121093749999974 1.7217741935484  0.121093749999974 1.72983870967744  C 0.121093749999974 1.73790322580647  0.117187499999973 1.7459677419355  0.117187499999973 1.75403225806453  C 0.117187499999973 1.76612903225808  0.113281249999972 1.77419354838712  0.113281249999972 1.78629032258066  C 0.113281249999972 1.7943548387097  0.113281249999972 1.79838709677421  0.109374999999972 1.80645161290324  C 0.109374999999972 1.81854838709679  0.109374999999972 1.83064516129034  0.105468749999971 1.84274193548389  L 0.105468749999971 1.91129032258064  L 0.0976562499999689 7.08467741935484  C 0.0976562499999689 7.29032258064516  0.152343749999968 7.47580645161291  0.246093749999967 7.62096774193548  C 0.265624999999967 7.65322580645161  0.289062499999968 7.68548387096774  0.312499999999969 7.71370967741935  C 0.33593749999997 7.74193548387096  0.363281249999967 7.77016129032258  0.390624999999969 7.79435483870968  C 0.43359374999997 7.83064516129032  0.476562499999971 7.86290322580645  0.527343749999969 7.89112903225806  L 4.08984374999997 9.89112903225806  C 3.83203124999997 9.74596774193548  3.65624999999997 9.44758064516129  3.66015624999997 9.08064516129032  L 3.66796874999997 3.90725806451612  L 3.66796874999997 3.85483870967742  L 3.66796874999997 3.83870967741935  C 3.66796874999997 3.82661290322581  3.66796874999997 3.81451612903225  3.67187499999997 3.80241935483871  C 3.67187499999997 3.79435483870967  3.67187499999997 3.79032258064516  3.67578124999997 3.78225806451613  C 3.67578124999997 3.77016129032258  3.67968749999998 3.76209677419355  3.67968749999998 3.75  C 3.67968749999998 3.74193548387097  3.68359374999998 3.73387096774194  3.68359374999998 3.7258064516129  C 3.68359374999998 3.71774193548387  3.68749999999998 3.70564516129032  3.68749999999998 3.69758064516129  C 3.68749999999998 3.68951612903225  3.69140624999998 3.68145161290322  3.69140624999998 3.67338709677419  C 3.69140624999998 3.66532258064516  3.69531249999998 3.65322580645161  3.69531249999998 3.64516129032257  C 3.69531249999998 3.63709677419354  3.69921874999998 3.62903225806451  3.69921874999998 3.62096774193548  C 3.70312499999998 3.61290322580644  3.70312499999998 3.6008064516129  3.70703124999998 3.59274193548386  C 3.71093749999998 3.58467741935483  3.71093749999998 3.5766129032258  3.71484374999998 3.56854838709677  C 3.71874999999998 3.56048387096773  3.71874999999998 3.5524193548387  3.72265624999998 3.54032258064515  C 3.72656249999999 3.53225806451612  3.72656249999999 3.52419354838709  3.73046874999999 3.51612903225805  C 3.73437499999999 3.50806451612902  3.73437499999999 3.49999999999999  3.73828124999999 3.49193548387095  C 3.74609374999999 3.46774193548386  3.75781249999999 3.44354838709676  3.76562499999999 3.41935483870967  C 3.76953124999999 3.41532258064515  3.76953124999999 3.41129032258063  3.77343749999999 3.40725806451612  C 3.78515624999999 3.38306451612902  3.79296874999999 3.36290322580644  3.80468749999999 3.33870967741934  C 3.80859374999999 3.33467741935483  3.80859374999999 3.33064516129031  3.81249999999999 3.3266129032258  C 3.82031249999999 3.31048387096773  3.82812499999999 3.29435483870967  3.83984374999999 3.2782258064516  C 3.84374999999999 3.27419354838709  3.84374999999999 3.27016129032257  3.84765625 3.26612903225806  C 3.85937499999999 3.24596774193548  3.87109375 3.22983870967741  3.88281249999999 3.20967741935483  C 3.88671875 3.20564516129031  3.88671875 3.2016129032258  3.890625 3.19758064516128  C 3.8984375 3.18548387096774  3.91015625 3.16935483870967  3.92187499999999 3.15725806451612  C 3.92578125 3.15322580645161  3.9296875 3.14919354838709  3.93359374999999 3.14112903225806  C 3.94531249999999 3.12903225806451  3.95312499999999 3.11290322580644  3.96484374999999 3.1008064516129  C 3.96874999999999 3.09677419354838  3.96874999999999 3.09274193548386  3.97265624999999 3.09274193548386  C 3.98437499999999 3.0766129032258  3.99999999999999 3.06048387096774  4.01562499999999 3.04838709677419  L 4.02734374999999 3.03629032258064  C 4.03906249999999 3.02419354838709  4.05078124999999 3.01209677419354  4.06249999999999 3.00403225806451  L 4.07421874999999 2.99193548387096  C 4.08984374999999 2.9758064516129  4.10546874999999 2.96370967741935  4.12109374999999 2.9516129032258  L 4.12499999999999 2.94758064516129  L 4.17187499999999 2.91129032258064  C 4.17578124999999 2.90725806451613  4.1796875 2.90725806451613  4.18359374999999 2.90322580645161  C 4.20312499999999 2.88709677419354  4.22656249999999 2.87499999999999  4.24609374999999 2.86290322580645  C 4.24999999999999 2.85887096774193  4.25390624999999 2.85887096774193  4.25781249999999 2.85483870967741  C 4.28124999999999 2.84274193548387  4.30468749999999 2.83064516129032  4.32421874999999 2.81854838709677  C 4.32812499999999 2.81854838709677  4.33203124999999 2.81451612903225  4.33203124999999 2.81451612903225  C 4.34765624999999 2.80645161290322  4.36328124999999 2.79838709677419  4.38281249999999 2.79435483870967  C 4.38671874999999 2.79032258064515  4.39453124999999 2.79032258064515  4.39843749999999 2.79032258064515  C 4.41796874999999 2.78225806451612  4.43749999999999 2.77419354838709  4.45703124999999 2.77016129032257  L 4.46484374999999 2.77016129032257  C 4.48437499999999 2.76612903225806  4.49999999999999 2.75806451612903  4.51953124999999 2.75403225806451  C 4.52343749999999 2.75403225806451  4.53124999999999 2.74999999999999  4.53515624999999 2.74999999999999  C 4.55468749999999 2.74596774193548  4.57421874999999 2.74193548387096  4.59765624999999 2.73790322580645  L 9.24218749999999 2.06451612903225  C 9.42187499999999 2.03629032258064  9.59374999999999 2.07258064516128  9.73437499999999 2.15322580645161  Z " fill-rule="nonzero" fill="#00a4ff" stroke="none" transform="matrix(1 0 0 1 949 51 )" />
  </g>
</svg>