<?xml version="1.0" encoding="utf-8"?>
<svg version="1.1" xmlns:xlink="http://www.w3.org/1999/xlink" width="10px" height="10px" xmlns="http://www.w3.org/2000/svg">
  <g transform="matrix(1 0 0 1 -945 -33 )">
    <path d="M 9.55645161290322 2.06854838709677  C 9.56451612903226 2.06451612903226  9.57258064516128 2.06451612903226  9.58064516129032 2.06451612903226  L 9.66129032258065 2.06451612903226  C 9.67741935483871 2.06451612903226  9.69354838709677 2.06854838709677  9.71370967741935 2.06854838709677  C 9.72177419354839 2.06854838709677  9.72983870967742 2.07258064516129  9.73790322580645 2.07258064516129  L 9.79838709677419 2.08467741935484  C 9.80241935483871 2.08467741935484  9.80645161290323 2.08467741935484  9.81048387096774 2.08870967741936  C 9.83467741935484 2.09677419354839  9.85887096774194 2.10080645161291  9.87903225806452 2.10887096774194  C 9.88709677419355 2.11290322580646  9.89112903225806 2.11290322580646  9.8991935483871 2.11693548387097  C 9.91532258064516 2.125  9.93145161290322 2.12903225806452  9.94758064516129 2.13709677419355  C 9.95967741935484 2.14516129032258  9.97580645161291 2.1491935483871  9.98790322580645 2.15725806451613  L 6.31048387096774 0.161290322580645  C 6.30241935483871 0.157258064516129  6.29032258064516 0.149193548387096  6.28225806451613 0.14516129032258  C 6.27822580645161 0.14516129032258  6.27419354838709 0.141129032258065  6.27016129032258 0.141129032258065  C 6.25403225806452 0.133064516129033  6.23790322580645 0.125  6.22177419354839 0.120967741935484  C 6.21370967741935 0.116935483870968  6.20967741935484 0.116935483870968  6.20161290322581 0.112903225806452  C 6.17741935483871 0.10483870967742  6.15322580645161 0.0967741935483873  6.13306451612903 0.0927419354838714  C 6.12903225806451 0.0927419354838714  6.12499999999999 0.0927419354838714  6.12096774193548 0.0887096774193555  L 6.06048387096774 0.0766129032258067  C 6.05241935483871 0.0766129032258067  6.04435483870968 0.0725806451612908  6.03629032258064 0.0725806451612908  C 6.02016129032258 0.0685483870967749  6.00403225806452 0.0685483870967749  5.98387096774193 0.0685483870967749  L 5.87903225806451 0.0685483870967749  C 5.85483870967742 0.0685483870967749  5.82661290322581 0.0725806451612908  5.80241935483871 0.0766129032258067  L 1.00806451612903 0.745967741935484  C 0.987903225806452 0.75  0.963709677419354 0.754032258064516  0.943548387096773 0.758064516129033  C 0.939516129032256 0.758064516129033  0.931451612903227 0.762096774193549  0.92741935483871 0.762096774193549  C 0.907258064516129 0.766129032258065  0.891129032258066 0.770161290322581  0.870967741935485 0.778225806451613  L 0.862903225806451 0.778225806451613  C 0.84274193548387 0.786290322580645  0.822580645161289 0.790322580645162  0.802419354838709 0.798387096774194  C 0.798387096774192 0.798387096774194  0.790322580645162 0.80241935483871  0.786290322580645 0.80241935483871  C 0.770161290322582 0.810483870967742  0.754032258064518 0.814516129032259  0.733870967741937 0.822580645161291  C 0.72983870967742 0.822580645161291  0.72983870967742 0.822580645161291  0.725806451612903 0.826612903225806  L 0.721774193548386 0.826612903225806  C 0.697580645161288 0.838709677419355  0.673387096774191 0.850806451612903  0.65322580645161 0.862903225806452  C 0.649193548387093 0.866935483870968  0.645161290322576 0.866935483870968  0.641129032258064 0.870967741935484  C 0.616935483870966 0.883064516129032  0.596774193548385 0.899193548387096  0.576612903225805 0.911290322580645  L 0.572580645161288 0.915322580645161  C 0.56854838709677 0.915322580645161  0.56854838709677 0.919354838709677  0.564516129032253 0.919354838709677  L 0.516129032258058 0.955645161290322  L 0.512096774193541 0.959677419354838  C 0.495967741935477 0.971774193548386  0.479838709677414 0.987903225806452  0.463709677419346 0.999999999999998  L 0.459677419354829 1.00403225806452  L 0.451612903225795 1.01209677419355  C 0.439516129032248 1.0241935483871  0.427419354838697 1.03225806451613  0.41532258064515 1.04435483870968  L 0.403225806451604 1.05645161290323  L 0.358870967741925 1.1008064516129  C 0.354838709677408 1.10483870967742  0.354838709677408 1.10483870967742  0.354838709677408 1.10887096774194  C 0.342741935483862 1.12096774193548  0.330645161290311 1.13306451612903  0.322580645161281 1.1491935483871  C 0.318548387096764 1.15322580645161  0.314516129032247 1.15725806451613  0.310483870967735 1.16532258064516  C 0.298387096774188 1.17741935483871  0.290322580645154 1.19354838709677  0.278225806451607 1.20564516129032  C 0.278225806451607 1.20967741935484  0.27419354838709 1.20967741935484  0.27419354838709 1.21370967741935  L 0.27419354838709 1.21774193548387  C 0.262096774193544 1.23387096774193  0.249999999999993 1.25403225806451  0.237903225806446 1.2741935483871  C 0.233870967741929 1.27822580645161  0.233870967741929 1.28225806451613  0.229838709677412 1.28629032258064  C 0.221774193548378 1.30241935483871  0.209677419354831 1.31854838709677  0.201612903225797 1.33467741935484  C 0.201612903225797 1.33870967741935  0.19758064516128 1.33870967741935  0.19758064516128 1.34274193548387  L 0.19758064516128 1.34677419354839  C 0.185483870967734 1.37096774193548  0.173387096774183 1.39112903225806  0.165322580645153 1.41532258064516  C 0.161290322580636 1.41935483870968  0.161290322580636 1.42338709677419  0.157258064516119 1.42741935483871  C 0.145161290322572 1.45161290322581  0.137096774193538 1.4758064516129  0.129032258064504 1.5  L 0.129032258064504 1.50403225806452  C 0.124999999999987 1.51209677419355  0.124999999999987 1.52016129032258  0.12096774193547 1.52822580645161  C 0.116935483870953 1.53629032258065  0.116935483870953 1.54435483870968  0.112903225806436 1.55241935483871  C 0.108870967741919 1.56048387096774  0.108870967741919 1.56854838709678  0.104838709677402 1.58064516129032  C 0.100806451612885 1.58870967741936  0.100806451612885 1.59677419354839  0.0967741935483678 1.60483870967742  C 0.0927419354838508 1.61290322580645  0.0927419354838508 1.625  0.0887096774193337 1.63306451612903  C 0.0887096774193337 1.64112903225807  0.0846774193548167 1.6491935483871  0.0846774193548167 1.65725806451613  C 0.0806451612902997 1.66532258064516  0.0806451612902997 1.67741935483871  0.0806451612902997 1.68548387096774  C 0.0806451612902997 1.69354838709678  0.0766129032257826 1.70161290322581  0.0766129032257826 1.70967741935484  C 0.0766129032257826 1.71774193548387  0.0725806451612656 1.72983870967742  0.0725806451612656 1.73790322580645  C 0.0725806451612656 1.74596774193549  0.0685483870967485 1.75403225806452  0.0685483870967485 1.75806451612904  C 0.0685483870967485 1.77016129032258  0.0645161290322315 1.77822580645162  0.0645161290322315 1.79032258064517  C 0.0645161290322315 1.7983870967742  0.0645161290322315 1.80241935483871  0.0604838709677144 1.81048387096775  C 0.0604838709677144 1.82258064516129  0.0604838709677144 1.83467741935484  0.0564516129031974 1.84677419354839  L 0.0564516129031974 1.91532258064516  L 0.0403225806451338 7.08870967741936  C 0.0403225806451338 7.45564516129032  0.217741935483843 7.75403225806452  0.483870967741908 7.8991935483871  L 4.16129032258062 9.8991935483871  C 3.89516129032255 9.75403225806452  3.71370967741933 9.45564516129032  3.71774193548385 9.08870967741936  L 3.72580645161288 3.91532258064516  L 3.72580645161288 3.86290322580645  L 3.72580645161288 3.84677419354839  C 3.72580645161288 3.83467741935484  3.72580645161288 3.82258064516129  3.7298387096774 3.81048387096774  C 3.7298387096774 3.80241935483871  3.7298387096774 3.7983870967742  3.73387096774191 3.79032258064516  C 3.73387096774191 3.77822580645161  3.73790322580643 3.77016129032258  3.73790322580643 3.75806451612903  C 3.73790322580643 3.75  3.74193548387095 3.74193548387097  3.74193548387095 3.73790322580645  C 3.74193548387095 3.72983870967742  3.74596774193546 3.71774193548387  3.74596774193546 3.70967741935484  C 3.74596774193546 3.70161290322581  3.74999999999998 3.69354838709678  3.74999999999998 3.68548387096774  C 3.74999999999998 3.67741935483871  3.7540322580645 3.66532258064516  3.7540322580645 3.65725806451613  C 3.7540322580645 3.6491935483871  3.75806451612902 3.64112903225807  3.75806451612902 3.63306451612903  C 3.76209677419353 3.625  3.76209677419353 3.61290322580645  3.76612903225805 3.60483870967742  C 3.77016129032257 3.59677419354839  3.77016129032257 3.58870967741936  3.77419354838708 3.58064516129032  C 3.7782258064516 3.57258064516129  3.7782258064516 3.56451612903226  3.78225806451612 3.55241935483871  C 3.78629032258063 3.54435483870968  3.78629032258063 3.53629032258065  3.79032258064515 3.52822580645161  C 3.79435483870967 3.52016129032258  3.79435483870967 3.51209677419355  3.79838709677419 3.50403225806452  C 3.80645161290322 3.47983870967742  3.81854838709677 3.45564516129032  3.8266129032258 3.43145161290322  C 3.83064516129032 3.42741935483871  3.83064516129032 3.42338709677419  3.83467741935484 3.41935483870968  C 3.84677419354838 3.39516129032258  3.85483870967742 3.37096774193548  3.86693548387096 3.3508064516129  C 3.87096774193548 3.34677419354838  3.87096774193548 3.34274193548387  3.875 3.33870967741935  C 3.88306451612903 3.32258064516129  3.89112903225806 3.30645161290322  3.90322580645161 3.29032258064516  C 3.90725806451613 3.28629032258064  3.90725806451613 3.28225806451613  3.91129032258065 3.27822580645161  C 3.92338709677419 3.25806451612903  3.93548387096774 3.24193548387097  3.94758064516129 3.22177419354839  C 3.95161290322581 3.21774193548387  3.95161290322581 3.21370967741935  3.95564516129032 3.20967741935484  C 3.96370967741936 3.19758064516129  3.9758064516129 3.18145161290323  3.98790322580645 3.16935483870968  C 3.99193548387097 3.16532258064516  3.99596774193548 3.16129032258064  4 3.15322580645161  C 4.01209677419354 3.14112903225806  4.02016129032258 3.125  4.03225806451612 3.11290322580645  C 4.03629032258064 3.10887096774193  4.03629032258064 3.10483870967742  4.04032258064516 3.10483870967742  C 4.0524193548387 3.08870967741936  4.06854838709677 3.07258064516129  4.08467741935484 3.06048387096774  L 4.09677419354838 3.04838709677419  C 4.10887096774193 3.03629032258064  4.12096774193548 3.02419354838709  4.13306451612903 3.01612903225806  L 4.14516129032257 3.00403225806451  C 4.16129032258064 2.98790322580645  4.1774193548387 2.9758064516129  4.19354838709677 2.96370967741935  L 4.19758064516129 2.95967741935484  L 4.24596774193548 2.92338709677419  C 4.25 2.91935483870967  4.25403225806452 2.91935483870967  4.25806451612903 2.91532258064516  C 4.27822580645161 2.8991935483871  4.30241935483871 2.88709677419355  4.32258064516129 2.875  C 4.3266129032258 2.87096774193548  4.33064516129032 2.87096774193548  4.33467741935483 2.86693548387097  C 4.35887096774193 2.85483870967742  4.38306451612903 2.84274193548387  4.40322580645161 2.83064516129032  C 4.40725806451613 2.83064516129032  4.41129032258064 2.82661290322581  4.41129032258064 2.82661290322581  C 4.42741935483871 2.81854838709677  4.44354838709677 2.81048387096774  4.46370967741935 2.80645161290322  C 4.46774193548387 2.80241935483871  4.4758064516129 2.80241935483871  4.47983870967742 2.80241935483871  C 4.5 2.79435483870968  4.52016129032258 2.78629032258064  4.54032258064516 2.78225806451613  L 4.54838709677419 2.78225806451613  C 4.56854838709677 2.77822580645161  4.58467741935484 2.77016129032258  4.60483870967742 2.76612903225806  C 4.60887096774193 2.76612903225806  4.61693548387096 2.76209677419355  4.62096774193548 2.76209677419355  C 4.64112903225806 2.75806451612903  4.66129032258064 2.75403225806451  4.68548387096774 2.75  L 9.47983870967742 2.0766129032258  C 9.50806451612903 2.07258064516129  9.53225806451612 2.07258064516129  9.55645161290322 2.06854838709677  Z " fill-rule="nonzero" fill="#d30032" stroke="none" transform="matrix(1 0 0 1 945 33 )" />
  </g>
</svg>