<?xml version="1.0" encoding="utf-8"?>
<svg version="1.1" xmlns:xlink="http://www.w3.org/1999/xlink" width="10px" height="10px" xmlns="http://www.w3.org/2000/svg">
  <g transform="matrix(1 0 0 1 -933 -49 )">
    <path d="M 9.4140625 2.234375  C 9.4140625 2.23046875  9.421875 2.23046875  9.4296875 2.23046875  L 9.5078125 2.23046875  C 9.5234375 2.23046875  9.5390625 2.234375  9.55859375 2.234375  C 9.56640625 2.234375  9.57421875 2.234375  9.58203125 2.23828125  C 9.6015625 2.2421875  9.62109375 2.24609375  9.64453125 2.25  L 9.65234375 2.25  C 9.67578125 2.2578125  9.69921875 2.26171875  9.71875 2.26953125  C 9.7265625 2.2734375  9.73046875 2.2734375  9.73828125 2.27734375  C 9.75390625 2.28515625  9.76953125 2.2890625  9.78515625 2.296875  C 9.796875 2.3046875  9.81250000000001 2.30859375  9.82421875 2.31640625  L 8.70703125 1.7109375  L 6.26171875 0.382812500000003  C 6.25390625 0.378906250000002  6.2421875 0.375000000000001  6.234375 0.367187500000004  C 6.23046875 0.367187500000004  6.2265625 0.363281250000003  6.22265625 0.363281250000003  C 6.20703125 0.355468750000001  6.19140625 0.347656250000004  6.17578125 0.343750000000003  C 6.16796875 0.339843750000002  6.1640625 0.339843750000002  6.15625 0.335937500000001  C 6.1328125 0.328124999999999  6.11328125 0.320312500000002  6.08984375 0.316406250000001  L 6.08203125 0.316406250000001  C 6.0625 0.3125  6.04296875 0.308593749999999  6.01953125 0.304687500000003  C 6.01171875 0.304687500000003  6.00390625 0.300781250000002  5.99609375 0.300781250000002  C 5.98046875 0.296875000000001  5.96484375 0.296875000000001  5.9453125 0.296875000000001  L 5.84375 0.296875000000001  C 5.8203125 0.296875000000001  5.79296875 0.300781250000002  5.765625 0.304687500000003  L 1.12109375 0.957031250000004  C 1.1015625 0.960937500000005  1.078125 0.964843750000006  1.05859375 0.968750000000003  C 1.0546875 0.968750000000003  1.046875 0.972656250000004  1.04296875 0.972656250000004  C 1.0234375 0.976562500000004  1.0078125 0.980468750000005  0.988281250000003 0.988281250000003  L 0.980468750000003 0.988281250000003  C 0.960937500000003 0.996093750000004  0.941406250000003 1  0.921875000000003 1.0078125  C 0.917968750000002 1.0078125  0.910156250000003 1.01171875  0.906250000000004 1.01171875  C 0.890625000000005 1.01953125000001  0.875000000000004 1.0234375  0.855468750000004 1.03125  C 0.851562500000003 1.03125  0.851562500000003 1.03515625  0.847656250000004 1.03515625  L 0.843750000000003 1.03515625  C 0.820312500000002 1.046875  0.796875000000004 1.05859375000001  0.777343750000004 1.0703125  C 0.773437500000003 1.07421875  0.769531250000004 1.07421875  0.765625000000003 1.07812500000001  C 0.742187500000002 1.08984375  0.722656250000002 1.10546875000001  0.703125000000002 1.11718750000001  L 0.699218750000001 1.12109375000001  C 0.6953125 1.12109375000001  0.6953125 1.12500000000001  0.691406250000002 1.12500000000001  L 0.644531250000002 1.16015625000001  L 0.640625000000001 1.16406250000001  C 0.625000000000002 1.17578125000001  0.609375000000001 1.19140625000001  0.593750000000002 1.20312500000001  L 0.589843750000001 1.20703125000001  L 0.582031250000001 1.21484375000001  C 0.570312500000001 1.22656250000001  0.55859375 1.23437500000001  0.546875000000002 1.24609375000001  L 0.535156250000002 1.25781250000001  L 0.492187500000001 1.30078125000001  C 0.48828125 1.30468750000001  0.48828125 1.30468750000001  0.48828125 1.30859375000001  C 0.4765625 1.32031250000001  0.46875 1.33203125000001  0.45703125 1.34765625000001  C 0.453124999999999 1.35156250000001  0.44921875 1.35546875000001  0.445312499999999 1.36328125000001  C 0.433593749999999 1.37500000000001  0.425781249999999 1.39062500000001  0.414062499999999 1.40234375000001  C 0.414062499999999 1.40625000000001  0.410156249999998 1.40625000000001  0.410156249999998 1.41015625000001  L 0.410156249999998 1.41406250000001  C 0.398437499999997 1.42968750000001  0.386718749999997 1.44921875000001  0.374999999999999 1.46875000000001  C 0.371093749999998 1.47265625000001  0.371093749999998 1.47656250000001  0.367187499999999 1.48046875000001  C 0.359375 1.49609375000001  0.347656249999999 1.51171875000001  0.33984375 1.52734375000001  C 0.33984375 1.53125000000001  0.335937499999999 1.53125000000001  0.335937499999999 1.53515625000001  L 0.335937499999999 1.53906250000001  C 0.324218749999998 1.56250000000001  0.312499999999998 1.58203125000001  0.304687499999998 1.60546875000001  C 0.300781249999997 1.60937500000002  0.300781249999997 1.61328125000002  0.296874999999999 1.61718750000001  C 0.285156249999998 1.64062500000001  0.277343749999999 1.66406250000001  0.269531249999999 1.68750000000001  L 0.269531249999999 1.69140625000001  C 0.265624999999998 1.69921875000001  0.265624999999998 1.70703125000001  0.26171875 1.71093750000001  C 0.257812499999999 1.71875000000001  0.257812499999999 1.72656250000001  0.25390625 1.73437500000001  C 0.249999999999999 1.74218750000001  0.249999999999999 1.75000000000001  0.24609375 1.76171875000001  C 0.2421875 1.76953125000002  0.2421875 1.77734375000001  0.238281250000001 1.78515625000002  C 0.234375 1.79296875000002  0.234375 1.80468750000002  0.230468750000001 1.81250000000002  C 0.230468750000001 1.82031250000002  0.2265625 1.82812500000002  0.2265625 1.83593750000002  C 0.22265625 1.84375000000002  0.22265625 1.85546875000002  0.22265625 1.86328125000002  C 0.22265625 1.87109375000002  0.218749999999999 1.87890625000002  0.218749999999999 1.88671875000002  C 0.218749999999999 1.89453125000002  0.214843749999998 1.90625000000002  0.214843749999998 1.91406250000002  C 0.214843749999998 1.92187500000002  0.210937499999997 1.92968750000002  0.210937499999997 1.93750000000002  C 0.210937499999997 1.94921875000002  0.207031249999996 1.95703125000002  0.207031249999996 1.96875000000002  C 0.207031249999996 1.97656250000002  0.207031249999996 1.98046875000002  0.203124999999995 1.98828125000002  C 0.203124999999995 2.00000000000002  0.203124999999995 2.01171875000002  0.199218749999994 2.02343750000002  L 0.199218749999994 2.08984375  L 0.191406249999995 7.1015625  C 0.191406249999995 7.45703125  0.363281249999994 7.74609375  0.621093749999995 7.88671875  L 4.18359374999999 9.82421875  C 3.92578124999999 9.68359375  3.74999999999999 9.39453125  3.75390624999999 9.0390625  L 3.76171874999999 4.02734375  L 3.76171874999999 3.9765625  L 3.76171874999999 3.9609375  C 3.76171874999999 3.94921875  3.76171874999999 3.9375  3.76562499999999 3.92578125  C 3.76562499999999 3.91796875  3.76562499999999 3.9140625  3.76953125 3.90625  C 3.76953125 3.89453125  3.7734375 3.88671875  3.7734375 3.875  C 3.7734375 3.8671875  3.77734375 3.859375  3.77734375 3.8515625  C 3.77734375 3.84375  3.78125 3.83203125  3.78125 3.82421875  C 3.78125 3.81640625  3.78515625 3.80859375  3.78515625 3.80078125  C 3.78515625 3.79296875  3.7890625 3.78125  3.7890625 3.7734375  C 3.7890625 3.76562499999999  3.79296875 3.7578125  3.79296875 3.75  C 3.796875 3.74218749999999  3.796875 3.73046875  3.80078125 3.72265624999999  C 3.8046875 3.71484374999999  3.8046875 3.70703124999999  3.80859375 3.69921874999999  C 3.8125 3.69140624999999  3.8125 3.68359374999999  3.81640625 3.67187499999999  C 3.8203125 3.66406249999999  3.8203125 3.65624999999999  3.82421875 3.64843749999999  C 3.828125 3.64062499999999  3.828125 3.63281249999999  3.83203125 3.62499999999999  C 3.83984375 3.60156249999999  3.8515625 3.57812499999999  3.859375 3.55468749999999  C 3.86328125 3.55078124999999  3.86328125 3.54687499999999  3.8671875 3.54296874999999  C 3.87890625 3.51953124999999  3.88671875 3.49999999999999  3.8984375 3.47656249999999  C 3.90234375 3.47265624999999  3.90234375 3.46874999999999  3.90625 3.46484374999999  C 3.9140625 3.44921874999999  3.921875 3.43359374999999  3.93359375 3.41796874999999  C 3.9375 3.41406249999999  3.9375 3.41015624999999  3.94140625 3.40624999999999  C 3.953125 3.38671874999999  3.96484375 3.37109374999999  3.9765625 3.35156249999999  C 3.98046875 3.34765624999999  3.98046875 3.34374999999999  3.984375 3.33984375  C 3.9921875 3.328125  4.00390625 3.31249999999999  4.015625 3.30078125  C 4.01953125 3.29687499999999  4.0234375 3.29296874999999  4.02734375 3.28515625  C 4.0390625 3.2734375  4.046875 3.25781249999999  4.05859375 3.24609375  C 4.0625 3.2421875  4.0625 3.23828124999999  4.06640625 3.23828124999999  C 4.078125 3.22265625  4.09375 3.20703125  4.109375 3.19531249999999  L 4.12109375 3.18359375  C 4.1328125 3.171875  4.14453125 3.16015624999999  4.15625 3.15234375  L 4.16796875 3.140625  C 4.18359375 3.125  4.19921875 3.11328125  4.21484375 3.1015625  L 4.21875 3.09765625  L 4.265625 3.0625  C 4.26953125 3.05859375  4.2734375 3.05859375  4.27734375 3.0546875  C 4.296875 3.0390625  4.3203125 3.02734375  4.33984375 3.015625  C 4.34375 3.01171875  4.34765625 3.01171875  4.3515625 3.0078125  C 4.375 2.99609375  4.3984375 2.98437499999999  4.41796875 2.97265625  C 4.421875 2.97265625  4.42578125 2.96875  4.42578125 2.96875  C 4.44140625 2.96093749999999  4.45703125 2.953125  4.4765625 2.94921875  C 4.48046875 2.94531249999999  4.48828125 2.94531249999999  4.4921875 2.94531249999999  C 4.51171875 2.93749999999999  4.53125 2.9296875  4.55078125 2.92578124999999  L 4.55859375 2.92578124999999  C 4.578125 2.92187499999999  4.59375 2.9140625  4.61328125 2.91015625  C 4.6171875 2.91015625  4.625 2.90624999999999  4.62890625 2.90624999999999  C 4.6484375 2.90234374999999  4.66796875 2.89843749999999  4.69140625 2.89453125  L 9.3359375 2.2421875  C 9.36328125 2.23828125  9.38671875 2.23828125  9.4140625 2.234375  Z " fill-rule="nonzero" fill="#00b794" stroke="none" transform="matrix(1 0 0 1 933 49 )" />
  </g>
</svg>