<?xml version="1.0" encoding="utf-8"?>
<svg version="1.1" xmlns:xlink="http://www.w3.org/1999/xlink" width="7px" height="7px" xmlns="http://www.w3.org/2000/svg">
  <g transform="matrix(1 0 0 1 -939 -48 )">
    <path d="M 1.08181818181818 0.644000000000007  L 5.81079545454546 0.0560000000000008  C 6.32784090909091 -0.00699999999999761  6.75340909090909 0.343000000000002  6.75340909090909 0.836499999999999  L 6.74545454545455 5.327  C 6.74545454545455 5.8205  6.31988636363636 6.2755  5.80284090909091 6.3385  L 1.06988636363636 6.923  C 0.620454545454544 6.979  0.242613636363635 6.7235  0.151136363636362 6.335  C 0.135227272727272 6.2755  0.127272727272725 6.2125  0.127272727272725 6.146  L 0.13522727272727 1.65550000000001  C 0.13522727272727 1.58900000000001  0.143181818181815 1.52250000000001  0.159090909090907 1.45950000000001  C 0.254545454545451 1.04650000000001  0.63238636363636 0.700000000000004  1.08181818181818 0.644000000000007  Z " fill-rule="nonzero" fill="#50e6cc" stroke="none" transform="matrix(1 0 0 1 939 48 )" />
  </g>
</svg>