<?xml version="1.0" encoding="utf-8"?>
<svg version="1.1" xmlns:xlink="http://www.w3.org/1999/xlink" width="7px" height="7px" xmlns="http://www.w3.org/2000/svg">
  <g transform="matrix(1 0 0 1 -932 -49 )">
    <path d="M 1.19318181818182 0.608999999999999  L 5.92215909090909 0.0279999999999984  C 6.37159090909091 -0.0280000000000024  6.74943181818182 0.2275  6.84090909090909 0.615999999999997  C 6.825 0.678999999999995  6.81704545454545 0.745499999999998  6.81704545454545 0.811999999999998  L 6.80909090909091 5.3025  C 6.80909090909091 5.369  6.81704545454545 5.432  6.83295454545455 5.4915  C 6.7375 5.9045  6.35965909090909 6.251  5.91022727272727 6.307  L 1.18125 6.8915  C 0.664204545454547 6.9545  0.238636363636366 6.6045  0.238636363636366 6.111  L 0.246590909090911 1.6205  C 0.246590909090911 1.127  0.672159090909092 0.671999999999998  1.19318181818182 0.608999999999999  Z " fill-rule="nonzero" fill="#50e6cc" stroke="none" transform="matrix(1 0 0 1 932 49 )" />
  </g>
</svg>