<?xml version="1.0" encoding="utf-8"?>
<svg version="1.1" xmlns:xlink="http://www.w3.org/1999/xlink" width="10px" height="10px" xmlns="http://www.w3.org/2000/svg">
  <g transform="matrix(1 0 0 1 -935 -46 )">
    <path d="M 9.51209677419355 2.24609375  C 9.52419354838709 2.2421875  9.53225806451613 2.2421875  9.54032258064516 2.2421875  L 9.62096774193548 2.2421875  C 9.63709677419355 2.2421875  9.65322580645161 2.24609375  9.67338709677419 2.24609375  C 9.68145161290323 2.24609375  9.68951612903226 2.25  9.69758064516129 2.25  L 9.75806451612903 2.26171875  C 9.76209677419355 2.26171875  9.76612903225807 2.26171875  9.77016129032258 2.265625  C 9.79435483870968 2.2734375  9.81854838709677 2.27734375  9.83870967741936 2.28515625  C 9.84677419354839 2.2890625  9.8508064516129 2.2890625  9.85887096774194 2.29296875  C 9.875 2.30078125  9.89112903225806 2.3046875  9.90725806451613 2.3125  C 9.91935483870968 2.3203125  9.93548387096775 2.32421875  9.94758064516129 2.33203125  L 6.27016129032258 0.394531250000001  C 6.26209677419355 0.390625  6.25 0.382812500000003  6.24193548387097 0.378906250000002  C 6.23790322580645 0.378906250000002  6.23387096774194 0.375000000000001  6.22983870967742 0.375000000000001  C 6.21370967741936 0.367187499999999  6.19758064516129 0.359375000000002  6.18145161290323 0.355468750000001  C 6.1733870967742 0.3515625  6.16935483870968 0.3515625  6.16129032258065 0.347656249999999  C 6.13709677419355 0.339843749999997  6.11290322580646 0.33203125  6.09274193548387 0.328124999999999  C 6.08870967741936 0.328124999999999  6.08467741935484 0.328124999999999  6.08064516129033 0.324218749999998  L 6.02016129032258 0.3125  C 6.01209677419355 0.3125  6.00403225806452 0.308593749999999  5.99596774193549 0.308593749999999  C 5.97983870967742 0.304687499999998  5.96370967741936 0.304687499999998  5.94354838709678 0.304687499999998  L 5.83870967741936 0.304687499999998  C 5.81451612903226 0.304687499999998  5.78629032258065 0.308593749999999  5.76209677419355 0.3125  L 0.967741935483871 0.964843750000002  C 0.939516129032259 0.968750000000003  0.915322580645161 0.972656250000004  0.887096774193548 0.980468750000001  C 0.879032258064517 0.980468750000001  0.870967741935485 0.984375000000002  0.862903225806451 0.988281250000003  C 0.846774193548387 0.992187500000004  0.826612903225806 0.996093750000004  0.810483870967741 1.00390625  C 0.802419354838709 1.0078125  0.79032258064516 1.01171875  0.782258064516128 1.01171875  C 0.766129032258065 1.015625  0.749999999999999 1.0234375  0.733870967741935 1.02734375  C 0.725806451612903 1.03125  0.713709677419354 1.03515625  0.705645161290323 1.0390625  C 0.701612903225806 1.04296875  0.693548387096774 1.04296875  0.689516129032259 1.046875  L 0.665322580645161 1.05859375  C 0.653225806451613 1.06640625  0.637096774193549 1.0703125  0.625 1.078125  C 0.612903225806451 1.0859375  0.600806451612902 1.08984375  0.588709677419356 1.09765625  C 0.576612903225807 1.10546875  0.564516129032258 1.11328125  0.548387096774195 1.12109375  C 0.544354838709677 1.125  0.536290322580646 1.12890625  0.532258064516131 1.1328125  C 0.524193548387099 1.13671875  0.516129032258067 1.14453125  0.508064516129033 1.1484375  C 0.500000000000001 1.15234375  0.49193548387097 1.16015625  0.483870967741936 1.16796875  C 0.467741935483872 1.1796875  0.455645161290323 1.19140625  0.439516129032257 1.203125  C 0.431451612903225 1.20703125  0.427419354838708 1.21484375  0.419354838709676 1.21875  L 0.415322580645159 1.22265625  C 0.399193548387096 1.23828125  0.379032258064515 1.25390625  0.362903225806449 1.26953125  L 0.354838709677418 1.27734375  C 0.342741935483869 1.2890625  0.33064516129032 1.3046875  0.318548387096773 1.31640625  C 0.314516129032256 1.3203125  0.314516129032256 1.32421875  0.310483870967741 1.328125  C 0.306451612903224 1.3359375  0.298387096774193 1.33984375  0.294354838709678 1.34765625  C 0.282258064516129 1.36328125  0.27016129032258 1.375  0.258064516129034 1.390625  C 0.254032258064517 1.3984375  0.245967741935485 1.40625  0.24193548387097 1.41015625  C 0.237903225806453 1.4140625  0.233870967741938 1.41796875  0.233870967741938 1.421875  L 0.209677419354841 1.45703125  C 0.205645161290323 1.46484375  0.201612903225809 1.47265625  0.193548387096777 1.4765625  C 0.177419354838713 1.5  0.165322580645164 1.5234375  0.153225806451616 1.546875  C 0.149193548387099 1.5546875  0.145161290322584 1.56640625  0.141129032258067 1.57421875  C 0.133064516129035 1.58984375  0.125000000000003 1.609375  0.116935483870969 1.625  C 0.112903225806452 1.63671874999999  0.108870967741937 1.6484375  0.10483870967742 1.65624999999999  C 0.0967741935483885 1.67187499999999  0.0927419354838714 1.68749999999999  0.0846774193548396 1.703125  C 0.0766129032258078 1.72265625  0.0725806451612908 1.73828125  0.064516129032259 1.7578125  C 0.0604838709677419 1.765625  0.0564516129032272 1.77734375  0.0564516129032272 1.78515625  C 0.0483870967741954 1.8125  0.0403225806451636 1.84375  0.0362903225806465 1.87109375  C 0.0201612903225829 1.94140625  0.0120967741935488 2.015625  0.0120967741935488 2.08984375  L 0 7.109375  C 0 7.18359375  0.0080645161290318 7.25390625  0.0241935483870977 7.3203125  C 0.0806451612903226 7.57421875  0.233870967741936 7.78125  0.447580645161291 7.890625  L 4.125 9.828125  C 3.91129032258065 9.71484375  3.75806451612903 9.51171875  3.70161290322581 9.2578125  C 3.68548387096774 9.19140625  3.67741935483871 9.12109375  3.67741935483871 9.046875  L 3.68548387096774 4.03515625  C 3.68548387096774 3.9609375  3.69354838709677 3.88671875  3.70967741935484 3.81640625  C 3.71370967741936 3.7890625  3.72177419354839 3.7578125  3.72983870967742 3.73046875  C 3.73387096774194 3.72265624999999  3.73790322580645 3.7109375  3.73790322580645 3.70312499999999  C 3.74596774193548 3.68359374999999  3.75 3.66406249999999  3.75806451612903 3.64843749999999  C 3.76612903225806 3.6328125  3.77016129032258 3.6171875  3.77822580645161 3.60156249999999  C 3.78225806451613 3.58984374999999  3.78629032258064 3.57812499999999  3.79032258064516 3.57031249999999  C 3.79838709677419 3.5546875  3.80645161290323 3.53515625  3.81451612903226 3.51953125  C 3.81854838709678 3.51171874999999  3.82258064516129 3.5  3.82661290322581 3.49218749999999  C 3.83870967741936 3.46874999999999  3.85483870967742 3.44531249999999  3.86693548387097 3.421875  C 3.87096774193549 3.41406249999999  3.875 3.40625  3.88306451612903 3.40234375  C 3.89516129032258 3.38671875  3.90322580645161 3.37109375  3.91532258064516 3.35546874999999  C 3.91935483870968 3.34765624999999  3.92741935483871 3.33984375  3.93145161290323 3.33593749999999  C 3.94354838709677 3.3203125  3.95564516129032 3.30859374999999  3.96774193548387 3.29296874999999  C 3.97177419354839 3.28515624999999  3.97983870967742 3.28125  3.98387096774193 3.27343749999999  C 4 3.25781249999999  4.01612903225806 3.2421875  4.02822580645161 3.22265625  C 4.03225806451613 3.21874999999999  4.03225806451613 3.21484374999999  4.03629032258064 3.21484374999999  L 4.09274193548387 3.16015624999999  C 4.1008064516129 3.15624999999999  4.10483870967742 3.1484375  4.11290322580645 3.14453125  C 4.125 3.1328125  4.14112903225806 3.12109374999999  4.15725806451613 3.109375  C 4.16532258064516 3.10156249999999  4.17338709677419 3.09765625  4.18145161290323 3.08984375  C 4.19354838709677 3.08203124999999  4.20564516129032 3.0703125  4.22177419354839 3.06249999999999  C 4.23387096774194 3.05468749999999  4.24596774193548 3.046875  4.26209677419355 3.03906249999999  C 4.2741935483871 3.03124999999999  4.28629032258065 3.02343749999999  4.29838709677419 3.01953124999999  C 4.31048387096774 3.01171874999999  4.3266129032258 3.00390624999999  4.33870967741935 2.99999999999999  C 4.3508064516129 2.99218749999999  4.36693548387097 2.98828125  4.37903225806451 2.98046874999999  C 4.38709677419355 2.97656249999999  4.3991935483871 2.97265624999999  4.40725806451613 2.96875  C 4.42338709677419 2.96093749999999  4.43951612903226 2.95703125  4.45564516129032 2.953125  C 4.46370967741935 2.94921875  4.4758064516129 2.94531249999999  4.48387096774193 2.94531249999999  C 4.5 2.94140624999999  4.52016129032258 2.93359375  4.53629032258064 2.9296875  C 4.54435483870968 2.92578124999999  4.55241935483871 2.92578124999999  4.56048387096774 2.92187499999999  C 4.58467741935484 2.91796874999999  4.61290322580645 2.91015625  4.64112903225806 2.90624999999999  L 9.43548387096774 2.25390625  C 9.46370967741936 2.25  9.48790322580645 2.25  9.51209677419355 2.24609375  Z " fill-rule="nonzero" fill="#00b794" stroke="none" transform="matrix(1 0 0 1 935 46 )" />
  </g>
</svg>