<?xml version="1.0" encoding="utf-8"?>
<svg version="1.1" xmlns:xlink="http://www.w3.org/1999/xlink" width="10px" height="10px" xmlns="http://www.w3.org/2000/svg">
  <g transform="matrix(1 0 0 1 -943 -51 )">
    <path d="M 9.37109375 2.03629032258065  L 9.3984375 2.03629032258065  L 9.4765625 2.03629032258065  C 9.4921875 2.03629032258065  9.5078125 2.04032258064516  9.52734375 2.04032258064516  C 9.53515625 2.04032258064516  9.54296875 2.04435483870968  9.55078125 2.04435483870968  L 9.609375 2.05645161290323  C 9.61328125 2.05645161290323  9.6171875 2.05645161290323  9.62109375 2.06048387096774  C 9.64453125 2.06854838709678  9.66796875 2.07258064516129  9.6875 2.08064516129032  C 9.6953125 2.08467741935484  9.69921875 2.08467741935484  9.70703125 2.08870967741936  C 9.72265625 2.09677419354839  9.73828125 2.1008064516129  9.75390625 2.10887096774194  C 9.765625 2.11693548387097  9.78125 2.12096774193548  9.79296875 2.12903225806452  L 6.23046875 0.129032258064518  C 6.22265625 0.125000000000001  6.2109375 0.116935483870971  6.203125 0.112903225806454  C 6.19921875 0.112903225806454  6.1953125 0.108870967741937  6.19140625 0.108870967741937  C 6.17578125 0.100806451612903  6.16015625 0.0927419354838737  6.14453125 0.0887096774193567  C 6.13671875 0.0846774193548396  6.1328125 0.0846774193548396  6.125 0.0806451612903226  C 6.1015625 0.0725806451612885  6.078125 0.064516129032259  6.05859375 0.0604838709677419  C 6.0546875 0.0604838709677419  6.05078124999999 0.0604838709677419  6.046875 0.0564516129032249  L 5.98828125 0.0443548387096783  C 5.98046875 0.0443548387096783  5.97265625 0.0403225806451613  5.96484375 0.0403225806451613  C 5.94921875 0.0362903225806442  5.93359375 0.0362903225806442  5.9140625 0.0362903225806442  L 5.8125 0.0362903225806442  C 5.7890625 0.0362903225806442  5.76171875 0.0403225806451613  5.73828125 0.0443548387096783  L 1.09375 0.717741935483869  C 1.06640625 0.721774193548386  1.04296875 0.725806451612903  1.015625 0.733870967741933  C 1.0078125 0.733870967741933  1 0.73790322580645  0.992187499999999 0.741935483870967  C 0.9765625 0.745967741935484  0.95703125 0.750000000000001  0.941406250000001 0.75806451612903  C 0.933593749999999 0.762096774193547  0.921875000000001 0.766129032258065  0.914062499999999 0.766129032258065  C 0.8984375 0.770161290322582  0.882812500000001 0.778225806451611  0.867187499999997 0.782258064516128  C 0.859374999999996 0.786290322580645  0.847656249999997 0.790322580645162  0.839843749999996 0.794354838709675  C 0.835937499999995 0.798387096774192  0.828124999999997 0.798387096774192  0.824218749999996 0.802419354838709  L 0.800781249999996 0.814516129032255  C 0.789062499999997 0.822580645161289  0.773437499999994 0.826612903225802  0.761718749999996 0.834677419354836  C 0.749999999999997 0.84274193548387  0.738281249999995 0.846774193548382  0.726562499999996 0.854838709677417  C 0.714843749999998 0.862903225806451  0.703124999999996 0.87096774193548  0.687499999999996 0.879032258064514  C 0.683593749999996 0.883064516129031  0.675781249999998 0.887096774193548  0.671874999999997 0.891129032258061  C 0.664062499999996 0.895161290322578  0.656249999999998 0.903225806451607  0.648437499999996 0.907258064516124  C 0.640624999999995 0.911290322580641  0.632812499999997 0.919354838709671  0.624999999999996 0.927419354838705  C 0.609374999999996 0.939516129032252  0.597656249999994 0.951612903225803  0.582031249999995 0.963709677419349  C 0.574218749999993 0.967741935483866  0.570312499999996 0.975806451612896  0.562499999999995 0.979838709677413  L 0.558593749999994 0.98387096774193  C 0.542968749999995 0.999999999999994  0.523437499999995 1.01612903225806  0.507812499999996 1.03225806451613  L 0.499999999999994 1.04032258064516  C 0.488281249999996 1.05241935483871  0.476562499999993 1.06854838709677  0.464843749999995 1.08064516129032  C 0.460937499999994 1.08467741935484  0.460937499999994 1.08870967741935  0.457031249999993 1.09274193548387  C 0.453124999999992 1.1008064516129  0.445312499999995 1.10483870967741  0.441406249999994 1.11290322580645  C 0.429687499999996 1.12903225806451  0.417968749999993 1.14112903225806  0.406249999999995 1.15725806451613  C 0.402343749999994 1.16532258064516  0.394531249999996 1.17338709677419  0.390624999999996 1.17741935483871  C 0.386718749999995 1.18145161290322  0.382812499999994 1.18548387096774  0.382812499999994 1.18951612903225  L 0.359374999999993 1.2258064516129  C 0.355468749999992 1.23387096774193  0.351562499999991 1.24193548387096  0.343749999999994 1.24596774193548  C 0.328124999999995 1.27016129032258  0.316406249999992 1.29435483870967  0.304687499999994 1.31854838709677  C 0.300781249999993 1.3266129032258  0.296874999999992 1.33870967741935  0.292968749999996 1.34677419354838  C 0.285156249999994 1.36290322580645  0.277343749999996 1.38306451612903  0.269531249999995 1.39919354838709  C 0.265624999999994 1.41129032258064  0.261718749999993 1.42338709677419  0.257812499999996 1.43145161290322  C 0.249999999999995 1.44758064516128  0.246093749999998 1.46370967741934  0.238281249999996 1.47983870967741  C 0.230468749999995 1.49999999999999  0.226562499999998 1.51612903225806  0.218749999999996 1.53629032258064  C 0.214843749999996 1.54435483870967  0.210937499999995 1.55645161290322  0.210937499999995 1.56451612903225  C 0.203124999999993 1.59274193548387  0.195312499999996 1.62499999999999  0.191406249999995 1.65322580645161  C 0.175781249999996 1.7258064516129  0.167968749999994 1.80241935483871  0.167968749999994 1.87903225806451  L 0.160156249999992 7.0524193548387  C 0.160156249999992 7.12903225806451  0.167968749999994 7.2016129032258  0.183593749999993 7.27016129032257  C 0.238281249999992 7.53225806451612  0.386718749999995 7.74596774193548  0.593749999999993 7.85887096774193  L 4.15624999999999 9.85887096774193  C 3.94921875 9.74193548387096  3.80078124999999 9.53225806451612  3.74609374999999 9.27016129032257  C 3.73046875 9.2016129032258  3.72265624999999 9.12903225806451  3.72265624999999 9.0524193548387  L 3.73046875 3.87903225806451  C 3.73046875 3.8024193548387  3.73828125 3.7258064516129  3.75390625 3.65322580645161  C 3.7578125 3.62499999999999  3.76562499999999 3.59274193548386  3.7734375 3.56451612903225  C 3.77734375 3.55645161290321  3.78125 3.54435483870967  3.78125 3.53629032258063  C 3.7890625 3.51612903225805  3.79296875 3.49596774193547  3.80078125 3.47983870967741  C 3.80859375 3.46370967741934  3.8125 3.44758064516128  3.8203125 3.43145161290321  C 3.82421875 3.41935483870967  3.828125 3.40725806451612  3.83203125 3.39919354838709  C 3.83984375 3.38306451612902  3.84765625 3.36290322580644  3.85546875 3.34677419354838  C 3.859375 3.33870967741934  3.86328125 3.3266129032258  3.8671875 3.31854838709676  C 3.87890624999999 3.29435483870967  3.89453125 3.27016129032257  3.90625 3.24596774193548  C 3.91015625 3.23790322580644  3.9140625 3.22983870967741  3.92187499999999 3.22580645161289  C 3.93359374999999 3.20967741935483  3.94140624999999 3.19354838709677  3.95312499999999 3.1774193548387  C 3.95703124999999 3.16935483870966  3.96484374999999 3.16129032258063  3.96874999999999 3.15725806451612  C 3.98046874999999 3.14112903225805  3.99218749999999 3.1290322580645  4.00390624999999 3.11290322580644  C 4.00781249999999 3.10483870967741  4.01562499999999 3.10080645161289  4.01953124999999 3.09274193548386  C 4.03515624999999 3.0766129032258  4.05078124999999 3.06048387096773  4.06249999999999 3.04032258064515  C 4.06640624999999 3.03629032258063  4.06640624999999 3.03225806451612  4.07031249999999 3.03225806451612  L 4.12499999999999 2.97580645161289  C 4.13281249999999 2.97177419354838  4.13671874999999 2.96370967741935  4.14453124999999 2.95967741935483  C 4.15624999999999 2.94758064516128  4.17187499999999 2.93548387096773  4.18749999999999 2.92338709677418  C 4.19531249999999 2.91532258064515  4.20312499999999 2.91129032258064  4.21093749999999 2.9032258064516  C 4.22265624999999 2.89516129032257  4.23437499999999 2.88306451612902  4.24999999999999 2.87499999999999  C 4.26171874999999 2.86693548387095  4.27343749999999 2.85887096774193  4.28906249999999 2.85080645161289  C 4.30078124999999 2.84274193548386  4.31249999999999 2.83467741935483  4.32421874999999 2.83064516129031  C 4.33593749999999 2.82258064516128  4.35156249999999 2.81451612903225  4.36328124999999 2.81048387096773  C 4.37499999999999 2.8024193548387  4.39062499999999 2.79838709677418  4.40234374999999 2.79032258064515  C 4.41015624999999 2.78629032258063  4.42187499999999 2.78225806451612  4.42968749999999 2.7782258064516  C 4.44531249999999 2.77016129032257  4.46093749999999 2.76612903225806  4.4765625 2.76209677419354  C 4.484375 2.75806451612902  4.49609375 2.7540322580645  4.50390625 2.7540322580645  C 4.51953125 2.74999999999999  4.5390625 2.74193548387096  4.5546875 2.73790322580644  C 4.5625 2.73387096774192  4.5703125 2.73387096774192  4.578125 2.72983870967741  C 4.6015625 2.72580645161289  4.62890625 2.71774193548386  4.65625 2.71370967741934  L 9.296875 2.04435483870968  C 9.32421875 2.04032258064516  9.34765625 2.04032258064516  9.37109375 2.03629032258065  Z " fill-rule="nonzero" fill="#00b794" stroke="none" transform="matrix(1 0 0 1 943 51 )" />
  </g>
</svg>