<?xml version="1.0" encoding="utf-8"?>
<svg version="1.1" xmlns:xlink="http://www.w3.org/1999/xlink" width="10px" height="10px" xmlns="http://www.w3.org/2000/svg">
  <g transform="matrix(1 0 0 1 -949 -36 )">
    <path d="M 9.33203125 2.08870967741936  C 9.34375 2.09274193548387  9.3515625 2.09274193548387  9.359375 2.09274193548387  L 9.4375 2.09274193548387  C 9.453125 2.09274193548387  9.46875 2.09677419354839  9.48828125 2.09677419354839  C 9.49609375 2.09677419354839  9.50390625 2.1008064516129  9.51171875 2.1008064516129  L 9.5703125 2.11290322580645  C 9.57421875 2.11290322580645  9.578125 2.11290322580645  9.58203125 2.11693548387097  C 9.60546875 2.125  9.62890625 2.12903225806452  9.6484375 2.13709677419355  C 9.65625 2.14112903225807  9.66015625 2.14112903225807  9.66796875 2.14516129032258  C 9.68359375 2.15322580645161  9.69921875 2.15725806451613  9.71484375 2.16532258064516  C 9.7265625 2.17338709677419  9.7421875 2.17741935483871  9.75390625 2.18548387096774  L 6.19140625 0.185483870967743  C 6.18359375 0.181451612903226  6.171875 0.173387096774194  6.1640625 0.169354838709679  C 6.16015625 0.169354838709679  6.15625 0.165322580645162  6.15234375 0.165322580645162  C 6.13671875 0.15725806451613  6.12109375 0.149193548387099  6.10546875 0.145161290322582  C 6.09765625 0.141129032258065  6.09375 0.141129032258065  6.0859375 0.13709677419355  C 6.0625 0.129032258064518  6.0390625 0.120967741935486  6.01953125 0.116935483870969  C 6.015625 0.116935483870969  6.01171874999999 0.116935483870969  6.0078125 0.112903225806452  L 5.94921875 0.100806451612903  C 5.94140625 0.100806451612903  5.93359375 0.0967741935483862  5.92578125 0.0967741935483862  C 5.91015625 0.0927419354838691  5.89453125 0.0927419354838691  5.875 0.0927419354838691  L 5.7734375 0.0927419354838691  C 5.75 0.0927419354838691  5.72265625 0.0967741935483862  5.69921875 0.100806451612901  L 1.0546875 0.774193548387096  C 1.03515625 0.778225806451613  1.01171875 0.782258064516128  0.992187499999999 0.786290322580645  C 0.988281249999998 0.786290322580645  0.980468750000001 0.790322580645162  0.9765625 0.790322580645162  C 0.95703125 0.794354838709679  0.941406250000001 0.798387096774194  0.921875000000001 0.806451612903226  L 0.914062499999999 0.806451612903226  C 0.894531249999999 0.814516129032258  0.874999999999999 0.818548387096775  0.855468749999999 0.826612903225806  C 0.851562499999998 0.826612903225806  0.843750000000001 0.830645161290323  0.83984375 0.830645161290323  C 0.824218750000001 0.838709677419355  0.808593750000002 0.842741935483872  0.789062500000002 0.850806451612904  C 0.785156250000001 0.850806451612904  0.785156250000001 0.850806451612904  0.78125 0.854838709677421  L 0.777343749999999 0.854838709677421  C 0.753906249999998 0.86693548387097  0.730468749999997 0.879032258064519  0.710937499999997 0.891129032258066  C 0.707031249999996 0.895161290322583  0.703124999999996 0.895161290322583  0.699218749999999 0.899193548387097  C 0.675781249999998 0.911290322580646  0.656249999999998 0.92741935483871  0.636718749999998 0.939516129032259  L 0.632812499999997 0.943548387096776  C 0.628906249999996 0.943548387096776  0.628906249999996 0.947580645161293  0.624999999999996 0.947580645161293  L 0.578124999999994 0.983870967741937  L 0.574218749999993 0.987903225806454  C 0.558593749999994 1  0.542968749999995 1.01612903225807  0.527343749999991 1.02822580645162  L 0.52343749999999 1.03225806451613  L 0.515624999999988 1.04032258064516  C 0.50390624999999 1.05241935483871  0.492187499999988 1.06048387096774  0.480468749999989 1.07258064516129  L 0.468749999999991 1.08467741935484  L 0.42578124999999 1.12903225806452  C 0.421874999999989 1.13306451612904  0.421874999999989 1.13306451612904  0.421874999999989 1.13709677419355  C 0.410156249999991 1.1491935483871  0.398437499999988 1.16129032258065  0.390624999999991 1.17741935483871  C 0.38671874999999 1.18145161290323  0.382812499999989 1.18548387096775  0.378906249999993 1.19354838709678  C 0.367187499999995 1.20564516129033  0.359374999999993 1.22177419354839  0.347656249999995 1.23387096774194  C 0.347656249999995 1.23790322580646  0.343749999999994 1.23790322580646  0.343749999999994 1.24193548387097  L 0.343749999999994 1.24596774193549  C 0.332031249999996 1.26209677419355  0.320312499999993 1.28225806451613  0.308593749999995 1.30241935483871  C 0.304687499999994 1.30645161290323  0.304687499999994 1.31048387096774  0.300781249999993 1.31451612903226  C 0.292968749999991 1.33064516129032  0.281249999999993 1.34677419354839  0.273437499999991 1.36290322580645  C 0.273437499999991 1.36693548387097  0.26953124999999 1.36693548387097  0.26953124999999 1.37096774193549  L 0.26953124999999 1.375  C 0.257812499999992 1.3991935483871  0.246093749999989 1.41935483870968  0.238281249999992 1.44354838709678  C 0.234374999999991 1.44758064516129  0.234374999999991 1.45161290322581  0.23046874999999 1.45564516129033  C 0.218749999999992 1.47983870967742  0.21093749999999 1.50403225806452  0.203124999999988 1.52822580645162  L 0.203124999999988 1.53225806451613  C 0.199218749999988 1.54032258064517  0.199218749999988 1.5483870967742  0.195312499999987 1.55645161290323  C 0.191406249999986 1.56451612903226  0.191406249999986 1.57258064516129  0.187499999999985 1.58064516129033  C 0.183593749999984 1.58870967741936  0.183593749999984 1.59677419354839  0.179687499999983 1.60887096774194  C 0.175781249999982 1.61693548387097  0.175781249999982 1.62500000000001  0.171874999999981 1.63306451612904  C 0.16796874999998 1.64112903225807  0.16796874999998 1.65322580645162  0.16406249999998 1.66129032258065  C 0.16406249999998 1.66935483870968  0.160156249999979 1.67741935483872  0.160156249999979 1.68548387096775  C 0.156249999999978 1.69354838709678  0.156249999999978 1.70564516129033  0.156249999999978 1.71370967741936  C 0.156249999999978 1.72177419354839  0.152343749999977 1.72983870967743  0.152343749999977 1.73790322580646  C 0.152343749999977 1.74596774193549  0.148437499999976 1.75806451612904  0.148437499999976 1.76612903225807  C 0.148437499999976 1.7741935483871  0.144531249999975 1.78225806451614  0.144531249999975 1.78629032258065  C 0.144531249999975 1.7983870967742  0.140624999999974 1.80645161290323  0.140624999999974 1.81854838709678  C 0.140624999999974 1.82661290322581  0.140624999999974 1.83064516129033  0.136718749999973 1.83870967741936  C 0.136718749999973 1.85080645161291  0.136718749999973 1.86290322580646  0.132812499999972 1.87500000000001  L 0.132812499999972 1.94354838709677  L 0.117187499999973 7.11290322580645  C 0.117187499999973 7.47983870967742  0.289062499999972 7.77822580645161  0.546874999999973 7.92338709677419  L 4.10937499999998 9.92338709677419  C 3.85156249999997 9.77822580645161  3.67578124999997 9.47983870967742  3.67968749999998 9.11290322580645  L 3.68749999999998 3.93951612903226  L 3.68749999999998 3.88709677419355  L 3.68749999999998 3.87096774193548  C 3.68749999999998 3.85887096774194  3.68749999999998 3.84677419354839  3.69140624999998 3.83467741935484  C 3.69140624999998 3.82661290322581  3.69140624999998 3.82258064516129  3.69531249999998 3.81451612903226  C 3.69531249999998 3.80241935483871  3.69921874999998 3.79435483870968  3.69921874999998 3.78225806451613  C 3.69921874999998 3.7741935483871  3.70312499999998 3.76612903225807  3.70312499999998 3.76209677419355  C 3.70312499999998 3.75403225806452  3.70703124999998 3.74193548387097  3.70703124999998 3.73387096774194  C 3.70703124999998 3.7258064516129  3.71093749999998 3.71774193548387  3.71093749999998 3.70967741935484  C 3.71093749999998 3.70161290322581  3.71484374999998 3.68951612903226  3.71484374999998 3.68145161290323  C 3.71484374999998 3.67338709677419  3.71874999999998 3.66532258064516  3.71874999999998 3.65725806451613  C 3.72265624999998 3.6491935483871  3.72265624999998 3.63709677419355  3.72656249999999 3.62903225806452  C 3.73046874999999 3.62096774193548  3.73046874999999 3.61290322580645  3.73437499999999 3.60483870967742  C 3.73828124999999 3.59677419354839  3.73828124999999 3.58870967741936  3.74218749999999 3.57661290322581  C 3.74609374999999 3.56854838709677  3.74609374999999 3.56048387096774  3.74999999999999 3.55241935483871  C 3.75390624999999 3.54435483870968  3.75390624999999 3.53629032258064  3.75781249999999 3.52822580645161  C 3.76562499999999 3.50403225806451  3.77734374999999 3.47983870967742  3.78515624999999 3.45564516129032  C 3.7890625 3.4516129032258  3.7890625 3.44758064516129  3.79296875 3.44354838709677  C 3.80468749999999 3.41935483870967  3.8125 3.39516129032258  3.82421874999999 3.375  C 3.828125 3.37096774193548  3.828125 3.36693548387097  3.83203125 3.36290322580645  C 3.83984375 3.34677419354838  3.84765625 3.33064516129032  3.859375 3.31451612903226  C 3.86328125 3.31048387096774  3.86328125 3.30645161290322  3.8671875 3.30241935483871  C 3.87890625 3.28225806451613  3.890625 3.26612903225806  3.90234375 3.24596774193548  C 3.90625 3.24193548387096  3.90625 3.23790322580645  3.91015625 3.23387096774193  C 3.91796875 3.22177419354838  3.9296875 3.20564516129032  3.94140625 3.19354838709677  C 3.9453125 3.18951612903225  3.94921875 3.18548387096774  3.953125 3.17741935483871  C 3.96484375 3.16532258064516  3.97265625 3.1491935483871  3.984375 3.13709677419355  C 3.98828125 3.13306451612903  3.98828125 3.12903225806451  3.9921875 3.12903225806451  C 4.00390625 3.11290322580645  4.01953125 3.09677419354839  4.03515625 3.08467741935484  L 4.046875 3.07258064516129  C 4.05859374999999 3.06048387096774  4.0703125 3.04838709677419  4.08203125 3.04032258064516  L 4.09374999999999 3.02822580645161  C 4.10937499999999 3.01209677419355  4.12499999999999 3  4.140625 2.98790322580645  L 4.14453125 2.98387096774193  L 4.19140625 2.94758064516129  C 4.1953125 2.94354838709677  4.19921875 2.94354838709677  4.203125 2.93951612903225  C 4.22265625 2.92338709677419  4.24609375 2.91129032258064  4.265625 2.89919354838709  C 4.26953125 2.89516129032258  4.2734375 2.89516129032258  4.27734375 2.89112903225806  C 4.30078125 2.87903225806451  4.32421875 2.86693548387096  4.34375 2.85483870967742  C 4.34765625 2.85483870967742  4.3515625 2.8508064516129  4.3515625 2.8508064516129  C 4.3671875 2.84274193548387  4.3828125 2.83467741935484  4.40234375 2.83064516129032  C 4.40625 2.8266129032258  4.4140625 2.8266129032258  4.41796875 2.8266129032258  C 4.4375 2.81854838709677  4.45703125 2.81048387096774  4.4765625 2.80645161290322  L 4.484375 2.80645161290322  C 4.50390625 2.80241935483871  4.51953125 2.79435483870967  4.5390625 2.79032258064516  C 4.54296875 2.79032258064516  4.55078125 2.78629032258064  4.5546875 2.78629032258064  C 4.57421875 2.78225806451612  4.59375 2.77822580645161  4.6171875 2.77419354838709  L 9.2578125 2.09677419354839  C 9.28515625 2.09274193548387  9.30859375 2.09274193548387  9.33203125 2.08870967741936  Z " fill-rule="nonzero" fill="#d30032" stroke="none" transform="matrix(1 0 0 1 949 36 )" />
  </g>
</svg>