<?xml version="1.0" encoding="utf-8"?>
<svg version="1.1" xmlns:xlink="http://www.w3.org/1999/xlink" width="10px" height="10px" xmlns="http://www.w3.org/2000/svg">
  <g transform="matrix(1 0 0 1 -942 -32 )">
    <path d="M 9.4921875 2.04838709677419  L 9.51953125 2.04838709677419  L 9.59765625 2.04838709677419  C 9.61328125 2.04838709677419  9.62890625 2.05241935483871  9.6484375 2.05241935483871  C 9.65625 2.05241935483871  9.6640625 2.05645161290323  9.671875 2.05645161290323  L 9.73046875 2.06854838709677  C 9.734375 2.06854838709677  9.73828125 2.06854838709677  9.7421875 2.07258064516129  C 9.765625 2.08064516129032  9.7890625 2.08467741935484  9.80859375 2.09274193548387  C 9.81640625 2.09677419354839  9.8203125 2.09677419354839  9.828125 2.1008064516129  C 9.84375 2.10887096774194  9.859375 2.11290322580645  9.875 2.12096774193548  C 9.88671875 2.12903225806452  9.90234375 2.13306451612903  9.9140625 2.14112903225806  L 6.3515625 0.141129032258065  C 6.34375 0.137096774193549  6.33203125 0.129032258064516  6.32421875 0.125  C 6.3203125 0.125  6.31640625 0.120967741935484  6.3125 0.120967741935484  C 6.296875 0.112903225806452  6.28125 0.104838709677419  6.265625 0.100806451612903  C 6.2578125 0.0967741935483873  6.25390625 0.0967741935483873  6.24609375 0.0927419354838714  C 6.22265625 0.0846774193548396  6.19921875 0.0766129032258067  6.1796875 0.0725806451612908  C 6.17578125 0.0725806451612908  6.171875 0.0725806451612908  6.16796875 0.0685483870967749  L 6.109375 0.056451612903226  C 6.1015625 0.056451612903226  6.09375 0.0524193548387101  6.0859375 0.0524193548387101  C 6.0703125 0.0483870967741942  6.0546875 0.0483870967741942  6.03515625 0.0483870967741942  L 5.93359375 0.0483870967741942  C 5.91015625 0.0483870967741942  5.8828125 0.0524193548387101  5.859375 0.056451612903226  L 1.2109375 0.729838709677419  C 1.19140625 0.733870967741935  1.16796875 0.737903225806451  1.1484375 0.741935483870968  C 1.14453125 0.741935483870968  1.13671875 0.745967741935484  1.1328125 0.745967741935484  C 1.11328125 0.75  1.09765625 0.754032258064516  1.078125 0.762096774193549  L 1.0703125 0.762096774193549  C 1.05078125 0.770161290322581  1.03125 0.774193548387098  1.01171875 0.782258064516129  C 1.0078125 0.782258064516129  1 0.786290322580645  0.99609375 0.786290322580645  C 0.980468750000001 0.794354838709677  0.964843750000002 0.798387096774194  0.945312500000002 0.806451612903226  C 0.941406250000001 0.806451612903226  0.941406250000001 0.806451612903226  0.9375 0.810483870967742  L 0.933593749999999 0.810483870967742  C 0.910156249999998 0.822580645161291  0.886718749999997 0.834677419354838  0.867187499999997 0.846774193548387  C 0.863281249999996 0.850806451612903  0.859374999999996 0.850806451612903  0.855468749999999 0.854838709677419  C 0.832031249999998 0.866935483870968  0.812499999999998 0.883064516129031  0.792968749999998 0.89516129032258  L 0.789062499999997 0.899193548387096  C 0.785156249999996 0.899193548387096  0.785156249999996 0.903225806451612  0.781249999999996 0.903225806451612  L 0.734374999999994 0.939516129032257  L 0.730468749999993 0.943548387096773  C 0.714843749999994 0.955645161290322  0.699218749999995 0.971774193548386  0.683593749999991 0.983870967741935  L 0.67968749999999 0.98790322580645  L 0.671874999999988 0.995967741935482  C 0.66015624999999 1.00806451612903  0.648437499999988 1.01612903225806  0.636718749999989 1.02822580645161  L 0.624999999999989 1.04032258064516  L 0.582031249999988 1.08467741935484  C 0.578124999999987 1.08870967741935  0.578124999999987 1.08870967741935  0.578124999999987 1.09274193548387  C 0.566406249999987 1.10483870967742  0.554687499999986 1.11693548387097  0.546874999999987 1.13306451612903  C 0.542968749999986 1.13709677419355  0.539062499999987 1.14112903225806  0.535156249999986 1.1491935483871  C 0.523437499999986 1.16129032258064  0.515624999999986 1.17741935483871  0.503906249999986 1.18951612903226  C 0.503906249999986 1.19354838709677  0.499999999999985 1.19354838709677  0.499999999999985 1.19758064516129  L 0.499999999999985 1.2016129032258  C 0.488281249999984 1.21774193548387  0.476562499999984 1.23790322580645  0.464843749999986 1.25806451612903  C 0.460937499999985 1.26209677419355  0.460937499999985 1.26612903225806  0.457031249999986 1.27016129032258  C 0.449218749999987 1.28629032258064  0.437499999999986 1.30241935483871  0.429687499999987 1.31854838709677  C 0.429687499999987 1.32258064516129  0.425781249999986 1.32258064516129  0.425781249999986 1.3266129032258  L 0.425781249999986 1.33064516129032  C 0.414062499999985 1.35483870967742  0.402343749999985 1.375  0.394531249999985 1.39919354838709  C 0.390624999999984 1.40322580645161  0.390624999999984 1.40725806451613  0.386718749999986 1.41129032258064  C 0.374999999999985 1.43548387096774  0.367187499999986 1.45967741935484  0.359374999999986 1.48387096774193  L 0.359374999999986 1.48790322580645  C 0.355468749999985 1.49596774193548  0.355468749999985 1.50403225806451  0.351562499999987 1.51209677419355  C 0.347656249999986 1.52016129032258  0.347656249999986 1.52822580645161  0.343749999999987 1.53629032258064  C 0.339843749999986 1.54435483870967  0.339843749999986 1.55241935483871  0.335937499999988 1.56451612903226  C 0.332031249999987 1.57258064516129  0.332031249999987 1.58064516129032  0.328124999999988 1.58870967741935  C 0.324218749999987 1.59677419354838  0.324218749999987 1.60887096774193  0.320312499999988 1.61693548387096  C 0.320312499999988 1.625  0.316406249999988 1.63306451612903  0.316406249999988 1.64112903225806  C 0.312499999999987 1.64919354838709  0.312499999999987 1.66129032258064  0.312499999999987 1.66935483870967  C 0.312499999999987 1.6774193548387  0.308593749999986 1.68548387096774  0.308593749999986 1.69354838709677  C 0.308593749999986 1.7016129032258  0.304687499999985 1.71370967741935  0.304687499999985 1.72177419354838  C 0.304687499999985 1.72983870967741  0.300781249999984 1.73790322580645  0.300781249999984 1.74193548387096  C 0.300781249999984 1.75403225806451  0.296874999999983 1.76209677419354  0.296874999999983 1.77419354838709  C 0.296874999999983 1.78225806451612  0.296874999999983 1.78629032258064  0.292968749999982 1.79435483870967  C 0.292968749999982 1.80645161290322  0.292968749999982 1.81854838709677  0.289062499999981 1.83064516129032  L 0.289062499999981 1.8991935483871  L 0.273437499999982 7.06854838709677  C 0.273437499999982 7.43548387096774  0.445312499999981 7.73387096774193  0.703124999999982 7.87903225806452  L 4.26562499999998 9.87903225806452  C 4.00781249999998 9.73387096774193  3.83203124999998 9.43548387096774  3.83593749999998 9.06854838709677  L 3.84374999999999 3.89516129032258  L 3.84374999999999 3.84274193548387  L 3.84374999999999 3.82661290322581  C 3.84374999999999 3.81451612903226  3.84374999999999 3.80241935483871  3.84765624999999 3.79032258064516  C 3.84765624999999 3.78225806451613  3.84765624999999 3.77822580645161  3.85156249999999 3.77016129032258  C 3.85156249999999 3.75806451612903  3.85546874999999 3.75  3.85546874999999 3.73790322580645  C 3.85546874999999 3.72983870967742  3.85937499999999 3.72177419354839  3.85937499999999 3.71774193548387  C 3.85937499999999 3.70967741935484  3.86328124999999 3.69758064516129  3.86328124999999 3.68951612903226  C 3.86328124999999 3.68145161290323  3.86718749999999 3.67338709677419  3.86718749999999 3.66532258064516  C 3.86718749999999 3.65725806451613  3.87109374999999 3.64516129032258  3.87109374999999 3.63709677419355  C 3.87109374999999 3.62903225806452  3.87499999999999 3.62096774193548  3.87499999999999 3.61290322580645  C 3.87890624999999 3.60483870967742  3.87890624999999 3.59274193548387  3.88281249999999 3.58467741935484  C 3.88671875 3.57661290322581  3.88671875 3.56854838709677  3.890625 3.56048387096774  C 3.89453125 3.55241935483871  3.89453125 3.54435483870968  3.8984375 3.53225806451613  C 3.90234375 3.5241935483871  3.90234375 3.51612903225806  3.90625 3.50806451612903  C 3.91015625 3.5  3.91015625 3.49193548387097  3.9140625 3.48387096774193  C 3.921875 3.45967741935483  3.93359375 3.43548387096774  3.94140625 3.41129032258064  C 3.9453125 3.40725806451612  3.9453125 3.40322580645161  3.94921875000001 3.39919354838709  C 3.9609375 3.375  3.96875000000001 3.3508064516129  3.98046875 3.33064516129032  C 3.984375 3.3266129032258  3.984375 3.32258064516129  3.98828125000001 3.31854838709677  C 3.99609375000001 3.30241935483871  4.00390625 3.28629032258064  4.01562500000001 3.27016129032258  C 4.01953125000001 3.26612903225806  4.01953125000001 3.26209677419355  4.02343750000001 3.25806451612903  C 4.03515625000001 3.23790322580645  4.04687500000001 3.22177419354838  4.05859375000001 3.2016129032258  C 4.06250000000001 3.19758064516129  4.06250000000001 3.19354838709677  4.06640625000001 3.18951612903225  C 4.07421875000001 3.1774193548387  4.08593750000001 3.16129032258064  4.09765625000001 3.14919354838709  C 4.10156250000001 3.14516129032258  4.10546875000001 3.14112903225806  4.10937500000001 3.13306451612903  C 4.12109375 3.12096774193548  4.12890625000001 3.10483870967742  4.140625 3.09274193548387  C 4.14453125000001 3.08870967741935  4.14453125000001 3.08467741935483  4.14843750000001 3.08467741935483  C 4.16015625 3.06854838709677  4.17578125000001 3.0524193548387  4.19140625000001 3.04032258064516  L 4.20312500000001 3.02822580645161  C 4.21484375 3.01612903225806  4.22656250000001 3.00403225806451  4.23828125 2.99596774193548  L 4.25 2.98387096774193  C 4.265625 2.96774193548387  4.28125 2.95564516129032  4.296875 2.94354838709677  L 4.30078125000001 2.93951612903225  L 4.34765625000001 2.90322580645161  C 4.35156250000001 2.89919354838709  4.35546875000001 2.89919354838709  4.35937500000001 2.89516129032258  C 4.37890625000001 2.87903225806451  4.40234375000001 2.86693548387096  4.42187500000001 2.85483870967741  C 4.42578125000001 2.8508064516129  4.42968750000001 2.8508064516129  4.43359375 2.84677419354838  C 4.45703125000001 2.83467741935483  4.48046875000001 2.82258064516129  4.50000000000001 2.81048387096774  C 4.50390625000001 2.81048387096774  4.50781250000001 2.80645161290322  4.50781250000001 2.80645161290322  C 4.52343750000001 2.79838709677419  4.53906250000001 2.79032258064516  4.55859375000001 2.78629032258064  C 4.56250000000001 2.78225806451612  4.5703125 2.78225806451612  4.57421875000001 2.78225806451612  C 4.59375000000001 2.77419354838709  4.61328125000001 2.76612903225806  4.63281250000001 2.76209677419354  L 4.64062500000001 2.76209677419354  C 4.66015625000001 2.75806451612903  4.67578125000001 2.75  4.69531250000001 2.74596774193548  C 4.69921875000001 2.74596774193548  4.70703125 2.74193548387096  4.71093750000001 2.74193548387096  C 4.73046875000001 2.73790322580645  4.75000000000001 2.73387096774193  4.77343750000001 2.72983870967741  L 9.41796875 2.05645161290323  C 9.4453125 2.05241935483871  9.46875 2.05241935483871  9.4921875 2.04838709677419  Z " fill-rule="nonzero" fill="#d30032" stroke="none" transform="matrix(1 0 0 1 942 32 )" />
  </g>
</svg>