<?xml version="1.0" encoding="utf-8"?>
<svg version="1.1" xmlns:xlink="http://www.w3.org/1999/xlink" width="10px" height="10px" xmlns="http://www.w3.org/2000/svg">
  <g transform="matrix(1 0 0 1 -935 -33 )">
    <path d="M 9.54435483870967 2.01612903225807  C 9.55241935483871 2.0241935483871  9.56048387096774 2.0241935483871  9.56854838709677 2.02016129032258  L 9.64919354838709 2.02016129032258  C 9.66532258064516 2.02016129032258  9.68145161290322 2.0241935483871  9.7016129032258 2.0241935483871  C 9.70967741935484 2.0241935483871  9.71774193548387 2.02822580645161  9.7258064516129 2.02822580645161  L 9.78629032258064 2.04032258064516  C 9.79032258064516 2.04032258064516  9.79435483870968 2.04032258064516  9.79838709677419 2.04435483870968  C 9.82258064516129 2.05241935483871  9.84677419354838 2.05645161290323  9.86693548387097 2.06451612903226  C 9.875 2.06854838709677  9.87903225806451 2.06854838709677  9.88709677419355 2.07258064516129  C 9.90322580645161 2.08064516129032  9.91935483870967 2.08467741935484  9.93548387096774 2.09274193548387  C 9.94758064516129 2.1008064516129  9.96370967741936 2.10483870967742  9.9758064516129 2.11290322580645  L 6.29838709677419 0.112903225806451  C 6.29032258064516 0.108870967741935  6.27822580645161 0.100806451612902  6.27016129032258 0.0967741935483862  C 6.26612903225806 0.0967741935483862  6.26209677419355 0.0927419354838703  6.25806451612903 0.0927419354838703  C 6.24193548387097 0.0846774193548385  6.2258064516129 0.0766129032258055  6.20967741935484 0.0725806451612896  C 6.20161290322581 0.0685483870967737  6.19758064516129 0.0685483870967737  6.18951612903226 0.0645161290322578  C 6.16532258064516 0.056451612903226  6.14112903225806 0.0483870967741931  6.12096774193548 0.0443548387096772  C 6.11693548387097 0.0443548387096772  6.11290322580645 0.0443548387096772  6.10887096774194 0.0403225806451613  L 6.04838709677419 0.0282258064516124  C 6.04032258064516 0.0282258064516124  6.03225806451613 0.0241935483870965  6.0241935483871 0.0241935483870965  C 6.00806451612903 0.0201612903225806  5.99193548387097 0.0201612903225806  5.97177419354839 0.0201612903225806  L 5.86693548387097 0.0201612903225806  C 5.84274193548387 0.0201612903225806  5.81451612903226 0.0241935483870965  5.79032258064516 0.0282258064516124  L 0.995967741935481 0.701612903225806  C 0.967741935483869 0.705645161290321  0.943548387096771 0.709677419354837  0.915322580645159 0.71774193548387  C 0.907258064516127 0.71774193548387  0.899193548387095 0.721774193548386  0.891129032258061 0.725806451612902  C 0.874999999999997 0.729838709677418  0.854838709677417 0.733870967741934  0.838709677419351 0.741935483870967  C 0.830645161290319 0.745967741935483  0.81854838709677 0.749999999999999  0.810483870967738 0.749999999999999  C 0.794354838709675 0.754032258064514  0.778225806451609 0.762096774193547  0.762096774193545 0.766129032258063  C 0.754032258064513 0.770161290322579  0.741935483870965 0.774193548387095  0.733870967741933 0.778225806451612  C 0.729838709677416 0.782258064516128  0.721774193548384 0.782258064516128  0.717741935483869 0.786290322580644  L 0.693548387096771 0.798387096774193  C 0.681451612903223 0.806451612903225  0.665322580645159 0.810483870967742  0.65322580645161 0.818548387096773  C 0.641129032258061 0.826612903225805  0.629032258064512 0.830645161290322  0.616935483870966 0.838709677419354  C 0.604838709677417 0.846774193548386  0.592741935483868 0.854838709677419  0.576612903225805 0.862903225806451  C 0.572580645161288 0.866935483870967  0.564516129032256 0.870967741935482  0.560483870967741 0.875  C 0.552419354838709 0.879032258064515  0.544354838709677 0.887096774193548  0.536290322580643 0.891129032258064  C 0.528225806451612 0.89516129032258  0.52016129032258 0.903225806451613  0.512096774193546 0.911290322580645  C 0.495967741935482 0.923387096774194  0.483870967741933 0.935483870967741  0.467741935483867 0.94758064516129  C 0.459677419354836 0.951612903225806  0.455645161290318 0.959677419354839  0.447580645161287 0.963709677419355  L 0.44354838709677 0.967741935483871  C 0.427419354838706 0.983870967741936  0.407258064516125 1  0.39112903225806 1.01612903225806  C 0.387096774193542 1.02016129032258  0.387096774193542 1.0241935483871  0.383064516129028 1.0241935483871  C 0.370967741935479 1.03629032258064  0.35887096774193 1.05241935483871  0.346774193548383 1.06451612903226  C 0.342741935483866 1.06854838709677  0.342741935483866 1.07258064516129  0.338709677419352 1.07661290322581  C 0.334677419354835 1.08467741935484  0.326612903225803 1.08870967741935  0.322580645161288 1.09677419354839  C 0.310483870967739 1.11290322580645  0.29838709677419 1.125  0.286290322580644 1.14112903225806  C 0.282258064516127 1.1491935483871  0.274193548387095 1.15725806451613  0.27016129032258 1.16129032258064  C 0.266129032258063 1.16532258064516  0.262096774193548 1.16935483870968  0.262096774193548 1.17338709677419  L 0.237903225806451 1.20967741935484  C 0.233870967741934 1.21774193548387  0.229838709677419 1.2258064516129  0.221774193548387 1.22983870967742  C 0.205645161290323 1.25403225806452  0.193548387096775 1.27822580645161  0.181451612903226 1.30241935483871  C 0.177419354838709 1.31048387096774  0.173387096774194 1.32258064516129  0.169354838709677 1.33064516129032  C 0.161290322580645 1.34677419354839  0.153225806451613 1.36290322580645  0.145161290322579 1.38306451612903  C 0.141129032258062 1.39516129032258  0.137096774193547 1.40725806451613  0.13306451612903 1.41532258064516  C 0.124999999999999 1.43145161290323  0.120967741935482 1.44758064516129  0.11290322580645 1.46370967741936  C 0.104838709677418 1.48387096774194  0.100806451612901 1.50403225806452  0.0927419354838691 1.52016129032258  C 0.0887096774193521 1.52822580645161  0.0846774193548373 1.54032258064516  0.0846774193548373 1.54838709677419  C 0.0766129032258055 1.57661290322581  0.0685483870967737 1.60887096774194  0.0645161290322567 1.63709677419355  C 0.0483870967741931 1.70967741935484  0.040322580645159 1.78629032258064  0.040322580645159 1.86290322580645  L 0.0322580645161272 7.03629032258065  C 0.0322580645161272 7.11290322580645  0.040322580645159 7.18548387096774  0.0564516129032249 7.25403225806452  C 0.11290322580645 7.52016129032258  0.266129032258063 7.72983870967742  0.479838709677418 7.84274193548387  L 4.15725806451613 9.84274193548387  C 3.94354838709677 9.72580645161291  3.79032258064516 9.51612903225806  3.73387096774193 9.25403225806452  C 3.71774193548387 9.18548387096774  3.70967741935484 9.10887096774193  3.70967741935484 9.03629032258065  L 3.71774193548387 3.86290322580645  C 3.71774193548387 3.78629032258065  3.7258064516129 3.70967741935484  3.74193548387097 3.63709677419355  C 3.74596774193548 3.60887096774194  3.75403225806451 3.57661290322581  3.76209677419355 3.54838709677419  C 3.76612903225806 3.54032258064516  3.77016129032258 3.52822580645161  3.77016129032258 3.52016129032258  C 3.7741935483871 3.5  3.78225806451613 3.47983870967742  3.79032258064516 3.46370967741936  C 3.79838709677419 3.44758064516129  3.80241935483871 3.43145161290323  3.81048387096774 3.41532258064516  C 3.81451612903226 3.40322580645161  3.81854838709677 3.39112903225807  3.82258064516129 3.38306451612903  C 3.83064516129032 3.36693548387097  3.83870967741935 3.34677419354839  3.84677419354839 3.33064516129032  C 3.8508064516129 3.32258064516129  3.85483870967742 3.31048387096774  3.85887096774194 3.30241935483871  C 3.87096774193548 3.27822580645161  3.88709677419355 3.25403225806452  3.8991935483871 3.22983870967742  C 3.90322580645161 3.22177419354839  3.90725806451613 3.21370967741936  3.91532258064516 3.20967741935484  C 3.92741935483871 3.19354838709678  3.93548387096774 3.17741935483871  3.94758064516129 3.16129032258065  C 3.95161290322581 3.15322580645161  3.95967741935484 3.14516129032258  3.96370967741935 3.14112903225807  C 3.9758064516129 3.125  3.98790322580645 3.11290322580645  4 3.09677419354839  C 4.00403225806451 3.08870967741936  4.01209677419355 3.08467741935484  4.01612903225806 3.07661290322581  C 4.03225806451612 3.06048387096774  4.04838709677419 3.04435483870968  4.06048387096774 3.0241935483871  C 4.06451612903226 3.02016129032258  4.06451612903226 3.01612903225806  4.06854838709677 3.01612903225806  L 4.125 2.95967741935484  C 4.13306451612903 2.95564516129032  4.13709677419354 2.94758064516129  4.14516129032258 2.94354838709678  C 4.15725806451613 2.93145161290323  4.17338709677419 2.91935483870968  4.18951612903225 2.90725806451613  C 4.19758064516129 2.8991935483871  4.20564516129032 2.89516129032258  4.21370967741935 2.88709677419355  C 4.2258064516129 2.87903225806452  4.23790322580645 2.86693548387097  4.25403225806451 2.85887096774194  C 4.26612903225806 2.85080645161291  4.27822580645161 2.84274193548388  4.29435483870968 2.83467741935484  C 4.30645161290322 2.82661290322581  4.31854838709677 2.81854838709678  4.33064516129032 2.81451612903226  C 4.34274193548387 2.80645161290323  4.35887096774193 2.7983870967742  4.37096774193548 2.79435483870968  C 4.38306451612903 2.78629032258065  4.39919354838709 2.78225806451613  4.41129032258064 2.7741935483871  C 4.41935483870967 2.77016129032258  4.43145161290322 2.76612903225807  4.43951612903225 2.76209677419355  C 4.45564516129032 2.75403225806452  4.47177419354838 2.75  4.48790322580645 2.74596774193549  C 4.49596774193548 2.74193548387097  4.50806451612903 2.73790322580646  4.51612903225806 2.73790322580646  C 4.53225806451612 2.73387096774194  4.5524193548387 2.72580645161291  4.56854838709677 2.72177419354839  C 4.5766129032258 2.71774193548387  4.58467741935483 2.71774193548387  4.59274193548387 2.71370967741936  C 4.61693548387097 2.70967741935484  4.64516129032258 2.70161290322581  4.67338709677419 2.6975806451613  L 9.46774193548387 2.0241935483871  C 9.49596774193548 2.02016129032259  9.52016129032258 2.02016129032259  9.54435483870967 2.01612903225807  Z " fill-rule="nonzero" fill="#ffa300" stroke="none" transform="matrix(1 0 0 1 935 33 )" />
  </g>
</svg>