<?xml version="1.0" encoding="utf-8"?>
<svg version="1.1" xmlns:xlink="http://www.w3.org/1999/xlink" width="10px" height="10px" xmlns="http://www.w3.org/2000/svg">
  <g transform="matrix(1 0 0 1 -929 -33 )">
    <path d="M 9.36328125000001 2.25390625  C 9.36328125000001 2.2421875  9.37109375000001 2.2421875  9.37890625 2.2421875  L 9.45703125 2.2421875  C 9.47265625 2.2421875  9.48828125 2.24609375  9.5078125 2.24609375  C 9.515625 2.24609375  9.5234375 2.24609375  9.53125 2.25  C 9.55078125 2.25390625  9.5703125 2.2578125  9.59375 2.26171875  L 9.6015625 2.26171875  C 9.625 2.26953125  9.6484375 2.2734375  9.66796875 2.28125  C 9.67578125 2.28515625  9.6796875 2.28515625  9.6875 2.2890625  C 9.703125 2.296875  9.71875 2.30078125  9.734375 2.30859375  C 9.74609375 2.31640625  9.76171875 2.3203125  9.7734375 2.328125  L 9.265625 2.05078125  L 6.2109375 0.39453125  C 6.203125 0.390625  6.19140625 0.38671875  6.18359375 0.37890625  C 6.1796875 0.37890625  6.17578125 0.375  6.171875 0.375  C 6.15625 0.3671875  6.140625 0.359375  6.125 0.35546875  C 6.1171875 0.3515625  6.11328125 0.3515625  6.10546875 0.34765625  C 6.08203125 0.339843750000001  6.0625 0.33203125  6.0390625 0.328125  L 6.03125 0.328125  C 6.01171875 0.32421875  5.9921875 0.320312500000001  5.96875 0.31640625  C 5.9609375 0.31640625  5.953125 0.3125  5.9453125 0.3125  C 5.9296875 0.30859375  5.9140625 0.30859375  5.89453125 0.30859375  L 5.79296875 0.30859375  C 5.76953125 0.30859375  5.7421875 0.3125  5.71484375 0.31640625  L 1.0703125 0.968749999999999  C 1.05078125 0.972656249999999  1.02734375 0.976562499999999  1.0078125 0.98046875  C 1.00390625 0.98046875  0.99609375 0.984375  0.9921875 0.984375  C 0.97265625 0.988281249999999  0.95703125 0.992187499999999  0.9375 1  L 0.9296875 1  C 0.91015625 1.0078125  0.890625 1.01171875  0.87109375 1.01953125  C 0.867187500000001 1.01953125  0.859375 1.0234375  0.85546875 1.0234375  C 0.83984375 1.03125  0.82421875 1.03515625  0.8046875 1.04296875  C 0.80078125 1.04296875  0.80078125 1.04296875  0.796875 1.046875  L 0.79296875 1.046875  C 0.769531250000001 1.05859375  0.746093750000001 1.0703125  0.726562500000001 1.08203125  C 0.722656250000001 1.0859375  0.718750000000001 1.0859375  0.71484375 1.08984375  C 0.691406250000001 1.1015625  0.671875000000001 1.1171875  0.652343750000001 1.12890625  L 0.648437500000001 1.1328125  C 0.644531250000001 1.1328125  0.644531250000001 1.13671875  0.640625000000001 1.13671875  L 0.593750000000002 1.171875  L 0.589843750000002 1.17578125  C 0.574218750000002 1.1875  0.558593750000002 1.203125  0.542968750000002 1.21484375  L 0.539062500000003 1.21875  L 0.531250000000003 1.2265625  C 0.519531250000003 1.23828125  0.507812500000003 1.24609375  0.496093750000003 1.2578125  L 0.484375000000002 1.26953125  L 0.441406250000003 1.3125  L 0.441406250000003 1.31640625  C 0.437500000000003 1.3203125  0.437500000000003 1.3203125  0.437500000000003 1.32421875  C 0.425781250000002 1.3359375  0.417968750000003 1.34765625  0.406250000000002 1.36328125  C 0.402343750000003 1.3671875  0.398437500000003 1.37109375  0.394531250000002 1.37890625  C 0.382812500000002 1.390625  0.375000000000002 1.40625  0.363281250000002 1.41796875  C 0.363281250000002 1.421875  0.359375000000002 1.421875  0.359375000000002 1.42578125  L 0.359375000000002 1.4296875  C 0.347656250000001 1.4453125  0.335937500000002 1.46484375  0.324218750000002 1.484375  C 0.320312500000002 1.48828125  0.320312500000002 1.4921875  0.316406250000002 1.49609375  C 0.308593750000002 1.51171875  0.296875000000002 1.52734375  0.289062500000002 1.54296875  C 0.289062500000002 1.546875  0.285156250000003 1.546875  0.285156250000003 1.55078125  L 0.285156250000003 1.5546875  C 0.273437500000002 1.578125  0.261718750000003 1.59765625  0.253906250000002 1.62109375  C 0.250000000000002 1.625  0.250000000000002 1.62890625  0.246093750000003 1.6328125  C 0.234375000000002 1.65625  0.226562500000003 1.6796875  0.218750000000003 1.703125  L 0.218750000000003 1.70703125  C 0.214843750000003 1.71484375  0.214843750000003 1.72265625  0.210937500000004 1.73046875  C 0.207031250000004 1.73828125  0.207031250000004 1.74609375  0.203125000000004 1.75390625  C 0.199218750000004 1.76171875  0.199218750000004 1.76953125  0.195312500000004 1.78125  C 0.191406250000005 1.7890625  0.191406250000005 1.796875  0.187500000000005 1.8046875  C 0.183593750000005 1.8125  0.183593750000005 1.82421875  0.179687500000005 1.83203125  C 0.179687500000005 1.83984375  0.175781250000006 1.84765625  0.175781250000006 1.85546875  C 0.171875000000006 1.86328125  0.171875000000006 1.875  0.171875000000006 1.8828125  C 0.171875000000006 1.890625  0.167968750000006 1.8984375  0.167968750000006 1.90625  C 0.167968750000006 1.9140625  0.164062500000006 1.92578125  0.164062500000006 1.93359375  C 0.164062500000006 1.94140625  0.160156250000006 1.94921875  0.160156250000006 1.953125  C 0.160156250000006 1.96484375  0.156250000000007 1.97265625  0.156250000000007 1.984375  C 0.156250000000007 1.9921875  0.156250000000007 1.99609375  0.152343750000007 2.00390625  C 0.152343750000007 2.015625  0.152343750000007 2.02734375  0.148437500000007 2.0390625  L 0.148437500000007 2.10546875  L 0.140625000000008 7.1171875  C 0.140625000000008 7.47265625  0.312500000000008 7.76171875  0.570312500000008 7.90234375  L 4.13281250000001 9.83984375  C 3.87500000000001 9.69921875  3.69921875000001 9.41015625  3.70312500000001 9.0546875  L 3.71093750000001 4.04296875  L 3.71093750000001 3.9921875  L 3.71093750000001 3.9765625  C 3.71093750000001 3.96484375  3.71093750000001 3.953125  3.71484375000001 3.94140625  C 3.71484375000001 3.93359375  3.71484375000001 3.9296875  3.71875000000001 3.921875  C 3.71875000000001 3.91015625  3.72265625000001 3.90234375  3.72265625000001 3.890625  C 3.72265625000001 3.8828125  3.72656250000001 3.875  3.72656250000001 3.87109375  C 3.72656250000001 3.86328125  3.73046875000001 3.8515625  3.73046875000001 3.84375  C 3.73046875000001 3.8359375  3.73437500000001 3.828125  3.73437500000001 3.8203125  C 3.73437500000001 3.8125  3.73828125000001 3.80078125  3.73828125000001 3.79296875  C 3.73828125000001 3.78515625  3.74218750000001 3.77734375  3.74218750000001 3.76953125  C 3.74609375000001 3.76171875  3.74609375000001 3.75  3.75000000000001 3.7421875  C 3.75390625000001 3.734375  3.75390625000001 3.7265625  3.75781250000001 3.71875  C 3.76171875000001 3.7109375  3.76171875000001 3.703125  3.76562500000001 3.69140625  C 3.76953125000001 3.68359375  3.76953125000001 3.67578125  3.77343750000001 3.66796875  C 3.77734375000001 3.66015625  3.77734375000001 3.65234375  3.78125000000001 3.64453125  C 3.78906250000001 3.62109375  3.80078125000001 3.59765625  3.80859375000001 3.57421875  C 3.81250000000001 3.5703125  3.81250000000001 3.56640625  3.81640625000001 3.5625  C 3.82812500000001 3.5390625  3.83593750000001 3.515625  3.84765625000001 3.49609375  C 3.85156250000001 3.4921875  3.85156250000001 3.48828125  3.85546875000001 3.484375  C 3.86328125000001 3.46875  3.87109375000001 3.453125  3.88281250000001 3.4375  C 3.88671875000001 3.43359375  3.88671875000001 3.4296875  3.89062500000001 3.42578125  C 3.90234375000001 3.40625  3.91406250000001 3.390625  3.92578125000001 3.37109375  C 3.92968750000001 3.3671875  3.92968750000001 3.36328125  3.93359375000001 3.359375  C 3.94140625000001 3.34765625  3.95312500000001 3.33203125  3.96484375000001 3.3203125  C 3.96875000000001 3.31640625  3.97265625000001 3.3125  3.97656250000001 3.3046875  C 3.98828125000001 3.29296875  3.99609375000001 3.27734375  4.00781250000001 3.265625  C 4.01171875000001 3.26171875  4.01171875000001 3.2578125  4.01562500000001 3.2578125  C 4.02734375000001 3.2421875  4.04296875000001 3.2265625  4.05859375000001 3.21484375  L 4.07031250000001 3.203125  C 4.08203125000001 3.19140625  4.09375000000001 3.1796875  4.10546875000001 3.171875  L 4.11718750000001 3.16015625  C 4.13281250000001 3.14453125  4.14843750000001 3.1328125  4.16406250000001 3.12109375  L 4.16796875000001 3.1171875  L 4.21484375000001 3.08203125  C 4.21875000000001 3.078125  4.22265625000001 3.078125  4.22656250000001 3.07421875  C 4.24609375000001 3.05859375  4.26953125000001 3.046875  4.28906250000001 3.03515625  C 4.29296875000001 3.03125  4.29687500000001 3.03125  4.30078125000001 3.02734375  C 4.32421875000001 3.015625  4.34765625000001 3.00390625  4.36718750000001 2.9921875  C 4.37109375000001 2.9921875  4.37500000000001 2.98828125  4.37500000000001 2.98828125  C 4.39062500000001 2.98046875  4.40625000000001 2.97265625  4.42578125000001 2.96875  C 4.42968750000001 2.96484375  4.43750000000001 2.96484375  4.44140625000001 2.96484375  C 4.46093750000001 2.95703125  4.48046875000001 2.94921875  4.50000000000001 2.9453125  L 4.50781250000001 2.9453125  C 4.52734375000001 2.94140625  4.54296875000001 2.93359375  4.56250000000001 2.9296875  C 4.56640625000001 2.9296875  4.57421875000001 2.92578125  4.57812500000001 2.92578125  C 4.59765625000001 2.921875  4.61718750000001 2.91796875  4.64062500000001 2.9140625  L 9.28515625000001 2.26171875  C 9.31250000000001 2.2578125  9.33593750000001 2.2578125  9.36328125000001 2.25390625  Z " fill-rule="nonzero" fill="#ffa300" stroke="none" transform="matrix(1 0 0 1 929 33 )" />
  </g>
</svg>