<?xml version="1.0" encoding="utf-8"?>
<svg version="1.1" xmlns:xlink="http://www.w3.org/1999/xlink" width="7px" height="7px" xmlns="http://www.w3.org/2000/svg">
  <g transform="matrix(1 0 0 1 -932 -36 )">
    <path d="M 1.21704545454546 0.637000000000002  L 5.94602272727273 0.0560000000000008  C 6.39545454545455 0  6.77329545454545 0.2555  6.86477272727273 0.644000000000001  C 6.84886363636364 0.707000000000002  6.84090909090909 0.773500000000001  6.84090909090909 0.840000000000002  L 6.83295454545455 5.3305  C 6.83295454545455 5.397  6.84090909090909 5.46  6.85681818181818 5.5195  C 6.76136363636364 5.9325  6.38352272727273 6.279  5.93409090909091 6.335  L 1.20511363636364 6.9195  C 0.688068181818185 6.9825  0.262500000000003 6.6325  0.262500000000003 6.139  L 0.270454545454548 1.6485  C 0.270454545454548 1.155  0.69602272727273 0.7  1.21704545454546 0.637000000000002  Z " fill-rule="nonzero" fill="#fdf17f" stroke="none" transform="matrix(1 0 0 1 932 36 )" />
  </g>
</svg>