<?xml version="1.0" encoding="utf-8"?>
<svg version="1.1" xmlns:xlink="http://www.w3.org/1999/xlink" width="6px" height="9px" xmlns="http://www.w3.org/2000/svg">
  <g transform="matrix(1 0 0 1 -936 -45 )">
    <path d="M 0.86428571428571 0.956250000000001  L 5.11428571428571 0.237980769230769  C 5.51785714285714 0.168749999999999  5.85714285714286 0.484615384615387  5.93928571428571 0.964903846153844  C 5.925 1.04278846153846  5.91785714285714 1.125  5.91785714285714 1.20721153846154  L 5.91071428571428 6.76298076923077  C 5.91071428571428 6.8451923076923  5.91785714285714 6.92307692307692  5.92857142857143 6.99663461538461  C 5.84285714285714 7.50721153846153  5.50357142857142 7.93990384615384  5.1 8.00480769230769  L 0.853571428571424 8.72740384615384  C 0.389285714285709 8.80528846153846  0.00714285714285268 8.37259615384615  0.00714285714285268 7.7625  L 0.0142857142857094 2.20673076923077  C 0.0142857142857094 1.59663461538461  0.396428571428566 1.03413461538461  0.86428571428571 0.956250000000001  Z " fill-rule="nonzero" fill="#50e6cc" stroke="none" transform="matrix(1 0 0 1 936 45 )" />
  </g>
</svg>