<?xml version="1.0" encoding="utf-8"?>
<svg version="1.1" xmlns:xlink="http://www.w3.org/1999/xlink" width="7px" height="7px" xmlns="http://www.w3.org/2000/svg">
  <g transform="matrix(1 0 0 1 -946 -52 )">
    <path d="M 1.23693181818182 0.682500000000004  L 5.96590909090909 0.0945000000000016  C 6.48295454545455 0.0315000000000032  6.90852272727273 0.381500000000003  6.90852272727273 0.875  L 6.90056818181818 5.3655  C 6.90056818181818 5.859  6.475 6.314  5.95795454545454 6.377  L 1.225 6.9615  C 0.775568181818182 7.0175  0.397727272727273 6.762  0.306249999999997 6.3735  C 0.290340909090907 6.314  0.28238636363636 6.251  0.28238636363636 6.1845  L 0.290340909090907 1.694  C 0.290340909090907 1.6275  0.298295454545455 1.561  0.314204545454545 1.498  C 0.409659090909089 1.085  0.787499999999998 0.738500000000001  1.23693181818182 0.682500000000004  Z " fill-rule="nonzero" fill="#50e6cc" stroke="none" transform="matrix(1 0 0 1 946 52 )" />
  </g>
</svg>