<?xml version="1.0" encoding="utf-8"?>
<svg version="1.1" xmlns:xlink="http://www.w3.org/1999/xlink" width="6px" height="7px" xmlns="http://www.w3.org/2000/svg">
  <g transform="matrix(1 0 0 1 -936 -38 )">
    <path d="M 0.878571428571427 0.651000000000001  L 5.125 0.07  C 5.52857142857143 0.0139999999999992  5.86785714285714 0.2695  5.95 0.658  C 5.93571428571429 0.721000000000001  5.92857142857143 0.7875  5.92857142857143 0.854000000000001  L 5.92142857142857 5.3445  C 5.92142857142857 5.411  5.92857142857143 5.474  5.94285714285714 5.5335  C 5.85714285714286 5.9465  5.51785714285714 6.293  5.11428571428571 6.349  L 0.867857142857141 6.9335  C 0.403571428571427 6.9965  0.0214285714285702 6.6465  0.0214285714285702 6.153  L 0.0285714285714269 1.6625  C 0.0285714285714269 1.169  0.410714285714284 0.713999999999999  0.878571428571427 0.651000000000001  Z " fill-rule="nonzero" fill="#fdf17f" stroke="none" transform="matrix(1 0 0 1 936 38 )" />
  </g>
</svg>