<?xml version="1.0" encoding="utf-8"?>
<svg version="1.1" xmlns:xlink="http://www.w3.org/1999/xlink" width="10px" height="10px" xmlns="http://www.w3.org/2000/svg">
  <g transform="matrix(1 0 0 1 -945 -48 )">
    <path d="M 9.96774193548386 2.12903225806451  L 6.28225806451613 0.13306451612903  C 6.13306451612903 0.0524193548387078  5.95967741935484 0.0201612903225806  5.77419354838709 0.0443548387096738  L 0.979838709677417 0.717741935483869  C 0.959677419354837 0.721774193548386  0.935483870967739 0.725806451612903  0.915322580645159 0.729838709677416  C 0.911290322580641 0.729838709677416  0.903225806451612 0.733870967741933  0.899193548387095 0.733870967741933  C 0.879032258064514 0.73790322580645  0.862903225806451 0.741935483870967  0.84274193548387 0.749999999999996  L 0.834677419354836 0.749999999999996  C 0.814516129032255 0.75806451612903  0.794354838709675 0.762096774193543  0.774193548387094 0.770161290322577  C 0.770161290322577 0.770161290322577  0.762096774193547 0.774193548387094  0.75806451612903 0.774193548387094  C 0.741935483870967 0.782258064516128  0.725806451612903 0.786290322580641  0.705645161290323 0.794354838709675  C 0.701612903225806 0.794354838709675  0.701612903225806 0.794354838709675  0.697580645161288 0.798387096774192  L 0.693548387096771 0.798387096774192  C 0.669354838709674 0.810483870967738  0.645161290322576 0.822580645161289  0.624999999999995 0.834677419354836  C 0.620967741935478 0.838709677419353  0.616935483870961 0.838709677419353  0.612903225806449 0.84274193548387  C 0.588709677419351 0.854838709677417  0.56854838709677 0.870967741935485  0.54838709677419 0.883064516129031  L 0.544354838709673 0.887096774193548  C 0.540322580645156 0.887096774193548  0.540322580645156 0.891129032258066  0.536290322580639 0.891129032258066  L 0.487903225806443 0.92741935483871  L 0.483870967741926 0.931451612903227  C 0.467741935483863 0.943548387096773  0.451612903225799 0.959677419354841  0.435483870967731 0.971774193548388  L 0.431451612903214 0.975806451612905  L 0.42338709677418 0.983870967741939  C 0.411290322580633 0.995967741935486  0.399193548387082 1.00403225806452  0.387096774193536 1.01612903225807  L 0.374999999999989 1.02822580645161  L 0.330645161290311 1.07258064516129  C 0.326612903225794 1.07661290322581  0.326612903225794 1.07661290322581  0.326612903225794 1.08064516129033  C 0.314516129032247 1.09274193548387  0.302419354838696 1.10483870967742  0.294354838709666 1.12096774193549  C 0.290322580645149 1.125  0.286290322580632 1.12903225806452  0.28225806451612 1.13709677419355  C 0.270161290322573 1.1491935483871  0.262096774193539 1.16532258064516  0.249999999999993 1.17741935483871  C 0.249999999999993 1.18145161290323  0.245967741935476 1.18145161290323  0.245967741935476 1.18548387096775  L 0.245967741935476 1.18951612903226  C 0.233870967741929 1.20564516129033  0.221774193548378 1.22580645161291  0.209677419354831 1.24596774193549  C 0.205645161290314 1.25  0.205645161290314 1.25403225806452  0.201612903225797 1.25806451612903  C 0.193548387096763 1.2741935483871  0.181451612903217 1.29032258064516  0.173387096774183 1.30645161290323  C 0.173387096774183 1.31048387096775  0.169354838709666 1.31048387096775  0.169354838709666 1.31451612903226  L 0.169354838709666 1.31854838709678  C 0.157258064516119 1.34274193548388  0.145161290322568 1.36290322580646  0.137096774193538 1.38709677419356  C 0.133064516129021 1.39112903225807  0.133064516129021 1.39516129032259  0.129032258064504 1.3991935483871  C 0.116935483870958 1.4233870967742  0.108870967741924 1.4475806451613  0.100806451612889 1.47177419354839  L 0.100806451612889 1.47580645161291  C 0.0967741935483724 1.48387096774194  0.0967741935483724 1.49193548387097  0.0927419354838554 1.49596774193549  C 0.0887096774193383 1.50403225806452  0.0887096774193383 1.51209677419355  0.0846774193548213 1.52016129032259  C 0.0806451612903042 1.52822580645162  0.0806451612903042 1.53629032258065  0.0766129032257872 1.5483870967742  C 0.0725806451612701 1.55645161290324  0.0725806451612701 1.56451612903227  0.0685483870967531 1.5725806451613  C 0.0645161290322361 1.58064516129033  0.0645161290322361 1.58870967741936  0.060483870967719 1.60080645161291  C 0.060483870967719 1.60887096774195  0.056451612903202 1.61693548387098  0.056451612903202 1.62500000000001  C 0.0524193548386849 1.63306451612905  0.0524193548386849 1.64516129032259  0.0524193548386849 1.65322580645163  C 0.0524193548386849 1.66129032258066  0.0483870967741679 1.66935483870969  0.0483870967741679 1.67741935483872  C 0.0483870967741679 1.68548387096776  0.0443548387096508 1.6975806451613  0.0443548387096508 1.70564516129034  C 0.0443548387096508 1.71370967741937  0.0403225806451338 1.7217741935484  0.0403225806451338 1.72983870967744  C 0.0403225806451338 1.74193548387098  0.0362903225806167 1.75000000000002  0.0362903225806167 1.76209677419356  C 0.0362903225806167 1.7701612903226  0.0362903225806167 1.77419354838711  0.0322580645160997 1.78225806451614  C 0.0322580645160997 1.79435483870969  0.0322580645160997 1.80645161290324  0.0282258064515826 1.81854838709679  L 0.0282258064515826 1.88709677419355  L 0.0201612903225486 7.06048387096774  C 0.0201612903225486 7.26612903225806  0.0766129032257734 7.45161290322581  0.17338709677416 7.59677419354838  C 0.19354838709674 7.62903225806451  0.217741935483838 7.66129032258064  0.241935483870936 7.68951612903225  C 0.266129032258033 7.71774193548386  0.294354838709644 7.74596774193548  0.322580645161258 7.77016129032257  C 0.366935483870937 7.80645161290322  0.411290322580615 7.83870967741935  0.463709677419323 7.86693548387096  L 4.14112903225803 9.86693548387096  C 3.87499999999997 9.72177419354838  3.69354838709674 9.42338709677419  3.69758064516126 9.05645161290322  L 3.70564516129029 3.88306451612902  L 3.70564516129029 3.83064516129032  L 3.70564516129029 3.81451612903226  C 3.70564516129029 3.80241935483871  3.70564516129029 3.79032258064516  3.70967741935481 3.77822580645161  C 3.70967741935481 3.77016129032258  3.70967741935481 3.76612903225807  3.71370967741933 3.75806451612903  C 3.71370967741933 3.74596774193549  3.71774193548385 3.73790322580645  3.71774193548385 3.72580645161291  C 3.71774193548385 3.71774193548387  3.72177419354836 3.70967741935484  3.72177419354836 3.70161290322581  C 3.72177419354836 3.69354838709677  3.72580645161288 3.68145161290323  3.72580645161288 3.67338709677419  C 3.72580645161288 3.66532258064516  3.7298387096774 3.65725806451613  3.7298387096774 3.6491935483871  C 3.7298387096774 3.64112903225806  3.73387096774191 3.62903225806452  3.73387096774191 3.62096774193548  C 3.73387096774191 3.61290322580645  3.73790322580643 3.60483870967742  3.73790322580643 3.59677419354838  C 3.74193548387095 3.58870967741935  3.74193548387095 3.5766129032258  3.74596774193546 3.56854838709677  C 3.74999999999998 3.56048387096774  3.74999999999998 3.55241935483871  3.7540322580645 3.54435483870967  C 3.75806451612902 3.53629032258064  3.75806451612902 3.52822580645161  3.76209677419353 3.51612903225806  C 3.76612903225805 3.50806451612902  3.76612903225805 3.49999999999999  3.77016129032257 3.49193548387096  C 3.77419354838708 3.48387096774193  3.77419354838708 3.4758064516129  3.7782258064516 3.46774193548386  C 3.78629032258063 3.44354838709676  3.79838709677418 3.41935483870967  3.80645161290322 3.39516129032257  C 3.81048387096773 3.39112903225806  3.81048387096773 3.38709677419354  3.81451612903225 3.38306451612903  C 3.8266129032258 3.35887096774193  3.83467741935483 3.33870967741935  3.84677419354838 3.31451612903225  C 3.85080645161289 3.31048387096773  3.85080645161289 3.30645161290322  3.85483870967741 3.3024193548387  C 3.86290322580644 3.28629032258064  3.87096774193548 3.27016129032258  3.88306451612903 3.25403225806451  C 3.88709677419354 3.24999999999999  3.88709677419354 3.24596774193548  3.89112903225806 3.24193548387096  C 3.90322580645161 3.22177419354838  3.91532258064516 3.20564516129032  3.9274193548387 3.18548387096774  C 3.93145161290322 3.18145161290322  3.93145161290322 3.1774193548387  3.93548387096774 3.17338709677419  C 3.94354838709677 3.16129032258064  3.95564516129032 3.14516129032258  3.96774193548387 3.13306451612903  C 3.97177419354838 3.12903225806451  3.9758064516129 3.125  3.97983870967741 3.11693548387097  C 3.99193548387096 3.10483870967742  3.99999999999999 3.08870967741935  4.01209677419354 3.0766129032258  C 4.01612903225806 3.07258064516129  4.01612903225806 3.06854838709677  4.02016129032257 3.06854838709677  C 4.03225806451612 3.05241935483871  4.04838709677419 3.03629032258064  4.06451612903225 3.02419354838709  L 4.0766129032258 3.01209677419355  C 4.08870967741935 3  4.1008064516129 2.98790322580645  4.11290322580644 2.97983870967742  L 4.12499999999999 2.96774193548387  C 4.14112903225805 2.95161290322581  4.15725806451612 2.93951612903226  4.17338709677418 2.92741935483871  L 4.1774193548387 2.92338709677419  L 4.2258064516129 2.88709677419355  C 4.22983870967741 2.88306451612903  4.23387096774193 2.88306451612903  4.23790322580644 2.87903225806452  C 4.25806451612902 2.86290322580645  4.28225806451612 2.8508064516129  4.3024193548387 2.83870967741935  C 4.30645161290322 2.83467741935484  4.31048387096774 2.83467741935484  4.31451612903225 2.83064516129032  C 4.33870967741935 2.81854838709677  4.36290322580644 2.80645161290322  4.38306451612902 2.79435483870968  C 4.38709677419354 2.79435483870968  4.39112903225806 2.79032258064516  4.39112903225806 2.79032258064516  C 4.40725806451612 2.78225806451612  4.42338709677419 2.7741935483871  4.44354838709677 2.77016129032258  C 4.44758064516128 2.76612903225806  4.45564516129031 2.76612903225806  4.45967741935483 2.76612903225806  C 4.47983870967741 2.75806451612903  4.49999999999999 2.75  4.52016129032257 2.74596774193548  L 4.52822580645161 2.74596774193548  C 4.54838709677419 2.74193548387096  4.56451612903225 2.73387096774193  4.58467741935483 2.72983870967742  C 4.58870967741935 2.72983870967742  4.59677419354838 2.7258064516129  4.6008064516129 2.7258064516129  C 4.62096774193548 2.72177419354838  4.64112903225806 2.71774193548387  4.66532258064515 2.71370967741935  L 9.45967741935483 2.04032258064516  C 9.64516129032257 2.01209677419354  9.82258064516128 2.04838709677419  9.96774193548386 2.12903225806451  Z " fill-rule="nonzero" fill="#00a4ff" stroke="none" transform="matrix(1 0 0 1 945 48 )" />
  </g>
</svg>