<?xml version="1.0" encoding="utf-8"?>
<svg version="1.1" xmlns:xlink="http://www.w3.org/1999/xlink" width="7px" height="9px" xmlns="http://www.w3.org/2000/svg">
  <g transform="matrix(1 0 0 1 -946 -46 )">
    <path d="M 1.25284090909091 1.02548076923078  L 5.97784090909091 0.298557692307691  C 6.49488636363636 0.220673076923078  6.92045454545455 0.653365384615386  6.92045454545455 1.26346153846154  L 6.9125 6.81490384615385  C 6.9125 7.425  6.48693181818182 7.9875  5.96988636363636 8.06971153846154  L 1.23693181818181 8.79230769230769  C 0.787499999999998 8.86153846153846  0.409659090909089 8.54567307692308  0.318181818181814 8.06538461538462  C 0.302272727272724 7.99182692307692  0.29829545454545 7.91394230769231  0.29829545454545 7.83173076923077  L 0.306249999999997 2.27596153846154  C 0.306249999999997 2.19375000000001  0.314204545454545 2.11153846153847  0.330113636363635 2.03365384615385  C 0.425568181818179 1.52307692307693  0.803409090909088 1.09471153846154  1.25284090909091 1.02548076923078  Z " fill-rule="nonzero" fill="#f77490" stroke="none" transform="matrix(1 0 0 1 946 46 )" />
  </g>
</svg>