<?xml version="1.0" encoding="utf-8"?>
<svg version="1.1" xmlns:xlink="http://www.w3.org/1999/xlink" width="11px" height="11px" xmlns="http://www.w3.org/2000/svg">
  <g transform="matrix(1 0 0 1 -943 -38 )">
    <path d="M 4.00390624999999 3.18951612903225  L 9.421875 2.06451612903226  L 9.5 2.06451612903226  C 9.515625 2.06451612903226  9.53125 2.06854838709677  9.55078125 2.06854838709677  C 9.55859375 2.06854838709677  9.56640625 2.07258064516129  9.57421875 2.07258064516129  L 9.6328125 2.08467741935484  C 9.63671875 2.08467741935484  9.640625 2.08467741935484  9.64453125 2.08870967741936  C 9.66796875 2.09677419354839  9.69140625 2.10080645161291  9.7109375 2.10887096774194  C 9.71875 2.11290322580646  9.72265625 2.11290322580646  9.73046875 2.11693548387097  C 9.74609375 2.125  9.76171875 2.12903225806452  9.77734375 2.13709677419355  C 9.7890625 2.14516129032258  9.8046875 2.1491935483871  9.81640625 2.15725806451613  L 6.25390625 0.161290322580645  C 6.24609375 0.157258064516128  6.234375 0.149193548387096  6.2265625 0.145161290322582  C 6.22265625 0.145161290322582  6.21875 0.141129032258065  6.21484375 0.141129032258065  C 6.19921875 0.133064516129033  6.18359375 0.125000000000001  6.16796875 0.120967741935484  C 6.16015625 0.116935483870967  6.15625 0.116935483870967  6.1484375 0.112903225806452  C 6.125 0.10483870967742  6.1015625 0.0967741935483885  6.08203125 0.0927419354838714  C 6.078125 0.0927419354838714  6.07421875 0.0927419354838714  6.0703125 0.0887096774193544  L 6.01171875 0.0766129032258055  C 6.00390625 0.0766129032258055  5.99609375 0.0725806451612885  5.98828125 0.0725806451612885  C 5.97265625 0.0685483870967714  5.95703125 0.0685483870967714  5.9375 0.0685483870967714  L 5.8359375 0.0685483870967714  C 5.8125 0.0685483870967714  5.78515625 0.0725806451612885  5.76171875 0.0766129032258032  L 1.1171875 0.749999999999996  C 1.08984375 0.754032258064513  1.06640625 0.758064516129028  1.0390625 0.76612903225806  C 1.03125 0.76612903225806  1.0234375 0.770161290322577  1.015625 0.774193548387092  C 1 0.778225806451609  0.980468750000001 0.782258064516124  0.964843750000002 0.790322580645155  C 0.95703125 0.794354838709672  0.945312500000002 0.798387096774187  0.9375 0.798387096774187  C 0.921875000000001 0.802419354838704  0.906250000000002 0.810483870967736  0.890624999999998 0.814516129032251  C 0.882812499999996 0.818548387096768  0.871093749999998 0.822580645161283  0.863281249999996 0.8266129032258  C 0.859374999999996 0.830645161290317  0.851562499999998 0.830645161290317  0.847656249999997 0.834677419354831  L 0.824218749999996 0.84677419354838  C 0.812499999999998 0.854838709677412  0.796874999999995 0.858870967741929  0.785156249999996 0.866935483870961  C 0.773437499999998 0.874999999999993  0.761718749999996 0.87903225806451  0.749999999999997 0.887096774193541  C 0.738281249999999 0.895161290322573  0.726562499999996 0.903225806451605  0.710937499999997 0.911290322580639  C 0.707031249999996 0.915322580645156  0.699218749999999 0.919354838709671  0.695312499999998 0.923387096774188  C 0.687499999999996 0.927419354838705  0.679687499999999 0.935483870967737  0.671874999999997 0.939516129032252  C 0.664062499999996 0.943548387096769  0.656249999999998 0.951612903225801  0.648437499999996 0.959677419354832  C 0.632812499999997 0.971774193548381  0.621093749999995 0.98387096774193  0.605468749999996 0.995967741935476  C 0.597656249999994 0.999999999999994  0.593749999999997 1.00806451612903  0.585937499999996 1.01209677419354  L 0.582031249999995 1.01612903225806  C 0.566406249999996 1.03225806451612  0.546874999999996 1.04838709677419  0.531249999999996 1.06451612903225  C 0.527343749999996 1.06854838709677  0.527343749999996 1.07258064516128  0.523437499999995 1.07258064516128  C 0.511718749999996 1.08467741935483  0.499999999999994 1.10080645161289  0.488281249999996 1.11290322580644  C 0.484374999999995 1.11693548387096  0.484374999999995 1.12096774193548  0.480468749999994 1.12499999999999  C 0.476562499999993 1.13306451612902  0.468749999999996 1.13709677419354  0.464843749999995 1.14516129032257  C 0.453124999999996 1.16129032258064  0.441406249999994 1.17338709677419  0.429687499999996 1.18951612903225  C 0.425781249999995 1.19758064516128  0.417968749999997 1.20564516129031  0.414062499999996 1.20967741935483  C 0.410156249999996 1.21370967741935  0.406249999999995 1.21774193548386  0.406249999999995 1.22177419354838  L 0.382812499999994 1.25806451612902  C 0.378906249999993 1.26612903225806  0.374999999999992 1.27419354838709  0.367187499999995 1.27822580645161  C 0.351562499999996 1.3024193548387  0.339843749999993 1.3266129032258  0.328124999999995 1.3508064516129  C 0.324218749999994 1.35887096774193  0.320312499999993 1.37096774193548  0.316406249999996 1.37903225806451  C 0.308593749999995 1.39516129032257  0.300781249999997 1.41129032258064  0.292968749999996 1.43145161290322  C 0.289062499999995 1.44354838709677  0.285156249999994 1.45564516129032  0.281249999999997 1.46370967741935  C 0.273437499999996 1.47983870967741  0.269531249999999 1.49596774193548  0.261718749999997 1.51209677419354  C 0.253906249999996 1.53225806451612  0.249999999999999 1.5524193548387  0.242187499999997 1.56854838709677  C 0.238281249999996 1.5766129032258  0.234374999999996 1.58870967741935  0.234374999999996 1.59677419354838  C 0.226562499999994 1.62499999999999  0.218749999999996 1.65725806451612  0.214843749999996 1.68548387096773  C 0.199218749999996 1.75806451612902  0.191406249999995 1.83467741935483  0.191406249999995 1.91129032258064  L 0.183593749999993 7.08467741935483  C 0.183593749999993 7.16129032258064  0.191406249999995 7.23387096774193  0.207031249999994 7.3024193548387  C 0.261718749999993 7.56854838709677  0.410156249999996 7.77822580645161  0.617187499999994 7.89112903225806  L 4.1796875 9.89112903225806  C 3.97265625 9.77419354838709  3.82421874999999 9.56451612903225  3.76953125 9.3024193548387  C 3.75390625 9.23387096774193  3.74609374999999 9.15725806451612  3.74609374999999 9.08467741935483  L 3.75390625 3.91129032258064  C 3.75390625 3.83467741935483  3.76171875 3.75806451612902  3.77734375 3.68548387096773  C 3.78125 3.65725806451612  3.7890625 3.62499999999999  3.796875 3.59677419354838  C 3.80078125 3.58870967741935  3.8046875 3.5766129032258  3.8046875 3.56854838709677  C 3.80859375 3.54838709677419  3.81640625 3.52822580645161  3.82421875 3.51209677419354  C 3.83203125 3.49596774193548  3.8359375 3.47983870967741  3.84375 3.46370967741935  C 3.84765625 3.4516129032258  3.8515625 3.43951612903225  3.85546875 3.43145161290322  C 3.86328125 3.41532258064516  3.87109375 3.39516129032258  3.87890625 3.37903225806451  C 3.8828125 3.37096774193548  3.88671875 3.35887096774193  3.890625 3.3508064516129  C 3.90234374999999 3.3266129032258  3.91796875 3.3024193548387  3.9296875 3.27822580645161  C 3.93359375 3.27016129032257  3.9375 3.26209677419354  3.9453125 3.25806451612903  C 3.95703124999999 3.24193548387096  3.96484375 3.2258064516129  3.97656249999999 3.20967741935483  C 3.98046874999999 3.2016129032258  3.98828124999999 3.19354838709677  3.99218749999999 3.18951612903225  L 4.00390624999999 3.18951612903225  Z " fill-rule="nonzero" fill="#ffa300" stroke="none" transform="matrix(1 0 0 1 943 38 )" />
  </g>
</svg>