<?xml version="1.0" encoding="utf-8"?>
<svg version="1.1" xmlns:xlink="http://www.w3.org/1999/xlink" width="7px" height="9px" xmlns="http://www.w3.org/2000/svg">
  <g transform="matrix(1 0 0 1 -939 -42 )">
    <path d="M 1.09772727272727 0.982211538461543  L 5.82272727272727 0.255288461538461  C 6.33977272727273 0.177403846153845  6.76534090909091 0.610096153846152  6.76534090909091 1.22019230769231  L 6.75738636363636 6.77163461538462  C 6.75738636363636 7.38173076923077  6.33181818181818 7.94423076923077  5.81477272727272 8.02644230769231  L 1.08181818181818 8.74903846153846  C 0.63238636363636 8.81826923076923  0.254545454545451 8.50240384615385  0.163068181818178 8.02211538461539  C 0.147159090909088 7.94855769230769  0.143181818181815 7.87067307692308  0.143181818181815 7.78846153846154  L 0.15113636363636 2.23269230769231  C 0.15113636363636 2.15048076923078  0.159090909090905 2.06826923076924  0.174999999999997 1.99038461538462  C 0.270454545454541 1.4798076923077  0.64829545454545 1.05144230769231  1.09772727272727 0.982211538461543  Z " fill-rule="nonzero" fill="#f77490" stroke="none" transform="matrix(1 0 0 1 939 42 )" />
  </g>
</svg>