<?xml version="1.0" encoding="utf-8"?>
<svg version="1.1" xmlns:xlink="http://www.w3.org/1999/xlink" width="10px" height="10px" xmlns="http://www.w3.org/2000/svg">
  <g transform="matrix(1 0 0 1 -949 -43 )">
    <path d="M 9.3203125 2.16015625  C 9.33203124999999 2.1640625  9.33984375 2.1640625  9.34765625 2.1640625  L 9.42578125 2.1640625  C 9.44140625 2.1640625  9.45703125 2.16796875  9.4765625 2.16796875  C 9.484375 2.16796875  9.4921875 2.171875  9.5 2.171875  L 9.55859375 2.18359375  C 9.5625 2.18359375  9.56640625 2.18359375  9.5703125 2.1875  C 9.59375 2.1953125  9.6171875 2.19921875  9.63671875 2.20703125  C 9.64453125 2.2109375  9.6484375 2.2109375  9.65625 2.21484375  C 9.671875 2.22265625  9.6875 2.2265625  9.703125 2.234375  C 9.71484375 2.2421875  9.73046875 2.24609375  9.7421875 2.25390625  L 6.1796875 0.316406250000001  C 6.171875 0.3125  6.16015625 0.3046875  6.15234375 0.300781250000002  C 6.14843749999999 0.300781250000002  6.14453124999999 0.296875000000001  6.140625 0.296875000000001  C 6.125 0.289062500000001  6.109375 0.281250000000002  6.09375 0.277343750000001  C 6.08593749999999 0.2734375  6.08203125 0.2734375  6.07421875 0.269531250000001  C 6.05078124999999 0.261718750000002  6.02734374999999 0.253906250000002  6.00781249999999 0.250000000000001  C 6.00390624999999 0.250000000000001  5.99999999999999 0.250000000000001  5.99609375 0.24609375  L 5.9375 0.234375  C 5.92968749999999 0.234375  5.921875 0.230468749999999  5.91406249999999 0.230468749999999  C 5.8984375 0.226562499999998  5.8828125 0.226562499999998  5.86328125 0.226562499999998  L 5.76171875 0.226562499999998  C 5.73828124999999 0.226562499999998  5.7109375 0.230468749999999  5.6875 0.234374999999998  L 1.04296875 0.886718749999997  C 1.0234375 0.890624999999998  0.999999999999996 0.894531249999997  0.980468749999996 0.898437499999998  C 0.976562499999996 0.898437499999998  0.968749999999998 0.902343749999999  0.964843749999997 0.902343749999999  C 0.945312499999997 0.90625  0.929687499999998 0.910156249999998  0.910156249999998 0.917968749999998  L 0.902343749999996 0.917968749999998  C 0.882812499999996 0.925781249999997  0.863281249999996 0.929687499999998  0.843749999999996 0.937499999999998  C 0.839843749999996 0.937499999999998  0.832031249999998 0.941406249999999  0.828124999999997 0.941406249999999  C 0.812499999999998 0.949218749999998  0.796874999999999 0.953124999999999  0.777343749999999 0.960937499999999  C 0.773437499999998 0.960937499999999  0.773437499999998 0.960937499999999  0.769531249999997 0.96484375  L 0.765624999999996 0.96484375  L 0.695312499999998 0.999999999999999  C 0.691406249999997 1.00390625  0.687499999999996 1.00390625  0.68359375 1.0078125  C 0.660156249999999 1.01953125  0.640624999999999 1.03515625  0.621093749999999 1.046875  L 0.617187499999998 1.05078125  C 0.613281249999997 1.05078125  0.613281249999997 1.0546875  0.609374999999996 1.0546875  L 0.562499999999995 1.08984375  L 0.558593749999994 1.09375  C 0.542968749999995 1.10546875  0.527343749999996 1.12109375  0.511718749999992 1.1328125  L 0.507812499999991 1.13671875  L 0.499999999999989 1.14453125  C 0.488281249999991 1.15625  0.476562499999988 1.1640625  0.46484374999999 1.17578125  L 0.453124999999992 1.1875  L 0.410156249999991 1.23046875  C 0.40624999999999 1.234375  0.40624999999999 1.234375  0.40624999999999 1.23828125  C 0.394531249999992 1.25  0.38671874999999 1.26171875  0.374999999999992 1.27734375  C 0.371093749999991 1.28125  0.36718749999999 1.28515625  0.363281249999994 1.29296875  C 0.351562499999996 1.3046875  0.343749999999994 1.3203125  0.332031249999996 1.33203125  C 0.332031249999996 1.3359375  0.328124999999995 1.3359375  0.328124999999995 1.33984375  L 0.328124999999995 1.34375  C 0.316406249999996 1.359375  0.304687499999994 1.37890625  0.292968749999996 1.3984375  C 0.289062499999995 1.40234375  0.289062499999995 1.40625  0.285156249999994 1.41015625  C 0.277343749999992 1.42578125  0.265624999999994 1.44140625  0.257812499999992 1.45703125  C 0.257812499999992 1.4609375  0.253906249999991 1.4609375  0.253906249999991 1.46484375  L 0.253906249999991 1.46875  C 0.242187499999993 1.4921875  0.23046874999999 1.51171875  0.222656249999993 1.53515625  C 0.218749999999992 1.5390625  0.218749999999992 1.54296875  0.214843749999991 1.546875  C 0.203124999999993 1.5703125  0.195312499999991 1.59375  0.187499999999989 1.6171875  L 0.187499999999989 1.62109375  C 0.183593749999988 1.62890625  0.183593749999988 1.63671875  0.179687499999988 1.640625  C 0.175781249999987 1.6484375  0.175781249999987 1.65625  0.171874999999986 1.6640625  C 0.167968749999985 1.671875  0.167968749999985 1.6796875  0.164062499999984 1.69140625  C 0.160156249999983 1.69921875  0.160156249999983 1.70703125  0.156249999999982 1.71484375  C 0.152343749999981 1.72265625  0.152343749999981 1.73046875  0.14843749999998 1.7421875  C 0.14843749999998 1.75  0.14453124999998 1.7578125  0.14453124999998 1.765625  C 0.140624999999979 1.7734375  0.140624999999979 1.78515625  0.140624999999979 1.79296875  C 0.140624999999979 1.80078125  0.136718749999978 1.80859375  0.136718749999978 1.81640625  C 0.136718749999978 1.82421875  0.132812499999977 1.8359375  0.132812499999977 1.84375  C 0.132812499999977 1.8515625  0.128906249999976 1.859375  0.128906249999976 1.86328125  C 0.128906249999976 1.875  0.124999999999975 1.8828125  0.124999999999975 1.89453125  C 0.124999999999975 1.90234375000001  0.124999999999975 1.90625  0.121093749999974 1.9140625  C 0.121093749999974 1.92578125  0.121093749999974 1.93750000000001  0.117187499999973 1.94921875  L 0.117187499999973 2.015625  L 0.101562499999974 7.03125  C 0.101562499999974 7.38671875  0.273437499999973 7.67578125  0.531249999999974 7.81640625  L 4.09374999999998 9.75390625  C 3.83593749999998 9.61328125  3.66015624999998 9.32421875  3.66406249999998 8.96875  L 3.67187499999998 3.953125  L 3.67187499999998 3.90234375  L 3.67187499999998 3.88671875  C 3.67187499999998 3.87500000000001  3.67187499999998 3.86328125  3.67578124999998 3.85156250000001  C 3.67578124999998 3.84375  3.67578124999998 3.83984375000001  3.67968749999998 3.83203125000001  C 3.67968749999998 3.82031250000001  3.68359374999998 3.81250000000001  3.68359374999998 3.80078125000001  C 3.68359374999998 3.79296875000001  3.68749999999998 3.78515625000001  3.68749999999998 3.78125000000001  C 3.68749999999998 3.77343750000001  3.69140624999998 3.76171875000001  3.69140624999998 3.75390625000001  C 3.69140624999998 3.74609375  3.69531249999998 3.73828125000001  3.69531249999998 3.73046875  C 3.69531249999998 3.72265625  3.69921874999998 3.7109375  3.69921874999998 3.703125  C 3.69921874999998 3.6953125  3.70312499999998 3.6875  3.70312499999998 3.6796875  C 3.70703124999999 3.671875  3.70703124999999 3.6640625  3.71093749999999 3.65234375  C 3.71484374999999 3.64453125  3.71484374999999 3.63671875  3.71874999999999 3.62890625  C 3.72265624999999 3.62109375  3.72265624999999 3.61328125  3.72656249999999 3.6015625  C 3.73046874999999 3.59375  3.73046874999999 3.5859375  3.73437499999999 3.578125  C 3.73828124999999 3.57031249999999  3.73828124999999 3.5625  3.74218749999999 3.5546875  C 3.75 3.53124999999999  3.76171874999999 3.50781249999999  3.76953125 3.484375  C 3.7734375 3.48046875  3.7734375 3.4765625  3.77734375 3.47265625  C 3.7890625 3.44921875  3.796875 3.42578125  3.80859375 3.40625  C 3.8125 3.40234375  3.8125 3.3984375  3.81640625 3.39453125  C 3.82421875 3.37890625  3.83203125 3.36328125  3.84375 3.34765625  C 3.84765625 3.34375  3.84765625 3.33984375  3.8515625 3.3359375  C 3.86328125 3.31640625  3.875 3.30078125  3.88671875 3.28125  C 3.890625 3.27734375  3.890625 3.2734375  3.89453125 3.26953125  C 3.90234375 3.2578125  3.9140625 3.2421875  3.92578125 3.23046875  C 3.9296875 3.2265625  3.93359375 3.22265625  3.9375 3.21484375  C 3.94921875 3.203125  3.95703125 3.1875  3.96875 3.17578125  C 3.97265625 3.171875  3.97265625 3.16796875  3.9765625 3.16796875  C 3.98828125 3.15234375  4.00390625 3.13671875  4.01953125 3.125  L 4.03125 3.11328125  C 4.04296875 3.1015625  4.0546875 3.08984375  4.06640625 3.08203125  L 4.07812499999999 3.07031250000001  C 4.09374999999999 3.05468750000001  4.10937499999999 3.04296875  4.125 3.02734375  L 4.12890625 3.0234375  L 4.17578125 2.98828125  C 4.1796875 2.984375  4.18359375 2.984375  4.1875 2.98046875  C 4.20703125 2.96484375  4.23046875 2.953125  4.25 2.94140625  C 4.25390625 2.9375  4.2578125 2.9375  4.26171875 2.93359375  C 4.28515625 2.921875  4.30859375 2.91015625  4.328125 2.8984375  C 4.33203125 2.8984375  4.3359375 2.89453125  4.3359375 2.89453125  C 4.3515625 2.88671875  4.3671875 2.87890625  4.38671875 2.875  C 4.390625 2.87109375  4.3984375 2.87109375  4.40234375 2.87109375  C 4.421875 2.86328125  4.44140625 2.85546875  4.4609375 2.8515625  L 4.46875 2.8515625  C 4.48828125 2.84765625  4.50390625 2.83984375  4.5234375 2.8359375  C 4.52734375 2.8359375  4.53515625 2.83203125  4.5390625 2.83203125  C 4.55859375 2.828125  4.578125 2.82421875  4.6015625 2.8203125  L 9.24609375 2.16796875  C 9.2734375 2.1640625  9.296875 2.1640625  9.3203125 2.16015625  Z " fill-rule="nonzero" fill="#d30032" stroke="none" transform="matrix(1 0 0 1 949 43 )" />
  </g>
</svg>