<?xml version="1.0" encoding="utf-8"?>
<svg version="1.1" xmlns:xlink="http://www.w3.org/1999/xlink" width="10px" height="10px" xmlns="http://www.w3.org/2000/svg">
  <g transform="matrix(1 0 0 1 -936 -45 )">
    <path d="M 9.50781249999999 2.109375  L 9.51953125 2.109375  L 9.59765625 2.109375  C 9.61328125 2.109375  9.62890625 2.11328125  9.6484375 2.11328125  C 9.65625 2.11328125  9.6640625 2.11328125  9.671875 2.1171875  C 9.69140625 2.12109375  9.7109375 2.125  9.734375 2.12890625  C 9.73828125 2.12890625  9.7421875 2.12890625  9.7421875 2.1328125  C 9.765625 2.140625  9.78906250000001 2.14453125  9.80859375000001 2.15234375  C 9.81640625000001 2.15625  9.8203125 2.15625  9.82812500000001 2.16015625  C 9.84375 2.16796875  9.859375 2.171875  9.87500000000001 2.1796875  C 9.88671875000001 2.1875  9.90234375000001 2.19140625  9.91406250000001 2.19921875  L 6.35156250000001 0.261718750000002  C 6.34375 0.257812500000001  6.33203125000001 0.250000000000004  6.32421875 0.246093750000003  C 6.3203125 0.246093750000003  6.31640625 0.242187500000002  6.31250000000001 0.242187500000002  C 6.29687500000001 0.234375  6.28125000000001 0.226562500000003  6.265625 0.222656250000002  C 6.2578125 0.218750000000001  6.25390625000001 0.218750000000001  6.24609375 0.21484375  C 6.22265625 0.207031249999998  6.203125 0.199218750000001  6.1796875 0.1953125  L 6.171875 0.1953125  C 6.15234375 0.191406249999999  6.1328125 0.187499999999998  6.109375 0.183593750000002  C 6.1015625 0.183593750000002  6.09375 0.179687500000001  6.0859375 0.179687500000001  C 6.0703125 0.17578125  6.0546875 0.17578125  6.03515625 0.17578125  L 5.93359375 0.17578125  C 5.91015625 0.17578125  5.8828125 0.179687500000001  5.85546875 0.183593750000002  L 1.2109375 0.835937499999999  C 1.19140625 0.83984375  1.16796875 0.843750000000001  1.1484375 0.847656249999997  C 1.14453125 0.847656249999997  1.13671875 0.851562499999998  1.1328125 0.851562499999998  C 1.11328125 0.855468749999999  1.09765625 0.859375  1.078125 0.867187499999997  L 1.0703125 0.867187499999997  C 1.05078125 0.874999999999999  1.03125 0.878906249999996  1.01171875 0.886718749999997  C 1.0078125 0.886718749999997  1 0.890624999999998  0.996093750000002 0.890624999999998  C 0.980468750000003 0.8984375  0.964843750000002 0.902343749999996  0.945312500000002 0.910156249999998  C 0.941406250000001 0.910156249999998  0.941406250000001 0.914062499999999  0.937500000000002 0.914062499999999  L 0.933593750000001 0.914062499999999  C 0.91015625 0.925781249999997  0.886718750000002 0.9375  0.867187500000002 0.949218749999998  C 0.863281250000001 0.953124999999999  0.859375000000002 0.953124999999999  0.855468750000001 0.95703125  C 0.83203125 0.968749999999998  0.8125 0.984375000000002  0.79296875 0.99609375  L 0.7890625 1  C 0.785156249999999 1  0.785156249999999 1.00390625  0.78125 1.00390625  L 0.734375 1.0390625  L 0.73046875 1.04296875  C 0.71484375 1.0546875  0.699218749999999 1.0703125  0.68359375 1.08203125  L 0.679687499999999 1.0859375  L 0.671875 1.09375  C 0.660156249999999 1.10546875  0.648437499999999 1.11328125  0.63671875 1.125  L 0.625 1.13671875  L 0.582031249999999 1.1796875  C 0.578124999999998 1.18359375  0.578124999999998 1.18359375  0.578124999999998 1.1875  C 0.566406249999998 1.19921875  0.554687499999997 1.2109375  0.546874999999998 1.2265625  C 0.542968749999997 1.23046875  0.539062499999998 1.23437500000001  0.535156249999997 1.2421875  C 0.523437499999997 1.25390625  0.515624999999997 1.26953125  0.503906249999997 1.28125  C 0.503906249999997 1.28515625  0.499999999999996 1.28515625  0.499999999999996 1.2890625  L 0.499999999999996 1.29296875000001  C 0.488281249999996 1.30859375  0.476562499999995 1.328125  0.464843749999997 1.34765625  C 0.460937499999996 1.35156250000001  0.460937499999996 1.35546875000001  0.457031249999997 1.359375  C 0.449218749999998 1.375  0.437499999999997 1.390625  0.429687499999998 1.40625  C 0.429687499999998 1.41015625000001  0.425781249999997 1.41015625000001  0.425781249999997 1.41406250000001  L 0.425781249999997 1.41796875000001  C 0.414062499999996 1.44140625000001  0.402343749999996 1.46093750000001  0.394531249999996 1.48437500000001  C 0.390624999999996 1.48828125000001  0.390624999999996 1.49218750000001  0.386718749999997 1.49609375000001  C 0.374999999999996 1.51953125000001  0.367187499999997 1.54296875000001  0.359374999999997 1.56640625000001  L 0.359374999999997 1.57031250000001  C 0.355468749999996 1.57812500000001  0.355468749999996 1.58593750000001  0.351562499999998 1.58984375000001  C 0.347656249999997 1.59765625000001  0.347656249999997 1.60546875000001  0.343749999999998 1.61328125000001  C 0.339843749999997 1.62109375000001  0.339843749999997 1.62890625000001  0.335937499999999 1.64062500000001  C 0.332031249999998 1.64843750000001  0.332031249999998 1.65625000000001  0.328124999999999 1.66406250000001  C 0.324218749999998 1.67187500000001  0.324218749999998 1.68359375000001  0.3203125 1.69140625000001  C 0.3203125 1.69921875000001  0.316406249999999 1.70703125000001  0.316406249999999 1.71484375000001  C 0.312499999999998 1.72265625000001  0.312499999999998 1.73437500000001  0.312499999999998 1.74218750000001  C 0.312499999999998 1.75000000000002  0.308593749999997 1.75781250000001  0.308593749999997 1.76562500000002  C 0.308593749999997 1.77343750000002  0.304687499999996 1.78515625000002  0.304687499999996 1.79296875000002  C 0.304687499999996 1.80078125000002  0.300781249999995 1.80859375000002  0.300781249999995 1.81250000000002  C 0.300781249999995 1.82421875000002  0.296874999999994 1.83203125000002  0.296874999999994 1.84375000000002  C 0.296874999999994 1.85156250000002  0.296874999999994 1.85546875000001  0.292968749999993 1.86328125000002  C 0.292968749999993 1.87500000000001  0.292968749999993 1.88671875000002  0.289062499999992 1.89843750000001  L 0.289062499999992 1.96484375  L 0.281249999999993 6.98046875  C 0.281249999999993 7.1796875  0.335937499999992 7.359375  0.429687499999993 7.5  C 0.503906249999992 7.61328124999999  0.601562499999992 7.703125  0.714843749999994 7.76171875  L 4.27734374999999 9.69921875  C 4.01953124999999 9.55859375  3.84374999999999 9.26953125  3.84765624999999 8.9140625  L 3.85546874999999 3.8984375  L 3.85546874999999 3.84765625  L 3.85546874999999 3.83203125  C 3.85546874999999 3.8203125  3.85546874999999 3.80859375  3.85937499999999 3.796875  C 3.85937499999999 3.7890625  3.85937499999999 3.78515625  3.86328124999999 3.77734375  C 3.86328124999999 3.765625  3.8671875 3.7578125  3.8671875 3.74609375  C 3.8671875 3.73828125  3.87109375 3.73046875  3.87109375 3.7265625  C 3.87109375 3.71875  3.875 3.70703125  3.875 3.69921875  C 3.875 3.69140625  3.87890625 3.68359375  3.87890625 3.67578125  C 3.87890625 3.66796875  3.8828125 3.65625  3.8828125 3.6484375  C 3.8828125 3.640625  3.88671875 3.6328125  3.88671875 3.625  C 3.890625 3.6171875  3.890625 3.60546875  3.89453125 3.59765625  C 3.8984375 3.58984374999999  3.8984375 3.58203125  3.90234375 3.57421875  C 3.90625 3.56640624999999  3.90625 3.55859375  3.91015625 3.54687499999999  C 3.9140625 3.53906249999999  3.9140625 3.53124999999999  3.91796875 3.52343749999999  C 3.921875 3.51562499999999  3.921875 3.50781249999999  3.92578125 3.49999999999999  C 3.93359375 3.47656249999999  3.9453125 3.45312499999999  3.953125 3.42968749999999  C 3.95703125 3.42578124999999  3.95703125 3.42187499999999  3.9609375 3.41796875  C 3.97265625 3.39453124999999  3.98046875 3.37499999999999  3.9921875 3.35156249999999  C 3.99609375 3.34765624999999  3.99609375 3.34374999999999  4 3.33984375  C 4.0078125 3.32421875  4.015625 3.30859375  4.02734375 3.29296874999999  C 4.03125 3.28906249999999  4.03125 3.28515624999999  4.03515625 3.28125  C 4.046875 3.26171875  4.05859375 3.24609375  4.07031249999999 3.2265625  C 4.07421875 3.22265625  4.07421875 3.21874999999999  4.07812499999999 3.21484375  C 4.08593749999999 3.203125  4.09765624999999 3.1875  4.10937499999999 3.17578125  C 4.11328125 3.171875  4.11718749999999 3.16796875  4.12109375 3.16015625  C 4.1328125 3.1484375  4.140625 3.1328125  4.15234375 3.12109375  C 4.15625 3.1171875  4.15625 3.11328125  4.16015625 3.11328125  C 4.171875 3.09765625  4.18749999999999 3.08203125  4.203125 3.0703125  L 4.21484375 3.05859375  C 4.2265625 3.046875  4.23828125 3.03515625  4.25 3.02734375  L 4.26171875 3.015625  C 4.27734375 3  4.29296875 2.98828125  4.30859375 2.9765625  L 4.3125 2.97265625  L 4.359375 2.9375  C 4.36328125 2.93359375  4.3671875 2.93359375  4.37109375 2.9296875  C 4.390625 2.9140625  4.4140625 2.90234375  4.43359375 2.890625  C 4.4375 2.88671875  4.44140625 2.88671875  4.4453125 2.8828125  C 4.46875 2.87109375  4.4921875 2.859375  4.51171875 2.84765625  C 4.515625 2.84765625  4.51953125 2.84375  4.51953125 2.84375  C 4.53515625 2.8359375  4.55078125 2.828125  4.5703125 2.82421875  C 4.57421875 2.82421875  4.58203125 2.8203125  4.5859375 2.8203125  C 4.60546875 2.8125  4.625 2.8046875  4.64453125 2.80078125  L 4.65234375 2.80078125  C 4.671875 2.796875  4.6875 2.7890625  4.70703125 2.78515625  C 4.7109375 2.78515625  4.71875 2.78125  4.72265624999999 2.78125  C 4.74218749999999 2.77734375  4.76171874999999 2.7734375  4.78515625 2.76953125  L 9.42968749999999 2.1171875  C 9.45703125 2.11328125  9.48046874999999 2.11328125  9.50781249999999 2.109375  Z " fill-rule="nonzero" fill="#00b794" stroke="none" transform="matrix(1 0 0 1 936 45 )" />
  </g>
</svg>