<?xml version="1.0" encoding="utf-8"?>
<svg version="1.1" xmlns:xlink="http://www.w3.org/1999/xlink" width="7px" height="7px" xmlns="http://www.w3.org/2000/svg">
  <g transform="matrix(1 0 0 1 -939 -35 )">
    <path d="M 1.10568181818182 0.668499999999999  L 5.83465909090909 0.0805000000000004  C 6.35170454545455 0.0175  6.77727272727273 0.3675  6.77727272727273 0.861000000000001  L 6.76931818181818 5.3515  C 6.76931818181818 5.845  6.34375 6.3  5.82670454545455 6.363  L 1.09375 6.9475  C 0.644318181818181 7.0035  0.266477272727272 6.748  0.174999999999999 6.3595  C 0.159090909090909 6.3  0.151136363636362 6.2335  0.151136363636362 6.1705  L 0.159090909090909 1.68  C 0.159090909090909 1.6135  0.167045454545454 1.547  0.182954545454546 1.484  C 0.278409090909091 1.071  0.65625 0.7245  1.10568181818182 0.668499999999999  Z " fill-rule="nonzero" fill="#fdf17f" stroke="none" transform="matrix(1 0 0 1 939 35 )" />
  </g>
</svg>