<?xml version="1.0" encoding="utf-8"?>
<svg version="1.1" xmlns:xlink="http://www.w3.org/1999/xlink" width="7px" height="7px" xmlns="http://www.w3.org/2000/svg">
  <g transform="matrix(1 0 0 1 -942 -51 )">
    <path d="M 1.15738636363636 0.661500000000007  L 5.88636363636364 0.0735000000000008  C 6.40340909090909 0.0105000000000024  6.82897727272727 0.360500000000002  6.82897727272727 0.853999999999999  L 6.82102272727273 5.3445  C 6.82102272727273 5.838  6.39545454545454 6.293  5.87840909090909 6.356  L 1.14545454545454 6.9405  C 0.696022727272727 6.9965  0.318181818181818 6.741  0.226704545454543 6.3525  C 0.210795454545453 6.293  0.202840909090905 6.23  0.202840909090905 6.16350000000001  L 0.210795454545453 1.67300000000001  C 0.210795454545453 1.60650000000001  0.21875 1.54000000000001  0.23465909090909 1.47700000000001  C 0.330113636363635 1.06400000000001  0.707954545454544 0.717500000000004  1.15738636363636 0.661500000000007  Z " fill-rule="nonzero" fill="#50e6cc" stroke="none" transform="matrix(1 0 0 1 942 51 )" />
  </g>
</svg>