<?xml version="1.0" encoding="utf-8"?>
<svg version="1.1" xmlns:xlink="http://www.w3.org/1999/xlink" width="7px" height="9px" xmlns="http://www.w3.org/2000/svg">
  <g transform="matrix(1 0 0 1 -942 -43 )">
    <path d="M 1.17727272727273 0.999519230769239  L 5.90227272727273 0.272596153846154  C 6.41931818181818 0.194711538461538  6.84488636363636 0.627403846153846  6.84488636363636 1.2375  L 6.83693181818182 6.78894230769231  C 6.83693181818182 7.39903846153847  6.41136363636363 7.96153846153847  5.89431818181818 8.04375  L 1.16136363636363 8.76634615384616  C 0.711931818181817 8.83557692307693  0.334090909090908 8.51971153846154  0.242613636363633 8.03942307692308  C 0.226704545454543 7.96586538461539  0.222727272727269 7.88798076923078  0.222727272727269 7.80576923076924  L 0.230681818181816 2.25000000000001  C 0.230681818181816 2.16778846153847  0.238636363636364 2.08557692307694  0.254545454545454 2.00769230769232  C 0.349999999999998 1.4971153846154  0.727840909090907 1.06875000000001  1.17727272727273 0.999519230769239  Z " fill-rule="nonzero" fill="#f77490" stroke="none" transform="matrix(1 0 0 1 942 43 )" />
  </g>
</svg>