<?xml version="1.0" encoding="utf-8"?>
<svg version="1.1" xmlns:xlink="http://www.w3.org/1999/xlink" width="6px" height="7px" xmlns="http://www.w3.org/2000/svg">
  <g transform="matrix(1 0 0 1 -940 -53 )">
    <path d="M 0.925000000000001 0.647500000000004  L 5.17142857142857 0.0664999999999992  C 5.575 0.0104999999999984  5.91428571428571 0.266000000000001  5.99642857142857 0.654499999999998  C 5.98214285714286 0.717499999999996  5.975 0.783999999999999  5.975 0.850499999999998  L 5.96785714285714 5.341  C 5.96785714285714 5.4075  5.975 5.4705  5.98928571428571 5.53  C 5.90357142857143 5.94299999999999  5.56428571428571 6.2895  5.16071428571428 6.34549999999999  L 0.914285714285715 6.93  C 0.450000000000001 6.993  0.0678571428571441 6.643  0.0678571428571441 6.1495  L 0.0750000000000008 1.659  C 0.0750000000000008 1.1655  0.457142857142858 0.710500000000002  0.925000000000001 0.647500000000004  Z " fill-rule="nonzero" fill="#50e6cc" stroke="none" transform="matrix(1 0 0 1 940 53 )" />
  </g>
</svg>