<?xml version="1.0" encoding="utf-8"?>
<svg version="1.1" xmlns:xlink="http://www.w3.org/1999/xlink" width="10px" height="10px" xmlns="http://www.w3.org/2000/svg">
  <g transform="matrix(1 0 0 1 -933 -42 )">
    <path d="M 9.42968749999999 2.1491935483871  L 9.44140625 2.1491935483871  L 9.51953125 2.1491935483871  C 9.53515625 2.1491935483871  9.55078125 2.15322580645161  9.5703125 2.15322580645161  C 9.578125 2.15322580645161  9.5859375 2.15322580645161  9.59375 2.15725806451613  C 9.61328125 2.16129032258065  9.6328125 2.16532258064516  9.65625 2.16935483870968  C 9.66015625 2.16935483870968  9.6640625 2.16935483870968  9.6640625 2.1733870967742  C 9.6875 2.18145161290323  9.7109375 2.18548387096775  9.73046875 2.19354838709678  C 9.73828125 2.19758064516129  9.7421875 2.19758064516129  9.75 2.20161290322581  C 9.765625 2.20967741935484  9.78125 2.21370967741936  9.796875 2.22177419354839  C 9.80859375 2.22983870967742  9.82421875 2.23387096774194  9.8359375 2.24193548387097  L 6.2734375 0.241935483870968  C 6.265625 0.237903225806451  6.25390625 0.229838709677419  6.24609375 0.225806451612904  C 6.2421875 0.225806451612904  6.23828125 0.221774193548387  6.234375 0.221774193548387  C 6.21875 0.213709677419355  6.203125 0.205645161290323  6.1875 0.201612903225806  C 6.1796875 0.197580645161289  6.17578125 0.197580645161289  6.16796875 0.193548387096775  C 6.14453125 0.185483870967743  6.125 0.177419354838711  6.1015625 0.173387096774194  L 6.09375 0.173387096774194  C 6.07421875 0.169354838709677  6.0546875 0.165322580645162  6.03125 0.161290322580645  C 6.0234375 0.161290322580645  6.015625 0.157258064516128  6.0078125 0.157258064516128  C 5.9921875 0.153225806451611  5.9765625 0.153225806451611  5.95703125 0.153225806451611  L 5.85546875 0.153225806451611  C 5.83203125 0.153225806451611  5.8046875 0.157258064516128  5.77734375 0.161290322580643  L 1.1328125 0.834677419354838  C 1.11328125 0.838709677419355  1.08984375 0.84274193548387  1.0703125 0.846774193548387  C 1.06640625 0.846774193548387  1.05859375 0.850806451612904  1.0546875 0.850806451612904  C 1.03515625 0.854838709677421  1.01953125 0.858870967741936  1 0.866935483870968  L 0.992187500000001 0.866935483870968  C 0.972656250000001 0.875  0.953125000000001 0.879032258064517  0.933593750000001 0.887096774193548  C 0.9296875 0.887096774193548  0.921875000000001 0.891129032258066  0.917968750000002 0.891129032258066  C 0.902343750000003 0.899193548387097  0.886718750000002 0.903225806451614  0.867187500000002 0.911290322580646  C 0.863281250000001 0.911290322580646  0.863281250000001 0.915322580645163  0.859375000000002 0.915322580645163  L 0.855468750000001 0.915322580645163  C 0.83203125 0.927419354838712  0.808593750000002 0.939516129032261  0.789062500000002 0.951612903225807  C 0.785156250000001 0.955645161290324  0.781250000000002 0.955645161290324  0.777343750000001 0.959677419354839  C 0.75390625 0.971774193548388  0.734375 0.987903225806452  0.71484375 1  L 0.7109375 1.00403225806452  C 0.707031249999999 1.00403225806452  0.707031249999999 1.00806451612903  0.703125 1.00806451612903  L 0.65625 1.04435483870968  L 0.65234375 1.0483870967742  C 0.63671875 1.06048387096774  0.621093749999999 1.07661290322581  0.60546875 1.08870967741936  L 0.601562499999999 1.09274193548387  L 0.59375 1.10080645161291  C 0.582031249999999 1.11290322580645  0.570312499999999 1.12096774193549  0.55859375 1.13306451612904  L 0.546875 1.14516129032258  L 0.503906249999999 1.18951612903226  C 0.499999999999998 1.19354838709678  0.499999999999998 1.19354838709678  0.499999999999998 1.19758064516129  C 0.488281249999998 1.20967741935484  0.476562499999997 1.22177419354839  0.468749999999998 1.23790322580646  C 0.464843749999997 1.24193548387097  0.460937499999998 1.24596774193549  0.457031249999997 1.25403225806452  C 0.445312499999997 1.26612903225807  0.437499999999997 1.28225806451613  0.425781249999997 1.29435483870968  C 0.425781249999997 1.2983870967742  0.421874999999996 1.2983870967742  0.421874999999996 1.30241935483871  L 0.421874999999996 1.30645161290323  C 0.410156249999996 1.32258064516129  0.398437499999995 1.34274193548387  0.386718749999997 1.36290322580645  C 0.382812499999996 1.36693548387097  0.382812499999996 1.37096774193549  0.378906249999997 1.375  C 0.371093749999998 1.39112903225807  0.359374999999997 1.40725806451613  0.351562499999998 1.4233870967742  C 0.351562499999998 1.42741935483871  0.347656249999997 1.42741935483871  0.347656249999997 1.43145161290323  L 0.347656249999997 1.43548387096775  C 0.335937499999996 1.45967741935484  0.324218749999996 1.47983870967742  0.316406249999996 1.50403225806452  C 0.312499999999996 1.50806451612904  0.312499999999996 1.51209677419355  0.308593749999997 1.51612903225807  C 0.296874999999996 1.54032258064517  0.289062499999997 1.56451612903226  0.281249999999997 1.58870967741936  L 0.281249999999997 1.59274193548388  C 0.277343749999996 1.60080645161291  0.277343749999996 1.60887096774194  0.273437499999998 1.61290322580646  C 0.269531249999997 1.62096774193549  0.269531249999997 1.62903225806452  0.265624999999998 1.63709677419355  C 0.261718749999997 1.64516129032259  0.261718749999997 1.65322580645162  0.257812499999999 1.66532258064517  C 0.253906249999998 1.6733870967742  0.253906249999998 1.68145161290323  0.249999999999999 1.68951612903226  C 0.246093749999998 1.6975806451613  0.246093749999998 1.70967741935484  0.2421875 1.71774193548388  C 0.2421875 1.72580645161291  0.238281249999999 1.73387096774194  0.238281249999999 1.74193548387097  C 0.234374999999998 1.75000000000001  0.234374999999998 1.76209677419355  0.234374999999998 1.77016129032259  C 0.234374999999998 1.77822580645162  0.230468749999997 1.78629032258065  0.230468749999997 1.79435483870968  C 0.230468749999997 1.80241935483872  0.226562499999996 1.81451612903227  0.226562499999996 1.8225806451613  C 0.226562499999996 1.83064516129033  0.222656249999995 1.83870967741936  0.222656249999995 1.84274193548388  C 0.222656249999995 1.85483870967743  0.218749999999994 1.86290322580646  0.218749999999994 1.87500000000001  C 0.218749999999994 1.88306451612904  0.218749999999994 1.88709677419356  0.214843749999993 1.89516129032259  C 0.214843749999993 1.90725806451614  0.214843749999993 1.91935483870969  0.210937499999992 1.93145161290323  L 0.210937499999992 2  L 0.203124999999993 7.17741935483871  C 0.203124999999993 7.38306451612903  0.257812499999992 7.56854838709678  0.351562499999993 7.71370967741935  C 0.425781249999992 7.83064516129032  0.523437499999992 7.92338709677419  0.636718749999994 7.98387096774194  L 4.19921874999999 9.98387096774194  C 3.94140624999999 9.83870967741936  3.76562499999999 9.54032258064516  3.76953124999999 9.17338709677419  L 3.77734374999999 3.99596774193548  L 3.77734374999999 3.94354838709678  L 3.77734374999999 3.92741935483871  C 3.77734374999999 3.91532258064517  3.77734374999999 3.90322580645162  3.78124999999999 3.89112903225807  C 3.78124999999999 3.88306451612904  3.78124999999999 3.87903225806452  3.78515624999999 3.87096774193549  C 3.78515624999999 3.85887096774194  3.7890625 3.85080645161291  3.7890625 3.83870967741936  C 3.7890625 3.83064516129033  3.79296875 3.8225806451613  3.79296875 3.81854838709678  C 3.79296875 3.81048387096775  3.796875 3.7983870967742  3.796875 3.79032258064517  C 3.796875 3.78225806451613  3.80078125 3.7741935483871  3.80078125 3.76612903225807  C 3.80078125 3.75806451612903  3.8046875 3.74596774193549  3.8046875 3.73790322580645  C 3.8046875 3.72983870967742  3.80859375 3.72177419354839  3.80859375 3.71370967741936  C 3.8125 3.70564516129032  3.8125 3.69354838709677  3.81640625 3.68548387096774  C 3.8203125 3.67741935483871  3.8203125 3.66935483870968  3.82421875 3.66129032258064  C 3.828125 3.65322580645161  3.828125 3.64516129032258  3.83203125 3.63306451612903  C 3.8359375 3.62499999999999  3.8359375 3.61693548387096  3.83984375 3.60887096774193  C 3.84375 3.6008064516129  3.84375 3.59274193548387  3.84765625 3.58467741935483  C 3.85546875 3.56048387096774  3.8671875 3.53629032258064  3.875 3.51209677419354  C 3.87890625 3.50806451612903  3.87890625 3.50403225806451  3.8828125 3.5  C 3.89453125 3.4758064516129  3.90234375 3.45564516129032  3.9140625 3.43145161290322  C 3.91796875 3.42741935483871  3.91796875 3.42338709677419  3.921875 3.41935483870968  C 3.9296875 3.40322580645161  3.9375 3.38709677419355  3.94921875 3.37096774193548  C 3.953125 3.36693548387096  3.953125 3.36290322580645  3.95703125 3.35887096774193  C 3.96875 3.33870967741935  3.98046875 3.32258064516129  3.9921875 3.30241935483871  C 3.99609375 3.29838709677419  3.99609375 3.29435483870967  3.99999999999999 3.29032258064516  C 4.00781249999999 3.27822580645162  4.01953124999999 3.26209677419355  4.03124999999999 3.25  C 4.03515625 3.24596774193548  4.03906249999999 3.24193548387097  4.04296875 3.23387096774194  C 4.0546875 3.22177419354839  4.0625 3.20564516129032  4.07421875 3.19354838709678  C 4.078125 3.18951612903226  4.078125 3.18548387096774  4.08203125 3.18548387096774  C 4.09375 3.16935483870968  4.10937499999999 3.15322580645161  4.125 3.14112903225806  L 4.13671875 3.12903225806452  C 4.1484375 3.11693548387097  4.16015625 3.10483870967742  4.171875 3.09677419354839  L 4.18359375 3.08467741935484  C 4.19921875 3.06854838709678  4.21484375 3.05645161290323  4.23046875 3.04435483870968  L 4.234375 3.04032258064517  L 4.28125 3.00403225806452  C 4.28515625 3  4.2890625 3  4.29296875 2.99596774193549  C 4.3125 2.97983870967742  4.3359375 2.96774193548387  4.35546875 2.95564516129033  C 4.359375 2.95161290322581  4.36328125 2.95161290322581  4.3671875 2.94758064516129  C 4.390625 2.93548387096774  4.4140625 2.92338709677419  4.43359375 2.91129032258065  C 4.4375 2.91129032258065  4.44140625 2.90725806451613  4.44140625 2.90725806451613  C 4.45703125 2.8991935483871  4.47265625 2.89112903225807  4.4921875 2.88709677419355  C 4.49609375 2.88709677419355  4.50390625 2.88306451612903  4.5078125 2.88306451612903  C 4.52734375 2.875  4.546875 2.86693548387097  4.56640625 2.86290322580645  L 4.57421875 2.86290322580645  C 4.59375 2.85887096774193  4.609375 2.8508064516129  4.62890625 2.84677419354839  C 4.6328125 2.84677419354839  4.640625 2.84274193548387  4.64453124999999 2.84274193548387  C 4.66406249999999 2.83870967741935  4.68359374999999 2.83467741935484  4.70703125 2.83064516129032  L 9.35156249999999 2.15725806451613  C 9.37890624999999 2.15322580645161  9.40234374999999 2.15322580645161  9.42968749999999 2.1491935483871  Z " fill-rule="nonzero" fill="#00b794" stroke="none" transform="matrix(1 0 0 1 933 42 )" />
  </g>
</svg>