<?xml version="1.0" encoding="utf-8"?>
<svg version="1.1" xmlns:xlink="http://www.w3.org/1999/xlink" width="7px" height="9px" xmlns="http://www.w3.org/2000/svg">
  <g transform="matrix(1 0 0 1 -940 -46 )">
    <path d="M 1.03806818181818 0.986538461538464  L 5.77102272727273 0.268269230769233  C 6.22045454545454 0.199038461538463  6.59829545454545 0.51490384615385  6.68977272727273 0.995192307692308  C 6.67386363636364 1.07307692307692  6.66590909090909 1.15528846153846  6.66590909090909 1.2375  L 6.65795454545454 6.79326923076923  C 6.65795454545454 6.87548076923077  6.66590909090909 6.95336538461539  6.67784090909091 7.02692307692308  C 6.58238636363636 7.5375  6.20454545454545 7.9701923076923  5.75511363636363 8.03509615384615  L 1.02613636363636 8.75769230769231  C 0.509090909090907 8.83557692307692  0.0835227272727259 8.40288461538461  0.0835227272727259 7.79278846153846  L 0.0914772727272709 2.23701923076923  C 0.0914772727272709 1.62692307692308  0.517045454545452 1.06442307692308  1.03806818181818 0.986538461538464  Z " fill-rule="nonzero" fill="#50e6cc" stroke="none" transform="matrix(1 0 0 1 940 46 )" />
  </g>
</svg>