<?xml version="1.0" encoding="utf-8"?>
<svg version="1.1" xmlns:xlink="http://www.w3.org/1999/xlink" width="10px" height="10px" xmlns="http://www.w3.org/2000/svg">
  <g transform="matrix(1 0 0 1 -936 -52 )">
    <path d="M 9.48828125 2.00403225806451  L 9.5078125 2.00403225806452  L 9.5859375 2.00403225806452  C 9.6015625 2.00403225806452  9.6171875 2.00806451612904  9.63671875 2.00806451612904  C 9.64453125 2.00806451612904  9.65234375 2.00806451612904  9.66015625 2.01209677419355  C 9.6796875 2.01612903225807  9.69921875 2.02016129032259  9.72265625 2.0241935483871  L 9.73046875 2.0241935483871  C 9.75390625 2.03225806451613  9.77734375 2.03629032258065  9.796875 2.04435483870968  C 9.8046875 2.0483870967742  9.80859375 2.0483870967742  9.81640625 2.05241935483871  C 9.83203125 2.06048387096775  9.84765625 2.06451612903226  9.86328125 2.07258064516129  C 9.875 2.08064516129033  9.89062500000001 2.08467741935484  9.90234375 2.09274193548387  L 8.78515625 1.46774193548387  L 6.33984375 0.0967741935483908  C 6.33203125 0.0927419354838737  6.3203125 0.0887096774193567  6.3125 0.0806451612903272  C 6.30859375 0.0806451612903272  6.3046875 0.0766129032258101  6.30078125 0.0766129032258101  C 6.28515625 0.068548387096776  6.26953125 0.0604838709677465  6.25390625 0.0564516129032295  C 6.24609375 0.0524193548387124  6.2421875 0.0524193548387124  6.234375 0.0483870967741954  C 6.2109375 0.0403225806451613  6.19140625 0.0322580645161318  6.16796875 0.0282258064516147  L 6.16015625 0.0282258064516147  C 6.140625 0.0241935483870977  6.12109375 0.0201612903225806  6.09765625 0.0161290322580682  C 6.08984374999999 0.0161290322580682  6.08203125 0.0120967741935511  6.07421875 0.0120967741935511  C 6.05859375 0.00806451612903409  6.04296875 0.00806451612903409  6.0234375 0.00806451612903409  L 5.921875 0.00806451612903409  C 5.8984375 0.00806451612903409  5.87109375 0.0120967741935511  5.84375 0.0161290322580682  L 1.19921875 0.685483870967742  C 1.1796875 0.689516129032259  1.15625 0.693548387096776  1.13671875 0.697580645161288  C 1.1328125 0.697580645161288  1.125 0.701612903225806  1.12109375 0.701612903225806  C 1.1015625 0.705645161290323  1.0859375 0.70967741935484  1.06640625 0.717741935483869  L 1.05859375 0.717741935483869  C 1.0390625 0.725806451612903  1.01953125 0.729838709677416  1 0.73790322580645  C 0.99609375 0.73790322580645  0.98828125 0.741935483870967  0.984375000000002 0.741935483870967  C 0.968750000000003 0.750000000000001  0.953125000000001 0.754032258064513  0.933593750000001 0.762096774193547  C 0.9296875 0.762096774193547  0.9296875 0.766129032258065  0.925781250000002 0.766129032258065  L 0.921875000000001 0.766129032258065  C 0.8984375 0.778225806451611  0.875000000000001 0.790322580645162  0.855468750000001 0.802419354838709  C 0.8515625 0.806451612903226  0.847656250000002 0.806451612903226  0.843750000000001 0.810483870967743  C 0.8203125 0.822580645161289  0.80078125 0.838709677419358  0.78125 0.850806451612904  L 0.777343749999999 0.854838709677421  C 0.773437499999998 0.854838709677421  0.773437499999998 0.858870967741938  0.76953125 0.858870967741938  L 0.72265625 0.895161290322583  L 0.718749999999999 0.8991935483871  C 0.703125 0.911290322580646  0.687499999999999 0.927419354838714  0.671875 0.939516129032261  L 0.667968749999999 0.943548387096778  L 0.660156249999999 0.951612903225812  C 0.648437499999999 0.963709677419359  0.636718749999998 0.971774193548393  0.625 0.983870967741939  L 0.61328125 0.995967741935486  L 0.570312499999999 1.04032258064516  C 0.566406249999998 1.04435483870968  0.566406249999998 1.04435483870968  0.566406249999998 1.0483870967742  C 0.554687499999997 1.06048387096774  0.546874999999998 1.0725806451613  0.535156249999997 1.08870967741936  C 0.531249999999996 1.09274193548388  0.527343749999998 1.09677419354839  0.523437499999997 1.10483870967742  C 0.511718749999996 1.11693548387097  0.503906249999997 1.13306451612904  0.492187499999996 1.14516129032258  C 0.492187499999996 1.1491935483871  0.488281249999996 1.1491935483871  0.488281249999996 1.15322580645162  L 0.488281249999996 1.15725806451614  C 0.476562499999995 1.1733870967742  0.464843749999995 1.19354838709678  0.453124999999996 1.21370967741936  C 0.449218749999996 1.21774193548388  0.449218749999996 1.22177419354839  0.445312499999997 1.22580645161291  C 0.437499999999997 1.24193548387097  0.425781249999997 1.25806451612903  0.417968749999997 1.2741935483871  C 0.417968749999997 1.27822580645162  0.414062499999996 1.27822580645162  0.414062499999996 1.28225806451614  L 0.414062499999996 1.28629032258065  C 0.402343749999996 1.31048387096775  0.390624999999996 1.33064516129033  0.382812499999996 1.35483870967743  C 0.378906249999995 1.35887096774195  0.378906249999995 1.36290322580646  0.374999999999996 1.36693548387098  C 0.363281249999996 1.39112903225807  0.355468749999996 1.41532258064517  0.347656249999997 1.43951612903226  L 0.347656249999997 1.44354838709678  C 0.343749999999996 1.45161290322582  0.343749999999996 1.45967741935485  0.339843749999997 1.46370967741936  C 0.335937499999996 1.4717741935484  0.335937499999996 1.47983870967743  0.332031249999998 1.48790322580646  C 0.328124999999997 1.49596774193549  0.328124999999997 1.50403225806452  0.324218749999998 1.51612903225807  C 0.320312499999997 1.52419354838711  0.320312499999997 1.53225806451614  0.316406249999999 1.54032258064517  C 0.312499999999998 1.54838709677421  0.312499999999998 1.56048387096775  0.308593749999999 1.56854838709679  C 0.308593749999999 1.57661290322582  0.304687499999998 1.58467741935485  0.304687499999998 1.59274193548388  C 0.300781249999997 1.60080645161292  0.300781249999997 1.61290322580647  0.300781249999997 1.6209677419355  C 0.300781249999997 1.62903225806453  0.296874999999996 1.63709677419356  0.296874999999996 1.6451612903226  C 0.296874999999996 1.65322580645163  0.292968749999996 1.66532258064518  0.292968749999996 1.67338709677421  C 0.292968749999996 1.68145161290325  0.289062499999995 1.68951612903228  0.289062499999995 1.69758064516131  C 0.289062499999995 1.70967741935486  0.285156249999994 1.71774193548389  0.285156249999994 1.72983870967744  C 0.285156249999994 1.73790322580647  0.285156249999994 1.74193548387098  0.281249999999993 1.75000000000002  C 0.281249999999993 1.76209677419356  0.281249999999993 1.77419354838712  0.277343749999992 1.78629032258066  L 0.277343749999992 1.85483870967742  L 0.269531249999992 7.02822580645161  C 0.269531249999992 7.39516129032258  0.441406249999992 7.69354838709677  0.699218749999992 7.83870967741935  L 4.2578125 9.83870967741936  C 4 9.69354838709677  3.82421875 9.39516129032258  3.828125 9.02822580645161  L 3.8359375 3.85483870967742  L 3.8359375 3.80241935483871  L 3.8359375 3.78629032258064  C 3.8359375 3.7741935483871  3.8359375 3.76209677419355  3.83984375 3.75  C 3.83984375 3.74193548387097  3.83984375 3.73790322580645  3.84375 3.72983870967742  C 3.84375 3.71774193548387  3.84765625 3.70967741935484  3.84765625 3.69758064516129  C 3.84765625 3.68951612903226  3.8515625 3.68145161290323  3.8515625 3.67338709677419  C 3.8515625 3.66532258064516  3.85546875 3.65322580645161  3.85546875 3.64516129032258  C 3.85546875 3.63709677419355  3.859375 3.62903225806452  3.859375 3.62096774193548  C 3.859375 3.61290322580645  3.86328125000001 3.6008064516129  3.86328125000001 3.59274193548387  C 3.86328125000001 3.58467741935483  3.86718750000001 3.5766129032258  3.86718750000001 3.56854838709677  C 3.87109375000001 3.56048387096774  3.87109375000001 3.54838709677419  3.87500000000001 3.54032258064515  C 3.87890625000001 3.53225806451612  3.87890625000001 3.52419354838709  3.88281250000001 3.51612903225806  C 3.88671875000001 3.50806451612902  3.88671875000001 3.49999999999999  3.89062500000001 3.48790322580644  C 3.89453125000001 3.47983870967741  3.89453125000001 3.47177419354838  3.8984375 3.46370967741934  C 3.90234375000001 3.45564516129031  3.90234375000001 3.44758064516128  3.90625 3.43951612903225  C 3.9140625 3.41532258064515  3.92578125 3.39112903225805  3.93359375 3.36693548387096  C 3.9375 3.36290322580644  3.9375 3.35887096774192  3.94140625 3.35483870967741  C 3.953125 3.33064516129031  3.9609375 3.31048387096773  3.97265625 3.28629032258064  C 3.9765625 3.28225806451612  3.9765625 3.2782258064516  3.98046875 3.27419354838709  C 3.98828125 3.25806451612903  3.99609375 3.24193548387096  4.0078125 3.22580645161289  C 4.01171875 3.22177419354838  4.01171875 3.21774193548386  4.015625 3.21370967741935  C 4.02734375 3.19354838709677  4.0390625 3.1774193548387  4.05078125 3.15725806451612  C 4.0546875 3.15322580645161  4.0546875 3.14919354838709  4.05859375 3.14516129032258  C 4.06640625 3.13306451612903  4.078125 3.11693548387096  4.08984375 3.10483870967742  C 4.09375 3.1008064516129  4.09765625 3.09677419354838  4.1015625 3.08870967741935  C 4.11328125 3.0766129032258  4.12109375 3.06048387096774  4.1328125 3.04838709677419  C 4.13671875 3.04435483870967  4.13671875 3.04032258064516  4.140625 3.04032258064516  C 4.15234375 3.02419354838709  4.16796875 3.00806451612903  4.18359375 2.99596774193548  L 4.1953125 2.98387096774193  C 4.20703125 2.97177419354838  4.21875 2.95967741935483  4.23046875 2.9516129032258  L 4.2421875 2.93951612903226  C 4.2578125 2.92338709677419  4.2734375 2.91129032258064  4.2890625 2.8991935483871  L 4.29296875 2.89516129032258  L 4.33984375 2.85887096774193  C 4.34375 2.85483870967742  4.34765625 2.85483870967742  4.3515625 2.8508064516129  C 4.37109375 2.83467741935484  4.39453125 2.82258064516129  4.4140625 2.81048387096774  C 4.41796875000001 2.80645161290322  4.421875 2.80645161290322  4.42578125000001 2.80241935483871  C 4.44921875000001 2.79032258064516  4.47265625 2.77822580645161  4.4921875 2.76612903225806  C 4.49609375000001 2.76612903225806  4.5 2.76209677419354  4.5 2.76209677419354  C 4.515625 2.75403225806451  4.53125 2.74596774193548  4.55078125 2.74193548387096  C 4.55468750000001 2.73790322580645  4.56250000000001 2.73790322580645  4.56640625 2.73790322580645  C 4.5859375 2.72983870967741  4.60546875 2.72177419354838  4.625 2.71774193548387  L 4.6328125 2.71774193548387  C 4.65234375 2.71370967741935  4.66796875 2.70564516129032  4.6875 2.7016129032258  C 4.69140625 2.7016129032258  4.69921875 2.69758064516128  4.703125 2.69758064516128  C 4.72265625 2.69354838709677  4.7421875 2.68951612903225  4.765625 2.68548387096774  L 9.41015625 2.01209677419354  C 9.43750000000001 2.00806451612903  9.4609375 2.00806451612903  9.48828125 2.00403225806451  Z " fill-rule="nonzero" fill="#00b794" stroke="none" transform="matrix(1 0 0 1 936 52 )" />
  </g>
</svg>