<?xml version="1.0" encoding="utf-8"?>
<svg version="1.1" xmlns:xlink="http://www.w3.org/1999/xlink" width="10px" height="10px" xmlns="http://www.w3.org/2000/svg">
  <g transform="matrix(1 0 0 1 -935 -39 )">
    <path d="M 9.52822580645161 2.16129032258065  C 9.53629032258064 2.16532258064517  9.54435483870967 2.16532258064517  9.55241935483871 2.16532258064516  L 9.63306451612903 2.16532258064516  C 9.64919354838709 2.16532258064516  9.66532258064516 2.16935483870968  9.68548387096774 2.16935483870968  C 9.69354838709677 2.16935483870968  9.7016129032258 2.17338709677419  9.70967741935484 2.17338709677419  L 9.77016129032258 2.18548387096774  C 9.7741935483871 2.18548387096774  9.77822580645161 2.18548387096774  9.78225806451612 2.18951612903226  C 9.80645161290322 2.19758064516129  9.83064516129032 2.20161290322581  9.8508064516129 2.20967741935484  C 9.85887096774194 2.21370967741936  9.86290322580645 2.21370967741936  9.87096774193548 2.21774193548387  C 9.88709677419355 2.2258064516129  9.90322580645161 2.22983870967742  9.91935483870968 2.23790322580645  C 9.93145161290322 2.24596774193549  9.94758064516129 2.25  9.95967741935484 2.25806451612903  L 6.28225806451613 0.258064516129034  C 6.2741935483871 0.254032258064517  6.26209677419355 0.245967741935485  6.25403225806452 0.24193548387097  C 6.25 0.24193548387097  6.24596774193549 0.237903225806453  6.24193548387097 0.237903225806453  C 6.2258064516129 0.229838709677421  6.20967741935484 0.221774193548389  6.19354838709678 0.217741935483872  C 6.18548387096774 0.213709677419355  6.18145161290323 0.213709677419355  6.17338709677419 0.209677419354841  C 6.1491935483871 0.201612903225809  6.125 0.193548387096777  6.10483870967742 0.18951612903226  C 6.1008064516129 0.18951612903226  6.09677419354839 0.18951612903226  6.09274193548387 0.185483870967743  L 6.03225806451613 0.173387096774194  C 6.0241935483871 0.173387096774194  6.01612903225807 0.169354838709677  6.00806451612903 0.169354838709677  C 5.99193548387097 0.16532258064516  5.9758064516129 0.16532258064516  5.95564516129032 0.16532258064516  L 5.8508064516129 0.16532258064516  C 5.8266129032258 0.16532258064516  5.79838709677419 0.169354838709677  5.7741935483871 0.173387096774192  L 0.97983870967742 0.846774193548387  C 0.951612903225807 0.850806451612904  0.92741935483871 0.854838709677419  0.899193548387097 0.862903225806451  C 0.891129032258066 0.862903225806451  0.883064516129034 0.866935483870968  0.875 0.870967741935482  C 0.858870967741936 0.875  0.838709677419355 0.879032258064514  0.822580645161289 0.887096774193546  C 0.814516129032258 0.891129032258063  0.802419354838709 0.895161290322578  0.794354838709677 0.895161290322578  C 0.778225806451613 0.899193548387095  0.762096774193547 0.907258064516127  0.745967741935484 0.911290322580641  C 0.737903225806452 0.915322580645159  0.725806451612903 0.919354838709673  0.717741935483871 0.92338709677419  C 0.713709677419354 0.927419354838707  0.705645161290323 0.927419354838707  0.701612903225808 0.931451612903222  L 0.67741935483871 0.943548387096771  C 0.665322580645161 0.951612903225803  0.649193548387098 0.95564516129032  0.637096774193549 0.963709677419352  C 0.625 0.971774193548383  0.612903225806451 0.9758064516129  0.600806451612905 0.983870967741932  C 0.588709677419356 0.991935483870964  0.576612903225807 0.999999999999996  0.560483870967743 1.00806451612903  C 0.556451612903226 1.01209677419355  0.548387096774195 1.01612903225806  0.54435483870968 1.02016129032258  C 0.536290322580648 1.0241935483871  0.528225806451616 1.03225806451613  0.520161290322582 1.03629032258064  C 0.51209677419355 1.04032258064516  0.504032258064518 1.04838709677419  0.495967741935484 1.05645161290322  C 0.479838709677421 1.06854838709677  0.467741935483872 1.08064516129032  0.451612903225806 1.09274193548387  C 0.443548387096774 1.09677419354838  0.439516129032257 1.10483870967742  0.431451612903225 1.10887096774193  L 0.427419354838708 1.11290322580645  C 0.411290322580645 1.12903225806451  0.391129032258064 1.14516129032258  0.374999999999998 1.16129032258064  C 0.370967741935481 1.16532258064516  0.370967741935481 1.16935483870967  0.366935483870966 1.16935483870967  C 0.354838709677418 1.18145161290322  0.342741935483869 1.19758064516129  0.330645161290322 1.20967741935483  C 0.326612903225805 1.21370967741935  0.326612903225805 1.21774193548387  0.32258064516129 1.22177419354838  C 0.318548387096773 1.22983870967741  0.310483870967741 1.23387096774193  0.306451612903227 1.24193548387096  C 0.294354838709678 1.25806451612903  0.282258064516129 1.27016129032258  0.270161290322582 1.28629032258064  C 0.266129032258065 1.29435483870967  0.258064516129034 1.30241935483871  0.254032258064519 1.30645161290322  C 0.250000000000002 1.31048387096774  0.245967741935487 1.31451612903225  0.245967741935487 1.31854838709677  L 0.221774193548389 1.35483870967742  C 0.217741935483872 1.36290322580645  0.213709677419358 1.37096774193548  0.205645161290326 1.375  C 0.189516129032262 1.39919354838709  0.177419354838713 1.42338709677419  0.165322580645164 1.44758064516129  C 0.161290322580647 1.45564516129032  0.157258064516133 1.46774193548387  0.153225806451616 1.4758064516129  C 0.145161290322584 1.49193548387096  0.137096774193552 1.51209677419354  0.129032258064518 1.52822580645161  C 0.125000000000001 1.54032258064516  0.120967741935486 1.55241935483871  0.116935483870969 1.56048387096774  C 0.108870967741937 1.5766129032258  0.10483870967742 1.59274193548387  0.0967741935483885 1.60887096774193  C 0.0887096774193567 1.62903225806451  0.0846774193548396 1.64516129032258  0.0766129032258078 1.66532258064516  C 0.0725806451612908 1.67338709677419  0.068548387096776 1.68548387096774  0.068548387096776 1.69354838709677  C 0.0604838709677442 1.72177419354838  0.0524193548387124 1.75403225806451  0.0483870967741954 1.78225806451612  C 0.0322580645161318 1.85483870967741  0.0241935483870977 1.93145161290322  0.0241935483870977 2.00806451612903  L 0.0161290322580659 7.18548387096774  C 0.0161290322580659 7.26209677419354  0.0241935483870977 7.33467741935484  0.0362903225806465 7.40322580645161  C 0.0927419354838714 7.66935483870967  0.245967741935485 7.87903225806451  0.45967741935484 7.99596774193548  L 4.13709677419355 9.99596774193548  C 3.92338709677419 9.87903225806452  3.77016129032258 9.66935483870967  3.71370967741936 9.40322580645161  C 3.69758064516129 9.33467741935483  3.69354838709677 9.26209677419355  3.69354838709677 9.18548387096774  L 3.70161290322581 4.00806451612903  C 3.70161290322581 3.93145161290323  3.70967741935484 3.85483870967742  3.7258064516129 3.78225806451613  C 3.72983870967742 3.75403225806451  3.73790322580645 3.72177419354839  3.74596774193549 3.69354838709677  C 3.75 3.68548387096774  3.75403225806452 3.67338709677419  3.75403225806452 3.66532258064516  C 3.75806451612903 3.64516129032258  3.76612903225807 3.625  3.7741935483871 3.60887096774194  C 3.78225806451613 3.59274193548387  3.78629032258065 3.57661290322581  3.79435483870968 3.56048387096774  C 3.7983870967742 3.54838709677419  3.80241935483871 3.53629032258064  3.80645161290323 3.52822580645161  C 3.81451612903226 3.51209677419355  3.82258064516129 3.49193548387097  3.83064516129032 3.4758064516129  C 3.83467741935484 3.46774193548387  3.83870967741936 3.45564516129032  3.84274193548387 3.44758064516129  C 3.85483870967742 3.42338709677419  3.87096774193549 3.3991935483871  3.88306451612904 3.375  C 3.88709677419355 3.36693548387097  3.89112903225807 3.35887096774194  3.8991935483871 3.35483870967742  C 3.91129032258065 3.33870967741936  3.91935483870968 3.32258064516129  3.93145161290323 3.30645161290323  C 3.93548387096775 3.29838709677419  3.94354838709678 3.29032258064516  3.94758064516129 3.28629032258065  C 3.95967741935484 3.27016129032258  3.97177419354839 3.25806451612903  3.98387096774194 3.24193548387097  C 3.98790322580645 3.23387096774194  3.99596774193548 3.22983870967742  4 3.22177419354839  C 4.01612903225806 3.20564516129032  4.03225806451613 3.18951612903226  4.04435483870968 3.16935483870968  C 4.04838709677419 3.16532258064516  4.04838709677419 3.16129032258064  4.05241935483871 3.16129032258064  L 4.10887096774193 3.10483870967742  C 4.11693548387097 3.1008064516129  4.12096774193548 3.09274193548387  4.12903225806452 3.08870967741936  C 4.14112903225806 3.07661290322581  4.15725806451613 3.06451612903226  4.17338709677419 3.05241935483871  C 4.18145161290323 3.04435483870968  4.18951612903226 3.04032258064516  4.19758064516129 3.03225806451613  C 4.20967741935484 3.0241935483871  4.22177419354839 3.01209677419355  4.23790322580645 3.00403225806452  C 4.25 2.99596774193549  4.26209677419355 2.98790322580645  4.27822580645161 2.97983870967742  C 4.29032258064516 2.97177419354839  4.30241935483871 2.96370967741936  4.31451612903226 2.95967741935484  C 4.32661290322581 2.95161290322581  4.34274193548387 2.94354838709678  4.35483870967742 2.93951612903226  C 4.36693548387097 2.93145161290323  4.38306451612903 2.92741935483871  4.39516129032258 2.91935483870968  C 4.40322580645161 2.91532258064516  4.41532258064516 2.91129032258065  4.42338709677419 2.90725806451613  C 4.43951612903226 2.8991935483871  4.45564516129032 2.89516129032258  4.47177419354839 2.89112903225807  C 4.47983870967742 2.88709677419355  4.49193548387097 2.88306451612903  4.5 2.88306451612903  C 4.51612903225806 2.87903225806452  4.53629032258064 2.87096774193549  4.55241935483871 2.86693548387097  C 4.56048387096774 2.86290322580645  4.56854838709677 2.86290322580645  4.57661290322581 2.85887096774194  C 4.6008064516129 2.85483870967742  4.62903225806452 2.84677419354839  4.65725806451613 2.84274193548388  L 9.45161290322581 2.16935483870968  C 9.47983870967742 2.16532258064517  9.50403225806451 2.16532258064517  9.52822580645161 2.16129032258065  Z " fill-rule="nonzero" fill="#d30032" stroke="none" transform="matrix(1 0 0 1 935 39 )" />
  </g>
</svg>