<?xml version="1.0" encoding="utf-8"?>
<svg version="1.1" xmlns:xlink="http://www.w3.org/1999/xlink" width="20px" height="20px" viewBox="277 447  20 20" xmlns="http://www.w3.org/2000/svg">
  <path d="M 287 447  C 292.6 447  297 451.4  297 457  C 297 462.6  292.6 467  287 467  C 281.4 467  277 462.6  277 457  C 277 451.4  281.4 447  287 447  Z " fill-rule="nonzero" fill="#f0f0f0" stroke="none" />
  <path d="M 287 447.5  C 292.32 447.5  296.5 451.68  296.5 457  C 296.5 462.32  292.32 466.5  287 466.5  C 281.68 466.5  277.5 462.32  277.5 457  C 277.5 451.68  281.68 447.5  287 447.5  Z " stroke-width="1" stroke="#797979" fill="none" />
  <path d="M 287 462  C 284.2 462  282 459.8  282 457  C 282 454.2  284.2 452  287 452  C 289.8 452  292 454.2  292 457  C 292 459.8  289.8 462  287 462  " fill-rule="nonzero" fill="#797979" stroke="none" />
</svg>