<?xml version="1.0" encoding="utf-8"?>
<svg version="1.1" xmlns:xlink="http://www.w3.org/1999/xlink" width="20px" height="20px" xmlns="http://www.w3.org/2000/svg">
  <g transform="matrix(1 0 0 1 -1413 -435 )">
    <path d="M 19.99384765625 10.0029296875  C 19.9896094010894 4.4860199254504  15.5201287637077 0.0137869296061493  10.00322265625 0.00615234375  C 10.0011718752414 0.0061510816320518  9.99912109389711 0.00615045057303389  9.99707031250018 0.00615045057303389  C 4.47600263809307 0.00615045057303389  0.000292968750178557 4.48186011991592  0.000292968750178557 10.002927794323  C 0.000292968750178557 15.5239954687301  4.47600263809307 19.999705138073  9.99707031250018 19.999705138073  C 15.5181379869073 19.999705138073  19.9938476562502 15.5239954687301  19.9938476562502 10.002927794323  Z M 11.01443359375 10.0021484375  L 14.078828125 13.0788671875  C 14.2123143950157 13.2126586221906  14.2872806002801 13.3939356868564  14.2872806002801 13.5829296875  C 14.2872806002801 13.9770772642529  13.9677608580029 14.2965970065301  13.57361328125 14.2965970065301  C 13.3840545672981 14.2965970065301  13.2022835639497 14.2211833904555  13.0683984375 14.0869921875  L 10.00015625 11.01107421875  L 6.92421875 14.05853515625  C 6.79061988646533 14.1906173115013  6.61032884873976 14.2646941079354  6.4224609375 14.2646941079354  C 6.02830719509239 14.2646941079354  5.70878245456458 13.9451693674076  5.70878245456458 13.551015625  C 5.70878245456458 13.3603241304371  5.78509632130896 13.1775633936085  5.920703125 13.04349609375  L 8.99662109375 9.99986328125  L 5.9330078125 6.92392578125  C 5.79951726452 6.79013265090152  5.72454843973545 6.60885173817867  5.72454843973545 6.419853515625  C 5.72454843973545 6.02570212949658  6.04407127012157 5.70617929911045  6.43822265625 5.70617929911045  C 6.62778080640362 5.70617929911045  6.80955147188724 5.78159174308589  6.9434375 5.91578125  L 10.0109375 8.99171875  L 13.086875 5.9434765625  C 13.2205090293749 5.8114612494971  13.4007868738316 5.73743039709812  13.5886328125 5.73743039709812  C 13.9829400009936 5.73743039709812  14.3025891341519 6.05707953025638  14.3025891341519 6.45138671875  C 14.3025891341519 6.6422476727197  14.2261695431395 6.8251626543884  14.090390625 6.959296875  L 11.01443359375 10.0021484375  Z " fill-rule="nonzero" fill="#d7d7d7" stroke="none" transform="matrix(1 0 0 1 1413 435 )" />
  </g>
</svg>