<?xml version="1.0" encoding="utf-8"?>
<svg version="1.1" xmlns:xlink="http://www.w3.org/1999/xlink" width="20px" height="20px" xmlns="http://www.w3.org/2000/svg">
  <g transform="matrix(1 0 0 1 -1379 -435 )">
    <path d="M 19.6959459459459 10  C 19.6959459459459 4.64558699324324  15.3544130067568 0.304054054054054  10 0.304054054054054  C 4.64558699324324 0.304054054054054  0.304054054054054 4.64558699324324  0.304054054054054 10  C 0.304054054054054 15.3544130067568  4.64558699324324 19.6959459459459  10 19.6959459459459  C 15.3544130067568 19.6959459459459  19.6959459459459 15.3544130067568  19.6959459459459 10  Z M 14.7419235641892 6.64321157094595  C 15.0665646114865 6.96785261824324  15.0687288851351 7.49377111486487  14.7440878378378 7.81841216216216  L 9.2035472972973 13.3589527027027  C 9.04122677364865 13.5212732263514  8.82912795608108 13.6013513513514  8.61486486486487 13.6013513513514  C 8.40060177364865 13.6013513513514  8.18850295608108 13.5191089527027  8.02618243243243 13.3589527027027  L 5.25591216216216 10.5886824324324  C 4.93127111486487 10.2640413851351  4.93127111486487 9.73812288851351  5.25591216216216 9.41348184121622  C 5.58055320945946 9.08884079391892  6.10647170608108 9.08884079391892  6.43111275337838 9.41348184121622  L 8.61486486486486 11.5950696790541  L 13.566722972973 6.64321157094595  C 13.8913640202703 6.31857052364865  14.4172825168919 6.31857052364865  14.7419235641892 6.64321157094595  Z " fill-rule="nonzero" fill="#d7d7d7" stroke="none" transform="matrix(1 0 0 1 1379 435 )" />
  </g>
</svg>