<?xml version="1.0" encoding="utf-8"?>
<svg version="1.1" xmlns:xlink="http://www.w3.org/1999/xlink" width="15px" height="16px" xmlns="http://www.w3.org/2000/svg">
  <g transform="matrix(1 0 0 1 -235 -84 )">
    <path d="M 0.00360576923076903 8.14107142857143  L 0.00360576923076928 7.24821428571429  L 0.905048076923077 7.24821428571429  L 0.905048076923077 8.14107142857143  L 0.00360576923076903 8.14107142857143  Z M 2.38882211538462 3.26607142857143  L 3.02704326923077 2.63392857142857  L 2.38882211538462 2.00178571428571  L 1.75060096153846 2.63392857142857  L 2.38882211538462 3.26607142857143  Z M 7.95072115384615 0.983928571428571  L 7.95072115384615 0.0910714285714285  L 7.04927884615385 0.0910714285714285  L 7.04927884615385 0.983928571428571  L 7.95072115384615 0.983928571428571  Z M 14.9963942307692 7.24821428571429  L 14.0949519230769 7.24821428571429  L 14.0949519230769 8.14107142857143  L 14.9963942307692 8.14107142857143  L 14.9963942307692 7.24821428571429  Z M 7.5 1.7125  C 10.6856971153846 1.7125  13.1790865384615 4.32142857142857  13.1790865384615 7.5375  C 13.1790865384615 9.95535714285714  11.0462740384615 11.5642857142857  9.84375 13.6053571428571  L 9.84375 15.9071428571429  L 5.15625 15.9071428571429  L 5.15625 13.6053571428571  C 3.91225961538462 11.6053571428571  1.82091346153846 9.97678571428571  1.82091346153846 7.5375  C 1.82091346153846 4.31964285714286  4.31430288461539 1.7125  7.5 1.7125  Z M 8.94230769230769 15.0142857142857  L 8.94230769230769 14.0089285714286  L 6.05769230769231 14.0089285714286  L 6.05769230769231 15.0142857142857  L 8.94230769230769 15.0142857142857  Z M 12.2776442307692 7.53928571428571  C 12.2776442307692 6.86607142857143  12.1514423076923 6.21428571428571  11.9044471153846 5.60535714285714  C 11.6646634615385 5.01607142857143  11.3221153846154 4.48928571428571  10.8840144230769 4.0375  C 9.98978365384615 3.11428571428571  8.78725961538462 2.60535714285714  7.5 2.60535714285714  C 6.21274038461538 2.60535714285714  5.01021634615385 3.11428571428571  4.11598557692308 4.0375  C 3.6796875 4.48928571428571  3.33533653846154 5.01607142857143  3.09555288461538 5.60535714285714  C 2.84855769230769 6.21428571428571  2.72235576923077 6.86607142857143  2.72235576923077 7.5375  C 2.72235576923077 8.16428571428571  2.89362980769231 8.76964285714286  3.26322115384615 9.44107142857143  C 3.61838942307692 10.0875  4.10516826923077 10.7035714285714  4.62079326923077 11.3553571428571  C 5.0625 11.9142857142857  5.52043269230769 12.4928571428571  5.90985576923077 13.1160714285714  L 7.04927884615385 13.1160714285714  L 7.04927884615385 9.60535714285714  L 6.05769230769231 9.60535714285714  L 6.05769230769231 8.7125  L 8.94230769230769 8.7125  L 8.94230769230769 9.60535714285714  L 7.95072115384615 9.60535714285714  L 7.95072115384615 13.1178571428571  L 9.09014423076923 13.1178571428571  C 9.49399038461539 12.4410714285714  9.97896634615385 11.8214285714286  10.4477163461538 11.2232142857143  C 10.9453125 10.5875  11.4158653846154 9.9875  11.7584134615385 9.36428571428571  C 12.1117788461538 8.71964285714285  12.2776442307692 8.13928571428571  12.2776442307692 7.53928571428571  Z M 12.6111778846154 2.00178571428571  L 11.9729567307692 2.63392857142857  L 12.6111778846154 3.26607142857143  L 13.2493990384615 2.63392857142857  L 12.6111778846154 2.00178571428571  Z " fill-rule="nonzero" fill="#ffffff" stroke="none" transform="matrix(1 0 0 1 235 84 )" />
  </g>
</svg>