<?xml version="1.0" encoding="utf-8"?>
<svg version="1.1" xmlns:xlink="http://www.w3.org/1999/xlink" width="15px" height="18px" xmlns="http://www.w3.org/2000/svg">
  <g transform="matrix(1 0 0 1 -1439 -290 )">
    <path d="M 13.2955745192308 4.877240234375  L 13.2955576923077 15.33844921875  C 13.2955576923077 16.1573046875  12.6227331730769 16.8211181640625  11.7927620192308 16.8211181640625  L 1.74498557692308 16.8211181640625  C 0.915014423076923 16.8211181640625  0.242189903846154 16.1573046875  0.242189903846154 15.33844921875  L 0.242189903846154 1.589931640625  C 0.242189903846154 0.771076171875  0.915014423076923 0.1072626953125  1.74498557692308 0.1072626953125  L 8.04227644230769 0.1072626953125  L 8.04225961538462 0.9358134765625  L 2.54000721153846 0.9358134765625  C 1.84137019230769 0.9358134765625  1.27502644230769 1.5295849609375  1.27502644230769 2.262029296875  L 1.27502644230769 14.5598193359375  C 1.27502644230769 15.292263671875  1.84137019230769 15.88603515625  2.54000721153846 15.88603515625  L 10.9977572115385 15.88603515625  C 11.6963774038462 15.88603515625  12.2627379807692 15.292263671875  12.2627379807692 14.5598193359375  L 12.2627379807692 4.8726083984375  L 13.2955745192308 4.877240234375  Z " fill-rule="nonzero" fill="#02a7f0" stroke="none" transform="matrix(1 0 0 1 1439 290 )" />
  </g>
</svg>