<?xml version="1.0" encoding="utf-8"?>
<svg version="1.1" xmlns:xlink="http://www.w3.org/1999/xlink" width="19px" height="19px" xmlns="http://www.w3.org/2000/svg">
  <g transform="matrix(1 0 0 1 -1484 -289 )">
    <path d="M 10.0717592678494 4.57407406548394  L 10.0717592678494 9.63194444444444  L 13.0405092678494 12.6006944444444  L 12.2708333333333 13.3703703789605  L 8.97222222222222 10.0717592678494  L 8.97222222222222 4.57407406548394  L 10.0717592678494 4.57407406548394  Z M 18.8680555555556 9.52199073215061  C 18.8680555555556 14.6898147976346  14.6898148234049 18.8680555555556  9.5219907321506 18.8680555555556  C 4.35416666666667 18.8680555555556  0.175925934516059 14.6898148234049  0.175925934516059 9.52199073215061  C 0.175925934516059 4.35416664089627  4.35416666666667 0.175925934516059  9.52199073215061 0.175925934516059  C 14.6898147976346 0.175925934516059  18.8680555555556 4.35416666666667  18.8680555555556 9.52199073215061  Z M 1.27546295437283 9.52199073215061  C 1.27546295437283 14.0300925754123  5.01388888888889 17.7685185099284  9.5219907321506 17.7685185099284  C 14.0300925754123 17.7685185099284  17.7685185099284 14.0300925754123  17.7685185099284 9.52199073215061  C 17.7685185099284 5.01388888888889  14.0300926011827 1.27546295437283  9.52199073215061 1.27546295437283  C 5.01388886311849 1.27546295437283  1.27546295437283 5.01388888888889  1.27546295437283 9.52199073215061  Z " fill-rule="nonzero" fill="#02a7f0" stroke="none" transform="matrix(1 0 0 1 1484 289 )" />
  </g>
</svg>