<?xml version="1.0" encoding="utf-8"?>
<svg version="1.1" xmlns:xlink="http://www.w3.org/1999/xlink" width="12px" height="14px" xmlns="http://www.w3.org/2000/svg">
  <g transform="matrix(1 0 0 1 -1441 -290 )">
    <path d="M 6.19385795454546 0.00279326923076923  L 10.9391420454545 4.68724038461538  L 6.19385795454546 4.68724038461538  L 6.19385795454546 0.00279326923076923  Z M 9.13380681818182 3.92883413461538  L 6.91452272727273 1.73800240384615  L 6.91452272727273 3.92883413461538  L 9.13380681818182 3.92883413461538  Z M 9.27623863636364 9.57396394230769  C 9.43634659090909 9.57396394230769  9.56614772727273 9.70210096153846  9.56614772727273 9.86015625  C 9.56614772727273 10.0182115384615  9.43634659090909 10.1463485576923  9.27623863636364 10.1463485576923  L 0.578795454545455 10.1463485576923  C 0.4186875 10.1463485576923  0.288886363636364 10.0182115384615  0.288886363636364 9.86015625  C 0.288886363636364 9.70210096153846  0.418687500000001 9.57396394230769  0.578795454545455 9.57396394230769  L 9.27623863636364 9.57396394230769  Z M 5.86963636363637 8.0066875  C 5.9690625 8.0066875  6.04965340909091 8.13482451923077  6.04965340909091 8.29287980769231  C 6.04965340909091 8.45093509615385  5.96904545454545 8.57907211538462  5.86963636363636 8.57907211538462  L 0.468903409090909 8.57907211538462  C 0.369477272727273 8.57907211538462  0.288886363636364 8.45093509615385  0.288886363636364 8.29287980769231  C 0.288886363636364 8.13482451923077  0.369494318181819 8.0066875  0.468903409090909 8.0066875  L 5.86963636363637 8.0066875  Z M 5.86963636363637 6.57570913461539  C 5.9690625 6.57569230769231  6.04965340909091 6.70382932692308  6.04965340909091 6.86190144230769  C 6.04965340909091 7.01995673076923  5.96904545454545 7.14809375  5.86963636363636 7.14809375  L 0.468903409090909 7.14809375  C 0.369477272727273 7.14809375  0.288886363636364 7.01995673076923  0.288886363636364 6.86190144230769  C 0.288886363636364 6.70384615384615  0.369494318181819 6.57570913461539  0.468903409090909 6.57570913461539  L 5.86963636363637 6.57570913461539  Z M 9.27623863636364 11.0914326923077  C 9.43634659090909 11.0914158653846  9.56614772727273 11.2195528846154  9.56614772727273 11.377625  C 9.56614772727273 11.5356802884615  9.43634659090909 11.6638173076923  9.27623863636364 11.6638173076923  L 0.578795454545455 11.6638173076923  C 0.4186875 11.6638173076923  0.288886363636364 11.5356802884615  0.288886363636364 11.377625  C 0.288886363636364 11.2195697115385  0.418687500000001 11.0914326923077  0.578795454545455 11.0914326923077  L 9.27623863636364 11.0914326923077  Z M 9.33144886363636 12.6501442307692  C 9.49157386363636 12.6501274038462  9.62135795454545 12.7782644230769  9.62135795454545 12.9363365384615  C 9.62135795454545 13.0943918269231  9.49155681818182 13.2225288461538  9.33144886363636 13.2225288461538  L 0.634005681818181 13.2225288461538  C 0.473897727272726 13.2225288461538  0.34409659090909 13.0943918269231  0.34409659090909 12.9363365384615  C 0.34409659090909 12.77828125  0.473897727272727 12.6501442307692  0.634005681818181 12.6501442307692  L 9.33144886363636 12.6501442307692  Z " fill-rule="nonzero" fill="#00bfbf" stroke="none" transform="matrix(1 0 0 1 1441 290 )" />
  </g>
</svg>