<?xml version="1.0" encoding="utf-8"?>
<svg version="1.1" xmlns:xlink="http://www.w3.org/1999/xlink" width="33px" height="33px" xmlns="http://www.w3.org/2000/svg">
  <g transform="matrix(1 0 0 1 -1222 -65 )">
    <path d="M 23.6076923076923 16.5  C 23.6076923076923 15.9923076923077  23.2015384615385 15.4846153846154  22.5923076923077 15.4846153846154  L 17.5153846153846 15.4846153846154  L 17.5153846153846 10.4076923076923  C 17.5153846153846 9.79846153846154  17.1092307692308 9.39230769230769  16.5 9.39230769230769  C 15.8907692307692 9.39230769230769  15.4846153846154 9.79846153846154  15.4846153846154 10.4076923076923  L 15.4846153846154 15.4846153846154  L 10.4076923076923 15.4846153846154  C 9.79846153846154 15.4846153846154  9.39230769230769 15.8907692307692  9.39230769230769 16.5  C 9.39230769230769 17.1092307692308  9.79846153846154 17.5153846153846  10.4076923076923 17.5153846153846  L 15.4846153846154 17.5153846153846  L 15.4846153846154 22.5923076923077  C 15.4846153846154 23.2015384615385  15.8907692307692 23.6076923076923  16.5 23.6076923076923  C 17.1092307692308 23.6076923076923  17.5153846153846 23.2015384615385  17.5153846153846 22.5923076923077  L 17.5153846153846 17.5153846153846  L 22.5923076923077 17.5153846153846  C 23.2015384615385 17.5153846153846  23.6076923076923 17.1092307692308  23.6076923076923 16.5  Z M 32.7461538461538 16.5  C 32.7461538461538 7.56461538461539  25.4353846153846 0.253846153846154  16.5 0.253846153846154  C 7.56461538461539 0.253846153846154  0.253846153846154 7.56461538461539  0.253846153846154 16.5  C 0.253846153846154 25.4353846153846  7.56461538461539 32.7461538461538  16.5 32.7461538461538  C 25.4353846153846 32.7461538461538  32.7461538461538 25.4353846153846  32.7461538461538 16.5  Z M 30.7153846153846 16.5  C 30.7153846153846 24.3184615384615  24.3184615384615 30.7153846153846  16.5 30.7153846153846  C 8.68153846153846 30.7153846153846  2.28461538461539 24.3184615384615  2.28461538461539 16.5  C 2.28461538461539 8.68153846153846  8.68153846153846 2.28461538461538  16.5 2.28461538461538  C 24.3184615384615 2.28461538461538  30.7153846153846 8.68153846153846  30.7153846153846 16.5  Z " fill-rule="nonzero" fill="#00ffff" stroke="none" transform="matrix(1 0 0 1 1222 65 )" />
  </g>
</svg>