<svg width="47" height="14" viewBox="0 0 47 14" fill="none" xmlns="http://www.w3.org/2000/svg">
<path d="M46.4472 13.0441C46.7583 13.0441 46.7826 12.5941 46.4827 12.5113C42.8581 11.5101 40.3218 9.20528 40.3218 6.52206C40.3218 3.83884 42.8581 1.53407 46.4827 0.532843C46.7826 0.450019 46.7583 0 46.4472 0C40.8089 0 36.2381 2.92003 36.2381 6.52206C36.2381 10.1241 40.8089 13.0441 46.4472 13.0441Z" fill="#3BBDE5"/>
<path d="M24.2706 12.5113C23.9708 12.5941 23.9951 13.0441 24.3061 13.0441C29.9445 13.0441 34.5153 10.1241 34.5153 6.52206C34.5153 2.92003 29.9445 0 24.3061 0C23.9951 0 23.9708 0.450007 24.2706 0.532828C27.8953 1.53404 30.4316 3.83882 30.4316 6.52206C30.4316 9.2053 27.8953 11.5101 24.2706 12.5113Z" fill="#F1A124"/>
<path d="M22.672 13.0441C22.9831 13.0441 23.0074 12.5941 22.7075 12.5113C19.0829 11.5101 16.5465 9.20529 16.5465 6.52206C16.5465 3.83883 19.0829 1.53405 22.7075 0.532834C23.0074 0.450011 22.9831 0 22.672 0C17.0337 0 12.4629 2.92003 12.4629 6.52206C12.4629 10.1241 17.0337 13.0441 22.672 13.0441Z" fill="#F1A124"/>
<path d="M0.495393 12.5113C0.195554 12.5941 0.219832 13.0441 0.5309 13.0441C6.16925 13.0441 10.74 10.1241 10.74 6.52206C10.74 2.92003 6.16925 0 0.5309 0C0.219833 0 0.195555 0.450016 0.495394 0.53284C4.12001 1.53406 6.65636 3.83884 6.65636 6.52206C6.65636 9.20529 4.12001 11.5101 0.495393 12.5113Z" fill="#3BBDE5"/>
</svg>
