<?xml version="1.0" encoding="utf-8"?>
<svg version="1.1" xmlns:xlink="http://www.w3.org/1999/xlink" width="715px" height="175px" xmlns="http://www.w3.org/2000/svg">
  <g transform="matrix(1 0 0 1 -63 -71 )">
    <path d="M 64 82  A 10 10 0 0 1 74 72 L 767 72  A 10 10 0 0 1 777 82 L 777 235  A 10 10 0 0 1 767 245 L 74 245  A 10 10 0 0 1 64 235 L 64 82  Z " fill-rule="nonzero" fill="#ffffff" stroke="none" />
    <path d="M 63.5 82  A 10.5 10.5 0 0 1 74 71.5 L 767 71.5  A 10.5 10.5 0 0 1 777.5 82 L 777.5 235  A 10.5 10.5 0 0 1 767 245.5 L 74 245.5  A 10.5 10.5 0 0 1 63.5 235 L 63.5 82  Z " stroke-width="1" stroke="#f2f2f2" fill="none" stroke-opacity="0.996078431372549" />
  </g>
</svg>