<?xml version="1.0" encoding="utf-8"?>
<svg version="1.1" xmlns:xlink="http://www.w3.org/1999/xlink" width="27px" height="21px" xmlns="http://www.w3.org/2000/svg">
  <g transform="matrix(1 0 0 1 -212 -194 )">
    <path d="M 15.74955 10.95  L 15.75 20.4  C 15.7497245538124 20.6483330842762  15.5483335138489 20.8495008691309  15.300000276813 20.8495008691309  C 15.0720306996712 20.8495008691309  14.8800752997549 20.679023930335  14.85315 20.45265  L 14.85 20.4  L 14.85 0.600000000000001  C 14.8502754461876 0.351666915723841  15.0516664861511 0.150499130869127  15.299999723187 0.150499130869127  C 15.5279693003288 0.150499130869127  15.7199247002451 0.320976069664983  15.74685 0.547350000000002  L 15.75 0.600000000000001  L 15.74955 10.05  L 25.36605 10.05  L 22.2012 7.23615  C 22.0320269614506 7.08552004082579  22.0011857745742 6.83262230843947  22.1292 6.64575  L 22.16385 6.60075  C 22.300663053808 6.44705299424531  22.5243006218024 6.40573470289259  22.707 6.5004  L 22.75425 6.52875  L 22.79925 6.56385  L 26.84925 10.16385  C 26.86545 10.17825  26.8803 10.19355  26.89425 10.20975  L 26.92575 10.2525  L 26.9532 10.3002  L 26.9622 10.31955  C 27.0126 10.4343  27.0126 10.5657  26.9622 10.68045  L 26.9415 10.7223  L 26.9154 10.7628  L 26.88255 10.8033  L 26.8488 10.83615  L 22.7988 14.43615  C 22.7166123859491 14.5085776432386  22.6108272302961 14.5485379055134  22.5012801289722 14.5485379055134  C 22.2527519915484 14.5485379055134  22.0512801289722 14.3470660429373  22.0512801289722 14.0985379055134  C 22.0512801289722 13.9903085027593  22.0902867010168 13.8857046238163  22.16115 13.8039  L 22.2012 13.7634  L 25.36605 10.95  L 15.74955 10.95  Z M 11.7 0.149999999999999  C 11.9281386733208 0.150030095079257  12.1201577769742 0.320778200342064  12.14685 0.547349999999998  L 12.15 0.600000000000001  L 12.15 20.4  C 12.1497245538124 20.6483330842762  11.9483335138489 20.8495008691309  11.700000276813 20.8495008691309  C 11.4720306996712 20.8495008691309  11.2800752997549 20.679023930335  11.25315 20.45265  L 11.25 20.4  L 11.24955 10.95  L 1.6335 10.95  L 4.7988 13.76385  C 4.96797303854937 13.9144799591742  4.99881422542575 14.1673776915605  4.8708 14.35425  L 4.83615 14.39925  C 4.68552004082579 14.5684230385494  4.43262230843947 14.5992642254258  4.24575 14.47125  L 4.20075 14.43615  L 0.150750000000002 10.83615  C 0.134687588349811 10.8219290362988  0.119650139443161 10.806590838414  0.10575 10.79025  L 0.0742499999999992 10.7475  L 0.0467999999999993 10.6998  L 0.0377999999999989 10.68045  C -0.0123343030750505 10.5653732924872  -0.0123343030750505 10.4346267075128  0.0377999999999989 10.31955  L 0.0584999999999987 10.2777  L 0.0845999999999982 10.2372  L 0.11745 10.1967  L 0.151199999999999 10.16385  L 4.2012 6.56385  C 4.28338761405087 6.49142235676145  4.38917276970387 6.45146209448659  4.49871987102776 6.45146209448659  C 4.74724800845161 6.45146209448659  4.94871987102776 6.65293395706274  4.94871987102776 6.9014620944866  C 4.94871987102776 7.00969149724074  4.90971329898321 7.11429537618366  4.83885 7.1961  L 4.7988 7.2366  L 1.6335 10.05  L 11.24955 10.05  L 11.25 0.600000000000001  C 11.25 0.351471862576144  11.4514718625761 0.15  11.7 0.15  Z " fill-rule="nonzero" fill="#aaaaaa" stroke="none" transform="matrix(1 0 0 1 212 194 )" />
  </g>
</svg>