<?xml version="1.0" encoding="utf-8"?>
<svg version="1.1" xmlns:xlink="http://www.w3.org/1999/xlink" width="735px" height="175px" xmlns="http://www.w3.org/2000/svg">
  <g transform="matrix(1 0 0 1 -833 -71 )">
    <path d="M 834 82  A 10 10 0 0 1 844 72 L 1557 72  A 10 10 0 0 1 1567 82 L 1567 235  A 10 10 0 0 1 1557 245 L 844 245  A 10 10 0 0 1 834 235 L 834 82  Z " fill-rule="nonzero" fill="#ffffff" stroke="none" fill-opacity="0.996078431372549" />
    <path d="M 833.5 82  A 10.5 10.5 0 0 1 844 71.5 L 1557 71.5  A 10.5 10.5 0 0 1 1567.5 82 L 1567.5 235  A 10.5 10.5 0 0 1 1557 245.5 L 844 245.5  A 10.5 10.5 0 0 1 833.5 235 L 833.5 82  Z " stroke-width="1" stroke="#f2f2f2" fill="none" stroke-opacity="0.996078431372549" />
  </g>
</svg>