<?xml version="1.0" encoding="utf-8"?>
<svg version="1.1" xmlns:xlink="http://www.w3.org/1999/xlink" width="29px" height="24px" xmlns="http://www.w3.org/2000/svg">
  <g transform="matrix(1 0 0 1 -1216 -263 )">
    <path d="M 14.5 4.0275  L 2.9390625 9.8003125  C 2.70070048491281 9.94373957064823  2.42776923170291 10.0195228179534  2.14958264893667 10.0195228179534  C 1.30389662575827 10.0195228179534  0.618332648936674 9.33395884113177  0.618332648936674 8.48827281795337  C 0.618332648936674 7.86998874966009  0.990163765297076 7.31236907875309  1.5609375 7.0746875  L 13.8109375 0.949687500000001  C 14.2443540920143 0.731287466406451  14.7556459079857 0.731287466406451  15.1890625 0.949687500000001  L 27.4390625 7.0746875  C 27.8993424698402 7.35164692966457  28.1808326489367 7.84954548437231  28.1808326489367 8.38672718204663  C 28.1808326489367 9.23241320522503  27.4952686721151 9.91797718204663  26.6495826489367 9.91797718204663  C 26.4475261628383 9.91797718204663  26.2474675128299 9.877987321455  26.0609375 9.8003125  L 14.5 4.0275  Z M 14.5 17.80875  L 2.9390625 23.5815625  C 2.75253248717004 23.659237321455  2.55247383716166 23.6992271820466  2.35041735106331 23.6992271820466  C 1.50473132788491 23.6992271820466  0.819167351063308 23.013663205225  0.819167351063308 22.1679771820466  C 0.819167351063308 21.6307954843723  1.10065753015974 21.1328969296646  1.5609375 20.8559375  L 13.8109375 14.7309375  C 14.2443540920143 14.5125374664064  14.7556459079857 14.5125374664064  15.1890625 14.7309375  L 27.4390625 20.8559375  C 27.8993424698403 21.1328969296646  28.1808326489367 21.6307954843723  28.1808326489367 22.1679771820466  C 28.1808326489367 23.013663205225  27.4952686721151 23.6992271820466  26.6495826489367 23.6992271820466  C 26.4475261628383 23.6992271820466  26.24746751283 23.659237321455  26.0609375 23.5815625  L 14.5 17.80875  Z " fill-rule="nonzero" fill="#02a7f0" stroke="none" transform="matrix(1 0 0 1 1216 263 )" />
  </g>
</svg>