<?xml version="1.0" encoding="utf-8"?>
<svg version="1.1" xmlns:xlink="http://www.w3.org/1999/xlink" width="16px" height="16px" xmlns="http://www.w3.org/2000/svg">
  <g transform="matrix(1 0 0 1 -34 -84 )">
    <path d="M 15.9711258571429 7.97594961061947  C 15.9710893035714 7.53927860176991  15.6139188928571 7.18528709734513  15.1733490357143 7.18528709734513  L 8.79148166071429 7.18528709734513  L 8.79148166071429 0.859896424778761  C 8.79148166071429 0.423225415929204  8.43432951785714 0.0692158053097347  7.99374139285714 0.0692158053097347  C 7.55317153571429 0.0692158053097347  7.196001125 0.423207309734513  7.19600110714286 0.859896424778761  L 7.19600110714286 7.18528709734513  L 0.814170285714286 7.18528709734513  C 0.373600428571429 7.18528709734513  0.016430017857143 7.53927860176991  0.01643 7.97596773451327  C 0.01643 8.41263874336283  0.373582142857143 8.7666483539823  0.814170285714286 8.7666483539823  L 7.19603766071429 8.7666483539823  L 7.19603766071429 15.0920390265487  C 7.19603766071429 15.5287100353982  7.55318980357143 15.8827196460177  7.99377792857143 15.8827196637168  C 8.43434778571429 15.8827196637168  8.79151819642857 15.528728159292  8.79151821428571 15.0920390265487  L 8.79151821428571 8.76663024778761  L 15.1733855892857 8.76663024778761  C 15.6139554464286 8.76663024778761  15.9711258571429 8.41263874336283  15.9711258571429 7.97594961061947  Z " fill-rule="nonzero" fill="#ffffff" stroke="none" transform="matrix(1 0 0 1 34 84 )" />
  </g>
</svg>