<?xml version="1.0" encoding="utf-8"?>
<svg version="1.1" xmlns:xlink="http://www.w3.org/1999/xlink" width="8px" height="8px" xmlns="http://www.w3.org/2000/svg">
  <g transform="matrix(1 0 0 1 -801 -994 )">
    <path d="M 7.93846154237288 4  C 7.93846154237288 6.17616688135593  6.17616688135593 7.93846154237288  4 7.93846154237288  C 1.82383311864407 7.93846154237288  0.0615384576271187 6.17616688135593  0.0615384576271187 4  C 0.0615384576271187 1.82383311864407  1.82383311864407 0.0615384576271187  4 0.0615384576271187  C 6.17616688135593 0.0615384576271187  7.93846154237288 1.82383311864407  7.93846154237288 4  Z M 7.5779921779661 4  C 7.5779921779661 2.02409387288136  5.97590612711864 0.422007822033898  4 0.422007822033898  C 2.02409387288136 0.422007822033898  0.422007822033898 2.02409387288136  0.422007822033898 4  C 0.422007822033898 5.97590612711864  2.02409387288136 7.5779921779661  4 7.5779921779661  C 5.97590612711864 7.5779921779661  7.5779921779661 5.97590612711864  7.5779921779661 4  Z M 2.61219295762712 5.65201772881356  L 2.35732777118644 5.39715254237288  L 5.39715254237288 2.35732777118644  L 5.65201772881356 2.6123264661017  L 2.61219295762712 5.65201772881356  Z M 5.65201772881356 5.38780704237288  L 5.39715254237288 5.64267222881356  L 2.35732777118644 2.60284745762712  L 2.61232646610169 2.34798227118644  L 5.65201772881356 5.38780704237288  Z " fill-rule="nonzero" fill="#000000" stroke="none" transform="matrix(1 0 0 1 801 994 )" />
  </g>
</svg>