<?xml version="1.0" encoding="utf-8"?>
<svg version="1.1" xmlns:xlink="http://www.w3.org/1999/xlink" width="21px" height="21px" xmlns="http://www.w3.org/2000/svg">
  <g transform="matrix(1 0 0 1 -1264 -40 )">
    <path d="M 20.5905001435547 18.6137007861328  L 12.4775028369141 10.5007035  L 20.5905001435547 2.38630620703125  C 20.8551000615234 2.1217062890625  21 1.77030641894531  21 1.39580652832031  C 21 1.02340665820312  20.8544000478516 0.672706760742188  20.5912001367188 0.41020686328125  C 20.3302753927277 0.147012735161731  19.9748112361083 -0.000719179074476192  19.6042004648438 0  C 19.2290005810547 0  18.8776007109375 0.1456069453125  18.6137007861328 0.409506870117188  L 10.5000035068359 8.52250415625  L 2.38630620703125 0.409506870117188  C 2.12474672547241 0.146488604040846  1.76883916901582 -0.000966017520482677  1.39790652832031 0  C 1.02480666503906 0  0.674106767578125 0.1456069453125  0.409506870117188 0.409506870117188  C 0.146503381170889 0.670502841496406  -0.000982479911917862 1.02598157223018  0 1.39650654199219  C 0 1.77030641894531  0.144906952148437 2.12170630957031  0.409506870117188 2.38630620703125  L 8.52390416308594 10.5007035  L 0.409506870117188 18.6130007929687  C 0.14631577352687 18.8747310799442  -0.00115320503408646 19.2309253708721  0 19.6021004648437  C 0 19.9752003486328  0.1456069453125 20.32660021875  0.409506870117188 20.5905001435547  C 0.674106788085937 20.8544000478516  1.02480666503906 21  1.39790652832031 21  C 1.77100641210938 21  2.12240628222656 20.8544000478516  2.38630620703125 20.5905001435547  L 10.5007035 12.4775028369141  L 18.6137007861328 20.5905001435547  C 18.8776006904297 20.8544000478516  19.2297005742188 21  19.6028004580078 21  C 19.9766003349609 21  20.32660021875 20.8544000478516  20.5898001298828 20.5912001367187  C 21.1349365727369 20.0447418428774  21.1349365727369 19.1601590799741  20.5898001298828 18.6137007861328  Z " fill-rule="nonzero" fill="#000000" stroke="none" transform="matrix(1 0 0 1 1264 40 )" />
  </g>
</svg>