<?xml version="1.0" encoding="utf-8"?>
<svg version="1.1" xmlns:xlink="http://www.w3.org/1999/xlink" width="10px" height="10px" xmlns="http://www.w3.org/2000/svg">
  <g transform="matrix(1 0 0 1 -990 -464 )">
    <path d="M 10 1.38888888671875  C 10 0.61111111328125  9.38888888671875 0  8.61111111328125 0  L 1.38888888671875 0  C 0.61111111328125 0  0 0.61111111328125  0 1.38888888671875  L 0 8.61111111328125  C 0 9.38888888671875  0.61111111328125 10  1.38888888671875 10  L 8.61111111328125 10  C 9.38888888671875 10  10 9.38888888671875  10 8.61111111328125  L 10 1.38888888671875  Z M 9.44444444335937 1.38888888671875  L 9.44444444335937 8.61111111328125  C 9.44444444335937 9.05555555664063  9.05555555664063 9.44444444335937  8.61111111328125 9.44444444335937  L 1.38888888671875 9.44444444335937  C 0.944444443359375 9.44444444335937  0.555555556640625 9.05555555664063  0.555555556640625 8.61111111328125  L 0.555555556640625 1.38888888671875  C 0.555555556640625 0.944444443359375  0.944444443359375 0.555555556640625  1.38888888671875 0.555555556640625  L 8.61111111328125 0.555555556640625  C 9.05555555664063 0.555555556640625  9.44444444335937 0.944444443359375  9.44444444335937 1.38888888671875  Z M 8.16666666992188 5  C 8.1666666796875 4.83333333984375  8 4.7222222265625  7.88888888671875 4.7222222265625  L 2.16666666992188 4.7222222265625  C 2 4.7222222265625  1.88888889648438 4.83333333984375  1.88888888671875 5  C 1.88888887695313 5.16666666015625  2 5.2777777734375  2.16666666992188 5.2777777734375  L 7.88888888671875 5.2777777734375  C 8.05555555664063 5.2777777734375  8.16666666015625 5.16666666015625  8.16666666992188 5  Z " fill-rule="nonzero" fill="#02a7f0" stroke="none" transform="matrix(1 0 0 1 990 464 )" />
  </g>
</svg>