<?xml version="1.0" encoding="utf-8"?>
<svg version="1.1" xmlns:xlink="http://www.w3.org/1999/xlink" width="10px" height="10px" xmlns="http://www.w3.org/2000/svg">
  <g transform="matrix(1 0 0 1 -990 -464 )">
    <path d="M 0.0710059230769236 0.828402365384616  C 0.0710059230769236 0.410103860721979  0.410103860721979 0.0710059230769236  0.828402365384616 0.0710059230769236  L 9.15976330769231 0.0710059230769236  C 9.57806183158572 0.0710059230769236  9.91715976923077 0.410103860721979  9.91715976923077 0.828402365384616  L 9.91715976923077 9.15976330769231  C 9.91715976923077 9.57806183158572  9.57806183158572 9.91715976923077  9.15976332692308 9.91715976923077  L 0.828402365384616 9.91715976923077  C 0.410103860721979 9.91715976923077  0.0710059230769236 9.57806183158572  0.0710059230769236 9.15976332692308  L 0.0710059230769236 0.828402365384616  Z M 9.15976330769231 0.828402365384616  L 0.828402365384616 0.828402365384616  L 0.828402365384616 9.15976330769231  L 9.15976330769231 9.15976330769231  L 9.15976330769231 0.828402365384616  Z M 2.7218935 4.61538461538462  L 4.61538461538462 4.61538461538462  L 4.61538461538462 2.7218935  C 4.61538460576923 2.51265890386325  4.78493357889671 2.34310993073577  4.99408283653846 2.34310993073577  C 5.20323209418021 2.34310993073577  5.37278106730769 2.51265890386325  5.37278106730769 2.721808161505  L 5.37278105769231 4.61538461538462  L 7.26627219230769 4.61538461538462  C 7.47550678844445 4.61538460576923  7.64505576157193 4.78493357889671  7.64505576157193 4.99408283653846  C 7.64505576157193 5.20323209418021  7.47550678844445 5.37278106730769  7.2663575308027 5.37278106730769  L 5.37278105769231 5.37278105769231  L 5.37278105769231 7.26627219230769  C 5.3727810673077 7.47550678843848  5.20323209418021 7.64505576156596  4.99408283653846 7.64505576156596  C 4.78493357889672 7.64505576156596  4.61538460576923 7.47550678843848  4.61538460576923 7.26635753079673  L 4.61538461538462 5.37278105769231  L 2.7218935 5.37278105769231  C 2.51265890386922 5.3727810673077  2.34310993074174 5.20323209418021  2.34310993074174 4.99408283653846  C 2.34310993074174 4.78493357889672  2.51265890386922 4.61538460576923  2.72180816151097 4.61538460576923  Z " fill-rule="nonzero" fill="#02a7f0" stroke="none" transform="matrix(1 0 0 1 990 464 )" />
  </g>
</svg>