<?xml version="1.0" encoding="utf-8"?>
<svg version="1.1" xmlns:xlink="http://www.w3.org/1999/xlink" width="51px" height="51px" xmlns="http://www.w3.org/2000/svg">
  <g transform="matrix(1 0 0 1 -774 -237 )">
    <path d="M 0 25.5  C 0 11.4166183974609  11.4166183974609 0  25.5 0  C 39.5833816025391 0  51 11.4166183974609  51 25.5  C 51 39.5833816025391  39.5833816025391 51  25.5 51  C 11.4166183974609 51  0 39.5833816025391  0 25.5  Z M 27.5131579130859 14.7631579130859  C 27.5131579130859 13.6513214986874  26.6118364143986 12.75  25.5 12.75  C 24.3881635856015 12.75  23.4868420869141 13.6513214986874  23.4868420869141 14.7631579130859  L 23.4868420869141 23.4868420869141  L 14.7631579130859 23.4868420869141  C 13.6513214986874 23.4868420869141  12.75 24.3881635856015  12.75 25.5  C 12.75 26.6118364143986  13.6513214986874 27.5131579130859  14.7631579130859 27.5131579130859  L 23.4868420869141 27.5131579130859  L 23.4868420869141 36.2368420869141  C 23.4868420869141 37.3486785013126  24.3881635856015 38.25  25.5 38.25  C 26.6118364143986 38.25  27.5131579130859 37.3486785013126  27.5131579130859 36.2368420869141  L 27.5131579130859 27.5131579130859  L 36.2368420869141 27.5131579130859  C 37.3486785013126 27.5131579130859  38.25 26.6118364143986  38.25 25.5  C 38.25 24.3881635856015  37.3486785013126 23.4868420869141  36.2368420869141 23.4868420869141  L 27.5131579130859 23.4865066025391  L 27.5131579130859 14.7631579130859  Z " fill-rule="nonzero" fill="#aaaaaa" stroke="none" transform="matrix(1 0 0 1 774 237 )" />
  </g>
</svg>