<?xml version="1.0" encoding="utf-8"?>
<svg version="1.1" xmlns:xlink="http://www.w3.org/1999/xlink" width="70px" height="22px" xmlns="http://www.w3.org/2000/svg">
  <g transform="matrix(1 0 0 1 -684 -266 )">
    <path d="M 685 269  A 2 2 0 0 1 687 267 L 751 267  A 2 2 0 0 1 753 269 L 753 285  A 2 2 0 0 1 751 287 L 687 287  A 2 2 0 0 1 685 285 L 685 269  Z " fill-rule="nonzero" fill="#ffffff" stroke="none" fill-opacity="0" />
    <path d="M 684.5 269  A 2.5 2.5 0 0 1 687 266.5 L 751 266.5  A 2.5 2.5 0 0 1 753.5 269 L 753.5 285  A 2.5 2.5 0 0 1 751 287.5 L 687 287.5  A 2.5 2.5 0 0 1 684.5 285 L 684.5 269  Z " stroke-width="1" stroke-dasharray="3,1" stroke="#81d3f8" fill="none" stroke-dashoffset="0.5" />
  </g>
</svg>