<?xml version="1.0" encoding="utf-8"?>
<svg version="1.1" xmlns:xlink="http://www.w3.org/1999/xlink" width="13px" height="13px" xmlns="http://www.w3.org/2000/svg">
  <g transform="matrix(1 0 0 1 -806 -243 )">
    <path d="M 9.68893422656249 8.03589815725807  C 10.222618453125 7.67145673387097  10.9451447421875 7.81730394354839  11.3026447421875 8.36149406048387  C 11.8725464512235 9.22929155408896  12.3804350053339 10.1388008724607  12.8222763398438 11.0827979516129  C 13.0986973710937 11.6739558629032  12.8530658242188 12.3816502298387  12.2728552578125 12.6634566814516  C 11.6929868554687 12.9452631330645  10.9988552578125 12.6945330766129  10.7224342265625 12.1037283669355  C 10.3293681506733 11.2630614498869  9.87714828324435 10.4532594414291  9.36940788671875 9.68082852016129  C 9.24145133525475 9.48597884873206  9.17305259618393 9.25599095799509  9.17305259618393 9.02059209301906  C 9.17305259618393 8.62353634380566  9.36704130049973 8.25325857174055  9.68893422656249 8.03589815725807  Z M 1.89817103125 0.160149411290321  C 3.19316761017757 0.724455666330617  4.43060444609111 1.42026943597945  5.59222366015625 2.23732427016129  C 6.75721340606666 3.05667942507475  7.84152072868622 3.99203879213812  8.8295657734375 5.0299626733871  C 9.28692154518512 5.51344994272256  9.28692154518512 6.28534125082583  8.82956577343749 6.76882852016129  C 8.6117946315016 6.99895390213795  8.31331800828804 7.12869455090048  8.00167105664062 7.12869455090048  C 7.6900241049932 7.12869455090048  7.39154748177965 6.99895390213795  7.17377633984375 6.76882852016129  C 6.29336842154471 5.84414824468187  5.32719654483749 5.01086418027669  4.2891447421875 4.28095074193548  C 3.25511442892911 3.55362846650997  2.1535913796606 2.93423339088477  1.00082896874999 2.43190491532258  C 0.403171082031241 2.17199318951613  0.119907937499995 1.45264516129032  0.367592113281245 0.825113774193549  C 0.615276339843745 0.197935483870968  1.30051314453124 -0.100115411290322  1.89782896875 0.160149411290323  Z " fill-rule="nonzero" fill="#ffffff" stroke="none" transform="matrix(1 0 0 1 806 243 )" />
  </g>
</svg>