<?xml version="1.0" encoding="utf-8"?>
<svg version="1.1" xmlns:xlink="http://www.w3.org/1999/xlink" width="14px" height="15px" xmlns="http://www.w3.org/2000/svg">
  <g transform="matrix(1 0 0 1 -255 -85 )">
    <path d="M 12.3668763089623 13.1890476123047  L 12.3668763089623 11.9047619091797  C 12.3668763089623 11.5102728002315  12.7273011662043 11.1904761914062  13.171907759434 11.1904761914062  C 13.6165143526636 11.1904761914062  13.9769392099057 11.5102728002315  13.9769392099057 11.9047619091797  L 13.9769392099057 13.1890476123047  C 13.976939217022 13.9781601447226  13.2560895025379 14.6177533623731  12.3668763160786 14.6177533623731  C 12.0490317734752 14.6177533623731  11.7382978468023 14.5342820643516  11.4738280966981 14.3778571435547  L 9.97190775 13.4892857080078  L 8.42061216037736 14.4904761914063  C 7.57370662434514 15.0370495171572  6.42629337565486 15.0370495171572  5.57938783962264 14.4904761914063  L 4.02836059433962 13.4892857080078  L 2.52617190330189 14.3778571435547  C 2.26170215319772 14.5342820643516  1.95096822652481 14.6177533623731  1.63312368392143 14.6177533623731  C 0.743910497462061 14.6177533623731  0.0230607829780297 13.9781601447226  0.0230607829780297 13.1891819268262  C 0.0230607829780297 13.1891371553202  0.0230607853501333 13.1890923838105  0 13.1890476123047  L 0 2.14285713867188  C 0.0230607900943397 2.14285713867188  0.0230607900943397 2.14285713867188  0.0230607900943397 2.14285713867188  C 0.0230607900943397 0.959389819917349  1.10433535442886 0  2.438155125 0  L 11.5618448584906 0  C 12.8956646455711 0  13.9769392099057 0.959389819917349  13.9769392099057 2.14285713867188  L 13.9769392099057 9.52380952148438  C 13.9769392099057 9.91829863043259  13.6165143526636 10.2380952392578  13.171907759434 10.2380952392578  C 12.7273011662043 10.2380952392578  12.3668763089623 9.91829863043259  12.3668763089623 9.52380952148438  L 12.3668763089623 2.14285713867188  C 12.3668762998444 1.74836803544423  12.0064514452729 1.42857143554688  11.5618448584906 1.42857143554688  L 2.43815514150943 1.42857143554688  C 1.99354855472709 1.42857143554688  1.63312370015564 1.74836803544423  1.63312369103774 2.14285713867188  L 1.63312369103774 13.1890476123047  L 3.13504402122642 12.3007142871094  C 3.69580430173018 11.9690437898535  4.43004236435952 11.982344958224  4.9750775754717 12.3340476123047  L 6.52637316509434 13.335  C 6.80871273193304 13.5172680884955  7.19128726806695 13.5172680884955  7.47362683490566 13.335  L 9.02465408018868 12.3340476123047  C 9.56974704427123 11.9822348041795  10.3041351515907 11.9689328575697  10.8649559787736 12.3007142871094  L 12.3668763089623 13.1890476123047  Z M 9.68343816273585 5.23809524414063  L 4.31656183726415 5.23809524414063  C 3.87195524403447 5.23809524414063  3.51153038679245 4.9182986353154  3.51153038679245 4.52380952636719  C 3.51153038679245 4.12932041741898  3.87195524403447 3.80952380859375  4.31656183726415 3.80952380859375  L 9.68343816273585 3.80952380859375  C 10.1280447559655 3.80952380859375  10.4884696132075 4.12932041741898  10.4884696132075 4.52380952636719  C 10.4884696132075 4.9182986353154  10.1280447559655 5.23809524414063  9.68343816273585 5.23809524414063  Z M 7 7.6190476171875  L 4.31656183726415 7.6190476171875  C 3.87200026948838 7.61899112990203  3.51164567171539 7.29921106969112  3.51164567171539 6.90476190673828  C 3.51164567171539 6.51031274378545  3.87200026948838 6.19053268357453  4.31656183726415 6.19047619628906  L 7 6.19047619628906  C 7.44456156777577 6.19053268357453  7.80491616554876 6.51031274378545  7.80491616554876 6.90476190673828  C 7.80491616554876 7.29921106969112  7.44456156777577 7.61899112990203  7 7.6190476171875  Z M 10.4883543282846 6.90476190673828  C 10.4883543282846 7.29921106969112  10.1279997305116 7.61899112990203  9.68343816273585 7.6190476171875  C 9.23871628458323 7.61904762451172  8.87829142734121 7.29925101568649  8.87829142734121 6.90476190673828  C 8.87829142734121 6.51027279779007  9.23871628458323 6.19047618896484  9.68332287781291 6.19047618896484  C 10.1279997305116 6.19053268357453  10.4883543282846 6.51031274378545  10.4883543282846 6.90476190673828  Z " fill-rule="nonzero" fill="#ffffff" stroke="none" transform="matrix(1 0 0 1 255 85 )" />
  </g>
</svg>