<?xml version="1.0" encoding="utf-8"?>
<svg version="1.1" xmlns:xlink="http://www.w3.org/1999/xlink" width="13px" height="12px" xmlns="http://www.w3.org/2000/svg">
  <g transform="matrix(1 0 0 1 -367 -87 )">
    <path d="M 12.9936413043478 8.06190740740741  C 12.9936589673913 7.48316666666667  12.5463423913043 7.01548148148148  11.9958559782609 7.01548148148148  C 11.626433423913 7.01548148148148  11.3083926630435 7.2272037037037  11.135683423913 7.53868518518519  L 9.30943070652174 7.53868518518519  L 7.86459375 4.50974074074074  L 6.75228125 8.78701851851852  L 6.00478125 0.167240740740741  L 5.0263722826087 0.0797777777777776  L 3.12899048913044 7.53868518518518  L 0.0190937499999998 7.53868518518518  L 0.0190937499999998 8.58514814814815  L 3.8952839673913 8.58514814814815  L 5.26590081521739 3.19733333333333  L 6.0090910326087 11.7712592592593  L 6.9875 11.8610185185185  L 8.14015489130435 7.42862962962963  L 8.69184239130435 8.58514814814815  L 11.135683423913 8.58514814814815  C 11.3086929347826 8.89566666666667  11.626433423913 9.10818518518519  11.9958559782609 9.10818518518519  C 12.5463423913043 9.10818518518519  12.9936413043478 8.63887037037037  12.9936413043478 8.06190740740741  Z " fill-rule="nonzero" fill="#ffffff" stroke="none" transform="matrix(1 0 0 1 367 87 )" />
  </g>
</svg>