<?xml version="1.0" encoding="utf-8"?>
<svg version="1.1" xmlns:xlink="http://www.w3.org/1999/xlink" width="15px" height="15px" xmlns="http://www.w3.org/2000/svg">
  <g transform="matrix(1 0 0 1 -366 -85 )">
    <path d="M 14.8608199541284 0  L 0.117987385321101 0  C 0.0990653669724771 0.0173611111111111  0.0835837155963302 0.0329861111111112  0 0.0520833333333333  L 0 14.9318576388889  C 0.0835837155963302 14.9509548611111  0.0990653669724771 14.9665798611111  0.117987385321101 15  L 14.8608199541284 15  C 14.8797419724771 14.9665798611111  14.8952236238532 14.9509548611111  14.8952236238532 14.9318576388889  L 14.8952236238532 0.0520833333333333  C 14.8952236238532 0.0329861111111112  14.8797419724771 0.0173611111111111  14.8608199541284 0  Z M 13.3343291284404 1.62744791666667  L 13.3343291284404 13.3565104166667  C 13.3343291284404 13.3756076388889  13.3188474770642 13.3912326388889  13.2999254587156 13.3912326388889  L 1.67889908256881 13.3912326388889  C 1.65997706422018 13.3912326388889  1.64449541284404 13.3756076388889  1.64449541284404 13.3565104166667  L 1.64449541284404 1.62744791666667  C 1.64449541284404 1.60835069444444  1.65997706422018 1.59272569444444  1.67889908256881 1.59272569444444  L 13.2999254587156 1.59272569444444  C 13.3188474770642 1.59272569444444  13.3343291284404 1.60835069444444  13.3343291284404 1.62744791666667  Z " fill-rule="nonzero" fill="#ffffff" stroke="none" transform="matrix(1 0 0 1 366 85 )" />
  </g>
</svg>