<?xml version="1.0" encoding="utf-8"?>
<svg version="1.1" xmlns:xlink="http://www.w3.org/1999/xlink" width="170px" height="170px" xmlns="http://www.w3.org/2000/svg">
  <g transform="matrix(1 0 0 1 -67 -825 )">
    <path d="M 152 829  C 197.36 829  233 864.64  233 910  C 233 955.36  197.36 991  152 991  C 106.64 991  71 955.36  71 910  C 71 864.64  106.64 829  152 829  Z " fill-rule="nonzero" fill="#02a7f0" stroke="none" />
    <path d="M 152 827.5  C 198.2 827.5  234.5 863.8  234.5 910  C 234.5 956.2  198.2 992.5  152 992.5  C 105.8 992.5  69.5 956.2  69.5 910  C 69.5 863.8  105.8 827.5  152 827.5  Z " stroke-width="5" stroke="#000000" fill="none" />
  </g>
</svg>