<?xml version="1.0" encoding="utf-8"?>
<svg version="1.1" xmlns:xlink="http://www.w3.org/1999/xlink" width="170px" height="170px" xmlns="http://www.w3.org/2000/svg">
  <g transform="matrix(1 0 0 1 -331 -827 )">
    <path d="M 416 831  C 461.36 831  497 866.64  497 912  C 497 957.36  461.36 993  416 993  C 370.64 993  335 957.36  335 912  C 335 866.64  370.64 831  416 831  Z " fill-rule="nonzero" fill="#f59a23" stroke="none" />
    <path d="M 416 829.5  C 462.2 829.5  498.5 865.8  498.5 912  C 498.5 958.2  462.2 994.5  416 994.5  C 369.8 994.5  333.5 958.2  333.5 912  C 333.5 865.8  369.8 829.5  416 829.5  Z " stroke-width="5" stroke="#000000" fill="none" />
  </g>
</svg>