<?xml version="1.0" encoding="utf-8"?>
<svg version="1.1" xmlns:xlink="http://www.w3.org/1999/xlink" width="170px" height="170px" xmlns="http://www.w3.org/2000/svg">
  <g transform="matrix(1 0 0 1 -596 -825 )">
    <path d="M 681 829  C 726.36 829  762 864.64  762 910  C 762 955.36  726.36 991  681 991  C 635.64 991  600 955.36  600 910  C 600 864.64  635.64 829  681 829  Z " fill-rule="nonzero" fill="#04f21c" stroke="none" />
    <path d="M 681 827.5  C 727.2 827.5  763.5 863.8  763.5 910  C 763.5 956.2  727.2 992.5  681 992.5  C 634.8 992.5  598.5 956.2  598.5 910  C 598.5 863.8  634.8 827.5  681 827.5  Z " stroke-width="5" stroke="#000000" fill="none" />
  </g>
</svg>