<?xml version="1.0" encoding="utf-8"?>
<svg version="1.1" xmlns:xlink="http://www.w3.org/1999/xlink" width="170px" height="170px" xmlns="http://www.w3.org/2000/svg">
  <g transform="matrix(1 0 0 1 -860 -825 )">
    <path d="M 945 829  C 990.36 829  1026 864.64  1026 910  C 1026 955.36  990.36 991  945 991  C 899.64 991  864 955.36  864 910  C 864 864.64  899.64 829  945 829  Z " fill-rule="nonzero" fill="#8400ff" stroke="none" />
    <path d="M 945 827.5  C 991.2 827.5  1027.5 863.8  1027.5 910  C 1027.5 956.2  991.2 992.5  945 992.5  C 898.8 992.5  862.5 956.2  862.5 910  C 862.5 863.8  898.8 827.5  945 827.5  Z " stroke-width="5" stroke="#000000" fill="none" />
  </g>
</svg>