<?xml version="1.0" encoding="utf-8"?>
<svg version="1.1" xmlns:xlink="http://www.w3.org/1999/xlink" width="170px" height="170px" xmlns="http://www.w3.org/2000/svg">
  <g transform="matrix(1 0 0 1 -860 -1095 )">
    <path d="M 945 1099  C 990.36 1099  1026 1134.64  1026 1180  C 1026 1225.36  990.36 1261  945 1261  C 899.64 1261  864 1225.36  864 1180  C 864 1134.64  899.64 1099  945 1099  Z " fill-rule="nonzero" fill="#d9001b" stroke="none" />
    <path d="M 945 1097.5  C 991.2 1097.5  1027.5 1133.8  1027.5 1180  C 1027.5 1226.2  991.2 1262.5  945 1262.5  C 898.8 1262.5  862.5 1226.2  862.5 1180  C 862.5 1133.8  898.8 1097.5  945 1097.5  Z " stroke-width="5" stroke="#000000" fill="none" />
  </g>
</svg>