<?xml version="1.0" encoding="utf-8"?>
<svg version="1.1" xmlns:xlink="http://www.w3.org/1999/xlink" width="170px" height="170px" xmlns="http://www.w3.org/2000/svg">
  <g transform="matrix(1 0 0 1 -596 -1095 )">
    <path d="M 681 1099  C 726.36 1099  762 1134.64  762 1180  C 762 1225.36  726.36 1261  681 1261  C 635.64 1261  600 1225.36  600 1180  C 600 1134.64  635.64 1099  681 1099  Z " fill-rule="nonzero" fill="#d9001b" stroke="none" fill-opacity="0" />
    <path d="M 681 1097.5  C 727.2 1097.5  763.5 1133.8  763.5 1180  C 763.5 1226.2  727.2 1262.5  681 1262.5  C 634.8 1262.5  598.5 1226.2  598.5 1180  C 598.5 1133.8  634.8 1097.5  681 1097.5  Z " stroke-width="5" stroke="#000000" fill="none" />
  </g>
</svg>