<?xml version="1.0" encoding="utf-8"?>
<svg version="1.1" xmlns:xlink="http://www.w3.org/1999/xlink" width="21px" height="21px" xmlns="http://www.w3.org/2000/svg">
  <g transform="matrix(1 0 0 1 -1059 -607 )">
    <path d="M 20.9743041217949 10.5116607435897  C 20.9742581730769 9.15711490705128  20.7172804102564 7.83659402884615  20.2104650416667 6.58676325641026  C 19.6856500032051 5.29255313461538  18.9147396442308 4.13157289102564  17.9191545480769 3.1359877948718  C 16.9235694519231 2.14040269871795  15.7625203301282 1.36946938782051  14.4683331826923 0.844654349358975  C 13.2185024102564 0.337816028846154  11.8979356057692 0.080838266025641  10.5433897916667 0.080838266025641  C 9.18882100320513 0.080838266025641  7.868300125 0.337816028846154  6.6184693525641 0.844654349358974  C 5.32428220512821 1.36946938782051  4.16327898717949 2.14040269871795  3.16769389102564 3.13598779487179  C 2.1721087948718 4.13157289102564  1.40122141025641 5.29257608653846  0.876406349358975 6.58676325641026  C 0.369591003205128 7.83659402884615  0.112613240384615 9.15711490705128  0.112613240384615 10.5116607435897  C 0.112613240384615 11.8662295320513  0.369591003205128 13.1867274583333  0.876429323717949 14.4365811826923  C 1.40124436217949 15.7307683301282  2.17213176923077 16.8917715480769  3.16771686538462 17.8873566442308  C 4.16330196153846 18.8829417403846  5.32430515705128 19.653829125  6.61849232692308 20.1786671378205  C 7.86832309935897 20.6854824839744  9.18886695192308 20.9424832211539  10.5434127660256 20.9424832211539  C 11.8979585801282 20.9424832211539  13.2185024326923 20.6855054583333  14.4683332051282 20.1786671378205  C 15.7625433269231 19.653852099359  16.923569474359 18.8829417403846  17.9192004967949 17.8873566442308  C 18.9147626410256 16.8917945  19.685650025641 15.7307683525641  20.2104880384615 14.4365811826923  C 20.7173033846154 13.1867504102564  20.9743041217949 11.8662295320513  20.9743041217949 10.5116607435897  Z M 20.1312342628205 10.5116607660256  C 20.1312572147436 11.757106375  19.8950341826923 12.9710525448718  19.4292232435897 14.1197728044872  C 18.9470426698718 15.3088546153846  18.2384195224359 16.3759104294872  17.3230754262821 17.2912545480769  C 16.4076854038462 18.2066216185897  15.3406066153846 18.9152447660256  14.1515248044872 19.3974253397436  C 13.0027815929487 19.8632362788462  11.7888354230769 20.0994363589744  10.5433897916667 20.0994363589744  C 9.29792118589744 20.0994363589744  8.08397501602564 19.8632363012821  6.93527773076923 19.3974253397436  C 5.7461959198718 18.9152447660256  4.67916305769231 18.2066216185897  3.76379598717949 17.2912775224359  C 2.84842891666667 16.3759104519231  2.13982872115385 15.3088546378205  1.65762519551282 14.1197728269231  C 1.19179128205128 12.9710525897436  0.955614176282052 11.7571063974359  0.955614176282052 10.5116607660256  C 0.955614176282052 9.26621513461538  1.19181423397436 8.05226894230769  1.65762519551282 6.9035487051282  C 2.13980576923077 5.71446689423077  2.84842891666667 4.64743403205128  3.76379598717949 3.73206696153846  C 4.67916305769231 2.81667693910256  5.7461959198718 2.10805379166667  6.93527773076923 1.62585026602564  C 8.08399796794872 1.1600163525641  9.29794416025641 0.923816294871794  10.5433897916667 0.923816294871794  C 11.7888354230769 0.923816294871794  13.0027816153846 1.1600163525641  14.1515248044872 1.62585026602564  C 15.3406066153846 2.10803083974359  16.4076853814103 2.81667693910256  17.3230524519231 3.73206696153846  C 18.2384195224359 4.64743403205128  18.9470426698718 5.71446689423077  19.4292232435897 6.9035487051282  C 19.8950341826923 8.05226894230769  20.1312342628205 9.26621513461538  20.1312342628205 10.5116607660256  Z M 17.705362275641 10.4954518397436  C 17.704880150641 10.2629710929487  17.5162966282051 10.0748926698718  17.2839306634615 10.0748926698718  L 10.9657856538462 10.0891500769231  L 10.9790328846154 3.75890576923077  C 10.9795150096154 3.52610360576923  10.7911840480769 3.33701498397436  10.5584048365385 3.33650990705128  C 10.3251435 3.33650990705128  10.1365140512821 3.52465720833333  10.1360319262821 3.75713795512821  L 10.1227617435897 10.0910556698718  L 3.80199942948718 10.1053360288462  C 3.56919726602564 10.1058640801282  3.38093516025641 10.2949986282051  3.38144025961538 10.5278007692308  C 3.38196831089743 10.7602815160256  3.57057478525641 10.9483599391026  3.80291777564102 10.9483599391026  L 10.1209709551282 10.9341025320513  L 10.107723724359 17.2644386698718  C 10.107241599359 17.4972178814103  10.2955725608974 17.6863294551282  10.5283517724359 17.6868115801282  C 10.7615901570513 17.6868115801282  10.9502425576923 17.4986642788462  10.9507246826923 17.2661835320513  L 10.9639719134615 10.9321969391026  L 17.2848031057692 10.9179165801282  C 17.5176052692308 10.9173885288462  17.7058903269231 10.7282539807692  17.705362275641 10.4954518397436  Z " fill-rule="nonzero" fill="#02a7f0" stroke="none" transform="matrix(1 0 0 1 1059 607 )" />
  </g>
</svg>