<?xml version="1.0" encoding="utf-8"?>
<svg version="1.1" xmlns:xlink="http://www.w3.org/1999/xlink" width="114px" height="132px" xmlns="http://www.w3.org/2000/svg">
  <g transform="matrix(1 0 0 1 -1542 -285 )">
    <path d="M 48 0.108784436677629  L 47.9674960345644 1  L 1 1  L 1 48  L 19.4260414891099 48  L 19.4260414891099 56  L 29.624972952178 56  L 29.624972952178 48  L 48 48  L 48 37.0166215049342  L 56.1499715317235 37.0166215049342  L 56.1499715317235 28.8083633840461  L 48 28.8083633840461  L 48 0.108784436677629  Z M 38 37.0167945106908  L 37.7881785629735 37  L 12 37  L 12 11  L 38 11  L 38 37.0167945106908  Z M 20 112  L 20 102.643933182566  L 30 102.643933182566  L 30 112  L 20 112  Z M 103 29  L 103 19  L 113.233052675189 19  L 113.233052675189 29  L 103 29  Z M 66 48  L 66 64.9093016036184  L 66.329633108428 76  L 76 76  L 76 65.7359231085526  L 84 65.7359231085526  L 84 55.4804878700658  L 76.5285645714962 55.4804878700658  L 76.5285645714962 48  L 66 48  Z M 66 84  L 66 102.407780324836  L 66.329633108428 112  L 76 112  L 76 94.4356750616776  L 84 94.4356750616776  L 84 84  L 66 84  Z M 76.5285645714962 121.107626541941  L 76.5285645714962 112.899368421053  L 84.6915981297349 112.899368421053  L 84.6915981297349 121.107626541941  L 76.5285645714962 121.107626541941  Z M 76 121  L 57 121  L 57 131  L 76 131  L 76 121  Z " fill-rule="nonzero" fill="#000000" stroke="none" transform="matrix(1 0 0 1 1542 285 )" />
  </g>
</svg>