<?xml version="1.0" encoding="utf-8"?>
<svg version="1.1" xmlns:xlink="http://www.w3.org/1999/xlink" width="114px" height="67px" xmlns="http://www.w3.org/2000/svg">
  <g transform="matrix(1 0 0 1 -1542 -350 )">
    <path d="M 56.130529592803 47.944275862069  L 48 47.944275862069  L 48 29.5239924400593  L 57 29.5239924400593  L 57 20  L 20 20  L 20 1  L 1 1  L 1 12  L 11.2630079308712 12  L 11.2630079308712 20  L 1 20  L 1 66  L 47.9674960345644 66  L 47.9674960345644 56.1332355704472  L 56.130529592803 56.1332355704472  L 56.130529592803 47.944275862069  Z M 38 56.1332355704472  L 37.7881785629735 56  L 12 56  L 12 30  L 38 30  L 38 56.1332355704472  Z M 56.1307016453598 20  L 56.1307016453598 12  L 66.329633108428 12  L 66.329633108428 20  L 56.1307016453598 20  Z M 84 12  L 84 1  L 94 1  L 94 12  L 84 12  Z M 103 12  L 103 1  L 113 1  L 113 12  L 103 12  Z " fill-rule="nonzero" fill="#000000" stroke="none" transform="matrix(1 0 0 1 1542 350 )" />
  </g>
</svg>