<?xml version="1.0" encoding="utf-8"?>
<svg version="1.1" xmlns:xlink="http://www.w3.org/1999/xlink" width="19px" height="21px" xmlns="http://www.w3.org/2000/svg">
  <g transform="matrix(1 0 0 1 -702 -118 )">
    <path d="M 18.8429846945755 2.9397978046875  C 18.8429846945755 2.6816608125  18.6429392063679 2.4721149140625  18.3961896568396 2.4721149140625  L 13.5217284988208 2.4721149140625  L 13.5217284988208 1.73742103125  C 13.5217284988208 0.80961009375  12.8001431603774 0.0547938515625002  11.9131563242924 0.0547938515625002  L 7.17330458726415 0.0547938515625002  C 6.28634067216981 0.0547938515625002  5.56475533372642 0.80961009375  5.56475533372642 1.73742103125  L 5.56475533372642 2.4721149140625  L 0.56797410259434 2.4721149140625  C 0.321201632075472 2.4721149140625  0.121156143867924 2.6816608359375  0.121156143867924 2.939797828125  C 0.121156143867924 3.1979348203125  0.321201654481132 3.4074807421875  0.56797410259434 3.4074807421875  L 2.45596800707547 3.4074807421875  L 2.45596800707547 18.4236038203125  C 2.45596800707547 19.841090765625  3.558407875 20.994300890625  4.91348973466981 20.994300890625  L 14.2448729351415 20.994300890625  C 15.5999547948113 20.994300890625  16.7023946627358 19.841090765625  16.7023946627358 18.4236038203125  L 16.7023946627358 3.40748071875  L 18.3961667358491 3.40748071875  C 18.6429162629717 3.40748071875  18.8429846945755 3.197934796875  18.8429846945755 2.9397978046875  Z M 6.45839127358491 2.472138890625  L 6.45839127358491 1.7374450078125  C 6.45839127358491 1.32509259375  6.77910605306604 0.98960803125  7.17330460966981 0.98960803125  L 11.9131563466981 0.98960803125  C 12.3073548808962 0.98960803125  12.628069682783 1.3250925703125  12.628069682783 1.7374450078125  L 12.628069682783 2.472138890625  L 6.45839127358491 2.472138890625  Z M 15.808758745283 3.4463103984375  L 15.808758745283 18.4236277734375  C 15.808758745283 19.3256561953125  15.1071894363208 20.0595346171875  14.2448729575472 20.0595346171875  L 4.91351265566038 20.059534640625  C 4.05119617688679 20.059534640625  3.34962686792453 19.32565621875  3.34962686792453 18.423627796875  L 3.34962686792453 3.4463103984375  L 15.808758745283 3.4463103984375  Z M 9 18.2187826640625  C 9.02294020283019 18.47689565625  9.22328375353774 18.686177765625  9.47003330306604 18.686177765625  C 9.71678283018868 18.686177765625  9.91712640330188 18.47689565625  10 18.2187826640625  L 10 5.4120176484375  C 9.91712640330189 5.15388065625  9.71678283018868 4.944622546875  9.47003330306604 4.944622546875  C 9.2232837759434 4.944622546875  9.02294020283019 5.1538806796875  9 5.4120176484375  L 9 18.2187826640625  Z M 6 16.816573359375  C 5.97353600943396 17.0746863515625  6.17387956014151 17.2839684609375  6.42062908726415 17.2839684609375  C 6.66737861438679 17.2839684609375  6.8677221875 17.0746863515625  7 16.816573359375  L 7 6.814226953125  C 6.8677221875 6.5560899609375  6.66737861438679 6.3468318515625  6.42062908726415 6.3468318515625  C 6.17387956014151 6.3468318515625  5.9735359870283 6.556089984375  6 6.814226953125  L 6 16.816573359375  Z M 12 16.816573359375  C 12.1411279587264 17.0746863515625  12.341471509434 17.2839684609375  12.5882210589623 17.2839684609375  C 12.8349705860849 17.2839684609375  13.0353141591981 17.0746863515625  13 16.816573359375  L 13 6.814226953125  C 13.0353141591981 6.5560899609375  12.8349705860849 6.3468318515625  12.5882210589623 6.3468318515625  C 12.3414715318396 6.3468318515625  12.1411279587264 6.556089984375  12 6.814226953125  L 12 16.816573359375  Z " fill-rule="nonzero" fill="#d9001b" stroke="none" transform="matrix(1 0 0 1 702 118 )" />
  </g>
</svg>