<?xml version="1.0" encoding="utf-8"?>
<svg version="1.1" xmlns:xlink="http://www.w3.org/1999/xlink" width="22px" height="21px" xmlns="http://www.w3.org/2000/svg">
  <g transform="matrix(1 0 0 1 -665 -118 )">
    <path d="M 18.0517857142857 5.27019230769231  L 15.2821428571429 2.42307692307692  C 15.125 2.26153846153846  15.125 2.01923076923077  15.2821428571429 1.85769230769231  L 16.9517857142857 0.141346153846154  C 17.1089285714286 -0.020192307692308  17.3446428571429 -0.020192307692308  17.5017857142857 0.141346153846154  L 20.2714285714286 2.98846153846154  C 20.4285714285714 3.15  20.4285714285714 3.39230769230769  20.2714285714286 3.55384615384615  L 18.6017857142857 5.27019230769231  C 18.4446428571429 5.43173076923077  18.2089285714286 5.43173076923077  18.0517857142857 5.27019230769231  Z M 3.14285714285714 17.7692307692308  L 7.85714285714286 16.3557692307692  L 16.9910714285714 6.96634615384615  C 17.1285714285714 6.825  17.1089285714286 6.58269230769231  16.9517857142857 6.44134615384615  L 14.1821428571429 3.57403846153846  C 14.025 3.4125  13.7892857142857 3.39230769230769  13.6714285714286 3.53365384615385  L 4.51785714285714 12.9230769230769  L 3.14285714285714 17.7692307692308  Z M 22 19  L 0 19  L 0 21  L 22 21  L 22 19  Z " fill-rule="nonzero" fill="#555555" stroke="none" transform="matrix(1 0 0 1 665 118 )" />
  </g>
</svg>