<?xml version="1.0" encoding="utf-8"?>
<svg version="1.1" xmlns:xlink="http://www.w3.org/1999/xlink" width="16px" height="6px" xmlns="http://www.w3.org/2000/svg">
  <g transform="matrix(1 0 0 1 -150 -335 )">
    <path d="M 0.120515372859025 5.68432896618357  L 15.8117735968379 5.67177410628019  C 15.8189596104566 5.60078253035527  15.8189596104566 5.52933352761574  15.8117735968379 5.45834195169082  C 15.8044666320748 4.6455012257212  15.0913964105876 3.98628266665255  14.2047550144928 3.97268676328502  C 14.0319381770601 3.97460791419296  13.860676521063 4.00289436542013  13.6979963109354 4.05638562318841  C 13.45346410901 2.53485937189816  12.0293253330403 1.40749714041436  10.3515627088274 1.40731594202899  C 10.1072173646062 1.41031470971985  9.86390126000695 1.43696725678411  9.62566509617918 1.48682987439614  C 8.84569194940195 0.676715732837026  7.72373350284014 0.212675551136104  6.54500902030902 0.212675551136104  C 4.6372429010329 0.212675551136104  2.98042769523857 1.41638773046313  2.5447394571805 3.11895814492754  C 2.54321765294374 3.11895554716784  2.54169584639744 3.11895424828715  2.54017403952201 3.11895424828715  C 1.18618367743351 3.11895424828715  0.088557617914629 4.1251114695128  0.088557617914629 5.36626930142725  C 0.0899255144135997 5.47290406600117  0.100612298705259 5.57926301996646  0.120515372859025 5.68432896618357  Z " fill-rule="nonzero" fill="#34ca9d" stroke="none" transform="matrix(1 0 0 1 150 335 )" />
  </g>
</svg>