<?xml version="1.0" encoding="utf-8"?>
<svg version="1.1" xmlns:xlink="http://www.w3.org/1999/xlink" width="18px" height="29px" xmlns="http://www.w3.org/2000/svg">
  <g transform="matrix(1 0 0 1 -164 -346 )">
    <path d="M 8.19061448829432 12.612302899931  L 17.8167910635452 12.612302899931  L 17.8167910635452 9.14477766321601  L 11.6456078929766 9.14477766321601  L 11.6456078929766 2.57815175569358  L 9.15975102341137 0.116208824016562  L 1.73694758528428 7.63640420565907  C -0.293849256611044 9.67501188291191  -0.293849256611046 12.9662876464187  1.73694758528428 15.0048953236715  L 7.56045848829432 20.8130000731539  L 7.06067955852843 28.6756135251898  L 10.5374024749164 28.8966682567288  L 11.1458289632107 19.4823372546584  L 4.19238313043479 12.5472867812284  C 3.86060320645383 12.221413309763  3.67378143531179 11.7764050694948  3.67378143531179 11.311980926156  C 3.67378143531179 10.8475567828171  3.86060320645383 10.402548542549  4.19238313043478 10.0766750710835  L 8.19061448829432 6.03700817391304  L 8.19061448829432 12.612302899931  Z " fill-rule="nonzero" fill="#ffffff" stroke="none" transform="matrix(1 0 0 1 164 346 )" />
  </g>
</svg>