<?xml version="1.0" encoding="utf-8"?>
<svg version="1.1" xmlns:xlink="http://www.w3.org/1999/xlink" width="10px" height="10px" xmlns="http://www.w3.org/2000/svg">
  <g transform="matrix(1 0 0 1 -172 -339 )">
    <path d="M 9.70471262939959 5.1137333747412  C 9.69239280011841 7.73633930691283  7.56547422326706 9.85724964468264  4.94284393374741 9.86215047619048  C 4.94136054915763 9.86215186116863  4.93987716400346 9.86215255365781  4.93839377876713 9.86215255365781  C 2.30600993210277 9.86215255365781  0.172041190775413 7.72818381233046  0.172041190775413 5.0957999656661  C 0.172041190775413 2.46341611900173  2.30600993210277 0.329447377674378  4.93839377876713 0.329447377674378  C 7.57077762543149 0.329447377674378  9.70474636675885 2.46341611900173  9.70474636675885 5.0957999656661  C 9.70474636675885 5.10177778455815  9.70473512095253 5.10775559816155  9.70471262939959 5.1137333747412  Z M 4.94284393374741 2.14092832298137  L 4.94284393374741 2.12299283643892  C 4.94134930403076 2.12299058208109  4.93985467282657 2.12298945490169  4.93836004140979 2.12298945490169  C 3.29652514710289 2.12298945490169  1.96555498964995 3.45395961235463  1.96555498964995 5.09579450666153  C 1.96555498964995 6.73762940096842  3.29652514710289 8.06859955842136  4.93836004140979 8.06859955842136  C 6.58019493571669 8.06859955842136  7.91116509316963 6.73762940096842  7.91116509316963 5.09579450666153  C 7.90131405710744 3.46271886318496  6.57595085702873 2.14336183527612  4.94284393374741 2.14092832298137  Z " fill-rule="nonzero" fill="#282d33" stroke="none" transform="matrix(1 0 0 1 172 339 )" />
  </g>
</svg>