<?xml version="1.0" encoding="utf-8"?>
<svg version="1.1" xmlns:xlink="http://www.w3.org/1999/xlink" width="18px" height="9px" xmlns="http://www.w3.org/2000/svg">
  <g transform="matrix(1 0 0 1 -1544 -728 )">
    <path d="M 12.926145643017 8.77500000000001  C 12.8526927378203 8.77500000000001  12.7792504395407 8.77333285205505  12.7058823529412 8.77  L 5.22 8.77  C 5.14663191340054 8.77333285205505  5.07318961512085 8.77500000000001  4.99973670992416 8.77500000000001  C 2.4676735686411 8.77500000000001  0.41503082757122 6.83639296676733  0.41503082757122 4.445  C 0.41503082757122 2.05360703323267  2.4676735686411 0.115000000000002  4.99973670992416 0.115000000000002  C 5.07318961512085 0.115000000000002  5.14663191340054 0.116667147944955  5.22 0.120000000000005  L 12.7058823529412 0.120000000000001  C 12.7792504395407 0.116667147944952  12.8526927378203 0.115000000000002  12.926145643017 0.115000000000002  C 15.4582087843001 0.115000000000002  17.51085152537 2.05360703323267  17.51085152537 4.445  C 17.51085152537 6.83639296676733  15.4582087843001 8.77500000000001  12.926145643017 8.77500000000001  Z M 12.7058823529412 2.38000000000001  L 5.22 2.38  C 5.16932795878635 2.37666767371611  5.11854857545335 2.375  5.06775384164597 2.375  C 3.85727561936977 2.375  2.87598913576362 3.30177056785026  2.87598913576362 4.445  C 2.87598913576362 5.58822943214975  3.85727561936977 6.515  5.06775384164597 6.515  C 5.11854857545335 6.515  5.16932795878635 6.51333232628389  5.22 6.51000000000001  L 12.7058823529412 6.51000000000001  C 12.7565543941549 6.5133323262839  12.8073337774878 6.515  12.8581285112952 6.515  C 14.0686067335714 6.515  15.0498932171776 5.58822943214975  15.0498932171776 4.445  C 15.0498932171776 3.30177056785026  14.0686067335714 2.375  12.8581285112952 2.375  C 12.8073337774878 2.375  12.7565543941549 2.37666767371611  12.7058823529412 2.38000000000001  Z " fill-rule="nonzero" fill="#ffffff" stroke="none" transform="matrix(1 0 0 1 1544 728 )" />
  </g>
</svg>