<?xml version="1.0" encoding="utf-8"?>
<svg version="1.1" xmlns:xlink="http://www.w3.org/1999/xlink" width="40px" height="16px" xmlns="http://www.w3.org/2000/svg">
  <g transform="matrix(1 0 0 1 -149 -359 )">
    <path d="M 3.9734944317315 2.00158212946859  L 3.9734944317315 0.216005956843795  L 9.82801118738876 0.216005956843795  L 9.82801118738876 2.00158212946859  L 3.9734944317315 2.00158212946859  Z M 5.66068775997966 5.79593159935588  L 5.66068775997966 4.01035538550725  L 11.5152044749555 4.01035538550725  L 11.5152044749555 5.79593159935588  L 5.66068775997966 5.79593159935588  Z M 0 2.00158212946859  L 0 0.216005956843795  L 2.29951674548691 0.216005956843795  L 2.29951674548691 2.00158212946859  L 0 2.00158212946859  Z M 32.1668030307653 11.969561352657  L 32.1668030307653 10.1839851388084  L 38.0213197864226 10.1839851388084  L 38.0213197864226 11.969561352657  L 32.1668030307653 11.969561352657  Z M 33.8539963590135 15.7639107813204  L 33.8539963590135 13.9783346086957  L 39.7085130739893 13.9783346086957  L 39.7085130739893 15.7639107813204  L 33.8539963590135 15.7639107813204  Z M 28.1933085990338 11.969561352657  L 28.1933085990338 10.1839851388084  L 30.4928253445207 10.1839851388084  L 30.4928253445207 11.969561352657  L 28.1933085990338 11.969561352657  Z " fill-rule="nonzero" fill="#282d33" stroke="none" transform="matrix(1 0 0 1 149 359 )" />
  </g>
</svg>