<?xml version="1.0" encoding="utf-8"?>
<svg version="1.1" xmlns:xlink="http://www.w3.org/1999/xlink" width="54px" height="54px" xmlns="http://www.w3.org/2000/svg">
  <defs>
    <filter x="136px" y="420px" width="54px" height="54px" filterUnits="userSpaceOnUse" id="filter384">
      <feOffset dx="0" dy="0" in="SourceAlpha" result="shadowOffsetInner" />
      <feGaussianBlur stdDeviation="5" in="shadowOffsetInner" result="shadowGaussian" />
      <feComposite in2="shadowGaussian" operator="atop" in="SourceAlpha" result="shadowComposite" />
      <feColorMatrix type="matrix" values="0 0 0 0 0.333333333333333  0 0 0 0 0.333333333333333  0 0 0 0 0.333333333333333  0 0 0 0.949019607843137 0  " in="shadowComposite" />
    </filter>
    <g id="widget385">
      <path d="M 163 430  C 172.52 430  180 437.48  180 447  C 180 456.52  172.52 464  163 464  C 153.48 464  146 456.52  146 447  C 146 437.48  153.48 430  163 430  Z " fill-rule="nonzero" fill="#ffffff" stroke="none" />
      <path d="M 163 430.5  C 172.24 430.5  179.5 437.76  179.5 447  C 179.5 456.24  172.24 463.5  163 463.5  C 153.76 463.5  146.5 456.24  146.5 447  C 146.5 437.76  153.76 430.5  163 430.5  Z " stroke-width="1" stroke="#81d3f8" fill="none" />
    </g>
  </defs>
  <g transform="matrix(1 0 0 1 -136 -420 )">
    <use xlink:href="#widget385" filter="url(#filter384)" />
    <use xlink:href="#widget385" />
  </g>
</svg>