<?xml version="1.0" encoding="utf-8"?>
<svg version="1.1" xmlns:xlink="http://www.w3.org/1999/xlink" width="34px" height="34px" xmlns="http://www.w3.org/2000/svg">
  <g transform="matrix(1 0 0 1 -1145 -429 )">
    <path d="M 1162 429  C 1171.52 429  1179 436.48  1179 446  C 1179 455.52  1171.52 463  1162 463  C 1152.48 463  1145 455.52  1145 446  C 1145 436.48  1152.48 429  1162 429  Z " fill-rule="nonzero" fill="#ffffff" stroke="none" />
    <path d="M 1162 429.5  C 1171.24 429.5  1178.5 436.76  1178.5 446  C 1178.5 455.24  1171.24 462.5  1162 462.5  C 1152.76 462.5  1145.5 455.24  1145.5 446  C 1145.5 436.76  1152.76 429.5  1162 429.5  Z " stroke-width="1" stroke="#81d3f8" fill="none" />
  </g>
</svg>