<?xml version="1.0" encoding="utf-8"?>
<svg version="1.1" xmlns:xlink="http://www.w3.org/1999/xlink" width="18px" height="9px" xmlns="http://www.w3.org/2000/svg">
  <g transform="matrix(1 0 0 1 -1544 -712 )">
    <path d="M 12.926145643017 8.725  C 12.8526927378203 8.725  12.7792504395407 8.72333285205505  12.7058823529412 8.72  L 5.22 8.72  C 5.14663191340052 8.72333285205505  5.0731896151209 8.725  4.9997367099242 8.725  C 2.46767356864114 8.725  0.415030827571263 6.78639296676733  0.415030827571263 4.395  C 0.415030827571263 2.00360703323267  2.46767356864114 0.0649999999999995  4.9997367099242 0.0649999999999995  C 5.0731896151209 0.0649999999999995  5.14663191340052 0.0666671479449494  5.22 0.0699999999999985  L 12.7058823529412 0.0699999999999985  C 12.7792504395407 0.0666671479449494  12.8526927378203 0.0649999999999995  12.926145643017 0.0649999999999995  C 15.4582087843 0.0649999999999995  17.5108515253699 2.00360703323267  17.5108515253699 4.395  C 17.5108515253699 6.78639296676733  15.4582087843 8.725  12.926145643017 8.725  Z M 12.7058823529412 2.33  L 5.22 2.33  C 5.16932795878635 2.3266676737161  5.11854857545335 2.325  5.06775384164597 2.325  C 3.85727561936977 2.325  2.87598913576362 3.25177056785025  2.87598913576362 4.395  C 2.87598913576362 5.53822943214974  3.85727561936977 6.465  5.06775384164597 6.465  C 5.11854857545335 6.465  5.16932795878635 6.46333232628389  5.22 6.46  L 12.7058823529412 6.46  C 12.7565543941549 6.46333232628389  12.8073337774878 6.465  12.8581285112952 6.465  C 14.0686067335714 6.465  15.0498932171776 5.53822943214974  15.0498932171776 4.395  C 15.0498932171776 3.25177056785025  14.0686067335714 2.325  12.8581285112952 2.325  C 12.8073337774878 2.325  12.7565543941549 2.3266676737161  12.7058823529412 2.33  Z " fill-rule="nonzero" fill="#ffffff" stroke="none" transform="matrix(1 0 0 1 1544 712 )" />
  </g>
</svg>