<?xml version="1.0" encoding="utf-8"?>
<svg version="1.1" xmlns:xlink="http://www.w3.org/1999/xlink" width="20px" height="32px" xmlns="http://www.w3.org/2000/svg">
  <g transform="matrix(1 0 0 1 -163 -345 )">
    <path d="M 13.1510791304348 20.9107254429049  L 12.4336600828157 31.7757604714126  L 7.05301751552795 31.440229111642  L 7.59556563146998 22.9680624099379  L 1.85621354037267 17.3346675992993  C 0.669199971965175 16.1742844361052  0.00162354255145658 14.5954358972204  0.00162354255145658 12.9484781245421  C 0.00162354255145658 11.3015203518638  0.669199971965175 9.72267181297905  1.85621354037267 8.562288649785  L 10.1558547412008 0.293206719541331  L 13.6263691925466 3.66617979168658  L 13.6263691925466 9.82494608695652  L 19.9934629399586 9.82494608695652  L 19.9934629399586 15.1228095785953  L 8.29056530020704 15.1228095785953  L 8.29056530020704 9.72340370122631  L 5.70337296066253 12.3061121528906  C 5.53102284788341 12.4770504507656  5.43707746596697 12.7098954514171  5.44330857142857 12.9506855384615  C 5.44311918005117 13.1860186703859  5.53834893013085 13.4116895794575  5.70785685300207 13.5775994088231  L 13.1510791304348 20.9107254429049  Z M 9.42498409937888 22.2660955285874  L 8.94969403726708 29.7802319095397  L 10.7432415320911 29.8950189418697  L 11.2723380538302 21.595032809046  L 4.42098650103519 14.8270121993948  C 3.91881476260858 14.3286748037383  3.6409450386338 13.652641147623  3.64976103519669 12.9506855384615  C 3.64798060185556 12.2409878157715  3.93550733674651 11.5602676517861  4.44788968944099 11.0611142309285  L 10.0841128364389 5.41888964229973  L 10.0841128364389 13.3656848593725  L 18.1999154037267 13.3656848593725  L 18.1999154037267 11.5997303621596  L 11.8328216977226 11.5997303621596  L 11.8328216977226 4.40346578499761  L 10.1737902277433 2.79203234145564  L 3.14756774327122 9.8072865717471  C 2.2959484490703 10.6365956827969  1.81671964844949 11.7669212175861  1.81671964844949 12.9462706698519  C 1.81671964844949 14.1256201221177  2.2959484490703 15.2559456569069  3.14756774327122 16.0852547679567  L 9.42498409937888 22.2660955285874  Z " fill-rule="nonzero" fill="#282d33" stroke="none" transform="matrix(1 0 0 1 163 345 )" />
  </g>
</svg>