<?xml version="1.0" encoding="utf-8"?>
<svg version="1.1" xmlns:xlink="http://www.w3.org/1999/xlink" width="46px" height="42px" xmlns="http://www.w3.org/2000/svg">
  <g transform="matrix(1 0 0 1 -1544 -710 )">
    <path d="M 12.3421805773373 41.8139240506329  C 12.272046057357 41.8139240506329  12.2019216651048 41.8121513869952  12.1318681318681 41.8086075949367  L 4.98417582417582 41.8086075949367  C 4.91412229093926 41.8121513869952  4.84399789868682 41.8139240506329  4.77386337870663 41.8139240506329  C 2.35619136834844 41.8139240506329  0.39628096112421 39.7526203697273  0.39628096112421 37.2098734177215  C 0.39628096112421 34.6671264657158  2.35619136834844 32.6058227848101  4.77386337870663 32.6058227848101  C 4.84399789868682 32.6058227848101  4.91412229093926 32.6075954484478  4.98417582417582 32.6111392405063  L 12.1318681318681 32.6111392405063  C 12.2019216651048 32.6075954484478  12.272046057357 32.6058227848101  12.3421805773373 32.6058227848101  C 14.7598525876955 32.6058227848101  16.7197629949197 34.6671264657158  16.7197629949197 37.2098734177215  C 16.7197629949197 39.7526203697273  14.7598525876955 41.8139240506329  12.3421805773373 41.8139240506329  Z M 12.1318681318681 35.0035443037975  L 4.98417582417582 35.0035443037975  C 4.93579299605729 35.0000010707867  4.88730767521923 34.9982278481013  4.83880769739581 34.9982278481013  C 3.68301530445322 34.9982278481013  2.74606044464856 35.9836547810053  2.74606044464856 37.1992405063291  C 2.74606044464856 38.4148262316529  3.68301530445322 39.400253164557  4.83880769739581 39.400253164557  C 4.88730767521923 39.400253164557  4.93579299605729 39.3984799418715  4.98417582417582 39.3949367088608  L 12.1318681318681 39.3949367088608  C 12.1802509599867 39.3984799418715  12.2287362808247 39.400253164557  12.2772362586481 39.400253164557  C 13.4330286515907 39.400253164557  14.3699835113954 38.4148262316529  14.3699835113954 37.1992405063291  C 14.3699835113954 35.9836547810053  13.4330286515907 34.9982278481013  12.2772362586481 34.9982278481013  C 12.2287362808247 34.9982278481013  12.1802509599867 35.0000010707867  12.1318681318681 35.0035443037975  Z M 44.7160439560439 2.50936708860759  C 44.7160439560439 2.50936708860759  44.7160439560439 2.50936708860759  44.716043956044 3  L 24.7995604395604 3  C 24.7995604395604 2.50936708860759  24.7995604395604 2.50936708860759  24.7995604395604 2.50936708860759  C 24.1686206308526 2.50936708860759  23.6571428571429 1.97142871460682  23.6571428571429 1.30784810126582  C 23.6571428571429 0.644267487924825  24.1686206308526 0.10632911392405  24.7995604395604 0.10632911392405  L 44.7160439560439 0.10632911392405  C 45.3469837647517 0.10632911392405  45.8584615384615 0.644267487924825  45.8584615384615 1.30784810126582  C 45.8584615384615 1.97142871460682  45.3469837647517 2.50936708860759  44.7160439560439 2.50936708860759  Z M 44.7160439560439 13.6739240506329  C 44.7160439560439 13.6739240506329  44.7160439560439 13.6739240506329  44.716043956044 14  L 24.7995604395604 14  C 24.7995604395604 13.6739240506329  24.7995604395604 13.6739240506329  24.7995604395604 13.6739240506329  C 24.1686206308526 13.6739240506329  23.6571428571429 13.1359856766321  23.6571428571429 12.4724050632911  C 23.6571428571429 11.8088244499501  24.1686206308526 11.2708860759494  24.7995604395604 11.2708860759494  C 24.7995604395604 11.2708860759494  24.7995604395604 11.2708860759494  24.7995604395604 12  L 44.7160439560439 12  C 44.7160439560439 11.2708860759494  44.7160439560439 11.2708860759494  44.7160439560439 11.2708860759494  C 45.3469837647517 11.2708860759494  45.8584615384615 11.8088244499501  45.8584615384615 12.4724050632911  C 45.8584615384615 13.1359856766321  45.3469837647517 13.6739240506329  44.7160439560439 13.6739240506329  Z " fill-rule="nonzero" fill="#ffffff" stroke="none" transform="matrix(1 0 0 1 1544 710 )" />
  </g>
</svg>