<?xml version="1.0" encoding="utf-8"?>
<svg version="1.1" xmlns:xlink="http://www.w3.org/1999/xlink" width="27px" height="27px" xmlns="http://www.w3.org/2000/svg">
  <g transform="matrix(1 0 0 1 -1191 -91 )">
    <path d="M 18.5774127906977 25.7410465116279  C 16.9376536676665 26.435207748453  15.1746752106022 26.7913272611307  13.3940406976744 26.7880813953488  C 6.06636368551277 26.7797133739343  0.130541793424123 20.8371090532296  0.130541793424123 13.5094272630353  C 0.130541793424123 6.17582430558739  6.07560162667387 0.230764472337647  13.4092045841218 0.230764472337647  C 20.7428075415697 0.230764472337647  26.6878673748195 6.17582430558739  26.6878673748195 13.5094272630353  C 26.6878673748195 18.8459596431528  23.4931511606117 23.6640067617442  18.5774127906977 25.7410465116279  Z M 24.3549418604651 13.4725290697674  C 24.3549418604651 7.42892441860465  19.4376453488372 2.51162790697674  13.3940406976744 2.51162790697674  C 7.35004360465116 2.51162790697674  2.43313953488372 7.42853197674419  2.43313953488372 13.4725290697674  C 2.43313953488372 19.5165261627907  7.35004360465116 24.4334302325581  13.3940406976744 24.4334302325581  C 19.4380377906977 24.4334302325581  24.3549418604651 19.5161337209302  24.3549418604651 13.4725290697674  Z " fill-rule="nonzero" fill="#ec808d" stroke="none" fill-opacity="0.988235294117647" transform="matrix(1 0 0 1 1191 91 )" />
  </g>
</svg>