<?xml version="1.0" encoding="utf-8"?>
<svg version="1.1" xmlns:xlink="http://www.w3.org/1999/xlink" width="22px" height="22px" xmlns="http://www.w3.org/2000/svg">
  <g transform="matrix(1 0 0 1 -1187 -101 )">
    <path d="M 2.18574074074074 15.0640354305552  C 2.18574074074074 15.6129931378006  1.72973446742025 16.0580112870561  1.16722222222222 16.0580112870561  C 0.604709977024192 16.0580112870561  0.148703703703704 15.6129931378006  0.148703703703704 15.0640354305552  L 0.148703703703704 5.87307201077777  C 0.148703703703704 5.32411430353238  0.604709977024192 4.87909615427697  1.16722222222222 4.87909615427697  C 1.72973446742025 4.87909615427697  2.18574074074074 5.32411430353238  2.18574074074074 5.87307201077777  L 2.18574074074074 15.0640354305552  Z M 6.35895061728395 15.0491257927077  C 6.35895061728395 15.5980834999531  5.90294434396346 16.0431016492085  5.34043209876543 16.0431016492085  C 4.7779198535674 16.0431016492085  4.32191358024691 15.5980834999531  4.32191358024691 15.0491257927077  L 4.32191358024691 3.48587332874833  C 4.32191358024691 2.93691562150294  4.7779198535674 2.49189747224753  5.34043209876543 2.49189747224753  C 5.90294434396346 2.49189747224753  6.35895061728395 2.93691562150294  6.35895061728395 3.48587332874833  L 6.35895061728395 15.0491257927077  Z M 10.5321604938272 15.0792763936883  C 10.5321604938272 15.6282341009337  10.0761542205067 16.0732522501891  9.51364197530864 16.0732522501891  C 8.95112973011061 16.0732522501891  8.49512345679013 15.6282341009337  8.49512345679013 15.0792763936883  L 8.49512345679013 1.17256018538545  C 8.49512345679013 0.623602478140055  8.95112973011061 0.178584328884645  9.51364197530864 0.178584328884645  C 10.0761542205067 0.178584328884645  10.5321604938272 0.623602478140055  10.5321604938272 1.17256018538545  L 10.5321604938272 15.0792763936883  Z M 21.9658319051168 21.0060231233759  C 21.9658319051168 21.5548979486846  21.5099581681661 21.9998817595655  20.9475308641975 21.9999989572179  C 20.6773357128484 22.0003813964561  20.4181482195285 21.8955553626906  20.2274382716049 21.7087640312631  L 14.7987345679012 16.4112040413993  C 14.6077091168167 16.2247816220687  14.5003921358543 15.9719385619583  14.5003921358543 15.7082974482105  C 14.5003921358543 15.1592932492658  14.9564370287374 14.7142374110414  15.5189969135802 14.7142374110414  C 15.7891476972625 14.7142374110414  16.0482338081747 14.8189684356911  16.2392592592593 15.0053908550217  L 21.6676234567901 20.303282170171  C 21.8585662223176 20.4896801680563  21.9658319051168 20.7424563338538  21.9658319051168 21.0060231233759  Z " fill-rule="nonzero" fill="#ec808d" stroke="none" fill-opacity="0.988235294117647" transform="matrix(1 0 0 1 1187 101 )" />
  </g>
</svg>