<?xml version="1.0" encoding="utf-8"?>
<svg version="1.1" xmlns:xlink="http://www.w3.org/1999/xlink" width="320px" height="219px" xmlns="http://www.w3.org/2000/svg">
  <g transform="matrix(1 0 0 1 -758 -210 )">
    <path d="M 758 210  L 1078 210  L 1078 429  L 758 429  L 758 210  " fill-rule="nonzero" fill="#cccccc" stroke="none" />
    <path d="M 773 225  L 1063 225  L 1063 414  L 773 414  L 773 225  " fill-rule="nonzero" fill="#ffffff" stroke="none" />
    <path d="M 940.825 275.7  C 931.627 275.7  924.4 268.473  924.4 259.275  C 924.4 250.077  931.627 242.85  940.825 242.85  C 950.023 242.85  957.25 250.077  957.25 259.275  C 957.25 268.473  950.023 275.7  940.825 275.7  " fill-rule="nonzero" fill="#cccccc" stroke="none" />
    <path d="M 779 409  L 779 311.1  L 848.75 266.6  L 946.4 335.90875  L 1002.2 293.3  L 1058 335.90875  L 1058 409  L 779 409  " fill-rule="nonzero" fill="#169bd5" stroke="none" />
  </g>
</svg>