<?xml version="1.0" encoding="utf-8"?>
<svg version="1.1" xmlns:xlink="http://www.w3.org/1999/xlink" width="30px" height="30px" xmlns="http://www.w3.org/2000/svg">
  <g transform="matrix(1 0 0 1 -903 -566 )">
    <path d="M 15 15.9640908984375  L 20.7859091015625 21.75  L 21.75 20.7859091015625  L 15.9640908984375 15  L 21.75 9.2140908984375  L 20.7859091015625 8.25  L 15 14.0359091015625  L 9.2140908984375 8.25  L 8.25 9.2140908984375  L 14.0359091015625 15  L 8.25 20.7859091015625  L 9.2140908984375 21.75  L 15 15.9640908984375  Z M 15 30  C 23.2840908984375 30  30 23.2840908984375  30 15  C 30 6.7159091015625  23.2840908984375 0  15 0  C 6.7159091015625 0  0 6.7159091015625  0 15  C 0 23.2840908984375  6.7159091015625 30  15 30  Z M 15 28.6363636230469  C 7.46863637695312 28.6363636230469  1.36363637695313 22.5313636230469  1.36363637695313 15  C 1.36363637695313 7.46863637695312  7.46863637695312 1.36363637695313  15 1.36363637695313  C 22.5313636230469 1.36363637695313  28.6363636230469 7.46863637695312  28.6363636230469 15  C 28.6363636230469 22.5313636230469  22.5313636230469 28.6363636230469  15 28.6363636230469  Z " fill-rule="nonzero" fill="#ffffff" stroke="none" transform="matrix(1 0 0 1 903 566 )" />
  </g>
</svg>