<?xml version="1.0" encoding="utf-8"?>
<svg version="1.1" xmlns:xlink="http://www.w3.org/1999/xlink" width="27px" height="7px" xmlns="http://www.w3.org/2000/svg">
  <g transform="matrix(1 0 0 1 -677 -94 )">
    <path d="M 6.88590388010204 3.636989755  C 6.88590388010204 5.491301865  5.40491503316327 6.996425345  3.58033679081633 6.996425345  C 1.75575854846939 6.996425345  0.274769701530612 5.491301865  0.274769701530612 3.636989755  C 0.274769701530612 1.782677645  1.75575854846939 0.277554165  3.58033679081633 0.277554165  C 5.40491503316327 0.277554165  6.88590388010204 1.782677645  6.88590388010204 3.636989755  Z M 16.8026051135204 3.636989755  C 16.8026051135204 5.491301865  15.3216162665816 6.996425345  13.4970380242347 6.996425345  C 11.6724597818878 6.996425345  10.191470934949 5.491301865  10.191470934949 3.636989755  C 10.191470934949 1.782677645  11.6724597818878 0.277554165  13.4970380242347 0.277554165  C 15.3216162665816 0.277554165  16.8026051135204 1.782677645  16.8026051135204 3.636989755  Z M 26.7252302984694 3.636989755  C 26.7252302984694 5.491301865  25.2383175 6.996425345  23.4196632091837 6.996425345  C 21.5950849668367 6.996425345  20.114096119898 5.491301865  20.114096119898 3.636989755  C 20.114096119898 1.782677645  21.5950849668367 0.277554165  23.4196632091837 0.277554165  C 25.2442414515306 0.277554165  26.7252302984694 1.782677645  26.7252302984694 3.636989755  Z " fill-rule="nonzero" fill="#02a7f0" stroke="none" transform="matrix(1 0 0 1 677 94 )" />
  </g>
</svg>