<?xml version="1.0" encoding="utf-8"?>
<svg version="1.1" xmlns:xlink="http://www.w3.org/1999/xlink" width="16px" height="16px" xmlns="http://www.w3.org/2000/svg">
  <g transform="matrix(1 0 0 1 -682 -68 )">
    <path d="M 9.0256 10.666666671875  C 9.0256 9.5728  9.5728 9.0256  10.666666671875 9.0256  L 14.358933328125 9.0256  C 15.4528 9.0256  16 9.5728  16 10.666666671875  L 16 14.358933328125  C 16 15.4528  15.4528 16  14.358933328125 16  L 10.666666671875 16  C 9.5728 16  9.0256 15.4528  9.0256 14.358933328125  L 9.0256 10.666666671875  Z M 0 1.641066671875  C 0 0.5472  0.5472 0  1.641066671875 0  L 5.333333328125 0  C 6.4272 0  6.9744 0.5472  6.9744 1.641066671875  L 6.9744 5.333333328125  C 6.9744 6.4272  6.4272 6.9744  5.333333328125 6.9744  L 1.641066671875 6.9744  C 0.5472 6.9744  0 6.4272  0 5.333333328125  L 0 1.641066671875  Z M 0 10.666666671875  C 0 9.5728  0.5472 9.0256  1.641066671875 9.0256  L 5.333333328125 9.0256  C 6.4272 9.0256  6.9744 9.5728  6.9744 10.666666671875  L 6.9744 14.358933328125  C 6.9744 15.4528  6.4272 16  5.333333328125 16  L 1.641066671875 16  C 0.5472 16  0 15.4528  0 14.358933328125  L 0 10.666666671875  Z M 9.210133328125 4.430933328125  L 11.343466671875 6.584533328125  C 11.8768 7.11786665625  12.717866671875 7.11786665625  13.2512 6.584533328125  L 15.384533328125 4.430933328125  C 15.91786665625 3.8976  15.91786665625 3.056533328125  15.384533328125 2.5232  L 13.2512 0.389866671875001  C 12.738666671875 -0.123199999999999  11.8768 -0.123199999999999  11.3632 0.389866671875001  L 9.210133328125 2.5232  C 8.6768 3.056533328125  8.6768 3.8976  9.210133328125 4.430933328125  Z " fill-rule="nonzero" fill="#02a7f0" stroke="none" fill-opacity="0.768627450980392" transform="matrix(1 0 0 1 682 68 )" />
  </g>
</svg>