<?xml version="1.0" encoding="utf-8"?>
<svg version="1.1" xmlns:xlink="http://www.w3.org/1999/xlink" width="294px" height="168px" xmlns="http://www.w3.org/2000/svg">
  <defs>
    <mask fill="white" id="clip271">
      <path d="M 21.5 359.5  C 18.725 359.5  16.5 357.275  16.5 354.5  L 16.5 207.5  C 16.5 204.725  18.725 202.5  21.5 202.5  L 294.5 202.5  C 297.275 202.5  299.5 204.725  299.5 207.5  L 299.5 354.5  C 299.5 357.275  297.275 359.5  294.5 359.5  L 21.5 359.5  " fill-rule="evenodd" />
    </mask>
    <filter x="11px" y="197px" width="294px" height="168px" filterUnits="userSpaceOnUse" id="filter272">
      <feOffset dx="0" dy="0" in="SourceAlpha" result="shadowOffsetInner" />
      <feGaussianBlur stdDeviation="2.5" in="shadowOffsetInner" result="shadowGaussian" />
      <feComposite in2="shadowGaussian" operator="atop" in="SourceAlpha" result="shadowComposite" />
      <feColorMatrix type="matrix" values="0 0 0 0 0.333333333333333  0 0 0 0 0.333333333333333  0 0 0 0 0.333333333333333  0 0 0 0.349019607843137 0  " in="shadowComposite" />
    </filter>
    <g id="widget273">
      <path d="M 16 202  L 300 202  L 300 360  L 16 360  L 16 202  " fill-rule="nonzero" fill="#cccccc" stroke="none" mask="url(#clip271)" />
      <path d="M 27 213  L 289 213  L 289 349  L 27 349  L 27 213  " fill-rule="nonzero" fill="#ffffff" stroke="none" mask="url(#clip271)" />
      <path d="M 175.53 249.4  C 168.894 249.4  163.68 244.186  163.68 237.55  C 163.68 230.914  168.894 225.7  175.53 225.7  C 182.166 225.7  187.38 230.914  187.38 237.55  C 187.38 244.186  182.166 249.4  175.53 249.4  " fill-rule="nonzero" fill="#cccccc" stroke="none" mask="url(#clip271)" />
      <path d="M 31 345  L 31 274.6  L 94.5 242.6  L 183.4 302.27323943662  L 234.2 261.8  L 285 302.27323943662  L 285 345  L 31 345  " fill-rule="nonzero" fill="#169bd5" stroke="none" mask="url(#clip271)" />
      <path d="M 21 359.5  C 18.5025 359.5  16.5 357.4975  16.5 355  L 16.5 207  C 16.5 204.5025  18.5025 202.5  21 202.5  L 295 202.5  C 297.4975 202.5  299.5 204.5025  299.5 207  L 299.5 355  C 299.5 357.4975  297.4975 359.5  295 359.5  L 21 359.5  Z " stroke-width="1" stroke="#aaaaaa" fill="none" mask="url(#clip271)" />
    </g>
  </defs>
  <g transform="matrix(1 0 0 1 -11 -197 )">
    <use xlink:href="#widget273" filter="url(#filter272)" />
    <use xlink:href="#widget273" />
  </g>
</svg>