<?xml version="1.0" encoding="utf-8"?>
<svg version="1.1" xmlns:xlink="http://www.w3.org/1999/xlink" width="13px" height="21px" xmlns="http://www.w3.org/2000/svg">
  <g transform="matrix(1 0 0 1 -37 -19 )">
    <path d="M 6.03861607142857 20.21015625  C 6.03861607142857 20.625  5.83113839285714 20.96015625  5.57433035714286 20.96015625  L 2.40412946428571 20.96015625  C 1.10848214285714 20.96015625  0.0536830357142855 19.25625  0 17.16328125  L 0 3.8484375  C 0.0536830357142855 1.75546875  1.10848214285714 0.0515624999999997  2.40412946428571 0.0515624999999997  L 10.6466517857143 0.0515624999999997  C 11.9422991071429 0.0515624999999997  12.9970982142857 1.75546875  12.9970982142857 3.8484375  L 12.9970982142857 8.72578125  C 12.9970982142857 9.140625  12.7896205357143 9.47578125  12.5328125 9.47578125  C 12.2760044642857 9.47578125  12.0685267857143 9.140625  12.0685267857143 8.72578125  L 12.0685267857143 3.8484375  C 12.0685267857143 2.5828125  11.4301339285714 1.5515625  10.6466517857143 1.5515625  L 2.40412946428571 1.5515625  C 1.62064732142857 1.5515625  0.982254464285714 2.5828125  1 3.8484375  L 1 17.16328125  C 0.982254464285714 18.42890625  1.62064732142857 19.46015625  2.40412946428571 19.46015625  L 5.57433035714286 19.46015625  C 5.83113839285714 19.46015625  6.03861607142857 19.7953125  6.03861607142857 20.21015625  Z " fill-rule="nonzero" fill="#ffffff" stroke="none" transform="matrix(1 0 0 1 37 19 )" />
  </g>
</svg>