<?xml version="1.0" encoding="utf-8"?>
<svg version="1.1" xmlns:xlink="http://www.w3.org/1999/xlink" width="14px" height="14px" xmlns="http://www.w3.org/2000/svg">
  <g transform="matrix(1 0 0 1 -1194 -128 )">
    <path d="M 13.8101694915254 13.808686440678  C 14.0444915254237 13.5728813559322  14.0444915254237 13.1858050847458  13.808686440678 12.95  L 11.828813559322 10.9701271186441  C 14.0192796610169 8.34512711864407  13.8858050847458 4.43580508474576  11.4209745762712 1.97097457627119  C 10.1158898305085 0.665889830508476  8.40593220338983 0.01334745762712  6.69597457627119 0.01334745762712  C 4.98601694915254 0.01334745762712  3.2760593220339 0.665889830508476  1.97097457627119 1.97097457627119  C -0.639194915254238 4.58114406779661  -0.639194915254238 8.81080508474576  1.97097457627119 11.4209745762712  C 3.2760593220339 12.7260593220339  4.98601694915254 13.3786016949153  6.69597457627119 13.3786016949153  C 8.21610169491525 13.3786016949153  9.73474576271186 12.8595338983051  10.9701271186441 11.828813559322  L 12.95 13.808686440678  C 13.0686440677966 13.9273305084746  13.2243644067797 13.9851694915254  13.3800847457627 13.9851694915254  C 13.5358050847458 13.9851694915254  13.6915254237288 13.9258474576271  13.8101694915254 13.808686440678  Z M 6.69745762711864 12.1639830508475  C 5.23665254237288 12.1639830508475  3.86334745762712 11.5944915254237  2.83114406779661 10.5622881355932  C 0.7 8.43114406779661  0.7 4.96228813559322  2.83114406779661 2.83114406779661  C 3.86334745762712 1.7989406779661  5.23665254237288 1.22944915254237  6.69745762711864 1.22944915254237  C 8.15826271186441 1.22944915254237  9.53008474576271 1.79745762711865  10.5637711864407 2.83114406779661  C 12.6949152542373 4.96228813559322  12.6949152542373 8.43114406779661  10.5637711864407 10.5622881355932  C 9.53156779661017 11.5944915254237  8.15826271186441 12.1639830508475  6.69745762711864 12.1639830508475  Z " fill-rule="nonzero" fill="#ffffff" stroke="none" transform="matrix(1 0 0 1 1194 128 )" />
  </g>
</svg>