<?xml version="1.0" encoding="utf-8"?>
<svg version="1.1" xmlns:xlink="http://www.w3.org/1999/xlink" width="17px" height="11px" xmlns="http://www.w3.org/2000/svg">
  <g transform="matrix(1 0 0 1 -1088 -309 )">
    <path d="M 15.2160493761574 10.8952381017857  L 1.78395062384259 10.8952381017857  C 0.856657694492758 10.8952381017857  0.104938265046296 10.1447820663383  0.104938265046296 9.21904763214286  L 0.104938265046296 1.67619046964286  C 0.104938265046296 0.750456035447392  0.856657694492758 0  1.78395060416667 0  L 4.09259259259259 0  C 4.44032743507865 0  4.72222222222222 0.281421014392074  4.72222222222222 0.62857142857143  C 4.72222222222222 0.975721842750785  4.44032743507865 1.25714285714286  4.09259259259259 1.25714285714286  L 1.78395062384259 1.25714285714286  C 1.55212737946487 1.25714285714286  1.36419752430555 1.4447568638061  1.36419752430555 1.67619046964286  L 1.36419752430556 9.2190476125  C 1.36419752430555 9.45048123797962  1.55212737946487 9.63809524464286  1.78395060416667 9.63809524464286  L 15.2160493761574 9.63809524464286  C 15.4478726205351 9.63809524464286  15.6358024756944 9.45048123797962  15.6358024756944 9.21904763214286  L 15.6358024756944 1.67619046964286  C 15.6358024756944 1.4447568638061  15.4478726205351 1.25714285714286  15.2160493958333 1.25714285714286  L 12.9074074074074 1.25714285714286  C 12.5596725649213 1.25714285714286  12.2777777777778 0.975721842750785  12.2777777777778 0.62857142857143  C 12.2777777777778 0.281421014392074  12.5596725649213 0  12.9074074074074 0  L 15.2160493761574 0  C 16.1433423055072 0  16.8950617349537 0.750456035447392  16.8950617349537 1.67619046964286  L 16.8950617349537 9.2190476125  C 16.8950617349537 10.1447820663383  16.1433423055072 10.8952381017857  15.2160493958333 10.8952381017857  Z " fill-rule="nonzero" fill="#f59a23" stroke="none" fill-opacity="0.749019607843137" transform="matrix(1 0 0 1 1088 309 )" />
  </g>
</svg>