<?xml version="1.0" encoding="utf-8"?>
<svg version="1.1" xmlns:xlink="http://www.w3.org/1999/xlink" width="8px" height="14px" xmlns="http://www.w3.org/2000/svg">
  <g transform="matrix(1 0 0 1 -1093 -303 )">
    <path d="M 7.93268223732132 9.90049612063954  C 7.93268223732132 9.72499086831372  7.86539767960713 9.55669696214814  7.74567319607843 9.43274418604651  C 7.49477233867434 9.17404389943744  7.08969824956095 9.17404389943744  6.83879739215686 9.43274418604651  L 4.5883398627451 11.7578294505814  L 4.5883398627451 0.759689915697674  C 4.5883398627451 0.400062636738088  4.30742049008991 0.108527125  3.96088888235294 0.108527125  C 3.61435727461597 0.108527125  3.33343790196078 0.400062636738088  3.33343790196078 0.759689915697674  L 3.33343790196078 11.7426356656977  L 1.09594770588235 9.43144186046512  C 0.84518996731722 9.17279196419646  0.440247934643565 9.17279196419646  0.18949019607843 9.43144186046512  C 0.0691735384612972 9.5553319416235  0.00150093408273631 9.72394826131343  0.00150093408273631 9.89984495784884  C 0.00150093408273631 10.0757416543842  0.0691735384612972 10.2443579740742  0.189490196078431 10.3682480552326  L 3.51414378431372 13.8033488372093  C 3.76504464400997 14.0620491372966  4.17011874814689 14.0620491372966  4.42101960784314 13.8033488372093  L 7.74567319607843 10.3682480552326  C 7.86539767960713 10.2442952791309  7.93268223732132 10.0760013729654  7.93268223732132 9.90049612063954  Z " fill-rule="nonzero" fill="#ff9c00" stroke="none" transform="matrix(1 0 0 1 1093 303 )" />
  </g>
</svg>