<?xml version="1.0" encoding="utf-8"?>
<svg version="1.1" xmlns:xlink="http://www.w3.org/1999/xlink" width="53px" height="53px" xmlns="http://www.w3.org/2000/svg">
  <g transform="matrix(1 0 0 1 -29 -354 )">
    <path d="M 55.5 354  C 70.34 354  82 365.66  82 380.5  C 82 395.34  70.34 407  55.5 407  C 40.66 407  29 395.34  29 380.5  C 29 365.66  40.66 354  55.5 354  Z " fill-rule="nonzero" fill="#ffffff" stroke="none" />
    <path d="M 55.5 354.5  C 70.06 354.5  81.5 365.94  81.5 380.5  C 81.5 395.06  70.06 406.5  55.5 406.5  C 40.94 406.5  29.5 395.06  29.5 380.5  C 29.5 365.94  40.94 354.5  55.5 354.5  Z " stroke-width="1" stroke="#797979" fill="none" />
  </g>
</svg>