<?xml version="1.0" encoding="utf-8"?>
<svg version="1.1" xmlns:xlink="http://www.w3.org/1999/xlink" width="26px" height="22px" xmlns="http://www.w3.org/2000/svg">
  <g transform="matrix(1 0 0 1 -786 -922 )">
    <path d="M 26 19.688049744898  C 25.9502585758929 20.8876282831633  24.941963921875 21.8600693647959  23.6980758392857 21.8600693647959  L 22.5719844709821 21.8600693647959  L 3.42807489955357 21.8600693647959  L 2.30198353125 21.8600693647959  C 1.05809544866071 21.8600693647959  0.0497117098214275 20.8876282831633  0 19.688049744898  L 0 5.02691733163265  C 0.0497117098214275 3.8273100867347  1.05809544866071 2.8548977117347  2.30198353125 2.8548977117347  L 3.42804521428571 2.8548977117347  L 7.08799803794643 2.8548977117347  L 8.49556027008929 0.68290679846939  C 8.49556027008929 0.382947545918369  9.31075385267857 0.139873165816329  9.62171103794643 0.139873165816329  L 16.3783780178571 0.139873165816329  C 16.6892758035714 0.139873165816329  17.5044693861607 0.382947545918369  17.5044693861607 0.68290679846939  L 18.9121504174107 2.8548977117347  L 22.5719844709821 2.8548977117347  L 23.6980758392857 2.8548977117347  C 24.941963921875 2.8548977117347  25.9502585758929 3.8273100867347  26 5.02691733163265  L 26 19.688049744898  Z M 20.3197126785714 12.0857226173469  C 20.3195641941964 8.18720013010204  17.0424877767857 5.02691733163265  13.0000445424107 5.02691733163265  C 8.95748253794643 5.02691733163265  5.68031703571429 8.18737242602041  5.68031703571429 12.0860097959184  C 5.68031703571429 15.9846759005102  8.95748253794643 19.1450448188776  13.0000445424107 19.1450448188776  C 17.0424877767857 19.1450448188776  20.3195641941964 15.9847620204082  20.3197126785714 12.0863543596939  Z M 18.0675002276786 12.086038502551  C 18.0675002276786 14.7851548035714  15.7987481495536 16.9730539336735  13.0000445424107 16.9730539336735  C 10.20134090625 16.9730539336735  7.93255914285714 14.7851548035714  7.93255914285714 12.086038502551  C 7.93255914285714 9.3870083494898  10.20134090625 7.19896565816327  13.0000445424107 7.19896565816327  C 15.7987481785714 7.19896565816327  18.0675002276786 9.38700837755102  18.0675002276786 12.086038502551  Z " fill-rule="nonzero" fill="#d7d7d7" stroke="none" transform="matrix(1 0 0 1 786 922 )" />
  </g>
</svg>