<?xml version="1.0" encoding="utf-8"?>
<svg version="1.1" xmlns:xlink="http://www.w3.org/1999/xlink" width="23px" height="23px" xmlns="http://www.w3.org/2000/svg">
  <g transform="matrix(1 0 0 1 -820 -922 )">
    <path d="M 23 11.5  C 23 5.14735576923077  17.8526442307692 0  11.5 0  C 5.14735576923077 0  0 5.14735576923077  0 11.5  C 0 17.8526442307692  5.14735576923077 23  11.5 23  C 17.8526442307692 23  23 17.8526442307692  23 11.5  Z M 8.12740384615384 14.7564903846154  L 7.13774038461538 16.4151442307692  C 6.98846153846154 16.6694711538462  6.72307692307692 16.8076923076923  6.44663461538462 16.8076923076923  C 6.30841346153846 16.8076923076923  6.17019230769231 16.7745192307692  6.04302884615385 16.6971153846154  C 5.66153846153846 16.4759615384615  5.534375 15.9894230769231  5.75552884615385 15.6079326923077  L 6.540625 14.303125  C 6.62355769230769 14.1649038461538  6.76730769230769 14.0819711538462  6.92764423076923 14.0819711538462  L 7.04375 14.0819711538462  C 7.61322115384615 14.0819711538462  8.01129807692308 14.4247596153846  8.12740384615384 14.7564903846154  Z M 13.8442307692308 13.584375  C 13.8387019230769 13.7391826923077  13.7834134615385 13.8497596153846  13.7834134615385 13.8497596153846  L 8.64158653846154 13.8552884615385  L 5.22475961538462 13.8552884615385  C 4.77139423076923 13.8552884615385  4.40649038461538 13.4793269230769  4.42860576923077 13.0259615384615  C 4.44519230769231 12.5947115384615  4.82115384615385 12.2685096153846  5.25240384615385 12.2685096153846  L 7.72932692307692 12.2685096153846  L 10.6651442307692 7.27043269230769  L 9.71418269230769 5.65048076923077  C 9.49855769230769 5.28004807692308  9.59254807692308 4.79350961538462  9.95745192307692 4.56129807692308  C 10.3444711538462 4.3125  10.853125 4.43966346153846  11.0798076923077 4.82668269230769  L 11.5884615384615 5.69471153846154  L 11.5939903846154 5.69471153846154  L 12.1026442307692 4.82668269230769  C 12.3293269230769 4.43966346153846  12.8435096153846 4.3125  13.225 4.56129807692308  C 13.5899038461538 4.79350961538462  13.6838942307692 5.28004807692308  13.4682692307692 5.65048076923077  L 12.5173076923077 7.27043269230769  L 11.5939903846154 8.84615384615385  L 9.58701923076923 12.2685096153846  L 9.58701923076923 12.2740384615385  L 12.5449519230769 12.2740384615385  C 12.9153846153846 12.2740384615385  13.3798076923077 12.4730769230769  13.5677884615385 12.79375  L 13.584375 12.8269230769231  C 13.7502403846154 13.1088942307692  13.8442307692308 13.3024038461538  13.8442307692308 13.584375  Z M 18.5824519230769 13.0204326923077  C 18.5990384615385 13.4793269230769  18.2341346153846 13.8552884615385  17.7752403846154 13.8552884615385  L 16.3819711538462 13.8552884615385  L 16.3819711538462 13.8608173076923  L 17.3992788461538 15.5913461538462  C 17.6204326923077 15.9673076923077  17.5153846153846 16.4649038461538  17.1338942307692 16.6971153846154  C 17.0067307692308 16.7745192307692  16.8629807692308 16.8132211538462  16.7192307692308 16.8132211538462  C 16.4427884615385 16.8132211538462  16.1774038461538 16.6694711538462  16.028125 16.4206730769231  L 14.5242788461538 13.8608173076923  L 13.5899038461538 12.2685096153846  L 12.3846153846154 10.20625  C 12.0307692307692 9.60360576923077  12.0141826923077 8.85168269230769  12.3514423076923 8.25456730769231  C 12.5891826923077 7.834375  12.7716346153846 7.72379807692308  12.7716346153846 7.72379807692308  L 15.453125 12.2629807692308  L 17.7586538461538 12.2629807692308  C 18.1899038461538 12.2629807692308  18.5603365384615 12.5947115384615  18.5824519230769 13.0204326923077  Z " fill-rule="nonzero" fill="#d7d7d7" stroke="none" transform="matrix(1 0 0 1 820 922 )" />
  </g>
</svg>