<?xml version="1.0" encoding="utf-8"?>
<svg version="1.1" xmlns:xlink="http://www.w3.org/1999/xlink" width="10px" height="509px" preserveAspectRatio="xMidYMin meet" viewBox="1134.46153846154 846  8 509" xmlns="http://www.w3.org/2000/svg">
  <defs>
    <mask fill="white" id="clip421">
      <path d="M 487 1338  L 585 1338  L 585 1363  L 487 1363  Z M 156 581  L 1191 581  L 1191 1363  L 156 1363  Z " fill-rule="evenodd" />
    </mask>
  </defs>
  <path d="M 159.5 581  L 159.5 848  A 3 3 0 0 1 162.5 851 A 3 3 0 0 1 159.5 854 L 159.5 1345  A 5 5 0 0 0 164.5 1350.5 L 1133.46153846154 1350.5  A 5 5 0 0 0 1138.96153846154 1345.5 L 1138.96153846154 856  A 5 5 0 0 1 1143.96153846154 851.5 L 1177 851.5  " stroke-width="1" stroke-dasharray="9,4" stroke="#02a7f0" fill="none" mask="url(#clip421)" />
  <path d="M 1176 857.8  L 1182 851.5  L 1176 845.2  L 1176 857.8  Z " fill-rule="nonzero" fill="#02a7f0" stroke="none" mask="url(#clip421)" />
</svg>