<?xml version="1.0" encoding="utf-8"?>
<svg version="1.1" xmlns:xlink="http://www.w3.org/1999/xlink" width="104px" height="132px" xmlns="http://www.w3.org/2000/svg">
  <g transform="matrix(1 0 0 1 -1571 -285 )">
    <path d="M 66.3349352430555 94.4356750616776  L 66.3347625868056 94  L 56 94  L 56 112  L 74.5069282118055 112  L 74.5069282118055 102.643933182566  L 66.3349352430555 102.643933182566  L 66.3349352430555 94.4356750616776  Z M 74 131.343512129934  L 74.5067555555555 131  L 103.168038368056 131  L 103.168038368056 121  L 84.7416453993056 121  L 84.7416453993056 112  L 74 112  L 74 131.343512129934  Z M 84 66  L 103 66  L 103 56  L 84 56  L 84 66  Z M 93 112  L 93 102  L 103 102  L 103 112  L 93 112  Z M 28 48  L 28 37.0167945106908  L 38 37.0167945106908  L 38 48  L 28 48  Z M 66.3347625868056 55.4804878700658  L 74.5067555555555 55.4804878700658  L 74.5067555555555 48  L 103 48  L 103 1  L 56.1000453993056 1  L 56.1000453993056 11  L 37.6736524305556 11  L 37.6736524305556 19  L 56.1000453993056 19  L 56.1000453993056 28.8085363898026  L 47.9083696180556 28.8085363898026  L 47.9083696180556 37.0167945106908  L 56 37.0167945106908  L 56 48  L 66.3347625868056 48  L 66.3347625868056 55.4804878700658  Z M 66 37  L 66 11  L 93 11  L 93 37  L 66 37  Z M 66.3347625868056 84.1800668174342  L 66.3347625868056 75.971808696546  L 74.5067555555555 75.971808696546  L 74.5067555555555 84.1800668174342  L 66.3347625868056 84.1800668174342  Z M 84 76  L 84 94.4356750616776  L 74.5067555555555 94.4356750616776  L 74.5067555555555 102  L 93 102  L 93 84  L 103.167865711806 84  L 103.167865711806 76  L 84 76  Z M 28 29  L 28 18.5529281455592  L 38 18.5529281455592  L 38 29  L 28 29  Z M 1 75.9719817023026  L 1 65.7360961143092  L 9 65.7360961143092  L 9 75.9719817023026  L 1 75.9719817023026  Z M 28 75.971808696546  L 28 56  L 9.03187977430555 56  L 9.03187977430555 66  L 19.2470868055556 66  L 19.2470868055556 75.971808696546  L 28 75.971808696546  Z " fill-rule="nonzero" fill="#000000" stroke="none" transform="matrix(1 0 0 1 1571 285 )" />
  </g>
</svg>