<?xml version="1.0" encoding="utf-8"?>
<svg version="1.1" xmlns:xlink="http://www.w3.org/1999/xlink" width="13px" height="13px" xmlns="http://www.w3.org/2000/svg">
  <g transform="matrix(1 0 0 1 -182 -154 )">
    <path d="M 10.14609375 2.63095238095238  L 10.14609375 11.1738095238095  C 10.14609375 11.6174603174603  9.790625 11.9785714285714  9.3543125 11.9785714285714  L 3.64609375 11.9785714285714  C 3.20885896402242 11.9778896545037  2.85457737134792 11.6179845444852  2.85390625 11.1738095238095  L 2.85390625 2.63095238095238  L 10.14609375 2.63095238095238  Z M 4.43828125 1.67142857142857  L 4.43828125 1.18650793650794  C 4.43828125 1.09365079365079  4.509375 1.02142857142857  4.60078125 1.02142857142857  L 8.409375 1.02142857142857  C 8.50078125 1.02142857142857  8.57146875 1.09365079365079  8.57146875 1.18650793650794  L 8.57146875 1.67142857142857  L 4.43828125 1.67142857142857  Z M 13 2.14603174603175  C 13 1.87777777777778  12.78671875 1.67142857142857  12.52265625 1.67142857142857  L 9.51640625 1.67142857142857  L 9.51640625 1.18650793650794  C 9.51640625 0.567460317460317  9.01875 0.0619047619047619  8.409375 0.0619047619047619  L 4.60078125 0.0619047619047619  C 3.98994090743317 0.0632665873492478  3.49509054692192 0.565971715487661  3.49375 1.18650793650794  L 3.49375 1.67142857142857  L 0.47734375 1.67142857142857  C 0.21328125 1.67142857142857  0 1.88809523809524  0 2.15634920634921  C 0 2.42460317460317  0.21328125 2.64126984126984  0.47734375 2.64126984126984  L 1.89921875 2.64126984126984  L 1.89921875 11.1738095238095  C 1.89921875 12.1538957941442  2.68132132763933 12.9484126984127  3.64609375 12.9484126984127  L 9.35390625 12.9484126984127  C 10.3186786723607 12.9484126984127  11.10078125 12.1538957941442  11.10078125 11.1738095238095  L 11.10078125 2.63095238095238  L 12.52265625 2.63095238095238  C 12.78671875 2.63095238095238  13 2.41428571428571  13 2.14603174603175  Z M 6.02265625 10.0388888888889  C 6.02265625 10.3071428571429  6.2359375 10.5238095238095  6.5 10.5238095238095  C 6.7640625 10.5238095238095  6.97734375 10.3071428571429  6.97734375 10.0388888888889  L 6.97734375 4.88015873015873  C 6.97734375 4.61190476190476  6.76446875 4.39523809523809  6.5 4.39523809523809  C 6.2359375 4.39523809523809  6.02265625 4.61190476190476  6.02265625 4.88015873015873  L 6.02265625 10.0388888888889  Z M 3.7984375 10.0388888888889  C 3.80859375 10.3071428571429  4.021875 10.5238095238095  4.27578125 10.5238095238095  C 4.53984375 10.5238095238095  4.753125 10.3071428571429  4.753125 10.0388888888889  L 4.753125 4.88015873015873  C 4.753125 4.61190476190476  4.53984375 4.39523809523809  4.27578125 4.39523809523809  C 4.01171875 4.39523809523809  3.7984375 4.61190476190476  3.7984375 4.88015873015873  L 3.7984375 10.0388888888889  Z M 8.246875 10.0388888888889  C 8.246875 10.3071428571429  8.46015625 10.5238095238095  8.72421875 10.5238095238095  C 8.98828125 10.5238095238095  9.20196875 10.3071428571429  9.20196875 10.0388888888889  L 9.20196875 4.88015873015873  C 9.20196875 4.61190476190476  8.9886875 4.39523809523809  8.72421875 4.39523809523809  C 8.4605625 4.39523809523809  8.246875 4.61190476190476  8.246875 4.88015873015873  L 8.246875 10.0388888888889  Z " fill-rule="nonzero" fill="#000000" stroke="none" transform="matrix(1 0 0 1 182 154 )" />
  </g>
</svg>