<?xml version="1.0" encoding="utf-8"?>
<svg version="1.1" xmlns:xlink="http://www.w3.org/1999/xlink" width="42px" height="42px" xmlns="http://www.w3.org/2000/svg">
  <g transform="matrix(1 0 0 1 -635 -659 )">
    <path d="M 20 2.05376154492188  C 19.3640152109375 1.005947984375  18.5116151308594 0.153547904296875  17.4638475253906 0.153547904296875  L 2.2650802890625 0.153547904296875  C 1.2171747734375 0.153547904296875  0.36468273828125 1.005947984375  1 2.05376154492188  L 1 17.2527126464844  C 0.36468273828125 18.3004802519531  1.21717472851563 19.1529262871094  2.2650802890625 19.1529262871094  L 17.4638475253906 19.1529263320313  C 18.5116151308594 19.1529263320313  19.3640611660156 18.300480296875  20 17.2527126914063  L 20 2.05376154492188  Z M 18 17.2527126464844  L 17.7091372246094 17.2527126464844  C 17.7091372246094 17.3879989160156  17.5990878398438 17.4980483007813  17.4638015703125 18  L 2.2650802890625 18  C 2.12970206445312 17.4980483007813  2.01956076953125 17.3879529609375  2 17.2527126464844  L 2 2.05376154492188  C 2.01956072460937 1.91847527539062  2.12970206445312 1.808425890625  2.26508024414063 2  L 17.4638475253906 2  C 17.5991337949219 1.808425890625  17.7091831796875 1.91847527539062  18 2.05376154492188  L 18 17.2527126464844  Z M 13.7064470449219 7.0116380859375  C 13.706493 6.34977885546875  13.1679221699219 5.811345890625  12.505924984375 5.811345890625  L 7.22272700976563 5.811345890625  C 6.560867734375 5.811345890625  6.02243481445313 6.34977885546875  6.02243481445313 7.0116380859375  L 6.02243481445313 12.2948360605469  C 6.02243481445313 12.9567872460938  6.56086777929687 13.4953581210938  7.22272700976563 13.4953581210938  L 12.505924984375 13.4953581210938  C 13.1678761699219 13.4953581210938  13.7064470449219 12.9567872910156  13.7064470449219 12.2948360605469  L 13.7064470449219 7.0116380859375  Z M 12.0516150136719 7.46622387695312  L 12.0516150136719 11.8404801347656  L 7.67735875585938 11.8404801347656  L 7.67735875585938 7.46622387695312  L 12.0516150136719 7.46622387695312  Z M 13.7064470449219 29.5500191015625  C 13.706493 28.8880678710938  13.1679221699219 28.3494970410156  12.505924984375 28.3494970410156  L 7.22272700976563 28.3494970410156  C 6.560867734375 28.3494970410156  6.02243481445313 28.8880678710938  6.02243481445313 29.5500191015625  L 6.02243481445313 34.8332170761719  C 6.02243481445313 35.4950303515625  6.56086777929687 36.0335092714844  7.22272700976563 36.0335092714844  L 12.505924984375 36.0335092714844  C 13.1678761699219 36.0335092714844  13.7064470449219 35.4950303515625  13.7064470449219 34.8332170761719  L 13.7064470449219 29.5500191015625  Z M 12.0516150136719 30.0043750273438  L 12.0516150136719 34.3786312851563  L 7.67735875585938 34.3786312851563  L 7.67735875585938 30.0043750273438  L 12.0516150136719 30.0043750273438  Z M 28.2056605664063 12.2948361054688  C 28.2056605664063 12.9567872910156  28.7441394863281 13.4953581660156  29.4059527617188 13.4953581660156  L 34.6891507363281 13.4953581660156  C 35.351101921875 13.4953581660156  35.889672796875 12.9567873359375  35.889672796875 12.2948361054688  L 35.889672796875 7.01163813085937  C 35.889672796875 6.34977885546875  35.3511019667969 5.81134593554687  34.6891507363281 5.81134593554687  L 29.4059527617188 5.81134593554687  C 28.7441394863281 5.81134593554687  28.2056605664063 6.34977890039062  28.2056605664063 7.01163813085937  L 28.2056605664063 12.2948361054688  Z M 29.8605385527344 11.8404801796875  L 29.8605385527344 7.466223921875  L 34.2347948105469 7.466223921875  L 34.2347948105469 11.8404801796875  L 29.8605385527344 11.8404801796875  Z M 20 24.4471108496094  C 19.3640152109375 23.3993432441406  18.5116151308594 22.5468972089844  17.4638475253906 22  L 2.2650802890625 22  C 1.2171747734375 22.5468972089844  0.36468273828125 23.3993432441406  1 24.4471108496094  L 1 39.6460619511719  C 0.36468273828125 40.6938755117188  1.21717472851563 41.5463215917969  2.2650802890625 41  L 17.4638475253906 41  C 18.5116151308594 41.5463215917969  19.3640611660156 40.6938755566406  20 39.6460619511719  L 20 24.4471108496094  Z M 18 39.6460619511719  L 17.7091372246094 39.6460619511719  C 17.7091372246094 39.7813482207031  17.5990878398438 39.8914435605469  17.4638015703125 39.8914435605469  L 2.2650802890625 39.8914436054687  C 2.12970206445312 39.8914436054687  2.01956076953125 39.781348265625  2 39.6460619960937  L 2 24.4471108496094  C 2.01956072460937 24.3118705351562  2.12970206445312 24.2017751953125  2.26508024414063 24  L 17.4638475253906 24  C 17.5991337949219 24.2017751953125  17.7091831796875 24.3118705351563  18 24.4471108496094  L 18 39.6460619511719  Z M 33.7432500410156 22.6071622851562  L 24.5420824765625 22.6071623300781  C 23.4942689160156 22.6071623300781  22.6418228359375 23.4597003203125  22.6418228359375 24.5076058359375  L 22.6418228359375 33.25161340625  C 22.6418228359375 33.7085895800781  23.0122856777344 34.079052421875  23.4692618515625 34.079052421875  C 23.9262380253906 34.079052421875  24.2967008671875 33.7085895800781  24.2967008671875 33.25161340625  L 24.2967008222656 24.5076058359375  C 24.2967008222656 24.3722276113281  24.4067961621094 24.2620403164062  24.5420824316406 24.2620403164062  L 33.7432500410156 24.2620403164062  C 34.2002262148438 24.2620403164062  34.5706890566406 23.8915774746094  34.5706890566406 23.4346013007812  C 34.5706890566406 22.9776251269531  34.2002262148438 22.6071622851562  33.7432500410156 22.6071622851562  Z M 22 17.2527126464844  C 22.5478625351563 18.3004802519531  23.4003085703125 19.1529263320313  24.4480762207031 19.1529263320313  L 39.6470273222656 19.1529263320313  C 40.6948408828125 19.1529263320313  41.5472869628906 18.300480296875  41 17.2527126914063  L 41 2.05376154492188  C 41.5472869179687 1.00599393945312  40.6948408828125 0.153547904296875  39.6470272773438 0.153547904296875  L 24.4480762207031 0.153547904296875  C 23.4003086152344 0.153547904296875  22.5478625800781 1.005947984375  22 2.05376154492188  L 22 17.2527126464844  Z M 24 17.2527126464844  L 24 2.05376154492188  C 24.2027405214844 1.91847527539062  24.3128358613281 1.808425890625  24.4480761757812 2  L 39.6470272773437 2  C 39.782313546875 1.808425890625  39.8924088867187 1.91847527539062  39.8924088867187 2.05376154492188  L 39.8924088867187 17.2527126464844  C 39.8924088867187 17.3879989160156  39.782313546875 17.4980483007813  39.6470272773437 18  L 24.4480762207031 18  C 24.31283590625 17.4980483007813  24.2027405664063 17.3879529609375  24 17.2527126464844  Z M 41.5596985625 28.2588465390625  L 41.5596985175781 23.4346013457031  C 41.5596985175781 22.977625171875  41.1892356757813 22.6071623300781  40.7322595019531 22.6071623300781  L 37.6998334863281 22.6071623300781  C 37.2428573125 22.6071623300781  36.8723944707031 22.977625171875  36.8723944707031 23.4346013457031  C 36.8723944707031 23.8915775195313  37.2428573125 24.2620403613281  37.6998334863281 24.2620403613281  L 39.9048204863281 24.2620403613281  L 39.9048204863281 27.4519096425781  L 33.0259524101563 27.4519095976563  C 32.5689762363281 27.4519095976563  32.1985133945312 27.8223724394531  32.1985133945312 28.2793486132813  C 32.1985133945312 28.7363247871094  32.5689762363281 29.1067876289063  33.0259524101563 29.1067876289063  L 40.732259546875 29.1067876289063  C 41.1892357207031 29.1067876289063  41.5596985625 28.7363247871094  41.5596985625 28.2793486132813  C 41.5596985625 28.2759009492188  41.5592388769531 28.2725452402344  41.559192921875 28.2690975761719  C 41.5592388769531 28.2656499121094  41.5596985625 28.2623401582031  41.5596985625 28.2588465390625  Z M 27.1372989316406 40.745958203125  C 27.1372989316406 40.2889820292969  26.7668360898438 39.9185192324219  26.3098599160156 39.9185192324219  L 24.2967468222656 39.9185192324219  L 24.2967468222656 37.6143774355469  C 24.2967468222656 37.1574012617188  23.9262839804688 36.7869384199219  23.4693078066406 36.7869384199219  C 23.0123316328125 36.7869384199219  22.6418687910156 37.1574012617187  22.6418687910156 37.6143774355469  L 22.6418687910156 40.745958203125  C 22.6418687910156 41.2029343769531  23.0123316328125 41.57339721875  23.4693078066406 41.57339721875  L 26.3098599160156 41.57339721875  C 26.7668360898438 41.57339721875  27.1372989316406 41.2029343769531  27.1372989316406 40.745958203125  Z M 34.6396423378906 34.331881  C 35.0966185117188 34.331881  35.4670813085937 33.9614181582031  35.4670813085937 33.504441984375  C 35.4670813085937 33.0474658105469  35.0966184667969 32.67700296875  34.6396422929687 32.67700296875  L 29.4119746738281 32.6770030136719  C 28.9549985 32.6770030136719  28.5845356582031 33.0474658554688  28.5845356582031 33.5044420292969  L 28.5845356582031 40.8273231289063  C 28.5845356582031 41.2842993027344  28.9549985 41.6547621445313  29.4119746738281 41.6547621445313  C 29.8689508476563 41.6547621445313  30.2394136894531 41.2842993027344  30.2394136894531 40.8273231289063  L 30.2394136894531 34.331881  L 34.6396423378906 34.331881  Z M 41.5508724921875 31.3250595996094  C 41.5508724921875 30.8680834257813  41.1804556503906 30.4976206289062  40.7234335214844 30.4976206289062  C 40.2664573476563 30.4976206289062  39.8959945058594 30.8680834707031  39.8959945058594 31.3250596445313  L 39.8959945058594 40.0534378164063  L 32.4076256210938 40.0534377714844  C 31.9506494472656 40.0534377714844  31.5801866054687 40.4239006132812  31.5801866054687 40.8808767871094  C 31.5801866054687 41.3378529609375  31.9506494472656 41.7083158027344  32.4076256210938 41.7083158027344  L 40.7234335214844 41.7083158027344  C 41.1804096953125 41.7083158027344  41.5508725371094 41.3378529609375  41.5508725371094 40.8808767871094  L 41.5508724921875 31.3250595996094  Z M 28.2952538320313 26.8416274179688  C 28.2952538320313 26.3846511992188  27.9247909902344 26.0141884023437  27.4678148164063 26.0141884023437  C 27.0108386425781 26.0141884023437  26.6403758007813 26.3846512441406  26.6403758007813 26.8416274179688  L 26.6403758007813 29.5310799492188  C 26.6403758007813 29.9880561230469  27.0108386425781 30.3585189648438  27.4678148164063 30.3585189648438  C 27.9247909902344 30.3585189648438  28.2952538320313 29.9880561230469  28.2952538320313 29.5310799492188  L 28.2952538320313 26.8416274179688  Z " fill-rule="nonzero" fill="#7f7f7f" stroke="none" transform="matrix(1 0 0 1 635 659 )" />
  </g>
</svg>