<?xml version="1.0" encoding="utf-8"?>
<svg version="1.1" xmlns:xlink="http://www.w3.org/1999/xlink" width="149px" height="123px" xmlns="http://www.w3.org/2000/svg">
  <g transform="matrix(1 0 0 1 -19 -23 )">
    <path d="M 19 23  L 168 23  L 168 146  L 19 146  L 19 23  " fill-rule="nonzero" fill="#cccccc" stroke="none" />
    <path d="M 28 32  L 159 32  L 159 137  L 28 137  L 28 32  " fill-rule="nonzero" fill="#ffffff" stroke="none" />
    <path d="M 105.705 59.9  C 100.539 59.9  96.48 55.841  96.48 50.675  C 96.48 45.509  100.539 41.45  105.705 41.45  C 110.871 41.45  114.93 45.509  114.93 50.675  C 114.93 55.841  110.871 59.9  105.705 59.9  " fill-rule="nonzero" fill="#cccccc" stroke="none" />
    <path d="M 31 134  L 31 79.55  L 62.25 54.8  L 106 84.9651006711409  L 131 69.65  L 156 84.9651006711409  L 156 134  L 31 134  " fill-rule="nonzero" fill="#169bd5" stroke="none" />
  </g>
</svg>