<?xml version="1.0" encoding="utf-8"?>
<svg version="1.1" xmlns:xlink="http://www.w3.org/1999/xlink" width="13px" height="7px" xmlns="http://www.w3.org/2000/svg">
  <g transform="matrix(1 0 0 1 -157 -690 )">
    <path d="M 0.504605263157895 7  L 0.504605263157895 6.15959302325582  L 11.8111842105263 6.15959302325582  L 11.8111842105263 7  L 0.504605263157895 7  Z M 12.9657894736842 0.142441860465116  L 12.9657894736842 0.909593023255814  L 11.3557565789474 0.909593023255814  L 11.3557565789474 0.142441860465116  L 12.9657894736842 0.142441860465116  Z M 10.147697368421 0.142441860465116  L 10.147697368421 0.909593023255814  L 8.53766447368421 0.909593023255814  L 8.53766447368421 0.142441860465116  L 10.147697368421 0.142441860465116  Z M 7.32746710526316 0.142441860465116  L 7.32746710526316 0.909593023255814  L 5.71743421052631 0.909593023255814  L 5.71743421052631 0.142441860465116  L 7.32746710526316 0.142441860465116  Z M 4.509375 0.142441860465116  L 4.509375 0.909593023255814  L 2.89934210526316 0.909593023255814  L 2.89934210526316 0.142441860465116  L 4.509375 0.142441860465116  Z M 1.68914473684211 0.142441860465116  L 1.6891447368421 0.909593023255814  L 0.0791118421052605 0.909593023255814  L 0.0791118421052605 0.142441860465116  L 1.68914473684211 0.142441860465116  Z M 12.9657894736842 3.38197674418605  L 12.9657894736842 4.14912790697674  L 11.3557565789474 4.14912790697674  L 11.3557565789474 3.38197674418605  L 12.9657894736842 3.38197674418605  Z M 10.147697368421 3.38197674418605  L 10.147697368421 4.14912790697674  L 8.53766447368421 4.14912790697674  L 8.53766447368421 3.38197674418605  L 10.147697368421 3.38197674418605  Z M 7.32746710526316 3.38197674418605  L 7.32746710526316 4.14912790697674  L 5.71743421052631 4.14912790697674  L 5.71743421052631 3.38197674418605  L 7.32746710526316 3.38197674418605  Z M 4.509375 3.38197674418605  L 4.509375 4.14912790697674  L 2.89934210526316 4.14912790697674  L 2.89934210526316 3.38197674418605  L 4.509375 3.38197674418605  Z M 1.68914473684211 3.38197674418605  L 1.6891447368421 4.14912790697674  L 0.0791118421052605 4.14912790697674  L 0.0791118421052605 3.38197674418605  L 1.68914473684211 3.38197674418605  Z " fill-rule="nonzero" fill="#333333" stroke="none" transform="matrix(1 0 0 1 157 690 )" />
  </g>
</svg>