<?xml version="1.0" encoding="utf-8"?>
<svg version="1.1" xmlns:xlink="http://www.w3.org/1999/xlink" width="19px" height="14px" xmlns="http://www.w3.org/2000/svg">
  <g transform="matrix(1 0 0 1 -154 -687 )">
    <path d="M 18.9427455357143 11.0185975609756  C 18.9427455357143 12.572256097561  17.6895089285714 13.8335365853659  16.1478794642857 13.8335365853659  L 2.85212053571429 13.8335365853659  C 1.31049107142857 13.8335365853659  0.0551339285714285 12.572256097561  0.0551339285714285 11.0185975609756  L 0.0551339285714285 2.97926829268293  C 0.0551339285714285 1.42774390243903  1.30837053571429 0.164329268292683  2.85212053571429 0.164329268292683  L 16.1457589285714 0.164329268292683  C 17.6873883928571 0.164329268292683  18.9427455357143 1.42560975609756  18.9427455357143 2.97926829268293  L 18.9427455357143 11.0185975609756  Z M 2.85212053571429 1  L 2.85212053571429 0.971036585365854  C 1.7515625 0.971036585365854  0.854575892857143 1.87164634146341  0.854575892857143 2.98140243902439  L 0.854575892857143 11.0207317073171  C 0.854575892857143 12.1283536585366  1.7515625 13.0310975609756  2.85212053571429 13  L 16.1457589285714 13  C 17.2463169642857 13.0310975609756  18.1433035714286 12.130487804878  18.1433035714286 11.0207317073171  L 18.1433035714286 2.97926829268293  C 18.1433035714286 1.87164634146342  17.2463169642857 0.968902439024391  16.1457589285714 1  L 2.85212053571429 1  Z " fill-rule="nonzero" fill="#333333" stroke="none" transform="matrix(1 0 0 1 154 687 )" />
  </g>
</svg>