<?xml version="1.0" encoding="utf-8"?>
<svg version="1.1" xmlns:xlink="http://www.w3.org/1999/xlink" width="806px" height="600px" xmlns="http://www.w3.org/2000/svg">
  <defs>
    <mask fill="white" id="clip249">
      <path d="M 18 597  L 18 577.473684210526  L 0.421052631578959 558.526315789474  L 18 538.526315789474  L 18 3  C 18 1.32000000000005  19.3200000000001 0  21 0  L 803 0  C 804.68 0  806 1.32000000000005  806 3  L 806 597  C 806 598.68  804.68 600  803 600  L 21 600  C 19.3200000000001 600  18 598.68  18 597  Z " fill-rule="evenodd" />
    </mask>
  </defs>
  <g transform="matrix(1 0 0 1 -472 -131 )">
    <path d="M 18 597  L 18 577.473684210526  L 0.421052631578959 558.526315789474  L 18 538.526315789474  L 18 3  C 18 1.32000000000005  19.3200000000001 0  21 0  L 803 0  C 804.68 0  806 1.32000000000005  806 3  L 806 597  C 806 598.68  804.68 600  803 600  L 21 600  C 19.3200000000001 600  18 598.68  18 597  Z " fill-rule="nonzero" fill="#ffffff" stroke="none" transform="matrix(1 0 0 1 472 131 )" />
    <path d="M 18 597  L 18 577.473684210526  L 0.421052631578959 558.526315789474  L 18 538.526315789474  L 18 3  C 18 1.32000000000005  19.3200000000001 0  21 0  L 803 0  C 804.68 0  806 1.32000000000005  806 3  L 806 597  C 806 598.68  804.68 600  803 600  L 21 600  C 19.3200000000001 600  18 598.68  18 597  Z " stroke-width="2" stroke="#d7d7d7" fill="none" transform="matrix(1 0 0 1 472 131 )" mask="url(#clip249)" />
  </g>
</svg>