<?xml version="1.0" encoding="utf-8"?>
<svg version="1.1" xmlns:xlink="http://www.w3.org/1999/xlink" width="15px" height="15px" xmlns="http://www.w3.org/2000/svg">
  <g transform="matrix(1 0 0 1 -598 -350 )">
    <path d="M 605.5 350  C 609.7 350  613 353.3  613 357.5  C 613 361.7  609.7 365  605.5 365  C 601.3 365  598 361.7  598 357.5  C 598 353.3  601.3 350  605.5 350  Z " fill-rule="nonzero" fill="#ffffff" stroke="none" />
    <path d="M 605.5 350.5  C 609.42 350.5  612.5 353.58  612.5 357.5  C 612.5 361.42  609.42 364.5  605.5 364.5  C 601.58 364.5  598.5 361.42  598.5 357.5  C 598.5 353.58  601.58 350.5  605.5 350.5  Z " stroke-width="1" stroke="#d7d7d7" fill="none" />
  </g>
</svg>