<?xml version="1.0" encoding="utf-8"?>
<svg version="1.1" xmlns:xlink="http://www.w3.org/1999/xlink" width="15px" height="15px" xmlns="http://www.w3.org/2000/svg">
  <g transform="matrix(1 0 0 1 -702 -350 )">
    <path d="M 709.5 350  C 713.7 350  717 353.3  717 357.5  C 717 361.7  713.7 365  709.5 365  C 705.3 365  702 361.7  702 357.5  C 702 353.3  705.3 350  709.5 350  Z " fill-rule="nonzero" fill="#f2f2f2" stroke="none" />
    <path d="M 709.5 350.5  C 713.42 350.5  716.5 353.58  716.5 357.5  C 716.5 361.42  713.42 364.5  709.5 364.5  C 705.58 364.5  702.5 361.42  702.5 357.5  C 702.5 353.58  705.58 350.5  709.5 350.5  Z " stroke-width="1" stroke="#d7d7d7" fill="none" />
  </g>
</svg>