<?xml version="1.0" encoding="utf-8"?>
<svg version="1.1" xmlns:xlink="http://www.w3.org/1999/xlink" width="12px" height="12px" xmlns="http://www.w3.org/2000/svg">
  <g transform="matrix(1 0 0 1 -19 -199 )">
    <path d="M 5.98148571428571 0.0860571428571429  C 2.71069714285714 0.0860571428571429  0.0589714285714282 2.73888  0.0589714285714282 6.00980571428571  C 0.0589714285714282 9.28018285714286  2.71062857142857 11.93232  5.98148571428571 11.93232  C 9.25419428571428 11.93232  11.9053028571429 9.28018285714286  11.9053028571429 6.00980571428571  C 11.9051657142857 2.73888  9.25398857142857 0.0860571428571433  5.98141714285714 0.0860571428571433  Z M 10.5098742857143 7.38918857142857  L 6.88189714285714 10.4155885714286  C 6.51689142857143 10.6793828571429  6.06061714285714 10.8938057142857  5.58493714285714 10.7408228571429  C 5.30002285714286 10.6475657142857  5.04589714285714 10.4720914285714  4.79568 10.2880457142857  L 1.51097142857143 7.60484571428571  L 1.51097142857143 6.80653714285714  L 4.76317714285714 9.42226285714286  C 5.07202285714286 9.61570285714286  5.48845714285714 9.73782857142857  5.86278857142857 9.59334857142857  C 6.20976 9.45641142857143  6.51346285714286 9.21641142857143  6.81106285714286 8.96112  L 9.26612571428571 6.84301714285714  L 8.70212571428571 6.38530285714286  L 6.13515428571429 8.49538285714286  C 5.87554285714286 8.69273142857143  5.57712 8.85078857142857  5.23810285714286 8.78050285714286  C 4.92596571428572 8.71542857142857  4.68432 8.47378285714286  4.41606857142857 8.29789714285715  L 2.03136 6.35622857142857  C 1.85033142857143 6.21963428571429  1.66628571428572 6.07536  1.50349714285714 5.91202285714286  L 1.49952 5.38114285714286  L 4.39433142857143 7.68267428571428  C 4.65353142857143 7.84546285714286  5.00557714285714 8.00406857142857  5.31257142857143 7.83168  L 5.63821714285714 7.62068571428572  L 7.89627428571429 5.75465142857143  C 7.78313142857143 5.62642285714286  7.58269714285714 5.49648  7.43410285714286 5.51554285714286  C 7.32109714285714 5.52829714285714  7.21638857142857 5.56786285714286  7.11106285714286 5.64329142857143  L 5.50230857142857 6.97474285714286  C 5.36221714285714 7.06889142857143  5.12290285714286 7.18333714285714  4.94667428571429 7.14233142857143  C 4.50603428571429 7.03947428571429  4.18964571428572 6.66082285714286  3.86516571428572 6.40656  L 1.43732571428571 4.42628571428571  L 4.83819428571429 1.61108571428571  C 5.68128 0.997645714285714  6.54816 1.07074285714286  7.32109714285714 1.64866285714286  L 10.4799085714286 4.24621714285714  C 10.4818971428571 4.24930285714286  10.4786057142857 5.01881142857143  10.4753142857143 5.01737142857143  L 7.97972571428572 2.98251428571429  C 7.71867428571429 2.76925714285714  6.91810285714286 1.90539428571429  6.18637714285714 2.18598857142857  C 5.79373714285714 2.33643428571429  5.47117714285714 2.62169142857143  5.13195428571429 2.88534857142857  L 2.69670857142857 4.92507428571429  C 2.69958857142857 4.92685714285714  3.29616 5.42496  3.29616 5.42496  L 5.69019428571429 3.42548571428571  C 6.09915428571429 3.12281142857143  6.66973714285714 3.01542857142857  7.14795428571429 3.23924571428571  C 7.14795428571429 3.23924571428571  7.38452571428571 3.36521142857143  7.47970285714286 3.44907428571429  C 7.59696 3.55302857142857  10.4799085714286 5.90420571428571  10.4799085714286 5.90420571428571  C 10.4753142857143 6.07865142857143  10.4873828571429 6.30013714285714  10.4660571428571 6.4704  L 7.6392 4.17483428571429  C 7.28016 3.94553142857143  6.72651428571429 3.9408  6.37042285714286 4.19190857142857  C 5.59117714285714 4.81241142857143  4.86233142857143 5.42489142857143  4.10578285714286 6.08317714285714  C 4.24676571428572 6.27174857142857  4.46441142857143 6.35622857142857  4.70228571428572 6.28217142857143  L 4.86905142857143 6.18932571428571  L 6.42987428571429 4.86089142857143  C 6.64930285714286 4.72498285714286  7.09686857142857 4.65449142857143  7.32596571428571 4.79677714285714  L 7.58070857142857 4.96429714285714  L 10.5098742857143 7.34832  L 10.5098742857143 7.38918857142857  Z " fill-rule="nonzero" fill="#00bfbf" stroke="none" transform="matrix(1 0 0 1 19 199 )" />
  </g>
</svg>