<?xml version="1.0" encoding="utf-8"?>
<svg version="1.1" xmlns:xlink="http://www.w3.org/1999/xlink" width="12px" height="12px" xmlns="http://www.w3.org/2000/svg">
  <g transform="matrix(1 0 0 1 -54 -199 )">
    <path d="M 11.53752 3.70884  C 11.2357575325462 2.98156452304535  10.7941228482686 2.32062103460154  10.23768 1.76352  C 9.68055631713748 1.20707668819187  9.0195931710651 0.765442490353544  8.2923 0.46368  C 7.56465224682952 0.162787656467376  6.78500536635593 0.00769408955292601  5.9976 0.0072  C 5.21017474620371 0.00768935025332746  4.43050732374426 0.162782948278519  3.70284 0.46368  C 2.97556526124358 0.765443847509554  2.31462202712668 1.20707836184884  1.75752 1.76352  C 1.20108199205738 2.32062500457201  0.759447987501534 2.98156747575506  0.45768 3.70884  C 0.15677524472189 4.43652598666996  0.00168149625433297 5.21621455102835  0.0012 6.00366  C 0.00169720403928083 6.79106505859242  0.156790651626333 7.57071133921372  0.45768 8.29836  C 0.759446607533414 9.02563326240157  1.20108078201185 9.68657598788809  1.75752 10.24368  C 2.31463734536244 10.8001460573413  2.97560110897149 11.2418010534425  3.7029 11.54358  C 4.43055599159282 11.8444383079771  5.21020002261683 11.9995109225411  5.9976 12  C 6.78246 12  7.56714 11.84394  8.2923 11.54358  C 9.01957602963084 11.2417914163536  9.68051835542538 10.8001371233322  10.23762 10.24368  C 10.7940592179881 9.68657598788809  11.2356933924666 9.02563326240157  11.53746 8.29836  C 11.8383493483737 7.57071133921371  11.9934427959607 6.79106505859243  11.99394 6.00366  C 11.99394 5.21868  11.83788 4.43406  11.53746 3.70884  Z M 5.67972 6.6444  C 5.9325 9.56022  6.756 9.47298  7.10988 7.36422  L 7.68054 7.22604  C 7.05216 11.27628  4.52394 10.96356  4.22772 6.73164  C 1.31664 6.6516  0.89046 4.41204  4.42998 3.00138  L 4.55274 3.30678  C 2.70354 4.09938  2.55912 5.2119  4.24944 5.40822  C 4.69728 2.39058  6.1998 1.69254  7.21104 3.6558  L 6.91494 3.74304  C 6.2937 3.2559  5.89638 4.0848  5.73744 5.35002  C 8.10678 4.7538  9.3492 3.25596  7.57944 2.89962  L 7.47834 2.4633  C 11.32848 2.7978  10.19436 5.63364  5.67966 6.6444  Z " fill-rule="nonzero" fill="#70b603" stroke="none" transform="matrix(1 0 0 1 54 199 )" />
  </g>
</svg>