<?xml version="1.0" encoding="utf-8"?>
<svg version="1.1" xmlns:xlink="http://www.w3.org/1999/xlink" width="12px" height="12px" xmlns="http://www.w3.org/2000/svg">
  <g transform="matrix(1 0 0 1 -36 -199 )">
    <path d="M 11.53752 3.70884  C 11.2357575325462 2.98156452304535  10.7941228482686 2.32062103460154  10.23768 1.76352  C 9.68055631713748 1.20707668819187  9.0195931710651 0.765442490353544  8.2923 0.46368  C 7.56465224682952 0.162787656467376  6.78500536635593 0.00769408955292601  5.9976 0.0072  C 5.21017474620371 0.00768935025332746  4.43050732374426 0.162782948278519  3.70284 0.46368  C 2.97556526124358 0.765443847509554  2.31462202712668 1.20707836184884  1.75752 1.76352  C 1.20108199205738 2.32062500457201  0.759447987501534 2.98156747575506  0.45768 3.70884  C 0.15677524472189 4.43652598666996  0.00168149625433297 5.21621455102835  0.0012 6.00366  C 0.00169720403928083 6.79106505859242  0.156790651626333 7.57071133921372  0.45768 8.29836  C 0.759446607533414 9.02563326240157  1.20108078201185 9.68657598788809  1.75752 10.24368  C 2.31463734536244 10.8001460573413  2.97560110897149 11.2418010534425  3.7029 11.54358  C 4.43055599159282 11.8444383079771  5.21020002261683 11.9995109225411  5.9976 12  C 6.78246 12  7.56714 11.84394  8.2923 11.54358  C 9.01957602963084 11.2417914163536  9.68051835542538 10.8001371233322  10.23762 10.24368  C 10.7940592179881 9.68657598788809  11.2356933924666 9.02563326240157  11.53746 8.29836  C 11.8383493483737 7.57071133921371  11.9934427959607 6.79106505859243  11.99394 6.00366  C 11.99394 5.21868  11.83788 4.43406  11.53746 3.70884  Z M 4.24902 7.08642  L 3.68244 6.54222  L 3.67668 6.54786  L 3.37026 6.837  C 3.15636 7.03542  2.86728 7.16016  2.54922 7.16016  C 1.89594 7.16016  1.36398 6.63858  1.36398 5.99226  C 1.36398 5.35164  1.89594 4.83006  2.54922 4.83006  C 2.86146 4.83006  3.1332 4.9491  3.3471 5.14188  L 3.40494 5.19288  L 3.67092 5.45364  L 3.67668 5.448  L 4.24908 4.9038  L 4.8099 5.47638  L 4.24902 6.0036  L 4.79832 6.53082  L 4.24902 7.08642  Z M 8.49864 8.328  C 8.49864 8.96868  7.96668 9.49026  7.30764 9.49026  C 7.03936173594735 9.49014940831856  6.77882559831937 9.40032611119374  6.56748 9.23508  L 6.5559 9.2238  L 6.11652 8.8212  L 6.11076 8.8212  L 5.69448 9.2124  L 5.6829 9.2238  C 5.47012066530515 9.39581147653393  5.20489070213973 9.48983927779661  4.93128 9.49026  C 4.278 9.49026  3.74604 8.96868  3.74604 8.32806  C 3.74604 8.02758  3.86166 7.75542  4.05252 7.54566  L 4.06404 7.52868  L 5.57304 5.9979  L 4.06404 4.4559  C 3.87324 4.24614  3.75762 3.97398  3.75762 3.6735  C 3.75762 3.03288  4.28952 2.5113  4.94292 2.5113  C 5.23194 2.5113  5.49792 2.6133  5.70024 2.7777  L 5.71182 2.7891  L 6.12816 3.1803  L 6.56748 2.7777  L 6.57912 2.77206  C 6.78997427389645 2.60601060716372  7.05077378819698 2.51612421708009  7.31916 2.517  C 7.97244 2.517  8.5044 3.03852  8.5044 3.6792  C 8.5044 3.97398  8.39454 4.24614  8.2095 4.4502  L 8.19792 4.46718  L 6.67734 5.9979  L 7.29594 6.62724  L 7.31916 6.64986  L 8.18058 7.5513  L 8.20368 7.557  C 8.38296 7.76676  8.49864 8.03322  8.49864 8.328  Z M 9.68388 7.16586  C 9.36588 7.16586  9.07674 7.04106  8.86284 6.84264  L 8.55066 6.54786  L 8.53902 6.5592  L 7.98402 7.09776  L 7.43478 6.54216  L 7.98402 6.01494  L 7.9782 6.0093  L 7.42902 5.48202  L 7.98984 4.91508  L 8.01294 4.94346  L 8.55066 5.45364  L 8.55642 5.45934  L 8.82234 5.19858  L 8.88018 5.15322  C 9.09408 4.96044  9.36582 4.8414  9.678 4.8414  C 10.3314 4.8414  10.86324 5.36298  10.86906 6.0036  C 10.86906 6.64422  10.33716 7.1658  9.68388 7.1658  Z M 6.11076 5.44236  L 7.58508 3.957  C 7.66026 3.88326  7.7007 3.7869  7.7007 3.6792  C 7.7007 3.46938  7.5273 3.29364  7.30758 3.29364  C 7.20354 3.29364  7.11096 3.3276  7.0416 3.39564  L 6.73518 3.69618  L 6.72936 3.70188  L 7.1688 4.1214  L 6.57912 4.7223  L 6.11076 4.26876  L 5.64246 4.71096  L 5.05272 4.1214  L 5.52102 3.7188  L 5.17422 3.37872  L 5.1684 3.37308  C 5.09826459084712 3.32083811260867  5.0129708167398 3.29296171361065  4.92552 3.2937  C 4.71162 3.2937  4.5324 3.46374  4.5324 3.6792  C 4.5324 3.77556  4.56708 3.86058  4.62492 3.92862  L 6.11076 5.44236  Z M 7.5735 8.0559  L 6.09918 6.57048  L 4.61334 8.08428  C 4.5555 8.15226  4.52082 8.23728  4.52082 8.3337  C 4.52082 8.5434  4.69422 8.7192  4.91394 8.7192  C 5.00646 8.7192  5.09316 8.69088  5.15676 8.63982  L 5.5095 8.29968  L 5.04114 7.8858  L 5.61936 7.29054  L 6.0819 7.73274  L 6.08766 7.73844  L 6.55596 7.27356  L 7.15146 7.88016  L 6.71784 8.30538  L 6.71208 8.31102  L 7.02426 8.61714  C 7.09717985918397 8.68299295239726  7.19198579966678 8.71937123003346  7.29024 8.7192  C 7.5099 8.7192  7.68912 8.54916  7.68912 8.3337  C 7.68912 8.226  7.64292 8.12958  7.5735 8.0559  Z M 9.68388 5.6181  C 9.59712 5.6181  9.51042 5.64642  9.44676 5.69742  C 9.42366 5.71446  9.4179 5.72016  9.4179 5.72016  L 9.123 6.0036  L 9.4179 6.29838  C 9.4815 6.35508  9.57402 6.39474  9.678 6.39474  C 9.89196 6.39474  10.07118 6.21906  10.077 6.00924  C 10.0770000773736 5.7930727868823  9.9019613231674 5.61803403267615  9.68604007737356 5.61803403267615  C 9.6853200474611 5.61803403267615  9.68460001892246 5.61803602179169  9.68388 5.61804  Z M 2.7921 5.68614  C 2.72268 5.63514  2.64174 5.60676  2.55504 5.60676  C 2.33532 5.60676  2.15604 5.7768  2.15604 5.99226  C 2.15604 6.20766  2.33532 6.38346  2.55504 6.38346  C 2.65332 6.38346  2.74584 6.34944  2.8152 6.2871  L 3.11004 5.99226  L 2.85564 5.74848  C 2.83738069963679 5.72490106491992  2.81600560811762 5.70390947362631  2.7921 5.68608  Z " fill-rule="nonzero" fill="#f59a23" stroke="none" transform="matrix(1 0 0 1 36 199 )" />
  </g>
</svg>