<?xml version="1.0" encoding="utf-8"?>
<svg version="1.1" xmlns:xlink="http://www.w3.org/1999/xlink" width="3px" height="15px" xmlns="http://www.w3.org/2000/svg">
  <g transform="matrix(1 0 0 1 -369 -245 )">
    <path d="M 2.433333328125 12.3888888802083  C 2.16666665625 12.092592578125  1.899999984375 11.9444444270833  1.5 11.944444453125  C 1.0999999921875 11.944444453125  0.833333343750001 12.0925926041667  0.566666671875 12.3888888802083  C 0.3 12.6851851822917  0.1666666640625 12.981481484375  0.1666666640625 13.4259259375  C 0.1666666640625 13.870370390625  0.3 14.1666666666667  0.566666671875 14.46296296875  C 0.833333343749999 14.7592592708333  1.100000015625 14.907407421875  1.5 14.9074073958333  C 1.9000000078125 14.9074073958333  2.16666665625 14.7592592447917  2.433333328125 14.46296296875  C 2.7 14.1666666666667  2.8333333359375 13.8703703645833  2.8333333359375 13.4259259375  C 2.8333333359375 12.981481484375  2.7 12.6851852083333  2.433333328125 12.3888888802083  Z M 2.7 0.0925926041666666  L 0.3 0.0925926041666658  L 0.7000000078125 10.7592592708333  L 2.16666665625 10.7592592708333  L 2.7 0.0925926041666666  Z " fill-rule="nonzero" fill="#d9001b" stroke="none" transform="matrix(1 0 0 1 369 245 )" />
  </g>
</svg>