<?xml version="1.0" encoding="utf-8"?>
<svg version="1.1" xmlns:xlink="http://www.w3.org/1999/xlink" width="23px" height="23px" xmlns="http://www.w3.org/2000/svg">
  <g transform="matrix(1 0 0 1 -359 -241 )">
    <path d="M 22.9775828432018 11.5  C 22.9775828432018 5.1873294375  17.8126705625 0.0224171567982443  11.5 0.0224171567982456  C 5.1873294375 0.0224171567982456  0.0224171567982456 5.1873294375  0.0224171567982456 11.5  C 0.0224171567982456 17.8126705625  5.1873294375 22.9775828432018  11.5 22.9775828432018  C 17.8126705625 22.9775828432018  22.9775828432018 17.8126705625  22.9775828432018 11.5  Z M 21.5428849846491 11.5  C 21.5428849846491 17.095321620614  17.095321620614 21.5428849846491  11.5 21.5428849846491  C 5.90467835416667 21.5428849846491  1.45711501535088 17.095321620614  1.45711501535088 11.5  C 1.45711501535088 5.90467837938597  5.90467837938597 1.45711501535088  11.5 1.45711501535088  C 17.095321620614 1.45711501535088  21.5428849846491 5.90467837938597  21.5428849846491 11.5  Z " fill-rule="nonzero" fill="#d9001b" stroke="none" transform="matrix(1 0 0 1 359 241 )" />
  </g>
</svg>