<?xml version="1.0" encoding="utf-8"?>
<svg version="1.1" xmlns:xlink="http://www.w3.org/1999/xlink" width="70px" height="23px" xmlns="http://www.w3.org/2000/svg">
  <g transform="matrix(1 0 0 1 -2 -11 )">
    <path d="M 3 22.5  A 10.5 10.5 0 0 1 13.5 12 L 60.5 12  A 10.5 10.5 0 0 1 71 22.5 A 10.5 10.5 0 0 1 60.5 33 L 13.5 33  A 10.5 10.5 0 0 1 3 22.5 Z " fill-rule="nonzero" fill="#f2f2f2" stroke="none" fill-opacity="0.498039215686275" />
    <path d="M 2.5 22.5  A 11 11 0 0 1 13.5 11.5 L 60.5 11.5  A 11 11 0 0 1 71.5 22.5 A 11 11 0 0 1 60.5 33.5 L 13.5 33.5  A 11 11 0 0 1 2.5 22.5 Z " stroke-width="1" stroke="#f2f2f2" fill="none" stroke-opacity="0.749019607843137" />
  </g>
</svg>