<?xml version="1.0" encoding="utf-8"?>
<svg version="1.1" xmlns:xlink="http://www.w3.org/1999/xlink" width="102px" height="10px" preserveAspectRatio="xMinYMid meet" viewBox="1718 316  102 8" xmlns="http://www.w3.org/2000/svg">
  <defs>
    <mask fill="white" id="clip2632">
      <path d="M 916 408  L 962 408  L 962 433  L 916 433  Z M 56 311  L 1829 311  L 1829 433  L 56 433  Z " fill-rule="evenodd" />
    </mask>
  </defs>
  <path d="M 59.5 319  L 59.5 415  A 5 5 0 0 0 64 420.5 L 735 420.5  A 3 3 0 0 1 738 417.5 A 3 3 0 0 1 741 420.5 L 1471.46808510638 420.5  A 3 3 0 0 1 1474.46808510638 417.5 A 3 3 0 0 1 1477.46808510638 420.5 L 1718 420.5  A 5 5 0 0 0 1723.5 415.5 L 1723.5 325  A 5 5 0 0 1 1728.5 320.5 L 1815 320.5  " stroke-width="1" stroke-dasharray="9,4" stroke="#02a7f0" fill="none" mask="url(#clip2632)" />
  <path d="M 1814 326.8  L 1820 320.5  L 1814 314.2  L 1814 326.8  Z " fill-rule="nonzero" fill="#02a7f0" stroke="none" mask="url(#clip2632)" />
</svg>