<?xml version="1.0" encoding="utf-8"?>
<svg version="1.1" xmlns:xlink="http://www.w3.org/1999/xlink" width="19px" height="18px" preserveAspectRatio="xMinYMid meet" viewBox="2204 1032  19 16" xmlns="http://www.w3.org/2000/svg">
  <defs>
    <mask fill="white" id="clip2659">
      <path d="M 2138 681  L 2236 681  L 2236 706  L 2138 706  Z M 2008 493  L 2236 493  L 2236 1049  L 2008 1049  Z " fill-rule="evenodd" />
    </mask>
  </defs>
  <path d="M 2008 496.5  L 2161 496.5  A 3 3 0 0 1 2164 493.5 A 3 3 0 0 1 2167 496.5 L 2182 496.5  A 5 5 0 0 1 2187.5 501.5 L 2187.5 1035  A 5 5 0 0 0 2192.5 1040.5 L 2212 1040.5  " stroke-width="1" stroke-dasharray="9,4" stroke="#02a7f0" fill="none" mask="url(#clip2659)" />
  <path d="M 2211 1046.8  L 2217 1040.5  L 2211 1034.2  L 2211 1046.8  Z " fill-rule="nonzero" fill="#02a7f0" stroke="none" mask="url(#clip2659)" />
</svg>