<?xml version="1.0" encoding="utf-8"?>
<svg version="1.1" xmlns:xlink="http://www.w3.org/1999/xlink" width="10px" height="263px" preserveAspectRatio="xMidYMin meet" viewBox="261 202  8 263" xmlns="http://www.w3.org/2000/svg">
  <defs>
    <mask fill="white" id="clip2664">
      <path d="M 740 447  L 786 447  L 786 472  L 740 472  Z M 262 202  L 1267 202  L 1267 729  L 262 729  Z " fill-rule="evenodd" />
    </mask>
  </defs>
  <path d="M 265.5 202  L 265.5 417  A 3 3 0 0 1 268.5 420 A 3 3 0 0 1 265.5 423 L 265.5 455  A 5 5 0 0 0 270 460.5 L 735 460.5  A 3 3 0 0 1 738 457.5 A 3 3 0 0 1 741 460.5 L 1253 460.5  A 5 5 0 0 1 1258.5 465 L 1258.5 679.978723404255  A 3 3 0 0 1 1261.5 682.978723404255 A 3 3 0 0 1 1258.5 685.978723404255 L 1258.5 715  " stroke-width="1" stroke-dasharray="9,4" stroke="#02a7f0" fill="none" mask="url(#clip2664)" />
  <path d="M 1252.2 714  L 1258.5 720  L 1264.8 714  L 1252.2 714  Z " fill-rule="nonzero" fill="#02a7f0" stroke="none" mask="url(#clip2664)" />
</svg>