<?xml version="1.0" encoding="utf-8"?>
<svg version="1.1" xmlns:xlink="http://www.w3.org/1999/xlink" width="32px" height="32px" preserveAspectRatio="xMinYMid meet" viewBox="2341 1482  32 30" xmlns="http://www.w3.org/2000/svg">
  <defs>
    <mask fill="white" id="clip2671">
      <path d="M 1885 585  L 1931 585  L 1931 610  L 1885 610  Z M 557 585  L 2373 585  L 2373 1514  L 557 1514  Z " fill-rule="evenodd" />
    </mask>
  </defs>
  <path d="M 560 598.5  L 1255 598.5  A 3 3 0 0 1 1258 595.5 A 3 3 0 0 1 1261 598.5 L 1471.46808510638 598.5  A 3 3 0 0 1 1474.46808510638 595.5 A 3 3 0 0 1 1477.46808510638 598.5 L 1977 598.5  A 3 3 0 0 1 1980 595.5 A 3 3 0 0 1 1983 598.5 L 2184 598.5  A 3 3 0 0 1 2187 595.5 A 3 3 0 0 1 2190 598.5 L 2352 598.5  A 5 5 0 0 1 2357.5 603 L 2357.5 1267  A 3 3 0 0 1 2360.5 1270 A 3 3 0 0 1 2357.5 1273 L 2357.5 1497  " stroke-width="1" stroke-dasharray="9,4" stroke="#02a7f0" fill="none" mask="url(#clip2671)" />
  <path d="M 2351.5 1491.3  L 2357.5 1498  L 2363.5 1491.3  L 2357.5 1493.6  L 2351.5 1491.3  Z " fill-rule="nonzero" fill="#02a7f0" stroke="none" mask="url(#clip2671)" />
</svg>