<?xml version="1.0" encoding="utf-8"?>
<svg version="1.1" xmlns:xlink="http://www.w3.org/1999/xlink" width="6px" height="6px" xmlns="http://www.w3.org/2000/svg">
  <g transform="matrix(1 0 0 1 -2857 -1744 )">
    <path d="M 5.89090909090909 2.98604651162791  C 5.89090909090909 1.36744186046512  4.58181818181818 0.0279069767441864  3 0.0279069767441864  C 1.36363636363636 0.0279069767441864  0.109090909090909 1.36744186046512  0.109090909090909 2.98604651162791  C 0.109090909090909 4.66046511627907  1.41818181818182 5.94418604651163  3 5.94418604651163  C 4.63636363636364 5.94418604651163  5.89090909090909 4.6046511627907  5.89090909090909 2.98604651162791  Z M 5.07272727272727 3.04186046511628  C 5.07272727272727 4.15813953488372  4.14545454545455 5.16279069767442  3 5.16279069767442  C 1.85454545454545 5.16279069767442  0.927272727272727 4.21395348837209  0.927272727272727 3.04186046511628  C 0.927272727272727 1.86976744186046  1.85454545454545 0.920930232558139  3 0.920930232558139  C 4.14545454545455 0.920930232558139  5.07272727272727 1.86976744186046  5.07272727272727 3.04186046511628  Z " fill-rule="nonzero" fill="#000000" stroke="none" transform="matrix(1 0 0 1 2857 1744 )" />
  </g>
</svg>