<?xml version="1.0" encoding="utf-8"?>
<svg version="1.1" xmlns:xlink="http://www.w3.org/1999/xlink" width="48px" height="48px" xmlns="http://www.w3.org/2000/svg">
  <g transform="matrix(1 0 0 1 -571 -568 )">
    <path d="M 595 568  C 608.44 568  619 578.56  619 592  C 619 605.44  608.44 616  595 616  C 581.56 616  571 605.44  571 592  C 571 578.56  581.56 568  595 568  Z " fill-rule="nonzero" fill="#ffffff" stroke="none" />
    <path d="M 595 568.5  C 608.16 568.5  618.5 578.84  618.5 592  C 618.5 605.16  608.16 615.5  595 615.5  C 581.84 615.5  571.5 605.16  571.5 592  C 571.5 578.84  581.84 568.5  595 568.5  Z " stroke-width="1" stroke="#797979" fill="none" />
  </g>
</svg>