<?xml version="1.0" encoding="utf-8"?>
<svg version="1.1" xmlns:xlink="http://www.w3.org/1999/xlink" width="30px" height="30px" xmlns="http://www.w3.org/2000/svg">
  <g transform="matrix(1 0 0 1 -30 -1161 )">
    <path d="M 30 1.5  L 30 28.5  C 30 29.328369140625  29.328369140625 30  28.5 30  L 1.5 30  C 0.67154296875 30  0 29.328369140625  0 28.5  L 0 1.5  C 0 0.67154296875  0.67154296875 0  1.5 0  L 28.5 0  C 29.328369140625 0  30 0.67154296875  30 1.5  Z M 28 27  L 28 3  C 28.5 2.171572265625  27.828369140625 1.5  27 2  L 3 2  C 2.171630859375 1.5  1.5 2.171572265625  2 3  L 2 27  C 1.5 27.828369140625  2.171630859375 28.5  3 28  L 27 28  C 27.828369140625 28.5  28.5 27.828369140625  28 27  Z M 21.75 14.25  C 22.1642578125 14.25  22.5 14.5857421875  22.5 15  C 22.5 15.4142578125  22.1642578125 15.75  21.75 15.75  L 15.75 15.75  L 15.75 21.878203125  C 15.75 22.2215625  15.4142578125 22.500029296875  15 22.500029296875  C 14.5857421875 22.500029296875  14.25 22.2215625  14.25 21.878203125  L 14.25 15.75  L 8.25 15.75  C 7.8357421875 15.75  7.5 15.4142578125  7.5 15  C 7.5 14.5857421875  7.8357421875 14.25  8.25 14.25  L 14.25 14.25  L 14.25 8.121826171875  C 14.25 7.7783203125  14.5857421875 7.5  15 7.5  C 15.4142578125 7.5  15.75 7.7783203125  15.75 8.121826171875  L 15.75 14.25  L 21.75 14.25  Z " fill-rule="nonzero" fill="#aaaaaa" stroke="none" transform="matrix(1 0 0 1 30 1161 )" />
  </g>
</svg>