<?xml version="1.0" encoding="utf-8"?>
<svg version="1.1" xmlns:xlink="http://www.w3.org/1999/xlink" width="2003px" height="10px" preserveAspectRatio="xMinYMid meet" viewBox="297 1336  2003 8" xmlns="http://www.w3.org/2000/svg">
  <defs>
    <mask fill="white" id="clip2783">
      <path d="M 1505 1328  L 1603 1328  L 1603 1353  L 1505 1353  Z M 299 820  L 2304 820  L 2304 1353  L 299 1353  Z " fill-rule="evenodd" />
    </mask>
  </defs>
  <path d="M 302 1341.5  A 1 1 0 0 1 303 1340.5 L 1417 1340.5  A 3 3 0 0 1 1420 1337.5 A 3 3 0 0 1 1423 1340.5 L 2290 1340.5  A 5 5 0 0 0 2295.5 1335.5 L 2295.5 834  " stroke-width="1" stroke-dasharray="9,4" stroke="#02a7f0" fill="none" mask="url(#clip2783)" />
  <path d="M 2301.8 835  L 2295.5 829  L 2289.2 835  L 2301.8 835  Z " fill-rule="nonzero" fill="#02a7f0" stroke="none" mask="url(#clip2783)" />
</svg>