<?xml version="1.0" encoding="utf-8"?>
<svg version="1.1" xmlns:xlink="http://www.w3.org/1999/xlink" width="10px" height="465.473684210526px" preserveAspectRatio="xMidYMin meet" viewBox="2696 829  8 465.473684210526" xmlns="http://www.w3.org/2000/svg">
  <defs>
    <mask fill="white" id="clip2788">
      <path d="M 1681 1277  L 1779 1277  L 1779 1302  L 1681 1302  Z M 299 820  L 2709 820  L 2709 1302  L 299 1302  Z " fill-rule="evenodd" />
    </mask>
  </defs>
  <path d="M 302 1291.5  A 1.52631578947353 1.52631578947353 0 0 1 303.526315789474 1289.97368421053 L 1417 1289.97368421053  A 3 3 0 0 1 1420 1286.97368421053 A 3 3 0 0 1 1423 1289.97368421053 L 2292 1289.97368421053  A 3 3 0 0 1 2295 1286.97368421053 A 3 3 0 0 1 2298 1289.97368421053 L 2695 1289.97368421053  A 5 5 0 0 0 2700.5 1284.97368421053 L 2700.5 834  " stroke-width="1" stroke-dasharray="9,4" stroke="#02a7f0" fill="none" mask="url(#clip2788)" />
  <path d="M 2706.8 835  L 2700.5 829  L 2694.2 835  L 2706.8 835  Z " fill-rule="nonzero" fill="#02a7f0" stroke="none" mask="url(#clip2788)" />
</svg>