<?xml version="1.0" encoding="utf-8"?>
<svg version="1.1" xmlns:xlink="http://www.w3.org/1999/xlink" width="50px" height="50px" xmlns="http://www.w3.org/2000/svg">
  <defs>
    <linearGradient gradientUnits="userSpaceOnUse" x1="3780" y1="15" x2="3780" y2="65" id="LinearGradient1">
      <stop id="Stop2" stop-color="#02a7f0" offset="0" />
      <stop id="Stop3" stop-color="#044f9f" offset="1" />
    </linearGradient>
  </defs>
  <g transform="matrix(1 0 0 1 -3755 -15 )">
    <path d="M 3780 16  C 3793.44 16  3804 26.56  3804 40  C 3804 53.44  3793.44 64  3780 64  C 3766.56 64  3756 53.44  3756 40  C 3756 26.56  3766.56 16  3780 16  Z " fill-rule="nonzero" fill="url(#LinearGradient1)" stroke="none" />
    <path d="M 3780 16  C 3793.44 16  3804 26.56  3804 40  C 3804 53.44  3793.44 64  3780 64  C 3766.56 64  3756 53.44  3756 40  C 3756 26.56  3766.56 16  3780 16  Z " stroke-width="2" stroke="#ffffff" fill="none" />
  </g>
</svg>