<?xml version="1.0" encoding="utf-8"?>
<svg version="1.1" xmlns:xlink="http://www.w3.org/1999/xlink" width="53px" height="54px" xmlns="http://www.w3.org/2000/svg">
  <defs>
    <linearGradient gradientUnits="userSpaceOnUse" x1="24.9097472924188" y1="120.758122743682" x2="42.7797833935018" y2="168" id="LinearGradient2531">
      <stop id="Stop2532" stop-color="#69e147" stop-opacity="0.549019607843137" offset="0" />
      <stop id="Stop2533" stop-color="#69e147" stop-opacity="0.87843137254902" offset="1" />
    </linearGradient>
  </defs>
  <g transform="matrix(1 0 0 1 -16 -114 )">
    <path d="M 42.5 114  C 57.34 114  69 125.88  69 141  C 69 156.12  57.34 168  42.5 168  C 27.66 168  16 156.12  16 141  C 16 125.88  27.66 114  42.5 114  Z " fill-rule="nonzero" fill="#ffffff" stroke="none" />
    <path d="M 42.5 114.5  C 57.06 114.5  68.5 126.16  68.5 141  C 68.5 155.84  57.06 167.5  42.5 167.5  C 27.94 167.5  16.5 155.84  16.5 141  C 16.5 126.16  27.94 114.5  42.5 114.5  Z " stroke-width="1" stroke="url(#LinearGradient2531)" fill="none" />
  </g>
</svg>