<?xml version="1.0" encoding="utf-8"?>
<svg version="1.1" xmlns:xlink="http://www.w3.org/1999/xlink" width="53px" height="54px" xmlns="http://www.w3.org/2000/svg">
  <defs>
    <linearGradient gradientUnits="userSpaceOnUse" x1="24.9097472924188" y1="217.758122743682" x2="42.7797833935018" y2="265" id="LinearGradient2534">
      <stop id="Stop2535" stop-color="#f59a23" stop-opacity="0.549019607843137" offset="0" />
      <stop id="Stop2536" stop-color="#f59a23" stop-opacity="0.87843137254902" offset="1" />
    </linearGradient>
  </defs>
  <g transform="matrix(1 0 0 1 -16 -211 )">
    <path d="M 42.5 211  C 57.34 211  69 222.88  69 238  C 69 253.12  57.34 265  42.5 265  C 27.66 265  16 253.12  16 238  C 16 222.88  27.66 211  42.5 211  Z " fill-rule="nonzero" fill="#ffffff" stroke="none" />
    <path d="M 42.5 211.5  C 57.06 211.5  68.5 223.16  68.5 238  C 68.5 252.84  57.06 264.5  42.5 264.5  C 27.94 264.5  16.5 252.84  16.5 238  C 16.5 223.16  27.94 211.5  42.5 211.5  Z " stroke-width="1" stroke="url(#LinearGradient2534)" fill="none" />
  </g>
</svg>