<?xml version="1.0" encoding="utf-8"?>
<svg version="1.1" xmlns:xlink="http://www.w3.org/1999/xlink" width="170px" height="170px" xmlns="http://www.w3.org/2000/svg">
  <g transform="matrix(1 0 0 1 -100 -241 )">
    <path d="M 185 245  C 230.36 245  266 280.64  266 326  C 266 371.36  230.36 407  185 407  C 139.64 407  104 371.36  104 326  C 104 280.64  139.64 245  185 245  Z " fill-rule="nonzero" fill="#02a7f0" stroke="none" />
    <path d="M 185 243.5  C 231.2 243.5  267.5 279.8  267.5 326  C 267.5 372.2  231.2 408.5  185 408.5  C 138.8 408.5  102.5 372.2  102.5 326  C 102.5 279.8  138.8 243.5  185 243.5  Z " stroke-width="5" stroke="#000000" fill="none" />
  </g>
</svg>