<?xml version="1.0" encoding="utf-8"?>
<svg version="1.1" xmlns:xlink="http://www.w3.org/1999/xlink" width="170px" height="170px" xmlns="http://www.w3.org/2000/svg">
  <g transform="matrix(1 0 0 1 -629 -243 )">
    <path d="M 714 247  C 759.36 247  795 282.64  795 328  C 795 373.36  759.36 409  714 409  C 668.64 409  633 373.36  633 328  C 633 282.64  668.64 247  714 247  Z " fill-rule="nonzero" fill="#d9001b" stroke="none" fill-opacity="0" />
    <path d="M 714 245.5  C 760.2 245.5  796.5 281.8  796.5 328  C 796.5 374.2  760.2 410.5  714 410.5  C 667.8 410.5  631.5 374.2  631.5 328  C 631.5 281.8  667.8 245.5  714 245.5  Z " stroke-width="5" stroke="#000000" fill="none" />
  </g>
</svg>