<?xml version="1.0" encoding="utf-8"?>
<svg version="1.1" xmlns:xlink="http://www.w3.org/1999/xlink" width="170px" height="170px" xmlns="http://www.w3.org/2000/svg">
  <g transform="matrix(1 0 0 1 -364 -243 )">
    <path d="M 449 247  C 494.36 247  530 282.64  530 328  C 530 373.36  494.36 409  449 409  C 403.64 409  368 373.36  368 328  C 368 282.64  403.64 247  449 247  Z " fill-rule="nonzero" fill="#f59a23" stroke="none" />
    <path d="M 449 245.5  C 495.2 245.5  531.5 281.8  531.5 328  C 531.5 374.2  495.2 410.5  449 410.5  C 402.8 410.5  366.5 374.2  366.5 328  C 366.5 281.8  402.8 245.5  449 245.5  Z " stroke-width="5" stroke="#000000" fill="none" />
  </g>
</svg>