<?xml version="1.0" encoding="utf-8"?>
<svg version="1.1" xmlns:xlink="http://www.w3.org/1999/xlink" width="56px" height="56px" xmlns="http://www.w3.org/2000/svg">
  <g transform="matrix(1 0 0 1 -1617 -1288 )">
    <path d="M 1645 1288  C 1660.68 1288  1673 1300.32  1673 1316  C 1673 1331.68  1660.68 1344  1645 1344  C 1629.32 1344  1617 1331.68  1617 1316  C 1617 1300.32  1629.32 1288  1645 1288  Z " fill-rule="nonzero" fill="#81d3f8" stroke="none" fill-opacity="0" />
    <path d="M 1645 1288.5  C 1660.4 1288.5  1672.5 1300.6  1672.5 1316  C 1672.5 1331.4  1660.4 1343.5  1645 1343.5  C 1629.6 1343.5  1617.5 1331.4  1617.5 1316  C 1617.5 1300.6  1629.6 1288.5  1645 1288.5  Z " stroke-width="1" stroke="#ffffff" fill="none" />
  </g>
</svg>