<?xml version="1.0" encoding="utf-8"?>
<svg version="1.1" xmlns:xlink="http://www.w3.org/1999/xlink" width="15px" height="15px" xmlns="http://www.w3.org/2000/svg">
  <g transform="matrix(1 0 0 1 -634 -247 )">
    <path d="M 641.5 247  C 645.7 247  649 250.3  649 254.5  C 649 258.7  645.7 262  641.5 262  C 637.3 262  634 258.7  634 254.5  C 634 250.3  637.3 247  641.5 247  Z " fill-rule="nonzero" fill="#ffffff" stroke="none" />
    <path d="M 641.5 247.5  C 645.42 247.5  648.5 250.58  648.5 254.5  C 648.5 258.42  645.42 261.5  641.5 261.5  C 637.58 261.5  634.5 258.42  634.5 254.5  C 634.5 250.58  637.58 247.5  641.5 247.5  Z " stroke-width="1" stroke="#02a7f0" fill="none" />
  </g>
</svg>