<?xml version="1.0" encoding="utf-8"?>
<svg version="1.1" xmlns:xlink="http://www.w3.org/1999/xlink" width="30px" height="30px" xmlns="http://www.w3.org/2000/svg">
  <g transform="matrix(1 0 0 1 -1201 -541 )">
    <path d="M 1216 541  C 1224.4 541  1231 547.6  1231 556  C 1231 564.4  1224.4 571  1216 571  C 1207.6 571  1201 564.4  1201 556  C 1201 547.6  1207.6 541  1216 541  Z " fill-rule="nonzero" fill="#81d3f8" stroke="none" fill-opacity="0.109803921568627" />
    <path d="M 1216 541.5  C 1224.12 541.5  1230.5 547.88  1230.5 556  C 1230.5 564.12  1224.12 570.5  1216 570.5  C 1207.88 570.5  1201.5 564.12  1201.5 556  C 1201.5 547.88  1207.88 541.5  1216 541.5  Z " stroke-width="1" stroke="#02a7f0" fill="none" />
  </g>
</svg>