<?xml version="1.0" encoding="utf-8"?>
<svg version="1.1" xmlns:xlink="http://www.w3.org/1999/xlink" width="163px" height="10px" preserveAspectRatio="xMinYMid meet" viewBox="457 1783  163 8" xmlns="http://www.w3.org/2000/svg">
  <path d="M 820 542.5  L 571 542.5  A 3 3 0 0 0 568 539.5 A 3 3 0 0 0 565 542.5 L 467 542.5  A 5 5 0 0 0 462.5 547 L 462.5 1057  A 3 3 0 0 1 465.5 1060 A 3 3 0 0 1 462.5 1063 L 462.5 1782  A 5 5 0 0 0 467.5 1787.5 L 615 1787.5  " stroke-width="1" stroke-dasharray="9,4" stroke="#02a7f0" fill="none" />
  <path d="M 614 1793.8  L 620 1787.5  L 614 1781.2  L 614 1793.8  Z " fill-rule="nonzero" fill="#02a7f0" stroke="none" />
</svg>