<?xml version="1.0" encoding="utf-8"?>
<svg version="1.1" xmlns:xlink="http://www.w3.org/1999/xlink" width="73px" height="45px" xmlns="http://www.w3.org/2000/svg">
  <defs>
    <mask fill="white" id="clip905">
      <path d="M 67.5 570.5  C 64.725 570.5  62.5 568.275  62.5 565.5  L 62.5 541.5  C 62.5 538.725  64.725 536.5  67.5 536.5  L 119.5 536.5  C 122.275 536.5  124.5 538.725  124.5 541.5  L 124.5 565.5  C 124.5 568.275  122.275 570.5  119.5 570.5  L 67.5 570.5  " fill-rule="evenodd" />
    </mask>
    <filter x="57px" y="531px" width="73px" height="45px" filterUnits="userSpaceOnUse" id="filter906">
      <feOffset dx="0" dy="0" in="SourceAlpha" result="shadowOffsetInner" />
      <feGaussianBlur stdDeviation="2.5" in="shadowOffsetInner" result="shadowGaussian" />
      <feComposite in2="shadowGaussian" operator="atop" in="SourceAlpha" result="shadowComposite" />
      <feColorMatrix type="matrix" values="0 0 0 0 0.333333333333333  0 0 0 0 0.333333333333333  0 0 0 0 0.333333333333333  0 0 0 0.349019607843137 0  " in="shadowComposite" />
    </filter>
    <g id="widget907">
      <path d="M 62 536  L 125 536  L 125 571  L 62 571  L 62 536  " fill-rule="nonzero" fill="#cccccc" stroke="none" mask="url(#clip905)" />
      <path d="M 64 538  L 123 538  L 123 569  L 64 569  L 64 538  " fill-rule="nonzero" fill="#ffffff" stroke="none" mask="url(#clip905)" />
      <path d="M 97.385 546.5  C 95.915 546.5  94.76 545.345  94.76 543.875  C 94.76 542.405  95.915 541.25  97.385 541.25  C 98.855 541.25  100.01 542.405  100.01 543.875  C 100.01 545.345  98.855 546.5  97.385 546.5  " fill-rule="nonzero" fill="#cccccc" stroke="none" mask="url(#clip905)" />
      <path d="M 65 568  L 65 552.05  L 79.25 544.8  L 99.2 558.333333333333  L 110.6 549.15  L 122 558.333333333333  L 122 568  L 65 568  " fill-rule="nonzero" fill="#169bd5" stroke="none" mask="url(#clip905)" />
      <path d="M 67 570.5  C 64.5025 570.5  62.5 568.4975  62.5 566  L 62.5 541  C 62.5 538.5025  64.5025 536.5  67 536.5  L 120 536.5  C 122.4975 536.5  124.5 538.5025  124.5 541  L 124.5 566  C 124.5 568.4975  122.4975 570.5  120 570.5  L 67 570.5  Z " stroke-width="1" stroke="#aaaaaa" fill="none" mask="url(#clip905)" />
    </g>
  </defs>
  <g transform="matrix(1 0 0 1 -57 -531 )">
    <use xlink:href="#widget907" filter="url(#filter906)" />
    <use xlink:href="#widget907" />
  </g>
</svg>