<?xml version="1.0" encoding="utf-8"?>
<svg version="1.1" xmlns:xlink="http://www.w3.org/1999/xlink" width="303px" height="358px" xmlns="http://www.w3.org/2000/svg">
  <defs>
    <filter x="8px" y="154px" width="303px" height="358px" filterUnits="userSpaceOnUse" id="filter717">
      <feOffset dx="0" dy="1" in="SourceAlpha" result="shadowOffsetInner" />
      <feGaussianBlur stdDeviation="5.5" in="shadowOffsetInner" result="shadowGaussian" />
      <feComposite in2="shadowGaussian" operator="atop" in="SourceAlpha" result="shadowComposite" />
      <feColorMatrix type="matrix" values="0 0 0 0 0.843137254901961  0 0 0 0 0.843137254901961  0 0 0 0 0.843137254901961  0 0 0 0.349019607843137 0  " in="shadowComposite" />
    </filter>
    <g id="widget718">
      <path d="M 20 175  A 10 10 0 0 1 30 165 L 289 165  A 10 10 0 0 1 299 175 L 299 489  A 10 10 0 0 1 289 499 L 30 499  A 10 10 0 0 1 20 489 L 20 175  Z " fill-rule="nonzero" fill="#ffffff" stroke="none" />
      <path d="M 19.5 175  A 10.5 10.5 0 0 1 30 164.5 L 289 164.5  A 10.5 10.5 0 0 1 299.5 175 L 299.5 489  A 10.5 10.5 0 0 1 289 499.5 L 30 499.5  A 10.5 10.5 0 0 1 19.5 489 L 19.5 175  Z " stroke-width="1" stroke="#d7d7d7" fill="none" stroke-opacity="0.549019607843137" />
    </g>
  </defs>
  <g transform="matrix(1 0 0 1 -8 -154 )">
    <use xlink:href="#widget718" filter="url(#filter717)" />
    <use xlink:href="#widget718" />
  </g>
</svg>