<?xml version="1.0" encoding="utf-8"?>
<svg version="1.1" xmlns:xlink="http://www.w3.org/1999/xlink" width="58px" height="57px" xmlns="http://www.w3.org/2000/svg">
  <g transform="matrix(1 0 0 1 -759 -1780 )">
    <path d="M 57.586666625 28.626666625  C 57.5866665 44.3066665  44.786666625 57  29.213333375 57  C 13.64 57  0.840000000000003 44.306666625  0.840000000000003 28.626666625  C 0.840000000000003 12.946666625  13.533333375 0.253333249999997  29.213333375 0.253333374999997  C 44.893333375 0.253333499999997  57.58666675 12.94666675  57.586666625 28.626666625  Z M 55.026666625 28.626666625  C 55.0266665 14.33333325  43.4 2.92  29.213333375 2.92  C 15.026666625 2.92  3.4 14.44  3.4 28.626666625  C 3.4 42.81333325  14.92 54.44  29.213333375 54.44  C 43.50666675 54.44  55.02666675 42.92  55.026666625 28.626666625  Z " fill-rule="nonzero" fill="#ffffff" stroke="none" transform="matrix(1 0 0 1 759 1780 )" />
  </g>
</svg>