<?xml version="1.0" encoding="utf-8"?>
<svg version="1.1" xmlns:xlink="http://www.w3.org/1999/xlink" width="31px" height="39px" xmlns="http://www.w3.org/2000/svg">
  <g transform="matrix(1 0 0 1 -773 -1789 )">
    <path d="M 15.746666625 38.293333375  C 15.53333325 38.4  15.426666625 38.4  15.213333375 38.4  C 15 38.4  14.78666675 38.4  14.68 38.293333375  L 14.36 38.186666625  C 1.77333337500001 33.386666625  0.280000000000008 26.77333325  0.280000000000008 22.293333375  L 0.280000000000008 6.40000000000001  C 0.280000000000008 5.653333375  0.813333375000006 5.12  1.56000000000001 5.12  L 3.69333337500001 5.12  C 10.30666675 5.12  13.18666675 2.453333375  13.506666625 2.13333337500001  C 13.506666625 2.13333337500001  13.61333325 2.02666675  13.613333375 1.92  L 14.466666625 1.066666625  C 14.68 0.853333249999991  15 0.640000000000001  15.32 0.640000000000001  C 15.64 0.640000000000001  15.96 0.746666625000003  16.173333375 1.066666625  L 17.026666625 1.92  C 17.026666625 1.92  20.226666625 5.12  27.16 5.12  L 29.08 5.12  C 29.826666625 5.12  30.36 5.653333375  30 6.40000000000001  L 30 22.08  C 30.36 26.56  28.866666625 33.173333375  16.28 37.973333375  L 15.746666625 38.293333375  Z M 3 22.293333375  L 2.84 22.293333375  C 2.84 26.02666675  4.12 31.573333375  15.106666625 35.733333375  L 15.213333375 35.733333375  C 26.52 31.36  27.8 25.813333375  27.8 22.08  L 27.8 7.68000000000001  L 27.16 7.68000000000001  C 19.8 7.68000000000001  16.066666625 4.58666662500001  15.32 3.84  L 15.106666625 4.05333337500001  C 14.466666625 4.69333337500001  10.946666625 7.68000000000001  3.69333337499999 7.68000000000001  L 3 7.68000000000001  L 3 22.293333375  Z " fill-rule="nonzero" fill="#ffffff" stroke="none" transform="matrix(1 0 0 1 773 1789 )" />
  </g>
</svg>