<?xml version="1.0" encoding="utf-8"?>
<svg version="1.1" xmlns:xlink="http://www.w3.org/1999/xlink" width="83px" height="116px" xmlns="http://www.w3.org/2000/svg">
  <g transform="matrix(1 0 0 1 -747 -1734 )">
    <path d="M 35.56 115.16  C 35.56 115.373333375  35.346666625 115.48  35.24 115.48  C 34.92 115.48  34.6 115.373333375  34.386666625 115.16  L 27.773333375 108.866666625  L 18.706666625 108.973333375  C 18.17333325 108.973333375  17.64 108.653333375  17.533333375 108.12  L 14.333333375 99.693333375  L 6.22666662500001 95.746666625  C 5.80000000000001 95.53333325  5.48000000000001 95  5.48000000000001 94.466666625  L 6.12000000000001 85.4  L 0.466666625000009 78.36  C 0.146666625000009 77.933333375  0.0400000000000098 77.4  0.36000000000001 76.866666625  L 4.94666662500001 69.08  L 2.81333337500001 60.333333375  C 2.70666675000001 59.8  2.92000000000001 59.26666675  3.34666662500001 58.946666625  L 10.706666625 53.933333375  L 12.733333375 45.08  C 12.84 44.546666625  13.26666675 44.12  13.8 44.12  L 20.626666625 43.16  L 2.066666625 2.733333375  C 1.85333325 2.30666675  1.96 1.88  2.173333375 1.56  C 2.38666675 1.24  2.813333375 0.92  3.24 1  L 31.08 1  C 31.613333375 0.92  32.04 1.24  32.253333375 1.666666625  L 41.106666625 20.44  L 50.066666625 1.666666625  C 50.28 1.24  50.706666625 0.92  51.24 1  L 79.08 1  C 79.506666625 0.92  79.933333375 1.133333375  80.146666625 1.56  C 80.359999875 1.986666625  80.466666625 2.413333375  80.253333375 2.733333375  L 63.08 40.386666625  L 63.72 40.386666625  C 64.253333375 40.386666625  64.786666625 40.706666625  64.893333375 41.24  L 68.093333375 49.666666625  L 76.2 53.613333375  C 76.626666625 53.82666675  76.946666625 54.36  76.946666625 54.893333375  L 76.306666625 63.96  L 81.96 71  C 82.28 71.426666625  82.386666625 71.96  82.066666625 72.493333375  L 77.48 80.28  L 79.506666625 89.026666625  C 79.61333325 89.56  79.4 90.09333325  78.973333375 90.413333375  L 71.613333375 95.426666625  L 69.586666625 104.28  C 69.48 104.813333375  69.05333325 105.24  68.52 105.24  L 59.453333375 106.413333375  L 53.906666625 113.56  C 53.69333325 113.88  53.266666625 114.093333375  52.84 114.093333375  C 52.733333375 114.093333375  52.626666625 114.093333375  52.413333375 113.986666625  L 43.666666625 111.213333375  L 35.56 115.16  Z M 19.56 106.306666625  L 28.2 106.306666625  C 28.52 106.306666625  28.84 106.41333325  29.053333375 106.626666625  L 35.346666625 112.6  L 43.133333375 108.76  C 43.34666675 108.653333375  43.453333375 108.653333375  43.666666625 108.653333375  C 43.77333325 108.653333375  43.88 108.653333375  44.093333375 108.76  L 52.52 111.426666625  L 57.853333375 104.493333375  C 58.06666675 104.173333375  58.38666675 104.06666675  58.706666625 103.96  L 67.346666625 102.786666625  L 69.266666625 94.253333375  C 69.37333325 93.933333375  69.48 93.613333375  69.8 93.506666625  L 76.84 88.706666625  L 74.92 80.28  C 74.813333375 79.96  74.92 79.64  75.026666625 79.32  L 79.4 71.853333375  L 74.066666625 65.133333375  C 73.85333325 64.92  73.746666625 64.6  73.746666625 64.28  L 74.386666625 55.533333375  L 66.6 51.693333375  C 66.28 51.58666675  66.066666625 51.26666675  65.96 51.053333375  L 62.866666625 42.946666625  L 54.226666625 43.053333375  C 53.906666625 43.053333375  53.586666625 42.94666675  53.373333375 42.733333375  L 47.08 36.76  L 39.293333375 40.6  C 39.08 40.706666625  38.973333375 40.706666625  38.76 40.706666625  C 38.653333375 40.706666625  38.546666625 40.706666625  38.333333375 40.6  L 29.8 37.933333375  L 24.466666625 44.866666625  C 24.25333325 45.186666625  23.93333325 45.29333325  23.613333375 45.4  L 14.973333375 46.466666625  L 13.053333375 55  C 12.94666675 55.32  12.84 55.64  12.52 55.746666625  L 5.48 60.546666625  L 7.4 68.973333375  C 7.506666625 69.293333375  7.4 69.613333375  7.293333375 69.933333375  L 2.92 77.4  L 8.36 84.12  C 8.573333375 84.333333375  8.68 84.653333375  8.68 84.973333375  L 8.04 93.72  L 15.826666625 97.56  C 16.146666625 97.666666625  16.36 97.986666625  16.466666625 98.2  L 19.56 106.306666625  Z M 5.266666625 4  L 23.08 42.52  L 28.306666625 35.693333375  C 28.52 35.373333375  28.946666625 35.16  29.373333375 35.16  C 29.48 35.16  29.58666675 35.16  29.8 35.266666625  L 37.053333375 37.613333375  L 20.946666625 4  L 5.266666625 4  Z M 53.8 39.746666625  L 54.653333375 40.493333375  L 60.2 40.386666625  L 77.053333375 3.48  L 70.44 3.48  L 53.8 39.746666625  Z M 42.6 23.426666625  L 47.613333375 33.88  C 47.82666675 33.986666625  47.933333375 33.986666625  48.04 34.2  L 51.88 37.933333375  L 67.666666625 4  L 52.093333375 4  L 42.6 23.426666625  Z M 23.72 3.48  L 39.826666625 37.293333375  L 45.16 34.626666625  L 30.333333375 3.48  L 23.72 3.48  Z " fill-rule="nonzero" fill="#ffffff" stroke="none" transform="matrix(1 0 0 1 747 1734 )" />
  </g>
</svg>