<?xml version="1.0" encoding="utf-8"?>
<svg version="1.1" xmlns:xlink="http://www.w3.org/1999/xlink" width="16px" height="11px" xmlns="http://www.w3.org/2000/svg">
  <g transform="matrix(1 0 0 1 -780 -1804 )">
    <path d="M 7.68000000000001 9.746666625  C 7.68000000000001 10.066666625  7.36000000000001 10.17333325  7.04 10.173333375  C 6.72 10.173333375  6.4 10.06666675  6.186666625 9.85333337500001  L 0.960000000000001 4.84  C 0.746666625000003 4.626666625  0.533333374999998 4.30666662500001  0.533333374999998 3.986666625  C 0.533333374999998 3.666666625  0.640000000000001 3.346666625  0.853333374999998 3.026666625  C 1.06666675 2.81333325  1.38666675 2.60000000000001  1.813333375 2.60000000000001  C 2.133333375 2.60000000000001  2.453333375 2.70666662500001  2.666666625 2.92  L 6.933333375 7.08  L 13.44 0.466666625000002  C 13.653333375 0.253333249999997  13.973333375 0.0400000000000063  14.293333375 0.0400000000000063  C 14.613333375 0.0400000000000063  14.933333375 0.146666625000009  15.146666625 0.466666625000002  C 15.68 1  15.68 1.746666625  15.146666625 2.28  L 7.68000000000001 9.746666625  Z " fill-rule="nonzero" fill="#ffffff" stroke="none" transform="matrix(1 0 0 1 780 1804 )" />
  </g>
</svg>