<?xml version="1.0" encoding="utf-8"?>
<svg version="1.1" xmlns:xlink="http://www.w3.org/1999/xlink" width="113px" height="112px" xmlns="http://www.w3.org/2000/svg">
  <defs>
    <linearGradient gradientUnits="userSpaceOnUse" x1="85.9307275541795" y1="45.1843137254901" x2="-28.8622291021674" y2="157.733333333333" id="LinearGradient269">
      <stop id="Stop270" stop-color="#81d3f8" offset="0" />
      <stop id="Stop271" stop-color="#02a7f0" offset="1" />
    </linearGradient>
  </defs>
  <g transform="matrix(1 0 0 1 -482 -274 )">
    <path d="M 110.15 95.625  C 108.5375 94  106.4625 93.05  104 92.85  L 104 19.375  C 106.4625 19.1875  108.5375 18.225  110.1375 16.6375  C 111.95 14.8375  112.95 12.4375  112.9625 9.8875  C 112.975 7.3375  111.9875 4.925  110.1875 3.125  C 108.3875 1.325  105.9875 0.3125  103.4375 0.300000000000001  C 100.25 0.287500000000001  97.2875 1.85  95.5 4.475  C 94.3375 6.1875  94.775 8.525  96.4875 9.6875  C 98.2 10.85  100.5375 10.4125  101.7 8.7  C 102.0875 8.1375  102.725 7.8  103.4 7.8  C 103.95 7.8  104.4625 8.0125  104.85 8.4125  C 105.2375 8.8125  105.45 9.325  105.45 9.875  C 105.45 10.425  105.2375 10.9375  104.8375 11.325  C 104.45 11.7125  103.9375 11.925  103.3875 12  L 10.9875 12  C 10.9125 11.925  10.8375 11.925  10.775 11.9375  C 10.7 11.9375  10.625 11.925  10.5625 11.925  L 10.55 11.925  C 9.41250000000001 11.925  8.5 11  8.4875 9.875  C 8.4875 8.7375  9.40000000000001 7.8125  10.5375 7.8125  C 11.225 7.8125  11.8625 8.15  12.2375 8.7125  C 13.4 10.425  15.7375 10.8625  17.45 9.7  C 19.1625 8.53749999999999  19.6 6.2  18.4375 4.4875  C 16.65 1.875  13.7 0.312499999999996  10.5375 0.312499999999996  L 10.5125 0.312499999999996  C 5.2375 0.324999999999996  0.962500000000002 4.625  0.987500000000002 9.9  C 1 14.7125  4.5875 18.6875  10 19.3375  L 10 92.9625  C 4.5875 93.6125  1 97.5875  0.987500000000001 102.4  C 0.975000000000001 107.675  5.25 111.975  10.5125 111.9875  L 10.5375 111.9875  C 13.7 111.9875  16.65 110.425  18.4375 107.8125  C 19.6 106.1  19.1625 103.7625  17.45 102.6  C 15.7375 101.4375  13.4 101.875  12.2375 103.5875  C 11.85 104.15  11.2125 104.4875  10.5375 104.4875  C 9.4 104.4875  8.4875 103.5625  8.4875 102.425  C 8.4875 101.2875  9.4125 100.375  10.55 100.375  L 10.5625 100.375  C 10.6375 100.375  10.7125 100.375  10.7875 100.3625  C 10.8625 100.3625  10.9375 100.375  11 100  L 103.775 100  C 104.1875 100.45  104.5625 100.6375  104.8625 100.9375  C 105.25 101.325  105.4625 101.8375  105.475 102.3875  C 105.475 102.9375  105.2625 103.45  104.875 103.85  C 104.4875 104.25  103.975 104.45  103.425 104.4625  C 102.7375 104.4625  102.1125 104.125  101.725 103.5625  C 100.5625 101.85  98.225 101.4125  96.5125 102.575  C 94.8 103.7375  94.3625 106.075  95.525 107.7875  C 97.3125 110.4  100.2625 111.9625  103.425 111.9625  L 103.45 111.9625  C 108.725 111.95  113 107.65  112.975 102.375  C 112.9625 99.825  111.9625 97.425  110.15 95.625  Z M 17 92  L 17 20  L 96 20  L 96 92  L 17 92  Z " fill-rule="nonzero" fill="url(#LinearGradient269)" stroke="none" transform="matrix(1 0 0 1 482 274 )" />
  </g>
</svg>