<?xml version="1.0" encoding="utf-8"?>
<svg version="1.1" xmlns:xlink="http://www.w3.org/1999/xlink" width="76px" height="60px" xmlns="http://www.w3.org/2000/svg">
  <defs>
    <linearGradient gradientUnits="userSpaceOnUse" x1="57.7941176470588" y1="24.2058823529411" x2="-19.4117647058825" y2="84.4999999999999" id="LinearGradient272">
      <stop id="Stop273" stop-color="#81d3f8" offset="0" />
      <stop id="Stop274" stop-color="#02a7f0" offset="1" />
    </linearGradient>
  </defs>
  <g transform="matrix(1 0 0 1 -501 -302 )">
    <path d="M 75.2375 44.675  C 76.0125 44  76.1 42.8125  75.425 42.0375  L 59.05 22.9875  C 59.025 22.9625  59 22.9375  58.9875 22.9125  C 58.925 22.8375  58.85 22.775  58.775 22.7125  C 58.775 22.7125  58.7625 22.7125  58.7625 22.7  C 58.7125 22.6625  58.675 22.6375  58.625 22.6  C 58.6125 22.5875  58.5875 22.5875  58.575 22.575  C 58.5375 22.55  58.5 22.5375  58.4625 22.5125  C 58.4375 22.5  58.4125 22.4875  58.375 22.475  C 58.35 22.4625  58.325 22.45  58.2875 22.4375  C 58.25 22.425  58.225 22.4125  58.1875 22.4  C 58.1625 22.3875  58.1375 22.3875  58.1125 22.375  C 58.075 22.3625  58.05 22.3625  58.0125 22.35  C 57.9875 22.35  57.9625 22.3375  57.9375 22.3375  C 57.9 22.3375  57.875 22.325  57.8375 22.325  C 57.8125 22.325  57.7875 22.3125  57.75 22.3125  L 57.4875 22.3125  C 57.45 22.3125  57.4125 22.3125  57.375 22.325  C 57.35 22.325  57.3375 22.3375  57.3125 22.3375  C 57.275 22.3375  57.2375 22.35  57.2 22.3625  C 57.175 22.3625  57.1625 22.375  57.1375 22.375  C 57.1 22.3875  57.0625 22.3875  57.025 22.4  C 57 22.4125  56.975 22.4125  56.95 22.425  C 56.9125 22.4375  56.8875 22.45  56.85 22.4625  C 56.8125 22.475  56.7875 22.5  56.75 22.5125  C 56.725 22.525  56.7125 22.5375  56.6875 22.55  C 56.6375 22.575  56.6 22.6  56.55 22.6375  C 56.5375 22.6375  56.5375 22.65  56.525 22.65  C 56.475 22.6875  56.425 22.725  56.3875 22.7625  L 56.375 22.775  C 56.35 22.7875  56.3375 22.8125  56.325 22.825  C 56.3 22.85  56.2625 22.875  56.2375 22.9125  L 32.0375 48.5625  L 22.025 38.625  L 21.9875 38.5875  C 21.9625 38.5625  21.9375 38.5375  21.9125 38.525  C 21.8875 38.5  21.8625 38.4875  21.8375 38.4625  C 21.8125 38.4375  21.7875 38.425  21.7625 38.4  C 21.7375 38.3875  21.7125 38.3625  21.6875 38.35  C 21.6625 38.3375  21.6375 38.3125  21.6125 38.3  C 21.5875 38.2875  21.5625 38.275  21.525 38.2625  C 21.5 38.25  21.475 38.2375  21.4375 38.225  C 21.4125 38.2125  21.375 38.2  21.35 38.1875  C 21.325 38.175  21.3 38.1625  21.2625 38.1625  C 21.2375 38.15  21.2 38.15  21.175 38.1375  C 21.15 38.125  21.1125 38.125  21.0875 38.1125  C 21.0625 38.1  21.025 38.1  21 38.1  C 20.975 38.1  20.9375 38.0875  20.9125 38.0875  C 20.8875 38.0875  20.85 38.0875  20.825 38.075  L 20.5625 38.075  C 20.5375 38.075  20.5 38.075  20.475 38.0875  C 20.4375 38.0875  20.4125 38.1  20.375 38.1  C 20.35 38.1  20.325 38.1125  20.2875 38.1125  C 20.25 38.125  20.225 38.125  20.1875 38.1375  C 20.1625 38.15  20.1375 38.15  20.1125 38.1625  C 20.0875 38.175  20.05 38.1875  20.025 38.2  L 19.95 38.2375  C 19.925 38.25  19.8875 38.2625  19.8625 38.275  L 19.7875 38.3125  C 19.7625 38.325  19.7375 38.3375  19.7125 38.3625  C 19.6875 38.375  19.6625 38.4  19.6375 38.4125  C 19.6125 38.425  19.5875 38.45  19.5625 38.4625  C 19.5375 38.4875  19.5125 38.5  19.4875 38.525  L 19.45 38.5625  L 0.66249999999998 55.8125  C -0.100000000000019 56.5125  -0.15000000000002 57.7  0.549999999999979 58.4625  C 0.924999999999979 58.8625  1.42499999999998 59.075  1.93749999999998 59.075  C 2.38749999999998 59.075  2.84999999999998 58.9125  3.19999999999998 58.5875  L 20.675 42.55  L 30.775 52.5875  L 30.7875 52.6  L 30.8 52.6125  L 30.85 52.6625  C 30.875 52.6875  30.9 52.7  30.925 52.725  C 30.95 52.75  30.975 52.7625  31 52.775  C 31.025 52.7875  31.05 52.8125  31.075 52.825  C 31.1 52.8375  31.125 52.8625  31.1625 52.875  L 31.2375 52.9125  C 31.2625 52.925  31.3 52.9375  31.325 52.95  L 31.4 52.9875  C 31.4375 53  31.4625 53.0125  31.5 53.0249999999999  C 31.525 53.0375  31.55 53.0375  31.575 53.05  C 31.6125 53.0625  31.65 53.0625  31.6875 53.075  C 31.7125 53.075  31.725 53.0875  31.75 53.0875  C 31.7875 53.1  31.8375 53.1  31.875 53.1  C 31.8875 53.1  31.9125 53.1  31.925 53.1125  C 31.9875 53.1125  32.0375 53.125  32.1 53.125  C 32.1625 53.125  32.225 53.125  32.2875 53.1125  C 32.3 53.1125  32.325 53.1125  32.3375 53.1  C 32.375 53.1  32.425 53.0875  32.4625 53.075  C 32.4875 53.075  32.5125 53.0625  32.525 53.0625  C 32.5625 53.05  32.6 53.05  32.6375 53.0375  C 32.6625 53.0249999999999  32.6875 53.0249999999999  32.7125 53.0124999999999  C 32.75 52.9999999999999  32.775 52.9874999999999  32.8125 52.975  L 32.8875 52.9375  C 32.9125 52.925  32.95 52.9125  32.975 52.8875  C 33 52.875  33.025 52.8625  33.05 52.8375  C 33.075 52.825  33.1125 52.8  33.1375 52.7875  C 33.1625 52.775  33.1875 52.75  33.2125 52.7375  C 33.2375 52.7125  33.2625 52.7  33.2875 52.675  C 33.3125 52.65  33.3375 52.6375  33.35 52.6125  C 33.375 52.6  33.3875 52.575  33.4125 52.5625  L 33.425 52.55  L 33.4375 52.5375  L 57.5625 27  L 72.5875 44.475  C 72.9625 44.9125  73.4875 45.125  74.0125 45.125  C 74.45 45.125  74.875 44.975  75.2375 44.675  Z M 9.55 11.7375  C 9.55 17.8375  14.5125 22.7875  20.6 22.7875  C 26.6875 22.7875  31.65 17.8375  31.65 11.7375  C 31.65 5.6375  26.7 0.6875  20.6 0.6875  C 14.5 0.6875  9.55 5.6375  9.55 11.7375  Z M 13.3 11.75  C 13.3 7.725  16.575 4.45  20.6 4.45  C 24.625 4.45  27.9 7.725  27.9 11.75  C 27.9 15.775  24.625 19.05  20.6 19.05  C 16.575 19.05  13.3 15.775  13.3 11.75  Z " fill-rule="nonzero" fill="url(#LinearGradient272)" stroke="none" transform="matrix(1 0 0 1 501 302 )" />
  </g>
</svg>