<?xml version="1.0" encoding="utf-8"?>
<svg version="1.1" xmlns:xlink="http://www.w3.org/1999/xlink" width="86px" height="95px" xmlns="http://www.w3.org/2000/svg">
  <g transform="matrix(1 0 0 1 -539 -280 )">
    <path d="M 86 56.3555338541667  L 86 83.70390625  C 86 89.9048828125  81.6328125 94.9492838541667  76.2757291666667 95  L 9.72427083333333 95  C 4.3671875 94.9492838541667  0 89.9048828125  0 83.70390625  L 0 56.3555338541667  C 0 54.1694067194198  1.60431297977299 52.3972005208333  3.58333333333333 52.3972005208333  C 5.56235368689368 52.3972005208333  7.16666666666667 54.1694067194198  7.16666666666667 56.3555338541667  C 7.16666666666667 56.3555338541667  7.16666666666667 56.3555338541667  8 56.3555338541667  L 8 83.70390625  C 7.16666666666667 85.5395833333333  8.314453125 87.0326171875  9.72427083333333 87  L 76.2757291666667 87  C 77.685546875 87.0326171875  78.8333333333333 85.5395833333333  78 83.70390625  L 78 56.3555338541667  C 78.8333333333333 56.3555338541667  78.8333333333333 56.3555338541667  78.8333333333333 56.3555338541667  C 78.8333333333333 54.1694067194198  80.4376463131063 52.3972005208333  82.4166666666667 52.3972005208333  C 84.395687020227 52.3972005208333  86 54.1694067194198  86 56.3555338541667  Z M 19.3830148294113 34.0750655489491  C 19.3835810668497 34.0750655489491  19.3841473042919 34.0750654006883  19.3847135416667 34.0750651041667  C 20.335513034358 34.0761341425096  21.2474918999874 33.6585651780961  21.9188020833333 32.9147786458333  L 40 13.5659505208333  L 40 63.0859375  C 39.4345833333333 65.2720646347469  41.0388963131063 67.0442708333333  43.0179166666667 67.0442708333333  C 44.996937020227 67.0442708333333  46.60125 65.2720646347469  46 63.0859375  L 46 13.5708984375  L 64.080078125 32.9135416666667  C 64.7521994980839 33.6568220831575  65.6642377687084 34.0744617385575  66.6152864583333 34.0744617385575  C 68.5943143733217 34.0744617385575  70.1986334828433 32.3022487687372  70.1986334828433 30.11611328125  C 70.1986334828433 29.0670517136653  69.8216466194985 28.0608931190752  69.1504947916667 27.3186848958333  L 45.5408072916667 1.21100260416667  C 45.499375 1.16399739583333  45.455703125 1.11946614583333  45.41203125 1.07493489583333  L 45.3594010416667 1.02421875  C 45.334765625 1.00071614583333  45.3101302083333 0.975976562500002  45.284375 0.953710937500001  L 45.2731770833333 0.942578125  C 45.2575 0.927734375  45.2395833333333 0.914127604166668  45.22390625 0.900520833333334  L 45.2026302083333 0.881966145833333  L 45.1477604166667 0.8349609375  L 45.12984375 0.8201171875  L 45.0850520833333 0.785481770833333  L 45.0536979166667 0.761979166666666  L 45.005546875 0.724869791666665  L 44.9831510416667 0.707552083333333  L 44.94171875 0.679101562500001  L 44.9058854166667 0.654361979166669  L 44.8588541666667 0.620963541666668  L 44.8319791666667 0.603645833333336  L 44.800625 0.58385416666667  L 44.7591927083333 0.557877604166669  L 44.7054427083333 0.524479166666668  L 44.6774479166667 0.508398437500002  L 44.6516927083333 0.493554687500001  L 44.609140625 0.470052083333335  L 44.5475520833333 0.436653645833333  L 44.5195572916667 0.421809895833333  L 44.5038802083333 0.414388020833333  L 44.45796875 0.392122395833332  L 44.3851822916667 0.356249999999999  L 44.3594270833333 0.345117187499999  L 44.3493489583333 0.345117187499999  L 44.3045572916667 0.326562499999998  L 44.2183333333333 0.290690104166666  L 44.1959375 0.28203125  L 44.1477864583333 0.264713541666668  C 44.1153125 0.253580729166668  44.0839583333333 0.241210937500002  44.051484375 0.231315104166667  L 43.9854166666667 0.210286458333335  L 43.8823958333333 0.179361979166669  L 43.8185677083333 0.163281250000003  L 43.7065885416667 0.137304687500002  L 43.6405208333333 0.123697916666667  L 43.5352604166667 0.10390625  L 43.456875 0.0940104166666655  L 43.3628125 0.0804036458333305  L 43.2508333333333 0.0717447916666647  L 43.1870052083333 0.0717447916666647  C 43.067655225999 0.0643237144837098  42.9480218573343 0.0643237144837098  42.828671875 0.0717447916666647  L 42.7592447916666 0.0717447916666647  L 42.653984375 0.0804036458333305  L 42.5610416666666 0.0927734374999965  L 42.4815364583333 0.103906249999997  L 42.378515625 0.123697916666663  L 42.3102083333333 0.137304687499998  L 42.203828125 0.16204427083333  L 42.1534375 0.174414062499996  L 42.14 0.174414062499996  C 42.1052864583333 0.183072916666662  42.0705729166667 0.194205729166662  42.0369791666667 0.204101562499997  L 41.9865885416667 0.220182291666663  L 41.9697916666667 0.220182291666663  L 41.874609375 0.25481770833333  L 41.820859375 0.273372395833331  L 41.8018229166667 0.282031249999997  L 41.71671875 0.317903645833329  L 41.6584895833333 0.341406249999995  L 41.6349739583333 0.352539062499996  L 41.5621875 0.388411458333328  L 41.498359375 0.418098958333329  L 41.471484375 0.43294270833333  L 41.4098958333333 0.466341145833331  L 41.34046875 0.504687499999998  L 41.31359375 0.520768229166664  L 41.2609635416667 0.554166666666665  C 41.236328125 0.569010416666666  41.2105729166667 0.583854166666667  41.1870572916667 0.599934895833333  L 41.1601822916667 0.617252604166664  L 41.11203125 0.650651041666666  L 41.0358854166667 0.703841145833333  L 41.0123697916667 0.721158854166665  L 40.9653385416667 0.757031249999997  L 40.8891927083333 0.816406249999996  L 40.87015625 0.832486979166662  L 40.8186458333333 0.877018229166664  L 40.7469791666667 0.937630208333331  L 40.7346614583333 0.949999999999997  C 40.712265625 0.969791666666664  40.6909895833333 0.990820312499999  40.6697135416667 1.01184895833333  L 40.608125 1.06875  C 40.6068633921614 1.07138603866286  40.6049123503509 1.07354125926741  40.6025260416667 1.07493489583333  C 40.5666927083333 1.11080729166667  40.5330989583333 1.1466796875  40.4983854166667 1.1837890625  L 40.4759895833333 1.20852864583333  L 16.8495052083333 27.3174479166667  C 16.1773226474014 28.0598054135416  15.7996814960779 29.0667601366978  15.7996814960779 30.1167322156157  C 15.7996814960779 32.3028593503626  17.4039944758509 34.0750655489491  19.3830148294113 34.0750655489491  Z " fill-rule="nonzero" fill="#ffffff" stroke="none" fill-opacity="0" transform="matrix(1 0 0 1 539 280 )" />
  </g>
</svg>