<?xml version="1.0" encoding="utf-8"?>
<svg version="1.1" xmlns:xlink="http://www.w3.org/1999/xlink" width="251px" height="213px" xmlns="http://www.w3.org/2000/svg">
  <g transform="matrix(1 0 0 1 -415 -225 )">
    <path d="M 417 240  A 13 13 0 0 1 430 227 L 651 227  A 13 13 0 0 1 664 240 L 664 423  A 13 13 0 0 1 651 436 L 430 436  A 13 13 0 0 1 417 423 L 417 240  Z " fill-rule="nonzero" fill="#ffffff" stroke="none" fill-opacity="0" />
    <path d="M 416 240  A 14 14 0 0 1 430 226 L 651 226  A 14 14 0 0 1 665 240 L 665 423  A 14 14 0 0 1 651 437 L 430 437  A 14 14 0 0 1 416 423 L 416 240  Z " stroke-width="2" stroke-dasharray="18,8" stroke="#81d3f8" fill="none" />
  </g>
</svg>