<?xml version="1.0" encoding="utf-8"?>
<svg version="1.1" xmlns:xlink="http://www.w3.org/1999/xlink" width="35px" height="48px" xmlns="http://www.w3.org/2000/svg">
  <g transform="matrix(1 0 0 1 -158 -78 )">
    <path d="M 34.6809895833333 21.0636363636364  L 34.6901041666667 21.0636363636364  C 34.6901041666667 19.6818181818182  33.5690104166667 18.5636363636364  32.18359375 18.5636363636364  L 29.2760416666667 18.5636363636364  L 29.2760416666667 11.9636363636364  C 29.2760416666667 5.42727272727273  23.9440104166667 0.100000000000002  17.3815104166667 0.100000000000002  C 10.828125 0.100000000000002  5.48697916666667 5.41818181818182  5.48697916666667 11.9636363636364  L 5.48697916666667 18.5636363636364  L 2.57942708333334 18.5636363636364  C 1.19401041666667 18.5636363636364  0.0729166666666729 19.6818181818182  0 21.0636363636364  L 0 37.7636363636364  C 0.0729166666666729 43.0636363636364  4.375 47.3545454545455  9.68880208333334 47  L 25.0651041666667 47  C 30.37890625 47.3545454545455  34.6809895833333 43.0636363636364  34.6809895833333 37.7636363636364  L 34.6809895833333 29.8636363636364  L 34.6809895833333 29.6909090909091  L 34.6809895833333 21.0636363636364  Z M 8.22135416666667 19  L 8.22135416666667 11.9545454545455  C 8.22135416666667 6.91818181818182  12.33203125 2.81818181818182  17.3815104166667 2.81818181818182  C 22.4309895833333 2.81818181818182  26.5416666666667 6.91818181818182  26.5416666666667 11.9545454545455  L 26.5416666666667 19  L 8.22135416666667 19  Z " fill-rule="nonzero" fill="#ffffff" stroke="none" transform="matrix(1 0 0 1 158 78 )" />
  </g>
</svg>