<?xml version="1.0" encoding="utf-8"?>
<svg version="1.1" xmlns:xlink="http://www.w3.org/1999/xlink" width="41px" height="41px" xmlns="http://www.w3.org/2000/svg">
  <g transform="matrix(1 0 0 1 -138 -83 )">
    <path d="M 40.6076171875 20.4503515625  C 40.6076171875 9.3886796875  31.6113203125 0.392382812500005  20.5496484375 0.3923828125  C 9.4879765625 0.3923828125  0.491679687499999 9.3886796875  0.491679687499999 20.4503515625  C 0.491679687499999 31.5120234375  9.4879765625 40.5083203125  20.5496484375 40.5083203125  C 31.6113203125 40.5083203125  40.6076171875 31.5120234375  40.6076171875 20.4503515625  Z M 20.559578125 35.5633359375  C 12.218640625 35.5633359375  5.44659375 28.781359375  5.44659375 20.4503515625  C 5.44659375 17.1735546875  6.499140625 14.1549296875  8.2765546875 11.6824375  L 29.3274921875 32.733375  C 26.855 34.5107890625  23.8264453125 35.5633359375  20.559578125 35.5633359375  Z M 35.6427734375 20.4503515625  C 35.652703125 23.7271484375  34.60015625 26.7457734375  32.8227421875 29.2281953125  L 11.7718046875 8.1772578125  C 14.244296875 6.39984375000001  17.2728515625 5.347296875  20.53971875 5.347296875  C 28.8707265625 5.347296875  35.6427734375 12.1292734375  35.6427734375 20.4503515625  Z " fill-rule="nonzero" fill="#ffffff" stroke="none" transform="matrix(1 0 0 1 138 83 )" />
  </g>
</svg>