<?xml version="1.0" encoding="utf-8"?>
<svg version="1.1" xmlns:xlink="http://www.w3.org/1999/xlink" width="20px" height="20px" xmlns="http://www.w3.org/2000/svg">
  <g transform="matrix(1 0 0 1 -716 -240 )">
    <path d="M 19.8909090909091 10  C 19.8909090909091 4.47272727272727  15.3818181818182 0.109090909090909  10 0.109090909090909  C 4.61818181818182 0.109090909090909  0.109090909090909 4.47272727272727  0.109090909090909 10  C 0.109090909090909 15.5272727272727  4.47272727272727 19.8909090909091  10 19.8909090909091  C 15.5272727272727 19.8909090909091  19.8909090909091 15.5272727272727  19.8909090909091 10  Z M 15.5272727272727 6.07272727272727  C 16.1090909090909 6.36363636363636  16.1090909090909 6.94545454545454  15.6727272727273 7.38181818181818  L 9.27272727272727 14.3636363636364  C 8.98181818181818 14.6545454545455  8.4 14.6545454545455  8.10909090909091 14.3636363636364  L 4.90909090909091 11.0181818181818  C 4.61818181818182 10.7272727272727  4.61818181818182 10.1454545454545  4.90909090909091 9.85454545454545  C 5.2 9.56363636363636  5.78181818181818 9.56363636363636  6.07272727272727 9.85454545454545  L 8.69090909090909 12.4727272727273  L 14.3636363636364 6.07272727272727  C 14.6545454545455 5.78181818181818  15.2363636363636 5.78181818181818  15.5272727272727 6.07272727272727  Z " fill-rule="nonzero" fill="#04f21c" stroke="none" transform="matrix(1 0 0 1 716 240 )" />
  </g>
</svg>