<?xml version="1.0" encoding="utf-8"?>
<svg version="1.1" xmlns:xlink="http://www.w3.org/1999/xlink" width="10px" height="10px" xmlns="http://www.w3.org/2000/svg">
  <g transform="matrix(1 0 0 1 -1288 -795 )">
    <path d="M 10 5.93216145833333  L 10 8.8109375  C 10 9.463671875  9.4921875 9.99466145833333  8.86927083333333 9.99466145833333  L 1.13072916666667 9.99466145833333  C 0.5078125 9.99466145833333  0 9.463671875  0 8.8109375  L 0 5.93216145833333  C 0 5.7020428125705  0.186548020903836 5.51549479166667  0.416666666666667 5.51549479166667  C 0.646785312429497 5.51549479166667  0.833333333333333 5.7020428125705  0.833333333333333 5.93216145833333  L 0.833333333333333 8.8109375  C 0.833333333333333 9.00416666666667  0.966796875 9.161328125  1.13072916666667 9.161328125  L 8.86927083333333 9.161328125  C 9.033203125 9.161328125  9.16666666666667 9.00416666666667  9.16666666666667 8.8109375  L 9.16666666666667 5.93216145833333  C 9.16666666666667 5.7020428125705  9.3532146875705 5.51549479166667  9.58333333333333 5.51549479166667  C 9.81345197909616 5.51549479166667  10 5.7020428125705  10 5.93216145833333  Z M 2.25403645833333 3.58684895833333  C 2.36459453887884 3.58696148868522  2.47063859302179 3.54300686085222  2.54869791666667 3.46471354166667  L 4.58424479166667 1.42799479166667  L 4.58541666666667 6.640625  C 4.58541666666667 6.87074364576283  4.7719646875705 7.05729166666667  5.00208333333333 7.05729166666667  C 5.23220197909616 7.05729166666667  5.41875 6.87074364576283  5.41875 6.640625  L 5.417578125 1.428515625  L 7.451171875 3.46458333333333  C 7.52932552303301 3.54282337717447  7.63537648473354 3.58678544616395  7.74596354166667 3.58678544616395  C 7.97608306666532 3.58678544616395  8.16263180033062 3.40023671249865  8.16263180033062 3.1701171875  C 8.16263180033062 3.05968965407003  8.11879611854634 2.95377822306054  8.04075520833333 2.87565104166667  L 5.29544270833333 0.127473958333333  C 5.290625 0.122526041666667  5.285546875 0.117838541666666  5.28046875 0.113151041666667  L 5.27434895833333 0.1078125  C 5.271484375 0.105338541666667  5.26861979166667 0.102734375  5.265625 0.100390625  L 5.26432291666667 0.0992187500000001  C 5.2625 0.09765625  5.26041666666667 0.0962239583333335  5.25859375 0.0947916666666667  L 5.25611979166667 0.0928385416666666  L 5.24973958333333 0.087890625  L 5.24765625 0.086328125  L 5.24244791666667 0.0826822916666666  L 5.23880208333333 0.0802083333333333  L 5.233203125 0.0763020833333331  L 5.23059895833333 0.0744791666666667  L 5.22578125 0.0714843750000001  L 5.22161458333333 0.0688802083333336  L 5.21614583333333 0.0653645833333335  L 5.21302083333333 0.063541666666667  L 5.209375 0.0614583333333337  L 5.20455729166667 0.0587239583333336  L 5.19830729166667 0.0552083333333335  L 5.19505208333333 0.0535156250000002  L 5.19205729166667 0.0519531250000001  L 5.187109375 0.0494791666666668  L 5.17994791666667 0.0459635416666667  L 5.17669270833333 0.0444010416666666  L 5.17486979166667 0.0436197916666666  L 5.16953125 0.0412760416666665  L 5.16106770833333 0.0374999999999999  L 5.15807291666667 0.0363281249999999  L 5.15690104166667 0.0363281249999999  L 5.15169270833333 0.0343749999999998  L 5.14166666666667 0.0305989583333333  L 5.1390625 0.0296875  L 5.13346354166667 0.0278645833333335  C 5.1296875 0.0266927083333335  5.12604166666667 0.0253906250000002  5.122265625 0.0243489583333334  L 5.11458333333333 0.0221354166666669  L 5.10260416666667 0.0188802083333336  L 5.09518229166667 0.0171875000000003  L 5.08216145833333 0.0144531250000002  L 5.07447916666667 0.0130208333333333  L 5.06223958333333 0.0109375  L 5.053125 0.00989583333333321  L 5.0421875 0.00846354166666637  L 5.02916666666667 0.00755208333333313  L 5.02174479166667 0.00755208333333313  C 5.00786688674407 0.00677091731407472  4.99395602992259 0.00677091731407472  4.980078125 0.00755208333333313  L 4.97200520833333 0.00755208333333313  L 4.959765625 0.00846354166666637  L 4.94895833333333 0.00976562499999963  L 4.93971354166666 0.0109374999999997  L 4.927734375 0.013020833333333  L 4.91979166666666 0.0144531249999998  L 4.907421875 0.0170572916666663  L 4.9015625 0.0183593749999996  L 4.9 0.0183593749999996  C 4.89596354166667 0.0192708333333328  4.89192708333333 0.0204427083333329  4.88802083333333 0.0214843749999997  L 4.88216145833333 0.023177083333333  L 4.88020833333333 0.023177083333333  L 4.869140625 0.0268229166666663  L 4.862890625 0.0287760416666664  L 4.86067708333333 0.0296874999999996  L 4.85078125 0.0334635416666662  L 4.84401041666667 0.0359374999999995  L 4.84127604166667 0.0371093749999996  L 4.8328125 0.0408854166666661  L 4.825390625 0.0440104166666662  L 4.822265625 0.0455729166666663  L 4.81510416666667 0.0490885416666664  L 4.80703125 0.0531249999999998  L 4.80390625 0.0548177083333331  L 4.79778645833333 0.0583333333333332  C 4.794921875 0.0598958333333333  4.79192708333333 0.0614583333333333  4.78919270833333 0.0631510416666666  L 4.78606770833333 0.0649739583333331  L 4.78046875 0.0684895833333332  L 4.77161458333333 0.0740885416666666  L 4.76888020833333 0.0759114583333331  L 4.76341145833333 0.0796874999999997  L 4.75455729166667 0.0859374999999996  L 4.75234375 0.0876302083333328  L 4.74635416666666 0.092317708333333  L 4.73802083333333 0.0986979166666665  L 4.73658854166666 0.0999999999999997  C 4.733984375 0.102083333333333  4.73151041666666 0.104296875  4.72903645833333 0.106510416666666  L 4.721875 0.1125  C 4.72172830141411 0.112777477753985  4.72150143608732 0.11300434308078  4.72122395833333 0.113151041666667  C 4.71705729166666 0.116927083333333  4.71315104166666 0.120703125  4.70911458333333 0.124609375  L 4.70651041666667 0.127213541666666  L 1.95924479166667 2.87552083333333  C 1.88108402876761 2.95366372774122  1.83717226698581 3.05965896175766  1.83717226698581 3.17018233848587  C 1.83717226698581 3.4003009842487  2.02372028788964 3.58684900515253  2.25383893365247 3.58684900515253  Z " fill-rule="nonzero" fill="#ffffff" stroke="none" transform="matrix(1 0 0 1 1288 795 )" />
  </g>
</svg>