<?xml version="1.0" encoding="utf-8"?>
<svg version="1.1" xmlns:xlink="http://www.w3.org/1999/xlink" width="9px" height="10px" xmlns="http://www.w3.org/2000/svg">
  <g transform="matrix(1 0 0 1 -1289 -706 )">
    <path d="M 5.92232900943396 5.07884955752212  C 5.92232900943396 5.42888274336283  6.19458962264151 5.71264380530974  6.53043396226415 5.71264380530974  C 6.86628891509434 5.71264380530974  7.13853891509434 5.42888274336283  7.13853891509434 5.07884955752212  C 7.13853891509434 4.72881637168142  6.86628891509434 4.4450110619469  6.53043396226415 4.4450110619469  C 6.19460023584906 4.4450110619469  5.92232900943396 4.72881637168142  5.92232900943396 5.07884955752212  Z M 6.32773231132075 5.07884955752212  C 6.32773231132075 4.96215707964602  6.41849646226415 4.86757743362832  6.53043396226415 4.86757743362832  C 6.6423820754717 4.86757743362832  6.73313561320755 4.96216814159292  6.73313561320755 5.07884955752212  C 6.73313561320755 5.19550884955752  6.6423820754717 5.29012168141593  6.53043396226415 5.29012168141593  C 6.41849646226415 5.29012168141593  6.32773231132075 5.19550884955752  6.32773231132075 5.07884955752212  Z M 1.86830660377358 5.07884955752212  C 1.86830660377358 5.42888274336283  2.14053537735849 5.71264380530974  2.47639033018868 5.71264380530974  C 2.81224528301887 5.71264380530974  3.08449528301887 5.42888274336283  3.08449528301887 5.07884955752212  C 3.08449528301887 4.72881637168142  2.81224528301887 4.4450110619469  2.47639033018868 4.4450110619469  C 2.14053537735849 4.4450110619469  1.86830660377358 4.72881637168142  1.86830660377358 5.07884955752212  Z M 2.27368867924528 5.07884955752212  C 2.27368867924528 4.96215707964602  2.36446344339623 4.86757743362832  2.47639033018868 4.86757743362832  C 2.58833844339623 4.86757743362832  2.67909198113208 4.96216814159292  2.67909198113208 5.07884955752212  C 2.67909198113208 5.19550884955752  2.58833844339623 5.29012168141593  2.47639033018868 5.29012168141593  C 2.36446344339623 5.29012168141593  2.27368867924528 5.19550884955752  2.27368867924528 5.07884955752212  Z M 3.89530188679245 7.40282079646018  C 3.89530188679245 7.75285398230088  4.16757311320755 8.0366592920354  4.50340683962264 8.0366592920354  C 4.83926179245283 8.0366592920354  5.11151179245283 7.75285398230089  5.11151179245283 7.40282079646018  C 5.11151179245283 7.05278761061947  4.83926179245283 6.76902654867257  4.50340683962264 6.76902654867257  C 4.16757311320755 6.76902654867257  3.89530188679245 7.05278761061947  3.89530188679245 7.40282079646018  Z M 4.30070518867925 7.40282079646018  C 4.30070518867925 7.28615044247788  4.39147995283019 7.19157079646018  4.50340683962264 7.19157079646018  C 4.61537617924528 7.19157079646018  4.70610849056604 7.28616150442478  4.70610849056604 7.40282079646018  C 4.70610849056604 7.51950221238938  4.61537617924528 7.61409292035398  4.50340683962264 7.61409292035398  C 4.39146933962264 7.61409292035398  4.30070518867925 7.51950221238938  4.30070518867925 7.40282079646018  Z M 5.92232900943396 7.40282079646018  C 5.92232900943396 7.75285398230088  6.19458962264151 8.0366592920354  6.53043396226415 8.0366592920354  C 6.86628891509434 8.0366592920354  7.13853891509434 7.75285398230089  7.13853891509434 7.40282079646018  C 7.13853891509434 7.05278761061947  6.86628891509434 6.76902654867257  6.53043396226415 6.76902654867257  C 6.19460023584906 6.76902654867257  5.92232900943396 7.05278761061947  5.92232900943396 7.40282079646018  Z M 6.32773231132075 7.40282079646018  C 6.32773231132075 7.28615044247788  6.41849646226415 7.19157079646018  6.53043396226415 7.19157079646018  C 6.6423820754717 7.19157079646018  6.73313561320755 7.28616150442478  6.73313561320755 7.40282079646018  C 6.73313561320755 7.51950221238938  6.6423820754717 7.61409292035398  6.53043396226415 7.61409292035398  C 6.41849646226415 7.61409292035398  6.32773231132075 7.51950221238938  6.32773231132075 7.40282079646018  Z M 8.96286438679245 1.48721238938053  C 8.96285377358491 1.02049778761062  8.59985023584906 0.64212389380531  8.15206839622642 0.64212389380531  L 7.13853891509434 0.64212389380531  C 7.13853891509434 0.292068584070797  6.86628891509434 0.0082853982300886  6.53043396226415 0.0082853982300886  C 6.19460023584906 0.0082853982300886  5.92232900943396 0.292068584070797  5.92232900943396 0.642101769911504  L 5.11152240566038 0.64212389380531  C 5.11152240566038 0.292068584070797  4.83927240566038 0.0082853982300886  4.50341745283019 0.0082853982300886  C 4.16758372641509 0.0082853982300886  3.8953125 0.292068584070797  3.8953125 0.642101769911504  L 3.08450589622641 0.64212389380531  C 3.08450589622641 0.292068584070797  2.81225589622641 0.0082853982300886  2.47640094339623 0.0082853982300886  C 2.14054599056604 0.0082853982300886  1.86831721698113 0.292068584070797  1.86831721698113 0.642101769911504  L 0.854808962264151 0.64212389380531  C 0.407016509433962 0.64212389380531  0.0439811320754715 1.02048672566372  0.0439811320754715 1.48721238938053  L 0.0439811320754715 9.09299778761062  C 0.0439811320754715 9.55974557522124  0.407016509433962 9.93810840707965  0.854808962264151 9.93810840707965  L 8.15207900943396 9.93810840707965  C 8.59987146226415 9.93810840707965  8.96286438679245 9.55974557522124  8.96286438679245 9.09299778761062  L 8.96286438679245 1.48721238938053  Z M 6.32773231132075 1.06466814159292  L 6.32773231132075 0.642101769911504  C 6.32773231132075 0.525420353982301  6.4185070754717 0.430829646017699  6.53043396226415 0.430829646017699  C 6.6423820754717 0.430829646017699  6.73313561320755 0.525420353982301  6.73313561320755 0.642101769911504  L 6.73313561320755 1.06466814159292  C 6.73313561320755 1.18132743362832  6.6423820754717 1.27591814159292  6.53043396226415 1.27591814159292  C 6.41849646226415 1.27591814159292  6.32773231132075 1.18132743362832  6.32773231132075 1.06466814159292  Z M 4.30070518867925 1.06466814159292  L 4.30070518867925 0.642101769911504  C 4.30070518867925 0.525420353982301  4.39147995283019 0.430829646017699  4.50340683962264 0.430829646017699  C 4.61537617924528 0.430829646017699  4.70610849056604 0.525420353982301  4.70610849056604 0.642101769911504  L 4.70610849056604 1.06466814159292  C 4.70610849056604 1.18132743362832  4.61537617924528 1.27591814159292  4.50340683962264 1.27591814159292  C 4.39146933962264 1.27591814159292  4.30070518867925 1.18132743362832  4.30070518867925 1.06466814159292  Z M 2.27368867924528 1.06466814159292  L 2.27368867924528 0.642101769911504  C 2.27368867924528 0.525420353982301  2.36446344339623 0.430829646017699  2.47639033018868 0.430829646017699  C 2.58833844339623 0.430829646017699  2.67909198113207 0.525420353982301  2.67909198113207 0.642101769911504  L 2.67909198113207 1.06466814159292  C 2.67909198113207 1.18132743362832  2.58833844339623 1.27591814159292  2.47639033018868 1.27591814159292  C 2.36446344339623 1.27591814159292  2.27368867924528 1.18132743362832  2.27368867924528 1.06466814159292  Z M 8.55745047169811 2.96609513274336  L 8.55745047169811 9.09299778761062  C 8.55745047169811 9.32637168141593  8.37595400943396 9.51558628318584  8.15206839622642 9.51558628318584  L 0.854798349056604 9.51558628318584  C 0.630870283018868 9.51558628318584  0.449395047169811 9.32637168141593  0.449395047169811 9.09299778761062  L 0.449395047169811 2.96609513274336  L 8.55745047169811 2.96609513274336  Z M 8.55745047169811 2.54357300884956  L 0.449395047169811 2.54357300884956  L 0.449395047169811 1.48721238938053  C 0.449395047169811 1.25383849557522  0.630870283018868 1.06469026548673  0.854798349056604 1.06469026548673  L 1.86830660377358 1.06469026548673  C 1.86831721698113 1.41471238938053  2.14054599056604 1.69848451327434  2.47639033018868 1.69848451327434  C 2.81224528301887 1.69848451327434  3.08448466981132 1.41471238938053  3.08449528301887 1.06469026548673  L 3.89530188679245 1.06469026548673  C 3.8953125 1.41471238938053  4.16757311320755 1.69848451327434  4.50340683962264 1.69848451327434  C 4.83926179245283 1.69848451327434  5.11150117924528 1.41471238938053  5.11151179245283 1.06469026548673  L 5.92231839622642 1.06469026548673  C 5.92232900943396 1.41471238938053  6.19458962264151 1.69848451327434  6.5304233490566 1.69848451327434  C 6.86627830188679 1.69848451327434  7.13851768867925 1.41471238938053  7.13852830188679 1.06469026548673  L 8.15205778301887 1.06469026548673  C 8.37594339622641 1.06469026548673  8.55743985849057 1.25383849557522  8.55743985849057 1.48721238938053  L 8.55743985849057 2.54357300884956  Z M 3.89530188679245 5.07884955752212  C 3.89530188679245 5.42888274336283  4.16757311320755 5.71264380530974  4.50340683962264 5.71264380530974  C 4.83926179245283 5.71264380530974  5.11151179245283 5.42888274336283  5.11151179245283 5.07884955752212  C 5.11151179245283 4.72881637168142  4.83926179245283 4.4450110619469  4.50340683962264 4.4450110619469  C 4.16757311320755 4.4450110619469  3.89530188679245 4.72881637168142  3.89530188679245 5.07884955752212  Z M 4.30070518867925 5.07884955752212  C 4.30070518867925 4.96215707964602  4.39147995283019 4.86757743362832  4.50340683962264 4.86757743362832  C 4.61537617924528 4.86757743362832  4.70610849056604 4.96216814159292  4.70610849056604 5.07884955752212  C 4.70610849056604 5.19550884955752  4.61537617924528 5.29012168141593  4.50340683962264 5.29012168141593  C 4.39146933962264 5.29012168141593  4.30070518867925 5.19550884955752  4.30070518867925 5.07884955752212  Z M 1.86830660377358 7.40282079646018  C 1.86830660377358 7.75285398230088  2.14053537735849 8.0366592920354  2.47639033018868 8.0366592920354  C 2.81224528301887 8.0366592920354  3.08449528301887 7.75285398230089  3.08449528301887 7.40282079646018  C 3.08449528301887 7.05278761061947  2.81224528301887 6.76902654867257  2.47639033018868 6.76902654867257  C 2.14053537735849 6.76902654867257  1.86830660377358 7.05278761061947  1.86830660377358 7.40282079646018  Z M 2.27368867924528 7.40282079646018  C 2.27368867924528 7.28615044247788  2.36446344339623 7.19157079646018  2.47639033018868 7.19157079646018  C 2.58833844339623 7.19157079646018  2.67909198113208 7.28616150442478  2.67909198113208 7.40282079646018  C 2.67909198113208 7.51950221238938  2.58833844339623 7.61409292035398  2.47639033018868 7.61409292035398  C 2.36446344339623 7.61409292035398  2.27368867924528 7.51950221238938  2.27368867924528 7.40282079646018  Z " fill-rule="nonzero" fill="#ffffff" stroke="none" transform="matrix(1 0 0 1 1289 706 )" />
  </g>
</svg>