<?xml version="1.0" encoding="utf-8"?>
<svg version="1.1" xmlns:xlink="http://www.w3.org/1999/xlink" width="17px" height="8px" xmlns="http://www.w3.org/2000/svg">
  <g transform="matrix(1 0 0 1 -695 -325 )">
    <path d="M 8.80868421052631 7.75869565217392  C 8.70131578947368 7.84565217391305  8.57157894736842 7.89130434782609  8.43960526315789 7.89130434782609  C 8.28302631578947 7.89130434782609  8.12868421052631 7.82826086956522  8.01907894736842 7.70652173913043  C 7.81552631578947 7.4804347826087  7.84013157894737 7.13695652173913  8.07276315789474 6.93913043478261  L 15.9307894736842 0.265217391304349  C 16.1634210526316 0.0673913043478266  16.5168421052632 0.0913043478260879  16.7203947368421 0.317391304347827  C 16.9239473684211 0.543478260869565  16.8993421052632 0.886956521739131  16.6667105263158 1.08478260869565  L 8.80868421052631 7.75869565217392  Z M 8.84671052631579 7.68260869565217  C 8.73486842105263 7.80652173913043  8.58052631578947 7.8695652173913  8.42394736842105 7.8695652173913  C 8.29421052631579 7.8695652173913  8.16223684210526 7.82608695652174  8.0571052631579 7.73478260869565  L 0.199078947368422 1.06086956521739  C -0.0335526315789467 0.863043478260868  -0.0581578947368413 0.519565217391304  0.145394736842106 0.293478260869564  C 0.348947368421053 0.0673913043478254  0.702368421052632 0.043478260869564  0.935 0.241304347826086  L 8.79302631578947 6.91521739130435  C 9.02565789473684 7.11304347826087  9.05026315789474 7.45652173913043  8.84671052631579 7.68260869565217  Z " fill-rule="nonzero" fill="#555555" stroke="none" transform="matrix(1 0 0 1 695 325 )" />
  </g>
</svg>