<?xml version="1.0" encoding="utf-8"?>
<svg version="1.1" xmlns:xlink="http://www.w3.org/1999/xlink" width="15px" height="15px" xmlns="http://www.w3.org/2000/svg">
  <g transform="matrix(1 0 0 1 -591 -793 )">
    <path d="M 15 7.5  C 15 3.35786437626905  11.642135623731 0  7.5 0  C 3.35786437626905 0  0 3.35786437626905  0 7.5  C 0 11.642135623731  3.35786437626905 15  7.5 15  C 11.642135623731 15  15 11.642135623731  15 7.5  Z M 7.55357142857143 11.7857142857143  C 7.11392192291568 11.7857533673844  6.75586199169487 11.4324675685798  6.75 10.9928571428571  C 6.75577051318725 10.5514692175451  7.11218350325935 10.195056227473  7.55357142857143 10.1892857142857  C 7.99318185429412 10.1951477059806  8.34646765309866 10.5532076372014  8.34642857142857 10.9928571428571  C 8.34642857142857 11.4307400516516  7.99145433736584 11.7857142857143  7.55357142857143 11.7857142857143  Z M 10.1142857142857 4.92857142857143  C 10.0474114809504 5.83403308009858  9.60924831264239 6.67158391509448  8.90357142857143 7.24285714285714  C 8.483642853568 7.57377142113921  8.1981039970091 8.04586233064993  8.1 8.57142857142857  L 8.1 9.10714285714286  C 8.03167184118493 9.34633925706046  7.81304997020003 9.51125510510265  7.56428571428572 9.51125510510265  C 7.31552145837141 9.51125510510265  7.0968995873865 9.34633925706046  7.02857142857143 9.10714285714286  L 7.02857142857143 8.7  C 7.12461764200831 7.9069252985613  7.52869615957214 7.18343233378036  8.15357142857143 6.68571428571429  C 8.69866919745604 6.24780138703978  9.0583616386227 5.62025287266389  9.16071428571429 4.92857142857143  C 9.1637485900214 4.8911373997341  9.16526760432499 4.85359596156416  9.16526760432499 4.81603915768494  C 9.16526760432499 4.04678539899204  8.54166422016073 3.42318201482779  7.77241046146784 3.42318201482779  C 7.73154767300058 3.42318201482779  7.69070467715277 3.42498022554046  7.65 3.42857142857143  C 6.57857142857143 3.42857142857143  5.97857142857143 4.125  5.94642857142857 5.43214285714286  C 5.9192518328427 5.70285558020205  5.69347140070994 5.9102049566505  5.42142857142857 5.91428571428571  C 5.15154582910897 5.90967474534668  4.92913793012133 5.70116734004577  4.90714285714286 5.43214285714286  L 4.90714285714286 5.35714285714286  C 4.90149052040764 5.28757922323253  4.89866086640265 5.2178150219454  4.89866086640265 5.14802212779865  C 4.89866086640265 3.72194400591414  6.05472560166099 2.56587927065579  7.4808037235455 2.56587927065579  C 7.53724797571155 2.56587927065579  7.5936770525601 2.56773003195105  7.65 2.57142857142857  C 7.71850448686683 2.56515871006375  7.78725945272793 2.56201887857552  7.85605026521348 2.56201887857552  C 9.10460828893809 2.56201887857552  10.1167645509278 3.5741751405652  10.1167645509278 4.82273316428981  C 10.1167645509278 4.85802709859074  10.1159380454846 4.8933161934985  10.1142857142857 4.92857142857143  Z " fill-rule="nonzero" fill="#000000" stroke="none" transform="matrix(1 0 0 1 591 793 )" />
  </g>
</svg>