<?xml version="1.0" encoding="utf-8"?>
<svg version="1.1" xmlns:xlink="http://www.w3.org/1999/xlink" width="141px" height="34px" xmlns="http://www.w3.org/2000/svg">
  <g transform="matrix(1 0 0 1 -1418 -156 )">
    <path d="M 1419 161  A 4 4 0 0 1 1423 157 L 1554 157  A 4 4 0 0 1 1558 161 L 1558 185  A 4 4 0 0 1 1554 189 L 1423 189  A 4 4 0 0 1 1419 185 L 1419 161  Z " fill-rule="nonzero" fill="#ffffff" stroke="none" fill-opacity="0" />
    <path d="M 1418.5 161  A 4.5 4.5 0 0 1 1423 156.5 L 1554 156.5  A 4.5 4.5 0 0 1 1558.5 161 L 1558.5 185  A 4.5 4.5 0 0 1 1554 189.5 L 1423 189.5  A 4.5 4.5 0 0 1 1418.5 185 L 1418.5 161  Z " stroke-width="1" stroke-dasharray="9,4" stroke="#d9001b" fill="none" stroke-dashoffset="0.5" />
  </g>
</svg>