<?xml version="1.0" encoding="utf-8"?>
<svg version="1.1" xmlns:xlink="http://www.w3.org/1999/xlink" width="10px" height="716px" preserveAspectRatio="xMidYMin meet" viewBox="70 792  8 716" xmlns="http://www.w3.org/2000/svg">
  <path d="M 74.5 792  L 74.5 1498  A 5 5 0 0 0 79 1503.5 L 980 1503.5  A 3 3 0 0 1 983 1500.5 A 3 3 0 0 1 986 1503.5 L 1450 1503.5  A 3 3 0 0 1 1453 1500.5 A 3 3 0 0 1 1456 1503.5 L 1727 1503.5  A 3 3 0 0 1 1730 1500.5 A 3 3 0 0 1 1733 1503.5 L 2321 1503.5  A 5 5 0 0 1 2326.5 1508.5 L 2326.5 2088  " stroke-width="1" stroke-dasharray="9,4" stroke="#02a7f0" fill="none" />
  <path d="M 2320.5 2082.3  L 2326.5 2089  L 2332.5 2082.3  L 2326.5 2084.6  L 2320.5 2082.3  Z " fill-rule="nonzero" fill="#02a7f0" stroke="none" />
</svg>