<?xml version="1.0" encoding="utf-8"?>
<svg version="1.1" xmlns:xlink="http://www.w3.org/1999/xlink" width="367px" height="10px" preserveAspectRatio="xMinYMid meet" viewBox="2574 1680  367 8" xmlns="http://www.w3.org/2000/svg">
  <path d="M 1483 452.5  L 1727 452.5  A 3 3 0 0 1 1730 449.5 A 3 3 0 0 1 1733 452.5 L 2156 452.5  A 3 3 0 0 1 2159 449.5 A 3 3 0 0 1 2162 452.5 L 2931 452.5  A 5 5 0 0 1 2936.5 457.5 L 2936.5 1679  A 5 5 0 0 1 2931.5 1684.5 L 2575 1684.5  " stroke-width="1" stroke-dasharray="9,4" stroke="#f59a23" fill="none" />
  <path d="M 2580.7 1678.5  L 2574 1684.5  L 2580.7 1690.5  L 2578.4 1684.5  L 2580.7 1678.5  Z " fill-rule="nonzero" fill="#f59a23" stroke="none" />
</svg>