<?xml version="1.0" encoding="utf-8"?>
<svg version="1.1" xmlns:xlink="http://www.w3.org/1999/xlink" width="175px" height="10px" preserveAspectRatio="xMinYMid meet" viewBox="1382 1168  175 8" xmlns="http://www.w3.org/2000/svg">
  <path d="M 1552.5 103  L 1552.5 303  A 3 3 0 0 1 1555.5 306 A 3 3 0 0 1 1552.5 309 L 1552.5 449  A 3 3 0 0 1 1555.5 452 A 3 3 0 0 1 1552.5 455 L 1552.5 1167  A 5 5 0 0 1 1547 1172.5 L 1508 1172.5  A 3 3 0 0 0 1505 1169.5 A 3 3 0 0 0 1502 1172.5 L 1456 1172.5  A 3 3 0 0 0 1453 1169.5 A 3 3 0 0 0 1450 1172.5 L 1383 1172.5  " stroke-width="1" stroke-dasharray="9,4" stroke="#02a7f0" fill="none" />
  <path d="M 1388.7 1166.5  L 1382 1172.5  L 1388.7 1178.5  L 1386.4 1172.5  L 1388.7 1166.5  Z " fill-rule="nonzero" fill="#02a7f0" stroke="none" />
</svg>